<?xml version="1.0" encoding="UTF-8" standalone="no"?>
<!-- Created with Inkscape (http://www.inkscape.org/) -->

<svg
   width="48"
   height="48"
   viewBox="0 0 12.7 12.7"
   version="1.1"
   id="svg5"
   inkscape:version="1.1.2 (0a00cf5339, 2022-02-04)"
   sodipodi:docname="accessories-notes.svg"
   xmlns:inkscape="http://www.inkscape.org/namespaces/inkscape"
   xmlns:sodipodi="http://sodipodi.sourceforge.net/DTD/sodipodi-0.dtd"
   xmlns:xlink="http://www.w3.org/1999/xlink"
   xmlns="http://www.w3.org/2000/svg"
   xmlns:svg="http://www.w3.org/2000/svg">
  <sodipodi:namedview
     id="namedview7"
     pagecolor="#ffffff"
     bordercolor="#666666"
     borderopacity="1.0"
     inkscape:pageshadow="2"
     inkscape:pageopacity="0.0"
     inkscape:pagecheckerboard="0"
     inkscape:document-units="px"
     showgrid="false"
     units="px"
     inkscape:zoom="11.667262"
     inkscape:cx="32.098362"
     inkscape:cy="35.398194"
     inkscape:window-width="1920"
     inkscape:window-height="1010"
     inkscape:window-x="0"
     inkscape:window-y="0"
     inkscape:window-maximized="1"
     inkscape:current-layer="svg5"
     showguides="false" />
  <defs
     id="defs2">
    <linearGradient
       inkscape:collect="always"
       id="linearGradient3598">
      <stop
         style="stop-color:#fff4c9;stop-opacity:1"
         offset="0"
         id="stop3594" />
      <stop
         style="stop-color:#fee581;stop-opacity:1"
         offset="1"
         id="stop3596" />
    </linearGradient>
    <linearGradient
       inkscape:collect="always"
       id="linearGradient1871">
      <stop
         style="stop-color:#ffffff;stop-opacity:1;"
         offset="0"
         id="stop1867" />
      <stop
         style="stop-color:#ffffff;stop-opacity:0.1"
         offset="0.12"
         id="stop2515" />
      <stop
         style="stop-color:#ffffff;stop-opacity:0.102"
         offset="0.89999998"
         id="stop2581" />
      <stop
         style="stop-color:#ffffff;stop-opacity:0.502"
         offset="1"
         id="stop1869" />
    </linearGradient>
    <linearGradient
       inkscape:collect="always"
       xlink:href="#linearGradient1871"
       id="linearGradient1873"
       x1="17.222656"
       y1="3.5"
       x2="17.222656"
       y2="44.466438"
       gradientUnits="userSpaceOnUse"
       gradientTransform="matrix(0.26458333,0,0,0.26458333,0,-0.13229166)" />
    <linearGradient
       inkscape:collect="always"
       xlink:href="#linearGradient3598"
       id="linearGradient3600"
       x1="7.8838859"
       y1="11.784748"
       x2="4.4751787"
       y2="0.5291667"
       gradientUnits="userSpaceOnUse" />
  </defs>
  <path
     id="rect3143"
     style="opacity:0.1;fill:#000000;fill-opacity:1;stroke-width:0.264583"
     d="m 4.5160033,1.0583334 c -3.60405388,0 -4.1191283,0.5137855 -4.1191283,4.1144775 v 2.883545 c 0,3.6006791 0.51507442,4.1144791 4.1191283,4.1144791 h 3.6679933 c 3.6040544,0 4.1191284,-0.5138 4.1191284,-4.1144791 v -2.883545 c 0,-3.600692 -0.515074,-4.1144775 -4.1191284,-4.1144775 z" />
  <path
     style="display:inline;fill:url(#linearGradient3600);fill-opacity:1;stroke:none;stroke-width:0.0992187;stroke-linecap:round;stroke-linejoin:round;stroke-miterlimit:4;stroke-dasharray:none;stroke-dashoffset:0;stroke-opacity:1;enable-background:new"
     d="m 8.1839962,0.66145835 c 3.6040548,0 4.1191298,0.51378545 4.1191298,4.11447755 v 2.883545 c 0,3.6006781 -0.515075,4.1144781 -4.1191298,4.1144781 H 4.5160033 c -3.604054,0 -4.1191283,-0.5138 -4.1191283,-4.1144781 v -2.883545 c 0,-3.6006921 0.5150743,-4.11447755 4.1191283,-4.11447755 z"
     id="rect877"
     inkscape:connector-curvature="0"
     sodipodi:nodetypes="sssssssss" />
  <path
     id="rect944"
     style="opacity:1;fill:#fdc92b;fill-opacity:1;stroke-width:2.08167;stroke-linecap:round;stroke-linejoin:round"
     d="M 17.068359 2.5 C 5.3542519 2.5 2.2755071 3.94284 1.6425781 13 L 46.357422 13 C 45.724492 3.94284 42.645747 2.5 30.931641 2.5 L 17.068359 2.5 z M 6 15 C 5.4477199 15 5 15.44772 5 16 C 5 16.55228 5.4477199 17 6 17 C 6.5522801 17 7 16.55228 7 16 C 7 15.44772 6.5522801 15 6 15 z M 10 15 C 9.4477199 15 9 15.44772 9 16 C 9 16.55228 9.4477199 17 10 17 C 10.55228 17 11 16.55228 11 16 C 11 15.44772 10.55228 15 10 15 z M 14 15 C 13.44772 15 13 15.44772 13 16 C 13 16.55228 13.44772 17 14 17 C 14.55228 17 15 16.55228 15 16 C 15 15.44772 14.55228 15 14 15 z M 18 15 C 17.44772 15 17 15.44772 17 16 C 17 16.55228 17.44772 17 18 17 C 18.55228 17 19 16.55228 19 16 C 19 15.44772 18.55228 15 18 15 z M 22 15 C 21.44772 15 21 15.44772 21 16 C 21 16.55228 21.44772 17 22 17 C 22.55228 17 23 16.55228 23 16 C 23 15.44772 22.55228 15 22 15 z M 26 15 C 25.44772 15 25 15.44772 25 16 C 25 16.55228 25.44772 17 26 17 C 26.55228 17 27 16.55228 27 16 C 27 15.44772 26.55228 15 26 15 z M 30 15 C 29.44772 15 29 15.44772 29 16 C 29 16.55228 29.44772 17 30 17 C 30.55228 17 31 16.55228 31 16 C 31 15.44772 30.55228 15 30 15 z M 34 15 C 33.44772 15 33 15.44772 33 16 C 33 16.55228 33.44772 17 34 17 C 34.55228 17 35 16.55228 35 16 C 35 15.44772 34.55228 15 34 15 z M 38 15 C 37.447721 15 37 15.44772 37 16 C 37 16.55228 37.447721 17 38 17 C 38.55228 17 39 16.55228 39 16 C 39 15.44772 38.55228 15 38 15 z M 41.974609 15 C 41.434258 15.01369 41 15.45635 41 16 C 41 16.55228 41.44772 17 42 17 C 42.55228 17 43 16.55228 43 16 C 43 15.44772 42.55228 15 42 15 C 41.991371 15 41.983186 14.999783 41.974609 15 z "
     transform="scale(0.26458333)" />
  <path
     d="M 3.175,5.2916667 V 5.8208333 H 9.5250007 V 5.2916667 Z m 0,1.3229166 V 7.14375 H 9.5250007 V 6.6145833 Z m 0,1.3229167 V 8.4666666 H 9.5250007 V 7.9375 Z m 0,1.3229166 V 9.7895833 H 6.35 V 9.2604166 Z"
     style="color:#000000;fill:#1463a5;stroke-width:0.264583"
     id="path1106"
     sodipodi:nodetypes="cccccccccccccccccccc" />
  <rect
     style="opacity:0.1;fill:#ef5145;fill-opacity:1;stroke-width:0.529167;stroke-linecap:round;stroke-linejoin:round"
     id="rect4917"
     width="0.26458332"
     height="8.3343754"
     x="1.984375"
     y="3.4395833" />
  <path
     id="rect1565"
     style="fill:url(#linearGradient1873);fill-opacity:1;stroke-width:0.264583"
     d="m 4.5568277,0.79374997 c -3.5239635,0 -4.02766104,0.50133123 -4.02766104,4.01629243 v 2.8153318 c 0,3.5149478 0.50369754,4.0162928 4.02766104,4.0162928 h 3.5863445 c 3.5239638,0 4.0276608,-0.501345 4.0276608,-4.0162928 V 4.8100424 c 0,-3.5149612 -0.503697,-4.01629243 -4.0276608,-4.01629243 z m 0.081649,0.26458343 h 3.4230468 c 3.3637835,0 3.8447265,0.4769388 3.8447265,3.8204385 v 2.6778728 c 0,3.3434873 -0.480943,3.8204393 -3.8447265,3.8204393 h -3.423047 c -3.3637834,0 -3.84472651,-0.476952 -3.84472651,-3.8204393 V 4.8787719 c 0,-3.3434997 0.48094311,-3.8204385 3.84472671,-3.8204385 z" />
  <path
     id="rect1370"
     style="opacity:0.4;fill:#000000;fill-opacity:1;stroke-width:0.264583"
     d="m 4.4751788,0.52916667 c -3.68414336,0 -4.21059547,0.52624033 -4.21059547,4.21266273 v 2.9517578 c 0,3.6864088 0.52645211,4.2126628 4.21059547,4.2126628 H 8.224821 c 3.684144,0 4.210596,-0.526254 4.210596,-4.2126628 V 4.7418294 c 0,-3.6864224 -0.526452,-4.21266273 -4.210596,-4.21266273 z m 0.081649,0.2645833 h 3.5863445 c 3.5239637,0 4.0276607,0.50133143 4.0276607,4.01629243 v 2.8153318 c 0,3.5149478 -0.503697,4.0162928 -4.0276607,4.0162928 H 4.5568277 c -3.5239637,0 -4.02766104,-0.501345 -4.02766104,-4.0162928 V 4.8100424 c 0,-3.514961 0.50369724,-4.01629243 4.02766114,-4.01629243 z" />
</svg>
