<?xml version="1.0" encoding="UTF-8" standalone="no"?>
<!-- Created with Inkscape (http://www.inkscape.org/) -->

<svg
   width="48"
   height="48"
   viewBox="0 0 12.7 12.7"
   version="1.1"
   id="svg5"
   inkscape:version="1.1.2 (0a00cf5339, 2022-02-04)"
   sodipodi:docname="amazon-store.svg"
   xmlns:inkscape="http://www.inkscape.org/namespaces/inkscape"
   xmlns:sodipodi="http://sodipodi.sourceforge.net/DTD/sodipodi-0.dtd"
   xmlns:xlink="http://www.w3.org/1999/xlink"
   xmlns="http://www.w3.org/2000/svg"
   xmlns:svg="http://www.w3.org/2000/svg">
  <sodipodi:namedview
     id="namedview7"
     pagecolor="#ffffff"
     bordercolor="#666666"
     borderopacity="1.0"
     inkscape:pageshadow="2"
     inkscape:pageopacity="0.0"
     inkscape:pagecheckerboard="0"
     inkscape:document-units="px"
     showgrid="false"
     units="px"
     inkscape:zoom="16.5"
     inkscape:cx="25.909091"
     inkscape:cy="28.848485"
     inkscape:window-width="1920"
     inkscape:window-height="1010"
     inkscape:window-x="0"
     inkscape:window-y="0"
     inkscape:window-maximized="1"
     inkscape:current-layer="svg5" />
  <defs
     id="defs2">
    <linearGradient
       inkscape:collect="always"
       id="linearGradient1871">
      <stop
         style="stop-color:#ffffff;stop-opacity:1;"
         offset="0"
         id="stop1867" />
      <stop
         style="stop-color:#ffffff;stop-opacity:0.1"
         offset="0.12"
         id="stop2515" />
      <stop
         style="stop-color:#ffffff;stop-opacity:0.102"
         offset="0.89999998"
         id="stop2581" />
      <stop
         style="stop-color:#ffffff;stop-opacity:0.502"
         offset="1"
         id="stop1869" />
    </linearGradient>
    <linearGradient
       inkscape:collect="always"
       xlink:href="#linearGradient1871"
       id="linearGradient1873"
       x1="17.222656"
       y1="3.5"
       x2="17.222656"
       y2="44.466438"
       gradientUnits="userSpaceOnUse"
       gradientTransform="matrix(0.26458333,0,0,0.26458333,0,-0.13229166)" />
  </defs>
  <path
     id="rect3143"
     style="opacity:0.1;fill:#000000;fill-opacity:1;stroke-width:0.264583"
     d="m 4.5160033,1.0583334 c -3.60405388,0 -4.1191283,0.5137855 -4.1191283,4.1144775 v 2.883545 c 0,3.6006791 0.51507442,4.1144791 4.1191283,4.1144791 h 3.6679933 c 3.6040544,0 4.1191284,-0.5138 4.1191284,-4.1144791 v -2.883545 c 0,-3.600692 -0.515074,-4.1144775 -4.1191284,-4.1144775 z" />
  <path
     style="display:inline;fill:#ffffff;fill-opacity:1;stroke:none;stroke-width:0.0992187;stroke-linecap:round;stroke-linejoin:round;stroke-miterlimit:4;stroke-dasharray:none;stroke-dashoffset:0;stroke-opacity:1;enable-background:new"
     d="m 8.1839962,0.66145835 c 3.6040548,0 4.1191298,0.51378545 4.1191298,4.11447755 v 2.883545 c 0,3.6006781 -0.515075,4.1144781 -4.1191298,4.1144781 H 4.5160033 c -3.604054,0 -4.1191283,-0.5138 -4.1191283,-4.1144781 v -2.883545 c 0,-3.6006921 0.5150743,-4.11447755 4.1191283,-4.11447755 z"
     id="rect877"
     inkscape:connector-curvature="0"
     sodipodi:nodetypes="sssssssss" />
  <path
     id="rect1370"
     style="opacity:0.4;fill:#000000;fill-opacity:1;stroke-width:0.264583"
     d="m 4.4751788,0.52916667 c -3.68414336,0 -4.21059547,0.52624033 -4.21059547,4.21266273 v 2.9517578 c 0,3.6864088 0.52645211,4.2126628 4.21059547,4.2126628 H 8.224821 c 3.684144,0 4.210596,-0.526254 4.210596,-4.2126628 V 4.7418294 c 0,-3.6864224 -0.526452,-4.21266273 -4.210596,-4.21266273 z m 0.081649,0.2645833 h 3.5863445 c 3.5239637,0 4.0276607,0.50133143 4.0276607,4.01629243 v 2.8153318 c 0,3.5149478 -0.503697,4.0162928 -4.0276607,4.0162928 H 4.5568277 c -3.5239637,0 -4.02766104,-0.501345 -4.02766104,-4.0162928 V 4.8100424 c 0,-3.514961 0.50369724,-4.01629243 4.02766114,-4.01629243 z" />
  <path
     id="rect1565"
     style="opacity:1;fill:url(#linearGradient1873);fill-opacity:1;stroke-width:0.264583"
     d="m 4.5568277,0.79374997 c -3.5239635,0 -4.02766104,0.50133123 -4.02766104,4.01629243 v 2.8153318 c 0,3.5149478 0.50369754,4.0162928 4.02766104,4.0162928 h 3.5863445 c 3.5239638,0 4.0276608,-0.501345 4.0276608,-4.0162928 V 4.8100424 c 0,-3.5149612 -0.503697,-4.01629243 -4.0276608,-4.01629243 z m 0.081649,0.26458343 h 3.4230468 c 3.3637835,0 3.8447265,0.4769388 3.8447265,3.8204385 v 2.6778728 c 0,3.3434873 -0.480943,3.8204393 -3.8447265,3.8204393 h -3.423047 c -3.3637834,0 -3.84472651,-0.476952 -3.84472651,-3.8204393 V 4.8787719 c 0,-3.3434997 0.48094311,-3.8204385 3.84472671,-3.8204385 z" />
  <path
     id="path22"
     d="M 6.4465323,3.1750414 C 6.2176051,3.1763644 5.989044,3.2092603 5.7618198,3.2711595 5.1699733,3.4327141 4.7589561,3.7845819 4.6306226,4.4111418 4.6094906,4.5092868 4.6622676,4.5860875 4.763431,4.5966602 5.00952,4.6223252 5.2573777,4.6479902 5.504988,4.6736582 5.6212459,4.6857442 5.6768063,4.6435902 5.7054924,4.5243131 5.7583294,4.3069129 5.8899636,4.1606281 6.1013339,4.088164 6.2402402,4.041351 6.3821693,4.032171 6.5255973,4.063875 6.7263895,4.10769 6.8576229,4.2253294 6.9059358,4.426127 c 0.037756,0.1570037 0.021272,0.3200381 0.024289,0.480074 0.00151,0.031705 -0.01977,0.034665 -0.043925,0.036173 C 6.7881788,4.951434 6.691439,4.960739 6.5932944,4.971313 6.2460552,5.0060347 5.9006242,5.0453806 5.56545,5.1480469 5.2408592,5.2491971 4.9584765,5.4133959 4.7546468,5.6927165 4.4859043,6.0626305 4.4372757,6.4779964 4.5308879,6.9143472 4.6154219,7.3053749 4.8439149,7.5861627 5.2243857,7.72205 5.6199642,7.8624723 6.0199068,7.841435 6.4139772,7.707064 6.6691147,7.620995 6.8696813,7.4488667 7.0599326,7.2631636 c 0.031702,-0.030189 0.045649,-0.031494 0.071313,0.00775 0.1071827,0.1645708 0.2278906,0.3180691 0.3818887,0.4433837 0.1147498,0.09361 0.1854509,0.095112 0.29869,0 C 8.0020601,7.5542531 8.1910475,7.3927242 8.3812987,7.2326751 8.4703734,7.1571789 8.482409,7.0894908 8.4174723,6.9913463 8.3993722,6.9641656 8.3797015,6.9384653 8.3585612,6.9127981 8.1773931,6.69539 8.0896644,6.4493174 8.1017294,6.1624564 c 0.012065,-0.2521482 0.0031,-0.5028501 0.0031,-0.7549927 -0.00159,-0.283845 0.00146,-0.5692643 -0.00156,-0.8516276 C 8.1002504,4.3354117 8.0779063,4.1152605 7.9797626,3.9114309 7.8076511,3.5521002 7.4991668,3.3707254 7.1322691,3.2680592 6.9042909,3.2038924 6.6754504,3.1737201 6.4465228,3.1750417 Z m 0.4247804,2.4184572 c 0.046791,-0.00453 0.063478,0.011583 0.060461,0.058394 -0.0046,0.075496 -0.00156,0.1513633 -0.00156,0.2268596 0,0.2189162 -0.00724,0.4375012 -0.1038696,0.6413044 C 6.7342157,6.7208863 6.6014014,6.8812267 6.3839933,6.9567229 6.0639004,7.0684564 5.7646942,6.8826197 5.7178841,6.5474455 5.6786438,6.2620924 5.7283669,6.0086581 5.9654143,5.8229418 6.128477,5.6961243 6.3247894,5.6460374 6.5255867,5.6203702 6.640347,5.6052757 6.7565497,5.6040586 6.8713021,5.5934986 Z"
     style="fill:#050606;fill-opacity:1;stroke-width:0.264583"
     sodipodi:nodetypes="cccccccccccccccccccccccccccccccscscccccss" />
  <path
     d="m 9.5559027,7.6559071 c -0.043194,-2.52e-5 -0.086301,0.00148 -0.129708,0.00414 -0.2521482,0.013592 -0.4925314,0.069445 -0.7069336,0.2113566 -0.028681,0.019629 -0.063056,0.043977 -0.044959,0.084749 0.015095,0.036227 0.052562,0.027307 0.085783,0.024289 0.1721379,-0.018113 0.3441702,-0.040782 0.5177977,-0.039274 0.099642,0 0.2011437,-0.00497 0.3023071,0.02222 0.096628,0.024151 0.1312955,0.066703 0.129708,0.1648478 -0.00151,0.028699 -0.00324,0.058682 -0.0093,0.088883 -0.043767,0.237067 -0.1341543,0.4576023 -0.2232424,0.6795453 -0.012065,0.02717 -0.02717,0.060551 0,0.083199 0.028697,0.024151 0.061714,0.00569 0.088884,-0.013952 0.012076,-0.00906 0.024556,-0.017849 0.03514,-0.028422 C 9.9048402,8.6400401 10.045014,8.2745984 10.054062,7.8548634 10.05557,7.7763483 10.017893,7.7312673 9.940891,7.7086192 9.8140495,7.6701282 9.6854826,7.6559846 9.5559016,7.6559092 Z M 2.6932724,7.793883 c -0.014343,0.00283 -0.027391,0.011255 -0.037207,0.026355 -0.019637,0.027181 -0.00783,0.05435 0.00878,0.076998 0.012073,0.016621 0.027267,0.030333 0.042375,0.043925 0.1721115,0.1524794 0.3533979,0.2912317 0.5436359,0.4180623 0.9345346,0.6235436 1.968744,0.9195214 3.1207396,0.9270752 0.3759729,-0.00303 0.7806616,-0.046842 1.1792561,-0.1374592 0.6039382,-0.1343819 1.174619,-0.35169 1.695504,-0.6898805 0.034724,-0.022646 0.069536,-0.043592 0.099735,-0.069246 0.042291,-0.03624 0.073766,-0.081637 0.049609,-0.1390094 -0.025667,-0.061905 -0.08266,-0.069484 -0.1400432,-0.058911 -0.040762,0.00907 -0.081664,0.025778 -0.1209228,0.042375 C 8.3269911,8.5588001 7.4871952,8.7334979 6.6160281,8.7576491 6.0060312,8.7742728 5.4053165,8.7138658 4.8104537,8.5840162 4.1536785,8.4405856 3.5269044,8.2143711 2.9320152,7.9003371 2.8671023,7.867116 2.8041381,7.8323069 2.7377118,7.8006011 c -0.014343,-0.00679 -0.030098,-0.00955 -0.044442,-0.00672 z"
     style="fill:#f6a61f;fill-opacity:1;stroke-width:0.0700042"
     id="path1293" />
</svg>
