<?xml version="1.0" encoding="UTF-8" standalone="no"?>
<!-- Created with Inkscape (http://www.inkscape.org/) -->

<svg
   width="48"
   height="48"
   viewBox="0 0 12.7 12.7"
   version="1.1"
   id="svg5"
   inkscape:version="1.1.2 (0a00cf5339, 2022-02-04)"
   sodipodi:docname="applications-office.svg"
   xmlns:inkscape="http://www.inkscape.org/namespaces/inkscape"
   xmlns:sodipodi="http://sodipodi.sourceforge.net/DTD/sodipodi-0.dtd"
   xmlns:xlink="http://www.w3.org/1999/xlink"
   xmlns="http://www.w3.org/2000/svg"
   xmlns:svg="http://www.w3.org/2000/svg">
  <sodipodi:namedview
     id="namedview7"
     pagecolor="#ffffff"
     bordercolor="#666666"
     borderopacity="1.0"
     inkscape:pageshadow="2"
     inkscape:pageopacity="0.0"
     inkscape:pagecheckerboard="0"
     inkscape:document-units="px"
     showgrid="false"
     units="px"
     inkscape:zoom="8.2500001"
     inkscape:cx="-4.4242424"
     inkscape:cy="27.636363"
     inkscape:window-width="1920"
     inkscape:window-height="998"
     inkscape:window-x="0"
     inkscape:window-y="0"
     inkscape:window-maximized="1"
     inkscape:current-layer="svg5" />
  <defs
     id="defs2">
    <linearGradient
       inkscape:collect="always"
       id="linearGradient3598">
      <stop
         style="stop-color:#f5f5f5;stop-opacity:1"
         offset="0"
         id="stop3594" />
      <stop
         style="stop-color:#e8e8e8;stop-opacity:1"
         offset="1"
         id="stop3596" />
    </linearGradient>
    <linearGradient
       inkscape:collect="always"
       id="linearGradient1871">
      <stop
         style="stop-color:#ffffff;stop-opacity:1;"
         offset="0"
         id="stop1867" />
      <stop
         style="stop-color:#ffffff;stop-opacity:0.1"
         offset="0.12"
         id="stop2515" />
      <stop
         style="stop-color:#ffffff;stop-opacity:0.102"
         offset="0.89999998"
         id="stop2581" />
      <stop
         style="stop-color:#ffffff;stop-opacity:0.502"
         offset="1"
         id="stop1869" />
    </linearGradient>
    <linearGradient
       inkscape:collect="always"
       xlink:href="#linearGradient1871"
       id="linearGradient1873"
       x1="17.222656"
       y1="3.5"
       x2="17.222656"
       y2="44.466438"
       gradientUnits="userSpaceOnUse"
       gradientTransform="matrix(0.26458333,0,0,0.26458333,0,-0.13229166)" />
    <linearGradient
       inkscape:collect="always"
       xlink:href="#linearGradient3598"
       id="linearGradient3600"
       x1="7.8838859"
       y1="11.784748"
       x2="4.4751787"
       y2="0.5291667"
       gradientUnits="userSpaceOnUse" />
    <linearGradient
       id="linearGradient2662"
       x1="140.45"
       x2="217.69"
       y1="291.42999"
       y2="214.2"
       gradientTransform="matrix(0.02611826,-3.1818262e-4,-3.1818262e-4,0.02611826,-0.82300278,2.9496382)"
       gradientUnits="userSpaceOnUse"
       xlink:href="#linearGradient4254" />
    <linearGradient
       id="linearGradient4254">
      <stop
         stop-color="#fff"
         offset="0"
         id="stop31" />
      <stop
         stop-color="#fff"
         stop-opacity=".3"
         offset="1"
         id="stop33" />
    </linearGradient>
    <linearGradient
       id="linearGradient2664"
       x1="299.57001"
       x2="373.31"
       y1="298.92999"
       y2="225.17999"
       gradientTransform="matrix(0.02611826,-3.1818262e-4,-3.1818262e-4,0.02611826,-0.82300278,2.9496382)"
       gradientUnits="userSpaceOnUse"
       xlink:href="#linearGradient4254" />
  </defs>
  <path
     id="rect3143"
     style="opacity:0.1;fill:#000000;fill-opacity:1;stroke-width:0.264583"
     d="m 4.5160033,1.0583334 c -3.60405388,0 -4.1191283,0.5137855 -4.1191283,4.1144775 v 2.883545 c 0,3.6006791 0.51507442,4.1144791 4.1191283,4.1144791 h 3.6679933 c 3.6040544,0 4.1191284,-0.5138 4.1191284,-4.1144791 v -2.883545 c 0,-3.600692 -0.515074,-4.1144775 -4.1191284,-4.1144775 z" />
  <path
     style="display:inline;fill:url(#linearGradient3600);fill-opacity:1;stroke:none;stroke-width:0.0992187;stroke-linecap:round;stroke-linejoin:round;stroke-miterlimit:4;stroke-dasharray:none;stroke-dashoffset:0;stroke-opacity:1;enable-background:new"
     d="m 8.1839962,0.66145835 c 3.6040548,0 4.1191298,0.51378545 4.1191298,4.11447755 v 2.883545 c 0,3.6006781 -0.515075,4.1144781 -4.1191298,4.1144781 H 4.5160033 c -3.604054,0 -4.1191283,-0.5138 -4.1191283,-4.1144781 v -2.883545 c 0,-3.6006921 0.5150743,-4.11447755 4.1191283,-4.11447755 z"
     id="rect877"
     inkscape:connector-curvature="0"
     sodipodi:nodetypes="sssssssss" />
  <g
     id="g978"
     transform="scale(0.26458333)">
    <path
       id="path47"
       style="fill:#c8c4b7;fill-opacity:0.997387;stroke-width:1"
       d="m 10,11 v 2 h 28 v -2 z m 0,4 v 2 h 24.166016 v -2 z m 0,4 V 29 H 23 V 19 Z" />
    <path
       id="path49"
       style="fill:#beb8a9;fill-opacity:0.996604;stroke-width:1"
       d="m 25,19 v 2 h 13 v -2 z m 0,4 v 2 h 9 v -2 z m 0,3.998047 v 1.982422 H 38 V 26.998047 Z M 10,31 v 2 h 28 v -2 z m 0,4 v 2 h 16 v -2 z" />
    <path
       id="path63"
       style="fill:#e7e7df;fill-opacity:1;stroke-width:1"
       d="m 20,21 c -0.55228,0 -1,0.4477 -1,1 0,0.55226 0.44772,1 1,1 0.55228,0 1,-0.44774 1,-1 0,-0.5523 -0.44772,-1 -1,-1 z m -4.919922,0.699219 -3.078125,5.30664 h 7 l -2.046875,-3.921875 -0.576172,1.105469 z" />
  </g>
  <path
     d="m 8.6000156,5.3254628 -0.03909,0.039838 C 8.4893232,5.4388832 8.4257755,5.5079463 8.3742004,5.5695624 8.1142206,5.8800155 7.810342,6.3186799 7.6017291,6.6840556 7.4732909,6.9089714 7.4770285,6.9038195 7.3474045,7.0465391 7.1901697,7.2196556 7.128304,7.2690338 6.8738385,7.4236417 6.6167075,7.579812 6.4238893,7.7124922 6.1397351,7.9304626 5.8546202,8.1491377 5.720497,8.2706319 5.4856547,8.5209599 5.2317102,8.7916766 5.02457,9.0459386 4.7873605,9.3793013 c -0.047493,0.06673 -0.1126208,0.161949 -0.1684553,0.244455 -0.027939,0.04123 -0.053832,0.07942 -0.073448,0.109256 -0.019637,0.02982 -0.030357,0.04608 -0.039466,0.06358 -0.0049,0.0094 -0.012781,0.04648 -0.00438,0.06797 0.0084,0.02148 0.018512,0.03155 0.031787,0.04641 0.026545,0.02971 0.072215,0.07388 0.1607791,0.1600487 l 0.1699071,0.163331 0.063213,-0.0055 c 0.028144,-0.0022 0.058635,-0.0085 0.085874,-0.01717 0.018851,-0.006 0.050237,-0.0037 0.1194884,0.03179 0.06925,0.03547 0.1682539,0.100892 0.308039,0.195494 0.3103831,0.210019 0.4513236,0.287752 0.6464054,0.357002 0.2653516,0.09421 0.5406875,0.103684 0.8108389,0.02814 0.1491667,-0.04171 0.3053234,-0.134085 0.4786841,-0.277711 0.090543,-0.075 0.3109243,-0.309652 0.3862331,-0.409625 C 7.8996459,9.9549163 8.0141323,9.7543183 8.0741876,9.5871993 8.2044286,9.2246696 8.1482516,8.8031116 7.9192499,8.3331249 7.8476356,8.1862033 7.6750816,7.8912197 7.590383,7.7711274 7.51821,7.6687992 7.4941818,7.6140543 7.496108,7.5811158 c 0.00193,-0.03294 0.030408,-0.078789 0.1132741,-0.163705 0.082086,-0.084066 0.1271439,-0.1131432 0.1571283,-0.1154655 0.030012,-0.00229 0.080904,0.020085 0.1775885,0.090621 0.1182593,0.086242 0.3978366,0.2585536 0.5360525,0.3306936 0.3912945,0.2042388 0.754627,0.2831026 1.0658937,0.2210713 C 9.7610964,7.901465 9.9662203,7.7973484 10.21876,7.6077909 10.376025,7.4897696 10.625878,7.2383626 10.731441,7.0900201 10.888377,6.8694015 10.95453,6.693274 10.979917,6.4271707 11.001795,6.1972572 10.951036,5.9327406 10.841793,5.690509 10.783623,5.5615443 10.725964,5.4611895 10.583816,5.2395971 10.516426,5.1345472 10.456122,5.0416037 10.410977,4.9695601 c -0.04514,-0.072041 -0.07626,-0.1319786 -0.07783,-0.1370288 -0.005,-0.016214 -0.0056,-0.034585 0.01279,-0.1209506 l 0.019,-0.089159 -0.09502,-0.1088789 c -0.0406,-0.046259 -0.08522,-0.096672 -0.143983,-0.1578426 -0.04753,-0.049512 -0.07381,-0.076655 -0.09611,-0.095363 -0.01117,-0.00933 -0.02111,-0.018265 -0.041295,-0.02448 -0.020202,-0.0062 -0.050947,1.202e-4 -0.063215,0.00694 C 9.880328,4.2678466 9.7863973,4.3354587 9.6691667,4.4207564 9.5519356,4.5060546 9.4204711,4.6045962 9.3304393,4.6754513 9.0798581,4.8726459 8.8134885,5.1152001 8.6029107,5.3277013 Z m 0.014982,0.4330086 C 8.8646636,5.5014511 9.159385,5.29212 9.4459343,5.1869733 c 0.1545502,-0.056729 0.3605061,-0.06733 0.4856258,-0.024482 0.072881,0.025053 0.1400099,0.078379 0.2853819,0.2269191 l 3.75e-4,3.741e-4 c 0.311344,0.3182745 0.455401,0.6032723 0.459684,0.9105948 0.0028,0.2043065 -0.05717,0.3917866 -0.191841,0.5967102 -0.04969,0.075646 -0.08991,0.1227947 -0.225088,0.2645586 -0.182164,0.1910737 -0.19012,0.1980406 -0.3127905,0.285016 C 9.7564714,7.5818758 9.5753756,7.6540715 9.3779757,7.6644445 9.180242,7.674826 8.9654068,7.6237368 8.7048959,7.5124357 8.4932084,7.4219312 8.3144094,7.3061425 8.1856518,7.1758954 8.094296,7.0834544 8.0408476,7.004719 8.0208528,6.918283 8.0009194,6.8321079 8.0147714,6.7383896 8.0570287,6.6175529 8.160994,6.3202236 8.3653476,6.0154962 8.6150059,5.7584798 Z M 5.969082,8.4475059 C 6.230662,8.1780065 6.5426994,7.9607921 6.8347318,7.855911 6.9532634,7.813351 7.0436074,7.799666 7.1259619,7.819736 c 0.082625,0.020132 0.1582759,0.07403 0.249574,0.1677222 0.1689526,0.1734215 0.3001966,0.4108039 0.4034093,0.7293529 0.060845,0.1878415 0.087715,0.3323265 0.086236,0.4647985 C 7.8621312,9.4555633 7.7547573,9.7086633 7.5249865,9.9844103 7.2769291,10.282035 7.0057287,10.48169 6.7528799,10.552617 6.5889731,10.598477 6.3572447,10.582887 6.1854025,10.514977 5.9916943,10.438467 5.8326247,10.322352 5.6120784,10.096586 5.5374064,10.020176 5.4964686,9.9771443 5.4699344,9.9456743 5.4442454,9.9151943 5.4315524,9.8940743 5.4169484,9.8649143 5.3626294,9.7564913 5.3517924,9.5798463 5.3866204,9.4034033 5.4131834,9.2687666 5.5245373,9.0342076 5.6508101,8.8417726 5.7416901,8.7032901 5.8502159,8.5699871 5.9690826,8.4475001 Z M 9.957505,4.300496 c 0,0 -1.2946042,1.7026572 -2.3042601,3.1651598 C 6.2259414,8.5002169 4.564089,9.8269183 4.564089,9.8269183 L 4.88784,10.166016 c 0,0 1.1409351,-1.1069654 2.3415316,-2.0740522 C 7.0989302,8.2895379 6.9776762,8.4775429 6.8745605,8.6462869 6.3971514,9.4275203 6.136362,11.337124 6.2884467,11.40365 6.5504997,11.51828 6.818186,11.207791 6.7989191,10.838363 6.7631498,10.15298 6.786065,9.4443223 7.0813799,8.8282586 7.2495934,8.4773679 7.5139641,8.0632888 7.8176767,7.6352033 8.235781,7.3237164 8.64027,7.0523913 8.9829607,6.8799054 9.5841961,6.5773067 10.275583,6.5538494 10.944469,6.5905016 11.305002,6.6102415 11.608471,6.3361209 11.496599,6.0676038 11.431677,5.9117687 9.5681684,6.1791508 8.8057392,6.6683355 8.6407683,6.7741782 8.456673,6.8983532 8.2634747,7.0322818 9.2074257,5.8017914 10.288198,4.6319205 10.288198,4.6319205 Z"
     style="opacity:0.1;fill:#000000;fill-opacity:1;stroke-width:0.0350023"
     id="path992" />
  <g
     id="g1128"
     transform="rotate(-45,4.5693821,5.8413301)">
    <path
       id="path69"
       style="fill:#636363;fill-opacity:1;stroke-width:0.132292"
       d="m 9.6559833,8.3746826 c 0,0 -2.119384,0.2885374 -3.8674638,0.6087483 C 4.0477183,8.7057211 1.9344912,8.4687335 1.9344912,8.4687335 l -0.010852,0.4687054 c 0,0 1.5895061,0.024024 3.12229,0.1891358 C 4.8139871,9.1740484 4.5953082,9.2212458 4.4030744,9.2676513 3.513079,9.4824882 1.9783783,10.648377 2.0388776,10.802958 2.1431214,11.069313 2.5519531,11.039047 2.7995547,10.7642 3.2589012,10.254268 3.7762019,9.7693736 4.4206443,9.5425698 4.787706,9.4133973 5.2674427,9.3075375 5.7849021,9.2195922 6.300801,9.2949792 6.7786736,9.389144 7.1429586,9.5094969 7.7820657,9.7206643 8.2875372,10.192963 8.7345929,10.691853 8.9755696,10.960746 9.3839876,10.981499 9.4947523,10.712523 9.5590373,10.556424 8.0522712,9.4277928 7.1672465,9.2345798 6.9757525,9.1927719 6.7577723,9.1503973 6.5264588,9.1084891 8.0640212,8.9058749 9.6554663,8.8428723 9.6554663,8.8428723 Z"
       sodipodi:nodetypes="ccccccsccccccsccc" />
    <path
       id="path1014"
       style="color:#000000;fill:#3b3b3b;fill-opacity:1;stroke-width:0.132292;-inkscape-stroke:none"
       d="m 7.9713322,8.1395548 -0.05581,5.292e-4 C 7.8128607,8.141434 7.7190907,8.145404 7.6390523,8.152485 7.2356953,8.188173 6.7106382,8.2834826 6.3047671,8.3943306 6.0549081,8.4625506 6.0611938,8.4615536 5.8686178,8.4708116 5.6350241,8.4820434 5.5563629,8.473246 5.2671043,8.4025988 4.9748561,8.3312087 4.7446941,8.2886843 4.3896383,8.2418853 4.0334049,8.1949025 3.8526561,8.1859733 3.5095889,8.1969268 3.138597,8.2087854 2.8123367,8.2421092 2.4088808,8.3100981 c -0.080765,0.013602 -0.1941499,0.034876 -0.2919718,0.053743 -0.048911,0.00943 -0.09422,0.018084 -0.1291911,0.025321 -0.034971,0.00724 -0.054051,0.011115 -0.072864,0.017052 -0.010132,0.0032 -0.041905,0.023834 -0.05116,0.044958 -0.00925,0.021127 -0.00922,0.035405 -0.010336,0.055294 -0.00224,0.039778 -0.00118,0.1033076 5.16e-4,0.2268593 l 0.00465,0.2356352 0.048576,0.040824 c 0.021482,0.018322 0.047453,0.035474 0.072864,0.048576 0.017559,0.00906 0.038126,0.032916 0.062012,0.1069702 0.023885,0.074054 0.047632,0.1903146 0.079582,0.3560506 0.070968,0.36798 0.1156622,0.5226066 0.2046386,0.7095176 0.1210148,0.254249 0.3090086,0.455639 0.5534545,0.593245 0.1349733,0.07598 0.3107084,0.121084 0.5348513,0.14211 0.1170577,0.01099 0.4388135,9e-4 0.5627563,-0.01654 0.2253141,-0.03187 0.4481123,-0.09276 0.6087483,-0.168465 0.3484475,-0.164252 0.6068107,-0.502062 0.7772135,-0.9963217 0.05325,-0.1545288 0.1398209,-0.4851268 0.1648479,-0.6299359 0.021323,-0.1233913 0.043043,-0.1790927 0.067696,-0.2010211 0.024654,-0.021929 0.077214,-0.034211 0.1958538,-0.035657 0.1174875,-0.00143 0.1699086,0.00986 0.1927529,0.029456 0.022844,0.0196 0.043005,0.071407 0.061495,0.1896525 0.02264,0.1446041 0.098488,0.4641379 0.1452108,0.6128824 0.1322684,0.4211058 0.3334181,0.7337858 0.5973797,0.9100218 0.1823754,0.121753 0.4010413,0.193176 0.7136513,0.237711 0.1946571,0.02775 0.5491004,0.02665 0.7286384,-0.0036 0.2669717,-0.04503 0.4382897,-0.122793 0.6444047,-0.293005 0.1780437,-0.147103 0.3291927,-0.370037 0.4232297,-0.6185666 0.05006,-0.132324 0.08025,-0.2440575 0.136426,-0.5012608 0.02663,-0.1219327 0.04971,-0.2302944 0.06873,-0.3131593 0.01902,-0.082865 0.0394,-0.1472462 0.04186,-0.1519287 0.0079,-0.015031 0.02047,-0.028443 0.09457,-0.076481 l 0.07648,-0.049609 0.0098,-0.144177 c 0.004,-0.061425 0.0081,-0.1286158 0.0098,-0.2134237 0.0014,-0.068624 0.002,-0.1063956 -5.29e-4,-0.1353924 -0.0013,-0.014499 -0.002,-0.02784 -0.01189,-0.046509 -0.0099,-0.018669 -0.03611,-0.035945 -0.04961,-0.039791 -0.04952,-0.014105 -0.163748,-0.032711 -0.3069571,-0.055294 -0.14321,-0.022582 -0.305849,-0.045866 -0.419613,-0.059428 -0.3166253,-0.037747 -0.676489,-0.054595 -0.975651,-0.053227 z M 7.6757426,8.4563314 c 0.3582816,-0.00521 0.7147006,0.055175 0.9916713,0.1834513 0.149397,0.069174 0.3025257,0.2073074 0.3607007,0.3260783 0.03382,0.069247 0.04358,0.154424 0.04134,0.3622516 v 5.292e-4 c -0.0049,0.4452083 -0.104561,0.7485952 -0.3188427,0.9689332 -0.142464,0.146469 -0.317459,0.236611 -0.5575887,0.286287 -0.08863,0.01835 -0.150408,0.02325 -0.3462325,0.02791 -0.2639189,0.0063 -0.2744715,0.0056 -0.4227133,-0.01964 C 7.1935451,10.552818 7.0144409,10.475814 6.8675234,10.343566 6.7203637,10.211088 6.6045778,10.023051 6.4990704,9.7601399 6.4133812,9.5464579 6.3688261,9.338153 6.3698794,9.1550087 6.3706467,9.0250443 6.3885273,8.9315765 6.4355083,8.856319 6.4823485,8.7812922 6.558412,8.7248147 6.6737367,8.6692504 6.9574949,8.5325216 7.3174695,8.4615469 7.6757426,8.4563436 Z m -3.7723794,0.030489 c 0.37553,-0.00563 0.7497678,0.061451 1.030428,0.1937867 0.113909,0.053719 0.1874687,0.1079251 0.2315104,0.1803506 0.044189,0.072658 0.059571,0.1642649 0.057878,0.2950726 -0.00316,0.2420956 -0.078211,0.502753 -0.2304769,0.8009841 C 4.9029027,10.132863 4.8197369,10.254029 4.725019,10.346655 4.5291449,10.538211 4.274254,10.641257 3.9167991,10.673767 3.5309429,10.70882 3.1979976,10.65823 2.9690534,10.529589 2.8207242,10.44612 2.6678948,10.271235 2.5943992,10.101709 2.5115257,9.9106374 2.4811548,9.7160492 2.4848452,9.4004597 c 0.00123,-0.1068321 0.00271,-0.166207 0.0062,-0.2072224 0.00339,-0.039722 0.00935,-0.063625 0.019637,-0.094568 C 2.5489391,8.9835931 2.6661835,8.8510226 2.8155744,8.750887 2.9295603,8.6744613 3.1741573,8.5873478 3.399518,8.5405639 3.5617012,8.5069036 3.7327004,8.4893824 3.9033632,8.4868204 Z"
       sodipodi:nodetypes="ccccscccccccccccccsccscccccssccccccccssccccccccsscccccccccccccccccccccccccccccsccc" />
    <path
       id="path79"
       d="m 6.5150902,8.8263346 c -0.016272,0.016616 -0.030399,0.033835 -0.041858,0.052193 -0.040319,0.064582 -0.05765,0.1478701 -0.058394,0.2738851 -0.00101,0.1757386 0.042034,0.3794948 0.1260906,0.5891112 0.1041231,0.2594651 0.2168216,0.4411871 0.3576008,0.5679241 0.1403525,0.126351 0.3110857,0.200399 0.5358847,0.238745 0.147787,0.02519 0.1507405,0.02487 0.4144454,0.0186 0.1952425,-0.0046 0.2515245,-0.0091 0.3374475,-0.02687 0.182067,-0.03766 0.3222487,-0.09806 0.4392497,-0.188619 -0.09731,0.05604 -0.210469,0.09633 -0.3472657,0.123507 -0.08649,0.0172 -0.143672,0.02128 -0.340548,0.02429 -0.2659162,0.004 -0.2688046,0.0039 -0.4180627,-0.02274 C 7.2926101,10.435755 7.1202367,10.360072 6.977594,10.231416 6.834506,10.102373 6.7194953,9.9178084 6.6122417,9.6552244 6.5256571,9.4430823 6.4804411,9.2371743 6.4799501,9.0599119 6.4796855,8.9584262 6.4904143,8.8849429 6.5150902,8.8263346 Z M 2.6052513,8.9715453 c -0.034709,0.045307 -0.060558,0.090095 -0.074414,0.1317749 -0.00997,0.029976 -0.015366,0.051423 -0.018603,0.0894 -0.00338,0.03967 -0.00445,0.098879 -0.00568,0.205672 -0.00368,0.3140294 0.026385,0.5047802 0.1080037,0.6929808 a 0.08678185,0.08892235 45 0 1 0,5.29e-4 c 0.071698,0.165162 0.2223567,0.337309 0.3658693,0.418063 0.2240463,0.126037 0.5533213,0.176908 0.9363768,0.14211 0.2822266,-0.02566 0.4973116,-0.09526 0.6697266,-0.217041 -0.1554843,0.08409 -0.343177,0.133138 -0.5772259,0.151929 C 3.6224832,10.617987 3.2888663,10.563317 3.0610376,10.433484 2.9150919,10.350292 2.7606501,10.17435 2.6863834,10.006636 2.6018387,9.8155291 2.5692871,9.6217398 2.5695947,9.3043541 c 9.1e-5,-0.1079378 6.271e-4,-0.1671566 0.00362,-0.2072227 0.00286,-0.038351 0.00834,-0.060241 0.018087,-0.090434 0.00373,-0.011565 0.00848,-0.023138 0.013953,-0.03514 z"
       style="opacity:0.5;fill:#ffffff;stroke-width:0.264583" />
    <path
       d="m 3.9019697,8.4204317 c -0.1745438,0.00262 -0.3493188,0.020651 -0.5160214,0.05525 -0.2315186,0.048062 -0.4780626,0.133649 -0.607596,0.2204974 -0.1579182,0.1058585 -0.2849377,0.2442451 -0.3305842,0.3815511 -0.011192,0.033662 -0.019271,0.065166 -0.023101,0.1100929 -0.00383,0.044948 -0.00484,0.1047623 -0.00608,0.2117407 -0.00373,0.3202707 0.028008,0.5277293 0.1151601,0.7286812 l -4.82e-5,1e-6 c 0.079828,0.184127 0.2376014,0.366027 0.4024152,0.458786 0.2460844,0.138438 0.5916033,0.188407 0.9866476,0.152519 0.3674009,-0.0334 0.6401575,-0.14211 0.8482655,-0.345643 0.1015102,-0.09927 0.1884962,-0.227032 0.280222,-0.4066469 C 5.2066214,9.6829498 5.2856304,9.411904 5.288934,9.1567679 5.2906803,9.0204448 5.2750619,8.9143223 5.2215745,8.8263758 5.1680872,8.7384294 5.0812866,8.6773043 4.9618484,8.620984 4.6686795,8.4827503 4.2859613,8.4146839 3.9019583,8.4204439 Z"
       fill="url(#linearGradient2662)"
       opacity="0.5"
       stroke-width="0.130789"
       id="path75"
       style="fill:url(#linearGradient2662)" />
    <path
       d="M 7.6746867,8.3898917 C 7.3083748,8.3952117 6.94055,8.4673497 6.6453133,8.6096099 6.5243998,8.6678699 6.4354024,8.7317008 6.3793719,8.8214562 c -0.056035,0.089755 -0.074638,0.1970947 -0.07544,0.3329027 -0.00111,0.1940909 0.045744,0.4104346 0.1339938,0.6305052 0.1076565,0.2682659 0.2280173,0.4662109 0.3854656,0.6079729 0.1574583,0.141749 0.3505819,0.223775 0.5897843,0.26456 0.1489363,0.02538 0.1711862,0.02673 0.4354161,0.02045 0.1967085,-0.0047 0.2652925,-0.0102 0.3578105,-0.02935 0.2496047,-0.05163 0.4396877,-0.148217 0.5918507,-0.304665 0.2285407,-0.234976 0.3324417,-0.5597335 0.3374537,-1.0146639 a 0.0681085,0.07042092 66.560748 0 0 0,-4.81e-5 C 9.1380066,9.1185 9.1288066,9.0209542 9.0877766,8.9369763 9.0194096,8.7970687 8.8580639,8.6554291 8.6950179,8.5799495 8.4057722,8.4460003 8.0409722,8.3845706 7.6746599,8.3898935 Z"
       fill="url(#linearGradient2664)"
       opacity="0.5"
       stroke-width="0.130789"
       id="path77"
       style="fill:url(#linearGradient2664)" />
  </g>
  <path
     id="rect1565"
     style="fill:url(#linearGradient1873);fill-opacity:1;stroke-width:0.264583"
     d="m 4.5568277,0.79374997 c -3.5239635,0 -4.02766104,0.50133123 -4.02766104,4.01629243 v 2.8153318 c 0,3.5149478 0.50369754,4.0162928 4.02766104,4.0162928 h 3.5863445 c 3.5239638,0 4.0276608,-0.501345 4.0276608,-4.0162928 V 4.8100424 c 0,-3.5149612 -0.503697,-4.01629243 -4.0276608,-4.01629243 z m 0.081649,0.26458343 h 3.4230468 c 3.3637835,0 3.8447265,0.4769388 3.8447265,3.8204385 v 2.6778728 c 0,3.3434873 -0.480943,3.8204393 -3.8447265,3.8204393 h -3.423047 c -3.3637834,0 -3.84472651,-0.476952 -3.84472651,-3.8204393 V 4.8787719 c 0,-3.3434997 0.48094311,-3.8204385 3.84472671,-3.8204385 z" />
  <path
     id="rect1370"
     style="opacity:0.4;fill:#000000;fill-opacity:1;stroke-width:0.264583"
     d="m 4.4751788,0.52916667 c -3.68414336,0 -4.21059547,0.52624033 -4.21059547,4.21266273 v 2.9517578 c 0,3.6864088 0.52645211,4.2126628 4.21059547,4.2126628 H 8.224821 c 3.684144,0 4.210596,-0.526254 4.210596,-4.2126628 V 4.7418294 c 0,-3.6864224 -0.526452,-4.21266273 -4.210596,-4.21266273 z m 0.081649,0.2645833 h 3.5863445 c 3.5239637,0 4.0276607,0.50133143 4.0276607,4.01629243 v 2.8153318 c 0,3.5149478 -0.503697,4.0162928 -4.0276607,4.0162928 H 4.5568277 c -3.5239637,0 -4.02766104,-0.501345 -4.02766104,-4.0162928 V 4.8100424 c 0,-3.514961 0.50369724,-4.01629243 4.02766114,-4.01629243 z" />
</svg>
