<?xml version="1.0" encoding="UTF-8" standalone="no"?>
<!-- Created with Inkscape (http://www.inkscape.org/) -->

<svg
   width="48"
   height="48"
   viewBox="0 0 12.7 12.7"
   version="1.1"
   id="svg5"
   inkscape:version="1.1.2 (0a00cf5339, 2022-02-04)"
   sodipodi:docname="discord.svg"
   xmlns:inkscape="http://www.inkscape.org/namespaces/inkscape"
   xmlns:sodipodi="http://sodipodi.sourceforge.net/DTD/sodipodi-0.dtd"
   xmlns:xlink="http://www.w3.org/1999/xlink"
   xmlns="http://www.w3.org/2000/svg"
   xmlns:svg="http://www.w3.org/2000/svg">
  <sodipodi:namedview
     id="namedview7"
     pagecolor="#ffffff"
     bordercolor="#666666"
     borderopacity="1.0"
     inkscape:pageshadow="2"
     inkscape:pageopacity="0.0"
     inkscape:pagecheckerboard="0"
     inkscape:document-units="px"
     showgrid="false"
     units="px"
     inkscape:zoom="5.833631"
     inkscape:cx="42.083567"
     inkscape:cy="22.627417"
     inkscape:window-width="1920"
     inkscape:window-height="998"
     inkscape:window-x="0"
     inkscape:window-y="0"
     inkscape:window-maximized="1"
     inkscape:current-layer="svg5" />
  <defs
     id="defs2">
    <linearGradient
       inkscape:collect="always"
       id="linearGradient1871">
      <stop
         style="stop-color:#ffffff;stop-opacity:1;"
         offset="0"
         id="stop1867" />
      <stop
         style="stop-color:#ffffff;stop-opacity:0.1"
         offset="0.12"
         id="stop2515" />
      <stop
         style="stop-color:#ffffff;stop-opacity:0.102"
         offset="0.89999998"
         id="stop2581" />
      <stop
         style="stop-color:#ffffff;stop-opacity:0.502"
         offset="1"
         id="stop1869" />
    </linearGradient>
    <linearGradient
       inkscape:collect="always"
       xlink:href="#linearGradient1871"
       id="linearGradient1873"
       x1="17.222656"
       y1="3.5"
       x2="17.222656"
       y2="44.466438"
       gradientUnits="userSpaceOnUse"
       gradientTransform="matrix(0.26458333,0,0,0.26458333,0,-0.13229166)" />
  </defs>
  <path
     id="rect3143"
     style="opacity:0.1;fill:#000000;fill-opacity:1;stroke-width:0.264583"
     d="m 4.5160033,1.0583334 c -3.60405388,0 -4.1191283,0.5137855 -4.1191283,4.1144775 v 2.883545 c 0,3.6006791 0.51507442,4.1144791 4.1191283,4.1144791 h 3.6679933 c 3.6040544,0 4.1191284,-0.5138 4.1191284,-4.1144791 v -2.883545 c 0,-3.600692 -0.515074,-4.1144775 -4.1191284,-4.1144775 z" />
  <path
     style="display:inline;fill:#5865f2;fill-opacity:1;stroke:none;stroke-width:0.0992187;stroke-linecap:round;stroke-linejoin:round;stroke-miterlimit:4;stroke-dasharray:none;stroke-dashoffset:0;stroke-opacity:1;enable-background:new"
     d="m 8.1839962,0.66145835 c 3.6040548,0 4.1191298,0.51378545 4.1191298,4.11447755 v 2.883545 c 0,3.6006781 -0.515075,4.1144781 -4.1191298,4.1144781 H 4.5160033 c -3.604054,0 -4.1191283,-0.5138 -4.1191283,-4.1144781 v -2.883545 c 0,-3.6006921 0.5150743,-4.11447755 4.1191283,-4.11447755 z"
     id="rect877"
     inkscape:connector-curvature="0"
     sodipodi:nodetypes="sssssssss" />
  <path
     id="rect1370"
     style="opacity:0.4;fill:#000000;fill-opacity:1;stroke-width:0.264583"
     d="m 4.4751788,0.52916667 c -3.68414336,0 -4.21059547,0.52624033 -4.21059547,4.21266273 v 2.9517578 c 0,3.6864088 0.52645211,4.2126628 4.21059547,4.2126628 H 8.224821 c 3.684144,0 4.210596,-0.526254 4.210596,-4.2126628 V 4.7418294 c 0,-3.6864224 -0.526452,-4.21266273 -4.210596,-4.21266273 z m 0.081649,0.2645833 h 3.5863445 c 3.5239637,0 4.0276607,0.50133143 4.0276607,4.01629243 v 2.8153318 c 0,3.5149478 -0.503697,4.0162928 -4.0276607,4.0162928 H 4.5568277 c -3.5239637,0 -4.02766104,-0.501345 -4.02766104,-4.0162928 V 4.8100424 c 0,-3.514961 0.50369724,-4.01629243 4.02766114,-4.01629243 z" />
  <path
     id="rect1565"
     style="fill:url(#linearGradient1873);fill-opacity:1;stroke-width:0.264583;opacity:1"
     d="m 4.5568277,0.79374997 c -3.5239635,0 -4.02766104,0.50133123 -4.02766104,4.01629243 v 2.8153318 c 0,3.5149478 0.50369754,4.0162928 4.02766104,4.0162928 h 3.5863445 c 3.5239638,0 4.0276608,-0.501345 4.0276608,-4.0162928 V 4.8100424 c 0,-3.5149612 -0.503697,-4.01629243 -4.0276608,-4.01629243 z m 0.081649,0.26458343 h 3.4230468 c 3.3637835,0 3.8447265,0.4769388 3.8447265,3.8204385 v 2.6778728 c 0,3.3434873 -0.480943,3.8204393 -3.8447265,3.8204393 h -3.423047 c -3.3637834,0 -3.84472651,-0.476952 -3.84472651,-3.8204393 V 4.8787719 c 0,-3.3434997 0.48094311,-3.8204385 3.84472671,-3.8204385 z" />
  <path
     id="rect889"
     style="fill:#ffffff;fill-opacity:1;stroke-width:0.531555"
     d="m 5.0477467,2.9104845 c 0,0 -1.1097119,-0.024334 -2.285005,0.848974 0,0 -1.1752417,2.1143029 -1.1752417,4.7179022 0,0 0.685598,1.1745535 2.4893454,1.2316909 0,0 0.3015619,-0.3581955 0.5464138,-0.6683417 -1.0365419,-0.3101452 -1.428128,-0.9550965 -1.428128,-0.9550965 0,0 0.081135,0.05724 0.228049,0.1388618 0.00819,0 0.016407,0.00756 0.032742,0.015804 0.024489,0.016317 0.048897,0.024318 0.073386,0.040635 0.2040434,0.1142639 0.4083684,0.2042657 0.5960885,0.2777227 0.3346314,0.1387502 0.7348594,0.2613275 1.200079,0.3511051 0.6121311,0.1142495 1.3298761,0.1548134 2.1134039,0.00792 0.3836032,-0.073449 0.7761866,-0.1797083 1.1842741,-0.3511051 0.2856608,-0.1061027 0.60353,-0.2605678 0.9381618,-0.4809354 0,0 -0.408612,0.6610136 -1.477804,0.9629985 C 8.3283652,9.3506041 8.6231537,9.7011568 8.6231537,9.7011568 10.426902,9.6440248 11.1125,8.4692094 11.1125,8.4773688 11.1125,5.8737692 9.9372575,3.7594663 9.9372575,3.7594663 8.7701255,2.8861527 7.651122,2.9104845 7.651122,2.9104845 L 7.5370984,3.0414441 C 8.9245951,3.4576929 9.5692175,4.0699216 9.5692175,4.0699216 8.7203942,3.6128631 7.8879758,3.3841085 7.1126109,3.2943294 6.5249644,3.2290332 5.9622047,3.2448406 5.4643367,3.3101356 c -0.048969,0 -0.089892,0.00879 -0.1388619,0.016931 C 5.0398132,3.3597146 4.3461675,3.4571387 3.4728602,3.84074 3.1708744,3.9713281 2.9907962,4.0699185 2.9907962,4.0699185 c 0,0 0.6691253,-0.6449686 2.1382403,-1.0612177 z M 4.8276005,5.9225364 c 0.4652197,0 0.8401999,0.3996525 0.8320397,0.8975191 0,0.4978677 -0.36682,0.8975194 -0.8320397,0.8975194 -0.4570583,0 -0.8331681,-0.3996517 -0.8331681,-0.8975194 0,-0.4978666 0.3679486,-0.8975191 0.8331681,-0.8975191 z m 2.9793123,0 c 0.4570574,0 0.8320395,0.3996525 0.8320395,0.8975191 0,0.4978677 -0.36682,0.8975194 -0.8320395,0.8975194 -0.4570584,0 -0.8331691,-0.3996517 -0.8331691,-0.8975194 0,-0.4978666 0.3679486,-0.8975191 0.8331691,-0.8975191 z" />
</svg>
