<?xml version="1.0" encoding="UTF-8" standalone="no"?>
<!-- Created with Inkscape (http://www.inkscape.org/) -->

<svg
   width="48"
   height="48"
   viewBox="0 0 12.7 12.7"
   version="1.1"
   id="svg5"
   inkscape:version="1.1.2 (0a00cf5339, 2022-02-04)"
   sodipodi:docname="firefox.svg"
   xmlns:inkscape="http://www.inkscape.org/namespaces/inkscape"
   xmlns:sodipodi="http://sodipodi.sourceforge.net/DTD/sodipodi-0.dtd"
   xmlns:xlink="http://www.w3.org/1999/xlink"
   xmlns="http://www.w3.org/2000/svg"
   xmlns:svg="http://www.w3.org/2000/svg">
  <sodipodi:namedview
     id="namedview7"
     pagecolor="#ffffff"
     bordercolor="#666666"
     borderopacity="1.0"
     inkscape:pageshadow="2"
     inkscape:pageopacity="0.0"
     inkscape:pagecheckerboard="0"
     inkscape:document-units="px"
     showgrid="false"
     units="px"
     inkscape:zoom="5.8336309"
     inkscape:cx="-18.856181"
     inkscape:cy="36.083873"
     inkscape:window-width="1851"
     inkscape:window-height="1016"
     inkscape:window-x="0"
     inkscape:window-y="0"
     inkscape:window-maximized="1"
     inkscape:current-layer="svg5" />
  <defs
     id="defs2">
    <linearGradient
       inkscape:collect="always"
       id="linearGradient1871">
      <stop
         style="stop-color:#ffffff;stop-opacity:1;"
         offset="0"
         id="stop1867" />
      <stop
         style="stop-color:#ffffff;stop-opacity:0.1"
         offset="0.12"
         id="stop2515" />
      <stop
         style="stop-color:#ffffff;stop-opacity:0.102"
         offset="0.89999998"
         id="stop2581" />
      <stop
         style="stop-color:#ffffff;stop-opacity:0.502"
         offset="1"
         id="stop1869" />
    </linearGradient>
    <linearGradient
       inkscape:collect="always"
       xlink:href="#linearGradient1871"
       id="linearGradient1873"
       x1="17.222656"
       y1="3.5"
       x2="17.222656"
       y2="44.466438"
       gradientUnits="userSpaceOnUse"
       gradientTransform="matrix(0.26458333,0,0,0.26458333,0,-0.13229166)" />
    <linearGradient
       gradientTransform="matrix(0.1161968,0,0,0.1161968,1.7010635,1.5870285)"
       gradientUnits="userSpaceOnUse"
       y2="74.468002"
       x2="6.447"
       y1="12.393"
       x1="70.786003"
       id="a">
      <stop
         id="stop834"
         stop-color="#fff44f"
         offset=".048" />
      <stop
         id="stop836"
         stop-color="#ffe847"
         offset=".111" />
      <stop
         id="stop838"
         stop-color="#ffc830"
         offset=".225" />
      <stop
         id="stop840"
         stop-color="#ff980e"
         offset=".368" />
      <stop
         id="stop842"
         stop-color="#ff8b16"
         offset=".401" />
      <stop
         id="stop844"
         stop-color="#ff672a"
         offset=".462" />
      <stop
         id="stop846"
         stop-color="#ff3647"
         offset=".534" />
      <stop
         id="stop848"
         stop-color="#e31587"
         offset=".705" />
    </linearGradient>
    <radialGradient
       gradientUnits="userSpaceOnUse"
       gradientTransform="matrix(0.1161968,0,0,0.1161968,928.37036,992.04864)"
       r="80.796997"
       cy="-8515.1211"
       cx="-7907.187"
       id="b">
      <stop
         id="stop851"
         stop-color="#ffbd4f"
         offset=".129" />
      <stop
         id="stop853"
         stop-color="#ffac31"
         offset=".186" />
      <stop
         id="stop855"
         stop-color="#ff9d17"
         offset=".247" />
      <stop
         id="stop857"
         stop-color="#ff980e"
         offset=".283" />
      <stop
         id="stop859"
         stop-color="#ff563b"
         offset=".403" />
      <stop
         id="stop861"
         stop-color="#ff3750"
         offset=".467" />
      <stop
         id="stop863"
         stop-color="#f5156c"
         offset=".71" />
      <stop
         id="stop865"
         stop-color="#eb0878"
         offset=".782" />
      <stop
         id="stop867"
         stop-color="#e50080"
         offset=".86" />
    </radialGradient>
    <radialGradient
       gradientUnits="userSpaceOnUse"
       gradientTransform="matrix(0.1161968,0,0,0.1161968,928.37036,992.04864)"
       r="80.796997"
       cy="-8482.0889"
       cx="-7936.7109"
       id="c">
      <stop
         id="stop870"
         stop-color="#960e18"
         offset=".3" />
      <stop
         id="stop872"
         stop-opacity=".74"
         stop-color="#b11927"
         offset=".351" />
      <stop
         id="stop874"
         stop-opacity=".343"
         stop-color="#db293d"
         offset=".435" />
      <stop
         id="stop876"
         stop-opacity=".094"
         stop-color="#f5334b"
         offset=".497" />
      <stop
         id="stop878"
         stop-opacity="0"
         stop-color="#ff3750"
         offset=".53" />
    </radialGradient>
    <radialGradient
       gradientUnits="userSpaceOnUse"
       gradientTransform="matrix(0.1161968,0,0,0.1161968,928.37036,992.04864)"
       r="58.534"
       cy="-8533.457"
       cx="-7926.9702"
       id="d">
      <stop
         id="stop881"
         stop-color="#fff44f"
         offset=".132" />
      <stop
         id="stop883"
         stop-color="#ffdc3e"
         offset=".252" />
      <stop
         id="stop885"
         stop-color="#ff9d12"
         offset=".506" />
      <stop
         id="stop887"
         stop-color="#ff980e"
         offset=".526" />
    </radialGradient>
    <radialGradient
       gradientUnits="userSpaceOnUse"
       gradientTransform="matrix(0.1161968,0,0,0.1161968,928.37036,992.04864)"
       r="38.471001"
       cy="-8460.9844"
       cx="-7945.6479"
       id="e">
      <stop
         id="stop890"
         stop-color="#3a8ee6"
         offset=".353" />
      <stop
         id="stop892"
         stop-color="#5c79f0"
         offset=".472" />
      <stop
         id="stop894"
         stop-color="#9059ff"
         offset=".669" />
      <stop
         id="stop896"
         stop-color="#c139e6"
         offset="1" />
    </radialGradient>
    <radialGradient
       gradientUnits="userSpaceOnUse"
       gradientTransform="matrix(0.11294328,-0.02730624,0.03195412,0.13223195,1174.2779,911.84923)"
       r="20.396999"
       cy="-8491.5459"
       cx="-7935.6201"
       id="f">
      <stop
         id="stop899"
         stop-opacity="0"
         stop-color="#9059ff"
         offset=".206" />
      <stop
         id="stop901"
         stop-opacity=".064"
         stop-color="#8c4ff3"
         offset=".278" />
      <stop
         id="stop903"
         stop-opacity=".45"
         stop-color="#7716a8"
         offset=".747" />
      <stop
         id="stop905"
         stop-opacity=".6"
         stop-color="#6e008b"
         offset=".975" />
    </radialGradient>
    <radialGradient
       gradientUnits="userSpaceOnUse"
       gradientTransform="matrix(0.1161968,0,0,0.1161968,928.37036,992.04864)"
       r="27.676001"
       cy="-8518.4268"
       cx="-7937.731"
       id="g">
      <stop
         id="stop908"
         stop-color="#ffe226"
         offset="0" />
      <stop
         id="stop910"
         stop-color="#ffdb27"
         offset=".121" />
      <stop
         id="stop912"
         stop-color="#ffc82a"
         offset=".295" />
      <stop
         id="stop914"
         stop-color="#ffa930"
         offset=".502" />
      <stop
         id="stop916"
         stop-color="#ff7e37"
         offset=".732" />
      <stop
         id="stop918"
         stop-color="#ff7139"
         offset=".792" />
    </radialGradient>
    <radialGradient
       gradientUnits="userSpaceOnUse"
       gradientTransform="matrix(0.1161968,0,0,0.1161968,928.37036,992.04864)"
       r="118.081"
       cy="-8535.9814"
       cx="-7915.9771"
       id="h">
      <stop
         id="stop921"
         stop-color="#fff44f"
         offset=".113" />
      <stop
         id="stop923"
         stop-color="#ff980e"
         offset=".456" />
      <stop
         id="stop925"
         stop-color="#ff5634"
         offset=".622" />
      <stop
         id="stop927"
         stop-color="#ff3647"
         offset=".716" />
      <stop
         id="stop929"
         stop-color="#e31587"
         offset=".904" />
    </radialGradient>
    <radialGradient
       gradientUnits="userSpaceOnUse"
       gradientTransform="matrix(0.01220066,0.11561581,-0.07587651,0.00801757,-542.56521,985.79617)"
       r="86.499001"
       cy="-8522.8594"
       cx="-7927.165"
       id="i">
      <stop
         id="stop932"
         stop-color="#fff44f"
         offset="0" />
      <stop
         id="stop934"
         stop-color="#ffe847"
         offset=".06" />
      <stop
         id="stop936"
         stop-color="#ffc830"
         offset=".168" />
      <stop
         id="stop938"
         stop-color="#ff980e"
         offset=".304" />
      <stop
         id="stop940"
         stop-color="#ff8b16"
         offset=".356" />
      <stop
         id="stop942"
         stop-color="#ff672a"
         offset=".455" />
      <stop
         id="stop944"
         stop-color="#ff3647"
         offset=".57" />
      <stop
         id="stop946"
         stop-color="#e31587"
         offset=".737" />
    </radialGradient>
    <radialGradient
       gradientUnits="userSpaceOnUse"
       gradientTransform="matrix(0.1161968,0,0,0.1161968,928.37036,992.04864)"
       r="73.720001"
       cy="-8508.1758"
       cx="-7938.3828"
       id="j">
      <stop
         id="stop949"
         stop-color="#fff44f"
         offset=".137" />
      <stop
         id="stop951"
         stop-color="#ff980e"
         offset=".48" />
      <stop
         id="stop953"
         stop-color="#ff5634"
         offset=".592" />
      <stop
         id="stop955"
         stop-color="#ff3647"
         offset=".655" />
      <stop
         id="stop957"
         stop-color="#e31587"
         offset=".904" />
    </radialGradient>
    <radialGradient
       gradientUnits="userSpaceOnUse"
       gradientTransform="matrix(0.1161968,0,0,0.1161968,928.37036,992.04864)"
       r="80.685997"
       cy="-8503.8613"
       cx="-7918.9229"
       id="k">
      <stop
         id="stop960"
         stop-color="#fff44f"
         offset=".094" />
      <stop
         id="stop962"
         stop-color="#ffe141"
         offset=".231" />
      <stop
         id="stop964"
         stop-color="#ffaf1e"
         offset=".509" />
      <stop
         id="stop966"
         stop-color="#ff980e"
         offset=".626" />
    </radialGradient>
    <linearGradient
       gradientTransform="matrix(0.1161968,0,0,0.1161968,1.7010635,1.5870285)"
       gradientUnits="userSpaceOnUse"
       y2="66.806"
       x2="15.267"
       y1="12.061"
       x1="70.013"
       id="l">
      <stop
         id="stop969"
         stop-opacity=".8"
         stop-color="#fff44f"
         offset=".167" />
      <stop
         id="stop971"
         stop-opacity=".634"
         stop-color="#fff44f"
         offset=".266" />
      <stop
         id="stop973"
         stop-opacity=".217"
         stop-color="#fff44f"
         offset=".489" />
      <stop
         id="stop975"
         stop-opacity="0"
         stop-color="#fff44f"
         offset=".6" />
    </linearGradient>
  </defs>
  <path
     id="rect3143"
     style="opacity:0.1;fill:#000000;fill-opacity:1;stroke-width:0.264583"
     d="m 4.5160033,1.0583334 c -3.60405388,0 -4.1191283,0.5137855 -4.1191283,4.1144775 v 2.883545 c 0,3.6006791 0.51507442,4.1144791 4.1191283,4.1144791 h 3.6679933 c 3.6040544,0 4.1191284,-0.5138 4.1191284,-4.1144791 v -2.883545 c 0,-3.600692 -0.515074,-4.1144775 -4.1191284,-4.1144775 z" />
  <path
     style="display:inline;fill:#3b005e;fill-opacity:1;stroke:none;stroke-width:0.0992187;stroke-linecap:round;stroke-linejoin:round;stroke-miterlimit:4;stroke-dasharray:none;stroke-dashoffset:0;stroke-opacity:1;enable-background:new"
     d="m 8.1839962,0.66145835 c 3.6040548,0 4.1191298,0.51378545 4.1191298,4.11447755 v 2.883545 c 0,3.6006781 -0.515075,4.1144781 -4.1191298,4.1144781 H 4.5160033 c -3.604054,0 -4.1191283,-0.5138 -4.1191283,-4.1144781 v -2.883545 c 0,-3.6006921 0.5150743,-4.11447755 4.1191283,-4.11447755 z"
     id="rect877"
     inkscape:connector-curvature="0"
     sodipodi:nodetypes="sssssssss" />
  <path
     style="fill:url(#a);stroke-width:0.116197"
     id="path980"
     d="M 10.522258,4.7047048 C 10.326583,4.2338755 9.9296554,3.7255144 9.6188293,3.5648143 A 4.6787801,4.6787801 0 0 1 10.0749,4.9317535 l 7.99e-4,0.00755 C 9.5665186,3.6698572 8.7030607,3.1580099 7.9978621,2.0434503 7.9621898,1.9870949 7.9265175,1.9306234 7.8917742,1.8710143 7.8719039,1.8369695 7.8559854,1.8062925 7.8421585,1.7780572 A 0.8195359,0.8195359 0 0 1 7.7749975,1.599695 0.01161968,0.01161968 0 0 0 7.7647735,1.588073 a 0.01603516,0.01603516 0 0 0 -0.00849,0 c -5.703e-4,0 -0.00148,0.00103 -0.00222,0.00132 -7.181e-4,2.323e-4 -0.00222,0.00131 -0.00325,0.00178 l 0.00178,-0.00301 C 6.6214049,2.2504611 6.2376067,3.4765699 6.2022827,4.0898566 A 2.2527073,2.2527073 0 0 0 4.9629281,4.5675416 1.3463722,1.3463722 0 0 0 4.8467312,4.4794647 2.0878239,2.0878239 0 0 1 4.8340623,3.3787321 3.3354289,3.3354289 0 0 0 3.7500632,4.216511 h -0.00207 C 3.5695192,3.9902654 3.5820685,3.2442819 3.592294,3.0884619 A 0.80501138,0.80501138 0 0 0 3.4419353,3.168289 3.2796544,3.2796544 0 0 0 3.001782,3.5453476 3.9326806,3.9326806 0 0 0 2.5808009,4.0504554 v 7.179e-4 -8.46e-4 A 3.8034696,3.8034696 0 0 0 1.9765673,5.414809 l -0.00605,0.029747 c -0.00849,0.039624 -0.039042,0.2380872 -0.044272,0.2811962 0,0.00337 -7.181e-4,0.00651 -0.00105,0.00988 A 4.291961,4.291961 0 0 0 1.8521073,6.356472 v 0.023239 a 4.5036715,4.5036715 0 0 0 8.9418067,0.7615538 c 0.0076,-0.058098 0.01372,-0.1156155 0.02046,-0.1742948 A 4.6312556,4.6312556 0 0 0 10.522258,4.7047057 Z M 5.3317481,8.229883 c 0.021036,0.01011 0.040785,0.021033 0.062398,0.030677 l 0.00312,0.00199 Q 5.3644956,8.2468577 5.3317282,8.2298934 Z M 6.3633436,5.5136669 Z M 10.076063,4.9403521 v -0.0043 l 7.97e-4,0.00477 z" />
  <path
     style="fill:url(#b);stroke-width:0.116197"
     id="path982"
     d="M 10.522258,4.7047048 C 10.326583,4.2338755 9.9296554,3.7255144 9.6188293,3.5648143 A 4.6787801,4.6787801 0 0 1 10.0749,4.9317535 v 0.0043 l 7.99e-4,0.00477 A 4.0785071,4.0785071 0 0 1 9.9355767,7.9802944 C 9.4194476,9.0877659 8.1700999,10.222892 6.2145078,10.167698 4.1014692,10.107858 2.2405778,8.5398977 1.8926841,6.4862362 c -0.063327,-0.3238409 0,-0.4880264 0.031839,-0.7512124 a 3.3552982,3.3552982 0 0 0 -0.07239,0.6214207 v 0.023241 A 4.5036715,4.5036715 0 0 0 10.79394,7.1412376 c 0.0076,-0.058098 0.01372,-0.1156156 0.02045,-0.1742951 A 4.6312556,4.6312556 0 0 0 10.522271,4.7047073 Z" />
  <path
     style="fill:url(#c);stroke-width:0.116197"
     id="path984"
     d="M 10.522258,4.7047048 C 10.326583,4.2338755 9.9296554,3.7255144 9.6188293,3.5648143 A 4.6787801,4.6787801 0 0 1 10.0749,4.9317535 v 0.0043 l 7.99e-4,0.00477 A 4.0785071,4.0785071 0 0 1 9.9355767,7.9802944 C 9.4194476,9.0877659 8.1700999,10.222892 6.2145078,10.167698 4.1014692,10.107858 2.2405778,8.5398977 1.8926841,6.4862362 c -0.063327,-0.3238409 0,-0.4880264 0.031839,-0.7512124 a 3.3552982,3.3552982 0 0 0 -0.07239,0.6214207 v 0.023241 A 4.5036715,4.5036715 0 0 0 10.79394,7.1412376 c 0.0076,-0.058098 0.01372,-0.1156156 0.02045,-0.1742951 A 4.6312556,4.6312556 0 0 0 10.522271,4.7047073 Z" />
  <path
     style="fill:url(#d);stroke-width:0.116197"
     id="path986"
     d="m 8.3338086,5.2340973 c 0.00976,0.00686 0.01882,0.01371 0.028,0.020571 A 2.4517523,2.4517523 0 0 0 7.9435019,4.709123 C 6.5437956,3.3091812 7.5766688,1.6737114 7.750848,1.5906305 l 0.00178,-0.00256 C 6.621449,2.2503891 6.2376505,3.4764973 6.2023267,4.0897846 c 0.052521,-0.0036 0.1045772,-0.00802 0.1582603,-0.00802 a 2.2728092,2.2728092 0 0 1 1.9732532,1.1523238 z" />
  <path
     style="fill:url(#e);stroke-width:0.116197"
     id="path988"
     d="m 6.3634598,5.5136669 c -0.00744,0.1120137 -0.4032032,0.498368 -0.5415935,0.498368 -1.2806051,0 -1.4884808,0.7746842 -1.4884808,0.7746842 0.056704,0.6523286 0.5112656,1.1896226 1.0607602,1.4738399 0.0251,0.013016 0.050545,0.024752 0.075993,0.036253 q 0.066116,0.029282 0.1322317,0.054147 a 2.0026516,2.0026516 0 0 0 0.5859803,0.11306 C 8.4329242,8.5692938 8.8677327,5.779874 7.2479491,4.9704471 A 1.5547131,1.5547131 0 0 1 8.3338086,5.2340973 2.2728092,2.2728092 0 0 0 6.3605544,4.0817738 c -0.05345,0 -0.1057389,0.00442 -0.1582598,0.00802 A 2.2527073,2.2527073 0 0 0 4.9629397,4.5674809 c 0.068672,0.058099 0.1461754,0.1357179 0.3094321,0.2966501 0.3055974,0.3010664 1.0893446,0.6129388 1.091088,0.6495395 z" />
  <path
     style="fill:url(#f);stroke-width:0.116197"
     id="path990"
     d="m 6.3634598,5.5136669 c -0.00744,0.1120137 -0.4032032,0.498368 -0.5415935,0.498368 -1.2806051,0 -1.4884808,0.7746842 -1.4884808,0.7746842 0.056704,0.6523286 0.5112656,1.1896226 1.0607602,1.4738399 0.0251,0.013016 0.050545,0.024752 0.075993,0.036253 q 0.066116,0.029282 0.1322317,0.054147 a 2.0026516,2.0026516 0 0 0 0.5859803,0.11306 C 8.4329242,8.5692938 8.8677327,5.779874 7.2479491,4.9704471 A 1.5547131,1.5547131 0 0 1 8.3338086,5.2340973 2.2728092,2.2728092 0 0 0 6.3605544,4.0817738 c -0.05345,0 -0.1057389,0.00442 -0.1582598,0.00802 A 2.2527073,2.2527073 0 0 0 4.9629397,4.5674809 c 0.068672,0.058099 0.1461754,0.1357179 0.3094321,0.2966501 0.3055974,0.3010664 1.0893446,0.6129388 1.091088,0.6495395 z" />
  <path
     style="fill:url(#g);stroke-width:0.116197"
     id="path992"
     d="m 4.7529717,4.4176988 c 0.036485,0.023239 0.066581,0.043458 0.092957,0.0617 A 2.0878239,2.0878239 0 0 1 4.8332623,3.3786671 3.3354289,3.3354289 0 0 0 3.7492628,4.2164462 c 0.021964,-5.703e-4 0.6752195,-0.012316 1.0037076,0.2012526 z" />
  <path
     style="fill:url(#h);stroke-width:0.116197"
     id="path994"
     d="m 1.8932526,6.486234 c 0.3475446,2.0536619 2.208785,3.621621 4.3218236,3.681463 1.955592,0.05531 3.2049398,-1.079933 3.7210856,-2.1874047 A 4.0785071,4.0785071 0 0 0 10.076295,4.9408168 v -0.0043 c 0,-0.00337 -7.18e-4,-0.00536 0,-0.0043 l 7.98e-4,0.00755 C 10.236863,5.9828655 9.7063083,6.993429 8.8768965,7.6767824 l -0.00255,0.00581 C 7.2582856,8.9987565 5.7117064,8.4766842 5.3986722,8.2635794 Q 5.3659046,8.2478926 5.333137,8.2309278 C 4.3909133,7.7805482 4.0016541,6.9220861 4.0850836,6.1858633 A 1.1565067,1.1565067 0 0 1 3.0182811,5.5148268 1.6985646,1.6985646 0 0 1 4.6739683,5.4483623 2.2425981,2.2425981 0 0 0 6.3648643,5.5148268 C 6.3630904,5.4782247 5.5793742,5.1662366 5.2737762,4.865287 5.1105194,4.7043545 5.0330166,4.626851 4.9643445,4.5686363 A 1.3463722,1.3463722 0 0 0 4.8481436,4.48056 C 4.8214196,4.462318 4.7913236,4.442564 4.7551856,4.41886 4.426698,4.2052897 3.7734399,4.2170257 3.7518272,4.2176065 h -0.00207 C 3.5712794,3.9913716 3.5838288,3.2453881 3.5940543,3.0895679 A 0.80501138,0.80501138 0 0 0 3.4436954,3.1693952 3.2796544,3.2796544 0 0 0 3.0035419,3.5464537 3.9326806,3.9326806 0 0 0 2.5808178,4.0503995 v 6.758e-4 -8.461e-4 A 3.8034696,3.8034696 0 0 0 1.9765948,5.4147258 C 1.9743748,5.4239058 1.8143839,6.12341 1.8932808,6.486176 Z" />
  <path
     style="fill:url(#i);stroke-width:0.116197"
     id="path996"
     d="m 7.9437358,4.7091207 a 2.4517523,2.4517523 0 0 1 0.418309,0.546125 c 0.024752,0.018707 0.047875,0.037299 0.06751,0.055309 1.0210208,0.9411946 0.48605,2.2716476 0.4461948,2.3663481 C 9.7051623,6.9935496 10.235253,5.9829855 10.075946,4.9398874 9.5665407,3.6698565 8.7030822,3.1580092 7.9978837,2.0434495 7.9622114,1.9870943 7.926539,1.9306223 7.8917958,1.8710135 7.8719236,1.8369678 7.856007,1.8062917 7.84218,1.7780564 A 0.8195359,0.8195359 0 0 1 7.775019,1.5996941 0.01161968,0.01161968 0 0 0 7.764795,1.5880721 a 0.01603516,0.01603516 0 0 0 -0.00849,0 c -5.701e-4,0 -0.00152,0.00105 -0.00222,0.00131 -7.179e-4,2.323e-4 -0.00222,0.00131 -0.00325,0.00178 -0.1741794,0.082616 -1.2070527,1.7180858 0.1928864,3.118025 z" />
  <path
     style="fill:url(#j);stroke-width:0.116197"
     id="path998"
     d="m 8.4288576,5.3099739 c -0.019636,-0.018009 -0.042758,-0.036602 -0.06751,-0.055309 -0.00918,-0.00686 -0.018238,-0.01371 -0.028008,-0.020569 A 1.5547131,1.5547131 0 0 0 7.2474843,4.9704443 C 8.8672674,5.7803356 8.432692,8.5692905 6.187886,8.4640166 A 2.0026516,2.0026516 0 0 1 5.6019057,8.3509576 Q 5.5357893,8.3262074 5.4696736,8.2968104 C 5.4442265,8.2851936 5.4187793,8.273571 5.3936815,8.2605582 l 0.00312,0.00196 c 0.3130487,0.2136891 1.859163,0.7357615 3.4756933,-0.5809806 l 0.00255,-0.00581 C 8.9153765,7.5816065 9.4503436,6.2508045 8.4288583,5.3099595 Z" />
  <path
     style="fill:url(#k);stroke-width:0.116197"
     id="path1000"
     d="m 4.3333855,6.7867191 c 0,0 0.2078757,-0.7746842 1.4884808,-0.7746842 0.1383903,0 0.5345053,-0.3863543 0.5415935,-0.498368 A 2.2425981,2.2425981 0 0 1 4.6725636,5.447202 1.6985646,1.6985646 0 0 0 3.016876,5.5136669 1.1565067,1.1565067 0 0 0 4.0836787,6.1847032 c -0.08343,0.7363394 0.3058294,1.5948013 1.2480694,2.0450635 0.021036,0.01011 0.040785,0.021034 0.062398,0.030677 C 4.8441864,7.9763422 4.3900895,7.4390483 4.3333855,6.7867191 Z" />
  <path
     style="fill:url(#l);stroke-width:0.116197"
     id="path1002"
     d="M 10.522258,4.7047048 C 10.326583,4.2338755 9.9296554,3.7255144 9.6188293,3.5648143 A 4.6787801,4.6787801 0 0 1 10.0749,4.9317535 l 7.99e-4,0.00755 C 9.5665186,3.6698572 8.7030607,3.1580099 7.9978621,2.0434503 7.9621898,1.9870949 7.9265175,1.9306234 7.8917742,1.8710143 7.8719039,1.8369695 7.8559854,1.8062925 7.8421585,1.7780572 A 0.8195359,0.8195359 0 0 1 7.7749975,1.599695 0.01161968,0.01161968 0 0 0 7.7647735,1.588073 a 0.01603516,0.01603516 0 0 0 -0.00849,0 c -5.703e-4,0 -0.00148,0.00103 -0.00222,0.00132 -7.181e-4,2.323e-4 -0.00222,0.00131 -0.00325,0.00178 l 0.00178,-0.00301 c -1.1311906,0.6623059 -1.514989,1.8884143 -1.5503129,2.5017008 0.052521,-0.0036 0.1045772,-0.00802 0.1582599,-0.00802 A 2.2728092,2.2728092 0 0 1 8.3337975,5.2341261 1.5547131,1.5547131 0 0 0 7.247938,4.9704761 C 8.8677215,5.7803685 8.4331453,8.5693237 6.1883397,8.4640495 A 2.0026516,2.0026516 0 0 1 5.6023581,8.3509918 Q 5.5362421,8.326241 5.4701266,8.2968441 c -0.025447,-0.011617 -0.050895,-0.02324 -0.075993,-0.036252 l 0.00312,0.00199 q -0.032762,-0.015687 -0.065531,-0.032652 c 0.021036,0.01011 0.040785,0.021034 0.062397,0.030677 C 4.8441553,7.976387 4.3900584,7.439093 4.3333543,6.7867645 c 0,0 0.2078763,-0.7746839 1.488481,-0.7746839 0.1383903,0 0.5345052,-0.3863542 0.5415935,-0.4983683 C 6.3616571,5.4771075 5.5779404,5.1651189 5.2723429,4.8641693 5.1090815,4.7032324 5.0315781,4.6257296 4.9629058,4.5675147 A 1.3463722,1.3463722 0 0 0 4.8467091,4.4794212 2.0878239,2.0878239 0 0 1 4.8340401,3.3786889 3.3354289,3.3354289 0 0 0 3.7500404,4.2164675 h -0.00207 C 3.5694937,3.9902388 3.5820432,3.2442553 3.5922686,3.0884354 A 0.80501138,0.80501138 0 0 0 3.4419101,3.1682626 3.2796544,3.2796544 0 0 0 3.0017562,3.5453214 3.9326806,3.9326806 0 0 0 2.5807751,4.0504286 v 6.759e-4 -8.461e-4 A 3.8034696,3.8034696 0 0 0 1.9765523,5.4147576 l -0.00605,0.029747 c -0.00849,0.039624 -0.046479,0.2408761 -0.051939,0.2841014 0,0.00325 0,-0.00337 0,0 a 5.2397778,5.2397778 0 0 0 -0.06648,0.6278231 v 0.02324 A 4.5036715,4.5036715 0 0 0 10.793923,7.141219 c 0.0076,-0.058098 0.01372,-0.1156156 0.02046,-0.1742952 a 4.6312556,4.6312556 0 0 0 -0.292122,-2.262219 z m -0.446776,0.231348 7.98e-4,0.00477 z" />
  <path
     id="rect1370"
     style="opacity:0.4;fill:#000000;fill-opacity:1;stroke-width:0.264583"
     d="m 4.4751788,0.52916667 c -3.68414336,0 -4.21059547,0.52624033 -4.21059547,4.21266273 v 2.9517578 c 0,3.6864088 0.52645211,4.2126628 4.21059547,4.2126628 H 8.224821 c 3.684144,0 4.210596,-0.526254 4.210596,-4.2126628 V 4.7418294 c 0,-3.6864224 -0.526452,-4.21266273 -4.210596,-4.21266273 z m 0.081649,0.2645833 h 3.5863445 c 3.5239637,0 4.0276607,0.50133143 4.0276607,4.01629243 v 2.8153318 c 0,3.5149478 -0.503697,4.0162928 -4.0276607,4.0162928 H 4.5568277 c -3.5239637,0 -4.02766104,-0.501345 -4.02766104,-4.0162928 V 4.8100424 c 0,-3.514961 0.50369724,-4.01629243 4.02766114,-4.01629243 z" />
  <path
     id="rect1565"
     style="opacity:0.4;fill:url(#linearGradient1873);fill-opacity:1;stroke-width:0.264583"
     d="m 4.5568277,0.79374997 c -3.5239635,0 -4.02766104,0.50133123 -4.02766104,4.01629243 v 2.8153318 c 0,3.5149478 0.50369754,4.0162928 4.02766104,4.0162928 h 3.5863445 c 3.5239638,0 4.0276608,-0.501345 4.0276608,-4.0162928 V 4.8100424 c 0,-3.5149612 -0.503697,-4.01629243 -4.0276608,-4.01629243 z m 0.081649,0.26458343 h 3.4230468 c 3.3637835,0 3.8447265,0.4769388 3.8447265,3.8204385 v 2.6778728 c 0,3.3434873 -0.480943,3.8204393 -3.8447265,3.8204393 h -3.423047 c -3.3637834,0 -3.84472651,-0.476952 -3.84472651,-3.8204393 V 4.8787719 c 0,-3.3434997 0.48094311,-3.8204385 3.84472671,-3.8204385 z" />
</svg>
