<?xml version="1.0" encoding="UTF-8" standalone="no"?>
<!-- Created with Inkscape (http://www.inkscape.org/) -->

<svg
   width="48"
   height="48"
   viewBox="0 0 12.7 12.7"
   version="1.1"
   id="svg5"
   inkscape:version="1.1.2 (0a00cf5339, 2022-02-04)"
   sodipodi:docname="gnome-extensions.svg"
   xmlns:inkscape="http://www.inkscape.org/namespaces/inkscape"
   xmlns:sodipodi="http://sodipodi.sourceforge.net/DTD/sodipodi-0.dtd"
   xmlns:xlink="http://www.w3.org/1999/xlink"
   xmlns="http://www.w3.org/2000/svg"
   xmlns:svg="http://www.w3.org/2000/svg">
  <sodipodi:namedview
     id="namedview7"
     pagecolor="#ffffff"
     bordercolor="#666666"
     borderopacity="1.0"
     inkscape:pageshadow="2"
     inkscape:pageopacity="0.0"
     inkscape:pagecheckerboard="0"
     inkscape:document-units="px"
     showgrid="false"
     units="px"
     inkscape:zoom="8.5208335"
     inkscape:cx="19.422982"
     inkscape:cy="25.701711"
     inkscape:window-width="1920"
     inkscape:window-height="1010"
     inkscape:window-x="0"
     inkscape:window-y="0"
     inkscape:window-maximized="1"
     inkscape:current-layer="svg5" />
  <defs
     id="defs2">
    <linearGradient
       inkscape:collect="always"
       id="linearGradient2261">
      <stop
         style="stop-color:#46a926;stop-opacity:1;"
         offset="0"
         id="stop2257" />
      <stop
         style="stop-color:#a6d74f;stop-opacity:1"
         offset="1"
         id="stop2259" />
    </linearGradient>
    <linearGradient
       inkscape:collect="always"
       id="linearGradient1871">
      <stop
         style="stop-color:#ffffff;stop-opacity:1;"
         offset="0"
         id="stop1867" />
      <stop
         style="stop-color:#ffffff;stop-opacity:0.1"
         offset="0.12"
         id="stop2515" />
      <stop
         style="stop-color:#ffffff;stop-opacity:0.102"
         offset="0.89999998"
         id="stop2581" />
      <stop
         style="stop-color:#ffffff;stop-opacity:0.502"
         offset="1"
         id="stop1869" />
    </linearGradient>
    <linearGradient
       inkscape:collect="always"
       xlink:href="#linearGradient1871"
       id="linearGradient1873"
       x1="17.222656"
       y1="3.5"
       x2="17.222656"
       y2="44.466438"
       gradientUnits="userSpaceOnUse"
       gradientTransform="matrix(0.26458333,0,0,0.26458333,0,-0.13229166)" />
    <linearGradient
       inkscape:collect="always"
       xlink:href="#linearGradient2261"
       id="linearGradient2263"
       x1="22.838202"
       y1="-0.080899477"
       x2="39.031292"
       y2="47.426983"
       gradientUnits="userSpaceOnUse" />
  </defs>
  <path
     id="rect3143"
     style="opacity:0.1;fill:#000000;fill-opacity:1;stroke-width:0.264583"
     d="m 4.5160033,1.0583334 c -3.60405388,0 -4.1191283,0.5137855 -4.1191283,4.1144775 v 2.883545 c 0,3.6006791 0.51507442,4.1144791 4.1191283,4.1144791 h 3.6679933 c 3.6040544,0 4.1191284,-0.5138 4.1191284,-4.1144791 v -2.883545 c 0,-3.600692 -0.515074,-4.1144775 -4.1191284,-4.1144775 z" />
  <path
     style="display:inline;fill:#4d4d4d;fill-opacity:1;stroke:none;stroke-width:0.0992187;stroke-linecap:round;stroke-linejoin:round;stroke-miterlimit:4;stroke-dasharray:none;stroke-dashoffset:0;stroke-opacity:1;enable-background:new"
     d="m 8.1839962,0.66145835 c 3.6040548,0 4.1191298,0.51378545 4.1191298,4.11447755 v 2.883545 c 0,3.6006781 -0.515075,4.1144781 -4.1191298,4.1144781 H 4.5160033 c -3.604054,0 -4.1191283,-0.5138 -4.1191283,-4.1144781 v -2.883545 c 0,-3.6006921 0.5150743,-4.11447755 4.1191283,-4.11447755 z"
     id="rect877"
     inkscape:connector-curvature="0"
     sodipodi:nodetypes="sssssssss" />
  <path
     id="path31"
     style="stroke-width:0.999999;opacity:0.1;fill:#ffffff"
     d="M 24 2.5 L 24 8.3125 L 24 10.808594 C 22.3262 9.993694 20.8918 9.7885933 19.875 10.246094 C 18.697 10.776223 18.107422 11.958622 18.107422 13.107422 C 18.107422 14.256222 18.69693 15.43865 19.875 15.96875 C 20.8918 16.4263 22.3262 16.221151 24 15.40625 L 24 17.6875 L 24 23.5 L 33.59375 23.5 C 32.77885 21.8262 32.57375 20.3918 33.03125 19.375 C 33.56137 18.197 34.743778 17.607422 35.892578 17.607422 C 37.041378 17.607422 38.223805 18.19693 38.753906 19.375 C 39.211456 20.3918 39.006306 21.8262 38.191406 23.5 L 46.392578 23.5 L 46.392578 13.833984 C 46.392578 13.707914 46.390927 13.598096 46.390625 13.474609 C 46.390507 13.472606 46.390743 13.470752 46.390625 13.46875 C 45.830869 3.9855351 42.848046 2.5 30.931641 2.5 L 24 2.5 z M 24 23.5 L 14.298828 23.5 C 15.113728 25.1738 15.318828 26.6082 14.861328 27.625 C 14.331208 28.803 13.1488 29.392578 12 29.392578 C 10.8512 29.392578 9.6687722 28.80307 9.1386719 27.625 C 8.6811219 26.6082 8.8862717 25.1738 9.7011719 23.5 L 1.5 23.5 L 1.5 28.949219 C 1.5 42.558081 3.446738 44.5 17.068359 44.5 L 24 44.5 L 24 38.1875 L 24 35.691406 C 25.6738 36.506306 27.1082 36.711403 28.125 36.253906 C 29.303 35.723774 29.892578 34.54138 29.892578 33.392578 C 29.892578 32.24378 29.30307 31.06135 28.125 30.53125 C 27.1082 30.073692 25.6738 30.27885 24 31.09375 L 24 28.8125 L 24 23.5 z "
     transform="scale(0.26458333)" />
  <path
     id="rect1931"
     style="opacity:1;fill:url(#linearGradient2263);fill-opacity:1;stroke-width:0.999999;stroke-linejoin:round"
     d="M 35.892578 17.607422 C 34.743779 17.607422 33.56137 18.197 33.03125 19.375 C 32.57375 20.3918 32.77885 21.8262 33.59375 23.5 L 24 23.5 L 24 28.8125 L 24 31.09375 C 25.673802 30.27885 27.108201 30.073692 28.125 30.53125 C 29.303071 31.06135 29.892578 32.24378 29.892578 33.392578 C 29.892578 34.541381 29.302999 35.723775 28.125 36.253906 C 27.108201 36.711403 25.673802 36.506303 24 35.691406 L 24 38.1875 L 24 44.5 L 30.931641 44.5 C 44.553264 44.5 46.5 42.558081 46.5 28.949219 L 46.488281 23.5 L 38.191406 23.5 C 39.006303 21.8262 39.21146 20.3918 38.753906 19.375 C 38.223809 18.19693 37.041377 17.607422 35.892578 17.607422 z "
     transform="scale(0.26458333)" />
  <path
     id="path31-3"
     style="opacity:0.1;fill:#ffffff;stroke-width:0.264583"
     d="M 6.3499999,0.66145828 V 2.1993489 2.8597738 C 5.9071403,2.6441648 5.527622,2.5898986 5.2585937,2.7109457 4.9469145,2.851209 4.790922,3.164052 4.790922,3.4680054 c 0,0.3039533 0.155974,0.616804 0.4676717,0.7570597 0.2690283,0.1210601 0.6485466,0.066781 1.0914062,-0.1488282 V 4.6798176 6.2177083 H 8.8883462 C 8.6727373,5.7748487 8.6184712,5.3953303 8.7395181,5.126302 8.879779,4.8146229 9.1926245,4.6586303 9.4965778,4.6586303 c 0.3039533,0 0.6168042,0.155974 0.7570592,0.4676717 0.121061,0.2690283 0.06678,0.6485467 -0.148828,1.0914063 h 2.19858 V 3.6602416 c 0,-0.033356 -4.5e-4,-0.062412 -5.29e-4,-0.095085 -3.2e-5,-5.291e-4 3.1e-5,-0.00103 0,-0.00156 C 12.15477,1.0545061 11.336879,0.66145828 8.1839966,0.66145828 Z m 0,5.55625002 H 3.7832315 C 3.9988405,6.6605678 4.0531065,7.0400862 3.9320597,7.3091145 3.7917987,7.6207937 3.4789533,7.7767862 3.175,7.7767862 2.8710466,7.7767862 2.5581959,7.6208122 2.4179402,7.3091145 2.2968801,7.0400862 2.3511592,6.6605678 2.5667684,6.2177083 H 0.39687498 v 1.4417725 c 0,3.6006782 0.5150744,4.1144772 4.11912832,4.1144772 H 6.3499999 V 10.103776 9.4433511 C 6.7928595,9.65896 7.1723778,9.7132253 7.4414061,9.5921792 7.7530853,9.4519151 7.9090778,9.1390733 7.9090778,8.8351195 7.9090778,8.5311667 7.7531038,8.2183154 7.4414061,8.0780598 7.1723778,7.9569976 6.7928595,8.011279 6.3499999,8.2268879 V 7.6233072 Z"
     sodipodi:nodetypes="ccccsccccccscccsccsccccscccssccccscccc" />
  <path
     id="rect1565"
     style="opacity:1;fill:url(#linearGradient1873);fill-opacity:1;stroke-width:0.264583"
     d="m 4.5568277,0.79374997 c -3.5239635,0 -4.02766104,0.50133123 -4.02766104,4.01629243 v 2.8153318 c 0,3.5149478 0.50369754,4.0162928 4.02766104,4.0162928 h 3.5863445 c 3.5239638,0 4.0276608,-0.501345 4.0276608,-4.0162928 V 4.8100424 c 0,-3.5149612 -0.503697,-4.01629243 -4.0276608,-4.01629243 z m 0.081649,0.26458343 h 3.4230468 c 3.3637835,0 3.8447265,0.4769388 3.8447265,3.8204385 v 2.6778728 c 0,3.3434873 -0.480943,3.8204393 -3.8447265,3.8204393 h -3.423047 c -3.3637834,0 -3.84472651,-0.476952 -3.84472651,-3.8204393 V 4.8787719 c 0,-3.3434997 0.48094311,-3.8204385 3.84472671,-3.8204385 z" />
  <path
     id="rect1370"
     style="opacity:0.4;fill:#000000;fill-opacity:1;stroke-width:0.264583"
     d="m 4.4751788,0.52916667 c -3.68414336,0 -4.21059547,0.52624033 -4.21059547,4.21266273 v 2.9517578 c 0,3.6864088 0.52645211,4.2126628 4.21059547,4.2126628 H 8.224821 c 3.684144,0 4.210596,-0.526254 4.210596,-4.2126628 V 4.7418294 c 0,-3.6864224 -0.526452,-4.21266273 -4.210596,-4.21266273 z m 0.081649,0.2645833 h 3.5863445 c 3.5239637,0 4.0276607,0.50133143 4.0276607,4.01629243 v 2.8153318 c 0,3.5149478 -0.503697,4.0162928 -4.0276607,4.0162928 H 4.5568277 c -3.5239637,0 -4.02766104,-0.501345 -4.02766104,-4.0162928 V 4.8100424 c 0,-3.514961 0.50369724,-4.01629243 4.02766114,-4.01629243 z" />
</svg>
