<?xml version="1.0" encoding="UTF-8" standalone="no"?>
<!-- Created with Inkscape (http://www.inkscape.org/) -->

<svg
   width="48"
   height="48"
   viewBox="0 0 12.7 12.7"
   version="1.1"
   id="svg5"
   inkscape:version="1.1.2 (0a00cf5339, 2022-02-04)"
   sodipodi:docname="kate.svg"
   xmlns:inkscape="http://www.inkscape.org/namespaces/inkscape"
   xmlns:sodipodi="http://sodipodi.sourceforge.net/DTD/sodipodi-0.dtd"
   xmlns:xlink="http://www.w3.org/1999/xlink"
   xmlns="http://www.w3.org/2000/svg"
   xmlns:svg="http://www.w3.org/2000/svg">
  <sodipodi:namedview
     id="namedview7"
     pagecolor="#ffffff"
     bordercolor="#666666"
     borderopacity="1.0"
     inkscape:pageshadow="2"
     inkscape:pageopacity="0.0"
     inkscape:pagecheckerboard="0"
     inkscape:document-units="px"
     showgrid="false"
     units="px"
     inkscape:zoom="11.402097"
     inkscape:cx="20.917205"
     inkscape:cy="27.714201"
     inkscape:window-width="1920"
     inkscape:window-height="998"
     inkscape:window-x="0"
     inkscape:window-y="0"
     inkscape:window-maximized="1"
     inkscape:current-layer="svg5" />
  <defs
     id="defs2">
    <linearGradient
       inkscape:collect="always"
       id="linearGradient1331">
      <stop
         style="stop-color:#008bff;stop-opacity:1"
         offset="0"
         id="stop1327" />
      <stop
         style="stop-color:#00ccff;stop-opacity:1"
         offset="1"
         id="stop1329" />
    </linearGradient>
    <linearGradient
       inkscape:collect="always"
       id="linearGradient1871">
      <stop
         style="stop-color:#ffffff;stop-opacity:1;"
         offset="0"
         id="stop1867" />
      <stop
         style="stop-color:#ffffff;stop-opacity:0.1"
         offset="0.12"
         id="stop2515" />
      <stop
         style="stop-color:#ffffff;stop-opacity:0.102"
         offset="0.89999998"
         id="stop2581" />
      <stop
         style="stop-color:#ffffff;stop-opacity:0.502"
         offset="1"
         id="stop1869" />
    </linearGradient>
    <linearGradient
       inkscape:collect="always"
       xlink:href="#linearGradient1871"
       id="linearGradient1873"
       x1="17.222656"
       y1="3.5"
       x2="17.222656"
       y2="44.466438"
       gradientUnits="userSpaceOnUse"
       gradientTransform="matrix(0.26458333,0,0,0.26458333,0,-0.13229166)" />
    <linearGradient
       inkscape:collect="always"
       xlink:href="#linearGradient1331"
       id="linearGradient1333"
       x1="13.475047"
       y1="13.391682"
       x2="-0.81648797"
       y2="-0.52916664"
       gradientUnits="userSpaceOnUse" />
  </defs>
  <path
     id="rect3143"
     style="opacity:0.1;fill:#000000;fill-opacity:1;stroke-width:0.264583"
     d="m 4.5160033,1.0583334 c -3.60405388,0 -4.1191283,0.5137855 -4.1191283,4.1144775 v 2.883545 c 0,3.6006791 0.51507442,4.1144791 4.1191283,4.1144791 h 3.6679933 c 3.6040544,0 4.1191284,-0.5138 4.1191284,-4.1144791 v -2.883545 c 0,-3.600692 -0.515074,-4.1144775 -4.1191284,-4.1144775 z" />
  <path
     style="display:inline;fill:url(#linearGradient1333);fill-opacity:1;stroke:none;stroke-width:0.0992187;stroke-linecap:round;stroke-linejoin:round;stroke-miterlimit:4;stroke-dasharray:none;stroke-dashoffset:0;stroke-opacity:1;enable-background:new"
     d="m 8.1839962,0.66145835 c 3.6040548,0 4.1191298,0.51378545 4.1191298,4.11447755 v 2.883545 c 0,3.6006781 -0.515075,4.1144781 -4.1191298,4.1144781 H 4.5160033 c -3.604054,0 -4.1191283,-0.5138 -4.1191283,-4.1144781 v -2.883545 c 0,-3.6006921 0.5150743,-4.11447755 4.1191283,-4.11447755 z"
     id="rect877"
     inkscape:connector-curvature="0"
     sodipodi:nodetypes="sssssssss" />
  <path
     id="rect858"
     style="opacity:0.2;fill:#eff0f1;stroke-width:0.264583;stroke-linejoin:round"
     d="m 0.52916667,6.2177083 v 1.4076658 c 0,3.5149489 0.50369743,4.0162929 4.02766113,4.0162929 h 3.5863445 c 3.5239647,0 4.0276627,-0.501344 4.0276627,-4.0162929 V 6.2177083 Z" />
  <path
     id="path10-3"
     style="opacity:0.1;fill:#000000;stroke-width:0.31832"
     d="M 6.0239077,2.1166677 C 5.344484,2.1161352 4.5633388,2.3100982 3.8056105,2.8590013 3.0652199,3.3953466 2.7403921,3.5424273 2.38125,3.7207053 2.6961013,3.7447283 4.5543001,3.4809741 4.9365195,4.5438628 3.5737948,4.9935442 3.0386092,5.7250477 3.2106246,6.5756439 c 0.027059,0.1531568 0.078891,0.3132005 0.1579167,0.4793459 0.081615,0.1715889 0.1746969,0.3186614 0.2766655,0.4488822 0.00487,0.00683 0.00997,0.013675 0.014921,0.020516 -0.00254,-0.00356 -0.00496,-0.00701 -0.00746,-0.010575 0.6284179,0.7932955 1.6153288,0.9169889 2.6833443,1.6313937 0.9731032,0.6509256 1.296319,0.9821843 1.9242228,1.8844393 C 8.1296623,9.7830063 7.4418156,8.1763413 7.1597905,7.4684341 l -6.22e-4,-0.0031 C 8.0412372,8.1127488 9.086716,8.3949457 10.31875,8.4830811 8.3490581,7.0809694 7.9751182,6.7489391 6.8476869,5.7879247 6.0913022,5.826051 6.1746296,5.8189226 5.7285908,5.8445005 5.7844857,5.9376771 5.8410881,6.027802 5.898942,6.1149487 6.3494262,6.9162823 6.4354361,7.9136984 5.4736857,8.1137792 4.4687539,8.3228423 3.3728284,7.4549859 3.6483155,6.5259062 3.9474638,5.5170379 5.3662161,5.7111324 6.7208559,5.5361279 8.0754965,5.3611221 9.3131661,4.0325896 10.057628,3.0492477 8.9850994,3.41519 7.6202528,3.7511486 6.0960274,4.1932126 5.7995043,3.5860801 5.5052872,2.5374739 7.4980062,2.4617222 c -0.03584,-0.019797 -0.072871,-0.038846 -0.1112881,-0.056576 -0.00474,-0.00224 -0.00952,-0.00461 -0.0143,-0.00683 -0.00824,-0.00372 -0.016517,-0.00757 -0.024869,-0.011189 C 7.0033858,2.2315204 6.5434672,2.1170746 6.0239077,2.1166677 Z" />
  <path
     style="fill:#cccccc;fill-opacity:1;stroke-width:0.318331"
     d="M 4.9543554,4.3319234 C 4.6156001,3.2073082 2.7012416,3.4802022 2.38125,3.455787 2.740404,3.2775035 3.062935,3.3434398 3.8033501,2.8070768 5.2297092,1.7738132 6.2304266,1.7600798 6.9866622,2.1704143 4.9192241,2.2490065 5.824547,3.4015272 6.1290616,3.9950042 5.7418085,4.1074891 5.1305002,4.277293 4.9543554,4.3319234 Z"
     id="path10" />
  <path
     style="fill:#f2f2f2;stroke-width:0.318331"
     d="M 10.057648,2.7844021 C 9.313161,3.7677768 8.0753759,5.0963846 6.7206911,5.2713958 5.3660061,5.4464067 3.9472212,5.2525283 3.6480631,6.261433 3.3725668,7.1905433 4.4688292,8.0580077 5.473794,7.8489383 6.5474116,7.625585 6.3155477,6.4087171 5.7283218,5.5800609 6.1743755,5.554483 5.9119215,5.7101848 6.6683309,5.6720577 L 7.1596465,7.2040211 C 7.4416807,7.9119526 8.12941,9.5186748 8.259987,10.765356 7.6320615,9.8630667 7.3090957,9.5314772 6.3359591,8.8805376 5.0894349,8.0467263 3.9525812,8.0184986 3.3682747,6.7900391 2.7852301,5.5642339 3.6842809,4.6812394 5.0652491,4.2988409 7.0387538,3.7523643 8.7391911,3.234255 10.057648,2.7844021 Z"
     id="path12" />
  <path
     style="fill:#cccccc;fill-opacity:1;stroke-width:0.318331"
     d="M 5.7283218,5.5800609 C 6.1743755,5.5544833 6.0914025,5.5611043 6.8478118,5.5229767 7.9752811,6.4840234 8.348992,6.8165483 10.31875,8.2187068 8.3388787,8.0770748 6.8408547,7.434634 5.7283218,5.5800609 Z"
     id="path14" />
  <path
     style="fill:#e6e6e6;fill-opacity:1;stroke-width:0.318331"
     d="M 2.38125,3.455787 C 2.740404,3.2775035 3.0649761,3.1305463 3.8053912,2.5941833 5.2317502,1.5609195 6.7418868,1.7862601 7.4981224,2.1965946 5.4306844,2.2751867 5.697068,2.6871207 5.6894383,3.0100521 4.3158271,2.7205123 3.9147619,3.1144581 2.38125,3.455787 Z"
     id="path16" />
  <path
     style="fill:#f2f2f2;stroke-width:0.318331"
     d="M 7.4981224,2.1965946 C 5.4306844,2.2751867 5.824547,3.4015272 6.1290616,3.9950042 5.8878035,4.0650817 5.7853235,4.1449159 5.4628107,4.2302709 4.1615052,1.911565 6.4360265,1.6099155 7.4981224,2.1965946 Z"
     id="path18" />
  <path
     style="fill:#e6e6e6;fill-opacity:1;stroke-width:0.318331"
     d="M 3.7405553,7.367681 C 2.7288644,6.0650045 3.0429737,4.8709874 5.0240111,4.2506158 6.9789668,3.6384108 8.7391911,3.234255 10.057648,2.7844021 6.4996202,4.1400877 1.9169618,5.0459508 3.7405553,7.367681 Z"
     id="path20" />
  <path
     id="rect1370"
     style="opacity:0.4;fill:#000000;fill-opacity:1;stroke-width:0.264583"
     d="m 4.4751788,0.52916667 c -3.68414336,0 -4.21059547,0.52624033 -4.21059547,4.21266273 v 2.9517578 c 0,3.6864088 0.52645211,4.2126628 4.21059547,4.2126628 H 8.224821 c 3.684144,0 4.210596,-0.526254 4.210596,-4.2126628 V 4.7418294 c 0,-3.6864224 -0.526452,-4.21266273 -4.210596,-4.21266273 z m 0.081649,0.2645833 h 3.5863445 c 3.5239637,0 4.0276607,0.50133143 4.0276607,4.01629243 v 2.8153318 c 0,3.5149478 -0.503697,4.0162928 -4.0276607,4.0162928 H 4.5568277 c -3.5239637,0 -4.02766104,-0.501345 -4.02766104,-4.0162928 V 4.8100424 c 0,-3.514961 0.50369724,-4.01629243 4.02766114,-4.01629243 z" />
  <path
     id="rect1565"
     style="opacity:1;fill:url(#linearGradient1873);fill-opacity:1;stroke-width:0.264583"
     d="m 4.5568277,0.79374997 c -3.5239635,0 -4.02766104,0.50133123 -4.02766104,4.01629243 v 2.8153318 c 0,3.5149478 0.50369754,4.0162928 4.02766104,4.0162928 h 3.5863445 c 3.5239638,0 4.0276608,-0.501345 4.0276608,-4.0162928 V 4.8100424 c 0,-3.5149612 -0.503697,-4.01629243 -4.0276608,-4.01629243 z m 0.081649,0.26458343 h 3.4230468 c 3.3637835,0 3.8447265,0.4769388 3.8447265,3.8204385 v 2.6778728 c 0,3.3434873 -0.480943,3.8204393 -3.8447265,3.8204393 h -3.423047 c -3.3637834,0 -3.84472651,-0.476952 -3.84472651,-3.8204393 V 4.8787719 c 0,-3.3434997 0.48094311,-3.8204385 3.84472671,-3.8204385 z" />
</svg>
