<?xml version="1.0" encoding="UTF-8" standalone="no"?>
<!-- Created with Inkscape (http://www.inkscape.org/) -->

<svg
   width="48"
   height="48"
   viewBox="0 0 12.7 12.7"
   version="1.1"
   id="svg5"
   inkscape:version="1.1.2 (0a00cf5339, 2022-02-04)"
   sodipodi:docname="multimedia-photo-viewer.svg"
   xmlns:inkscape="http://www.inkscape.org/namespaces/inkscape"
   xmlns:sodipodi="http://sodipodi.sourceforge.net/DTD/sodipodi-0.dtd"
   xmlns:xlink="http://www.w3.org/1999/xlink"
   xmlns="http://www.w3.org/2000/svg"
   xmlns:svg="http://www.w3.org/2000/svg">
  <sodipodi:namedview
     id="namedview7"
     pagecolor="#ffffff"
     bordercolor="#666666"
     borderopacity="1.0"
     inkscape:pageshadow="2"
     inkscape:pageopacity="0.0"
     inkscape:pagecheckerboard="0"
     inkscape:document-units="px"
     showgrid="false"
     units="px"
     inkscape:zoom="5.8336309"
     inkscape:cx="37.626652"
     inkscape:cy="23.998776"
     inkscape:window-width="1920"
     inkscape:window-height="1010"
     inkscape:window-x="0"
     inkscape:window-y="0"
     inkscape:window-maximized="1"
     inkscape:current-layer="svg5"
     showguides="false" />
  <defs
     id="defs2">
    <linearGradient
       inkscape:collect="always"
       id="linearGradient1871">
      <stop
         style="stop-color:#ffffff;stop-opacity:1;"
         offset="0"
         id="stop1867" />
      <stop
         style="stop-color:#ffffff;stop-opacity:0.1"
         offset="0.12"
         id="stop2515" />
      <stop
         style="stop-color:#ffffff;stop-opacity:0.102"
         offset="0.89999998"
         id="stop2581" />
      <stop
         style="stop-color:#ffffff;stop-opacity:0.502"
         offset="1"
         id="stop1869" />
    </linearGradient>
    <linearGradient
       inkscape:collect="always"
       xlink:href="#linearGradient1871"
       id="linearGradient1873"
       x1="17.222656"
       y1="3.5"
       x2="17.222656"
       y2="44.466438"
       gradientUnits="userSpaceOnUse"
       gradientTransform="matrix(0.26458333,0,0,0.26458333,0,-0.13229166)" />
  </defs>
  <path
     id="rect3143"
     style="opacity:0.1;fill:#000000;fill-opacity:1;stroke-width:0.264583"
     d="m 4.5160033,1.0583334 c -3.60405388,0 -4.1191283,0.5137855 -4.1191283,4.1144775 v 2.883545 c 0,3.6006791 0.51507442,4.1144791 4.1191283,4.1144791 h 3.6679933 c 3.6040544,0 4.1191284,-0.5138 4.1191284,-4.1144791 v -2.883545 c 0,-3.600692 -0.515074,-4.1144775 -4.1191284,-4.1144775 z" />
  <path
     style="display:inline;fill:#f1f0e9;fill-opacity:1;stroke:none;stroke-width:0.0992187;stroke-linecap:round;stroke-linejoin:round;stroke-miterlimit:4;stroke-dasharray:none;stroke-dashoffset:0;stroke-opacity:1;enable-background:new"
     d="m 8.1839962,0.66145835 c 3.6040548,0 4.1191298,0.51378545 4.1191298,4.11447755 v 2.883545 c 0,3.6006781 -0.515075,4.1144781 -4.1191298,4.1144781 H 4.5160033 c -3.604054,0 -4.1191283,-0.5138 -4.1191283,-4.1144781 v -2.883545 c 0,-3.6006921 0.5150743,-4.11447755 4.1191283,-4.11447755 z"
     id="rect877"
     inkscape:connector-curvature="0"
     sodipodi:nodetypes="sssssssss" />
  <path
     id="rect1743"
     style="opacity:1;fill:#c8c4b7;stroke-width:0.999999;stroke-linejoin:round;fill-opacity:1"
     d="M 35.304688 2.5996094 L 19 34 L 32.5 34 L 45.685547 8.6035156 C 44.483697 4.3233901 41.645064 2.9452731 35.304688 2.5996094 z "
     transform="scale(0.26458333)" />
  <path
     id="rect3139"
     style="opacity:1;fill:#dad9ce;stroke-width:0.999999;stroke-linejoin:round;fill-opacity:1"
     d="M 26.355469 2.5 L 10 34 L 19 34 L 35.304688 2.5996094 C 33.999403 2.5284481 32.550323 2.5 30.931641 2.5 L 26.355469 2.5 z "
     transform="scale(0.26458333)" />
  <path
     id="rect3986"
     style="opacity:1;fill:#dad9ce;stroke-width:0.999999;stroke-linejoin:round;fill-opacity:1"
     d="M 45.685547 8.6035156 L 32.5 34 L 41.5 34 L 46.5 24.371094 L 46.5 18.050781 C 46.5 13.9144 46.318402 10.857292 45.685547 8.6035156 z "
     transform="scale(0.26458333)" />
  <path
     id="rect4143"
     style="opacity:1;fill:#aea795;fill-opacity:1;stroke-width:1.12331;stroke-linejoin:round"
     d="M 1.6425781 34 C 2.2755071 43.057138 5.3542511 44.5 17.068359 44.5 L 30.931641 44.5 C 42.645751 44.5 45.724492 43.057138 46.357422 34 L 1.6425781 34 z "
     transform="scale(0.26458333)" />
  <path
     id="rect4602"
     style="opacity:0.1;fill:#000000;stroke-width:0.999999;stroke-linejoin:round"
     d="M 35.5,12 A 4.4999998,4.4999998 0 0 0 31,16.5 4.4999998,4.4999998 0 0 0 35.5,21 4.4999998,4.4999998 0 0 0 40,16.5 4.4999998,4.4999998 0 0 0 35.5,12 Z M 19,18 10,35 h 22.5 l -6.75,-13 -2.292969,4.417969 z"
     transform="scale(0.26458333)" />
  <path
     id="rect1000"
     style="opacity:1;fill:#ffffff;stroke-width:0.264583;stroke-linejoin:round"
     d="M 5.0270833,4.4979167 7.4083331,8.9958334 H 2.6458333 Z"
     sodipodi:nodetypes="cccc" />
  <path
     id="rect1472"
     style="opacity:1;fill:#f9f9f9;fill-opacity:1;stroke-width:0.200374;stroke-linejoin:round"
     d="M 6.8130209,5.5562501 8.5989583,8.9958334 H 5.0270833 Z"
     sodipodi:nodetypes="cccc" />
  <circle
     style="opacity:1;fill:#f9f9f9;fill-opacity:1;stroke-width:0.264583;stroke-linejoin:round"
     id="path4390"
     cx="9.3927078"
     cy="4.1010418"
     r="1.190625" />
  <path
     id="rect2673"
     style="opacity:0.1;fill:#ffffff;stroke-width:1.35645;stroke-linejoin:round"
     d="M 35.304688 2.5996094 L 13.578125 44.443359 C 14.646955 44.48438 15.807051 44.5 17.068359 44.5 L 30.931641 44.5 C 44.553265 44.5 46.5 42.55808 46.5 28.949219 L 46.5 18.050781 C 46.5 6.061409 44.984421 3.1281352 35.310547 2.5996094 C 35.308634 2.5995049 35.306601 2.5997137 35.304688 2.5996094 z "
     transform="scale(0.26458333)" />
  <path
     id="rect1565"
     style="fill:url(#linearGradient1873);fill-opacity:1;stroke-width:0.264583;opacity:0.7"
     d="m 4.5568277,0.79374997 c -3.5239635,0 -4.02766104,0.50133123 -4.02766104,4.01629243 v 2.8153318 c 0,3.5149478 0.50369754,4.0162928 4.02766104,4.0162928 h 3.5863445 c 3.5239638,0 4.0276608,-0.501345 4.0276608,-4.0162928 V 4.8100424 c 0,-3.5149612 -0.503697,-4.01629243 -4.0276608,-4.01629243 z m 0.081649,0.26458343 h 3.4230468 c 3.3637835,0 3.8447265,0.4769388 3.8447265,3.8204385 v 2.6778728 c 0,3.3434873 -0.480943,3.8204393 -3.8447265,3.8204393 h -3.423047 c -3.3637834,0 -3.84472651,-0.476952 -3.84472651,-3.8204393 V 4.8787719 c 0,-3.3434997 0.48094311,-3.8204385 3.84472671,-3.8204385 z" />
  <path
     id="rect1370"
     style="opacity:0.4;fill:#000000;fill-opacity:1;stroke-width:0.264583"
     d="m 4.4751788,0.52916667 c -3.68414336,0 -4.21059547,0.52624033 -4.21059547,4.21266273 v 2.9517578 c 0,3.6864088 0.52645211,4.2126628 4.21059547,4.2126628 H 8.224821 c 3.684144,0 4.210596,-0.526254 4.210596,-4.2126628 V 4.7418294 c 0,-3.6864224 -0.526452,-4.21266273 -4.210596,-4.21266273 z m 0.081649,0.2645833 h 3.5863445 c 3.5239637,0 4.0276607,0.50133143 4.0276607,4.01629243 v 2.8153318 c 0,3.5149478 -0.503697,4.0162928 -4.0276607,4.0162928 H 4.5568277 c -3.5239637,0 -4.02766104,-0.501345 -4.02766104,-4.0162928 V 4.8100424 c 0,-3.514961 0.50369724,-4.01629243 4.02766114,-4.01629243 z" />
  <g
     id="g848">
    <g
       id="g2067"
       transform="translate(0.52916667)">
      <rect
         style="fill:#888888;fill-opacity:1;stroke-width:0.277497;stroke-linejoin:round"
         id="rect1397"
         width="0.52916664"
         height="1.4552083"
         x="-0.63876075"
         y="10.393963"
         transform="rotate(-45)" />
      <rect
         style="fill:#3b3b3b;fill-opacity:1;stroke-width:0.264583;stroke-linejoin:round"
         id="rect1677"
         width="1.0583333"
         height="2.3812499"
         x="-0.90334386"
         y="11.71688"
         transform="rotate(-45)" />
      <circle
         style="opacity:0.5;fill:#ffffff;fill-opacity:1;stroke-width:0.291041;stroke-linejoin:round"
         id="path1145"
         cx="5.0270834"
         cy="5.5562501"
         r="2.9104166" />
      <path
         id="path941"
         style="fill:#666666;fill-opacity:1;stroke-width:0.999999;stroke-linejoin:round"
         d="M 19,9 A 12,12 0 0 0 7,21 12,12 0 0 0 19,33 12,12 0 0 0 31,21 12,12 0 0 0 19,9 Z m 0,2 A 9.9999997,9.9999997 0 0 1 29,21 9.9999997,9.9999997 0 0 1 19,31 9.9999997,9.9999997 0 0 1 9,21 9.9999997,9.9999997 0 0 1 19,11 Z"
         transform="scale(0.26458333)" />
      <circle
         style="opacity:0.5;fill:#ffffff;fill-opacity:1;stroke-width:0.330611;stroke-linejoin:round"
         id="path1293"
         cx="4.2333331"
         cy="4.7625003"
         r="0.79374999" />
    </g>
  </g>
</svg>
