<?xml version="1.0" encoding="UTF-8" standalone="no"?>
<!-- Created with Inkscape (http://www.inkscape.org/) -->

<svg
   width="48"
   height="48"
   viewBox="0 0 12.7 12.7"
   version="1.1"
   id="svg5"
   inkscape:version="1.1.2 (0a00cf5339, 2022-02-04)"
   sodipodi:docname="preferences-system-search.svg"
   xmlns:inkscape="http://www.inkscape.org/namespaces/inkscape"
   xmlns:sodipodi="http://sodipodi.sourceforge.net/DTD/sodipodi-0.dtd"
   xmlns:xlink="http://www.w3.org/1999/xlink"
   xmlns="http://www.w3.org/2000/svg"
   xmlns:svg="http://www.w3.org/2000/svg">
  <sodipodi:namedview
     id="namedview7"
     pagecolor="#ffffff"
     bordercolor="#666666"
     borderopacity="1.0"
     inkscape:pageshadow="2"
     inkscape:pageopacity="0.0"
     inkscape:pagecheckerboard="0"
     inkscape:document-units="px"
     showgrid="false"
     units="px"
     inkscape:zoom="16.5"
     inkscape:cx="23.969697"
     inkscape:cy="24"
     inkscape:window-width="1920"
     inkscape:window-height="1010"
     inkscape:window-x="0"
     inkscape:window-y="0"
     inkscape:window-maximized="1"
     inkscape:current-layer="svg5"
     showguides="false" />
  <defs
     id="defs2">
    <linearGradient
       inkscape:collect="always"
       id="linearGradient3598">
      <stop
         style="stop-color:#2de360;stop-opacity:1"
         offset="0"
         id="stop3594" />
      <stop
         style="stop-color:#388eba;stop-opacity:1"
         offset="1"
         id="stop3596" />
    </linearGradient>
    <linearGradient
       inkscape:collect="always"
       xlink:href="#linearGradient3598"
       id="linearGradient3600"
       x1="12.262125"
       y1="9.7353592"
       x2="0.36087561"
       y2="4.2708535"
       gradientUnits="userSpaceOnUse" />
    <linearGradient
       inkscape:collect="always"
       xlink:href="#linearGradient1871"
       id="linearGradient1873"
       x1="17.222656"
       y1="3.5"
       x2="17.222656"
       y2="44.466438"
       gradientUnits="userSpaceOnUse"
       gradientTransform="matrix(0.26458333,0,0,0.26458333,0,-0.13229163)" />
    <linearGradient
       inkscape:collect="always"
       id="linearGradient1871">
      <stop
         style="stop-color:#ffffff;stop-opacity:1;"
         offset="0"
         id="stop1867" />
      <stop
         style="stop-color:#ffffff;stop-opacity:0.1"
         offset="0.12"
         id="stop2515" />
      <stop
         style="stop-color:#ffffff;stop-opacity:0.102"
         offset="0.89999998"
         id="stop2581" />
      <stop
         style="stop-color:#ffffff;stop-opacity:0.502"
         offset="1"
         id="stop1869" />
    </linearGradient>
  </defs>
  <path
     id="rect3143"
     style="opacity:0.1;fill:#000000;fill-opacity:1;stroke-width:0.264583"
     d="m 4.5160033,1.0583333 c -3.6040539,0 -4.1191283,0.5137856 -4.1191283,4.1144776 v 2.8835446 c 0,3.6006805 0.5150744,4.1144805 4.1191283,4.1144805 h 3.6679933 c 3.6040544,0 4.1191284,-0.5138 4.1191284,-4.1144805 V 5.1728109 c 0,-3.600692 -0.515074,-4.1144776 -4.1191284,-4.1144776 z" />
  <path
     style="display:inline;fill:url(#linearGradient3600);fill-opacity:1;stroke:none;stroke-width:0.0992187;stroke-linecap:round;stroke-linejoin:round;stroke-miterlimit:4;stroke-dasharray:none;stroke-dashoffset:0;stroke-opacity:1;enable-background:new"
     d="m 8.1839953,0.66145835 c 3.6040547,0 4.1191297,0.51378555 4.1191297,4.11447755 v 2.883545 c 0,3.6006771 -0.515075,4.1144771 -4.1191297,4.1144771 H 4.5160029 c -3.60405369,0 -4.1191279,-0.5138 -4.1191279,-4.1144771 v -2.883545 c 0,-3.600692 0.51507421,-4.11447755 4.1191279,-4.11447755 z"
     id="rect877"
     inkscape:connector-curvature="0"
     sodipodi:nodetypes="sssssssss" />
  <path
     id="rect1397-3"
     style="opacity:0.1;fill:#ffffff;fill-opacity:1;stroke-width:0.277498;stroke-linejoin:round"
     d="m 5.55625,2.6458333 a 3.175,3.175 0 0 0 -3.175,3.175 3.175,3.175 0 0 0 3.175,3.175 3.175,3.175 0 0 0 2.048971,-0.7518922 L 8.362797,9.0015178 8.175728,9.1885864 9.859347,10.872205 10.607621,10.12393 8.924003,8.4403117 8.736935,8.6273803 7.979358,7.8698039 a 3.175,3.175 0 0 0 0.751892,-2.0489706 3.175,3.175 0 0 0 -3.175,-3.175 z m 0,0.5291667 A 2.6458332,2.6458332 0 0 1 8.202083,5.8208333 2.6458332,2.6458332 0 0 1 5.55625,8.4666666 2.6458332,2.6458332 0 0 1 2.910417,5.8208333 2.6458332,2.6458332 0 0 1 5.55625,3.175 Z" />
  <g
     id="g2067"
     transform="translate(0.52916669)">
    <rect
       style="fill:#f2f2f2;fill-opacity:1;stroke-width:0.277497;stroke-linejoin:round"
       id="rect1397"
       width="0.52916664"
       height="1.4552083"
       x="-0.63876075"
       y="10.393963"
       transform="rotate(-45)" />
    <rect
       style="fill:#b3b3b3;fill-opacity:1;stroke-width:0.264583;stroke-linejoin:round"
       id="rect1677"
       width="1.0583333"
       height="2.3812499"
       x="-0.90334386"
       y="11.71688"
       transform="rotate(-45)" />
    <circle
       style="opacity:0.25;fill:#ffffff;fill-opacity:1;stroke-width:0.291041;stroke-linejoin:round"
       id="path1145"
       cx="5.0270834"
       cy="5.5562501"
       r="2.9104166" />
    <path
       id="path941"
       style="fill:#ececec;fill-opacity:1;stroke-width:0.999999;stroke-linejoin:round"
       d="M 19,9 A 12,12 0 0 0 7,21 12,12 0 0 0 19,33 12,12 0 0 0 31,21 12,12 0 0 0 19,9 Z m 0,2 A 9.9999997,9.9999997 0 0 1 29,21 9.9999997,9.9999997 0 0 1 19,31 9.9999997,9.9999997 0 0 1 9,21 9.9999997,9.9999997 0 0 1 19,11 Z"
       transform="scale(0.26458333)" />
    <circle
       style="opacity:0.25;fill:#ffffff;fill-opacity:1;stroke-width:0.330611;stroke-linejoin:round"
       id="path1293"
       cx="4.2333331"
       cy="4.7625003"
       r="0.79374999" />
  </g>
  <path
     id="rect1565"
     style="fill:url(#linearGradient1873);fill-opacity:1;stroke-width:0.264583;opacity:0.5"
     d="m 4.5568277,0.79375 c -3.5239635,0 -4.02766103,0.5013312 -4.02766103,4.0162924 v 2.8153318 c 0,3.5149478 0.50369753,4.0162928 4.02766103,4.0162928 h 3.5863445 c 3.5239638,0 4.0276608,-0.501345 4.0276608,-4.0162928 V 4.8100424 c 0,-3.5149612 -0.503697,-4.0162924 -4.0276608,-4.0162924 z m 0.081649,0.2645834 h 3.4230468 c 3.3637835,0 3.8447265,0.4769388 3.8447265,3.8204385 v 2.6778728 c 0,3.3434873 -0.480943,3.8204393 -3.8447265,3.8204393 H 4.6384765 C 1.2746931,11.377084 0.79375,10.900132 0.79375,7.5566447 V 4.8787719 c 0,-3.3434997 0.4809431,-3.8204385 3.8447267,-3.8204385 z" />
  <path
     id="rect1370"
     style="opacity:0.4;fill:#000000;fill-opacity:1;stroke-width:0.264583"
     d="m 4.4751788,0.52916667 c -3.68414314,0 -4.21059547,0.52624033 -4.21059547,4.21266263 v 2.9517578 c 0,3.6864079 0.52645233,4.2126629 4.21059547,4.2126629 H 8.224821 c 3.684144,0 4.210596,-0.526255 4.210596,-4.2126629 V 4.7418293 c 0,-3.6864223 -0.526452,-4.21266263 -4.210596,-4.21266263 z M 4.5568278,0.79375 h 3.5863445 c 3.5239637,0 4.0276607,0.5013312 4.0276607,4.0162924 v 2.8153317 c 0,3.5149469 -0.503697,4.0162919 -4.0276607,4.0162919 H 4.5568277 c -3.5239638,0 -4.02766104,-0.501345 -4.02766104,-4.0162919 V 4.8100424 c 0,-3.5149612 0.50369724,-4.0162924 4.02766114,-4.0162924 z" />
</svg>
