<?xml version="1.0" encoding="UTF-8" standalone="no"?>
<!-- Created with Inkscape (http://www.inkscape.org/) -->

<svg
   width="48"
   height="48"
   viewBox="0 0 12.7 12.7"
   version="1.1"
   id="svg5"
   inkscape:version="1.1.2 (0a00cf5339, 2022-02-04)"
   sodipodi:docname="preferences-system-notifications.svg"
   xmlns:inkscape="http://www.inkscape.org/namespaces/inkscape"
   xmlns:sodipodi="http://sodipodi.sourceforge.net/DTD/sodipodi-0.dtd"
   xmlns:xlink="http://www.w3.org/1999/xlink"
   xmlns="http://www.w3.org/2000/svg"
   xmlns:svg="http://www.w3.org/2000/svg">
  <sodipodi:namedview
     id="namedview7"
     pagecolor="#ffffff"
     bordercolor="#666666"
     borderopacity="1.0"
     inkscape:pageshadow="2"
     inkscape:pageopacity="0.0"
     inkscape:pagecheckerboard="0"
     inkscape:document-units="px"
     showgrid="false"
     units="px"
     inkscape:zoom="8.5208335"
     inkscape:cx="29.163814"
     inkscape:cy="14.493887"
     inkscape:window-width="1851"
     inkscape:window-height="1016"
     inkscape:window-x="0"
     inkscape:window-y="0"
     inkscape:window-maximized="1"
     inkscape:current-layer="svg5" />
  <defs
     id="defs2">
    <linearGradient
       inkscape:collect="always"
       id="linearGradient1871">
      <stop
         style="stop-color:#ffffff;stop-opacity:1;"
         offset="0"
         id="stop1867" />
      <stop
         style="stop-color:#ffffff;stop-opacity:0.1"
         offset="0.12"
         id="stop2515" />
      <stop
         style="stop-color:#ffffff;stop-opacity:0.102"
         offset="0.89999998"
         id="stop2581" />
      <stop
         style="stop-color:#ffffff;stop-opacity:0.502"
         offset="1"
         id="stop1869" />
    </linearGradient>
    <linearGradient
       inkscape:collect="always"
       xlink:href="#linearGradient1871"
       id="linearGradient1873"
       x1="17.222656"
       y1="3.5"
       x2="17.222656"
       y2="44.466438"
       gradientUnits="userSpaceOnUse"
       gradientTransform="matrix(0.26458333,0,0,0.26458333,0,-0.13229166)" />
    <linearGradient
       id="linearGradient931"
       x1="297.98999"
       x2="299.39999"
       y1="344.07001"
       y2="141.39999"
       gradientTransform="matrix(0.02315104,0,0,0.02315104,0.42345244,0.37054593)"
       gradientUnits="userSpaceOnUse">
      <stop
         stop-color="#f3e6d2"
         stop-opacity=".99608"
         offset="0"
         id="stop7" />
      <stop
         stop-color="#f7f4ee"
         offset="1"
         id="stop9" />
    </linearGradient>
    <linearGradient
       id="linearGradient933"
       x1="211.39999"
       x2="211.39999"
       y1="344.73999"
       y2="375.67999"
       gradientTransform="matrix(0.64849998,0,0,0.64849998,-116.99957,-209.35721)"
       gradientUnits="userSpaceOnUse">
      <stop
         stop-color="#fdfdfb"
         offset="0"
         id="stop12" />
      <stop
         stop-color="#f0e9df"
         offset="1"
         id="stop14" />
    </linearGradient>
    <linearGradient
       inkscape:collect="always"
       xlink:href="#linearGradient931"
       id="linearGradient1205"
       x1="2.6458333"
       y1="4.1066685"
       x2="6.1617465"
       y2="4.1066685"
       gradientUnits="userSpaceOnUse" />
    <linearGradient
       inkscape:collect="always"
       xlink:href="#linearGradient931"
       id="linearGradient1291"
       gradientUnits="userSpaceOnUse"
       gradientTransform="matrix(0.08749999,0,0,0.08749999,1.6004502,1.4004886)"
       x1="297.98999"
       y1="344.07001"
       x2="299.39999"
       y2="141.39999" />
    <linearGradient
       inkscape:collect="always"
       xlink:href="#linearGradient3598"
       id="linearGradient3600"
       x1="7.8838859"
       y1="11.784748"
       x2="4.4751787"
       y2="0.5291667"
       gradientUnits="userSpaceOnUse" />
    <linearGradient
       inkscape:collect="always"
       id="linearGradient3598">
      <stop
         style="stop-color:#c8c4b7;stop-opacity:1"
         offset="0"
         id="stop3594" />
      <stop
         style="stop-color:#aea795;stop-opacity:1"
         offset="1"
         id="stop3596" />
    </linearGradient>
  </defs>
  <path
     id="rect3143"
     style="opacity:0.1;fill:#000000;fill-opacity:1;stroke-width:0.264583"
     d="m 4.5160033,1.0583334 c -3.60405388,0 -4.1191283,0.5137855 -4.1191283,4.1144775 v 2.883545 c 0,3.6006791 0.51507442,4.1144791 4.1191283,4.1144791 h 3.6679933 c 3.6040544,0 4.1191284,-0.5138 4.1191284,-4.1144791 v -2.883545 c 0,-3.600692 -0.515074,-4.1144775 -4.1191284,-4.1144775 z" />
  <path
     style="display:inline;fill:url(#linearGradient3600);fill-opacity:1;stroke:none;stroke-width:0.0992187;stroke-linecap:round;stroke-linejoin:round;stroke-miterlimit:4;stroke-dasharray:none;stroke-dashoffset:0;stroke-opacity:1;enable-background:new"
     d="m 8.1839958,0.66145843 c 3.6040552,0 4.1191302,0.51378537 4.1191302,4.11447767 v 2.883545 c 0,3.6006789 -0.515075,4.1144789 -4.1191302,4.1144789 H 4.5160033 c -3.604054,0 -4.1191283,-0.5138 -4.1191283,-4.1144789 v -2.883545 c 0,-3.6006923 0.5150743,-4.11447767 4.1191283,-4.11447767 z"
     id="rect877"
     inkscape:connector-curvature="0"
     sodipodi:nodetypes="sssssssss" />
  <path
     id="path36"
     style="stroke-width:0.999999;opacity:0.1;fill:#000000"
     d="M 27.988281 15 A 11.5 11.5 0 0 1 28 15.5 A 11.5 11.5 0 0 1 16.5 27 A 11.5 11.5 0 0 1 10 24.976562 L 10 30.546875 C 10 31.776375 10.232578 32.661872 10.685547 33.201172 C 11.116947 33.718862 11.957984 33.984375 13.208984 33.984375 L 16.179688 33.984375 L 20.097656 36.75 L 24.015625 33.984375 L 34.791016 33.984375 C 36.042016 33.984375 36.883053 33.718862 37.314453 33.201172 C 37.767433 32.661922 38 31.776375 38 30.546875 L 38 18.451172 C 38 17.221672 37.767435 16.338028 37.314453 15.798828 C 36.883073 15.281148 36.042016 15 34.791016 15 L 27.988281 15 z "
     transform="scale(0.26458333)" />
  <path
     id="path38"
     style="fill:url(#linearGradient1291);stroke-width:0.999999"
     d="M 26.605469 20.972656 A 11.5 11.5 0 0 1 16.5 27 A 11.5 11.5 0 0 1 10 24.986328 L 10 29.546875 C 10 30.776375 10.232578 31.661872 10.685547 32.201172 C 11.116947 32.718851 11.957884 32.984375 13.208984 32.984375 L 16.179688 32.984375 L 20.097656 35.75 L 24.017578 32.984375 L 34.791016 32.984375 C 36.042116 32.984375 36.882953 32.718852 37.314453 32.201172 C 37.767423 31.661922 38 30.776375 38 29.546875 L 38 20.972656 L 26.605469 20.972656 z "
     transform="scale(0.26458333)" />
  <path
     id="path40"
     style="fill:url(#linearGradient933);stroke-width:0.999999"
     d="M 27.900391 14 A 11.5 11.5 0 0 1 28 15.5 A 11.5 11.5 0 0 1 27.863281 17.261719 A 11.5 11.5 0 0 1 27.839844 17.382812 A 11.5 11.5 0 0 1 27.451172 18.998047 A 11.5 11.5 0 0 1 27.400391 19.142578 A 11.5 11.5 0 0 1 26.771484 20.662109 A 11.5 11.5 0 0 1 26.695312 20.802734 A 11.5 11.5 0 0 1 25.845703 22.189453 A 11.5 11.5 0 0 1 25.736328 22.337891 A 11.5 11.5 0 0 1 24.6875 23.564453 A 11.5 11.5 0 0 1 24.564453 23.6875 A 11.5 11.5 0 0 1 23.337891 24.736328 A 11.5 11.5 0 0 1 23.189453 24.845703 A 11.5 11.5 0 0 1 21.802734 25.695312 A 11.5 11.5 0 0 1 21.662109 25.771484 A 11.5 11.5 0 0 1 20.142578 26.400391 A 11.5 11.5 0 0 1 19.998047 26.451172 A 11.5 11.5 0 0 1 18.382812 26.839844 A 11.5 11.5 0 0 1 18.261719 26.863281 A 11.5 11.5 0 0 1 16.5 27 A 11.5 11.5 0 0 1 14.796875 26.873047 A 11.5 11.5 0 0 1 14.785156 26.871094 A 11.5 11.5 0 0 1 14.779297 26.871094 A 11.5 11.5 0 0 1 14.751953 26.865234 A 11.5 11.5 0 0 1 13.099609 26.484375 A 11.5 11.5 0 0 1 13.097656 26.484375 A 11.5 11.5 0 0 1 13.09375 26.482422 A 11.5 11.5 0 0 1 11.492188 25.851562 A 11.5 11.5 0 0 1 10.001953 24.988281 A 11.5 11.5 0 0 1 10 24.986328 L 10 29.117188 L 16.179688 32.984375 L 20.097656 35.75 L 24.017578 32.984375 L 38 22.367188 L 38 17.451172 C 38 16.221672 37.769387 15.338128 37.316406 14.798828 C 36.885026 14.281148 36.044069 14 34.792969 14 L 27.900391 14 z "
     transform="scale(0.26458333)" />
  <path
     id="rect973"
     style="fill:#ffffff;stroke-width:0.999999;stroke-linecap:round;stroke-linejoin:round;opacity:0.1"
     d="M 46.480469 16.027344 L 9.046875 44.011719 C 11.12104 44.3836 13.747011 44.5 17.068359 44.5 L 30.931641 44.5 C 44.553265 44.5 46.5 42.558081 46.5 28.949219 L 46.5 18.050781 C 46.5 17.342921 46.492372 16.673442 46.480469 16.027344 z "
     transform="scale(0.26458333)" />
  <path
     id="rect1370"
     style="opacity:0.4;fill:#000000;fill-opacity:1;stroke-width:0.264583"
     d="m 4.4751788,0.52916667 c -3.68414336,0 -4.21059547,0.52624033 -4.21059547,4.21266273 v 2.9517578 c 0,3.6864088 0.52645211,4.2126628 4.21059547,4.2126628 H 8.224821 c 3.684144,0 4.210596,-0.526254 4.210596,-4.2126628 V 4.7418294 c 0,-3.6864224 -0.526452,-4.21266273 -4.210596,-4.21266273 z m 0.081649,0.2645833 h 3.5863445 c 3.5239637,0 4.0276607,0.50133143 4.0276607,4.01629243 v 2.8153318 c 0,3.5149478 -0.503697,4.0162928 -4.0276607,4.0162928 H 4.5568277 c -3.5239637,0 -4.02766104,-0.501345 -4.02766104,-4.0162928 V 4.8100424 c 0,-3.514961 0.50369724,-4.01629243 4.02766114,-4.01629243 z" />
  <path
     id="rect1565"
     style="fill:url(#linearGradient1873);fill-opacity:1;stroke-width:0.264583"
     d="m 4.5568277,0.79374997 c -3.5239635,0 -4.02766104,0.50133123 -4.02766104,4.01629243 v 2.8153318 c 0,3.5149478 0.50369754,4.0162928 4.02766104,4.0162928 h 3.5863445 c 3.5239638,0 4.0276608,-0.501345 4.0276608,-4.0162928 V 4.8100424 c 0,-3.5149612 -0.503697,-4.01629243 -4.0276608,-4.01629243 z m 0.081649,0.26458343 h 3.4230468 c 3.3637835,0 3.8447265,0.4769388 3.8447265,3.8204385 v 2.6778728 c 0,3.3434873 -0.480943,3.8204393 -3.8447265,3.8204393 h -3.423047 c -3.3637834,0 -3.84472651,-0.476952 -3.84472651,-3.8204393 V 4.8787719 c 0,-3.3434997 0.48094311,-3.8204385 3.84472671,-3.8204385 z" />
  <circle
     style="opacity:1;fill:#f64040;stroke-width:0.287073;fill-opacity:1"
     id="path867"
     cx="4.3656249"
     cy="4.1010418"
     r="2.5135417" />
  <path
     d="m 4.0206481,2.305087 h 0.7437702 l -0.04508,0.9917375 c -0.00238,0.014933 -0.00238,0.030146 0,0.04508 -5.821e-4,0.00749 -5.821e-4,0.015012 0,0.022503 0.014372,0.042454 0.047706,0.075786 0.090159,0.090159 0.00749,5.821e-4 0.015004,5.821e-4 0.02249,0 0.014933,0.00238 0.030146,0.00238 0.04508,0 0.014933,0.00238 0.030146,0.00238 0.04508,0 0.00831,-0.00665 0.015867,-0.014192 0.022516,-0.022503 L 5.7786032,2.891123 6.1392303,3.5447761 5.2601522,3.9955732 c -0.00749,-5.821e-4 -0.015023,-5.821e-4 -0.022516,0 -0.00832,0.00665 -0.015867,0.014192 -0.022516,0.022503 -0.013041,0.020288 -0.020775,0.043526 -0.02249,0.067583 -0.00238,0.014933 -0.00238,0.030146 0,0.04508 -5.821e-4,0.00749 -5.821e-4,0.015012 0,0.022503 0.00479,0.016232 0.012401,0.031492 0.02249,0.04508 0.00665,0.00831 0.0142,0.015856 0.022516,0.022503 0.00665,0.00831 0.0142,0.015856 0.022516,0.022503 L 6.1617464,4.6941234 5.7785768,5.3477765 4.9446366,4.7844786 c -0.00749,-5.821e-4 -0.015023,-5.821e-4 -0.022516,0 -0.013586,-0.010094 -0.028845,-0.017711 -0.045077,-0.022503 -0.014933,-0.00238 -0.030146,-0.00238 -0.04508,0 -0.03799,0.00934 -0.070542,0.033737 -0.090159,0.067583 -0.00831,0.00665 -0.015849,0.014195 -0.022489,0.022503 -5.821e-4,0.00749 -5.821e-4,0.015013 0,0.022503 -0.00238,0.014933 -0.00238,0.030146 0,0.04508 l 0.04508,0.991817 H 4.0206243 l 0.067583,-0.9917377 c -0.00172,-0.024058 -0.00947,-0.047298 -0.022516,-0.067583 -0.00479,-0.016232 -0.012401,-0.031492 -0.02249,-0.04508 -0.013586,-0.010094 -0.028847,-0.017711 -0.04508,-0.022503 -0.013586,-0.010094 -0.028847,-0.017711 -0.04508,-0.022503 -0.00749,-5.821e-4 -0.015005,-5.821e-4 -0.02249,0 -0.024059,0.00172 -0.047297,0.00946 -0.067583,0.022503 L 3.0064602,5.3480411 2.6458333,4.694388 3.5474276,4.2435909 c 0.00831,-0.00665 0.015848,-0.014195 0.02249,-0.022503 0.00832,-0.00665 0.015867,-0.014192 0.022516,-0.022503 0.010099,-0.013586 0.017719,-0.028846 0.022516,-0.04508 5.821e-4,-0.00749 5.821e-4,-0.015013 0,-0.022503 0.00238,-0.014933 0.00238,-0.030146 0,-0.04508 5.821e-4,-0.00749 5.821e-4,-0.015013 0,-0.022503 -0.00479,-0.016235 -0.012417,-0.031494 -0.022516,-0.04508 -0.00665,-0.00831 -0.014203,-0.015856 -0.022516,-0.022503 -0.00749,-5.82e-4 -0.015005,-5.82e-4 -0.02249,0 L 2.6458333,3.5450407 3.0064602,2.8913875 3.8629697,3.4323282 c 0.00664,0.00831 0.014184,0.015856 0.022489,0.022503 0.014933,0.00238 0.030146,0.00238 0.04508,0 0.014933,0.00238 0.030146,0.00238 0.04508,0 0.00749,5.821e-4 0.015023,5.821e-4 0.022516,0 0.00831,-0.00665 0.015867,-0.014192 0.022516,-0.022503 0.00832,-0.00665 0.015867,-0.014192 0.022516,-0.022503 0.00831,-0.00665 0.015848,-0.014195 0.02249,-0.022503 5.82e-4,-0.00749 5.82e-4,-0.015012 0,-0.022503 0.010099,-0.013586 0.017722,-0.028846 0.022516,-0.04508 5.821e-4,-0.00749 5.821e-4,-0.015012 0,-0.022503 L 4.0232595,2.301875 Z"
     style="fill:url(#linearGradient1205);fill-opacity:1.0;stroke-width:0.721281;enable-background:new"
     id="path1075" />
</svg>
