<?xml version="1.0" encoding="UTF-8" standalone="no"?>
<!-- Created with Inkscape (http://www.inkscape.org/) -->

<svg
   width="48"
   height="48"
   viewBox="0 0 12.7 12.7"
   version="1.1"
   id="svg5"
   inkscape:version="1.1.2 (0a00cf5339, 2022-02-04)"
   sodipodi:docname="sudoki.svg"
   xmlns:inkscape="http://www.inkscape.org/namespaces/inkscape"
   xmlns:sodipodi="http://sodipodi.sourceforge.net/DTD/sodipodi-0.dtd"
   xmlns:xlink="http://www.w3.org/1999/xlink"
   xmlns="http://www.w3.org/2000/svg"
   xmlns:svg="http://www.w3.org/2000/svg">
  <sodipodi:namedview
     id="namedview7"
     pagecolor="#ffffff"
     bordercolor="#666666"
     borderopacity="1.0"
     inkscape:pageshadow="2"
     inkscape:pageopacity="0.0"
     inkscape:pagecheckerboard="0"
     inkscape:document-units="px"
     showgrid="false"
     units="px"
     inkscape:zoom="12.050278"
     inkscape:cx="29.086466"
     inkscape:cy="27.883174"
     inkscape:window-width="1920"
     inkscape:window-height="1010"
     inkscape:window-x="0"
     inkscape:window-y="0"
     inkscape:window-maximized="1"
     inkscape:current-layer="svg5" />
  <defs
     id="defs2">
    <linearGradient
       inkscape:collect="always"
       id="linearGradient1871">
      <stop
         style="stop-color:#ffffff;stop-opacity:1;"
         offset="0"
         id="stop1867" />
      <stop
         style="stop-color:#ffffff;stop-opacity:0.1"
         offset="0.12"
         id="stop2515" />
      <stop
         style="stop-color:#ffffff;stop-opacity:0.102"
         offset="0.89999998"
         id="stop2581" />
      <stop
         style="stop-color:#ffffff;stop-opacity:0.502"
         offset="1"
         id="stop1869" />
    </linearGradient>
    <linearGradient
       inkscape:collect="always"
       xlink:href="#linearGradient1871"
       id="linearGradient1873"
       x1="17.222656"
       y1="3.5"
       x2="17.222656"
       y2="44.466438"
       gradientUnits="userSpaceOnUse"
       gradientTransform="matrix(0.26458333,0,0,0.26458333,0,-0.13229166)" />
  </defs>
  <path
     id="rect3143"
     style="opacity:0.1;fill:#000000;fill-opacity:1;stroke-width:0.264583"
     d="m 4.5160033,1.0583334 c -3.60405388,0 -4.1191283,0.5137855 -4.1191283,4.1144775 v 2.883545 c 0,3.6006791 0.51507442,4.1144791 4.1191283,4.1144791 h 3.6679933 c 3.6040544,0 4.1191284,-0.5138 4.1191284,-4.1144791 v -2.883545 c 0,-3.600692 -0.515074,-4.1144775 -4.1191284,-4.1144775 z" />
  <path
     style="display:inline;fill:#ecece5;fill-opacity:1;stroke:none;stroke-width:0.0992187;stroke-linecap:round;stroke-linejoin:round;stroke-miterlimit:4;stroke-dasharray:none;stroke-dashoffset:0;stroke-opacity:1;enable-background:new"
     d="m 8.1839962,0.66145835 c 3.6040548,0 4.1191298,0.51378545 4.1191298,4.11447755 v 2.883545 c 0,3.6006781 -0.515075,4.1144781 -4.1191298,4.1144781 H 4.5160033 c -3.604054,0 -4.1191283,-0.5138 -4.1191283,-4.1144781 v -2.883545 c 0,-3.6006921 0.5150743,-4.11447755 4.1191283,-4.11447755 z"
     id="rect877"
     inkscape:connector-curvature="0"
     sodipodi:nodetypes="sssssssss" />
  <path
     id="rect1320"
     style="opacity:0.05;fill:#000000;fill-opacity:1;stroke-width:2;stroke-linecap:round;stroke-linejoin:round"
     d="M 17.068359 2.5 C 3.8068236 2.5 1.6126804 4.344746 1.5058594 17 L 46.494141 17 C 46.387319 4.344746 44.193179 2.5 30.931641 2.5 L 17.068359 2.5 z "
     transform="scale(0.26458333)" />
  <path
     id="path28"
     d="m 4.2333333,1.3229167 v 2.9104166 h -3.175 v 0.2645833 h 3.175 v 3.7041666 h -3.175 v 0.2645834 h 3.175 V 11.377083 H 4.4979166 V 8.4666666 H 8.2020832 V 11.377083 H 8.4666666 V 8.4666666 H 11.641667 V 8.2020832 H 8.4666666 V 4.4979166 H 11.641667 V 4.2333333 H 8.4666666 V 1.3229167 H 8.2020832 V 4.2333333 H 4.4979166 V 1.3229167 Z M 2.0768758,1.5477091 v 0.3255616 h 0.979785 C 2.9918366,1.9598604 2.92687,2.0525841 2.861324,2.1740275 2.7816921,2.3193108 2.7090134,2.4781526 2.6432495,2.6504842 2.5774301,2.820662 2.5208486,2.9974095 2.473234,3.1812013 v 5.292e-4 C 2.427747,3.363758 2.398884,3.5370902 2.387451,3.7015827 l -0.00258,0.042375 h 0.042375 0.3234945 l 0.0031,-0.03669 C 2.7671474,3.520708 2.7988638,3.3339079 2.8499543,3.1470946 h 5.292e-4 C 2.9017695,2.9573074 2.9619085,2.7798614 3.0308341,2.6153442 V 2.6148283 C 3.1021917,2.4476186 3.1768983,2.2974123 3.2545816,2.1647257 3.332558,2.0315386 3.4047628,1.9261865 3.4700723,1.8489827 l 0.0093,-0.010852 V 1.5477091 Z m 4.2793254,0 -0.011369,0.012919 C 6.2475149,1.6653034 6.1418734,1.7519022 6.0285722,1.8205607 5.9141121,1.8876374 5.7965524,1.9433048 5.6751055,1.9879923 l -0.040308,0.014469 0.017571,0.038757 0.1090375,0.2439128 0.033073,-0.00982 c 0.047708,-0.014136 0.096415,-0.03167 0.1462442,-0.05271 0.049296,-0.020814 0.096505,-0.042933 0.1410766,-0.066146 l 5.292e-4,-5.16e-4 c 0.04688,-0.023175 0.089002,-0.04624 0.1266073,-0.069763 h 5.292e-4 c 0.014489,-0.00935 0.024244,-0.018271 0.037207,-0.027389 V 3.4251146 H 5.7583305 V 3.7439584 H 7.0512749 V 3.4251138 H 6.6249184 V 1.5477091 Z M 4.4979166,4.4979166 H 8.2020832 V 8.2020832 H 4.4979166 Z m 5.9402064,0.7539591 c -0.186969,0.00228 -0.355747,0.031916 -0.505913,0.0894 -0.1499621,0.057407 -0.2792322,0.140481 -0.3860228,0.2490803 v 5.292e-4 C 9.4414363,5.6997777 9.3602121,5.8349729 9.3027912,5.9949953 v 5.291e-4 c -0.055358,0.1584058 -0.082682,0.3395755 -0.082682,0.5431195 0,0.2788438 0.058203,0.5011306 0.1788006,0.6635252 0.121493,0.1635998 0.3089799,0.24598 0.5477701,0.24598 0.1163761,0 0.2184691,-0.020815 0.3054081,-0.064079 l 5.29e-4,-5.292e-4 h 5.29e-4 c 0.08466,-0.04447 0.154797,-0.1014992 0.209806,-0.1705322 h 5.3e-4 v -5.291e-4 c 0.05404,-0.070155 0.09443,-0.1466803 0.120406,-0.2289268 0.02559,-0.083351 0.03876,-0.1650907 0.03876,-0.2449462 0,-0.085814 -0.01179,-0.1698051 -0.03514,-0.2511475 -0.02367,-0.082457 -0.06206,-0.1554596 -0.114722,-0.2175575 l -5.29e-4,-5.292e-4 c -0.05354,-0.065208 -0.124681,-0.116468 -0.211874,-0.1539957 -0.08684,-0.038415 -0.190423,-0.056844 -0.3105749,-0.056844 -0.074327,3e-7 -0.145451,0.00847 -0.2134238,0.024805 h -5.291e-4 c -0.034734,0.00864 -0.064905,0.022233 -0.097152,0.03359 0.023824,-0.079745 0.047531,-0.1596219 0.083716,-0.2175585 0.048655,-0.077903 0.1081442,-0.1401821 0.1793171,-0.1881021 h 5.291e-4 V 5.710738 C 9.9738566,5.660439 10.054725,5.624936 10.146175,5.6037681 h 5.3e-4 5.29e-4 c 0.09489,-0.023612 0.199934,-0.036582 0.315743,-0.038758 l 0.04289,-0.00103 -0.03101,-0.3121258 z M 9.919808,6.3649862 c 0.124589,0 0.206803,0.032267 0.257865,0.092501 v 5.292e-4 c 0.05426,0.061719 0.08423,0.1542494 0.08423,0.2837037 0,0.042869 -0.0064,0.089879 -0.01912,0.1405599 v 5.292e-4 5.291e-4 c -0.01012,0.046331 -0.02812,0.088072 -0.05426,0.1260906 -0.02604,0.037875 -0.05919,0.069372 -0.09973,0.095601 -0.03699,0.021736 -0.08468,0.03359 -0.1457272,0.03359 -0.074891,0 -0.1322793,-0.015224 -0.1756998,-0.043408 C 9.7214628,7.0632944 9.6852009,7.0221829 9.6567735,6.9696377 9.630036,6.9140083 9.6101031,6.8508631 9.5973457,6.7794684 9.5864766,6.7037428 9.5808092,6.6236185 9.5808092,6.5386563 v -0.066662 c 0,-0.012504 0.00132,-0.025215 0.00206,-0.037724 0.050123,-0.020833 0.099823,-0.039069 0.1477946,-0.050126 0.057055,-0.012621 0.1201577,-0.019121 0.1891359,-0.019121 z m 0.175183,2.5910561 -0.01188,0.01292 c -0.089424,0.09939 -0.1776276,0.2111186 -0.2645835,0.3353796 h 5.292e-4 C 9.7322689,9.426059 9.6505555,9.5514249 9.5741055,9.6800296 9.4979036,9.8059451 9.4287868,9.9281897 9.366883,10.047449 v 5.29e-4 H 9.3663539 C 9.3064369,10.167389 9.2587182,10.273445 9.22321,10.366305 l -0.00259,0.0067 v 0.0077 0.230994 h 0.852659 v 0.540019 h 0.325044 v -0.539949 h 0.224793 V 10.299643 H 10.398323 V 8.9560558 Z m -7.3437376,5.292e-4 c -0.1163698,0 -0.2185309,0.021945 -0.3054079,0.067696 -0.084457,0.044477 -0.1549349,0.1014971 -0.2098063,0.1705322 -0.054282,0.068294 -0.094514,0.1448919 -0.1204061,0.2294435 -0.025604,0.08129 -0.038757,0.1620009 -0.038757,0.2418456 0,0.087933 0.011736,0.171746 0.03514,0.2511475 0.023697,0.080393 0.061911,0.1530017 0.1142049,0.2170407 l 5.16e-4,5.29e-4 c 0.053305,0.06286 0.1230209,0.113325 0.2077392,0.150895 h 5.159e-4 l 5.16e-4,5.29e-4 c 0.086549,0.03598 0.1908716,0.05271 0.3126425,0.05271 0.073741,0 0.1444575,-0.0067 0.2118733,-0.02067 h 5.292e-4 l 5.292e-4,-5.29e-4 c 0.030133,-0.0073 0.055238,-0.01924 0.083199,-0.02842 -0.052947,0.177373 -0.1208522,0.331602 -0.2408121,0.409795 -0.1430994,0.09239 -0.3355635,0.14056 -0.5798096,0.14056 h -0.041341 l 0.013436,0.313159 0.038241,-5.29e-4 C 2.64384,11.150102 2.9576274,11.0429 3.1672711,10.82674 h 5.291e-4 c 0.2094414,-0.218273 0.311609,-0.540005 0.311609,-0.9575643 0,-0.276761 -0.058982,-0.4991118 -0.1813843,-0.6635252 C 3.1747949,9.0401255 2.987508,8.9565699 2.7512883,8.9565699 Z m 0.00362,0.3126425 c 0.074308,0 0.1314117,0.015968 0.1746665,0.045992 l 5.292e-4,5.291e-4 0.00103,5.292e-4 c 0.047443,0.029588 0.083098,0.069158 0.1090372,0.1209228 v 5.291e-4 l 5.291e-4,5.292e-4 c 0.028582,0.052966 0.048317,0.1161711 0.058911,0.1901693 v 5.291e-4 l 5.292e-4,5.292e-4 c 0.012946,0.075353 0.019119,0.1551519 0.019119,0.2397787 v 0.063562 c 0,0.010628 -8.731e-4,0.022643 -0.00156,0.034106 -0.048779,0.019172 -0.098796,0.035886 -0.150895,0.047026 -0.056896,0.01261 -0.1198277,0.01912 -0.1886191,0.01912 -0.1244619,0 -0.2079152,-0.03183 -0.260966,-0.090434 -0.051723,-0.061621 -0.080098,-0.1539981 -0.080098,-0.283187 0,-0.04285 0.00522,-0.088584 0.015503,-0.1364255 l 5.16e-4,-0.00103 c 0.01224,-0.046279 0.031119,-0.086932 0.056844,-0.1224729 v -5.292e-4 l 5.16e-4,-5.292e-4 c 0.025788,-0.037607 0.057796,-0.067596 0.097668,-0.091467 l 5.16e-4,-5.292e-4 5.159e-4,-5.292e-4 c 0.036941,-0.023958 0.084635,-0.03669 0.1457275,-0.03669 z M 10.073287,9.4464642 V 10.299642 H 9.5684077 c 0.030288,-0.0701 0.061213,-0.140273 0.096635,-0.211873 v -5.3e-4 C 9.7117097,9.9970584 9.761658,9.9093453 9.8143876,9.8236896 V 9.8231604 C 9.8670889,9.7352981 9.920992,9.6517962 9.9756181,9.5730466 l 5.292e-4,-0.00103 c 0.03297,-0.04578 0.064934,-0.084433 0.097152,-0.1255737 z"
     style="fill:#847d6c;fill-opacity:1;stroke-width:0.264583" />
  <path
     id="path1161"
     style="color:#000000;fill:#1a1a1a;stroke-width:0.0793745;-inkscape-stroke:none"
     d="m 2.7062948,5.2518757 c -0.07598,0 -0.1475472,0.00953 -0.214974,0.028422 -0.06589,0.018463 -0.1264749,0.041667 -0.1813843,0.069763 -0.051853,0.025479 -0.097563,0.053782 -0.1364258,0.084749 -0.037338,0.029752 -0.06566,0.055259 -0.0863,0.078031 l -0.021704,0.02377 0.1855184,0.2573489 0.033073,-0.032556 c 0.011277,-0.01106 0.030932,-0.02707 0.057361,-0.046509 l 5.159e-4,-5.292e-4 0.00103,-5.291e-4 c 0.02534,-0.020709 0.055262,-0.042265 0.089917,-0.063562 l 0.00103,-5.292e-4 c 0.035626,-0.020458 0.075561,-0.038017 0.120406,-0.05271 0.045762,-0.01428 0.096324,-0.021704 0.1519289,-0.021704 0.046468,0 0.089105,0.00651 0.1281576,0.018603 0.038081,0.011793 0.070207,0.029769 0.097668,0.054777 l 0.00103,0.00103 0.00103,0.00103 c 0.028788,0.022588 0.050831,0.050974 0.066663,0.08785 v 0.00103 l 5.292e-4,5.292e-4 c 0.017256,0.035726 0.026872,0.08125 0.026872,0.1369427 0,0.047881 -0.010348,0.09448 -0.031006,0.1410767 v 5.291e-4 c -0.018968,0.045471 -0.045638,0.090517 -0.080098,0.1348753 l -5.292e-4,5.292e-4 v 5.292e-4 c -0.032613,0.044778 -0.072472,0.089902 -0.1188558,0.1353923 v 5.292e-4 h -5.169e-4 c -0.045219,0.046571 -0.092835,0.094318 -0.1426271,0.1431502 -0.061546,0.06036 -0.1237868,0.1227815 -0.1875855,0.1875856 L 2.4665023,6.621849 C 2.4036374,6.6857525 2.3467308,6.7543618 2.2954671,6.8274903 2.2437167,6.901313 2.2013058,6.97949 2.1683431,7.0626178 2.1345715,7.1477859 2.1177002,7.2399299 2.1177002,7.3380533 v 0.037207 c 0,0.013843 0.00134,0.027658 0.00413,0.041341 l 0.00672,0.031523 h 1.350822 V 7.1344482 H 2.5212931 c 0.00537,-0.019047 0.00649,-0.034343 0.021704,-0.060461 0.025966,-0.044564 0.058988,-0.090889 0.098702,-0.1384927 0.040262,-0.048261 0.082344,-0.09548 0.1271242,-0.1415936 0.045296,-0.046644 0.085075,-0.086243 0.1188556,-0.1193726 0.061721,-0.060532 0.1224658,-0.1222277 0.181901,-0.1850014 0.060039,-0.063412 0.1131697,-0.128261 0.1596803,-0.1943034 l 5.291e-4,-0.00103 c 0.048892,-0.066366 0.087804,-0.1345885 0.116272,-0.2041218 0.031658,-0.071648 0.048059,-0.1464273 0.048059,-0.2232422 0,-0.1923986 -0.056931,-0.3467229 -0.1725994,-0.4532021 0,0 -5.291e-4,0 -5.291e-4,0 C 3.1063737,5.3038689 2.9325895,5.2518775 2.7062948,5.2518775 Z" />
  <path
     id="rect1370"
     style="opacity:0.4;fill:#000000;fill-opacity:1;stroke-width:0.264583"
     d="m 4.4751788,0.52916667 c -3.68414336,0 -4.21059547,0.52624033 -4.21059547,4.21266273 v 2.9517578 c 0,3.6864088 0.52645211,4.2126628 4.21059547,4.2126628 H 8.224821 c 3.684144,0 4.210596,-0.526254 4.210596,-4.2126628 V 4.7418294 c 0,-3.6864224 -0.526452,-4.21266273 -4.210596,-4.21266273 z m 0.081649,0.2645833 h 3.5863445 c 3.5239637,0 4.0276607,0.50133143 4.0276607,4.01629243 v 2.8153318 c 0,3.5149478 -0.503697,4.0162928 -4.0276607,4.0162928 H 4.5568277 c -3.5239637,0 -4.02766104,-0.501345 -4.02766104,-4.0162928 V 4.8100424 c 0,-3.514961 0.50369724,-4.01629243 4.02766114,-4.01629243 z" />
  <path
     id="rect1565"
     style="fill:url(#linearGradient1873);fill-opacity:1;stroke-width:0.264583;opacity:1"
     d="m 4.5568277,0.79374997 c -3.5239635,0 -4.02766104,0.50133123 -4.02766104,4.01629243 v 2.8153318 c 0,3.5149478 0.50369754,4.0162928 4.02766104,4.0162928 h 3.5863445 c 3.5239638,0 4.0276608,-0.501345 4.0276608,-4.0162928 V 4.8100424 c 0,-3.5149612 -0.503697,-4.01629243 -4.0276608,-4.01629243 z m 0.081649,0.26458343 h 3.4230468 c 3.3637835,0 3.8447265,0.4769388 3.8447265,3.8204385 v 2.6778728 c 0,3.3434873 -0.480943,3.8204393 -3.8447265,3.8204393 h -3.423047 c -3.3637834,0 -3.84472651,-0.476952 -3.84472651,-3.8204393 V 4.8787719 c 0,-3.3434997 0.48094311,-3.8204385 3.84472671,-3.8204385 z" />
</svg>
