<?xml version="1.0" encoding="UTF-8" standalone="no"?>
<!-- Created with Inkscape (http://www.inkscape.org/) -->

<svg
   width="48"
   height="48"
   viewBox="0 0 12.7 12.7"
   version="1.1"
   id="svg5"
   inkscape:version="1.1.2 (0a00cf5339, 2022-02-04)"
   sodipodi:docname="transmission.svg"
   xmlns:inkscape="http://www.inkscape.org/namespaces/inkscape"
   xmlns:sodipodi="http://sodipodi.sourceforge.net/DTD/sodipodi-0.dtd"
   xmlns:xlink="http://www.w3.org/1999/xlink"
   xmlns="http://www.w3.org/2000/svg"
   xmlns:svg="http://www.w3.org/2000/svg">
  <sodipodi:namedview
     id="namedview7"
     pagecolor="#ffffff"
     bordercolor="#666666"
     borderopacity="1.0"
     inkscape:pageshadow="2"
     inkscape:pageopacity="0.0"
     inkscape:pagecheckerboard="0"
     inkscape:document-units="px"
     showgrid="false"
     units="px"
     inkscape:zoom="8.2500001"
     inkscape:cx="5.5151515"
     inkscape:cy="16.181818"
     inkscape:window-width="1851"
     inkscape:window-height="1016"
     inkscape:window-x="0"
     inkscape:window-y="0"
     inkscape:window-maximized="1"
     inkscape:current-layer="svg5" />
  <defs
     id="defs2">
    <linearGradient
       inkscape:collect="always"
       id="linearGradient1312">
      <stop
         style="stop-color:#fdfdfd;stop-opacity:1;"
         offset="0"
         id="stop1308" />
      <stop
         style="stop-color:#f1f0e9;stop-opacity:1"
         offset="1"
         id="stop1310" />
    </linearGradient>
    <linearGradient
       inkscape:collect="always"
       id="linearGradient3598">
      <stop
         style="stop-color:#8c8c8c;stop-opacity:1"
         offset="0"
         id="stop3594" />
      <stop
         style="stop-color:#b8b8b8;stop-opacity:1"
         offset="1"
         id="stop3596" />
    </linearGradient>
    <linearGradient
       inkscape:collect="always"
       id="linearGradient1871">
      <stop
         style="stop-color:#ffffff;stop-opacity:1;"
         offset="0"
         id="stop1867" />
      <stop
         style="stop-color:#ffffff;stop-opacity:0.1"
         offset="0.12"
         id="stop2515" />
      <stop
         style="stop-color:#ffffff;stop-opacity:0.102"
         offset="0.89999998"
         id="stop2581" />
      <stop
         style="stop-color:#ffffff;stop-opacity:0.502"
         offset="1"
         id="stop1869" />
    </linearGradient>
    <linearGradient
       inkscape:collect="always"
       xlink:href="#linearGradient1871"
       id="linearGradient1873"
       x1="17.222656"
       y1="3.5"
       x2="17.222656"
       y2="44.466438"
       gradientUnits="userSpaceOnUse"
       gradientTransform="matrix(0.26458333,0,0,0.26458333,0,-0.13229166)" />
    <linearGradient
       inkscape:collect="always"
       xlink:href="#linearGradient3598"
       id="linearGradient3600"
       x1="8.1839962"
       y1="0.66145837"
       x2="8.3565969"
       y2="11.645548"
       gradientUnits="userSpaceOnUse" />
    <linearGradient
       inkscape:collect="always"
       xlink:href="#linearGradient1312"
       id="linearGradient1314"
       x1="6.3499999"
       y1="10.451042"
       x2="6.3499999"
       y2="1.4552085"
       gradientUnits="userSpaceOnUse"
       gradientTransform="scale(3.7795276)" />
  </defs>
  <path
     id="rect3143"
     style="opacity:0.1;fill:#000000;fill-opacity:1;stroke-width:0.264583"
     d="m 4.5160033,1.0583334 c -3.60405388,0 -4.1191283,0.5137855 -4.1191283,4.1144775 v 2.883545 c 0,3.6006791 0.51507442,4.1144791 4.1191283,4.1144791 h 3.6679933 c 3.6040544,0 4.1191284,-0.5138 4.1191284,-4.1144791 v -2.883545 c 0,-3.600692 -0.515074,-4.1144775 -4.1191284,-4.1144775 z"
     sodipodi:nodetypes="sssssssss" />
  <path
     style="display:inline;fill:url(#linearGradient3600);fill-opacity:1;stroke:none;stroke-width:0.0992187;stroke-linecap:round;stroke-linejoin:round;stroke-miterlimit:4;stroke-dasharray:none;stroke-dashoffset:0;stroke-opacity:1;enable-background:new"
     d="m 8.1839962,0.66145835 c 3.6040548,0 4.1191298,0.51378545 4.1191298,4.11447755 v 2.883545 c 0,3.6006781 -0.515075,4.1144781 -4.1191298,4.1144781 H 4.5160033 c -3.604054,0 -4.1191283,-0.5138 -4.1191283,-4.1144781 v -2.883545 c 0,-3.6006921 0.5150743,-4.11447755 4.1191283,-4.11447755 z"
     id="rect877"
     inkscape:connector-curvature="0"
     sodipodi:nodetypes="sssssssss" />
  <path
     id="rect10194"
     style="opacity:0.03;fill:#000000;fill-opacity:1;stroke-width:0.264583"
     d="M 6.35,0.66145833 V 11.641666 h 1.8339967 c 3.6040553,0 4.1191283,-0.513799 4.1191283,-4.1144767 V 4.643644 c 0,-2.7131393 -0.292641,-3.67352497 -1.97869,-3.98218567 z" />
  <path
     d="m 5.0458247,2.38125 c -2.562883,0 -2.9291582,0.3792226 -2.9291582,3.0368759 v 2.1283309 c 0,2.6576432 0.3662752,3.0368772 2.9291582,3.0368772 h 2.6083508 c 2.5628825,0 2.9291575,-0.379234 2.9291575,-3.0368772 V 5.4181259 c 0,-2.6576533 -0.366275,-3.0368759 -2.9291575,-3.0368759 z"
     style="opacity:0.1;fill:#000000;fill-opacity:1;stroke-width:0.0134187"
     id="path1105" />
  <path
     id="path985"
     style="opacity:1;fill:url(#linearGradient1314);fill-opacity:1;stroke-width:0.191684"
     d="M 19.070312 8 C 9.3838263 8 8 9.4338425 8 19.478516 L 8 27.521484 C 8 37.56612 9.3838263 39 19.070312 39 L 28.929688 39 C 38.616176 39 40 37.56612 40 27.521484 L 40 19.478516 C 40 9.4338425 38.616176 8 28.929688 8 L 19.070312 8 z M 20 16 L 28 16 L 28 25 L 33.599609 25 L 24 36 L 14.400391 25 L 20 25 L 20 16 z "
     transform="scale(0.26458333)" />
  <path
     id="circle38"
     d="M 3.0427083,8.73125 A 0.396875,0.396875 0 0 0 2.6458333,9.128125 0.396875,0.396875 0 0 0 3.0427083,9.525 0.396875,0.396875 0 0 0 3.4395833,9.128125 0.396875,0.396875 0 0 0 3.0427083,8.73125 Z m 6.6145832,0 A 0.396875,0.396875 0 0 0 9.2604166,9.128125 0.396875,0.396875 0 0 0 9.6572915,9.525 0.396875,0.396875 0 0 0 10.054167,9.128125 0.396875,0.396875 0 0 0 9.6572915,8.73125 Z"
     style="fill:#c8c4b7;fill-opacity:1;stroke-width:0.264583" />
  <path
     id="rect1812"
     style="opacity:0.05;fill:#000000;fill-opacity:1;stroke-width:1.085"
     d="M 19.070312 8 C 9.3838267 8 8 9.4338425 8 19.478516 L 8 25 L 14.400391 25 L 20 25 L 20 16 L 28 16 L 28 25 L 33.599609 25 L 40 25 L 40 19.478516 C 40 9.4338425 38.616174 8 28.929688 8 L 19.070312 8 z "
     transform="scale(0.26458333)" />
  <path
     d="m 6.3148899,2.1166666 c -0.7134225,0 -1.28778,0.1180042 -1.28778,0.2645834 H 4.155837 c -1.2155223,0 -2.135214,0.2037953 -2.1941896,0.4407958 0,0 -0.015981,0.072419 -0.024289,0.1033516 -0.1996757,0.070887 -0.3498585,0.3913716 -0.3498585,0.7787745 0,0.3874029 0.1501722,0.7078663 0.3498585,0.7787746 0.00831,0.030935 0.024289,0.1033515 0.024289,0.1033515 0,0.2442978 0.9786409,0.4407959 2.1941896,0.4407959 h 0.8712729 c 0,0.1465791 0.5743575,0.2645833 1.28778,0.2645833 h 0.070279 c 0.7134225,0 1.28778,-0.1180042 1.28778,-0.2645833 h 0.8712729 c 1.2155215,0 2.1352122,-0.2037953 2.1941882,-0.4407959 0,0 0.01447,-0.075044 0.02066,-0.1028356 0.20143,-0.06836 0.353483,-0.3896254 0.353483,-0.7792772 0,-0.3896519 -0.152043,-0.710909 -0.353457,-0.7792773 -0.0062,-0.027792 -0.02066,-0.1028356 -0.02066,-0.1028356 -5e-6,-0.2442978 -0.9786397,-0.4407959 -2.1941877,-0.4407959 H 7.672975 c 0,-0.1465791 -0.5743575,-0.2645833 -1.28778,-0.2645833 z"
     style="opacity:0.25;stroke-width:0.207261;enable-background:new"
     id="path1849" />
  <path
     d="m 2.020464,2.6458333 h 8.659283 c 0.239862,0 0.432964,0.3540125 0.432964,0.79375 0,0.4397375 -0.193102,0.79375 -0.432964,0.79375 H 2.020464 c -0.2398621,0 -0.4329641,-0.3540125 -0.4329641,-0.79375 0,-0.4397375 0.193102,-0.79375 0.4329641,-0.79375 z"
     style="fill:#fdfdfd;stroke-width:0.207263;enable-background:new"
     id="path1734" />
  <path
     d="m 4.1559452,2.1166667 h 4.3883084 c 1.215547,0 2.1941544,0.1966714 2.1941544,0.4409728 0,0 0.109708,0.4409728 0.109708,0.8819554 0,0.4409728 -0.109708,0.8819554 -0.109708,0.8819554 -0.05896,0.237004 -0.9786074,0.440973 -2.1941544,0.440973 H 4.1559452 c -1.2155469,0 -2.1941542,-0.1966715 -2.1941542,-0.440973 0,0 -0.1097077,-0.3307307 -0.1097077,-0.8819554 0,-0.5512244 0.1097077,-0.8819554 0.1097077,-0.8819554 C 2.020755,2.3206357 2.9403983,2.1166667 4.1559452,2.1166667 Z"
     style="fill:#ff2a2a;stroke-width:1.1231;filter:url(#filter2357);enable-background:new"
     id="path1050" />
  <path
     d="m 6.3148901,1.8520833 h 0.070238 c 0.71344,0 1.2877977,0.1180034 1.2877977,0.2645817 V 4.7625016 C 7.6729257,4.9090799 7.098568,5.0270833 6.385128,5.0270833 H 6.31489 c -0.7134399,0 -1.2877977,-0.1180034 -1.2877977,-0.2645817 V 2.116665 c 0,-0.1465783 0.5743578,-0.2645817 1.2877978,-0.2645817 z"
     style="fill:#fdfdfd;stroke-width:0.207263;enable-background:new"
     id="path1599" />
  <path
     d="m 6.3148901,1.8520833 c -0.7134224,0 -1.2877799,0.1180042 -1.2877799,0.2645834 H 4.1558373 c -1.2155223,0 -2.1352142,0.2037953 -2.1941898,0.4407958 0,0 -0.015981,0.072419 -0.024289,0.1033515 C 1.7376828,2.731701 1.5875,3.0521857 1.5875,3.4395886 c 0,0.045244 0.00238,0.089165 0.00619,0.1322917 C 1.623456,3.2457284 1.7609812,2.9880242 1.9373313,2.9253973 1.9456413,2.8944623 1.9616203,2.8220458 1.9616203,2.8220458 2.0205914,2.5850427 2.9402885,2.38125 4.1558108,2.38125 h 0.8712729 c 0,-0.1465792 0.5743575,-0.2645833 1.28778,-0.2645833 h 0.070279 c 0.7134225,0 1.28778,0.1180041 1.28778,0.2645833 h 0.8712729 c 1.2155223,0 2.1941894,0.1965008 2.1941894,0.4407958 0,0 0.01447,0.075044 0.02066,0.1028356 0.178075,0.060436 0.317315,0.3187171 0.347266,0.6469856 0.0039,-0.04305 0.0062,-0.087114 0.0062,-0.1322916 0,-0.3896519 -0.15204,-0.710909 -0.353457,-0.7792773 -0.0062,-0.027792 -0.02066,-0.1028356 -0.02066,-0.1028356 2e-6,-0.2442977 -0.9786342,-0.4407958 -2.1941829,-0.4407958 H 7.6729382 c 0,-0.1465792 -0.5743575,-0.2645834 -1.28778,-0.2645834 z"
     style="opacity:0.6;fill:#fdfdfd;stroke-width:0.207261;enable-background:new"
     id="path1338" />
  <path
     id="rect1565"
     style="opacity:1;fill:url(#linearGradient1873);fill-opacity:1;stroke-width:0.264583"
     d="m 4.5568277,0.79374997 c -3.5239635,0 -4.02766104,0.50133123 -4.02766104,4.01629243 v 2.8153318 c 0,3.5149478 0.50369754,4.0162928 4.02766104,4.0162928 h 3.5863445 c 3.5239638,0 4.0276608,-0.501345 4.0276608,-4.0162928 V 4.8100424 c 0,-3.5149612 -0.503697,-4.01629243 -4.0276608,-4.01629243 z m 0.081649,0.26458343 h 3.4230468 c 3.3637835,0 3.8447265,0.4769388 3.8447265,3.8204385 v 2.6778728 c 0,3.3434873 -0.480943,3.8204393 -3.8447265,3.8204393 h -3.423047 c -3.3637834,0 -3.84472651,-0.476952 -3.84472651,-3.8204393 V 4.8787719 c 0,-3.3434997 0.48094311,-3.8204385 3.84472671,-3.8204385 z" />
  <path
     id="rect1370"
     style="opacity:0.4;fill:#000000;fill-opacity:1;stroke-width:0.264583"
     d="m 4.4751788,0.52916667 c -3.68414336,0 -4.21059547,0.52624033 -4.21059547,4.21266273 v 2.9517578 c 0,3.6864088 0.52645211,4.2126628 4.21059547,4.2126628 H 8.224821 c 3.684144,0 4.210596,-0.526254 4.210596,-4.2126628 V 4.7418294 c 0,-3.6864224 -0.526452,-4.21266273 -4.210596,-4.21266273 z m 0.081649,0.2645833 h 3.5863445 c 3.5239637,0 4.0276607,0.50133143 4.0276607,4.01629243 v 2.8153318 c 0,3.5149478 -0.503697,4.0162928 -4.0276607,4.0162928 H 4.5568277 c -3.5239637,0 -4.02766104,-0.501345 -4.02766104,-4.0162928 V 4.8100424 c 0,-3.514961 0.50369724,-4.01629243 4.02766114,-4.01629243 z" />
</svg>
