<?xml version="1.0" encoding="UTF-8" standalone="no"?>
<!-- Created with Inkscape (http://www.inkscape.org/) -->

<svg
   width="48"
   height="48"
   viewBox="0 0 12.7 12.7"
   version="1.1"
   id="svg5"
   inkscape:version="1.1.2 (0a00cf5339, 2022-02-04)"
   sodipodi:docname="utilities-log-viewet.svg"
   xmlns:inkscape="http://www.inkscape.org/namespaces/inkscape"
   xmlns:sodipodi="http://sodipodi.sourceforge.net/DTD/sodipodi-0.dtd"
   xmlns:xlink="http://www.w3.org/1999/xlink"
   xmlns="http://www.w3.org/2000/svg"
   xmlns:svg="http://www.w3.org/2000/svg">
  <sodipodi:namedview
     id="namedview7"
     pagecolor="#ffffff"
     bordercolor="#666666"
     borderopacity="1.0"
     inkscape:pageshadow="2"
     inkscape:pageopacity="0.0"
     inkscape:pagecheckerboard="0"
     inkscape:document-units="px"
     showgrid="false"
     units="px"
     inkscape:zoom="16.5"
     inkscape:cx="23.969697"
     inkscape:cy="24"
     inkscape:window-width="1920"
     inkscape:window-height="1010"
     inkscape:window-x="0"
     inkscape:window-y="0"
     inkscape:window-maximized="1"
     inkscape:current-layer="svg5" />
  <defs
     id="defs2">
    <linearGradient
       inkscape:collect="always"
       id="linearGradient3598">
      <stop
         style="stop-color:#f5f5f5;stop-opacity:1"
         offset="0"
         id="stop3594" />
      <stop
         style="stop-color:#e8e8e8;stop-opacity:1"
         offset="1"
         id="stop3596" />
    </linearGradient>
    <linearGradient
       inkscape:collect="always"
       id="linearGradient1871">
      <stop
         style="stop-color:#ffffff;stop-opacity:1;"
         offset="0"
         id="stop1867" />
      <stop
         style="stop-color:#ffffff;stop-opacity:0.1"
         offset="0.12"
         id="stop2515" />
      <stop
         style="stop-color:#ffffff;stop-opacity:0.102"
         offset="0.89999998"
         id="stop2581" />
      <stop
         style="stop-color:#ffffff;stop-opacity:0.502"
         offset="1"
         id="stop1869" />
    </linearGradient>
    <linearGradient
       inkscape:collect="always"
       xlink:href="#linearGradient1871"
       id="linearGradient1873"
       x1="17.222656"
       y1="3.5"
       x2="17.222656"
       y2="44.466438"
       gradientUnits="userSpaceOnUse"
       gradientTransform="matrix(0.26458333,0,0,0.26458333,0,-0.13229166)" />
    <linearGradient
       inkscape:collect="always"
       xlink:href="#linearGradient3598"
       id="linearGradient3600"
       x1="7.8838859"
       y1="11.784748"
       x2="4.4751787"
       y2="0.5291667"
       gradientUnits="userSpaceOnUse" />
  </defs>
  <path
     id="rect3143"
     style="opacity:0.1;fill:#000000;fill-opacity:1;stroke-width:0.264583"
     d="m 4.5160033,1.0583334 c -3.60405388,0 -4.1191283,0.5137855 -4.1191283,4.1144775 v 2.883545 c 0,3.6006791 0.51507442,4.1144791 4.1191283,4.1144791 h 3.6679933 c 3.6040544,0 4.1191284,-0.5138 4.1191284,-4.1144791 v -2.883545 c 0,-3.600692 -0.515074,-4.1144775 -4.1191284,-4.1144775 z" />
  <path
     style="display:inline;fill:url(#linearGradient3600);fill-opacity:1;stroke:none;stroke-width:0.0992187;stroke-linecap:round;stroke-linejoin:round;stroke-miterlimit:4;stroke-dasharray:none;stroke-dashoffset:0;stroke-opacity:1;enable-background:new"
     d="m 8.1839962,0.66145835 c 3.6040548,0 4.1191298,0.51378545 4.1191298,4.11447755 v 2.883545 c 0,3.6006781 -0.515075,4.1144781 -4.1191298,4.1144781 H 4.5160033 c -3.604054,0 -4.1191283,-0.5138 -4.1191283,-4.1144781 v -2.883545 c 0,-3.6006921 0.5150743,-4.11447755 4.1191283,-4.11447755 z"
     id="rect877"
     inkscape:connector-curvature="0"
     sodipodi:nodetypes="sssssssss" />
  <path
     id="rect1370"
     style="opacity:0.4;fill:#000000;fill-opacity:1;stroke-width:0.264583"
     d="m 4.4751788,0.52916667 c -3.68414336,0 -4.21059547,0.52624033 -4.21059547,4.21266273 v 2.9517578 c 0,3.6864088 0.52645211,4.2126628 4.21059547,4.2126628 H 8.224821 c 3.684144,0 4.210596,-0.526254 4.210596,-4.2126628 V 4.7418294 c 0,-3.6864224 -0.526452,-4.21266273 -4.210596,-4.21266273 z m 0.081649,0.2645833 h 3.5863445 c 3.5239637,0 4.0276607,0.50133143 4.0276607,4.01629243 v 2.8153318 c 0,3.5149478 -0.503697,4.0162928 -4.0276607,4.0162928 H 4.5568277 c -3.5239637,0 -4.02766104,-0.501345 -4.02766104,-4.0162928 V 4.8100424 c 0,-3.514961 0.50369724,-4.01629243 4.02766114,-4.01629243 z" />
  <path
     id="rect1565"
     style="fill:url(#linearGradient1873);fill-opacity:1;stroke-width:0.264583"
     d="m 4.5568277,0.79374997 c -3.5239635,0 -4.02766104,0.50133123 -4.02766104,4.01629243 v 2.8153318 c 0,3.5149478 0.50369754,4.0162928 4.02766104,4.0162928 h 3.5863445 c 3.5239638,0 4.0276608,-0.501345 4.0276608,-4.0162928 V 4.8100424 c 0,-3.5149612 -0.503697,-4.01629243 -4.0276608,-4.01629243 z m 0.081649,0.26458343 h 3.4230468 c 3.3637835,0 3.8447265,0.4769388 3.8447265,3.8204385 v 2.6778728 c 0,3.3434873 -0.480943,3.8204393 -3.8447265,3.8204393 h -3.423047 c -3.3637834,0 -3.84472651,-0.476952 -3.84472651,-3.8204393 V 4.8787719 c 0,-3.3434997 0.48094311,-3.8204385 3.84472671,-3.8204385 z" />
  <path
     id="rect2091"
     style="opacity:1;fill:#c8c4b7;fill-opacity:1;stroke-width:0.834867;stroke-linejoin:round"
     d="M 12 9 L 12 10 L 36 10 L 36 9 L 12 9 z M 12 13 L 12 14 L 36 14 L 36 13 L 12 13 z M 12 17 L 12 18 L 36 18 L 36 17 L 12 17 z M 12 21 L 12 22 L 36 22 L 36 21 L 12 21 z M 12 25 L 12 26 L 36 26 L 36 25 L 12 25 z M 12 29 L 12 30 L 36 30 L 36 29 L 12 29 z M 12 33 L 12 34 L 36 34 L 36 33 L 12 33 z M 12 37 L 12 38 L 36 38 L 36 37 L 12 37 z "
     transform="scale(0.26458333)" />
  <g
     id="g2067"
     transform="translate(0.52916667)">
    <rect
       style="fill:#888888;fill-opacity:1;stroke-width:0.277497;stroke-linejoin:round"
       id="rect1397"
       width="0.52916664"
       height="1.4552083"
       x="-0.63876075"
       y="10.393963"
       transform="rotate(-45)" />
    <rect
       style="fill:#3b3b3b;fill-opacity:1;stroke-width:0.264583;stroke-linejoin:round"
       id="rect1677"
       width="1.0583333"
       height="2.3812499"
       x="-0.90334386"
       y="11.71688"
       transform="rotate(-45)" />
    <circle
       style="opacity:0.5;fill:#ffffff;fill-opacity:1;stroke-width:0.291041;stroke-linejoin:round"
       id="path1145"
       cx="5.0270834"
       cy="5.5562501"
       r="2.9104166" />
    <path
       id="path941"
       style="fill:#666666;fill-opacity:1;stroke-width:0.999999;stroke-linejoin:round"
       d="M 19,9 A 12,12 0 0 0 7,21 12,12 0 0 0 19,33 12,12 0 0 0 31,21 12,12 0 0 0 19,9 Z m 0,2 A 9.9999997,9.9999997 0 0 1 29,21 9.9999997,9.9999997 0 0 1 19,31 9.9999997,9.9999997 0 0 1 9,21 9.9999997,9.9999997 0 0 1 19,11 Z"
       transform="scale(0.26458333)" />
    <circle
       style="opacity:0.5;fill:#ffffff;fill-opacity:1;stroke-width:0.330611;stroke-linejoin:round"
       id="path1293"
       cx="4.2333331"
       cy="4.7625003"
       r="0.79374999" />
  </g>
  <path
     id="rect2715"
     style="opacity:0.3;fill:#000000;fill-opacity:1;stroke-width:0.499997;stroke-linejoin:round"
     d="M 6.4746094 7 C 6.2096951 7.0133421 6 7.2316563 6 7.5 L 6 8.5 C 6 8.777 6.223 9 6.5 9 L 7.5 9 C 7.777 9 8 8.777 8 8.5 L 8 7.5 C 8 7.223 7.777 7 7.5 7 L 6.5 7 C 6.4913438 7 6.483155 6.9995696 6.4746094 7 z M 40.474609 7 C 40.209702 7.0133417 40 7.2316547 40 7.5 L 40 8.5 C 40 8.7770016 40.222991 9 40.5 9 L 41.5 9 C 41.777002 9 42 8.7770004 42 8.5 L 42 7.5 C 42 7.2229984 41.777009 7 41.5 7 L 40.5 7 C 40.491307 7 40.482924 6.9995695 40.474609 7 z M 6.4746094 11 C 6.2096951 11.013342 6 11.231656 6 11.5 L 6 12.5 C 6 12.777 6.223 13 6.5 13 L 7.5 13 C 7.777 13 8 12.777 8 12.5 L 8 11.5 C 8 11.223 7.777 11 7.5 11 L 6.5 11 C 6.4913438 11 6.483155 10.99957 6.4746094 11 z M 40.474609 11 C 40.209702 11.013342 40 11.231655 40 11.5 L 40 12.5 C 40 12.777002 40.222991 13 40.5 13 L 41.5 13 C 41.777002 13 42 12.777 42 12.5 L 42 11.5 C 42 11.222998 41.777009 11 41.5 11 L 40.5 11 C 40.491307 11 40.482924 10.99957 40.474609 11 z M 6.4746094 15 C 6.2096951 15.013342 6 15.231656 6 15.5 L 6 16.5 C 6 16.777 6.223 17 6.5 17 L 7.5 17 C 7.777 17 8 16.777 8 16.5 L 8 15.5 C 8 15.223 7.777 15 7.5 15 L 6.5 15 C 6.4913438 15 6.483155 14.99957 6.4746094 15 z M 40.474609 15 C 40.209702 15.013342 40 15.231655 40 15.5 L 40 16.5 C 40 16.777002 40.222991 17 40.5 17 L 41.5 17 C 41.777002 17 42 16.777 42 16.5 L 42 15.5 C 42 15.222998 41.777009 15 41.5 15 L 40.5 15 C 40.491307 15 40.482924 14.99957 40.474609 15 z M 6.4746094 19 C 6.2096951 19.013342 6 19.231656 6 19.5 L 6 20.5 C 6 20.777 6.223 21 6.5 21 L 7.5 21 C 7.777 21 8 20.777 8 20.5 L 8 19.5 C 8 19.223 7.777 19 7.5 19 L 6.5 19 C 6.4913438 19 6.483155 18.99957 6.4746094 19 z M 40.474609 19 C 40.209702 19.013342 40 19.231655 40 19.5 L 40 20.5 C 40 20.777002 40.222991 21 40.5 21 L 41.5 21 C 41.777002 21 42 20.777 42 20.5 L 42 19.5 C 42 19.222998 41.777009 19 41.5 19 L 40.5 19 C 40.491307 19 40.482924 18.99957 40.474609 19 z M 6.4746094 23 C 6.2096951 23.013342 6 23.231656 6 23.5 L 6 24.5 C 6 24.777 6.223 25 6.5 25 L 7.5 25 C 7.777 25 8 24.777 8 24.5 L 8 23.5 C 8 23.223 7.777 23 7.5 23 L 6.5 23 C 6.4913438 23 6.483155 22.99957 6.4746094 23 z M 40.474609 23 C 40.209702 23.013342 40 23.231655 40 23.5 L 40 24.5 C 40 24.777002 40.222991 25 40.5 25 L 41.5 25 C 41.777002 25 42 24.777 42 24.5 L 42 23.5 C 42 23.222998 41.777009 23 41.5 23 L 40.5 23 C 40.491307 23 40.482924 22.99957 40.474609 23 z M 6.4746094 27 C 6.2096951 27.013342 6 27.231656 6 27.5 L 6 28.5 C 6 28.777 6.223 29 6.5 29 L 7.5 29 C 7.777 29 8 28.777 8 28.5 L 8 27.5 C 8 27.223 7.777 27 7.5 27 L 6.5 27 C 6.4913438 27 6.483155 26.99957 6.4746094 27 z M 40.474609 27 C 40.209702 27.013342 40 27.231655 40 27.5 L 40 28.5 C 40 28.777002 40.222991 29 40.5 29 L 41.5 29 C 41.777002 29 42 28.777 42 28.5 L 42 27.5 C 42 27.222998 41.777009 27 41.5 27 L 40.5 27 C 40.491307 27 40.482924 26.99957 40.474609 27 z M 6.4746094 31 C 6.2096951 31.013342 6 31.231656 6 31.5 L 6 32.5 C 6 32.777 6.223 33 6.5 33 L 7.5 33 C 7.777 33 8 32.777 8 32.5 L 8 31.5 C 8 31.223 7.777 31 7.5 31 L 6.5 31 C 6.4913438 31 6.483155 30.99957 6.4746094 31 z M 40.474609 31 C 40.209702 31.013342 40 31.231655 40 31.5 L 40 32.5 C 40 32.777002 40.222991 33 40.5 33 L 41.5 33 C 41.777002 33 42 32.777 42 32.5 L 42 31.5 C 42 31.222998 41.777009 31 41.5 31 L 40.5 31 C 40.491307 31 40.482924 30.99957 40.474609 31 z M 6.4746094 35 C 6.2096951 35.013342 6 35.231656 6 35.5 L 6 36.5 C 6 36.777 6.223 37 6.5 37 L 7.5 37 C 7.777 37 8 36.777 8 36.5 L 8 35.5 C 8 35.223 7.777 35 7.5 35 L 6.5 35 C 6.4913438 35 6.483155 34.99957 6.4746094 35 z M 40.474609 35 C 40.209702 35.013342 40 35.231655 40 35.5 L 40 36.5 C 40 36.777002 40.222991 37 40.5 37 L 41.5 37 C 41.777002 37 42 36.777 42 36.5 L 42 35.5 C 42 35.222998 41.777009 35 41.5 35 L 40.5 35 C 40.491307 35 40.482924 34.99957 40.474609 35 z M 6.4746094 39 C 6.2096951 39.013342 6 39.231656 6 39.5 L 6 40.5 C 6 40.777 6.223 41 6.5 41 L 7.5 41 C 7.777 41 8 40.777 8 40.5 L 8 39.5 C 8 39.223 7.777 39 7.5 39 L 6.5 39 C 6.4913438 39 6.483155 38.99957 6.4746094 39 z M 40.474609 39 C 40.209702 39.013228 40 39.231646 40 39.5 L 40 40.5 C 40 40.777002 40.222991 41 40.5 41 L 41.5 41 C 41.777002 41 42 40.777009 42 40.5 L 42 39.5 C 42 39.222998 41.777009 39 41.5 39 L 40.5 39 C 40.491307 39 40.482924 38.999569 40.474609 39 z "
     transform="scale(0.26458333)" />
</svg>
