<?xml version="1.0" encoding="UTF-8" standalone="no"?>
<!-- Created with Inkscape (http://www.inkscape.org/) -->

<svg
   width="48"
   height="48"
   viewBox="0 0 12.7 12.7"
   version="1.1"
   id="svg5"
   inkscape:version="1.1.2 (0a00cf5339, 2022-02-04)"
   sodipodi:docname="yast-snapper.svg"
   xmlns:inkscape="http://www.inkscape.org/namespaces/inkscape"
   xmlns:sodipodi="http://sodipodi.sourceforge.net/DTD/sodipodi-0.dtd"
   xmlns:xlink="http://www.w3.org/1999/xlink"
   xmlns="http://www.w3.org/2000/svg"
   xmlns:svg="http://www.w3.org/2000/svg">
  <sodipodi:namedview
     id="namedview7"
     pagecolor="#ffffff"
     bordercolor="#666666"
     borderopacity="1.0"
     inkscape:pageshadow="2"
     inkscape:pageopacity="0.0"
     inkscape:pagecheckerboard="0"
     inkscape:document-units="px"
     showgrid="false"
     units="px"
     inkscape:zoom="16.125"
     inkscape:cx="23.968992"
     inkscape:cy="23.968992"
     inkscape:window-width="1851"
     inkscape:window-height="1016"
     inkscape:window-x="0"
     inkscape:window-y="0"
     inkscape:window-maximized="1"
     inkscape:current-layer="svg5" />
  <defs
     id="defs2">
    <linearGradient
       inkscape:collect="always"
       xlink:href="#linearGradient1871"
       id="linearGradient1873"
       x1="17.222656"
       y1="3.5"
       x2="17.222656"
       y2="44.466438"
       gradientUnits="userSpaceOnUse"
       gradientTransform="matrix(0.26458333,0,0,0.26458333,3.3333334e-8,-0.13229166)" />
    <linearGradient
       inkscape:collect="always"
       id="linearGradient1871">
      <stop
         style="stop-color:#ffffff;stop-opacity:1;"
         offset="0"
         id="stop1867" />
      <stop
         style="stop-color:#ffffff;stop-opacity:0.1"
         offset="0.12"
         id="stop2515" />
      <stop
         style="stop-color:#ffffff;stop-opacity:0.102"
         offset="0.89999998"
         id="stop2581" />
      <stop
         style="stop-color:#ffffff;stop-opacity:0.502"
         offset="1"
         id="stop1869" />
    </linearGradient>
    <linearGradient
       inkscape:collect="always"
       xlink:href="#linearGradient3598"
       id="linearGradient3600"
       x1="4.4751792"
       y1="0.5291667"
       x2="8.5291948"
       y2="11.823769"
       gradientUnits="userSpaceOnUse" />
    <linearGradient
       inkscape:collect="always"
       id="linearGradient3598">
      <stop
         style="stop-color:#5884f4;stop-opacity:1"
         offset="0"
         id="stop3594" />
      <stop
         style="stop-color:#80a3fa;stop-opacity:1"
         offset="1"
         id="stop3596" />
    </linearGradient>
  </defs>
  <path
     id="rect3143"
     style="opacity:0.1;fill:#000000;fill-opacity:1;stroke-width:0.264583"
     d="m 4.5160033,1.0583334 c -3.60405387,0 -4.11912827,0.5137855 -4.11912827,4.1144775 v 2.883545 c 0,3.6006801 0.5150744,4.1144801 4.11912827,4.1144801 h 3.6679933 c 3.6040544,0 4.1191284,-0.5138 4.1191284,-4.1144801 v -2.883545 c 0,-3.600692 -0.515074,-4.1144775 -4.1191284,-4.1144775 z" />
  <path
     style="display:inline;fill:url(#linearGradient3600);fill-opacity:1;stroke:none;stroke-width:0.0992187;stroke-linecap:round;stroke-linejoin:round;stroke-miterlimit:4;stroke-dasharray:none;stroke-dashoffset:0;stroke-opacity:1;enable-background:new"
     d="m 8.1839962,0.66145833 c 3.6040548,0 4.1191298,0.51378547 4.1191298,4.11447757 v 2.883545 c 0,3.6006781 -0.515075,4.1144781 -4.1191298,4.1144781 H 4.5160033 c -3.604054,0 -4.1191283,-0.5138 -4.1191283,-4.1144781 v -2.883545 c 0,-3.6006921 0.5150743,-4.11447757 4.1191283,-4.11447757 z"
     id="rect877"
     inkscape:connector-curvature="0"
     sodipodi:nodetypes="sssssssss" />
  <path
     id="path30"
     d="m 6.2895385,3.3074148 c -0.043669,3.704e-4 -0.087345,0.00146 -0.1312579,0.00362 C 5.0783689,3.3640642 4.1190559,3.9496374 3.5672242,4.834453 3.3453669,4.6923408 3.2691939,4.6432101 2.934188,4.428793 2.8845204,4.7767466 2.8457968,5.1396689 2.8189495,5.5160652 2.7941554,5.8897775 2.7804862,6.2560397 2.7781251,6.6162564 3.1016047,6.4617132 3.4287561,6.2955234 3.758427,6.117062 4.0895795,5.9356663 4.4045834,5.7512358 4.703589,5.5630906 c 0,0 -0.2346955,-0.1505942 -0.6914306,-0.4433837 0.4607097,-0.7443181 1.264289,-1.2359682 2.1719603,-1.280542 1.1777104,-0.057852 2.255828,0.6498179 2.6711547,1.7533813 L 9.3503337,5.406511 C 8.8702642,4.1309204 7.6432918,3.2956292 6.2895385,3.3074148 Z M 9.8795,6.4612275 C 9.5560208,6.6157706 9.2288693,6.7819604 8.8991985,6.9604219 8.568046,7.1418175 8.2530421,7.326248 7.9540365,7.5143932 c 0,0 0.2346954,0.1505942 0.6914306,0.4433837 C 8.1847574,8.7020951 7.3811781,9.1937451 6.4735067,9.238319 5.2957963,9.2961712 4.2176788,8.588501 3.802352,7.4849377 L 3.3072917,7.6709728 C 3.8028473,8.9877115 5.0941365,9.8354798 6.4993449,9.7664522 7.5792566,9.7134192 8.5385696,9.1278464 9.0904012,8.2430308 9.3122586,8.385143 9.3884316,8.4342738 9.7234375,8.6486908 9.7731055,8.3007372 9.8118285,7.9378149 9.838676,7.5614187 9.86347,7.1877064 9.877139,6.8214442 9.8795,6.4612275 Z"
     style="opacity:0.1;fill:#000000;stroke-width:0.264583"
     sodipodi:nodetypes="ccccccccccccccccccccccccc" />
  <path
     d="m 6.2895385,3.0428315 c -0.043669,3.704e-4 -0.087345,0.00146 -0.131258,0.00362 C 5.0783688,3.0994804 4.1190558,3.6850536 3.5672242,4.5698692 3.3453668,4.427757 3.2691938,4.3786263 2.9341879,4.1642093 2.8845203,4.5121628 2.8457967,4.8750851 2.8189494,5.2514814 2.7941553,5.6251937 2.7804861,5.9914558 2.778125,6.3516725 3.1016046,6.1971294 3.4287561,6.0309396 3.7584269,5.8524781 4.0895794,5.6710825 4.4045833,5.4866521 4.7035889,5.2985069 c 0,0 -0.2346954,-0.1505943 -0.6914306,-0.4433838 C 4.472868,4.110805 5.2764473,3.6191548 6.1841187,3.574581 7.3618291,3.516729 8.4399466,4.2243991 8.8552736,5.3279624 l 0.49506,-0.1860352 C 8.8702646,3.8663365 7.6432918,3.0310454 6.2895385,3.0428315 Z M 9.879501,6.1966442 C 9.5560206,6.3511873 9.2288696,6.5173771 8.8991986,6.6958386 8.5680456,6.8772342 8.2530426,7.0616647 7.9540365,7.2498099 c 0,0 0.2346951,0.1505942 0.6914311,0.4433837 C 8.1847576,8.4375118 7.3811781,8.9291619 6.4735067,8.9737357 5.2957963,9.0315879 4.2176787,8.3239177 3.802352,7.2203544 L 3.3072917,7.4063895 c 0.4955556,1.3167387 1.7868447,2.1645071 3.1920532,2.0954794 1.0799116,-0.053033 2.0392247,-0.6386057 2.5910557,-1.5234214 0.221858,0.1421122 0.298031,0.191243 0.633037,0.40566 0.04967,-0.3479535 0.08839,-0.7108759 0.115238,-1.0872721 0.02479,-0.3737123 0.03846,-0.7399745 0.04082,-1.1001912 z"
     style="fill:#ffffff;stroke-width:0.0700042"
     id="path1132" />
  <path
     id="rect1018"
     style="opacity:0.1;fill:#ffffff;stroke-width:2;stroke-linecap:round;stroke-linejoin:round"
     d="M 1.5527344 14.710938 C 1.5155259 15.738999 1.5 16.846826 1.5 18.050781 L 1.5 28.949219 C 1.5 42.558081 3.4467368 44.5 17.068359 44.5 L 30.931641 44.5 C 42.108786 44.5 45.423519 43.186931 46.253906 35.199219 L 1.5527344 14.710938 z "
     transform="scale(0.26458333)" />
  <path
     id="rect1370"
     style="opacity:0.4;fill:#000000;fill-opacity:1;stroke-width:0.264583"
     d="m 4.4751788,0.52916667 c -3.68414337,0 -4.21059547,0.52624033 -4.21059547,4.21266273 v 2.9517578 c 0,3.6864098 0.5264521,4.2126638 4.21059547,4.2126638 H 8.224821 c 3.684144,0 4.210596,-0.526254 4.210596,-4.2126638 V 4.7418294 c 0,-3.6864224 -0.526452,-4.21266273 -4.210596,-4.21266273 z m 0.081649,0.2645833 h 3.5863445 c 3.5239637,0 4.0276607,0.50133143 4.0276607,4.01629243 v 2.8153318 c 0,3.5149488 -0.503697,4.0162938 -4.0276607,4.0162938 H 4.5568277 c -3.5239637,0 -4.02766097,-0.501345 -4.02766097,-4.0162938 V 4.8100424 c 0,-3.514961 0.50369717,-4.01629243 4.02766107,-4.01629243 z" />
  <path
     id="rect1565"
     style="opacity:1;fill:url(#linearGradient1873);fill-opacity:1;stroke-width:0.264583"
     d="m 4.5568277,0.79374997 c -3.5239635,0 -4.02766097,0.50133123 -4.02766097,4.01629243 v 2.8153318 c 0,3.5149488 0.50369747,4.0162938 4.02766097,4.0162938 h 3.5863445 c 3.5239638,0 4.0276608,-0.501345 4.0276608,-4.0162938 V 4.8100424 c 0,-3.5149612 -0.503697,-4.01629243 -4.0276608,-4.01629243 z m 0.081649,0.26458343 h 3.4230468 c 3.3637835,0 3.8447265,0.4769388 3.8447265,3.8204385 v 2.6778728 c 0,3.3434883 -0.480943,3.8204403 -3.8447265,3.8204403 h -3.423047 c -3.3637834,0 -3.84472647,-0.476952 -3.84472647,-3.8204403 V 4.8787719 c 0,-3.3434997 0.48094307,-3.8204385 3.84472667,-3.8204385 z" />
</svg>
