<?xml version="1.0" encoding="UTF-8" standalone="no"?>
<!-- Created with Inkscape (http://www.inkscape.org/) -->

<svg
   width="16"
   height="16"
   viewBox="0 0 4.2333333 4.2333333"
   version="1.1"
   id="svg1003"
   sodipodi:docname="applications-graphics.svg"
   inkscape:version="1.1.2 (0a00cf5339, 2022-02-04)"
   xmlns:inkscape="http://www.inkscape.org/namespaces/inkscape"
   xmlns:sodipodi="http://sodipodi.sourceforge.net/DTD/sodipodi-0.dtd"
   xmlns:xlink="http://www.w3.org/1999/xlink"
   xmlns="http://www.w3.org/2000/svg"
   xmlns:svg="http://www.w3.org/2000/svg">
  <sodipodi:namedview
     id="namedview1005"
     pagecolor="#ffffff"
     bordercolor="#666666"
     borderopacity="1.0"
     inkscape:pageshadow="2"
     inkscape:pageopacity="0.0"
     inkscape:pagecheckerboard="0"
     inkscape:document-units="px"
     showgrid="false"
     units="px"
     showguides="false"
     inkscape:lockguides="true"
     inkscape:zoom="48.375"
     inkscape:cx="8.0206718"
     inkscape:cy="8.0103359"
     inkscape:window-width="1851"
     inkscape:window-height="1049"
     inkscape:window-x="0"
     inkscape:window-y="0"
     inkscape:window-maximized="1"
     inkscape:current-layer="svg1003" />
  <defs
     id="defs1000">
    <linearGradient
       inkscape:collect="always"
       xlink:href="#linearGradient1871"
       id="linearGradient16320"
       x1="10"
       y1="4"
       x2="10"
       y2="29.100245"
       gradientUnits="userSpaceOnUse"
       gradientTransform="matrix(0.13229166,0,0,0.12211538,0,0.04070512)" />
    <linearGradient
       inkscape:collect="always"
       id="linearGradient1871">
      <stop
         style="stop-color:#ffffff;stop-opacity:1;"
         offset="0"
         id="stop1867" />
      <stop
         style="stop-color:#ffffff;stop-opacity:0.1"
         offset="0.12"
         id="stop2515" />
      <stop
         style="stop-color:#ffffff;stop-opacity:0.102"
         offset="0.89999998"
         id="stop2581" />
      <stop
         style="stop-color:#ffffff;stop-opacity:0.502"
         offset="1"
         id="stop1869" />
    </linearGradient>
    <clipPath
       id="clipPath1225-9">
      <path
         d="m 330.31,236.5 c 4.5406,0 5.1895,0.64729 5.1895,5.1836 v 3.6328 c 0,4.5363 -0.64891,5.1836 -5.1895,5.1836 h -4.6211 c -4.5405,0 -5.1894,-0.6473 -5.1894,-5.1836 v -3.6328 c 0,-4.5363 0.64892,-5.1836 5.1895,-5.1836 z"
         fill="#325fd1"
         id="path7" />
    </clipPath>
  </defs>
  <path
     d="M 1.0583333,0.396875 H 3.175 c 0.7935019,1.919e-4 0.9259876,0.157244 0.9260416,0.9921875 V 2.8376562 C 4.1009876,3.6238466 3.9685019,3.8366501 3.175,3.8364583 H 1.0583333 c -0.79355622,0 -0.92604169,-0.2128036 -0.92604169,-0.9988021 V 1.3890625 c 0,-0.7859985 0.13248546,-0.9921875 0.92604169,-0.9921875 z"
     style="fill:#4d4d4d;fill-opacity:1;stroke-width:0.0653156;stroke-linejoin:round"
     id="path17503"
     sodipodi:nodetypes="sccccssss" />
  <path
     d="M 1.5552221,3.3614923 C 1.4709316,3.4943378 1.2809854,3.5368444 1.1480971,3.4525288 1.0152161,3.3682146 0.97277464,3.1782623 1.0570606,3.0454184 1.1413516,2.912573 1.3312974,2.8700664 1.4641709,2.9543804 c 0.1328839,0.084314 0.1753225,0.2742663 0.091039,0.407125 z"
     style="fill:#f1a443;stroke-width:1.00005"
     id="path10236" />
  <path
     d="M 1.2030807,2.264769 C 1.1187902,2.3976143 0.92879954,2.4400915 0.79597054,2.3558069 0.66312664,2.2715164 0.62064804,2.0815257 0.70493114,1.9486818 0.78921864,1.8158394 0.97921234,1.7733593 1.1120561,1.8576439 1.2448985,1.9419329 1.2873786,2.1319251 1.2030925,2.264769 Z"
     style="fill:#3f90dc;stroke-width:1.00005"
     id="path10116" />
  <path
     d="M 1.7562807,1.3929719 C 1.6719902,1.5258173 1.4819995,1.5682944 1.3491704,1.4840098 1.2163266,1.3997193 1.1738479,1.2097286 1.258131,1.0768847 1.3424201,0.94404235 1.5324123,0.90156225 1.6652562,0.98584685 1.798097,1.0701358 1.8405786,1.260128 1.7562922,1.3929719 Z"
     style="fill:#56a913;stroke-width:1.00005"
     id="path9996" />
  <path
     d="M 2.8986503,1.2443338 C 2.8143599,1.3771791 2.6243692,1.4196562 2.4915252,1.3353717 2.3586843,1.2510841 2.3162027,1.0610904 2.4004888,0.92826145 2.4847778,0.79541907 2.6747702,0.75293894 2.8075993,0.83722355 2.9404399,0.92151105 2.9829217,1.1115047 2.8986371,1.2443486 Z"
     style="fill:#f35b5b;stroke-width:1.00005"
     id="path9876" />
  <g
     id="g9849"
     transform="matrix(0.26458333,0,0,0.26458333,0.01448941,0.02822078)">
    <path
       d="M 9.5874053,8.8532648 C 9.1053607,8.8128403 8.3814673,9.1423933 8.0272736,9.7784801 7.3998048,10.905292 7.8930048,12.61259 6.5374202,12.314787 c 1.7918,1.371192 4.2456198,-0.675572 4.2635958,-1.981412 0.0039,-0.282488 -0.05617,-0.5184389 -0.154961,-0.7134278 z"
       style="fill:#1b90ff;fill-rule:evenodd;stroke-width:3.77971"
       id="path9221" />
    <path
       d="m 6.7860553,12.481272 c 1.7616165,1.019798 3.9977687,-0.901528 4.0149607,-2.147897 0.0039,-0.282487 -0.05617,-0.5184393 -0.154961,-0.7134278 L 9.621329,8.8778484 C 9.349124,9.03436 9.095096,9.2512497 8.9001183,9.5285568 7.9858786,10.828798 8.3704574,12.984871 6.7473488,12.445265 c 0.012853,0.01215 0.025761,0.02414 0.03871,0.036 z"
       style="fill:#a197ff;fill-rule:evenodd;stroke-width:3.77971"
       id="path9365" />
    <path
       d="m 7.5465224,12.746596 c 1.5838197,0.229724 3.2397656,-1.341345 3.2544936,-2.413221 0.0039,-0.282487 -0.05617,-0.5184393 -0.154961,-0.7134278 L 9.629114,8.8835043 C 9.4100571,9.0737777 9.2175605,9.3130726 9.0851845,9.5955316 8.4332442,10.986603 9.1611304,12.974231 7.5256684,12.732988 c 0.00694,0.0046 0.013869,0.0091 0.020808,0.01361 z"
       style="fill:#dd61fa;fill-rule:evenodd;stroke-width:3.77971"
       id="path9509" />
    <path
       d="m 9.4868868,12.231293 c 0.7609712,-0.509345 1.3057292,-1.285177 1.3141292,-1.897918 0.0039,-0.282487 -0.05617,-0.5184393 -0.154961,-0.7134278 L 9.636337,8.8887122 C 9.5254814,9.0792208 9.4416732,9.2931762 9.4006372,9.5232929 9.2215076,10.527747 9.7643115,11.638599 9.486842,12.231293 Z"
       style="fill:#fa6196;fill-rule:evenodd;stroke-width:3.77971"
       id="path9629" />
    <path
       d="m 10.646078,10.941747 c 0.09741,-0.20998 0.1523,-0.417131 0.154938,-0.608373 0.0039,-0.282487 -0.05617,-0.5184388 -0.154961,-0.7134268 L 9.6872406,8.9255594 c 0.00701,0.05217 0.016835,0.1044157 0.029709,0.156478 0.1852274,0.7490988 0.8795754,1.3559036 0.9291344,1.8596706 z"
       style="fill:#f1a443;fill-rule:evenodd;stroke-width:3.77971"
       id="path9749" />
  </g>
  <g
     id="g9182"
     transform="matrix(0.26458333,0,0,0.26458333,0.01448941,0.02822078)">
    <path
       d="m 12.257063,5.7173326 0.631215,0.474124 -1.699036,2.2619769 -0.631215,-0.4741242 z m -1.975308,2.3698387 0.797809,0.5956104 c 0.09234,0.068933 0.127565,0.1908775 0.08619,0.2984236 L 10.92886,9.5970535 c -0.051,0.1325685 -0.199804,0.1986975 -0.332365,0.1477055 -0.02223,-0.0085 -0.04313,-0.02009 -0.06215,-0.03437 L 9.4621131,8.9050006 c -0.113565,-0.085302 -0.136478,-0.2465251 -0.05118,-0.3600902 0.01318,-0.017545 0.02851,-0.033288 0.04568,-0.046924 l 0.511378,-0.4061192 c 0.09141,-0.072582 0.2202399,-0.074511 0.3137729,-0.00468 z m 2.129773,-2.5754836 0.463354,-0.6168763 c 0.0853,-0.1135651 0.246519,-0.1364826 0.36009,-0.051176 l 0.219978,0.165232 c 0.113566,0.085302 0.136479,0.2465251 0.05118,0.3600902 l -0.463354,0.6168762 z"
       style="fill:#ffffff;fill-opacity:1"
       id="path1081"
       sodipodi:nodetypes="ccccccccccccsccccccssccc" />
    <path
       d="m 12.257063,5.7173326 0.631215,0.474124 -1.699036,2.2619765 -0.631215,-0.474124 z m -1.975308,2.3698385 0.797809,0.595611 c 0.09234,0.06893 0.127565,0.190877 0.08619,0.298423 l -0.236894,0.615848 c -0.051,0.1325679 -0.199804,0.1986969 -0.332365,0.1477049 -0.02223,-0.0085 -0.04313,-0.02009 -0.06215,-0.03437 L 9.4621141,8.9050001 c -0.113565,-0.0853 -0.136478,-0.246525 -0.05118,-0.36009 0.01318,-0.01755 0.02851,-0.03329 0.04568,-0.04692 l 0.511379,-0.406119 c 0.09141,-0.07258 0.2202389,-0.07451 0.3137719,-0.0047 z m 2.129773,-2.5754834 0.463354,-0.6168763 c 0.0853,-0.1135651 0.246519,-0.1364826 0.36009,-0.051176 l 0.219978,0.165232 c 0.113566,0.085302 0.136479,0.2465251 0.05118,0.3600902 l -0.463354,0.6168762 z"
       style="fill:#828282;fill-opacity:1"
       id="path6548" />
  </g>
  <path
     id="rect13250"
     style="opacity:1;fill:url(#linearGradient16320);fill-opacity:1;stroke-width:0.127101;stroke-linejoin:round"
     d="M 0.94929604,0.52916666 C 0.4275256,0.53207345 0.26458333,0.5787759 0.26458333,1.3229166 v 0.1829346 1.2216309 0.1829345 c 0,0.79375 0.21166674,0.79375 0.79374997,0.79375 H 1.3229166 3.175 c 0.5820833,0 0.79375,0 0.79375,-0.79375 V 2.7274821 1.5058512 1.3229166 C 3.96875,0.52916642 3.7570833,0.52916666 3.175,0.52916666 H 1.3229166 Z m 0.0847494,0.26458333 c 0.0079,-4.458e-5 0.016138,0 0.024288,0 H 3.175 c 0.5216072,0 0.5291666,0.0892859 0.5291666,0.52916661 v 1.5875 c 0,0.4398807 -0.00756,0.5291667 -0.5291666,0.5291667 H 1.0583333 c -0.52160723,0 -0.52916664,-0.089286 -0.52916664,-0.5291667 v -1.5875 c 0,-0.4330075 0.007113,-0.52635721 0.50487874,-0.52916661 z"
     sodipodi:nodetypes="csccsscssccssccssssssssss" />
  <path
     id="rect7040"
     style="opacity:0.4;stroke-width:0.264583;stroke-linejoin:round"
     d="M 1.0583333,0.26458333 C 0.21187339,0.26458333 0,0.47645663 0,1.3229166 v 1.5875 C 0,3.7568766 0.21187339,3.96875 1.0583333,3.96875 H 3.175 C 4.021402,3.9689566 4.2332756,3.7570833 4.2333333,2.9104166 v -1.5875 C 4.2332756,0.42374666 4.021402,0.26478997 3.175,0.26458333 Z M 0.94929604,0.52916666 H 1.3229166 3.175 c 0.5820833,0 0.79375,-2.9e-7 0.79375,0.79374994 v 0.1829346 1.2216309 0.1829345 c 0,0.79375 -0.2116667,0.79375 -0.79375,0.79375 H 1.3229166 1.0583333 c -0.5820832,0 -0.79374997,0 -0.79374997,-0.79375 V 2.7274821 1.5058512 1.3229166 c 0,-0.74414078 0.16294232,-0.79084294 0.68471271,-0.79374994 z"
     sodipodi:nodetypes="ssssccccsccssccsscssccsc" />
</svg>
