<?xml version="1.0" encoding="UTF-8" standalone="no"?>
<!-- Created with Inkscape (http://www.inkscape.org/) -->

<svg
   width="16"
   height="16"
   viewBox="0 0 4.2333333 4.2333333"
   version="1.1"
   id="svg1003"
   sodipodi:docname="cs-cat-hardware.svg"
   inkscape:version="1.1.2 (0a00cf5339, 2022-02-04)"
   xmlns:inkscape="http://www.inkscape.org/namespaces/inkscape"
   xmlns:sodipodi="http://sodipodi.sourceforge.net/DTD/sodipodi-0.dtd"
   xmlns:xlink="http://www.w3.org/1999/xlink"
   xmlns="http://www.w3.org/2000/svg"
   xmlns:svg="http://www.w3.org/2000/svg">
  <sodipodi:namedview
     id="namedview1005"
     pagecolor="#ffffff"
     bordercolor="#666666"
     borderopacity="1.0"
     inkscape:pageshadow="2"
     inkscape:pageopacity="0.0"
     inkscape:pagecheckerboard="0"
     inkscape:document-units="px"
     showgrid="false"
     units="px"
     showguides="true"
     inkscape:lockguides="true"
     inkscape:zoom="49.5"
     inkscape:cx="7.989899"
     inkscape:cy="8"
     inkscape:window-width="1920"
     inkscape:window-height="1010"
     inkscape:window-x="0"
     inkscape:window-y="0"
     inkscape:window-maximized="1"
     inkscape:current-layer="svg1003" />
  <defs
     id="defs1000">
    <linearGradient
       inkscape:collect="always"
       id="linearGradient17934">
      <stop
         style="stop-color:#216c4d;stop-opacity:1"
         offset="0"
         id="stop17930" />
      <stop
         style="stop-color:#2d976b;stop-opacity:1"
         offset="1"
         id="stop17932" />
    </linearGradient>
    <linearGradient
       inkscape:collect="always"
       xlink:href="#linearGradient17934"
       id="linearGradient17936"
       x1="1.0583333"
       y1="0.26458332"
       x2="3.1669822"
       y2="3.9714224"
       gradientUnits="userSpaceOnUse" />
  </defs>
  <path
     id="rect7040"
     style="opacity:0.4;stroke-width:0.264583;stroke-linejoin:round"
     d="M 1.0583333,0.26458333 C 0.21187339,0.26458333 0,0.47645663 0,1.3229166 v 1.5875 C 0,3.7568766 0.21187339,3.96875 1.0583333,3.96875 H 3.175 C 4.021402,3.9689566 4.2332756,3.7570833 4.2333333,2.9104166 v -1.5875 C 4.2332756,0.42374666 4.021402,0.26478997 3.175,0.26458333 Z M 0.94929604,0.52916666 H 1.3229166 3.175 c 0.5820833,0 0.79375,-2.9e-7 0.79375,0.79374994 v 0.1829346 1.2216309 0.1829345 c 0,0.79375 -0.2116667,0.79375 -0.79375,0.79375 H 1.3229166 1.0583333 c -0.5820832,0 -0.79374997,0 -0.79374997,-0.79375 V 2.7274821 1.5058512 1.3229166 c 0,-0.74414078 0.16294232,-0.79084294 0.68471271,-0.79374994 z"
     sodipodi:nodetypes="ssssccccsccssccsscssccsc" />
  <path
     d="M 1.0583333,0.396875 H 3.175 c 0.7935019,1.919e-4 0.9259876,0.157244 0.9260416,0.9921875 V 2.8376562 C 4.1009876,3.6238466 3.9685019,3.8366501 3.175,3.8364583 H 1.0583333 c -0.79355622,0 -0.92604169,-0.2128036 -0.92604169,-0.9988021 V 1.3890625 c 0,-0.7859985 0.13248546,-0.9921875 0.92604169,-0.9921875 z"
     style="fill:url(#linearGradient17936);fill-opacity:1;stroke-width:0.0653156;stroke-linejoin:round"
     id="path17503"
     sodipodi:nodetypes="sccccssss" />
  <path
     id="rect30"
     d="M 1.5875,0.396875 V 1.5875001 H 0.13229167 V 1.8520834 H 1.5875 V 2.38125 H 0.13229167 V 2.6458334 H 1.5875 V 3.8364583 H 1.8520833 V 2.6458334 H 2.38125 V 3.8364583 H 2.6458334 V 2.6458334 H 4.1010416 V 2.38125 H 2.6458334 V 1.8520834 H 4.1010416 V 1.5875001 H 2.6458334 l -10e-8,-1.1906251 H 2.3812499 l 1e-7,1.1906251 H 1.8520833 V 0.396875 Z M 1.8520833,1.8520834 H 2.38125 V 2.38125 H 1.8520833 Z"
     style="fill:#5ca487;fill-opacity:1;stroke-width:0.132291"
     sodipodi:nodetypes="cccccccccccccccccccccccccccccccccc" />
  <path
     id="rect40"
     d="M 1.5875,0.79374998 V 1.3229167 H 1.8520833 V 0.79374998 Z m 0.79375,0 V 1.3229167 H 2.6458333 V 0.79374998 Z M 0.79374997,1.5875001 V 1.8520834 H 1.3229167 V 1.5875001 Z m 2.11666663,0 V 1.8520834 H 3.4395833 V 1.5875001 Z m -2.11666663,0.79375 V 2.6458334 H 1.3229167 V 2.3812501 Z m 2.11666663,0 V 2.6458334 H 3.4395833 V 2.3812501 Z M 1.5875,2.9104167 V 3.4395833 H 1.8520833 V 2.9104167 Z m 0.79375,0 V 3.4395833 H 2.6458333 V 2.9104167 Z"
     style="opacity:0.8;fill:#eab305;fill-opacity:1;stroke-width:0.132291"
     sodipodi:nodetypes="cccccccccccccccccccccccccccccccccccccccc" />
  <path
     id="rect15502"
     style="fill:#3c3c3c;fill-opacity:1;stroke-width:0.109424;stroke-linejoin:round"
     d="m 1.3229167,1.3229167 h 1.5875 v 1.5875 h -1.5875 z"
     sodipodi:nodetypes="ccccc" />
</svg>
