<?xml version="1.0" encoding="UTF-8" standalone="no"?>
<!-- Created with Inkscape (http://www.inkscape.org/) -->

<svg
   width="16"
   height="16"
   viewBox="0 0 4.2333333 4.2333333"
   version="1.1"
   id="svg1003"
   sodipodi:docname="kmines.svg"
   inkscape:version="1.1.2 (0a00cf5339, 2022-02-04)"
   xmlns:inkscape="http://www.inkscape.org/namespaces/inkscape"
   xmlns:sodipodi="http://sodipodi.sourceforge.net/DTD/sodipodi-0.dtd"
   xmlns:xlink="http://www.w3.org/1999/xlink"
   xmlns="http://www.w3.org/2000/svg"
   xmlns:svg="http://www.w3.org/2000/svg">
  <sodipodi:namedview
     id="namedview1005"
     pagecolor="#ffffff"
     bordercolor="#666666"
     borderopacity="1.0"
     inkscape:pageshadow="2"
     inkscape:pageopacity="0.0"
     inkscape:pagecheckerboard="0"
     inkscape:document-units="px"
     showgrid="false"
     units="px"
     showguides="false"
     inkscape:lockguides="true"
     inkscape:zoom="24.75"
     inkscape:cx="5.030303"
     inkscape:cy="12"
     inkscape:window-width="1920"
     inkscape:window-height="1010"
     inkscape:window-x="0"
     inkscape:window-y="0"
     inkscape:window-maximized="1"
     inkscape:current-layer="svg1003" />
  <defs
     id="defs1000">
    <linearGradient
       inkscape:collect="always"
       xlink:href="#linearGradient1871"
       id="linearGradient16320"
       x1="10"
       y1="4"
       x2="10"
       y2="29.100245"
       gradientUnits="userSpaceOnUse"
       gradientTransform="matrix(0.13229166,0,0,0.12211538,0,0.04070512)" />
    <linearGradient
       inkscape:collect="always"
       id="linearGradient1871">
      <stop
         style="stop-color:#ffffff;stop-opacity:1;"
         offset="0"
         id="stop1867" />
      <stop
         style="stop-color:#ffffff;stop-opacity:0.1"
         offset="0.12"
         id="stop2515" />
      <stop
         style="stop-color:#ffffff;stop-opacity:0.102"
         offset="0.89999998"
         id="stop2581" />
      <stop
         style="stop-color:#ffffff;stop-opacity:0.502"
         offset="1"
         id="stop1869" />
    </linearGradient>
    <linearGradient
       inkscape:collect="always"
       xlink:href="#linearGradient1753"
       id="linearGradient1755"
       x1="0"
       y1="11.112499"
       x2="0"
       y2="0"
       gradientUnits="userSpaceOnUse"
       gradientTransform="matrix(1.2598424,0,0,1.2598424,-1.2992126e-7,0.1666667)" />
    <linearGradient
       inkscape:collect="always"
       id="linearGradient1753">
      <stop
         style="stop-color:#5bdbc1;stop-opacity:1"
         offset="0"
         id="stop1749" />
      <stop
         style="stop-color:#2b898f;stop-opacity:1"
         offset="1"
         id="stop1751" />
    </linearGradient>
  </defs>
  <path
     id="rect877"
     style="display:inline;fill:url(#linearGradient1755);fill-opacity:1;stroke:none;stroke-width:0.125;stroke-linecap:round;stroke-linejoin:round;stroke-miterlimit:4;stroke-dasharray:none;stroke-dashoffset:0;stroke-opacity:1;enable-background:new"
     d="M 4 1.5 C 1.0007323 1.5 0.5 2.279297 0.5 5.25 L 0.5 10.724609 C 0.5 13.695312 1.0007324 14.5 4 14.5 L 12 14.5 C 14.999062 14.500725 15.499796 13.696038 15.5 10.724609 L 15.5 5.25 C 15.499796 2.094308 14.999062 1.5007253 12 1.5 L 4 1.5 z "
     transform="scale(0.26458333)" />
  <path
     id="rect24"
     style="fill:#313131;fill-opacity:1;stroke-width:0.999999"
     d="M 7.8867188 3 C 7.6188221 3.0054425 7.5153386 3.0632199 7.4707031 3.4472656 L 7.4511719 3.6035156 C 7.4063731 3.8879062 7.3979141 4.0162475 7.1289062 4.0859375 C 7.1109157 4.0909265 7.09417 4.093461 7.0761719 4.0976562 C 7.0711829 4.0985361 7.0666953 4.0996094 7.0625 4.0996094 L 7.0625 4.1015625 C 6.9946008 4.1179656 6.9298501 4.1345942 6.8632812 4.1542969 C 6.8520938 4.1572967 6.8406608 4.162803 6.8300781 4.1660156 C 6.8199868 4.1690158 6.810986 4.1708045 6.8007812 4.1738281 C 6.7729639 4.1818407 6.7543705 4.1795875 6.7304688 4.1835938 A 4.0591 4.0591 0 0 0 5.3457031 4.9648438 C 5.3167897 5.0079455 5.2796033 5.0522274 5.2207031 5.1035156 L 5.2265625 5.1015625 C 5.1734639 5.1518642 5.1206634 5.2047631 5.0703125 5.2578125 L 5.0722656 5.25 C 4.8478637 5.5069096 4.7365567 5.4492998 4.4472656 5.3378906 L 4.3027344 5.2773438 C 4.1761051 5.2225444 4.0812194 5.1956611 4.0058594 5.1933594 C 3.840078 5.1873499 3.766799 5.3040746 3.6445312 5.5214844 C 3.4597199 5.8335335 3.4074787 5.9494704 3.7617188 6.2128906 L 3.8867188 6.3066406 C 4.1114797 6.4882998 4.2203788 6.5616416 4.1445312 6.8320312 C 4.1415311 6.8421226 4.1377892 6.8513502 4.1347656 6.8613281 C 4.1317658 6.8703234 4.1263351 6.8841375 4.1230469 6.8945312 C 4.1034311 6.9604311 4.0866136 7.0265009 4.0703125 7.09375 L 4.0683594 7.09375 C 4.0675094 7.098739 4.0664062 7.1032266 4.0664062 7.1074219 C 4.0624 7.1254124 4.0588828 7.1422715 4.0546875 7.1601562 C 4.0422906 7.2077556 4.026267 7.2385609 4.0097656 7.2714844 A 4.0591 4.0591 0 0 0 3.9277344 8.0351562 A 4.0591 4.0591 0 0 0 4.0078125 8.8066406 C 4.0256141 8.8406564 4.0416028 8.8755589 4.0546875 8.9257812 C 4.0596765 8.9437718 4.062211 8.9605137 4.0664062 8.9785156 C 4.0672865 8.9825219 4.0683594 8.9879922 4.0683594 8.9921875 L 4.0703125 8.9921875 C 4.0867156 9.0600867 4.1033442 9.124845 4.1230469 9.1914062 C 4.1260471 9.2025937 4.1297889 9.2139889 4.1328125 9.2246094 C 4.1358127 9.2347007 4.1413187 9.2437015 4.1445312 9.2539062 C 4.2203297 9.5242861 4.111423 9.5956929 3.8867188 9.7773438 L 3.7617188 9.8730469 C 3.4074674 10.136476 3.4597237 10.252403 3.6445312 10.564453 C 3.8223731 10.880524 3.8974838 10.983675 4.3027344 10.808594 L 4.4472656 10.746094 C 4.9015656 10.792295 5.058269 10.819515 5.1308594 10.927734 L 5.1367188 10.921875 A 4.0591 4.0591 0 0 0 6.8007812 11.910156 A 4.0591 4.0591 0 0 0 6.8027344 11.910156 C 6.8117297 11.913156 6.8205915 11.916936 6.8300781 11.919922 C 6.8401695 11.922922 6.8502163 11.926513 6.8613281 11.929688 L 6.8613281 11.927734 C 6.9279272 11.947539 6.9945706 11.968074 7.0625 11.984375 C 7.067489 11.985235 7.0699101 11.986328 7.0742188 11.986328 C 7.0921337 11.991317 7.1109157 11.993814 7.1289062 11.998047 C 7.3979859 12.067745 7.4083754 12.198022 7.453125 12.482422 L 7.4726562 12.634766 C 7.5235551 13.073256 7.6490806 13.088024 8.0117188 13.083984 C 8.3743682 13.087991 8.5017244 13.073893 8.5527344 12.634766 L 8.5722656 12.482422 C 8.6170644 12.19802 8.6234795 12.067747 8.8925781 11.998047 C 8.9105687 11.994041 8.9312206 11.990561 8.9492188 11.986328 C 8.9522186 11.985598 8.9558096 11.984375 8.9589844 11.984375 L 8.9609375 11.984375 C 8.9921564 11.976362 9.021935 11.965233 9.0527344 11.957031 L 9.0527344 11.953125 A 4.0591 4.0591 0 0 0 10.855469 10.908203 L 10.865234 10.914062 C 10.894148 10.885262 10.923075 10.857722 10.951172 10.828125 L 10.951172 10.835938 C 11.175551 10.579028 11.288834 10.636645 11.578125 10.748047 L 11.720703 10.808594 C 12.125943 10.983673 12.201076 10.880573 12.378906 10.564453 C 12.563718 10.252404 12.61597 10.134514 12.261719 9.8710938 L 12.138672 9.7773438 C 11.913903 9.5956921 11.805012 9.5242967 11.880859 9.2539062 C 11.88386 9.2438149 11.887639 9.232672 11.890625 9.2226562 C 11.893625 9.2125649 11.897216 9.2045468 11.900391 9.1933594 L 11.898438 9.1933594 C 11.910419 9.152858 11.920869 9.1113128 11.931641 9.0703125 L 11.912109 9.0585938 A 4.0591 4.0591 0 0 0 12.048828 8.0371094 A 4.0591 4.0591 0 0 0 11.912109 7.0117188 L 11.927734 7.0019531 C 11.917643 6.9655563 11.909134 6.9286575 11.898438 6.8925781 C 11.895438 6.8824868 11.893611 6.8710415 11.890625 6.8613281 C 11.887625 6.8512368 11.883845 6.8420092 11.880859 6.8320312 C 11.805061 6.5616325 11.913968 6.4902526 12.138672 6.3085938 L 12.261719 6.2128906 C 12.61597 5.9494613 12.563718 5.8335146 12.378906 5.5214844 C 12.256646 5.3041729 12.183356 5.1862245 12.017578 5.1914062 C 11.942177 5.193406 11.847351 5.2226237 11.720703 5.2773438 L 11.578125 5.3378906 C 11.127852 5.6029364 11.097017 5.2876007 10.873047 5.1503906 L 10.851562 5.1640625 A 4.0591 4.0591 0 0 0 9.1210938 4.1445312 A 4.0591 4.0591 0 0 0 9.0546875 4.1269531 C 9.023582 4.1189405 8.9942909 4.1090838 8.9628906 4.1015625 C 8.9588843 4.1007027 8.953414 4.0996094 8.9492188 4.0996094 C 8.9313038 4.0946204 8.9146752 4.0921993 8.8964844 4.0878906 C 8.6274236 4.0181924 8.6170266 3.8879158 8.5722656 3.6035156 L 8.5527344 3.4472656 C 8.5017599 3.0087618 8.3763221 2.9959801 8.0136719 3 L 8.0117188 3 C 7.9663871 2.9995 7.9249902 2.9992248 7.8867188 3 z M 7.7304688 13.101562 C 7.5980114 13.114904 7.4921875 13.333217 7.4921875 13.601562 C 7.4921875 13.869905 7.5980114 14.08822 7.7304688 14.101562 C 7.6152479 14.113168 7.5188846 14.280183 7.4960938 14.5 L 8.4863281 14.5 C 8.4639153 14.280201 8.3710711 14.113168 8.2558594 14.101562 C 8.3883167 14.088221 8.4921875 13.869907 8.4921875 13.601562 C 8.4921875 13.324561 8.3806883 13.101562 8.2421875 13.101562 L 7.7421875 13.101562 C 7.737841 13.101562 7.7347419 13.101132 7.7304688 13.101562 z "
     transform="scale(0.26458333)" />
  <path
     id="path22"
     style="opacity:0.2;fill:#81e9c0;fill-opacity:1;stroke-width:0.999999"
     d="M 4.25,6.5 C 2.9874001,6.5 0.5,7.0351464 0.5,7.0351562 V 10.724609 C 0.5,13.695312 1.0007324,14.5 4,14.5 h 8 c 2.999062,7.25e-4 3.499796,-0.803962 3.5,-3.775391 V 7.0351562 c 0,0 -2.4873,0.5371094 -3.75,0.5371094 C 9.2246999,7.5722755 6.7753001,6.5 4.25,6.5 Z"
     transform="scale(0.26458333)"
     sodipodi:nodetypes="ssssccccs" />
  <path
     id="path2935"
     style="opacity:0.2;fill:#81e9c0;fill-opacity:1;stroke-width:0.999999"
     d="M 4.1289062 8.3007812 C 2.8351165 8.3321702 0.5 8.835928 0.5 8.8359375 L 0.5 10.724609 C 0.5 13.695312 1.0007325 14.5 4 14.5 L 12 14.5 C 14.999062 14.500725 15.499796 13.696038 15.5 10.724609 L 15.5 8.8359375 C 15.5 8.8359375 13.0127 9.3730469 11.75 9.3730469 C 9.2246999 9.3730567 6.7752997 8.3007812 4.25 8.3007812 C 4.2105437 8.3007812 4.1706414 8.2997687 4.1289062 8.3007812 z "
     transform="scale(0.26458333)" />
  <path
     id="path3055"
     style="opacity:0.2;fill:#81e9c0;fill-opacity:1;stroke-width:0.264583"
     d="M 4.25 10.199219 C 2.9873999 10.199219 0.5 10.734365 0.5 10.734375 C 0.50112695 13.696877 1.0041038 14.5 4 14.5 L 12 14.5 C 14.995691 14.500724 15.49867 13.6976 15.5 10.734375 C 15.5 10.734375 13.0127 11.271484 11.75 11.271484 C 9.2246996 11.271494 6.7752993 10.199219 4.25 10.199219 z "
     transform="scale(0.26458333)" />
  <path
     id="path30"
     style="stroke-width:0.999999;opacity:0.3;fill:#ffffff"
     d="M 4.25 6.5 C 2.9873999 6.5 0.5 7.0351563 0.5 7.0351562 L 0.5 8.0351562 C 0.5 8.0351562 2.9872998 7.5 4.25 7.5 C 6.7753001 7.5 9.2246999 8.5722656 11.75 8.5722656 C 13.0126 8.5722656 15.5 8.0351563 15.5 8.0351562 L 15.5 7.0351562 C 15.5 7.0351562 13.0126 7.5722656 11.75 7.5722656 C 9.2246999 7.5722656 6.7753001 6.5 4.25 6.5 z M 4.1289062 8.3007812 C 2.8351165 8.3321709 0.5 8.8359375 0.5 8.8359375 L 0.5 9.8359375 C 0.5 9.8359375 2.9872998 9.3007812 4.25 9.3007812 C 6.7753001 9.3007812 9.2246999 10.373047 11.75 10.373047 C 13.0126 10.373047 15.5 9.8359375 15.5 9.8359375 L 15.5 8.8359375 C 15.5 8.8359375 13.0126 9.3730469 11.75 9.3730469 C 9.2246999 9.3730469 6.7753001 8.3007812 4.25 8.3007812 C 4.2105437 8.3007812 4.1706414 8.2997687 4.1289062 8.3007812 z M 4.25 10.199219 C 2.9873998 10.199219 0.5 10.734375 0.5 10.734375 L 0.5 11.734375 C 0.5 11.734375 2.9872997 11.199219 4.25 11.199219 C 6.7753001 11.199219 9.2246999 12.271484 11.75 12.271484 C 13.0126 12.271484 15.5 11.734375 15.5 11.734375 L 15.5 10.734375 C 15.5 10.734375 13.0126 11.271484 11.75 11.271484 C 9.2246999 11.271484 6.7753001 10.199219 4.25 10.199219 z "
     transform="scale(0.26458333)" />
  <path
     id="rect13250"
     style="opacity:1;fill:url(#linearGradient16320);fill-opacity:1;stroke-width:0.127101;stroke-linejoin:round"
     d="M 0.94929604,0.52916666 C 0.4275256,0.53207345 0.26458333,0.5787759 0.26458333,1.3229166 v 0.1829346 1.2216309 0.1829345 c 0,0.79375 0.21166674,0.79375 0.79374997,0.79375 H 1.3229166 3.175 c 0.5820833,0 0.79375,0 0.79375,-0.79375 V 2.7274821 1.5058512 1.3229166 C 3.96875,0.52916642 3.7570833,0.52916666 3.175,0.52916666 H 1.3229166 Z m 0.0847494,0.26458333 c 0.0079,-4.458e-5 0.016138,0 0.024288,0 H 3.175 c 0.5216072,0 0.5291666,0.0892859 0.5291666,0.52916661 v 1.5875 c 0,0.4398807 -0.00756,0.5291667 -0.5291666,0.5291667 H 1.0583333 c -0.52160723,0 -0.52916664,-0.089286 -0.52916664,-0.5291667 v -1.5875 c 0,-0.4330075 0.007113,-0.52635721 0.50487874,-0.52916661 z"
     sodipodi:nodetypes="csccsscssccssccssssssssss" />
  <path
     id="rect7040"
     style="opacity:0.4;stroke-width:0.264583;stroke-linejoin:round"
     d="M 1.0583333,0.26458333 C 0.21187339,0.26458333 0,0.47645663 0,1.3229166 v 1.5875 C 0,3.7568766 0.21187339,3.96875 1.0583333,3.96875 H 3.175 C 4.021402,3.9689566 4.2332756,3.7570833 4.2333333,2.9104166 v -1.5875 C 4.2332756,0.42374666 4.021402,0.26478997 3.175,0.26458333 Z M 0.94929604,0.52916666 H 1.3229166 3.175 c 0.5820833,0 0.79375,-2.9e-7 0.79375,0.79374994 v 0.1829346 1.2216309 0.1829345 c 0,0.79375 -0.2116667,0.79375 -0.79375,0.79375 H 1.3229166 1.0583333 c -0.5820832,0 -0.79374997,0 -0.79374997,-0.79375 V 2.7274821 1.5058512 1.3229166 c 0,-0.74414078 0.16294232,-0.79084294 0.68471271,-0.79374994 z"
     sodipodi:nodetypes="ssssccccsccssccsscssccsc" />
</svg>
