<?xml version="1.0" encoding="UTF-8" standalone="no"?>
<!-- Created with Inkscape (http://www.inkscape.org/) -->

<svg
   width="16"
   height="16"
   viewBox="0 0 4.2333333 4.2333333"
   version="1.1"
   id="svg1003"
   sodipodi:docname="lastfm.svg"
   inkscape:version="1.1.2 (0a00cf5339, 2022-02-04)"
   xmlns:inkscape="http://www.inkscape.org/namespaces/inkscape"
   xmlns:sodipodi="http://sodipodi.sourceforge.net/DTD/sodipodi-0.dtd"
   xmlns:xlink="http://www.w3.org/1999/xlink"
   xmlns="http://www.w3.org/2000/svg"
   xmlns:svg="http://www.w3.org/2000/svg">
  <sodipodi:namedview
     id="namedview1005"
     pagecolor="#ffffff"
     bordercolor="#666666"
     borderopacity="1.0"
     inkscape:pageshadow="2"
     inkscape:pageopacity="0.0"
     inkscape:pagecheckerboard="0"
     inkscape:document-units="px"
     showgrid="false"
     units="px"
     showguides="true"
     inkscape:lockguides="true"
     inkscape:zoom="35.001786"
     inkscape:cx="6.3282485"
     inkscape:cy="9.71379"
     inkscape:window-width="1920"
     inkscape:window-height="998"
     inkscape:window-x="0"
     inkscape:window-y="0"
     inkscape:window-maximized="1"
     inkscape:current-layer="svg1003" />
  <defs
     id="defs1000">
    <linearGradient
       inkscape:collect="always"
       id="linearGradient17934">
      <stop
         style="stop-color:#da4452;stop-opacity:1"
         offset="0"
         id="stop17930" />
      <stop
         style="stop-color:#f22c42;stop-opacity:1"
         offset="1"
         id="stop17932" />
    </linearGradient>
    <linearGradient
       inkscape:collect="always"
       xlink:href="#linearGradient1871"
       id="linearGradient16320"
       x1="10"
       y1="4"
       x2="10"
       y2="29.100245"
       gradientUnits="userSpaceOnUse"
       gradientTransform="matrix(0.13229166,0,0,0.12211538,0,0.04070512)" />
    <linearGradient
       inkscape:collect="always"
       id="linearGradient1871">
      <stop
         style="stop-color:#ffffff;stop-opacity:1;"
         offset="0"
         id="stop1867" />
      <stop
         style="stop-color:#ffffff;stop-opacity:0.1"
         offset="0.12"
         id="stop2515" />
      <stop
         style="stop-color:#ffffff;stop-opacity:0.102"
         offset="0.89999998"
         id="stop2581" />
      <stop
         style="stop-color:#ffffff;stop-opacity:0.502"
         offset="1"
         id="stop1869" />
    </linearGradient>
    <linearGradient
       inkscape:collect="always"
       xlink:href="#linearGradient17934"
       id="linearGradient17936"
       x1="1.0583333"
       y1="0.39687499"
       x2="3.1763365"
       y2="3.8377948"
       gradientUnits="userSpaceOnUse" />
  </defs>
  <path
     d="M 1.0583333,0.396875 H 3.175 c 0.7935019,1.919e-4 0.9259876,0.157244 0.9260416,0.9921875 V 2.8376562 C 4.1009876,3.6238466 3.9685019,3.8366501 3.175,3.8364583 H 1.0583333 c -0.79355622,0 -0.92604169,-0.2128036 -0.92604169,-0.9988021 V 1.3890625 c 0,-0.7859985 0.13248546,-0.9921875 0.92604169,-0.9921875 z"
     style="fill:url(#linearGradient17936);fill-opacity:1;stroke-width:0.0653156;stroke-linejoin:round"
     id="path17503"
     sodipodi:nodetypes="sccccssss" />
  <path
     id="rect1196"
     style="fill:#ffffff;fill-opacity:1;stroke-width:0.999999;stroke-linecap:round;stroke-linejoin:round;opacity:0.05"
     d="M 0.5 8 L 0.5 10.724609 C 0.5 13.695312 1.0007324 14.5 4 14.5 L 12 14.5 C 14.999062 14.500725 15.499796 13.696038 15.5 10.724609 L 15.5 8 L 0.5 8 z "
     transform="scale(0.26458333)" />
  <path
     d="M 1.5946036,2.904149 C 1.5522544,2.8983282 1.4769196,2.8734573 1.4266726,2.848904 1.0992772,2.6895719 0.965398,2.2882784 1.1266351,1.9502732 1.3108565,1.5637699 1.8135199,1.465239 2.1159915,1.7563601 c 0.087469,0.084032 0.1263147,0.1557602 0.2580058,0.4737629 0.1374722,0.3325548 0.1628828,0.3848364 0.2074307,0.4291806 0.047726,0.047149 0.091948,0.063024 0.1765644,0.063024 0.13902,0 0.238297,-0.08726 0.238297,-0.2090472 0,-0.1030817 -0.035671,-0.1360752 -0.2176119,-0.2016655 C 2.5016058,2.210094 2.4118592,2.118363 2.4115417,1.9341336 c 0,-0.098266 0.024514,-0.1638035 0.086815,-0.2317221 0.089424,-0.096943 0.2436733,-0.1289579 0.3801797,-0.080804 0.058229,0.020902 0.1800675,0.1305189 0.1800675,0.1618721 0,0.015346 -0.070609,0.061727 -0.1097835,0.072734 -0.020685,0.00556 -0.038521,-0.00265 -0.062384,-0.024871 -0.048376,-0.047175 -0.081116,-0.061727 -0.13902,-0.061727 -0.099928,0 -0.1619065,0.061066 -0.1619065,0.1596496 0,0.098293 0.039418,0.1315508 0.2363444,0.199046 0.2713566,0.093054 0.3514989,0.1771121 0.3531393,0.3716073 0.00164,0.1680104 -0.07289,0.2891896 -0.2211123,0.3609181 -0.067434,0.032359 -0.090318,0.036486 -0.2004271,0.036486 -0.157181,0 -0.2277904,-0.029713 -0.3159125,-0.1305455 C 2.3783338,2.6989382 2.3182311,2.5716207 2.1257837,2.1068801 2.0459722,1.9143163 1.9435176,1.819913 1.7726444,1.7827655 c -0.086572,-0.018785 -0.2071053,0 -0.2856971,0.040719 -0.076637,0.040693 -0.1622319,0.1325033 -0.2026259,0.216482 -0.03339,0.068157 -0.036568,0.08726 -0.036568,0.2058194 0,0.1130829 0.00448,0.1398852 0.032414,0.20193 0.042349,0.094721 0.1256638,0.182245 0.2172864,0.2293938 0.066212,0.03392 0.086818,0.038126 0.1924473,0.038126 0.1014757,0 0.1275371,-0.00476 0.1880473,-0.034237 0.069062,-0.034263 0.1619065,-0.1182952 0.1997763,-0.181266 l 0.019709,-0.032676 0.038846,0.09017 c 0.021664,0.049821 0.039092,0.096626 0.039092,0.1050661 0,0.024871 -0.087794,0.1063096 -0.1682592,0.1570302 C 1.8849491,2.89592 1.7446273,2.9246272 1.5947859,2.903937"
     style="fill:#ffffff;stroke-width:0.264583"
     id="path874" />
  <path
     id="rect7040"
     style="opacity:0.4;stroke-width:0.264583;stroke-linejoin:round"
     d="M 1.0583333,0.26458333 C 0.21187339,0.26458333 0,0.47645663 0,1.3229166 v 1.5875 C 0,3.7568766 0.21187339,3.96875 1.0583333,3.96875 H 3.175 C 4.021402,3.9689566 4.2332756,3.7570833 4.2333333,2.9104166 v -1.5875 C 4.2332756,0.42374666 4.021402,0.26478997 3.175,0.26458333 Z M 0.94929604,0.52916666 H 1.3229166 3.175 c 0.5820833,0 0.79375,-2.9e-7 0.79375,0.79374994 v 0.1829346 1.2216309 0.1829345 c 0,0.79375 -0.2116667,0.79375 -0.79375,0.79375 H 1.3229166 1.0583333 c -0.5820832,0 -0.79374997,0 -0.79374997,-0.79375 V 2.7274821 1.5058512 1.3229166 c 0,-0.74414078 0.16294232,-0.79084294 0.68471271,-0.79374994 z"
     sodipodi:nodetypes="ssssccccsccssccsscssccsc" />
  <path
     id="rect13250"
     style="opacity:1;fill:url(#linearGradient16320);fill-opacity:1;stroke-width:0.127101;stroke-linejoin:round"
     d="M 0.94929604,0.52916666 C 0.4275256,0.53207345 0.26458333,0.5787759 0.26458333,1.3229166 v 0.1829346 1.2216309 0.1829345 c 0,0.79375 0.21166674,0.79375 0.79374997,0.79375 H 1.3229166 3.175 c 0.5820833,0 0.79375,0 0.79375,-0.79375 V 2.7274821 1.5058512 1.3229166 C 3.96875,0.52916642 3.7570833,0.52916666 3.175,0.52916666 H 1.3229166 Z m 0.0847494,0.26458333 c 0.0079,-4.458e-5 0.016138,0 0.024288,0 H 3.175 c 0.5216072,0 0.5291666,0.0892859 0.5291666,0.52916661 v 1.5875 c 0,0.4398807 -0.00756,0.5291667 -0.5291666,0.5291667 H 1.0583333 c -0.52160723,0 -0.52916664,-0.089286 -0.52916664,-0.5291667 v -1.5875 c 0,-0.4330075 0.007113,-0.52635721 0.50487874,-0.52916661 z"
     sodipodi:nodetypes="csccsscssccssccssssssssss" />
</svg>
