<?xml version="1.0" encoding="UTF-8" standalone="no"?>
<!-- Created with Inkscape (http://www.inkscape.org/) -->

<svg
   width="16"
   height="16"
   viewBox="0 0 4.2333333 4.2333333"
   version="1.1"
   id="svg1003"
   sodipodi:docname="multimedia-audio-player.svg"
   inkscape:version="1.1.2 (0a00cf5339, 2022-02-04)"
   xmlns:inkscape="http://www.inkscape.org/namespaces/inkscape"
   xmlns:sodipodi="http://sodipodi.sourceforge.net/DTD/sodipodi-0.dtd"
   xmlns:xlink="http://www.w3.org/1999/xlink"
   xmlns="http://www.w3.org/2000/svg"
   xmlns:svg="http://www.w3.org/2000/svg">
  <sodipodi:namedview
     id="namedview1005"
     pagecolor="#ffffff"
     bordercolor="#666666"
     borderopacity="1.0"
     inkscape:pageshadow="2"
     inkscape:pageopacity="0.0"
     inkscape:pagecheckerboard="0"
     inkscape:document-units="px"
     showgrid="false"
     units="px"
     showguides="true"
     inkscape:lockguides="true"
     inkscape:zoom="28.285713"
     inkscape:cx="4.6136366"
     inkscape:cy="10.252526"
     inkscape:window-width="1920"
     inkscape:window-height="1010"
     inkscape:window-x="0"
     inkscape:window-y="0"
     inkscape:window-maximized="1"
     inkscape:current-layer="svg1003" />
  <defs
     id="defs1000">
    <linearGradient
       inkscape:collect="always"
       id="linearGradient17934">
      <stop
         style="stop-color:#e72662;stop-opacity:1"
         offset="0"
         id="stop17930" />
      <stop
         style="stop-color:#ec3c50;stop-opacity:1"
         offset="0.5"
         id="stop1004" />
      <stop
         style="stop-color:#ff376b;stop-opacity:1"
         offset="1"
         id="stop17932" />
    </linearGradient>
    <linearGradient
       inkscape:collect="always"
       xlink:href="#linearGradient1871"
       id="linearGradient16320"
       x1="10"
       y1="4"
       x2="10"
       y2="29.100245"
       gradientUnits="userSpaceOnUse"
       gradientTransform="matrix(0.13229166,0,0,0.12211538,0,0.04070512)" />
    <linearGradient
       inkscape:collect="always"
       id="linearGradient1871">
      <stop
         style="stop-color:#ffffff;stop-opacity:1;"
         offset="0"
         id="stop1867" />
      <stop
         style="stop-color:#ffffff;stop-opacity:0.1"
         offset="0.12"
         id="stop2515" />
      <stop
         style="stop-color:#ffffff;stop-opacity:0.102"
         offset="0.89999998"
         id="stop2581" />
      <stop
         style="stop-color:#ffffff;stop-opacity:0.502"
         offset="1"
         id="stop1869" />
    </linearGradient>
    <linearGradient
       inkscape:collect="always"
       xlink:href="#linearGradient17934"
       id="linearGradient17936"
       x1="0"
       y1="0"
       x2="4.2333331"
       y2="4.2333331"
       gradientUnits="userSpaceOnUse" />
  </defs>
  <path
     d="M 1.0583333,0.396875 H 3.175 c 0.7935019,1.919e-4 0.9259876,0.157244 0.9260416,0.9921875 V 2.8376562 C 4.1009876,3.6238466 3.9685019,3.8366501 3.175,3.8364583 H 1.0583333 c -0.79355622,0 -0.92604169,-0.2128036 -0.92604169,-0.9988021 V 1.3890625 c 0,-0.7859985 0.13248546,-0.9921875 0.92604169,-0.9921875 z"
     style="fill:url(#linearGradient17936);fill-opacity:1;stroke-width:0.0653156;stroke-linejoin:round"
     id="path17503"
     sodipodi:nodetypes="sccccssss" />
  <path
     style="color:#000000;opacity:0.05;fill:#000000;fill-rule:evenodd;-inkscape-stroke:none;stroke:none"
     d="m 2.8535156,0.79492187 c -0.043018,-0.002631 -0.073651,-5.4318e-4 -0.1015625,0.001953 l -0.00977,0.001953 L 1.662105,0.96679663 C 1.5613055,0.97707474 1.43908,1.0196838 1.3632812,1.1210937 1.2874825,1.2225037 1.2902059,1.3218179 1.2910156,1.375 v 1.1191406 c -0.1597343,0.017274 -0.31698824,0.081905 -0.3925781,0.1875 -0.086313,0.1205959 -0.10546875,0.2424877 -0.10546875,0.3417969 0,0.1285757 0.0424912,0.2631367 0.14257813,0.3730469 0.0995284,0.1092836 0.26303532,0.1796844 0.43554682,0.1796875 0.1744524,0 0.3647466,-0.057583 0.4765625,-0.2109375 0.037227,-0.051057 0.038123,-0.1101499 0.056641,-0.1660156 h 0.066406 V 1.9082031 L 2.4960938,1.8261719 V 2.34375 C 2.3363598,2.361023 2.1791049,2.425648 2.1035156,2.53125 2.0172076,2.6518363 1.9980469,2.7737301 1.9980469,2.8730469 c 0,0.1285757 0.042474,0.2631351 0.1425781,0.3730469 0.099525,0.1092872 0.2610837,0.1796828 0.4335938,0.1796875 0.1744594,0 0.3667008,-0.057599 0.4785156,-0.2109375 0.037229,-0.051061 0.038125,-0.1101506 0.056641,-0.1660157 h 0.066406 V 1.1972656 1.1933594 C 3.1771098,1.1226949 3.1790546,1.0502918 3.1210938,0.953125 3.0622362,0.85445486 2.9244701,0.7997997 2.8554688,0.79492187 Z M 2.5332031,2.8398438 c -0.00215,0.00301 -0.036953,0.00977 0.00977,0.00977 0.030953,0 0.034262,4.254e-4 0.072266,0.025391 l 0.013672,0.00977 c -0.00109,0.00233 -0.00379,0.017414 -0.00391,0.017578 0.012199,-0.01673 0.025267,-0.00586 -0.050781,-0.00586 -0.049332,-1.4e-6 -0.040185,-0.0069 -0.041016,-0.00781 -2.518e-4,-2.766e-4 -0.00586,-0.00871 -0.00586,-0.015625 0,-0.013046 0.00963,-0.038468 0.00586,-0.033203 z M 1.328125,2.9902344 C 1.3259753,2.9932374 1.291185,3 1.3378906,3 c 0.030952,0 0.034261,4.238e-4 0.072266,0.025391 l 0.013672,0.00977 c -0.0011,0.00233 -0.00378,0.017411 -0.00391,0.017578 0.012206,-0.01674 0.027227,-0.00586 -0.048828,-0.00586 -0.049325,-9e-7 -0.042145,-0.00691 -0.042969,-0.00781 -2.629e-4,-2.887e-4 -0.00586,-0.00871 -0.00586,-0.015625 0,-0.013043 0.00964,-0.038483 0.00586,-0.033203 z"
     id="path1849" />
  <path
     d="m 2.836992,1.3232945 c -0.01733,-0.00106 -0.03773,2.302e-4 -0.061767,0.00238 L 1.6895602,1.4950988 C 1.5670767,1.5075871 1.5537575,1.5647477 1.5548423,1.6359947 v 1.4336451 c -0.062254,-0.040897 -0.1288785,-0.070006 -0.2176621,-0.070006 -0.1143212,0 -0.1825704,0.043823 -0.2238428,0.1014783 -0.041267,0.057658 -0.055004,0.1303072 -0.055004,0.1864835 0,0.067747 0.023363,0.1399196 0.073538,0.1950191 0.050176,0.055094 0.1273334,0.093827 0.238252,0.093829 0.1252538,0 0.2131563,-0.034936 0.2629615,-0.1032431 0.039214,-0.053782 0.061092,-0.1258038 0.068829,-0.2144289 0.00106,-0.010742 0.00185,-0.021881 0.00238,-0.033237 7.937e-4,-0.009 7.937e-4,-0.015319 7.937e-4,-0.025876 h 5.292e-4 V 2.0395665 C 1.7089468,1.9462877 1.793565,1.9325002 1.793565,1.9325002 L 2.6751038,1.7948428 c 0.084624,-0.025876 0.084714,0.07883 0.084714,0.07883 v 1.0453688 c -0.062256,-0.040897 -0.128881,-0.070003 -0.2176619,-0.070003 -0.1143264,0 -0.1825731,0.04382 -0.2238428,0.1014757 -0.04127,0.057661 -0.055009,0.1303046 -0.055009,0.1864863 0,0.067747 0.023363,0.1399196 0.073541,0.1950137 0.050178,0.0551 0.1273308,0.093832 0.238252,0.093835 0.1252538,0 0.2131563,-0.034941 0.2629641,-0.1032458 0.039211,-0.053779 0.061087,-0.125804 0.068823,-0.2144262 0.00106,-0.010769 0.00185,-0.021881 0.00238,-0.03324 7.938e-4,-0.009 7.938e-4,-0.015319 7.938e-4,-0.025876 h 5.291e-4 V 1.4574594 C 2.9124371,1.3542031 2.8894481,1.3270145 2.8373501,1.3233315 Z"
     style="color:#000000;font-variant-ligatures:normal;font-variant-position:normal;font-variant-caps:normal;font-variant-numeric:normal;font-variant-alternates:normal;font-feature-settings:normal;text-indent:0;text-decoration-line:none;text-decoration-style:solid;text-decoration-color:#000000;text-transform:none;text-orientation:mixed;dominant-baseline:auto;white-space:normal;shape-padding:0;opacity:0.1;isolation:auto;mix-blend-mode:normal;solid-color:#000000;fill:#000000;fill-rule:evenodd;stroke-width:0.0700042;color-rendering:auto;image-rendering:auto;shape-rendering:auto"
     id="path1333"
     sodipodi:nodetypes="cccccscsccscccccccccscscccccccccc" />
  <path
     d="m 2.8369921,1.0587103 c -0.01733,-0.00106 -0.03773,2.302e-4 -0.061767,0.00238 L 1.6895603,1.2305146 C 1.5670768,1.2430029 1.5537576,1.3001635 1.5548424,1.3714105 v 1.433645 c -0.062254,-0.040897 -0.1288785,-0.070006 -0.2176621,-0.070006 -0.1143212,0 -0.1825704,0.043823 -0.2238428,0.1014783 -0.041267,0.057658 -0.055004,0.1303073 -0.055004,0.1864836 0,0.067747 0.023363,0.1399196 0.073538,0.1950191 0.050176,0.055094 0.1273334,0.093827 0.238252,0.093829 0.1252538,0 0.2131563,-0.034936 0.2629615,-0.1032431 0.039214,-0.053782 0.061092,-0.125804 0.068829,-0.2144289 0.00106,-0.010742 0.00185,-0.021881 0.00238,-0.033237 7.937e-4,-0.009 7.937e-4,-0.015319 7.937e-4,-0.025876 h 5.294e-4 V 1.7749823 C 1.7089471,1.6817035 1.7935651,1.667916 1.7935651,1.667916 L 2.6751038,1.5302586 c 0.084624,-0.025876 0.084714,0.07883 0.084714,0.07883 V 2.6544573 C 2.6975618,2.6135607 2.6309369,2.5844539 2.542156,2.5844539 c -0.1143264,0 -0.1825731,0.04382 -0.2238428,0.1014756 -0.04127,0.057661 -0.055009,0.1303047 -0.055009,0.1864863 0,0.067747 0.023363,0.1399196 0.073541,0.1950138 0.050178,0.0551 0.1273308,0.093832 0.238252,0.093835 0.1252538,0 0.2131563,-0.034941 0.2629641,-0.1032457 0.039211,-0.053779 0.061087,-0.1258041 0.068823,-0.2144263 0.00106,-0.010769 0.00185,-0.021881 0.00238,-0.03324 7.937e-4,-0.009 7.937e-4,-0.015319 7.937e-4,-0.025876 h 5.292e-4 V 1.1928752 C 2.9124372,1.0896189 2.8894482,1.0624303 2.8373492,1.0587473 Z"
     style="color:#000000;font-variant-ligatures:normal;font-variant-position:normal;font-variant-caps:normal;font-variant-numeric:normal;font-variant-alternates:normal;font-feature-settings:normal;text-indent:0;text-decoration-line:none;text-decoration-style:solid;text-decoration-color:#000000;text-transform:none;text-orientation:mixed;dominant-baseline:auto;white-space:normal;shape-padding:0;isolation:auto;mix-blend-mode:normal;solid-color:#000000;fill:#ffffff;fill-rule:evenodd;stroke-width:0.264583;color-rendering:auto;image-rendering:auto;shape-rendering:auto"
     id="path878"
     sodipodi:nodetypes="cccccscsccscccccccccscscccccccccc" />
  <path
     id="rect13250"
     style="opacity:0.699;fill:url(#linearGradient16320);fill-opacity:1;stroke-width:0.127101;stroke-linejoin:round"
     d="M 0.94929604,0.52916666 C 0.4275256,0.53207345 0.26458333,0.5787759 0.26458333,1.3229166 v 0.1829346 1.2216309 0.1829345 c 0,0.79375 0.21166674,0.79375 0.79374997,0.79375 H 1.3229166 3.175 c 0.5820833,0 0.79375,0 0.79375,-0.79375 V 2.7274821 1.5058512 1.3229166 C 3.96875,0.52916642 3.7570833,0.52916666 3.175,0.52916666 H 1.3229166 Z m 0.0847494,0.26458333 c 0.0079,-4.458e-5 0.016138,0 0.024288,0 H 3.175 c 0.5216072,0 0.5291666,0.0892859 0.5291666,0.52916661 v 1.5875 c 0,0.4398807 -0.00756,0.5291667 -0.5291666,0.5291667 H 1.0583333 c -0.52160723,0 -0.52916664,-0.089286 -0.52916664,-0.5291667 v -1.5875 c 0,-0.4330075 0.007113,-0.52635721 0.50487874,-0.52916661 z"
     sodipodi:nodetypes="csccsscssccssccssssssssss" />
  <path
     id="rect7040"
     style="opacity:0.4;stroke-width:0.264583;stroke-linejoin:round"
     d="M 1.0583333,0.26458333 C 0.21187339,0.26458333 0,0.47645663 0,1.3229166 v 1.5875 C 0,3.7568766 0.21187339,3.96875 1.0583333,3.96875 H 3.175 C 4.021402,3.9689566 4.2332756,3.7570833 4.2333333,2.9104166 v -1.5875 C 4.2332756,0.42374666 4.021402,0.26478997 3.175,0.26458333 Z M 0.94929604,0.52916666 H 1.3229166 3.175 c 0.5820833,0 0.79375,-2.9e-7 0.79375,0.79374994 v 0.1829346 1.2216309 0.1829345 c 0,0.79375 -0.2116667,0.79375 -0.79375,0.79375 H 1.3229166 1.0583333 c -0.5820832,0 -0.79374997,0 -0.79374997,-0.79375 V 2.7274821 1.5058512 1.3229166 c 0,-0.74414078 0.16294232,-0.79084294 0.68471271,-0.79374994 z"
     sodipodi:nodetypes="ssssccccsccssccsscssccsc" />
</svg>
