<?xml version="1.0" encoding="UTF-8" standalone="no"?>
<!-- Created with Inkscape (http://www.inkscape.org/) -->

<svg
   width="24"
   height="24"
   viewBox="0 0 6.3499999 6.3500002"
   version="1.1"
   id="svg5013"
   sodipodi:docname="accessories-character-map.svg"
   inkscape:version="1.1.2 (0a00cf5339, 2022-02-04)"
   xmlns:inkscape="http://www.inkscape.org/namespaces/inkscape"
   xmlns:sodipodi="http://sodipodi.sourceforge.net/DTD/sodipodi-0.dtd"
   xmlns:xlink="http://www.w3.org/1999/xlink"
   xmlns="http://www.w3.org/2000/svg"
   xmlns:svg="http://www.w3.org/2000/svg">
  <sodipodi:namedview
     id="namedview5015"
     pagecolor="#ffffff"
     bordercolor="#666666"
     borderopacity="1.0"
     inkscape:pageshadow="2"
     inkscape:pageopacity="0.0"
     inkscape:pagecheckerboard="0"
     inkscape:document-units="px"
     showgrid="false"
     units="px"
     showguides="true"
     inkscape:zoom="34.17336"
     inkscape:cx="12.012281"
     inkscape:cy="12.495113"
     inkscape:window-width="1920"
     inkscape:window-height="1010"
     inkscape:window-x="0"
     inkscape:window-y="0"
     inkscape:window-maximized="1"
     inkscape:current-layer="svg5013" />
  <defs
     id="defs5010">
    <linearGradient
       inkscape:collect="always"
       id="linearGradient958">
      <stop
         style="stop-color:#000000;stop-opacity:1;"
         offset="0"
         id="stop954" />
      <stop
         style="stop-color:#000000;stop-opacity:0;"
         offset="1"
         id="stop956" />
    </linearGradient>
    <linearGradient
       inkscape:collect="always"
       xlink:href="#linearGradient1871"
       id="linearGradient1873"
       x1="11.046622"
       y1="2.3372049"
       x2="10.794909"
       y2="47.930588"
       gradientUnits="userSpaceOnUse"
       gradientTransform="matrix(0.12026516,0,0,0.11615853,0.28863637,0.25496375)" />
    <linearGradient
       inkscape:collect="always"
       id="linearGradient1871">
      <stop
         style="stop-color:#ffffff;stop-opacity:1;"
         offset="0"
         id="stop1867" />
      <stop
         style="stop-color:#ffffff;stop-opacity:0.1"
         offset="0.12"
         id="stop2515" />
      <stop
         style="stop-color:#ffffff;stop-opacity:0.102"
         offset="0.89999998"
         id="stop2581" />
      <stop
         style="stop-color:#ffffff;stop-opacity:0.502"
         offset="1"
         id="stop1869" />
    </linearGradient>
    <linearGradient
       inkscape:collect="always"
       xlink:href="#linearGradient958"
       id="linearGradient960"
       x1="3.1750002"
       y1="3.175"
       x2="3.7041669"
       y2="3.175"
       gradientUnits="userSpaceOnUse" />
  </defs>
  <path
     d="M 1.5275554,0.79381578 C 0.28822009,0.80313578 1.9010417e-7,1.1116258 1.9010417e-7,2.3813158 v 2.381217 c 0,1.289844 0.29765619989583,1.5875 1.58750000989583,1.5875 h 3.1749977 c 1.2898438,0 1.5875,-0.297656 1.5875,-1.5875 v -2.381217 c 0,-1.2898437 -0.2976562,-1.58750002 -1.5875,-1.58750002 H 1.5875002 c -0.020153,0 -0.040273,-1.48e-4 -0.059945,0 z"
     style="opacity:0.1;fill:#000000;stroke-width:0.264583;stroke-linecap:round;stroke-linejoin:round"
     id="path9125"
     sodipodi:nodetypes="cssssssssc" />
  <path
     id="rect7669"
     style="fill:#808080;stroke-width:0.264583;stroke-linecap:round;stroke-linejoin:round"
     d="M 1.7973064,0.66145835 C 0.66124888,0.67000474 0.39687501,0.95278432 0.39687501,2.1166667 v 2.1166667 c 0,1.1638823 0.26437379,1.4466584 1.40043139,1.4552084 h 0.054777 2.6458334 c 1.1823568,0 1.4552083,-0.2728518 1.4552083,-1.4552084 V 2.1166667 c 0,-1.1823567 -0.2728515,-1.45520835 -1.4552083,-1.45520835 H 1.8520834 c -0.018474,0 -0.036744,-1.3565e-4 -0.054777,0 z" />
  <path
     id="rect6397"
     style="fill:#f6f5f4;fill-opacity:1;stroke-width:0.182227;stroke-linejoin:round"
     d="M 1.532723,0.39693532 C 0.39666551,0.40548163 0.13229168,0.68826121 0.13229168,1.8521437 v 2.6458334 c 0,1.1638823 0.26437373,1.4466584 1.40043132,1.4552084 H 1.5875 4.7624975 c 1.1823568,0 1.4552083,-0.2728518 1.4552083,-1.4552084 V 1.8521437 c 0,-1.18235679 -0.2728515,-1.45520838 -1.4552083,-1.45520838 H 1.5875 c -0.018474,0 -0.036744,-1.3571e-4 -0.054777,0 z"
     sodipodi:nodetypes="cssccsssssc" />
  <path
     id="rect1310"
     style="fill:#3584e4;fill-opacity:1;stroke-width:0.529167;stroke-linecap:round;stroke-linejoin:round"
     d="m 3.1750003,0.396875 v 5.5562501 h 1.5875 c 1.1823568,0 1.4552084,-0.2728518 1.4552084,-1.4552084 V 1.8520833 c 0,-1.18235681 -0.2728516,-1.4552083 -1.4552084,-1.4552083 z" />
  <path
     id="rect1487"
     style="opacity:0.1;fill:#ffffff;fill-opacity:1;stroke-width:2;stroke-linecap:round;stroke-linejoin:round"
     d="M 12 12 L 12 22.5 L 18 22.5 C 22.46875 22.5 23.5 21.468749 23.5 17 L 23.5 12 L 12 12 z "
     transform="scale(0.26458334)" />
  <rect
     style="opacity:0.05;fill:url(#linearGradient960);fill-opacity:1;stroke-width:0.133895;stroke-linejoin:round"
     id="rect2208"
     width="0.5291667"
     height="5.5562501"
     x="3.1750002"
     y="0.39687499" />
  <path
     id="rect38"
     d="m 4.8101927,2.1166667 c -0.026749,0.0027 -0.047542,0.025226 -0.047542,0.05271 v 0.1586466 c 0,0.029316 0.023394,0.053227 0.05271,0.053227 H 4.974524 c 0.029316,0 0.05271,-0.023911 0.05271,-0.053227 V 2.1693767 c 0,-0.029316 -0.023394,-0.05271 -0.05271,-0.05271 H 4.8153603 c -0.00183,0 -0.00338,-1.8e-4 -0.00517,0 z M 4.5456094,2.3812501 c -0.026749,0.0027 -0.047543,0.025226 -0.047543,0.05271 v 0.1586467 c 0,0.029316 0.023394,0.053227 0.05271,0.053227 h 0.1591632 c 0.029316,0 0.05271,-0.023911 0.05271,-0.053227 V 2.43396 c 0,-0.029316 -0.023394,-0.05271 -0.05271,-0.05271 H 4.550777 c -0.00183,0 -0.00338,-1.801e-4 -0.00517,0 z m 0.5291667,0 c -0.026749,0.0027 -0.047543,0.025226 -0.047543,0.05271 v 0.1586467 c 0,0.029316 0.023394,0.053227 0.05271,0.053227 h 0.1591638 c 0.029316,0 0.05271,-0.023911 0.05271,-0.053227 V 2.43396 c 0,-0.029316 -0.023394,-0.05271 -0.05271,-0.05271 H 5.0799436 c -0.00183,0 -0.00338,-1.801e-4 -0.00517,0 z m 0.418579,0.3731037 -0.2526977,0.078031 c 0,0 0.025268,0.083504 0.037724,0.1767335 0.00623,0.046615 0.00877,0.095067 0.00517,0.129191 -0.00265,0.025077 -0.00977,0.038988 -0.011369,0.042892 -0.00437,0.00169 -0.017441,0.00735 -0.040824,0.00982 -0.033556,0.00354 -0.081103,0.00151 -0.1271238,-0.00465 -0.042758,-0.00571 -0.049795,-0.010133 -0.081132,-0.017571 V 2.8990468 h -0.264587 v 0.274402 c -0.050191,0.011954 -0.1129734,0.022236 -0.1312582,0.02222 -0.01778,-1.32e-5 -0.079671,-0.010414 -0.129191,-0.02222 V 2.9104167 H 4.2334831 v 0.4625042 0.1353923 c -0.028576,0.1047697 -0.086555,0.1658429 -0.1328084,0.1850014 -0.047681,0.019751 -0.07456,0.017963 -0.1116211,-0.028939 l -0.00465,-0.0062 -0.00569,-0.00568 c -0.010581,-0.010581 -0.029196,-0.048278 -0.035657,-0.1095541 -0.00646,-0.061276 -0.0023,-0.1397868 0.00775,-0.214974 0.02009,-0.1503744 0.060978,-0.2837037 0.060978,-0.2837037 L 3.7590923,2.9662277 c 0,0 -0.046715,0.1502071 -0.07028,0.3265948 -0.011782,0.088194 -0.018695,0.184019 -0.00878,0.2780194 0.00967,0.091676 0.036678,0.1861415 0.1090371,0.2619994 C 3.8928259,3.9570664 4.0649969,3.9944755 4.2019601,3.9377444 4.3416307,3.8798919 4.450198,3.745242 4.4944488,3.566191 l 0.00362,-0.015503 V 3.4406169 c 0.041805,0.00883 0.082066,0.019598 0.1286743,0.019637 0.070955,6.08e-5 0.1381726,-0.015759 0.1968873,-0.029972 0.039704,-0.00961 0.053268,-0.013877 0.071313,-0.019121 0.029199,0.00844 0.079652,0.024582 0.1741496,0.037207 0.059028,0.00788 0.1238885,0.012674 0.1901693,0.00569 0.066281,-0.00699 0.1398807,-0.024125 0.2010214,-0.085266 0.061452,-0.061461 0.079252,-0.1362422 0.0863,-0.2030884 0.00705,-0.066846 0.00228,-0.1320977 -0.00568,-0.1917197 C 5.5249681,2.8547354 5.4933564,2.7543544 5.4933564,2.7543544 Z"
     style="fill:#faf8f6;fill-opacity:1;stroke-width:0.264583" />
  <path
     d="m 1.5875179,3.4395834 c -0.092908,0 -0.185854,0.028758 -0.2431574,0.086048 -0.1146069,0.1146122 -0.072485,0.3411009 0,0.4860661 L 1.5469493,4.4171448 1.5066374,4.457454 1.1011899,4.2548652 c -0.14496788,-0.072483 -0.37144855,-0.1146069 -0.48606605,0 -0.11460957,0.1146122 -0.11460957,0.3717132 0,0.4863307 0.11460692,0.1146069 0.34110081,0.072485 0.48606605,0 L 1.5063728,4.5386071 1.5469418,4.5791731 1.3443529,4.984356 c -0.072485,0.1449705 -0.1146069,0.3717131 0,0.4863042 0.114607,0.1146069 0.3717132,0.1146069 0.4863043,0 0.1146095,-0.1146122 0.072485,-0.341339 0,-0.4863042 L 1.6280679,4.579173 1.6686392,4.5386071 2.0738221,4.7411959 c 0.1449678,0.072485 0.3714485,0.1146069 0.486066,0 0.1146096,-0.1146122 0.1146096,-0.3717132 0,-0.4863307 -0.1146069,-0.1146069 -0.3411008,-0.072483 -0.486066,0 L 1.6683746,4.457454 1.6280626,4.4171448 1.8306515,4.0116973 c 0.072485,-0.1449705 0.1146095,-0.3714486 0,-0.4860661 C 1.773348,3.4683278 1.6803999,3.4395834 1.5874914,3.4395834 Z"
     style="fill:#4d4d4d;stroke-width:0.264583;enable-background:new"
     id="path1017" />
  <circle
     style="fill:#fdc92b;fill-opacity:1;stroke-width:0.529167;stroke-linecap:round;stroke-linejoin:round"
     id="path1309"
     cx="1.5876501"
     cy="1.8520834"
     r="1.0583334" />
  <path
     id="path1183"
     style="color:#000000;fill:#f22c42;stroke-width:0.0661458;stroke-linecap:round;stroke-linejoin:round;-inkscape-stroke:none"
     d="m 1.2626054,2.1461223 a 0.03307622,0.03307622 0 0 0 -0.019637,0.012402 l -0.00155,-0.00465 -0.094568,0.079065 a 0.03307622,0.03307622 0 0 0 -0.00258,0.048576 c 0.1159079,0.1200442 0.2759981,0.1875808 0.4428671,0.1875855 0.1668689,-4.7e-6 0.3264423,-0.067541 0.4423502,-0.1875855 a 0.03307622,0.03307622 0 0 0 -0.00258,-0.048576 l -0.094568,-0.079065 a 0.03307622,0.03307622 0 0 0 -0.046509,0.00413 C 1.8116631,2.2463833 1.7025067,2.2975318 1.5871334,2.2975343 1.471763,2.2975318 1.3620959,2.2463852 1.2879268,2.1580079 l -5.159e-4,5.159e-4 a 0.03307622,0.03307622 0 0 0 -0.024806,-0.012402 z" />
  <path
     id="circle36"
     d="M 1.9907264,1.5750977 A 0.13229167,0.13229167 0 0 0 1.8584347,1.7073894 0.13229167,0.13229167 0 0 0 1.9907264,1.8396811 0.13229167,0.13229167 0 0 0 2.123018,1.7073894 0.13229167,0.13229167 0 0 0 1.9907264,1.5750977 Z M 1.1907751,1.5875001 A 0.13229167,0.13229167 0 0 0 1.0584835,1.7197917 0.13229167,0.13229167 0 0 0 1.1907751,1.8520834 0.13229167,0.13229167 0 0 0 1.3230668,1.7197917 0.13229167,0.13229167 0 0 0 1.1907751,1.5875001 Z"
     style="fill:#4d4d4d;fill-opacity:1;stroke-width:0.264583" />
  <path
     id="rect5096"
     style="opacity:0.4;stroke-width:0.240954;stroke-linecap:round;stroke-linejoin:round"
     d="M 1.5275554,0.26458333 C 0.28821988,0.27390666 1.0104166e-8,0.58239335 1.0104166e-8,1.8520834 V 4.4978839 C 1.0104166e-8,5.7877277 0.29765627,6.085384 1.5875001,6.085384 h 3.1749975 c 1.2898438,0 1.5875,-0.2976563 1.5875,-1.5875001 V 1.8520834 c 0,-1.28984381 -0.2976562,-1.58750007 -1.5875,-1.58750007 H 1.5875001 c -0.020154,0 -0.040273,-1.4798e-4 -0.059945,0 z m 0.032556,0.26458334 c 0.018033,-1.3565e-4 0.036303,0 0.054777,0 h 3.147609 c 1.1823568,0 1.3229167,0.29315998 1.3229167,1.32291673 v 2.6458005 c 0,1.0162919 -0.1405599,1.3229167 -1.3229167,1.3229167 H 1.5875001 c -0.99193704,0 -1.32291675,-0.1405599 -1.32291675,-1.3229167 V 1.8520834 c 0,-0.96076805 0.15947068,-1.31437034 1.29552805,-1.32291673 z"
     sodipodi:nodetypes="csssssssscssssssssss" />
  <path
     id="rect1565"
     style="fill:url(#linearGradient1873);fill-opacity:1;stroke-width:0.118194"
     d="M 1.5601116,0.52922694 C 0.42405397,0.53777695 0.26458335,0.8913756 0.26458335,1.8521436 V 4.497977 c 0,1.1823568 0.33097974,1.3229167 1.32291675,1.3229167 h 3.1749975 c 1.1823568,0 1.3229167,-0.3066248 1.3229167,-1.3229167 V 1.8521436 c 0,-1.02975658 -0.1405599,-1.32291666 -1.3229167,-1.32291666 h -3.147609 c -0.018473,0 -0.036744,-1.356e-4 -0.054777,0 z m 0.00259,0.26458338 h 0.049609 3.0179 c 1.0641211,0 1.190625,0.14300558 1.190625,1.05833328 V 4.497977 c 0,0.8938382 -0.1265039,1.0583334 -1.190625,1.0583334 H 1.7197917 c -1.02290214,0 -1.19062501,-0.1576914 -1.19062501,-1.0583334 V 1.8521436 c 0,-0.8540052 0.14116471,-1.05833328 1.03352871,-1.05833328 z"
     sodipodi:nodetypes="csssssssscsssssssssss" />
</svg>
