<?xml version="1.0" encoding="UTF-8" standalone="no"?>
<!-- Created with Inkscape (http://www.inkscape.org/) -->

<svg
   width="24"
   height="24"
   viewBox="0 0 6.3499999 6.3500002"
   version="1.1"
   id="svg5013"
   sodipodi:docname="applications-office.svg"
   inkscape:version="1.1.2 (0a00cf5339, 2022-02-04)"
   xmlns:inkscape="http://www.inkscape.org/namespaces/inkscape"
   xmlns:sodipodi="http://sodipodi.sourceforge.net/DTD/sodipodi-0.dtd"
   xmlns:xlink="http://www.w3.org/1999/xlink"
   xmlns="http://www.w3.org/2000/svg"
   xmlns:svg="http://www.w3.org/2000/svg">
  <sodipodi:namedview
     id="namedview5015"
     pagecolor="#ffffff"
     bordercolor="#666666"
     borderopacity="1.0"
     inkscape:pageshadow="2"
     inkscape:pageopacity="0.0"
     inkscape:pagecheckerboard="0"
     inkscape:document-units="px"
     showgrid="false"
     units="px"
     showguides="true"
     inkscape:zoom="34.434225"
     inkscape:cx="12.008401"
     inkscape:cy="12.487576"
     inkscape:window-width="1920"
     inkscape:window-height="1010"
     inkscape:window-x="0"
     inkscape:window-y="0"
     inkscape:window-maximized="1"
     inkscape:current-layer="svg5013" />
  <defs
     id="defs5010">
    <linearGradient
       inkscape:collect="always"
       xlink:href="#linearGradient1871"
       id="linearGradient1873"
       x1="11.046622"
       y1="2.3372049"
       x2="10.794909"
       y2="47.930588"
       gradientUnits="userSpaceOnUse"
       gradientTransform="matrix(0.12026516,0,0,0.11615853,0.28863637,0.25496375)" />
    <linearGradient
       inkscape:collect="always"
       id="linearGradient1871">
      <stop
         style="stop-color:#ffffff;stop-opacity:1;"
         offset="0"
         id="stop1867" />
      <stop
         style="stop-color:#ffffff;stop-opacity:0.1"
         offset="0.12"
         id="stop2515" />
      <stop
         style="stop-color:#ffffff;stop-opacity:0.102"
         offset="0.89999998"
         id="stop2581" />
      <stop
         style="stop-color:#ffffff;stop-opacity:0.502"
         offset="1"
         id="stop1869" />
    </linearGradient>
    <linearGradient
       inkscape:collect="always"
       xlink:href="#linearGradient2290"
       id="linearGradient2292"
       x1="1.9582907"
       y1="0.28538564"
       x2="6.4769249"
       y2="8.5555315"
       gradientUnits="userSpaceOnUse"
       gradientTransform="matrix(0.72413793,0,0,0.70370371,0.10948281,0.06375639)" />
    <linearGradient
       inkscape:collect="always"
       id="linearGradient2290">
      <stop
         style="stop-color:#e8e8e8;stop-opacity:1"
         offset="0"
         id="stop2286" />
      <stop
         style="stop-color:#f5f5f5;stop-opacity:1"
         offset="1"
         id="stop2288" />
    </linearGradient>
    <linearGradient
       id="linearGradient2668"
       x1="140.45"
       x2="217.69"
       y1="291.42999"
       y2="214.2"
       gradientTransform="matrix(0.0077077,-0.00797639,0.0077077,0.00797639,0.23717749,3.708789)"
       gradientUnits="userSpaceOnUse"
       xlink:href="#linearGradient4254" />
    <linearGradient
       id="linearGradient4254">
      <stop
         stop-color="#fff"
         offset="0"
         id="stop31" />
      <stop
         stop-color="#fff"
         stop-opacity=".3"
         offset="1"
         id="stop33" />
    </linearGradient>
    <linearGradient
       id="linearGradient2670"
       x1="299.57001"
       x2="373.31"
       y1="298.92999"
       y2="225.17999"
       gradientTransform="matrix(0.0077077,-0.00797639,0.0077077,0.00797639,0.23717749,3.708789)"
       gradientUnits="userSpaceOnUse"
       xlink:href="#linearGradient4254" />
  </defs>
  <path
     d="M 1.5275554,0.79381578 C 0.28822009,0.80313578 1.9010417e-7,1.1116258 1.9010417e-7,2.3813158 v 2.381217 c 0,1.289844 0.29765619989583,1.5875 1.58750000989583,1.5875 h 3.1749977 c 1.2898438,0 1.5875,-0.297656 1.5875,-1.5875 v -2.381217 c 0,-1.2898437 -0.2976562,-1.58750002 -1.5875,-1.58750002 H 1.5875002 c -0.020153,0 -0.040273,-1.48e-4 -0.059945,0 z"
     style="opacity:0.1;fill:#000000;stroke-width:0.264583;stroke-linecap:round;stroke-linejoin:round"
     id="path9125"
     sodipodi:nodetypes="cssssssssc" />
  <path
     id="rect7669"
     style="fill:#808080;stroke-width:0.264583;stroke-linecap:round;stroke-linejoin:round"
     d="M 1.7973064,0.66145835 C 0.66124888,0.67000474 0.39687501,0.95278432 0.39687501,2.1166667 v 2.1166667 c 0,1.1638823 0.26437379,1.4466584 1.40043139,1.4552084 h 0.054777 2.6458334 c 1.1823568,0 1.4552083,-0.2728518 1.4552083,-1.4552084 V 2.1166667 c 0,-1.1823567 -0.2728515,-1.45520835 -1.4552083,-1.45520835 H 1.8520834 c -0.018474,0 -0.036744,-1.3565e-4 -0.054777,0 z" />
  <path
     id="rect6397"
     style="fill:url(#linearGradient2292);fill-opacity:1;stroke-width:0.182227;stroke-linejoin:round"
     d="M 1.532723,0.39693532 C 0.39666551,0.40548163 0.13229168,0.68826121 0.13229168,1.8521437 v 2.6458334 c 0,1.1638823 0.26437373,1.4466584 1.40043132,1.4552084 H 1.5875 4.7624975 c 1.1823568,0 1.4552083,-0.2728518 1.4552083,-1.4552084 V 1.8521437 c 0,-1.18235679 -0.2728515,-1.45520838 -1.4552083,-1.45520838 H 1.5875 c -0.018474,0 -0.036744,-1.3571e-4 -0.054777,0 z"
     sodipodi:nodetypes="cssccsssssc" />
  <g
     id="g978"
     transform="scale(0.26458334)">
    <path
       id="path47"
       d="M 5,5 V 6 H 19 V 5 Z M 5,7 V 8 H 17.082031 V 7 Z m 0,2 v 5 h 6 V 9 Z m 0,6 v 1 h 14 v -1 z m 0,2 v 1 h 8 v -1 z"
       style="fill:#c8c4b7;fill-opacity:0.996864" />
    <path
       id="path49"
       d="m 13,9 v 1 h 6 V 9 Z m 0,2 v 1 h 4 v -1 z m 0,2 v 0.990234 h 6 V 13 Z"
       style="fill:#b7b1a0;fill-opacity:0.996953" />
    <path
       id="path63"
       d="m 9.4941406,9.890625 c -0.2641829,0.013391 -0.4746094,0.23248 -0.4746094,0.5 0,0.27613 0.22386,0.5 0.5,0.5 0.27614,0 0.4999998,-0.22387 0.4999998,-0.5 0,-0.27615 -0.2238597,-0.5 -0.4999998,-0.5 -0.00863,0 -0.016868,-4.32e-4 -0.025391,0 z M 7.3203125,10.730469 6,13.003906 h 3 l -0.8769531,-1.68164 -0.2460938,0.474609 z"
       style="fill:#e7e7df;fill-opacity:1" />
  </g>
  <path
     id="path73-3"
     style="opacity:0.2;fill:#000000;fill-opacity:1;stroke-width:0.132291"
     d="m 4.9981588,2.3812671 c -0.015443,-3.241e-4 -0.033281,0.00403 -0.040824,0.00827 -0.026844,0.01509 -0.062312,0.041418 -0.1121378,0.078031 -0.049826,0.036613 -0.1054389,0.078765 -0.1441773,0.1095541 -0.09935,0.078963 -0.2029875,0.1736635 -0.2899048,0.2604493 l -0.00155,-0.00103 -0.037207,0.038758 c -0.030753,0.031884 -0.057953,0.061549 -0.080615,0.088883 C 4.1799235,3.0990311 4.0511062,3.2868348 3.9615296,3.445285 3.9073009,3.541193 3.9133718,3.5322795 3.8586935,3.5930794 3.7933483,3.6657422 3.773669,3.6816238 3.6669739,3.7470754 3.5573865,3.814296 3.4739816,3.8726879 3.3532979,3.9661835 3.2320777,4.0600793 3.1726474,4.1143763 3.0726949,4.2219818 2.9643255,4.3386575 2.8755039,4.4491761 2.7745219,4.5925017 c -0.020392,0.028937 -0.048103,0.069487 -0.07183,0.1049031 -0.011863,0.017709 -0.022568,0.034056 -0.031006,0.047026 -0.00844,0.01297 -0.012145,0.016947 -0.01912,0.030489 -0.00372,0.00723 -0.010848,0.043832 -0.00362,0.062528 0.00723,0.018696 0.014,0.023982 0.020671,0.031523 0.013341,0.015081 0.032317,0.033486 0.069763,0.07028 v 5.167e-4 l 0.083716,0.081132 0.042892,-0.00362 c 0.016956,-0.00138 0.02933,-0.00442 0.044442,-0.0093 -0.00534,0.00172 -0.00265,-0.00204 0.023254,0.011369 0.025903,0.013399 0.067194,0.040877 0.1260905,0.081132 0.1318686,0.090116 0.1964359,0.1260343 0.2816366,0.1565796 0.027673,0.00992 0.05608,0.017993 0.084233,0.023771 -0.00933,0.1129946 -0.00607,0.1900481 0.012919,0.1984375 0.1002095,0.044271 0.2025511,-0.059787 0.2149739,-0.1968873 0.017277,-0.00329 0.034505,-0.00755 0.051676,-0.012402 0.07014,-0.019808 0.140313,-0.062238 0.2160091,-0.1255732 C 3.967606,5.1056021 4.0531623,5.0126767 4.0902039,4.9630218 4.1500209,4.8827017 4.20022,4.7952051 4.2276632,4.7180756 4.2872152,4.5506658 4.2601539,4.3582939 4.1604839,4.1517016 4.1336808,4.0961661 4.0803185,4.0021472 4.0405945,3.9398283 c 0.015237,-0.022165 0.030357,-0.044364 0.045992,-0.066663 0.02185,-0.016407 0.043925,-0.032594 0.065629,-0.048576 0.059175,0.040059 0.1447651,0.092715 0.195337,0.1193726 0.1701388,0.089689 0.3313258,0.1263592 0.4738728,0.097669 0.097393,-0.019606 0.1900369,-0.06762 0.2992067,-0.1503783 0.07215,-0.054684 0.1749737,-0.1587294 0.2247924,-0.2294435 0.055416,-0.078677 0.086916,-0.15005 0.1028361,-0.236678 C 5.5807118,3.4122306 5.6812072,3.3061036 5.6384299,3.2024057 5.6303574,3.1828371 5.5562154,3.1789343 5.4477439,3.1884532 5.4370992,3.1334389 5.4192538,3.0782367 5.3955506,3.0251555 5.3701453,2.9682637 5.3442831,2.9222569 5.2839295,2.8272347 5.2553571,2.7822492 5.2298068,2.7427181 5.2110656,2.712513 5.1971996,2.690166 5.1864586,2.667988 5.1831606,2.662387 c 0,0 5.168e-4,0 5.168e-4,0 5.133e-4,-0.00364 0.00142,-0.012234 0.00517,-0.029972 L 5.2012494,2.574537 5.1480224,2.513042 h -5.167e-4 c -0.01723,-0.01984 -0.036639,-0.042023 -0.062012,-0.068729 -0.02019,-0.021239 -0.030716,-0.03266 -0.043408,-0.043408 -0.00634,-0.00537 -0.012946,-0.012282 -0.029972,-0.01757 -0.00426,-0.00132 -0.0088,-0.00196 -0.013953,-0.00207 z m -0.093018,0.4640543 c 0.023989,3.36e-4 0.045467,0.00289 0.060978,0.00827 0.022437,0.00779 0.045255,0.024701 0.1059368,0.087333 0.096309,0.099438 0.1509514,0.187007 0.1725993,0.2749185 C 4.9910505,3.2594599 4.6771165,3.3449529 4.501548,3.4587208 4.437411,3.5002808 4.3408274,3.578431 4.2664202,3.6302864 4.4921093,3.3322174 4.7343422,3.0437129 4.9051408,2.8453214 Z M 4.6286724,2.9455739 C 4.5003876,3.1246235 4.352572,3.3330257 4.2049256,3.5455372 4.2019915,3.521344 4.2060788,3.491889 4.2204285,3.4504526 4.2618245,3.3308866 4.34502,3.2048661 4.4472881,3.0985361 4.5034618,3.0401301 4.5654315,2.9878307 4.6286724,2.9455739 Z m 0.5637898,0.4749064 c 0.014872,-1.587e-4 0.030081,-9.6e-5 0.044959,0 -0.012184,0.036636 -0.030846,0.073734 -0.056844,0.113688 -0.019719,0.030312 -0.033669,0.047363 -0.090434,0.107487 -0.076849,0.08139 -0.075095,0.079914 -0.1266071,0.1167887 -0.076595,0.054819 -0.1459066,0.082278 -0.221692,0.0863 C 4.6657401,3.848774 4.5807782,3.828956 4.4736434,3.782732 H 4.4731263 C 4.4177815,3.7588327 4.3684423,3.7311663 4.3268821,3.7005664 4.4155953,3.6404012 4.5000513,3.5880055 4.5764791,3.5491546 4.7669921,3.4523163 4.9791316,3.4227552 5.1924622,3.4204803 Z m -1.162203,0.3787881 c -0.002,0.00293 -0.00421,0.00586 -0.0062,0.00879 -0.00276,0.00201 -0.00551,0.00419 -0.00827,0.0062 0.00227,-0.00245 0.00409,-0.00504 0.00672,-0.00775 0.00269,-0.00278 0.00533,-0.00484 0.00775,-0.00723 z M 3.7527568,3.9858203 c 0.00999,-4.702e-4 0.018979,3.374e-4 0.027388,0.00207 -0.2137333,0.1589331 -0.4240914,0.3192545 -0.6025472,0.4563028 0.0072,-0.012306 0.014159,-0.024561 0.021704,-0.036174 0.036906,-0.056797 0.081558,-0.1116152 0.1302246,-0.1622639 0.107123,-0.1114843 0.2356249,-0.2012151 0.3519165,-0.243396 0.029344,-0.010641 0.052199,-0.015637 0.071314,-0.016536 z m 0.099735,0.073381 C 3.8022293,4.136428 3.7263601,4.2365657 3.6860942,4.3031137 3.5753888,4.4860749 3.4927959,4.8139291 3.4509664,5.0772266 3.4359435,5.0736373 3.4212711,5.0690573 3.408075,5.0637908 3.331697,5.0333237 3.2699264,4.9881602 3.1786316,4.8937753 3.1471416,4.8612313 3.1299762,4.8434318 3.1202372,4.8317636 3.1113272,4.8210877 3.108592,4.8157958 3.103184,4.8048917 3.0942242,4.7868302 3.0882578,4.7590818 3.0866475,4.7263438 3.2786752,4.5493826 3.5609871,4.2955458 3.8524918,4.0592013 Z m 0.072347,0.055294 c 0.042208,0.060688 0.077623,0.1362964 0.1080038,0.2309934 0.024921,0.077701 0.035184,0.1348311 0.034623,0.1855184 -0.00116,0.1063558 -0.041498,0.2041175 -0.1348748,0.317293 C 3.8393565,4.9612758 3.7394737,5.0380794 3.6488871,5.0710255 3.6469152,4.8325791 3.6723453,4.5935976 3.7734274,4.3806284 3.8119813,4.299405 3.8647032,4.2091361 3.9248388,4.1144953 Z" />
  <g
     id="g1395">
    <path
       id="path73"
       style="fill:#636363;fill-opacity:1;stroke-width:0.132291"
       d="m 4.9883535,2.1838535 c 0,0 -0.5344531,0.7277873 -0.9642828,1.359607 C 3.4133958,3.9883317 2.7099382,4.541849 2.7099382,4.541849 l 0.1364259,0.144694 c 0,0 0.4941493,-0.4768257 1.0061409,-0.8919352 C 3.802242,3.8718348 3.7263725,3.9719728 3.6861066,4.0385208 3.484405,4.3718701 3.3743219,5.1862901 3.4385763,5.2146762 3.549292,5.2635884 3.6622067,5.1309801 3.6540674,4.9733474 3.6389543,4.6808968 3.6486725,4.3789072 3.77344,4.1160352 3.8438703,3.9676566 3.9597494,3.7894809 4.0865992,3.6085729 4.2613992,3.4773136 4.4331224,3.3574415 4.5764922,3.2845615 4.8305094,3.1554438 5.1227834,3.1454155 5.4053826,3.1610548 5.5577055,3.1694791 5.6857081,3.0523878 5.6384437,2.9378126 5.6110135,2.8713183 4.8236818,2.9853947 4.5015614,3.1941277 4.437424,3.2356876 4.3408407,3.3138382 4.2664334,3.3656936 4.6674714,2.8360398 5.1283968,2.3254469 5.1283968,2.3254469 Z" />
    <path
       id="path1204"
       style="color:#000000;fill:#3b3b3b;stroke:none;stroke-width:0.132291;-inkscape-stroke:none"
       d="m 5.0121248,2.1187412 c -0.017026,-0.00529 -0.044719,5.503e-4 -0.054777,0.0062 -0.026844,0.01509 -0.062312,0.041419 -0.1121379,0.078032 -0.049826,0.036613 -0.1054389,0.078765 -0.1441774,0.109554 -0.09935,0.078963 -0.2029877,0.1736635 -0.2899049,0.2604492 l -0.00156,-0.00103 -0.037207,0.038757 c -0.030753,0.031884 -0.057953,0.06155 -0.080615,0.088884 C 4.1799271,2.8344412 4.0511082,3.0222435 3.9615316,3.1806935 3.9073029,3.2766015 3.9133737,3.2676882 3.8586954,3.3284881 3.7933502,3.4011509 3.773671,3.4170323 3.6669759,3.4824838 3.5573885,3.5497044 3.4739833,3.6080964 3.3532997,3.7015919 3.2320794,3.7954878 3.1726489,3.8497848 3.0726964,3.9573903 2.964327,4.0740662 2.8755052,4.1845848 2.7745232,4.3279104 c -0.020392,0.028937 -0.048103,0.069487 -0.07183,0.104903 -0.011863,0.017709 -0.022568,0.034056 -0.031006,0.047026 -0.00844,0.01297 -0.012145,0.016947 -0.01912,0.030489 -0.00372,0.00723 -0.010851,0.043832 -0.00362,0.062528 0.00723,0.018696 0.014,0.023982 0.020671,0.031523 0.013341,0.015081 0.032317,0.033486 0.069763,0.07028 v 5.292e-4 l 0.083727,0.081118 0.042891,-0.00362 c 0.016956,-0.00138 0.02933,-0.00442 0.044442,-0.0093 -0.00534,0.00172 -0.00265,-0.00204 0.023254,0.011369 0.025903,0.013399 0.067194,0.040877 0.1260907,0.081132 0.1318686,0.090116 0.196436,0.1260343 0.2816367,0.1565796 0.1187273,0.042573 0.2428786,0.047072 0.3638023,0.01292 0.070138,-0.019808 0.1403135,-0.062239 0.2160096,-0.1255745 0.046384,-0.038804 0.1319404,-0.1317294 0.168982,-0.1813843 0.059817,-0.08032 0.1100162,-0.1678165 0.1374594,-0.2449462 0.059552,-0.1674096 0.032491,-0.3597815 -0.067179,-0.5663737 -0.032184,-0.066685 -0.1031132,-0.18962 -0.1421101,-0.245463 -0.029517,-0.042265 -0.03287,-0.05932 -0.033073,-0.055811 -2.032e-4,0.00351 0.00348,-0.00902 0.037207,-0.043925 0.033362,-0.034525 0.046015,-0.038482 0.042891,-0.038241 -0.00312,2.413e-4 0.011745,0.00249 0.05116,0.031523 0.053683,0.039539 0.1691306,0.1115671 0.2309939,0.1441773 C 4.5177045,3.7690578 4.678892,3.8057274 4.821439,3.7770368 4.918832,3.7574308 5.0114757,3.7094168 5.1206452,3.6266585 5.192795,3.5719752 5.2956193,3.4679299 5.345438,3.3972158 5.41419,3.2996057 5.4459041,3.212997 5.4570592,3.0949087 5.4671504,2.987813 5.4443089,2.8697215 5.3955642,2.7605621 5.3701589,2.7036704 5.3442966,2.6576636 5.283943,2.5626414 5.2553706,2.5176558 5.2298201,2.478125 5.2110791,2.4479199 c -0.018727,-0.030182 -0.031686,-0.05971 -0.028422,-0.049093 7.937e-4,0.00262 -0.0013,0.00447 0.0062,-0.031006 l 0.012403,-0.057877 -0.053226,-0.061495 h -5.294e-4 c -0.01723,-0.01984 -0.036639,-0.042024 -0.062012,-0.06873 -0.02019,-0.021239 -0.030716,-0.03266 -0.043408,-0.043408 -0.00634,-0.00537 -0.012946,-0.012282 -0.029972,-0.01757 z m -0.045992,0.4702556 c 0.022437,0.00779 0.045255,0.024701 0.1059369,0.087333 0.1276356,0.1317834 0.1818115,0.2426724 0.1834514,0.3612182 0.00108,0.078607 -0.021159,0.1493906 -0.074931,0.2320274 -0.019719,0.030312 -0.033669,0.047363 -0.090434,0.107487 -0.076849,0.08139 -0.075095,0.079914 -0.1266075,0.1167886 C 4.8869536,3.54867 4.8176422,3.576129 4.7418567,3.580151 4.6657527,3.584181 4.5807905,3.564363 4.4736558,3.518139 H 4.4731269 C 4.3871674,3.4810194 4.3153814,3.4338222 4.2653873,3.3827468 4.2291513,3.3457109 4.2125883,3.3184797 4.2064762,3.2917962 4.2004252,3.265375 4.2038065,3.2338628 4.2204303,3.1858595 4.2618263,3.0662935 4.3450219,2.9402729 4.4472898,2.833943 4.5495621,2.7276064 4.6705784,2.6416364 4.7847372,2.5993319 4.8424601,2.5779351 4.9253371,2.5748474 4.9661216,2.5889973 Z M 3.7837752,3.7232944 c 0.025508,0.00628 0.05148,0.023799 0.08785,0.061495 0.066163,0.068587 0.1188938,0.1641409 0.1612306,0.2961061 0.024921,0.077701 0.035184,0.1348311 0.034623,0.1855184 -0.00116,0.1063561 -0.041499,0.2041175 -0.1348754,0.317293 -0.1015196,0.1230154 -0.211371,0.2031593 -0.3079916,0.230477 -0.059376,0.01678 -0.1520051,0.010763 -0.2165246,-0.014986 -0.076378,-0.030467 -0.1381485,-0.075631 -0.2294433,-0.1700157 -0.03149,-0.032544 -0.048655,-0.050344 -0.058394,-0.062012 -0.00891,-0.010676 -0.011644,-0.015968 -0.017052,-0.026872 -0.016711,-0.033687 -0.023328,-0.1019275 -0.00982,-0.1710489 0.00902,-0.0462 0.05461,-0.1468281 0.1059368,-0.2258261 C 3.2362207,4.0866262 3.2808727,4.031808 3.3295393,3.9811593 3.4366623,3.869675 3.5651644,3.7799442 3.681456,3.7377633 3.728407,3.7207373 3.758524,3.7175963 3.7837755,3.7238093 Z" />
    <path
       d="m 3.2831357,3.9338176 c -0.051362,0.053454 -0.098189,0.1116268 -0.1376541,0.1723638 -0.054807,0.084355 -0.1028927,0.1845653 -0.1156447,0.249852 -0.015553,0.079587 -0.012157,0.1596647 0.015226,0.214865 0.00671,0.013534 0.013711,0.025476 0.025989,0.040187 0.012283,0.014718 0.029852,0.033069 0.061442,0.065719 0.094565,0.097758 0.166025,0.1507756 0.2520956,0.1851114 l -1.42e-5,1.47e-5 c 0.078855,0.03147 0.180332,0.038749 0.257281,0.017009 C 3.7567315,4.8464605 3.8748824,4.7572873 3.9821794,4.6272665 4.0819606,4.5063364 4.1309698,4.3912411 4.1323366,4.2670411 4.1330051,4.2064638 4.1208227,4.1416695 4.0945662,4.0598007 4.0500709,3.9211052 3.9927005,3.8154868 3.9174661,3.7375106 3.8772648,3.6958491 3.8408915,3.6685459 3.7986389,3.6581485 3.7563859,3.6477516 3.7121935,3.6554983 3.6596861,3.6745422 3.5308057,3.7212892 3.396135,3.8162257 3.2831358,3.9338248 Z"
       fill="url(#linearGradient2668)"
       opacity="0.5"
       stroke-width="0.130787"
       id="path79"
       style="fill:url(#linearGradient2668)" />
    <path
       d="M 4.4011012,2.786301 C 4.2932567,2.8984304 4.2049203,3.031175 4.1592189,3.1631762 c -0.018717,0.05406 -0.026236,0.1001714 -0.016161,0.1441579 0.010074,0.043988 0.036583,0.081987 0.076916,0.1232049 0.057651,0.058898 0.1362822,0.1100341 0.2283921,0.1498072 0.1123057,0.048459 0.2073989,0.071868 0.2967871,0.067135 0.089387,-0.00474 0.1715878,-0.03826 0.2552332,-0.098126 0.052077,-0.037279 0.059126,-0.043586 0.1361899,-0.1252024 0.057368,-0.060762 0.076208,-0.083121 0.098126,-0.1168138 C 5.2938472,3.21645 5.3217792,3.1299562 5.3204992,3.0368419 5.3185769,2.8969901 5.2525963,2.7676553 5.1181844,2.6288818 a 0.02880576,0.03001657 16.829215 0 0 -1.42e-5,-1.47e-5 C 5.0559339,2.5646261 5.0240426,2.5379718 4.9867004,2.5250099 4.9244769,2.5034255 4.8339608,2.5093714 4.7627019,2.5357918 4.6362737,2.5826477 4.5089387,2.6741804 4.4010941,2.7863098 Z"
       fill="url(#linearGradient2670)"
       opacity="0.5"
       stroke-width="0.130787"
       id="path81"
       style="fill:url(#linearGradient2670)" />
    <path
       id="path83"
       d="M 5.271024,3.0912916 C 5.258697,3.1375596 5.23711,3.1839276 5.204361,3.2334019 5.183657,3.2646869 5.167712,3.2831659 5.109793,3.3434725 5.03156,3.4249255 5.030577,3.4253425 4.978018,3.4623284 4.89805,3.5185874 4.8239396,3.5480254 4.74289,3.5522454 4.661591,3.5564854 4.572258,3.5355504 4.46177,3.4886834 4.372526,3.4508004 4.2973155,3.4024924 4.244212,3.3491572 4.213814,3.3186172 4.194921,3.2931532 4.184784,3.2680252 c 1.029e-4,0.00992 0.00156,0.019426 0.00362,0.028422 0.00725,0.031651 0.026655,0.06149 0.064079,0.099735 0.0522,0.053329 0.1262066,0.1021593 0.2139406,0.1400431 0.1086214,0.04687 0.1965496,0.067799 0.2764692,0.063562 0.079677,-0.00423 0.15238,-0.033661 0.2309938,-0.089917 0.051675,-0.036991 0.052799,-0.037918 0.1297078,-0.1193726 0.056941,-0.060309 0.072144,-0.078781 0.092501,-0.1100709 0.043141,-0.066296 0.06703,-0.1265116 0.074931,-0.1891358 z M 4.0891831,4.3351433 C 4.0678551,4.4074277 4.0268838,4.4789986 3.9625757,4.5552848 3.8562838,4.6813559 3.7402478,4.7654971 3.6333968,4.7950635 3.5649427,4.8139971 3.4664255,4.8072396 3.3941347,4.779043 a 0.03746024,0.03794279 0 0 0 -5.292e-4,0 C 3.3112555,4.746891 3.2439021,4.698164 3.1491756,4.6023095 c -0.032219,-0.032595 -0.049901,-0.050571 -0.060978,-0.063562 -0.010602,-0.012435 -0.015081,-0.020505 -0.021188,-0.032556 -0.00233,-0.00462 -0.00477,-0.00971 -0.00672,-0.014986 0.00317,0.024143 0.00874,0.045772 0.017052,0.062528 0.00598,0.012052 0.010808,0.020122 0.021188,0.032556 0.01084,0.012991 0.028409,0.030968 0.059945,0.063562 0.092716,0.09586 0.1586541,0.1445755 0.2392621,0.1767335 0.070761,0.0282 0.1676121,0.034439 0.234611,0.015502 C 3.7369368,4.8125162 3.8502534,4.7283832 3.9542945,4.6023087 4.0309438,4.509414 4.0740421,4.4239047 4.0891702,4.3351414 Z"
       style="opacity:0.5;fill:#ffffff;stroke-width:0.264583" />
  </g>
  <path
     id="rect5096"
     style="opacity:0.4;stroke-width:0.240954;stroke-linecap:round;stroke-linejoin:round"
     d="M 1.5275554,0.26458333 C 0.28821988,0.27390666 1.0104166e-8,0.58239335 1.0104166e-8,1.8520834 V 4.4978839 C 1.0104166e-8,5.7877277 0.29765627,6.085384 1.5875001,6.085384 h 3.1749975 c 1.2898438,0 1.5875,-0.2976563 1.5875,-1.5875001 V 1.8520834 c 0,-1.28984381 -0.2976562,-1.58750007 -1.5875,-1.58750007 H 1.5875001 c -0.020154,0 -0.040273,-1.4798e-4 -0.059945,0 z m 0.032556,0.26458334 c 0.018033,-1.3565e-4 0.036303,0 0.054777,0 h 3.147609 c 1.1823568,0 1.3229167,0.29315998 1.3229167,1.32291673 v 2.6458005 c 0,1.0162919 -0.1405599,1.3229167 -1.3229167,1.3229167 H 1.5875001 c -0.99193704,0 -1.32291675,-0.1405599 -1.32291675,-1.3229167 V 1.8520834 c 0,-0.96076805 0.15947068,-1.31437034 1.29552805,-1.32291673 z"
     sodipodi:nodetypes="csssssssscssssssssss" />
  <path
     id="rect1565"
     style="fill:url(#linearGradient1873);fill-opacity:1;stroke-width:0.118194;opacity:0.7"
     d="M 1.5601116,0.52922694 C 0.42405397,0.53777695 0.26458335,0.8913756 0.26458335,1.8521436 V 4.497977 c 0,1.1823568 0.33097974,1.3229167 1.32291675,1.3229167 h 3.1749975 c 1.1823568,0 1.3229167,-0.3066248 1.3229167,-1.3229167 V 1.8521436 c 0,-1.02975658 -0.1405599,-1.32291666 -1.3229167,-1.32291666 h -3.147609 c -0.018473,0 -0.036744,-1.356e-4 -0.054777,0 z m 0.00259,0.26458338 h 0.049609 3.0179 c 1.0641211,0 1.190625,0.14300558 1.190625,1.05833328 V 4.497977 c 0,0.8938382 -0.1265039,1.0583334 -1.190625,1.0583334 H 1.7197917 c -1.02290214,0 -1.19062501,-0.1576914 -1.19062501,-1.0583334 V 1.8521436 c 0,-0.8540052 0.14116471,-1.05833328 1.03352871,-1.05833328 z"
     sodipodi:nodetypes="csssssssscsssssssssss" />
</svg>
