<?xml version="1.0" encoding="UTF-8" standalone="no"?>
<!-- Created with Inkscape (http://www.inkscape.org/) -->

<svg
   width="24"
   height="24"
   viewBox="0 0 6.3499999 6.3500002"
   version="1.1"
   id="svg5013"
   sodipodi:docname="desktop-environment-kde.svg"
   inkscape:version="1.1.2 (0a00cf5339, 2022-02-04)"
   xmlns:inkscape="http://www.inkscape.org/namespaces/inkscape"
   xmlns:sodipodi="http://sodipodi.sourceforge.net/DTD/sodipodi-0.dtd"
   xmlns:xlink="http://www.w3.org/1999/xlink"
   xmlns="http://www.w3.org/2000/svg"
   xmlns:svg="http://www.w3.org/2000/svg">
  <sodipodi:namedview
     id="namedview5015"
     pagecolor="#ffffff"
     bordercolor="#666666"
     borderopacity="1.0"
     inkscape:pageshadow="2"
     inkscape:pageopacity="0.0"
     inkscape:pagecheckerboard="0"
     inkscape:document-units="px"
     showgrid="false"
     units="px"
     showguides="true"
     inkscape:zoom="23.157747"
     inkscape:cx="15.653509"
     inkscape:cy="14.142136"
     inkscape:window-width="1920"
     inkscape:window-height="998"
     inkscape:window-x="0"
     inkscape:window-y="0"
     inkscape:window-maximized="1"
     inkscape:current-layer="svg5013" />
  <defs
     id="defs5010">
    <linearGradient
       inkscape:collect="always"
       xlink:href="#linearGradient1871"
       id="linearGradient1873"
       x1="10.572797"
       y1="1.2222221"
       x2="10.805839"
       y2="46.70113"
       gradientUnits="userSpaceOnUse"
       gradientTransform="matrix(0.12026516,0,0,0.11615853,0.28863637,0.38719515)" />
    <linearGradient
       inkscape:collect="always"
       id="linearGradient1871">
      <stop
         style="stop-color:#ffffff;stop-opacity:1;"
         offset="0"
         id="stop1867" />
      <stop
         style="stop-color:#ffffff;stop-opacity:0.1"
         offset="0.12"
         id="stop2515" />
      <stop
         style="stop-color:#ffffff;stop-opacity:0.102"
         offset="0.89999998"
         id="stop2581" />
      <stop
         style="stop-color:#ffffff;stop-opacity:0.502"
         offset="1"
         id="stop1869" />
    </linearGradient>
    <linearGradient
       inkscape:collect="always"
       xlink:href="#linearGradient2290"
       id="linearGradient2292"
       x1="8.5422125"
       y1="8.5571823"
       x2="-0.226835"
       y2="0.28547138"
       gradientUnits="userSpaceOnUse"
       gradientTransform="matrix(2.7368992,0,0,2.6596675,0.41379327,0.74074096)" />
    <linearGradient
       inkscape:collect="always"
       id="linearGradient2290">
      <stop
         style="stop-color:#1a86f2;stop-opacity:1"
         offset="0"
         id="stop2286" />
      <stop
         style="stop-color:#21c9fb;stop-opacity:1"
         offset="1"
         id="stop2288" />
    </linearGradient>
  </defs>
  <path
     d="M 1.5275552,0.52916667 C 0.28821992,0.53848667 1.6249999e-8,0.84697669 1.6249999e-8,2.1166667 V 4.7625 C 1.6249999e-8,6.052344 0.29765622,6.35 1.5875,6.35 h 3.175 C 6.0523438,6.35 6.35,6.052344 6.35,4.7625 V 2.1166667 C 6.35,0.82682299 6.0523438,0.52916667 4.7625,0.52916667 h -3.175 c -0.020153,0 -0.040273,-1.48e-4 -0.059945,0 z"
     style="opacity:0.1;fill:#000000;stroke-width:0.264583;stroke-linecap:round;stroke-linejoin:round"
     id="path9125"
     sodipodi:nodetypes="cssssssssc" />
  <path
     id="rect7669"
     style="fill:#808080;stroke-width:0.264583;stroke-linecap:round;stroke-linejoin:round"
     d="M 1.7973064,0.66145835 C 0.66124888,0.67000474 0.39687501,0.95278432 0.39687501,2.1166667 v 2.1166667 c 0,1.1638823 0.26437379,1.4466584 1.40043139,1.4552084 h 0.054777 2.6458334 c 1.1823568,0 1.4552083,-0.2728518 1.4552083,-1.4552084 V 2.1166667 c 0,-1.1823567 -0.2728515,-1.45520835 -1.4552083,-1.45520835 H 1.8520834 c -0.018474,0 -0.036744,-1.3565e-4 -0.054777,0 z" />
  <path
     id="rect6397"
     style="fill:url(#linearGradient2292);fill-opacity:1;stroke-width:0.688732;stroke-linejoin:round"
     d="m 5.7929687,1.4999999 c -4.2937606,0.032301 -5.29296876,1.1010742 -5.29296876,5.5 V 17 c 0,4.398925 0.99920776,5.467685 5.29296876,5.5 H 5.9999999 18 c 4.46875,0 5.5,-1.031251 5.5,-5.5 V 6.9999999 c 0,-4.4687499 -1.03125,-5.5 -5.5,-5.5 H 5.9999999 c -0.069823,0 -0.138875,-5.129e-4 -0.2070312,0 z"
     transform="scale(0.26458334)"
     sodipodi:nodetypes="cssccsssssc" />
  <path
     d="m 3.4220137,1.0583333 v 5.159e-4 l 0.0031,-5.159e-4 z m 0,5.159e-4 -0.6175336,0.060978 v 2.627747 L 3.4220137,3.651456 V 2.5398966 L 4.2860436,3.7749636 5.0198488,3.5279501 4.0390302,2.41639 5.0270836,1.3053466 4.2860436,1.0583333 3.4220137,2.2928833 Z M 2.0267499,1.7993733 c -0.00759,9.261e-4 -0.015963,0.00253 -0.021704,0.00827 L 1.7420128,2.0696411 c -0.011049,0.01102 -0.012256,0.027489 -0.00413,0.040824 L 2.0179649,2.5698689 C 1.9521118,2.6768114 1.9008909,2.7937707 1.866553,2.9176513 L 1.3497887,3.0241048 c -0.015694,0.00321 -0.026872,0.018572 -0.026872,0.034623 v 0.3694867 c 0,0.01565 0.011648,0.028945 0.026872,0.032556 l 0.5012614,0.1209228 c 0.031524,0.1393765 0.084803,0.2701801 0.155546,0.3896403 L 1.7146243,4.4126507 c -0.00885,0.013428 -0.00728,0.031501 0.00413,0.042891 l 0.2635498,0.2614826 c 0.011113,0.01102 0.028006,0.012189 0.041341,0.00414 L 2.4799522,4.4462417 c 0.1125705,0.067286 0.2352715,0.1188619 0.3658691,0.1514118 l 0.1064535,0.5084963 c 0.00333,0.015682 0.016899,0.026872 0.033073,0.026872 h 0.3720703 c 0.015557,0 0.028852,-0.010226 0.032556,-0.025321 L 3.5165816,4.5955873 C 3.6482163,4.5614847 3.7705308,4.5063537 3.883484,4.4369408 l 0.45837,0.298173 c 0.01352,0.0087 0.030892,0.00707 0.042375,-0.00414 L 4.6462283,4.4694956 c 0.011112,-0.01102 0.013832,-0.028098 0.00568,-0.041341 L 4.4731112,4.1356658 4.4142001,4.1542687 c -0.00852,0.00259 -0.017738,-0.00148 -0.022738,-0.00878 0,0 -0.055651,-0.075172 -0.099735,-0.1348756 C 4.2711629,3.9793159 4.1718442,3.8331661 4.0690009,3.699 3.9067589,4.0464526 3.5582606,4.2686197 3.1750002,4.2689902 2.6294589,4.2689902 2.1869469,3.826478 2.1869469,3.2809367 2.1873067,2.9063565 2.3624746,2.5738633 2.6809734,2.4070882 V 2.0076294 c -0.068882,0.025605 -0.1141738,0.057075 -0.17725,0.093018 L 2.0479373,1.8040242 c -0.00676,-0.00445 -0.013686,-0.00539 -0.021187,-0.00465 z"
     style="fill:#faf8f6;stroke-width:0.264591"
     id="path987" />
  <path
     id="rect5096"
     style="opacity:0.4;stroke-width:0.240954;stroke-linecap:round;stroke-linejoin:round"
     d="M 1.5276195,0.26458333 C 0.28828403,0.27390666 6.4159692e-5,0.58239335 6.4159692e-5,1.8520834 v 2.6458333 c 0,1.2898438 0.297656260308,1.5875001 1.587500040308,1.5875001 h 3.1749359 c 1.2898438,0 1.5875,-0.2976563 1.5875,-1.5875001 V 1.8520834 c 0,-1.28984381 -0.2976562,-1.58750007 -1.5875,-1.58750007 H 1.5875642 c -0.020154,0 -0.040273,-1.4798e-4 -0.059945,0 z m 0.032556,0.26458334 c 0.018033,-1.3565e-4 0.036303,0 0.054777,0 h 3.1475474 c 1.1823568,0 1.3229167,0.29315998 1.3229167,1.32291673 v 2.6458333 c 0,1.0162919 -0.1405599,1.3229167 -1.3229167,1.3229167 H 1.5875642 c -0.99193699,0 -1.3229167,-0.1405599 -1.3229167,-1.3229167 V 1.8520834 c 0,-0.96076805 0.15947068,-1.31437034 1.295528,-1.32291673 z"
     sodipodi:nodetypes="csssssssscssssssssss" />
  <path
     id="rect1565"
     style="fill:url(#linearGradient1873);fill-opacity:1;stroke-width:0.118194;opacity:0.7"
     d="M 1.5601116,0.52916667 C 0.42405397,0.53771668 0.26458335,0.89131535 0.26458335,1.8520833 v 2.6458334 c 0,1.1823568 0.33097974,1.3229167 1.32291675,1.3229167 h 3.1749976 c 1.1823568,0 1.3229167,-0.3066248 1.3229167,-1.3229167 V 1.8520833 c 0,-1.02975655 -0.1405599,-1.32291663 -1.3229167,-1.32291663 H 1.6148886 c -0.018473,0 -0.036744,-1.356e-4 -0.054777,0 z m 0.00259,0.26458338 c 0.016229,0 0.032983,0 0.049609,0 h 3.0179001 c 1.0641211,0 1.190625,0.1430056 1.190625,1.05833325 v 2.6458334 c 0,0.8938382 -0.1265039,1.0583334 -1.190625,1.0583334 h -2.910419 c -1.02290214,0 -1.19062501,-0.1576914 -1.19062501,-1.0583334 V 1.8520833 c 0,-0.85400515 0.1411647,-1.05833325 1.03352871,-1.05833325 z"
     sodipodi:nodetypes="csssssssscsssssssssss" />
</svg>
