<?xml version="1.0" encoding="UTF-8" standalone="no"?>
<!-- Created with Inkscape (http://www.inkscape.org/) -->

<svg
   width="24"
   height="24"
   viewBox="0 0 6.3499999 6.3500002"
   version="1.1"
   id="svg5013"
   sodipodi:docname="document-viewer.svg"
   inkscape:version="1.1.2 (0a00cf5339, 2022-02-04)"
   xmlns:inkscape="http://www.inkscape.org/namespaces/inkscape"
   xmlns:sodipodi="http://sodipodi.sourceforge.net/DTD/sodipodi-0.dtd"
   xmlns:xlink="http://www.w3.org/1999/xlink"
   xmlns="http://www.w3.org/2000/svg"
   xmlns:svg="http://www.w3.org/2000/svg">
  <sodipodi:namedview
     id="namedview5015"
     pagecolor="#ffffff"
     bordercolor="#666666"
     borderopacity="1.0"
     inkscape:pageshadow="2"
     inkscape:pageopacity="0.0"
     inkscape:pagecheckerboard="0"
     inkscape:document-units="px"
     showgrid="false"
     units="px"
     showguides="true"
     inkscape:zoom="32.75"
     inkscape:cx="11.984733"
     inkscape:cy="12"
     inkscape:window-width="1920"
     inkscape:window-height="1010"
     inkscape:window-x="0"
     inkscape:window-y="0"
     inkscape:window-maximized="1"
     inkscape:current-layer="svg5013" />
  <defs
     id="defs5010">
    <linearGradient
       inkscape:collect="always"
       xlink:href="#linearGradient1871"
       id="linearGradient1873"
       x1="11.046622"
       y1="2.3372049"
       x2="10.794909"
       y2="47.930588"
       gradientUnits="userSpaceOnUse"
       gradientTransform="matrix(0.12026516,0,0,0.11615853,0.28863637,0.25496375)" />
    <linearGradient
       inkscape:collect="always"
       id="linearGradient1871">
      <stop
         style="stop-color:#ffffff;stop-opacity:1;"
         offset="0"
         id="stop1867" />
      <stop
         style="stop-color:#ffffff;stop-opacity:0.1"
         offset="0.12"
         id="stop2515" />
      <stop
         style="stop-color:#ffffff;stop-opacity:0.102"
         offset="0.89999998"
         id="stop2581" />
      <stop
         style="stop-color:#ffffff;stop-opacity:0.502"
         offset="1"
         id="stop1869" />
    </linearGradient>
    <linearGradient
       inkscape:collect="always"
       xlink:href="#linearGradient2290"
       id="linearGradient2292"
       x1="1.9582907"
       y1="0.28538564"
       x2="6.4769249"
       y2="8.5555315"
       gradientUnits="userSpaceOnUse"
       gradientTransform="matrix(0.72413793,0,0,0.70370371,0.10948281,0.06375639)" />
    <linearGradient
       inkscape:collect="always"
       id="linearGradient2290">
      <stop
         style="stop-color:#e8e8e8;stop-opacity:1"
         offset="0"
         id="stop2286" />
      <stop
         style="stop-color:#f5f5f5;stop-opacity:1"
         offset="1"
         id="stop2288" />
    </linearGradient>
    <linearGradient
       id="linearGradient2668"
       x1="140.45"
       x2="217.69"
       y1="291.42999"
       y2="214.2"
       gradientTransform="matrix(0.0077077,-0.00797639,0.0077077,0.00797639,0.23717749,3.708789)"
       gradientUnits="userSpaceOnUse"
       xlink:href="#linearGradient4254" />
    <linearGradient
       id="linearGradient4254">
      <stop
         stop-color="#fff"
         offset="0"
         id="stop31" />
      <stop
         stop-color="#fff"
         stop-opacity=".3"
         offset="1"
         id="stop33" />
    </linearGradient>
    <linearGradient
       id="linearGradient2670"
       x1="299.57001"
       x2="373.31"
       y1="298.92999"
       y2="225.17999"
       gradientTransform="matrix(0.0077077,-0.00797639,0.0077077,0.00797639,0.23717749,3.708789)"
       gradientUnits="userSpaceOnUse"
       xlink:href="#linearGradient4254" />
  </defs>
  <path
     d="M 1.5275554,0.79381578 C 0.28822009,0.80313578 1.9010417e-7,1.1116258 1.9010417e-7,2.3813158 v 2.381217 c 0,1.289844 0.29765619989583,1.5875 1.58750000989583,1.5875 h 3.1749977 c 1.2898438,0 1.5875,-0.297656 1.5875,-1.5875 v -2.381217 c 0,-1.2898437 -0.2976562,-1.58750002 -1.5875,-1.58750002 H 1.5875002 c -0.020153,0 -0.040273,-1.48e-4 -0.059945,0 z"
     style="opacity:0.1;fill:#000000;stroke-width:0.264583;stroke-linecap:round;stroke-linejoin:round"
     id="path9125"
     sodipodi:nodetypes="cssssssssc" />
  <path
     id="rect7669"
     style="fill:#808080;stroke-width:0.264583;stroke-linecap:round;stroke-linejoin:round"
     d="M 1.7973064,0.66145835 C 0.66124888,0.67000474 0.39687501,0.95278432 0.39687501,2.1166667 v 2.1166667 c 0,1.1638823 0.26437379,1.4466584 1.40043139,1.4552084 h 0.054777 2.6458334 c 1.1823568,0 1.4552083,-0.2728518 1.4552083,-1.4552084 V 2.1166667 c 0,-1.1823567 -0.2728515,-1.45520835 -1.4552083,-1.45520835 H 1.8520834 c -0.018474,0 -0.036744,-1.3565e-4 -0.054777,0 z" />
  <path
     id="rect6397"
     style="fill:url(#linearGradient2292);fill-opacity:1;stroke-width:0.182227;stroke-linejoin:round"
     d="M 1.532723,0.39693532 C 0.39666551,0.40548163 0.13229168,0.68826121 0.13229168,1.8521437 v 2.6458334 c 0,1.1638823 0.26437373,1.4466584 1.40043132,1.4552084 H 1.5875 4.7624975 c 1.1823568,0 1.4552083,-0.2728518 1.4552083,-1.4552084 V 1.8521437 c 0,-1.18235679 -0.2728515,-1.45520838 -1.4552083,-1.45520838 H 1.5875 c -0.018474,0 -0.036744,-1.3571e-4 -0.054777,0 z"
     sodipodi:nodetypes="cssccsssssc" />
  <path
     d="M 1.3229167,1.3229167 V 1.5875 H 3.7041668 V 1.3229167 Z"
     style="color:#000000;fill:#aea795;stroke-width:0.264583"
     id="path1083" />
  <path
     id="path49"
     d="M 1.3229167,1.8521892 V 2.1167725 H 5.0270835 V 1.8521892 Z m 0,0.5291667 V 2.6459392 H 2.9104168 V 2.3813559 Z m 0,0.5291667 V 3.172522 H 2.9104168 V 2.9105226 Z m 0,0.5265827 V 3.7016886 H 2.3812501 V 3.4371053 Z m 0,0.5317506 V 4.2334393 H 5.0270835 V 3.9688559 Z m 0,0.5291667 V 4.7626059 H 3.4395835 V 4.4980226 Z"
     style="fill:#c8c4b7;fill-opacity:1;stroke-width:0.264583" />
  <path
     d="m 3.4395993,2.38125 v 1.3229167 l 1.5875001,2.7e-6 V 2.3812527 Z"
     style="color:#000000;fill:#f66151;stroke-width:0.264583"
     id="path1225" />
  <path
     d="m 3.4395993,3.5719809 c 0.2720332,-0.076151 0.5268243,-0.2040583 0.7504113,-0.3767138 0.075462,-0.058341 0.1486138,-0.1234307 0.194646,-0.2069544 0.023019,-0.041791 0.038806,-0.087873 0.043151,-0.1353688 0.00431,-0.047495 -0.00325,-0.096406 -0.0245,-0.1390862 -0.018664,-0.036731 -0.046091,-0.068297 -0.079856,-0.091906 -0.033752,-0.023519 -0.071962,-0.039878 -0.112276,-0.048069 -0.080277,-0.016748 -0.1646423,-0.00336 -0.2413582,0.025665 -0.092273,0.035039 -0.1766861,0.093477 -0.2360189,0.1723416 -0.059383,0.078917 -0.09248,0.1786758 -0.084833,0.2771246 0.00503,0.063783 0.026863,0.125939 0.060537,0.1803506 0.033671,0.054459 0.07902,0.1013301 0.1307068,0.1390862 0.1034256,0.075515 0.2301531,0.1136888 0.3571346,0.1299739 0.2890573,0.03697 0.5909733,-0.037441 0.8297598,-0.2044912 L 5.0257791,3.0222587 C 4.8386181,3.2287449 4.572442,3.3617456 4.294947,3.387516 4.175186,3.3986285 4.0503926,3.3896327 3.9422045,3.3369277 3.8881104,3.3106281 3.8388873,3.2735653 3.8012345,3.2266414 3.7635313,3.1797758 3.7376577,3.1229591 3.7302759,3.0632586 c -0.010795,-0.087085 0.018759,-0.1769984 0.07321,-0.2458085 0.054459,-0.06881 0.132334,-0.1172528 0.2161169,-0.1434862 0.046241,-0.014393 0.095205,-0.022463 0.1432772,-0.016272 0.048019,0.00619 0.09515,0.027596 0.1264656,0.064569 0.025347,0.029951 0.039275,0.068755 0.041685,0.1079236 0.00238,0.039174 -0.00611,0.078605 -0.021749,0.1146333 -0.031157,0.072006 -0.088659,0.129032 -0.1472538,0.1811893 C 3.9489807,3.3155554 3.7045015,3.466487 3.4395834,3.5720153 Z"
     style="overflow:visible;fill:#ffffff;stroke-width:0.0523663;enable-background:new"
     id="path1345" />
  <path
     id="path73-3"
     style="opacity:0.2;fill:#000000;fill-opacity:1;stroke-width:0.132291"
     d="M 4.4680508,4.3404718 C 4.4575564,4.3291379 4.442033,4.3193309 4.4337432,4.3168503 4.4042409,4.3080227 4.360664,4.3007981 4.2997149,4.29039 4.2387657,4.2799817 4.1698121,4.2692584 4.1207543,4.2627802 3.9949388,4.2461661 3.8548243,4.2374 3.732018,4.2351634 l -3.358e-4,-0.00183 -0.053726,1.591e-4 c -0.044298,2.67e-5 -0.084532,0.00107 -0.1199369,0.00375 -0.1746783,0.013237 -0.399257,0.051033 -0.5754616,0.096666 -0.1066609,0.027614 -0.096032,0.02579 -0.1777504,0.028693 -0.097662,0.00347 -0.1227565,3.466e-4 -0.2439551,-0.030937 C 2.4363716,4.2995324 2.3364301,4.2800984 2.185341,4.2582333 2.0335914,4.2362603 1.9532496,4.2312276 1.8064119,4.2340768 c -0.1592092,0.0031 -0.3004103,0.015975 -0.4736581,0.042897 -0.034981,0.00543 -0.0834,0.013667 -0.1253583,0.021202 -0.020979,0.00377 -0.040175,0.00742 -0.055366,0.010363 -0.015193,0.00294 -0.020627,0.00304 -0.035214,0.00743 -0.00778,0.00235 -0.039066,0.022645 -0.047493,0.040832 -0.00843,0.018188 -0.00753,0.02673 -0.00832,0.036767 -0.00158,0.020073 -0.00164,0.046508 -0.00209,0.099004 l -3.717e-4,3.589e-4 -2.075e-4,0.1165793 0.032399,0.028339 c 0.012771,0.011239 0.023554,0.018028 0.037562,0.025509 -0.00495,-0.00265 -3.734e-4,-0.00332 0.00798,0.024625 0.00836,0.027941 0.017272,0.076731 0.029228,0.1470609 0.02678,0.1574582 0.045794,0.2288549 0.083007,0.3113617 0.012087,0.026797 0.026013,0.05284 0.041414,0.077105 -0.087763,0.071781 -0.1409258,0.1276521 -0.1337697,0.1471394 0.037766,0.1028379 0.183711,0.1041716 0.2909623,0.01787 0.014368,0.010143 0.0294,0.019576 0.044818,0.028557 0.062972,0.036695 0.1422399,0.057698 0.2403823,0.068153 0.060134,0.00641 0.1864117,0.0034 0.2478617,-0.00444 0.09933,-0.012766 0.1971408,-0.037436 0.2716868,-0.071274 0.1617928,-0.073455 0.2813752,-0.2265535 0.3607487,-0.4417612 0.02133,-0.057859 0.051893,-0.1615553 0.069127,-0.2334207 0.026529,-0.00444 0.053,-0.00898 0.079902,-0.013224 0.02698,0.00432 0.053959,0.00896 0.080532,0.013466 0.01229,0.070394 0.033869,0.1685406 0.049823,0.2234369 0.053671,0.1846908 0.139263,0.3261123 0.2589225,0.4087222 0.081758,0.056439 0.1806525,0.089728 0.3160195,0.1107697 0.089456,0.013914 0.2357273,0.015603 0.3212018,0.00232 0.095091,-0.014791 0.1683138,-0.041711 0.2416878,-0.090436 0.1012883,0.086316 0.2474396,0.084884 0.292318,-0.017922 C 4.330617,5.3520669 4.28192,5.2960219 4.199722,5.2246066 4.231902,5.1787336 4.259214,5.1275496 4.280932,5.0736258 4.304209,5.0158308 4.319338,4.9652677 4.345766,4.855845 4.358278,4.804042 4.368965,4.758202 4.377674,4.7237387 c 0.00644,-0.025498 0.014935,-0.04863 0.016673,-0.054894 0,0 3.59e-4,3.718e-4 3.59e-4,3.718e-4 0.00297,-0.00216 0.00979,-0.00748 0.025151,-0.017101 l 0.050249,-0.031284 0.00726,-0.081006 -3.589e-4,-3.717e-4 c 0.0023,-0.026176 0.00478,-0.055548 0.00636,-0.092351 0.00125,-0.029277 0.00216,-0.044783 0.00107,-0.061379 -5.413e-4,-0.00829 -1.581e-4,-0.017844 -0.00818,-0.033765 -0.00201,-0.00398 -0.0047,-0.00769 -0.0082,-0.011475 z M 4.0696224,4.5959194 c 0.016422,0.01749 0.029505,0.034714 0.03641,0.049609 0.00998,0.021551 0.013668,0.049712 0.010768,0.1368711 -0.00463,0.1383544 -0.029662,0.2384914 -0.077862,0.315132 C 3.831394,4.9454025 3.5518186,4.7789657 3.3480207,4.7317021 3.2735716,4.7144358 3.1502624,4.6992471 3.0612732,4.6817448 3.4324629,4.6370358 3.8082648,4.6108715 4.0696224,4.5959194 Z M 3.8054557,4.466686 c -0.2179116,0.032098 -0.470505,0.070537 -0.7259368,0.1119515 0.015365,-0.018917 0.039392,-0.036438 0.079167,-0.054899 0.1147647,-0.05328 0.2632087,-0.080975 0.4107375,-0.081273 0.081035,-1.643e-4 0.1617041,0.00808 0.2360323,0.024221 z m 0.050022,0.7354541 c 0.010445,0.010588 0.020965,0.021572 0.031231,0.032341 -0.034817,0.016685 -0.074467,0.029031 -0.1212675,0.038084 -0.035503,0.00687 -0.057459,0.00868 -0.1401404,0.00961 -0.1119309,0.00126 -0.1096507,0.00149 -0.1719595,-0.00995 C 3.3607009,5.2552164 3.2928007,5.2244324 3.2372625,5.1727109 3.1814973,5.1207657 3.1367337,5.0458825 3.0955623,4.9367063 l -3.592e-4,-3.72e-4 C 3.0739491,4.8799203 3.0595771,4.8252104 3.0527181,4.774058 3.1576227,4.796079 3.253981,4.820434 3.3350192,4.848424 3.5370203,4.918198 3.7056493,5.0502636 3.8554777,5.2021401 Z M 2.7756665,4.6292496 c -0.0035,5.966e-4 -0.00714,0.00104 -0.01063,0.00165 -0.00336,-5.891e-4 -0.00684,-0.00105 -0.010205,-0.00164 0.00334,-6.9e-5 0.00647,-5.589e-4 0.010243,-5.496e-4 0.00387,3.9e-6 0.00718,4.719e-4 0.010584,5.525e-4 z M 2.4487029,4.5592209 c 0.00728,0.00686 0.012941,0.013887 0.017536,0.021139 C 2.2034407,4.5370179 1.9419881,4.4970669 1.719438,4.4638985 c 0.013854,-0.00337 0.027503,-0.00688 0.041098,-0.00952 0.066493,-0.012907 0.1369442,-0.018867 0.2071844,-0.019042 0.154609,-3.857e-4 0.3084209,0.029719 0.4195462,0.08407 0.028039,0.013716 0.047509,0.026686 0.061434,0.039812 z M 2.4651989,4.681939 C 2.3747319,4.699429 2.2499952,4.714415 2.1741535,4.731678 1.9656398,4.779139 1.6724274,4.9474731 1.4539698,5.1002852 c -0.00785,-0.0133 -0.014752,-0.027036 -0.02013,-0.040187 -0.031141,-0.076106 -0.041562,-0.1519132 -0.037086,-0.2831505 0.00154,-0.045259 0.00242,-0.069971 0.00404,-0.085082 0.00149,-0.013825 0.0034,-0.019469 0.00748,-0.030934 0.00677,-0.018992 0.022584,-0.042559 0.045015,-0.066459 0.2606889,0.015206 0.6393941,0.041954 1.0119023,0.087466 z m 0.010481,0.090453 C 2.4613449,4.8449108 2.4315581,4.9229082 2.3845431,5.0105444 2.3459612,5.0824467 2.3119946,5.1295152 2.2751435,5.164322 2.1978317,5.2373685 2.0994867,5.2762628 1.9532101,5.2877114 1.8071762,5.2991238 1.6825439,5.2806264 1.5959177,5.2383501 1.7660719,5.0712929 1.955646,4.9235753 2.1790608,4.8483468 2.2642698,4.8196578 2.3658275,4.7948768 2.4756799,4.772392 Z" />
  <g
     id="g1395"
     transform="rotate(46,2.4252912,2.4718441)">
    <path
       id="path73"
       style="fill:#636363;fill-opacity:1;stroke-width:0.132291"
       d="m 4.9883535,2.1838535 c 0,0 -0.5344531,0.7277873 -0.9642828,1.359607 C 3.4133958,3.9883317 2.7099382,4.541849 2.7099382,4.541849 l 0.1364259,0.144694 c 0,0 0.4941493,-0.4768257 1.0061409,-0.8919352 C 3.802242,3.8718348 3.7263725,3.9719728 3.6861066,4.0385208 3.484405,4.3718701 3.3743219,5.1862901 3.4385763,5.2146762 3.549292,5.2635884 3.6622067,5.1309801 3.6540674,4.9733474 3.6389543,4.6808968 3.6486725,4.3789072 3.77344,4.1160352 3.8438703,3.9676566 3.9597494,3.7894809 4.0865992,3.6085729 4.2613992,3.4773136 4.4331224,3.3574415 4.5764922,3.2845615 4.8305094,3.1554438 5.1227834,3.1454155 5.4053826,3.1610548 5.5577055,3.1694791 5.6857081,3.0523878 5.6384437,2.9378126 5.6110135,2.8713183 4.8236818,2.9853947 4.5015614,3.1941277 4.437424,3.2356876 4.3408407,3.3138382 4.2664334,3.3656936 4.6674714,2.8360398 5.1283968,2.3254469 5.1283968,2.3254469 Z" />
    <path
       id="path1204"
       style="color:#000000;fill:#147fde;fill-opacity:1;stroke:none;stroke-width:0.132291;-inkscape-stroke:none"
       d="m 5.0121248,2.1187412 c -0.017026,-0.00529 -0.044719,5.503e-4 -0.054777,0.0062 -0.026844,0.01509 -0.062312,0.041419 -0.1121379,0.078032 -0.049826,0.036613 -0.1054389,0.078765 -0.1441774,0.109554 -0.09935,0.078963 -0.2029877,0.1736635 -0.2899049,0.2604492 l -0.00156,-0.00103 -0.037207,0.038757 c -0.030753,0.031884 -0.057953,0.06155 -0.080615,0.088884 C 4.1799271,2.8344412 4.0511082,3.0222435 3.9615316,3.1806935 3.9073029,3.2766015 3.9133737,3.2676882 3.8586954,3.3284881 3.7933502,3.4011509 3.773671,3.4170323 3.6669759,3.4824838 3.5573885,3.5497044 3.4739833,3.6080964 3.3532997,3.7015919 3.2320794,3.7954878 3.1726489,3.8497848 3.0726964,3.9573903 2.964327,4.0740662 2.8755052,4.1845848 2.7745232,4.3279104 c -0.020392,0.028937 -0.048103,0.069487 -0.07183,0.104903 -0.011863,0.017709 -0.022568,0.034056 -0.031006,0.047026 -0.00844,0.01297 -0.012145,0.016947 -0.01912,0.030489 -0.00372,0.00723 -0.010851,0.043832 -0.00362,0.062528 0.00723,0.018696 0.014,0.023982 0.020671,0.031523 0.013341,0.015081 0.032317,0.033486 0.069763,0.07028 v 5.292e-4 l 0.083727,0.081118 0.042891,-0.00362 c 0.016956,-0.00138 0.02933,-0.00442 0.044442,-0.0093 -0.00534,0.00172 -0.00265,-0.00204 0.023254,0.011369 0.025903,0.013399 0.067194,0.040877 0.1260907,0.081132 0.1318686,0.090116 0.196436,0.1260343 0.2816367,0.1565796 0.1187273,0.042573 0.2428786,0.047072 0.3638023,0.01292 0.070138,-0.019808 0.1403135,-0.062239 0.2160096,-0.1255745 0.046384,-0.038804 0.1319404,-0.1317294 0.168982,-0.1813843 0.059817,-0.08032 0.1100162,-0.1678165 0.1374594,-0.2449462 0.059552,-0.1674096 0.032491,-0.3597815 -0.067179,-0.5663737 -0.032184,-0.066685 -0.1031132,-0.18962 -0.1421101,-0.245463 -0.029517,-0.042265 -0.03287,-0.05932 -0.033073,-0.055811 -2.032e-4,0.00351 0.00348,-0.00902 0.037207,-0.043925 0.033362,-0.034525 0.046015,-0.038482 0.042891,-0.038241 -0.00312,2.413e-4 0.011745,0.00249 0.05116,0.031523 0.053683,0.039539 0.1691306,0.1115671 0.2309939,0.1441773 C 4.5177045,3.7690578 4.678892,3.8057274 4.821439,3.7770368 4.918832,3.7574308 5.0114757,3.7094168 5.1206452,3.6266585 5.192795,3.5719752 5.2956193,3.4679299 5.345438,3.3972158 5.41419,3.2996057 5.4459041,3.212997 5.4570592,3.0949087 5.4671504,2.987813 5.4443089,2.8697215 5.3955642,2.7605621 5.3701589,2.7036704 5.3442966,2.6576636 5.283943,2.5626414 5.2553706,2.5176558 5.2298201,2.478125 5.2110791,2.4479199 c -0.018727,-0.030182 -0.031686,-0.05971 -0.028422,-0.049093 7.937e-4,0.00262 -0.0013,0.00447 0.0062,-0.031006 l 0.012403,-0.057877 -0.053226,-0.061495 h -5.294e-4 c -0.01723,-0.01984 -0.036639,-0.042024 -0.062012,-0.06873 -0.02019,-0.021239 -0.030716,-0.03266 -0.043408,-0.043408 -0.00634,-0.00537 -0.012946,-0.012282 -0.029972,-0.01757 z m -0.045992,0.4702556 c 0.022437,0.00779 0.045255,0.024701 0.1059369,0.087333 0.1276356,0.1317834 0.1818115,0.2426724 0.1834514,0.3612182 0.00108,0.078607 -0.021159,0.1493906 -0.074931,0.2320274 -0.019719,0.030312 -0.033669,0.047363 -0.090434,0.107487 -0.076849,0.08139 -0.075095,0.079914 -0.1266075,0.1167886 C 4.8869536,3.54867 4.8176422,3.576129 4.7418567,3.580151 4.6657527,3.584181 4.5807905,3.564363 4.4736558,3.518139 H 4.4731269 C 4.3871674,3.4810194 4.3153814,3.4338222 4.2653873,3.3827468 4.2291513,3.3457109 4.2125883,3.3184797 4.2064762,3.2917962 4.2004252,3.265375 4.2038065,3.2338628 4.2204303,3.1858595 4.2618263,3.0662935 4.3450219,2.9402729 4.4472898,2.833943 4.5495621,2.7276064 4.6705784,2.6416364 4.7847372,2.5993319 4.8424601,2.5779351 4.9253371,2.5748474 4.9661216,2.5889973 Z M 3.7837752,3.7232944 c 0.025508,0.00628 0.05148,0.023799 0.08785,0.061495 0.066163,0.068587 0.1188938,0.1641409 0.1612306,0.2961061 0.024921,0.077701 0.035184,0.1348311 0.034623,0.1855184 -0.00116,0.1063561 -0.041499,0.2041175 -0.1348754,0.317293 -0.1015196,0.1230154 -0.211371,0.2031593 -0.3079916,0.230477 -0.059376,0.01678 -0.1520051,0.010763 -0.2165246,-0.014986 -0.076378,-0.030467 -0.1381485,-0.075631 -0.2294433,-0.1700157 -0.03149,-0.032544 -0.048655,-0.050344 -0.058394,-0.062012 -0.00891,-0.010676 -0.011644,-0.015968 -0.017052,-0.026872 -0.016711,-0.033687 -0.023328,-0.1019275 -0.00982,-0.1710489 0.00902,-0.0462 0.05461,-0.1468281 0.1059368,-0.2258261 C 3.2362207,4.0866262 3.2808727,4.031808 3.3295393,3.9811593 3.4366623,3.869675 3.5651644,3.7799442 3.681456,3.7377633 3.728407,3.7207373 3.758524,3.7175963 3.7837755,3.7238093 Z" />
    <path
       d="m 3.2831357,3.9338176 c -0.051362,0.053454 -0.098189,0.1116268 -0.1376541,0.1723638 -0.054807,0.084355 -0.1028927,0.1845653 -0.1156447,0.249852 -0.015553,0.079587 -0.012157,0.1596647 0.015226,0.214865 0.00671,0.013534 0.013711,0.025476 0.025989,0.040187 0.012283,0.014718 0.029852,0.033069 0.061442,0.065719 0.094565,0.097758 0.166025,0.1507756 0.2520956,0.1851114 l -1.42e-5,1.47e-5 c 0.078855,0.03147 0.180332,0.038749 0.257281,0.017009 C 3.7567315,4.8464605 3.8748824,4.7572873 3.9821794,4.6272665 4.0819606,4.5063364 4.1309698,4.3912411 4.1323366,4.2670411 4.1330051,4.2064638 4.1208227,4.1416695 4.0945662,4.0598007 4.0500709,3.9211052 3.9927005,3.8154868 3.9174661,3.7375106 3.8772648,3.6958491 3.8408915,3.6685459 3.7986389,3.6581485 3.7563859,3.6477516 3.7121935,3.6554983 3.6596861,3.6745422 3.5308057,3.7212892 3.396135,3.8162257 3.2831358,3.9338248 Z"
       fill="url(#linearGradient2668)"
       opacity="0.5"
       stroke-width="0.130787"
       id="path79"
       style="fill:url(#linearGradient2668)" />
    <path
       d="M 4.4011012,2.786301 C 4.2932567,2.8984304 4.2049203,3.031175 4.1592189,3.1631762 c -0.018717,0.05406 -0.026236,0.1001714 -0.016161,0.1441579 0.010074,0.043988 0.036583,0.081987 0.076916,0.1232049 0.057651,0.058898 0.1362822,0.1100341 0.2283921,0.1498072 0.1123057,0.048459 0.2073989,0.071868 0.2967871,0.067135 0.089387,-0.00474 0.1715878,-0.03826 0.2552332,-0.098126 0.052077,-0.037279 0.059126,-0.043586 0.1361899,-0.1252024 0.057368,-0.060762 0.076208,-0.083121 0.098126,-0.1168138 C 5.2938472,3.21645 5.3217792,3.1299562 5.3204992,3.0368419 5.3185769,2.8969901 5.2525963,2.7676553 5.1181844,2.6288818 a 0.02880576,0.03001657 16.829215 0 0 -1.42e-5,-1.47e-5 C 5.0559339,2.5646261 5.0240426,2.5379718 4.9867004,2.5250099 4.9244769,2.5034255 4.8339608,2.5093714 4.7627019,2.5357918 4.6362737,2.5826477 4.5089387,2.6741804 4.4010941,2.7863098 Z"
       fill="url(#linearGradient2670)"
       opacity="0.5"
       stroke-width="0.130787"
       id="path81"
       style="fill:url(#linearGradient2670)" />
    <path
       id="path83"
       d="M 5.271024,3.0912916 C 5.258697,3.1375596 5.23711,3.1839276 5.204361,3.2334019 5.183657,3.2646869 5.167712,3.2831659 5.109793,3.3434725 5.03156,3.4249255 5.030577,3.4253425 4.978018,3.4623284 4.89805,3.5185874 4.8239396,3.5480254 4.74289,3.5522454 4.661591,3.5564854 4.572258,3.5355504 4.46177,3.4886834 4.372526,3.4508004 4.2973155,3.4024924 4.244212,3.3491572 4.213814,3.3186172 4.194921,3.2931532 4.184784,3.2680252 c 1.029e-4,0.00992 0.00156,0.019426 0.00362,0.028422 0.00725,0.031651 0.026655,0.06149 0.064079,0.099735 0.0522,0.053329 0.1262066,0.1021593 0.2139406,0.1400431 0.1086214,0.04687 0.1965496,0.067799 0.2764692,0.063562 0.079677,-0.00423 0.15238,-0.033661 0.2309938,-0.089917 0.051675,-0.036991 0.052799,-0.037918 0.1297078,-0.1193726 0.056941,-0.060309 0.072144,-0.078781 0.092501,-0.1100709 0.043141,-0.066296 0.06703,-0.1265116 0.074931,-0.1891358 z M 4.0891831,4.3351433 C 4.0678551,4.4074277 4.0268838,4.4789986 3.9625757,4.5552848 3.8562838,4.6813559 3.7402478,4.7654971 3.6333968,4.7950635 3.5649427,4.8139971 3.4664255,4.8072396 3.3941347,4.779043 a 0.03746024,0.03794279 0 0 0 -5.292e-4,0 C 3.3112555,4.746891 3.2439021,4.698164 3.1491756,4.6023095 c -0.032219,-0.032595 -0.049901,-0.050571 -0.060978,-0.063562 -0.010602,-0.012435 -0.015081,-0.020505 -0.021188,-0.032556 -0.00233,-0.00462 -0.00477,-0.00971 -0.00672,-0.014986 0.00317,0.024143 0.00874,0.045772 0.017052,0.062528 0.00598,0.012052 0.010808,0.020122 0.021188,0.032556 0.01084,0.012991 0.028409,0.030968 0.059945,0.063562 0.092716,0.09586 0.1586541,0.1445755 0.2392621,0.1767335 0.070761,0.0282 0.1676121,0.034439 0.234611,0.015502 C 3.7369368,4.8125162 3.8502534,4.7283832 3.9542945,4.6023087 4.0309438,4.509414 4.0740421,4.4239047 4.0891702,4.3351414 Z"
       style="opacity:0.5;fill:#ffffff;stroke-width:0.264583" />
  </g>
  <path
     id="rect5096"
     style="opacity:0.4;stroke-width:0.240954;stroke-linecap:round;stroke-linejoin:round"
     d="M 1.5275554,0.26458333 C 0.28821988,0.27390666 1.0104166e-8,0.58239335 1.0104166e-8,1.8520834 V 4.4978839 C 1.0104166e-8,5.7877277 0.29765627,6.085384 1.5875001,6.085384 h 3.1749975 c 1.2898438,0 1.5875,-0.2976563 1.5875,-1.5875001 V 1.8520834 c 0,-1.28984381 -0.2976562,-1.58750007 -1.5875,-1.58750007 H 1.5875001 c -0.020154,0 -0.040273,-1.4798e-4 -0.059945,0 z m 0.032556,0.26458334 c 0.018033,-1.3565e-4 0.036303,0 0.054777,0 h 3.147609 c 1.1823568,0 1.3229167,0.29315998 1.3229167,1.32291673 v 2.6458005 c 0,1.0162919 -0.1405599,1.3229167 -1.3229167,1.3229167 H 1.5875001 c -0.99193704,0 -1.32291675,-0.1405599 -1.32291675,-1.3229167 V 1.8520834 c 0,-0.96076805 0.15947068,-1.31437034 1.29552805,-1.32291673 z"
     sodipodi:nodetypes="csssssssscssssssssss" />
  <path
     id="rect1565"
     style="fill:url(#linearGradient1873);fill-opacity:1;stroke-width:0.118194;opacity:0.7"
     d="M 1.5601116,0.52922694 C 0.42405397,0.53777695 0.26458335,0.8913756 0.26458335,1.8521436 V 4.497977 c 0,1.1823568 0.33097974,1.3229167 1.32291675,1.3229167 h 3.1749975 c 1.1823568,0 1.3229167,-0.3066248 1.3229167,-1.3229167 V 1.8521436 c 0,-1.02975658 -0.1405599,-1.32291666 -1.3229167,-1.32291666 h -3.147609 c -0.018473,0 -0.036744,-1.356e-4 -0.054777,0 z m 0.00259,0.26458338 h 0.049609 3.0179 c 1.0641211,0 1.190625,0.14300558 1.190625,1.05833328 V 4.497977 c 0,0.8938382 -0.1265039,1.0583334 -1.190625,1.0583334 H 1.7197917 c -1.02290214,0 -1.19062501,-0.1576914 -1.19062501,-1.0583334 V 1.8521436 c 0,-0.8540052 0.14116471,-1.05833328 1.03352871,-1.05833328 z"
     sodipodi:nodetypes="csssssssscsssssssssss" />
</svg>
