<?xml version="1.0" encoding="UTF-8" standalone="no"?>
<!-- Created with Inkscape (http://www.inkscape.org/) -->

<svg
   width="24"
   height="24"
   viewBox="0 0 6.3499999 6.3500002"
   version="1.1"
   id="svg5013"
   sodipodi:docname="gnome-power-statistics.svg"
   inkscape:version="1.1.2 (0a00cf5339, 2022-02-04)"
   xmlns:inkscape="http://www.inkscape.org/namespaces/inkscape"
   xmlns:sodipodi="http://sodipodi.sourceforge.net/DTD/sodipodi-0.dtd"
   xmlns:xlink="http://www.w3.org/1999/xlink"
   xmlns="http://www.w3.org/2000/svg"
   xmlns:svg="http://www.w3.org/2000/svg">
  <sodipodi:namedview
     id="namedview5015"
     pagecolor="#ffffff"
     bordercolor="#666666"
     borderopacity="1.0"
     inkscape:pageshadow="2"
     inkscape:pageopacity="0.0"
     inkscape:pagecheckerboard="0"
     inkscape:document-units="px"
     showgrid="false"
     units="px"
     showguides="false"
     inkscape:zoom="24.348675"
     inkscape:cx="4.5793047"
     inkscape:cy="14.661989"
     inkscape:window-width="1920"
     inkscape:window-height="1010"
     inkscape:window-x="0"
     inkscape:window-y="0"
     inkscape:window-maximized="1"
     inkscape:current-layer="svg5013" />
  <defs
     id="defs5010">
    <linearGradient
       inkscape:collect="always"
       xlink:href="#linearGradient1871"
       id="linearGradient1873"
       x1="11.046622"
       y1="2.3372049"
       x2="10.794909"
       y2="47.930588"
       gradientUnits="userSpaceOnUse"
       gradientTransform="matrix(0.12026516,0,0,0.11615853,0.28863637,0.25496375)" />
    <linearGradient
       inkscape:collect="always"
       id="linearGradient1871">
      <stop
         style="stop-color:#ffffff;stop-opacity:1;"
         offset="0"
         id="stop1867" />
      <stop
         style="stop-color:#ffffff;stop-opacity:0.1"
         offset="0.12"
         id="stop2515" />
      <stop
         style="stop-color:#ffffff;stop-opacity:0.102"
         offset="0.89999998"
         id="stop2581" />
      <stop
         style="stop-color:#ffffff;stop-opacity:0.502"
         offset="1"
         id="stop1869" />
    </linearGradient>
    <linearGradient
       inkscape:collect="always"
       xlink:href="#linearGradient2290"
       id="linearGradient2292"
       x1="1.9582907"
       y1="8.5570965"
       x2="1.9582907"
       y2="0.28538564"
       gradientUnits="userSpaceOnUse"
       gradientTransform="matrix(0.72413793,0,0,0.70370371,0.10948281,0.06375639)" />
    <linearGradient
       inkscape:collect="always"
       id="linearGradient2290">
      <stop
         style="stop-color:#f7f7f7;stop-opacity:1"
         offset="0"
         id="stop2286" />
      <stop
         style="stop-color:#e6e6e6;stop-opacity:1"
         offset="1"
         id="stop2288" />
    </linearGradient>
  </defs>
  <path
     d="M 1.5275554,0.79381578 C 0.28822009,0.80313578 1.9010417e-7,1.1116258 1.9010417e-7,2.3813158 v 2.381217 c 0,1.289844 0.29765619989583,1.5875 1.58750000989583,1.5875 h 3.1749977 c 1.2898438,0 1.5875,-0.297656 1.5875,-1.5875 v -2.381217 c 0,-1.2898437 -0.2976562,-1.58750002 -1.5875,-1.58750002 H 1.5875002 c -0.020153,0 -0.040273,-1.48e-4 -0.059945,0 z"
     style="opacity:0.1;fill:#000000;stroke-width:0.264583;stroke-linecap:round;stroke-linejoin:round"
     id="path9125"
     sodipodi:nodetypes="cssssssssc" />
  <path
     id="rect7669"
     style="fill:#808080;stroke-width:0.264583;stroke-linecap:round;stroke-linejoin:round"
     d="M 1.7973064,0.66145835 C 0.66124888,0.67000474 0.39687501,0.95278432 0.39687501,2.1166667 v 2.1166667 c 0,1.1638823 0.26437379,1.4466584 1.40043139,1.4552084 h 0.054777 2.6458334 c 1.1823568,0 1.4552083,-0.2728518 1.4552083,-1.4552084 V 2.1166667 c 0,-1.1823567 -0.2728515,-1.45520835 -1.4552083,-1.45520835 H 1.8520834 c -0.018474,0 -0.036744,-1.3565e-4 -0.054777,0 z" />
  <path
     id="rect6397"
     style="fill:url(#linearGradient2292);fill-opacity:1;stroke-width:0.182227;stroke-linejoin:round"
     d="M 1.532723,0.39693532 C 0.39666551,0.40548163 0.13229168,0.68826121 0.13229168,1.8521437 v 2.6458334 c 0,1.1638823 0.26437373,1.4466584 1.40043132,1.4552084 H 1.5875 4.7624975 c 1.1823568,0 1.4552083,-0.2728518 1.4552083,-1.4552084 V 1.8521437 c 0,-1.18235679 -0.2728515,-1.45520838 -1.4552083,-1.45520838 H 1.5875 c -0.018474,0 -0.036744,-1.3571e-4 -0.054777,0 z"
     sodipodi:nodetypes="cssccsssssc" />
  <path
     style="color:#000000;opacity:0.5;fill:#1a7fd4;stroke-width:0.264583;-inkscape-stroke:none"
     d="m 4.3878458,1.4816667 c -0.1262168,0 -0.2331749,0.080436 -0.298173,0.1777669 C 4.024675,1.7567649 3.9832865,1.8763583 3.9480795,2.0134172 3.8776651,2.287535 3.8375564,2.6345709 3.7889162,2.9782163 3.7402757,3.3218616 3.6824105,3.6617525 3.5909954,3.9001238 3.5452878,4.0193094 3.491112,4.1112587 3.4354492,4.1672908 3.3797865,4.2233232 3.3291955,4.2473895 3.2550984,4.2473895 H 2.9905151 2.7615886 C 2.6996705,4.2421719 2.658481,4.219927 2.6127604,4.1698747 2.566725,4.119478 2.5221463,4.0383472 2.4840861,3.9342302 2.4079656,3.7259962 2.3575097,3.4322569 2.2996012,3.1347959 2.2416928,2.8373346 2.1770936,2.5349599 2.0484538,2.2914364 1.9199672,2.0482028 1.6998286,1.858156 1.3931966,1.8599382 H 0.26458334 v 0.2645833 h 1.12912996 5.16e-4 c 0.2073707,-0.00151 0.3177601,0.096628 0.4201302,0.2904216 0.1023702,0.1937934 0.1688558,0.477337 0.225826,0.7699789 0.05697,0.2926416 0.1052769,0.5933752 0.195337,0.839742 0.04503,0.1231834 0.100627,0.2345203 0.181901,0.3234944 0.081274,0.088974 0.1941868,0.1529056 0.3240112,0.1632977 l 0.00569,5.291e-4 h 0.2433958 0.2645833 c 0.1439924,0 0.2733625,-0.062928 0.3679362,-0.15813 C 3.717614,4.2586532 3.7842964,4.1347767 3.838014,3.9947042 3.9454496,3.7145586 4.0017053,3.3631459 4.050921,3.0154357 4.100137,2.6677253 4.14162,2.3234575 4.2044,2.0790587 4.23579,1.9568592 4.273824,1.8601099 4.3098198,1.8062071 c 0.035997,-0.053903 0.051816,-0.059945 0.078031,-0.059945 0.037509,0 0.06162,0.010552 0.095601,0.042375 0.033982,0.031823 0.071673,0.087773 0.1054201,0.1627808 0.067494,0.1500161 0.1194355,0.3702982 0.1638144,0.594279 0.044379,0.2239808 0.082023,0.4513847 0.135392,0.6340699 0.026685,0.091342 0.055893,0.171993 0.1018027,0.2413289 0.04591,0.069336 0.1259409,0.1369425 0.2263428,0.1369425 0.070864,0 0.1401295,-0.030754 0.1870687,-0.073381 0.046939,-0.042626 0.076566,-0.093106 0.1002522,-0.1457275 0.047372,-0.105243 0.071919,-0.2242714 0.096118,-0.3379639 0.024199,-0.1136925 0.048056,-0.2225426 0.074931,-0.2883543 0.013298,-0.032566 0.026754,-0.052946 0.032556,-0.058911 H 6.0854168 V 2.3891049 H 5.7024943 c -0.070609,0 -0.1389512,0.034294 -0.1824178,0.078031 -0.043467,0.043737 -0.069249,0.093332 -0.090434,0.1452107 -0.04237,0.1037579 -0.064959,0.2214295 -0.088883,0.3338298 -0.023924,0.1124003 -0.049594,0.2193769 -0.078548,0.2837037 -0.014478,0.032163 -0.029167,0.052079 -0.03669,0.058911 -0.00752,0.00683 -0.00324,0.00465 -0.0093,0.00465 0.00975,0 0.014002,0.011128 -0.00568,-0.018603 -0.019694,-0.029732 -0.04529,-0.091008 -0.06822,-0.1694978 C 5.0964622,2.9483601 5.0574517,2.722914 5.0120971,2.494008 4.9667425,2.2651019 4.9155218,2.032534 4.8301961,1.8428849 4.7875333,1.7480604 4.7361235,1.662601 4.6643148,1.5953548 4.5925061,1.5281086 4.4945811,1.4816667 4.3878458,1.4816667 Z"
     id="path882" />
  <path
     style="color:#000000;fill:#da1636;stroke-width:0.264583;-inkscape-stroke:none"
     d="m 3.0949016,1.8614884 c -0.1425077,0 -0.270888,0.059345 -0.3658692,0.1508952 C 2.6340513,2.1039338 2.5670308,2.2237738 2.5130249,2.3586158 2.4050131,2.6282995 2.3483254,2.9654996 2.2990845,3.29861 2.2498435,3.6317204 2.208591,3.9607899 2.1461222,4.193646 2.1148878,4.310074 2.0770581,4.4018982 2.0417358,4.4525447 c -0.035322,0.050647 -0.051242,0.056844 -0.079582,0.056844 -0.041312,0 -0.068011,-0.010504 -0.1012858,-0.038241 C 1.8275935,4.4434116 1.7914807,4.3952246 1.758549,4.3300718 1.6926855,4.1997658 1.6410633,4.0059431 1.5968017,3.8071061 1.5525402,3.6082691 1.5151074,3.4053924 1.4608927,3.2402157 1.4337854,3.1576273 1.4035376,3.0834723 1.3559896,3.0195574 1.3084415,2.9556425 1.2281311,2.8970842 1.1337809,2.8970842 c -0.067586,0 -0.13385327,0.0258 -0.18138427,0.064596 -0.047531,0.038795 -0.078898,0.08656 -0.1033528,0.1353923 -0.048909,0.097664 -0.07344,0.2056771 -0.097669,0.3079914 -0.024229,0.1023144 -0.048396,0.1991538 -0.073897,0.2552817 -0.012751,0.028064 -0.025173,0.044235 -0.029972,0.048576 -0.0048,0.00434 0.00285,0.00103 0,0.00103 H 0.26458334 v 0.2645833 h 0.38292229 c 0.066998,0 0.1328978,-0.029135 0.1772502,-0.069246 0.044352,-0.040112 0.072179,-0.087251 0.094051,-0.1353923 0.043745,-0.096282 0.066024,-0.2029587 0.089917,-0.3038573 0.023894,-0.1008989 0.049065,-0.1958848 0.076481,-0.2506308 0.013708,-0.027373 0.027175,-0.042918 0.034107,-0.048576 0.00693,-0.00566 0.00513,-0.00517 0.014469,-0.00517 -0.00369,0 -0.00824,-0.00825 0.00982,0.01602 0.018054,0.024268 0.043118,0.07611 0.065629,0.144694 0.045021,0.1371672 0.083716,0.3377975 0.1291911,0.5420858 0.045475,0.2042885 0.097011,0.4129391 0.1839681,0.5849773 0.043479,0.086019 0.096466,0.1643454 0.168982,0.2247924 0.072516,0.060447 0.1678524,0.099735 0.2707845,0.099735 0.1240928,0 0.2309508,-0.075852 0.2966227,-0.1700154 C 2.3244502,4.5097886 2.3665591,4.3941872 2.4019219,4.2623702 2.4726479,3.9987362 2.5124703,3.6662386 2.5610854,3.3373623 2.6097004,3.0084857 2.6676504,2.683602 2.7584892,2.4567957 2.8039082,2.3433926 2.8572292,2.2563239 2.9124852,2.2030645 2.9677402,2.1498055 3.0193213,2.1260665 3.094903,2.1260665 h 0.2382282 0.2402954 0.00156 c 0.1308005,-0.00362 0.1995249,0.050602 0.2723348,0.1700154 0.07281,0.1194138 0.1260745,0.3018224 0.1663981,0.491443 0.040323,0.1896205 0.069232,0.3849794 0.1121378,0.5446694 0.021452,0.079845 0.044865,0.151002 0.085783,0.214974 0.040917,0.063972 0.1176753,0.1283663 0.2113565,0.129708 0.1035762,0.00148 0.1893343,-0.019621 0.2537312,-0.063562 0.064397,-0.04394 0.097897,-0.1021495 0.1188559,-0.1395261 0.02096,-0.037377 0.032044,-0.053772 0.03824,-0.058911 0.0062,-0.00514 0.01319,-0.013436 0.066146,-0.013436 -8.202e-4,0 -0.00287,-0.00359 0.010853,0.00982 0.013724,0.013412 0.035249,0.044006 0.056327,0.087333 0.042157,0.086654 0.083257,0.2194473 0.12299,0.3560506 0.039733,0.1366031 0.078544,0.2770606 0.1317749,0.3948078 0.026616,0.058874 0.056209,0.1130827 0.1002522,0.160197 0.044043,0.047114 0.1124826,0.088884 0.190686,0.088883 H 6.0854168 V 4.2339534 H 5.5128417 c 0.00835,0 0.014616,0.0077 0.00259,-0.00517 -0.012031,-0.012869 -0.032838,-0.04441 -0.05271,-0.088367 C 5.4229813,4.0525064 5.3838947,3.9183624 5.343869,3.7807515 5.3038431,3.6431406 5.2632714,3.5018489 5.2053761,3.382843 5.1764283,3.3233401 5.1434808,3.2681856 5.0958222,3.2216126 c -0.047659,-0.046573 -0.1180931,-0.08475 -0.1958539,-0.08475 -0.094799,0 -0.1781167,0.027131 -0.2351278,0.074414 -0.057011,0.047283 -0.08173,0.1006991 -0.099735,0.1328084 -0.018005,0.032109 -0.026578,0.043391 -0.037207,0.050643 -0.010628,0.00725 -0.032952,0.018545 -0.100769,0.017571 0.011475,1.643e-4 0.022138,0.014743 0.00775,-0.00775 C 4.4204933,3.3820525 4.3992258,3.3307921 4.3811378,3.2634707 4.3449616,3.1288279 4.3151468,2.9327481 4.2726171,2.7327536 4.2300779,2.5327586 4.1760506,2.3268986 4.0731364,2.1581112 3.9702222,1.9893237 3.7946354,1.8552032 3.5677409,1.8614884 H 3.3331298 Z"
     id="path27" />
  <path
     id="rect5096"
     style="opacity:0.4;stroke-width:0.240954;stroke-linecap:round;stroke-linejoin:round"
     d="M 1.5275554,0.26458333 C 0.28821988,0.27390666 1.0104166e-8,0.58239335 1.0104166e-8,1.8520834 V 4.4978839 C 1.0104166e-8,5.7877277 0.29765627,6.085384 1.5875001,6.085384 h 3.1749975 c 1.2898438,0 1.5875,-0.2976563 1.5875,-1.5875001 V 1.8520834 c 0,-1.28984381 -0.2976562,-1.58750007 -1.5875,-1.58750007 H 1.5875001 c -0.020154,0 -0.040273,-1.4798e-4 -0.059945,0 z m 0.032556,0.26458334 c 0.018033,-1.3565e-4 0.036303,0 0.054777,0 h 3.147609 c 1.1823568,0 1.3229167,0.29315998 1.3229167,1.32291673 v 2.6458005 c 0,1.0162919 -0.1405599,1.3229167 -1.3229167,1.3229167 H 1.5875001 c -0.99193704,0 -1.32291675,-0.1405599 -1.32291675,-1.3229167 V 1.8520834 c 0,-0.96076805 0.15947068,-1.31437034 1.29552805,-1.32291673 z"
     sodipodi:nodetypes="csssssssscssssssssss" />
  <path
     id="rect1565"
     style="fill:url(#linearGradient1873);fill-opacity:1;stroke-width:0.118194"
     d="M 1.5601116,0.52922694 C 0.42405397,0.53777695 0.26458335,0.8913756 0.26458335,1.8521436 V 4.497977 c 0,1.1823568 0.33097974,1.3229167 1.32291675,1.3229167 h 3.1749975 c 1.1823568,0 1.3229167,-0.3066248 1.3229167,-1.3229167 V 1.8521436 c 0,-1.02975658 -0.1405599,-1.32291666 -1.3229167,-1.32291666 h -3.147609 c -0.018473,0 -0.036744,-1.356e-4 -0.054777,0 z m 0.00259,0.26458338 h 0.049609 3.0179 c 1.0641211,0 1.190625,0.14300558 1.190625,1.05833328 V 4.497977 c 0,0.8938382 -0.1265039,1.0583334 -1.190625,1.0583334 H 1.7197917 c -1.02290214,0 -1.19062501,-0.1576914 -1.19062501,-1.0583334 V 1.8521436 c 0,-0.8540052 0.14116471,-1.05833328 1.03352871,-1.05833328 z"
     sodipodi:nodetypes="csssssssscsssssssssss" />
</svg>
