<?xml version="1.0" encoding="UTF-8" standalone="no"?>
<!-- Created with Inkscape (http://www.inkscape.org/) -->

<svg
   width="24"
   height="24"
   viewBox="0 0 6.3499999 6.3500002"
   version="1.1"
   id="svg5013"
   sodipodi:docname="kfontview.svg"
   inkscape:version="1.1.2 (0a00cf5339, 2022-02-04)"
   xmlns:inkscape="http://www.inkscape.org/namespaces/inkscape"
   xmlns:sodipodi="http://sodipodi.sourceforge.net/DTD/sodipodi-0.dtd"
   xmlns:xlink="http://www.w3.org/1999/xlink"
   xmlns="http://www.w3.org/2000/svg"
   xmlns:svg="http://www.w3.org/2000/svg">
  <sodipodi:namedview
     id="namedview5015"
     pagecolor="#ffffff"
     bordercolor="#666666"
     borderopacity="1.0"
     inkscape:pageshadow="2"
     inkscape:pageopacity="0.0"
     inkscape:pagecheckerboard="0"
     inkscape:document-units="px"
     showgrid="false"
     units="px"
     showguides="true"
     inkscape:zoom="17.217113"
     inkscape:cx="2.4684742"
     inkscape:cy="20.61902"
     inkscape:window-width="1851"
     inkscape:window-height="1053"
     inkscape:window-x="0"
     inkscape:window-y="0"
     inkscape:window-maximized="1"
     inkscape:current-layer="svg5013" />
  <defs
     id="defs5010">
    <linearGradient
       inkscape:collect="always"
       xlink:href="#linearGradient1871"
       id="linearGradient1873"
       x1="11.046622"
       y1="2.3372049"
       x2="10.794909"
       y2="47.930588"
       gradientUnits="userSpaceOnUse"
       gradientTransform="matrix(0.12026516,0,0,0.11615853,0.28863637,0.25496375)" />
    <linearGradient
       inkscape:collect="always"
       id="linearGradient1871">
      <stop
         style="stop-color:#ffffff;stop-opacity:1;"
         offset="0"
         id="stop1867" />
      <stop
         style="stop-color:#ffffff;stop-opacity:0.1"
         offset="0.12"
         id="stop2515" />
      <stop
         style="stop-color:#ffffff;stop-opacity:0.102"
         offset="0.89999998"
         id="stop2581" />
      <stop
         style="stop-color:#ffffff;stop-opacity:0.502"
         offset="1"
         id="stop1869" />
    </linearGradient>
    <linearGradient
       inkscape:collect="always"
       xlink:href="#linearGradient2290"
       id="linearGradient2292"
       x1="1.9582907"
       y1="0.28538564"
       x2="6.4769249"
       y2="8.5555315"
       gradientUnits="userSpaceOnUse"
       gradientTransform="matrix(0.72413793,0,0,0.70370371,0.10948281,0.06375639)" />
    <linearGradient
       inkscape:collect="always"
       id="linearGradient2290">
      <stop
         style="stop-color:#e8e8e8;stop-opacity:1"
         offset="0"
         id="stop2286" />
      <stop
         style="stop-color:#f5f5f5;stop-opacity:1"
         offset="1"
         id="stop2288" />
    </linearGradient>
  </defs>
  <path
     d="M 1.5275554,0.79381578 C 0.28822009,0.80313578 1.9010417e-7,1.1116258 1.9010417e-7,2.3813158 v 2.381217 c 0,1.289844 0.29765619989583,1.5875 1.58750000989583,1.5875 h 3.1749977 c 1.2898438,0 1.5875,-0.297656 1.5875,-1.5875 v -2.381217 c 0,-1.2898437 -0.2976562,-1.58750002 -1.5875,-1.58750002 H 1.5875002 c -0.020153,0 -0.040273,-1.48e-4 -0.059945,0 z"
     style="opacity:0.1;fill:#000000;stroke-width:0.264583;stroke-linecap:round;stroke-linejoin:round"
     id="path9125"
     sodipodi:nodetypes="cssssssssc" />
  <path
     id="rect7669"
     style="fill:#808080;stroke-width:0.264583;stroke-linecap:round;stroke-linejoin:round"
     d="M 1.7973064,0.66145835 C 0.66124888,0.67000474 0.39687501,0.95278432 0.39687501,2.1166667 v 2.1166667 c 0,1.1638823 0.26437379,1.4466584 1.40043139,1.4552084 h 0.054777 2.6458334 c 1.1823568,0 1.4552083,-0.2728518 1.4552083,-1.4552084 V 2.1166667 c 0,-1.1823567 -0.2728515,-1.45520835 -1.4552083,-1.45520835 H 1.8520834 c -0.018474,0 -0.036744,-1.3565e-4 -0.054777,0 z" />
  <path
     id="rect6397"
     style="fill:url(#linearGradient2292);fill-opacity:1;stroke-width:0.182227;stroke-linejoin:round"
     d="M 1.532723,0.39693532 C 0.39666551,0.40548163 0.13229168,0.68826121 0.13229168,1.8521437 v 2.6458334 c 0,1.1638823 0.26437373,1.4466584 1.40043132,1.4552084 H 1.5875 4.7624975 c 1.1823568,0 1.4552083,-0.2728518 1.4552083,-1.4552084 V 1.8521437 c 0,-1.18235679 -0.2728515,-1.45520838 -1.4552083,-1.45520838 H 1.5875 c -0.018474,0 -0.036744,-1.3571e-4 -0.054777,0 z"
     sodipodi:nodetypes="cssccsssssc" />
  <path
     id="rect2981"
     style="fill:#2f5fdd;fill-opacity:1;stroke-width:0.12451;stroke-linejoin:round"
     d="M 2.1290686,1.8520833 C 2.0369566,2.0439843 1.9486786,2.2384614 1.8642421,2.4354798 1.7798061,2.6299393 1.6941927,2.8345882 1.6071977,3.0495173 1.5227617,3.2644461 1.4358159,3.4921028 1.3462621,3.7326187 1.2567088,3.9705758 1.1606805,4.2303227 1.0583333,4.5117774 H 1.4459672 L 1.6876912,3.832567 h 1.2052157 c 0.040939,0.1151399 0.080536,0.2288471 0.1189159,0.3414291 0.03838,0.1100226 0.079311,0.2226408 0.122808,0.3377813 H 3.5414763 C 3.4391292,4.2303227 3.3433445,3.9705758 3.2537906,3.7326187 3.1642372,3.4921028 3.0759592,3.2644461 2.9889643,3.0495173 2.9045279,2.8345882 2.820004,2.6299393 2.7355675,2.4354798 2.6511311,2.2384614 2.5628535,2.0439843 2.470741,1.8520833 Z m 0.1612305,0.4260569 c 0.086995,0.1919009 0.170187,0.3927962 0.249506,0.6026079 0.081877,0.207253 0.1637372,0.4220736 0.2456149,0.6446786 H 1.7951783 C 1.8744969,3.3028217 1.9539354,3.0880012 2.0332545,2.8807481 2.1151319,2.6709364 2.2007453,2.4700411 2.2902991,2.2781402 Z m 2.2338802,0.1879806 c -0.125376,0 -0.2419895,0.010173 -0.349454,0.030641 -0.107464,0.017911 -0.1842384,0.037165 -0.2302944,0.057635 l 0.042313,0.2954675 c 0.043497,-0.017911 0.1087681,-0.0345 0.1957625,-0.049852 0.089553,-0.017911 0.1930887,-0.026751 0.3107882,-0.026751 0.092112,0 0.1664647,0.013925 0.2227556,0.042071 0.058849,0.025587 0.1048653,0.061431 0.1381281,0.1074867 0.033263,0.043497 0.056271,0.094843 0.069064,0.1536917 0.0128,0.056291 0.019212,0.1138106 0.019212,0.1726602 v 0.099705 c -0.01024,-0.00256 -0.028156,-0.00631 -0.053743,-0.011427 -0.025587,-0.00512 -0.056345,-0.0102 -0.092167,-0.01532 -0.033263,-0.00768 -0.069107,-0.01276 -0.1074866,-0.01532 -0.03838,-0.00512 -0.075556,-0.00779 -0.1113773,-0.00779 -0.1125813,0 -0.2198706,0.011507 -0.3222179,0.034532 -0.1023467,0.023028 -0.191957,0.058872 -0.2687174,0.1074867 -0.07676,0.048615 -0.1382764,0.1125519 -0.1843327,0.1918714 -0.043497,0.079319 -0.065173,0.1740147 -0.065173,0.2840379 0,0.11514 0.019255,0.2135898 0.057635,0.2954675 0.03838,0.081877 0.092147,0.1484797 0.1612305,0.1996534 0.069084,0.048615 0.1509431,0.084459 0.245615,0.1074866 0.094671,0.023028 0.198206,0.034532 0.310788,0.034532 0.079319,0 0.158757,-0.004 0.2380761,-0.01168 0.081877,-0.00512 0.1573191,-0.011293 0.2264035,-0.018968 0.069084,-0.00768 0.1303573,-0.015427 0.1840897,-0.023103 0.056291,-0.01024 0.099885,-0.017984 0.1305893,-0.023101 V 3.2299587 c 0,-0.1125813 -0.01284,-0.2150278 -0.038423,-0.3071401 C 5.2276556,2.8281471 5.1843046,2.74762 5.1228963,2.6810942 5.0640467,2.6120099 4.9846085,2.5595761 4.88482,2.5237547 4.7875903,2.4853747 4.6674655,2.4661204 4.5241793,2.4661208 Z m 0.063957,1.1208312 c 0.00684,-1.2e-4 0.013711,0 0.020427,0 0.081877,0 0.1509011,0.00508 0.2071922,0.01532 0.058849,0.00768 0.1011119,0.017848 0.1266986,0.03064 V 4.227738 C 4.8989571,4.237978 4.8438581,4.245723 4.777333,4.250841 4.713366,4.253401 4.6392566,4.254731 4.5548202,4.254731 4.4140932,4.2547281 4.3028078,4.230388 4.2209302,4.181774 4.1390532,4.130601 4.0981222,4.0409905 4.0981222,3.9130565 c 0,-0.069084 0.016589,-0.1239386 0.049852,-0.1648781 0.033263,-0.043497 0.074193,-0.07692 0.122808,-0.099948 0.051173,-0.025587 0.1062719,-0.042176 0.1651213,-0.049852 0.053732,-0.00672 0.1043773,-0.010587 0.1522328,-0.011426 z" />
  <path
     id="rect1156"
     style="opacity:0.1;fill:#ffffff;fill-opacity:1;stroke-width:0.529167;stroke-linecap:round;stroke-linejoin:round"
     d="m 3.175,0.396875 v 5.5562501 h 1.5875 c 1.1823568,0 1.4552084,-0.2728518 1.4552084,-1.4552083 V 1.8520834 C 6.2177084,0.66972657 5.9448568,0.396875 4.7625,0.396875 Z" />
  <path
     id="rect13049"
     style="opacity:0.2;fill:#ffffff;stroke-width:0.999999;stroke-linecap:round;stroke-linejoin:round"
     d="m 0.50000004,12 v 4.999876 c 0,4.398925 0.99920766,5.467685 5.29296876,5.5 H 6 17.99999 c 4.46875,0 5.5,-1.159104 5.5,-5.5 V 12 Z"
     transform="scale(0.26458334)"
     sodipodi:nodetypes="csccsscc" />
  <path
     id="rect5096"
     style="opacity:0.4;stroke-width:0.240954;stroke-linecap:round;stroke-linejoin:round"
     d="M 1.5275554,0.26458333 C 0.28821988,0.27390666 1.0104166e-8,0.58239335 1.0104166e-8,1.8520834 V 4.4978839 C 1.0104166e-8,5.7877277 0.29765627,6.085384 1.5875001,6.085384 h 3.1749975 c 1.2898438,0 1.5875,-0.2976563 1.5875,-1.5875001 V 1.8520834 c 0,-1.28984381 -0.2976562,-1.58750007 -1.5875,-1.58750007 H 1.5875001 c -0.020154,0 -0.040273,-1.4798e-4 -0.059945,0 z m 0.032556,0.26458334 c 0.018033,-1.3565e-4 0.036303,0 0.054777,0 h 3.147609 c 1.1823568,0 1.3229167,0.29315998 1.3229167,1.32291673 v 2.6458005 c 0,1.0162919 -0.1405599,1.3229167 -1.3229167,1.3229167 H 1.5875001 c -0.99193704,0 -1.32291675,-0.1405599 -1.32291675,-1.3229167 V 1.8520834 c 0,-0.96076805 0.15947068,-1.31437034 1.29552805,-1.32291673 z"
     sodipodi:nodetypes="csssssssscssssssssss" />
  <path
     id="rect1565"
     style="fill:url(#linearGradient1873);fill-opacity:1;stroke-width:0.118194;opacity:0.7"
     d="M 1.5601116,0.52922694 C 0.42405397,0.53777695 0.26458335,0.8913756 0.26458335,1.8521436 V 4.497977 c 0,1.1823568 0.33097974,1.3229167 1.32291675,1.3229167 h 3.1749975 c 1.1823568,0 1.3229167,-0.3066248 1.3229167,-1.3229167 V 1.8521436 c 0,-1.02975658 -0.1405599,-1.32291666 -1.3229167,-1.32291666 h -3.147609 c -0.018473,0 -0.036744,-1.356e-4 -0.054777,0 z m 0.00259,0.26458338 h 0.049609 3.0179 c 1.0641211,0 1.190625,0.14300558 1.190625,1.05833328 V 4.497977 c 0,0.8938382 -0.1265039,1.0583334 -1.190625,1.0583334 H 1.7197917 c -1.02290214,0 -1.19062501,-0.1576914 -1.19062501,-1.0583334 V 1.8521436 c 0,-0.8540052 0.14116471,-1.05833328 1.03352871,-1.05833328 z"
     sodipodi:nodetypes="csssssssscsssssssssss" />
</svg>
