<?xml version="1.0" encoding="UTF-8" standalone="no"?>
<!-- Created with Inkscape (http://www.inkscape.org/) -->

<svg
   width="24"
   height="24"
   viewBox="0 0 6.3499999 6.3500002"
   version="1.1"
   id="svg5013"
   sodipodi:docname="libreoffice-writer.svg"
   inkscape:version="1.1.2 (0a00cf5339, 2022-02-04)"
   xmlns:inkscape="http://www.inkscape.org/namespaces/inkscape"
   xmlns:sodipodi="http://sodipodi.sourceforge.net/DTD/sodipodi-0.dtd"
   xmlns:xlink="http://www.w3.org/1999/xlink"
   xmlns="http://www.w3.org/2000/svg"
   xmlns:svg="http://www.w3.org/2000/svg">
  <sodipodi:namedview
     id="namedview5015"
     pagecolor="#ffffff"
     bordercolor="#666666"
     borderopacity="1.0"
     inkscape:pageshadow="2"
     inkscape:pageopacity="0.0"
     inkscape:pagecheckerboard="0"
     inkscape:document-units="px"
     showgrid="false"
     units="px"
     showguides="false"
     inkscape:zoom="17.217206"
     inkscape:cx="9.3220703"
     inkscape:cy="17.889082"
     inkscape:window-width="1920"
     inkscape:window-height="1010"
     inkscape:window-x="0"
     inkscape:window-y="0"
     inkscape:window-maximized="1"
     inkscape:current-layer="svg5013" />
  <defs
     id="defs5010">
    <linearGradient
       inkscape:collect="always"
       id="linearGradient1150">
      <stop
         style="stop-color:#f2f2f2;stop-opacity:1"
         offset="0"
         id="stop1146" />
      <stop
         style="stop-color:#ffffff;stop-opacity:1"
         offset="1"
         id="stop1148" />
    </linearGradient>
    <linearGradient
       inkscape:collect="always"
       xlink:href="#linearGradient1871"
       id="linearGradient1873"
       x1="17.222656"
       y1="1.325706"
       x2="17.164322"
       y2="46.88232"
       gradientUnits="userSpaceOnUse"
       gradientTransform="matrix(0.12026516,0,0,0.11615853,0.28863637,0.38719515)" />
    <linearGradient
       inkscape:collect="always"
       id="linearGradient1871">
      <stop
         style="stop-color:#ffffff;stop-opacity:1;"
         offset="0"
         id="stop1867" />
      <stop
         style="stop-color:#ffffff;stop-opacity:0.1"
         offset="0.12"
         id="stop2515" />
      <stop
         style="stop-color:#ffffff;stop-opacity:0.102"
         offset="0.89999998"
         id="stop2581" />
      <stop
         style="stop-color:#ffffff;stop-opacity:0.502"
         offset="1"
         id="stop1869" />
    </linearGradient>
    <linearGradient
       inkscape:collect="always"
       xlink:href="#linearGradient2290"
       id="linearGradient2292"
       x1="1.9583793"
       y1="0.097477973"
       x2="6.3288045"
       y2="8.3507528"
       gradientUnits="userSpaceOnUse"
       gradientTransform="matrix(2.7368992,0,0,2.6596675,0.41379327,0.74074096)" />
    <linearGradient
       inkscape:collect="always"
       id="linearGradient2290">
      <stop
         style="stop-color:#0369a3;stop-opacity:1"
         offset="0"
         id="stop2286" />
      <stop
         style="stop-color:#047fc6;stop-opacity:1"
         offset="1"
         id="stop2288" />
    </linearGradient>
    <linearGradient
       inkscape:collect="always"
       xlink:href="#linearGradient1150"
       id="linearGradient1120"
       gradientUnits="userSpaceOnUse"
       gradientTransform="matrix(0.72413793,0,0,0.70370371,0.1094392,0.19593765)"
       x1="2.1166666"
       y1="0.5291667"
       x2="6.0821819"
       y2="7.8572841" />
    <linearGradient
       inkscape:collect="always"
       xlink:href="#linearGradient9171"
       id="linearGradient1939"
       x1="23"
       y1="1.9999999"
       x2="23"
       y2="44"
       gradientUnits="userSpaceOnUse"
       gradientTransform="matrix(0.13229167,0,0,0.13229167,0.39677822,0.13229164)" />
    <linearGradient
       inkscape:collect="always"
       id="linearGradient9171">
      <stop
         style="stop-color:#0369a3;stop-opacity:1"
         offset="0"
         id="stop9167" />
      <stop
         style="stop-color:#047fc6;stop-opacity:1"
         offset="1"
         id="stop9169" />
    </linearGradient>
  </defs>
  <path
     d="M 1.5275552,0.52916667 C 0.28821992,0.53848667 1.6249999e-8,0.84697669 1.6249999e-8,2.1166667 V 4.7625 C 1.6249999e-8,6.052344 0.29765622,6.35 1.5875,6.35 h 3.175 C 6.0523438,6.35 6.35,6.052344 6.35,4.7625 V 2.1166667 C 6.35,0.82682299 6.0523438,0.52916667 4.7625,0.52916667 h -3.175 c -0.020153,0 -0.040273,-1.48e-4 -0.059945,0 z"
     style="opacity:0.1;fill:#000000;stroke-width:0.264583;stroke-linecap:round;stroke-linejoin:round"
     id="path9125"
     sodipodi:nodetypes="cssssssssc" />
  <path
     id="rect6397"
     style="fill:url(#linearGradient2292);fill-opacity:1;stroke-width:0.688732;stroke-linejoin:round"
     d="m 5.7929687,1.4999999 c -4.2937606,0.032301 -5.29296876,1.1010742 -5.29296876,5.5 V 17 c 0,4.398925 0.99920776,5.467685 5.29296876,5.5 H 5.9999999 18 c 4.46875,0 5.5,-1.031251 5.5,-5.5 V 6.9999999 c 0,-4.4687499 -1.03125,-5.5 -5.5,-5.5 H 5.9999999 c -0.069823,0 -0.138875,-5.129e-4 -0.2070312,0 z"
     transform="scale(0.26458334)"
     sodipodi:nodetypes="cssccsssssc" />
  <path
     id="rect6397-6"
     style="fill:url(#linearGradient1120);fill-opacity:1;stroke-width:0.182227;stroke-linejoin:round"
     d="m 1.5626953,0.79374998 c -0.89233165,0.0076 -1.03352866,0.2043281 -1.03352866,1.05833342 v 2.6458333 c 0,0.9006419 0.16772282,1.0583333 1.19062506,1.0583333 h 2.9104167 c 1.0641206,0 1.190625,-0.1601124 1.190625,-1.0583333 V 2.38125 l -1.5875,-1.58750002 H 1.6123047 c -0.016626,0 -0.03338,-1.206e-4 -0.049609,0 z"
     sodipodi:nodetypes="csssssccsc" />
  <path
     id="rect13049"
     style="opacity:0.1;fill:#ffffff;stroke-width:0.264583;stroke-linecap:round;stroke-linejoin:round"
     d="m 0.13229165,3.175 v 1.3229168 c 0,1.1638822 0.2643737,1.4466583 1.40043135,1.4552083 H 1.5875 4.7625001 c 1.1823568,0 1.4552084,-0.3011384 1.4552084,-1.4552083 V 3.175 Z"
     sodipodi:nodetypes="csccsscc" />
  <g
     id="g1828">
    <path
       id="rect1094"
       style="fill:url(#linearGradient1939);fill-opacity:1;stroke-width:0.132291;stroke-linejoin:round"
       d="m 1.4552084,1.8520833 c -0.07329,0 -0.1322917,0.059002 -0.1322917,0.1322917 0,0.07329 0.059002,0.1322917 0.1322917,0.1322917 h 1.3228199 c 0.07329,0 0.1322916,-0.059002 0.1322916,-0.1322917 0,-0.07329 -0.059002,-0.1322917 -0.1322916,-0.1322917 z m 1.9842782,0 c -0.1465791,0 -0.2645833,0.1180042 -0.2645833,0.2645834 v 0.7937499 c 0,0.1465792 0.1180042,0.2645834 0.2645833,0.2645834 h 1.3229167 c 0.1465792,0 0.2645834,-0.1180042 0.2645834,-0.2645834 V 2.1166667 c 0,-0.1465792 -0.1180042,-0.2645834 -0.2645834,-0.2645834 z M 1.4552084,2.38125 c -0.07329,0 -0.1322917,0.059002 -0.1322917,0.1322916 0,0.07329 0.059002,0.1322917 0.1322917,0.1322917 h 1.3228199 c 0.07329,0 0.1322916,-0.059002 0.1322916,-0.1322917 0,-0.073289 -0.059002,-0.1322916 -0.1322916,-0.1322916 z m 0,0.5291666 c -0.07329,0 -0.1322917,0.059002 -0.1322917,0.1322917 0,0.07329 0.059002,0.1322917 0.1322917,0.1322917 h 1.3228199 c 0.07329,0 0.1322916,-0.059002 0.1322916,-0.1322917 0,-0.07329 -0.059002,-0.1322917 -0.1322916,-0.1322917 z m 0,0.5291667 c -0.07329,0 -0.1322917,0.059002 -0.1322917,0.1322917 0,0.07329 0.059002,0.1322917 0.1322917,0.1322917 H 4.894695 c 0.07329,0 0.1322917,-0.059002 0.1322917,-0.1322917 0,-0.07329 -0.059002,-0.1322917 -0.1322917,-0.1322917 z m 0,0.5291667 c -0.07329,0 -0.1322917,0.059002 -0.1322917,0.1322917 0,0.07329 0.059002,0.1322916 0.1322917,0.1322916 H 4.894695 c 0.07329,0 0.1322917,-0.059002 0.1322917,-0.1322916 0,-0.07329 -0.059002,-0.1322917 -0.1322917,-0.1322917 z m 0,0.5291667 c -0.07329,0 -0.1322917,0.059002 -0.1322917,0.1322916 0,0.07329 0.059002,0.1322917 0.1322917,0.1322917 h 2.9103199 c 0.07329,0 0.1322917,-0.059002 0.1322917,-0.1322917 0,-0.07329 -0.059002,-0.1322916 -0.1322917,-0.1322916 z"
       sodipodi:nodetypes="sssssssssssssssssssssssssssssssssssssssssssssssssss" />
    <path
       id="rect3322"
       style="fill:#aadcf7;fill-opacity:1;stroke-width:0.500001;stroke-linejoin:round"
       d="M 13.474609,8 C 13.209694,8.0133421 13,8.2316558 13,8.5 l 0.01953,2.042969 h 0.0098 c -1.06e-4,-6.58e-4 1.04e-4,-0.0013 0,-0.002 l 0.861328,-1.4531254 c 0.279,-0.4719983 0.950485,-0.5025937 1.271484,-0.058594 l 0.699219,0.9628906 c 0.041,0.056992 0.123921,0.059862 0.169922,0.00586 l 0.193359,-0.2265625 c 0.308,-0.3620032 0.868921,-0.3582357 1.169922,0.00977 l 0.625,0.7617193 L 18,8.5 C 17.997346,8.2230113 17.777,8 17.5,8 h -4 c -0.0087,0 -0.01685,-4.304e-4 -0.02539,0 z"
       transform="scale(0.26458334)" />
  </g>
  <path
     id="rect1565"
     style="opacity:0.3;fill:url(#linearGradient1873);fill-opacity:1;stroke-width:0.118194"
     d="M 1.5601116,0.52916667 C 0.42405397,0.53771668 0.26458335,0.89131535 0.26458335,1.8520833 v 2.6458334 c 0,1.1823568 0.33097974,1.3229167 1.32291675,1.3229167 h 3.1749976 c 1.1823568,0 1.3229167,-0.3066248 1.3229167,-1.3229167 V 1.8520833 c 0,-1.02975655 -0.1405599,-1.32291663 -1.3229167,-1.32291663 H 1.6148886 c -0.018473,0 -0.036744,-1.356e-4 -0.054777,0 z m 0.00259,0.26458338 c 0.016229,0 0.032983,0 0.049609,0 h 3.0179001 c 1.0641211,0 1.190625,0.1430056 1.190625,1.05833325 v 2.6458334 c 0,0.8938382 -0.1265039,1.0583334 -1.190625,1.0583334 h -2.910419 c -1.02290214,0 -1.19062501,-0.1576914 -1.19062501,-1.0583334 V 1.8520833 c 0,-0.85400515 0.1411647,-1.05833325 1.03352871,-1.05833325 z"
     sodipodi:nodetypes="csssssssscsssssssssss" />
  <path
     id="rect5096"
     style="opacity:0.4;stroke-width:0.240954;stroke-linecap:round;stroke-linejoin:round"
     d="M 1.5276195,0.26458333 C 0.28828403,0.27390666 6.4159692e-5,0.58239335 6.4159692e-5,1.8520834 v 2.6458333 c 0,1.2898438 0.297656260308,1.5875001 1.587500040308,1.5875001 h 3.1749359 c 1.2898438,0 1.5875,-0.2976563 1.5875,-1.5875001 V 1.8520834 c 0,-1.28984381 -0.2976562,-1.58750007 -1.5875,-1.58750007 H 1.5875642 c -0.020154,0 -0.040273,-1.4798e-4 -0.059945,0 z m 0.032556,0.26458334 c 0.018033,-1.3565e-4 0.036303,0 0.054777,0 h 3.1475474 c 1.1823568,0 1.3229167,0.29315998 1.3229167,1.32291673 v 2.6458333 c 0,1.0162919 -0.1405599,1.3229167 -1.3229167,1.3229167 H 1.5875642 c -0.99193699,0 -1.3229167,-0.1405599 -1.3229167,-1.3229167 V 1.8520834 c 0,-0.96076805 0.15947068,-1.31437034 1.295528,-1.32291673 z"
     sodipodi:nodetypes="csssssssscssssssssss" />
</svg>
