<?xml version="1.0" encoding="UTF-8" standalone="no"?>
<!-- Created with Inkscape (http://www.inkscape.org/) -->

<svg
   width="24"
   height="24"
   viewBox="0 0 6.3499999 6.3500002"
   version="1.1"
   id="svg5013"
   sodipodi:docname="linuxmint.svg"
   inkscape:version="1.1.2 (0a00cf5339, 2022-02-04)"
   xmlns:inkscape="http://www.inkscape.org/namespaces/inkscape"
   xmlns:sodipodi="http://sodipodi.sourceforge.net/DTD/sodipodi-0.dtd"
   xmlns:xlink="http://www.w3.org/1999/xlink"
   xmlns="http://www.w3.org/2000/svg"
   xmlns:svg="http://www.w3.org/2000/svg">
  <sodipodi:namedview
     id="namedview5015"
     pagecolor="#ffffff"
     bordercolor="#666666"
     borderopacity="1.0"
     inkscape:pageshadow="2"
     inkscape:pageopacity="0.0"
     inkscape:pagecheckerboard="0"
     inkscape:document-units="px"
     showgrid="false"
     units="px"
     showguides="false"
     inkscape:zoom="16.5"
     inkscape:cx="7.7272727"
     inkscape:cy="14.939394"
     inkscape:window-width="1850"
     inkscape:window-height="1051"
     inkscape:window-x="70"
     inkscape:window-y="0"
     inkscape:window-maximized="1"
     inkscape:current-layer="svg5013" />
  <defs
     id="defs5010">
    <linearGradient
       inkscape:collect="always"
       xlink:href="#linearGradient1871"
       id="linearGradient1873"
       x1="11.046622"
       y1="2.3372049"
       x2="10.794909"
       y2="47.930588"
       gradientUnits="userSpaceOnUse"
       gradientTransform="matrix(0.12026516,0,0,0.11615853,0.28863637,0.25496375)" />
    <linearGradient
       inkscape:collect="always"
       id="linearGradient1871">
      <stop
         style="stop-color:#ffffff;stop-opacity:1;"
         offset="0"
         id="stop1867" />
      <stop
         style="stop-color:#ffffff;stop-opacity:0.1"
         offset="0.12"
         id="stop2515" />
      <stop
         style="stop-color:#ffffff;stop-opacity:0.102"
         offset="0.89999998"
         id="stop2581" />
      <stop
         style="stop-color:#ffffff;stop-opacity:0.502"
         offset="1"
         id="stop1869" />
    </linearGradient>
    <linearGradient
       inkscape:collect="always"
       xlink:href="#linearGradient2290"
       id="linearGradient2292"
       x1="-1.5371033"
       y1="-0.97478068"
       x2="10.466705"
       y2="10.113205"
       gradientUnits="userSpaceOnUse"
       gradientTransform="matrix(2.7368992,0,0,2.6596675,0.41379326,0.74074091)" />
    <linearGradient
       inkscape:collect="always"
       id="linearGradient2290">
      <stop
         style="stop-color:#76c22b;stop-opacity:1"
         offset="0"
         id="stop2286" />
      <stop
         style="stop-color:#a2d740;stop-opacity:1"
         offset="1"
         id="stop2288" />
    </linearGradient>
  </defs>
  <path
     d="M 1.5275554,0.52923245 C 0.28822009,0.53855245 1.9010417e-7,0.84704247 1.9010417e-7,2.1167326 v 2.6458333 c 0,1.289844 0.29765619989583,1.5875 1.58750000989583,1.5875 h 3.1749977 c 1.2898438,0 1.5875,-0.297656 1.5875,-1.5875 V 2.1167326 c 0,-1.28984383 -0.2976562,-1.58750015 -1.5875,-1.58750015 H 1.5875002 c -0.020153,0 -0.040273,-1.48e-4 -0.059945,0 z"
     style="opacity:0.1;fill:#000000;stroke-width:0.264583;stroke-linecap:round;stroke-linejoin:round"
     id="path9125"
     sodipodi:nodetypes="cssssssssc" />
  <path
     id="rect6397-9"
     style="fill:url(#linearGradient2292);fill-opacity:1;stroke-width:0.688732;stroke-linejoin:round"
     d="M 5.7929688 1.5 C 1.4992082 1.532301 0.5 2.6010741 0.5 7 L 0.5 17 C 0.5 21.398925 1.4992078 22.467685 5.7929688 22.5 L 6 22.5 L 18 22.5 C 22.46875 22.5 23.5 21.468749 23.5 17 L 23.5 7 C 23.5 2.53125 22.46875 1.5 18 1.5 L 6 1.5 C 5.930177 1.5 5.861125 1.4994871 5.7929688 1.5 z "
     transform="scale(0.26458334)" />
  <path
     id="rect13049"
     style="opacity:0.1;fill:#ffffff;fill-opacity:1;stroke-width:0.999999;stroke-linecap:round;stroke-linejoin:round"
     d="m 0.50000004,12 v 4.999876 c 0,4.398925 0.99920766,5.467685 5.29296876,5.5 H 6 17.99999 c 4.46875,0 5.5,-1.087232 5.5,-5.5 V 12 Z"
     transform="scale(0.26458334)"
     sodipodi:nodetypes="csccsscc" />
  <path
     d="m 1.5875,1.8520833 v 2.1065109 c 0,0.5142958 0.4219311,0.9362271 0.936227,0.9362271 h 1.4043407 c 0.5142957,0 0.9362271,-0.4219313 0.9362271,-0.9362271 V 2.7883104 C 4.8642948,2.403287 4.5471477,2.08614 4.1621245,2.08614 3.9822517,2.08614 3.8188363,2.157238 3.6940109,2.270255 3.5691826,2.1572392 3.4057701,2.08614 3.2258974,2.08614 2.8408741,2.08614 2.523727,2.403287 2.523727,2.7883104 V 3.9585942 H 2.9918406 V 2.7883104 c 0,-0.1320388 0.1020181,-0.2340568 0.2340568,-0.2340568 0.1320387,0 0.2340567,0.102018 0.2340567,0.2340568 V 3.9585942 H 3.9280677 V 2.7883104 c 0,-0.1320388 0.102018,-0.2340568 0.2340568,-0.2340568 0.1320387,0 0.2340567,0.102018 0.2340567,0.2340568 v 1.1702838 c 0,0.2613097 -0.2068039,0.4681136 -0.4681135,0.4681136 H 2.523727 c -0.2613098,0 -0.4681135,-0.2068039 -0.4681135,-0.4681136 V 1.8520833 Z"
     style="color:#000000;font-variant-ligatures:normal;font-variant-position:normal;font-variant-caps:normal;font-variant-numeric:normal;font-variant-alternates:normal;font-feature-settings:normal;text-indent:0;text-decoration-line:none;text-decoration-style:solid;text-decoration-color:#000000;text-transform:none;text-orientation:mixed;dominant-baseline:auto;white-space:normal;shape-padding:0;isolation:auto;mix-blend-mode:normal;solid-color:#000000;fill:#000000;stroke-width:0.0700042;color-rendering:auto;image-rendering:auto;shape-rendering:auto;enable-background:accumulate;opacity:0.1"
     id="path1449" />
  <path
     d="m 1.5875,1.5875 v 2.1065109 c 0,0.5142958 0.4219311,0.9362271 0.936227,0.9362271 h 1.4043406 c 0.5142958,0 0.9362271,-0.4219313 0.9362271,-0.9362271 V 2.5237271 c 0,-0.3850234 -0.317147,-0.7021704 -0.7021703,-0.7021704 -0.1798727,0 -0.3432881,0.071098 -0.4681135,0.184115 -0.1248283,-0.1130158 -0.2882408,-0.184115 -0.4681136,-0.184115 -0.3850232,0 -0.7021703,0.317147 -0.7021703,0.7021704 V 3.6940109 H 2.9918406 V 2.5237271 c 0,-0.1320388 0.102018,-0.2340568 0.2340567,-0.2340568 0.1320388,0 0.2340568,0.102018 0.2340568,0.2340568 V 3.6940109 H 3.9280676 V 2.5237271 c 0,-0.1320388 0.1020181,-0.2340568 0.2340568,-0.2340568 0.1320387,0 0.2340568,0.102018 0.2340568,0.2340568 v 1.1702838 c 0,0.2613097 -0.2068039,0.4681136 -0.4681136,0.4681136 H 2.523727 c -0.2613098,0 -0.4681135,-0.2068039 -0.4681135,-0.4681136 V 1.5875 Z"
     style="color:#000000;font-variant-ligatures:normal;font-variant-position:normal;font-variant-caps:normal;font-variant-numeric:normal;font-variant-alternates:normal;font-feature-settings:normal;text-indent:0;text-decoration-line:none;text-decoration-style:solid;text-decoration-color:#000000;text-transform:none;text-orientation:mixed;dominant-baseline:auto;white-space:normal;shape-padding:0;isolation:auto;mix-blend-mode:normal;solid-color:#000000;fill:#ffffff;stroke-width:0.264583;color-rendering:auto;image-rendering:auto;shape-rendering:auto;enable-background:accumulate"
     id="path896"
     sodipodi:nodetypes="csssssscssccsssccssssssscc" />
  <path
     id="rect5096"
     style="opacity:0.4;stroke-width:0.240954;stroke-linecap:round;stroke-linejoin:round"
     d="M 1.5275554,0.26458333 C 0.28821988,0.27390666 1.0104166e-8,0.58239335 1.0104166e-8,1.8520834 V 4.4978839 C 1.0104166e-8,5.7877277 0.29765627,6.085384 1.5875001,6.085384 h 3.1749975 c 1.2898438,0 1.5875,-0.2976563 1.5875,-1.5875001 V 1.8520834 c 0,-1.28984381 -0.2976562,-1.58750007 -1.5875,-1.58750007 H 1.5875001 c -0.020154,0 -0.040273,-1.4798e-4 -0.059945,0 z m 0.032556,0.26458334 c 0.018033,-1.3565e-4 0.036303,0 0.054777,0 h 3.147609 c 1.1823568,0 1.3229167,0.29315998 1.3229167,1.32291673 v 2.6458005 c 0,1.0162919 -0.1405599,1.3229167 -1.3229167,1.3229167 H 1.5875001 c -0.99193704,0 -1.32291675,-0.1405599 -1.32291675,-1.3229167 V 1.8520834 c 0,-0.96076805 0.15947068,-1.31437034 1.29552805,-1.32291673 z"
     sodipodi:nodetypes="csssssssscssssssssss" />
  <path
     id="rect1565"
     style="opacity:1;fill:url(#linearGradient1873);fill-opacity:1;stroke-width:0.118194"
     d="M 1.5601116,0.52922694 C 0.42405397,0.53777695 0.26458335,0.8913756 0.26458335,1.8521436 V 4.497977 c 0,1.1823568 0.33097974,1.3229167 1.32291675,1.3229167 h 3.1749975 c 1.1823568,0 1.3229167,-0.3066248 1.3229167,-1.3229167 V 1.8521436 c 0,-1.02975658 -0.1405599,-1.32291666 -1.3229167,-1.32291666 h -3.147609 c -0.018473,0 -0.036744,-1.356e-4 -0.054777,0 z m 0.00259,0.26458338 h 0.049609 3.0179 c 1.0641211,0 1.190625,0.14300558 1.190625,1.05833328 V 4.497977 c 0,0.8938382 -0.1265039,1.0583334 -1.190625,1.0583334 H 1.7197917 c -1.02290214,0 -1.19062501,-0.1576914 -1.19062501,-1.0583334 V 1.8521436 c 0,-0.8540052 0.14116471,-1.05833328 1.03352871,-1.05833328 z"
     sodipodi:nodetypes="csssssssscsssssssssss" />
</svg>
