<?xml version="1.0" encoding="UTF-8" standalone="no"?>
<!-- Created with Inkscape (http://www.inkscape.org/) -->

<svg
   width="24"
   height="24"
   viewBox="0 0 6.3499999 6.3500002"
   version="1.1"
   id="svg5013"
   sodipodi:docname="lollypop.svg"
   inkscape:version="1.1.2 (0a00cf5339, 2022-02-04)"
   xmlns:inkscape="http://www.inkscape.org/namespaces/inkscape"
   xmlns:sodipodi="http://sodipodi.sourceforge.net/DTD/sodipodi-0.dtd"
   xmlns:xlink="http://www.w3.org/1999/xlink"
   xmlns="http://www.w3.org/2000/svg"
   xmlns:svg="http://www.w3.org/2000/svg">
  <sodipodi:namedview
     id="namedview5015"
     pagecolor="#ffffff"
     bordercolor="#666666"
     borderopacity="1.0"
     inkscape:pageshadow="2"
     inkscape:pageopacity="0.0"
     inkscape:pagecheckerboard="0"
     inkscape:document-units="px"
     showgrid="false"
     units="px"
     showguides="true"
     inkscape:zoom="32.708333"
     inkscape:cx="11.984713"
     inkscape:cy="12"
     inkscape:window-width="1920"
     inkscape:window-height="1012"
     inkscape:window-x="0"
     inkscape:window-y="0"
     inkscape:window-maximized="1"
     inkscape:current-layer="svg5013" />
  <defs
     id="defs5010">
    <linearGradient
       inkscape:collect="always"
       id="linearGradient2861">
      <stop
         style="stop-color:#e72662;stop-opacity:1;"
         offset="0"
         id="stop2857" />
      <stop
         style="stop-color:#f76363;stop-opacity:1"
         offset="1"
         id="stop2859" />
    </linearGradient>
    <linearGradient
       inkscape:collect="always"
       xlink:href="#linearGradient1871"
       id="linearGradient1873"
       x1="11.046622"
       y1="2.3372049"
       x2="10.794909"
       y2="47.930588"
       gradientUnits="userSpaceOnUse"
       gradientTransform="matrix(0.12026516,0,0,0.11615853,0.28863637,0.25496375)" />
    <linearGradient
       inkscape:collect="always"
       id="linearGradient1871">
      <stop
         style="stop-color:#ffffff;stop-opacity:1;"
         offset="0"
         id="stop1867" />
      <stop
         style="stop-color:#ffffff;stop-opacity:0.1"
         offset="0.12"
         id="stop2515" />
      <stop
         style="stop-color:#ffffff;stop-opacity:0.102"
         offset="0.89999998"
         id="stop2581" />
      <stop
         style="stop-color:#ffffff;stop-opacity:0.502"
         offset="1"
         id="stop1869" />
    </linearGradient>
    <linearGradient
       inkscape:collect="always"
       xlink:href="#linearGradient17934"
       id="linearGradient2292"
       x1="-0.15119074"
       y1="-0.090601295"
       x2="8.617857"
       y2="8.9330826"
       gradientUnits="userSpaceOnUse"
       gradientTransform="matrix(0.72413793,0,0,0.70370371,0.10948281,0.06375639)" />
    <linearGradient
       inkscape:collect="always"
       xlink:href="#linearGradient2861"
       id="linearGradient2228"
       x1="-0.40266451"
       y1="0.66668034"
       x2="5.9473357"
       y2="7.0166802"
       gradientUnits="userSpaceOnUse"
       gradientTransform="translate(0.40266448,-0.66668035)" />
    <linearGradient
       inkscape:collect="always"
       id="linearGradient17934">
      <stop
         style="stop-color:#e0e0e0;stop-opacity:1"
         offset="0"
         id="stop17930" />
      <stop
         style="stop-color:#f2f2f2;stop-opacity:1"
         offset="1"
         id="stop17932" />
    </linearGradient>
    <linearGradient
       inkscape:collect="always"
       xlink:href="#linearGradient2861"
       id="linearGradient2863"
       x1="-2.4999999e-08"
       y1="-2.4999999e-08"
       x2="6.3499999"
       y2="6.3499999"
       gradientUnits="userSpaceOnUse"
       gradientTransform="scale(3.7795276)" />
  </defs>
  <path
     d="M 1.5275554,0.79381578 C 0.28822009,0.80313578 1.9010417e-7,1.1116258 1.9010417e-7,2.3813158 v 2.381217 c 0,1.289844 0.29765619989583,1.5875 1.58750000989583,1.5875 h 3.1749977 c 1.2898438,0 1.5875,-0.297656 1.5875,-1.5875 v -2.381217 c 0,-1.2898437 -0.2976562,-1.58750002 -1.5875,-1.58750002 H 1.5875002 c -0.020153,0 -0.040273,-1.48e-4 -0.059945,0 z"
     style="opacity:0.1;fill:#000000;stroke-width:0.264583;stroke-linecap:round;stroke-linejoin:round"
     id="path9125"
     sodipodi:nodetypes="cssssssssc" />
  <path
     id="rect6397"
     style="fill:url(#linearGradient2292);fill-opacity:1;stroke-width:0.182227;stroke-linejoin:round"
     d="M 1.532723,0.39693532 C 0.39666551,0.40548163 0.13229168,0.68826121 0.13229168,1.8521437 v 2.6458334 c 0,1.1638823 0.26437373,1.4466584 1.40043132,1.4552084 H 1.5875 4.7624975 c 1.1823568,0 1.4552083,-0.2728518 1.4552083,-1.4552084 V 1.8521437 c 0,-1.18235679 -0.2728515,-1.45520838 -1.4552083,-1.45520838 H 1.5875 c -0.018474,0 -0.036744,-1.3571e-4 -0.054777,0 z"
     sodipodi:nodetypes="cssccsssssc" />
  <path
     id="path3677"
     style="opacity:0.1;fill:#000000;fill-opacity:1;stroke-width:0.567715"
     d="M 7.7949219 1.5 C 6.927194 3.7023916 6.7262582 5.5203158 6.9667969 7.0292969 C 7.1728114 7.0117977 7.3981724 7.001852 7.6464844 7 C 7.6805757 6.9997437 7.7150734 7 7.75 7 L 12.511719 7 C 13.198736 4.2633079 14.670892 2.5907154 17.480469 1.5 L 7.7949219 1.5 z M 22.431641 2.5800781 C 19.852682 3.6568442 17.432912 5.14787 15.548828 7 L 16.25 7 C 18.393361 7 18.953896 7.4753353 18.996094 9.4863281 C 20.392354 9.088762 21.87549 8.9345311 23.5 9.1875 L 23.5 7 C 23.5 4.7709926 23.24341 3.3972023 22.431641 2.5800781 z M 1.3242188 2.8632812 C 0.7035847 3.7026518 0.5 5.0111584 0.5 7 L 0.5 11.978516 C 1.980343 12.77167 3.4971457 13.385975 5 13.738281 L 5 9.75 C 5 9.5016095 5.0071222 9.2759295 5.0214844 9.0683594 C 3.4823005 7.5607044 2.1955501 5.5667064 1.3242188 2.8632812 z M 19 12.365234 L 19 16.25 C 19 16.406552 18.997673 16.55327 18.992188 16.693359 C 20.392795 17.833396 21.693131 19.242455 22.779297 20.986328 C 23.319323 20.143908 23.5 18.873789 23.5 17 L 23.5 14.013672 C 21.997871 13.280856 20.479746 12.707021 19 12.365234 z M 5.0039062 16.513672 C 3.6075802 16.911257 2.1245998 17.065519 0.5 16.8125 L 0.5 17 C 0.5 20.60691 1.1742632 21.973701 3.7832031 22.367188 C 5.5181591 21.437307 7.1190299 20.30955 8.4511719 19 L 7.75 19 L 7.6464844 19 C 5.5886303 18.98451 5.0455034 18.491485 5.0039062 16.513672 z M 17.033203 18.970703 C 16.79902 18.990583 16.539141 19 16.25 19 L 11.488281 19 C 11.127645 20.436574 10.550651 21.579985 9.6777344 22.5 L 16.841797 22.5 C 17.156642 21.165436 17.196668 19.996168 17.033203 18.970703 z "
     transform="scale(0.26458334)" />
  <path
     id="path1096"
     style="fill:url(#linearGradient2863);fill-opacity:1;stroke-width:0.567715"
     d="M 7.4433594 1.5 C 6.8824442 3.2585938 6.7638322 4.7560336 6.9667969 6.0292969 C 7.1728114 6.0117893 7.3981715 6.0018666 7.6464844 6 C 7.6805614 5.9997437 7.7150772 6 7.75 6 L 12.511719 6 C 13.016589 3.9888845 13.945846 2.5533172 15.517578 1.5 L 7.4433594 1.5 z M 21.53125 1.9824219 C 19.293568 3.0179972 17.21106 4.3659601 15.548828 6 L 16.25 6 C 18.393361 6 18.953896 6.4753345 18.996094 8.4863281 C 20.39221 8.088803 21.875688 7.9365948 23.5 8.1894531 L 23.5 7 C 23.5 4.0952156 23.063597 2.6432076 21.53125 1.9824219 z M 1.5761719 2.5742188 C 0.75910105 3.3907114 0.5 4.7648375 0.5 7 L 0.5 10.974609 C 1.980566 11.767946 3.4969075 12.385919 5 12.738281 L 5 8.75 C 5 8.5016093 5.0070875 8.2759298 5.0214844 8.0683594 C 3.6216527 6.69721 2.4358263 4.9175193 1.5761719 2.5742188 z M 19 11.365234 L 19 15.25 C 19 15.406552 18.997688 15.553269 18.992188 15.693359 C 20.51364 16.93176 21.913983 18.491223 23.052734 20.449219 C 23.3823 19.630996 23.5 18.512493 23.5 17 L 23.5 13.023438 C 21.997502 12.290357 20.480116 11.707106 19 11.365234 z M 5.0039062 15.513672 C 3.6077898 15.911197 2.1243129 16.063405 0.5 15.810547 L 0.5 17 C 0.5 19.905897 0.93694776 21.35692 2.4707031 22.017578 C 4.7082807 20.982217 6.789159 19.633827 8.4511719 18 L 7.75 18 L 7.6464844 18 C 5.5886302 17.98451 5.0455027 17.491485 5.0039062 15.513672 z M 17.033203 17.970703 C 16.799019 17.99058 16.539141 18 16.25 18 L 11.488281 18 C 10.983411 20.011116 10.054154 21.446683 8.4824219 22.5 L 16.556641 22.5 C 17.117556 20.741406 17.236168 19.243966 17.033203 17.970703 z "
     transform="scale(0.26458334)" />
  <path
     d="m 2.3812024,2.3818453 v 2.116336 c 0,0 0.7565496,-0.2776272 1.852983,-1.0589154 0,-1.799e-4 -1.905e-4,-2.646e-4 -1.905e-4,-7.937e-4 -8.74e-5,-2.646e-4 -2.62e-4,-5.292e-4 -7.938e-4,-0.00106 -1.905e-4,-1.862e-4 -2.619e-4,-5.275e-4 -5.292e-4,-0.00106 -1.905e-4,-2.578e-4 -1.905e-4,-7.904e-4 -1.905e-4,-0.00106 C 3.0761729,2.6291117 2.3812976,2.3811839 2.3812976,2.3811839 Z"
     style="color:#000000;opacity:0.2;fill:#000000;fill-opacity:1;stroke-width:0.0700042"
     id="path3011"
     sodipodi:nodetypes="ccccccccc" />
  <path
     d="m 2.3812024,2.1172619 v 2.116336 c 0,0 0.7565496,-0.2776273 1.852983,-1.0589154 0,-1.799e-4 -1.905e-4,-2.646e-4 -1.905e-4,-7.938e-4 -8.73e-5,-2.646e-4 -2.62e-4,-5.291e-4 -7.938e-4,-0.00106 -1.905e-4,-1.879e-4 -2.619e-4,-5.292e-4 -5.291e-4,-0.00106 -1.905e-4,-2.612e-4 -1.905e-4,-7.904e-4 -1.905e-4,-0.00106 C 3.0761729,2.3645283 2.3812976,2.1166005 2.3812976,2.1166005 Z"
     style="color:#000000;fill:url(#linearGradient2228);fill-opacity:1;stroke-width:0.264583"
     id="path886"
     sodipodi:nodetypes="ccccccccc" />
  <path
     id="rect5096"
     style="opacity:0.4;stroke-width:0.240954;stroke-linecap:round;stroke-linejoin:round"
     d="M 1.5275554,0.26458333 C 0.28821988,0.27390666 1.0104166e-8,0.58239335 1.0104166e-8,1.8520834 V 4.4978839 C 1.0104166e-8,5.7877277 0.29765627,6.085384 1.5875001,6.085384 h 3.1749975 c 1.2898438,0 1.5875,-0.2976563 1.5875,-1.5875001 V 1.8520834 c 0,-1.28984381 -0.2976562,-1.58750007 -1.5875,-1.58750007 H 1.5875001 c -0.020154,0 -0.040273,-1.4798e-4 -0.059945,0 z m 0.032556,0.26458334 c 0.018033,-1.3565e-4 0.036303,0 0.054777,0 h 3.147609 c 1.1823568,0 1.3229167,0.29315998 1.3229167,1.32291673 v 2.6458005 c 0,1.0162919 -0.1405599,1.3229167 -1.3229167,1.3229167 H 1.5875001 c -0.99193704,0 -1.32291675,-0.1405599 -1.32291675,-1.3229167 V 1.8520834 c 0,-0.96076805 0.15947068,-1.31437034 1.29552805,-1.32291673 z"
     sodipodi:nodetypes="csssssssscssssssssss" />
  <path
     id="rect1565"
     style="fill:url(#linearGradient1873);fill-opacity:1;stroke-width:0.118194"
     d="M 1.5601116,0.52922694 C 0.42405397,0.53777695 0.26458335,0.8913756 0.26458335,1.8521436 V 4.497977 c 0,1.1823568 0.33097974,1.3229167 1.32291675,1.3229167 h 3.1749975 c 1.1823568,0 1.3229167,-0.3066248 1.3229167,-1.3229167 V 1.8521436 c 0,-1.02975658 -0.1405599,-1.32291666 -1.3229167,-1.32291666 h -3.147609 c -0.018473,0 -0.036744,-1.356e-4 -0.054777,0 z m 0.00259,0.26458338 h 0.049609 3.0179 c 1.0641211,0 1.190625,0.14300558 1.190625,1.05833328 V 4.497977 c 0,0.8938382 -0.1265039,1.0583334 -1.190625,1.0583334 H 1.7197917 c -1.02290214,0 -1.19062501,-0.1576914 -1.19062501,-1.0583334 V 1.8521436 c 0,-0.8540052 0.14116471,-1.05833328 1.03352871,-1.05833328 z"
     sodipodi:nodetypes="csssssssscsssssssssss" />
</svg>
