<?xml version="1.0" encoding="UTF-8" standalone="no"?>
<!-- Created with Inkscape (http://www.inkscape.org/) -->

<svg
   width="24"
   height="24"
   viewBox="0 0 6.3499999 6.3500002"
   version="1.1"
   id="svg5013"
   sodipodi:docname="microsoft-edge.svg"
   inkscape:version="1.1.2 (0a00cf5339, 2022-02-04)"
   xmlns:inkscape="http://www.inkscape.org/namespaces/inkscape"
   xmlns:sodipodi="http://sodipodi.sourceforge.net/DTD/sodipodi-0.dtd"
   xmlns:xlink="http://www.w3.org/1999/xlink"
   xmlns="http://www.w3.org/2000/svg"
   xmlns:svg="http://www.w3.org/2000/svg">
  <sodipodi:namedview
     id="namedview5015"
     pagecolor="#ffffff"
     bordercolor="#666666"
     borderopacity="1.0"
     inkscape:pageshadow="2"
     inkscape:pageopacity="0.0"
     inkscape:pagecheckerboard="0"
     inkscape:document-units="px"
     showgrid="false"
     units="px"
     showguides="true"
     inkscape:zoom="17.270833"
     inkscape:cx="18.007238"
     inkscape:cy="15.546441"
     inkscape:window-width="1851"
     inkscape:window-height="1049"
     inkscape:window-x="0"
     inkscape:window-y="0"
     inkscape:window-maximized="1"
     inkscape:current-layer="svg5013" />
  <defs
     id="defs5010">
    <linearGradient
       inkscape:collect="always"
       xlink:href="#linearGradient1871"
       id="linearGradient1873"
       x1="17.305155"
       y1="0.083426654"
       x2="17.305155"
       y2="47.797596"
       gradientUnits="userSpaceOnUse"
       gradientTransform="matrix(0.12026516,0,0,0.11615853,0.2886364,0.38726097)" />
    <linearGradient
       inkscape:collect="always"
       id="linearGradient1871">
      <stop
         style="stop-color:#ffffff;stop-opacity:1;"
         offset="0"
         id="stop1867" />
      <stop
         style="stop-color:#ffffff;stop-opacity:0.1"
         offset="0.12"
         id="stop2515" />
      <stop
         style="stop-color:#ffffff;stop-opacity:0.102"
         offset="0.89999998"
         id="stop2581" />
      <stop
         style="stop-color:#ffffff;stop-opacity:0.502"
         offset="1"
         id="stop1869" />
    </linearGradient>
    <linearGradient
       id="linear-gradient"
       x1="63.330002"
       y1="84.029999"
       x2="241.67"
       y2="84.029999"
       gradientTransform="matrix(0.26458333,0,0,-0.26458333,-30.855179,42.134199)"
       gradientUnits="userSpaceOnUse">
      <stop
         offset="0"
         stop-color="#0c59a4"
         id="stop4" />
      <stop
         offset="1"
         stop-color="#114a8b"
         id="stop6" />
    </linearGradient>
    <radialGradient
       id="radial-gradient"
       cx="161.83"
       cy="68.910004"
       r="95.379997"
       gradientTransform="matrix(0.26458333,0,0,-0.25135416,-30.855179,37.593949)"
       gradientUnits="userSpaceOnUse">
      <stop
         offset="0.72"
         stop-opacity="0"
         id="stop9" />
      <stop
         offset="0.95"
         stop-opacity="0.53"
         id="stop11" />
      <stop
         offset="1"
         id="stop13" />
    </radialGradient>
    <linearGradient
       id="linear-gradient-2"
       x1="157.35001"
       y1="161.39"
       x2="45.959999"
       y2="40.060001"
       gradientTransform="matrix(0.26458333,0,0,-0.26458333,-30.855179,42.134199)"
       gradientUnits="userSpaceOnUse">
      <stop
         offset="0"
         stop-color="#1b9de2"
         id="stop16" />
      <stop
         offset="0.16"
         stop-color="#1595df"
         id="stop18" />
      <stop
         offset="0.67"
         stop-color="#0680d7"
         id="stop20" />
      <stop
         offset="1"
         stop-color="#0078d4"
         id="stop22" />
    </linearGradient>
    <radialGradient
       id="radial-gradient-2"
       cx="-340.29001"
       cy="62.990002"
       r="143.24001"
       gradientTransform="matrix(0.0396875,-0.2619375,-0.21166666,-0.03175,15.88082,-61.423717)"
       gradientUnits="userSpaceOnUse">
      <stop
         offset="0.76"
         stop-opacity="0"
         id="stop25" />
      <stop
         offset="0.95"
         stop-opacity="0.5"
         id="stop27" />
      <stop
         offset="1"
         id="stop29" />
    </radialGradient>
    <radialGradient
       id="radial-gradient-3"
       cx="113.37"
       cy="570.21002"
       r="202.42999"
       gradientTransform="matrix(-0.01058333,0.26458333,0.56356249,0.02116667,-342.9418,-56.473362)"
       gradientUnits="userSpaceOnUse">
      <stop
         offset="0"
         stop-color="#35c1f1"
         id="stop32" />
      <stop
         offset="0.11"
         stop-color="#34c1ed"
         id="stop34" />
      <stop
         offset="0.23"
         stop-color="#2fc2df"
         id="stop36" />
      <stop
         offset="0.31"
         stop-color="#2bc3d2"
         id="stop38" />
      <stop
         offset="0.67"
         stop-color="#36c752"
         id="stop40" />
    </radialGradient>
    <radialGradient
       id="radial-gradient-4"
       cx="376.51999"
       cy="567.96997"
       r="97.339996"
       gradientTransform="matrix(0.07408333,0.254,0.206375,-0.06085417,-111.22501,-67.535592)"
       gradientUnits="userSpaceOnUse">
      <stop
         offset="0"
         stop-color="#66eb6e"
         id="stop43" />
      <stop
         offset="1"
         stop-color="#66eb6e"
         stop-opacity="0"
         id="stop45" />
    </radialGradient>
  </defs>
  <path
     d="M 1.5275552,0.52916667 C 0.28821992,0.53848667 1.6249999e-8,0.84697669 1.6249999e-8,2.1166667 V 4.7625 C 1.6249999e-8,6.052344 0.29765622,6.35 1.5875,6.35 h 3.175 C 6.0523438,6.35 6.35,6.052344 6.35,4.7625 V 2.1166667 C 6.35,0.82682299 6.0523438,0.52916667 4.7625,0.52916667 h -3.175 c -0.020153,0 -0.040273,-1.48e-4 -0.059945,0 z"
     style="opacity:0.1;fill:#000000;stroke-width:0.264583;stroke-linecap:round;stroke-linejoin:round"
     id="path9125"
     sodipodi:nodetypes="cssssssssc" />
  <path
     id="rect16934"
     style="fill:#ffffff;fill-opacity:1;stroke-width:0.175781;stroke-linecap:round;stroke-linejoin:round"
     d="m 5.7929687,1.4999999 c -4.2937607,0.032301 -5.29296876,1.1010741 -5.29296876,5.5 V 17 c 0,4.398925 0.99920766,5.467685 5.29296876,5.5 H 5.9999999 18 c 4.46875,0 5.5,-1.031251 5.5,-5.5 V 6.9999999 c 0,-4.46875 -1.03125,-5.5 -5.5,-5.5 H 5.9999999 c -0.069823,0 -0.138875,-5.129e-4 -0.2070312,0 z"
     sodipodi:nodetypes="cssccsssssc"
     transform="scale(0.26458334)" />
  <g
     id="g1009"
     transform="matrix(0.07030811,0,0,0.07030811,2.8773624,2.6880766)">
    <path
       class="cls-1"
       d="m 31.50182,23.470491 a 24.799396,24.799396 0 0 1 -2.788708,1.246187 26.953104,26.953104 0 0 1 -9.498542,1.709208 c -12.5200828,0 -23.4262077,-8.612187 -23.4262077,-19.6638326 A 8.3290832,8.3290832 0 0 1 0.13546644,-0.46371735 C -11.1887,0.01253264 -14.099117,11.812949 -14.099117,18.726512 c 0,19.547416 18.0154792,21.529145 21.8969167,21.529145 2.0928541,0 5.2493333,-0.608542 7.1437503,-1.2065 l 0.346604,-0.116417 a 33.956625,33.956625 0 0 0 17.62125,-13.969999 1.0583333,1.0583333 0 0 0 -1.407584,-1.49225 z"
       id="path52"
       style="fill:url(#linear-gradient);stroke-width:0.264583" />
    <path
       class="cls-2"
       d="m 31.50182,23.470491 a 24.799396,24.799396 0 0 1 -2.788708,1.246187 26.953104,26.953104 0 0 1 -9.498542,1.709208 c -12.5200828,0 -23.4262077,-8.612187 -23.4262077,-19.6638326 A 8.3290832,8.3290832 0 0 1 0.13546644,-0.46371735 C -11.1887,0.01253264 -14.099117,11.812949 -14.099117,18.726512 c 0,19.547416 18.0154792,21.529145 21.8969167,21.529145 2.0928541,0 5.2493333,-0.608542 7.1437503,-1.2065 l 0.346604,-0.116417 a 33.956625,33.956625 0 0 0 17.62125,-13.969999 1.0583333,1.0583333 0 0 0 -1.407584,-1.49225 z"
       id="path54"
       style="opacity:0.35;isolation:isolate;fill:url(#radial-gradient);stroke-width:0.264583" />
    <path
       class="cls-3"
       d="M -1.6610544,36.932491 A 20.955,20.955 0 0 1 -7.6776793,31.286282 21.357166,21.357166 0 0 1 0.13546644,-0.46371735 C 0.96096643,-0.85265485 2.3711956,-1.5564465 4.2470914,-1.5220507 a 8.5592707,8.5592707 0 0 1 6.7971456,3.4395833 8.4349166,8.4349166 0 0 1 1.68275,4.937125 c 0,-0.055563 6.471708,-21.0608336 -21.1666663,-21.0608336 -11.6152077,0 -21.1666667,11.022542 -21.1666667,20.6930627 A 34.43552,34.43552 0 0 0 -26.402242,21.303553 33.866666,33.866666 0 0 0 14.9733,39.05974 19.989271,19.989271 0 0 1 -1.6372419,36.943074 Z"
       id="path56"
       style="fill:url(#linear-gradient-2);stroke-width:0.264583" />
    <path
       class="cls-4"
       d="M -1.6610544,36.932491 A 20.955,20.955 0 0 1 -7.6776793,31.286282 21.357166,21.357166 0 0 1 0.13546644,-0.46371735 C 0.96096643,-0.85265485 2.3711956,-1.5564465 4.2470914,-1.5220507 a 8.5592707,8.5592707 0 0 1 6.7971456,3.4395833 8.4349166,8.4349166 0 0 1 1.68275,4.937125 c 0,-0.055563 6.471708,-21.0608336 -21.1666663,-21.0608336 -11.6152077,0 -21.1666667,11.022542 -21.1666667,20.6930627 A 34.43552,34.43552 0 0 0 -26.402242,21.303553 33.866666,33.866666 0 0 0 14.9733,39.05974 19.989271,19.989271 0 0 1 -1.6372419,36.943074 Z"
       id="path58"
       style="opacity:0.41;isolation:isolate;fill:url(#radial-gradient-2);stroke-width:0.264583" />
    <path
       class="cls-5"
       d="m 10.668529,12.442657 c -0.214313,0.277813 -0.8731252,0.661459 -0.8731252,1.497542 0,0.690563 0.4497912,1.354667 1.2488332,1.912938 3.804708,2.645833 10.977563,2.296583 10.996083,2.296583 a 15.758583,15.758583 0 0 0 8.008938,-2.209271 16.240125,16.240125 0 0 0 8.05127,-13.9911664 C 38.16932,-3.9800298 35.983862,-7.9223214 35.100154,-9.6685714 29.493633,-20.63555 17.391591,-26.943217 4.2312164,-26.943217 A 33.866666,33.866666 0 0 0 -29.63545,6.4471992 c 0.127,-9.6678748 9.736667,-17.4757292 21.1666666,-17.4757292 0.9260416,0 6.2071249,0.08996 11.1124998,2.6643544 4.3232916,2.270125 6.5881249,5.0112083 8.1623956,7.72847909 1.635125,2.82310411 1.926167,6.38968741 1.926167,7.81049991 0,1.4208125 -0.724959,3.5268956 -2.06375,5.2678536 z"
       id="path60"
       style="fill:url(#radial-gradient-3);stroke-width:0.264583" />
    <path
       class="cls-6"
       d="m 10.668529,12.442657 c -0.214313,0.277813 -0.8731252,0.661459 -0.8731252,1.497542 0,0.690563 0.4497912,1.354667 1.2488332,1.912938 3.804708,2.645833 10.977563,2.296583 10.996083,2.296583 2.819205,-0.0068 5.584973,-0.769705 8.008938,-2.209271 4.975669,-2.905276 8.039465,-8.2294146 8.05127,-13.9911664 0.06879,-5.9293124 -2.116666,-9.871604 -3.000374,-11.617854 C 29.493633,-20.63555 17.391591,-26.943217 4.2312164,-26.943217 -14.288407,-26.945048 -29.375018,-12.070593 -29.63545,6.4471992 c 0.127,-9.6678748 9.736667,-17.4757292 21.1666666,-17.4757292 0.9260416,0 6.2071249,0.08996 11.1124998,2.6643544 4.3232916,2.270125 6.5881249,5.0112083 8.1623956,7.72847909 1.635125,2.82310411 1.926167,6.38968741 1.926167,7.81049991 0,1.4208125 -0.724959,3.5268956 -2.06375,5.2678536 z"
       id="path62"
       sodipodi:nodetypes="cscccccccsccsc"
       style="fill:url(#radial-gradient-4);stroke-width:0.264583" />
  </g>
  <path
     id="rect5096"
     style="opacity:0.4;stroke-width:0.240954;stroke-linecap:round;stroke-linejoin:round"
     d="M 1.5275554,0.26464907 C 0.2882199,0.27396907 0,0.58245917 0,1.8521492 v 2.6458333 c 0,1.2898438 0.2976563,1.5875001 1.5875001,1.5875001 h 3.1749977 c 1.2898438,0 1.5874999,-0.2976563 1.5874999,-1.5875001 V 1.8521492 c 0,-1.28984383 -0.2976561,-1.58750013 -1.5874999,-1.58750013 H 1.5875001 c -0.020154,0 -0.040273,-1.479e-4 -0.059945,0 z m 0.032556,0.2645834 c 0.018033,-1.357e-4 0.036303,0 0.054777,0 h 3.1476092 c 1.1823568,0 1.3229167,0.29316 1.3229167,1.32291673 v 2.6458333 c 0,1.0162919 -0.1405599,1.3229167 -1.3229167,1.3229167 H 1.5875001 c -0.991937,0 -1.3229168,-0.1405599 -1.3229168,-1.3229167 V 1.8521492 c 0,-0.96076803 0.1594707,-1.31437033 1.2955281,-1.32291673 z"
     sodipodi:nodetypes="csssssssscssssssssss" />
  <path
     id="rect1565"
     style="fill:url(#linearGradient1873);fill-opacity:1;stroke-width:0.118194;opacity:0.4"
     d="M 1.5601116,0.52923247 C 0.424054,0.53778247 0.2645833,0.89138117 0.2645833,1.8521491 v 2.6458334 c 0,1.1823568 0.3309798,1.3229167 1.3229168,1.3229167 h 3.1749977 c 1.1823568,0 1.3229167,-0.3066248 1.3229167,-1.3229167 V 1.8521491 c 0,-1.02975653 -0.1405599,-1.32291663 -1.3229167,-1.32291663 H 1.6148886 c -0.018473,0 -0.036744,-1.356e-4 -0.054777,0 z m 0.00259,0.2645834 h 0.049609 3.0179002 c 1.0641211,0 1.190625,0.1430056 1.190625,1.05833323 v 2.6458334 c 0,0.8938382 -0.1265039,1.0583334 -1.190625,1.0583334 H 1.7197917 c -1.0229021,0 -1.190625,-0.1576914 -1.190625,-1.0583334 V 1.8521491 c 0,-0.85400513 0.1411647,-1.05833323 1.0335287,-1.05833323 z"
     sodipodi:nodetypes="csssssssscsssssssssss" />
</svg>
