<?xml version="1.0" encoding="UTF-8" standalone="no"?>
<!-- Created with Inkscape (http://www.inkscape.org/) -->

<svg
   width="24"
   height="24"
   viewBox="0 0 6.3499999 6.3500002"
   version="1.1"
   id="svg5013"
   sodipodi:docname="preferences-system-notification.svg"
   inkscape:version="1.1.2 (0a00cf5339, 2022-02-04)"
   xmlns:inkscape="http://www.inkscape.org/namespaces/inkscape"
   xmlns:sodipodi="http://sodipodi.sourceforge.net/DTD/sodipodi-0.dtd"
   xmlns:xlink="http://www.w3.org/1999/xlink"
   xmlns="http://www.w3.org/2000/svg"
   xmlns:svg="http://www.w3.org/2000/svg">
  <sodipodi:namedview
     id="namedview5015"
     pagecolor="#ffffff"
     bordercolor="#666666"
     borderopacity="1.0"
     inkscape:pageshadow="2"
     inkscape:pageopacity="0.0"
     inkscape:pagecheckerboard="0"
     inkscape:document-units="px"
     showgrid="false"
     units="px"
     showguides="true"
     inkscape:zoom="25.102291"
     inkscape:cx="11.771834"
     inkscape:cy="13.942951"
     inkscape:window-width="1851"
     inkscape:window-height="1053"
     inkscape:window-x="0"
     inkscape:window-y="0"
     inkscape:window-maximized="1"
     inkscape:current-layer="svg5013" />
  <defs
     id="defs5010">
    <linearGradient
       inkscape:collect="always"
       xlink:href="#linearGradient1871"
       id="linearGradient1873"
       x1="11.046622"
       y1="2.3372049"
       x2="10.794909"
       y2="47.930588"
       gradientUnits="userSpaceOnUse"
       gradientTransform="matrix(0.12026516,0,0,0.11615853,0.28863637,0.25496375)" />
    <linearGradient
       inkscape:collect="always"
       id="linearGradient1871">
      <stop
         style="stop-color:#ffffff;stop-opacity:1;"
         offset="0"
         id="stop1867" />
      <stop
         style="stop-color:#ffffff;stop-opacity:0.1"
         offset="0.12"
         id="stop2515" />
      <stop
         style="stop-color:#ffffff;stop-opacity:0.102"
         offset="0.89999998"
         id="stop2581" />
      <stop
         style="stop-color:#ffffff;stop-opacity:0.502"
         offset="1"
         id="stop1869" />
    </linearGradient>
    <linearGradient
       inkscape:collect="always"
       xlink:href="#linearGradient2290"
       id="linearGradient2292"
       x1="1.9582907"
       y1="0.28538564"
       x2="6.4769249"
       y2="8.5555315"
       gradientUnits="userSpaceOnUse"
       gradientTransform="matrix(0.72413793,0,0,0.70370371,0.10948281,0.06375639)" />
    <linearGradient
       inkscape:collect="always"
       id="linearGradient2290">
      <stop
         style="stop-color:#aea795;stop-opacity:1"
         offset="0"
         id="stop2286" />
      <stop
         style="stop-color:#c8c4b7;stop-opacity:1"
         offset="1"
         id="stop2288" />
    </linearGradient>
    <linearGradient
       inkscape:collect="always"
       xlink:href="#linearGradient4356"
       id="linearGradient1428"
       x1="4.625833"
       y1="4.2484007"
       x2="4.625833"
       y2="2.6608975"
       gradientUnits="userSpaceOnUse"
       gradientTransform="scale(3.7795275)" />
    <linearGradient
       inkscape:collect="always"
       id="linearGradient4356">
      <stop
         style="stop-color:#f3e6d1;stop-opacity:1"
         offset="0"
         id="stop4352" />
      <stop
         style="stop-color:#f7f4ee;stop-opacity:0.94769877"
         offset="1"
         id="stop4354" />
    </linearGradient>
    <linearGradient
       inkscape:collect="always"
       xlink:href="#linearGradient4110"
       id="linearGradient1420"
       x1="2.6587977"
       y1="1.6947724"
       x2="2.6587977"
       y2="4.8697724"
       gradientUnits="userSpaceOnUse"
       gradientTransform="scale(3.7795275)" />
    <linearGradient
       inkscape:collect="always"
       id="linearGradient4110">
      <stop
         style="stop-color:#fdfdfb;stop-opacity:1;"
         offset="0"
         id="stop4106" />
      <stop
         style="stop-color:#f0e9de;stop-opacity:1"
         offset="1"
         id="stop4108" />
    </linearGradient>
    <linearGradient
       inkscape:collect="always"
       xlink:href="#linearGradient4356"
       id="linearGradient1066"
       x1="1.11125"
       y1="2.1459286"
       x2="2.6114523"
       y2="2.1459286"
       gradientUnits="userSpaceOnUse" />
  </defs>
  <path
     d="M 1.5275554,0.79381578 C 0.28822009,0.80313578 1.9010417e-7,1.1116258 1.9010417e-7,2.3813158 v 2.381217 c 0,1.289844 0.29765619989583,1.5875 1.58750000989583,1.5875 h 3.1749977 c 1.2898438,0 1.5875,-0.297656 1.5875,-1.5875 v -2.381217 c 0,-1.2898437 -0.2976562,-1.58750002 -1.5875,-1.58750002 H 1.5875002 c -0.020153,0 -0.040273,-1.48e-4 -0.059945,0 z"
     style="opacity:0.1;fill:#000000;stroke-width:0.264583;stroke-linecap:round;stroke-linejoin:round"
     id="path9125"
     sodipodi:nodetypes="cssssssssc" />
  <path
     id="rect6397"
     style="fill:url(#linearGradient2292);fill-opacity:1;stroke-width:0.182227;stroke-linejoin:round"
     d="M 1.532723,0.39693532 C 0.39666551,0.40548163 0.13229168,0.68826121 0.13229168,1.8521437 v 2.6458334 c 0,1.1638823 0.26437373,1.4466584 1.40043132,1.4552084 H 1.5875 4.7624975 c 1.1823568,0 1.4552083,-0.2728518 1.4552083,-1.4552084 V 1.8521437 c 0,-1.18235679 -0.2728515,-1.45520838 -1.4552083,-1.45520838 H 1.5875 c -0.018474,0 -0.036744,-1.3571e-4 -0.054777,0 z"
     sodipodi:nodetypes="cssccsssssc" />
  <path
     id="path1026"
     style="fill:url(#linearGradient1428);fill-opacity:1;stroke-width:0.999999;enable-background:new"
     d="M 10.984375 11.017578 A 4.9999998 4.9999998 0 0 1 7 13 A 4.9999998 4.9999998 0 0 1 5 12.580078 L 5 15.304688 C 5 15.919437 5.1153049 16.36126 5.3417969 16.630859 C 5.5574983 16.8897 5.9779554 17.021484 6.6035156 17.021484 L 8.0898438 17.021484 L 10.048828 18.40625 L 12.007812 17.021484 L 17.396484 17.021484 C 18.022014 17.021484 18.442503 16.889701 18.658203 16.630859 C 18.884684 16.361228 19 15.919448 19 15.304688 L 19 11.017578 L 10.984375 11.017578 z "
     transform="scale(0.26458334)" />
  <path
     id="path886"
     style="fill:url(#linearGradient1420);fill-opacity:1;stroke-width:0.999999;enable-background:new"
     d="M 11.898438 7 A 4.9999998 4.9999998 0 0 1 12 8 A 4.9999998 4.9999998 0 0 1 7 13 A 4.9999998 4.9999998 0 0 1 5 12.578125 L 5 15.087891 L 8.0898438 17.021484 L 10.048828 18.40625 L 12.007812 17.021484 L 19 11.712891 L 19 8.7265625 C 19 8.1118125 18.884684 7.6680372 18.658203 7.3984375 C 18.442503 7.1395973 18.022024 7 17.396484 7 L 11.898438 7 z "
     transform="scale(0.26458334)" />
  <circle
     style="fill:#924d8b;fill-opacity:1;stroke-width:0.120873"
     id="path867"
     cx="1.8520834"
     cy="2.1166668"
     r="1.0583334" />
  <path
     d="m 1.6978842,1.3772396 h 0.3173519 l -0.01924,0.4231428 c -0.00101,0.00637 -0.00101,0.012867 0,0.01924 -2.511e-4,0.0032 -2.511e-4,0.00641 0,0.00961 0.00613,0.018113 0.020354,0.032335 0.038466,0.038468 0.0032,2.511e-4 0.00641,2.511e-4 0.00961,0 0.00637,0.00101 0.012867,0.00101 0.01924,0 0.00637,0.00101 0.012867,0.00101 0.01924,0 0.00355,-0.00284 0.00677,-0.00606 0.00961,-0.00961 L 2.4479738,1.6272899 2.6018427,1.9061819 2.2267694,2.0985192 c -0.0032,-2.511e-4 -0.00641,-2.511e-4 -0.00961,0 -0.00355,0.00284 -0.00677,0.00606 -0.00961,0.00961 -0.00557,0.00865 -0.00887,0.018569 -0.00961,0.028833 -0.00101,0.00637 -0.00101,0.012867 0,0.01924 -2.511e-4,0.0032 -2.511e-4,0.00641 0,0.00961 0.00204,0.00693 0.0053,0.013444 0.00961,0.01924 0.00284,0.00355 0.00606,0.00677 0.00961,0.00961 0.00284,0.00355 0.00606,0.00677 0.00961,0.00961 L 2.6114524,2.3966093 2.4479632,2.6755013 2.0921515,2.4351538 c -0.0032,-2.511e-4 -0.00641,-2.511e-4 -0.00961,0 -0.0058,-0.00431 -0.012311,-0.00756 -0.01924,-0.00961 -0.00637,-0.00101 -0.012867,-0.00101 -0.01924,0 -0.016208,0.00398 -0.030098,0.014393 -0.038468,0.028835 -0.00355,0.00284 -0.00677,0.00606 -0.00961,0.00961 -2.511e-4,0.0032 -2.511e-4,0.00641 0,0.00961 -0.00101,0.00637 -0.00101,0.012867 0,0.01924 l 0.01924,0.4231852 h -0.317352 l 0.028838,-0.4231428 c -7.408e-4,-0.010266 -0.00404,-0.02018 -0.00961,-0.028835 -0.00204,-0.00693 -0.0053,-0.013443 -0.00961,-0.01924 -0.0058,-0.00431 -0.012311,-0.00756 -0.01924,-0.00961 -0.0058,-0.00431 -0.012311,-0.00756 -0.01924,-0.00961 -0.0032,-2.511e-4 -0.00641,-2.511e-4 -0.00961,0 -0.010266,7.408e-4 -0.02018,0.00404 -0.028835,0.00961 L 1.2651211,2.6756283 1.11125,2.3967363 1.4959331,2.2043991 c 0.00355,-0.00284 0.00677,-0.00606 0.00961,-0.00961 0.00355,-0.00284 0.00677,-0.00606 0.00961,-0.00961 0.00431,-0.0058 0.00756,-0.012311 0.00961,-0.01924 2.51e-4,-0.0032 2.51e-4,-0.00641 0,-0.00961 0.00101,-0.00637 0.00101,-0.012867 0,-0.01924 2.51e-4,-0.0032 2.51e-4,-0.00641 0,-0.00961 -0.00204,-0.00693 -0.0053,-0.013443 -0.00961,-0.01924 -0.00284,-0.00355 -0.00606,-0.00677 -0.00961,-0.00961 -0.0032,-2.511e-4 -0.00641,-2.511e-4 -0.00961,0 L 1.11125,1.906292 1.2651211,1.6273999 1.6305636,1.8582013 c 0.00284,0.00355 0.00606,0.00677 0.00961,0.00961 0.00637,0.00101 0.012867,0.00101 0.01924,0 0.00637,0.00101 0.012867,0.00101 0.01924,0 0.0032,2.511e-4 0.00641,2.511e-4 0.00961,0 0.00355,-0.00284 0.00677,-0.00606 0.00961,-0.00961 0.00355,-0.00284 0.00677,-0.00606 0.00961,-0.00961 0.00355,-0.00284 0.00677,-0.00606 0.00961,-0.00961 2.511e-4,-0.0032 2.511e-4,-0.00641 0,-0.00961 0.00431,-0.0058 0.00756,-0.012311 0.00961,-0.01924 2.511e-4,-0.0032 2.511e-4,-0.00641 0,-0.00961 l -0.027697,-0.424688 z"
     style="fill:url(#linearGradient1066);fill-opacity:1.0;stroke-width:0.384678;enable-background:new"
     id="path904" />
  <path
     id="rect5096"
     style="opacity:0.4;stroke-width:0.240954;stroke-linecap:round;stroke-linejoin:round"
     d="M 1.5275554,0.26458333 C 0.28821988,0.27390666 1.0104166e-8,0.58239335 1.0104166e-8,1.8520834 V 4.4978839 C 1.0104166e-8,5.7877277 0.29765627,6.085384 1.5875001,6.085384 h 3.1749975 c 1.2898438,0 1.5875,-0.2976563 1.5875,-1.5875001 V 1.8520834 c 0,-1.28984381 -0.2976562,-1.58750007 -1.5875,-1.58750007 H 1.5875001 c -0.020154,0 -0.040273,-1.4798e-4 -0.059945,0 z m 0.032556,0.26458334 c 0.018033,-1.3565e-4 0.036303,0 0.054777,0 h 3.147609 c 1.1823568,0 1.3229167,0.29315998 1.3229167,1.32291673 v 2.6458005 c 0,1.0162919 -0.1405599,1.3229167 -1.3229167,1.3229167 H 1.5875001 c -0.99193704,0 -1.32291675,-0.1405599 -1.32291675,-1.3229167 V 1.8520834 c 0,-0.96076805 0.15947068,-1.31437034 1.29552805,-1.32291673 z"
     sodipodi:nodetypes="csssssssscssssssssss" />
  <path
     id="rect1565"
     style="fill:url(#linearGradient1873);fill-opacity:1;stroke-width:0.118194"
     d="M 1.5601116,0.52922694 C 0.42405397,0.53777695 0.26458335,0.8913756 0.26458335,1.8521436 V 4.497977 c 0,1.1823568 0.33097974,1.3229167 1.32291675,1.3229167 h 3.1749975 c 1.1823568,0 1.3229167,-0.3066248 1.3229167,-1.3229167 V 1.8521436 c 0,-1.02975658 -0.1405599,-1.32291666 -1.3229167,-1.32291666 h -3.147609 c -0.018473,0 -0.036744,-1.356e-4 -0.054777,0 z m 0.00259,0.26458338 h 0.049609 3.0179 c 1.0641211,0 1.190625,0.14300558 1.190625,1.05833328 V 4.497977 c 0,0.8938382 -0.1265039,1.0583334 -1.190625,1.0583334 H 1.7197917 c -1.02290214,0 -1.19062501,-0.1576914 -1.19062501,-1.0583334 V 1.8521436 c 0,-0.8540052 0.14116471,-1.05833328 1.03352871,-1.05833328 z"
     sodipodi:nodetypes="csssssssscsssssssssss" />
</svg>
