<?xml version="1.0" encoding="UTF-8" standalone="no"?>
<!-- Created with Inkscape (http://www.inkscape.org/) -->

<svg
   width="24"
   height="24"
   viewBox="0 0 6.3499999 6.3500002"
   version="1.1"
   id="svg5013"
   sodipodi:docname="preferences-desktop-peripherals.svg"
   inkscape:version="1.1.2 (0a00cf5339, 2022-02-04)"
   xmlns:inkscape="http://www.inkscape.org/namespaces/inkscape"
   xmlns:sodipodi="http://sodipodi.sourceforge.net/DTD/sodipodi-0.dtd"
   xmlns:xlink="http://www.w3.org/1999/xlink"
   xmlns="http://www.w3.org/2000/svg"
   xmlns:svg="http://www.w3.org/2000/svg">
  <sodipodi:namedview
     id="namedview5015"
     pagecolor="#ffffff"
     bordercolor="#666666"
     borderopacity="1.0"
     inkscape:pageshadow="2"
     inkscape:pageopacity="0.0"
     inkscape:pagecheckerboard="0"
     inkscape:document-units="px"
     showgrid="false"
     units="px"
     showguides="true"
     inkscape:zoom="34.541667"
     inkscape:cx="11.985525"
     inkscape:cy="12"
     inkscape:window-width="1851"
     inkscape:window-height="1049"
     inkscape:window-x="0"
     inkscape:window-y="0"
     inkscape:window-maximized="1"
     inkscape:current-layer="svg5013" />
  <defs
     id="defs5010">
    <linearGradient
       inkscape:collect="always"
       xlink:href="#linearGradient1871"
       id="linearGradient1873"
       x1="11.046622"
       y1="2.3372049"
       x2="10.794909"
       y2="47.930588"
       gradientUnits="userSpaceOnUse"
       gradientTransform="matrix(0.12026516,0,0,0.11615853,0.28863637,0.25496375)" />
    <linearGradient
       inkscape:collect="always"
       id="linearGradient1871">
      <stop
         style="stop-color:#ffffff;stop-opacity:1;"
         offset="0"
         id="stop1867" />
      <stop
         style="stop-color:#ffffff;stop-opacity:0.1"
         offset="0.12"
         id="stop2515" />
      <stop
         style="stop-color:#ffffff;stop-opacity:0.102"
         offset="0.89999998"
         id="stop2581" />
      <stop
         style="stop-color:#ffffff;stop-opacity:0.502"
         offset="1"
         id="stop1869" />
    </linearGradient>
    <radialGradient
       inkscape:collect="always"
       xlink:href="#linearGradient2799"
       id="radialGradient2801"
       cx="6.2918267"
       cy="7.5567431"
       fx="6.2918267"
       fy="7.5567431"
       r="2.7781248"
       gradientTransform="matrix(0.96913543,-1.8095906e-8,1.7099349e-8,0.92855718,-3.0549437,-2.7836646)"
       gradientUnits="userSpaceOnUse" />
    <linearGradient
       inkscape:collect="always"
       id="linearGradient2799">
      <stop
         style="stop-color:#cdcdcd;stop-opacity:1;"
         offset="0"
         id="stop2795" />
      <stop
         style="stop-color:#cdcdcd;stop-opacity:1"
         offset="0.50536346"
         id="stop3635" />
      <stop
         style="stop-color:#e6e6e6;stop-opacity:1"
         offset="1"
         id="stop2797" />
    </linearGradient>
    <radialGradient
       inkscape:collect="always"
       xlink:href="#linearGradient4248"
       id="radialGradient4410"
       cx="6.2918267"
       cy="7.1982756"
       fx="6.2918267"
       fy="7.1982756"
       r="2.778125"
       gradientTransform="matrix(0.86436977,0,0,0.73808387,-2.3957756,-1.3443103)"
       gradientUnits="userSpaceOnUse" />
    <linearGradient
       inkscape:collect="always"
       id="linearGradient4248">
      <stop
         style="stop-color:#cdcdcd;stop-opacity:0"
         offset="0"
         id="stop4244" />
      <stop
         style="stop-color:#ffffff;stop-opacity:1"
         offset="1"
         id="stop4246" />
    </linearGradient>
    <linearGradient
       inkscape:collect="always"
       xlink:href="#linearGradient1871"
       id="linearGradient5422"
       x1="23.673721"
       y1="9.0039377"
       x2="23.673721"
       y2="39.003937"
       gradientUnits="userSpaceOnUse"
       gradientTransform="matrix(0.14553398,0,0,0.13228963,-0.41812899,-4.9845914e-4)" />
  </defs>
  <path
     d="M 1.5275554,0.79381578 C 0.28822009,0.80313578 1.9010417e-7,1.1116258 1.9010417e-7,2.3813158 v 2.381217 c 0,1.289844 0.29765619989583,1.5875 1.58750000989583,1.5875 h 3.1749977 c 1.2898438,0 1.5875,-0.297656 1.5875,-1.5875 v -2.381217 c 0,-1.2898437 -0.2976562,-1.58750002 -1.5875,-1.58750002 H 1.5875002 c -0.020153,0 -0.040273,-1.48e-4 -0.059945,0 z"
     style="opacity:0.1;fill:#000000;stroke-width:0.264583;stroke-linecap:round;stroke-linejoin:round"
     id="path9125"
     sodipodi:nodetypes="cssssssssc" />
  <path
     id="rect6397"
     style="fill:#4d4d4d;fill-opacity:1;stroke-width:0.182227;stroke-linejoin:round"
     d="M 1.532723,0.39693532 C 0.39666551,0.40548163 0.13229168,0.68826121 0.13229168,1.8521437 v 2.6458334 c 0,1.1638823 0.26437373,1.4466584 1.40043132,1.4552084 H 1.5875 4.7624975 c 1.1823568,0 1.4552083,-0.2728518 1.4552083,-1.4552084 V 1.8521437 c 0,-1.18235679 -0.2728515,-1.45520838 -1.4552083,-1.45520838 H 1.5875 c -0.018474,0 -0.036744,-1.3571e-4 -0.054777,0 z"
     sodipodi:nodetypes="cssccsssssc" />
  <path
     style="color:#000000;opacity:0.4;fill:#000000;stroke:none;stroke-width:0.522163;-inkscape-stroke:none"
     d="m 3.0272649,1.0583333 c -0.3705278,0 -0.7247828,0.070787 -1.0703975,0.194333 l -0.085206,0.030273 -0.3110009,1.523414 c -0.051803,0.2535624 -0.1045836,0.5186231 -0.105442,0.7949095 -8.507e-4,0.2766137 0.051753,0.5583371 0.177867,0.8154172 0.1262686,0.2573957 0.3241126,0.4821964 0.5730088,0.6376853 0.2488056,0.1554271 0.5419402,0.2373014 0.8371466,0.2373014 0.2952075,0 0.588342,-0.08188 0.8371467,-0.2373014 C 4.1293277,4.8988587 4.3260956,4.6740179 4.4523315,4.41668 4.5784518,4.1596005 4.6310579,3.877879 4.6301981,3.6012628 4.6293479,3.3250568 4.5765846,3.059999 4.524756,2.8063532 L 4.2137553,1.2829392 4.1285495,1.2526662 C 3.7815273,1.1286235 3.3977916,1.0583333 3.0272649,1.0583333 Z"
     id="path2126-7"
     sodipodi:nodetypes="sccccscsscccccs" />
  <path
     style="color:#000000;opacity:0.1;fill:#000000;stroke:none;stroke-width:0.143688;-inkscape-stroke:none"
     d="m 3.0266272,1.190625 c -0.3778728,0 -0.739284,0.070414 -1.09422,0.1954025 l -0.05017,0.017614 -0.3181253,1.5351511 C 1.5098919,3.200234 1.4560943,3.4694632 1.4552188,3.746818 c -8.686e-4,0.2775523 0.052183,0.559388 0.1790121,0.8140756 0.1269133,0.2548561 0.3258607,0.4763646 0.5741069,0.6291375 0.2481792,0.1527262 0.5407215,0.2339273 0.8346494,0.2339273 0.2939279,0 0.5864703,-0.081206 0.8346493,-0.2339273 C 4.1258826,5.0372676 4.3242624,4.8157591 4.4511757,4.5608935 4.5780121,4.3062059 4.6310732,4.0243702 4.6301975,3.7468179 4.6293305,3.469463 4.5761015,3.2002339 4.5218723,2.9387923 L 4.2031795,1.4036412 4.1530088,1.3860275 C 3.7980343,1.2610323 3.4045269,1.190625 3.026654,1.190625 Z"
     id="path2124"
     sodipodi:nodetypes="sccccscsscccccss" />
  <path
     id="path2574"
     style="color:#000000;fill:url(#radialGradient2801);fill-opacity:1;stroke:none;stroke-width:0.0367119;-inkscape-stroke:none"
     d="m 3.0272173,1.190625 c -0.3537267,0 -0.692282,0.065867 -1.0269808,0.1844821 l -0.010803,0.00388 -0.2987426,1.4513103 C 1.6385599,3.08327 1.5883295,3.3397012 1.5875099,3.600781 1.5866959,3.861916 1.6359809,4.1261109 1.7529412,4.36248 1.8699067,4.59886 2.0536413,4.8041024 2.2805018,4.9446059 2.5073244,5.0850812 2.775325,5.159318 3.0434181,5.159318 3.3115106,5.159318 3.57809,5.085077 3.8049132,4.9446059 4.0317304,4.8041341 4.2154762,4.5989317 4.3324751,4.3624755 4.4494438,4.1261058 4.4987313,3.861909 4.4979063,3.6007765 4.497095,3.3396163 4.4468472,3.083182 4.3947249,2.8302929 L 4.0962666,1.3789826 4.0854652,1.3751071 C 3.7521121,1.2569754 3.3809452,1.190625 3.0272173,1.190625 Z" />
  <path
     id="path4075"
     style="color:#000000;opacity:0.5;fill:url(#radialGradient4410);fill-opacity:1;stroke:none;stroke-width:0.00971337;-inkscape-stroke:none"
     d="m 3.0272183,1.1906217 c -0.044216,0 -0.088125,0.00106 -0.1318912,0.0031 -0.043766,0.00204 -0.087395,0.00502 -0.130754,0.00904 -0.043359,0.00402 -0.086621,0.00904 -0.129617,0.014986 -0.042996,0.00595 -0.085803,0.012841 -0.1284802,0.02067 -0.085355,0.015658 -0.1700617,0.035014 -0.2544021,0.057877 -0.04217,0.011432 -0.084224,0.023793 -0.126206,0.036948 -0.041981,0.013155 -0.0838,0.027031 -0.1256375,0.041857 L 1.9894282,1.3789797 1.6906834,2.83029 c -0.026066,0.1264862 -0.051612,0.2537739 -0.070777,0.3821412 -0.00479,0.032092 -0.00917,0.064154 -0.013075,0.096375 -1.02e-5,8.49e-5 1.04e-5,1.736e-4 0,2.584e-4 -1.769e-4,0.00147 -3.936e-4,0.00293 -5.666e-4,0.00439 -0.00366,0.030678 -0.00699,0.061442 -0.00966,0.092241 -0.00282,0.032355 -0.00498,0.064916 -0.00653,0.097409 -0.00155,0.032493 -0.00245,0.065032 -0.00256,0.097667 -2.031e-4,0.065284 0.00276,0.1306663 0.0091,0.1958507 0.00634,0.065184 0.01614,0.1301811 0.029561,0.1943004 0.013421,0.064119 0.030392,0.1273026 0.051448,0.1893913 2.66e-5,7.86e-5 -2.67e-5,1.796e-4 0,2.583e-4 0.010505,0.030965 0.022169,0.061703 0.034679,0.091983 0.012539,0.030355 0.026028,0.06037 0.040647,0.089916 0.043863,0.088642 0.097228,0.1727902 0.1586103,0.2508851 4.51e-5,5.74e-5 -4.48e-5,2.011e-4 0,2.584e-4 0.020421,0.025973 0.041779,0.051159 0.063956,0.075705 4.71e-5,5.22e-5 -4.7e-5,2.063e-4 0,2.584e-4 0.022182,0.024546 0.04551,0.048324 0.069356,0.071313 0.023894,0.023036 0.04843,0.04532 0.073904,0.066661 0.050949,0.042683 0.1050216,0.081919 0.1617371,0.1170452 0.056706,0.035119 0.1158895,0.066032 0.1770865,0.092758 0.030599,0.013365 0.061751,0.02573 0.093234,0.036949 0.030251,0.01078 0.06089,0.02017 0.091812,0.02894 0.00125,3.57e-4 0.00243,9.5e-4 0.0037,0.0013 8.58e-5,2.45e-5 1.984e-4,-2.4e-5 2.842e-4,0 9.461e-4,2.655e-4 0.00189,5e-4 0.00285,7.999e-4 0.030246,0.00841 0.060784,0.015755 0.091528,0.02222 9.627e-4,2.025e-4 0.00188,5.5e-4 0.00284,8e-4 8.95e-5,1.85e-5 1.949e-4,-1.85e-5 2.844e-4,0 8.471e-4,1.765e-4 0.00172,3.415e-4 0.00255,5e-4 0.031845,0.00657 0.064135,0.012345 0.09636,0.016795 0.032701,0.0045 0.065408,0.00777 0.09835,0.010075 4.807e-4,3.35e-5 9.406e-4,2.25e-4 0.00142,2.585e-4 9.36e-5,6.5e-6 1.907e-4,-6.5e-6 2.842e-4,0 1.887e-4,1.25e-5 3.8e-4,-1.3e-5 5.665e-4,0 0.033143,0.00225 0.066543,0.00335 0.099771,0.00335 0.03351,0 0.066945,-0.00105 0.1003388,-0.00335 0.033395,-0.0023 0.066644,-0.00575 0.099771,-0.010335 0.033128,-0.0046 0.066209,-0.010485 0.098919,-0.01731 0.032709,-0.00682 0.065074,-0.014735 0.097213,-0.02377 0.03214,-0.00904 0.063803,-0.019015 0.095224,-0.03023 0.029806,-0.01064 0.059376,-0.022565 0.088402,-0.035139 0.00321,-0.0014 0.00646,-0.0027 0.00966,-0.00415 0.028747,-0.012705 0.057155,-0.026245 0.084991,-0.040824 1.121e-4,-5.88e-5 1.722e-4,-1.997e-4 2.842e-4,-2.584e-4 0.029526,-0.015477 0.058343,-0.031792 0.086696,-0.04935 0.056705,-0.035117 0.1107931,-0.074369 0.161737,-0.1170453 0.025375,-0.021256 0.050096,-0.043465 0.073904,-0.066403 4.134e-4,-3.985e-4 7.26e-4,-8.95e-4 0.00113,-0.00129 0.023548,-0.022742 0.046297,-0.046015 0.06822,-0.070279 0.022176,-0.024545 0.043533,-0.049989 0.063955,-0.075963 4.4e-5,-5.57e-5 -4.37e-5,-2.026e-4 0,-2.584e-4 0.020462,-0.026033 0.04023,-0.052502 0.058839,-0.079839 0.018609,-0.027337 0.036208,-0.055461 0.052869,-0.083973 0.016663,-0.028512 0.032276,-0.057517 0.046901,-0.087073 0.01462,-0.029546 0.028107,-0.05956 0.040647,-0.089916 0.012509,-0.030279 0.02417,-0.061018 0.034679,-0.091983 2.65e-5,-7.79e-5 -2.63e-5,-1.805e-4 0,-2.583e-4 0.010527,-0.031045 0.020123,-0.062179 0.028709,-0.093791 0.00858,-0.031613 0.016029,-0.06354 0.022739,-0.0956 0.00671,-0.03206 0.012718,-0.064247 0.017623,-0.096634 0.00491,-0.032386 0.00877,-0.065075 0.011938,-0.097667 0.00317,-0.032592 0.00561,-0.065248 0.00711,-0.097925 0.0015,-0.032677 0.00209,-0.065284 0.00199,-0.097925 -1.037e-4,-0.032678 -0.00101,-0.0652 -0.00256,-0.0977 -0.00155,-0.0325 -0.00372,-0.065049 -0.00653,-0.097409 -0.00282,-0.03236 -0.00634,-0.064668 -0.01023,-0.096892 C 4.474713,3.2765794 4.470323,3.2445194 4.465528,3.2124274 4.455958,3.1482474 4.4449,3.0843994 4.43285,3.0207143 4.4207761,2.9570293 4.4077663,2.8935119 4.3947355,2.8302896 L 4.0962752,1.3789793 4.0854737,1.3751038 C 4.0438044,1.360337 4.0014411,1.3463687 3.9586991,1.3332464 3.9160424,1.3201506 3.8728766,1.3079578 3.8293663,1.296557 c -8.74e-5,-2.29e-5 -1.97e-4,2.28e-5 -2.843e-4,0 C 3.7854835,1.285136 3.7417155,1.274437 3.6974752,1.264776 3.6532343,1.255116 3.6085456,1.246524 3.5638786,1.23868 3.519213,1.23084 3.4745904,1.223721 3.4297135,1.217751 3.3848356,1.211781 3.3398522,1.206802 3.29498,1.202765 3.2501066,1.198725 3.2051825,1.195765 3.1605307,1.193725 3.1158783,1.191675 3.071435,1.190625 3.0272183,1.190625 Z" />
  <path
     style="color:#000000;fill:#b3b3b3;stroke-width:0.187087;-inkscape-stroke:none"
     d="m 2.9104167,1.190625 v 1.5875 H 3.175 v -1.5875 z"
     id="path38"
     sodipodi:nodetypes="ccccc" />
  <path
     id="rect5096"
     style="opacity:0.4;stroke-width:0.240954;stroke-linecap:round;stroke-linejoin:round"
     d="M 1.5275554,0.26458333 C 0.28821988,0.27390666 1.0104166e-8,0.58239335 1.0104166e-8,1.8520834 V 4.4978839 C 1.0104166e-8,5.7877277 0.29765627,6.085384 1.5875001,6.085384 h 3.1749975 c 1.2898438,0 1.5875,-0.2976563 1.5875,-1.5875001 V 1.8520834 c 0,-1.28984381 -0.2976562,-1.58750007 -1.5875,-1.58750007 H 1.5875001 c -0.020154,0 -0.040273,-1.4798e-4 -0.059945,0 z m 0.032556,0.26458334 c 0.018033,-1.3565e-4 0.036303,0 0.054777,0 h 3.147609 c 1.1823568,0 1.3229167,0.29315998 1.3229167,1.32291673 v 2.6458005 c 0,1.0162919 -0.1405599,1.3229167 -1.3229167,1.3229167 H 1.5875001 c -0.99193704,0 -1.32291675,-0.1405599 -1.32291675,-1.3229167 V 1.8520834 c 0,-0.96076805 0.15947068,-1.31437034 1.29552805,-1.32291673 z"
     sodipodi:nodetypes="csssssssscssssssssss" />
  <path
     id="rect1565"
     style="fill:url(#linearGradient1873);fill-opacity:1;stroke-width:0.118194;opacity:0.5"
     d="M 1.5601116,0.52922694 C 0.42405397,0.53777695 0.26458335,0.8913756 0.26458335,1.8521436 V 4.497977 c 0,1.1823568 0.33097974,1.3229167 1.32291675,1.3229167 h 3.1749975 c 1.1823568,0 1.3229167,-0.3066248 1.3229167,-1.3229167 V 1.8521436 c 0,-1.02975658 -0.1405599,-1.32291666 -1.3229167,-1.32291666 h -3.147609 c -0.018473,0 -0.036744,-1.356e-4 -0.054777,0 z m 0.00259,0.26458338 h 0.049609 3.0179 c 1.0641211,0 1.190625,0.14300558 1.190625,1.05833328 V 4.497977 c 0,0.8938382 -0.1265039,1.0583334 -1.190625,1.0583334 H 1.7197917 c -1.02290214,0 -1.19062501,-0.1576914 -1.19062501,-1.0583334 V 1.8521436 c 0,-0.8540052 0.14116471,-1.05833328 1.03352871,-1.05833328 z"
     sodipodi:nodetypes="csssssssscsssssssssss" />
  <path
     id="path4778"
     style="color:#000000;opacity:0.4;fill:url(#linearGradient5422);fill-opacity:1;stroke:none;stroke-width:0.036712;-inkscape-stroke:none"
     d="m 3.0272054,1.190625 c -0.3537267,0 -0.6921121,0.06587 -1.0268107,0.1844849 L 1.9895427,1.379244 1.6908529,2.8303184 C 1.6387222,3.0832907 1.5883196,3.3397342 1.5875,3.6008139 c -8.14e-4,0.261135 0.048405,0.5253416 0.1653646,0.7617106 0.1169655,0.23638 0.3007558,0.4413731 0.5276164,0.5818767 0.2268226,0.1404752 0.4946511,0.2149739 0.7627441,0.2149739 0.2680925,0 0.5348873,-0.074503 0.7617106,-0.2149739 C 4.0317529,4.8039294 4.2155532,4.5989807 4.3325522,4.3625245 4.4495208,4.1261547 4.4987417,3.8619463 4.4979168,3.6008139 4.4971056,3.3396537 4.4466868,3.0832074 4.3945639,2.8303184 L 4.0963909,1.3787272 4.0855388,1.3751099 C 3.7521876,1.2569826 3.3809335,1.190625 3.0272054,1.190625 Z m 0.00258,0.2645834 c 0.2894137,0 0.5933552,0.057302 0.8660969,0.1596801 l 0.00879,0.00362 0.2444298,1.2578045 c 0.042646,0.2191737 0.083569,0.4413173 0.084232,0.6676593 C 4.2340084,3.770288 4.1936428,3.9995378 4.0979411,4.2043946 4.0022149,4.4093263 3.852022,4.5870152 3.666443,4.7087566 3.4808603,4.8305002 3.2625735,4.8947918 3.0432251,4.8947918 2.8238763,4.8947918 2.604556,4.8305036 2.4189738,4.7087566 2.2333605,4.5869851 2.0831746,4.4092602 1.9874756,4.2043946 1.8917817,3.9995383 1.8514174,3.7702901 1.8520834,3.5439697 1.8527544,3.3176973 1.893663,3.0955563 1.936316,2.8763104 l 0.2444295,-1.2578045 0.00879,-0.00362 C 2.4633748,1.5120878 2.7403764,1.4552084 3.0297893,1.4552084 Z" />
</svg>
