<?xml version="1.0" encoding="UTF-8" standalone="no"?>
<!-- Created with Inkscape (http://www.inkscape.org/) -->

<svg
   width="24"
   height="24"
   viewBox="0 0 6.3499999 6.3500002"
   version="1.1"
   id="svg5013"
   sodipodi:docname="ubiquity.svg"
   inkscape:version="1.1.2 (0a00cf5339, 2022-02-04)"
   xmlns:inkscape="http://www.inkscape.org/namespaces/inkscape"
   xmlns:sodipodi="http://sodipodi.sourceforge.net/DTD/sodipodi-0.dtd"
   xmlns:xlink="http://www.w3.org/1999/xlink"
   xmlns="http://www.w3.org/2000/svg"
   xmlns:svg="http://www.w3.org/2000/svg">
  <sodipodi:namedview
     id="namedview5015"
     pagecolor="#ffffff"
     bordercolor="#666666"
     borderopacity="1.0"
     inkscape:pageshadow="2"
     inkscape:pageopacity="0.0"
     inkscape:pagecheckerboard="0"
     inkscape:document-units="px"
     showgrid="false"
     units="px"
     showguides="false"
     inkscape:zoom="1"
     inkscape:cx="11.5"
     inkscape:cy="8.5"
     inkscape:window-width="1718"
     inkscape:window-height="847"
     inkscape:window-x="0"
     inkscape:window-y="0"
     inkscape:window-maximized="1"
     inkscape:current-layer="svg5013" />
  <defs
     id="defs5010">
    <linearGradient
       inkscape:collect="always"
       id="linearGradient1071">
      <stop
         style="stop-color:#d9d9d9;stop-opacity:1"
         offset="0"
         id="stop1067" />
      <stop
         style="stop-color:#b3b3b3;stop-opacity:1"
         offset="1"
         id="stop1069" />
    </linearGradient>
    <linearGradient
       inkscape:collect="always"
       xlink:href="#linearGradient1871"
       id="linearGradient1873"
       x1="11.046622"
       y1="2.3372049"
       x2="10.794909"
       y2="47.930588"
       gradientUnits="userSpaceOnUse"
       gradientTransform="matrix(0.12026516,0,0,0.11615853,0.28863637,0.25496375)" />
    <linearGradient
       inkscape:collect="always"
       id="linearGradient1871">
      <stop
         style="stop-color:#ffffff;stop-opacity:1;"
         offset="0"
         id="stop1867" />
      <stop
         style="stop-color:#ffffff;stop-opacity:0.1"
         offset="0.12"
         id="stop2515" />
      <stop
         style="stop-color:#ffffff;stop-opacity:0.102"
         offset="0.89999998"
         id="stop2581" />
      <stop
         style="stop-color:#ffffff;stop-opacity:0.502"
         offset="1"
         id="stop1869" />
    </linearGradient>
    <linearGradient
       inkscape:collect="always"
       xlink:href="#linearGradient1071"
       id="linearGradient1073"
       x1="5.0524802"
       y1="6.0794616"
       x2="1.5275553"
       y2="0.26458332"
       gradientUnits="userSpaceOnUse" />
    <linearGradient
       inkscape:collect="always"
       xlink:href="#linearGradient2221"
       id="linearGradient1241"
       x1="6.3499999"
       y1="2.3812499"
       x2="6.3499999"
       y2="9.7895832"
       gradientUnits="userSpaceOnUse"
       gradientTransform="matrix(0.50000002,0,0,0.50000002,-3.1083333e-7,0.13229141)" />
    <linearGradient
       inkscape:collect="always"
       id="linearGradient2221">
      <stop
         style="stop-color:#e6e6e6;stop-opacity:1;"
         offset="0"
         id="stop2217" />
      <stop
         style="stop-color:#f2f2f2;stop-opacity:1"
         offset="1"
         id="stop2219" />
    </linearGradient>
  </defs>
  <path
     d="M 1.5275554,0.79381578 C 0.28822009,0.80313578 1.9010417e-7,1.1116258 1.9010417e-7,2.3813158 v 2.381217 c 0,1.289844 0.29765619989583,1.5875 1.58750000989583,1.5875 h 3.1749977 c 1.2898438,0 1.5875,-0.297656 1.5875,-1.5875 v -2.381217 c 0,-1.2898437 -0.2976562,-1.58750002 -1.5875,-1.58750002 H 1.5875002 c -0.020153,0 -0.040273,-1.48e-4 -0.059945,0 z"
     style="opacity:0.1;fill:#000000;stroke-width:0.264583;stroke-linecap:round;stroke-linejoin:round"
     id="path9125"
     sodipodi:nodetypes="cssssssssc" />
  <path
     id="rect6397"
     style="fill:url(#linearGradient1073);fill-opacity:1;stroke-width:0.182227;stroke-linejoin:round"
     d="M 1.532723,0.39693532 C 0.39666551,0.40548163 0.13229168,0.68826121 0.13229168,1.8521437 v 2.6458334 c 0,1.1638823 0.26437373,1.4466584 1.40043132,1.4552084 H 1.5875 4.7624975 c 1.1823568,0 1.4552083,-0.2728518 1.4552083,-1.4552084 V 1.8521437 c 0,-1.18235679 -0.2728515,-1.45520838 -1.4552083,-1.45520838 H 1.5875 c -0.018474,0 -0.036744,-1.3571e-4 -0.054777,0 z"
     sodipodi:nodetypes="cssccsssssc" />
  <circle
     style="fill:#4d4d4d;fill-opacity:1;stroke-width:0.132292;stroke-linejoin:round"
     id="path1307"
     cx="3.1750002"
     cy="3.1750002"
     r="2.1166668" />
  <circle
     style="fill:url(#linearGradient1241);fill-opacity:1;stroke-width:0.132291;stroke-linejoin:round"
     id="path985"
     cx="3.175"
     cy="3.175"
     r="1.8520833" />
  <path
     d="M 2.9507127,1.5875 C 2.1691518,1.6990399 1.5883179,2.3679523 1.5875,3.1574317 c 0,0.8767519 0.7107479,1.5875 1.5875,1.5875 0.8767519,0 1.5875,-0.7107481 1.5875,-1.5875 C 4.7617592,2.9111488 4.7037342,2.6684149 4.5930026,2.4484277 L 4.3578727,2.5662493 c 0.091912,0.183529 0.1398575,0.3859276 0.140044,0.5911851 0,0.7306267 -0.5922899,1.3229166 -1.3229167,1.3229166 -0.7306267,0 -1.3229166,-0.5922899 -1.3229166,-1.3229166 5.82e-4,-0.6579124 0.4845539,-1.2154155 1.1358562,-1.308444 z"
     style="opacity:0.7;fill:#77216f;stroke-width:0.264583;enable-background:new"
     id="path1700" />
  <circle
     style="opacity:0.05;fill:#000000;fill-opacity:1;stroke-width:0.529167;stroke-linecap:round;stroke-linejoin:round"
     id="path1286"
     cx="3.175"
     cy="3.175"
     r="0.79374999" />
  <path
     id="circle79"
     style="opacity:0.1;fill:#000000;stroke-width:0.264575"
     d="M 3.1758683,2.484438 A 0.04938871,0.04938871 0 0 0 3.1262593,2.534047 0.04938871,0.04938871 0 0 0 3.1758683,2.58314 0.04938871,0.04938871 0 0 0 3.2254773,2.534047 0.04938871,0.04938871 0 0 0 3.1758683,2.484438 Z m -0.3255616,0.0863 a 0.04938871,0.04938871 0 0 0 -0.020153,0.0062 0.04938871,0.04938871 0 0 0 -0.018087,0.067696 0.04938871,0.04938871 0 0 0 0.067696,0.018087 0.04938871,0.04938871 0 0 0 0.018087,-0.067696 0.04938871,0.04938871 0 0 0 -0.047543,-0.024287 z m 0.6444051,0 a 0.04938871,0.04938871 0 0 0 -0.040308,0.024288 0.04938871,0.04938871 0 0 0 0.017571,0.067696 0.04938871,0.04938871 0 0 0 0.067695,-0.018087 0.04938871,0.04938871 0 0 0 -0.018087,-0.067696 0.04938871,0.04938871 0 0 0 -0.026872,-0.0062 z M 2.6177628,2.805349 A 0.04938871,0.04938871 0 0 0 2.5769388,2.830154 0.04938871,0.04938871 0 0 0 2.5950258,2.89785 0.04938871,0.04938871 0 0 0 2.6627218,2.879763 0.04938871,0.04938871 0 0 0 2.6446348,2.812067 0.04938871,0.04938871 0 0 0 2.6177628,2.805347 Z m 1.1167277,0 a 0.04938871,0.04938871 0 0 0 -0.027389,0.00672 0.04938871,0.04938871 0 0 0 -0.018087,0.067696 0.04938871,0.04938871 0 0 0 0.067696,0.018087 0.04938871,0.04938871 0 0 0 0.018087,-0.067696 0.04938871,0.04938871 0 0 0 -0.040308,-0.024805 z M 2.534047,3.1262593 A 0.04938871,0.04938871 0 0 0 2.484438,3.1758683 0.04938871,0.04938871 0 0 0 2.534047,3.2254773 0.04938871,0.04938871 0 0 0 2.58314,3.1758683 0.04938871,0.04938871 0 0 0 2.534047,3.1262593 Z m 1.2841593,0 a 0.04938871,0.04938871 0 0 0 -0.049609,0.049609 0.04938871,0.04938871 0 0 0 0.049609,0.049609 0.04938871,0.04938871 0 0 0 0.049093,-0.049609 0.04938871,0.04938871 0 0 0 -0.049093,-0.049609 z M 2.615179,3.4476867 a 0.04938871,0.04938871 0 0 0 -0.020154,0.0062 0.04938871,0.04938871 0 0 0 -0.018087,0.067696 0.04938871,0.04938871 0 0 0 0.067696,0.018087 0.04938871,0.04938871 0 0 0 0.018087,-0.067696 0.04938871,0.04938871 0 0 0 -0.047543,-0.024289 z m 1.1146606,0 a 0.04938871,0.04938871 0 0 0 -0.040824,0.024805 0.04938871,0.04938871 0 0 0 0.018087,0.067179 0.04938871,0.04938871 0 0 0 0.067696,-0.018087 0.04938871,0.04938871 0 0 0 -0.018087,-0.06718 0.04938871,0.04938871 0 0 0 -0.026872,-0.00672 z M 3.4993627,3.6822975 a 0.04938871,0.04938871 0 0 0 -0.026872,0.00672 0.04938871,0.04938871 0 0 0 -0.018087,0.067696 0.04938871,0.04938871 0 0 0 0.067179,0.018087 0.04938871,0.04938871 0 0 0 0.018087,-0.067696 0.04938871,0.04938871 0 0 0 -0.040308,-0.024805 z m -0.6469888,5.292e-4 a 0.04938871,0.04938871 0 0 0 -0.040308,0.024289 0.04938871,0.04938871 0 0 0 0.018087,0.067696 0.04938871,0.04938871 0 0 0 0.067696,-0.018087 0.04938871,0.04938871 0 0 0 -0.018087,-0.067696 0.04938871,0.04938871 0 0 0 -0.027388,-0.0062 z m 0.3234944,0.08577 a 0.04938871,0.04938871 0 0 0 -0.049609,0.049093 0.04938871,0.04938871 0 0 0 0.049609,0.049609 0.04938871,0.04938871 0 0 0 0.049609,-0.049609 0.04938871,0.04938871 0 0 0 -0.049609,-0.049093 z" />
  <circle
     style="opacity:1;fill:#ffffff;fill-opacity:1;stroke-width:0.529167;stroke-linecap:round;stroke-linejoin:round"
     id="path1560"
     cx="3.175"
     cy="3.1750002"
     r="0.5291667" />
  <circle
     style="opacity:0.05;fill:#000000;fill-opacity:1;stroke-width:0.529167;stroke-linecap:round;stroke-linejoin:round"
     id="path1456"
     cx="3.175"
     cy="3.175"
     r="0.39687499" />
  <circle
     style="opacity:1;fill:#666666;fill-opacity:1;stroke-width:0.264583;stroke-linecap:round;stroke-linejoin:round"
     id="path1868"
     cx="3.175"
     cy="3.175"
     r="0.13229167" />
  <path
     d="m 4.0002846,3.7041667 c 0,0 -2.1525647,1.7016331 -2.2740334,1.7800265 C 1.6049587,5.5625362 1.4431145,5.5277222 1.3647772,5.4064272 1.2864337,5.2851348 1.3212484,5.1232905 1.4425429,5.0449532 1.5638354,4.96661 4.0002473,3.7041717 4.0002473,3.7041717 Z"
     style="opacity:0.4;fill:#000000;stroke-width:0.264583;enable-background:new"
     id="path1021"
     sodipodi:nodetypes="cccccc" />
  <g
     id="g2194">
    <path
       d="m 4.0002473,3.4395884 c 0,0 -2.1525648,1.7016331 -2.2740335,1.7800265 C 1.6049214,5.297958 1.4430772,5.2631438 1.3647399,5.1418491 1.2863964,5.0205566 1.321211,4.8587123 1.4425056,4.780375 1.563798,4.7020316 4.00021,3.4395935 4.00021,3.4395935 Z"
       style="fill:#ffffff;stroke-width:0.0700042;enable-background:new"
       id="path2071" />
    <circle
       style="fill:#808080;fill-opacity:1;stroke-width:0.211667;stroke-linecap:round;stroke-linejoin:round"
       id="path1208"
       cx="1.5875"
       cy="5.0006251"
       r="0.10583334" />
  </g>
  <path
     id="rect5096"
     style="opacity:0.4;stroke-width:0.240954;stroke-linecap:round;stroke-linejoin:round"
     d="M 1.5275554,0.26458333 C 0.28821988,0.27390666 1.0104166e-8,0.58239335 1.0104166e-8,1.8520834 V 4.4978839 C 1.0104166e-8,5.7877277 0.29765627,6.085384 1.5875001,6.085384 h 3.1749975 c 1.2898438,0 1.5875,-0.2976563 1.5875,-1.5875001 V 1.8520834 c 0,-1.28984381 -0.2976562,-1.58750007 -1.5875,-1.58750007 H 1.5875001 c -0.020154,0 -0.040273,-1.4798e-4 -0.059945,0 z m 0.032556,0.26458334 c 0.018033,-1.3565e-4 0.036303,0 0.054777,0 h 3.147609 c 1.1823568,0 1.3229167,0.29315998 1.3229167,1.32291673 v 2.6458005 c 0,1.0162919 -0.1405599,1.3229167 -1.3229167,1.3229167 H 1.5875001 c -0.99193704,0 -1.32291675,-0.1405599 -1.32291675,-1.3229167 V 1.8520834 c 0,-0.96076805 0.15947068,-1.31437034 1.29552805,-1.32291673 z"
     sodipodi:nodetypes="csssssssscssssssssss" />
  <path
     id="rect1565"
     style="fill:url(#linearGradient1873);fill-opacity:1;stroke-width:0.118194;opacity:0.7"
     d="M 1.5601116,0.52922694 C 0.42405397,0.53777695 0.26458335,0.8913756 0.26458335,1.8521436 V 4.497977 c 0,1.1823568 0.33097974,1.3229167 1.32291675,1.3229167 h 3.1749975 c 1.1823568,0 1.3229167,-0.3066248 1.3229167,-1.3229167 V 1.8521436 c 0,-1.02975658 -0.1405599,-1.32291666 -1.3229167,-1.32291666 h -3.147609 c -0.018473,0 -0.036744,-1.356e-4 -0.054777,0 z m 0.00259,0.26458338 h 0.049609 3.0179 c 1.0641211,0 1.190625,0.14300558 1.190625,1.05833328 V 4.497977 c 0,0.8938382 -0.1265039,1.0583334 -1.190625,1.0583334 H 1.7197917 c -1.02290214,0 -1.19062501,-0.1576914 -1.19062501,-1.0583334 V 1.8521436 c 0,-0.8540052 0.14116471,-1.05833328 1.03352871,-1.05833328 z"
     sodipodi:nodetypes="csssssssscsssssssssss" />
  <path
     d="m 3.4395836,1.8520304 c 0,0.8767763 -1.5874737,2.1828655 -1.5874737,2.1828655 0,0 -1.58752656,-1.3060628 -1.58752656,-2.1828655 0,-0.87672325 0.71077673,-1.58744706 1.58752656,-1.58744706 0.8767764,0 1.5874737,0.71072381 1.5874737,1.58744706 z"
     style="opacity:0.2;stroke-width:0.264583;enable-background:new"
     id="path1164" />
  <path
     d="m 3.4395836,1.5874471 c 0,0.8767762 -1.5874736,2.1828654 -1.5874736,2.1828654 0,0 -1.58752638,-1.3060627 -1.58752638,-2.1828654 C 0.26458362,0.71072373 0.9753602,0 1.85211,0 2.7288863,0 3.4395836,0.71072373 3.4395836,1.5874471 Z"
     style="fill:#77216f;stroke-width:0.264583;enable-background:new"
     id="path1424" />
  <path
     d="M 1.5875,0.58208333 H 2.1166667 V 1.3209323 H 2.3595463 C 2.2700642,1.5203381 2.1087927,1.8568194 1.8520754,2.2836452 1.5953132,1.85674 1.4340867,1.5200841 1.3446046,1.3206412 H 1.5874868 Z M 1.190625,2.5023233 V 2.6500349 H 2.5135417 V 2.5023233 Z"
     style="color:#000000;fill:#ffffff;stroke-width:0.264583"
     id="path1998" />
</svg>
