<?xml version="1.0" encoding="UTF-8" standalone="no"?>
<!-- Created with Inkscape (http://www.inkscape.org/) -->

<svg
   width="48"
   height="48"
   viewBox="0 0 12.7 12.7"
   version="1.1"
   id="svg5"
   inkscape:version="1.1.2 (0a00cf5339, 2022-02-04)"
   sodipodi:docname="dcinside.svg"
   xmlns:inkscape="http://www.inkscape.org/namespaces/inkscape"
   xmlns:sodipodi="http://sodipodi.sourceforge.net/DTD/sodipodi-0.dtd"
   xmlns:xlink="http://www.w3.org/1999/xlink"
   xmlns="http://www.w3.org/2000/svg"
   xmlns:svg="http://www.w3.org/2000/svg">
  <sodipodi:namedview
     id="namedview7"
     pagecolor="#ffffff"
     bordercolor="#666666"
     borderopacity="1.0"
     inkscape:pageshadow="2"
     inkscape:pageopacity="0.0"
     inkscape:pagecheckerboard="0"
     inkscape:document-units="px"
     showgrid="false"
     units="px"
     inkscape:zoom="8.25"
     inkscape:cx="14.363636"
     inkscape:cy="20.242424"
     inkscape:window-width="1920"
     inkscape:window-height="1010"
     inkscape:window-x="0"
     inkscape:window-y="0"
     inkscape:window-maximized="1"
     inkscape:current-layer="svg5" />
  <defs
     id="defs2">
    <linearGradient
       inkscape:collect="always"
       id="linearGradient1871">
      <stop
         style="stop-color:#ffffff;stop-opacity:1;"
         offset="0"
         id="stop1867" />
      <stop
         style="stop-color:#ffffff;stop-opacity:0.1"
         offset="0.12"
         id="stop2515" />
      <stop
         style="stop-color:#ffffff;stop-opacity:0.102"
         offset="0.89999998"
         id="stop2581" />
      <stop
         style="stop-color:#ffffff;stop-opacity:0.502"
         offset="1"
         id="stop1869" />
    </linearGradient>
    <linearGradient
       inkscape:collect="always"
       xlink:href="#linearGradient1871"
       id="linearGradient1873"
       x1="17.222656"
       y1="3.5"
       x2="17.222656"
       y2="44.466438"
       gradientUnits="userSpaceOnUse"
       gradientTransform="matrix(0.26458333,0,0,0.26458333,0,-0.13229166)" />
  </defs>
  <path
     id="rect3143"
     style="opacity:0.1;fill:#000000;fill-opacity:1;stroke-width:0.264583"
     d="m 4.5160033,1.0583334 c -3.60405388,0 -4.1191283,0.5137855 -4.1191283,4.1144775 v 2.883545 c 0,3.6006791 0.51507442,4.1144791 4.1191283,4.1144791 h 3.6679933 c 3.6040544,0 4.1191284,-0.5138 4.1191284,-4.1144791 v -2.883545 c 0,-3.600692 -0.515074,-4.1144775 -4.1191284,-4.1144775 z" />
  <path
     style="display:inline;fill:#3b468f;fill-opacity:1;stroke:none;stroke-width:0.0992187;stroke-linecap:round;stroke-linejoin:round;stroke-miterlimit:4;stroke-dasharray:none;stroke-dashoffset:0;stroke-opacity:1;enable-background:new"
     d="m 8.1839962,0.66145835 c 3.6040548,0 4.1191298,0.51378545 4.1191298,4.11447755 v 2.883545 c 0,3.6006781 -0.515075,4.1144781 -4.1191298,4.1144781 H 4.5160033 c -3.604054,0 -4.1191283,-0.5138 -4.1191283,-4.1144781 v -2.883545 c 0,-3.6006921 0.5150743,-4.11447755 4.1191283,-4.11447755 z"
     id="rect877"
     inkscape:connector-curvature="0"
     sodipodi:nodetypes="sssssssss" />
  <path
     id="rect1370"
     style="opacity:0.4;fill:#000000;fill-opacity:1;stroke-width:0.264583"
     d="m 4.4751788,0.52916667 c -3.68414336,0 -4.21059547,0.52624033 -4.21059547,4.21266273 v 2.9517578 c 0,3.6864088 0.52645211,4.2126628 4.21059547,4.2126628 H 8.224821 c 3.684144,0 4.210596,-0.526254 4.210596,-4.2126628 V 4.7418294 c 0,-3.6864224 -0.526452,-4.21266273 -4.210596,-4.21266273 z m 0.081649,0.2645833 h 3.5863445 c 3.5239637,0 4.0276607,0.50133143 4.0276607,4.01629243 v 2.8153318 c 0,3.5149478 -0.503697,4.0162928 -4.0276607,4.0162928 H 4.5568277 c -3.5239637,0 -4.02766104,-0.501345 -4.02766104,-4.0162928 V 4.8100424 c 0,-3.514961 0.50369724,-4.01629243 4.02766114,-4.01629243 z" />
  <path
     id="rect1565"
     style="opacity:1;fill:url(#linearGradient1873);fill-opacity:1;stroke-width:0.264583"
     d="m 4.5568277,0.79374997 c -3.5239635,0 -4.02766104,0.50133123 -4.02766104,4.01629243 v 2.8153318 c 0,3.5149478 0.50369754,4.0162928 4.02766104,4.0162928 h 3.5863445 c 3.5239638,0 4.0276608,-0.501345 4.0276608,-4.0162928 V 4.8100424 c 0,-3.5149612 -0.503697,-4.01629243 -4.0276608,-4.01629243 z m 0.081649,0.26458343 h 3.4230468 c 3.3637835,0 3.8447265,0.4769388 3.8447265,3.8204385 v 2.6778728 c 0,3.3434873 -0.480943,3.8204393 -3.8447265,3.8204393 h -3.423047 c -3.3637834,0 -3.84472651,-0.476952 -3.84472651,-3.8204393 V 4.8787719 c 0,-3.3434997 0.48094311,-3.8204385 3.84472671,-3.8204385 z" />
  <path
     id="path4-3"
     style="fill:#ffffff;fill-opacity:1;stroke:none;stroke-width:0.0109682;stroke-miterlimit:4;stroke-dasharray:none"
     d="M 4.6186671,3.175 C 4.8144329,3.8321706 4.6910129,4.4900346 4.7111929,5.1435681 4.6631445,5.0739893 4.6310143,5.0012874 4.5915475,4.9324601 4.5189411,4.8057937 4.4267934,4.6987312 4.289509,4.6352075 3.8884153,4.4496131 3.4883392,4.2609078 3.0877358,4.0742026 2.9703154,4.0195001 2.8488252,3.9786075 2.7186956,3.9657241 2.5106129,3.9451522 2.3512015,4.0286984 2.2539393,4.2145868 2.1826284,4.3508471 2.1487564,4.4989141 2.1433343,4.6506284 c -0.021967,0.6153295 -0.036931,1.2316183 -0.01808,1.8467955 0.018351,0.598798 0.2452548,1.1056022 0.7880652,1.4086277 0.4757146,0.265517 0.9821605,0.4721955 1.4761602,0.7024522 0.092241,0.042989 0.1736624,0.016785 0.2339734,-0.065411 0.033488,-0.045673 0.063875,-0.093269 0.1047563,-0.1536783 0.042451,0.1210035 0.053409,0.2307301 0.070192,0.3387293 0.00875,0.056219 0.030533,0.090275 0.084549,0.115392 0.4676338,0.2170676 0.9343816,0.4361085 1.3995871,0.6583175 0.058691,0.028 0.092676,0.01043 0.1361293,-0.0234 0.267587,-0.2083012 0.5365673,-0.414577 0.8050807,-0.621625 0.056975,-0.043949 0.1139563,-0.08868 0.1706945,-0.1329396 -0.00225,-0.00684 -0.00465,-0.013425 -0.00691,-0.020211 -0.053287,0.00313 -0.1071533,0.00371 -0.1600596,0.01008 C 7.0282351,8.7376442 6.838316,8.7027059 6.6553029,8.6254842 6.5468179,8.579746 6.4422432,8.5225663 6.3319997,8.4819344 6.2474908,8.4507766 6.2300624,8.4009067 6.2309664,8.3160254 6.2465284,6.9005024 6.2575721,5.4849305 6.274039,4.0694068 6.275146,3.9727637 6.2447052,3.9284319 6.1586383,3.8891501 5.6795805,3.6704383 5.2037334,3.4447857 4.726614,3.2217938 4.6946506,3.2068631 4.661924,3.1936764 4.6186671,3.175 Z M 7.5624794,4.9324601 C 7.2512715,4.9176351 6.9651109,5.0128631 6.7100709,5.2488559 6.6182109,5.3338549 6.521351,5.4141484 6.4223902,5.4908058 c -0.054495,0.042244 -0.07548,0.087569 -0.074979,0.1579322 0.00335,0.4863437 0.00116,0.9727456 0.00211,1.4591445 4.37e-5,0.027016 -0.012422,0.058139 0.01808,0.087744 0.031629,-0.02442 0.063033,-0.047967 0.093588,-0.072851 0.3141809,-0.2559693 0.6282764,-0.512217 0.9422792,-0.7683918 0.094452,-0.07706 0.194381,-0.1456176 0.3036333,-0.2004726 0.1834824,-0.092176 0.3648274,-0.095367 0.5514324,-0.0032 0.3002817,0.1483598 0.6041584,0.2899799 0.9055844,0.4360421 0.06936,0.033584 0.137813,0.069895 0.202067,0.1122006 0.1161127,0.076455 0.1803037,0.1825153 0.1632487,0.3270314 -0.01003,0.027671 -0.01249,0.050687 0.02818,0.049987 C 9.8822622,6.8154301 10.20516,6.5530143 10.532875,6.296414 10.615195,6.231986 10.588275,6.215613 10.513205,6.1804912 9.7695262,5.8329611 9.0272955,5.4825689 8.2846021,5.1329325 8.1544731,5.0716957 8.0210691,5.0192311 7.8815301,4.9829768 7.7723842,4.954621 7.6662118,4.9374014 7.5624758,4.9324598 Z M 3.7370124,5.202593 c 0.036205,-0.020996 0.089155,-0.012931 0.1637812,0.021271 0.197345,0.090445 0.3921461,0.1854961 0.5897198,0.2754508 0.143405,0.065253 0.2153019,0.1783423 0.2169572,0.3307535 0.00317,0.2872344 -0.00241,0.5746908 -0.0016,0.8619799 1.526e-4,0.051427 -0.030947,0.07984 -0.059557,0.112733 -0.2242073,0.2580801 -0.3903805,0.5439951 -0.4248814,0.8917576 -0.00618,0.062269 -0.03189,0.052305 -0.070192,0.034029 C 4.0748538,7.694139 3.9999648,7.6533221 3.9209875,7.6236843 3.7231961,7.5493519 3.6505131,7.4008333 3.651918,7.2004055 3.653988,6.9057546 3.669791,5.7488868 3.669998,5.4652789 3.6700307,5.4284589 3.6696169,5.3917749 3.673188,5.3552048 3.681158,5.2738318 3.700793,5.2235874 3.737,5.2025902 Z" />
</svg>
