<?xml version="1.0" encoding="UTF-8" standalone="no"?>
<!-- Created with Inkscape (http://www.inkscape.org/) -->

<svg
   width="48"
   height="48"
   viewBox="0 0 12.7 12.7"
   version="1.1"
   id="svg5"
   inkscape:version="1.1.2 (0a00cf5339, 2022-02-04)"
   sodipodi:docname="gnome-usage.svg"
   xmlns:inkscape="http://www.inkscape.org/namespaces/inkscape"
   xmlns:sodipodi="http://sodipodi.sourceforge.net/DTD/sodipodi-0.dtd"
   xmlns:xlink="http://www.w3.org/1999/xlink"
   xmlns="http://www.w3.org/2000/svg"
   xmlns:svg="http://www.w3.org/2000/svg">
  <sodipodi:namedview
     id="namedview7"
     pagecolor="#ffffff"
     bordercolor="#666666"
     borderopacity="1.0"
     inkscape:pageshadow="2"
     inkscape:pageopacity="0.0"
     inkscape:pagecheckerboard="0"
     inkscape:document-units="px"
     showgrid="false"
     units="px"
     inkscape:zoom="12.227055"
     inkscape:cx="26.539506"
     inkscape:cy="31.242193"
     inkscape:window-width="1920"
     inkscape:window-height="1010"
     inkscape:window-x="0"
     inkscape:window-y="0"
     inkscape:window-maximized="1"
     inkscape:current-layer="svg5"
     showguides="false" />
  <defs
     id="defs2">
    <linearGradient
       inkscape:collect="always"
       id="linearGradient3598">
      <stop
         style="stop-color:#2daaaa;stop-opacity:1"
         offset="0"
         id="stop3594" />
      <stop
         style="stop-color:#31c6b7;stop-opacity:1"
         offset="1"
         id="stop3596" />
    </linearGradient>
    <linearGradient
       inkscape:collect="always"
       id="linearGradient1871">
      <stop
         style="stop-color:#ffffff;stop-opacity:1;"
         offset="0"
         id="stop1867" />
      <stop
         style="stop-color:#ffffff;stop-opacity:0.1"
         offset="0.12"
         id="stop2515" />
      <stop
         style="stop-color:#ffffff;stop-opacity:0.102"
         offset="0.89999998"
         id="stop2581" />
      <stop
         style="stop-color:#ffffff;stop-opacity:0.502"
         offset="1"
         id="stop1869" />
    </linearGradient>
    <linearGradient
       inkscape:collect="always"
       xlink:href="#linearGradient1871"
       id="linearGradient1873"
       x1="17.222656"
       y1="3.5"
       x2="17.222656"
       y2="44.466438"
       gradientUnits="userSpaceOnUse"
       gradientTransform="matrix(0.26458333,0,0,0.26458333,0,-0.13229166)" />
    <linearGradient
       inkscape:collect="always"
       xlink:href="#linearGradient3598"
       id="linearGradient3600"
       x1="0.2845408"
       y1="0.66307557"
       x2="16.915993"
       y2="14.967911"
       gradientUnits="userSpaceOnUse" />
  </defs>
  <path
     id="rect3143"
     style="opacity:0.1;fill:#000000;fill-opacity:1;stroke-width:0.264583"
     d="m 4.5160033,1.0583334 c -3.60405388,0 -4.1191283,0.5137855 -4.1191283,4.1144775 v 2.883545 c 0,3.6006791 0.51507442,4.1144791 4.1191283,4.1144791 h 3.6679933 c 3.6040544,0 4.1191284,-0.5138 4.1191284,-4.1144791 v -2.883545 c 0,-3.600692 -0.515074,-4.1144775 -4.1191284,-4.1144775 z" />
  <path
     style="display:inline;fill:url(#linearGradient3600);fill-opacity:1;stroke:none;stroke-width:0.0992187;stroke-linecap:round;stroke-linejoin:round;stroke-miterlimit:4;stroke-dasharray:none;stroke-dashoffset:0;stroke-opacity:1;enable-background:new"
     d="m 8.1839962,0.66145835 c 3.6040548,0 4.1191298,0.51378545 4.1191298,4.11447755 v 2.883545 c 0,3.6006781 -0.515075,4.1144781 -4.1191298,4.1144781 H 4.5160033 c -3.604054,0 -4.1191283,-0.5138 -4.1191283,-4.1144781 v -2.883545 c 0,-3.6006921 0.5150743,-4.11447755 4.1191283,-4.11447755 z"
     id="rect877"
     inkscape:connector-curvature="0"
     sodipodi:nodetypes="sssssssss" />
  <path
     id="circle29"
     d="M 10.451041,3.175 A 0.396875,0.396875 0 0 0 10.076904,3.4421672 H 7.7700684 c -0.2643066,0 -0.4925682,0.115025 -0.6686931,0.2992065 C 6.9252504,3.9255551 6.7936054,4.1756607 6.6858967,4.4674276 6.4704798,5.0509609 6.3518023,5.8075086 6.249231,6.560323 6.1466594,7.3131375 6.0609077,8.0626222 5.9252196,8.6113606 5.8573757,8.8857298 5.7755697,9.1095316 5.6838908,9.2521483 5.5922118,9.3947651 5.5096735,9.4490356 5.4022542,9.4490356 5.2936364,9.4490356 5.1923164,9.3997776 5.0834107,9.2898721 4.9745048,9.1799665 4.8665055,9.011115 4.7656006,8.8025633 4.5637907,8.3854601 4.3901804,7.8133915 4.2307494,7.2383178 4.0713186,6.6632441 3.925139,6.0852785 3.7682455,5.6425496 3.6897984,5.4211852 3.6098691,5.2337207 3.5160643,5.0911622 3.4222592,4.9486036 3.3017515,4.8332966 3.1398601,4.8332966 c -0.1202206,0 -0.2281388,0.060356 -0.3028241,0.1436606 C 2.762351,5.0602612 2.7107668,5.1649187 2.6675373,5.2828816 2.5810787,5.5188072 2.5298404,5.8136758 2.4794352,6.104537 2.4290299,6.3953979 2.3799029,6.6827103 2.3130371,6.8838174 2.2796042,6.984371 2.2409692,7.061859 2.2060669,7.1049927 c -0.034902,0.043134 -0.05297,0.05116 -0.082165,0.05116 H 0.52916667 V 7.4207356 H 2.1239014 c 0.1168539,0 0.2199626,-0.065462 0.2878377,-0.1493449 0.067875,-0.083883 0.1134814,-0.187185 0.1524454,-0.3043743 0.077928,-0.2343782 0.125481,-0.5277347 0.1757,-0.8175209 0.050219,-0.2897862 0.1030846,-0.5761035 0.1762164,-0.7756633 0.036566,-0.09978 0.078633,-0.1764292 0.1178224,-0.2201416 0.03919,-0.043713 0.06531,-0.055811 0.1059368,-0.055811 0.027662,0 0.082731,0.029135 0.1550292,0.1390097 0.072298,0.1098741 0.1493681,0.2826489 0.2242756,0.4940266 0.1498156,0.4227555 0.29581,0.9992931 0.4563031,1.5781983 0.1604931,0.5789051 0.3349609,1.1603061 0.5519042,1.6086873 0.1084717,0.2241907 0.2272223,0.4160948 0.3684529,0.5586222 0.1412309,0.1425273 0.3134487,0.237195 0.5064291,0.237195 0.211304,0 0.3843539,-0.1329619 0.5038453,-0.3188439 C 6.0255906,9.2088934 6.1106462,8.9636938 6.1820514,8.6749225 6.3248619,8.0973805 6.4091933,7.3448729 6.5112304,6.5959799 6.6132675,5.8470871 6.7335833,5.1016418 6.9339435,4.5588949 7.0341238,4.2875213 7.1545738,4.0686254 7.292578,3.9243082 7.4305823,3.7799912 7.5783722,3.7067505 7.7700684,3.7067505 H 10.078971 A 0.396875,0.396875 0 0 0 10.451041,3.96875 0.396875,0.396875 0 0 0 10.847917,3.571875 0.396875,0.396875 0 0 0 10.451041,3.175 Z"
     style="stroke-width:0.264583;fill:#d6f6f0;fill-opacity:1" />
  <path
     id="rect5299"
     style="opacity:0.1;fill:#ffffff;fill-opacity:1;stroke-width:0.264583"
     d="m 0.396875,6.2177086 v 1.4417725 c 0,3.6006789 0.5150744,4.1144779 4.1191283,4.1144779 h 3.6679933 c 3.6040544,0 4.1191284,-0.513799 4.1191284,-4.1144779 V 6.2177086 Z" />
  <path
     id="rect1565"
     style="opacity:0.7;fill:url(#linearGradient1873);fill-opacity:1;stroke-width:0.264583"
     d="m 4.5568277,0.79374997 c -3.5239635,0 -4.02766104,0.50133123 -4.02766104,4.01629243 v 2.8153318 c 0,3.5149478 0.50369754,4.0162928 4.02766104,4.0162928 h 3.5863445 c 3.5239638,0 4.0276608,-0.501345 4.0276608,-4.0162928 V 4.8100424 c 0,-3.5149612 -0.503697,-4.01629243 -4.0276608,-4.01629243 z m 0.081649,0.26458343 h 3.4230468 c 3.3637835,0 3.8447265,0.4769388 3.8447265,3.8204385 v 2.6778728 c 0,3.3434873 -0.480943,3.8204393 -3.8447265,3.8204393 h -3.423047 c -3.3637834,0 -3.84472651,-0.476952 -3.84472651,-3.8204393 V 4.8787719 c 0,-3.3434997 0.48094311,-3.8204385 3.84472671,-3.8204385 z" />
  <path
     id="rect1370"
     style="opacity:0.4;fill:#000000;fill-opacity:1;stroke-width:0.264583"
     d="m 4.4751788,0.52916667 c -3.68414336,0 -4.21059547,0.52624033 -4.21059547,4.21266273 v 2.9517578 c 0,3.6864088 0.52645211,4.2126628 4.21059547,4.2126628 H 8.224821 c 3.684144,0 4.210596,-0.526254 4.210596,-4.2126628 V 4.7418294 c 0,-3.6864224 -0.526452,-4.21266273 -4.210596,-4.21266273 z m 0.081649,0.2645833 h 3.5863445 c 3.5239637,0 4.0276607,0.50133143 4.0276607,4.01629243 v 2.8153318 c 0,3.5149478 -0.503697,4.0162928 -4.0276607,4.0162928 H 4.5568277 c -3.5239637,0 -4.02766104,-0.501345 -4.02766104,-4.0162928 V 4.8100424 c 0,-3.514961 0.50369724,-4.01629243 4.02766114,-4.01629243 z" />
</svg>
