<?xml version="1.0" encoding="UTF-8" standalone="no"?>
<!-- Created with Inkscape (http://www.inkscape.org/) -->

<svg
   width="48"
   height="48"
   viewBox="0 0 12.7 12.7"
   version="1.1"
   id="svg5"
   inkscape:version="1.1.2 (0a00cf5339, 2022-02-04)"
   sodipodi:docname="gsconnect.svg"
   xmlns:inkscape="http://www.inkscape.org/namespaces/inkscape"
   xmlns:sodipodi="http://sodipodi.sourceforge.net/DTD/sodipodi-0.dtd"
   xmlns:xlink="http://www.w3.org/1999/xlink"
   xmlns="http://www.w3.org/2000/svg"
   xmlns:svg="http://www.w3.org/2000/svg">
  <sodipodi:namedview
     id="namedview7"
     pagecolor="#ffffff"
     bordercolor="#666666"
     borderopacity="1.0"
     inkscape:pageshadow="2"
     inkscape:pageopacity="0.0"
     inkscape:pagecheckerboard="0"
     inkscape:document-units="px"
     showgrid="false"
     units="px"
     inkscape:zoom="16.979167"
     inkscape:cx="24"
     inkscape:cy="24"
     inkscape:window-width="1851"
     inkscape:window-height="1016"
     inkscape:window-x="0"
     inkscape:window-y="0"
     inkscape:window-maximized="1"
     inkscape:current-layer="svg5"
     showguides="true" />
  <defs
     id="defs2">
    <linearGradient
       inkscape:collect="always"
       id="linearGradient13289">
      <stop
         style="stop-color:#dfdfdf;stop-opacity:1"
         offset="0"
         id="stop13285" />
      <stop
         style="stop-color:#c6c6c6;stop-opacity:1"
         offset="1"
         id="stop13287" />
    </linearGradient>
    <linearGradient
       inkscape:collect="always"
       id="linearGradient1871">
      <stop
         style="stop-color:#ffffff;stop-opacity:1;"
         offset="0"
         id="stop1867" />
      <stop
         style="stop-color:#ffffff;stop-opacity:0.1"
         offset="0.12"
         id="stop2515" />
      <stop
         style="stop-color:#ffffff;stop-opacity:0.102"
         offset="0.89999998"
         id="stop2581" />
      <stop
         style="stop-color:#ffffff;stop-opacity:0.502"
         offset="1"
         id="stop1869" />
    </linearGradient>
    <linearGradient
       inkscape:collect="always"
       xlink:href="#linearGradient1871"
       id="linearGradient1873"
       x1="17.222656"
       y1="3.5"
       x2="17.222656"
       y2="44.466438"
       gradientUnits="userSpaceOnUse"
       gradientTransform="matrix(0.26458333,0,0,0.26458333,0,-0.13229166)" />
    <linearGradient
       inkscape:collect="always"
       xlink:href="#linearGradient3598"
       id="linearGradient1599"
       x1="5.9797931"
       y1="2.4520421"
       x2="8.2273169"
       y2="9.6627779"
       gradientUnits="userSpaceOnUse"
       gradientTransform="matrix(0.94177692,0,0,1.0274033,0.71836922,0.12659721)" />
    <linearGradient
       inkscape:collect="always"
       xlink:href="#linearGradient13289"
       id="linearGradient13291"
       x1="33"
       y1="42"
       x2="19"
       y2="7"
       gradientUnits="userSpaceOnUse" />
    <linearGradient
       inkscape:collect="always"
       id="linearGradient3598">
      <stop
         style="stop-color:#5884f4;stop-opacity:1"
         offset="0"
         id="stop3594" />
      <stop
         style="stop-color:#80a3fa;stop-opacity:1"
         offset="1"
         id="stop3596" />
    </linearGradient>
  </defs>
  <path
     id="rect3143"
     style="opacity:0.1;fill:#000000;fill-opacity:1;stroke-width:0.264583"
     d="m 4.5160033,1.0583334 c -3.60405388,0 -4.1191283,0.5137855 -4.1191283,4.1144775 v 2.883545 c 0,3.6006791 0.51507442,4.1144791 4.1191283,4.1144791 h 3.6679933 c 3.6040544,0 4.1191284,-0.5138 4.1191284,-4.1144791 v -2.883545 c 0,-3.600692 -0.515074,-4.1144775 -4.1191284,-4.1144775 z" />
  <path
     style="display:inline;fill:#4d4d4d;fill-opacity:1;stroke:none;stroke-width:0.0992187;stroke-linecap:round;stroke-linejoin:round;stroke-miterlimit:4;stroke-dasharray:none;stroke-dashoffset:0;stroke-opacity:1;enable-background:new"
     d="m 8.1839962,0.66145835 c 3.6040548,0 4.1191298,0.51378545 4.1191298,4.11447755 v 2.883545 c 0,3.6006781 -0.515075,4.1144781 -4.1191298,4.1144781 H 4.5160033 c -3.604054,0 -4.1191283,-0.5138 -4.1191283,-4.1144781 v -2.883545 c 0,-3.6006921 0.5150743,-4.11447755 4.1191283,-4.11447755 z"
     id="rect877"
     inkscape:connector-curvature="0"
     sodipodi:nodetypes="sssssssss" />
  <path
     d="m 4.4979166,2.1166667 c -0.5291667,-1e-7 -0.5291667,0.5005916 -0.5291667,0.79375 V 10.31875 c 0,0.293158 0,0.793749 0.5291667,0.793749 h 3.7041666 c 0.5291667,1e-6 0.5291667,-0.50059 0.5291667,-0.793749 V 2.9104167 c 0,-0.2931584 0,-0.7937501 -0.5291667,-0.79375 z"
     style="opacity:0.1;fill:#000000;stroke-width:0.0759547"
     id="path5583" />
  <path
     id="rect1370"
     style="opacity:0.4;fill:#000000;fill-opacity:1;stroke-width:0.264583"
     d="m 4.4751788,0.52916667 c -3.68414336,0 -4.21059547,0.52624033 -4.21059547,4.21266273 v 2.9517578 c 0,3.6864088 0.52645211,4.2126628 4.21059547,4.2126628 H 8.224821 c 3.684144,0 4.210596,-0.526254 4.210596,-4.2126628 V 4.7418294 c 0,-3.6864224 -0.526452,-4.21266273 -4.210596,-4.21266273 z m 0.081649,0.2645833 h 3.5863445 c 3.5239637,0 4.0276607,0.50133143 4.0276607,4.01629243 v 2.8153318 c 0,3.5149478 -0.503697,4.0162928 -4.0276607,4.0162928 H 4.5568277 c -3.5239637,0 -4.02766104,-0.501345 -4.02766104,-4.0162928 V 4.8100424 c 0,-3.514961 0.50369724,-4.01629243 4.02766114,-4.01629243 z" />
  <path
     id="rect1565"
     style="opacity:1;fill:url(#linearGradient1873);fill-opacity:1;stroke-width:0.264583"
     d="m 4.5568277,0.79374997 c -3.5239635,0 -4.02766104,0.50133123 -4.02766104,4.01629243 v 2.8153318 c 0,3.5149478 0.50369754,4.0162928 4.02766104,4.0162928 h 3.5863445 c 3.5239638,0 4.0276608,-0.501345 4.0276608,-4.0162928 V 4.8100424 c 0,-3.5149612 -0.503697,-4.01629243 -4.0276608,-4.01629243 z m 0.081649,0.26458343 h 3.4230468 c 3.3637835,0 3.8447265,0.4769388 3.8447265,3.8204385 v 2.6778728 c 0,3.3434873 -0.480943,3.8204393 -3.8447265,3.8204393 h -3.423047 c -3.3637834,0 -3.84472651,-0.476952 -3.84472651,-3.8204393 V 4.8787719 c 0,-3.3434997 0.48094311,-3.8204385 3.84472671,-3.8204385 z" />
  <path
     id="path4863"
     style="opacity:1;fill:url(#linearGradient13291);stroke-width:0.287073;fill-opacity:1"
     d="m 17,7 c -2,-4e-7 -2,1.8919997 -2,3 v 28 c 0,1.107999 0,3 2,3 h 14 c 2,4e-6 2,-1.891997 2,-3 V 10 C 33,8.8919997 33,6.9999996 31,7 Z"
     transform="scale(0.26458333)"
     sodipodi:nodetypes="sssscssss" />
  <rect
     style="opacity:1;fill:url(#linearGradient1599);fill-opacity:1.0;stroke-width:0.282382"
     id="rect1437"
     width="4.2333331"
     height="7.4083333"
     x="4.2333331"
     y="2.6458333"
     ry="0.26458332" />
  <path
     d="m 4.4979167,10.054166 c -0.1465792,0 -0.2645834,-0.1180037 -0.2645834,-0.2645827 v -0.264583 c 0,0.146579 0.1180042,0.264583 0.2645834,0.264583 h 3.7041666 c 0.1465792,0 0.2645833,-0.118004 0.2645833,-0.264583 v 0.264583 c 0,0.146579 -0.1180041,0.2645827 -0.2645833,0.2645827 z"
     style="opacity:0.4;fill:#ffffff;fill-opacity:1;stroke-width:0.287073"
     id="path3389" />
  <path
     id="rect3123"
     style="opacity:0.1;fill:#000000;fill-opacity:1;stroke-width:0.287073"
     d="m 4.4979166,2.6458334 c -0.1465792,0 -0.2645833,0.1180041 -0.2645833,0.2645833 V 3.175 c 0,-0.1465791 0.1180041,-0.2645833 0.2645833,-0.2645833 h 3.7041666 c 0.1465792,0 0.2645834,0.1180042 0.2645834,0.2645833 V 2.9104167 c 0,-0.1465792 -0.1180042,-0.2645833 -0.2645834,-0.2645833 z"
     sodipodi:nodetypes="sscsscsss" />
</svg>
