<?xml version="1.0" encoding="UTF-8" standalone="no"?>
<!-- Created with Inkscape (http://www.inkscape.org/) -->

<svg
   width="48"
   height="48"
   viewBox="0 0 12.7 12.7"
   version="1.1"
   id="svg5"
   inkscape:version="1.1.2 (0a00cf5339, 2022-02-04)"
   sodipodi:docname="kalendar.svg"
   xmlns:inkscape="http://www.inkscape.org/namespaces/inkscape"
   xmlns:sodipodi="http://sodipodi.sourceforge.net/DTD/sodipodi-0.dtd"
   xmlns:xlink="http://www.w3.org/1999/xlink"
   xmlns="http://www.w3.org/2000/svg"
   xmlns:svg="http://www.w3.org/2000/svg">
  <sodipodi:namedview
     id="namedview7"
     pagecolor="#ffffff"
     bordercolor="#666666"
     borderopacity="1.0"
     inkscape:pageshadow="2"
     inkscape:pageopacity="0.0"
     inkscape:pagecheckerboard="0"
     inkscape:document-units="px"
     showgrid="false"
     units="px"
     inkscape:zoom="16.5"
     inkscape:cx="24.030303"
     inkscape:cy="24"
     inkscape:window-width="1920"
     inkscape:window-height="1010"
     inkscape:window-x="0"
     inkscape:window-y="0"
     inkscape:window-maximized="1"
     inkscape:current-layer="svg5" />
  <defs
     id="defs2">
    <linearGradient
       inkscape:collect="always"
       id="linearGradient1576">
      <stop
         style="stop-color:#d9d9d9;stop-opacity:1;"
         offset="0"
         id="stop1572" />
      <stop
         style="stop-color:#ececec;stop-opacity:1"
         offset="1"
         id="stop1574" />
    </linearGradient>
    <linearGradient
       inkscape:collect="always"
       id="linearGradient3598">
      <stop
         style="stop-color:#2b638f;stop-opacity:1"
         offset="0"
         id="stop3594" />
      <stop
         style="stop-color:#5bb0db;stop-opacity:1"
         offset="1"
         id="stop3596" />
    </linearGradient>
    <linearGradient
       inkscape:collect="always"
       id="linearGradient1871">
      <stop
         style="stop-color:#ffffff;stop-opacity:1;"
         offset="0"
         id="stop1867" />
      <stop
         style="stop-color:#ffffff;stop-opacity:0.1"
         offset="0.12"
         id="stop2515" />
      <stop
         style="stop-color:#ffffff;stop-opacity:0.102"
         offset="0.89999998"
         id="stop2581" />
      <stop
         style="stop-color:#ffffff;stop-opacity:0.502"
         offset="1"
         id="stop1869" />
    </linearGradient>
    <linearGradient
       inkscape:collect="always"
       xlink:href="#linearGradient1871"
       id="linearGradient1873"
       x1="17.222656"
       y1="3.5"
       x2="17.222656"
       y2="44.466438"
       gradientUnits="userSpaceOnUse"
       gradientTransform="matrix(0.26458333,0,0,0.26458333,0,-0.13229166)" />
    <linearGradient
       inkscape:collect="always"
       xlink:href="#linearGradient3598"
       id="linearGradient3600"
       x1="0"
       y1="0"
       x2="0"
       y2="12.7"
       gradientUnits="userSpaceOnUse" />
    <linearGradient
       inkscape:collect="always"
       xlink:href="#linearGradient1576"
       id="linearGradient1578"
       x1="1.0583333"
       y1="7.5406246"
       x2="1.0583333"
       y2="4.8947916"
       gradientUnits="userSpaceOnUse"
       gradientTransform="scale(3.7795276)" />
  </defs>
  <path
     id="rect3143"
     style="opacity:0.1;fill:#000000;fill-opacity:1;stroke-width:0.264583"
     d="m 4.5160033,1.0583334 c -3.60405388,0 -4.1191283,0.5137855 -4.1191283,4.1144775 v 2.883545 c 0,3.6006791 0.51507442,4.1144791 4.1191283,4.1144791 h 3.6679933 c 3.6040544,0 4.1191284,-0.5138 4.1191284,-4.1144791 v -2.883545 c 0,-3.600692 -0.515074,-4.1144775 -4.1191284,-4.1144775 z" />
  <path
     style="display:inline;fill:url(#linearGradient3600);fill-opacity:1;stroke:none;stroke-width:0.0992187;stroke-linecap:round;stroke-linejoin:round;stroke-miterlimit:4;stroke-dasharray:none;stroke-dashoffset:0;stroke-opacity:1;enable-background:new"
     d="m 8.1839962,0.66145835 c 3.6040548,0 4.1191298,0.51378545 4.1191298,4.11447755 v 2.883545 c 0,3.6006781 -0.515075,4.1144781 -4.1191298,4.1144781 H 4.5160033 c -3.604054,0 -4.1191283,-0.5138 -4.1191283,-4.1144781 v -2.883545 c 0,-3.6006921 0.5150743,-4.11447755 4.1191283,-4.11447755 z"
     id="rect877"
     inkscape:connector-curvature="0"
     sodipodi:nodetypes="sssssssss" />
  <path
     id="rect2158"
     style="opacity:0.1;fill:#000000;fill-opacity:1;stroke-width:0.264583;stroke-linejoin:round"
     d="M 0.52916666,5.159375 V 7.8052083 H 1.0583333 V 5.159375 Z m 11.11250034,0 v 2.6458333 h 0.529166 V 5.159375 Z" />
  <path
     id="rect5299"
     style="opacity:0.1;fill:#ffffff;fill-opacity:1;stroke-width:0.999999"
     d="M 1.5 23.5 L 1.5 28.949219 C 1.5 42.558081 3.446738 44.5 17.068359 44.5 L 30.931641 44.5 C 44.553265 44.5 46.5 42.558081 46.5 28.949219 L 46.5 23.5 L 1.5 23.5 z "
     transform="scale(0.26458333)" />
  <path
     id="rect1358"
     style="opacity:1;fill:url(#linearGradient1578);fill-opacity:1;stroke-width:0.999999;stroke-linejoin:round"
     d="M 2 18.5 L 2 28.5 L 4 28.5 L 4 18.5 L 2 18.5 z M 44 18.5 L 44 28.5 L 46 28.5 L 46 18.5 L 44 18.5 z "
     transform="scale(0.26458333)" />
  <path
     id="rect6048"
     style="opacity:1;fill:#ececec;fill-opacity:1;stroke-width:0.999999;stroke-linejoin:round"
     d="M 15.314453 14 C 14.653686 14 14.037744 14.082844 13.46875 14.248047 C 12.899756 14.41325 12.386601 14.614888 11.927734 14.853516 C 11.468868 15.092117 11.074523 15.34968 10.744141 15.625 C 10.413757 15.88197 10.165191 16.101611 10 16.285156 L 11.265625 18.101562 C 11.39411 17.991427 11.577799 17.836657 11.816406 17.634766 C 12.055019 17.414495 12.348527 17.212846 12.697266 17.029297 C 13.046003 16.827395 13.442303 16.652705 13.882812 16.505859 C 14.323325 16.359025 14.809512 16.285156 15.341797 16.285156 C 15.782308 16.285156 16.194631 16.350049 16.580078 16.478516 C 16.98388 16.588651 17.333279 16.772338 17.626953 17.029297 C 17.92063 17.286267 18.149252 17.60674 18.314453 17.992188 C 18.497998 18.377635 18.589844 18.845845 18.589844 19.396484 C 18.589844 19.910413 18.489012 20.3966 18.287109 20.855469 C 18.103564 21.314334 17.846009 21.764567 17.515625 22.205078 C 17.203595 22.627232 16.836219 23.057535 16.414062 23.498047 C 16.413434 23.498704 16.412738 23.499343 16.412109 23.5 L 19.515625 23.5 C 19.632599 23.353194 19.745341 23.20543 19.855469 23.058594 C 20.29598 22.45289 20.645379 21.845938 20.902344 21.240234 C 21.177663 20.616178 21.316406 19.97522 21.316406 19.314453 C 21.316406 17.625821 20.810287 16.32203 19.800781 15.404297 C 18.80963 14.46821 17.31511 14 15.314453 14 z M 31.75 14 C 30.868977 14 30.0713 14.147741 29.355469 14.441406 C 28.639638 14.716707 28.023694 15.091137 27.509766 15.568359 C 27.014188 16.045578 26.628835 16.605633 26.353516 17.248047 C 26.078196 17.872104 25.941406 18.532991 25.941406 19.230469 C 25.941406 21.061452 26.694703 22.483778 28.201172 23.5 L 34.974609 23.5 C 35.240403 23.308706 35.496829 23.096963 35.742188 22.865234 C 36.090925 22.553197 36.393424 22.194817 36.650391 21.791016 C 36.925691 21.387211 37.136368 20.956912 37.283203 20.498047 C 37.448406 20.020825 37.53125 19.514704 37.53125 18.982422 C 37.53125 18.431783 37.421405 17.862737 37.201172 17.275391 C 36.99927 16.688041 36.660816 16.15691 36.183594 15.679688 C 35.724729 15.184112 35.126763 14.78078 34.392578 14.46875 C 33.658394 14.156712 32.777861 14 31.75 14 z M 31.75 16.119141 C 32.33735 16.119141 32.832523 16.219973 33.236328 16.421875 C 33.640129 16.605409 33.971549 16.844999 34.228516 17.138672 C 34.485486 17.413973 34.669169 17.716488 34.779297 18.046875 C 34.907763 18.377244 34.970703 18.679758 34.970703 18.955078 C 34.970707 19.946233 34.742079 20.75485 34.283203 21.378906 C 33.824338 21.984613 33.210348 22.515744 32.439453 22.974609 C 31.741975 22.809406 31.135026 22.589773 30.621094 22.314453 C 30.125518 22.039115 29.722186 21.727647 29.410156 21.378906 C 29.098118 21.030169 28.869495 20.653801 28.722656 20.25 C 28.575822 19.846195 28.501953 19.442863 28.501953 19.039062 C 28.501953 18.708694 28.55588 18.377259 28.666016 18.046875 C 28.794482 17.698138 28.987163 17.386652 29.244141 17.111328 C 29.501111 16.817659 29.832523 16.578076 30.236328 16.394531 C 30.658482 16.210997 31.16265 16.119141 31.75 16.119141 z "
     transform="scale(0.26458333)" />
  <path
     id="rect6362"
     style="opacity:1;fill:#f9f9f9;fill-opacity:1;stroke-width:0.999999;stroke-linejoin:round"
     d="m 16.412109,23.5 c -0.403259,0.421537 -0.832857,0.853136 -1.291015,1.292969 -0.55064,0.550639 -1.110694,1.119682 -1.679688,1.707031 -0.568994,0.587349 -1.082149,1.210327 -1.541015,1.871094 -0.458867,0.660767 -0.835232,1.368553 -1.128907,2.121094 -0.275319,0.734182 -0.414062,1.531862 -0.414062,2.394531 v 0.302734 c 0,0.110128 0.009,0.21995 0.02734,0.330078 h 11.564453 v -2.173828 h -8.783203 c 0,-0.312029 0.11881,-0.679406 0.357422,-1.101562 0.256962,-0.422157 0.570407,-0.8634 0.9375,-1.322266 0.367089,-0.458866 0.752447,-0.898156 1.15625,-1.320313 L 16.71875,26.5 c 0.55064,-0.550639 1.099751,-1.110693 1.650391,-1.679688 0.412643,-0.440151 0.78408,-0.88025 1.134765,-1.320312 z m 11.791016,0 c 0.139532,0.09412 0.28308,0.186314 0.435547,0.273438 -0.422157,0.256962 -0.82549,0.559464 -1.210938,0.908203 -0.367093,0.330383 -0.69656,0.706749 -0.990234,1.128906 -0.27532,0.422157 -0.505907,0.881378 -0.689453,1.376953 C 25.582854,27.664721 25.5,28.168887 25.5,28.701172 c 0,0.550639 0.100835,1.139614 0.302734,1.763672 0.201901,0.605703 0.542311,1.165757 1.019532,1.679687 0.47722,0.51393 1.11114,0.944231 1.90039,1.292969 0.807605,0.330384 1.806948,0.496094 3,0.496094 1.02786,0 1.937313,-0.138743 2.726563,-0.414063 0.78925,-0.256965 1.439195,-0.624341 1.953125,-1.101562 0.532284,-0.495576 0.928582,-1.064622 1.185547,-1.707031 C 37.863211,30.05017 38,29.335348 38,28.564453 37.963291,26.343541 36.86116,24.719266 34.695312,23.691406 34.786707,23.632 34.87371,23.563977 34.962891,23.5 Z m 2.472656,1.099609 c 0.734186,0.165193 1.386084,0.36686 1.955078,0.605469 0.587349,0.220256 1.082526,0.495788 1.486329,0.826172 0.422153,0.330384 0.744588,0.715739 0.964843,1.15625 0.220256,0.440511 0.330078,0.95562 0.330078,1.542969 0,0.385447 -0.07387,0.761813 -0.220703,1.128906 -0.146837,0.367093 -0.366482,0.69656 -0.660156,0.990234 -0.293674,0.27532 -0.679029,0.503954 -1.15625,0.6875 -0.458866,0.183547 -1.000942,0.275391 -1.625,0.275391 -0.697477,0 -1.275509,-0.100835 -1.734375,-0.302734 -0.458866,-0.201901 -0.835232,-0.448514 -1.128906,-0.742188 -0.293676,-0.312029 -0.504331,-0.643449 -0.632813,-0.992187 -0.110128,-0.367093 -0.166015,-0.714539 -0.166015,-1.044922 0,-0.936088 0.221598,-1.744706 0.662109,-2.423828 0.458866,-0.679122 1.099822,-1.248165 1.925781,-1.707032 z"
     transform="scale(0.26458333)"
     sodipodi:nodetypes="ccsscsscccccscsccccccccscscsccccccccccsssccssccscc" />
  <path
     id="rect1565"
     style="opacity:1;fill:url(#linearGradient1873);fill-opacity:1;stroke-width:0.264583"
     d="m 4.5568277,0.79374997 c -3.5239635,0 -4.02766104,0.50133123 -4.02766104,4.01629243 v 2.8153318 c 0,3.5149478 0.50369754,4.0162928 4.02766104,4.0162928 h 3.5863445 c 3.5239638,0 4.0276608,-0.501345 4.0276608,-4.0162928 V 4.8100424 c 0,-3.5149612 -0.503697,-4.01629243 -4.0276608,-4.01629243 z m 0.081649,0.26458343 h 3.4230468 c 3.3637835,0 3.8447265,0.4769388 3.8447265,3.8204385 v 2.6778728 c 0,3.3434873 -0.480943,3.8204393 -3.8447265,3.8204393 h -3.423047 c -3.3637834,0 -3.84472651,-0.476952 -3.84472651,-3.8204393 V 4.8787719 c 0,-3.3434997 0.48094311,-3.8204385 3.84472671,-3.8204385 z" />
  <path
     id="rect1370"
     style="opacity:0.4;fill:#000000;fill-opacity:1;stroke-width:0.264583"
     d="m 4.4751788,0.52916667 c -3.68414336,0 -4.21059547,0.52624033 -4.21059547,4.21266273 v 2.9517578 c 0,3.6864088 0.52645211,4.2126628 4.21059547,4.2126628 H 8.224821 c 3.684144,0 4.210596,-0.526254 4.210596,-4.2126628 V 4.7418294 c 0,-3.6864224 -0.526452,-4.21266273 -4.210596,-4.21266273 z m 0.081649,0.2645833 h 3.5863445 c 3.5239637,0 4.0276607,0.50133143 4.0276607,4.01629243 v 2.8153318 c 0,3.5149478 -0.503697,4.0162928 -4.0276607,4.0162928 H 4.5568277 c -3.5239637,0 -4.02766104,-0.501345 -4.02766104,-4.0162928 V 4.8100424 c 0,-3.514961 0.50369724,-4.01629243 4.02766114,-4.01629243 z" />
</svg>
