<?xml version="1.0" encoding="UTF-8" standalone="no"?>
<!-- Created with Inkscape (http://www.inkscape.org/) -->

<svg
   width="48"
   height="48"
   viewBox="0 0 12.7 12.7"
   version="1.1"
   id="svg5"
   inkscape:version="1.1.2 (0a00cf5339, 2022-02-04)"
   sodipodi:docname="kde.svg"
   xmlns:inkscape="http://www.inkscape.org/namespaces/inkscape"
   xmlns:sodipodi="http://sodipodi.sourceforge.net/DTD/sodipodi-0.dtd"
   xmlns:xlink="http://www.w3.org/1999/xlink"
   xmlns="http://www.w3.org/2000/svg"
   xmlns:svg="http://www.w3.org/2000/svg">
  <sodipodi:namedview
     id="namedview7"
     pagecolor="#ffffff"
     bordercolor="#666666"
     borderopacity="1.0"
     inkscape:pageshadow="2"
     inkscape:pageopacity="0.0"
     inkscape:pagecheckerboard="0"
     inkscape:document-units="px"
     showgrid="false"
     units="px"
     inkscape:zoom="16.979167"
     inkscape:cx="24"
     inkscape:cy="24"
     inkscape:window-width="1851"
     inkscape:window-height="1016"
     inkscape:window-x="0"
     inkscape:window-y="0"
     inkscape:window-maximized="1"
     inkscape:current-layer="svg5" />
  <defs
     id="defs2">
    <linearGradient
       inkscape:collect="always"
       id="linearGradient3598">
      <stop
         style="stop-color:#1a86f2;stop-opacity:1"
         offset="0"
         id="stop3594" />
      <stop
         style="stop-color:#21c9fb;stop-opacity:1"
         offset="1"
         id="stop3596" />
    </linearGradient>
    <linearGradient
       inkscape:collect="always"
       id="linearGradient1871">
      <stop
         style="stop-color:#ffffff;stop-opacity:1;"
         offset="0"
         id="stop1867" />
      <stop
         style="stop-color:#ffffff;stop-opacity:0.1"
         offset="0.12"
         id="stop2515" />
      <stop
         style="stop-color:#ffffff;stop-opacity:0.102"
         offset="0.89999998"
         id="stop2581" />
      <stop
         style="stop-color:#ffffff;stop-opacity:0.502"
         offset="1"
         id="stop1869" />
    </linearGradient>
    <linearGradient
       inkscape:collect="always"
       xlink:href="#linearGradient1871"
       id="linearGradient1873"
       x1="17.222656"
       y1="3.5"
       x2="17.222656"
       y2="44.466438"
       gradientUnits="userSpaceOnUse"
       gradientTransform="matrix(0.26458333,0,0,0.26458333,0,-0.13229166)" />
    <linearGradient
       inkscape:collect="always"
       xlink:href="#linearGradient3598"
       id="linearGradient3600"
       x1="12.646386"
       y1="11.784748"
       x2="0.24184538"
       y2="0.5291667"
       gradientUnits="userSpaceOnUse" />
  </defs>
  <path
     id="rect3143"
     style="opacity:0.1;fill:#000000;fill-opacity:1;stroke-width:0.264583"
     d="m 4.5160033,1.0583334 c -3.60405388,0 -4.1191283,0.5137855 -4.1191283,4.1144775 v 2.883545 c 0,3.6006791 0.51507442,4.1144791 4.1191283,4.1144791 h 3.6679933 c 3.6040544,0 4.1191284,-0.5138 4.1191284,-4.1144791 v -2.883545 c 0,-3.600692 -0.515074,-4.1144775 -4.1191284,-4.1144775 z" />
  <path
     style="display:inline;fill:url(#linearGradient3600);fill-opacity:1;stroke:none;stroke-width:0.0992187;stroke-linecap:round;stroke-linejoin:round;stroke-miterlimit:4;stroke-dasharray:none;stroke-dashoffset:0;stroke-opacity:1;enable-background:new"
     d="m 8.1839962,0.66145835 c 3.6040548,0 4.1191298,0.51378545 4.1191298,4.11447755 v 2.883545 c 0,3.6006781 -0.515075,4.1144781 -4.1191298,4.1144781 H 4.5160033 c -3.604054,0 -4.1191283,-0.5138 -4.1191283,-4.1144781 v -2.883545 c 0,-3.6006921 0.5150743,-4.11447755 4.1191283,-4.11447755 z"
     id="rect877"
     inkscape:connector-curvature="0"
     sodipodi:nodetypes="sssssssss" />
  <path
     d="m 9.8657305,3.4397237 c 0.2798755,-0.00352 0.4677565,0.05933 0.5642765,0.1751754 0.101346,0.1206711 0.153471,0.3186112 0.153471,0.593725 v 4.8119771 c 0,0.2751402 -0.05213,0.4730485 -0.153471,0.593725 -0.09653,0.1158505 -0.284374,0.1751753 -0.5642765,0.1751753 H 2.8344286 c -0.2799027,0 -0.4682596,-0.059325 -0.5648061,-0.1751753 C 2.1682765,9.4936524 2.1166669,9.2957414 2.1166669,9.0206012 V 4.2086241 c 0,-0.2751402 0.05161,-0.473075 0.1529556,-0.593725 0.09652,-0.1158452 0.2849034,-0.1751754 0.5648061,-0.1751754 z"
     style="opacity:0.1;fill:#000000;stroke-width:0.264583;enable-background:new"
     id="path882"
     sodipodi:nodetypes="ccsscsscsscsc" />
  <path
     d="m 9.8657305,3.1751404 c 0.2798755,-0.00352 0.4677565,0.05933 0.5642765,0.1751756 0.101346,0.1206709 0.153471,0.3186109 0.153471,0.5937249 v 4.8119772 c 0,0.2751402 -0.05213,0.4730483 -0.153471,0.593725 -0.09653,0.1158505 -0.284374,0.1751751 -0.5642765,0.1751751 H 2.8344283 c -0.2799026,0 -0.4682595,-0.059325 -0.564806,-0.1751751 C 2.1682763,9.2290693 2.1166667,9.0311583 2.1166667,8.7560181 V 3.9440409 c 0,-0.2751402 0.05161,-0.473075 0.1529556,-0.5937249 0.09652,-0.1158455 0.2849034,-0.1751756 0.564806,-0.1751756 z"
     style="fill:#f4f4f4;fill-opacity:1;stroke-width:0.0700042;enable-background:new"
     id="path1226" />
  <path
     d="m 2.8344603,3.1751404 c -0.2799027,0 -0.4683125,0.059338 -0.5648325,0.1751833 -0.101346,0.1206711 -0.1529609,0.3186377 -0.1529609,0.5937514 v 0.024805 0.2644533 h 8.4666661 l 5.29e-4,-0.2644533 v -0.024805 c 0,-0.2751402 -0.05213,-0.4731014 -0.153479,-0.5937514 C 10.333855,3.2344785 10.145956,3.1716188 9.8660805,3.1751404 Z"
     style="fill:#5d676b;fill-opacity:1;stroke-width:0.264583;enable-background:new"
     id="path1002"
     sodipodi:nodetypes="scsccccsccs" />
  <path
     id="rect1370"
     style="opacity:0.4;fill:#000000;fill-opacity:1;stroke-width:0.264583"
     d="m 4.4751788,0.52916667 c -3.68414336,0 -4.21059547,0.52624033 -4.21059547,4.21266273 v 2.9517578 c 0,3.6864088 0.52645211,4.2126628 4.21059547,4.2126628 H 8.224821 c 3.684144,0 4.210596,-0.526254 4.210596,-4.2126628 V 4.7418294 c 0,-3.6864224 -0.526452,-4.21266273 -4.210596,-4.21266273 z m 0.081649,0.2645833 h 3.5863445 c 3.5239637,0 4.0276607,0.50133143 4.0276607,4.01629243 v 2.8153318 c 0,3.5149478 -0.503697,4.0162928 -4.0276607,4.0162928 H 4.5568277 c -3.5239637,0 -4.02766104,-0.501345 -4.02766104,-4.0162928 V 4.8100424 c 0,-3.514961 0.50369724,-4.01629243 4.02766114,-4.01629243 z" />
  <path
     id="rect1565"
     style="opacity:1;fill:url(#linearGradient1873);fill-opacity:1;stroke-width:0.264583"
     d="m 4.5568277,0.79374997 c -3.5239635,0 -4.02766104,0.50133123 -4.02766104,4.01629243 v 2.8153318 c 0,3.5149478 0.50369754,4.0162928 4.02766104,4.0162928 h 3.5863445 c 3.5239638,0 4.0276608,-0.501345 4.0276608,-4.0162928 V 4.8100424 c 0,-3.5149612 -0.503697,-4.01629243 -4.0276608,-4.01629243 z m 0.081649,0.26458343 h 3.4230468 c 3.3637835,0 3.8447265,0.4769388 3.8447265,3.8204385 v 2.6778728 c 0,3.3434873 -0.480943,3.8204393 -3.8447265,3.8204393 h -3.423047 c -3.3637834,0 -3.84472651,-0.476952 -3.84472651,-3.8204393 V 4.8787719 c 0,-3.3434997 0.48094311,-3.8204385 3.84472671,-3.8204385 z" />
  <path
     id="rect882"
     style="fill:#4d4d4d;fill-opacity:1;stroke-width:0.123472;stroke-linecap:round;stroke-linejoin:round"
     d="m 6.5969445,4.7625 v 2.407e-4 L 6.6003245,4.7625 Z m 0,2.407e-4 -0.6173612,0.061013 V 7.4516383 L 6.5969445,7.3554167 V 6.2441666 L 7.4612501,7.4788887 8.1950899,7.2319443 7.2143056,6.1206944 8.2020839,5.0094445 7.4612501,4.7625 6.5969445,5.9972222 Z M 5.201853,5.5035744 c -0.00759,9.256e-4 -0.015721,0.0027 -0.021463,0.00844 l -0.2633432,0.261655 c -0.011048,0.01102 -0.012221,0.027662 -0.0041,0.040997 L 5.1929306,6.2740702 C 5.127078,6.3810118 5.0763042,6.4979384 5.0419666,6.6218181 L 4.5251674,6.7284092 c -0.015693,0.00321 -0.02725,0.018193 -0.02725,0.034245 v 0.369452 c 0,0.015652 0.012027,0.028943 0.02725,0.032555 L 5.026291,7.2854802 C 5.057815,7.4248556 5.111095,7.55573 5.181837,7.6751897 L 4.8897964,8.1167488 c -0.00885,0.013426 -0.00708,0.031295 0.00434,0.042686 l 0.2631019,0.2614136 c 0.011113,0.011018 0.028385,0.012399 0.04172,0.00434 L 5.654987,8.1502699 c 0.1125696,0.067285 0.2354793,0.1186552 0.3660759,0.1512052 l 0.10635,0.5085999 c 0.00333,0.01568 0.016623,0.027011 0.032797,0.027011 h 0.3721046 c 0.015558,0 0.029094,-0.010467 0.032797,-0.025564 L 6.6914784,8.2997871 C 6.8231121,8.2656878 6.9458075,8.2105184 7.0587599,8.141106 l 0.4579568,0.2980698 c 0.013519,0.0087 0.031201,0.00711 0.042686,-0.00411 L 7.8212993,8.173655 C 7.8324103,8.162637 7.8349963,8.14566 7.8268493,8.132416 L 7.6481506,7.8396529 7.5895494,7.8582216 c -0.00852,0.00261 -0.017911,-0.00135 -0.022909,-0.00868 0,0 -0.055513,-0.075103 -0.099597,-0.134807 C 7.4464726,7.6834493 7.3468103,7.5370905 7.2439679,7.4029257 7.0817251,7.7503754 6.7332578,7.9724074 6.35,7.972778 5.8044627,7.972778 5.3622223,7.5305371 5.3622223,6.9849999 5.3625804,6.6104222 5.5376145,6.2775809 5.8561111,6.110807 V 5.7114515 c -0.068882,0.025604 -0.1141743,0.057143 -0.1772502,0.093087 L 5.2230749,5.5081564 c -0.00676,-0.00445 -0.013721,-0.00532 -0.021222,-0.00458 z" />
</svg>
