<?xml version="1.0" encoding="UTF-8" standalone="no"?>
<!-- Created with Inkscape (http://www.inkscape.org/) -->

<svg
   width="48"
   height="48"
   viewBox="0 0 12.7 12.7"
   version="1.1"
   id="svg5"
   inkscape:version="1.1.2 (0a00cf5339, 2022-02-04)"
   sodipodi:docname="maps.svg"
   xmlns:inkscape="http://www.inkscape.org/namespaces/inkscape"
   xmlns:sodipodi="http://sodipodi.sourceforge.net/DTD/sodipodi-0.dtd"
   xmlns:xlink="http://www.w3.org/1999/xlink"
   xmlns="http://www.w3.org/2000/svg"
   xmlns:svg="http://www.w3.org/2000/svg">
  <sodipodi:namedview
     id="namedview7"
     pagecolor="#ffffff"
     bordercolor="#666666"
     borderopacity="1.0"
     inkscape:pageshadow="2"
     inkscape:pageopacity="0.0"
     inkscape:pagecheckerboard="0"
     inkscape:document-units="px"
     showgrid="false"
     units="px"
     inkscape:zoom="16.333333"
     inkscape:cx="24"
     inkscape:cy="24"
     inkscape:window-width="1920"
     inkscape:window-height="1011"
     inkscape:window-x="0"
     inkscape:window-y="0"
     inkscape:window-maximized="1"
     inkscape:current-layer="svg5"
     showguides="true" />
  <defs
     id="defs2">
    <linearGradient
       inkscape:collect="always"
       id="linearGradient1871">
      <stop
         style="stop-color:#ffffff;stop-opacity:1;"
         offset="0"
         id="stop1867" />
      <stop
         style="stop-color:#ffffff;stop-opacity:0.1"
         offset="0.12"
         id="stop2515" />
      <stop
         style="stop-color:#ffffff;stop-opacity:0.102"
         offset="0.89999998"
         id="stop2581" />
      <stop
         style="stop-color:#ffffff;stop-opacity:0.502"
         offset="1"
         id="stop1869" />
    </linearGradient>
    <linearGradient
       inkscape:collect="always"
       xlink:href="#linearGradient1871"
       id="linearGradient1873"
       x1="17.222656"
       y1="3.5"
       x2="17.222656"
       y2="44.466438"
       gradientUnits="userSpaceOnUse"
       gradientTransform="matrix(0.26458333,0,0,0.26458333,0,-0.13229166)" />
  </defs>
  <path
     id="rect3143"
     style="opacity:0.1;fill:#000000;fill-opacity:1;stroke-width:0.264583"
     d="m 4.5160033,1.0583334 c -3.60405388,0 -4.1191283,0.5137855 -4.1191283,4.1144775 v 2.883545 c 0,3.6006791 0.51507442,4.1144791 4.1191283,4.1144791 h 3.6679933 c 3.6040544,0 4.1191284,-0.5138 4.1191284,-4.1144791 v -2.883545 c 0,-3.600692 -0.515074,-4.1144775 -4.1191284,-4.1144775 z" />
  <path
     style="display:inline;fill:#6dc7f1;fill-opacity:1;stroke:none;stroke-width:0.0992187;stroke-linecap:round;stroke-linejoin:round;stroke-miterlimit:4;stroke-dasharray:none;stroke-dashoffset:0;stroke-opacity:1;enable-background:new"
     d="m 8.1839962,0.66145835 c 3.6040548,0 4.1191298,0.51378545 4.1191298,4.11447755 v 2.883545 c 0,3.6006781 -0.515075,4.1144781 -4.1191298,4.1144781 H 4.5160033 c -3.604054,0 -4.1191283,-0.5138 -4.1191283,-4.1144781 v -2.883545 c 0,-3.6006921 0.5150743,-4.11447755 4.1191283,-4.11447755 z"
     id="rect877"
     inkscape:connector-curvature="0"
     sodipodi:nodetypes="sssssssss" />
  <path
     id="rect5693"
     style="fill:#e3dfd5;stroke-width:0.999999"
     d="M 26.511719 2.5 L 18.347656 34.962891 L 27.408203 44.5 L 30.931641 44.5 C 44.553265 44.5 46.5 42.558082 46.5 28.949219 L 46.5 18.050781 C 46.5 4.4418662 44.553265 2.5 30.931641 2.5 L 26.511719 2.5 z "
     transform="scale(0.26458333)" />
  <path
     id="rect10577"
     style="fill:#a6d74f;stroke-width:0.999999"
     d="M 17.068359 2.5 C 3.6187477 2.5 1.5520296 4.4011665 1.5019531 17.548828 L 18.859375 35.417969 L 45.232422 7.3027344 C 43.498618 3.2795252 39.554443 2.5 30.931641 2.5 L 17.068359 2.5 z "
     transform="scale(0.26458333)" />
  <path
     id="rect940"
     style="fill:#ffffff;stroke-width:0.999999"
     d="M 1.5488281 14.878906 C 1.5158151 15.860575 1.5 16.911204 1.5 18.050781 L 1.5 20.273438 L 25.189453 44.5 L 30.509766 44.5 L 1.5488281 14.878906 z "
     transform="scale(0.26458333)" />
  <path
     id="path1437"
     style="fill:#fdc92b;fill-opacity:1;stroke-width:0.999999"
     d="M 44.546875 6.0449219 L 7.0175781 43.505859 C 8.2417771 43.920679 9.7297361 44.174711 11.53125 44.322266 L 46.009766 10.027344 C 45.710914 8.3699114 45.247509 7.0665238 44.546875 6.0449219 z "
     transform="scale(0.26458333)" />
  <path
     id="rect2500"
     style="opacity:0.1;fill:#ffffff;fill-opacity:1;stroke-width:0.999999"
     d="M 17.068359 2.5 C 16.70225 2.5 16.349431 2.502865 16 2.5058594 L 16 44.494141 C 16.349431 44.497135 16.70225 44.5 17.068359 44.5 L 30.931641 44.5 C 31.29775 44.5 31.650569 44.497135 32 44.494141 L 32 2.5058594 C 31.650569 2.502865 31.29775 2.5 30.931641 2.5 L 17.068359 2.5 z "
     transform="scale(0.26458333)" />
  <path
     id="rect2676"
     style="opacity:0.1;fill:#ffffff;fill-opacity:1;stroke-width:0.999999"
     d="M 1.5 24 L 1.5 28.949219 C 1.5 42.558081 3.446738 44.5 17.068359 44.5 L 30.931641 44.5 C 44.553265 44.5 46.5 42.558081 46.5 28.949219 L 46.5 24 L 1.5 24 z "
     transform="scale(0.26458333)" />
  <path
     d="m 8.2030084,2.1166667 c -1.1695111,0 -2.1175917,0.9472877 -2.1175917,2.11582 0,0.2320211 0.039191,0.45466 0.1082521,0.6635485 0.00689,0.021243 0.012446,0.043013 0.020124,0.063952 0.053941,0.1783291 0.8445156,2.7701875 1.9913324,5.0942868 2.65e-4,0 0,-2.08e-4 0,-5.29e-4 v -0.0012 c 0,-4.77e-4 0,-9e-4 0.0027,-0.0012 v -6.1e-4 c 1.225278,-2.5383319 2.0041228,-5.1546113 2.0041228,-5.1546113 0.06898,-0.2087774 0.106848,-0.4316941 0.106848,-0.663575 0,-1.1685587 -0.9480808,-2.1158464 -2.1175918,-2.1158464 z"
     style="color:#000000;fill:#000000;stroke-width:0.0700336;fill-opacity:1;opacity:0.05"
     id="path2819" />
  <path
     d="m 8.2030081,2.38125 c -1.1695107,0 -2.1175914,0.9472877 -2.1175914,2.1158199 0,0.2320211 0.039191,0.45466 0.1082522,0.6635486 0.00689,0.021243 0.012445,0.043013 0.020125,0.063952 0.053941,0.1783292 0.8445156,2.7701875 1.9913325,5.0942875 2.648e-4,0 0,-2.08e-4 0,-5.29e-4 v -0.0012 c 0,-4.76e-4 0,-9e-4 0.00265,-0.0012 V 10.31532 C 9.4330531,7.7770063 10.211898,5.160727 10.211898,5.160727 c 0.06898,-0.2087775 0.106848,-0.4316942 0.106848,-0.663575 0,-1.1685588 -0.948081,-2.1158464 -2.1175916,-2.1158464 z"
     style="color:#000000;fill:#f22c42;stroke-width:0.264694"
     id="path14497"
     sodipodi:nodetypes="cscccsscccscc" />
  <circle
     style="opacity:1;fill:#bc1938;fill-opacity:1;stroke-width:0.264583"
     id="path3026"
     cx="8.2020836"
     cy="4.4979167"
     r="1.0583333" />
  <path
     id="rect1370"
     style="opacity:0.4;fill:#000000;fill-opacity:1;stroke-width:0.264583"
     d="m 4.4751788,0.52916667 c -3.68414336,0 -4.21059547,0.52624033 -4.21059547,4.21266273 v 2.9517578 c 0,3.6864088 0.52645211,4.2126628 4.21059547,4.2126628 H 8.224821 c 3.684144,0 4.210596,-0.526254 4.210596,-4.2126628 V 4.7418294 c 0,-3.6864224 -0.526452,-4.21266273 -4.210596,-4.21266273 z m 0.081649,0.2645833 h 3.5863445 c 3.5239637,0 4.0276607,0.50133143 4.0276607,4.01629243 v 2.8153318 c 0,3.5149478 -0.503697,4.0162928 -4.0276607,4.0162928 H 4.5568277 c -3.5239637,0 -4.02766104,-0.501345 -4.02766104,-4.0162928 V 4.8100424 c 0,-3.514961 0.50369724,-4.01629243 4.02766114,-4.01629243 z" />
  <path
     id="rect1565"
     style="opacity:0.7;fill:url(#linearGradient1873);fill-opacity:1;stroke-width:0.264583"
     d="m 4.5568277,0.79374997 c -3.5239635,0 -4.02766104,0.50133123 -4.02766104,4.01629243 v 2.8153318 c 0,3.5149478 0.50369754,4.0162928 4.02766104,4.0162928 h 3.5863445 c 3.5239638,0 4.0276608,-0.501345 4.0276608,-4.0162928 V 4.8100424 c 0,-3.5149612 -0.503697,-4.01629243 -4.0276608,-4.01629243 z m 0.081649,0.26458343 h 3.4230468 c 3.3637835,0 3.8447265,0.4769388 3.8447265,3.8204385 v 2.6778728 c 0,3.3434873 -0.480943,3.8204393 -3.8447265,3.8204393 h -3.423047 c -3.3637834,0 -3.84472651,-0.476952 -3.84472651,-3.8204393 V 4.8787719 c 0,-3.3434997 0.48094311,-3.8204385 3.84472671,-3.8204385 z" />
</svg>
