<?xml version="1.0" encoding="UTF-8" standalone="no"?>
<!-- Created with Inkscape (http://www.inkscape.org/) -->

<svg
   width="48"
   height="48"
   viewBox="0 0 12.7 12.7"
   version="1.1"
   id="svg5"
   inkscape:version="1.1.2 (0a00cf5339, 2022-02-04)"
   sodipodi:docname="preferences-system-windows-move.svg"
   xmlns:inkscape="http://www.inkscape.org/namespaces/inkscape"
   xmlns:sodipodi="http://sodipodi.sourceforge.net/DTD/sodipodi-0.dtd"
   xmlns:xlink="http://www.w3.org/1999/xlink"
   xmlns="http://www.w3.org/2000/svg"
   xmlns:svg="http://www.w3.org/2000/svg">
  <sodipodi:namedview
     id="namedview7"
     pagecolor="#ffffff"
     bordercolor="#666666"
     borderopacity="1.0"
     inkscape:pageshadow="2"
     inkscape:pageopacity="0.0"
     inkscape:pagecheckerboard="0"
     inkscape:document-units="px"
     showgrid="false"
     units="px"
     inkscape:zoom="16.979167"
     inkscape:cx="24"
     inkscape:cy="24"
     inkscape:window-width="1851"
     inkscape:window-height="1016"
     inkscape:window-x="0"
     inkscape:window-y="0"
     inkscape:window-maximized="1"
     inkscape:current-layer="svg5" />
  <defs
     id="defs2">
    <linearGradient
       inkscape:collect="always"
       xlink:href="#linearGradient1871"
       id="linearGradient1873"
       x1="17.222656"
       y1="3.5"
       x2="17.222656"
       y2="44.466438"
       gradientUnits="userSpaceOnUse"
       gradientTransform="matrix(0.26458333,0,0,0.26458333,3.3333334e-8,-0.13229166)" />
    <linearGradient
       inkscape:collect="always"
       id="linearGradient1871">
      <stop
         style="stop-color:#ffffff;stop-opacity:1;"
         offset="0"
         id="stop1867" />
      <stop
         style="stop-color:#ffffff;stop-opacity:0.1"
         offset="0.12"
         id="stop2515" />
      <stop
         style="stop-color:#ffffff;stop-opacity:0.102"
         offset="0.89999998"
         id="stop2581" />
      <stop
         style="stop-color:#ffffff;stop-opacity:0.502"
         offset="1"
         id="stop1869" />
    </linearGradient>
    <linearGradient
       inkscape:collect="always"
       xlink:href="#linearGradient3598"
       id="linearGradient3600"
       x1="8.7085123"
       y1="0.5291667"
       x2="8.7085123"
       y2="11.641666"
       gradientUnits="userSpaceOnUse" />
    <linearGradient
       inkscape:collect="always"
       id="linearGradient3598">
      <stop
         style="stop-color:#5884f4;stop-opacity:1"
         offset="0"
         id="stop3594" />
      <stop
         style="stop-color:#80a3fa;stop-opacity:1"
         offset="1"
         id="stop3596" />
    </linearGradient>
  </defs>
  <path
     id="rect3143"
     style="opacity:0.1;fill:#000000;fill-opacity:1;stroke-width:0.264583"
     d="m 4.5160033,1.0583334 c -3.60405387,0 -4.11912827,0.5137855 -4.11912827,4.1144775 v 2.883545 c 0,3.6006801 0.5150744,4.1144801 4.11912827,4.1144801 h 3.6679933 c 3.6040544,0 4.1191284,-0.5138 4.1191284,-4.1144801 v -2.883545 c 0,-3.600692 -0.515074,-4.1144775 -4.1191284,-4.1144775 z" />
  <path
     style="display:inline;fill:url(#linearGradient3600);fill-opacity:1;stroke:none;stroke-width:0.0992187;stroke-linecap:round;stroke-linejoin:round;stroke-miterlimit:4;stroke-dasharray:none;stroke-dashoffset:0;stroke-opacity:1;enable-background:new"
     d="m 8.1839962,0.66145833 c 3.6040548,0 4.1191298,0.51378547 4.1191298,4.11447757 v 2.883545 c 0,3.6006781 -0.515075,4.1144781 -4.1191298,4.1144781 H 4.5160033 c -3.604054,0 -4.1191283,-0.5138 -4.1191283,-4.1144781 v -2.883545 c 0,-3.6006921 0.5150743,-4.11447757 4.1191283,-4.11447757 z"
     id="rect877"
     inkscape:connector-curvature="0"
     sodipodi:nodetypes="sssssssss" />
  <path
     d="m 6.9551861,2.6459736 c 0.2798691,-0.00352 0.4677452,0.05933 0.5642623,0.1751753 0.1013439,0.1206711 0.1534679,0.3186112 0.1534679,0.5937249 v 3.2244774 c 0,0.2751402 -0.05212,0.4730486 -0.1534679,0.593725 C 7.4229234,7.3489267 7.2350817,7.4082515 6.9551861,7.4082515 H 2.5698269 C 2.2899312,7.4082515 2.101579,7.3489265 2.005035,7.2330762 1.9036915,7.1124024 1.8520832,6.9144914 1.8520832,6.6393512 V 3.4148738 c 0,-0.2751402 0.051608,-0.473075 0.1529518,-0.5937249 C 2.101553,2.7053037 2.2899312,2.6459736 2.5698269,2.6459736 Z"
     style="opacity:0.1;fill:#000000;stroke-width:0.0700035;enable-background:new"
     id="path1977"
     sodipodi:nodetypes="ccsscsscsscsc" />
  <path
     d="m 8.5426862,4.2334736 c 0.2798694,-0.00352 0.4677452,0.05933 0.564262,0.1751754 0.1013445,0.1206711 0.1534684,0.3186112 0.1534684,0.593725 v 3.2244773 c 0,0.2751402 -0.05212,0.4730486 -0.1534684,0.593725 -0.096525,0.1158505 -0.2843664,0.1751753 -0.564262,0.1751753 H 4.157327 c -0.2798957,0 -0.4682479,-0.059325 -0.5647919,-0.1751753 C 3.4911916,8.6999025 3.4395833,8.5019915 3.4395833,8.2268513 V 5.002374 c 0,-0.2751402 0.051608,-0.473075 0.1529518,-0.593725 C 3.6890531,4.2928038 3.8774313,4.2334736 4.157327,4.2334736 Z"
     style="opacity:0.1;fill:#000000;stroke-width:0.0185218;enable-background:new"
     id="path2133"
     sodipodi:nodetypes="ccsscsscsscsc" />
  <path
     d="m 10.130187,5.8209736 c 0.279869,-0.00352 0.467745,0.05933 0.564262,0.1751754 0.101345,0.1206711 0.153468,0.3186112 0.153468,0.593725 v 3.2244773 c 0,0.2751397 -0.05212,0.4730477 -0.153468,0.5937247 -0.09652,0.11585 -0.284366,0.175175 -0.564262,0.175175 H 5.7448278 c -0.2798958,0 -0.4682479,-0.05932 -0.564792,-0.175175 C 5.0786924,10.287402 5.0270841,10.089491 5.0270841,9.8143513 V 6.589874 c 0,-0.2751403 0.051608,-0.473075 0.1529517,-0.593725 0.096518,-0.1158452 0.2848962,-0.1751754 0.564792,-0.1751754 z"
     style="opacity:0.1;fill:#000000;stroke-width:0.00490056;enable-background:new"
     id="path2262" />
  <path
     d="m 10.130187,5.5563903 c 0.279869,-0.00352 0.467745,0.05933 0.564262,0.1751754 0.101345,0.1206711 0.153469,0.3186112 0.153469,0.593725 v 3.2244777 c 0,0.2751403 -0.05212,0.4730486 -0.153469,0.5937256 -0.09652,0.11585 -0.284367,0.175175 -0.564262,0.175175 h -4.38536 c -0.2798958,0 -0.468248,-0.05932 -0.564792,-0.175175 C 5.0786916,10.02282 5.0270833,9.8249087 5.0270833,9.5497684 V 6.3252907 c 0,-0.2751402 0.051608,-0.473075 0.1529517,-0.593725 C 5.276553,5.6157205 5.4649312,5.5563903 5.744827,5.5563903 Z"
     style="opacity:0.25;fill:#ffffff;stroke-width:0.0185218;enable-background:new"
     id="path1839" />
  <path
     d="m 8.5426862,3.9688903 c 0.2798691,-0.00352 0.4677452,0.05933 0.5642623,0.1751753 0.1013439,0.1206711 0.1534676,0.3186112 0.1534676,0.5937249 v 3.2244776 c 0,0.27514 -0.05212,0.473048 -0.1534676,0.593725 -0.096525,0.11585 -0.2843667,0.175175 -0.5642623,0.175175 H 4.157327 c -0.2798957,0 -0.4682479,-0.05932 -0.5647919,-0.175175 C 3.4911916,8.4353191 3.4395833,8.2374081 3.4395833,7.9622681 V 4.7377905 c 0,-0.2751402 0.051608,-0.473075 0.1529518,-0.5937249 C 3.6890531,4.0282204 3.8774313,3.9688903 4.157327,3.9688903 Z"
     style="opacity:0.5;fill:#ffffff;stroke-width:0.0700035;enable-background:new"
     id="path1665"
     sodipodi:nodetypes="ccsscsscsscsc" />
  <path
     d="m 6.9551861,2.3813903 c 0.2798691,-0.00352 0.4677454,0.05933 0.5642624,0.1751753 0.101344,0.1206712 0.153468,0.3186113 0.153468,0.593725 v 3.2244773 c 0,0.2751402 -0.05212,0.4730485 -0.153468,0.593725 C 7.4229235,7.0843434 7.2350817,7.1436682 6.9551861,7.1436682 H 2.569827 c -0.2798957,0 -0.4682479,-0.059325 -0.5647919,-0.1751753 C 1.9036916,6.8478191 1.8520833,6.6499081 1.8520833,6.3747679 V 3.1502906 c 0,-0.2751402 0.051608,-0.473075 0.1529518,-0.593725 C 2.1015531,2.4407204 2.2899313,2.3813903 2.569827,2.3813903 Z"
     style="fill:#ffffff;stroke-width:0.26458;enable-background:new"
     id="path924"
     sodipodi:nodetypes="ccsscsscsscsc" />
  <path
     id="rect1370"
     style="opacity:0.4;fill:#000000;fill-opacity:1;stroke-width:0.264583"
     d="m 4.4751788,0.52916667 c -3.68414337,0 -4.21059547,0.52624033 -4.21059547,4.21266273 v 2.9517578 c 0,3.6864098 0.5264521,4.2126638 4.21059547,4.2126638 H 8.224821 c 3.684144,0 4.210596,-0.526254 4.210596,-4.2126638 V 4.7418294 c 0,-3.6864224 -0.526452,-4.21266273 -4.210596,-4.21266273 z m 0.081649,0.2645833 h 3.5863445 c 3.5239637,0 4.0276607,0.50133143 4.0276607,4.01629243 v 2.8153318 c 0,3.5149488 -0.503697,4.0162938 -4.0276607,4.0162938 H 4.5568277 c -3.5239637,0 -4.02766097,-0.501345 -4.02766097,-4.0162938 V 4.8100424 c 0,-3.514961 0.50369717,-4.01629243 4.02766107,-4.01629243 z" />
  <path
     id="rect1565"
     style="opacity:1;fill:url(#linearGradient1873);fill-opacity:1;stroke-width:0.264583"
     d="m 4.5568277,0.79374997 c -3.5239635,0 -4.02766097,0.50133123 -4.02766097,4.01629243 v 2.8153318 c 0,3.5149488 0.50369747,4.0162938 4.02766097,4.0162938 h 3.5863445 c 3.5239638,0 4.0276608,-0.501345 4.0276608,-4.0162938 V 4.8100424 c 0,-3.5149612 -0.503697,-4.01629243 -4.0276608,-4.01629243 z m 0.081649,0.26458343 h 3.4230468 c 3.3637835,0 3.8447265,0.4769388 3.8447265,3.8204385 v 2.6778728 c 0,3.3434883 -0.480943,3.8204403 -3.8447265,3.8204403 h -3.423047 c -3.3637834,0 -3.84472647,-0.476952 -3.84472647,-3.8204403 V 4.8787719 c 0,-3.3434997 0.48094307,-3.8204385 3.84472667,-3.8204385 z" />
</svg>
