<?xml version="1.0" encoding="UTF-8" standalone="no"?>
<!-- Created with Inkscape (http://www.inkscape.org/) -->

<svg
   width="48"
   height="48"
   viewBox="0 0 12.7 12.7"
   version="1.1"
   id="svg5"
   inkscape:version="1.1.2 (0a00cf5339, 2022-02-04)"
   sodipodi:docname="preferences-desktop-feedback.svg"
   xmlns:inkscape="http://www.inkscape.org/namespaces/inkscape"
   xmlns:sodipodi="http://sodipodi.sourceforge.net/DTD/sodipodi-0.dtd"
   xmlns:xlink="http://www.w3.org/1999/xlink"
   xmlns="http://www.w3.org/2000/svg"
   xmlns:svg="http://www.w3.org/2000/svg">
  <sodipodi:namedview
     id="namedview7"
     pagecolor="#ffffff"
     bordercolor="#666666"
     borderopacity="1.0"
     inkscape:pageshadow="2"
     inkscape:pageopacity="0.0"
     inkscape:pagecheckerboard="0"
     inkscape:document-units="px"
     showgrid="false"
     units="px"
     inkscape:zoom="16.5"
     inkscape:cx="16.090909"
     inkscape:cy="23.666667"
     inkscape:window-width="1851"
     inkscape:window-height="1016"
     inkscape:window-x="0"
     inkscape:window-y="0"
     inkscape:window-maximized="1"
     inkscape:current-layer="svg5"
     showguides="false" />
  <defs
     id="defs2">
    <linearGradient
       inkscape:collect="always"
       xlink:href="#linearGradient1871"
       id="linearGradient1873"
       x1="17.222656"
       y1="3.5"
       x2="17.222656"
       y2="44.466438"
       gradientUnits="userSpaceOnUse"
       gradientTransform="matrix(0.26458333,0,0,0.26458333,0,-0.13229163)" />
    <linearGradient
       inkscape:collect="always"
       id="linearGradient1871">
      <stop
         style="stop-color:#ffffff;stop-opacity:1;"
         offset="0"
         id="stop1867" />
      <stop
         style="stop-color:#ffffff;stop-opacity:0.1"
         offset="0.12"
         id="stop2515" />
      <stop
         style="stop-color:#ffffff;stop-opacity:0.102"
         offset="0.89999998"
         id="stop2581" />
      <stop
         style="stop-color:#ffffff;stop-opacity:0.502"
         offset="1"
         id="stop1869" />
    </linearGradient>
    <linearGradient
       inkscape:collect="always"
       xlink:href="#linearGradient3598"
       id="linearGradient3600"
       x1="12.262125"
       y1="9.7353592"
       x2="0.36087561"
       y2="4.2708535"
       gradientUnits="userSpaceOnUse" />
    <linearGradient
       inkscape:collect="always"
       id="linearGradient3598">
      <stop
         style="stop-color:#28c8fd;stop-opacity:1"
         offset="0"
         id="stop3594" />
      <stop
         style="stop-color:#0829dc;stop-opacity:1"
         offset="1"
         id="stop3596" />
    </linearGradient>
  </defs>
  <path
     id="rect3143"
     style="opacity:0.1;fill:#000000;fill-opacity:1;stroke-width:0.264583"
     d="m 4.5160033,1.0583333 c -3.6040539,0 -4.1191283,0.5137856 -4.1191283,4.1144776 v 2.8835446 c 0,3.6006805 0.5150744,4.1144805 4.1191283,4.1144805 h 3.6679933 c 3.6040544,0 4.1191284,-0.5138 4.1191284,-4.1144805 V 5.1728109 c 0,-3.600692 -0.515074,-4.1144776 -4.1191284,-4.1144776 z" />
  <path
     style="display:inline;fill:url(#linearGradient3600);fill-opacity:1;stroke:none;stroke-width:0.0992187;stroke-linecap:round;stroke-linejoin:round;stroke-miterlimit:4;stroke-dasharray:none;stroke-dashoffset:0;stroke-opacity:1;enable-background:new"
     d="m 8.1839956,0.66145833 c 3.6040544,0 4.1191294,0.51378557 4.1191294,4.11447757 v 2.8835449 c 0,3.6006772 -0.515075,4.1144772 -4.1191294,4.1144772 H 4.5160029 c -3.6040537,0 -4.1191279,-0.5138 -4.1191279,-4.1144772 V 4.7759359 c 0,-3.600692 0.5150742,-4.11447757 4.1191279,-4.11447757 z"
     id="rect877"
     inkscape:connector-curvature="0"
     sodipodi:nodetypes="sssssssss" />
  <path
     d="m 2.6458705,5.5489443 v 2.2688286 c 0,0.3253052 0.061381,0.5593556 0.181229,0.7020455 0.1141412,0.1369694 0.3365764,0.2071846 0.6675966,0.2071846 h 0.78613 L 5.317543,9.4588933 6.3543657,8.727003 h 2.8508854 c 0.3310202,0 0.5534289,-0.070215 0.6675966,-0.2071846 C 9.992696,8.3771418 10.054077,8.1430781 10.054077,7.8177729 V 5.5489443 Z"
     enable-background="new"
     id="path38"
     style="fill:#ffffff;stroke-width:0.264583;fill-opacity:1;opacity:0.5"
     sodipodi:nodetypes="cscscccscscc" />
  <path
     d="M 3.4946485,3.7043224 C 3.1636547,3.7001949 2.941246,3.7782946 2.8271048,3.9152641 2.7072564,4.0579406 2.6458334,4.2920307 2.6458334,4.6173358 V 7.7037005 L 4.2807732,8.7270559 5.317543,9.4588933 6.3543127,8.7270559 10.054246,5.91771 V 4.6173624 c 0,-0.3253052 -0.061415,-0.5593821 -0.181266,-0.7020719 C 9.758844,3.778321 9.5364565,3.7043488 9.2054363,3.7043488 H 4.9977676 Z"
     enable-background="new"
     id="path40"
     style="fill:#ffffff;stroke-width:0.264583;fill-opacity:1"
     sodipodi:nodetypes="ccscccccscscc" />
  <path
     id="path42"
     d="M 3.9686681,5.2916138 V 5.5561971 H 8.731168 V 5.2916138 Z m 0,0.79375 V 6.349947 H 6.0853347 V 6.0853637 Z"
     style="fill:#4d4d4d;fill-opacity:1;stroke-width:0.264583" />
  <path
     id="rect1565"
     style="fill:url(#linearGradient1873);fill-opacity:1;stroke-width:0.264583;opacity:0.5"
     d="m 4.5568277,0.79375 c -3.5239635,0 -4.02766103,0.5013312 -4.02766103,4.0162924 v 2.8153318 c 0,3.5149478 0.50369753,4.0162928 4.02766103,4.0162928 h 3.5863445 c 3.5239638,0 4.0276608,-0.501345 4.0276608,-4.0162928 V 4.8100424 c 0,-3.5149612 -0.503697,-4.0162924 -4.0276608,-4.0162924 z m 0.081649,0.2645834 h 3.4230468 c 3.3637835,0 3.8447265,0.4769388 3.8447265,3.8204385 v 2.6778728 c 0,3.3434873 -0.480943,3.8204393 -3.8447265,3.8204393 H 4.6384765 C 1.2746931,11.377084 0.79375,10.900132 0.79375,7.5566447 V 4.8787719 c 0,-3.3434997 0.4809431,-3.8204385 3.8447267,-3.8204385 z" />
  <path
     id="rect1370"
     style="opacity:0.4;fill:#000000;fill-opacity:1;stroke-width:0.264583"
     d="m 4.4751788,0.52916667 c -3.68414314,0 -4.21059547,0.52624033 -4.21059547,4.21266263 v 2.9517578 c 0,3.6864079 0.52645233,4.2126629 4.21059547,4.2126629 H 8.224821 c 3.684144,0 4.210596,-0.526255 4.210596,-4.2126629 V 4.7418293 c 0,-3.6864223 -0.526452,-4.21266263 -4.210596,-4.21266263 z M 4.5568278,0.79375 h 3.5863445 c 3.5239637,0 4.0276607,0.5013312 4.0276607,4.0162924 v 2.8153317 c 0,3.5149469 -0.503697,4.0162919 -4.0276607,4.0162919 H 4.5568277 c -3.5239638,0 -4.02766104,-0.501345 -4.02766104,-4.0162919 V 4.8100424 c 0,-3.5149612 0.50369724,-4.0162924 4.02766114,-4.0162924 z" />
  <path
     id="path38-3"
     style="opacity:0.1;fill:#000000;fill-opacity:1;stroke-width:0.999999"
     d="M 10 29.546875 L 10 30.115234 L 10 30.546875 C 10 31.776375 10.232577 32.661872 10.685547 33.201172 C 11.116946 33.718854 11.955931 33.984376 13.207031 33.984375 L 16.179688 33.984375 L 20.097656 36.75 L 24.015625 33.984375 L 34.791016 33.984375 C 36.042114 33.984375 36.882952 33.718875 37.314453 33.201172 C 37.767422 32.661925 38 31.776375 38 30.546875 L 38 29.546875 C 38 30.776375 37.767422 31.661925 37.314453 32.201172 C 36.882952 32.718875 36.042114 32.984375 34.791016 32.984375 L 24.015625 32.984375 L 20.097656 35.75 L 16.179688 32.984375 L 13.207031 32.984375 C 11.955931 32.984376 11.116946 32.718854 10.685547 32.201172 C 10.232577 31.661872 10 30.776375 10 29.546875 z "
     transform="scale(0.26458333)" />
</svg>
