<?xml version="1.0" encoding="UTF-8" standalone="no"?>
<!-- Created with Inkscape (http://www.inkscape.org/) -->

<svg
   width="48"
   height="48"
   viewBox="0 0 12.7 12.7"
   version="1.1"
   id="svg5"
   inkscape:version="1.1.2 (0a00cf5339, 2022-02-04)"
   sodipodi:docname="preferences-desktop-theme-applications.svg"
   xmlns:inkscape="http://www.inkscape.org/namespaces/inkscape"
   xmlns:sodipodi="http://sodipodi.sourceforge.net/DTD/sodipodi-0.dtd"
   xmlns:xlink="http://www.w3.org/1999/xlink"
   xmlns="http://www.w3.org/2000/svg"
   xmlns:svg="http://www.w3.org/2000/svg">
  <sodipodi:namedview
     id="namedview7"
     pagecolor="#ffffff"
     bordercolor="#666666"
     borderopacity="1.0"
     inkscape:pageshadow="2"
     inkscape:pageopacity="0.0"
     inkscape:pagecheckerboard="0"
     inkscape:document-units="px"
     showgrid="false"
     units="px"
     inkscape:zoom="12.727919"
     inkscape:cx="33.312594"
     inkscape:cy="27.77359"
     inkscape:window-width="1920"
     inkscape:window-height="1016"
     inkscape:window-x="0"
     inkscape:window-y="0"
     inkscape:window-maximized="1"
     inkscape:current-layer="svg5"
     showguides="true" />
  <defs
     id="defs2">
    <linearGradient
       inkscape:collect="always"
       xlink:href="#linearGradient1871"
       id="linearGradient1873"
       x1="17.222656"
       y1="3.5"
       x2="17.222656"
       y2="44.466438"
       gradientUnits="userSpaceOnUse"
       gradientTransform="matrix(0.26458333,0,0,0.26458333,0,-0.13229163)" />
    <linearGradient
       inkscape:collect="always"
       id="linearGradient1871">
      <stop
         style="stop-color:#ffffff;stop-opacity:1;"
         offset="0"
         id="stop1867" />
      <stop
         style="stop-color:#ffffff;stop-opacity:0.1"
         offset="0.12"
         id="stop2515" />
      <stop
         style="stop-color:#ffffff;stop-opacity:0.102"
         offset="0.89999998"
         id="stop2581" />
      <stop
         style="stop-color:#ffffff;stop-opacity:0.502"
         offset="1"
         id="stop1869" />
    </linearGradient>
    <linearGradient
       inkscape:collect="always"
       xlink:href="#linearGradient3598"
       id="linearGradient3600"
       x1="12.262125"
       y1="9.7353592"
       x2="0.36087561"
       y2="4.2708535"
       gradientUnits="userSpaceOnUse" />
    <linearGradient
       inkscape:collect="always"
       id="linearGradient3598">
      <stop
         style="stop-color:#28c8fd;stop-opacity:1"
         offset="0"
         id="stop3594" />
      <stop
         style="stop-color:#0829dc;stop-opacity:1"
         offset="1"
         id="stop3596" />
    </linearGradient>
  </defs>
  <path
     id="rect3143"
     style="opacity:0.1;fill:#000000;fill-opacity:1;stroke-width:0.264583"
     d="m 4.5160033,1.0583333 c -3.6040539,0 -4.1191283,0.5137856 -4.1191283,4.1144776 v 2.8835446 c 0,3.6006805 0.5150744,4.1144805 4.1191283,4.1144805 h 3.6679933 c 3.6040544,0 4.1191284,-0.5138 4.1191284,-4.1144805 V 5.1728109 c 0,-3.600692 -0.515074,-4.1144776 -4.1191284,-4.1144776 z" />
  <path
     style="display:inline;fill:url(#linearGradient3600);fill-opacity:1;stroke:none;stroke-width:0.0992187;stroke-linecap:round;stroke-linejoin:round;stroke-miterlimit:4;stroke-dasharray:none;stroke-dashoffset:0;stroke-opacity:1;enable-background:new"
     d="m 8.1839942,0.66145833 c 3.6040538,0 4.1191288,0.51378557 4.1191288,4.11447757 v 2.883545 c 0,3.6006771 -0.515075,4.1144771 -4.1191288,4.1144771 H 4.5160027 c -3.60405367,0 -4.11912784,-0.5138 -4.11912784,-4.1144771 v -2.883545 c 0,-3.600692 0.51507417,-4.11447757 4.11912784,-4.11447757 z"
     id="rect877"
     inkscape:connector-curvature="0"
     sodipodi:nodetypes="sssssssss" />
  <path
     id="rect1645"
     style="opacity:0.6;fill:#ffffff;stroke-width:0.287073"
     d="m 2.1166668,5.0270833 v 0.2645834 c 0,0.4397375 0.3540126,0.7937499 0.7937499,0.7937499 h 6.8791666 c 0.4397377,0 0.7937497,-0.3540124 0.7937497,-0.7937499 V 5.0270833 c 0,0.4397375 -0.354012,0.79375 -0.7937497,0.79375 H 2.9104167 c -0.4397373,0 -0.7937499,-0.3540125 -0.7937499,-0.79375 z" />
  <path
     id="rect1170"
     style="opacity:0.3;fill:#000000;fill-opacity:1;stroke-width:0.287073"
     d="m 2.9104166,2.1166667 h 6.8791663 c 0.4397371,0 0.7937501,0.3540125 0.7937501,0.7937499 v 2.1166667 c 0,0.4397375 -0.354013,0.79375 -0.7937501,0.79375 H 2.9104166 c -0.4397374,0 -0.7937499,-0.3540125 -0.7937499,-0.79375 V 2.9104166 c 0,-0.4397374 0.3540125,-0.7937499 0.7937499,-0.7937499 z" />
  <path
     id="rect1502"
     style="opacity:0.2;fill:#000000;fill-opacity:1;stroke-width:0.287073"
     d="m 2.9104167,2.1166667 c -0.4397375,0 -0.7937499,0.3540125 -0.7937499,0.79375 V 3.175 c 0,-0.4397375 0.3540124,-0.79375 0.7937499,-0.79375 h 6.8791666 c 0.4397377,0 0.7937497,0.3540125 0.7937497,0.79375 V 2.9104167 c 0,-0.4397375 -0.354012,-0.79375 -0.7937497,-0.79375 z" />
  <path
     id="rect2665"
     style="opacity:0.1;stroke-width:0.287073"
     d="m 7.1437502,2.6458334 h 2.6458334 c 0.2931584,0 0.5291664,0.2360083 0.5291664,0.5291666 v 2.1166667 c 0,0.2931583 -0.236008,0.5291666 -0.5291664,0.5291666 H 7.1437502 c -0.2931583,0 -0.5291666,-0.2360083 -0.5291666,-0.5291666 V 3.175 c 0,-0.2931583 0.2360083,-0.5291666 0.5291666,-0.5291666 z" />
  <path
     id="rect2937"
     style="fill:#ffffff;stroke-width:0.287073"
     d="m 7.1437498,2.38125 h 2.6458336 c 0.2931586,0 0.5291666,0.2360083 0.5291666,0.5291666 v 2.1166665 c 0,0.2931583 -0.236008,0.5291666 -0.5291666,0.5291666 H 7.1437498 c -0.2931584,0 -0.5291667,-0.2360083 -0.5291667,-0.5291666 V 2.9104166 c 0,-0.2931583 0.2360083,-0.5291666 0.5291667,-0.5291666 z" />
  <path
     id="rect3077"
     style="opacity:0.1;fill:#000000;fill-opacity:1;stroke-width:0.287073"
     d="m 2.9104167,6.8791666 c -0.4397375,0 -0.7937499,0.3540125 -0.7937499,0.79375 v 2.1166667 c 0,0.4397377 0.3540124,0.7937497 0.7937499,0.7937497 h 6.8791666 c 0.4397377,0 0.7937497,-0.354012 0.7937497,-0.7937497 V 7.6729166 c 0,-0.4397375 -0.354012,-0.79375 -0.7937497,-0.79375 z m 0,0.2645834 h 6.8791666 c 0.2931587,0 0.5291667,0.2360083 0.5291667,0.5291666 v 2.1166667 c 0,0.2931587 -0.236008,0.5291667 -0.5291667,0.5291667 H 2.9104167 c -0.2931583,0 -0.5291666,-0.236008 -0.5291666,-0.5291667 V 7.6729166 c 0,-0.2931583 0.2360083,-0.5291666 0.5291666,-0.5291666 z" />
  <path
     id="rect3344"
     style="opacity:0.2;stroke-width:0.202991"
     d="m 2.9104166,6.8791667 h 2.6458332 c 0.4397375,0 0.79375,0.3540125 0.79375,0.79375 v 2.1166664 c 0,0.4397379 -0.3540125,0.7937499 -0.79375,0.7937499 H 2.9104166 c -0.4397374,0 -0.7937499,-0.354012 -0.7937499,-0.7937499 V 7.6729167 c 0,-0.4397375 0.3540125,-0.79375 0.7937499,-0.79375 z" />
  <path
     id="rect3492"
     style="fill:#ffffff;stroke-width:0.287073"
     d="M 2.9104166,7.1437503 H 5.55625 c 0.2931583,0 0.5291667,0.2360083 0.5291667,0.5291666 v 2.1166667 c 0,0.2931584 -0.2360084,0.5291664 -0.5291667,0.5291664 H 2.9104166 C 2.6172583,10.31875 2.38125,10.082742 2.38125,9.7895836 V 7.6729169 c 0,-0.2931583 0.2360083,-0.5291666 0.5291666,-0.5291666 z" />
  <path
     id="rect1565"
     style="fill:url(#linearGradient1873);fill-opacity:1;stroke-width:0.264583;opacity:0.5"
     d="m 4.5568277,0.79375 c -3.5239635,0 -4.02766103,0.5013312 -4.02766103,4.0162924 v 2.8153318 c 0,3.5149478 0.50369753,4.0162928 4.02766103,4.0162928 h 3.5863445 c 3.5239638,0 4.0276608,-0.501345 4.0276608,-4.0162928 V 4.8100424 c 0,-3.5149612 -0.503697,-4.0162924 -4.0276608,-4.0162924 z m 0.081649,0.2645834 h 3.4230468 c 3.3637835,0 3.8447265,0.4769388 3.8447265,3.8204385 v 2.6778728 c 0,3.3434873 -0.480943,3.8204393 -3.8447265,3.8204393 H 4.6384765 C 1.2746931,11.377084 0.79375,10.900132 0.79375,7.5566447 V 4.8787719 c 0,-3.3434997 0.4809431,-3.8204385 3.8447267,-3.8204385 z" />
  <path
     id="rect1370"
     style="opacity:0.4;fill:#000000;fill-opacity:1;stroke-width:0.264583"
     d="m 4.4751788,0.52916667 c -3.68414314,0 -4.21059547,0.52624033 -4.21059547,4.21266263 v 2.9517578 c 0,3.6864079 0.52645233,4.2126629 4.21059547,4.2126629 H 8.224821 c 3.684144,0 4.210596,-0.526255 4.210596,-4.2126629 V 4.7418293 c 0,-3.6864223 -0.526452,-4.21266263 -4.210596,-4.21266263 z M 4.5568278,0.79375 h 3.5863445 c 3.5239637,0 4.0276607,0.5013312 4.0276607,4.0162924 v 2.8153317 c 0,3.5149469 -0.503697,4.0162919 -4.0276607,4.0162919 H 4.5568277 c -3.5239638,0 -4.02766104,-0.501345 -4.02766104,-4.0162919 V 4.8100424 c 0,-3.5149612 0.50369724,-4.0162924 4.02766114,-4.0162924 z" />
</svg>
