<?xml version="1.0" encoding="UTF-8" standalone="no"?>
<!-- Created with Inkscape (http://www.inkscape.org/) -->

<svg
   width="48"
   height="48"
   viewBox="0 0 12.7 12.7"
   version="1.1"
   id="svg5"
   inkscape:version="1.1.2 (0a00cf5339, 2022-02-04)"
   sodipodi:docname="quadrapassel.svg"
   xmlns:inkscape="http://www.inkscape.org/namespaces/inkscape"
   xmlns:sodipodi="http://sodipodi.sourceforge.net/DTD/sodipodi-0.dtd"
   xmlns:xlink="http://www.w3.org/1999/xlink"
   xmlns="http://www.w3.org/2000/svg"
   xmlns:svg="http://www.w3.org/2000/svg">
  <sodipodi:namedview
     id="namedview7"
     pagecolor="#ffffff"
     bordercolor="#666666"
     borderopacity="1.0"
     inkscape:pageshadow="2"
     inkscape:pageopacity="0.0"
     inkscape:pagecheckerboard="0"
     inkscape:document-units="px"
     showgrid="false"
     units="px"
     inkscape:zoom="5.8336309"
     inkscape:cx="-18.256211"
     inkscape:cy="1.971328"
     inkscape:window-width="1851"
     inkscape:window-height="1049"
     inkscape:window-x="0"
     inkscape:window-y="0"
     inkscape:window-maximized="1"
     inkscape:current-layer="svg5"
     inkscape:lockguides="false" />
  <defs
     id="defs2">
    <linearGradient
       inkscape:collect="always"
       id="linearGradient3598">
      <stop
         style="stop-color:#2b898f;stop-opacity:1"
         offset="0"
         id="stop3594" />
      <stop
         style="stop-color:#5bdbc1;stop-opacity:1"
         offset="1"
         id="stop3596" />
    </linearGradient>
    <linearGradient
       inkscape:collect="always"
       id="linearGradient1871">
      <stop
         style="stop-color:#ffffff;stop-opacity:1;"
         offset="0"
         id="stop1867" />
      <stop
         style="stop-color:#ffffff;stop-opacity:0.1"
         offset="0.12"
         id="stop2515" />
      <stop
         style="stop-color:#ffffff;stop-opacity:0.102"
         offset="0.89999998"
         id="stop2581" />
      <stop
         style="stop-color:#ffffff;stop-opacity:0.502"
         offset="1"
         id="stop1869" />
    </linearGradient>
    <linearGradient
       inkscape:collect="always"
       xlink:href="#linearGradient1871"
       id="linearGradient1873"
       x1="17.222656"
       y1="3.5"
       x2="17.222656"
       y2="44.466438"
       gradientUnits="userSpaceOnUse"
       gradientTransform="matrix(0.26458333,0,0,0.26458333,0,-0.13229166)" />
    <linearGradient
       inkscape:collect="always"
       xlink:href="#linearGradient3598"
       id="linearGradient3600"
       x1="0"
       y1="0"
       x2="0"
       y2="12.7"
       gradientUnits="userSpaceOnUse" />
    <linearGradient
       inkscape:collect="always"
       id="linearGradient1694">
      <stop
         style="stop-color:#fdc92b;stop-opacity:1;"
         offset="0"
         id="stop1690" />
      <stop
         style="stop-color:#ffda64;stop-opacity:1"
         offset="1"
         id="stop1692" />
    </linearGradient>
    <linearGradient
       inkscape:collect="always"
       xlink:href="#linearGradient1694"
       id="linearGradient2649"
       gradientUnits="userSpaceOnUse"
       x1="3.96875"
       y1="8.9958324"
       x2="9.7895832"
       y2="8.9958324"
       gradientTransform="matrix(3.7795276,0,0,3.7795276,-1.3649345e-6,-11.000363)" />
    <linearGradient
       inkscape:collect="always"
       xlink:href="#linearGradient1694"
       id="linearGradient3629"
       x1="6.6145835"
       y1="8.7312498"
       x2="12.435413"
       y2="8.7312498"
       gradientUnits="userSpaceOnUse"
       gradientTransform="scale(3.7795276)" />
  </defs>
  <path
     id="rect3143"
     style="opacity:0.1;fill:#000000;fill-opacity:1;stroke-width:0.264583"
     d="m 4.5160033,1.0583334 c -3.60405388,0 -4.1191283,0.5137855 -4.1191283,4.1144775 v 2.883545 c 0,3.6006791 0.51507442,4.1144791 4.1191283,4.1144791 h 3.6679933 c 3.6040544,0 4.1191284,-0.5138 4.1191284,-4.1144791 v -2.883545 c 0,-3.600692 -0.515074,-4.1144775 -4.1191284,-4.1144775 z" />
  <path
     style="display:inline;fill:url(#linearGradient3600);fill-opacity:1;stroke:none;stroke-width:0.0992187;stroke-linecap:round;stroke-linejoin:round;stroke-miterlimit:4;stroke-dasharray:none;stroke-dashoffset:0;stroke-opacity:1;enable-background:new"
     d="m 8.1839962,0.66145835 c 3.6040548,0 4.1191298,0.51378545 4.1191298,4.11447755 v 2.883545 c 0,3.6006781 -0.515075,4.1144781 -4.1191298,4.1144781 H 4.5160033 c -3.604054,0 -4.1191283,-0.5138 -4.1191283,-4.1144781 v -2.883545 c 0,-3.6006921 0.5150743,-4.11447755 4.1191283,-4.11447755 z"
     id="rect877"
     inkscape:connector-curvature="0"
     sodipodi:nodetypes="sssssssss" />
  <path
     id="rect1565"
     style="opacity:1;fill:url(#linearGradient1873);fill-opacity:1;stroke-width:0.264583"
     d="m 4.5568277,0.79374997 c -3.5239635,0 -4.02766104,0.50133123 -4.02766104,4.01629243 v 2.8153318 c 0,3.5149478 0.50369754,4.0162928 4.02766104,4.0162928 h 3.5863445 c 3.5239638,0 4.0276608,-0.501345 4.0276608,-4.0162928 V 4.8100424 c 0,-3.5149612 -0.503697,-4.01629243 -4.0276608,-4.01629243 z m 0.081649,0.26458343 h 3.4230468 c 3.3637835,0 3.8447265,0.4769388 3.8447265,3.8204385 v 2.6778728 c 0,3.3434873 -0.480943,3.8204393 -3.8447265,3.8204393 h -3.423047 c -3.3637834,0 -3.84472651,-0.476952 -3.84472651,-3.8204393 V 4.8787719 c 0,-3.3434997 0.48094311,-3.8204385 3.84472671,-3.8204385 z" />
  <path
     id="rect1370"
     style="opacity:0.4;fill:#000000;fill-opacity:1;stroke-width:0.264583"
     d="m 4.4751788,0.52916667 c -3.68414336,0 -4.21059547,0.52624033 -4.21059547,4.21266273 v 2.9517578 c 0,3.6864088 0.52645211,4.2126628 4.21059547,4.2126628 H 8.224821 c 3.684144,0 4.210596,-0.526254 4.210596,-4.2126628 V 4.7418294 c 0,-3.6864224 -0.526452,-4.21266273 -4.210596,-4.21266273 z m 0.081649,0.2645833 h 3.5863445 c 3.5239637,0 4.0276607,0.50133143 4.0276607,4.01629243 v 2.8153318 c 0,3.5149478 -0.503697,4.0162928 -4.0276607,4.0162928 H 4.5568277 c -3.5239637,0 -4.02766104,-0.501345 -4.02766104,-4.0162928 V 4.8100424 c 0,-3.514961 0.50369724,-4.01629243 4.02766114,-4.01629243 z" />
  <path
     id="rect1005"
     style="opacity:0.4;fill:#000000;stroke-width:0.999999"
     d="M 26 7 C 25.446 7 25 7.446 25 8 L 25 16 C 25 16.554 25.446 17 26 17 L 34 17 C 34.554 17 35 16.554 35 16 L 35 8 C 35 7.446 34.554 7 34 7 L 26 7 z M 15 18 C 14.446 18 14 18.446 14 19 L 14 27 C 14 27.554 14.446 28 15 28 L 23 28 C 23.554 28 24 27.554 24 27 L 24 19 C 24 18.446 23.554 18 23 18 L 15 18 z M 25.949219 18 C 25.41939 18.026684 25 18.463313 25 19 L 25 27 C 25 27.554 25.446 28 26 28 L 34 28 C 34.554 28 35 27.554 35 27 L 35 19 C 35 18.446 34.554 18 34 18 L 26 18 C 25.982688 18 25.96631 17.999139 25.949219 18 z M 15 29 C 14.446 29 14 29.446 14 30 L 14 38 C 14 38.554 14.446 39 15 39 L 23 39 C 23.554 39 24 38.554 24 38 L 24 30 C 24 29.446 23.554 29 23 29 L 15 29 z "
     transform="scale(0.26458333)" />
  <path
     id="rect1388-2"
     style="fill:url(#linearGradient2649);fill-opacity:1;stroke-width:0.999999"
     d="M 26 6 C 25.446 6 25 6.446 25 7 L 25 15 C 25 15.554 25.446 16 26 16 L 34 16 C 34.554 16 35 15.554 35 15 L 35 7 C 35 6.446 34.554 6 34 6 L 26 6 z M 14.949219 17 C 14.41939 17.026684 14 17.463313 14 18 L 14 26 C 14 26.554 14.446 27 15 27 L 23 27 C 23.554 27 24 26.554 24 26 L 24 18 C 24 17.446 23.554 17 23 17 L 15 17 C 14.982688 17 14.96631 16.999139 14.949219 17 z M 25.949219 17 C 25.41939 17.026684 25 17.463313 25 18 L 25 26 C 25 26.554 25.446 27 26 27 L 34 27 C 34.554 27 35 26.554 35 26 L 35 18 C 35 17.446 34.554 17 34 17 L 26 17 C 25.982688 17 25.96631 16.999139 25.949219 17 z M 15 28 C 14.446 28 14 28.446 14 29 L 14 37 C 14 37.554 14.446 38 15 38 L 23 38 C 23.554 38 24 37.554 24 37 L 24 29 C 24 28.446 23.554 28 23 28 L 15 28 z "
     transform="scale(0.26458333)" />
  <path
     id="rect1111"
     style="opacity:0.7;fill:#ffffff;stroke-width:0.999999"
     d="M 25.949219 6 C 25.41939 6.0266842 25 6.4633124 25 7 L 25 8 C 25 7.4633124 25.41939 7.0266842 25.949219 7 C 25.966324 6.9991394 25.98269 7 26 7 L 34 7 C 34.553999 7 35 7.4459999 35 8 L 35 7 C 35 6.4459999 34.553999 6 34 6 L 26 6 C 25.98269 6 25.966324 5.9991394 25.949219 6 z M 15 17 C 14.446 17 14 17.446 14 18 L 14 19 C 14 18.446 14.446 18 15 18 L 23 18 C 23.554 18 24 18.446 24 19 L 24 18 C 24 17.446 23.554 17 23 17 L 15 17 z M 26 17 C 25.446 17 25 17.446 25 18 L 25 19 C 25 18.446 25.446 18 26 18 L 34 18 C 34.553999 18 35 18.446 35 19 L 35 18 C 35 17.446 34.553999 17 34 17 L 26 17 z M 15 28 C 14.446 28 14 28.446 14 29 L 14 30 C 14 29.446001 14.446 29 15 29 L 23 29 C 23.554 29 24 29.446001 24 30 L 24 29 C 24 28.446 23.554 28 23 28 L 15 28 z "
     transform="scale(0.26458333)" />
  <g
     id="g4495"
     style="opacity:0.3">
    <path
       id="rect3092"
       style="opacity:0.4;fill:#000000;stroke-width:0.999999"
       d="m 37,18 c -0.554,0 -1,0.446 -1,1 v 8 c 0,0.554 0.446,1 1,1 h 8 c 0.554,0 1,-0.446 1,-1 v -8 c 0,-0.554 -0.446,-1 -1,-1 z M 4,29 c -0.554,0 -1,0.446 -1,1 v 8 c 0,0.554 0.446,1 1,1 h 8 c 0.554,0 1,-0.446 1,-1 v -8 c 0,-0.554 -0.446,-1 -1,-1 z m 22,0 c -0.554,0 -1,0.446 -1,1 v 8 c 0,0.554 0.446,1 1,1 h 8 c 0.554,0 1,-0.446 1,-1 v -8 c 0,-0.554 -0.446,-1 -1,-1 z m 11,0 c -0.554,0 -1,0.446 -1,1 v 8 c 0,0.554 0.446,1 1,1 h 8 c 0.205236,0 0.396281,-0.06078 0.554688,-0.166016 C 45.73262,38.283311 45.87938,37.682088 46,37.023438 V 30 c 0,-0.554 -0.446,-1 -1,-1 z"
       transform="scale(0.26458333)" />
    <path
       id="rect3268"
       style="opacity:1;fill:url(#linearGradient3629);fill-opacity:1;stroke-width:0.999999"
       d="m 37,17 c -0.554,0 -1,0.446 -1,1 v 8 c 0,0.554 0.446,1 1,1 h 8 c 0.554,0 1,-0.446 1,-1 v -8 c 0,-0.554 -0.446,-1 -1,-1 z M 4,28 c -0.554,0 -1,0.446 -1,1 v 8 c 0,0.554 0.446,1 1,1 h 8 c 0.554,0 1,-0.446 1,-1 v -8 c 0,-0.554 -0.446,-1 -1,-1 z m 22,0 c -0.554,0 -1,0.446 -1,1 v 8 c 0,0.554 0.446,1 1,1 h 8 c 0.554,0 1,-0.446 1,-1 v -8 c 0,-0.554 -0.446,-1 -1,-1 z m 11,0 c -0.554,0 -1,0.446 -1,1 v 8 c 0,0.554 0.446,1 1,1 h 8 c 0.439018,0 0.806235,-0.281874 0.941406,-0.673828 0.01832,-0.09109 0.0355,-0.18204 0.05273,-0.275391 C 45.995021,37.033496 46,37.017511 46,37 v -8 c 0,-0.554 -0.446,-1 -1,-1 z M 4,39 c -0.554,0 -1,0.446 -1,1 v 0.191406 c 1.5100223,2.94356 4.4511909,3.954816 10,4.22461 V 40 c 0,-0.554 -0.446,-1 -1,-1 z m 11,0 c -0.554,0 -1,0.446 -1,1 v 4.455078 C 14.952653,44.48551 15.968633,44.5 17.068359,44.5 H 24 V 40 c 0,-0.554 -0.446,-1 -1,-1 z m 11,0 c -0.554,0 -1,0.446 -1,1 v 4.5 h 5.931641 C 32.426646,44.5 33.773395,44.47566 35,44.41602 V 40 c 0,-0.554 -0.446,-1 -1,-1 z m 11,0 c -0.554,0 -1,0.446 -1,1 v 4.355469 c 5.497901,-0.384911 8.19428,-1.670224 9.458984,-5.240235 C 45.321236,39.043928 45.16639,39 45,39 Z"
       transform="scale(0.26458333)" />
    <path
       id="rect4212"
       style="opacity:0.7;fill:#ffffff;stroke-width:0.999999"
       d="m 37,17 c -0.554,0 -1,0.446 -1,1 v 1 c 0,-0.554 0.446001,-1 1,-1 h 8 c 0.553999,0 1,0.446 1,1 v -1 c 0,-0.554 -0.446,-1 -1,-1 z M 4,28 c -0.554,0 -1,0.446 -1,1 v 1 c 0,-0.553999 0.4460002,-1 1,-1 h 8 c 0.554,0 1,0.446001 1,1 v -1 c 0,-0.554 -0.446,-1 -1,-1 z m 22,0 c -0.554,0 -1,0.446 -1,1 v 1 c 0,-0.553999 0.446001,-1 1,-1 h 8 c 0.553999,0 1,0.446001 1,1 v -1 c 0,-0.554 -0.446,-1 -1,-1 z m 11,0 c -0.554,0 -1,0.446 -1,1 v 1 c 0,-0.553999 0.446001,-1 1,-1 h 8 c 0.553999,0 1,0.446001 1,1 v -1 c 0,-0.554 -0.446,-1 -1,-1 z M 4,39 c -0.554,0 -1,0.446 -1,1 v 0.191406 c 0.049296,0.09609 0.099971,0.189232 0.1523438,0.28125 C 3.3284665,40.18911 3.6402797,40 4,40 h 8 c 0.554,0 1,0.446001 1,1 v -1 c 0,-0.554 -0.446,-1 -1,-1 z m 11,0 c -0.554,0 -1,0.446 -1,1 v 1 c 0,-0.553999 0.446,-1 1,-1 h 8 c 0.553999,0 1,0.446001 1,1 v -1 c 0,-0.554 -0.446,-1 -1,-1 z m 11,0 c -0.554,0 -1,0.446 -1,1 v 1 c 0,-0.553999 0.446001,-1 1,-1 h 8 c 0.553999,0 1,0.446001 1,1 v -1 c 0,-0.554 -0.446,-1 -1,-1 z m 11,0 c -0.554,0 -1,0.446 -1,1 v 1 c 0,-0.553999 0.446001,-1 1,-1 h 8 c 0.0309,0 0.05968,0.0051 0.08984,0.0078 0.134674,-0.2803 0.257588,-0.577688 0.36914,-0.892578 C 45.321236,39.043928 45.16639,39 45,39 Z"
       transform="scale(0.26458333)" />
  </g>
</svg>
