<?xml version="1.0" encoding="UTF-8" standalone="no"?>
<!-- Created with Inkscape (http://www.inkscape.org/) -->

<svg
   width="48"
   height="48"
   viewBox="0 0 12.7 12.7"
   version="1.1"
   id="svg5"
   inkscape:version="1.1.2 (0a00cf5339, 2022-02-04)"
   sodipodi:docname="system-help.svg"
   xmlns:inkscape="http://www.inkscape.org/namespaces/inkscape"
   xmlns:sodipodi="http://sodipodi.sourceforge.net/DTD/sodipodi-0.dtd"
   xmlns:xlink="http://www.w3.org/1999/xlink"
   xmlns="http://www.w3.org/2000/svg"
   xmlns:svg="http://www.w3.org/2000/svg">
  <sodipodi:namedview
     id="namedview7"
     pagecolor="#ffffff"
     bordercolor="#666666"
     borderopacity="1.0"
     inkscape:pageshadow="2"
     inkscape:pageopacity="0.0"
     inkscape:pagecheckerboard="0"
     inkscape:document-units="px"
     showgrid="false"
     units="px"
     inkscape:zoom="11.667262"
     inkscape:cx="47.783276"
     inkscape:cy="24.427325"
     inkscape:window-width="1920"
     inkscape:window-height="1010"
     inkscape:window-x="0"
     inkscape:window-y="0"
     inkscape:window-maximized="1"
     inkscape:current-layer="svg5"
     showguides="false" />
  <defs
     id="defs2">
    <linearGradient
       inkscape:collect="always"
       id="linearGradient3598">
      <stop
         style="stop-color:#1a7fe4;stop-opacity:1"
         offset="0"
         id="stop3594" />
      <stop
         style="stop-color:#37a6e6;stop-opacity:1"
         offset="1"
         id="stop3596" />
    </linearGradient>
    <linearGradient
       inkscape:collect="always"
       xlink:href="#linearGradient3598"
       id="linearGradient3600"
       x1="4.4751787"
       y1="0.5291667"
       x2="8.327776"
       y2="12.090763"
       gradientUnits="userSpaceOnUse" />
    <linearGradient
       inkscape:collect="always"
       xlink:href="#linearGradient1871"
       id="linearGradient1873"
       x1="17.222656"
       y1="3.5"
       x2="17.222656"
       y2="44.466438"
       gradientUnits="userSpaceOnUse"
       gradientTransform="matrix(0.26458333,0,0,0.26458333,0,-0.13229163)" />
    <linearGradient
       inkscape:collect="always"
       id="linearGradient1871">
      <stop
         style="stop-color:#ffffff;stop-opacity:1;"
         offset="0"
         id="stop1867" />
      <stop
         style="stop-color:#ffffff;stop-opacity:0.1"
         offset="0.12"
         id="stop2515" />
      <stop
         style="stop-color:#ffffff;stop-opacity:0.102"
         offset="0.89999998"
         id="stop2581" />
      <stop
         style="stop-color:#ffffff;stop-opacity:0.502"
         offset="1"
         id="stop1869" />
    </linearGradient>
  </defs>
  <path
     id="rect3143"
     style="opacity:0.1;fill:#000000;fill-opacity:1;stroke-width:0.264583"
     d="m 4.5160033,1.0583333 c -3.6040539,0 -4.1191283,0.5137856 -4.1191283,4.1144776 v 2.8835446 c 0,3.6006805 0.5150744,4.1144805 4.1191283,4.1144805 h 3.6679933 c 3.6040544,0 4.1191284,-0.5138 4.1191284,-4.1144805 V 5.1728109 c 0,-3.600692 -0.515074,-4.1144776 -4.1191284,-4.1144776 z" />
  <path
     style="display:inline;fill:url(#linearGradient3600);fill-opacity:1;stroke:none;stroke-width:0.0992187;stroke-linecap:round;stroke-linejoin:round;stroke-miterlimit:4;stroke-dasharray:none;stroke-dashoffset:0;stroke-opacity:1;enable-background:new"
     d="m 8.1839953,0.66145835 c 3.6040547,0 4.1191297,0.51378555 4.1191297,4.11447755 v 2.883545 c 0,3.6006771 -0.515075,4.1144771 -4.1191297,4.1144771 H 4.5160029 c -3.60405369,0 -4.1191279,-0.5138 -4.1191279,-4.1144771 v -2.883545 c 0,-3.600692 0.51507421,-4.11447755 4.1191279,-4.11447755 z"
     id="rect877"
     inkscape:connector-curvature="0"
     sodipodi:nodetypes="sssssssss" />
  <path
     id="rect5299"
     style="opacity:0.1;fill:#ffffff;fill-opacity:1;stroke-width:0.264583"
     d="m 0.39687486,6.2177083 v 1.4417725 c 0,3.6006782 0.51507437,4.1144782 4.11912824,4.1144782 h 3.6679931 c 3.6040528,0 4.1191268,-0.5138 4.1191268,-4.1144782 V 6.2177083 Z" />
  <path
     id="rect7539"
     style="opacity:1;fill:#ffffff;fill-opacity:1;stroke-width:0.999999;stroke-linejoin:round"
     d="M 23.240234 8 C 21.890837 8 20.653795 8.1536537 19.529297 8.4628906 C 18.432911 8.7721275 17.590361 9.0962445 17 9.4335938 L 17.800781 11.710938 C 19.346966 10.867564 21.061778 10.445312 22.945312 10.445312 C 23.620011 10.445312 24.266292 10.502785 24.884766 10.615234 C 25.503239 10.727684 26.038482 10.936857 26.488281 11.246094 C 26.966193 11.555331 27.345829 11.977582 27.626953 12.511719 C 27.908078 13.017743 28.048828 13.664024 28.048828 14.451172 C 28.048828 15.322658 27.880318 16.109689 27.542969 16.8125 C 27.205619 17.487199 26.783368 18.135432 26.277344 18.753906 C 25.77132 19.344268 25.223174 19.933076 24.632812 20.523438 C 24.042451 21.085687 23.494305 21.691304 22.988281 22.337891 C 22.482257 22.984477 22.060005 23.686277 21.722656 24.445312 C 21.385307 25.176236 21.216797 26.020739 21.216797 26.976562 C 21.216797 27.313912 21.231654 27.650932 21.259766 27.988281 C 21.287877 28.297518 21.32854 28.591922 21.384766 28.873047 L 23.578125 28.873047 C 23.550013 28.732485 23.537109 28.591735 23.537109 28.451172 L 23.537109 27.734375 C 23.537109 26.806664 23.718522 25.964114 24.083984 25.205078 C 24.449446 24.446042 24.914314 23.74229 25.476562 23.095703 C 26.038812 22.421005 26.62762 21.774724 27.246094 21.15625 C 27.89268 20.537776 28.498298 19.891496 29.060547 19.216797 C 29.622796 18.542098 30.085709 17.810586 30.451172 17.023438 C 30.816634 16.236289 31 15.33822 31 14.326172 C 31 13.595249 30.874106 12.84888 30.621094 12.089844 C 30.368082 11.330808 29.94583 10.656768 29.355469 10.066406 C 28.765108 9.4479324 27.96322 8.9553057 26.951172 8.5898438 C 25.967236 8.1962697 24.730194 8 23.240234 8 z M 22.693359 33.722656 C 21.962436 33.722656 21.384577 33.948638 20.962891 34.398438 C 20.569316 34.848237 20.373047 35.396383 20.373047 36.042969 C 20.373047 36.689555 20.569316 37.2377 20.962891 37.6875 C 21.384577 38.1373 21.962436 38.361328 22.693359 38.361328 C 23.424283 38.361328 23.985332 38.1373 24.378906 37.6875 C 24.800593 37.2377 25.011719 36.689555 25.011719 36.042969 C 25.011719 35.396383 24.800593 34.848237 24.378906 34.398438 C 23.985332 33.948638 23.424283 33.722656 22.693359 33.722656 z "
     transform="scale(0.26458333)" />
  <path
     id="rect1565"
     style="fill:url(#linearGradient1873);fill-opacity:1;stroke-width:0.264583;opacity:1"
     d="m 4.5568277,0.79375 c -3.5239635,0 -4.02766103,0.5013312 -4.02766103,4.0162924 v 2.8153318 c 0,3.5149478 0.50369753,4.0162928 4.02766103,4.0162928 h 3.5863445 c 3.5239638,0 4.0276608,-0.501345 4.0276608,-4.0162928 V 4.8100424 c 0,-3.5149612 -0.503697,-4.0162924 -4.0276608,-4.0162924 z m 0.081649,0.2645834 h 3.4230468 c 3.3637835,0 3.8447265,0.4769388 3.8447265,3.8204385 v 2.6778728 c 0,3.3434873 -0.480943,3.8204393 -3.8447265,3.8204393 H 4.6384765 C 1.2746931,11.377084 0.79375,10.900132 0.79375,7.5566447 V 4.8787719 c 0,-3.3434997 0.4809431,-3.8204385 3.8447267,-3.8204385 z" />
  <path
     id="rect1370"
     style="opacity:0.4;fill:#000000;fill-opacity:1;stroke-width:0.264583"
     d="m 4.4751788,0.52916667 c -3.68414314,0 -4.21059547,0.52624033 -4.21059547,4.21266263 v 2.9517578 c 0,3.6864079 0.52645233,4.2126629 4.21059547,4.2126629 H 8.224821 c 3.684144,0 4.210596,-0.526255 4.210596,-4.2126629 V 4.7418293 c 0,-3.6864223 -0.526452,-4.21266263 -4.210596,-4.21266263 z M 4.5568278,0.79375 h 3.5863445 c 3.5239637,0 4.0276607,0.5013312 4.0276607,4.0162924 v 2.8153317 c 0,3.5149469 -0.503697,4.0162919 -4.0276607,4.0162919 H 4.5568277 c -3.5239638,0 -4.02766104,-0.501345 -4.02766104,-4.0162919 V 4.8100424 c 0,-3.5149612 0.50369724,-4.0162924 4.02766114,-4.0162924 z" />
</svg>
