<?xml version="1.0" encoding="UTF-8" standalone="no"?>
<!-- Created with Inkscape (http://www.inkscape.org/) -->

<svg
   width="48"
   height="48"
   viewBox="0 0 12.7 12.7"
   version="1.1"
   id="svg5"
   inkscape:version="1.1.2 (0a00cf5339, 2022-02-04)"
   sodipodi:docname="system-software-update.svg"
   xmlns:inkscape="http://www.inkscape.org/namespaces/inkscape"
   xmlns:sodipodi="http://sodipodi.sourceforge.net/DTD/sodipodi-0.dtd"
   xmlns:xlink="http://www.w3.org/1999/xlink"
   xmlns="http://www.w3.org/2000/svg"
   xmlns:svg="http://www.w3.org/2000/svg">
  <sodipodi:namedview
     id="namedview7"
     pagecolor="#ffffff"
     bordercolor="#666666"
     borderopacity="1.0"
     inkscape:pageshadow="2"
     inkscape:pageopacity="0.0"
     inkscape:pagecheckerboard="0"
     inkscape:document-units="px"
     showgrid="false"
     units="px"
     inkscape:zoom="8.4895833"
     inkscape:cx="27.680982"
     inkscape:cy="0.88343558"
     inkscape:window-width="1920"
     inkscape:window-height="1016"
     inkscape:window-x="0"
     inkscape:window-y="0"
     inkscape:window-maximized="1"
     inkscape:current-layer="svg5"
     showguides="false" />
  <defs
     id="defs2">
    <linearGradient
       inkscape:collect="always"
       id="linearGradient1871">
      <stop
         style="stop-color:#ffffff;stop-opacity:1;"
         offset="0"
         id="stop1867" />
      <stop
         style="stop-color:#ffffff;stop-opacity:0.1"
         offset="0.12"
         id="stop2515" />
      <stop
         style="stop-color:#ffffff;stop-opacity:0.102"
         offset="0.89999998"
         id="stop2581" />
      <stop
         style="stop-color:#ffffff;stop-opacity:0.502"
         offset="1"
         id="stop1869" />
    </linearGradient>
    <linearGradient
       inkscape:collect="always"
       xlink:href="#linearGradient1871"
       id="linearGradient1873"
       x1="17.222656"
       y1="3.5"
       x2="17.222656"
       y2="44.466438"
       gradientUnits="userSpaceOnUse"
       gradientTransform="matrix(0.26458333,0,0,0.26458333,0,-0.13229166)" />
  </defs>
  <path
     id="rect3143"
     style="opacity:0.1;fill:#000000;fill-opacity:1;stroke-width:0.264583"
     d="m 4.5160033,1.0583334 c -3.60405388,0 -4.1191283,0.5137855 -4.1191283,4.1144775 v 2.883545 c 0,3.6006791 0.51507442,4.1144791 4.1191283,4.1144791 h 3.6679933 c 3.6040544,0 4.1191284,-0.5138 4.1191284,-4.1144791 v -2.883545 c 0,-3.600692 -0.515074,-4.1144775 -4.1191284,-4.1144775 z" />
  <path
     style="display:inline;fill:#ebebeb;fill-opacity:1;stroke:none;stroke-width:0.0992187;stroke-linecap:round;stroke-linejoin:round;stroke-miterlimit:4;stroke-dasharray:none;stroke-dashoffset:0;stroke-opacity:1;enable-background:new"
     d="m 8.1839962,0.66145835 c 3.6040548,0 4.1191298,0.51378545 4.1191298,4.11447755 v 2.883545 c 0,3.6006781 -0.515075,4.1144781 -4.1191298,4.1144781 H 4.5160033 c -3.604054,0 -4.1191283,-0.5138 -4.1191283,-4.1144781 v -2.883545 c 0,-3.6006921 0.5150743,-4.11447755 4.1191283,-4.11447755 z"
     id="rect877"
     inkscape:connector-curvature="0"
     sodipodi:nodetypes="sssssssss" />
  <path
     id="rect2891"
     style="opacity:1;fill:#4d4d4d;fill-opacity:1;stroke-width:0.97056;stroke-linejoin:round"
     d="M 13.449219 2.5625 C 4.1545345 2.9392444 1.9171341 5.2110921 1.5566406 14.560547 L 4.375 17.5 L 7 14.5 L 7 33.5 C 7 38.000004 8.5000003 39.5 13 39.5 L 34.5 39.5 L 36.75 41.75 L 34.550781 44.4375 C 43.845468 44.060748 46.082866 41.78888 46.443359 32.439453 L 43.625 29.5 L 41 32.5 L 41 13.5 C 41 8.9999998 39.500002 7.5 35 7.5 L 13.5 7.5 L 11.25 5.25 L 13.449219 2.5625 z "
     transform="scale(0.26458333)" />
  <path
     d="m 3.4395833,1.984375 c -1.190625,0 -1.5875,0.3968749 -1.5875,1.5875 v 5.2916667 c 0,1.1906263 0.396875,1.5875003 1.5875,1.5875003 h 5.8208333 c 1.1906244,0 1.5874994,-0.396874 1.5874994,-1.5875003 V 3.571875 c 0,-1.1906251 -0.396874,-1.5875 -1.5874994,-1.5875 z"
     style="opacity:0.1;fill:#babeb4;fill-opacity:1;stroke-width:0.256794;stroke-linejoin:round"
     id="path1760" />
  <path
     id="rect5299-4"
     style="opacity:0.1;fill:#ffffff;fill-opacity:1;stroke-width:0.264583"
     d="m 0.396875,6.2177083 v 1.4417725 c 0,3.6006782 0.5150744,4.1144772 4.1191283,4.1144772 h 3.6679933 c 3.6040544,0 4.1191284,-0.513799 4.1191284,-4.1144772 V 6.2177083 Z" />
  <path
     d="M 5.6751405,2.910602 C 5.4185767,3.4451132 5.2255605,3.8279653 4.9903988,4.3767376 4.7552081,4.9183661 4.5163713,5.4885696 4.2740659,6.0872159 4.1833747,6.3180728 4.0906726,6.558915 3.9978674,6.8003738 3.9406856,6.930988 3.8763972,7.0873673 3.7757153,7.3577715 3.6070011,7.8060814 3.4938547,8.0757974 3.3056036,8.5730024 3.237013,8.7465034 3.161792,8.9409054 3.0427083,9.2683804 H 4.4492069 L 5.0432758,7.614285 6.368706,7.5566217 7.694242,7.614285 8.288311,9.2683804 H 9.6948093 C 9.5757273,8.9409054 9.5005043,8.7464904 9.4319136,8.5730024 9.2436496,8.0757974 9.1305006,7.8060814 8.9618026,7.3577715 8.861118,7.0873673 8.7968349,6.9309986 8.7396557,6.8003738 8.6468531,6.558923 8.5541537,6.3180913 8.4634572,6.0872159 8.2211492,5.4885696 8.0350968,5.0770896 7.7999087,4.5354611 7.5647285,3.9866888 7.3188697,3.444928 7.0623033,2.9104167 H 7.0410313 L 6.32999,2.9105014 H 6.301807 L 5.6964404,2.910729 Z m 0.6935523,1.3140001 c 0.00466,0.010874 0.0095,0.021564 0.014182,0.032451 v 0.00831 c 0.1957203,0.4348427 0.3849688,0.8848725 0.5670815,1.3514917 0.2209324,0.5772679 0.2239989,0.5222081 0.4449233,1.1422327 l -1.02616,0.037023 -1.0260541,-0.037023 C 5.5635922,6.139061 5.566664,6.1941208 5.7875884,5.6168529 5.9696852,5.1502337 6.1589311,4.7001775 6.3546699,4.2653612 v -0.00831 c 0.00466,-0.010874 0.00939,-0.02159 0.014049,-0.032451 z"
     style="fill:#ececec;stroke-width:0.264583;enable-background:new"
     id="path969" />
  <path
     d="M 7.0479043,2.9392544 6.3687189,4.2246002 C 6.5607403,4.6522463 6.7710443,5.1683425 6.9499026,5.6266537 7.170835,6.2039217 7.1739068,6.1488354 7.394826,6.7688864 L 7.0487245,6.7813224 7.2887466,7.606399 7.6942205,7.624047 8.2882895,9.2781426 H 9.694788 C 9.5757043,8.950667 9.5004807,8.7562512 9.4318901,8.5827639 9.2436285,8.0855589 9.1304767,7.8158427 8.9617784,7.3675327 8.8610939,7.0971285 8.7968107,6.9407598 8.7396316,6.810135 8.6468316,6.5686842 8.5541296,6.3278525 8.4634331,6.0969771 8.221125,5.4983308 8.0350727,5.0868508 7.7998845,4.5452223 7.6303078,4.1495379 7.4550002,3.7576371 7.2743162,3.3693611 Z"
     style="opacity:0.1;fill:#4d4d4d;stroke-width:0.264583;enable-background:new"
     id="path1224" />
  <path
     d="m 3.3072916,6.6145833 h 6.0854171 c 0.366447,0 0.6614573,0.2950104 0.6614573,0.6614583 0,0.366448 -0.2950103,0.6614584 -0.6614573,0.6614584 H 3.3072916 c -0.3664479,0 -0.6614584,-0.2950104 -0.6614584,-0.6614584 0,-0.3664479 0.2950105,-0.6614583 0.6614584,-0.6614583 z"
     style="opacity:0.1;fill:#000000;stroke-width:0.0759547"
     id="path3061" />
  <path
     id="rect2871"
     style="opacity:1;fill:#ececec;stroke-width:0.287073"
     d="m 3.3072916,6.35 h 6.0854167 c 0.3664479,0 0.6614577,0.2950104 0.6614577,0.6614583 0,0.3664479 -0.2950098,0.6614583 -0.6614577,0.6614583 H 3.3072916 c -0.3664479,0 -0.6614583,-0.2950104 -0.6614583,-0.6614583 C 2.6458333,6.6450104 2.9408437,6.35 3.3072916,6.35 Z"
     sodipodi:nodetypes="sssssss" />
  <path
     d="m 3.3072917,6.8791667 h 6.0854168 c 0.07329,0 0.132291,0.059002 0.132291,0.1322917 0,0.07329 -0.059,0.1322916 -0.132291,0.1322916 H 3.3072917 C 3.2340017,7.14375 3.175,7.084748 3.175,7.0114584 c 0,-0.07329 0.059002,-0.1322917 0.1322917,-0.1322917 z"
     style="opacity:0.2;fill:#4d4d4d;fill-opacity:1;stroke-width:0.00401926"
     id="path3550"
     sodipodi:nodetypes="sssssss" />
  <path
     d="m 3.3072917,6.8791667 h 3.9687502 c 0.07329,0 0.1322912,0.059002 0.1322912,0.1322917 0,0.07329 -0.059002,0.1322916 -0.1322912,0.1322916 H 3.3072917 C 3.2340017,7.14375 3.175,7.084748 3.175,7.0114584 c 0,-0.07329 0.059002,-0.1322917 0.1322917,-0.1322917 z"
     style="opacity:1;fill:#77216f;fill-opacity:1;stroke-width:0.0151909"
     id="path3217"
     sodipodi:nodetypes="sssssss" />
  <path
     id="rect1370"
     style="opacity:0.4;fill:#000000;fill-opacity:1;stroke-width:0.264583"
     d="m 4.4751788,0.52916667 c -3.68414336,0 -4.21059547,0.52624033 -4.21059547,4.21266273 v 2.9517578 c 0,3.6864088 0.52645211,4.2126628 4.21059547,4.2126628 H 8.224821 c 3.684144,0 4.210596,-0.526254 4.210596,-4.2126628 V 4.7418294 c 0,-3.6864224 -0.526452,-4.21266273 -4.210596,-4.21266273 z m 0.081649,0.2645833 h 3.5863445 c 3.5239637,0 4.0276607,0.50133143 4.0276607,4.01629243 v 2.8153318 c 0,3.5149478 -0.503697,4.0162928 -4.0276607,4.0162928 H 4.5568277 c -3.5239637,0 -4.02766104,-0.501345 -4.02766104,-4.0162928 V 4.8100424 c 0,-3.514961 0.50369724,-4.01629243 4.02766114,-4.01629243 z" />
  <path
     id="rect1565"
     style="opacity:1;fill:url(#linearGradient1873);fill-opacity:1;stroke-width:0.264583"
     d="m 4.5568277,0.79374997 c -3.5239635,0 -4.02766104,0.50133123 -4.02766104,4.01629243 v 2.8153318 c 0,3.5149478 0.50369754,4.0162928 4.02766104,4.0162928 h 3.5863445 c 3.5239638,0 4.0276608,-0.501345 4.0276608,-4.0162928 V 4.8100424 c 0,-3.5149612 -0.503697,-4.01629243 -4.0276608,-4.01629243 z m 0.081649,0.26458343 h 3.4230468 c 3.3637835,0 3.8447265,0.4769388 3.8447265,3.8204385 v 2.6778728 c 0,3.3434873 -0.480943,3.8204393 -3.8447265,3.8204393 h -3.423047 c -3.3637834,0 -3.84472651,-0.476952 -3.84472651,-3.8204393 V 4.8787719 c 0,-3.3434997 0.48094311,-3.8204385 3.84472671,-3.8204385 z" />
</svg>
