<?xml version="1.0" encoding="UTF-8" standalone="no"?>
<!-- Created with Inkscape (http://www.inkscape.org/) -->

<svg
   width="48"
   height="48"
   viewBox="0 0 12.7 12.7"
   version="1.1"
   id="svg5"
   inkscape:version="1.1.2 (0a00cf5339, 2022-02-04)"
   sodipodi:docname="ubuntusoftware.svg"
   xmlns:inkscape="http://www.inkscape.org/namespaces/inkscape"
   xmlns:sodipodi="http://sodipodi.sourceforge.net/DTD/sodipodi-0.dtd"
   xmlns:xlink="http://www.w3.org/1999/xlink"
   xmlns="http://www.w3.org/2000/svg"
   xmlns:svg="http://www.w3.org/2000/svg">
  <sodipodi:namedview
     id="namedview7"
     pagecolor="#ffffff"
     bordercolor="#666666"
     borderopacity="1.0"
     inkscape:pageshadow="2"
     inkscape:pageopacity="0.0"
     inkscape:pagecheckerboard="0"
     inkscape:document-units="px"
     showgrid="false"
     units="px"
     inkscape:zoom="16.4375"
     inkscape:cx="24"
     inkscape:cy="24"
     inkscape:window-width="1851"
     inkscape:window-height="1016"
     inkscape:window-x="0"
     inkscape:window-y="0"
     inkscape:window-maximized="1"
     inkscape:current-layer="svg5" />
  <defs
     id="defs2">
    <linearGradient
       inkscape:collect="always"
       id="linearGradient1182">
      <stop
         style="stop-color:#28c8fd;stop-opacity:1"
         offset="0"
         id="stop1178" />
      <stop
         style="stop-color:#0012ab;stop-opacity:1"
         offset="1"
         id="stop1180" />
    </linearGradient>
    <linearGradient
       inkscape:collect="always"
       id="linearGradient1871">
      <stop
         style="stop-color:#ffffff;stop-opacity:1;"
         offset="0"
         id="stop1867" />
      <stop
         style="stop-color:#ffffff;stop-opacity:0.1"
         offset="0.12"
         id="stop2515" />
      <stop
         style="stop-color:#ffffff;stop-opacity:0.102"
         offset="0.89999998"
         id="stop2581" />
      <stop
         style="stop-color:#ffffff;stop-opacity:0.502"
         offset="1"
         id="stop1869" />
    </linearGradient>
    <linearGradient
       inkscape:collect="always"
       xlink:href="#linearGradient1871"
       id="linearGradient1873"
       x1="17.222656"
       y1="3.5"
       x2="17.222656"
       y2="44.466438"
       gradientUnits="userSpaceOnUse"
       gradientTransform="matrix(0.26458333,0,0,0.26458333,0,-0.13229166)" />
    <linearGradient
       inkscape:collect="always"
       xlink:href="#linearGradient1182"
       id="linearGradient1333"
       x1="12.038541"
       y1="11.509376"
       x2="-1.4552069"
       y2="-1.1906247"
       gradientUnits="userSpaceOnUse" />
  </defs>
  <path
     id="rect3143"
     style="opacity:0.1;fill:#000000;fill-opacity:1;stroke-width:0.264583"
     d="m 4.5160033,1.0583334 c -3.60405388,0 -4.1191283,0.5137855 -4.1191283,4.1144775 v 2.883545 c 0,3.6006791 0.51507442,4.1144791 4.1191283,4.1144791 h 3.6679933 c 3.6040544,0 4.1191284,-0.5138 4.1191284,-4.1144791 v -2.883545 c 0,-3.600692 -0.515074,-4.1144775 -4.1191284,-4.1144775 z" />
  <path
     style="display:inline;fill:url(#linearGradient1333);fill-opacity:1.0;stroke:none;stroke-width:0.0992187;stroke-linecap:round;stroke-linejoin:round;stroke-miterlimit:4;stroke-dasharray:none;stroke-dashoffset:0;stroke-opacity:1;enable-background:new"
     d="m 8.1839962,0.66145835 c 3.6040548,0 4.1191298,0.51378545 4.1191298,4.11447755 v 2.883545 c 0,3.6006781 -0.515075,4.1144781 -4.1191298,4.1144781 H 4.5160033 c -3.604054,0 -4.1191283,-0.5138 -4.1191283,-4.1144781 v -2.883545 c 0,-3.6006921 0.5150743,-4.11447755 4.1191283,-4.11447755 z"
     id="rect877"
     inkscape:connector-curvature="0"
     sodipodi:nodetypes="sssssssss" />
  <path
     id="rect1370"
     style="opacity:0.4;fill:#000000;fill-opacity:1;stroke-width:0.264583"
     d="m 4.4751788,0.52916667 c -3.68414336,0 -4.21059547,0.52624033 -4.21059547,4.21266273 v 2.9517578 c 0,3.6864088 0.52645211,4.2126628 4.21059547,4.2126628 H 8.224821 c 3.684144,0 4.210596,-0.526254 4.210596,-4.2126628 V 4.7418294 c 0,-3.6864224 -0.526452,-4.21266273 -4.210596,-4.21266273 z m 0.081649,0.2645833 h 3.5863445 c 3.5239637,0 4.0276607,0.50133143 4.0276607,4.01629243 v 2.8153318 c 0,3.5149478 -0.503697,4.0162928 -4.0276607,4.0162928 H 4.5568277 c -3.5239637,0 -4.02766104,-0.501345 -4.02766104,-4.0162928 V 4.8100424 c 0,-3.514961 0.50369724,-4.01629243 4.02766114,-4.01629243 z" />
  <path
     id="rect858"
     style="opacity:0.1;fill:#eff0f1;stroke-width:0.999999;stroke-linejoin:round"
     d="M 2 23.5 L 2 28.820312 C 2 42.105155 3.9037383 44 17.222656 44 L 30.777344 44 C 44.096262 44 46 42.105155 46 28.820312 L 46 23.5 L 2 23.5 z "
     transform="scale(0.26458333)" />
  <path
     id="rect1565"
     style="opacity:1;fill:url(#linearGradient1873);fill-opacity:1;stroke-width:0.264583"
     d="m 4.5568277,0.79374997 c -3.5239635,0 -4.02766104,0.50133123 -4.02766104,4.01629243 v 2.8153318 c 0,3.5149478 0.50369754,4.0162928 4.02766104,4.0162928 h 3.5863445 c 3.5239638,0 4.0276608,-0.501345 4.0276608,-4.0162928 V 4.8100424 c 0,-3.5149612 -0.503697,-4.01629243 -4.0276608,-4.01629243 z m 0.081649,0.26458343 h 3.4230468 c 3.3637835,0 3.8447265,0.4769388 3.8447265,3.8204385 v 2.6778728 c 0,3.3434873 -0.480943,3.8204393 -3.8447265,3.8204393 h -3.423047 c -3.3637834,0 -3.84472651,-0.476952 -3.84472651,-3.8204393 V 4.8787719 c 0,-3.3434997 0.48094311,-3.8204385 3.84472671,-3.8204385 z" />
  <path
     id="path29"
     d="M 5.5645704,2.6458333 C 5.2737434,3.2464256 5.0544329,3.6765244 4.7878386,4.2931406 4.5212448,4.90173 4.2506223,5.5424399 3.9759605,6.2150955 3.8731557,6.4744935 3.7683573,6.7456647 3.663159,7.0169749 3.598341,7.163737 3.5254043,7.3390832 3.4112778,7.6429166 3.2200344,8.1466501 3.0916157,8.4499333 2.8782265,9.008608 2.8004763,9.2035578 2.7150547,9.4216229 2.5800691,9.7895833 H 4.174537 l 0.6736358,-1.858083 1.5025019,-0.065029 1.502502,0.065029 0.6730489,1.858083 H 10.120694 C 9.9857079,9.4216229 9.9002868,9.2035423 9.822537,9.008608 9.6091326,8.4499333 9.4812959,8.1466501 9.2900698,7.6429166 9.1759416,7.3390832 9.1030049,7.1637489 9.0381906,7.0169749 8.9329949,6.7456741 8.8276101,6.4745137 8.7248031,6.2150955 8.450135,5.5424399 8.2392666,5.0805705 7.9726724,4.4719813 7.706085,3.8553652 7.427576,3.2464256 7.136779,2.6458333 H 7.1127617 6.3067414 6.2745239 l -0.6859376,5.945e-4 z m 0.7861043,1.4765958 c 0.00528,0.012219 0.010508,0.02435 0.015813,0.036581 v 0.00929 c 0.2218563,0.488608 0.43616,0.9940726 0.6425905,1.518409 0.2504349,0.6486346 0.2539262,0.587142 0.5043489,1.28382 L 6.3506747,7.0117478 5.1873344,6.9705188 C 5.4377629,6.2738456 5.4412569,6.3353382 5.6916826,5.6867032 5.8980958,5.1623966 6.1129821,4.6569023 6.334859,4.1683005 v -0.00929 C 6.340139,4.146796 6.34539,4.1346325 6.350674,4.1224333 Z"
     style="fill:#fff9f2;fill-opacity:1;stroke-width:0.2986" />
  <path
     id="path29-6"
     style="opacity:0.2;fill:#000000;fill-opacity:1;stroke-width:1.12857"
     d="M 24.001953 15.580078 C 23.981982 15.626185 23.963315 15.672587 23.943359 15.71875 L 23.943359 15.753906 C 23.10477 17.60059 22.291863 19.510556 21.511719 21.492188 C 20.565228 23.943721 20.55197 23.712608 19.605469 26.345703 L 19.966797 26.359375 C 20.574815 24.728724 20.704468 24.583073 21.511719 22.492188 C 22.291863 20.510556 23.10477 18.60059 23.943359 16.753906 L 23.943359 16.71875 C 23.963315 16.672587 23.981982 16.626185 24.001953 16.580078 C 24.021909 16.62626 24.04245 16.672523 24.0625 16.71875 L 24.0625 16.753906 C 24.901011 18.600614 25.710025 20.510444 26.490234 22.492188 C 27.297417 24.582815 27.427284 24.729108 28.035156 26.359375 L 28.396484 26.345703 C 27.450005 23.712591 27.43676 23.94372 26.490234 21.492188 C 25.710025 19.510444 24.901012 17.600614 24.0625 15.753906 L 24.0625 15.71875 C 24.04245 15.672523 24.021909 15.62626 24.001953 15.580078 z M 29.322266 29.960938 L 29.681641 30.976562 L 32.224609 38 L 38.251953 38 C 38.115114 37.626988 37.993807 37.300693 37.880859 37 L 32.224609 37 L 29.681641 29.976562 L 29.322266 29.960938 z M 18.650391 29.962891 L 18.324219 29.976562 L 15.777344 37 L 10.123047 37 C 10.0101 37.300688 9.8887919 37.626988 9.7519531 38 L 15.777344 38 L 18.324219 30.976562 L 18.650391 29.962891 z "
     transform="scale(0.26458333)" />
  <path
     id="path31"
     d="M 7.1365565,2.6458333 6.3504906,4.1224292 c 0.1307198,0.3067911 0.4495506,1.0277444 0.6589602,1.5642741 0.2504221,0.648635 0.2539159,0.5865619 0.5043237,1.2832392 l -0.3924474,0.01452 0.2717845,0.9267187 0.4598076,0.019738 0.6736026,1.8586646 H 10.120326 C 9.9853464,9.4216254 9.9005144,9.2035447 9.8227694,9.0086089 9.6093745,8.4499351 9.480959,8.1466518 9.2897423,7.6429183 9.1756196,7.3390849 9.1026849,7.1631699 9.0378753,7.016396 8.9326847,6.7450952 8.8278916,6.4745158 8.7250881,6.2150977 8.450435,5.5424417 8.2389903,5.0799918 7.9724091,4.4714024 7.7801982,4.0268002 7.5815119,3.586699 7.3767103,3.150421 Z"
     style="opacity:0.1;fill:#0c3ce0;fill-opacity:1;stroke-width:0.298593"
     sodipodi:nodetypes="cccccccccccccccc" />
  <rect
     style="fill:#ffffff;fill-opacity:1;stroke-width:0.107303;stroke-linecap:round;stroke-linejoin:round"
     id="rect4952"
     width="7.9375"
     height="1.0583333"
     x="2.3816414"
     y="6.8791666"
     ry="0.52916664" />
  <path
     id="rect4952-6"
     style="opacity:0.2;fill:#0d41e1;stroke-width:0.050901;stroke-linecap:round;stroke-linejoin:round;fill-opacity:1"
     d="m 2.9765624,7.2098958 h 6.7799478 c 0.109935,0 0.198438,0.088503 0.198438,0.1984376 0,0.1099335 -0.0885,0.1984374 -0.198438,0.1984374 H 2.9765624 c -0.109935,0 -0.1984374,-0.088503 -0.1984374,-0.1984374 0,-0.109935 0.088503,-0.1984376 0.1984374,-0.1984376 z"
     sodipodi:nodetypes="sssssss" />
  <path
     id="rect1725"
     style="opacity:0.2;fill:#000000;stroke-width:0.999999;stroke-linejoin:round"
     d="M 9.0644531 28.5 C 9.0234772 28.659999 9.0019531 28.826875 9.0019531 29 C 9.0019531 30.108 9.8939532 31 11.001953 31 L 37.001953 31 C 38.109953 31 39.001953 30.108 39.001953 29 C 39.001953 28.826875 38.980429 28.659999 38.939453 28.5 C 38.718183 29.363997 37.936828 30 37.001953 30 L 11.001953 30 C 10.067078 30 9.2857233 29.363997 9.0644531 28.5 z "
     transform="scale(0.26458333)" />
</svg>
