<?xml version="1.0" encoding="UTF-8" standalone="no"?>
<!-- Created with Inkscape (http://www.inkscape.org/) -->

<svg
   width="48"
   height="48"
   viewBox="0 0 12.7 12.7"
   version="1.1"
   id="svg5"
   inkscape:version="1.1.2 (0a00cf5339, 2022-02-04)"
   sodipodi:docname="unity-tweak-tool.svg"
   xmlns:inkscape="http://www.inkscape.org/namespaces/inkscape"
   xmlns:sodipodi="http://sodipodi.sourceforge.net/DTD/sodipodi-0.dtd"
   xmlns:xlink="http://www.w3.org/1999/xlink"
   xmlns="http://www.w3.org/2000/svg"
   xmlns:svg="http://www.w3.org/2000/svg">
  <sodipodi:namedview
     id="namedview7"
     pagecolor="#ffffff"
     bordercolor="#666666"
     borderopacity="1.0"
     inkscape:pageshadow="2"
     inkscape:pageopacity="0.0"
     inkscape:pagecheckerboard="0"
     inkscape:document-units="px"
     showgrid="false"
     units="px"
     inkscape:zoom="1"
     inkscape:cx="10.5"
     inkscape:cy="11.5"
     inkscape:window-width="1851"
     inkscape:window-height="1016"
     inkscape:window-x="0"
     inkscape:window-y="0"
     inkscape:window-maximized="1"
     inkscape:current-layer="svg5"
     showguides="false" />
  <defs
     id="defs2">
    <linearGradient
       inkscape:collect="always"
       id="linearGradient4938-3">
      <stop
         style="stop-color:#315bef;stop-opacity:1"
         offset="0"
         id="stop4934" />
      <stop
         style="stop-color:#31bcef;stop-opacity:1"
         offset="1"
         id="stop4936" />
    </linearGradient>
    <linearGradient
       inkscape:collect="always"
       id="linearGradient2174">
      <stop
         style="stop-color:#f7f7f7;stop-opacity:1;"
         offset="0"
         id="stop2170" />
      <stop
         style="stop-color:#e6e6e6;stop-opacity:1"
         offset="1"
         id="stop2172" />
    </linearGradient>
    <linearGradient
       inkscape:collect="always"
       id="linearGradient1871">
      <stop
         style="stop-color:#ffffff;stop-opacity:1;"
         offset="0"
         id="stop1867" />
      <stop
         style="stop-color:#ffffff;stop-opacity:0.1"
         offset="0.12"
         id="stop2515" />
      <stop
         style="stop-color:#ffffff;stop-opacity:0.102"
         offset="0.89999998"
         id="stop2581" />
      <stop
         style="stop-color:#ffffff;stop-opacity:0.502"
         offset="1"
         id="stop1869" />
    </linearGradient>
    <linearGradient
       inkscape:collect="always"
       xlink:href="#linearGradient1871"
       id="linearGradient1873"
       x1="17.222656"
       y1="3.5"
       x2="17.222656"
       y2="44.466438"
       gradientUnits="userSpaceOnUse"
       gradientTransform="matrix(0.26458333,0,0,0.26458333,0,-0.13229166)" />
    <linearGradient
       inkscape:collect="always"
       xlink:href="#linearGradient2174"
       id="linearGradient2176"
       x1="7.9711313"
       y1="11.841707"
       x2="4.4751787"
       y2="0.5291667"
       gradientUnits="userSpaceOnUse" />
    <linearGradient
       inkscape:collect="always"
       xlink:href="#linearGradient4938-3"
       id="linearGradient1896"
       x1="8.9958334"
       y1="2.1166666"
       x2="10.054167"
       y2="5.8208332"
       gradientUnits="userSpaceOnUse" />
  </defs>
  <path
     id="rect3143"
     style="opacity:0.1;fill:#000000;fill-opacity:1;stroke-width:0.264583"
     d="m 4.5160033,1.0583334 c -3.60405388,0 -4.1191283,0.5137855 -4.1191283,4.1144775 v 2.883545 c 0,3.6006791 0.51507442,4.1144791 4.1191283,4.1144791 h 3.6679933 c 3.6040544,0 4.1191284,-0.5138 4.1191284,-4.1144791 v -2.883545 c 0,-3.600692 -0.515074,-4.1144775 -4.1191284,-4.1144775 z" />
  <path
     style="display:inline;fill:url(#linearGradient2176);fill-opacity:1;stroke:none;stroke-width:0.0992187;stroke-linecap:round;stroke-linejoin:round;stroke-miterlimit:4;stroke-dasharray:none;stroke-dashoffset:0;stroke-opacity:1;enable-background:new"
     d="m 8.1839962,0.66145835 c 3.6040548,0 4.1191298,0.51378545 4.1191298,4.11447755 v 2.883545 c 0,3.6006781 -0.515075,4.1144781 -4.1191298,4.1144781 H 4.5160033 c -3.604054,0 -4.1191283,-0.5138 -4.1191283,-4.1144781 v -2.883545 c 0,-3.6006921 0.5150743,-4.11447755 4.1191283,-4.11447755 z"
     id="rect877"
     inkscape:connector-curvature="0"
     sodipodi:nodetypes="sssssssss" />
  <path
     id="rect1370"
     style="opacity:0.4;fill:#000000;fill-opacity:1;stroke-width:0.264583"
     d="m 4.4751788,0.52916667 c -3.68414336,0 -4.21059547,0.52624033 -4.21059547,4.21266273 v 2.9517578 c 0,3.6864088 0.52645211,4.2126628 4.21059547,4.2126628 H 8.224821 c 3.684144,0 4.210596,-0.526254 4.210596,-4.2126628 V 4.7418294 c 0,-3.6864224 -0.526452,-4.21266273 -4.210596,-4.21266273 z m 0.081649,0.2645833 h 3.5863445 c 3.5239637,0 4.0276607,0.50133143 4.0276607,4.01629243 v 2.8153318 c 0,3.5149478 -0.503697,4.0162928 -4.0276607,4.0162928 H 4.5568277 c -3.5239637,0 -4.02766104,-0.501345 -4.02766104,-4.0162928 V 4.8100424 c 0,-3.514961 0.50369724,-4.01629243 4.02766114,-4.01629243 z" />
  <path
     id="rect1565"
     style="fill:url(#linearGradient1873);fill-opacity:1;stroke-width:0.264583;opacity:1"
     d="m 4.5568277,0.79374997 c -3.5239635,0 -4.02766104,0.50133123 -4.02766104,4.01629243 v 2.8153318 c 0,3.5149478 0.50369754,4.0162928 4.02766104,4.0162928 h 3.5863445 c 3.5239638,0 4.0276608,-0.501345 4.0276608,-4.0162928 V 4.8100424 c 0,-3.5149612 -0.503697,-4.01629243 -4.0276608,-4.01629243 z m 0.081649,0.26458343 h 3.4230468 c 3.3637835,0 3.8447265,0.4769388 3.8447265,3.8204385 v 2.6778728 c 0,3.3434873 -0.480943,3.8204393 -3.8447265,3.8204393 h -3.423047 c -3.3637834,0 -3.84472651,-0.476952 -3.84472651,-3.8204393 V 4.8787719 c 0,-3.3434997 0.48094311,-3.8204385 3.84472671,-3.8204385 z" />
  <path
     id="rect1645"
     style="opacity:0.6;fill:#ffffff;stroke-width:0.287073"
     d="m 2.9104165,2.38125 h 6.8791663 c 0.4397372,0 0.7937502,0.3540125 0.7937502,0.7937499 v 2.1166667 c 0,0.4397375 -0.354013,0.79375 -0.7937502,0.79375 H 2.9104165 c -0.4397374,0 -0.7937499,-0.3540125 -0.7937499,-0.79375 V 3.1749999 c 0,-0.4397374 0.3540125,-0.7937499 0.7937499,-0.7937499 z" />
  <path
     id="rect1170"
     style="opacity:1;fill:url(#linearGradient1896);stroke-width:0.287073"
     d="m 2.9104165,2.1166666 h 6.8791663 c 0.4397372,0 0.7937502,0.3540125 0.7937502,0.7937499 v 2.1166667 c 0,0.4397375 -0.354013,0.79375 -0.7937502,0.79375 H 2.9104165 c -0.4397374,0 -0.7937499,-0.3540125 -0.7937499,-0.79375 V 2.9104165 c 0,-0.4397374 0.3540125,-0.7937499 0.7937499,-0.7937499 z" />
  <path
     id="rect1362"
     style="opacity:1;fill:#dedede;stroke-width:0.287073"
     d="m 2.9104165,6.8791666 h 6.8791663 c 0.4397372,0 0.7937502,0.3540125 0.7937502,0.79375 v 2.1166667 c 0,0.4397377 -0.354013,0.7937497 -0.7937502,0.7937497 H 2.9104165 c -0.4397374,0 -0.7937499,-0.354012 -0.7937499,-0.7937497 V 7.6729166 c 0,-0.4397375 0.3540125,-0.79375 0.7937499,-0.79375 z" />
  <path
     id="rect1502"
     style="opacity:0.2;fill:#000000;fill-opacity:1;stroke-width:1.085"
     d="M 11 8 C 9.338 8 8 9.338 8 11 L 8 12 C 8 10.338 9.338 9 11 9 L 37 9 C 38.662 9 40 10.338 40 12 L 40 11 C 40 9.338 38.662 8 37 8 L 11 8 z "
     transform="scale(0.26458333)" />
  <path
     id="rect2665"
     style="opacity:0.1;stroke-width:0.287073"
     d="m 7.1437501,2.6458333 h 2.6458334 c 0.2931585,0 0.5291665,0.2360083 0.5291665,0.5291666 v 2.1166667 c 0,0.2931583 -0.236008,0.5291666 -0.5291665,0.5291666 H 7.1437501 c -0.2931583,0 -0.5291666,-0.2360083 -0.5291666,-0.5291666 V 3.1749999 c 0,-0.2931583 0.2360083,-0.5291666 0.5291666,-0.5291666 z" />
  <path
     id="rect2937"
     style="opacity:1;fill:#ffffff;stroke-width:0.287073"
     d="m 7.1437497,2.3812499 h 2.6458336 c 0.2931587,0 0.5291667,0.2360083 0.5291667,0.5291666 V 5.027083 c 0,0.2931583 -0.236008,0.5291666 -0.5291667,0.5291666 H 7.1437497 C 6.8505913,5.5562496 6.614583,5.3202413 6.614583,5.027083 V 2.9104165 c 0,-0.2931583 0.2360083,-0.5291666 0.5291667,-0.5291666 z" />
  <path
     id="rect3077"
     style="opacity:0.1;fill:#000000;fill-opacity:1;stroke-width:1.085"
     d="M 11 26 C 9.338 26 8 27.338 8 29 L 8 37 C 8 38.662 9.338 40 11 40 L 37 40 C 38.662 40 40 38.662 40 37 L 40 29 C 40 27.338 38.662 26 37 26 L 11 26 z M 11 27 L 37 27 C 38.108 27 39 27.892 39 29 L 39 37 C 39 38.108 38.108 39 37 39 L 11 39 C 9.8920001 39 9 38.108 9 37 L 9 29 C 9 27.892 9.8920001 27 11 27 z "
     transform="scale(0.26458333)" />
  <path
     id="rect3344"
     style="opacity:0.2;stroke-width:0.202991"
     d="m 2.9104165,6.8791666 h 2.6458332 c 0.4397375,0 0.79375,0.3540125 0.79375,0.79375 V 9.789583 c 0,0.439738 -0.3540125,0.79375 -0.79375,0.79375 H 2.9104165 c -0.4397374,0 -0.7937499,-0.354012 -0.7937499,-0.79375 V 7.6729166 c 0,-0.4397375 0.3540125,-0.79375 0.7937499,-0.79375 z" />
  <path
     id="rect3492"
     style="opacity:1;fill:#ffffff;stroke-width:0.287073"
     d="m 2.9104165,7.1437502 h 2.6458334 c 0.2931583,0 0.5291667,0.2360083 0.5291667,0.5291666 v 2.1166667 c 0,0.2931585 -0.2360084,0.5291665 -0.5291667,0.5291665 H 2.9104165 c -0.2931583,0 -0.5291666,-0.236008 -0.5291666,-0.5291665 V 7.6729168 c 0,-0.2931583 0.2360083,-0.5291666 0.5291666,-0.5291666 z" />
</svg>
