<?xml version="1.0" encoding="UTF-8" standalone="no"?>
<!-- Created with Inkscape (http://www.inkscape.org/) -->

<svg
   width="48"
   height="48"
   viewBox="0 0 12.7 12.7"
   version="1.1"
   id="svg5"
   inkscape:version="1.1.2 (0a00cf5339, 2022-02-04)"
   sodipodi:docname="visual-studio-code-insiders.svg"
   xmlns:inkscape="http://www.inkscape.org/namespaces/inkscape"
   xmlns:sodipodi="http://sodipodi.sourceforge.net/DTD/sodipodi-0.dtd"
   xmlns:xlink="http://www.w3.org/1999/xlink"
   xmlns="http://www.w3.org/2000/svg"
   xmlns:svg="http://www.w3.org/2000/svg">
  <sodipodi:namedview
     id="namedview7"
     pagecolor="#ffffff"
     bordercolor="#666666"
     borderopacity="1.0"
     inkscape:pageshadow="2"
     inkscape:pageopacity="0.0"
     inkscape:pagecheckerboard="0"
     inkscape:document-units="px"
     showgrid="false"
     units="px"
     inkscape:zoom="11.667262"
     inkscape:cx="17.399112"
     inkscape:cy="32.612622"
     inkscape:window-width="1851"
     inkscape:window-height="1016"
     inkscape:window-x="0"
     inkscape:window-y="0"
     inkscape:window-maximized="1"
     inkscape:current-layer="svg5"
     showguides="false" />
  <defs
     id="defs2">
    <linearGradient
       inkscape:collect="always"
       xlink:href="#linearGradient1871"
       id="linearGradient1873"
       x1="17.222656"
       y1="3.5"
       x2="17.222656"
       y2="44.466438"
       gradientUnits="userSpaceOnUse"
       gradientTransform="matrix(0.26458333,0,0,0.26458333,0,-0.13229163)" />
    <linearGradient
       inkscape:collect="always"
       id="linearGradient1871">
      <stop
         style="stop-color:#ffffff;stop-opacity:1;"
         offset="0"
         id="stop1867" />
      <stop
         style="stop-color:#ffffff;stop-opacity:0.1"
         offset="0.12"
         id="stop2515" />
      <stop
         style="stop-color:#ffffff;stop-opacity:0.102"
         offset="0.89999998"
         id="stop2581" />
      <stop
         style="stop-color:#ffffff;stop-opacity:0.502"
         offset="1"
         id="stop1869" />
    </linearGradient>
    <linearGradient
       inkscape:collect="always"
       xlink:href="#linearGradient1309"
       id="linearGradient1311"
       x1="9.6114979"
       y1="11.497348"
       x2="6.5887842"
       y2="4.7230906"
       gradientUnits="userSpaceOnUse"
       gradientTransform="matrix(0.88887347,0,0,0.88887347,-1.1755757,-1.1757992)" />
    <linearGradient
       inkscape:collect="always"
       id="linearGradient1309">
      <stop
         style="stop-color:#ffffff;stop-opacity:1;"
         offset="0"
         id="stop1305" />
      <stop
         style="stop-color:#ffffff;stop-opacity:0;"
         offset="1"
         id="stop1307" />
    </linearGradient>
    <linearGradient
       inkscape:collect="always"
       xlink:href="#linearGradient1309"
       id="linearGradient1898"
       x1="16.097998"
       y1="18.926428"
       x2="13.229166"
       y2="8.4666672"
       gradientUnits="userSpaceOnUse"
       gradientTransform="matrix(0.88887347,0,0,0.88887347,-1.1757208,-1.1758687)" />
    <linearGradient
       inkscape:collect="always"
       xlink:href="#linearGradient1309"
       id="linearGradient3694"
       x1="48.029045"
       y1="51.705418"
       x2="35.472946"
       y2="28.286037"
       gradientUnits="userSpaceOnUse"
       gradientTransform="matrix(0.2351811,0,0,0.2351811,-1.1757208,-1.1758687)" />
  </defs>
  <path
     id="rect3143"
     style="opacity:0.1;fill:#000000;fill-opacity:1;stroke-width:0.264583"
     d="m 4.5160033,1.0583333 c -3.6040539,0 -4.1191283,0.5137856 -4.1191283,4.1144776 v 2.8835446 c 0,3.6006805 0.5150744,4.1144805 4.1191283,4.1144805 h 3.6679933 c 3.6040544,0 4.1191284,-0.5138 4.1191284,-4.1144805 V 5.1728109 c 0,-3.600692 -0.515074,-4.1144776 -4.1191284,-4.1144776 z" />
  <path
     style="display:inline;fill:#4d4d4d;fill-opacity:1;stroke:none;stroke-width:0.0992187;stroke-linecap:round;stroke-linejoin:round;stroke-miterlimit:4;stroke-dasharray:none;stroke-dashoffset:0;stroke-opacity:1;enable-background:new"
     d="m 8.1839953,0.66145835 c 3.6040547,0 4.1191297,0.51378555 4.1191297,4.11447755 v 2.883545 c 0,3.6006771 -0.515075,4.1144771 -4.1191297,4.1144771 H 4.5160029 c -3.60405369,0 -4.1191279,-0.5138 -4.1191279,-4.1144771 v -2.883545 c 0,-3.600692 0.51507421,-4.11447755 4.1191279,-4.11447755 z"
     id="rect877"
     inkscape:connector-curvature="0"
     sodipodi:nodetypes="sssssssss" />
  <path
     id="path6"
     d="M 10.283881,3.0135333 8.5404787,2.1692435 C 8.3386944,2.0715166 8.0975129,2.1127402 7.9391274,2.2720314 L 2.2318347,7.4120742 C 2.078323,7.5528618 2.0784994,7.7959399 2.2322158,7.9364949 l 0.4661899,0.4262504 c 0.125671,0.1149251 0.314931,0.1233688 0.4502366,0.020151 L 10.021546,3.2325621 C 10.252117,3.05663 10.5833,3.2220481 10.5833,3.5131341 v -0.020363 c 0,-0.2043331 -0.116376,-0.3906009 -0.299419,-0.479241 z"
     style="fill:#007c64;fill-opacity:1;stroke-width:0.302375" />
  <path
     id="path12"
     d="M 10.283881,9.6863417 8.5404787,10.530635 c -0.2017843,0.0977 -0.4429658,0.05648 -0.6013513,-0.102789 L 2.2318347,4.976025 C 2.078323,4.8352479 2.0784994,4.5921594 2.2322158,4.4516089 L 2.6984057,4.0253408 C 2.8240767,3.9104331 3.0133367,3.901973 3.1486423,4.0052118 L 10.021546,9.4672984 C 10.252117,9.6432246 10.5833,9.4778324 10.5833,9.186723 v 0.020379 c 0,0.2043165 -0.116376,0.390581 -0.299419,0.4792431 z"
     style="fill:#00a388;fill-opacity:1;stroke-width:0.302375" />
  <path
     id="path6-3"
     style="opacity:0.2;fill:url(#linearGradient1311);fill-opacity:1;stroke-width:0.302375"
     d="m 8.3033257,2.1167362 c -0.053548,9.178e-4 -0.1067265,0.010139 -0.1575534,0.027101 -0.025414,0.00848 -0.050391,0.018862 -0.074416,0.031235 -0.040589,0.020908 -0.078222,0.047757 -0.1129968,0.079466 -0.0064,0.00582 -0.013145,0.011277 -0.019292,0.017455 L 4.6713393,5.2149712 5.9836683,6.2581283 8.4677684,4.39689 8.5403484,2.1691004 c -0.012614,-0.00611 -0.025237,-0.011515 -0.038121,-0.016535 -0.025785,-0.010045 -0.052008,-0.018102 -0.07855,-0.023886 -0.026543,-0.00578 -0.053574,-0.00942 -0.080377,-0.011023 -0.013406,-7.996e-4 -0.026576,-0.00115 -0.039966,-9.179e-4 z M 3.5441231,6.2301085 2.2317942,7.4119849 c -0.1535116,0.1407877 -0.153257,0.3840089 4.704e-4,0.5245648 l 0.4662282,0.4262654 c 0.1256709,0.1149252 0.3148456,0.123427 0.4501514,0.02021 L 4.6332249,7.2700505 Z"
     sodipodi:nodetypes="csccccccccssccccccccc" />
  <path
     id="path16"
     d="m 8.5405772,10.530768 c -0.20185,0.09764 -0.4430306,0.05638 -0.6014169,-0.102922 0.1951393,0.196271 0.5288346,0.05724 0.5288346,-0.22034 V 2.4923471 c 0,-0.2775854 -0.3336953,-0.4166035 -0.5288346,-0.22032 C 8.0975466,2.1127232 8.3387272,2.0714404 8.5405772,2.1690806 l 1.7431058,0.8431298 c 0.183175,0.088594 0.299651,0.274929 0.299651,0.4793511 v 5.7167691 c 0,0.2044159 -0.116476,0.390747 -0.299651,0.4793416 z"
     style="fill:#24bfa5;fill-opacity:1;stroke-width:0.302375" />
  <path
     id="path16-5"
     d="m 8.5405772,10.530768 c -0.20185,0.09764 -0.4430306,0.05638 -0.6014169,-0.102922 0.1951393,0.196271 0.5288346,0.05724 0.5288346,-0.22034 V 2.4923471 c 0,-0.2775854 -0.3336953,-0.4166035 -0.5288346,-0.22032 C 8.0975466,2.1127232 8.3387272,2.0714404 8.5405772,2.1690806 l 1.7431058,0.8431298 c 0.183175,0.088594 0.299651,0.274929 0.299651,0.4793511 v 5.7167691 c 0,0.2044159 -0.116476,0.390747 -0.299651,0.4793416 z"
     style="opacity:0.5;fill:url(#linearGradient1898);fill-opacity:1;stroke-width:0.302375" />
  <path
     id="path12-3"
     style="opacity:0.1;fill:url(#linearGradient3694);fill-opacity:1;stroke-width:0.302375"
     d="m 2.9197375,3.9333488 c -0.079937,0.00358 -0.158565,0.034414 -0.221401,0.091868 L 2.2321084,4.4514821 C 2.0783922,4.5920327 2.0781372,4.8352693 2.231638,4.9760463 l 5.7072755,5.4518847 c 0.00648,0.0065 0.013499,0.01228 0.02021,0.01838 0.1970576,0.168317 0.5089461,0.02947 0.5089461,-0.238856 V 8.2327534 L 3.148488,4.0050056 C 3.0808354,3.9533883 2.9996746,3.9297747 2.9197375,3.9333488 Z" />
  <path
     id="rect1565"
     style="fill:url(#linearGradient1873);fill-opacity:1;stroke-width:0.264583;opacity:0.5"
     d="m 4.5568277,0.79375 c -3.5239635,0 -4.02766103,0.5013312 -4.02766103,4.0162924 v 2.8153318 c 0,3.5149478 0.50369753,4.0162928 4.02766103,4.0162928 h 3.5863445 c 3.5239638,0 4.0276608,-0.501345 4.0276608,-4.0162928 V 4.8100424 c 0,-3.5149612 -0.503697,-4.0162924 -4.0276608,-4.0162924 z m 0.081649,0.2645834 h 3.4230468 c 3.3637835,0 3.8447265,0.4769388 3.8447265,3.8204385 v 2.6778728 c 0,3.3434873 -0.480943,3.8204393 -3.8447265,3.8204393 H 4.6384765 C 1.2746931,11.377084 0.79375,10.900132 0.79375,7.5566447 V 4.8787719 c 0,-3.3434997 0.4809431,-3.8204385 3.8447267,-3.8204385 z" />
  <path
     id="rect1370"
     style="opacity:0.4;fill:#000000;fill-opacity:1;stroke-width:0.264583"
     d="m 4.4751788,0.52916667 c -3.68414314,0 -4.21059547,0.52624033 -4.21059547,4.21266263 v 2.9517578 c 0,3.6864079 0.52645233,4.2126629 4.21059547,4.2126629 H 8.224821 c 3.684144,0 4.210596,-0.526255 4.210596,-4.2126629 V 4.7418293 c 0,-3.6864223 -0.526452,-4.21266263 -4.210596,-4.21266263 z M 4.5568278,0.79375 h 3.5863445 c 3.5239637,0 4.0276607,0.5013312 4.0276607,4.0162924 v 2.8153317 c 0,3.5149469 -0.503697,4.0162919 -4.0276607,4.0162919 H 4.5568277 c -3.5239638,0 -4.02766104,-0.501345 -4.02766104,-4.0162919 V 4.8100424 c 0,-3.5149612 0.50369724,-4.0162924 4.02766114,-4.0162924 z" />
</svg>
