<?xml version="1.0" encoding="UTF-8" standalone="no"?>
<!-- Created with Inkscape (http://www.inkscape.org/) -->

<svg
   width="48"
   height="48"
   viewBox="0 0 12.7 12.7"
   version="1.1"
   id="svg5"
   inkscape:version="1.1.2 (0a00cf5339, 2022-02-04)"
   sodipodi:docname="yast-control-center.svg"
   xmlns:inkscape="http://www.inkscape.org/namespaces/inkscape"
   xmlns:sodipodi="http://sodipodi.sourceforge.net/DTD/sodipodi-0.dtd"
   xmlns:xlink="http://www.w3.org/1999/xlink"
   xmlns="http://www.w3.org/2000/svg"
   xmlns:svg="http://www.w3.org/2000/svg">
  <sodipodi:namedview
     id="namedview7"
     pagecolor="#ffffff"
     bordercolor="#666666"
     borderopacity="1.0"
     inkscape:pageshadow="2"
     inkscape:pageopacity="0.0"
     inkscape:pagecheckerboard="0"
     inkscape:document-units="px"
     showgrid="false"
     units="px"
     inkscape:zoom="16.4375"
     inkscape:cx="24"
     inkscape:cy="24"
     inkscape:window-width="1851"
     inkscape:window-height="1016"
     inkscape:window-x="0"
     inkscape:window-y="0"
     inkscape:window-maximized="1"
     inkscape:current-layer="svg5" />
  <defs
     id="defs2">
    <linearGradient
       inkscape:collect="always"
       id="linearGradient1010">
      <stop
         style="stop-color:#c5cfd3;stop-opacity:1"
         offset="0"
         id="stop1006" />
      <stop
         style="stop-color:#8b9fa7;stop-opacity:1"
         offset="1"
         id="stop1008" />
    </linearGradient>
    <linearGradient
       inkscape:collect="always"
       id="linearGradient1871">
      <stop
         style="stop-color:#ffffff;stop-opacity:1;"
         offset="0"
         id="stop1867" />
      <stop
         style="stop-color:#ffffff;stop-opacity:0.1"
         offset="0.12"
         id="stop2515" />
      <stop
         style="stop-color:#ffffff;stop-opacity:0.102"
         offset="0.89999998"
         id="stop2581" />
      <stop
         style="stop-color:#ffffff;stop-opacity:0.502"
         offset="1"
         id="stop1869" />
    </linearGradient>
    <linearGradient
       inkscape:collect="always"
       xlink:href="#linearGradient1871"
       id="linearGradient1873"
       x1="17.222656"
       y1="3.5"
       x2="17.222656"
       y2="44.466438"
       gradientUnits="userSpaceOnUse"
       gradientTransform="matrix(0.26458333,0,0,0.26458333,0,-0.13229166)" />
    <linearGradient
       inkscape:collect="always"
       xlink:href="#linearGradient1010"
       id="linearGradient3600"
       x1="9.4364529"
       y1="11.753696"
       x2="4.4751787"
       y2="0.5291667"
       gradientUnits="userSpaceOnUse" />
    <linearGradient
       inkscape:collect="always"
       xlink:href="#linearGradient1010"
       id="linearGradient1491"
       x1="12.7"
       y1="15.345833"
       x2="12.7"
       y2="-2.1166666"
       gradientUnits="userSpaceOnUse"
       gradientTransform="translate(0.0010334)" />
  </defs>
  <path
     id="rect3143"
     style="opacity:0.1;fill:#000000;fill-opacity:1;stroke-width:0.264583"
     d="m 4.5160033,1.0583334 c -3.60405388,0 -4.1191283,0.5137855 -4.1191283,4.1144775 v 2.883545 c 0,3.6006791 0.51507442,4.1144791 4.1191283,4.1144791 h 3.6679933 c 3.6040544,0 4.1191284,-0.5138 4.1191284,-4.1144791 v -2.883545 c 0,-3.600692 -0.515074,-4.1144775 -4.1191284,-4.1144775 z" />
  <path
     style="display:inline;fill:url(#linearGradient3600);fill-opacity:1;stroke:none;stroke-width:0.0992187;stroke-linecap:round;stroke-linejoin:round;stroke-miterlimit:4;stroke-dasharray:none;stroke-dashoffset:0;stroke-opacity:1;enable-background:new"
     d="m 8.1839962,0.66145835 c 3.6040548,0 4.1191298,0.51378545 4.1191298,4.11447755 v 2.883545 c 0,3.6006781 -0.515075,4.1144781 -4.1191298,4.1144781 H 4.5160033 c -3.604054,0 -4.1191283,-0.5138 -4.1191283,-4.1144781 v -2.883545 c 0,-3.6006921 0.5150743,-4.11447755 4.1191283,-4.11447755 z"
     id="rect877"
     inkscape:connector-curvature="0"
     sodipodi:nodetypes="sssssssss" />
  <path
     id="rect5299"
     style="opacity:0.1;fill:#ffffff;fill-opacity:1;stroke-width:0.264583"
     d="m 0.396875,6.2177083 v 1.4417725 c 0,3.6006782 0.5150744,4.1144772 4.1191283,4.1144772 h 3.6679933 c 3.6040544,0 4.1191284,-0.513799 4.1191284,-4.1144772 V 6.2177083 Z" />
  <path
     id="rect1565"
     style="fill:url(#linearGradient1873);fill-opacity:1;stroke-width:0.264583"
     d="m 4.5568277,0.79374997 c -3.5239635,0 -4.02766104,0.50133123 -4.02766104,4.01629243 v 2.8153318 c 0,3.5149478 0.50369754,4.0162928 4.02766104,4.0162928 h 3.5863445 c 3.5239638,0 4.0276608,-0.501345 4.0276608,-4.0162928 V 4.8100424 c 0,-3.5149612 -0.503697,-4.01629243 -4.0276608,-4.01629243 z m 0.081649,0.26458343 h 3.4230468 c 3.3637835,0 3.8447265,0.4769388 3.8447265,3.8204385 v 2.6778728 c 0,3.3434873 -0.480943,3.8204393 -3.8447265,3.8204393 h -3.423047 c -3.3637834,0 -3.84472651,-0.476952 -3.84472651,-3.8204393 V 4.8787719 c 0,-3.3434997 0.48094311,-3.8204385 3.84472671,-3.8204385 z" />
  <path
     id="rect1370"
     style="opacity:0.4;fill:#000000;fill-opacity:1;stroke-width:0.264583"
     d="m 4.4751788,0.52916667 c -3.68414336,0 -4.21059547,0.52624033 -4.21059547,4.21266273 v 2.9517578 c 0,3.6864088 0.52645211,4.2126628 4.21059547,4.2126628 H 8.224821 c 3.684144,0 4.210596,-0.526254 4.210596,-4.2126628 V 4.7418294 c 0,-3.6864224 -0.526452,-4.21266273 -4.210596,-4.21266273 z m 0.081649,0.2645833 h 3.5863445 c 3.5239637,0 4.0276607,0.50133143 4.0276607,4.01629243 v 2.8153318 c 0,3.5149478 -0.503697,4.0162928 -4.0276607,4.0162928 H 4.5568277 c -3.5239637,0 -4.02766104,-0.501345 -4.02766104,-4.0162928 V 4.8100424 c 0,-3.514961 0.50369724,-4.01629243 4.02766114,-4.01629243 z" />
  <circle
     style="opacity:1;fill:#2f5361;stroke-width:0.264583;stroke-linejoin:round;fill-opacity:1"
     id="path856"
     cx="6.3499999"
     cy="6.3499999"
     r="4.7624998" />
  <path
     id="rect987"
     style="fill:url(#linearGradient1491);fill-opacity:1.0;stroke-width:0.264583;stroke-linejoin:round"
     d="m 6.3510868,2.4675833 c -0.2792087,-0.0031 -0.3767206,0.00759 -0.4159954,0.3451985 l -0.014986,0.1193726 c -0.034462,0.2189588 -0.041402,0.3179037 -0.2485636,0.3715535 -0.013883,0.0031 -0.027528,0.00653 -0.041341,0.00982 -0.0031,6.35e-4 -0.00668,0.00143 -0.00982,0.00206 -0.052138,0.012586 -0.1034185,0.026678 -0.1545125,0.041858 l 5.292e-4,-5.292e-4 c -0.00856,0.00292 -0.0167,0.00522 -0.024805,0.00775 -0.00776,0.00238 -0.015523,0.00429 -0.023254,0.00672 C 5.2101638,3.4297859 5.1551191,3.3475475 5.0152638,3.1745018 l -0.07236,-0.096103 C 4.8414949,2.9420273 4.7685372,2.8837033 4.6907229,2.8773774 c -0.00973,-7.937e-4 -0.020034,-7.673e-4 -0.029972,0 -0.069568,0.00546 -0.1455258,0.048335 -0.250631,0.1105876 C 4.1667643,3.12488 4.0872303,3.1823811 4.2220178,3.4943939 l 0.046509,0.1111044 c 0.085745,0.222722 0.1306177,0.3088614 -0.067179,0.4816245 l 0.00517,-0.00103 c -0.040882,0.038751 -0.080621,0.078488 -0.1193726,0.1193726 l 0.00103,-0.00517 C 3.9154107,4.3980981 3.8292714,4.3532203 3.6065493,4.2674755 L 3.4959617,4.2209668 C 3.3984556,4.1788446 3.3255711,4.1576662 3.267552,4.1558544 3.1399133,4.1518592 3.0831466,4.2417619 2.9890161,4.4090688 2.8467224,4.649319 2.8067118,4.7390349 3.0794499,4.9418529 l 0.096118,0.072347 c 0.1730478,0.1398553 0.255289,0.1949 0.1968873,0.403076 -0.00243,0.00773 -0.00434,0.015497 -0.00672,0.023254 -0.00254,0.00811 -0.00483,0.016245 -0.00775,0.024805 l 5.292e-4,-5.292e-4 c -0.015179,0.051093 -0.029271,0.1028912 -0.041858,0.1550292 -6.35e-4,0.00314 -0.00143,0.0062 -0.00206,0.0093 -0.00329,0.013814 -0.00672,0.027459 -0.00982,0.041341 -0.053658,0.2071643 -0.1525971,0.2135892 -0.3715559,0.2480498 l -0.1193726,0.014986 c -0.3376186,0.039283 -0.3478006,0.1373132 -0.3446947,0.4165219 -0.0031,0.279209 0.00708,0.3767206 0.3446817,0.4159954 L 2.9332075,6.781015 C 3.1521664,6.815477 3.251111,6.8219 3.3047611,7.0290619 c 0.0031,0.013883 0.00653,0.028045 0.00982,0.041858 6.35e-4,0.0031 0.00143,0.00617 0.00206,0.0093 0.012589,0.052138 0.026678,0.1039347 0.041858,0.1550292 l -5.292e-4,-5.292e-4 c 0.00293,0.00856 0.00522,0.016182 0.00775,0.024289 0.00238,0.00776 0.00429,0.015523 0.00672,0.023254 0.058397,0.2081757 -0.023842,0.2632204 -0.1968873,0.403076 l -0.096118,0.072864 C 2.8066986,7.9610183 2.8467097,8.0507393 2.9890031,8.2909894 3.1259184,8.534345 3.1839359,8.6133622 3.4959488,8.4785748 l 0.1105876,-0.046509 c 0.222722,-0.085745 0.3088616,-0.1301009 0.4816245,0.067696 l -0.00103,-0.00517 c 0.038751,0.040883 0.078488,0.080626 0.1193726,0.1193725 l -0.00517,-0.00103 c 0.1978019,0.1727635 0.1529241,0.2589025 0.067179,0.4816245 l -0.046509,0.110588 c -0.1347927,0.312013 -0.055253,0.370025 0.1881021,0.506945 0.2402501,0.142294 0.3299659,0.181788 0.5327841,-0.09095 l 0.072347,-0.0956 c 0.1398556,-0.173048 0.1949,-0.255802 0.403076,-0.197405 0.00773,0.0024 0.015497,0.0049 0.023254,0.0072 0.00811,0.0025 0.016245,0.0048 0.024805,0.0078 l -5.291e-4,-5.29e-4 c 0.051093,0.01518 0.1023744,0.02927 0.1545124,0.04186 0,0 5.292e-4,0 5.292e-4,0 0.00314,6.35e-4 0.0062,0.0014 0.0093,0.0021 0.013814,0.0033 0.027459,0.0062 0.041341,0.0093 0.2071613,0.05365 0.2141032,0.153111 0.2485636,0.37207 l 0.014986,0.119373 c 0.039273,0.3376052 0.1367814,0.3477872 0.4159953,0.3446812 0.2792087,0.0031 0.3767207,-0.0071 0.4159954,-0.3446812 l 0.014986,-0.119373 c 0.034464,-0.218959 0.040885,-0.31842 0.2480469,-0.37207 0.013883,-0.0031 0.028045,-0.006 0.041858,-0.0093 0.0031,-6.62e-4 0.00566,-0.0014 0.00878,-0.0021 0,0 5.292e-4,0 5.292e-4,0 0.052138,-0.01259 0.1039347,-0.02668 0.1550292,-0.04186 l -5.292e-4,5.29e-4 c 0.00856,-0.0029 0.016182,-0.0052 0.024289,-0.0078 0.00776,-0.0024 0.015523,-0.0048 0.023254,-0.0072 0.2081757,-0.0584 0.2632207,0.02436 0.403076,0.197405 l 0.072864,0.0956 c 0.2028129,0.272738 0.2925339,0.232727 0.532784,0.09043 0.2433556,-0.136915 0.3228949,-0.194416 0.1881021,-0.506429 L 8.4331303,9.0945688 C 8.3473855,8.8718468 8.3030297,8.7857078 8.5008263,8.6129445 l -0.00517,0.00103 c 0.040883,-0.038751 0.080626,-0.078488 0.1193726,-0.1193726 l -0.00103,0.00517 C 8.7867626,8.3019691 8.8729019,8.3463302 9.0956242,8.432075 L 9.2062118,8.479101 C 9.5182246,8.6138933 9.5762422,8.534354 9.7131575,8.2909984 9.8554512,8.0507483 9.894945,7.9610323 9.622207,7.7582144 L 9.5266056,7.6853505 C 9.353558,7.5454952 9.2707995,7.4904502 9.3292016,7.2822745 c 0.00243,-0.00773 0.00486,-0.015497 0.00723,-0.023254 0.00254,-0.00811 0.00483,-0.015729 0.00775,-0.024289 l -5.292e-4,5.292e-4 c 0.015179,-0.051094 0.02927,-0.102891 0.041858,-0.1550292 v -5.292e-4 c 6.35e-4,-0.00313 0.00143,-0.00569 0.00206,-0.00878 0.00329,-0.013814 0.00672,-0.027975 0.00982,-0.041858 C 9.4510538,6.8218992 9.5499937,6.8154738 9.7689523,6.7810134 L 9.8883249,6.7660274 C 10.225944,6.7267558 10.236126,6.6292476 10.23302,6.3500336 10.236126,6.0708247 10.225945,5.973313 9.8883386,5.9340382 L 9.768966,5.9190522 C 9.5500075,5.8845897 9.4510625,5.8776505 9.3974125,5.6704886 c -0.00311,-0.01388 -0.00653,-0.027528 -0.00982,-0.041341 -6.615e-4,-0.0031 -0.00143,-0.00616 -0.00206,-0.0093 v -5.32e-4 c -0.012589,-0.052138 -0.02668,-0.1034185 -0.04186,-0.1545125 l 5.292e-4,5.292e-4 c -0.00292,-0.00856 -0.00522,-0.016698 -0.00775,-0.024805 -0.00238,-0.00776 -0.0048,-0.015523 -0.00723,-0.023254 -0.058403,-0.2081757 0.024351,-0.2632204 0.1973976,-0.4030759 l 0.095601,-0.072347 C 9.8949588,4.7390373 9.8554649,4.6493163 9.7131712,4.4090662 9.6190404,4.2417593 9.5622743,4.1518555 9.4346354,4.1558517 c -0.058014,0.00183 -0.130904,0.022987 -0.2284098,0.065112 L 9.095638,4.2674728 C 8.8729001,4.3532182 8.7867605,4.398091 8.6139976,4.2002941 l 0.00103,0.00517 C 8.5762807,4.1645325 8.5365414,4.1248354 8.4956569,4.0860888 l 0.00517,0.00103 C 8.3030223,3.9143578 8.3473834,3.8282182 8.4331282,3.6054962 L 8.4801536,3.4949086 C 8.6149464,3.182896 8.5354074,3.1248782 8.2920516,2.9879629 8.1719239,2.9168162 8.0892627,2.8710547 8.0114485,2.8773753 c -0.077814,0.00632 -0.1507717,0.06465 -0.252181,0.2010214 l -0.072864,0.096118 C 7.5465481,3.3475624 7.4915034,3.4298039 7.2833276,3.3714021 c -0.00773,-0.00243 -0.015497,-0.00434 -0.023254,-0.00672 -0.00811,-0.00254 -0.015729,-0.00483 -0.024289,-0.00775 l 5.292e-4,5.291e-4 c -0.051095,-0.015179 -0.1028909,-0.029271 -0.1550292,-0.041858 0,0 -5.291e-4,0 -5.291e-4,0 -0.00313,-6.35e-4 -0.00569,-0.00143 -0.00878,-0.00206 -0.013811,-0.00329 -0.027976,-0.00672 -0.041858,-0.00982 C 6.8229524,3.2500658 6.816527,3.1511259 6.7820666,2.9321673 L 6.7670806,2.8127947 C 6.7277981,2.4751702 6.6302957,2.4649941 6.3510868,2.4681001 Z m -5.292e-4,1.6045532 c 0,0 5.292e-4,0 5.292e-4,0 0.2622089,1.56e-5 0.5156221,0.045561 0.7524088,0.1286743 a 0.62118874,0.62118874 0 0 0 0.28267,0.3560506 0.62118874,0.62118874 0 0 0 0.4490683,0.066663 c 0.3728892,0.3204655 0.6432439,0.7610894 0.7472413,1.2707232 0.026215,0.128379 -0.072059,0.2485739 -0.2030884,0.2485636 H 7.7385991 C 7.6470101,6.1428188 7.5663291,6.0827851 7.5401616,5.9950165 7.3830994,5.4681967 6.9012521,5.1085089 6.3516035,5.1077323 6.2550346,5.1082615 6.1586405,5.1200751 6.0647994,5.1428722 5.975488,5.1645601 5.882352,5.1247879 5.8363897,5.0452036 L 5.5165124,4.4912323 C 5.4511373,4.3779377 5.5062254,4.2332117 5.6302007,4.1915091 5.8623543,4.1133636 6.1056249,4.0728093 6.35057,4.0721365 Z M 4.9883667,4.5951021 h 5.292e-4 c 0.070256,0.00347 0.1343216,0.042413 0.169499,0.1033526 l 0.319877,0.5534546 c 0.045836,0.079383 0.034111,0.1799569 -0.028939,0.2464967 -0.2180786,0.2301814 -0.339901,0.5345626 -0.3405476,0.8516276 3.704e-4,0.3172566 0.121942,0.6222 0.3400308,0.8526611 0.062999,0.066519 0.074723,0.1666229 0.028939,0.2459799 L 5.1589116,8.0010955 C 5.093433,8.1145142 4.9402208,8.1395475 4.842135,8.0527721 4.4612323,7.7159324 4.2076065,7.2641079 4.1140141,6.77223 A 0.62118874,0.62118874 0 0 0 4.2804121,6.3500336 0.62118874,0.62118874 0 0 0 4.1140141,5.9278372 c 0.093411,-0.4920954 0.346624,-0.9439603 0.7276041,-1.2810588 0.040237,-0.035601 0.093099,-0.054055 0.146761,-0.051676 z m 2.7512534,1.9616372 v 5.292e-4 H 8.3773072 C 8.5083365,6.5572561 8.606615,6.6769364 8.5803955,6.8053154 8.4764294,7.3146539 8.2062707,7.7556087 7.8336713,8.076039 A 0.62118874,0.62118874 0 0 0 7.6822592,8.060019 0.62118874,0.62118874 0 0 0 7.3861532,8.143218 0.62118874,0.62118874 0 0 0 7.1039999,8.4982351 c -0.2368468,0.08346 -0.4905229,0.1288997 -0.7529131,0.1291794 -3.175e-4,8e-7 -6.615e-4,8e-7 -0.00103,0 C 6.1052132,8.626435 5.862154,8.5863988 5.6302022,8.5080414 5.5063733,8.4662333 5.4517231,8.3215297 5.5170307,8.2083182 L 5.8363912,7.6548636 c 0.045964,-0.079585 0.1390984,-0.1193585 0.2284098,-0.097669 0.093903,0.022812 0.190173,0.034623 0.2868041,0.03514 C 6.9014087,7.591779 7.3835711,7.2320256 7.5406799,6.7050504 7.5668469,6.6172814 7.6480452,6.5567287 7.7396341,6.556739 Z" />
  <path
     id="rect1453"
     style="fill:#000000;fill-opacity:1;stroke-width:0.264583;stroke-linejoin:round;opacity:0.1"
     d="m 6.3510868,3.6582083 c -1.2738988,0 -2.3410483,0.8861716 -2.6199951,2.0753255 0.1467546,0.017185 0.2824086,0.086514 0.3829224,0.1948201 0.09341,-0.4920921 0.346636,-0.9445008 0.7276042,-1.2815755 0.040367,-0.035715 0.093439,-0.054198 0.1472779,-0.051676 0.070458,0.0033 0.1342353,0.042267 0.1694987,0.1033526 l 0.319877,0.5539714 C 5.5241079,5.3318084 5.5123829,5.43187 5.4493329,5.4984063 5.231253,5.7285883 5.1094204,6.032935 5.1087854,6.3500339 c 2.645e-4,0.3172579 0.1219324,0.6222384 0.3400308,0.8526611 0.063002,0.06652 0.074724,0.1666219 0.028939,0.2459799 L 5.1589117,8.0010955 C 5.093436,8.1145155 4.9402306,8.1395491 4.842135,8.0527721 4.4612197,7.7159355 4.2076489,7.2640841 4.1140141,6.77223 4.0135056,6.8805359 3.8778569,6.9493461 3.7310917,6.9665334 4.0101178,8.155555 5.0772673,9.0418588 6.3510868,9.0418588 c 0.2699772,0 0.5307434,-0.04015 0.7766968,-0.114205 C 7.0691396,8.7919408 7.0604976,8.6395086 7.1040136,8.498223 6.8671538,8.581692 6.6134718,8.6276476 6.351088,8.6279307 c -2.646e-4,1.1e-6 -7.673e-4,1.1e-6 -0.00103,0 C 6.1052138,8.6269518 5.8621604,8.5863993 5.6302034,8.5080414 5.5063747,8.4662325 5.4517255,8.3215266 5.5170318,8.2083182 L 5.8369091,7.6548636 c 0.045966,-0.079586 0.1385842,-0.1193562 0.227893,-0.097669 0.093905,0.022812 0.1901664,0.034624 0.2868041,0.03514 C 6.9014294,7.5917793 7.3840903,7.2320142 7.5411977,6.7050507 7.567365,6.6172816 7.6480484,6.5572481 7.7396352,6.5572561 h 0.6382039 c 0.1310277,-1.25e-5 0.2287889,0.120184 0.2025718,0.2485636 -0.1039666,0.5093425 -0.374143,0.9497742 -0.7467245,1.2702069 0.1443654,0.032564 0.272637,0.1155385 0.3612182,0.234094 0.5218281,-0.4910335 0.8480075,-1.1874343 0.8480075,-1.960087 0,-0.7728111 -0.3265109,-1.4690534 -0.8485269,-1.960087 C 8.1062252,4.5080682 7.9789009,4.5906156 7.835234,4.6235239 8.2081327,4.943983 8.4784424,5.384614 8.5824752,5.8942476 8.6086952,6.0226271 8.5109312,6.1428244 8.3799036,6.1428112 H 7.7391159 C 7.647529,6.1428188 7.566848,6.0827857 7.5406784,5.9950165 7.3836185,5.4682118 6.9012416,5.1084732 6.3516036,5.1077323 6.2550346,5.1082615 6.1586459,5.1200751 6.0647995,5.1428722 5.9754907,5.1645601 5.882872,5.1247879 5.8369064,5.0452036 L 5.5170292,4.4912323 C 5.4516541,4.377939 5.5062104,4.2332096 5.6302007,4.1915091 5.8623535,4.1133655 6.1055956,4.0728086 6.3505701,4.0721365 h 5.292e-4 c 0.2622092,1.56e-5 0.5156099,0.045562 0.7524088,0.1286743 C 7.0602995,4.0597262 7.0687461,3.9078517 7.1272783,3.7724131 6.8814333,3.698421 6.6209695,3.6582083 6.3510982,3.6582083 Z m 0,1.8634522 A 0.82824065,0.82824065 0 0 1 7.1794602,6.3500336 0.82824065,0.82824065 0 0 1 6.3510868,7.1784067 0.82824065,0.82824065 0 0 1 5.5227137,6.3500336 0.82824065,0.82824065 0 0 1 6.3510868,5.5216605 Z" />
  <path
     id="rect1180"
     style="fill:#8b9fa7;fill-opacity:1;stroke-width:0.264583;stroke-linejoin:round"
     d="M 7.6812383,3.7083344 A 0.31059437,0.31059437 0 0 0 7.4269901,3.8633636 0.31059437,0.31059437 0 0 0 7.5406784,4.2876272 0.31059437,0.31059437 0 0 0 7.964942,4.1739392 0.31059437,0.31059437 0 0 0 7.8512537,3.7496756 0.31059437,0.31059437 0 0 0 7.6812383,3.7083344 Z M 3.6582281,6.0394583 A 0.31059437,0.31059437 0 0 0 3.3476528,6.3500336 0.31059437,0.31059437 0 0 0 3.6582281,6.6606089 0.31059437,0.31059437 0 0 0 3.9688034,6.3500336 0.31059437,0.31059437 0 0 0 3.6582281,6.0394583 Z M 7.6889898,8.3705822 A 0.31059437,0.31059437 0 0 0 7.5406784,8.4119233 0.31059437,0.31059437 0 0 0 7.4269901,8.8361868 0.31059437,0.31059437 0 0 0 7.8512537,8.9498748 0.31059437,0.31059437 0 0 0 7.964942,8.5256113 0.31059437,0.31059437 0 0 0 7.6889898,8.3705822 Z" />
  <circle
     style="fill:#c5cfd3;fill-opacity:1;stroke-width:0.414204;stroke-linejoin:round"
     id="path1113"
     cx="6.3499999"
     cy="6.3499999"
     r="0.82841039" />
</svg>
