<?xml version="1.0" encoding="UTF-8" standalone="no"?>
<!-- Created with Inkscape (http://www.inkscape.org/) -->

<svg
   width="24"
   height="24"
   viewBox="0 0 6.3499999 6.3500002"
   version="1.1"
   id="svg5013"
   sodipodi:docname="accessories-dictionary.svg"
   inkscape:version="1.1.2 (0a00cf5339, 2022-02-04)"
   xmlns:inkscape="http://www.inkscape.org/namespaces/inkscape"
   xmlns:sodipodi="http://sodipodi.sourceforge.net/DTD/sodipodi-0.dtd"
   xmlns:xlink="http://www.w3.org/1999/xlink"
   xmlns="http://www.w3.org/2000/svg"
   xmlns:svg="http://www.w3.org/2000/svg">
  <sodipodi:namedview
     id="namedview5015"
     pagecolor="#ffffff"
     bordercolor="#666666"
     borderopacity="1.0"
     inkscape:pageshadow="2"
     inkscape:pageopacity="0.0"
     inkscape:pagecheckerboard="0"
     inkscape:document-units="px"
     showgrid="false"
     units="px"
     showguides="true"
     inkscape:zoom="26.667397"
     inkscape:cx="12.337162"
     inkscape:cy="12.655904"
     inkscape:window-width="1851"
     inkscape:window-height="1049"
     inkscape:window-x="0"
     inkscape:window-y="0"
     inkscape:window-maximized="1"
     inkscape:current-layer="svg5013" />
  <defs
     id="defs5010">
    <linearGradient
       inkscape:collect="always"
       xlink:href="#linearGradient1871"
       id="linearGradient1873"
       x1="10.572797"
       y1="1.2222221"
       x2="10.805839"
       y2="46.70113"
       gradientUnits="userSpaceOnUse"
       gradientTransform="matrix(0.12026516,0,0,0.11615853,0.28863637,0.38719515)" />
    <linearGradient
       inkscape:collect="always"
       id="linearGradient1871">
      <stop
         style="stop-color:#ffffff;stop-opacity:1;"
         offset="0"
         id="stop1867" />
      <stop
         style="stop-color:#ffffff;stop-opacity:0.1"
         offset="0.12"
         id="stop2515" />
      <stop
         style="stop-color:#ffffff;stop-opacity:0.102"
         offset="0.89999998"
         id="stop2581" />
      <stop
         style="stop-color:#ffffff;stop-opacity:0.502"
         offset="1"
         id="stop1869" />
    </linearGradient>
    <linearGradient
       inkscape:collect="always"
       xlink:href="#linearGradient2290"
       id="linearGradient2292"
       x1="1.9583793"
       y1="0.097477973"
       x2="4.150641"
       y2="8.3691883"
       gradientUnits="userSpaceOnUse"
       gradientTransform="matrix(2.7368992,0,0,2.6596675,0.41379327,0.74074096)" />
    <linearGradient
       inkscape:collect="always"
       id="linearGradient2290">
      <stop
         style="stop-color:#bc1938;stop-opacity:1"
         offset="0"
         id="stop2286" />
      <stop
         style="stop-color:#da1636;stop-opacity:1"
         offset="1"
         id="stop2288" />
    </linearGradient>
  </defs>
  <path
     d="M 1.5275552,0.52916667 C 0.28821992,0.53848667 1.6249999e-8,0.84697669 1.6249999e-8,2.1166667 V 4.7625 C 1.6249999e-8,6.052344 0.29765622,6.35 1.5875,6.35 h 3.175 C 6.0523438,6.35 6.35,6.052344 6.35,4.7625 V 2.1166667 C 6.35,0.82682299 6.0523438,0.52916667 4.7625,0.52916667 h -3.175 c -0.020153,0 -0.040273,-1.48e-4 -0.059945,0 z"
     style="opacity:0.1;fill:#000000;stroke-width:0.264583;stroke-linecap:round;stroke-linejoin:round"
     id="path9125"
     sodipodi:nodetypes="cssssssssc" />
  <path
     id="rect6397"
     style="fill:url(#linearGradient2292);fill-opacity:1;stroke-width:0.688732;stroke-linejoin:round"
     d="m 5.7929687,1.4999999 c -4.2937606,0.032301 -5.29296876,1.1010742 -5.29296876,5.5 V 17 c 0,4.398925 0.99920776,5.467685 5.29296876,5.5 H 5.9999999 18 c 4.46875,0 5.5,-1.031251 5.5,-5.5 V 6.9999999 c 0,-4.4687499 -1.03125,-5.5 -5.5,-5.5 H 5.9999999 c -0.069823,0 -0.138875,-5.129e-4 -0.2070312,0 z"
     sodipodi:nodetypes="cssccsssssc"
     transform="scale(0.26458334)" />
  <path
     id="rect2291"
     style="opacity:0.15;fill:#000000;fill-opacity:1;stroke-width:2;stroke-linecap:round;stroke-linejoin:round"
     d="M 5.7929688 1.5 C 1.4992082 1.5322998 0.5 2.6010743 0.5 7 L 0.5 17 C 0.5 21.398925 1.4992078 22.467685 5.7929688 22.5 L 6 22.5 L 6 1.5 C 5.930177 1.5 5.861125 1.4994871 5.7929688 1.5 z "
     transform="scale(0.26458334)" />
  <path
     id="rect2789"
     style="opacity:0.03;fill:#ffffff;fill-opacity:1;stroke-width:0.529167;stroke-linecap:round;stroke-linejoin:round"
     d="m 0.13229167,4.4979167 c 0,1.1638823 0.2643737,1.4466584 1.40043133,1.4552084 H 1.5875 4.7625001 c 1.1823568,0 1.4552084,-0.2728518 1.4552084,-1.4552084 V 3.175 H 0.13229167 Z"
     sodipodi:nodetypes="cccscccc" />
  <path
     d="m 4.6100329,3.4395834 c -0.1096275,0 -0.2038932,0.00765 -0.2828131,0.022992 -0.076737,0.015346 -0.1337469,0.031787 -0.1710214,0.049326 L 4.1857844,3.699364 C 4.2142884,3.68841 4.2592304,3.674176 4.3206213,3.656636 4.3820123,3.639094 4.4752227,3.630283 4.6002066,3.630283 c 0.087699,0 0.1578319,0.014288 0.2104495,0.042783 0.054814,0.0263 0.096491,0.06251 0.1249945,0.1085506 0.030694,0.043849 0.050401,0.094276 0.059169,0.1512808 0.00878,0.054814 0.01315,0.1117706 0.01315,0.1709685 v 0.1052539 c -0.00878,-0.00439 -0.025215,-0.00876 -0.049326,-0.01315 -0.021934,-0.00659 -0.049324,-0.012065 -0.082211,-0.016431 -0.030694,-0.00659 -0.063571,-0.010954 -0.098652,-0.01315 -0.032888,-0.00439 -0.064659,-0.00659 -0.095359,-0.00659 -0.1030473,0 -0.1984137,0.00984 -0.2861204,0.029586 -0.087699,0.019738 -0.1633617,0.051557 -0.2269411,0.095406 -0.063585,0.041659 -0.112903,0.095353 -0.1479841,0.1611259 -0.035079,0.065778 -0.052626,0.1447085 -0.052626,0.2367914 0,0.09647 0.015346,0.1787208 0.04603,0.2466896 0.032885,0.065773 0.076727,0.1205733 0.1315376,0.1644227 0.057007,0.041656 0.1228143,0.072324 0.1973633,0.092054 0.076737,0.019738 0.1600412,0.029641 0.2499333,0.029641 0.070157,0 0.1381311,-0.00333 0.2039065,-0.0099 0.067969,-0.00439 0.1293521,-0.010954 0.1841658,-0.019738 0.054811,-0.00876 0.1030235,-0.016404 0.1446821,-0.022992 0.041656,-0.00878 0.073483,-0.016457 0.095406,-0.023045 V 4.0677572 c 0,-0.089895 -0.01098,-0.1732492 -0.032885,-0.2499889 C 5.1669543,3.7410338 5.1318706,3.6752743 5.083637,3.6204632 5.0354008,3.5634587 4.9718029,3.5196173 4.8928725,3.4889229 4.8161354,3.4560352 4.7218723,3.439594 4.6100593,3.439594 Z m 0.065767,0.9043723 c 0.092086,0 0.1644306,0.00659 0.2170509,0.019738 0.052618,0.010954 0.090977,0.021934 0.1150937,0.032882 v 0.5985669 c -0.043849,0.00878 -0.097541,0.016404 -0.1611206,0.022992 -0.061391,0.00439 -0.1337389,0.00659 -0.2170509,0.00659 -0.067969,0 -0.1293548,-0.00548 -0.1841659,-0.016431 -0.052618,-0.013176 -0.098671,-0.032911 -0.1381416,-0.059219 -0.037267,-0.0263 -0.066879,-0.061352 -0.088805,-0.105201 -0.019738,-0.043852 -0.029588,-0.097597 -0.029588,-0.1611789 0,-0.07235 0.015346,-0.1304713 0.04603,-0.1743181 0.030694,-0.043849 0.07016,-0.077787 0.1183931,-0.1019069 0.048236,-0.0263 0.100875,-0.042799 0.1578795,-0.049376 0.057004,-0.00878 0.1118023,-0.01315 0.1644227,-0.01315 z"
     style="fill:#fa9381;stroke-width:0.264583;enable-background:new"
     id="path917" />
  <path
     id="rect5096"
     style="opacity:0.4;stroke-width:0.240954;stroke-linecap:round;stroke-linejoin:round"
     d="M 1.5276195,0.26458333 C 0.28828403,0.27390666 6.4159692e-5,0.58239335 6.4159692e-5,1.8520834 v 2.6458333 c 0,1.2898438 0.297656260308,1.5875001 1.587500040308,1.5875001 h 3.1749359 c 1.2898438,0 1.5875,-0.2976563 1.5875,-1.5875001 V 1.8520834 c 0,-1.28984381 -0.2976562,-1.58750007 -1.5875,-1.58750007 H 1.5875642 c -0.020154,0 -0.040273,-1.4798e-4 -0.059945,0 z m 0.032556,0.26458334 c 0.018033,-1.3565e-4 0.036303,0 0.054777,0 h 3.1475474 c 1.1823568,0 1.3229167,0.29315998 1.3229167,1.32291673 v 2.6458333 c 0,1.0162919 -0.1405599,1.3229167 -1.3229167,1.3229167 H 1.5875642 c -0.99193699,0 -1.3229167,-0.1405599 -1.3229167,-1.3229167 V 1.8520834 c 0,-0.96076805 0.15947068,-1.31437034 1.295528,-1.32291673 z"
     sodipodi:nodetypes="csssssssscssssssssss" />
  <path
     id="rect1565"
     style="fill:url(#linearGradient1873);fill-opacity:1;stroke-width:0.118194;opacity:0.3"
     d="M 1.5601116,0.52916667 C 0.42405397,0.53771668 0.26458335,0.89131535 0.26458335,1.8520833 v 2.6458334 c 0,1.1823568 0.33097974,1.3229167 1.32291675,1.3229167 h 3.1749976 c 1.1823568,0 1.3229167,-0.3066248 1.3229167,-1.3229167 V 1.8520833 c 0,-1.02975655 -0.1405599,-1.32291663 -1.3229167,-1.32291663 H 1.6148886 c -0.018473,0 -0.036744,-1.356e-4 -0.054777,0 z m 0.00259,0.26458338 c 0.016229,0 0.032983,0 0.049609,0 h 3.0179001 c 1.0641211,0 1.190625,0.1430056 1.190625,1.05833325 v 2.6458334 c 0,0.8938382 -0.1265039,1.0583334 -1.190625,1.0583334 h -2.910419 c -1.02290214,0 -1.19062501,-0.1576914 -1.19062501,-1.0583334 V 1.8520833 c 0,-0.85400515 0.1411647,-1.05833325 1.03352871,-1.05833325 z"
     sodipodi:nodetypes="csssssssscsssssssssss" />
</svg>
