<?xml version="1.0" encoding="UTF-8" standalone="no"?>
<!-- Created with Inkscape (http://www.inkscape.org/) -->

<svg
   width="24"
   height="24"
   viewBox="0 0 6.3499999 6.3500002"
   version="1.1"
   id="svg5013"
   sodipodi:docname="applications-accessories.svg"
   inkscape:version="1.1.2 (0a00cf5339, 2022-02-04)"
   xmlns:inkscape="http://www.inkscape.org/namespaces/inkscape"
   xmlns:sodipodi="http://sodipodi.sourceforge.net/DTD/sodipodi-0.dtd"
   xmlns:xlink="http://www.w3.org/1999/xlink"
   xmlns="http://www.w3.org/2000/svg"
   xmlns:svg="http://www.w3.org/2000/svg">
  <sodipodi:namedview
     id="namedview5015"
     pagecolor="#ffffff"
     bordercolor="#666666"
     borderopacity="1.0"
     inkscape:pageshadow="2"
     inkscape:pageopacity="0.0"
     inkscape:pagecheckerboard="0"
     inkscape:document-units="px"
     showgrid="false"
     units="px"
     showguides="false"
     inkscape:zoom="16.125"
     inkscape:cx="7.2248062"
     inkscape:cy="17.550388"
     inkscape:window-width="1851"
     inkscape:window-height="1053"
     inkscape:window-x="0"
     inkscape:window-y="0"
     inkscape:window-maximized="1"
     inkscape:current-layer="svg5013" />
  <defs
     id="defs5010">
    <linearGradient
       inkscape:collect="always"
       xlink:href="#linearGradient1871"
       id="linearGradient1873"
       x1="11.046622"
       y1="2.3372049"
       x2="10.794909"
       y2="47.930588"
       gradientUnits="userSpaceOnUse"
       gradientTransform="matrix(0.12026516,0,0,0.11615853,0.28863637,0.25496375)" />
    <linearGradient
       inkscape:collect="always"
       id="linearGradient1871">
      <stop
         style="stop-color:#ffffff;stop-opacity:1;"
         offset="0"
         id="stop1867" />
      <stop
         style="stop-color:#ffffff;stop-opacity:0.1"
         offset="0.12"
         id="stop2515" />
      <stop
         style="stop-color:#ffffff;stop-opacity:0.102"
         offset="0.89999998"
         id="stop2581" />
      <stop
         style="stop-color:#ffffff;stop-opacity:0.502"
         offset="1"
         id="stop1869" />
    </linearGradient>
  </defs>
  <path
     d="M 1.5275554,0.79381578 C 0.28822009,0.80313578 1.9010417e-7,1.1116258 1.9010417e-7,2.3813158 v 2.381217 c 0,1.289844 0.29765619989583,1.5875 1.58750000989583,1.5875 h 3.1749977 c 1.2898438,0 1.5875,-0.297656 1.5875,-1.5875 v -2.381217 c 0,-1.2898437 -0.2976562,-1.58750002 -1.5875,-1.58750002 H 1.5875002 c -0.020153,0 -0.040273,-1.48e-4 -0.059945,0 z"
     style="opacity:0.1;fill:#000000;stroke-width:0.264583;stroke-linecap:round;stroke-linejoin:round"
     id="path9125"
     sodipodi:nodetypes="cssssssssc" />
  <path
     id="rect7669"
     style="fill:#808080;stroke-width:0.264583;stroke-linecap:round;stroke-linejoin:round"
     d="M 1.7973064,0.66145835 C 0.66124888,0.67000474 0.39687501,0.95278432 0.39687501,2.1166667 v 2.1166667 c 0,1.1638823 0.26437379,1.4466584 1.40043139,1.4552084 h 0.054777 2.6458334 c 1.1823568,0 1.4552083,-0.2728518 1.4552083,-1.4552084 V 2.1166667 c 0,-1.1823567 -0.2728515,-1.45520835 -1.4552083,-1.45520835 H 1.8520834 c -0.018474,0 -0.036744,-1.3565e-4 -0.054777,0 z" />
  <path
     id="rect6397"
     style="fill:#f7f7f7;fill-opacity:1;stroke-width:0.182227;stroke-linejoin:round"
     d="M 1.532723,0.39693532 C 0.39666551,0.40548163 0.13229168,0.68826121 0.13229168,1.8521437 v 2.6458334 c 0,1.1638823 0.26437373,1.4466584 1.40043132,1.4552084 H 1.5875 4.7624975 c 1.1823568,0 1.4552083,-0.2728518 1.4552083,-1.4552084 V 1.8521437 c 0,-1.18235679 -0.2728515,-1.45520838 -1.4552083,-1.45520838 H 1.5875 c -0.018474,0 -0.036744,-1.3571e-4 -0.054777,0 z"
     sodipodi:nodetypes="cssccsssssc" />
  <path
     d="m 0.52916667,1.0583333 v 4.267683 c 0,0.3879636 0.38796386,0.3879636 0.38796386,0.3879636 H 5.9606993 Z M 1.4990863,3.1671711 3.338479,4.7441015 H 1.4990863 Z"
     style="opacity:0.1;fill:#000000;stroke-width:0.0700042"
     id="path945" />
  <path
     d="M 0.52916667,0.79375001 V 5.0614329 c 0,0.3879635 0.38796387,0.3879635 0.38796387,0.3879635 H 5.9606994 Z M 1.4990863,2.9025876 3.338479,4.479518 H 1.4990863 Z"
     style="fill:#6ebc2a;stroke-width:0.264583"
     id="path879"
     sodipodi:nodetypes="csccccccc" />
  <path
     id="path971-3"
     style="opacity:0.1;isolation:isolate;fill:#1a1a1a;stroke-width:0.301069"
     d="M 2.7476359,1.5875 V 2.0866944 H 2.4980387 c -0.249502,0 -0.2490804,0.2397787 -0.2490804,0.2397787 V 3.3191774 L 2.2934,3.3631024 1.4877644,4.758366 1.4552082,5.2968344 1.90531,4.9996949 2.1456054,4.583183 c 0.2700386,0.140049 0.5704795,0.214407 0.876949,0.214974 0.3176956,0 0.616929,-0.07743 0.8805664,-0.2144573 L 4.1434162,4.9996949 4.593518,5.2963177 4.5609618,4.758366 4.3010296,4.3077475 C 4.6902155,3.9576712 4.9350993,3.4503872 4.9350993,2.8856121 4.9343056,2.8578731 4.9325485,2.8300961 4.9304485,2.802413 H 4.4333213 c 0.00185,0.027684 0.00294,0.05546 0.0031,0.083199 0,0.379255 -0.1496443,0.7232761 -0.3927409,0.9772012 L 3.735689,3.3289957 3.745509,3.3191757 V 2.3264731 c 0,-0.2451181 -0.2495971,-0.2397787 -0.2495971,-0.2397787 H 3.2468301 V 1.5875 Z m 0.6325196,2.0903119 0.2733683,0.4728393 c -0.1900095,0.094975 -0.4041193,0.1488281 -0.6309694,0.1488281 -0.2203127,0 -0.4341296,-0.052953 -0.6268351,-0.1488281 l 0.2532146,-0.4387329 0.098702,0.097151 c 0.1657535,0.1315802 0.3454448,0.1531067 0.4991942,0 z" />
  <path
     d="M 3.2348413,2.3285195 2.8171436,2.569674 4.1435793,4.8671305 4.5935826,5.1642576 4.5612638,4.6259363 Z"
     style="isolation:isolate;fill:#e4e4e4;stroke-width:0.301069"
     id="path971" />
  <path
     id="path56"
     style="isolation:isolate;fill:#ffffff;fill-opacity:1;stroke-width:0.264583"
     d="M 2.8142985,2.3283334 1.4877645,4.6258678 1.4552083,5.1643361 1.90531,4.8671966 2.1456054,4.4506845 c 0.2700386,0.140049 0.5704795,0.214407 0.8769491,0.214974 1.0563754,0 1.9125449,-0.8561428 1.9125449,-1.9125447 -7.938e-4,-0.027739 -0.00204,-0.055516 -0.00414,-0.083199 H 4.43332 c 0.00185,0.027684 0.00294,0.05546 0.0031,0.083199 0,0.7808119 -0.6330818,1.4138672 -1.4138672,1.4138672 -0.2203128,0 -0.4341297,-0.052953 -0.6268351,-0.1488281 L 3.2318441,2.5696624 Z" />
  <path
     d="M 2.7479308,1.4552083 V 1.9541861 H 2.4984604 c -0.249502,0 -0.249502,0.2398051 -0.249502,0.2398051 V 3.186655 l 0.4989777,0.4901935 c 0.1657535,0.13158 0.3452548,0.1531065 0.4990042,0 L 3.745918,3.186655 V 2.1939912 c 0,-0.245118 -0.2494995,-0.2398051 -0.2494995,-0.2398051 H 3.2469456 V 1.4552083 Z"
     style="isolation:isolate;fill:#4f4f4f;stroke-width:0.301069"
     id="path1113" />
  <path
     id="rect5096"
     style="opacity:0.4;stroke-width:0.240954;stroke-linecap:round;stroke-linejoin:round"
     d="M 1.5275554,0.26458333 C 0.28821988,0.27390666 1.0104166e-8,0.58239335 1.0104166e-8,1.8520834 V 4.4978839 C 1.0104166e-8,5.7877277 0.29765627,6.085384 1.5875001,6.085384 h 3.1749975 c 1.2898438,0 1.5875,-0.2976563 1.5875,-1.5875001 V 1.8520834 c 0,-1.28984381 -0.2976562,-1.58750007 -1.5875,-1.58750007 H 1.5875001 c -0.020154,0 -0.040273,-1.4798e-4 -0.059945,0 z m 0.032556,0.26458334 c 0.018033,-1.3565e-4 0.036303,0 0.054777,0 h 3.147609 c 1.1823568,0 1.3229167,0.29315998 1.3229167,1.32291673 v 2.6458005 c 0,1.0162919 -0.1405599,1.3229167 -1.3229167,1.3229167 H 1.5875001 c -0.99193704,0 -1.32291675,-0.1405599 -1.32291675,-1.3229167 V 1.8520834 c 0,-0.96076805 0.15947068,-1.31437034 1.29552805,-1.32291673 z"
     sodipodi:nodetypes="csssssssscssssssssss" />
  <path
     id="rect1565"
     style="fill:url(#linearGradient1873);fill-opacity:1;stroke-width:0.118194"
     d="M 1.5601116,0.52922694 C 0.42405397,0.53777695 0.26458335,0.8913756 0.26458335,1.8521436 V 4.497977 c 0,1.1823568 0.33097974,1.3229167 1.32291675,1.3229167 h 3.1749975 c 1.1823568,0 1.3229167,-0.3066248 1.3229167,-1.3229167 V 1.8521436 c 0,-1.02975658 -0.1405599,-1.32291666 -1.3229167,-1.32291666 h -3.147609 c -0.018473,0 -0.036744,-1.356e-4 -0.054777,0 z m 0.00259,0.26458338 h 0.049609 3.0179 c 1.0641211,0 1.190625,0.14300558 1.190625,1.05833328 V 4.497977 c 0,0.8938382 -0.1265039,1.0583334 -1.190625,1.0583334 H 1.7197917 c -1.02290214,0 -1.19062501,-0.1576914 -1.19062501,-1.0583334 V 1.8521436 c 0,-0.8540052 0.14116471,-1.05833328 1.03352871,-1.05833328 z"
     sodipodi:nodetypes="csssssssscsssssssssss" />
  <circle
     style="fill:#000000;stroke-width:0.287073;opacity:0.1"
     id="path1000"
     cx="2.9897916"
     cy="2.778125"
     r="0.26458335" />
  <circle
     style="fill:#ffffff;stroke-width:0.287073"
     id="path874"
     cx="2.9897916"
     cy="2.6458333"
     r="0.26458335" />
</svg>
