<?xml version="1.0" encoding="UTF-8" standalone="no"?>
<!-- Created with Inkscape (http://www.inkscape.org/) -->

<svg
   width="24"
   height="24"
   viewBox="0 0 6.3499999 6.3500002"
   version="1.1"
   id="svg5013"
   sodipodi:docname="dcinside.svg"
   inkscape:version="1.1.2 (0a00cf5339, 2022-02-04)"
   xmlns:inkscape="http://www.inkscape.org/namespaces/inkscape"
   xmlns:sodipodi="http://sodipodi.sourceforge.net/DTD/sodipodi-0.dtd"
   xmlns:xlink="http://www.w3.org/1999/xlink"
   xmlns="http://www.w3.org/2000/svg"
   xmlns:svg="http://www.w3.org/2000/svg">
  <sodipodi:namedview
     id="namedview5015"
     pagecolor="#ffffff"
     bordercolor="#666666"
     borderopacity="1.0"
     inkscape:pageshadow="2"
     inkscape:pageopacity="0.0"
     inkscape:pagecheckerboard="0"
     inkscape:document-units="px"
     showgrid="false"
     units="px"
     showguides="false"
     inkscape:zoom="33"
     inkscape:cx="11.984848"
     inkscape:cy="12"
     inkscape:window-width="1920"
     inkscape:window-height="1010"
     inkscape:window-x="0"
     inkscape:window-y="0"
     inkscape:window-maximized="1"
     inkscape:current-layer="svg5013" />
  <defs
     id="defs5010">
    <linearGradient
       inkscape:collect="always"
       xlink:href="#linearGradient1871"
       id="linearGradient1873"
       x1="11.046622"
       y1="2.3372049"
       x2="10.794909"
       y2="47.930588"
       gradientUnits="userSpaceOnUse"
       gradientTransform="matrix(0.12026516,0,0,0.11615853,0.28863637,0.25496375)" />
    <linearGradient
       inkscape:collect="always"
       id="linearGradient1871">
      <stop
         style="stop-color:#ffffff;stop-opacity:1;"
         offset="0"
         id="stop1867" />
      <stop
         style="stop-color:#ffffff;stop-opacity:0.1"
         offset="0.12"
         id="stop2515" />
      <stop
         style="stop-color:#ffffff;stop-opacity:0.102"
         offset="0.89999998"
         id="stop2581" />
      <stop
         style="stop-color:#ffffff;stop-opacity:0.502"
         offset="1"
         id="stop1869" />
    </linearGradient>
  </defs>
  <path
     d="M 1.5275554,0.79381578 C 0.28822009,0.80313578 1.9010417e-7,1.1116258 1.9010417e-7,2.3813158 v 2.381217 c 0,1.289844 0.29765619989583,1.5875 1.58750000989583,1.5875 h 3.1749977 c 1.2898438,0 1.5875,-0.297656 1.5875,-1.5875 v -2.381217 c 0,-1.2898437 -0.2976562,-1.58750002 -1.5875,-1.58750002 H 1.5875002 c -0.020153,0 -0.040273,-1.48e-4 -0.059945,0 z"
     style="opacity:0.1;fill:#000000;stroke-width:0.264583;stroke-linecap:round;stroke-linejoin:round"
     id="path9125"
     sodipodi:nodetypes="cssssssssc" />
  <path
     id="rect7669"
     style="fill:#808080;stroke-width:0.264583;stroke-linecap:round;stroke-linejoin:round"
     d="M 1.7973064,0.66145835 C 0.66124888,0.67000474 0.39687501,0.95278432 0.39687501,2.1166667 v 2.1166667 c 0,1.1638823 0.26437379,1.4466584 1.40043139,1.4552084 h 0.054777 2.6458334 c 1.1823568,0 1.4552083,-0.2728518 1.4552083,-1.4552084 V 2.1166667 c 0,-1.1823567 -0.2728515,-1.45520835 -1.4552083,-1.45520835 H 1.8520834 c -0.018474,0 -0.036744,-1.3565e-4 -0.054777,0 z" />
  <path
     id="rect6397"
     style="fill:#3b468f;fill-opacity:1;stroke-width:0.182227;stroke-linejoin:round"
     d="M 1.532723,0.39693532 C 0.39666551,0.40548163 0.13229168,0.68826121 0.13229168,1.8521437 v 2.6458334 c 0,1.1638823 0.26437373,1.4466584 1.40043132,1.4552084 H 1.5875 4.7624975 c 1.1823568,0 1.4552083,-0.2728518 1.4552083,-1.4552084 V 1.8521437 c 0,-1.18235679 -0.2728515,-1.45520838 -1.4552083,-1.45520838 H 1.5875 c -0.018474,0 -0.036744,-1.3571e-4 -0.054777,0 z"
     sodipodi:nodetypes="cssccsssssc" />
  <path
     id="path4-3"
     style="fill:#ffffff;fill-opacity:1;stroke:none;stroke-width:0.00548414;stroke-miterlimit:4;stroke-dasharray:none"
     d="m 2.3093309,1.5875 c 0.097883,0.3285867 0.036174,0.6575203 0.046264,0.9842883 -0.024026,-0.03479 -0.04009,-0.071142 -0.059822,-0.1055552 C 2.2594685,2.4028988 2.2133965,2.3493692 2.1447518,2.317606 1.9442056,2.2248092 1.7441669,2.1304574 1.5438639,2.0371037 1.4851535,2.0097517 1.424408,1.9893053 1.359344,1.9828637 1.2553039,1.9725597 1.1755967,2.0143517 1.1269643,2.1072956 c -0.035656,0.068132 -0.052592,0.1421648 -0.0553,0.2180224 -0.010992,0.3076662 -0.018454,0.6158118 -0.00904,0.923402 0.00917,0.2994004 0.1226272,0.5528035 0.3940341,0.7043171 0.2378596,0.1327583 0.4910827,0.2360997 0.7380835,0.3512276 0.04612,0.021494 0.086832,0.0084 0.1169872,-0.032706 0.01674,-0.022826 0.031938,-0.046634 0.052378,-0.07684 0.021226,0.060502 0.026704,0.1153663 0.035096,0.1693661 0.00438,0.02811 0.015264,0.045138 0.042276,0.057696 0.2338169,0.1085344 0.4671928,0.2180544 0.6997962,0.3291605 0.029346,0.014 0.04634,0.00522 0.068064,-0.011696 0.1337968,-0.1041519 0.2682851,-0.207289 0.4025425,-0.3108139 0.028488,-0.021974 0.056978,-0.044342 0.085346,-0.06647 -0.00113,-0.00342 -0.00232,-0.00672 -0.00346,-0.010096 -0.02664,0.00156 -0.053576,0.00186 -0.08003,0.00504 -0.099618,0.011936 -0.1945778,-0.00552 -0.2860836,-0.044134 -0.054243,-0.02288 -0.1065312,-0.051459 -0.161652,-0.071776 -0.042254,-0.015584 -0.050968,-0.040514 -0.050518,-0.082957 0.00778,-0.7077652 0.013296,-1.4155541 0.021546,-2.123319 5.536e-4,-0.048322 -0.014656,-0.070488 -0.057702,-0.090128 C 2.8397916,1.8352183 2.601866,1.722394 2.3633051,1.6108964 2.3473211,1.6034404 2.3309611,1.5968324 2.3093291,1.5875092 Z m 1.471913,0.8787341 c -0.1556063,-0.00742 -0.2986855,0.040202 -0.4262061,0.1581984 -0.04593,0.042498 -0.09436,0.082646 -0.1438399,0.1209759 -0.027248,0.02112 -0.037742,0.043784 -0.03749,0.078966 0.00168,0.2431744 5.8e-4,0.4863753 0.00106,0.7295757 2.18e-5,0.01352 -0.00622,0.02907 0.00904,0.043872 0.015824,-0.012224 0.031518,-0.023974 0.046794,-0.036424 0.1570912,-0.1279839 0.3141399,-0.2561105 0.4711416,-0.3841978 0.047226,-0.03853 0.097192,-0.072808 0.151816,-0.1002384 0.091742,-0.046088 0.1824142,-0.047684 0.2757175,-0.0016 0.1501424,0.074182 0.3020808,0.1449904 0.4527941,0.218022 0.03468,0.0168 0.068906,0.034946 0.1010352,0.056102 0.058056,0.038226 0.090152,0.091259 0.081624,0.1635161 -0.00502,0.01384 -0.00624,0.025334 0.01408,0.024986 0.1623221,-0.130272 0.3237723,-0.2614813 0.4876305,-0.389781 0.04116,-0.032214 0.027702,-0.0404 -0.00984,-0.05796 C 4.8847552,2.9164873 4.5136381,2.7412899 4.1422896,2.5664711 4.0772258,2.5358535 4.0105234,2.5096215 3.940753,2.4914935 3.8861787,2.4773175 3.8330939,2.4686935 3.7812251,2.4662391 Z M 1.8685017,2.6013029 c 0.0181,-0.010496 0.044578,-0.00646 0.08189,0.01064 0.098672,0.045222 0.1960719,0.09275 0.2948612,0.1377263 0.071702,0.032626 0.1076496,0.089171 0.1084784,0.165376 0.00159,0.143616 -0.0012,0.2873465 -8e-4,0.4309919 7.63e-5,0.025706 -0.015456,0.03992 -0.029778,0.056366 -0.112104,0.12904 -0.1951899,0.271999 -0.2124409,0.4458808 -0.0031,0.031134 -0.015936,0.02616 -0.035096,0.01702 C 2.0374204,3.8470839 1.9999784,3.8266819 1.96049,3.8118619 1.861594,3.7746959 1.8252517,3.7004332 1.8259557,3.6002209 c 0.00103,-0.1473264 0.00894,-0.7257631 0.00904,-0.8675675 1.64e-5,-0.0184 -1.904e-4,-0.036752 0.00158,-0.055038 0.00398,-0.040686 0.013824,-0.065808 0.031906,-0.076306 z" />
  <path
     id="rect5096"
     style="opacity:0.4;stroke-width:0.240954;stroke-linecap:round;stroke-linejoin:round"
     d="M 1.5275554,0.26458333 C 0.28821988,0.27390666 1.0104166e-8,0.58239335 1.0104166e-8,1.8520834 V 4.4978839 C 1.0104166e-8,5.7877277 0.29765627,6.085384 1.5875001,6.085384 h 3.1749975 c 1.2898438,0 1.5875,-0.2976563 1.5875,-1.5875001 V 1.8520834 c 0,-1.28984381 -0.2976562,-1.58750007 -1.5875,-1.58750007 H 1.5875001 c -0.020154,0 -0.040273,-1.4798e-4 -0.059945,0 z m 0.032556,0.26458334 c 0.018033,-1.3565e-4 0.036303,0 0.054777,0 h 3.147609 c 1.1823568,0 1.3229167,0.29315998 1.3229167,1.32291673 v 2.6458005 c 0,1.0162919 -0.1405599,1.3229167 -1.3229167,1.3229167 H 1.5875001 c -0.99193704,0 -1.32291675,-0.1405599 -1.32291675,-1.3229167 V 1.8520834 c 0,-0.96076805 0.15947068,-1.31437034 1.29552805,-1.32291673 z"
     sodipodi:nodetypes="csssssssscssssssssss" />
  <path
     id="rect1565"
     style="fill:url(#linearGradient1873);fill-opacity:1;stroke-width:0.118194"
     d="M 1.5601116,0.52922694 C 0.42405397,0.53777695 0.26458335,0.8913756 0.26458335,1.8521436 V 4.497977 c 0,1.1823568 0.33097974,1.3229167 1.32291675,1.3229167 h 3.1749975 c 1.1823568,0 1.3229167,-0.3066248 1.3229167,-1.3229167 V 1.8521436 c 0,-1.02975658 -0.1405599,-1.32291666 -1.3229167,-1.32291666 h -3.147609 c -0.018473,0 -0.036744,-1.356e-4 -0.054777,0 z m 0.00259,0.26458338 h 0.049609 3.0179 c 1.0641211,0 1.190625,0.14300558 1.190625,1.05833328 V 4.497977 c 0,0.8938382 -0.1265039,1.0583334 -1.190625,1.0583334 H 1.7197917 c -1.02290214,0 -1.19062501,-0.1576914 -1.19062501,-1.0583334 V 1.8521436 c 0,-0.8540052 0.14116471,-1.05833328 1.03352871,-1.05833328 z"
     sodipodi:nodetypes="csssssssscsssssssssss" />
</svg>
