<?xml version="1.0" encoding="UTF-8" standalone="no"?>
<!-- Created with Inkscape (http://www.inkscape.org/) -->

<svg
   width="24"
   height="24"
   viewBox="0 0 6.3499999 6.3500002"
   version="1.1"
   id="svg5013"
   sodipodi:docname="deepin-cloud-scan-config-helper.svg"
   inkscape:version="1.1.2 (0a00cf5339, 2022-02-04)"
   xmlns:inkscape="http://www.inkscape.org/namespaces/inkscape"
   xmlns:sodipodi="http://sodipodi.sourceforge.net/DTD/sodipodi-0.dtd"
   xmlns:xlink="http://www.w3.org/1999/xlink"
   xmlns="http://www.w3.org/2000/svg"
   xmlns:svg="http://www.w3.org/2000/svg">
  <sodipodi:namedview
     id="namedview5015"
     pagecolor="#ffffff"
     bordercolor="#666666"
     borderopacity="1.0"
     inkscape:pageshadow="2"
     inkscape:pageopacity="0.0"
     inkscape:pagecheckerboard="0"
     inkscape:document-units="px"
     showgrid="false"
     units="px"
     showguides="true"
     inkscape:zoom="32.25"
     inkscape:cx="11.984496"
     inkscape:cy="11.984496"
     inkscape:window-width="1851"
     inkscape:window-height="1016"
     inkscape:window-x="0"
     inkscape:window-y="0"
     inkscape:window-maximized="1"
     inkscape:current-layer="svg5013" />
  <defs
     id="defs5010">
    <linearGradient
       inkscape:collect="always"
       xlink:href="#linearGradient1871"
       id="linearGradient1873"
       x1="11.046622"
       y1="2.3372049"
       x2="10.794909"
       y2="47.930588"
       gradientUnits="userSpaceOnUse"
       gradientTransform="matrix(0.12026516,0,0,0.11615853,0.28863637,0.25496375)" />
    <linearGradient
       inkscape:collect="always"
       id="linearGradient1871">
      <stop
         style="stop-color:#ffffff;stop-opacity:1;"
         offset="0"
         id="stop1867" />
      <stop
         style="stop-color:#ffffff;stop-opacity:0.1"
         offset="0.12"
         id="stop2515" />
      <stop
         style="stop-color:#ffffff;stop-opacity:0.102"
         offset="0.89999998"
         id="stop2581" />
      <stop
         style="stop-color:#ffffff;stop-opacity:0.502"
         offset="1"
         id="stop1869" />
    </linearGradient>
    <linearGradient
       inkscape:collect="always"
       xlink:href="#linearGradient2290"
       id="linearGradient2292"
       x1="1.9582907"
       y1="0.28538564"
       x2="6.4769249"
       y2="8.5555315"
       gradientUnits="userSpaceOnUse"
       gradientTransform="matrix(0.72413793,0,0,0.70370371,0.10948281,0.06375639)" />
    <linearGradient
       inkscape:collect="always"
       id="linearGradient2290">
      <stop
         style="stop-color:#e8e8e8;stop-opacity:1"
         offset="0"
         id="stop2286" />
      <stop
         style="stop-color:#f5f5f5;stop-opacity:1"
         offset="1"
         id="stop2288" />
    </linearGradient>
    <linearGradient
       inkscape:collect="always"
       xlink:href="#linearGradient1312"
       id="linearGradient1314"
       x1="11.112501"
       y1="8.9958324"
       x2="11.112501"
       y2="5.5562491"
       gradientUnits="userSpaceOnUse"
       gradientTransform="matrix(0.75862068,0,0,0.30769232,-0.33757186,0.67163456)" />
    <linearGradient
       inkscape:collect="always"
       id="linearGradient1312">
      <stop
         style="stop-color:#ff0000;stop-opacity:1;"
         offset="0"
         id="stop1308" />
      <stop
         style="stop-color:#ff0000;stop-opacity:0;"
         offset="1"
         id="stop1310" />
    </linearGradient>
    <linearGradient
       inkscape:collect="always"
       xlink:href="#linearGradient1312"
       id="linearGradient2416"
       x1="11.641667"
       y1="7.4083328"
       x2="11.641667"
       y2="8.9958334"
       gradientUnits="userSpaceOnUse"
       gradientTransform="matrix(0.7586207,0,0,0.66666665,-0.33757176,-1.2347219)" />
  </defs>
  <path
     d="M 1.5275554,0.79381578 C 0.28822009,0.80313578 1.9010417e-7,1.1116258 1.9010417e-7,2.3813158 v 2.381217 c 0,1.289844 0.29765619989583,1.5875 1.58750000989583,1.5875 h 3.1749977 c 1.2898438,0 1.5875,-0.297656 1.5875,-1.5875 v -2.381217 c 0,-1.2898437 -0.2976562,-1.58750002 -1.5875,-1.58750002 H 1.5875002 c -0.020153,0 -0.040273,-1.48e-4 -0.059945,0 z"
     style="opacity:0.1;fill:#000000;stroke-width:0.264583;stroke-linecap:round;stroke-linejoin:round"
     id="path9125"
     sodipodi:nodetypes="cssssssssc" />
  <path
     id="rect7669"
     style="fill:#808080;stroke-width:0.264583;stroke-linecap:round;stroke-linejoin:round"
     d="M 1.7973064,0.66145835 C 0.66124888,0.67000474 0.39687501,0.95278432 0.39687501,2.1166667 v 2.1166667 c 0,1.1638823 0.26437379,1.4466584 1.40043139,1.4552084 h 0.054777 2.6458334 c 1.1823568,0 1.4552083,-0.2728518 1.4552083,-1.4552084 V 2.1166667 c 0,-1.1823567 -0.2728515,-1.45520835 -1.4552083,-1.45520835 H 1.8520834 c -0.018474,0 -0.036744,-1.3565e-4 -0.054777,0 z" />
  <path
     id="rect6397"
     style="fill:url(#linearGradient2292);fill-opacity:1;stroke-width:0.182227;stroke-linejoin:round"
     d="M 1.532723,0.39693532 C 0.39666551,0.40548163 0.13229168,0.68826121 0.13229168,1.8521437 v 2.6458334 c 0,1.1638823 0.26437373,1.4466584 1.40043132,1.4552084 H 1.5875 4.7624975 c 1.1823568,0 1.4552083,-0.2728518 1.4552083,-1.4552084 V 1.8521437 c 0,-1.18235679 -0.2728515,-1.45520838 -1.4552083,-1.45520838 H 1.5875 c -0.018474,0 -0.036744,-1.3571e-4 -0.054777,0 z"
     sodipodi:nodetypes="cssccsssssc" />
  <path
     d="M 3.175008,1.4552083 V 1.5875 H 5.2916747 V 1.4552083 Z m 0,0.5291667 V 2.1166667 H 5.2916747 V 1.984375 Z m 0,0.5291667 V 2.6458334 H 5.2916747 V 2.5135417 Z m 0,0.5291667 V 3.175 H 5.2916747 V 3.0427084 Z M 1.0583413,3.571875 V 3.7041667 H 5.2916747 V 3.571875 Z m 0,0.5291667 V 4.2333334 H 5.2916747 V 4.1010417 Z m 0,0.5291667 V 4.7625001 H 4.2333414 V 4.6302084 Z"
     style="fill:#c8c4b7;fill-opacity:0.99608;stroke-width:0.264583;enable-background:new"
     id="path887" />
  <path
     d="M 1.8713001,1.3229167 1.2186523,3.0427084 H 1.0583333 V 3.1749947 H 1.5213542 V 3.0427084 H 1.3731187 L 1.5277598,2.6455423 H 2.2951044 L 2.4495628,3.0427084 H 2.2492997 V 3.1749947 H 2.9134832 V 3.0427084 H 2.7302593 L 2.0774263,1.3229167 Z M 1.9114241,1.6206523 2.249297,2.5138327 H 1.5792397 Z"
     style="color:#bebebe;font-weight:400;font-size:13.717px;letter-spacing:0;word-spacing:0;overflow:visible;fill:#5d5d5d;stroke-width:0.264583;enable-background:new"
     id="path1007" />
  <path
     id="rect944"
     style="fill:#ff0000;fill-opacity:1;stroke-width:0.230449;stroke-linejoin:round"
     d="M 0.26458344,3.4395835 V 3.7041668 H 6.0854169 V 3.4395835 Z" />
  <path
     id="rect1226"
     style="opacity:0.4;fill:url(#linearGradient1314);stroke-width:0.460898;stroke-linejoin:round"
     d="M 0.26458334,2.3812502 V 3.4395835 H 6.0854169 V 2.3812502 Z" />
  <path
     id="rect2017"
     style="opacity:0.4;fill:url(#linearGradient2416);fill-opacity:1;stroke-width:0.18816;stroke-linejoin:round"
     d="m 0.26458344,3.7041668 v 0.6614583 c 0,0.1405877 0.00322,0.2725201 0.0098,0.396875 H 6.0756157 c 0.00658,-0.1243549 0.0098,-0.2562873 0.0098,-0.396875 V 3.7041668 Z" />
  <path
     id="rect1024"
     style="opacity:0.45;fill:#000000;stroke:none;stroke-width:0.885619;stroke-linecap:round;stroke-linejoin:round"
     d="M 0.5 14 L 0.5 17 C 0.5 21.398925 1.4992078 22.467685 5.7929688 22.5 L 6 22.5 L 18 22.5 C 22.46875 22.5 23.5 21.468749 23.5 17 L 23.5 14 L 0.5 14 z "
     transform="scale(0.26458334)" />
  <path
     id="rect1565"
     style="fill:url(#linearGradient1873);fill-opacity:1;stroke-width:0.118194"
     d="M 1.5601116,0.52922694 C 0.42405397,0.53777695 0.26458335,0.8913756 0.26458335,1.8521436 V 4.497977 c 0,1.1823568 0.33097974,1.3229167 1.32291675,1.3229167 h 3.1749975 c 1.1823568,0 1.3229167,-0.3066248 1.3229167,-1.3229167 V 1.8521436 c 0,-1.02975658 -0.1405599,-1.32291666 -1.3229167,-1.32291666 h -3.147609 c -0.018473,0 -0.036744,-1.356e-4 -0.054777,0 z m 0.00259,0.26458338 h 0.049609 3.0179 c 1.0641211,0 1.190625,0.14300558 1.190625,1.05833328 V 4.497977 c 0,0.8938382 -0.1265039,1.0583334 -1.190625,1.0583334 H 1.7197917 c -1.02290214,0 -1.19062501,-0.1576914 -1.19062501,-1.0583334 V 1.8521436 c 0,-0.8540052 0.14116471,-1.05833328 1.03352871,-1.05833328 z"
     sodipodi:nodetypes="csssssssscsssssssssss" />
  <path
     id="rect5096"
     style="opacity:0.4;stroke-width:0.240954;stroke-linecap:round;stroke-linejoin:round;fill:#000000"
     d="M 1.5275554,0.26458333 C 0.28821988,0.27390666 1.0104166e-8,0.58239335 1.0104166e-8,1.8520834 V 4.4978839 C 1.0104166e-8,5.7877277 0.29765627,6.085384 1.5875001,6.085384 h 3.1749975 c 1.2898438,0 1.5875,-0.2976563 1.5875,-1.5875001 V 1.8520834 c 0,-1.28984381 -0.2976562,-1.58750007 -1.5875,-1.58750007 H 1.5875001 c -0.020154,0 -0.040273,-1.4798e-4 -0.059945,0 z m 0.032556,0.26458334 c 0.018033,-1.3565e-4 0.036303,0 0.054777,0 h 3.147609 c 1.1823568,0 1.3229167,0.29315998 1.3229167,1.32291673 v 2.6458005 c 0,1.0162919 -0.1405599,1.3229167 -1.3229167,1.3229167 H 1.5875001 c -0.99193704,0 -1.32291675,-0.1405599 -1.32291675,-1.3229167 V 1.8520834 c 0,-0.96076805 0.15947068,-1.31437034 1.29552805,-1.32291673 z"
     sodipodi:nodetypes="csssssssscssssssssss" />
  <path
     style="color:#000000;fill:#34be5b;stroke:none;stroke-width:0.264583;stroke-linecap:round;stroke-linejoin:round;stroke-dashoffset:1;-inkscape-stroke:none"
     d="M 6.2177086,4.4979169 A 1.7197917,1.7197917 0 0 1 4.4979169,6.2177086 1.7197917,1.7197917 0 0 1 2.7781251,4.4979169 1.7197917,1.7197917 0 0 1 4.4979169,2.7781251 1.7197917,1.7197917 0 0 1 6.2177086,4.4979169 Z"
     id="path1105" />
  <path
     d="M 4.6097708,3.4570671 C 4.2556524,3.4573185 3.9548476,3.6753775 3.8109937,3.9871863 l -0.00984,0.021325 -0.022807,0.00185 c -0.3270515,0.023468 -0.5858669,0.306705 -0.5858669,0.6506633 0,0.3597011 0.2814637,0.6549232 0.6294967,0.6549232 h 1.5229152 c 0.2609533,0 0.4718844,-0.2214245 0.4718844,-0.4900877 C 5.8175143,4.630336 5.7007923,4.4534795 5.5207312,4.3772615 l -0.022304,-0.0095 -0.00185,-0.024447 C 5.4742704,3.8524075 5.0886666,3.4576227 4.6100618,3.4572788 Z m 0,0.1640205 c 0.3884083,2.514e-4 0.7037916,0.3201723 0.7223389,0.7293769 v 0.00185 l 0.00836,0.1271138 0.1153054,0.048712 c 0.119934,0.049989 0.1975374,0.1677551 0.1961621,0.2976827 0.00185,0.1827186 -0.1387581,0.3260725 -0.3068638,0.3260725 h -1.523074 c -0.2552118,0 -0.4653227,-0.2166673 -0.4653227,-0.4907492 -2.505e-4,-0.262099 0.1941971,-0.4700827 0.433653,-0.4876246 l 0.1185862,-0.0082 0.050842,-0.1087385 V 4.0557875 C 4.0791647,3.7966413 4.3227402,3.6214739 4.6094427,3.6211299 Z"
     style="color:#000000;font-weight:400;text-indent:0;text-decoration-line:none;text-transform:none;overflow:visible;fill:#ffffff;stroke:#ffffff;stroke-width:0.0349594;enable-background:new"
     id="path1406" />
  <path
     style="color:#000000;fill:#000000;fill-opacity:0.4;stroke:none;stroke-width:0.264583;stroke-linecap:round;stroke-linejoin:round;stroke-dashoffset:1;-inkscape-stroke:none"
     d="m 4.4979169,2.6458334 c -1.0213094,0 -1.8520835,0.8307741 -1.8520835,1.8520835 0,1.0213094 0.8307741,1.8520834 1.8520835,1.8520834 1.0213094,0 1.8520834,-0.830774 1.8520834,-1.8520834 0,-1.0213094 -0.830774,-1.8520835 -1.8520834,-1.8520835 z m 0,0.2645833 c 0.878318,0 1.5875,0.7091822 1.5875,1.5875002 0,0.878318 -0.709182,1.5875 -1.5875,1.5875 -0.878318,0 -1.5875001,-0.709182 -1.5875001,-1.5875 0,-0.878318 0.7091821,-1.5875002 1.5875001,-1.5875002 z"
     id="path1107" />
</svg>
