<?xml version="1.0" encoding="UTF-8" standalone="no"?>
<!-- Created with Inkscape (http://www.inkscape.org/) -->

<svg
   width="24"
   height="24"
   viewBox="0 0 6.3499999 6.3500002"
   version="1.1"
   id="svg5013"
   sodipodi:docname="gnome-usage.svg"
   inkscape:version="1.1.2 (0a00cf5339, 2022-02-04)"
   xmlns:inkscape="http://www.inkscape.org/namespaces/inkscape"
   xmlns:sodipodi="http://sodipodi.sourceforge.net/DTD/sodipodi-0.dtd"
   xmlns:xlink="http://www.w3.org/1999/xlink"
   xmlns="http://www.w3.org/2000/svg"
   xmlns:svg="http://www.w3.org/2000/svg">
  <sodipodi:namedview
     id="namedview5015"
     pagecolor="#ffffff"
     bordercolor="#666666"
     borderopacity="1.0"
     inkscape:pageshadow="2"
     inkscape:pageopacity="0.0"
     inkscape:pagecheckerboard="0"
     inkscape:document-units="px"
     showgrid="false"
     units="px"
     showguides="true"
     inkscape:zoom="32.75"
     inkscape:cx="11.984733"
     inkscape:cy="12"
     inkscape:window-width="1920"
     inkscape:window-height="1010"
     inkscape:window-x="0"
     inkscape:window-y="0"
     inkscape:window-maximized="1"
     inkscape:current-layer="svg5013" />
  <defs
     id="defs5010">
    <linearGradient
       inkscape:collect="always"
       xlink:href="#linearGradient1871"
       id="linearGradient1873"
       x1="10.572797"
       y1="1.2222221"
       x2="10.805839"
       y2="46.70113"
       gradientUnits="userSpaceOnUse"
       gradientTransform="matrix(0.12026516,0,0,0.11615853,0.28863637,0.38719515)" />
    <linearGradient
       inkscape:collect="always"
       id="linearGradient1871">
      <stop
         style="stop-color:#ffffff;stop-opacity:1;"
         offset="0"
         id="stop1867" />
      <stop
         style="stop-color:#ffffff;stop-opacity:0.1"
         offset="0.12"
         id="stop2515" />
      <stop
         style="stop-color:#ffffff;stop-opacity:0.102"
         offset="0.89999998"
         id="stop2581" />
      <stop
         style="stop-color:#ffffff;stop-opacity:0.502"
         offset="1"
         id="stop1869" />
    </linearGradient>
    <linearGradient
       inkscape:collect="always"
       xlink:href="#linearGradient2290"
       id="linearGradient2292"
       x1="-1.5371033"
       y1="-0.97478068"
       x2="10.466705"
       y2="10.113205"
       gradientUnits="userSpaceOnUse"
       gradientTransform="matrix(0.72413793,0,0,0.70370371,0.1094828,0.19604797)" />
    <linearGradient
       inkscape:collect="always"
       id="linearGradient2290">
      <stop
         style="stop-color:#2daaaa;stop-opacity:1"
         offset="0"
         id="stop2286" />
      <stop
         style="stop-color:#31c6b7;stop-opacity:1"
         offset="1"
         id="stop2288" />
    </linearGradient>
  </defs>
  <path
     d="M 1.5275552,0.52916667 C 0.28821992,0.53848667 1.6249999e-8,0.84697669 1.6249999e-8,2.1166667 V 4.7625 C 1.6249999e-8,6.052344 0.29765622,6.35 1.5875,6.35 h 3.175 C 6.0523438,6.35 6.35,6.052344 6.35,4.7625 V 2.1166667 C 6.35,0.82682299 6.0523438,0.52916667 4.7625,0.52916667 h -3.175 c -0.020153,0 -0.040273,-1.48e-4 -0.059945,0 z"
     style="opacity:0.1;fill:#000000;stroke-width:0.264583;stroke-linecap:round;stroke-linejoin:round"
     id="path9125"
     sodipodi:nodetypes="cssssssssc" />
  <path
     id="rect6397-9"
     style="fill:url(#linearGradient2292);fill-opacity:1;stroke-width:0.182227;stroke-linejoin:round"
     d="M 1.5327231,0.39693531 C 0.39666551,0.40548131 0.13229167,0.68826117 0.13229167,1.8521437 v 2.6458334 c 0,1.1638822 0.26437374,1.4466583 1.40043143,1.4552083 h 0.054777 3.1750001 c 1.1823568,0 1.4552084,-0.2728518 1.4552084,-1.4552083 V 1.8521437 c 0,-1.18235682 -0.2728516,-1.45520839 -1.4552084,-1.45520839 H 1.5875001 c -0.018474,0 -0.036744,-1.357e-4 -0.054777,0 z" />
  <path
     id="circle29"
     d="M 4.8947918,1.5875 A 0.39687501,0.39687501 0 0 0 4.5211713,1.8531169 H 4.017326 c -0.1495891,0 -0.2835672,0.066143 -0.381372,0.1663981 -0.097805,0.1002551 -0.1668637,0.2309777 -0.2227255,0.3793051 -0.1117235,0.2966548 -0.170262,0.6702467 -0.221692,1.0402466 -0.05143,0.37 -0.094782,0.7365117 -0.1607137,0.9978719 -0.032966,0.1306801 -0.073046,0.2347021 -0.1116211,0.2935221 -0.038575,0.05882 -0.057014,0.066663 -0.085783,0.066663 -0.035075,0 -0.068186,-0.013481 -0.1142048,-0.057878 C 2.6731953,4.6948491 2.6217992,4.6202464 2.5734864,4.5247885 2.4768608,4.3338728 2.3903749,4.0632437 2.3109701,3.789433 2.2315653,3.5156221 2.1589135,3.2391677 2.0784262,3.0220379 2.0381825,2.913473 1.9968729,2.8197047 1.9440674,2.7429853 1.891262,2.6662651 1.8137708,2.5910565 1.7022217,2.5910565 c -0.078255,0 -0.1517124,0.039576 -0.1984375,0.0894 -0.046725,0.049824 -0.075169,0.1075912 -0.098702,0.1689819 -0.047066,0.1227815 -0.072928,0.2658166 -0.098185,0.4051433 -0.025257,0.1393269 -0.049868,0.2748198 -0.080098,0.3617351 -0.015115,0.043458 -0.032206,0.073535 -0.040824,0.083716 -4.419e-4,5.292e-4 -1.772e-4,6.085e-4 -5.16e-4,0.00103 H 0.26458334 V 3.9656479 H 1.1942424 c 0.078411,0 0.1510158,-0.044038 0.1937866,-0.094568 C 1.4308,3.8205509 1.455312,3.7637493 1.476396,3.7031317 1.518563,3.5818961 1.542293,3.4398133 1.567346,3.3016058 1.5924,3.1633981 1.61937,3.0293742 1.652095,2.9440048 c 0.016363,-0.042685 0.034232,-0.071795 0.044442,-0.082682 0.00278,-0.00297 7.567e-4,-5.557e-4 0.00155,-0.00156 0.0048,0.00438 0.014043,0.012933 0.027905,0.033073 0.030244,0.04394 0.067955,0.122894 0.1043864,0.221175 0.072863,0.1965627 0.1457873,0.4715296 0.2263428,0.7493083 0.080555,0.2777789 0.1678524,0.5585714 0.2806031,0.7813479 0.056375,0.1113883 0.1188711,0.2089902 0.1979207,0.2852537 0.07905,0.076264 0.182449,0.1317749 0.298173,0.1317749 0.1305968,0 0.2399464,-0.083854 0.3069582,-0.1860352 C 3.207389,4.7734783 3.2504788,4.6473599 3.2871382,4.5020385 3.3604571,4.2113958 3.4026619,3.8417486 3.4535362,3.4757446 3.5044108,3.1097407 3.5651086,2.7476901 3.6612757,2.492342 3.7093589,2.3646679 3.7663452,2.2652501 3.8256065,2.2045043 3.8848682,2.1437584 3.9389107,2.1176879 4.0173263,2.1176879 h 0.504362 A 0.39687501,0.39687501 0 0 0 4.8947918,2.3812501 0.39687501,0.39687501 0 0 0 5.2916668,1.984375 0.39687501,0.39687501 0 0 0 4.8947918,1.5875 Z"
     style="fill:#d6f6f0;fill-opacity:1;stroke-width:0.264583" />
  <path
     id="rect5096"
     style="opacity:0.4;stroke-width:0.240954;stroke-linecap:round;stroke-linejoin:round"
     d="M 1.5276195,0.26458333 C 0.28828403,0.27390666 6.4159692e-5,0.58239335 6.4159692e-5,1.8520834 v 2.6458333 c 0,1.2898438 0.297656260308,1.5875001 1.587500040308,1.5875001 h 3.1749359 c 1.2898438,0 1.5875,-0.2976563 1.5875,-1.5875001 V 1.8520834 c 0,-1.28984381 -0.2976562,-1.58750007 -1.5875,-1.58750007 H 1.5875642 c -0.020154,0 -0.040273,-1.4798e-4 -0.059945,0 z m 0.032556,0.26458334 c 0.018033,-1.3565e-4 0.036303,0 0.054777,0 h 3.1475474 c 1.1823568,0 1.3229167,0.29315998 1.3229167,1.32291673 v 2.6458333 c 0,1.0162919 -0.1405599,1.3229167 -1.3229167,1.3229167 H 1.5875642 c -0.99193699,0 -1.3229167,-0.1405599 -1.3229167,-1.3229167 V 1.8520834 c 0,-0.96076805 0.15947068,-1.31437034 1.295528,-1.32291673 z"
     sodipodi:nodetypes="csssssssscssssssssss" />
  <path
     id="rect1565"
     style="fill:url(#linearGradient1873);fill-opacity:1;stroke-width:0.118194"
     d="M 1.5601116,0.52916667 C 0.42405397,0.53771668 0.26458335,0.89131535 0.26458335,1.8520833 v 2.6458334 c 0,1.1823568 0.33097974,1.3229167 1.32291675,1.3229167 h 3.1749976 c 1.1823568,0 1.3229167,-0.3066248 1.3229167,-1.3229167 V 1.8520833 c 0,-1.02975655 -0.1405599,-1.32291663 -1.3229167,-1.32291663 H 1.6148886 c -0.018473,0 -0.036744,-1.356e-4 -0.054777,0 z m 0.00259,0.26458338 c 0.016229,0 0.032983,0 0.049609,0 h 3.0179001 c 1.0641211,0 1.190625,0.1430056 1.190625,1.05833325 v 2.6458334 c 0,0.8938382 -0.1265039,1.0583334 -1.190625,1.0583334 h -2.910419 c -1.02290214,0 -1.19062501,-0.1576914 -1.19062501,-1.0583334 V 1.8520833 c 0,-0.85400515 0.1411647,-1.05833325 1.03352871,-1.05833325 z"
     sodipodi:nodetypes="csssssssscsssssssssss" />
</svg>
