<?xml version="1.0" encoding="UTF-8" standalone="no"?>
<!-- Created with Inkscape (http://www.inkscape.org/) -->

<svg
   width="24"
   height="24"
   viewBox="0 0 6.3499999 6.3500002"
   version="1.1"
   id="svg5013"
   sodipodi:docname="kate.svg"
   inkscape:version="1.1.2 (0a00cf5339, 2022-02-04)"
   xmlns:inkscape="http://www.inkscape.org/namespaces/inkscape"
   xmlns:sodipodi="http://sodipodi.sourceforge.net/DTD/sodipodi-0.dtd"
   xmlns:xlink="http://www.w3.org/1999/xlink"
   xmlns="http://www.w3.org/2000/svg"
   xmlns:svg="http://www.w3.org/2000/svg">
  <sodipodi:namedview
     id="namedview5015"
     pagecolor="#ffffff"
     bordercolor="#666666"
     borderopacity="1.0"
     inkscape:pageshadow="2"
     inkscape:pageopacity="0.0"
     inkscape:pagecheckerboard="0"
     inkscape:document-units="px"
     showgrid="false"
     units="px"
     showguides="true"
     inkscape:zoom="32.25"
     inkscape:cx="11.984496"
     inkscape:cy="12"
     inkscape:window-width="1920"
     inkscape:window-height="998"
     inkscape:window-x="0"
     inkscape:window-y="0"
     inkscape:window-maximized="1"
     inkscape:current-layer="svg5013" />
  <defs
     id="defs5010">
    <linearGradient
       inkscape:collect="always"
       xlink:href="#linearGradient1871"
       id="linearGradient1873"
       x1="10.572797"
       y1="1.2222221"
       x2="10.805839"
       y2="46.70113"
       gradientUnits="userSpaceOnUse"
       gradientTransform="matrix(0.12026516,0,0,0.11615853,0.28863637,0.38719515)" />
    <linearGradient
       inkscape:collect="always"
       id="linearGradient1871">
      <stop
         style="stop-color:#ffffff;stop-opacity:1;"
         offset="0"
         id="stop1867" />
      <stop
         style="stop-color:#ffffff;stop-opacity:0.1"
         offset="0.12"
         id="stop2515" />
      <stop
         style="stop-color:#ffffff;stop-opacity:0.102"
         offset="0.89999998"
         id="stop2581" />
      <stop
         style="stop-color:#ffffff;stop-opacity:0.502"
         offset="1"
         id="stop1869" />
    </linearGradient>
    <linearGradient
       inkscape:collect="always"
       xlink:href="#linearGradient2290"
       id="linearGradient2292"
       x1="10.06263"
       y1="9.6808376"
       x2="-0.95758897"
       y2="-0.46650231"
       gradientUnits="userSpaceOnUse"
       gradientTransform="matrix(2.7368992,0,0,2.6596675,0.41379327,0.74074096)" />
    <linearGradient
       inkscape:collect="always"
       id="linearGradient2290">
      <stop
         style="stop-color:#008bff;stop-opacity:1"
         offset="0"
         id="stop2286" />
      <stop
         style="stop-color:#00ccff;stop-opacity:1"
         offset="1"
         id="stop2288" />
    </linearGradient>
  </defs>
  <path
     d="M 1.5275552,0.52916667 C 0.28821992,0.53848667 1.6249999e-8,0.84697669 1.6249999e-8,2.1166667 V 4.7625 C 1.6249999e-8,6.052344 0.29765622,6.35 1.5875,6.35 h 3.175 C 6.0523438,6.35 6.35,6.052344 6.35,4.7625 V 2.1166667 C 6.35,0.82682299 6.0523438,0.52916667 4.7625,0.52916667 h -3.175 c -0.020153,0 -0.040273,-1.48e-4 -0.059945,0 z"
     style="opacity:0.1;fill:#000000;stroke-width:0.264583;stroke-linecap:round;stroke-linejoin:round"
     id="path9125"
     sodipodi:nodetypes="cssssssssc" />
  <path
     id="rect7669"
     style="fill:#808080;stroke-width:0.264583;stroke-linecap:round;stroke-linejoin:round"
     d="M 1.7973064,0.66145835 C 0.66124888,0.67000474 0.39687501,0.95278432 0.39687501,2.1166667 v 2.1166667 c 0,1.1638823 0.26437379,1.4466584 1.40043139,1.4552084 h 0.054777 2.6458334 c 1.1823568,0 1.4552083,-0.2728518 1.4552083,-1.4552084 V 2.1166667 c 0,-1.1823567 -0.2728515,-1.45520835 -1.4552083,-1.45520835 H 1.8520834 c -0.018474,0 -0.036744,-1.3565e-4 -0.054777,0 z" />
  <path
     id="rect6397"
     style="fill:url(#linearGradient2292);fill-opacity:1;stroke-width:0.688732;stroke-linejoin:round"
     d="m 5.7929687,1.4999999 c -4.2937606,0.032301 -5.29296876,1.1010742 -5.29296876,5.5 V 17 c 0,4.398925 0.99920776,5.467685 5.29296876,5.5 H 5.9999999 18 c 4.46875,0 5.5,-1.031251 5.5,-5.5 V 6.9999999 c 0,-4.4687499 -1.03125,-5.5 -5.5,-5.5 H 5.9999999 c -0.069823,0 -0.138875,-5.129e-4 -0.2070312,0 z"
     transform="scale(0.26458334)"
     sodipodi:nodetypes="cssccsssssc" />
  <path
     id="rect13049"
     style="opacity:0.2;fill:#ffffff;fill-opacity:1;stroke-width:0.264583;stroke-linecap:round;stroke-linejoin:round"
     d="m 0.13229167,3.175 v 1.3228839 c 0,1.1638823 0.2643737,1.4466584 1.40043133,1.4552084 H 1.5875 4.7624975 c 1.1823568,0 1.4552083,-0.2876635 1.4552083,-1.4552084 V 3.175 Z"
     sodipodi:nodetypes="csccsscc" />
  <path
     id="path10-3"
     style="opacity:0.1;fill:#000000;stroke-width:0.148549"
     d="M 3.0228237,1.3229171 C 2.7057593,1.3226686 2.3412248,1.4131847 1.9876183,1.6693395 1.6421027,1.919634 1.4905163,1.9882716 1.3229167,2.071468 1.4698473,2.0826788 2.3370068,1.9595935 2.5153758,2.4556082 1.8794377,2.6654595 1.6296844,3.0068278 1.7099582,3.4037727 c 0.012628,0.071473 0.036816,0.1461602 0.073695,0.2236948 0.038087,0.080075 0.081525,0.1487086 0.1291106,0.2094783 0.00227,0.00319 0.00465,0.00638 0.00696,0.00957 -0.00119,-0.00166 -0.00231,-0.00327 -0.00348,-0.00494 C 2.2095067,4.2117895 2.6700652,4.2695131 3.1684724,4.602902 3.6225872,4.9066673 3.7734212,5.0612547 4.066443,5.482307 4.0055091,4.9005418 3.684514,4.1507648 3.5529023,3.8204081 L 3.552612,3.8189581 C 3.9642441,4.1210883 4.4521342,4.2527802 5.0270834,4.2939101 4.1078938,3.6395913 3.9333886,3.4846438 3.407254,3.0361704 c -0.3529796,0.017792 -0.3140934,0.014466 -0.5222449,0.026402 0.026084,0.043482 0.052499,0.085541 0.079497,0.1262091 0.210226,0.3739557 0.250364,0.8394165 -0.1984529,0.9327876 C 2.2970852,4.219132 1.7856533,3.8141323 1.914214,3.3805618 2.0538165,2.9097566 2.7159009,3.000334 3.3480662,2.9186652 3.9802318,2.8369959 4.5578109,2.217014 4.9052265,1.7581212 4.4047131,1.9288942 3.7677847,2.0856749 3.0564795,2.2919714 2.9181021,2.0086429 2.7808008,1.5192934 3.7107363,1.4839426 c -0.016725,-0.00924 -0.034006,-0.018128 -0.051934,-0.026402 -0.00221,-0.00105 -0.00444,-0.00215 -0.00667,-0.00319 -0.00385,-0.00174 -0.00771,-0.00353 -0.011605,-0.00522 C 3.4799134,1.376515 3.2652848,1.323107 3.0228237,1.3229171 Z" />
  <path
     style="fill:#cccccc;fill-opacity:1;stroke-width:0.148555"
     d="M 2.5236993,2.2155921 C 2.3656135,1.6907715 1.4722461,1.8181223 1.3229167,1.8067284 1.4905219,1.7235295 1.6410365,1.7542998 1.9865635,1.503997 2.6521977,1.0218073 3.1191992,1.0153983 3.4721091,1.2068879 2.5073047,1.243564 2.9297886,1.7814073 3.0718955,2.0583631 2.8911774,2.1108561 2.6059002,2.190098 2.5236993,2.2155921 Z"
     id="path10" />
  <path
     style="fill:#f2f2f2;stroke-width:0.148555"
     d="M 4.9052358,1.4934155 C 4.5578085,1.9523237 3.9801755,2.5723406 3.3479893,2.6540126 2.7158028,2.7356843 2.0537034,2.6452076 1.9140962,3.1160299 1.7855312,3.5496147 2.2971204,3.9544314 2.766104,3.8568657 3.2671255,3.7526342 3.1589224,3.1847624 2.8848836,2.7980562 c 0.2081583,-0.011936 0.08568,0.060725 0.4386709,0.042931 l 0.2292806,0.714917 C 3.6844511,3.8862724 4.0053914,4.6360761 4.0663273,5.2178607 3.7732954,4.7967923 3.6225781,4.6420505 3.1684477,4.3382787 2.5867365,3.9491668 2.0562047,3.9359938 1.7835284,3.3627127 1.5114408,2.7906703 1.9309977,2.3786062 2.5754497,2.2001536 3.4964186,1.9451312 4.2899559,1.7033468 4.9052358,1.4934155 Z"
     id="path12" />
  <path
     style="fill:#cccccc;fill-opacity:1;stroke-width:0.148555"
     d="M 2.8848836,2.7980562 C 3.0930419,2.7861201 3.0543212,2.7892099 3.4073122,2.771417 3.9334646,3.2199054 4.107863,3.3750837 5.0270834,4.0294244 4.1031435,3.9633294 3.4040656,3.6635237 2.8848836,2.7980562 Z"
     id="path14" />
  <path
     style="fill:#e6e6e6;fill-opacity:1;stroke-width:0.148555"
     d="M 1.3229167,1.8067284 C 1.4905219,1.7235295 1.6419888,1.6549496 1.987516,1.4046466 2.6531502,0.9224569 3.3578806,1.0276158 3.7107906,1.2191053 2.7459861,1.2557817 2.8702984,1.4480175 2.8667379,1.5987187 2.2257194,1.4636004 2.0385555,1.6474415 1.3229167,1.8067284 Z"
     id="path16" />
  <path
     style="fill:#f2f2f2;stroke-width:0.148555"
     d="M 3.7107906,1.2191053 C 2.7459861,1.2557817 2.9297886,1.7814073 3.0718955,2.0583631 2.9593084,2.091066 2.9114844,2.1283219 2.7609784,2.1681542 2.1537025,1.0860914 3.2151457,0.9453217 3.7107906,1.2191053 Z"
     id="path18" />
  <path
     style="fill:#e6e6e6;fill-opacity:1;stroke-width:0.148555"
     d="M 1.9572592,3.632279 C 1.4851368,3.0243633 1.6317211,2.4671553 2.5562053,2.1776486 3.468518,1.8919529 4.2899559,1.7033468 4.9052358,1.4934155 3.2448229,2.1260688 1.1062489,2.5488049 1.9572592,3.632279 Z"
     id="path20" />
  <path
     id="rect5096"
     style="opacity:0.4;stroke-width:0.240954;stroke-linecap:round;stroke-linejoin:round"
     d="M 1.5276195,0.26458333 C 0.28828403,0.27390666 6.4159692e-5,0.58239335 6.4159692e-5,1.8520834 v 2.6458333 c 0,1.2898438 0.297656260308,1.5875001 1.587500040308,1.5875001 h 3.1749359 c 1.2898438,0 1.5875,-0.2976563 1.5875,-1.5875001 V 1.8520834 c 0,-1.28984381 -0.2976562,-1.58750007 -1.5875,-1.58750007 H 1.5875642 c -0.020154,0 -0.040273,-1.4798e-4 -0.059945,0 z m 0.032556,0.26458334 c 0.018033,-1.3565e-4 0.036303,0 0.054777,0 h 3.1475474 c 1.1823568,0 1.3229167,0.29315998 1.3229167,1.32291673 v 2.6458333 c 0,1.0162919 -0.1405599,1.3229167 -1.3229167,1.3229167 H 1.5875642 c -0.99193699,0 -1.3229167,-0.1405599 -1.3229167,-1.3229167 V 1.8520834 c 0,-0.96076805 0.15947068,-1.31437034 1.295528,-1.32291673 z"
     sodipodi:nodetypes="csssssssscssssssssss" />
  <path
     id="rect1565"
     style="fill:url(#linearGradient1873);fill-opacity:1;stroke-width:0.118194;opacity:1"
     d="M 1.5601116,0.52916667 C 0.42405397,0.53771668 0.26458335,0.89131535 0.26458335,1.8520833 v 2.6458334 c 0,1.1823568 0.33097974,1.3229167 1.32291675,1.3229167 h 3.1749976 c 1.1823568,0 1.3229167,-0.3066248 1.3229167,-1.3229167 V 1.8520833 c 0,-1.02975655 -0.1405599,-1.32291663 -1.3229167,-1.32291663 H 1.6148886 c -0.018473,0 -0.036744,-1.356e-4 -0.054777,0 z m 0.00259,0.26458338 c 0.016229,0 0.032983,0 0.049609,0 h 3.0179001 c 1.0641211,0 1.190625,0.1430056 1.190625,1.05833325 v 2.6458334 c 0,0.8938382 -0.1265039,1.0583334 -1.190625,1.0583334 h -2.910419 c -1.02290214,0 -1.19062501,-0.1576914 -1.19062501,-1.0583334 V 1.8520833 c 0,-0.85400515 0.1411647,-1.05833325 1.03352871,-1.05833325 z"
     sodipodi:nodetypes="csssssssscsssssssssss" />
</svg>
