<?xml version="1.0" encoding="UTF-8" standalone="no"?>
<!-- Created with Inkscape (http://www.inkscape.org/) -->

<svg
   width="24"
   height="24"
   viewBox="0 0 6.3499999 6.3500002"
   version="1.1"
   id="svg5013"
   sodipodi:docname="kdeconnect.svg"
   inkscape:version="1.1.2 (0a00cf5339, 2022-02-04)"
   xmlns:inkscape="http://www.inkscape.org/namespaces/inkscape"
   xmlns:sodipodi="http://sodipodi.sourceforge.net/DTD/sodipodi-0.dtd"
   xmlns:xlink="http://www.w3.org/1999/xlink"
   xmlns="http://www.w3.org/2000/svg"
   xmlns:svg="http://www.w3.org/2000/svg">
  <sodipodi:namedview
     id="namedview5015"
     pagecolor="#ffffff"
     bordercolor="#666666"
     borderopacity="1.0"
     inkscape:pageshadow="2"
     inkscape:pageopacity="0.0"
     inkscape:pagecheckerboard="0"
     inkscape:document-units="px"
     showgrid="false"
     units="px"
     showguides="true"
     inkscape:zoom="23.157747"
     inkscape:cx="7.9670963"
     inkscape:cy="13.40804"
     inkscape:window-width="1851"
     inkscape:window-height="1049"
     inkscape:window-x="0"
     inkscape:window-y="0"
     inkscape:window-maximized="1"
     inkscape:current-layer="svg5013" />
  <defs
     id="defs5010">
    <linearGradient
       inkscape:collect="always"
       xlink:href="#linearGradient1871"
       id="linearGradient1873"
       x1="10.572797"
       y1="1.2222221"
       x2="10.805839"
       y2="46.70113"
       gradientUnits="userSpaceOnUse"
       gradientTransform="matrix(0.12026516,0,0,0.11615853,0.28863637,0.38719515)" />
    <linearGradient
       inkscape:collect="always"
       id="linearGradient1871">
      <stop
         style="stop-color:#ffffff;stop-opacity:1;"
         offset="0"
         id="stop1867" />
      <stop
         style="stop-color:#ffffff;stop-opacity:0.1"
         offset="0.12"
         id="stop2515" />
      <stop
         style="stop-color:#ffffff;stop-opacity:0.102"
         offset="0.89999998"
         id="stop2581" />
      <stop
         style="stop-color:#ffffff;stop-opacity:0.502"
         offset="1"
         id="stop1869" />
    </linearGradient>
    <linearGradient
       inkscape:collect="always"
       xlink:href="#linearGradient2290"
       id="linearGradient2292"
       x1="6.4088602"
       y1="8.1768904"
       x2="1.9654269"
       y2="0.28547138"
       gradientUnits="userSpaceOnUse"
       gradientTransform="matrix(2.7368992,0,0,2.6596675,0.41379327,0.74074096)" />
    <linearGradient
       inkscape:collect="always"
       id="linearGradient2290">
      <stop
         style="stop-color:#3daee9;stop-opacity:1"
         offset="0"
         id="stop2286" />
      <stop
         style="stop-color:#52bafe;stop-opacity:1"
         offset="1"
         id="stop2288" />
    </linearGradient>
    <linearGradient
       inkscape:collect="always"
       xlink:href="#linearGradient3598"
       id="linearGradient1599"
       x1="5.1057558"
       y1="2.4520421"
       x2="7.2284169"
       y2="8.0603914"
       gradientUnits="userSpaceOnUse"
       gradientTransform="matrix(0.60542803,0,0,0.66047356,-0.14295316,-0.29659218)" />
    <linearGradient
       inkscape:collect="always"
       id="linearGradient3598">
      <stop
         style="stop-color:#d6ebf7;stop-opacity:1"
         offset="0"
         id="stop3594" />
      <stop
         style="stop-color:#f9f9f9;stop-opacity:1"
         offset="1"
         id="stop3596" />
    </linearGradient>
  </defs>
  <path
     d="M 1.5275552,0.52916667 C 0.28821992,0.53848667 1.6249999e-8,0.84697669 1.6249999e-8,2.1166667 V 4.7625 C 1.6249999e-8,6.052344 0.29765622,6.35 1.5875,6.35 h 3.175 C 6.0523438,6.35 6.35,6.052344 6.35,4.7625 V 2.1166667 C 6.35,0.82682299 6.0523438,0.52916667 4.7625,0.52916667 h -3.175 c -0.020153,0 -0.040273,-1.48e-4 -0.059945,0 z"
     style="opacity:0.1;fill:#000000;stroke-width:0.264583;stroke-linecap:round;stroke-linejoin:round"
     id="path9125"
     sodipodi:nodetypes="cssssssssc" />
  <path
     id="rect7669"
     style="fill:#808080;stroke-width:0.264583;stroke-linecap:round;stroke-linejoin:round"
     d="M 1.7973064,0.66145835 C 0.66124888,0.67000474 0.39687501,0.95278432 0.39687501,2.1166667 v 2.1166667 c 0,1.1638823 0.26437379,1.4466584 1.40043139,1.4552084 h 0.054777 2.6458334 c 1.1823568,0 1.4552083,-0.2728518 1.4552083,-1.4552084 V 2.1166667 c 0,-1.1823567 -0.2728515,-1.45520835 -1.4552083,-1.45520835 H 1.8520834 c -0.018474,0 -0.036744,-1.3565e-4 -0.054777,0 z" />
  <path
     id="rect6397"
     style="fill:url(#linearGradient2292);fill-opacity:1;stroke-width:0.688732;stroke-linejoin:round"
     d="m 5.7929687,1.4999999 c -4.2937606,0.032301 -5.29296876,1.1010742 -5.29296876,5.5 V 17 c 0,4.398925 0.99920776,5.467685 5.29296876,5.5 H 5.9999999 18 c 4.46875,0 5.5,-1.031251 5.5,-5.5 V 6.9999999 c 0,-4.4687499 -1.03125,-5.5 -5.5,-5.5 H 5.9999999 c -0.069823,0 -0.138875,-5.129e-4 -0.2070312,0 z"
     transform="scale(0.26458334)"
     sodipodi:nodetypes="cssccsssssc" />
  <path
     id="path4863"
     style="fill:#4d4d4d;fill-opacity:1;stroke-width:0.0759547"
     d="m 2.3812499,0.79375001 c -0.5291666,0 -0.5291666,0.23600819 -0.5291666,0.52916659 v 3.7041667 c 0,0.293158 0,0.5291668 0.5291666,0.5291668 h 1.5874999 c 0.5291667,1e-6 0.5291667,-0.2360077 0.5291667,-0.5291668 V 1.3229166 c 0,-0.2931584 0,-0.52916659 -0.5291667,-0.52916659 z"
     sodipodi:nodetypes="sssscssss" />
  <rect
     style="fill:url(#linearGradient1599);fill-opacity:1;stroke-width:0.181531"
     id="rect1437"
     width="2.1166668"
     height="3.7041667"
     x="2.1166663"
     y="1.3229166"
     ry="0.13229167" />
  <path
     d="m 2.778125,2.38125 c -0.054967,0 -0.099219,0.044252 -0.099219,0.099219 0,0.054967 0.044252,0.099219 0.099219,0.099219 0.054967,0 0.099219,-0.044252 0.099219,-0.099219 0,-0.054967 -0.044252,-0.099219 -0.099219,-0.099219 z m 0.6236606,0 L 3.1749999,2.6080357 3.5151784,2.9482143 3.1749999,3.2883929 3.4017856,3.5151785 3.741964,3.175 3.9687499,2.9482143 3.741964,2.7214286 Z M 2.5300781,2.9765625 c -0.08245,0 -0.1488282,0.066376 -0.1488282,0.1488281 0,0.08245 0.066378,0.1488281 0.1488282,0.1488281 0.082451,0 0.1488281,-0.066378 0.1488281,-0.1488281 0,-0.082451 -0.066377,-0.1488281 -0.1488281,-0.1488281 z M 2.9765624,3.571875 c -0.1099343,0 -0.1984374,0.088503 -0.1984374,0.1984374 0,0.1099344 0.088503,0.1984376 0.1984374,0.1984376 0.1099344,0 0.1984375,-0.088503 0.1984375,-0.1984376 0,-0.1099344 -0.088503,-0.1984374 -0.1984375,-0.1984374 z"
     style="fill:#808080;fill-opacity:1;stroke-width:0.0300017"
     id="path860" />
  <path
     d="m 2.2489585,5.0270833 c -0.07329,0 -0.1322919,-0.059002 -0.1322919,-0.1322916 V 4.7625 c 0,0.07329 0.059002,0.1322917 0.1322919,0.1322917 h 1.8520847 c 0.07329,0 0.1322919,-0.059002 0.1322919,-0.1322917 v 0.1322917 c 0,0.07329 -0.059002,0.1322916 -0.1322919,0.1322916 z"
     style="opacity:0.4;fill:#ffffff;fill-opacity:1;stroke-width:0.143537"
     id="path3389"
     sodipodi:nodetypes="sscsscsss" />
  <path
     id="rect3123"
     style="opacity:0.1;fill:#000000;fill-opacity:1;stroke-width:0.143537"
     d="m 2.2489583,1.3229169 c -0.07329,0 -0.1322917,0.059002 -0.1322917,0.1322917 v 0.1322916 c 0,-0.07329 0.059002,-0.1322916 0.1322917,-0.1322916 h 1.8520833 c 0.07329,0 0.1322917,0.059002 0.1322917,0.1322916 V 1.4552086 c 0,-0.07329 -0.059002,-0.1322917 -0.1322917,-0.1322917 z"
     sodipodi:nodetypes="sscsscsss" />
  <path
     id="rect5096"
     style="opacity:0.4;stroke-width:0.240954;stroke-linecap:round;stroke-linejoin:round"
     d="M 1.5276195,0.26458333 C 0.28828403,0.27390666 6.4159692e-5,0.58239335 6.4159692e-5,1.8520834 v 2.6458333 c 0,1.2898438 0.297656260308,1.5875001 1.587500040308,1.5875001 h 3.1749359 c 1.2898438,0 1.5875,-0.2976563 1.5875,-1.5875001 V 1.8520834 c 0,-1.28984381 -0.2976562,-1.58750007 -1.5875,-1.58750007 H 1.5875642 c -0.020154,0 -0.040273,-1.4798e-4 -0.059945,0 z m 0.032556,0.26458334 c 0.018033,-1.3565e-4 0.036303,0 0.054777,0 h 3.1475474 c 1.1823568,0 1.3229167,0.29315998 1.3229167,1.32291673 v 2.6458333 c 0,1.0162919 -0.1405599,1.3229167 -1.3229167,1.3229167 H 1.5875642 c -0.99193699,0 -1.3229167,-0.1405599 -1.3229167,-1.3229167 V 1.8520834 c 0,-0.96076805 0.15947068,-1.31437034 1.295528,-1.32291673 z"
     sodipodi:nodetypes="csssssssscssssssssss" />
  <path
     id="rect1565"
     style="fill:url(#linearGradient1873);fill-opacity:1;stroke-width:0.118194;opacity:1"
     d="M 1.5601116,0.52916667 C 0.42405397,0.53771668 0.26458335,0.89131535 0.26458335,1.8520833 v 2.6458334 c 0,1.1823568 0.33097974,1.3229167 1.32291675,1.3229167 h 3.1749976 c 1.1823568,0 1.3229167,-0.3066248 1.3229167,-1.3229167 V 1.8520833 c 0,-1.02975655 -0.1405599,-1.32291663 -1.3229167,-1.32291663 H 1.6148886 c -0.018473,0 -0.036744,-1.356e-4 -0.054777,0 z m 0.00259,0.26458338 c 0.016229,0 0.032983,0 0.049609,0 h 3.0179001 c 1.0641211,0 1.190625,0.1430056 1.190625,1.05833325 v 2.6458334 c 0,0.8938382 -0.1265039,1.0583334 -1.190625,1.0583334 h -2.910419 c -1.02290214,0 -1.19062501,-0.1576914 -1.19062501,-1.0583334 V 1.8520833 c 0,-0.85400515 0.1411647,-1.05833325 1.03352871,-1.05833325 z"
     sodipodi:nodetypes="csssssssscsssssssssss" />
</svg>
