<?xml version="1.0" encoding="UTF-8" standalone="no"?>
<!-- Created with Inkscape (http://www.inkscape.org/) -->

<svg
   width="24"
   height="24"
   viewBox="0 0 6.3499999 6.3500002"
   version="1.1"
   id="svg5013"
   sodipodi:docname="office-calendar.svg"
   inkscape:version="1.1.2 (0a00cf5339, 2022-02-04)"
   xmlns:inkscape="http://www.inkscape.org/namespaces/inkscape"
   xmlns:sodipodi="http://sodipodi.sourceforge.net/DTD/sodipodi-0.dtd"
   xmlns:xlink="http://www.w3.org/1999/xlink"
   xmlns="http://www.w3.org/2000/svg"
   xmlns:svg="http://www.w3.org/2000/svg">
  <sodipodi:namedview
     id="namedview5015"
     pagecolor="#ffffff"
     bordercolor="#666666"
     borderopacity="1.0"
     inkscape:pageshadow="2"
     inkscape:pageopacity="0.0"
     inkscape:pagecheckerboard="0"
     inkscape:document-units="px"
     showgrid="false"
     units="px"
     showguides="true"
     inkscape:zoom="18.856697"
     inkscape:cx="9.2009751"
     inkscape:cy="14.901867"
     inkscape:window-width="1920"
     inkscape:window-height="1010"
     inkscape:window-x="0"
     inkscape:window-y="0"
     inkscape:window-maximized="1"
     inkscape:current-layer="svg5013" />
  <defs
     id="defs5010">
    <linearGradient
       inkscape:collect="always"
       id="linearGradient1058">
      <stop
         style="stop-color:#f9f9f9;stop-opacity:1;"
         offset="0"
         id="stop1054" />
      <stop
         style="stop-color:#ececec;stop-opacity:1"
         offset="1"
         id="stop1056" />
    </linearGradient>
    <linearGradient
       inkscape:collect="always"
       xlink:href="#linearGradient1871"
       id="linearGradient1873"
       x1="10.572797"
       y1="1.2222221"
       x2="10.805839"
       y2="46.70113"
       gradientUnits="userSpaceOnUse"
       gradientTransform="matrix(0.12026516,0,0,0.11615853,0.28863637,0.38719515)" />
    <linearGradient
       inkscape:collect="always"
       id="linearGradient1871">
      <stop
         style="stop-color:#ffffff;stop-opacity:1;"
         offset="0"
         id="stop1867" />
      <stop
         style="stop-color:#ffffff;stop-opacity:0.1"
         offset="0.12"
         id="stop2515" />
      <stop
         style="stop-color:#ffffff;stop-opacity:0.102"
         offset="0.89999998"
         id="stop2581" />
      <stop
         style="stop-color:#ffffff;stop-opacity:0.502"
         offset="1"
         id="stop1869" />
    </linearGradient>
    <linearGradient
       inkscape:collect="always"
       xlink:href="#linearGradient2290"
       id="linearGradient2292"
       x1="-0.15119053"
       y1="-0.27850887"
       x2="-0.15119053"
       y2="8.7451754"
       gradientUnits="userSpaceOnUse"
       gradientTransform="matrix(2.7368992,0,0,2.6596675,0.41379327,0.74074096)" />
    <linearGradient
       inkscape:collect="always"
       id="linearGradient2290">
      <stop
         style="stop-color:#2b898f;stop-opacity:1"
         offset="0"
         id="stop2286" />
      <stop
         style="stop-color:#5bdbc1;stop-opacity:1"
         offset="1"
         id="stop2288" />
    </linearGradient>
    <linearGradient
       inkscape:collect="always"
       xlink:href="#linearGradient1058"
       id="linearGradient1060"
       x1="5.8208332"
       y1="3.7041667"
       x2="5.8208332"
       y2="2.6458335"
       gradientUnits="userSpaceOnUse"
       gradientTransform="translate(-0.26458333)" />
  </defs>
  <path
     d="M 1.5275552,0.52916667 C 0.28821992,0.53848667 1.6249999e-8,0.84697669 1.6249999e-8,2.1166667 V 4.7625 C 1.6249999e-8,6.052344 0.29765622,6.35 1.5875,6.35 h 3.175 C 6.0523438,6.35 6.35,6.052344 6.35,4.7625 V 2.1166667 C 6.35,0.82682299 6.0523438,0.52916667 4.7625,0.52916667 h -3.175 c -0.020153,0 -0.040273,-1.48e-4 -0.059945,0 z"
     style="opacity:0.1;fill:#000000;stroke-width:0.264583;stroke-linecap:round;stroke-linejoin:round"
     id="path9125"
     sodipodi:nodetypes="cssssssssc" />
  <path
     id="rect7669"
     style="fill:#808080;stroke-width:0.264583;stroke-linecap:round;stroke-linejoin:round"
     d="M 1.7973064,0.66145835 C 0.66124888,0.67000474 0.39687501,0.95278432 0.39687501,2.1166667 v 2.1166667 c 0,1.1638823 0.26437379,1.4466584 1.40043139,1.4552084 h 0.054777 2.6458334 c 1.1823568,0 1.4552083,-0.2728518 1.4552083,-1.4552084 V 2.1166667 c 0,-1.1823567 -0.2728515,-1.45520835 -1.4552083,-1.45520835 H 1.8520834 c -0.018474,0 -0.036744,-1.3565e-4 -0.054777,0 z" />
  <path
     id="rect6397"
     style="fill:url(#linearGradient2292);fill-opacity:1;stroke-width:0.688732;stroke-linejoin:round"
     d="m 5.7929687,1.4999999 c -4.2937606,0.032301 -5.29296876,1.1010742 -5.29296876,5.5 V 17 c 0,4.398925 0.99920776,5.467685 5.29296876,5.5 H 5.9999999 18 c 4.46875,0 5.5,-1.031251 5.5,-5.5 V 6.9999999 c 0,-4.4687499 -1.03125,-5.5 -5.5,-5.5 H 5.9999999 c -0.069823,0 -0.138875,-5.129e-4 -0.2070312,0 z"
     transform="scale(0.26458334)"
     sodipodi:nodetypes="cssccsssssc" />
  <path
     id="rect1324"
     style="fill:url(#linearGradient1060);fill-opacity:1;stroke-width:0.264583;stroke-linecap:round;stroke-linejoin:round"
     d="M 0.26458334,2.6458334 V 3.7041667 H 0.52916668 V 2.6458334 Z m 5.55625016,0 V 3.7041667 H 6.0854168 V 2.6458334 Z"
     sodipodi:nodetypes="cccccccccc" />
  <path
     d="m 2.1108436,3.1700894 c -0.035523,0.035941 -0.07234,0.072319 -0.110789,0.1092279 -0.072813,0.072813 -0.1468437,0.1480423 -0.2220833,0.2257108 -0.075242,0.077666 -0.1431819,0.160184 -0.2038615,0.24756 -0.060677,0.087376 -0.110445,0.1808269 -0.1492805,0.2803261 -0.036407,0.097084 -0.054602,0.2026655 -0.054602,0.3167327 v 0.040053 c 0,0.014552 0.00132,0.029115 0.00365,0.043677 h 1.52908 V 4.1457748 H 1.7415964 c 0,-0.041262 0.015769,-0.089808 0.047329,-0.1456319 0.033978,-0.055822 0.075237,-0.114054 0.12378,-0.1747335 0.048543,-0.060677 0.09951,-0.1189329 0.152908,-0.1747573 l 0.145629,-0.1456293 c 0.072813,-0.072813 0.1456214,-0.1468438 0.2184347,-0.222086 0.035266,-0.037616 0.068734,-0.075242 0.100584,-0.1128527 z m 1.6388025,0 c -0.041587,0.028056 -0.081782,0.059566 -0.1205624,0.094652 -0.048543,0.043688 -0.092223,0.093459 -0.1310561,0.1492832 -0.036407,0.055822 -0.066757,0.1164987 -0.091027,0.1820307 -0.021855,0.063106 -0.032753,0.1298496 -0.032753,0.200234 0,0.072813 0.013335,0.1504659 0.040026,0.2329868 0.026699,0.080095 0.071602,0.1541251 0.1347073,0.2220834 0.063103,0.067958 0.1468437,0.1249918 0.2512113,0.1711087 0.1067911,0.043688 0.2390801,0.065527 0.3968485,0.065527 0.1359162,0 0.2560505,-0.018203 0.3604154,-0.054602 0.1043647,-0.03398 0.1905262,-0.082526 0.2584871,-0.145632 C 4.8863282,4.2222292 4.9385194,4.1470003 4.9724998,4.0620531 5.0089038,3.9746771 5.0271018,3.8800277 5.0271018,3.7781023 5.0226618,3.509365 4.9002687,3.3067471 4.6600718,3.1700898 Z m 0.3090333,0.083727 c 0.097084,0.021855 0.1832452,0.048551 0.2584874,0.080103 0.077666,0.029125 0.143211,0.065519 0.1966066,0.1092067 0.055824,0.043688 0.098282,0.094679 0.1274074,0.1529292 0.029125,0.058251 0.043701,0.126193 0.043701,0.2038588 0,0.050969 -0.00971,0.1007401 -0.029128,0.1492832 -0.01942,0.048541 -0.048543,0.092221 -0.087379,0.1310561 -0.038833,0.036404 -0.089799,0.066733 -0.1529053,0.091004 -0.060677,0.024262 -0.1322864,0.036425 -0.2148097,0.036425 -0.092228,0 -0.1686824,-0.013361 -0.2293596,-0.04005 -0.060677,-0.026699 -0.1104239,-0.05947 -0.1492568,-0.098306 -0.038833,-0.041259 -0.066739,-0.084939 -0.083727,-0.131056 -0.014552,-0.04854 -0.021854,-0.094668 -0.021854,-0.1383533 0,-0.1237827 0.029128,-0.2305632 0.087379,-0.3203575 0.060677,-0.089802 0.1456161,-0.1650577 0.2548361,-0.2257346 z"
     style="fill:#f9f9f9;stroke-width:0.264583;enable-background:new"
     id="path1006" />
  <path
     d="m 2.0255472,1.8520833 c -0.087376,0 -0.1686718,0.010901 -0.2439114,0.032753 -0.07524,0.021855 -0.1432296,0.048551 -0.2039065,0.080103 -0.060679,0.031552 -0.1128686,0.0655 -0.1565566,0.1019069 -0.043688,0.033978 -0.076412,0.06313 -0.098256,0.087403 l 0.1674098,0.2402602 c 0.016986,-0.014552 0.041299,-0.035206 0.07285,-0.061902 0.031551,-0.029125 0.07039,-0.055785 0.1165039,-0.080055 0.046117,-0.026699 0.098306,-0.049736 0.1565567,-0.069154 0.058251,-0.01942 0.1225259,-0.029149 0.1929103,-0.029149 0.058251,0 0.1128871,0.00852 0.1638565,0.025506 0.053396,0.014552 0.099523,0.038825 0.1383559,0.072805 0.038833,0.033978 0.069159,0.076436 0.091003,0.1274048 0.024262,0.050969 0.036401,0.1128951 0.036401,0.1857084 0,0.067958 -0.013361,0.1322785 -0.04005,0.192958 -0.024262,0.060677 -0.058219,0.1201076 -0.1019069,0.1783583 -0.041259,0.055824 -0.089831,0.112858 -0.1456531,0.171106 -0.019526,0.020399 -0.040068,0.041169 -0.060558,0.061905 H 2.530225 C 2.564139,3.1299539 2.596188,3.0899429 2.626224,3.0498933 2.684475,2.9697983 2.7306021,2.8896775 2.7645799,2.8095826 c 0.036407,-0.082521 0.054652,-0.1674837 0.054652,-0.2548597 0,-0.2232924 -0.066768,-0.395605 -0.2002579,-0.5169694 C 2.4879119,1.9139694 2.2900988,1.8520939 2.0255419,1.8520939 Z m 2.1750868,0 c -0.1165014,0 -0.2220569,0.019421 -0.3167063,0.058253 -0.094657,0.036407 -0.1759506,0.086151 -0.2439114,0.1492567 -0.065532,0.063103 -0.1164987,0.1371097 -0.1529054,0.2220595 -0.036407,0.082521 -0.054602,0.169881 -0.054602,0.2621121 0,0.2645543 0.1189091,0.4648201 0.3567642,0.6007365 -0.013361,0.00812 -0.02654,0.016669 -0.039619,0.025506 H 4.6595035 C 4.6372785,3.1573861 4.6144375,3.1451101 4.5902065,3.1336031 4.6387465,3.1020511 4.6848745,3.0656611 4.7285624,3.024399 4.7746764,2.983137 4.8147374,2.93579 4.848715,2.8823945 4.885122,2.8289985 4.913003,2.7719627 4.932421,2.7112858 4.954276,2.6481828 4.965221,2.5814151 4.965221,2.5110279 4.965221,2.4382149 4.950643,2.3629856 4.92152,2.2853172 4.8948213,2.2076516 4.8499188,2.1372645 4.7868131,2.0741587 4.7261362,2.0086267 4.6472374,1.9552153 4.5501538,1.9139535 4.4530703,1.8726944 4.3365584,1.8520992 4.2006392,1.8520992 Z m 0,0.2802996 c 0.077668,0 0.143211,0.013362 0.1966092,0.040053 0.053396,0.024262 0.097123,0.055819 0.1311037,0.094652 0.03398,0.036407 0.05824,0.076467 0.072803,0.1201552 0.016986,0.043688 0.025506,0.083749 0.025506,0.1201553 0,0.131064 -0.030374,0.2378419 -0.091051,0.3203572 C 4.4749249,2.9078476 4.3936316,2.9782347 4.291693,3.0389142 4.1994619,3.0170597 4.119391,2.9879158 4.0514301,2.9515118 3.9858981,2.9151048 3.9324867,2.8738698 3.8912249,2.8277556 3.8499658,2.7816387 3.8196366,2.7318468 3.8002215,2.6784485 3.7808015,2.6250535 3.7710695,2.5716865 3.7710695,2.518291 c 0,-0.043688 0.0073,-0.087368 0.021855,-0.1310561 0.016986,-0.046114 0.042474,-0.087397 0.076451,-0.1238038 0.033981,-0.038833 0.07766,-0.070384 0.1310561,-0.094655 0.055824,-0.024262 0.1225444,-0.036401 0.2002102,-0.036401 z"
     style="fill:#ececec;stroke-width:0.264583;enable-background:new"
     id="path886" />
  <path
     id="rect13049"
     style="opacity:0.05;fill:#ffffff;stroke-width:0.999999;stroke-linecap:round;stroke-linejoin:round"
     d="m 0.49999994,12 v 5 c 0,4.398925 0.99920766,5.467685 5.29296876,5.5 H 5.9999999 18 c 4.46875,0 5.5,-1.031251 5.5,-5.5 v -5 z"
     transform="scale(0.26458334)"
     sodipodi:nodetypes="csccsscc" />
  <path
     id="rect5096"
     style="opacity:0.4;stroke-width:0.240954;stroke-linecap:round;stroke-linejoin:round"
     d="M 1.5276195,0.26458333 C 0.28828403,0.27390666 6.4159692e-5,0.58239335 6.4159692e-5,1.8520834 v 2.6458333 c 0,1.2898438 0.297656260308,1.5875001 1.587500040308,1.5875001 h 3.1749359 c 1.2898438,0 1.5875,-0.2976563 1.5875,-1.5875001 V 1.8520834 c 0,-1.28984381 -0.2976562,-1.58750007 -1.5875,-1.58750007 H 1.5875642 c -0.020154,0 -0.040273,-1.4798e-4 -0.059945,0 z m 0.032556,0.26458334 c 0.018033,-1.3565e-4 0.036303,0 0.054777,0 h 3.1475474 c 1.1823568,0 1.3229167,0.29315998 1.3229167,1.32291673 v 2.6458333 c 0,1.0162919 -0.1405599,1.3229167 -1.3229167,1.3229167 H 1.5875642 c -0.99193699,0 -1.3229167,-0.1405599 -1.3229167,-1.3229167 V 1.8520834 c 0,-0.96076805 0.15947068,-1.31437034 1.295528,-1.32291673 z"
     sodipodi:nodetypes="csssssssscssssssssss" />
  <path
     id="rect1565"
     style="fill:url(#linearGradient1873);fill-opacity:1;stroke-width:0.118194"
     d="M 1.5601116,0.52916667 C 0.42405397,0.53771668 0.26458335,0.89131535 0.26458335,1.8520833 v 2.6458334 c 0,1.1823568 0.33097974,1.3229167 1.32291675,1.3229167 h 3.1749976 c 1.1823568,0 1.3229167,-0.3066248 1.3229167,-1.3229167 V 1.8520833 c 0,-1.02975655 -0.1405599,-1.32291663 -1.3229167,-1.32291663 H 1.6148886 c -0.018473,0 -0.036744,-1.356e-4 -0.054777,0 z m 0.00259,0.26458338 c 0.016229,0 0.032983,0 0.049609,0 h 3.0179001 c 1.0641211,0 1.190625,0.1430056 1.190625,1.05833325 v 2.6458334 c 0,0.8938382 -0.1265039,1.0583334 -1.190625,1.0583334 h -2.910419 c -1.02290214,0 -1.19062501,-0.1576914 -1.19062501,-1.0583334 V 1.8520833 c 0,-0.85400515 0.1411647,-1.05833325 1.03352871,-1.05833325 z"
     sodipodi:nodetypes="csssssssscsssssssssss" />
</svg>
