<?xml version="1.0" encoding="UTF-8" standalone="no"?>
<!-- Created with Inkscape (http://www.inkscape.org/) -->

<svg
   width="24"
   height="24"
   viewBox="0 0 6.3499999 6.3500002"
   version="1.1"
   id="svg5013"
   sodipodi:docname="online-accounts.svg"
   inkscape:version="1.2 (dc2aedaf03, 2022-05-15)"
   xmlns:inkscape="http://www.inkscape.org/namespaces/inkscape"
   xmlns:sodipodi="http://sodipodi.sourceforge.net/DTD/sodipodi-0.dtd"
   xmlns:xlink="http://www.w3.org/1999/xlink"
   xmlns="http://www.w3.org/2000/svg"
   xmlns:svg="http://www.w3.org/2000/svg">
  <sodipodi:namedview
     id="namedview5015"
     pagecolor="#ffffff"
     bordercolor="#666666"
     borderopacity="1.0"
     inkscape:pageshadow="2"
     inkscape:pageopacity="0.0"
     inkscape:pagecheckerboard="0"
     inkscape:document-units="px"
     showgrid="false"
     units="px"
     showguides="false"
     inkscape:zoom="17.217206"
     inkscape:cx="14.694603"
     inkscape:cy="17.250186"
     inkscape:window-width="1854"
     inkscape:window-height="1019"
     inkscape:window-x="0"
     inkscape:window-y="0"
     inkscape:window-maximized="1"
     inkscape:current-layer="svg5013"
     inkscape:showpageshadow="2"
     inkscape:deskcolor="#d1d1d1" />
  <defs
     id="defs5010">
    <linearGradient
       inkscape:collect="always"
       xlink:href="#linearGradient1871"
       id="linearGradient1873"
       x1="17.222656"
       y1="1.325706"
       x2="17.164322"
       y2="46.88232"
       gradientUnits="userSpaceOnUse"
       gradientTransform="matrix(0.12026516,0,0,0.11615853,0.28863637,0.38719515)" />
    <linearGradient
       inkscape:collect="always"
       id="linearGradient1871">
      <stop
         style="stop-color:#ffffff;stop-opacity:1;"
         offset="0"
         id="stop1867" />
      <stop
         style="stop-color:#ffffff;stop-opacity:0.1"
         offset="0.12"
         id="stop2515" />
      <stop
         style="stop-color:#ffffff;stop-opacity:0.102"
         offset="0.89999998"
         id="stop2581" />
      <stop
         style="stop-color:#ffffff;stop-opacity:0.502"
         offset="1"
         id="stop1869" />
    </linearGradient>
    <linearGradient
       inkscape:collect="always"
       xlink:href="#linearGradient2290"
       id="linearGradient2292"
       x1="1.9583793"
       y1="0.097477973"
       x2="6.3288045"
       y2="8.3507528"
       gradientUnits="userSpaceOnUse"
       gradientTransform="matrix(2.7368992,0,0,2.6596675,0.41379327,0.74074096)" />
    <linearGradient
       inkscape:collect="always"
       id="linearGradient2290">
      <stop
         style="stop-color:#8c59d9;stop-opacity:1"
         offset="0"
         id="stop2286" />
      <stop
         style="stop-color:#a7a7f1;stop-opacity:1"
         offset="1"
         id="stop2288" />
    </linearGradient>
    <clipPath
       id="clipPath1231-1">
      <path
         d="m 335.72,189.5 c 6.8108,1e-5 7.7842,0.97093 7.7842,7.7754 v 5.4489 c 0,6.8044 -0.97337,7.7754 -7.7842,7.7754 h -7.4316 c -6.8108,0 -7.7842,-0.97095 -7.7842,-7.7754 v -5.4489 c 0,-6.8045 0.97337,-7.7754 7.7842,-7.7754 z"
         fill="#325fd1"
         id="path7" />
    </clipPath>
  </defs>
  <path
     d="M 1.5275552,0.52916667 C 0.28821992,0.53848667 1.6249999e-8,0.84697669 1.6249999e-8,2.1166667 V 4.7625 C 1.6249999e-8,6.052344 0.29765622,6.35 1.5875,6.35 h 3.175 C 6.0523438,6.35 6.35,6.052344 6.35,4.7625 V 2.1166667 C 6.35,0.82682299 6.0523438,0.52916667 4.7625,0.52916667 h -3.175 c -0.020153,0 -0.040273,-1.48e-4 -0.059945,0 z"
     style="opacity:0.1;fill:#000000;stroke-width:0.264583;stroke-linecap:round;stroke-linejoin:round"
     id="path9125"
     sodipodi:nodetypes="cssssssssc" />
  <path
     id="rect6397"
     style="fill:url(#linearGradient2292);fill-opacity:1;stroke-width:0.688732;stroke-linejoin:round"
     d="m 5.7929687,1.4999999 c -4.2937606,0.032301 -5.29296876,1.1010742 -5.29296876,5.5 V 17 c 0,4.398925 0.99920776,5.467685 5.29296876,5.5 H 5.9999999 18 c 4.46875,0 5.5,-1.031251 5.5,-5.5 V 6.9999999 c 0,-4.4687499 -1.03125,-5.5 -5.5,-5.5 H 5.9999999 c -0.069823,0 -0.138875,-5.129e-4 -0.2070312,0 z"
     transform="scale(0.26458334)"
     sodipodi:nodetypes="cssccsssssc" />
  <path
     id="path1117"
     style="color:#000000;opacity:0.25;fill:#ffffff;stroke-width:0.999999"
     d="M 6.3144531 1.5 C 5.7599336 1.8204704 5.2316057 2.1876561 4.7363281 2.5976562 L 6.4277344 2.5976562 L 6.4277344 1.5 L 6.3144531 1.5 z M 8.4433594 1.5 L 7.8652344 2.1777344 L 9.0976562 3.4375 L 9.0976562 4.7578125 L 10.535156 6.3808594 L 11.357422 6.3808594 L 11.357422 5.5410156 L 12.589844 4.2792969 L 12.589844 3.4375 L 13.410156 2.5976562 L 13.410156 1.5 L 8.4433594 1.5 z M 3.8339844 3.4375 C 3.8088883 3.4650906 3.7846236 3.4936784 3.7597656 3.5214844 L 3.7597656 4.6992188 L 0.64648438 4.6992188 C 0.54309067 5.340215 0.5 6.0996675 0.5 7 L 0.5 11.224609 C 0.50299587 11.966478 0.50752736 12.478204 0.515625 12.523438 L 1.0898438 13.109375 L 2.3222656 13.109375 L 4.375 15.212891 L 4.375 12.689453 L 5.6074219 11.427734 L 6.4277344 11.427734 L 7.6601562 10.166016 L 8.8925781 10.166016 L 8.2773438 9.5351562 L 9.5078125 8.0644531 L 8.2773438 6.8027344 L 6.4277344 6.8027344 L 6.4277344 8.484375 L 5.6074219 8.484375 L 4.7851562 7.6425781 L 4.7851562 6.8027344 L 6.0175781 5.5410156 L 7.0449219 5.5410156 L 7.0449219 4.6992188 L 5.8125 3.4375 L 3.8339844 3.4375 z M 23.009766 3.453125 L 21.212891 5.1210938 L 20.392578 4.2792969 L 17.927734 4.2792969 L 16.695312 5.5410156 L 16.695312 6.5917969 L 17.927734 6.5917969 L 17.927734 5.9609375 L 18.75 5.9609375 L 18.75 6.8027344 L 18.337891 7.2226562 L 16.695312 7.2519531 L 16.080078 7.8535156 L 15.257812 7.8535156 L 15.257812 8.6953125 L 14.642578 9.3261719 L 14.642578 10.585938 L 15.875 10.585938 L 16.695312 9.7460938 L 17.517578 9.7460938 L 17.517578 10.166016 L 18.337891 11.007812 L 18.75 11.007812 L 18.75 10.585938 L 17.927734 9.7460938 L 18.75 9.7460938 L 19.570312 10.585938 L 20.597656 10.585938 L 19.980469 9.9550781 L 20.597656 9.3261719 L 21.212891 9.3261719 L 21.830078 9.9550781 L 21.212891 9.9550781 L 20.597656 10.585938 L 21.203125 11.207031 L 21.212891 11.847656 L 20.392578 11.847656 L 22.857422 14.371094 L 23.5 14.371094 L 23.5 7 C 23.5 5.4257372 23.370928 4.2793792 23.009766 3.453125 z M 20.392578 11.847656 L 17.927734 11.847656 L 17.517578 11.427734 L 15.052734 11.427734 L 13.615234 12.898438 L 13.615234 15.001953 L 14.642578 16.052734 L 16.080078 16.052734 L 16.695312 16.683594 L 16.695312 17.314453 L 17.107422 17.734375 L 17.107422 20.257812 L 18.306641 21.556641 L 21.5 21 L 21.212891 16.894531 L 23.46875 15.050781 C 23.479503 15.009433 23.489688 14.967245 23.5 14.925781 L 23.5 14.791016 L 22.445312 14.791016 L 20.392578 12.689453 L 20.392578 11.847656 z M 12.382812 5.9609375 L 12.382812 6.5917969 L 13.615234 6.5917969 L 13 5.9609375 L 12.382812 5.9609375 z M 16.080078 6.171875 L 15.462891 6.8027344 L 15.462891 7.4335938 L 16.080078 7.4335938 L 16.080078 6.171875 z M 9.7148438 8.484375 L 9.0976562 9.1152344 L 9.7148438 9.1152344 L 9.9199219 9.3261719 L 10.125 9.3261719 L 10.330078 9.1152344 L 9.7148438 8.484375 z M 6.2226562 12.898438 L 5.6074219 13.529297 L 6.8398438 13.529297 L 6.8398438 12.898438 L 6.2226562 12.898438 z M 5.6074219 14.791016 L 4.7851562 15.632812 L 4.7851562 17.734375 L 6.4355469 19.212891 L 6.4277344 21.099609 L 5.8652344 21.675781 C 6.351111 21.989748 6.8590054 22.263964 7.3847656 22.5 L 8.0585938 22.5 L 9.0976562 21.519531 L 9.0976562 20.677734 L 10.330078 19.416016 L 10.330078 18.787109 L 10.945312 18.15625 L 10.945312 16.472656 L 10.125 15.632812 L 8.4824219 15.632812 L 7.6601562 14.791016 L 5.6074219 14.791016 z "
     transform="scale(0.26458334)" />
  <path
     id="path1018"
     style="fill:#ffffff;stroke-width:0.396875"
     d="M 3.175,1.5875 C 2.6013421,1.5878082 2.0724752,1.8975816 1.7916219,2.3977864 1.2164564,2.4921459 0.79415641,2.9890209 0.79375001,3.571875 0.79375001,4.2294389 1.326811,4.7625 1.984375,4.7625 h 2.38125 c 0.5114388,0 0.9260416,-0.4146029 0.9260416,-0.9260417 C 5.2915814,3.4747261 5.0808771,3.146157 4.7521648,2.9951659 4.6607325,2.1932353 3.9821263,1.5875591 3.175,1.5875 Z m 0,0.2645833 c 0.7306267,0 1.3229166,0.59229 1.3229166,1.3229167 -1.494e-4,0.00448 -3.217e-4,0.00896 -5.167e-4,0.013436 0.3081483,0.062645 0.5295993,0.3335713 0.5296834,0.6480225 0,0.3653134 -0.2961449,0.6614583 -0.6614583,0.6614583 H 1.984375 C 1.4729363,4.4979166 1.0583334,4.0833138 1.0583334,3.571875 1.058763,3.0689992 1.4604434,2.6583722 1.9631877,2.6468668 2.1731873,2.164576 2.6489731,1.8525253 3.175,1.8520833 Z" />
  <path
     id="rect1565"
     style="opacity:1;fill:url(#linearGradient1873);fill-opacity:1;stroke-width:0.118194"
     d="M 1.5601116,0.52916667 C 0.42405397,0.53771668 0.26458335,0.89131535 0.26458335,1.8520833 v 2.6458334 c 0,1.1823568 0.33097974,1.3229167 1.32291675,1.3229167 h 3.1749976 c 1.1823568,0 1.3229167,-0.3066248 1.3229167,-1.3229167 V 1.8520833 c 0,-1.02975655 -0.1405599,-1.32291663 -1.3229167,-1.32291663 H 1.6148886 c -0.018473,0 -0.036744,-1.356e-4 -0.054777,0 z m 0.00259,0.26458338 c 0.016229,0 0.032983,0 0.049609,0 h 3.0179001 c 1.0641211,0 1.190625,0.1430056 1.190625,1.05833325 v 2.6458334 c 0,0.8938382 -0.1265039,1.0583334 -1.190625,1.0583334 h -2.910419 c -1.02290214,0 -1.19062501,-0.1576914 -1.19062501,-1.0583334 V 1.8520833 c 0,-0.85400515 0.1411647,-1.05833325 1.03352871,-1.05833325 z"
     sodipodi:nodetypes="csssssssscsssssssssss" />
  <path
     id="rect5096"
     style="opacity:0.4;stroke-width:0.240954;stroke-linecap:round;stroke-linejoin:round"
     d="M 1.5276195,0.26458333 C 0.28828403,0.27390666 6.4159692e-5,0.58239335 6.4159692e-5,1.8520834 v 2.6458333 c 0,1.2898438 0.297656260308,1.5875001 1.587500040308,1.5875001 h 3.1749359 c 1.2898438,0 1.5875,-0.2976563 1.5875,-1.5875001 V 1.8520834 c 0,-1.28984381 -0.2976562,-1.58750007 -1.5875,-1.58750007 H 1.5875642 c -0.020154,0 -0.040273,-1.4798e-4 -0.059945,0 z m 0.032556,0.26458334 c 0.018033,-1.3565e-4 0.036303,0 0.054777,0 h 3.1475474 c 1.1823568,0 1.3229167,0.29315998 1.3229167,1.32291673 v 2.6458333 c 0,1.0162919 -0.1405599,1.3229167 -1.3229167,1.3229167 H 1.5875642 c -0.99193699,0 -1.3229167,-0.1405599 -1.3229167,-1.3229167 V 1.8520834 c 0,-0.96076805 0.15947068,-1.31437034 1.295528,-1.32291673 z"
     sodipodi:nodetypes="csssssssscssssssssss" />
</svg>
