<?xml version="1.0" encoding="UTF-8" standalone="no"?>
<!-- Created with Inkscape (http://www.inkscape.org/) -->

<svg
   width="24"
   height="24"
   viewBox="0 0 6.3499999 6.3500002"
   version="1.1"
   id="svg5013"
   sodipodi:docname="org.xfce.terminal-settings.svg"
   inkscape:version="1.1.2 (0a00cf5339, 2022-02-04)"
   xmlns:inkscape="http://www.inkscape.org/namespaces/inkscape"
   xmlns:sodipodi="http://sodipodi.sourceforge.net/DTD/sodipodi-0.dtd"
   xmlns:xlink="http://www.w3.org/1999/xlink"
   xmlns="http://www.w3.org/2000/svg"
   xmlns:svg="http://www.w3.org/2000/svg">
  <sodipodi:namedview
     id="namedview5015"
     pagecolor="#ffffff"
     bordercolor="#666666"
     borderopacity="1.0"
     inkscape:pageshadow="2"
     inkscape:pageopacity="0.0"
     inkscape:pagecheckerboard="0"
     inkscape:document-units="px"
     showgrid="false"
     units="px"
     showguides="true"
     inkscape:zoom="34.541667"
     inkscape:cx="11.985525"
     inkscape:cy="12"
     inkscape:window-width="1851"
     inkscape:window-height="1049"
     inkscape:window-x="0"
     inkscape:window-y="0"
     inkscape:window-maximized="1"
     inkscape:current-layer="svg5013" />
  <defs
     id="defs5010">
    <linearGradient
       inkscape:collect="always"
       xlink:href="#linearGradient1871"
       id="linearGradient1873"
       x1="17.305155"
       y1="0.083426654"
       x2="17.305155"
       y2="47.797596"
       gradientUnits="userSpaceOnUse"
       gradientTransform="matrix(0.12026516,0,0,0.11615853,0.2886364,0.38726097)" />
    <linearGradient
       inkscape:collect="always"
       id="linearGradient1871">
      <stop
         style="stop-color:#ffffff;stop-opacity:1;"
         offset="0"
         id="stop1867" />
      <stop
         style="stop-color:#ffffff;stop-opacity:0.1"
         offset="0.12"
         id="stop2515" />
      <stop
         style="stop-color:#ffffff;stop-opacity:0.102"
         offset="0.89999998"
         id="stop2581" />
      <stop
         style="stop-color:#ffffff;stop-opacity:0.502"
         offset="1"
         id="stop1869" />
    </linearGradient>
  </defs>
  <path
     d="M 1.5275552,0.52916667 C 0.28821992,0.53848667 1.6249999e-8,0.84697669 1.6249999e-8,2.1166667 V 4.7625 C 1.6249999e-8,6.052344 0.29765622,6.35 1.5875,6.35 h 3.175 C 6.0523438,6.35 6.35,6.052344 6.35,4.7625 V 2.1166667 C 6.35,0.82682299 6.0523438,0.52916667 4.7625,0.52916667 h -3.175 c -0.020153,0 -0.040273,-1.48e-4 -0.059945,0 z"
     style="opacity:0.1;fill:#000000;stroke-width:0.264583;stroke-linecap:round;stroke-linejoin:round"
     id="path9125"
     sodipodi:nodetypes="cssssssssc" />
  <path
     id="rect16934"
     style="fill:#4d4d4d;fill-opacity:1;stroke-width:0.175781;stroke-linecap:round;stroke-linejoin:round"
     d="m 5.7929687,1.4999999 c -4.2937607,0.032301 -5.29296876,1.1010741 -5.29296876,5.5 V 17 c 0,4.398925 0.99920766,5.467685 5.29296876,5.5 H 5.9999999 18 c 4.46875,0 5.5,-1.031251 5.5,-5.5 V 6.9999999 c 0,-4.46875 -1.03125,-5.5 -5.5,-5.5 H 5.9999999 c -0.069823,0 -0.138875,-5.129e-4 -0.2070312,0 z"
     sodipodi:nodetypes="cssccsssssc"
     transform="scale(0.26458334)" />
  <path
     d="m 1.1337818,1.8479505 -0.075449,0.226859 0.764302,0.3064404 -0.764302,0.3064404 0.075449,0.2263432 L 2.116656,2.4975264 V 2.2644655 Z M 2.116656,3.0582076 V 3.3186581 H 3.1749894 V 3.0582076 Z"
     style="opacity:0.2;fill:#000000;stroke-width:0.0700042;enable-background:new"
     id="path1110" />
  <path
     d="M 1.1337819,1.5875 1.0583333,1.814359 1.8226352,2.1207994 1.0583333,2.4272398 1.1337819,2.653583 2.1166561,2.2370759 V 2.004015 Z M 2.1166561,2.7977571 V 3.0582076 H 3.1749894 V 2.7977571 Z"
     style="fill:#f2f2f2;stroke-width:0.264583;enable-background:new"
     id="path872"
     sodipodi:nodetypes="ccccccccccccc" />
  <path
     id="rect5096"
     style="opacity:0.4;stroke-width:0.240954;stroke-linecap:round;stroke-linejoin:round"
     d="M 1.5275554,0.26464907 C 0.2882199,0.27396907 0,0.58245917 0,1.8521492 v 2.6458333 c 0,1.2898438 0.2976563,1.5875001 1.5875001,1.5875001 h 3.1749977 c 1.2898438,0 1.5874999,-0.2976563 1.5874999,-1.5875001 V 1.8521492 c 0,-1.28984383 -0.2976561,-1.58750013 -1.5874999,-1.58750013 H 1.5875001 c -0.020154,0 -0.040273,-1.479e-4 -0.059945,0 z m 0.032556,0.2645834 c 0.018033,-1.357e-4 0.036303,0 0.054777,0 h 3.1476092 c 1.1823568,0 1.3229167,0.29316 1.3229167,1.32291673 v 2.6458333 c 0,1.0162919 -0.1405599,1.3229167 -1.3229167,1.3229167 H 1.5875001 c -0.991937,0 -1.3229168,-0.1405599 -1.3229168,-1.3229167 V 1.8521492 c 0,-0.96076803 0.1594707,-1.31437033 1.2955281,-1.32291673 z"
     sodipodi:nodetypes="csssssssscssssssssss" />
  <path
     id="rect1565"
     style="fill:url(#linearGradient1873);fill-opacity:1;stroke-width:0.118194;opacity:0.3"
     d="M 1.5601116,0.52923247 C 0.424054,0.53778247 0.2645833,0.89138117 0.2645833,1.8521491 v 2.6458334 c 0,1.1823568 0.3309798,1.3229167 1.3229168,1.3229167 h 3.1749977 c 1.1823568,0 1.3229167,-0.3066248 1.3229167,-1.3229167 V 1.8521491 c 0,-1.02975653 -0.1405599,-1.32291663 -1.3229167,-1.32291663 H 1.6148886 c -0.018473,0 -0.036744,-1.356e-4 -0.054777,0 z m 0.00259,0.2645834 h 0.049609 3.0179002 c 1.0641211,0 1.190625,0.1430056 1.190625,1.05833323 v 2.6458334 c 0,0.8938382 -0.1265039,1.0583334 -1.190625,1.0583334 H 1.7197917 c -1.0229021,0 -1.190625,-0.1576914 -1.190625,-1.0583334 V 1.8521491 c 0,-0.85400513 0.1411647,-1.05833323 1.0335287,-1.05833323 z"
     sodipodi:nodetypes="csssssssscsssssssssss" />
  <path
     style="color:#000000;fill:#8f8f8f;stroke-width:0.264583;stroke-linecap:round;stroke-linejoin:round;stroke-dashoffset:1;-inkscape-stroke:none;fill-opacity:1"
     d="M 6.2177085,4.4979168 A 1.7197917,1.7197917 0 0 1 4.4979168,6.2177085 1.7197917,1.7197917 0 0 1 2.7781251,4.4979168 1.7197917,1.7197917 0 0 1 4.4979168,2.7781251 1.7197917,1.7197917 0 0 1 6.2177085,4.4979168 Z"
     id="path997" />
  <path
     style="color:#000000;fill:#000000;fill-opacity:0.4;stroke-width:0.264583;stroke-linecap:round;stroke-linejoin:round;stroke-dashoffset:1;-inkscape-stroke:none"
     d="m 4.4979168,2.6458334 c -1.0213094,0 -1.8520834,0.830774 -1.8520834,1.8520834 0,1.0213094 0.830774,1.8520834 1.8520834,1.8520834 1.0213094,0 1.8520834,-0.830774 1.8520834,-1.8520834 0,-1.0213094 -0.830774,-1.8520834 -1.8520834,-1.8520834 z m 0,0.2645834 c 0.878318,0 1.5875,0.709182 1.5875,1.5875 0,0.878318 -0.709182,1.5875 -1.5875,1.5875 -0.878318,0 -1.5875001,-0.709182 -1.5875001,-1.5875 0,-0.878318 0.7091821,-1.5875 1.5875001,-1.5875 z"
     id="path999" />
  <path
     id="path45"
     d="m 4.3227338,3.4395834 v 0.1803509 c -0.094091,0.018386 -0.1829779,0.051639 -0.2640666,0.097152 L 3.9584149,3.5977133 3.6933146,3.8235394 3.7940838,3.9434287 C 3.7364528,4.0161387 3.6897144,4.0978798 3.6566243,4.186308 L 3.4979778,4.158403 3.4395838,4.5025679 3.6002976,4.5309899 c 0.00316,0.093874 0.020751,0.1842225 0.050643,0.2687175 l -0.1462448,0.085266 0.1762165,0.3012734 0.1488281,-0.086299 c 0.059835,0.066633 0.1295657,0.1242274 0.2067057,0.1705321 L 3.9759851,5.436878 4.3036136,5.5541836 4.3640756,5.3877853 c 0.042591,0.00627 0.085918,0.00982 0.1302245,0.00982 0.045917,-1.6e-6 0.090801,-0.00361 0.1348756,-0.010335 l 0.061495,0.1689812 0.326595,-0.1214396 -0.060461,-0.166915 C 5.0329112,5.2216184 5.1018343,5.1640088 5.1609253,5.0978802 l 0.153996,0.0894 0.1720824,-0.3038573 -0.1483114,-0.085783 c 0.029439,-0.083759 0.046944,-0.1731912 0.050126,-0.2661336 L 5.5562501,4.5020509 5.4937217,4.1589194 5.3330079,4.1873415 C 5.3004039,4.0999641 5.2542174,4.0191461 5.1976156,3.9470461 L 5.302002,3.8219889 5.0338015,3.5992637 4.933549,3.719153 C 4.8529,3.6734145 4.7646631,3.6398328 4.6710329,3.6209678 V 3.4395834 Z m 0.1715656,0.4046265 c 0.3621823,0 0.6547406,0.2929742 0.6547406,0.6562908 0,0.3633163 -0.2925583,0.6562905 -0.6547406,0.6562905 -0.3621821,0 -0.6542236,-0.2929742 -0.6542236,-0.6562905 0,-0.3633166 0.2920415,-0.6562908 0.6542236,-0.6562908 z"
     style="stroke-width:0.264583;fill:#ffffff" />
</svg>
