<?xml version="1.0" encoding="UTF-8" standalone="no"?>
<!-- Created with Inkscape (http://www.inkscape.org/) -->

<svg
   width="24"
   height="24"
   viewBox="0 0 6.3499999 6.3500002"
   version="1.1"
   id="svg5013"
   sodipodi:docname="preferences-system-network.svg"
   inkscape:version="1.1.2 (0a00cf5339, 2022-02-04)"
   xmlns:inkscape="http://www.inkscape.org/namespaces/inkscape"
   xmlns:sodipodi="http://sodipodi.sourceforge.net/DTD/sodipodi-0.dtd"
   xmlns:xlink="http://www.w3.org/1999/xlink"
   xmlns="http://www.w3.org/2000/svg"
   xmlns:svg="http://www.w3.org/2000/svg">
  <sodipodi:namedview
     id="namedview5015"
     pagecolor="#ffffff"
     bordercolor="#666666"
     borderopacity="1.0"
     inkscape:pageshadow="2"
     inkscape:pageopacity="0.0"
     inkscape:pagecheckerboard="0"
     inkscape:document-units="px"
     showgrid="false"
     units="px"
     showguides="false"
     inkscape:zoom="24.348806"
     inkscape:cx="15.791329"
     inkscape:cy="16.140422"
     inkscape:window-width="1920"
     inkscape:window-height="1010"
     inkscape:window-x="0"
     inkscape:window-y="0"
     inkscape:window-maximized="1"
     inkscape:current-layer="svg5013" />
  <defs
     id="defs5010">
    <linearGradient
       inkscape:collect="always"
       xlink:href="#linearGradient1871"
       id="linearGradient1873"
       x1="17.222656"
       y1="1.325706"
       x2="17.164322"
       y2="46.88232"
       gradientUnits="userSpaceOnUse"
       gradientTransform="matrix(0.12026516,0,0,0.11615853,0.28863637,0.38719515)" />
    <linearGradient
       inkscape:collect="always"
       id="linearGradient1871">
      <stop
         style="stop-color:#ffffff;stop-opacity:1;"
         offset="0"
         id="stop1867" />
      <stop
         style="stop-color:#ffffff;stop-opacity:0.1"
         offset="0.12"
         id="stop2515" />
      <stop
         style="stop-color:#ffffff;stop-opacity:0.102"
         offset="0.89999998"
         id="stop2581" />
      <stop
         style="stop-color:#ffffff;stop-opacity:0.502"
         offset="1"
         id="stop1869" />
    </linearGradient>
    <linearGradient
       inkscape:collect="always"
       xlink:href="#linearGradient2290"
       id="linearGradient2292"
       x1="1.9583793"
       y1="0.097477973"
       x2="6.3288045"
       y2="8.3507528"
       gradientUnits="userSpaceOnUse"
       gradientTransform="matrix(2.7368992,0,0,2.6596675,0.41379327,0.74074096)" />
    <linearGradient
       inkscape:collect="always"
       id="linearGradient2290">
      <stop
         style="stop-color:#8c59d9;stop-opacity:1"
         offset="0"
         id="stop2286" />
      <stop
         style="stop-color:#a7a7f1;stop-opacity:1"
         offset="1"
         id="stop2288" />
    </linearGradient>
    <clipPath
       id="clipPath1231-1">
      <path
         d="m 335.72,189.5 c 6.8108,1e-5 7.7842,0.97093 7.7842,7.7754 v 5.4489 c 0,6.8044 -0.97337,7.7754 -7.7842,7.7754 h -7.4316 c -6.8108,0 -7.7842,-0.97095 -7.7842,-7.7754 v -5.4489 c 0,-6.8045 0.97337,-7.7754 7.7842,-7.7754 z"
         fill="#325fd1"
         id="path7" />
    </clipPath>
  </defs>
  <path
     d="M 1.5275552,0.52916667 C 0.28821992,0.53848667 1.6249999e-8,0.84697669 1.6249999e-8,2.1166667 V 4.7625 C 1.6249999e-8,6.052344 0.29765622,6.35 1.5875,6.35 h 3.175 C 6.0523438,6.35 6.35,6.052344 6.35,4.7625 V 2.1166667 C 6.35,0.82682299 6.0523438,0.52916667 4.7625,0.52916667 h -3.175 c -0.020153,0 -0.040273,-1.48e-4 -0.059945,0 z"
     style="opacity:0.1;fill:#000000;stroke-width:0.264583;stroke-linecap:round;stroke-linejoin:round"
     id="path9125"
     sodipodi:nodetypes="cssssssssc" />
  <path
     id="rect6397"
     style="fill:url(#linearGradient2292);fill-opacity:1;stroke-width:0.688732;stroke-linejoin:round"
     d="m 5.7929687,1.4999999 c -4.2937606,0.032301 -5.29296876,1.1010742 -5.29296876,5.5 V 17 c 0,4.398925 0.99920776,5.467685 5.29296876,5.5 H 5.9999999 18 c 4.46875,0 5.5,-1.031251 5.5,-5.5 V 6.9999999 c 0,-4.4687499 -1.03125,-5.5 -5.5,-5.5 H 5.9999999 c -0.069823,0 -0.138875,-5.129e-4 -0.2070312,0 z"
     transform="scale(0.26458334)"
     sodipodi:nodetypes="cssccsssssc" />
  <path
     id="path27"
     style="font-variant-ligatures:normal;font-variant-position:normal;font-variant-caps:normal;font-variant-numeric:normal;font-variant-alternates:normal;font-feature-settings:normal;text-indent:0;text-decoration-line:none;text-decoration-style:solid;text-decoration-color:#000000;text-transform:none;text-orientation:mixed;white-space:normal;shape-padding:0;isolation:auto;mix-blend-mode:normal;stroke-width:0.999999;fill:#ffffff;opacity:0.5"
     d="M 6.34375 1.5 C 6.2229016 4.1547768 6.1845244 6.8083995 6.28125 8.2324219 C 5.3781045 7.6587001 2.8493467 5.6260632 0.79882812 3.9941406 C 0.74577766 4.1821518 0.69971933 4.3826131 0.66210938 4.5976562 C 2.6569514 6.1900074 5.0358995 8.1022958 5.8886719 8.6464844 C 4.6334676 9.1257074 2.2757981 11.011921 0.5 12.861328 L 0.5 13.615234 C 2.3827125 11.675608 4.9521189 9.5893672 6.3457031 9.0722656 C 6.4722833 10.501865 6.66507 11.895475 6.9511719 13.234375 C 7.2628128 14.692675 7.6917162 16.081644 8.2226562 17.402344 C 7.4400556 17.667901 6.6578907 17.881096 5.9003906 18.041016 C 5.0117556 18.228642 2.6128984 18.673323 0.59960938 18.972656 C 0.62419641 19.172928 0.65428613 19.363481 0.68945312 19.542969 C 2.6057165 19.246886 5.1997071 18.760876 6.0097656 18.589844 C 6.7988856 18.423234 7.6166468 18.203208 8.4355469 17.923828 C 9.0023985 19.234621 10.033229 20.82928 11.390625 22.5 L 12.099609 22.5 C 10.684659 20.802327 9.5378315 19.092916 8.9472656 17.732422 C 11.231866 16.880082 13.483869 15.534256 15.167969 13.472656 C 16.992408 14.17269 20.269508 15.478919 23.5 16.230469 L 23.5 15.554688 C 20.981589 14.926939 18.180072 13.96629 15.503906 12.876953 C 16.393178 10.921303 17.102248 8.8633865 17.603516 6.7363281 C 18.621229 6.6433934 21.254111 6.504103 23.492188 6.3984375 C 23.487442 6.2044961 23.480682 6.01562 23.470703 5.8359375 C 21.262109 5.9402691 18.702601 6.0723049 17.734375 6.1582031 C 17.905846 5.3618395 18.159737 3.3982618 18.355469 1.5039062 C 18.238902 1.5023303 18.121609 1.5 18 1.5 L 17.789062 1.5 C 17.59554 3.4593587 17.356422 5.3292461 17.158203 6.2226562 C 13.524603 6.5745662 10.072444 7.181178 6.8398438 8.2988281 C 6.7408811 6.894693 6.7921186 4.1089492 6.9042969 1.5 L 6.34375 1.5 z M 17.027344 6.8007812 C 16.535386 8.8287084 15.847885 10.792683 14.994141 12.666016 C 11.996312 11.420056 9.1901108 10.028746 7.1640625 8.78125 C 10.249363 7.7318498 13.548644 7.1473809 17.027344 6.8007812 z M 6.9140625 9.2871094 C 9.3613625 10.793209 11.919081 12.184525 14.613281 13.265625 C 13.016481 15.147725 10.899928 16.407691 8.7363281 17.212891 C 8.2151883 15.919291 7.793928 14.554934 7.4863281 13.115234 C 7.2231982 11.883934 7.0393924 10.603309 6.9140625 9.2871094 z "
     transform="scale(0.26458334)" />
  <path
     id="ellipse29"
     style="stroke-width:0.999999;fill:#ffffff"
     d="M 17.570312 5.6523438 A 1.2977001 1.327 0 0 0 16.273438 6.9804688 A 1.2977001 1.327 0 0 0 17.570312 8.3066406 A 1.2977001 1.327 0 0 0 18.869141 6.9804688 A 1.2977001 1.327 0 0 0 17.570312 5.6523438 z M 6.3261719 7.4707031 A 1.2977001 1.327 0 0 0 5.0292969 8.7988281 A 1.2977001 1.327 0 0 0 6.3261719 10.125 A 1.2977001 1.327 0 0 0 7.6230469 8.7988281 A 1.2977001 1.327 0 0 0 6.3261719 7.4707031 z M 14.974609 11.845703 A 1.2977001 1.327 0 0 0 13.677734 13.173828 A 1.2977001 1.327 0 0 0 14.974609 14.5 A 1.2977001 1.327 0 0 0 16.273438 13.173828 A 1.2977001 1.327 0 0 0 14.974609 11.845703 z M 8.9199219 16.269531 A 1.2977001 1.327 0 0 0 7.6210938 17.595703 A 1.2977001 1.327 0 0 0 8.9199219 18.923828 A 1.2977001 1.327 0 0 0 10.216797 17.595703 A 1.2977001 1.327 0 0 0 8.9199219 16.269531 z "
     transform="scale(0.26458334)" />
  <path
     id="rect1565"
     style="opacity:1;fill:url(#linearGradient1873);fill-opacity:1;stroke-width:0.118194"
     d="M 1.5601116,0.52916667 C 0.42405397,0.53771668 0.26458335,0.89131535 0.26458335,1.8520833 v 2.6458334 c 0,1.1823568 0.33097974,1.3229167 1.32291675,1.3229167 h 3.1749976 c 1.1823568,0 1.3229167,-0.3066248 1.3229167,-1.3229167 V 1.8520833 c 0,-1.02975655 -0.1405599,-1.32291663 -1.3229167,-1.32291663 H 1.6148886 c -0.018473,0 -0.036744,-1.356e-4 -0.054777,0 z m 0.00259,0.26458338 c 0.016229,0 0.032983,0 0.049609,0 h 3.0179001 c 1.0641211,0 1.190625,0.1430056 1.190625,1.05833325 v 2.6458334 c 0,0.8938382 -0.1265039,1.0583334 -1.190625,1.0583334 h -2.910419 c -1.02290214,0 -1.19062501,-0.1576914 -1.19062501,-1.0583334 V 1.8520833 c 0,-0.85400515 0.1411647,-1.05833325 1.03352871,-1.05833325 z"
     sodipodi:nodetypes="csssssssscsssssssssss" />
  <path
     id="rect5096"
     style="opacity:0.4;stroke-width:0.240954;stroke-linecap:round;stroke-linejoin:round"
     d="M 1.5276195,0.26458333 C 0.28828403,0.27390666 6.4159692e-5,0.58239335 6.4159692e-5,1.8520834 v 2.6458333 c 0,1.2898438 0.297656260308,1.5875001 1.587500040308,1.5875001 h 3.1749359 c 1.2898438,0 1.5875,-0.2976563 1.5875,-1.5875001 V 1.8520834 c 0,-1.28984381 -0.2976562,-1.58750007 -1.5875,-1.58750007 H 1.5875642 c -0.020154,0 -0.040273,-1.4798e-4 -0.059945,0 z m 0.032556,0.26458334 c 0.018033,-1.3565e-4 0.036303,0 0.054777,0 h 3.1475474 c 1.1823568,0 1.3229167,0.29315998 1.3229167,1.32291673 v 2.6458333 c 0,1.0162919 -0.1405599,1.3229167 -1.3229167,1.3229167 H 1.5875642 c -0.99193699,0 -1.3229167,-0.1405599 -1.3229167,-1.3229167 V 1.8520834 c 0,-0.96076805 0.15947068,-1.31437034 1.295528,-1.32291673 z"
     sodipodi:nodetypes="csssssssscssssssssss" />
</svg>
