<?xml version="1.0" encoding="UTF-8" standalone="no"?>
<!-- Created with Inkscape (http://www.inkscape.org/) -->

<svg
   width="24"
   height="24"
   viewBox="0 0 6.3499999 6.3500002"
   version="1.1"
   id="svg5013"
   sodipodi:docname="preferences-gtk-config.svg"
   inkscape:version="1.1.2 (0a00cf5339, 2022-02-04)"
   xmlns:inkscape="http://www.inkscape.org/namespaces/inkscape"
   xmlns:sodipodi="http://sodipodi.sourceforge.net/DTD/sodipodi-0.dtd"
   xmlns:xlink="http://www.w3.org/1999/xlink"
   xmlns="http://www.w3.org/2000/svg"
   xmlns:svg="http://www.w3.org/2000/svg">
  <sodipodi:namedview
     id="namedview5015"
     pagecolor="#ffffff"
     bordercolor="#666666"
     borderopacity="1.0"
     inkscape:pageshadow="2"
     inkscape:pageopacity="0.0"
     inkscape:pagecheckerboard="0"
     inkscape:document-units="px"
     showgrid="false"
     units="px"
     showguides="true"
     inkscape:zoom="32.75"
     inkscape:cx="12.015267"
     inkscape:cy="12"
     inkscape:window-width="1920"
     inkscape:window-height="998"
     inkscape:window-x="0"
     inkscape:window-y="0"
     inkscape:window-maximized="1"
     inkscape:current-layer="svg5013" />
  <defs
     id="defs5010">
    <linearGradient
       inkscape:collect="always"
       xlink:href="#linearGradient1871"
       id="linearGradient1873"
       x1="10.572797"
       y1="1.2222221"
       x2="10.805839"
       y2="46.70113"
       gradientUnits="userSpaceOnUse"
       gradientTransform="matrix(0.12026516,0,0,0.11615853,0.28863637,0.38719515)" />
    <linearGradient
       inkscape:collect="always"
       id="linearGradient1871">
      <stop
         style="stop-color:#ffffff;stop-opacity:1;"
         offset="0"
         id="stop1867" />
      <stop
         style="stop-color:#ffffff;stop-opacity:0.1"
         offset="0.12"
         id="stop2515" />
      <stop
         style="stop-color:#ffffff;stop-opacity:0.102"
         offset="0.89999998"
         id="stop2581" />
      <stop
         style="stop-color:#ffffff;stop-opacity:0.502"
         offset="1"
         id="stop1869" />
    </linearGradient>
    <linearGradient
       inkscape:collect="always"
       xlink:href="#linearGradient2290"
       id="linearGradient2292"
       x1="8.617857"
       y1="6.4892545"
       x2="-0.15119053"
       y2="1.9774122"
       gradientUnits="userSpaceOnUse"
       gradientTransform="matrix(2.7368992,0,0,2.6596675,0.41379327,0.74074096)" />
    <linearGradient
       inkscape:collect="always"
       id="linearGradient2290">
      <stop
         style="stop-color:#2de360;stop-opacity:1"
         offset="0"
         id="stop2286" />
      <stop
         style="stop-color:#388eba;stop-opacity:1"
         offset="1"
         id="stop2288" />
    </linearGradient>
  </defs>
  <path
     d="M 1.5275552,0.52916667 C 0.28821992,0.53848667 1.6249999e-8,0.84697669 1.6249999e-8,2.1166667 V 4.7625 C 1.6249999e-8,6.052344 0.29765622,6.35 1.5875,6.35 h 3.175 C 6.0523438,6.35 6.35,6.052344 6.35,4.7625 V 2.1166667 C 6.35,0.82682299 6.0523438,0.52916667 4.7625,0.52916667 h -3.175 c -0.020153,0 -0.040273,-1.48e-4 -0.059945,0 z"
     style="opacity:0.1;fill:#000000;stroke-width:0.264583;stroke-linecap:round;stroke-linejoin:round"
     id="path9125"
     sodipodi:nodetypes="cssssssssc" />
  <path
     id="rect7669"
     style="fill:#808080;stroke-width:0.264583;stroke-linecap:round;stroke-linejoin:round"
     d="M 1.7973064,0.66145835 C 0.66124888,0.67000474 0.39687501,0.95278432 0.39687501,2.1166667 v 2.1166667 c 0,1.1638823 0.26437379,1.4466584 1.40043139,1.4552084 h 0.054777 2.6458334 c 1.1823568,0 1.4552083,-0.2728518 1.4552083,-1.4552084 V 2.1166667 c 0,-1.1823567 -0.2728515,-1.45520835 -1.4552083,-1.45520835 H 1.8520834 c -0.018474,0 -0.036744,-1.3565e-4 -0.054777,0 z" />
  <path
     id="rect6397"
     style="fill:url(#linearGradient2292);fill-opacity:1;stroke-width:0.688732;stroke-linejoin:round"
     d="m 5.7929687,1.4999999 c -4.2937606,0.032301 -5.29296876,1.1010742 -5.29296876,5.5 V 17 c 0,4.398925 0.99920776,5.467685 5.29296876,5.5 H 5.9999999 18 c 4.46875,0 5.5,-1.031251 5.5,-5.5 V 6.9999999 c 0,-4.4687499 -1.03125,-5.5 -5.5,-5.5 H 5.9999999 c -0.069823,0 -0.138875,-5.129e-4 -0.2070312,0 z"
     transform="scale(0.26458334)"
     sodipodi:nodetypes="cssccsssssc" />
  <path
     d="m 4.320436,1.3229167 c -0.7752028,0 -0.9206442,1.1776604 -0.4844786,1.1776604 0.4359805,0 1.2597607,-1.1776604 0.4844786,-1.1776604 z M 3.1267153,1.5039684 c -0.012224,-5.56e-5 -0.025559,-6.35e-5 -0.039309,0.00283 -0.4392877,0.055478 -0.2847975,0.7989358 -0.05094,0.8128 0.2264463,0.0136 0.4739746,-0.8136996 0.089696,-0.8150225 z M 2.3648476,1.7786059 c -0.026874,-0.00283 -0.056573,0.00357 -0.089696,0.017172 C 1.9220382,1.9407479 2.2214386,2.5391772 2.419111,2.4989341 2.5985302,2.4624798 2.6243297,1.7954599 2.3648476,1.7786059 Z M 1.7884792,2.2680586 c -0.030692,0 -0.063693,0.00955 -0.09911,0.035991 C 1.4067413,2.5149887 1.7844002,3.0247746 1.9507035,2.94577 2.0961741,2.876574 2.0033685,2.275845 1.7884795,2.2680662 Z m 1.6693357,0.486119 C 2.8454103,2.7437001 2.0375844,3.0545062 1.899763,3.678817 1.7506279,4.3542718 2.5140196,5.2916641 3.3105213,5.2916641 c 0.3918215,0 0.8438886,-0.3581929 0.9285024,-0.8116888 0.064569,-0.3457839 -0.760439,-0.2071476 -0.7308586,0.02159 0.035565,0.2742671 -0.1984296,0.4098661 -0.42799,0.2330979 C 2.3494488,4.1718151 4.2900883,3.8907482 4.1620563,3.1218162 4.1222154,2.8824423 3.8252418,2.7604747 3.4577884,2.7541776 Z"
     style="clip-rule:evenodd;opacity:0.1;fill:#000000;fill-rule:evenodd;stroke-width:0.264583;image-rendering:optimizeQuality;shape-rendering:geometricPrecision;enable-background:new"
     id="path877"
     sodipodi:nodetypes="sssccccccccccccccccscccccc" />
  <path
     d="m 4.320436,1.0583333 c -0.775203,0 -0.9206442,1.1776604 -0.4844785,1.1776604 0.4359804,0 1.2597606,-1.1776604 0.4844785,-1.1776604 z M 3.1267154,1.239385 c -0.012224,-5.56e-5 -0.025559,-6.35e-5 -0.039309,0.00283 -0.4392877,0.055478 -0.2847975,0.7989358 -0.05094,0.8128 0.2264463,0.0136 0.4739746,-0.8136995 0.089696,-0.8150225 z M 2.3648476,1.5140225 c -0.026874,-0.00283 -0.056573,0.00357 -0.089696,0.017172 C 1.9220382,1.6761645 2.2214386,2.2745938 2.419111,2.2343507 2.5985302,2.1978964 2.6243296,1.5308765 2.3648476,1.5140225 Z M 1.7884792,2.0034752 c -0.030692,0 -0.063693,0.00955 -0.09911,0.035991 -0.2826279,0.2109391 0.095031,0.720725 0.2613343,0.6417204 0.1454706,-0.069196 0.052665,-0.669925 -0.162224,-0.6777038 z M 3.457815,2.4895942 C 2.8454104,2.4791167 2.0375844,2.7899227 1.899763,3.4142336 1.7506279,4.0896884 2.5140196,5.0270807 3.3105212,5.0270807 3.7023429,5.0270807 4.15441,4.6688878 4.2390237,4.2153919 4.3035927,3.869608 3.4785848,4.0082443 3.5081652,4.2369819 3.5437299,4.511249 3.3097353,4.646848 3.0801752,4.4700798 2.3494488,3.9072317 4.2900883,3.6261648 4.1620562,2.8572327 4.1222155,2.6178589 3.8252418,2.4958913 3.4577882,2.4895942 Z"
     style="clip-rule:evenodd;opacity:1;fill:#faf8f6;fill-opacity:1;fill-rule:evenodd;stroke-width:0.0700042;image-rendering:optimizeQuality;shape-rendering:geometricPrecision;enable-background:new"
     id="path989" />
  <path
     id="rect5096"
     style="opacity:0.4;stroke-width:0.240954;stroke-linecap:round;stroke-linejoin:round"
     d="M 1.5276195,0.26458333 C 0.28828403,0.27390666 6.4159692e-5,0.58239335 6.4159692e-5,1.8520834 v 2.6458333 c 0,1.2898438 0.297656260308,1.5875001 1.587500040308,1.5875001 h 3.1749359 c 1.2898438,0 1.5875,-0.2976563 1.5875,-1.5875001 V 1.8520834 c 0,-1.28984381 -0.2976562,-1.58750007 -1.5875,-1.58750007 H 1.5875642 c -0.020154,0 -0.040273,-1.4798e-4 -0.059945,0 z m 0.032556,0.26458334 c 0.018033,-1.3565e-4 0.036303,0 0.054777,0 h 3.1475474 c 1.1823568,0 1.3229167,0.29315998 1.3229167,1.32291673 v 2.6458333 c 0,1.0162919 -0.1405599,1.3229167 -1.3229167,1.3229167 H 1.5875642 c -0.99193699,0 -1.3229167,-0.1405599 -1.3229167,-1.3229167 V 1.8520834 c 0,-0.96076805 0.15947068,-1.31437034 1.295528,-1.32291673 z"
     sodipodi:nodetypes="csssssssscssssssssss" />
  <path
     id="rect1565"
     style="fill:url(#linearGradient1873);fill-opacity:1;stroke-width:0.118194;opacity:0.3"
     d="M 1.5601116,0.52916667 C 0.42405397,0.53771668 0.26458335,0.89131535 0.26458335,1.8520833 v 2.6458334 c 0,1.1823568 0.33097974,1.3229167 1.32291675,1.3229167 h 3.1749976 c 1.1823568,0 1.3229167,-0.3066248 1.3229167,-1.3229167 V 1.8520833 c 0,-1.02975655 -0.1405599,-1.32291663 -1.3229167,-1.32291663 H 1.6148886 c -0.018473,0 -0.036744,-1.356e-4 -0.054777,0 z m 0.00259,0.26458338 c 0.016229,0 0.032983,0 0.049609,0 h 3.0179001 c 1.0641211,0 1.190625,0.1430056 1.190625,1.05833325 v 2.6458334 c 0,0.8938382 -0.1265039,1.0583334 -1.190625,1.0583334 h -2.910419 c -1.02290214,0 -1.19062501,-0.1576914 -1.19062501,-1.0583334 V 1.8520833 c 0,-0.85400515 0.1411647,-1.05833325 1.03352871,-1.05833325 z"
     sodipodi:nodetypes="csssssssscsssssssssss" />
</svg>
