<?xml version="1.0" encoding="UTF-8" standalone="no"?>
<!-- Created with Inkscape (http://www.inkscape.org/) -->

<svg
   width="24"
   height="24"
   viewBox="0 0 6.3499999 6.3500002"
   version="1.1"
   id="svg5013"
   sodipodi:docname="preferences-desktop-keyboard-shortcuts.svg"
   inkscape:version="1.1.2 (0a00cf5339, 2022-02-04)"
   xmlns:inkscape="http://www.inkscape.org/namespaces/inkscape"
   xmlns:sodipodi="http://sodipodi.sourceforge.net/DTD/sodipodi-0.dtd"
   xmlns:xlink="http://www.w3.org/1999/xlink"
   xmlns="http://www.w3.org/2000/svg"
   xmlns:svg="http://www.w3.org/2000/svg">
  <sodipodi:namedview
     id="namedview5015"
     pagecolor="#ffffff"
     bordercolor="#666666"
     borderopacity="1.0"
     inkscape:pageshadow="2"
     inkscape:pageopacity="0.0"
     inkscape:pagecheckerboard="0"
     inkscape:document-units="px"
     showgrid="false"
     units="px"
     showguides="true"
     inkscape:zoom="32.75"
     inkscape:cx="12"
     inkscape:cy="12.015267"
     inkscape:window-width="1920"
     inkscape:window-height="1012"
     inkscape:window-x="0"
     inkscape:window-y="0"
     inkscape:window-maximized="1"
     inkscape:current-layer="svg5013" />
  <defs
     id="defs5010">
    <linearGradient
       inkscape:collect="always"
       xlink:href="#linearGradient1871"
       id="linearGradient1873"
       x1="11.046622"
       y1="2.3372049"
       x2="10.794909"
       y2="47.930588"
       gradientUnits="userSpaceOnUse"
       gradientTransform="matrix(0.12026516,0,0,0.11615853,0.28863637,0.25496375)" />
    <linearGradient
       inkscape:collect="always"
       id="linearGradient1871">
      <stop
         style="stop-color:#ffffff;stop-opacity:1;"
         offset="0"
         id="stop1867" />
      <stop
         style="stop-color:#ffffff;stop-opacity:0.1"
         offset="0.12"
         id="stop2515" />
      <stop
         style="stop-color:#ffffff;stop-opacity:0.102"
         offset="0.89999998"
         id="stop2581" />
      <stop
         style="stop-color:#ffffff;stop-opacity:0.502"
         offset="1"
         id="stop1869" />
    </linearGradient>
    <linearGradient
       inkscape:collect="always"
       xlink:href="#linearGradient2290"
       id="linearGradient2292"
       x1="1.9654269"
       y1="0.47346479"
       x2="1.9480034"
       y2="8.356617"
       gradientUnits="userSpaceOnUse"
       gradientTransform="matrix(0.72413793,0,0,0.70370371,0.10948281,0.06375639)" />
    <linearGradient
       inkscape:collect="always"
       id="linearGradient2290">
      <stop
         style="stop-color:#a7a7a7;stop-opacity:1"
         offset="0"
         id="stop2286" />
      <stop
         style="stop-color:#d9d9d9;stop-opacity:1"
         offset="1"
         id="stop2288" />
    </linearGradient>
  </defs>
  <path
     d="M 1.5275554,0.79381578 C 0.28822009,0.80313578 1.9010417e-7,1.1116258 1.9010417e-7,2.3813158 v 2.381217 c 0,1.289844 0.29765619989583,1.5875 1.58750000989583,1.5875 h 3.1749977 c 1.2898438,0 1.5875,-0.297656 1.5875,-1.5875 v -2.381217 c 0,-1.2898437 -0.2976562,-1.58750002 -1.5875,-1.58750002 H 1.5875002 c -0.020153,0 -0.040273,-1.48e-4 -0.059945,0 z"
     style="opacity:0.1;fill:#000000;stroke-width:0.264583;stroke-linecap:round;stroke-linejoin:round"
     id="path9125"
     sodipodi:nodetypes="cssssssssc" />
  <path
     id="rect6397"
     style="fill:url(#linearGradient2292);fill-opacity:1;stroke-width:0.182227;stroke-linejoin:round"
     d="M 1.532723,0.39693532 C 0.39666551,0.40548163 0.13229168,0.68826121 0.13229168,1.8521437 v 2.6458334 c 0,1.1638823 0.26437373,1.4466584 1.40043132,1.4552084 H 1.5875 4.7624975 c 1.1823568,0 1.4552083,-0.2728518 1.4552083,-1.4552084 V 1.8521437 c 0,-1.18235679 -0.2728515,-1.45520838 -1.4552083,-1.45520838 H 1.5875 c -0.018474,0 -0.036744,-1.3571e-4 -0.054777,0 z"
     sodipodi:nodetypes="cssccsssssc" />
  <path
     id="rect5096"
     style="opacity:0.4;stroke-width:0.240954;stroke-linecap:round;stroke-linejoin:round"
     d="M 1.5275554,0.26458333 C 0.28821988,0.27390666 1.0104166e-8,0.58239335 1.0104166e-8,1.8520834 V 4.4978839 C 1.0104166e-8,5.7877277 0.29765627,6.085384 1.5875001,6.085384 h 3.1749975 c 1.2898438,0 1.5875,-0.2976563 1.5875,-1.5875001 V 1.8520834 c 0,-1.28984381 -0.2976562,-1.58750007 -1.5875,-1.58750007 H 1.5875001 c -0.020154,0 -0.040273,-1.4798e-4 -0.059945,0 z m 0.032556,0.26458334 c 0.018033,-1.3565e-4 0.036303,0 0.054777,0 h 3.147609 c 1.1823568,0 1.3229167,0.29315998 1.3229167,1.32291673 v 2.6458005 c 0,1.0162919 -0.1405599,1.3229167 -1.3229167,1.3229167 H 1.5875001 c -0.99193704,0 -1.32291675,-0.1405599 -1.32291675,-1.3229167 V 1.8520834 c 0,-0.96076805 0.15947068,-1.31437034 1.29552805,-1.32291673 z"
     sodipodi:nodetypes="csssssssscssssssssss" />
  <path
     id="rect1565"
     style="fill:url(#linearGradient1873);fill-opacity:1;stroke-width:0.118194;opacity:0.7"
     d="M 1.5601116,0.52922694 C 0.42405397,0.53777695 0.26458335,0.8913756 0.26458335,1.8521436 V 4.497977 c 0,1.1823568 0.33097974,1.3229167 1.32291675,1.3229167 h 3.1749975 c 1.1823568,0 1.3229167,-0.3066248 1.3229167,-1.3229167 V 1.8521436 c 0,-1.02975658 -0.1405599,-1.32291666 -1.3229167,-1.32291666 h -3.147609 c -0.018473,0 -0.036744,-1.356e-4 -0.054777,0 z m 0.00259,0.26458338 h 0.049609 3.0179 c 1.0641211,0 1.190625,0.14300558 1.190625,1.05833328 V 4.497977 c 0,0.8938382 -0.1265039,1.0583334 -1.190625,1.0583334 H 1.7197917 c -1.02290214,0 -1.19062501,-0.1576914 -1.19062501,-1.0583334 V 1.8521436 c 0,-0.8540052 0.14116471,-1.05833328 1.03352871,-1.05833328 z"
     sodipodi:nodetypes="csssssssscsssssssssss" />
  <path
     id="path875"
     style="color:#000000;opacity:0.05;fill:#000000;stroke-width:0.529167;stroke-linejoin:round;-inkscape-stroke:none"
     d="M 1.3229166,1.8520833 A 0.2646098,0.2646098 0 0 0 1.0583333,2.1166666 V 2.6458333 A 0.2646098,0.2646098 0 0 0 1.3229166,2.9104166 H 1.5874999 V 3.4395833 H 1.3229166 A 0.2646098,0.2646098 0 0 0 1.0583333,3.7041667 V 4.2333333 A 0.2646098,0.2646098 0 0 0 1.3229166,4.4979167 H 1.8520833 A 0.2646098,0.2646098 0 0 0 1.9843749,4.365625 0.2646098,0.2646098 0 0 0 2.1166666,4.4979167 H 4.2333333 A 0.2646098,0.2646098 0 0 0 4.365625,4.365625 0.2646098,0.2646098 0 0 0 4.4979167,4.4979167 H 5.0270834 A 0.2646098,0.2646098 0 0 0 5.2916667,4.2333333 V 3.7041667 A 0.2646098,0.2646098 0 0 0 5.0270834,3.4395833 V 2.9104166 A 0.2646098,0.2646098 0 0 0 5.2916667,2.6458333 V 2.1166666 A 0.2646098,0.2646098 0 0 0 5.0270834,1.8520833 H 4.4979167 A 0.2646098,0.2646098 0 0 0 4.365625,1.9843749 0.2646098,0.2646098 0 0 0 4.2333333,1.8520833 H 3.7041667 A 0.2646098,0.2646098 0 0 0 3.571875,1.9843749 0.2646098,0.2646098 0 0 0 3.4395833,1.8520833 H 2.9104166 A 0.2646098,0.2646098 0 0 0 2.778125,1.9843749 0.2646098,0.2646098 0 0 0 2.6458333,1.8520833 H 2.1166666 A 0.2646098,0.2646098 0 0 0 1.9843749,1.9843749 0.2646098,0.2646098 0 0 0 1.8520833,1.8520833 Z" />
  <path
     d="M 1.3229167,2.3812499 V 2.9104166 H 1.8520833 V 2.3812499 Z m 0.7937501,0 V 2.9104166 H 2.6458333 V 2.3812499 Z m 0.7937499,0 V 2.9104166 H 3.4395834 V 2.3812499 Z m 0.79375,0 V 2.9104166 H 4.2333334 V 2.3812499 Z m 0.79375,0 V 2.9104166 H 5.0270834 V 2.3812499 Z M 1.8520833,3.175 V 3.7041667 H 2.38125 V 3.175 Z m 0.79375,0 V 3.7041667 H 3.175 V 3.175 Z m 0.7937501,0 V 3.7041667 H 3.96875 V 3.175 Z m 0.79375,0 V 3.7041667 H 4.7625001 V 3.175 Z M 1.3229167,3.96875 V 4.4979167 H 1.8520833 V 3.96875 Z m 0.7937501,0 V 4.4979167 H 4.2333334 V 3.96875 Z m 2.3812499,0 V 4.4979167 H 5.0270834 V 3.96875 Z"
     style="opacity:0.25;fill:#000000;stroke-width:0.0700042;enable-background:new"
     id="path1294" />
  <path
     d="M 2.9104166,2.1166666 V 2.6458333 H 3.4395833 V 2.1166666 Z m 0.7937501,0 V 2.6458333 H 4.2333333 V 2.1166666 Z m 0.79375,0 V 2.6458333 H 5.0270834 V 2.1166666 Z m -1.8520834,0.79375 V 3.4395833 H 3.175 V 2.9104166 Z m 0.79375,0 V 3.4395833 H 3.96875 V 2.9104166 Z m 0.79375,0 V 3.4395833 H 4.7625 V 2.9104166 Z M 1.3229167,3.7041667 V 4.2333333 H 1.8520833 V 3.7041667 Z m 0.79375,0 V 4.2333333 H 4.2333333 V 3.7041667 Z m 2.38125,0 V 4.2333333 H 5.0270834 V 3.7041667 Z"
     style="fill:#f7f7f7;stroke-width:0.264583;enable-background:new"
     id="path987"
     sodipodi:nodetypes="ccccccccccccccccccccccccccccccccccccccccccccc" />
  <path
     d="M 1.3229167,2.1166667 V 2.6458334 H 1.8520833 V 2.1166667 Z m 0.79375,0 V 2.6458334 H 2.6458333 V 2.1166667 Z M 1.8520833,2.9104168 V 3.4395835 H 2.38125 V 2.9104168 Z"
     style="fill:#50e274;fill-opacity:1;stroke-width:0.0700042;enable-background:new"
     id="path900" />
</svg>
