<?xml version="1.0" encoding="UTF-8" standalone="no"?>
<!-- Created with Inkscape (http://www.inkscape.org/) -->

<svg
   width="24"
   height="24"
   viewBox="0 0 6.3499999 6.3500002"
   version="1.1"
   id="svg5013"
   sodipodi:docname="preferences-desktop-theme-windowdecorations.svg"
   inkscape:version="1.1.2 (0a00cf5339, 2022-02-04)"
   xmlns:inkscape="http://www.inkscape.org/namespaces/inkscape"
   xmlns:sodipodi="http://sodipodi.sourceforge.net/DTD/sodipodi-0.dtd"
   xmlns:xlink="http://www.w3.org/1999/xlink"
   xmlns="http://www.w3.org/2000/svg"
   xmlns:svg="http://www.w3.org/2000/svg">
  <sodipodi:namedview
     id="namedview5015"
     pagecolor="#ffffff"
     bordercolor="#666666"
     borderopacity="1.0"
     inkscape:pageshadow="2"
     inkscape:pageopacity="0.0"
     inkscape:pagecheckerboard="0"
     inkscape:document-units="px"
     showgrid="false"
     units="px"
     showguides="true"
     inkscape:zoom="32.75"
     inkscape:cx="12.015267"
     inkscape:cy="12"
     inkscape:window-width="1851"
     inkscape:window-height="1053"
     inkscape:window-x="0"
     inkscape:window-y="0"
     inkscape:window-maximized="1"
     inkscape:current-layer="svg5013" />
  <defs
     id="defs5010">
    <linearGradient
       inkscape:collect="always"
       xlink:href="#linearGradient1871"
       id="linearGradient1873"
       x1="10.572797"
       y1="1.2222221"
       x2="10.805839"
       y2="46.70113"
       gradientUnits="userSpaceOnUse"
       gradientTransform="matrix(0.12026516,0,0,0.11615853,0.28863637,0.38719515)" />
    <linearGradient
       inkscape:collect="always"
       id="linearGradient1871">
      <stop
         style="stop-color:#ffffff;stop-opacity:1;"
         offset="0"
         id="stop1867" />
      <stop
         style="stop-color:#ffffff;stop-opacity:0.1"
         offset="0.12"
         id="stop2515" />
      <stop
         style="stop-color:#ffffff;stop-opacity:0.102"
         offset="0.89999998"
         id="stop2581" />
      <stop
         style="stop-color:#ffffff;stop-opacity:0.502"
         offset="1"
         id="stop1869" />
    </linearGradient>
    <linearGradient
       inkscape:collect="always"
       xlink:href="#linearGradient2290"
       id="linearGradient2292"
       x1="8.617857"
       y1="6.4892545"
       x2="-0.15119053"
       y2="1.9774122"
       gradientUnits="userSpaceOnUse"
       gradientTransform="matrix(2.7368992,0,0,2.6596675,0.41379327,0.74074096)" />
    <linearGradient
       inkscape:collect="always"
       id="linearGradient2290">
      <stop
         style="stop-color:#2de360;stop-opacity:1"
         offset="0"
         id="stop2286" />
      <stop
         style="stop-color:#388eba;stop-opacity:1"
         offset="1"
         id="stop2288" />
    </linearGradient>
  </defs>
  <path
     d="M 1.5275552,0.52916667 C 0.28821992,0.53848667 1.6249999e-8,0.84697669 1.6249999e-8,2.1166667 V 4.7625 C 1.6249999e-8,6.052344 0.29765622,6.35 1.5875,6.35 h 3.175 C 6.0523438,6.35 6.35,6.052344 6.35,4.7625 V 2.1166667 C 6.35,0.82682299 6.0523438,0.52916667 4.7625,0.52916667 h -3.175 c -0.020153,0 -0.040273,-1.48e-4 -0.059945,0 z"
     style="opacity:0.1;fill:#000000;stroke-width:0.264583;stroke-linecap:round;stroke-linejoin:round"
     id="path9125"
     sodipodi:nodetypes="cssssssssc" />
  <path
     id="rect7669"
     style="fill:#808080;stroke-width:0.264583;stroke-linecap:round;stroke-linejoin:round"
     d="M 1.7973064,0.66145835 C 0.66124888,0.67000474 0.39687501,0.95278432 0.39687501,2.1166667 v 2.1166667 c 0,1.1638823 0.26437379,1.4466584 1.40043139,1.4552084 h 0.054777 2.6458334 c 1.1823568,0 1.4552083,-0.2728518 1.4552083,-1.4552084 V 2.1166667 c 0,-1.1823567 -0.2728515,-1.45520835 -1.4552083,-1.45520835 H 1.8520834 c -0.018474,0 -0.036744,-1.3565e-4 -0.054777,0 z" />
  <path
     id="rect6397"
     style="fill:url(#linearGradient2292);fill-opacity:1;stroke-width:0.688732;stroke-linejoin:round"
     d="m 5.7929687,1.4999999 c -4.2937606,0.032301 -5.29296876,1.1010742 -5.29296876,5.5 V 17 c 0,4.398925 0.99920776,5.467685 5.29296876,5.5 H 5.9999999 18 c 4.46875,0 5.5,-1.031251 5.5,-5.5 V 6.9999999 c 0,-4.4687499 -1.03125,-5.5 -5.5,-5.5 H 5.9999999 c -0.069823,0 -0.138875,-5.129e-4 -0.2070312,0 z"
     transform="scale(0.26458334)"
     sodipodi:nodetypes="cssccsssssc" />
  <path
     d="m 1.7382908,1.5876187 c -0.1408509,-7.937e-4 -0.2516875,0.00212 -0.3427941,0.017145 -0.091173,0.015002 -0.1657139,0.043566 -0.2202101,0.097666 -0.054499,0.054099 -0.083315,0.1280795 -0.098616,0.2183368 -0.010901,0.064225 -0.014711,0.1432428 -0.016563,0.2308198 -7.938e-4,0.035494 -0.00185,0.068255 -0.00185,0.1084342 v 2.0947063 c 0,0.1393057 0.00323,0.2489385 0.018521,0.3390106 0.015293,0.090072 0.044098,0.1637004 0.098616,0.2176013 0.054517,0.053901 0.1288786,0.082291 0.2199614,0.097422 0.091083,0.015134 0.202102,0.018336 0.3430323,0.018336 h 1.4366045 1.436427 c 0.1409409,0 0.25196,-0.00323 0.3430323,-0.018336 0.091072,-0.015108 0.1654439,-0.043521 0.2199613,-0.097422 0.054517,-0.053901 0.083309,-0.1275318 0.098616,-0.2176013 0.015293,-0.09007 0.018521,-0.1997022 0.018521,-0.3390106 V 2.2600205 c 0,-0.04018 -0.00132,-0.07294 -0.00185,-0.1084342 C 5.2878434,2.064009 5.2840069,1.9849911 5.2731326,1.9207662 5.2578396,1.8305089 5.2290159,1.7565261 5.1745171,1.7024294 5.1200208,1.64833 5.0454798,1.6197709 4.954307,1.6047637 4.8631369,1.5897618 4.7522632,1.5869573 4.6112747,1.5876187 H 3.1751123 Z"
     style="color:#000000;opacity:0.1;fill:#000000;fill-opacity:1;stroke-width:0.264583;enable-background:accumulate"
     id="path1141"
     sodipodi:nodetypes="cccccsscscscscscssccccccc" />
  <path
     d="m 1.7382908,1.3230354 c -0.1408509,-7.938e-4 -0.2516875,0.00212 -0.3427941,0.017145 -0.091173,0.015002 -0.1657139,0.043566 -0.2202101,0.097666 -0.054499,0.054099 -0.083315,0.1280795 -0.098616,0.2183368 -0.010901,0.064225 -0.014711,0.1432428 -0.016563,0.2308199 -7.938e-4,0.035494 -0.00185,0.068255 -0.00185,0.1084342 v 2.0947062 c 0,0.1393058 0.00323,0.2489386 0.018521,0.3390107 0.015293,0.090072 0.044098,0.1637003 0.098616,0.2176012 0.054517,0.053901 0.1288786,0.082291 0.2199614,0.097422 0.091083,0.015134 0.202102,0.018336 0.3430323,0.018336 h 2.0980628 0.7750705 c 0.1409409,0 0.25196,-0.00323 0.3430323,-0.018336 0.091072,-0.015108 0.1654439,-0.043521 0.2199613,-0.097422 0.054517,-0.053901 0.083309,-0.1275318 0.098616,-0.2176012 0.015293,-0.090069 0.018521,-0.1997022 0.018521,-0.3390107 V 1.9954369 c 0,-0.04018 -0.00132,-0.07294 -0.00185,-0.1084342 C 5.2879422,1.7994256 5.2841122,1.7204078 5.2732342,1.6561828 5.2579414,1.5659255 5.2291177,1.4919427 5.1746189,1.437846 5.1201226,1.3837467 5.0455816,1.3551875 4.9544088,1.3401804 4.8632387,1.3251785 4.752365,1.3223739 4.6113765,1.3230354 H 3.8365706 Z"
     style="color:#000000;fill:#faf8f6;stroke-width:0.264583;enable-background:accumulate"
     id="path901"
     sodipodi:nodetypes="cccccsscscscscscssccccccc" />
  <path
     d="m 1.7384027,1.3230354 c -0.1408509,-7.938e-4 -0.2515076,0.00212 -0.3426089,0.017039 -0.091173,0.015002 -0.166161,0.043569 -0.2206572,0.097668 -0.054499,0.054099 -0.082886,0.1283362 -0.098187,0.2185935 -0.00923,0.054451 -0.011774,0.1239308 -0.013944,0.1958525 H 5.287043 C 5.2849263,1.7802671 5.2823069,1.7107876 5.2730994,1.6563363 5.2578065,1.566079 5.2294114,1.4918396 5.1749125,1.4377428 5.1204163,1.3836435 5.0454281,1.3550817 4.9542553,1.3400745 4.8630852,1.3250727 4.7526375,1.3223739 4.6116464,1.3230354 H 3.8364701 Z"
     style="color:#000000;fill:#273f66;stroke-width:0.264583;enable-background:accumulate;fill-opacity:1"
     id="path1021"
     sodipodi:nodetypes="cccccccccccc" />
  <path
     id="rect5096"
     style="opacity:0.4;stroke-width:0.240954;stroke-linecap:round;stroke-linejoin:round"
     d="M 1.5276195,0.26458333 C 0.28828403,0.27390666 6.4159692e-5,0.58239335 6.4159692e-5,1.8520834 v 2.6458333 c 0,1.2898438 0.297656260308,1.5875001 1.587500040308,1.5875001 h 3.1749359 c 1.2898438,0 1.5875,-0.2976563 1.5875,-1.5875001 V 1.8520834 c 0,-1.28984381 -0.2976562,-1.58750007 -1.5875,-1.58750007 H 1.5875642 c -0.020154,0 -0.040273,-1.4798e-4 -0.059945,0 z m 0.032556,0.26458334 c 0.018033,-1.3565e-4 0.036303,0 0.054777,0 h 3.1475474 c 1.1823568,0 1.3229167,0.29315998 1.3229167,1.32291673 v 2.6458333 c 0,1.0162919 -0.1405599,1.3229167 -1.3229167,1.3229167 H 1.5875642 c -0.99193699,0 -1.3229167,-0.1405599 -1.3229167,-1.3229167 V 1.8520834 c 0,-0.96076805 0.15947068,-1.31437034 1.295528,-1.32291673 z"
     sodipodi:nodetypes="csssssssscssssssssss" />
  <path
     id="rect1565"
     style="fill:url(#linearGradient1873);fill-opacity:1;stroke-width:0.118194;opacity:0.3"
     d="M 1.5601116,0.52916667 C 0.42405397,0.53771668 0.26458335,0.89131535 0.26458335,1.8520833 v 2.6458334 c 0,1.1823568 0.33097974,1.3229167 1.32291675,1.3229167 h 3.1749976 c 1.1823568,0 1.3229167,-0.3066248 1.3229167,-1.3229167 V 1.8520833 c 0,-1.02975655 -0.1405599,-1.32291663 -1.3229167,-1.32291663 H 1.6148886 c -0.018473,0 -0.036744,-1.356e-4 -0.054777,0 z m 0.00259,0.26458338 c 0.016229,0 0.032983,0 0.049609,0 h 3.0179001 c 1.0641211,0 1.190625,0.1430056 1.190625,1.05833325 v 2.6458334 c 0,0.8938382 -0.1265039,1.0583334 -1.190625,1.0583334 h -2.910419 c -1.02290214,0 -1.19062501,-0.1576914 -1.19062501,-1.0583334 V 1.8520833 c 0,-0.85400515 0.1411647,-1.05833325 1.03352871,-1.05833325 z"
     sodipodi:nodetypes="csssssssscsssssssssss" />
</svg>
