<?xml version="1.0" encoding="UTF-8" standalone="no"?>
<!-- Created with Inkscape (http://www.inkscape.org/) -->

<svg
   width="24"
   height="24"
   viewBox="0 0 6.3499999 6.3500002"
   version="1.1"
   id="svg5013"
   sodipodi:docname="sudoku.svg"
   inkscape:version="1.1.2 (0a00cf5339, 2022-02-04)"
   xmlns:inkscape="http://www.inkscape.org/namespaces/inkscape"
   xmlns:sodipodi="http://sodipodi.sourceforge.net/DTD/sodipodi-0.dtd"
   xmlns:xlink="http://www.w3.org/1999/xlink"
   xmlns="http://www.w3.org/2000/svg"
   xmlns:svg="http://www.w3.org/2000/svg">
  <sodipodi:namedview
     id="namedview5015"
     pagecolor="#ffffff"
     bordercolor="#666666"
     borderopacity="1.0"
     inkscape:pageshadow="2"
     inkscape:pageopacity="0.0"
     inkscape:pagecheckerboard="0"
     inkscape:document-units="px"
     showgrid="false"
     units="px"
     showguides="false"
     inkscape:zoom="16.5"
     inkscape:cx="17.424242"
     inkscape:cy="11.151515"
     inkscape:window-width="1920"
     inkscape:window-height="1010"
     inkscape:window-x="0"
     inkscape:window-y="0"
     inkscape:window-maximized="1"
     inkscape:current-layer="svg5013" />
  <defs
     id="defs5010">
    <linearGradient
       inkscape:collect="always"
       xlink:href="#linearGradient1871"
       id="linearGradient1873"
       x1="11.046622"
       y1="2.3372049"
       x2="10.794909"
       y2="47.930588"
       gradientUnits="userSpaceOnUse"
       gradientTransform="matrix(0.12026516,0,0,0.11615853,0.28863637,0.25496375)" />
    <linearGradient
       inkscape:collect="always"
       id="linearGradient1871">
      <stop
         style="stop-color:#ffffff;stop-opacity:1;"
         offset="0"
         id="stop1867" />
      <stop
         style="stop-color:#ffffff;stop-opacity:0.1"
         offset="0.12"
         id="stop2515" />
      <stop
         style="stop-color:#ffffff;stop-opacity:0.102"
         offset="0.89999998"
         id="stop2581" />
      <stop
         style="stop-color:#ffffff;stop-opacity:0.502"
         offset="1"
         id="stop1869" />
    </linearGradient>
  </defs>
  <path
     d="M 1.5275554,0.79381578 C 0.28822009,0.80313578 1.9010417e-7,1.1116258 1.9010417e-7,2.3813158 v 2.381217 c 0,1.289844 0.29765619989583,1.5875 1.58750000989583,1.5875 h 3.1749977 c 1.2898438,0 1.5875,-0.297656 1.5875,-1.5875 v -2.381217 c 0,-1.2898437 -0.2976562,-1.58750002 -1.5875,-1.58750002 H 1.5875002 c -0.020153,0 -0.040273,-1.48e-4 -0.059945,0 z"
     style="opacity:0.1;fill:#000000;stroke-width:0.264583;stroke-linecap:round;stroke-linejoin:round"
     id="path9125"
     sodipodi:nodetypes="cssssssssc" />
  <path
     id="rect7669"
     style="fill:#808080;stroke-width:0.264583;stroke-linecap:round;stroke-linejoin:round"
     d="M 1.7973064,0.66145835 C 0.66124888,0.67000474 0.39687501,0.95278432 0.39687501,2.1166667 v 2.1166667 c 0,1.1638823 0.26437379,1.4466584 1.40043139,1.4552084 h 0.054777 2.6458334 c 1.1823568,0 1.4552083,-0.2728518 1.4552083,-1.4552084 V 2.1166667 c 0,-1.1823567 -0.2728515,-1.45520835 -1.4552083,-1.45520835 H 1.8520834 c -0.018474,0 -0.036744,-1.3565e-4 -0.054777,0 z" />
  <path
     id="rect6397"
     style="fill:#e7e7df;fill-opacity:1;stroke-width:0.182227;stroke-linejoin:round"
     d="M 1.532723,0.39693532 C 0.39666551,0.40548163 0.13229168,0.68826121 0.13229168,1.8521437 v 2.6458334 c 0,1.1638823 0.26437373,1.4466584 1.40043132,1.4552084 H 1.5875 4.7624975 c 1.1823568,0 1.4552083,-0.2728518 1.4552083,-1.4552084 V 1.8521437 c 0,-1.18235679 -0.2728515,-1.45520838 -1.4552083,-1.45520838 H 1.5875 c -0.018474,0 -0.036744,-1.3571e-4 -0.054777,0 z"
     sodipodi:nodetypes="cssccsssssc" />
  <path
     id="rect22"
     style="fill:#847d6c;fill-opacity:1;stroke:none;stroke-width:0.264583"
     d="M 2.1166667,0.79375001 V 1.9843751 H 0.52916667 V 2.2489584 H 2.1166667 V 4.1010418 H 0.52916667 V 4.3656251 H 2.1166667 V 5.55625 H 2.3812501 V 4.3656251 h 1.5875 V 5.55625 H 4.2333334 V 4.3656251 H 5.8208335 V 4.1010418 H 4.2333334 V 2.2489584 H 5.8208335 V 1.9843751 H 4.2333334 V 0.79375001 H 3.9687501 V 1.9843751 h -1.5875 V 0.79375001 Z M 2.3812501,2.2489584 h 1.5875 v 1.8520834 h -1.5875 z m 2.8168823,0.2821533 -0.024289,5.16e-4 c -0.1018657,0.00134 -0.1939074,0.018781 -0.275952,0.05271 -0.081903,0.033871 -0.1526617,0.082847 -0.2108399,0.146761 -0.057086,0.064108 -0.1011496,0.1434382 -0.1322916,0.2371949 v 5.291e-4 c -0.030032,0.092837 -0.044959,0.1987119 -0.044959,0.3178101 0,0.1631794 0.031379,0.2934433 0.097152,0.3891236 0.066326,0.096484 0.1699662,0.1457274 0.3007569,0.1457274 0.063821,0 0.1204725,-0.012438 0.1684652,-0.038241 h 5.292e-4 c 0.046415,-0.026339 0.085176,-0.060012 0.1152385,-0.1007689 v -5.292e-4 c 0.029454,-0.041307 0.051518,-0.086081 0.065629,-0.1343588 v -5.292e-4 c 0.013888,-0.048871 0.021188,-0.09684 0.021188,-0.1436605 0,-0.05028 -0.00645,-0.099059 -0.019121,-0.146761 -0.012838,-0.048314 -0.033803,-0.091497 -0.062528,-0.1281575 l -5.291e-4,-5.292e-4 c -0.029326,-0.038492 -0.068464,-0.069238 -0.116272,-0.091467 v 5.291e-4 c -0.047965,-0.022921 -0.1047914,-0.034107 -0.1705321,-0.034107 -0.040735,0 -0.079979,0.00478 -0.1173057,0.01447 h -5.292e-4 c -0.015729,0.00423 -0.029114,0.011205 -0.043925,0.016536 0.012517,-0.043345 0.0245,-0.088077 0.042892,-0.1198893 0.026149,-0.045229 0.058205,-0.080944 0.096118,-0.1085205 v -5.291e-4 h 5.291e-4 c 0.038208,-0.028999 0.080999,-0.049315 0.129708,-0.061495 h 5.292e-4 c 0.05078,-0.013651 0.1072862,-0.021476 0.1694987,-0.022738 l 0.028422,-5.159e-4 z M 4.8916911,3.1884359 h 0.00156 c 0.066136,0 0.1080339,0.017989 0.1348753,0.052193 h 5.292e-4 v 5.292e-4 c 0.028632,0.035184 0.044958,0.088857 0.044958,0.1643311 0,0.024934 -0.00347,0.052131 -0.010335,0.081649 v 5.292e-4 5.292e-4 c -0.00544,0.026899 -0.015521,0.050966 -0.029456,0.072864 -0.01374,0.021593 -0.030552,0.039382 -0.051676,0.05426 -0.019098,0.012322 -0.043513,0.019121 -0.075964,0.019121 -0.039334,0 -0.069036,-0.00869 -0.091467,-0.024289 -0.024051,-0.017989 -0.043187,-0.041314 -0.058395,-0.071313 v -5.29e-4 L 4.7557932,3.5377814 C 4.7414369,3.5054695 4.730626,3.4688196 4.723754,3.4271938 V 3.4266646 C 4.717924,3.3826136 4.714974,3.3360496 4.714974,3.2866215 v -0.038757 c 0,-0.00686 6.88e-4,-0.013806 0.00103,-0.020672 0.026009,-0.011509 0.051675,-0.021749 0.076481,-0.027905 0.029861,-0.00714 0.062997,-0.010739 0.099219,-0.010853 z"
     sodipodi:nodetypes="ccccccccccccccccccccccccccccccccccccscccsssccccccscccccscccscccccccccscccscccscsccccccsscccc" />
  <rect
     style="opacity:1;fill:#f2f2f2;fill-opacity:1;stroke-width:0.529167;stroke-linecap:round;stroke-linejoin:round"
     id="rect1133"
     width="1.3229166"
     height="1.8520833"
     x="0.79375005"
     y="2.2489583" />
  <path
     id="path1000"
     style="color:#000000;fill:#1a1a1a;stroke:none;stroke-width:0.0529193;-inkscape-stroke:none"
     d="m 1.4257528,2.5311117 c -0.041573,0 -0.081331,0.00529 -0.118339,0.016536 -0.035917,0.010918 -0.068705,0.02469 -0.098702,0.041341 -0.028268,0.01507 -0.053156,0.03175 -0.074414,0.050126 -0.020249,0.017503 -0.035673,0.032404 -0.047026,0.045992 l -0.012919,0.015503 0.1049031,0.157613 0.022738,-0.024289 c 0.00585,-0.00622 0.016339,-0.015581 0.030489,-0.026872 l 5.159e-4,-5.291e-4 5.159e-4,-5.292e-4 c 0.01346,-0.01188 0.029577,-0.02382 0.048061,-0.036148 l 5.159e-4,-5.16e-4 c 0.01878,-0.011692 0.039862,-0.022051 0.063562,-0.030489 0.02397,-0.00811 0.050753,-0.011886 0.080099,-0.011886 0.02441,0 0.046294,0.00349 0.066663,0.010335 0.019682,0.00661 0.03629,0.016827 0.050643,0.031006 l 5.159e-4,5.159e-4 0.00103,5.16e-4 c 0.014909,0.012689 0.026198,0.028836 0.034624,0.050127 l 5.159e-4,5.292e-4 v 5.292e-4 c 0.00914,0.020526 0.014469,0.047131 0.014469,0.079582 0,0.027847 -0.0055,0.054635 -0.016536,0.081649 v 5.291e-4 h -5.16e-4 c -0.01016,0.026421 -0.02394,0.05229 -0.042375,0.078032 l -5.159e-4,5.291e-4 v 5.292e-4 c -0.017478,0.026032 -0.03868,0.052076 -0.063562,0.078548 l -5.159e-4,5.292e-4 c -0.024364,0.027217 -0.050166,0.055169 -0.076998,0.083716 -0.03321,0.035332 -0.066864,0.072141 -0.1012858,0.1100706 -0.034065,0.037585 -0.064763,0.077482 -0.092501,0.1204063 -0.028035,0.043385 -0.051418,0.089718 -0.069246,0.1384927 -0.018301,0.050068 -0.027389,0.1042072 -0.027389,0.1617472 v 0.021704 c 0,0.00818 0.00106,0.016192 0.00259,0.024289 l 0.00413,0.021704 H 1.8474352 V 3.6324113 H 1.3317017 c 0.00299,-0.010311 0.00299,-0.017841 0.010335,-0.031523 0.013923,-0.025924 0.031909,-0.052379 0.053227,-0.080098 0.021659,-0.028164 0.044127,-0.055776 0.068213,-0.082682 0.024413,-0.027272 0.045892,-0.050931 0.064079,-0.07028 0.033322,-0.035451 0.0661,-0.071242 0.098185,-0.108004 0.032474,-0.037207 0.06114,-0.075457 0.0863,-0.1142047 l 5.159e-4,-5.292e-4 c 0.026529,-0.039069 0.047627,-0.078988 0.063045,-0.1198893 v -5.292e-4 c 0.017047,-0.042073 0.025838,-0.08581 0.025838,-0.1307414 0,-0.1127491 -0.030764,-0.2034086 -0.094051,-0.2666504 -0.062827,-0.065439 -0.1583742,-0.096168 -0.2816358,-0.096168 z" />
  <path
     id="rect5096"
     style="opacity:0.4;stroke-width:0.240954;stroke-linecap:round;stroke-linejoin:round"
     d="M 1.5275554,0.26458333 C 0.28821988,0.27390666 1.0104166e-8,0.58239335 1.0104166e-8,1.8520834 V 4.4978839 C 1.0104166e-8,5.7877277 0.29765627,6.085384 1.5875001,6.085384 h 3.1749975 c 1.2898438,0 1.5875,-0.2976563 1.5875,-1.5875001 V 1.8520834 c 0,-1.28984381 -0.2976562,-1.58750007 -1.5875,-1.58750007 H 1.5875001 c -0.020154,0 -0.040273,-1.4798e-4 -0.059945,0 z m 0.032556,0.26458334 c 0.018033,-1.3565e-4 0.036303,0 0.054777,0 h 3.147609 c 1.1823568,0 1.3229167,0.29315998 1.3229167,1.32291673 v 2.6458005 c 0,1.0162919 -0.1405599,1.3229167 -1.3229167,1.3229167 H 1.5875001 c -0.99193704,0 -1.32291675,-0.1405599 -1.32291675,-1.3229167 V 1.8520834 c 0,-0.96076805 0.15947068,-1.31437034 1.29552805,-1.32291673 z"
     sodipodi:nodetypes="csssssssscssssssssss" />
  <path
     id="rect1565"
     style="fill:url(#linearGradient1873);fill-opacity:1;stroke-width:0.118194"
     d="M 1.5601116,0.52922694 C 0.42405397,0.53777695 0.26458335,0.8913756 0.26458335,1.8521436 V 4.497977 c 0,1.1823568 0.33097974,1.3229167 1.32291675,1.3229167 h 3.1749975 c 1.1823568,0 1.3229167,-0.3066248 1.3229167,-1.3229167 V 1.8521436 c 0,-1.02975658 -0.1405599,-1.32291666 -1.3229167,-1.32291666 h -3.147609 c -0.018473,0 -0.036744,-1.356e-4 -0.054777,0 z m 0.00259,0.26458338 h 0.049609 3.0179 c 1.0641211,0 1.190625,0.14300558 1.190625,1.05833328 V 4.497977 c 0,0.8938382 -0.1265039,1.0583334 -1.190625,1.0583334 H 1.7197917 c -1.02290214,0 -1.19062501,-0.1576914 -1.19062501,-1.0583334 V 1.8521436 c 0,-0.8540052 0.14116471,-1.05833328 1.03352871,-1.05833328 z"
     sodipodi:nodetypes="csssssssscsssssssssss" />
</svg>
