<?xml version="1.0" encoding="UTF-8" standalone="no"?>
<!-- Created with Inkscape (http://www.inkscape.org/) -->

<svg
   width="24"
   height="24"
   viewBox="0 0 6.3499999 6.3500002"
   version="1.1"
   id="svg5013"
   sodipodi:docname="system-config-users.svg"
   inkscape:version="1.1.2 (0a00cf5339, 2022-02-04)"
   xmlns:inkscape="http://www.inkscape.org/namespaces/inkscape"
   xmlns:sodipodi="http://sodipodi.sourceforge.net/DTD/sodipodi-0.dtd"
   xmlns:xlink="http://www.w3.org/1999/xlink"
   xmlns="http://www.w3.org/2000/svg"
   xmlns:svg="http://www.w3.org/2000/svg">
  <sodipodi:namedview
     id="namedview5015"
     pagecolor="#ffffff"
     bordercolor="#666666"
     borderopacity="1.0"
     inkscape:pageshadow="2"
     inkscape:pageopacity="0.0"
     inkscape:pagecheckerboard="0"
     inkscape:document-units="px"
     showgrid="false"
     units="px"
     showguides="true"
     inkscape:zoom="24.348675"
     inkscape:cx="10.164824"
     inkscape:cy="12.895979"
     inkscape:window-width="1851"
     inkscape:window-height="1049"
     inkscape:window-x="0"
     inkscape:window-y="0"
     inkscape:window-maximized="1"
     inkscape:current-layer="svg5013" />
  <defs
     id="defs5010">
    <linearGradient
       inkscape:collect="always"
       xlink:href="#linearGradient1871"
       id="linearGradient1873"
       x1="11.046622"
       y1="2.3372049"
       x2="10.794909"
       y2="47.930588"
       gradientUnits="userSpaceOnUse"
       gradientTransform="matrix(0.12026516,0,0,0.11615853,0.28863637,0.25496375)" />
    <linearGradient
       inkscape:collect="always"
       id="linearGradient1871">
      <stop
         style="stop-color:#ffffff;stop-opacity:1;"
         offset="0"
         id="stop1867" />
      <stop
         style="stop-color:#ffffff;stop-opacity:0.1"
         offset="0.12"
         id="stop2515" />
      <stop
         style="stop-color:#ffffff;stop-opacity:0.102"
         offset="0.89999998"
         id="stop2581" />
      <stop
         style="stop-color:#ffffff;stop-opacity:0.502"
         offset="1"
         id="stop1869" />
    </linearGradient>
    <linearGradient
       inkscape:collect="always"
       xlink:href="#linearGradient2290"
       id="linearGradient2292"
       x1="4.1505527"
       y1="8.5570965"
       x2="4.1505527"
       y2="0.28538564"
       gradientUnits="userSpaceOnUse"
       gradientTransform="matrix(0.72413793,0,0,0.70370371,0.10948281,0.06375639)" />
    <linearGradient
       inkscape:collect="always"
       id="linearGradient2290">
      <stop
         style="stop-color:#8c59d9;stop-opacity:1"
         offset="0"
         id="stop2286" />
      <stop
         style="stop-color:#a7a7f1;stop-opacity:1"
         offset="1"
         id="stop2288" />
    </linearGradient>
  </defs>
  <path
     d="M 1.5275554,0.79381578 C 0.28822009,0.80313578 1.9010417e-7,1.1116258 1.9010417e-7,2.3813158 v 2.381217 c 0,1.289844 0.29765619989583,1.5875 1.58750000989583,1.5875 h 3.1749977 c 1.2898438,0 1.5875,-0.297656 1.5875,-1.5875 v -2.381217 c 0,-1.2898437 -0.2976562,-1.58750002 -1.5875,-1.58750002 H 1.5875002 c -0.020153,0 -0.040273,-1.48e-4 -0.059945,0 z"
     style="opacity:0.1;fill:#000000;stroke-width:0.264583;stroke-linecap:round;stroke-linejoin:round"
     id="path9125"
     sodipodi:nodetypes="cssssssssc" />
  <path
     id="rect7669"
     style="fill:#808080;stroke-width:0.264583;stroke-linecap:round;stroke-linejoin:round"
     d="M 1.7973064,0.66145835 C 0.66124888,0.67000474 0.39687501,0.95278432 0.39687501,2.1166667 v 2.1166667 c 0,1.1638823 0.26437379,1.4466584 1.40043139,1.4552084 h 0.054777 2.6458334 c 1.1823568,0 1.4552083,-0.2728518 1.4552083,-1.4552084 V 2.1166667 c 0,-1.1823567 -0.2728515,-1.45520835 -1.4552083,-1.45520835 H 1.8520834 c -0.018474,0 -0.036744,-1.3565e-4 -0.054777,0 z" />
  <path
     id="rect6397"
     style="fill:url(#linearGradient2292);fill-opacity:1;stroke-width:0.182227;stroke-linejoin:round"
     d="M 1.532723,0.39693532 C 0.39666551,0.40548163 0.13229168,0.68826121 0.13229168,1.8521437 v 2.6458334 c 0,1.1638823 0.26437373,1.4466584 1.40043132,1.4552084 H 1.5875 4.7624975 c 1.1823568,0 1.4552083,-0.2728518 1.4552083,-1.4552084 V 1.8521437 c 0,-1.18235679 -0.2728515,-1.45520838 -1.4552083,-1.45520838 H 1.5875 c -0.018474,0 -0.036744,-1.3571e-4 -0.054777,0 z"
     sodipodi:nodetypes="cssccsssssc" />
  <path
     d="m 3.9496962,1.0825275 c -0.1404156,0 -0.2727891,0.026077 -0.3943648,0.078599 l -2.419e-4,8.47e-5 -1.549e-4,8.23e-5 C 3.4340364,1.2111994 3.3276522,1.2842319 3.2386927,1.3787681 l -1.548e-4,1.548e-4 -7.259e-4,9.693e-4 -2.419e-4,2.42e-4 c -0.08663,0.095038 -0.1538095,0.209503 -0.2013849,0.3406523 v 9.19e-5 l -9.19e-5,1.598e-4 c -0.048154,0.1304838 -0.071793,0.2740714 -0.071793,0.4290108 0,0.1572524 0.023565,0.3018706 0.071793,0.4325432 0.047658,0.1290977 0.1149126,0.2423288 0.2014647,0.3372909 l 2.42e-4,2.42e-4 4.839e-4,7.257e-4 1.596e-4,1.597e-4 8.96e-5,9.2e-5 c 0.088931,0.094541 0.1950823,0.1687712 0.315758,0.2210765 l 2.419e-4,9.2e-5 2.42e-4,2.42e-4 2.418e-4,1.571e-4 2.42e-4,9.2e-5 c 0.1215321,0.050041 0.2537484,0.074758 0.3940503,0.074758 0.1403092,0 0.2725957,-0.024717 0.394123,-0.074758 l 7.258e-4,-2.419e-4 4.839e-4,-2.42e-4 C 4.4654989,3.0898955 4.5707169,3.0152347 4.6574481,2.9201613 l 1.597e-4,-1.621e-4 8.95e-5,-9.2e-5 c 0.088916,-0.094853 0.1576395,-0.2081641 0.2053068,-0.3372907 0.048238,-0.1306728 0.071637,-0.2752812 0.071637,-0.4325433 0,-0.154712 -0.023469,-0.2980721 -0.071477,-0.4283819 L 4.8629221,1.720722 C 4.8153295,1.5895525 4.7467633,1.4750802 4.6577723,1.3801423 l -8.95e-5,-9.19e-5 -1.572e-4,-1.524e-4 C 4.5707435,1.284769 4.4651988,1.2113058 4.3440901,1.1613038 l -2.419e-4,-8.23e-5 -1.549e-4,-8.23e-5 C 4.2223572,1.108725 4.0901627,1.0826316 3.9500543,1.0825469 Z m -4.838e-4,0.1674479 h 4.838e-4 c 0.1202451,0 0.2290752,0.021896 0.3288955,0.065155 l 2.419e-4,8.95e-5 2.42e-4,1.622e-4 2.419e-4,1.524e-4 2.42e-4,9.44e-5 c 0.1000332,0.041188 0.184057,0.099803 0.2546194,0.1772125 l 2.419e-4,2.42e-4 7.258e-4,9.693e-4 c 0.072819,0.077547 0.1296396,0.1714253 0.1704891,0.2843056 l 7.257e-4,0.00194 2.42e-4,0.00121 v 1.621e-4 c 0.039882,0.1090746 0.060512,0.2313398 0.060512,0.3683561 0,0.1406431 -0.020952,0.2649503 -0.06139,0.3745257 -0.040792,0.1104923 -0.097541,0.2035019 -0.1706511,0.2813539 l -2.419e-4,2.419e-4 -4.839e-4,7.258e-4 -2.42e-4,2.42e-4 c -0.070531,0.077379 -0.1547391,0.1371743 -0.254765,0.1807311 l -2.419e-4,1.621e-4 -2.419e-4,9.19e-5 c -0.099941,0.041048 -0.209086,0.061951 -0.3296214,0.061951 -0.1205232,0 -0.2296679,-0.020904 -0.3296212,-0.061951 l -2.42e-4,-9.19e-5 -2.419e-4,-1.621e-4 C 3.5191176,2.9442974 3.4335356,2.8843056 3.3604474,2.8067076 l -1.573e-4,-1.597e-4 -1.572e-4,-1.62e-4 C 3.2893649,2.7285605 3.2334982,2.6353331 3.1926052,2.5245722 3.1521575,2.4150138 3.131215,2.2906993 3.131215,2.1500466 c 0,-0.1372801 0.02071,-0.2598453 0.060752,-0.369082 l 2.42e-4,-0.00169 1.572e-4,-2.419e-4 1.573e-4,-7.258e-4 c 0.040961,-0.113175 0.096869,-0.2072491 0.1673654,-0.2847914 l 1.598e-4,-1.524e-4 1.572e-4,-1.597e-4 c 0.073129,-0.077625 0.158462,-0.136443 0.2584421,-0.1776142 l 7.257e-4,-1.597e-4 9.2e-5,-9.43e-5 4.839e-4,-1.597e-4 c 0.099702,-0.043213 0.2084157,-0.065113 0.3284841,-0.065155 z M 1.91458,1.5746368 c -0.1063454,0 -0.2073463,0.019888 -0.2999834,0.059871 l -1.572e-4,9.42e-5 -1.5e-4,9.2e-5 C 1.5221554,1.672744 1.4406237,1.728642 1.3728026,1.8007797 l -2.42e-4,2.419e-4 -1.499e-4,1.621e-4 -1.549e-4,1.597e-4 -2.419e-4,2.419e-4 C 1.3058187,1.874187 1.2546772,1.9615619 1.218652,2.0609951 l -1.524e-4,2.42e-4 c -2.91e-5,2.9e-5 -2.91e-5,1.524e-4 -9.2e-5,1.596e-4 -0.036401,0.098928 -0.054107,0.2073634 -0.054107,0.3237663 0,0.1183821 0.017758,0.2279623 0.054425,0.3272987 0.036091,0.09774 0.087297,0.184074 0.1532845,0.2564581 l 2.419e-4,2.419e-4 4.839e-4,7.259e-4 c 0.067761,0.07207 0.1489707,0.1287565 0.2408457,0.168568 l 1.548e-4,9.19e-5 0.00145,7.258e-4 8.95e-5,8.96e-5 c 0.09247,0.037993 0.1931275,0.056672 0.2991851,0.056672 0.1061011,0 0.2066229,-0.018653 0.2991124,-0.056672 2.9e-5,-2.67e-5 1.549e-4,-2.67e-5 1.597e-4,-8.96e-5 l 9.693e-4,-4.839e-4 7.259e-4,-2.419e-4 c 0.091938,-0.039841 0.1724515,-0.096806 0.2386056,-0.1692914 l 1.572e-4,-1.596e-4 9.2e-5,-1.622e-4 C 2.5219951,2.8966593 2.574349,2.8103319 2.6104443,2.712573 c 0.036676,-0.099329 0.054347,-0.2089094 0.054347,-0.3272987 0,-0.1164997 -0.017734,-0.2250226 -0.054185,-0.3240082 l -9.8e-5,-2.419e-4 C 2.5744299,1.9614386 2.5221536,1.8740081 2.4541075,1.801445 l -1.549e-4,-1.597e-4 -9.43e-5,-1.621e-4 C 2.3876848,1.7286859 2.3068812,1.6726014 2.214774,1.6345585 l -1.548e-4,-9.2e-5 -1.598e-4,-9.43e-5 C 2.1218054,1.5943692 2.0208989,1.5744822 1.9145486,1.5744822 Z M 1.9097,1.7421645 h 0.00488 c 0.086173,0 0.1634849,0.015629 0.2343617,0.046344 l 2.419e-4,9.19e-5 4.839e-4,1.597e-4 7.258e-4,2.42e-4 c 0.07099,0.029224 0.1301065,0.070598 0.1800143,0.1252676 l 2.419e-4,2.42e-4 2.419e-4,1.596e-4 7.259e-4,7.259e-4 c 0.051749,0.055036 0.092182,0.1218999 0.121503,0.2029068 l 2.42e-4,0.00121 c 0.028782,0.078217 0.043782,0.166422 0.043782,0.2659906 0,0.1017582 -0.015049,0.1910468 -0.043942,0.2692569 -0.029261,0.079243 -0.069825,0.1453585 -0.1218249,0.2006663 l -2.419e-4,2.42e-4 -2.42e-4,1.596e-4 -1.549e-4,1.622e-4 -2.418e-4,2.419e-4 C 2.2804438,2.9111375 2.2207593,2.9533705 2.149522,2.9843803 l -2.42e-4,1.597e-4 -2.419e-4,9.2e-5 c -0.070855,0.028995 -0.1483126,0.044023 -0.2346035,0.044023 -0.086317,0 -0.1638696,-0.015 -0.2347608,-0.044023 l -2.416e-4,-8.95e-5 -2.42e-4,-1.596e-4 C 1.6080085,2.9533993 1.5474264,2.9109482 1.4954937,2.8559113 L 1.4953412,2.8557516 1.4951863,2.8555895 C 1.4449523,2.8003465 1.4049643,2.7342025 1.3756043,2.654686 1.3467193,2.576416 1.3316623,2.4871027 1.3316623,2.3853566 c 0,-0.099687 0.015,-0.188008 0.043861,-0.2663052 2.9e-5,-1.548e-4 2.9e-5,-2.419e-4 9.19e-5,-4.838e-4 l 9.44e-5,-9.44e-5 8.95e-5,-2.419e-4 C 1.4052221,2.0369463 1.4452441,1.9700541 1.4952223,1.915085 l 1.549e-4,-1.597e-4 1.499e-4,-1.621e-4 c 0.051848,-0.054928 0.1120408,-0.09659 0.1830579,-0.1258241 l 4.839e-4,-1.622e-4 7.258e-4,-2.419e-4 C 1.7488347,1.758617 1.8244298,1.743623 1.9079143,1.742832 Z m 2.0632741,1.836845 c -0.7384785,0 -1.188635,0.067339 -1.4699648,0.2758135 C 2.3628084,3.95872 2.2706407,4.0996195 2.2176604,4.2682528 2.1666739,4.4305303 2.149842,4.6340202 2.1480269,4.8549129 l 0.1675252,4.838e-4 C 2.3174907,4.6437631 2.3344963,4.455443 2.3775063,4.3186009 2.4222535,4.1761892 2.4913858,4.0720623 2.6028241,3.9894635 2.8269347,3.8233802 3.2455663,3.7465299 3.972988,3.7465299 c 0.7274217,0 1.1460049,0.076875 1.3699219,0.2429336 0.1113269,0.082565 0.1803578,0.1866604 0.2249162,0.3290405 0.042814,0.136835 0.059586,0.3251212 0.06115,0.5367234 L 5.7965065,4.8550701 C 5.7952972,4.6341484 5.7785306,4.4307771 5.7277495,4.2684826 5.674982,4.0998493 5.5827636,3.9588215 5.4426455,3.8549077 5.1614609,3.6463878 4.7114736,3.5790942 3.9729952,3.5790942 Z M 1.8647643,3.5439255 C 1.341251,3.5456172 1.0320013,3.5965114 0.82221368,3.7530067 0.71606908,3.8321868 0.64554063,3.9414332 0.60594204,4.069805 0.56620552,4.198651 0.55375279,4.3472879 0.55336087,4.5229133 V 4.7733471 H 0.72080868 V 4.5231552 C 0.72105058,4.35578 0.73421228,4.222083 0.76595258,4.1191853 0.79751868,4.0168512 0.84525618,3.9447599 0.92227348,3.887306 1.075379,3.7730951 1.3530988,3.7134927 1.8647812,3.7115209 Z"
     style="color:#000000;font-variant-ligatures:normal;font-variant-position:normal;font-variant-caps:normal;font-variant-numeric:normal;font-variant-alternates:normal;font-feature-settings:normal;text-indent:0;text-decoration-line:none;text-decoration-style:solid;text-decoration-color:#000000;text-transform:none;text-orientation:mixed;dominant-baseline:auto;white-space:normal;shape-padding:0;isolation:auto;mix-blend-mode:normal;solid-color:#000000;fill:#ffffff;stroke:#ffffff;stroke-width:0.0483884;color-rendering:auto;image-rendering:auto;shape-rendering:auto"
     id="path986" />
  <path
     id="rect5096"
     style="opacity:0.4;stroke-width:0.240954;stroke-linecap:round;stroke-linejoin:round"
     d="M 1.5275554,0.26458333 C 0.28821988,0.27390666 1.0104166e-8,0.58239335 1.0104166e-8,1.8520834 V 4.4978839 C 1.0104166e-8,5.7877277 0.29765627,6.085384 1.5875001,6.085384 h 3.1749975 c 1.2898438,0 1.5875,-0.2976563 1.5875,-1.5875001 V 1.8520834 c 0,-1.28984381 -0.2976562,-1.58750007 -1.5875,-1.58750007 H 1.5875001 c -0.020154,0 -0.040273,-1.4798e-4 -0.059945,0 z m 0.032556,0.26458334 c 0.018033,-1.3565e-4 0.036303,0 0.054777,0 h 3.147609 c 1.1823568,0 1.3229167,0.29315998 1.3229167,1.32291673 v 2.6458005 c 0,1.0162919 -0.1405599,1.3229167 -1.3229167,1.3229167 H 1.5875001 c -0.99193704,0 -1.32291675,-0.1405599 -1.32291675,-1.3229167 V 1.8520834 c 0,-0.96076805 0.15947068,-1.31437034 1.29552805,-1.32291673 z"
     sodipodi:nodetypes="csssssssscssssssssss" />
  <path
     id="rect1565"
     style="fill:url(#linearGradient1873);fill-opacity:1;stroke-width:0.118194"
     d="M 1.5601116,0.52922694 C 0.42405397,0.53777695 0.26458335,0.8913756 0.26458335,1.8521436 V 4.497977 c 0,1.1823568 0.33097974,1.3229167 1.32291675,1.3229167 h 3.1749975 c 1.1823568,0 1.3229167,-0.3066248 1.3229167,-1.3229167 V 1.8521436 c 0,-1.02975658 -0.1405599,-1.32291666 -1.3229167,-1.32291666 h -3.147609 c -0.018473,0 -0.036744,-1.356e-4 -0.054777,0 z m 0.00259,0.26458338 h 0.049609 3.0179 c 1.0641211,0 1.190625,0.14300558 1.190625,1.05833328 V 4.497977 c 0,0.8938382 -0.1265039,1.0583334 -1.190625,1.0583334 H 1.7197917 c -1.02290214,0 -1.19062501,-0.1576914 -1.19062501,-1.0583334 V 1.8521436 c 0,-0.8540052 0.14116471,-1.05833328 1.03352871,-1.05833328 z"
     sodipodi:nodetypes="csssssssscsssssssssss" />
</svg>
