<?xml version="1.0" encoding="UTF-8" standalone="no"?>
<!-- Created with Inkscape (http://www.inkscape.org/) -->

<svg
   width="24"
   height="24"
   viewBox="0 0 6.3499999 6.3500002"
   version="1.1"
   id="svg5013"
   sodipodi:docname="transmission.svg"
   inkscape:version="1.1.2 (0a00cf5339, 2022-02-04)"
   xmlns:inkscape="http://www.inkscape.org/namespaces/inkscape"
   xmlns:sodipodi="http://sodipodi.sourceforge.net/DTD/sodipodi-0.dtd"
   xmlns:xlink="http://www.w3.org/1999/xlink"
   xmlns="http://www.w3.org/2000/svg"
   xmlns:svg="http://www.w3.org/2000/svg">
  <sodipodi:namedview
     id="namedview5015"
     pagecolor="#ffffff"
     bordercolor="#666666"
     borderopacity="1.0"
     inkscape:pageshadow="2"
     inkscape:pageopacity="0.0"
     inkscape:pagecheckerboard="0"
     inkscape:document-units="px"
     showgrid="false"
     units="px"
     showguides="true"
     inkscape:zoom="32.708333"
     inkscape:cx="11.984713"
     inkscape:cy="12"
     inkscape:window-width="1920"
     inkscape:window-height="1012"
     inkscape:window-x="0"
     inkscape:window-y="0"
     inkscape:window-maximized="1"
     inkscape:current-layer="svg5013" />
  <defs
     id="defs5010">
    <linearGradient
       inkscape:collect="always"
       id="linearGradient930">
      <stop
         style="stop-color:#fdfdfd;stop-opacity:1"
         offset="0"
         id="stop926" />
      <stop
         style="stop-color:#f1f0e9;stop-opacity:1"
         offset="1"
         id="stop928" />
    </linearGradient>
    <linearGradient
       inkscape:collect="always"
       xlink:href="#linearGradient1871"
       id="linearGradient1873"
       x1="11.046622"
       y1="2.3372049"
       x2="10.794909"
       y2="47.930588"
       gradientUnits="userSpaceOnUse"
       gradientTransform="matrix(0.12026516,0,0,0.11615853,0.28863637,0.25496375)" />
    <linearGradient
       inkscape:collect="always"
       id="linearGradient1871">
      <stop
         style="stop-color:#ffffff;stop-opacity:1;"
         offset="0"
         id="stop1867" />
      <stop
         style="stop-color:#ffffff;stop-opacity:0.1"
         offset="0.12"
         id="stop2515" />
      <stop
         style="stop-color:#ffffff;stop-opacity:0.102"
         offset="0.89999998"
         id="stop2581" />
      <stop
         style="stop-color:#ffffff;stop-opacity:0.502"
         offset="1"
         id="stop1869" />
    </linearGradient>
    <linearGradient
       inkscape:collect="always"
       xlink:href="#linearGradient2290"
       id="linearGradient2292"
       x1="4.2333336"
       y1="0.47337908"
       x2="4.2333336"
       y2="8.3691025"
       gradientUnits="userSpaceOnUse"
       gradientTransform="matrix(0.72413793,0,0,0.70370371,0.10948281,0.06375639)" />
    <linearGradient
       inkscape:collect="always"
       id="linearGradient2290">
      <stop
         style="stop-color:#8c8c8c;stop-opacity:1"
         offset="0"
         id="stop2286" />
      <stop
         style="stop-color:#b8b8b8;stop-opacity:1"
         offset="1"
         id="stop2288" />
    </linearGradient>
    <linearGradient
       inkscape:collect="always"
       xlink:href="#linearGradient930"
       id="linearGradient932"
       x1="3.1716468"
       y1="5.2987442"
       x2="3.1716471"
       y2="1.0654143"
       gradientUnits="userSpaceOnUse" />
  </defs>
  <path
     d="M 1.5275554,0.79381578 C 0.28822009,0.80313578 1.9010417e-7,1.1116258 1.9010417e-7,2.3813158 v 2.381217 c 0,1.289844 0.29765619989583,1.5875 1.58750000989583,1.5875 h 3.1749977 c 1.2898438,0 1.5875,-0.297656 1.5875,-1.5875 v -2.381217 c 0,-1.2898437 -0.2976562,-1.58750002 -1.5875,-1.58750002 H 1.5875002 c -0.020153,0 -0.040273,-1.48e-4 -0.059945,0 z"
     style="opacity:0.1;fill:#000000;stroke-width:0.264583;stroke-linecap:round;stroke-linejoin:round"
     id="path9125"
     sodipodi:nodetypes="cssssssssc" />
  <path
     id="rect6397"
     style="fill:url(#linearGradient2292);fill-opacity:1;stroke-width:0.182227;stroke-linejoin:round"
     d="M 1.532723,0.39693532 C 0.39666551,0.40548163 0.13229168,0.68826121 0.13229168,1.8521437 v 2.6458334 c 0,1.1638823 0.26437373,1.4466584 1.40043132,1.4552084 H 1.5875 4.7624975 c 1.1823568,0 1.4552083,-0.2728518 1.4552083,-1.4552084 V 1.8521437 c 0,-1.18235679 -0.2728515,-1.45520838 -1.4552083,-1.45520838 H 1.5875 c -0.018474,0 -0.036744,-1.3571e-4 -0.054777,0 z"
     sodipodi:nodetypes="cssccsssssc" />
  <path
     id="rect1156"
     style="opacity:0.05;fill:#000000;fill-opacity:1;stroke-width:2;stroke-linecap:round;stroke-linejoin:round"
     d="M 12 1.5 L 12 22.5 L 18 22.5 C 22.46875 22.5 23.5 21.468749 23.5 17 L 23.5 7 C 23.5 2.53125 22.46875 1.5 18 1.5 L 12 1.5 z "
     transform="scale(0.26458334)" />
  <path
     d="m 1.27,1.905 c -0.1172633,0 -0.2116667,0.094403 -0.2116667,0.2116667 v 3.2279168 c 0,0.117266 0.094403,0.2116667 0.2116667,0.2116667 h 3.8100001 c 0.1172633,0 0.2116667,-0.094401 0.2116667,-0.2116667 V 2.1166667 C 5.2916668,1.9994034 5.1972638,1.905 5.0800001,1.905 Z m 2.4341667,0.4762501 v 1.3229167 h 0.7408334 l -1.27,1.5875001 L 1.905,3.7041668 H 2.6458334 V 2.3812501 h 0.1580991 z"
     style="opacity:0.1;fill:#000000;stroke-width:0.105833;enable-background:new"
     id="path1143" />
  <path
     d="m 1.27,1.6404167 c -0.1172633,0 -0.2116667,0.094406 -0.2116667,0.2116693 v 3.2279168 c 0,0.1172659 0.094403,0.2116693 0.2116667,0.2116693 h 3.8100002 c 0.1172633,0 0.2116666,-0.094403 0.2116666,-0.2116693 V 1.852086 c 0,-0.117266 -0.094403,-0.2116693 -0.2116666,-0.2116693 z M 3.7041668,2.38125 v 1.0583334 h 0.7408334 l -1.2700001,1.5875 -1.27,-1.5875 H 2.6458335 V 2.38125 Z"
     style="fill:url(#linearGradient932);fill-opacity:1;stroke-width:0.105833;enable-background:new"
     id="path904" />
  <path
     id="circle38"
     d="M 1.5213542,4.6302084 A 0.19843751,0.19843751 0 0 0 1.3229167,4.8286459 0.19843751,0.19843751 0 0 0 1.5213542,5.0270834 0.19843751,0.19843751 0 0 0 1.7197917,4.8286459 0.19843751,0.19843751 0 0 0 1.5213542,4.6302084 Z m 3.3072918,0 A 0.19843751,0.19843751 0 0 0 4.6302084,4.8286459 0.19843751,0.19843751 0 0 0 4.828646,5.0270834 0.19843751,0.19843751 0 0 0 5.0270835,4.8286459 0.19843751,0.19843751 0 0 0 4.828646,4.6302084 Z"
     style="fill:#c8c4b7;fill-opacity:1;stroke-width:0.264583" />
  <path
     d="m 1.2700002,1.6668723 c -0.1172634,0 -0.2116667,0.094406 -0.2116667,0.2116693 v 1.5610417 h 1.5875 V 2.38125 h 1.0583333 v 1.0583333 h 1.5875 V 1.8785416 c 0,-0.1172633 -0.094403,-0.2116693 -0.2116666,-0.2116693 z"
     style="opacity:0.06;fill:#000000;stroke-width:0.105833;enable-background:new"
     id="path1529" />
  <path
     d="m 3.1750052,1.190625 c -0.2931583,0 -0.5291666,0.059002 -0.5291666,0.1322917 H 2.0779104 c -0.6077744,0 -0.961681,0.1021556 -0.9911556,0.2206572 0,0 -0.0072,0.032594 -0.010345,0.043926 h -0.066146 c -0.11991705,0 -0.21651379,0.1770063 -0.21651379,0.396875 0,0.2198688 0.0965967,0.396875 0.21652439,0.396875 h 0.066146 c 0.00315,0.011324 0.010345,0.043926 0.010345,0.043926 0,0.1221475 0.3833812,0.2206572 0.9911556,0.2206572 h 0.5679017 c 0,0.07329 0.2360083,0.1322917 0.5291667,0.1322917 0.2931583,0 0.5291667,-0.059002 0.5291667,-0.1322917 h 0.5679281 c 0.6077744,0 0.9616811,-0.1021556 0.9911556,-0.2206572 0,0 0.00643,-0.033565 0.00878,-0.043926 h 0.067696 c 0.1199277,0 0.2165244,-0.1770062 0.2165244,-0.396875 0,-0.2198687 -0.096597,-0.396875 -0.2165244,-0.396875 h -0.067696 c -0.00238,-0.010372 -0.00878,-0.043926 -0.00878,-0.043926 0,-0.1221476 -0.3833812,-0.2206572 -0.9911556,-0.2206572 H 3.7041561 c 0,-0.07329 -0.2360084,-0.1322917 -0.5291667,-0.1322917 z"
     style="opacity:0.25;fill:#000000;stroke-width:0.103632;enable-background:new"
     id="path1766" />
  <g
     id="g2801">
    <path
       d="m 1.0102215,1.3229167 h 4.32943 c 0.1199253,0 0.2164715,0.1770063 0.2164715,0.396875 0,0.2198688 -0.096546,0.396875 -0.2164715,0.396875 h -4.32943 c -0.11992519,0 -0.21647149,-0.1770062 -0.21647149,-0.396875 0,-0.2198687 0.096546,-0.396875 0.21647149,-0.396875 z"
       style="fill:#fdfdfd;stroke-width:1.05833;enable-background:new"
       id="path2122" />
    <path
       d="m 2.091451,1.0583333 h 2.1670974 c 0.6002788,0 0.9789407,0.098336 0.9789407,0.2204865 0,0 0.054177,0.2204863 0.054177,0.4409777 0,0.2204864 -0.054177,0.4409778 -0.054177,0.4409778 C 5.2083702,2.2792772 4.8588538,2.3812617 4.2585484,2.3812617 H 2.091451 c -0.6002787,0 -0.9789407,-0.098336 -0.9789407,-0.2204864 0,0 -0.054177,-0.1653655 -0.054177,-0.4409778 0,-0.2756123 0.054177,-0.4409777 0.054177,-0.4409777 0.029119,-0.118502 0.3786352,-0.2204865 0.9789407,-0.2204865 z"
       style="fill:#ff2a2a;stroke-width:1.11618;filter:url(#filter2357-4);enable-background:new"
       id="path2237" />
    <path
       d="m 3.1749844,0.92604167 c 0.2931496,0 0.5291511,0.0590017 0.5291511,0.13229083 v 1.3229183 c 0,0.073289 -0.2360015,0.1322908 -0.5291511,0.1322908 -0.2931496,0 -0.5291511,-0.059002 -0.5291511,-0.1322908 V 1.0583325 c 0,-0.073289 0.2360015,-0.13229083 0.5291511,-0.13229083 z"
       style="fill:#fdfdfd;stroke-width:1.15935;enable-background:new"
       id="path2372" />
  </g>
  <path
     d="m 3.174995,0.92604167 c -0.2931583,0 -0.5291667,0.059002 -0.5291667,0.13229173 H 2.0779002 c -0.6077744,0 -0.9616811,0.1021556 -0.9911556,0.2206572 0,0 -0.0072,0.032594 -0.010345,0.043926 h -0.066146 c -0.1199171,0 -0.2165138,0.1770063 -0.2165138,0.396875 0,0.047056 0.00635,0.090477 0.014473,0.1322917 0.029861,-0.1535615 0.1078018,-0.2645834 0.2020543,-0.2645834 h 0.066146 c 0.00315,-0.011324 0.010345,-0.043926 0.010345,-0.043926 0.029469,-0.1185016 0.3833813,-0.2206572 0.9911292,-0.2206572 h 0.5679281 c 0,-0.07329 0.2360083,-0.1322917 0.5291667,-0.1322917 0.2931583,0 0.5291667,0.059002 0.5291667,0.1322917 h 0.5679281 c 0.6077744,0 0.9911556,0.09851 0.9911556,0.2206572 0,0 0.0064,0.033555 0.00878,0.043926 h 0.067696 c 0.09426,0 0.1721935,0.1110219 0.2020544,0.2645834 0.00812,-0.041815 0.014473,-0.085236 0.014473,-0.1322917 0,-0.2198687 -0.096597,-0.396875 -0.2165244,-0.396875 h -0.067692 c -0.00238,-0.010372 -0.00878,-0.043926 -0.00878,-0.043926 0,-0.1221476 -0.3833813,-0.2206572 -0.9911557,-0.2206572 H 3.7041511 c 0,-0.07329 -0.2360083,-0.13229173 -0.5291667,-0.13229173 z"
     style="opacity:0.6;fill:#fdfdfd;stroke-width:0.103632;enable-background:new"
     id="path2487" />
  <path
     id="rect5096"
     style="opacity:0.4;stroke-width:0.240954;stroke-linecap:round;stroke-linejoin:round"
     d="M 1.5275554,0.26458333 C 0.28821988,0.27390666 1.0104166e-8,0.58239335 1.0104166e-8,1.8520834 V 4.4978839 C 1.0104166e-8,5.7877277 0.29765627,6.085384 1.5875001,6.085384 h 3.1749975 c 1.2898438,0 1.5875,-0.2976563 1.5875,-1.5875001 V 1.8520834 c 0,-1.28984381 -0.2976562,-1.58750007 -1.5875,-1.58750007 H 1.5875001 c -0.020154,0 -0.040273,-1.4798e-4 -0.059945,0 z m 0.032556,0.26458334 c 0.018033,-1.3565e-4 0.036303,0 0.054777,0 h 3.147609 c 1.1823568,0 1.3229167,0.29315998 1.3229167,1.32291673 v 2.6458005 c 0,1.0162919 -0.1405599,1.3229167 -1.3229167,1.3229167 H 1.5875001 c -0.99193704,0 -1.32291675,-0.1405599 -1.32291675,-1.3229167 V 1.8520834 c 0,-0.96076805 0.15947068,-1.31437034 1.29552805,-1.32291673 z"
     sodipodi:nodetypes="csssssssscssssssssss" />
  <path
     id="rect1565"
     style="fill:url(#linearGradient1873);fill-opacity:1;stroke-width:0.118194"
     d="M 1.5601116,0.52922694 C 0.42405397,0.53777695 0.26458335,0.8913756 0.26458335,1.8521436 V 4.497977 c 0,1.1823568 0.33097974,1.3229167 1.32291675,1.3229167 h 3.1749975 c 1.1823568,0 1.3229167,-0.3066248 1.3229167,-1.3229167 V 1.8521436 c 0,-1.02975658 -0.1405599,-1.32291666 -1.3229167,-1.32291666 h -3.147609 c -0.018473,0 -0.036744,-1.356e-4 -0.054777,0 z m 0.00259,0.26458338 h 0.049609 3.0179 c 1.0641211,0 1.190625,0.14300558 1.190625,1.05833328 V 4.497977 c 0,0.8938382 -0.1265039,1.0583334 -1.190625,1.0583334 H 1.7197917 c -1.02290214,0 -1.19062501,-0.1576914 -1.19062501,-1.0583334 V 1.8521436 c 0,-0.8540052 0.14116471,-1.05833328 1.03352871,-1.05833328 z"
     sodipodi:nodetypes="csssssssscsssssssssss" />
</svg>
