<?xml version="1.0" encoding="UTF-8" standalone="no"?>
<!-- Created with Inkscape (http://www.inkscape.org/) -->

<svg
   width="24"
   height="24"
   viewBox="0 0 6.3499999 6.3500002"
   version="1.1"
   id="svg5013"
   sodipodi:docname="usb-creator.svg"
   inkscape:version="1.1.2 (0a00cf5339, 2022-02-04)"
   xmlns:inkscape="http://www.inkscape.org/namespaces/inkscape"
   xmlns:sodipodi="http://sodipodi.sourceforge.net/DTD/sodipodi-0.dtd"
   xmlns:xlink="http://www.w3.org/1999/xlink"
   xmlns="http://www.w3.org/2000/svg"
   xmlns:svg="http://www.w3.org/2000/svg">
  <sodipodi:namedview
     id="namedview5015"
     pagecolor="#ffffff"
     bordercolor="#666666"
     borderopacity="1.0"
     inkscape:pageshadow="2"
     inkscape:pageopacity="0.0"
     inkscape:pagecheckerboard="0"
     inkscape:document-units="px"
     showgrid="false"
     units="px"
     showguides="true"
     inkscape:zoom="35.5"
     inkscape:cx="11.985915"
     inkscape:cy="12"
     inkscape:window-width="1851"
     inkscape:window-height="1053"
     inkscape:window-x="0"
     inkscape:window-y="0"
     inkscape:window-maximized="1"
     inkscape:current-layer="svg5013" />
  <defs
     id="defs5010">
    <linearGradient
       inkscape:collect="always"
       xlink:href="#linearGradient1871"
       id="linearGradient1873"
       x1="17.305155"
       y1="0.083426654"
       x2="17.305155"
       y2="47.797596"
       gradientUnits="userSpaceOnUse"
       gradientTransform="matrix(0.12026516,0,0,0.11615853,0.2886364,0.38726097)" />
    <linearGradient
       inkscape:collect="always"
       id="linearGradient1871">
      <stop
         style="stop-color:#ffffff;stop-opacity:1;"
         offset="0"
         id="stop1867" />
      <stop
         style="stop-color:#ffffff;stop-opacity:0.1"
         offset="0.12"
         id="stop2515" />
      <stop
         style="stop-color:#ffffff;stop-opacity:0.102"
         offset="0.89999998"
         id="stop2581" />
      <stop
         style="stop-color:#ffffff;stop-opacity:0.502"
         offset="1"
         id="stop1869" />
    </linearGradient>
    <linearGradient
       inkscape:collect="always"
       xlink:href="#linearGradient5306"
       id="linearGradient4248"
       x1="25"
       y1="-3.0000002"
       x2="25"
       y2="57"
       gradientUnits="userSpaceOnUse" />
    <linearGradient
       inkscape:collect="always"
       id="linearGradient5306">
      <stop
         style="stop-color:#999999;stop-opacity:1"
         offset="0"
         id="stop5302" />
      <stop
         style="stop-color:#dbdbdb;stop-opacity:1"
         offset="1"
         id="stop5304" />
    </linearGradient>
    <linearGradient
       inkscape:collect="always"
       xlink:href="#linearGradient6190"
       id="linearGradient6192"
       x1="6.0854168"
       y1="1.3229296"
       x2="6.0854273"
       y2="9.2604294"
       gradientUnits="userSpaceOnUse"
       gradientTransform="matrix(0.71428368,0,0,0.71428368,1.8142949,1.5497077)" />
    <linearGradient
       inkscape:collect="always"
       id="linearGradient6190">
      <stop
         style="stop-color:#808080;stop-opacity:1;"
         offset="0"
         id="stop6186" />
      <stop
         style="stop-color:#999999;stop-opacity:1"
         offset="1"
         id="stop6188" />
    </linearGradient>
    <linearGradient
       inkscape:collect="always"
       xlink:href="#linearGradient1871"
       id="linearGradient7223"
       x1="5.0270834"
       y1="1.8520833"
       x2="5.0270834"
       y2="9.260417"
       gradientUnits="userSpaceOnUse"
       gradientTransform="scale(3.7795276)" />
  </defs>
  <path
     d="M 1.5275552,0.52916667 C 0.28821992,0.53848667 1.6249999e-8,0.84697669 1.6249999e-8,2.1166667 V 4.7625 C 1.6249999e-8,6.052344 0.29765622,6.35 1.5875,6.35 h 3.175 C 6.0523438,6.35 6.35,6.052344 6.35,4.7625 V 2.1166667 C 6.35,0.82682299 6.0523438,0.52916667 4.7625,0.52916667 h -3.175 c -0.020153,0 -0.040273,-1.48e-4 -0.059945,0 z"
     style="opacity:0.1;fill:#000000;stroke-width:0.264583;stroke-linecap:round;stroke-linejoin:round"
     id="path9125"
     sodipodi:nodetypes="cssssssssc" />
  <path
     id="rect16934"
     style="fill:#4d4d4d;fill-opacity:1;stroke-width:0.175781;stroke-linecap:round;stroke-linejoin:round"
     d="m 5.7929687,1.4999999 c -4.2937607,0.032301 -5.29296876,1.1010741 -5.29296876,5.5 V 17 c 0,4.398925 0.99920766,5.467685 5.29296876,5.5 H 5.9999999 18 c 4.46875,0 5.5,-1.031251 5.5,-5.5 V 6.9999999 c 0,-4.46875 -1.03125,-5.5 -5.5,-5.5 H 5.9999999 c -0.069823,0 -0.138875,-5.129e-4 -0.2070312,0 z"
     sodipodi:nodetypes="cssccsssssc"
     transform="scale(0.26458334)" />
  <g
     id="g10343"
     transform="scale(0.50000001)">
    <path
       d="m 5.0270833,2.1166666 c -1.0583333,0 -1.3229167,0.7366 -1.3229167,1.3229167 v 5.2916666 c 0,0.5863167 0.2645834,1.3229171 1.3229167,1.3229171 h 2.6458334 c 1.0583334,0 1.3229166,-0.7366004 1.3229166,-1.3229171 V 3.4395833 c 0,-0.5863167 -0.2645832,-1.3229167 -1.3229166,-1.3229167 z"
       style="opacity:0.1;fill:#000000;stroke-width:0.287073"
       id="path3892"
       sodipodi:nodetypes="sssssssss" />
    <rect
       style="opacity:1;fill:#c0bfbc;fill-opacity:1;stroke-width:0.265778"
       id="rect8010"
       width="3.175"
       height="1.5875"
       x="4.7624998"
       y="9.260417" />
    <rect
       style="opacity:1;fill:#f6f5f4;fill-opacity:1;stroke-width:0.246692"
       id="rect8502"
       width="3.175"
       height="1.0583333"
       x="4.7624998"
       y="9.260417" />
    <path
       id="rect8224"
       style="opacity:0.4;fill:#000000;fill-opacity:1;stroke-width:1.25285"
       d="M 17.5,34 C 17.223,34 17,34.223 17,34.5 v 7 c 0,0.277 0.223,0.5 0.5,0.5 h 13 c 0.277,0 0.5,-0.223 0.5,-0.5 v -7 C 31,34.223 30.777,34 30.5,34 Z m 1.5,2 h 10 v 4 H 19 Z"
       sodipodi:nodetypes="sssssssssccccc"
       transform="scale(0.26458333)" />
    <path
       id="path2285"
       style="opacity:1;fill:url(#linearGradient4248);fill-opacity:1;stroke-width:1.085"
       d="m 19,7.5 c -2.704226,0 -3.5,0.9999997 -3.5,4 v 19 c 0,3 0.552748,4 3.5,4 h 10 c 2.9868,0 3.5,-1.433694 3.5,-4 v -19 c 0,-3.0000003 -0.599984,-4 -3.5,-4 z"
       sodipodi:nodetypes="sssssssss"
       transform="scale(0.26458333)" />
    <path
       d="M 5.7830373,4.838092 H 6.1610126 V 6.5338206 C 6.0643338,6.4724148 5.9646166,6.4182699 5.8679305,6.3699306 5.72619,6.2990603 5.5952406,6.2306581 5.5143159,6.1632349 5.4333992,6.0958042 5.4050586,6.0507759 5.4050586,5.9720364 c 0.2087555,0 0.377975,-0.1692254 0.377975,-0.3779753 0,-0.2087502 -0.1692251,-0.377975 -0.377975,-0.377975 -0.2087499,0 -0.3779753,0.1692248 -0.3779753,0.377975 v 0.3779753 c 0,0.2047301 0.1134002,0.372324 0.2450981,0.4820692 0.1316903,0.1097452 0.2849555,0.1830838 0.4266962,0.2539617 0.1417405,0.070878 0.2719531,0.1392724 0.3528774,0.2066956 0.080917,0.067431 0.1092576,0.4525159 0.1092576,0.5312559 -0.1046993,0 -0.1889876,0.084288 -0.1889876,0.1889873 v 0.3779753 c 0,0.1046991 0.084289,0.1889874 0.1889876,0.1889874 h 0.377975 c 0.1046991,0 0.1889877,-0.084289 0.1889877,-0.1889874 V 7.6350061 c 0,-0.104699 -0.084289,-0.1889876 -0.1889877,-0.1889876 V 6.7279864 c 0,-0.078744 0.028348,-0.1237718 0.1092576,-0.1911987 C 6.7291659,6.469357 6.860119,6.4009548 7.0018597,6.330092 7.1436005,6.2592292 7.2961322,6.1858832 7.4278188,6.0761306 7.5595128,5.9663854 7.6729166,5.7988102 7.6729166,5.5940611 V 5.0270984 c 0,-0.104699 -0.084288,-0.1889876 -0.1889873,-0.1889876 H 7.105954 c -0.1046991,0 -0.1889874,0.084288 -0.1889874,0.1889876 v 0.3779751 c 0,0.1046993 0.084289,0.1889876 0.1889874,0.1889876 h 0.1889876 c 0,0.078744 -0.028348,0.1237716 -0.1092576,0.1911988 C 7.1047631,5.8526908 6.9745471,5.9210927 6.8328066,5.9919555 6.7360226,6.0403515 6.635995,6.0943451 6.5389876,6.1558453 V 4.838092 h 0.377975 L 6.35,3.7041667 Z"
       style="opacity:0.2;fill:#ffffff;fill-opacity:1;stroke-width:0.0500028;enable-background:new"
       id="path9413" />
    <path
       id="rect1271"
       style="opacity:0.4;fill:#000000;stroke-width:1.085"
       d="m 19,6 c -4,0 -5,2.7839999 -5,5 v 20 c 0,2.216 1,5 5,5 h 10 c 4,0 5,-2.784 5,-5 V 11 C 34,8.7839999 33,6 29,6 Z m 0,2 h 10 c 3,0 3,0.9999992 3,4 v 18 c 0,3 0,4 -3,4 H 19 c -3,0 -3,-1 -3,-4 V 12 c 0,-3.0000008 0.732009,-4 3,-4 z"
       sodipodi:nodetypes="ssssssssssssssssss"
       transform="scale(0.26458333)" />
    <path
       d="M 5.7830374,4.5735086 H 6.1610125 V 6.2692373 C 6.064334,6.2078314 5.9646167,6.1536865 5.8679306,6.1053472 5.7261899,6.0344769 5.5952405,5.9660748 5.514316,5.8986515 5.4333991,5.8312208 5.4050585,5.7861926 5.4050585,5.7074529 c 0.2087557,0 0.3779751,-0.1692252 0.3779751,-0.3779752 0,-0.20875 -0.1692251,-0.3779751 -0.3779751,-0.3779751 -0.2087499,0 -0.3779751,0.1692251 -0.3779751,0.3779751 v 0.3779752 c 0,0.2047302 0.1134001,0.3723243 0.2450979,0.4820694 0.1316904,0.1097451 0.2849555,0.1830836 0.4266962,0.2539615 0.1417407,0.070878 0.2719531,0.1392725 0.3528776,0.2066957 0.080917,0.067431 0.1092574,0.452516 0.1092574,0.5312558 -0.1046991,0 -0.1889876,0.084288 -0.1889876,0.1889875 V 7.748398 c 0,0.104699 0.084289,0.1889875 0.1889876,0.1889875 h 0.3779751 c 0.1046991,0 0.1889876,-0.084289 0.1889876,-0.1889875 V 7.3704227 c 0,-0.1046991 -0.084289,-0.1889875 -0.1889876,-0.1889875 V 6.4634031 c 0,-0.078744 0.028348,-0.1237718 0.1092575,-0.1911987 C 6.7291658,6.2047736 6.860119,6.1363714 7.0018597,6.0655087 7.1436004,5.9946459 7.2961322,5.9212998 7.4278188,5.8115472 7.5595128,5.7018021 7.6729167,5.5342268 7.6729167,5.3294777 V 4.762515 c 0,-0.104699 -0.084288,-0.1889875 -0.1889875,-0.1889875 H 7.1059541 c -0.1046991,0 -0.1889876,0.084288 -0.1889876,0.1889875 v 0.3779752 c 0,0.1046991 0.084289,0.1889875 0.1889876,0.1889875 h 0.1889875 c 0,0.078744 -0.028348,0.1237717 -0.1092575,0.1911988 C 7.1047631,5.5881075 6.9745472,5.6565094 6.8328066,5.7273722 6.7360226,5.7757682 6.635995,5.8297618 6.5389876,5.8912621 V 4.5735086 H 6.9169627 L 6.3500001,3.4395833 Z"
       style="fill:url(#linearGradient6192);fill-opacity:1;stroke-width:0.188987;enable-background:new"
       id="path909"
       sodipodi:nodetypes="ccccccsssscsccsssssscscscssssssscccccccc" />
    <path
       id="path7002"
       style="fill:url(#linearGradient7223);fill-opacity:1;stroke-width:1.085"
       d="m 19,8 c -3,0 -3,1.9999989 -3,5 v 17 c 0,3 0,4 3,4 h 10 c 3,0 3,-1 3,-4 V 13 C 32,8.9073493 32,8 29,8 Z m 0,2 h 10 c 0.97049,-0.021787 1,1.15889 1,3 v 17 c 0,1.923526 0.01,2 -1,2 H 19 c -1.026329,0 -1,-0.739162 -1,-2 V 13 c 0,-2.406103 -0.04077,-3 1,-3 z"
       transform="scale(0.26458333)"
       sodipodi:nodetypes="sssssssssscsssssss" />
  </g>
  <g
     id="g2884">
    <circle
       style="fill:#5884f4;fill-opacity:1;stroke-width:0.127398"
       id="path9760"
       cx="2.1166666"
       cy="1.8520834"
       r="0.92604166" />
    <path
       d="M 1.9097401,1.3229167 H 2.3235933 V 1.6537442 H 2.5135417 C 2.4435611,1.7934168 2.3174374,2.082278 2.1166667,2.38125 1.9158548,2.0822264 1.7897744,1.7932306 1.7197917,1.6535475 h 0.1899484 z"
       style="color:#000000;fill:#ffffff;stroke-width:0.103461;enable-background:accumulate"
       id="path1648"
       sodipodi:nodetypes="cccccccc" />
    <path
       id="path10133"
       style="opacity:0.4;fill:#000000;fill-opacity:1;stroke-width:0.542498"
       d="M 8,3 C 5.7908609,3 4,4.7908609 4,7 4,9.2091388 5.7908612,11 8,11 10.209139,11 12,9.2091391 12,7 12,4.7908609 10.209139,2.9999998 8,3 Z m 0,1 c 1.6568542,0 3,1.3431455 3,3 0,1.6568542 -1.3431458,3 -3,3 C 6.3431458,10 5,8.6568542 5,7 5,5.3431455 6.3431455,4 8,4 Z"
       transform="scale(0.26458334)" />
  </g>
  <path
     id="rect5096"
     style="opacity:0.4;stroke-width:0.240954;stroke-linecap:round;stroke-linejoin:round"
     d="M 1.5275554,0.26464907 C 0.2882199,0.27396907 0,0.58245917 0,1.8521492 v 2.6458333 c 0,1.2898438 0.2976563,1.5875001 1.5875001,1.5875001 h 3.1749977 c 1.2898438,0 1.5874999,-0.2976563 1.5874999,-1.5875001 V 1.8521492 c 0,-1.28984383 -0.2976561,-1.58750013 -1.5874999,-1.58750013 H 1.5875001 c -0.020154,0 -0.040273,-1.479e-4 -0.059945,0 z m 0.032556,0.2645834 c 0.018033,-1.357e-4 0.036303,0 0.054777,0 h 3.1476092 c 1.1823568,0 1.3229167,0.29316 1.3229167,1.32291673 v 2.6458333 c 0,1.0162919 -0.1405599,1.3229167 -1.3229167,1.3229167 H 1.5875001 c -0.991937,0 -1.3229168,-0.1405599 -1.3229168,-1.3229167 V 1.8521492 c 0,-0.96076803 0.1594707,-1.31437033 1.2955281,-1.32291673 z"
     sodipodi:nodetypes="csssssssscssssssssss" />
  <path
     id="rect1565"
     style="fill:url(#linearGradient1873);fill-opacity:1;stroke-width:0.118194;opacity:1"
     d="M 1.5601116,0.52923247 C 0.424054,0.53778247 0.2645833,0.89138117 0.2645833,1.8521491 v 2.6458334 c 0,1.1823568 0.3309798,1.3229167 1.3229168,1.3229167 h 3.1749977 c 1.1823568,0 1.3229167,-0.3066248 1.3229167,-1.3229167 V 1.8521491 c 0,-1.02975653 -0.1405599,-1.32291663 -1.3229167,-1.32291663 H 1.6148886 c -0.018473,0 -0.036744,-1.356e-4 -0.054777,0 z m 0.00259,0.2645834 h 0.049609 3.0179002 c 1.0641211,0 1.190625,0.1430056 1.190625,1.05833323 v 2.6458334 c 0,0.8938382 -0.1265039,1.0583334 -1.190625,1.0583334 H 1.7197917 c -1.0229021,0 -1.190625,-0.1576914 -1.190625,-1.0583334 V 1.8521491 c 0,-0.85400513 0.1411647,-1.05833323 1.0335287,-1.05833323 z"
     sodipodi:nodetypes="csssssssscsssssssssss" />
</svg>
