<?xml version="1.0" encoding="UTF-8" standalone="no"?>
<!-- Created with Inkscape (http://www.inkscape.org/) -->

<svg
   width="24"
   height="24"
   viewBox="0 0 6.3499999 6.3500002"
   version="1.1"
   id="svg5013"
   sodipodi:docname="applications-graphics.svg"
   inkscape:version="1.1.2 (0a00cf5339, 2022-02-04)"
   xmlns:inkscape="http://www.inkscape.org/namespaces/inkscape"
   xmlns:sodipodi="http://sodipodi.sourceforge.net/DTD/sodipodi-0.dtd"
   xmlns:xlink="http://www.w3.org/1999/xlink"
   xmlns="http://www.w3.org/2000/svg"
   xmlns:svg="http://www.w3.org/2000/svg">
  <sodipodi:namedview
     id="namedview5015"
     pagecolor="#ffffff"
     bordercolor="#666666"
     borderopacity="1.0"
     inkscape:pageshadow="2"
     inkscape:pageopacity="0.0"
     inkscape:pagecheckerboard="0"
     inkscape:document-units="px"
     showgrid="false"
     units="px"
     showguides="false"
     inkscape:zoom="13.333698"
     inkscape:cx="12.41216"
     inkscape:cy="8.6997619"
     inkscape:window-width="1920"
     inkscape:window-height="998"
     inkscape:window-x="0"
     inkscape:window-y="0"
     inkscape:window-maximized="1"
     inkscape:current-layer="svg5013" />
  <defs
     id="defs5010">
    <linearGradient
       inkscape:collect="always"
       xlink:href="#linearGradient1871"
       id="linearGradient1873"
       x1="17.305155"
       y1="0.083426654"
       x2="17.305155"
       y2="47.797596"
       gradientUnits="userSpaceOnUse"
       gradientTransform="matrix(0.12026516,0,0,0.11615853,0.2886364,0.38726097)" />
    <linearGradient
       inkscape:collect="always"
       id="linearGradient1871">
      <stop
         style="stop-color:#ffffff;stop-opacity:1;"
         offset="0"
         id="stop1867" />
      <stop
         style="stop-color:#ffffff;stop-opacity:0.1"
         offset="0.12"
         id="stop2515" />
      <stop
         style="stop-color:#ffffff;stop-opacity:0.102"
         offset="0.89999998"
         id="stop2581" />
      <stop
         style="stop-color:#ffffff;stop-opacity:0.502"
         offset="1"
         id="stop1869" />
    </linearGradient>
  </defs>
  <path
     d="M 1.5275552,0.52916667 C 0.28821992,0.53848667 1.6249999e-8,0.84697669 1.6249999e-8,2.1166667 V 4.7625 C 1.6249999e-8,6.052344 0.29765622,6.35 1.5875,6.35 h 3.175 C 6.0523438,6.35 6.35,6.052344 6.35,4.7625 V 2.1166667 C 6.35,0.82682299 6.0523438,0.52916667 4.7625,0.52916667 h -3.175 c -0.020153,0 -0.040273,-1.48e-4 -0.059945,0 z"
     style="opacity:0.1;fill:#000000;stroke-width:0.264583;stroke-linecap:round;stroke-linejoin:round"
     id="path9125"
     sodipodi:nodetypes="cssssssssc" />
  <path
     id="rect16934"
     style="fill:#4d4d4d;fill-opacity:1;stroke-width:0.175781;stroke-linecap:round;stroke-linejoin:round"
     d="m 5.7929687,1.4999999 c -4.2937607,0.032301 -5.29296876,1.1010741 -5.29296876,5.5 V 17 c 0,4.398925 0.99920766,5.467685 5.29296876,5.5 H 5.9999999 18 c 4.46875,0 5.5,-1.031251 5.5,-5.5 V 6.9999999 c 0,-4.46875 -1.03125,-5.5 -5.5,-5.5 H 5.9999999 c -0.069823,0 -0.138875,-5.129e-4 -0.2070312,0 z"
     sodipodi:nodetypes="cssccsssssc"
     transform="scale(0.26458334)" />
  <path
     id="path1457"
     style="opacity:0.1;fill:#000000;fill-opacity:1;stroke-width:3.44435"
     d="M 14.939453 4 C 14.290976 3.9939119 13.638773 4.3056716 13.28125 4.8691406 C 12.736471 5.7276739 13.010531 6.9552121 13.869141 7.5 C 14.72777 8.0447686 15.955193 7.7707477 16.5 6.9121094 C 17.044769 6.0534801 16.770719 4.8260379 15.912109 4.28125 C 15.616988 4.0939858 15.279132 4.003189 14.939453 4 z M 7.9394531 5 C 7.2909488 4.9939119 6.6387733 5.3056716 6.28125 5.8691406 C 5.7364908 6.7277695 6.0105117 7.9551928 6.8691406 8.5 C 7.7276739 9.0447686 8.9551928 8.7707481 9.5 7.9121094 C 10.044778 7.0534805 9.770719 5.8260474 8.9121094 5.28125 C 8.6169557 5.0939858 8.2791459 5.003189 7.9394531 5 z M 21.339844 7 C 21.213241 7.005796 21.089867 7.0665376 21.007812 7.1757812 L 20.214844 8.2304688 L 21.294922 9.0410156 L 22.087891 7.9863281 C 22.233765 7.7921182 22.194211 7.5169722 22 7.3710938 L 21.623047 7.0878906 C 21.538076 7.0240672 21.438312 6.995492 21.339844 7 z M 19.951172 8.5820312 L 17.046875 12.451172 L 18.125 13.261719 L 21.03125 9.3925781 L 19.951172 8.5820312 z M 3.9394531 11 C 3.2909467 10.993912 2.6387671 11.305671 2.28125 11.869141 C 1.7364908 12.72777 2.0105113 13.955193 2.8691406 14.5 C 3.7276739 15.044769 4.9551932 14.770748 5.5 13.912109 C 6.0447785 13.05348 5.7707288 11.826048 4.9121094 11.28125 C 4.6169557 11.093986 4.279147 11.003189 3.9394531 11 z M 16.304688 12.546875 C 16.210075 12.548289 16.115268 12.580516 16.037109 12.642578 L 15.162109 13.337891 C 15.13275 13.361199 15.10651 13.387959 15.083984 13.417969 C 14.994934 13.536525 14.975534 13.685183 15.017578 13.816406 C 15.085828 13.81423 15.153015 13.816917 15.216797 13.822266 L 17.025391 15.132812 C 17.081238 15.243044 17.130102 15.362396 17.169922 15.488281 C 17.380311 15.537351 17.599921 15.424157 17.679688 15.216797 L 18.085938 14.164062 C 18.156694 13.980144 18.09542 13.77218 17.9375 13.654297 L 16.574219 12.634766 C 16.494242 12.57506 16.3993 12.545461 16.304688 12.546875 z M 17.169922 15.488281 C 17.150292 15.483703 17.130674 15.476192 17.111328 15.46875 C 17.073306 15.454237 17.03839 15.43458 17.005859 15.410156 L 15.171875 14.033203 C 15.096221 13.976379 15.044407 13.900143 15.017578 13.816406 C 14.203734 13.842358 13.105723 14.400676 12.546875 15.404297 C 11.473828 17.33128 12.318212 20.251466 10 19.742188 C 13.064192 22.08709 17.260276 18.58666 17.291016 16.353516 C 17.295501 16.030125 17.250558 15.743206 17.169922 15.488281 z M 6.9394531 17 C 6.2909818 16.99391 5.6387797 17.305659 5.28125 17.869141 C 4.7364719 18.72777 5.0102725 19.95504 5.8691406 20.5 C 6.7280572 21.04497 7.9551932 20.770748 8.5 19.912109 C 9.0447592 19.053385 8.7709968 17.82621 7.9121094 17.28125 C 7.6168898 17.09392 7.2791286 17.00319 6.9394531 17 z "
     transform="scale(0.26458334)" />
  <path
     d="M 1.455406,3.4164111 C 1.3112592,3.6435924 0.98635231,3.7162335 0.75919871,3.5720967 0.53201971,3.4279499 0.45937621,3.1030431 0.60351041,2.8758642 0.74765221,2.6486877 1.0725642,2.5760416 1.2997431,2.7201783 1.5269195,2.8643228 1.5995656,3.1892322 1.4554263,3.4164111 Z"
     style="fill:#3f90dc;stroke-width:1.00003"
     id="path2417"
     sodipodi:nodetypes="cccccc" />
  <path
     d="M 2.2491951,5.0039119 C 2.1050483,5.2310935 1.7802174,5.3037851 1.5529624,5.1595951 1.3257202,5.0154078 1.25314,4.6905666 1.3972792,4.4633877 1.5414261,4.2362064 1.866257,4.1635145 2.0934866,4.3077021 2.3207339,4.4518895 2.3933091,4.7767306 2.2491749,5.0039346 Z"
     style="fill:#f1a443;stroke-width:1.00003"
     id="path2532"
     sodipodi:nodetypes="cccccc" />
  <path
     d="M 4.3658454,1.5643024 C 4.2216985,1.7914838 3.8967918,1.8641248 3.6696129,1.7199881 3.442439,1.5758463 3.3697902,1.2509343 3.5139297,1.0237807 3.6580739,0.79660431 3.9829833,0.72395825 4.210137,0.86809497 4.4373109,1.0122368 4.5099595,1.3371487 4.3658226,1.5643277 Z"
     style="fill:#f35b5b;stroke-width:1.00003"
     id="path2302"
     sodipodi:nodetypes="cccccc" />
  <path
     d="M 2.5137393,1.8289109 C 2.3695924,2.0560924 2.0446855,2.1287334 1.8175319,1.9845967 1.590353,1.8404498 1.5177095,1.5155429 1.6618437,1.288364 1.805988,1.0611876 2.1308975,0.98854155 2.3580764,1.1326783 2.5852502,1.2768226 2.6578989,1.601732 2.5137596,1.8289109 Z"
     style="fill:#56a913;stroke-width:1.00003"
     id="path2168"
     sodipodi:nodetypes="cccccc" />
  <path
     d="M 4.0258578,3.392478 C 3.8077474,3.3741873 3.4802078,3.5232996 3.3199462,3.8111094 3.0360359,4.320957 3.2591937,5.0934568 2.6458334,4.95871 3.4565676,5.579132 4.5668458,4.6530345 4.5749791,4.0621818 4.5767518,3.9343653 4.5495632,3.8276043 4.5048645,3.739378 Z"
     style="fill:#1b90ff;fill-rule:evenodd;stroke-width:1.00003"
     id="path1931"
     sodipodi:nodetypes="cccccc" />
  <path
     d="M 2.7582066,5.033862 C 3.5552839,5.4952893 4.5670738,4.6259486 4.5748526,4.0620045 4.5766253,3.934188 4.5494367,3.8274271 4.5047377,3.7392007 L 4.0410808,3.4034238 C 3.9179162,3.4742406 3.8029762,3.5723764 3.7147551,3.6978495 3.3010897,4.2861683 3.4750998,5.2617252 2.7406931,5.01757 c 0.00582,0.0055 0.011656,0.010922 0.017515,0.016288 z"
     style="fill:#a197ff;fill-rule:evenodd;stroke-width:1.00003"
     id="path1731" />
  <path
     d="M 3.1022942,5.1539127 C 3.818924,5.2578559 4.5681885,4.5469959 4.5748526,4.0620045 4.5766253,3.9341878 4.5494367,3.8274268 4.5047377,3.7392007 L 4.0446027,3.4059828 c -0.099116,0.086093 -0.1862151,0.1943664 -0.2461112,0.3221705 -0.2949829,0.6294168 0.034363,1.5287575 -0.7056332,1.4196023 0.00314,0.00206 0.00628,0.00412 0.00941,0.00616 z"
     style="fill:#dd61fa;fill-rule:evenodd;stroke-width:1.00003"
     id="path1531" />
  <path
     d="M 3.9802497,4.9208556 C 4.3245655,4.6903926 4.5710518,4.3393524 4.5748526,4.0621059 4.5766253,3.9342894 4.5494367,3.8275284 4.5047377,3.739302 L 4.0478714,3.4084408 C 3.9977127,3.49464 3.9597921,3.5914484 3.9412244,3.695569 3.8601738,4.1500534 4.105776,4.65268 3.9802296,4.9208556 Z"
     style="fill:#fa6196;fill-rule:evenodd;stroke-width:1.00003"
     id="path1331" />
  <path
     d="M 4.5048745,4.3374519 C 4.5489496,4.2424427 4.5737858,4.148713 4.5749793,4.0621818 4.576752,3.934365 4.5495634,3.8276041 4.5048645,3.739378 L 4.0710301,3.425189 c 0.00317,0.023606 0.00762,0.047245 0.013444,0.070801 0.08381,0.338944 0.3979809,0.6135047 0.4204049,0.8414438 z"
     style="fill:#f1a443;fill-rule:evenodd;stroke-width:1.00003"
     id="path1131" />
  <path
     d="M 5.2788345,2.0061517 5.5644401,2.2206783 4.7956786,3.2441534 4.5100728,3.0296265 Z m -0.893766,1.0722791 0.3609841,0.2694953 c 0.041783,0.03119 0.057719,0.086366 0.038998,0.1350277 l -0.107187,0.2786523 c -0.023074,0.059983 -0.090405,0.089904 -0.1503852,0.066832 -0.010059,-0.00384 -0.019513,-0.00909 -0.02812,-0.015552 L 4.014206,3.4484733 C 3.9628213,3.409877 3.9524539,3.3369284 3.9910497,3.2855437 c 0.00596,-0.00794 0.012901,-0.015063 0.020669,-0.02123 L 4.2431021,3.0805572 c 0.041359,-0.032841 0.099651,-0.033714 0.141972,-0.00212 z m 0.963657,-1.165327 0.2096532,-0.2791175 c 0.038596,-0.051385 0.1115423,-0.061754 0.1629296,-0.023156 l 0.099533,0.074762 c 0.051385,0.038597 0.061752,0.111545 0.023156,0.1629297 L 5.6343448,2.1276403 Z"
     id="path87"
     style="fill:#ffffff;fill-opacity:1;stroke-width:3.44435" />
  <path
     d="M 5.2788345,2.0061517 5.5644401,2.2206783 4.7956786,3.2441534 4.5100728,3.0296265 Z m -0.893766,1.0722791 0.3609841,0.2694953 c 0.041783,0.03119 0.057719,0.086366 0.038998,0.1350277 l -0.107187,0.2786523 c -0.023074,0.059983 -0.090405,0.089904 -0.1503852,0.066832 -0.010059,-0.00384 -0.019513,-0.00909 -0.02812,-0.015552 L 4.014206,3.4484733 C 3.9628213,3.409877 3.9524539,3.3369284 3.9910497,3.2855437 c 0.00596,-0.00794 0.012901,-0.015063 0.020669,-0.02123 L 4.2431021,3.0805572 c 0.041359,-0.032841 0.099651,-0.033714 0.141972,-0.00212 z m 0.963657,-1.165327 0.2096532,-0.2791175 c 0.038596,-0.051385 0.1115423,-0.061754 0.1629296,-0.023156 l 0.099533,0.074762 c 0.051385,0.038597 0.061752,0.111545 0.023156,0.1629297 L 5.6343448,2.1276403 Z"
     id="path89"
     style="fill:#828282;fill-opacity:1;stroke-width:3.44435"
     sodipodi:nodetypes="cccccccccccccccccccssccc" />
  <path
     id="rect5096"
     style="opacity:0.4;stroke-width:0.240954;stroke-linecap:round;stroke-linejoin:round"
     d="M 1.5275554,0.26464907 C 0.2882199,0.27396907 0,0.58245917 0,1.8521492 v 2.6458333 c 0,1.2898438 0.2976563,1.5875001 1.5875001,1.5875001 h 3.1749977 c 1.2898438,0 1.5874999,-0.2976563 1.5874999,-1.5875001 V 1.8521492 c 0,-1.28984383 -0.2976561,-1.58750013 -1.5874999,-1.58750013 H 1.5875001 c -0.020154,0 -0.040273,-1.479e-4 -0.059945,0 z m 0.032556,0.2645834 c 0.018033,-1.357e-4 0.036303,0 0.054777,0 h 3.1476092 c 1.1823568,0 1.3229167,0.29316 1.3229167,1.32291673 v 2.6458333 c 0,1.0162919 -0.1405599,1.3229167 -1.3229167,1.3229167 H 1.5875001 c -0.991937,0 -1.3229168,-0.1405599 -1.3229168,-1.3229167 V 1.8521492 c 0,-0.96076803 0.1594707,-1.31437033 1.2955281,-1.32291673 z"
     sodipodi:nodetypes="csssssssscssssssssss" />
  <path
     id="rect1565"
     style="fill:url(#linearGradient1873);fill-opacity:1;stroke-width:0.118194;opacity:1"
     d="M 1.5601116,0.52923247 C 0.424054,0.53778247 0.2645833,0.89138117 0.2645833,1.8521491 v 2.6458334 c 0,1.1823568 0.3309798,1.3229167 1.3229168,1.3229167 h 3.1749977 c 1.1823568,0 1.3229167,-0.3066248 1.3229167,-1.3229167 V 1.8521491 c 0,-1.02975653 -0.1405599,-1.32291663 -1.3229167,-1.32291663 H 1.6148886 c -0.018473,0 -0.036744,-1.356e-4 -0.054777,0 z m 0.00259,0.2645834 h 0.049609 3.0179002 c 1.0641211,0 1.190625,0.1430056 1.190625,1.05833323 v 2.6458334 c 0,0.8938382 -0.1265039,1.0583334 -1.190625,1.0583334 H 1.7197917 c -1.0229021,0 -1.190625,-0.1576914 -1.190625,-1.0583334 V 1.8521491 c 0,-0.85400513 0.1411647,-1.05833323 1.0335287,-1.05833323 z"
     sodipodi:nodetypes="csssssssscsssssssssss" />
</svg>
