<?xml version="1.0" encoding="UTF-8" standalone="no"?>
<!-- Created with Inkscape (http://www.inkscape.org/) -->

<svg
   width="24"
   height="24"
   viewBox="0 0 6.3499999 6.3500002"
   version="1.1"
   id="svg5013"
   sodipodi:docname="devhelp.svg"
   inkscape:version="1.1.2 (0a00cf5339, 2022-02-04)"
   xmlns:inkscape="http://www.inkscape.org/namespaces/inkscape"
   xmlns:sodipodi="http://sodipodi.sourceforge.net/DTD/sodipodi-0.dtd"
   xmlns:xlink="http://www.w3.org/1999/xlink"
   xmlns="http://www.w3.org/2000/svg"
   xmlns:svg="http://www.w3.org/2000/svg">
  <sodipodi:namedview
     id="namedview5015"
     pagecolor="#ffffff"
     bordercolor="#666666"
     borderopacity="1.0"
     inkscape:pageshadow="2"
     inkscape:pageopacity="0.0"
     inkscape:pagecheckerboard="0"
     inkscape:document-units="px"
     showgrid="false"
     units="px"
     showguides="true"
     inkscape:zoom="26.667397"
     inkscape:cx="12.337162"
     inkscape:cy="12.655903"
     inkscape:window-width="1851"
     inkscape:window-height="1049"
     inkscape:window-x="0"
     inkscape:window-y="0"
     inkscape:window-maximized="1"
     inkscape:current-layer="svg5013" />
  <defs
     id="defs5010">
    <linearGradient
       inkscape:collect="always"
       xlink:href="#linearGradient1871"
       id="linearGradient1873"
       x1="10.572797"
       y1="1.2222221"
       x2="10.805839"
       y2="46.70113"
       gradientUnits="userSpaceOnUse"
       gradientTransform="matrix(0.12026516,0,0,0.11615853,0.28863637,0.38719515)" />
    <linearGradient
       inkscape:collect="always"
       id="linearGradient1871">
      <stop
         style="stop-color:#ffffff;stop-opacity:1;"
         offset="0"
         id="stop1867" />
      <stop
         style="stop-color:#ffffff;stop-opacity:0.1"
         offset="0.12"
         id="stop2515" />
      <stop
         style="stop-color:#ffffff;stop-opacity:0.102"
         offset="0.89999998"
         id="stop2581" />
      <stop
         style="stop-color:#ffffff;stop-opacity:0.502"
         offset="1"
         id="stop1869" />
    </linearGradient>
    <linearGradient
       inkscape:collect="always"
       xlink:href="#linearGradient2290"
       id="linearGradient2292"
       x1="1.9583793"
       y1="0.097477973"
       x2="4.150641"
       y2="8.3691883"
       gradientUnits="userSpaceOnUse"
       gradientTransform="matrix(2.7368992,0,0,2.6596675,0.41379327,0.74074096)" />
    <linearGradient
       inkscape:collect="always"
       id="linearGradient2290">
      <stop
         style="stop-color:#bc1938;stop-opacity:1"
         offset="0"
         id="stop2286" />
      <stop
         style="stop-color:#da1636;stop-opacity:1"
         offset="1"
         id="stop2288" />
    </linearGradient>
  </defs>
  <path
     d="M 1.5275552,0.52916667 C 0.28821992,0.53848667 1.6249999e-8,0.84697669 1.6249999e-8,2.1166667 V 4.7625 C 1.6249999e-8,6.052344 0.29765622,6.35 1.5875,6.35 h 3.175 C 6.0523438,6.35 6.35,6.052344 6.35,4.7625 V 2.1166667 C 6.35,0.82682299 6.0523438,0.52916667 4.7625,0.52916667 h -3.175 c -0.020153,0 -0.040273,-1.48e-4 -0.059945,0 z"
     style="opacity:0.1;fill:#000000;stroke-width:0.264583;stroke-linecap:round;stroke-linejoin:round"
     id="path9125"
     sodipodi:nodetypes="cssssssssc" />
  <path
     id="rect6397"
     style="fill:url(#linearGradient2292);fill-opacity:1;stroke-width:0.688732;stroke-linejoin:round"
     d="m 5.7929687,1.4999999 c -4.2937606,0.032301 -5.29296876,1.1010742 -5.29296876,5.5 V 17 c 0,4.398925 0.99920776,5.467685 5.29296876,5.5 H 5.9999999 18 c 4.46875,0 5.5,-1.031251 5.5,-5.5 V 6.9999999 c 0,-4.4687499 -1.03125,-5.5 -5.5,-5.5 H 5.9999999 c -0.069823,0 -0.138875,-5.129e-4 -0.2070312,0 z"
     sodipodi:nodetypes="cssccsssssc"
     transform="scale(0.26458334)" />
  <path
     id="rect2789"
     style="opacity:0.03;fill:#ffffff;fill-opacity:1;stroke-width:0.529167;stroke-linecap:round;stroke-linejoin:round"
     d="m 0.13229167,4.4979167 c 0,1.1638823 0.2643737,1.4466584 1.40043133,1.4552084 H 1.5875 4.7625001 c 1.1823568,0 1.4552084,-0.2728518 1.4552084,-1.4552084 V 3.175 H 0.13229167 Z"
     sodipodi:nodetypes="cccscccc" />
  <path
     d="m 3.3029673,1.5875002 c -0.1180783,0 -0.217596,0.013217 -0.2985019,0.039463 -0.07872,0.024053 -0.1421572,0.060132 -0.1902635,0.1082383 -0.048106,0.045921 -0.082075,0.1036594 -0.1017548,0.1736325 -0.019678,0.069972 -0.029314,0.1499383 -0.029314,0.2395909 v 0.5902387 c 0,0.03936 -0.00662,0.078744 -0.019731,0.118104 -0.010937,0.037173 -0.02957,0.071143 -0.05581,0.1017549 -0.024051,0.028426 -0.054717,0.052479 -0.091889,0.072159 -0.037173,0.017493 -0.081972,0.026215 -0.1344531,0.026215 v 0.2362082 c 0.052479,0 0.097279,0.00991 0.1344531,0.029597 0.037173,0.017493 0.067838,0.041547 0.091889,0.072159 0.026241,0.028426 0.044878,0.062115 0.05581,0.1014737 0.013114,0.037173 0.019731,0.075645 0.019731,0.1150029 v 0.590239 c 0,0.089652 0.00963,0.1696183 0.029314,0.2395908 0.01968,0.069972 0.05365,0.1289092 0.1017548,0.1770153 0.048106,0.048105 0.1115452,0.084185 0.1902635,0.1082383 0.080906,0.024053 0.1804234,0.036079 0.2985019,0.036079 h 0.01296 V 4.5231914 c -0.1246389,0 -0.2142391,-0.023139 -0.2689051,-0.069058 -0.052474,-0.043733 -0.078638,-0.128832 -0.078638,-0.2556578 V 3.6933617 c 0,-0.1443188 -0.019834,-0.2558624 -0.059193,-0.3345814 C 2.8720193,3.280062 2.8184976,3.2187335 2.7485256,3.1750001 2.8184993,3.131267 2.8720193,3.0699385 2.9091919,2.9912199 2.9485519,2.9125016 2.9683845,2.8009568 2.9683845,2.6566385 V 2.1515249 c 0,-0.1268246 0.026163,-0.2119247 0.078643,-0.2556573 0.054665,-0.045921 0.1442674,-0.069058 0.268906,-0.069058 V 1.5875002 Z m 0.8233464,0 V 1.826809 c 0.1246389,0 0.2130434,0.023139 0.2655227,0.069058 0.054665,0.043731 0.082025,0.128832 0.082025,0.2556572 V 2.656638 c 0,0.1443188 0.018639,0.2558626 0.05581,0.3345814 0.03936,0.07872 0.094077,0.1400485 0.1640486,0.1837801 -0.069972,0.043731 -0.1246903,0.1050617 -0.1640486,0.1837803 -0.037173,0.078718 -0.05581,0.1902631 -0.05581,0.3345815 v 0.5051139 c 0,0.1268246 -0.02736,0.2119246 -0.082025,0.2556574 -0.052479,0.045921 -0.1408835,0.069058 -0.2655227,0.069058 v 0.2393087 h 0.01296 c 0.1180783,0 0.2164003,-0.012034 0.2951191,-0.036079 0.080906,-0.024053 0.1455395,-0.060132 0.1936461,-0.1082383 0.048103,-0.048105 0.082075,-0.1070417 0.1017548,-0.1770152 0.01968,-0.069972 0.029313,-0.1499383 0.029313,-0.2395908 V 3.6113373 c 0,-0.03936 0.00571,-0.077832 0.016629,-0.1150029 0.013114,-0.03936 0.031479,-0.073047 0.055529,-0.1014737 0.026241,-0.030614 0.058101,-0.054665 0.095273,-0.072159 0.037172,-0.019678 0.081972,-0.029597 0.1344531,-0.029597 v -0.236208 c -0.052479,0 -0.097279,-0.00873 -0.1344531,-0.026215 -0.037173,-0.01968 -0.069033,-0.043733 -0.095273,-0.072159 -0.024053,-0.030614 -0.04241,-0.064582 -0.055529,-0.1017549 -0.010937,-0.03936 -0.016629,-0.078744 -0.016629,-0.118104 V 2.1484242 c 0,-0.089652 -0.00963,-0.1696183 -0.029313,-0.2395908 C 4.7101201,1.8388614 4.6761505,1.7811203 4.6280449,1.7352008 4.5799381,1.6870952 4.5153051,1.6510148 4.4343995,1.626962 4.3556805,1.6007228 4.2573589,1.5875 4.1392804,1.5875 Z"
     style="font-size:6.01326px;line-height:1.25;font-family:ubuntu;-inkscape-font-specification:ubuntu;fill:#fef8f9;fill-opacity:1;stroke-width:0.0819991"
     id="path3752" />
  <path
     id="rect2291"
     style="opacity:1;fill:#4d4d4d;fill-opacity:1;stroke-width:2;stroke-linecap:round;stroke-linejoin:round"
     d="M 5.7929688 1.5 C 1.4992082 1.5322998 0.5 2.6010743 0.5 7 L 0.5 17 C 0.5 21.398925 1.4992078 22.467685 5.7929688 22.5 L 6 22.5 L 6 1.5 C 5.930177 1.5 5.861125 1.4994871 5.7929688 1.5 z "
     transform="scale(0.26458334)" />
  <path
     id="rect5096"
     style="opacity:0.4;stroke-width:0.240954;stroke-linecap:round;stroke-linejoin:round"
     d="M 1.5276195,0.26458333 C 0.28828403,0.27390666 6.4159692e-5,0.58239335 6.4159692e-5,1.8520834 v 2.6458333 c 0,1.2898438 0.297656260308,1.5875001 1.587500040308,1.5875001 h 3.1749359 c 1.2898438,0 1.5875,-0.2976563 1.5875,-1.5875001 V 1.8520834 c 0,-1.28984381 -0.2976562,-1.58750007 -1.5875,-1.58750007 H 1.5875642 c -0.020154,0 -0.040273,-1.4798e-4 -0.059945,0 z m 0.032556,0.26458334 c 0.018033,-1.3565e-4 0.036303,0 0.054777,0 h 3.1475474 c 1.1823568,0 1.3229167,0.29315998 1.3229167,1.32291673 v 2.6458333 c 0,1.0162919 -0.1405599,1.3229167 -1.3229167,1.3229167 H 1.5875642 c -0.99193699,0 -1.3229167,-0.1405599 -1.3229167,-1.3229167 V 1.8520834 c 0,-0.96076805 0.15947068,-1.31437034 1.295528,-1.32291673 z"
     sodipodi:nodetypes="csssssssscssssssssss" />
  <path
     id="rect1565"
     style="fill:url(#linearGradient1873);fill-opacity:1;stroke-width:0.118194;opacity:0.3"
     d="M 1.5601116,0.52916667 C 0.42405397,0.53771668 0.26458335,0.89131535 0.26458335,1.8520833 v 2.6458334 c 0,1.1823568 0.33097974,1.3229167 1.32291675,1.3229167 h 3.1749976 c 1.1823568,0 1.3229167,-0.3066248 1.3229167,-1.3229167 V 1.8520833 c 0,-1.02975655 -0.1405599,-1.32291663 -1.3229167,-1.32291663 H 1.6148886 c -0.018473,0 -0.036744,-1.356e-4 -0.054777,0 z m 0.00259,0.26458338 c 0.016229,0 0.032983,0 0.049609,0 h 3.0179001 c 1.0641211,0 1.190625,0.1430056 1.190625,1.05833325 v 2.6458334 c 0,0.8938382 -0.1265039,1.0583334 -1.190625,1.0583334 h -2.910419 c -1.02290214,0 -1.19062501,-0.1576914 -1.19062501,-1.0583334 V 1.8520833 c 0,-0.85400515 0.1411647,-1.05833325 1.03352871,-1.05833325 z"
     sodipodi:nodetypes="csssssssscsssssssssss" />
</svg>
