<?xml version="1.0" encoding="UTF-8" standalone="no"?>
<!-- Created with Inkscape (http://www.inkscape.org/) -->

<svg
   width="24"
   height="24"
   viewBox="0 0 6.3499999 6.3500002"
   version="1.1"
   id="svg5013"
   sodipodi:docname="disk-burner.svg"
   inkscape:version="1.1.2 (0a00cf5339, 2022-02-04)"
   xmlns:inkscape="http://www.inkscape.org/namespaces/inkscape"
   xmlns:sodipodi="http://sodipodi.sourceforge.net/DTD/sodipodi-0.dtd"
   xmlns:xlink="http://www.w3.org/1999/xlink"
   xmlns="http://www.w3.org/2000/svg"
   xmlns:svg="http://www.w3.org/2000/svg">
  <sodipodi:namedview
     id="namedview5015"
     pagecolor="#ffffff"
     bordercolor="#666666"
     borderopacity="1.0"
     inkscape:pageshadow="2"
     inkscape:pageopacity="0.0"
     inkscape:pagecheckerboard="0"
     inkscape:document-units="px"
     showgrid="false"
     units="px"
     showguides="true"
     inkscape:zoom="13.333698"
     inkscape:cx="-6.1498316"
     inkscape:cy="10.687207"
     inkscape:window-width="1851"
     inkscape:window-height="1049"
     inkscape:window-x="0"
     inkscape:window-y="0"
     inkscape:window-maximized="1"
     inkscape:current-layer="svg5013" />
  <defs
     id="defs5010">
    <linearGradient
       inkscape:collect="always"
       xlink:href="#linearGradient1871"
       id="linearGradient1873"
       x1="17.305155"
       y1="0.083426654"
       x2="17.305155"
       y2="47.797596"
       gradientUnits="userSpaceOnUse"
       gradientTransform="matrix(0.12026516,0,0,0.11615853,0.2886364,0.38726097)" />
    <linearGradient
       inkscape:collect="always"
       id="linearGradient1871">
      <stop
         style="stop-color:#ffffff;stop-opacity:1;"
         offset="0"
         id="stop1867" />
      <stop
         style="stop-color:#ffffff;stop-opacity:0.1"
         offset="0.12"
         id="stop2515" />
      <stop
         style="stop-color:#ffffff;stop-opacity:0.102"
         offset="0.89999998"
         id="stop2581" />
      <stop
         style="stop-color:#ffffff;stop-opacity:0.502"
         offset="1"
         id="stop1869" />
    </linearGradient>
    <linearGradient
       inkscape:collect="always"
       xlink:href="#linearGradient2221"
       id="linearGradient1241"
       x1="3.7320032"
       y1="3.4674196"
       x2="8.9689608"
       y2="8.7034121"
       gradientUnits="userSpaceOnUse"
       gradientTransform="matrix(1.1383929,0,0,1.1383929,-0.87879501,-0.57759534)" />
    <linearGradient
       inkscape:collect="always"
       id="linearGradient2221">
      <stop
         style="stop-color:#cdcdcd;stop-opacity:1"
         offset="0"
         id="stop2217" />
      <stop
         style="stop-color:#d9d9d9;stop-opacity:1"
         offset="1"
         id="stop2219" />
    </linearGradient>
    <linearGradient
       inkscape:collect="always"
       xlink:href="#linearGradient1871"
       id="linearGradient2256"
       gradientUnits="userSpaceOnUse"
       gradientTransform="matrix(1.948819,0,0,1.948819,-8.8068184,1.4133516)"
       x1="10.676629"
       y1="1.8404214"
       x2="10.676629"
       y2="9.0242605" />
  </defs>
  <path
     d="M 1.5275552,0.52916667 C 0.28821992,0.53848667 1.6249999e-8,0.84697669 1.6249999e-8,2.1166667 V 4.7625 C 1.6249999e-8,6.052344 0.29765622,6.35 1.5875,6.35 h 3.175 C 6.0523438,6.35 6.35,6.052344 6.35,4.7625 V 2.1166667 C 6.35,0.82682299 6.0523438,0.52916667 4.7625,0.52916667 h -3.175 c -0.020153,0 -0.040273,-1.48e-4 -0.059945,0 z"
     style="opacity:0.1;fill:#000000;stroke-width:0.264583;stroke-linecap:round;stroke-linejoin:round"
     id="path9125"
     sodipodi:nodetypes="cssssssssc" />
  <path
     id="rect16934"
     style="fill:#4d4d4d;fill-opacity:1;stroke-width:0.175781;stroke-linecap:round;stroke-linejoin:round"
     d="m 5.7929687,1.4999999 c -4.2937607,0.032301 -5.29296876,1.1010741 -5.29296876,5.5 V 17 c 0,4.398925 0.99920766,5.467685 5.29296876,5.5 H 5.9999999 18 c 4.46875,0 5.5,-1.031251 5.5,-5.5 V 6.9999999 c 0,-4.46875 -1.03125,-5.5 -5.5,-5.5 H 5.9999999 c -0.069823,0 -0.138875,-5.129e-4 -0.2070312,0 z"
     sodipodi:nodetypes="cssccsssssc"
     transform="scale(0.26458334)" />
  <g
     id="g2695"
     transform="matrix(0.47058824,0,0,0.47058824,0.18676472,0.18676472)">
    <circle
       style="opacity:1;fill:url(#linearGradient1241);fill-opacity:1;stroke-width:0.301199;stroke-linejoin:round"
       id="path985"
       cx="6.3499999"
       cy="6.3499999"
       r="4.2167969" />
    <path
       d="m 6.3500002,2.1332031 c -2.3288728,0 -4.2167971,1.8879243 -4.2167971,4.2167969 h 4.2167971 z m 0,4.2167969 v 4.216798 c 2.3288729,0 4.2167968,-1.887925 4.2167968,-4.216798 z"
       style="opacity:0.2;fill:#ffffff;stroke-width:0.562239;enable-background:new"
       id="path1693" />
    <path
       d="m 8.7353796,4.0924024 c -1.3174074,-1.3174117 -3.4533511,-1.3174117 -4.7707585,0 L 6.35,6.4777812 Z M 6.35,6.4777812 3.9646211,8.8631609 c 1.3174074,1.3174101 3.4533511,1.3174101 4.7707585,0 z"
       style="opacity:0.02;stroke-width:0.518989;enable-background:new"
       id="path2016" />
    <path
       id="path1117-3"
       style="fill:#faf8f6;stroke-width:0.562239;enable-background:new"
       d="M 3.3696912,3.3696911 C 3.1087795,3.6298302 2.8834456,3.9228068 2.6987371,4.2416016 L 6.3500002,6.35 Z M 6.3500002,6.35 9.3314071,9.3303084 C 9.5923187,9.0701697 9.8176525,8.7771931 10.002361,8.4583987 Z" />
    <path
       id="path1307"
       style="opacity:0.4;fill:#000000;fill-opacity:1;stroke-width:0.5;stroke-linejoin:round"
       d="m 12,4 c -4.4182781,0 -8,3.5817219 -8,8 0,4.418278 3.5817219,8 8,8 4.418278,0 8,-3.581722 8,-8 0,-4.4182781 -3.581722,-8 -8,-8 z m 0,1 c 3.865993,0 7,3.1340068 7,7 0,3.865993 -3.134007,7 -7,7 C 8.1340068,19 5,15.865993 5,12 5,8.1340068 8.1340068,5 12,5 Z"
       transform="matrix(0.56223958,0,0,0.56223958,-0.39687503,-0.39687503)" />
    <circle
       style="opacity:1;fill:#aea795;fill-opacity:1;stroke-width:0.374825;stroke-linejoin:round"
       id="path7417"
       cx="6.3499999"
       cy="6.3499999"
       r="1.6867187" />
    <circle
       style="opacity:1;fill:#faf8f6;fill-opacity:1;stroke-width:0.374826;stroke-linejoin:round"
       id="path7675"
       cx="6.3499999"
       cy="6.3499999"
       r="1.1244792" />
    <circle
       style="opacity:1;fill:#4d4d4d;fill-opacity:1;stroke-width:0.562239;stroke-linejoin:round"
       id="path7828"
       cx="6.3499999"
       cy="6.3499999"
       r="0.56223959" />
    <path
       id="path2161"
       style="fill:url(#linearGradient2256);fill-opacity:1;stroke-width:0.515624;stroke-linejoin:round"
       d="m 12,5 c -3.8659932,-4e-7 -7,3.1340063 -7,7 0,3.865993 3.1340068,7 7,7 3.865993,0 7,-3.134007 7,-7 0,-3.8659932 -3.134007,-7.0000002 -7,-7 z m 0,1 c 3.313708,-2e-7 6,2.6862916 6,6 0,3.313708 -2.686292,6 -6,6 C 8.6862916,18 6,15.313708 6,12 6,8.6862911 8.6862916,5.9999996 12,6 Z"
       transform="matrix(0.56223958,0,0,0.56223958,-0.39687503,-0.39687503)" />
  </g>
  <path
     d="m 3.3990062,1.5875 c 0,0 0.00215,0.074046 -0.00982,0.1079937 -0.00565,0.016068 -0.022268,0.026485 -0.028419,0.042371 -0.0097,0.025051 -0.01492,0.052885 -0.011883,0.079575 0.00172,0.015222 0.011381,0.028657 0.017051,0.042886 0.00456,0.011456 0.00892,0.023741 0.013435,0.034102 l 0.0093,0.022736 0.02015,-0.07079 c 0.0031,-0.010558 0.00582,-0.02105 0.00878,-0.032036 0,0 0.024123,-0.060163 0.026352,-0.091975 0.00193,-0.027549 -0.00184,-0.056237 -0.011367,-0.082156 -0.00718,-0.019523 -0.033587,-0.052706 -0.033587,-0.052706 z M 3.2129887,1.926982 c -0.033573,0.023042 -0.064402,0.047219 -0.093525,0.072341 h -5.298e-4 v 5.128e-4 c 0,0 -0.079629,0.073876 -0.1126438,0.1167777 -0.047674,0.061942 -0.088668,0.1295157 -0.121428,0.2004838 -0.032486,0.070381 -0.056636,0.1449462 -0.073373,0.2206375 -0.017537,0.079311 -0.027339,0.1611121 -0.027902,0.2423394 -8.223e-4,0.1190198 0.00936,0.2423011 0.035654,0.3549835 v 0.00154 h 5.298e-4 c 0.025164,0.107266 0.029565,0.1582781 0.077506,0.2438967 0.5437528,-0.095307 0.9044063,0.3249648 0.7828234,0.778697 -0.064134,0.2393453 -0.261729,0.3546375 -0.4510939,0.3978712 -0.2668775,0.046405 -0.4919928,-0.098036 -0.5461682,-0.3002114 -0.010577,-0.066673 0.0058,-0.15617 0.04392,-0.1787837 -0.022017,0.00768 -0.048505,0.016747 -0.080607,0.047022 -0.054066,0.05097 -0.055402,0.068569 -0.1260786,0.088359 0.034588,-0.097475 -0.1552027,-0.176382 -0.1209115,-0.3854707 7.913e-4,-0.00484 -0.00901,0.04011 -0.00827,0.035138 C 2.3072428,4.3251302 2.7809494,4.8450167 3.3059939,4.7043271 3.6617507,4.6155278 3.8735044,4.354333 3.9436237,4.0594659 3.9841154,3.8892019 3.9716191,3.7133623 3.9348403,3.5660028 3.9048802,3.44598 3.8439795,3.3195475 3.7519227,3.2032692 3.722429,3.1660143 3.6913077,3.1321589 3.6599474,3.1004429 l -5.298e-4,-0.00103 -0.00258,-0.00258 C 3.586245,3.0259126 3.5130523,2.967281 3.4429269,2.9118417 c 0,0 -0.1418722,-0.1157078 -0.2077196,-0.1793002 -0.00404,-0.00392 -0.00826,-0.00809 -0.011884,-0.012402 -0.022942,-0.027343 -0.044856,-0.056029 -0.064589,-0.085775 -0.0054,-0.00815 -0.010392,-0.016416 -0.014469,-0.025319 -0.020858,-0.045537 -0.039019,-0.092626 -0.049604,-0.14158 -0.013808,-0.063847 -0.019373,-0.1300171 -0.017569,-0.1953184 0.00152,-0.055611 0.00928,-0.1117728 0.024287,-0.165349 0.027166,-0.063604 0.071112,-0.1223839 0.1116094,-0.1798161 z m 0.1575981,0.2356224 c -0.017864,0.028576 -0.031351,0.061066 -0.047022,0.091458 -0.01391,0.026979 -0.030275,0.052553 -0.041854,0.080608 -0.02533,0.061378 -0.039866,0.1268556 -0.05994,0.1901512 -0.0024,0.0076 -0.00819,0.01482 -0.00723,0.022735 0.00724,0.059884 0.057274,0.1066836 0.094042,0.154498 0.014137,0.018385 0.048055,0.050121 0.048055,0.050121 0.00573,0.00635 0.011819,0.012466 0.018085,0.018601 0,0 -0.011911,-0.072136 -0.017051,-0.1085102 -4.493e-4,-0.0032 -7.927e-4,-0.00658 -0.00102,-0.00982 -0.00895,-0.1290714 -0.01541,-0.2591181 -0.00465,-0.3880531 0.00286,-0.034298 0.018602,-0.1017931 0.018602,-0.1017931 z M 2.4425657,3.1903515 c 0,0 0.021458,0.142576 0.0062,0.2113365 -0.00722,0.032539 -0.036721,0.057092 -0.044954,0.089392 -0.012984,0.050938 -0.017318,0.1064554 -0.00517,0.1575983 0.00693,0.029168 0.029497,0.0525 0.043404,0.079057 0.00325,0.0062 0.00612,0.012524 0.0093,0.0186 0.017209,-0.077104 0.073335,-0.1397547 0.095593,-0.2149535 0.00861,-0.029077 0.015987,-0.059616 0.014469,-0.089909 -0.0027,-0.053975 -0.016744,-0.1084406 -0.041332,-0.1565636 -0.018514,-0.036235 -0.077508,-0.094559 -0.077508,-0.094559 z M 3.0688249,3.463177 c -0.3021894,0 -0.5472017,0.2450124 -0.5472017,0.5472017 1.126e-4,0.028155 0.0028,0.056412 0.00723,0.084226 0.00618,0.0096 0.012418,0.019316 0.017569,0.029453 0.00458,0.00902 0.00678,0.019164 0.00982,0.029452 0.00167,-0.00122 0.00612,-0.0018 0.00774,-0.00309 0.011762,-0.00981 0.026701,-0.027291 0.055289,-0.054254 0.037122,-0.034995 0.071839,-0.051126 0.094559,-0.055806 0.050408,-0.01038 0.063745,-0.0011 0.1074768,0.0057 -0.035628,0.01477 -0.046456,0.031056 -0.07389,0.06614 -9.495e-4,0.00122 -0.015852,0.019252 -0.022218,0.047538 -0.00624,0.027735 -0.00715,0.06218 -0.00309,0.089391 C 2.77159,4.4279728 2.9739552,4.5604842 3.2222896,4.517304 3.2748056,4.505182 3.3266121,4.486897 3.3762719,4.462533 3.525993,4.3608282 3.6157844,4.1914052 3.6160277,4.010407 c 0,-0.3021893 -0.2450119,-0.5472015 -0.5472015,-0.5472015 z"
     style="fill:#4d4d4d;stroke-width:0.999963"
     id="path2378" />
  <path
     id="rect5096"
     style="opacity:0.4;stroke-width:0.240954;stroke-linecap:round;stroke-linejoin:round"
     d="M 1.5275554,0.26464907 C 0.2882199,0.27396907 0,0.58245917 0,1.8521492 v 2.6458333 c 0,1.2898438 0.2976563,1.5875001 1.5875001,1.5875001 h 3.1749977 c 1.2898438,0 1.5874999,-0.2976563 1.5874999,-1.5875001 V 1.8521492 c 0,-1.28984383 -0.2976561,-1.58750013 -1.5874999,-1.58750013 H 1.5875001 c -0.020154,0 -0.040273,-1.479e-4 -0.059945,0 z m 0.032556,0.2645834 c 0.018033,-1.357e-4 0.036303,0 0.054777,0 h 3.1476092 c 1.1823568,0 1.3229167,0.29316 1.3229167,1.32291673 v 2.6458333 c 0,1.0162919 -0.1405599,1.3229167 -1.3229167,1.3229167 H 1.5875001 c -0.991937,0 -1.3229168,-0.1405599 -1.3229168,-1.3229167 V 1.8521492 c 0,-0.96076803 0.1594707,-1.31437033 1.2955281,-1.32291673 z"
     sodipodi:nodetypes="csssssssscssssssssss" />
  <path
     id="rect1565"
     style="fill:url(#linearGradient1873);fill-opacity:1;stroke-width:0.118194;opacity:1"
     d="M 1.5601116,0.52923247 C 0.424054,0.53778247 0.2645833,0.89138117 0.2645833,1.8521491 v 2.6458334 c 0,1.1823568 0.3309798,1.3229167 1.3229168,1.3229167 h 3.1749977 c 1.1823568,0 1.3229167,-0.3066248 1.3229167,-1.3229167 V 1.8521491 c 0,-1.02975653 -0.1405599,-1.32291663 -1.3229167,-1.32291663 H 1.6148886 c -0.018473,0 -0.036744,-1.356e-4 -0.054777,0 z m 0.00259,0.2645834 h 0.049609 3.0179002 c 1.0641211,0 1.190625,0.1430056 1.190625,1.05833323 v 2.6458334 c 0,0.8938382 -0.1265039,1.0583334 -1.190625,1.0583334 H 1.7197917 c -1.0229021,0 -1.190625,-0.1576914 -1.190625,-1.0583334 V 1.8521491 c 0,-0.85400513 0.1411647,-1.05833323 1.0335287,-1.05833323 z"
     sodipodi:nodetypes="csssssssscsssssssssss" />
</svg>
