<?xml version="1.0" encoding="UTF-8" standalone="no"?>
<!-- Created with Inkscape (http://www.inkscape.org/) -->

<svg
   width="24"
   height="24"
   viewBox="0 0 6.3499999 6.3500002"
   version="1.1"
   id="svg5013"
   sodipodi:docname="firefox.svg"
   inkscape:version="1.1.2 (0a00cf5339, 2022-02-04)"
   xmlns:inkscape="http://www.inkscape.org/namespaces/inkscape"
   xmlns:sodipodi="http://sodipodi.sourceforge.net/DTD/sodipodi-0.dtd"
   xmlns:xlink="http://www.w3.org/1999/xlink"
   xmlns="http://www.w3.org/2000/svg"
   xmlns:svg="http://www.w3.org/2000/svg">
  <sodipodi:namedview
     id="namedview5015"
     pagecolor="#ffffff"
     bordercolor="#666666"
     borderopacity="1.0"
     inkscape:pageshadow="2"
     inkscape:pageopacity="0.0"
     inkscape:pagecheckerboard="0"
     inkscape:document-units="px"
     showgrid="false"
     units="px"
     showguides="true"
     inkscape:zoom="17.217113"
     inkscape:cx="2.6136786"
     inkscape:cy="18.266709"
     inkscape:window-width="1851"
     inkscape:window-height="1016"
     inkscape:window-x="0"
     inkscape:window-y="0"
     inkscape:window-maximized="1"
     inkscape:current-layer="svg5013" />
  <defs
     id="defs5010">
    <linearGradient
       inkscape:collect="always"
       xlink:href="#linearGradient1871"
       id="linearGradient1873"
       x1="11.046622"
       y1="2.3372049"
       x2="10.794909"
       y2="47.930588"
       gradientUnits="userSpaceOnUse"
       gradientTransform="matrix(0.12026516,0,0,0.11615853,0.28863637,0.25496375)" />
    <linearGradient
       inkscape:collect="always"
       id="linearGradient1871">
      <stop
         style="stop-color:#ffffff;stop-opacity:1;"
         offset="0"
         id="stop1867" />
      <stop
         style="stop-color:#ffffff;stop-opacity:0.1"
         offset="0.12"
         id="stop2515" />
      <stop
         style="stop-color:#ffffff;stop-opacity:0.102"
         offset="0.89999998"
         id="stop2581" />
      <stop
         style="stop-color:#ffffff;stop-opacity:0.502"
         offset="1"
         id="stop1869" />
    </linearGradient>
    <linearGradient
       gradientTransform="matrix(0.06151595,0,0,0.06151595,0.71379693,0.7934995)"
       gradientUnits="userSpaceOnUse"
       y2="74.468002"
       x2="6.447"
       y1="12.393"
       x1="70.786003"
       id="a">
      <stop
         id="stop834"
         stop-color="#fff44f"
         offset=".048" />
      <stop
         id="stop836"
         stop-color="#ffe847"
         offset=".111" />
      <stop
         id="stop838"
         stop-color="#ffc830"
         offset=".225" />
      <stop
         id="stop840"
         stop-color="#ff980e"
         offset=".368" />
      <stop
         id="stop842"
         stop-color="#ff8b16"
         offset=".401" />
      <stop
         id="stop844"
         stop-color="#ff672a"
         offset=".462" />
      <stop
         id="stop846"
         stop-color="#ff3647"
         offset=".534" />
      <stop
         id="stop848"
         stop-color="#e31587"
         offset=".705" />
    </linearGradient>
    <radialGradient
       gradientUnits="userSpaceOnUse"
       gradientTransform="matrix(0.06151595,0,0,0.06151595,491.30352,525.15548)"
       r="80.796997"
       cy="-8515.1211"
       cx="-7907.187"
       id="b">
      <stop
         id="stop851"
         stop-color="#ffbd4f"
         offset=".129" />
      <stop
         id="stop853"
         stop-color="#ffac31"
         offset=".186" />
      <stop
         id="stop855"
         stop-color="#ff9d17"
         offset=".247" />
      <stop
         id="stop857"
         stop-color="#ff980e"
         offset=".283" />
      <stop
         id="stop859"
         stop-color="#ff563b"
         offset=".403" />
      <stop
         id="stop861"
         stop-color="#ff3750"
         offset=".467" />
      <stop
         id="stop863"
         stop-color="#f5156c"
         offset=".71" />
      <stop
         id="stop865"
         stop-color="#eb0878"
         offset=".782" />
      <stop
         id="stop867"
         stop-color="#e50080"
         offset=".86" />
    </radialGradient>
    <radialGradient
       gradientUnits="userSpaceOnUse"
       gradientTransform="matrix(0.06151595,0,0,0.06151595,491.30352,525.15548)"
       r="80.796997"
       cy="-8482.0889"
       cx="-7936.7109"
       id="c">
      <stop
         id="stop870"
         stop-color="#960e18"
         offset=".3" />
      <stop
         id="stop872"
         stop-opacity=".74"
         stop-color="#b11927"
         offset=".351" />
      <stop
         id="stop874"
         stop-opacity=".343"
         stop-color="#db293d"
         offset=".435" />
      <stop
         id="stop876"
         stop-opacity=".094"
         stop-color="#f5334b"
         offset=".497" />
      <stop
         id="stop878"
         stop-opacity="0"
         stop-color="#ff3750"
         offset=".53" />
    </radialGradient>
    <radialGradient
       gradientUnits="userSpaceOnUse"
       gradientTransform="matrix(0.06151595,0,0,0.06151595,491.30352,525.15548)"
       r="58.534"
       cy="-8533.457"
       cx="-7926.9702"
       id="d">
      <stop
         id="stop881"
         stop-color="#fff44f"
         offset=".132" />
      <stop
         id="stop883"
         stop-color="#ffdc3e"
         offset=".252" />
      <stop
         id="stop885"
         stop-color="#ff9d12"
         offset=".506" />
      <stop
         id="stop887"
         stop-color="#ff980e"
         offset=".526" />
    </radialGradient>
    <radialGradient
       gradientUnits="userSpaceOnUse"
       gradientTransform="matrix(0.06151595,0,0,0.06151595,491.30352,525.15548)"
       r="38.471001"
       cy="-8460.9844"
       cx="-7945.6479"
       id="e">
      <stop
         id="stop890"
         stop-color="#3a8ee6"
         offset=".353" />
      <stop
         id="stop892"
         stop-color="#5c79f0"
         offset=".472" />
      <stop
         id="stop894"
         stop-color="#9059ff"
         offset=".669" />
      <stop
         id="stop896"
         stop-color="#c139e6"
         offset="1" />
    </radialGradient>
    <radialGradient
       gradientUnits="userSpaceOnUse"
       gradientTransform="matrix(0.0597935,-0.01445625,0.01691689,0.07000515,621.4898,482.69701)"
       r="20.396999"
       cy="-8491.5459"
       cx="-7935.6201"
       id="f">
      <stop
         id="stop899"
         stop-opacity="0"
         stop-color="#9059ff"
         offset=".206" />
      <stop
         id="stop901"
         stop-opacity=".064"
         stop-color="#8c4ff3"
         offset=".278" />
      <stop
         id="stop903"
         stop-opacity=".45"
         stop-color="#7716a8"
         offset=".747" />
      <stop
         id="stop905"
         stop-opacity=".6"
         stop-color="#6e008b"
         offset=".975" />
    </radialGradient>
    <radialGradient
       gradientUnits="userSpaceOnUse"
       gradientTransform="matrix(0.06151595,0,0,0.06151595,491.30352,525.15548)"
       r="27.676001"
       cy="-8518.4268"
       cx="-7937.731"
       id="g">
      <stop
         id="stop908"
         stop-color="#ffe226"
         offset="0" />
      <stop
         id="stop910"
         stop-color="#ffdb27"
         offset=".121" />
      <stop
         id="stop912"
         stop-color="#ffc82a"
         offset=".295" />
      <stop
         id="stop914"
         stop-color="#ffa930"
         offset=".502" />
      <stop
         id="stop916"
         stop-color="#ff7e37"
         offset=".732" />
      <stop
         id="stop918"
         stop-color="#ff7139"
         offset=".792" />
    </radialGradient>
    <radialGradient
       gradientUnits="userSpaceOnUse"
       gradientTransform="matrix(0.06151595,0,0,0.06151595,491.30352,525.15548)"
       r="118.081"
       cy="-8535.9814"
       cx="-7915.9771"
       id="h">
      <stop
         id="stop921"
         stop-color="#fff44f"
         offset=".113" />
      <stop
         id="stop923"
         stop-color="#ff980e"
         offset=".456" />
      <stop
         id="stop925"
         stop-color="#ff5634"
         offset=".622" />
      <stop
         id="stop927"
         stop-color="#ff3647"
         offset=".716" />
      <stop
         id="stop929"
         stop-color="#e31587"
         offset=".904" />
    </radialGradient>
    <radialGradient
       gradientUnits="userSpaceOnUse"
       gradientTransform="matrix(0.00645917,0.06120837,-0.04016992,0.0042446,-287.42716,521.84533)"
       r="86.499001"
       cy="-8522.8594"
       cx="-7927.165"
       id="i">
      <stop
         id="stop932"
         stop-color="#fff44f"
         offset="0" />
      <stop
         id="stop934"
         stop-color="#ffe847"
         offset=".06" />
      <stop
         id="stop936"
         stop-color="#ffc830"
         offset=".168" />
      <stop
         id="stop938"
         stop-color="#ff980e"
         offset=".304" />
      <stop
         id="stop940"
         stop-color="#ff8b16"
         offset=".356" />
      <stop
         id="stop942"
         stop-color="#ff672a"
         offset=".455" />
      <stop
         id="stop944"
         stop-color="#ff3647"
         offset=".57" />
      <stop
         id="stop946"
         stop-color="#e31587"
         offset=".737" />
    </radialGradient>
    <radialGradient
       gradientUnits="userSpaceOnUse"
       gradientTransform="matrix(0.06151595,0,0,0.06151595,491.30352,525.15548)"
       r="73.720001"
       cy="-8508.1758"
       cx="-7938.3828"
       id="j">
      <stop
         id="stop949"
         stop-color="#fff44f"
         offset=".137" />
      <stop
         id="stop951"
         stop-color="#ff980e"
         offset=".48" />
      <stop
         id="stop953"
         stop-color="#ff5634"
         offset=".592" />
      <stop
         id="stop955"
         stop-color="#ff3647"
         offset=".655" />
      <stop
         id="stop957"
         stop-color="#e31587"
         offset=".904" />
    </radialGradient>
    <radialGradient
       gradientUnits="userSpaceOnUse"
       gradientTransform="matrix(0.06151595,0,0,0.06151595,491.30352,525.15548)"
       r="80.685997"
       cy="-8503.8613"
       cx="-7918.9229"
       id="k">
      <stop
         id="stop960"
         stop-color="#fff44f"
         offset=".094" />
      <stop
         id="stop962"
         stop-color="#ffe141"
         offset=".231" />
      <stop
         id="stop964"
         stop-color="#ffaf1e"
         offset=".509" />
      <stop
         id="stop966"
         stop-color="#ff980e"
         offset=".626" />
    </radialGradient>
    <linearGradient
       gradientTransform="matrix(0.06151595,0,0,0.06151595,0.71379693,0.7934995)"
       gradientUnits="userSpaceOnUse"
       y2="66.806"
       x2="15.267"
       y1="12.061"
       x1="70.013"
       id="l">
      <stop
         id="stop969"
         stop-opacity=".8"
         stop-color="#fff44f"
         offset=".167" />
      <stop
         id="stop971"
         stop-opacity=".634"
         stop-color="#fff44f"
         offset=".266" />
      <stop
         id="stop973"
         stop-opacity=".217"
         stop-color="#fff44f"
         offset=".489" />
      <stop
         id="stop975"
         stop-opacity="0"
         stop-color="#fff44f"
         offset=".6" />
    </linearGradient>
  </defs>
  <path
     d="M 1.5275554,0.79381578 C 0.28822009,0.80313578 1.9010417e-7,1.1116258 1.9010417e-7,2.3813158 v 2.381217 c 0,1.289844 0.29765619989583,1.5875 1.58750000989583,1.5875 h 3.1749977 c 1.2898438,0 1.5875,-0.297656 1.5875,-1.5875 v -2.381217 c 0,-1.2898437 -0.2976562,-1.58750002 -1.5875,-1.58750002 H 1.5875002 c -0.020153,0 -0.040273,-1.48e-4 -0.059945,0 z"
     style="opacity:0.1;fill:#000000;stroke-width:0.264583;stroke-linecap:round;stroke-linejoin:round"
     id="path9125"
     sodipodi:nodetypes="cssssssssc" />
  <path
     id="rect7669"
     style="fill:#808080;stroke-width:0.264583;stroke-linecap:round;stroke-linejoin:round"
     d="M 1.7973064,0.66145835 C 0.66124888,0.67000474 0.39687501,0.95278432 0.39687501,2.1166667 v 2.1166667 c 0,1.1638823 0.26437379,1.4466584 1.40043139,1.4552084 h 0.054777 2.6458334 c 1.1823568,0 1.4552083,-0.2728518 1.4552083,-1.4552084 V 2.1166667 c 0,-1.1823567 -0.2728515,-1.45520835 -1.4552083,-1.45520835 H 1.8520834 c -0.018474,0 -0.036744,-1.3565e-4 -0.054777,0 z" />
  <path
     id="rect6397"
     style="fill:#3b005e;fill-opacity:1;stroke-width:0.182227;stroke-linejoin:round"
     d="M 1.532723,0.39693532 C 0.39666551,0.40548163 0.13229168,0.68826121 0.13229168,1.8521437 v 2.6458334 c 0,1.1638823 0.26437373,1.4466584 1.40043132,1.4552084 H 1.5875 4.7624975 c 1.1823568,0 1.4552083,-0.2728518 1.4552083,-1.4552084 V 1.8521437 c 0,-1.18235679 -0.2728515,-1.45520838 -1.4552083,-1.45520838 H 1.5875 c -0.018474,0 -0.036744,-1.3571e-4 -0.054777,0 z"
     sodipodi:nodetypes="cssccsssssc" />
  <path
     style="fill:url(#a);stroke-width:0.0615163"
     id="path980"
     d="M 5.3838417,2.4440339 C 5.2802488,2.1947713 5.0701101,1.9256389 4.9055549,1.8405624 a 2.4770013,2.4770013 0 0 1 0.2414502,0.7236737 l 4.225e-4,0.004 C 4.8778614,1.8961733 4.4207365,1.6251954 4.0473963,1.0351345 4.0285107,1.0052993 4.0096254,0.9754026 3.9912321,0.94384486 c -0.01052,-0.018024 -0.018947,-0.0342644 -0.026267,-0.0492126 a 0.43387198,0.43387198 0 0 1 -0.035556,-0.094427 0.00615159,0.00615159 0 0 0 -0.00541,-0.006153 0.0084892,0.0084892 0 0 0 -0.00449,0 c -3.018e-4,0 -7.817e-4,5.4933e-4 -0.00118,6.93e-4 -3.801e-4,1.2297e-4 -0.00118,6.93e-4 -0.00172,9.3809e-4 l 9.381e-4,-0.001597 C 3.3186837,1.1447284 3.1154963,1.7938448 3.0967955,2.118526 A 1.1926097,1.1926097 0 0 0 2.4406665,2.371418 0.71278527,0.71278527 0 0 0 2.3791505,2.3247891 1.1053185,1.1053185 0 0 1 2.3724434,1.7420484 1.7658153,1.7658153 0 0 0 1.7985615,2.1855783 h -0.00109 C 1.7029794,2.0658012 1.7096232,1.6708689 1.7150367,1.5883759 a 0.42618248,0.42618248 0 0 0 -0.079602,0.042261 1.7362876,1.7362876 0 0 0 -0.2330222,0.1996192 2.0820074,2.0820074 0 0 0 -0.2228724,0.26741 v 3.801e-4 -4.479e-4 A 2.0136016,2.0136016 0 0 0 0.85965196,2.8199714 l -0.003199,0.015749 c -0.004491,0.020977 -0.0206692,0.1260461 -0.0234379,0.1488685 0,0.00178 -3.8013e-4,0.00344 -5.5778e-4,0.00523 a 2.2722146,2.2722146 0 0 0 -0.0386936,0.3286799 v 0.012303 A 2.3842966,2.3842966 0 0 0 5.5276614,3.7339765 c 0.00401,-0.030758 0.00726,-0.061208 0.010826,-0.092274 A 2.4518412,2.4518412 0 0 0 5.3838417,2.4440343 Z M 2.6359242,4.3103046 c 0.011137,0.00535 0.021592,0.011136 0.033034,0.016241 l 0.00165,0.00105 q -0.017349,-0.00831 -0.034697,-0.017288 z M 3.1820629,2.872308 Z M 5.1476203,2.5687883 v -0.00228 l 4.226e-4,0.00252 z" />
  <path
     style="fill:url(#b);stroke-width:0.0615163"
     id="path982"
     d="M 5.3838417,2.4440339 C 5.2802488,2.1947713 5.0701101,1.9256389 4.9055549,1.8405624 a 2.4770013,2.4770013 0 0 1 0.2414502,0.7236737 v 0.00227 l 4.225e-4,0.00252 A 2.1592096,2.1592096 0 0 1 5.0732455,4.1781696 C 4.8000004,4.7644781 4.1385809,5.3654273 3.1032675,5.3362071 1.9846,5.3045263 0.99942221,4.4744301 0.81524324,3.3871975 c -0.0335261,-0.1714451 0,-0.2583669 0.0168556,-0.3977006 A 1.7763344,1.7763344 0 0 0 0.79377452,3.3184843 V 3.330788 A 2.3842966,2.3842966 0 0 0 5.5276724,3.7339632 c 0.00401,-0.030758 0.00726,-0.061208 0.010826,-0.092274 A 2.4518412,2.4518412 0 0 0 5.3838489,2.4440352 Z" />
  <path
     style="fill:url(#c);stroke-width:0.0615163"
     id="path984"
     d="M 5.3838417,2.4440339 C 5.2802488,2.1947713 5.0701101,1.9256389 4.9055549,1.8405624 a 2.4770013,2.4770013 0 0 1 0.2414502,0.7236737 v 0.00227 l 4.225e-4,0.00252 A 2.1592096,2.1592096 0 0 1 5.0732455,4.1781696 C 4.8000004,4.7644781 4.1385809,5.3654273 3.1032675,5.3362071 1.9846,5.3045263 0.99942221,4.4744301 0.81524324,3.3871975 c -0.0335261,-0.1714451 0,-0.2583669 0.0168556,-0.3977006 A 1.7763344,1.7763344 0 0 0 0.79377452,3.3184843 V 3.330788 A 2.3842966,2.3842966 0 0 0 5.5276724,3.7339632 c 0.00401,-0.030758 0.00726,-0.061208 0.010826,-0.092274 A 2.4518412,2.4518412 0 0 0 5.3838489,2.4440352 Z" />
  <path
     style="fill:url(#d);stroke-width:0.0615163"
     id="path986"
     d="m 4.2252502,2.7243005 c 0.00517,0.00363 0.00996,0.00726 0.014824,0.010891 A 1.2979865,1.2979865 0 0 0 4.0186174,2.4463729 C 3.2775963,1.7052273 3.8244115,0.8393904 3.9166241,0.7954064 l 9.381e-4,-0.001352 C 3.3187045,1.144695 3.1155171,1.7938112 3.0968163,2.1184926 c 0.027805,-0.00191 0.055364,-0.00425 0.083785,-0.00425 a 1.2032519,1.2032519 0 0 1 1.0446646,0.6100532 z" />
  <path
     style="fill:url(#e);stroke-width:0.0615163"
     id="path988"
     d="m 3.1821244,2.872308 c -0.00394,0.059301 -0.2134605,0.2638418 -0.286726,0.2638418 -0.6779673,0 -0.7880192,0.4101269 -0.7880192,0.4101269 0.03002,0.3453505 0.27067,0.6298002 0.561579,0.7802682 0.013288,0.00689 0.02676,0.013103 0.040231,0.019193 q 0.035003,0.015503 0.070005,0.028666 a 1.0602273,1.0602273 0 0 0 0.3102252,0.059856 C 4.2777234,4.4899927 4.5079159,3.0132411 3.6503835,2.584721 A 0.82308339,0.82308339 0 0 1 4.2252502,2.7243005 1.2032519,1.2032519 0 0 0 3.1805863,2.1142469 c -0.028297,0 -0.055979,0.00234 -0.083785,0.00425 A 1.1926097,1.1926097 0 0 0 2.4406727,2.371384 c 0.036356,0.030758 0.077387,0.071851 0.1638169,0.1570501 0.1617869,0.1593881 0.5767119,0.324497 0.5776348,0.3438739 z" />
  <path
     style="fill:url(#f);stroke-width:0.0615163"
     id="path990"
     d="m 3.1821244,2.872308 c -0.00394,0.059301 -0.2134605,0.2638418 -0.286726,0.2638418 -0.6779673,0 -0.7880192,0.4101269 -0.7880192,0.4101269 0.03002,0.3453505 0.27067,0.6298002 0.561579,0.7802682 0.013288,0.00689 0.02676,0.013103 0.040231,0.019193 q 0.035003,0.015503 0.070005,0.028666 a 1.0602273,1.0602273 0 0 0 0.3102252,0.059856 C 4.2777234,4.4899927 4.5079159,3.0132411 3.6503835,2.584721 A 0.82308339,0.82308339 0 0 1 4.2252502,2.7243005 1.2032519,1.2032519 0 0 0 3.1805863,2.1142469 c -0.028297,0 -0.055979,0.00234 -0.083785,0.00425 A 1.1926097,1.1926097 0 0 0 2.4406727,2.371384 c 0.036356,0.030758 0.077387,0.071851 0.1638169,0.1570501 0.1617869,0.1593881 0.5767119,0.324497 0.5776348,0.3438739 z" />
  <path
     style="fill:url(#g);stroke-width:0.0615163"
     id="path992"
     d="m 2.3295132,2.2920895 c 0.019316,0.012303 0.035249,0.023007 0.049213,0.032665 A 1.1053185,1.1053185 0 0 1 2.3720199,1.7420139 1.7658153,1.7658153 0 0 0 1.7981378,2.185544 c 0.011628,-3.019e-4 0.3574692,-0.00652 0.5313754,0.1065455 z" />
  <path
     style="fill:url(#h);stroke-width:0.0615163"
     id="path994"
     d="M 0.81554419,3.3871964 C 0.99953837,4.4744292 1.984901,5.3045255 3.1035684,5.3362062 4.1388817,5.3654877 4.8003013,4.7644768 5.0735552,4.1781684 a 2.1592096,2.1592096 0 0 0 0.074188,-1.609134 v -0.00228 c 0,-0.00178 -3.803e-4,-0.00283 0,-0.00228 l 4.226e-4,0.004 c 0.084587,0.552233 -0.1962952,1.0872372 -0.6353961,1.4490125 l -0.00135,0.00308 C 3.6558557,4.7173552 2.8370785,4.4409642 2.6713546,4.3281439 q -0.017347,-0.0083 -0.034695,-0.017286 C 2.1378351,4.0724215 1.9317567,3.6179416 1.9759253,3.2281766 A 0.61226822,0.61226822 0 0 1 1.4111474,2.872922 0.89924013,0.89924013 0 0 1 2.2876878,2.8377349 1.1872578,1.1872578 0 0 0 3.182868,2.872922 C 3.1819289,2.8535444 2.7670203,2.6883742 2.6052331,2.529048 2.5188031,2.4438484 2.4777721,2.4028171 2.4414164,2.3719976 A 0.71278527,0.71278527 0 0 0 2.3798982,2.3253689 C 2.3657501,2.3157114 2.349817,2.3052534 2.3306853,2.2927042 2.1567799,2.1796377 1.8109374,2.1858508 1.7994954,2.1861583 H 1.798401 C 1.7039113,2.0663869 1.710555,1.6714545 1.7159685,1.5889614 A 0.42618248,0.42618248 0 0 0 1.6363668,1.631223 1.7362876,1.7362876 0 0 0 1.4033443,1.8308421 2.0820074,2.0820074 0 0 0 1.1795493,2.097637 v 3.577e-4 -4.479e-4 A 2.0136016,2.0136016 0 0 0 0.85966649,2.8199274 c -0.001179,0.00486 -0.0858763,0.3751857 -0.0441071,0.5672383 z" />
  <path
     style="fill:url(#i);stroke-width:0.0615163"
     id="path996"
     d="m 4.0187411,2.4463717 a 1.2979865,1.2979865 0 0 1 0.2214576,0.289125 c 0.013103,0.0099 0.025344,0.019746 0.035741,0.029281 0.5405405,0.4982791 0.257321,1.2026366 0.2362212,1.2527721 C 4.9512614,3.6557752 5.2318971,3.1207708 5.1475586,2.5685423 4.8778728,1.896173 4.4207479,1.6251951 4.0474077,1.0351341 4.0285221,1.0052989 4.0096368,0.97540205 3.9912435,0.94384443 3.980723,0.92582044 3.9722966,0.90958009 3.9649762,0.89463185 a 0.43387198,0.43387198 0 0 1 -0.035556,-0.0944271 0.00615159,0.00615159 0 0 0 -0.00541,-0.006153 0.0084892,0.0084892 0 0 0 -0.00449,0 c -3.019e-4,0 -8.029e-4,5.5778e-4 -0.00118,6.93e-4 -3.801e-4,1.2301e-4 -0.00118,6.9301e-4 -0.00172,9.3809e-4 C 3.824406,0.83942124 3.2775907,1.7052581 4.0187348,2.4464024 Z" />
  <path
     style="fill:url(#j);stroke-width:0.0615163"
     id="path998"
     d="m 4.2755702,2.7644705 c -0.010395,-0.00953 -0.022638,-0.019378 -0.035741,-0.029281 -0.00486,-0.00363 -0.00966,-0.00726 -0.014826,-0.010889 A 0.82308339,0.82308339 0 0 0 3.6501374,2.5847195 C 4.5076698,3.0134855 4.2776004,4.489991 3.0891736,4.4342577 A 1.0602273,1.0602273 0 0 1 2.7789488,4.374403 Q 2.743946,4.3612998 2.7089435,4.3457368 c -0.013472,-0.00615 -0.026944,-0.012304 -0.040231,-0.019193 l 0.00165,0.00104 C 2.8360958,4.4407116 3.654627,4.7171028 4.510437,4.0200041 l 0.00135,-0.00308 C 4.5331373,3.9671003 4.8163565,3.262558 4.2755702,2.7644636 Z" />
  <path
     style="fill:url(#k);stroke-width:0.0615163"
     id="path1000"
     d="m 2.1073792,3.5462767 c 0,0 0.1100519,-0.4101269 0.7880192,-0.4101269 0.073266,0 0.2829735,-0.2045405 0.286726,-0.2638418 A 1.1872578,1.1872578 0 0 1 2.2869441,2.8371209 0.89924013,0.89924013 0 0 0 1.4104036,2.872308 0.61226822,0.61226822 0 0 0 1.9751815,3.2275625 c -0.044169,0.3898267 0.1619097,0.8443065 0.6607427,1.0826807 0.011137,0.00535 0.021592,0.011135 0.033034,0.016241 C 2.3778032,4.1760771 2.137399,3.8916275 2.1073792,3.5462767 Z" />
  <path
     style="fill:url(#l);stroke-width:0.0615163"
     id="path1002"
     d="M 5.3838417,2.4440339 C 5.2802488,2.1947713 5.0701101,1.9256389 4.9055549,1.8405624 a 2.4770013,2.4770013 0 0 1 0.2414502,0.7236737 l 4.225e-4,0.004 C 4.8778614,1.8961733 4.4207365,1.6251954 4.0473963,1.0351345 4.0285107,1.0052993 4.0096254,0.9754026 3.9912321,0.94384486 c -0.01052,-0.018024 -0.018947,-0.0342644 -0.026267,-0.0492126 a 0.43387198,0.43387198 0 0 1 -0.035556,-0.094427 0.00615159,0.00615159 0 0 0 -0.00541,-0.006153 0.0084892,0.0084892 0 0 0 -0.00449,0 c -3.018e-4,0 -7.817e-4,5.4933e-4 -0.00118,6.93e-4 -3.801e-4,1.2297e-4 -0.00118,6.93e-4 -0.00172,9.3809e-4 l 9.381e-4,-0.001597 C 3.3186873,1.1447277 3.1154998,1.7938439 3.096799,2.118525 3.124604,2.116615 3.152164,2.114275 3.180584,2.114275 A 1.2032519,1.2032519 0 0 1 4.2252443,2.7243163 0.82308339,0.82308339 0 0 0 3.6503776,2.5847369 C 4.50791,3.0135029 4.2778403,4.4900086 3.0894137,4.4342752 A 1.0602273,1.0602273 0 0 1 2.7791883,4.3744211 q -0.035003,-0.013103 -0.070005,-0.028666 c -0.013472,-0.00615 -0.026944,-0.012304 -0.040232,-0.019193 l 0.00165,0.00105 q -0.017346,-0.0083 -0.034694,-0.017286 c 0.011137,0.00535 0.021592,0.011135 0.033034,0.016241 C 2.3777879,4.1760993 2.1373838,3.8916495 2.1073639,3.5462991 c 0,0 0.1100522,-0.4101268 0.7880194,-0.4101268 0.073265,0 0.2829733,-0.2045404 0.2867259,-0.263842 C 3.1811701,2.8529529 2.7662613,2.6877825 2.6044743,2.5284563 2.5180418,2.4432544 2.4770106,2.4022234 2.4406547,2.3714038 A 0.71278527,0.71278527 0 0 0 2.3791387,2.3247661 1.1053185,1.1053185 0 0 1 2.3724317,1.7420255 1.7658153,1.7658153 0 0 0 1.7985495,2.1855553 H 1.797455 C 1.7029659,2.0657872 1.7096097,1.6708548 1.7150231,1.5883619 A 0.42618248,0.42618248 0 0 0 1.6354216,1.6306233 1.7362876,1.7362876 0 0 0 1.402399,1.8302426 2.0820074,2.0820074 0 0 0 1.1795267,2.0976524 v 3.578e-4 -4.48e-4 A 2.0136016,2.0136016 0 0 0 0.85964401,2.8199449 l -0.003199,0.015748 c -0.00449,0.020977 -0.0246067,0.1275226 -0.0274978,0.1504066 0,0.00172 0,-0.00178 0,0 a 2.774,2.774 0 0 0 -0.0351974,0.3323769 v 0.012304 A 2.3842966,2.3842966 0 0 0 5.5276652,3.7339536 c 0.00401,-0.030758 0.00726,-0.061208 0.010826,-0.092274 A 2.4518412,2.4518412 0 0 0 5.3838417,2.4440339 Z m -0.236529,0.1224783 4.226e-4,0.00252 z" />
  <path
     id="rect5096"
     style="opacity:0.4;stroke-width:0.240954;stroke-linecap:round;stroke-linejoin:round"
     d="M 1.5275554,0.26458333 C 0.28821988,0.27390666 1.0104166e-8,0.58239335 1.0104166e-8,1.8520834 V 4.4978839 C 1.0104166e-8,5.7877277 0.29765627,6.085384 1.5875001,6.085384 h 3.1749975 c 1.2898438,0 1.5875,-0.2976563 1.5875,-1.5875001 V 1.8520834 c 0,-1.28984381 -0.2976562,-1.58750007 -1.5875,-1.58750007 H 1.5875001 c -0.020154,0 -0.040273,-1.4798e-4 -0.059945,0 z m 0.032556,0.26458334 c 0.018033,-1.3565e-4 0.036303,0 0.054777,0 h 3.147609 c 1.1823568,0 1.3229167,0.29315998 1.3229167,1.32291673 v 2.6458005 c 0,1.0162919 -0.1405599,1.3229167 -1.3229167,1.3229167 H 1.5875001 c -0.99193704,0 -1.32291675,-0.1405599 -1.32291675,-1.3229167 V 1.8520834 c 0,-0.96076805 0.15947068,-1.31437034 1.29552805,-1.32291673 z"
     sodipodi:nodetypes="csssssssscssssssssss" />
  <path
     id="rect1565"
     style="fill:url(#linearGradient1873);fill-opacity:1;stroke-width:0.118194;opacity:0.4"
     d="M 1.5601116,0.52922694 C 0.42405397,0.53777695 0.26458335,0.8913756 0.26458335,1.8521436 V 4.497977 c 0,1.1823568 0.33097974,1.3229167 1.32291675,1.3229167 h 3.1749975 c 1.1823568,0 1.3229167,-0.3066248 1.3229167,-1.3229167 V 1.8521436 c 0,-1.02975658 -0.1405599,-1.32291666 -1.3229167,-1.32291666 h -3.147609 c -0.018473,0 -0.036744,-1.356e-4 -0.054777,0 z m 0.00259,0.26458338 h 0.049609 3.0179 c 1.0641211,0 1.190625,0.14300558 1.190625,1.05833328 V 4.497977 c 0,0.8938382 -0.1265039,1.0583334 -1.190625,1.0583334 H 1.7197917 c -1.02290214,0 -1.19062501,-0.1576914 -1.19062501,-1.0583334 V 1.8521436 c 0,-0.8540052 0.14116471,-1.05833328 1.03352871,-1.05833328 z"
     sodipodi:nodetypes="csssssssscsssssssssss" />
</svg>
