<?xml version="1.0" encoding="UTF-8" standalone="no"?>
<!-- Created with Inkscape (http://www.inkscape.org/) -->

<svg
   width="24"
   height="24"
   viewBox="0 0 6.3499999 6.3500002"
   version="1.1"
   id="svg5013"
   sodipodi:docname="kmines.svg"
   inkscape:version="1.1.2 (0a00cf5339, 2022-02-04)"
   xmlns:inkscape="http://www.inkscape.org/namespaces/inkscape"
   xmlns:sodipodi="http://sodipodi.sourceforge.net/DTD/sodipodi-0.dtd"
   xmlns:xlink="http://www.w3.org/1999/xlink"
   xmlns="http://www.w3.org/2000/svg"
   xmlns:svg="http://www.w3.org/2000/svg">
  <sodipodi:namedview
     id="namedview5015"
     pagecolor="#ffffff"
     bordercolor="#666666"
     borderopacity="1.0"
     inkscape:pageshadow="2"
     inkscape:pageopacity="0.0"
     inkscape:pagecheckerboard="0"
     inkscape:document-units="px"
     showgrid="false"
     units="px"
     showguides="true"
     inkscape:zoom="13.333698"
     inkscape:cx="5.4373512"
     inkscape:cy="13.274637"
     inkscape:window-width="1920"
     inkscape:window-height="998"
     inkscape:window-x="0"
     inkscape:window-y="0"
     inkscape:window-maximized="1"
     inkscape:current-layer="svg5013" />
  <defs
     id="defs5010">
    <linearGradient
       inkscape:collect="always"
       xlink:href="#linearGradient1871"
       id="linearGradient1873"
       x1="10.572797"
       y1="1.2222221"
       x2="10.805839"
       y2="46.70113"
       gradientUnits="userSpaceOnUse"
       gradientTransform="matrix(0.12026516,0,0,0.11615853,0.28863637,0.38719515)" />
    <linearGradient
       inkscape:collect="always"
       id="linearGradient1871">
      <stop
         style="stop-color:#ffffff;stop-opacity:1;"
         offset="0"
         id="stop1867" />
      <stop
         style="stop-color:#ffffff;stop-opacity:0.1"
         offset="0.12"
         id="stop2515" />
      <stop
         style="stop-color:#ffffff;stop-opacity:0.102"
         offset="0.89999998"
         id="stop2581" />
      <stop
         style="stop-color:#ffffff;stop-opacity:0.502"
         offset="1"
         id="stop1869" />
    </linearGradient>
    <linearGradient
       inkscape:collect="always"
       xlink:href="#linearGradient2290"
       id="linearGradient2292"
       x1="-0.15119053"
       y1="-0.27850887"
       x2="-0.15119053"
       y2="8.7451754"
       gradientUnits="userSpaceOnUse"
       gradientTransform="matrix(2.7368992,0,0,2.6596675,0.41379327,0.74074096)" />
    <linearGradient
       inkscape:collect="always"
       id="linearGradient2290">
      <stop
         style="stop-color:#2b898f;stop-opacity:1"
         offset="0"
         id="stop2286" />
      <stop
         style="stop-color:#5bdbc1;stop-opacity:1"
         offset="1"
         id="stop2288" />
    </linearGradient>
  </defs>
  <path
     d="M 1.5275552,0.52916667 C 0.28821992,0.53848667 1.6249999e-8,0.84697669 1.6249999e-8,2.1166667 V 4.7625 C 1.6249999e-8,6.052344 0.29765622,6.35 1.5875,6.35 h 3.175 C 6.0523438,6.35 6.35,6.052344 6.35,4.7625 V 2.1166667 C 6.35,0.82682299 6.0523438,0.52916667 4.7625,0.52916667 h -3.175 c -0.020153,0 -0.040273,-1.48e-4 -0.059945,0 z"
     style="opacity:0.1;fill:#000000;stroke-width:0.264583;stroke-linecap:round;stroke-linejoin:round"
     id="path9125"
     sodipodi:nodetypes="cssssssssc" />
  <path
     id="rect7669"
     style="fill:#808080;stroke-width:0.264583;stroke-linecap:round;stroke-linejoin:round"
     d="M 1.7973064,0.66145835 C 0.66124888,0.67000474 0.39687501,0.95278432 0.39687501,2.1166667 v 2.1166667 c 0,1.1638823 0.26437379,1.4466584 1.40043139,1.4552084 h 0.054777 2.6458334 c 1.1823568,0 1.4552083,-0.2728518 1.4552083,-1.4552084 V 2.1166667 c 0,-1.1823567 -0.2728515,-1.45520835 -1.4552083,-1.45520835 H 1.8520834 c -0.018474,0 -0.036744,-1.3565e-4 -0.054777,0 z" />
  <path
     id="rect6397"
     style="fill:url(#linearGradient2292);fill-opacity:1;stroke-width:0.688732;stroke-linejoin:round"
     d="m 5.7929687,1.4999999 c -4.2937606,0.032301 -5.29296876,1.1010742 -5.29296876,5.5 V 17 c 0,4.398925 0.99920776,5.467685 5.29296876,5.5 H 5.9999999 18 c 4.46875,0 5.5,-1.031251 5.5,-5.5 V 6.9999999 c 0,-4.4687499 -1.03125,-5.5 -5.5,-5.5 H 5.9999999 c -0.069823,0 -0.138875,-5.129e-4 -0.2070312,0 z"
     transform="scale(0.26458334)"
     sodipodi:nodetypes="cssccsssssc" />
  <path
     id="path1134"
     style="color:#000000;opacity:0.2;fill:#81e9c0;stroke-width:0.999999"
     d="M 6.25 10 C 4.3139 10 0.5 10.75 0.5 10.75 L 0.5 17 C 0.5 21.398925 1.4992078 22.467685 5.7929688 22.5 L 6 22.5 L 18 22.5 C 22.46875 22.5 23.5 21.468749 23.5 17 L 23.5 10.75 C 23.5 10.75 19.6861 11.5 17.75 11.5 C 13.8779 11.5 10.1225 10 6.25 10 z "
     transform="scale(0.26458334)" />
  <path
     d="m 1.6536458,2.38125 c -0.5122597,0 -1.52135413,0.1984375 -1.52135413,0.1984375 v 0.2645833 c 0,0 1.00909443,-0.1984375 1.52135413,-0.1984375 1.0244932,0 2.0182153,0.396875 3.0427084,0.396875 0.5122598,0 1.5213542,-0.1984375 1.5213542,-0.1984375 V 2.5796875 c 0,0 -1.0090944,0.1984375 -1.5213542,0.1984375 -1.0244931,0 -2.0182152,-0.396875 -3.0427084,-0.396875 z"
     style="color:#000000;opacity:0.3;fill:#ffffff;stroke-width:0.264583"
     id="path1249" />
  <path
     id="path26"
     d="m 3.0880915,1.4553855 c -0.091689,0.00208 -0.1268376,0.022196 -0.1421101,0.153479 l -0.00672,0.05271 c -0.015319,0.097316 -0.018021,0.1415177 -0.1100706,0.1653646 -0.00616,0.00132 -0.012465,0.00265 -0.018603,0.00413 -0.00132,2.646e-4 -0.00265,5.054e-4 -0.00414,0.00103 -0.023257,0.00561 -0.045949,0.01183 -0.06873,0.018603 -0.00381,0.00132 -0.00725,0.00264 -0.01085,0.00362 -0.00344,0.00106 -0.0069,0.00212 -0.010335,0.0031 -0.010848,0.00304 -0.018232,0.00237 -0.027388,0.00362 A 1.3940632,1.3940632 0 0 0 2.2044245,2.1431988 c -0.00876,0.010398 -0.015344,0.020186 -0.028939,0.032039 l 0.00258,-5.159e-4 c -0.018177,0.017224 -0.036005,0.035058 -0.053227,0.053227 l 5.16e-4,-0.00259 c -0.076779,0.087918 -0.1149412,0.068088 -0.213935,0.029977 l -0.049609,-0.02067 c -0.043331,-0.018733 -0.0755,-0.028132 -0.1012862,-0.028939 -0.056727,-0.00185 -0.081671,0.038293 -0.1235067,0.1126546 -0.063243,0.1067779 -0.081428,0.1465345 0.039791,0.2366781 l 0.042891,0.032039 c 0.076912,0.062158 0.1138056,0.086795 0.08785,0.1793173 -0.00106,0.00344 -0.00264,0.00687 -0.00362,0.010335 -0.00106,0.0036 -0.00186,0.00704 -0.0031,0.010853 -0.00677,0.022781 -0.012995,0.045484 -0.018604,0.06873 -2.646e-4,0.00159 -5.054e-4,0.00268 -0.00103,0.00413 -0.00159,0.00614 -0.00273,0.012438 -0.00413,0.018603 -0.00132,0.00513 -0.00371,0.00731 -0.00517,0.011885 a 1.3940632,1.3940632 0 0 0 -0.033589,0.2899069 1.3940632,1.3940632 0 0 0 0.028422,0.2764689 1.3940632,1.3940632 0 0 0 0,5.292e-4 c 0.00333,0.00841 0.00758,0.014195 0.010335,0.024805 0.00132,0.00616 0.00265,0.012465 0.00413,0.018603 2.646e-4,0.00132 5.054e-4,0.00265 0.00103,0.00413 0.00558,0.023098 0.011883,0.046625 0.018604,0.069247 0.00132,0.00362 0.00264,0.00687 0.00362,0.010335 0.00106,0.00344 0.00212,0.0069 0.0031,0.010335 0.025956,0.092522 -0.010954,0.1171588 -0.08785,0.1793174 l -0.042375,0.032039 c -0.1212188,0.090141 -0.1035483,0.1304171 -0.040308,0.237195 0.060854,0.108159 0.086116,0.1431059 0.2247925,0.083199 l 0.049609,-0.020672 c 0.098988,-0.038108 0.1371557,-0.057941 0.2139404,0.029972 l -5.159e-4,-0.00206 c 0.017224,0.018177 0.035058,0.035488 0.053227,0.05271 l -0.00259,-5.292e-4 c 0.010636,0.00929 0.015091,0.016986 0.022738,0.025321 a 1.3940632,1.3940632 0 0 0 0.50127,0.2904218 c 0.00609,0.00132 0.010305,7.408e-4 0.017052,0.00259 0.00344,0.00106 0.00687,0.00212 0.010335,0.0031 0.0036,0.00106 0.00704,0.00185 0.010851,0.0031 0.022781,0.00677 0.045483,0.012994 0.06873,0.018603 0.00159,2.646e-4 0.00268,5.027e-4 0.00414,0.00103 0.00614,0.00159 0.012438,0.00276 0.018603,0.00414 0.092075,0.023839 0.094754,0.068048 0.1100707,0.1653646 l 0.00672,0.053227 c 0.017463,0.1500505 0.060907,0.1543433 0.1850015,0.1529622 0.1240951,0.00132 0.1675471,-0.00291 0.1850017,-0.1529622 l 0.00672,-0.053227 c 0.015319,-0.097316 0.018021,-0.141518 0.1100709,-0.1653646 0.00616,-0.00132 0.012465,-0.00265 0.018603,-0.00414 0.00132,-2.646e-4 0.00265,-5.027e-4 0.00414,-0.00103 0.023257,-0.00561 0.045952,-0.01183 0.06873,-0.018603 0.00381,-0.00132 0.00725,-0.00212 0.010851,-0.0031 0.00344,-0.00106 0.0069,-0.00212 0.010335,-0.0031 0.011668,-0.00328 0.019741,-0.00281 0.029456,-0.00414 a 1.3940632,1.3940632 0 0 0 0.475407,-0.2738776 c 0.00958,-0.012647 0.019235,-0.025506 0.036174,-0.040308 l -0.00259,5.292e-4 c 0.018177,-0.017224 0.036005,-0.035058 0.053227,-0.053227 l -5.292e-4,0.00259 c 0.076785,-0.087913 0.1149493,-0.06808 0.2139405,-0.029972 l 0.049609,0.020672 C 4.5388054,4.1869926 4.5640728,4.1520596 4.624927,4.0438836 4.688168,3.937103 4.706355,3.8968295 4.585136,3.8066886 l -0.042895,-0.032036 c -0.076912,-0.062159 -0.1138055,-0.086793 -0.08785,-0.1793174 0.00106,-0.00344 0.00265,-0.00687 0.00362,-0.010335 0.00106,-0.0036 0.00185,-0.00704 0.0031,-0.010853 0.00677,-0.022781 0.012994,-0.045484 0.018603,-0.06873 2.646e-4,-0.00159 5.027e-4,-0.00268 0.00103,-0.00413 0.00159,-0.00614 0.00276,-0.012438 0.00414,-0.018603 0.00296,-0.011483 0.0072,-0.017965 0.010853,-0.026872 A 1.3940632,1.3940632 0 0 0 4.5267634,3.1808616 1.3940632,1.3940632 0 0 0 4.499375,2.9142113 c -0.00511,-0.010716 -0.010581,-0.020108 -0.01447,-0.03514 -0.00132,-0.00616 -0.00265,-0.012464 -0.00414,-0.018603 -2.645e-4,-0.00132 -5.027e-4,-0.00265 -0.00103,-0.00413 -0.00561,-0.023257 -0.01183,-0.045952 -0.018603,-0.06873 -0.00132,-0.00381 -0.00212,-0.00725 -0.0031,-0.010853 -0.00106,-0.00344 -0.00265,-0.0069 -0.00362,-0.010335 C 4.428456,2.6738983 4.465366,2.6492616 4.542262,2.587103 L 4.585153,2.555064 C 4.7063771,2.4649204 4.6881899,2.4251638 4.6249492,2.3183832 4.5831128,2.2440234 4.5581686,2.2039519 4.501442,2.2057273 4.475645,2.206521 4.443492,2.2159393 4.4001563,2.2346663 l -0.049609,0.020671 c -0.098989,0.038108 -0.1371558,0.057941 -0.2139405,-0.029972 l 5.292e-4,0.00259 C 4.119912,2.2097781 4.102078,2.1919531 4.083909,2.1747281 l 0.00259,5.159e-4 C 4.068907,2.159866 4.058459,2.146984 4.048778,2.133897 A 1.3940632,1.3940632 0 0 0 3.5718043,1.8610458 c -0.00886,-0.00132 -0.015904,-7.858e-4 -0.026355,-0.00362 -0.00344,-0.00106 -0.00687,-0.00212 -0.010335,-0.0031 -0.0036,-0.00106 -0.00704,-0.00237 -0.010851,-0.00362 -0.022781,-0.00677 -0.045484,-0.012994 -0.06873,-0.018603 -0.00159,-2.646e-4 -0.00268,-5.054e-4 -0.00414,-0.00103 -0.00614,-0.00159 -0.012438,-0.00276 -0.018603,-0.00413 -0.092075,-0.023839 -0.094754,-0.068048 -0.1100709,-0.1653646 l -0.00672,-0.05271 C 3.2985712,1.458816 3.2551007,1.4540037 3.1310056,1.4553848 c -0.015512,-1.654e-4 -0.029793,-2.963e-4 -0.042891,0 z m 0.01757,3.5775595 c -0.070092,0.00353 -0.1255736,0.061292 -0.1255736,0.1322916 0,0.070999 0.055482,0.1287616 0.1255736,0.1322917 -0.070092,0.00353 -0.1255736,0.061292 -0.1255736,0.1322917 0,0.070999 0.055482,0.1287616 0.1255736,0.1322917 -0.070092,0.00353 -0.1255736,0.061292 -0.1255736,0.1322916 0,0.07329 0.059002,0.1322917 0.1322916,0.1322917 0.07329,0 0.1322917,-0.059002 0.1322917,-0.1322917 0,-0.070999 -0.055482,-0.1287616 -0.1255736,-0.1322916 0.070092,-0.00353 0.1255736,-0.061292 0.1255736,-0.1322917 0,-0.070999 -0.055482,-0.1287616 -0.1255736,-0.1322917 0.070092,-0.00353 0.1255736,-0.061292 0.1255736,-0.1322917 0,-0.073289 -0.059002,-0.1322916 -0.1322917,-0.1322916 -0.0023,0 -0.00446,-1.138e-4 -0.00672,0 z"
     style="fill:#313131;fill-opacity:1;stroke-width:0.264583" />
  <path
     id="path987"
     style="color:#000000;opacity:0.2;fill:#81e9c0;stroke-width:0.264583"
     d="M 6.25 12 C 4.3139 12 0.5 12.75 0.5 12.75 L 0.5 17 C 0.5 21.398925 1.4992074 22.467685 5.7929688 22.5 L 6 22.5 L 18 22.5 C 22.46875 22.5 23.5 21.468749 23.5 17 L 23.5 12.75 C 23.5 12.75 19.6861 13.5 17.75 13.5 C 13.8779 13.5 10.1225 12 6.25 12 z "
     transform="scale(0.26458334)" />
  <path
     id="path1294"
     style="color:#000000;opacity:0.2;fill:#81e9c0;stroke-width:0.070004"
     d="M 6.25 14 C 4.3139 14 0.5 14.75 0.5 14.75 L 0.5 17 C 0.5 17.016014 0.4999734 17.030949 0.5 17.046875 C 0.50727892 21.405658 1.5148387 22.467802 5.7929688 22.5 L 6 22.5 L 18 22.5 C 22.46875 22.5 23.5 21.468749 23.5 17 L 23.5 14.75 C 23.5 14.75 19.6861 15.5 17.75 15.5 C 13.8779 15.5 10.1225 14 6.25 14 z "
     transform="scale(0.26458334)" />
  <path
     id="path1452"
     style="color:#000000;opacity:0.2;fill:#81e9c0;stroke-width:0.0185219"
     d="M 6.25 15 C 4.3139 15 0.5 15.75 0.5 15.75 L 0.5 17 C 0.5 17.008674 0.49999221 17.016742 0.5 17.025391 C 0.50394182 21.402543 1.5076746 22.467749 5.7929688 22.5 L 6 22.5 L 18 22.5 C 22.46875 22.5 23.5 21.468749 23.5 17 L 23.5 15.75 C 23.5 15.75 19.6861 16.5 17.75 16.5 C 13.8779 16.5 10.1225 15 6.25 15 z "
     transform="scale(0.26458334)" />
  <path
     id="path42"
     d="m 1.6536458,2.9104167 c -0.5122598,0 -1.52135413,0.1984375 -1.52135413,0.1984375 v 0.2645833 c 0,0 1.00909433,-0.1984375 1.52135413,-0.1984375 1.0244932,0 2.0182153,0.396875 3.0427084,0.396875 0.5122598,0 1.5213542,-0.1984375 1.5213542,-0.1984375 V 3.1088542 c 0,0 -1.0090944,0.1984375 -1.5213542,0.1984375 -1.0244931,0 -2.0182152,-0.396875 -3.0427084,-0.396875 z m 0,0.5291667 c -0.5122598,0 -1.52135413,0.1984375 -1.52135413,0.1984375 v 0.2645833 c 0,0 1.00909433,-0.1984375 1.52135413,-0.1984375 1.0244932,0 2.0182153,0.396875 3.0427084,0.396875 0.5122598,0 1.5213542,-0.1984375 1.5213542,-0.1984375 V 3.6380209 c 0,0 -1.0090944,0.1984375 -1.5213542,0.1984375 -1.0244931,0 -2.0182152,-0.396875 -3.0427084,-0.396875 z m 0,0.5291666 c -0.5122598,0 -1.52135413,0.1984376 -1.52135413,0.1984376 v 0.2645833 c 0,0 1.00909433,-0.1984375 1.52135413,-0.1984375 1.0244932,0 2.0182153,0.396875 3.0427084,0.396875 0.5122598,0 1.5213542,-0.1984375 1.5213542,-0.1984375 V 4.1671876 c 0,0 -1.0090944,0.1984375 -1.5213542,0.1984375 -1.0244931,0 -2.0182152,-0.3968751 -3.0427084,-0.3968751 z"
     style="opacity:0.3;fill:#ffffff;stroke-width:0.264583" />
  <path
     d="m 3.1310085,1.4553628 c -0.1240949,-0.00132 -0.1675474,0.00344 -0.185002,0.1534769 l -0.00672,0.05271 c -0.015319,0.097316 -0.018018,0.1415177 -0.1100693,0.1653646 -0.00616,0.00132 -0.012462,0.00265 -0.0186,0.00413 -0.00132,2.645e-4 -0.00265,5.291e-4 -0.00413,0.00106 -0.023257,0.00561 -0.04595,0.011827 -0.068731,0.0186 -0.00381,0.00132 -0.00725,0.00265 -0.010848,0.00362 -0.00344,0.00106 -0.00691,0.00212 -0.010345,0.0031 -0.010848,0.00304 -0.01823,0.00238 -0.027387,0.00362 -0.1790182,0.060242 -0.3439273,0.156235 -0.4847167,0.2821517 -0.00876,0.010398 -0.015346,0.020188 -0.02894,0.032041 l 0.00265,-5.291e-4 c -0.018177,0.017224 -0.036004,0.035057 -0.053226,0.053226 l 5.291e-4,-0.00265 c -0.076785,0.087913 -0.1149482,0.068083 -0.213942,0.029972 l -0.049609,-0.020664 c -0.043328,-0.018732 -0.075499,-0.028133 -0.1012852,-0.02894 -0.056727,-0.00185 -0.081669,0.038293 -0.1235048,0.1126543 -0.060068,0.1014148 -0.0757,0.1437058 0.026353,0.2247926 0.028011,-0.04431 0.053729,-0.074282 0.097152,-0.072864 0.025797,7.938e-4 0.057957,0.010213 0.1012852,0.02894 l 0.049609,0.020664 c 0.098994,0.038111 0.1371573,0.057941 0.213942,-0.029972 l -5.291e-4,0.00265 c 0.017224,-0.018177 0.035049,-0.036002 0.053226,-0.053226 l -0.00265,5.292e-4 c 0.0136,-0.011853 0.020188,-0.021643 0.02894,-0.032041 0.1407894,-0.1259166 0.3056985,-0.2219096 0.4847167,-0.2821517 0.00915,-0.00132 0.016537,-5.291e-4 0.027387,-0.00362 0.00344,-0.00106 0.00691,-0.00212 0.010345,-0.0031 0.0036,-0.00106 0.00704,-0.00238 0.010848,-0.00362 0.022781,-0.00677 0.045474,-0.012991 0.068731,-0.0186 0.00159,-5.291e-4 0.0028,-7.937e-4 0.00413,-0.00106 0.00614,-0.00159 0.012435,-0.0028 0.0186,-0.00413 0.092051,-0.023839 0.09475,-0.068048 0.1100693,-0.1653646 l 0.00672,-0.05271 c 0.017462,-0.1500373 0.060907,-0.1547998 0.185002,-0.1534768 0.1240949,-0.00132 0.1675659,0.00344 0.185002,0.1534768 l 0.00672,0.05271 c 0.015319,0.097316 0.017992,0.1415256 0.1100693,0.1653646 0.00616,0.00132 0.012462,0.00265 0.0186,0.00413 0.00132,5.292e-4 0.00265,7.937e-4 0.00413,0.00106 0.023257,0.00561 0.04595,0.011827 0.068731,0.0186 0.00381,0.00132 0.00725,0.00265 0.010848,0.00362 0.00347,0.00106 0.00691,0.00212 0.010345,0.0031 0.010451,0.00283 0.017489,0.00238 0.026353,0.00362 0.1755148,0.058402 0.337652,0.1511491 0.4769644,0.2728384 0.00968,0.013097 0.020135,0.025982 0.037724,0.041341 l -0.00265,-5.291e-4 c 0.018177,0.017224 0.036002,0.035049 0.053226,0.053226 l -5.292e-4,-0.00265 c 0.076785,0.087913 0.1149535,0.06808 0.2139421,0.029972 l 0.049609,-0.020664 c 0.043336,-0.018733 0.075488,-0.028146 0.1012851,-0.02894 0.043423,-0.00132 0.069141,0.028572 0.097152,0.072864 0.1020524,-0.081087 0.086418,-0.1233752 0.026353,-0.2247927 -0.041836,-0.074359 -0.066778,-0.1144296 -0.1235049,-0.1126543 -0.025797,7.938e-4 -0.057949,0.010213 -0.1012851,0.02894 l -0.049609,0.020664 C 4.2514954,2.2933506 4.213327,2.3131836 4.1365423,2.2252706 l 5.292e-4,0.00265 c -0.017224,-0.018177 -0.035057,-0.036002 -0.053226,-0.053226 l 0.00265,5.292e-4 C 4.0688982,2.159853 4.0584498,2.1469704 4.0487687,2.1338841 3.9094563,2.0121949 3.7473191,1.9194474 3.5718043,1.8610458 c -0.00886,-0.00132 -0.015901,-7.937e-4 -0.026353,-0.00362 -0.00344,-0.00106 -0.00688,-0.00212 -0.010345,-0.0031 -0.0036,-0.00106 -0.00704,-0.00238 -0.010848,-0.00362 -0.022781,-0.00677 -0.045485,-0.012991 -0.068731,-0.0186 -0.00159,-2.646e-4 -0.00267,-5.292e-4 -0.00413,-0.00106 -0.00614,-0.00159 -0.012435,-0.00275 -0.0186,-0.00413 C 3.3407223,1.8030768 3.3380443,1.7588678 3.322728,1.6615512 l -0.00672,-0.05271 C 3.2985744,1.4587918 3.2551034,1.4539817 3.1310085,1.4553628 Z m 1.3621808,1.4433286 c -0.035819,0.034504 -0.056978,0.067347 -0.038759,0.1322917 0.00106,0.00344 0.00265,0.00691 0.00362,0.010345 0.00106,0.0036 0.00185,0.00704 0.0031,0.010848 0.00677,0.022781 0.012991,0.045474 0.0186,0.068731 5.292e-4,0.00159 7.938e-4,0.0028 0.00106,0.00413 0.00159,0.00614 0.0028,0.012435 0.00413,0.0186 0.00389,0.015028 0.00937,0.024421 0.014473,0.035139 0.00848,0.041879 0.015031,0.084125 0.019632,0.1266058 0.00444,-0.041377 0.00703,-0.082931 0.00775,-0.1245394 -5.556e-4,-0.089556 -0.00972,-0.1788506 -0.027387,-0.2666471 -0.00212,-0.00471 -0.00397,-0.010716 -0.00619,-0.015505 z m -2.7228271,0.00106 c -0.020185,0.092378 -0.030921,0.1865691 -0.032038,0.2811198 1.627e-4,0.047471 0.00275,0.094903 0.00775,0.1421104 0.00521,-0.056283 0.013846,-0.1121963 0.02585,-0.167431 0.00159,-0.00458 0.00384,-0.00675 0.00516,-0.01188 0.00132,-0.00616 0.00265,-0.012462 0.00413,-0.0186 5.292e-4,-0.00159 7.938e-4,-0.00265 0.00106,-0.00413 0.00561,-0.023257 0.011827,-0.04595 0.0186,-0.068731 0.00132,-0.00381 0.00212,-0.00725 0.0031,-0.010848 0.00106,-0.00347 0.00265,-0.00691 0.00362,-0.010345 0.017992,-0.064111 -0.00238,-0.097266 -0.037208,-0.1312572 z m -0.00159,0.8278547 c -0.015214,0.014658 -0.026167,0.028498 -0.049091,0.047025 l -0.042376,0.032038 c -0.1212159,0.090139 -0.1035443,0.1304168 -0.040304,0.2371947 0.00926,0.016457 0.017171,0.027826 0.025321,0.040825 0.00595,-0.00479 0.00815,-0.00836 0.014975,-0.013441 l 0.042376,-0.032038 c 0.076896,-0.062159 0.1138052,-0.086794 0.08785,-0.1793161 -0.00106,-0.00344 -0.00212,-0.00691 -0.0031,-0.010345 -0.00106,-0.00347 -0.00238,-0.00672 -0.00362,-0.010345 -0.00672,-0.022622 -0.013017,-0.046149 -0.0186,-0.069247 -5.292e-4,-0.00159 -7.938e-4,-0.0028 -0.00106,-0.00413 -0.00159,-0.00614 -0.0028,-0.012435 -0.00413,-0.0186 -0.00212,-0.00841 -0.0054,-0.013573 -0.00826,-0.019632 z m 2.7238855,5.292e-4 c -0.00273,0.00579 -0.00564,0.010954 -0.00775,0.019129 -0.00132,0.00616 -0.00265,0.012462 -0.00413,0.0186 -5.292e-4,0.00159 -7.938e-4,0.00265 -0.00106,0.00413 -0.00561,0.023257 -0.011827,0.04595 -0.0186,0.068731 -0.00132,0.00381 -0.00212,0.00725 -0.0031,0.010848 -0.00106,0.00347 -0.00265,0.00691 -0.00362,0.010345 -0.025956,0.092525 0.010927,0.1171578 0.08785,0.1793163 l 0.042892,0.032038 c 0.00669,0.00497 0.0086,0.00873 0.014473,0.013441 0.00815,-0.012991 0.01606,-0.024368 0.025321,-0.040825 0.063241,-0.1067806 0.081428,-0.1470555 -0.039791,-0.2371964 l -0.042892,-0.032038 c -0.022992,-0.0186 -0.034375,-0.031811 -0.049609,-0.046508 z"
     style="color:#000000;opacity:0.6;fill:#ffffff;stroke-width:0.264583"
     id="path896" />
  <path
     id="rect5096"
     style="opacity:0.4;stroke-width:0.240954;stroke-linecap:round;stroke-linejoin:round"
     d="M 1.5276195,0.26458333 C 0.28828403,0.27390666 6.4159692e-5,0.58239335 6.4159692e-5,1.8520834 v 2.6458333 c 0,1.2898438 0.297656260308,1.5875001 1.587500040308,1.5875001 h 3.1749359 c 1.2898438,0 1.5875,-0.2976563 1.5875,-1.5875001 V 1.8520834 c 0,-1.28984381 -0.2976562,-1.58750007 -1.5875,-1.58750007 H 1.5875642 c -0.020154,0 -0.040273,-1.4798e-4 -0.059945,0 z m 0.032556,0.26458334 c 0.018033,-1.3565e-4 0.036303,0 0.054777,0 h 3.1475474 c 1.1823568,0 1.3229167,0.29315998 1.3229167,1.32291673 v 2.6458333 c 0,1.0162919 -0.1405599,1.3229167 -1.3229167,1.3229167 H 1.5875642 c -0.99193699,0 -1.3229167,-0.1405599 -1.3229167,-1.3229167 V 1.8520834 c 0,-0.96076805 0.15947068,-1.31437034 1.295528,-1.32291673 z"
     sodipodi:nodetypes="csssssssscssssssssss" />
  <path
     id="rect1565"
     style="fill:url(#linearGradient1873);fill-opacity:1;stroke-width:0.118194"
     d="M 1.5601116,0.52916667 C 0.42405397,0.53771668 0.26458335,0.89131535 0.26458335,1.8520833 v 2.6458334 c 0,1.1823568 0.33097974,1.3229167 1.32291675,1.3229167 h 3.1749976 c 1.1823568,0 1.3229167,-0.3066248 1.3229167,-1.3229167 V 1.8520833 c 0,-1.02975655 -0.1405599,-1.32291663 -1.3229167,-1.32291663 H 1.6148886 c -0.018473,0 -0.036744,-1.356e-4 -0.054777,0 z m 0.00259,0.26458338 c 0.016229,0 0.032983,0 0.049609,0 h 3.0179001 c 1.0641211,0 1.190625,0.1430056 1.190625,1.05833325 v 2.6458334 c 0,0.8938382 -0.1265039,1.0583334 -1.190625,1.0583334 h -2.910419 c -1.02290214,0 -1.19062501,-0.1576914 -1.19062501,-1.0583334 V 1.8520833 c 0,-0.85400515 0.1411647,-1.05833325 1.03352871,-1.05833325 z"
     sodipodi:nodetypes="csssssssscsssssssssss" />
</svg>
