<?xml version="1.0" encoding="UTF-8" standalone="no"?>
<!-- Created with Inkscape (http://www.inkscape.org/) -->

<svg
   width="24"
   height="24"
   viewBox="0 0 6.3499999 6.3500002"
   version="1.1"
   id="svg5013"
   sodipodi:docname="lastfm.svg"
   inkscape:version="1.1.2 (0a00cf5339, 2022-02-04)"
   xmlns:inkscape="http://www.inkscape.org/namespaces/inkscape"
   xmlns:sodipodi="http://sodipodi.sourceforge.net/DTD/sodipodi-0.dtd"
   xmlns:xlink="http://www.w3.org/1999/xlink"
   xmlns="http://www.w3.org/2000/svg"
   xmlns:svg="http://www.w3.org/2000/svg">
  <sodipodi:namedview
     id="namedview5015"
     pagecolor="#ffffff"
     bordercolor="#666666"
     borderopacity="1.0"
     inkscape:pageshadow="2"
     inkscape:pageopacity="0.0"
     inkscape:pagecheckerboard="0"
     inkscape:document-units="px"
     showgrid="false"
     units="px"
     showguides="true"
     inkscape:zoom="24.348674"
     inkscape:cx="2.8954349"
     inkscape:cy="15.319109"
     inkscape:window-width="1920"
     inkscape:window-height="998"
     inkscape:window-x="0"
     inkscape:window-y="0"
     inkscape:window-maximized="1"
     inkscape:current-layer="svg5013" />
  <defs
     id="defs5010">
    <linearGradient
       inkscape:collect="always"
       xlink:href="#linearGradient1871"
       id="linearGradient1873"
       x1="11.046622"
       y1="2.3372049"
       x2="10.794909"
       y2="47.930588"
       gradientUnits="userSpaceOnUse"
       gradientTransform="matrix(0.12026516,0,0,0.11615853,0.28863637,0.25496375)" />
    <linearGradient
       inkscape:collect="always"
       id="linearGradient1871">
      <stop
         style="stop-color:#ffffff;stop-opacity:1;"
         offset="0"
         id="stop1867" />
      <stop
         style="stop-color:#ffffff;stop-opacity:0.1"
         offset="0.12"
         id="stop2515" />
      <stop
         style="stop-color:#ffffff;stop-opacity:0.102"
         offset="0.89999998"
         id="stop2581" />
      <stop
         style="stop-color:#ffffff;stop-opacity:0.502"
         offset="1"
         id="stop1869" />
    </linearGradient>
    <linearGradient
       inkscape:collect="always"
       xlink:href="#linearGradient2290"
       id="linearGradient2292"
       x1="1.9582907"
       y1="0.28538564"
       x2="6.4769249"
       y2="8.5555315"
       gradientUnits="userSpaceOnUse"
       gradientTransform="matrix(0.72413793,0,0,0.70370371,0.10948281,0.06375639)" />
    <linearGradient
       inkscape:collect="always"
       id="linearGradient2290">
      <stop
         style="stop-color:#da1636;stop-opacity:1"
         offset="0"
         id="stop2286" />
      <stop
         style="stop-color:#f22c42;stop-opacity:1"
         offset="1"
         id="stop2288" />
    </linearGradient>
  </defs>
  <path
     d="M 1.5275554,0.79381578 C 0.28822009,0.80313578 1.9010417e-7,1.1116258 1.9010417e-7,2.3813158 v 2.381217 c 0,1.289844 0.29765619989583,1.5875 1.58750000989583,1.5875 h 3.1749977 c 1.2898438,0 1.5875,-0.297656 1.5875,-1.5875 v -2.381217 c 0,-1.2898437 -0.2976562,-1.58750002 -1.5875,-1.58750002 H 1.5875002 c -0.020153,0 -0.040273,-1.48e-4 -0.059945,0 z"
     style="opacity:0.1;fill:#000000;stroke-width:0.264583;stroke-linecap:round;stroke-linejoin:round"
     id="path9125"
     sodipodi:nodetypes="cssssssssc" />
  <path
     id="rect7669"
     style="fill:#808080;stroke-width:0.264583;stroke-linecap:round;stroke-linejoin:round"
     d="M 1.7973064,0.66145835 C 0.66124888,0.67000474 0.39687501,0.95278432 0.39687501,2.1166667 v 2.1166667 c 0,1.1638823 0.26437379,1.4466584 1.40043139,1.4552084 h 0.054777 2.6458334 c 1.1823568,0 1.4552083,-0.2728518 1.4552083,-1.4552084 V 2.1166667 c 0,-1.1823567 -0.2728515,-1.45520835 -1.4552083,-1.45520835 H 1.8520834 c -0.018474,0 -0.036744,-1.3565e-4 -0.054777,0 z" />
  <path
     id="rect6397"
     style="fill:url(#linearGradient2292);fill-opacity:1;stroke-width:0.182227;stroke-linejoin:round"
     d="M 1.532723,0.39693532 C 0.39666551,0.40548163 0.13229168,0.68826121 0.13229168,1.8521437 v 2.6458334 c 0,1.1638823 0.26437373,1.4466584 1.40043132,1.4552084 H 1.5875 4.7624975 c 1.1823568,0 1.4552083,-0.2728518 1.4552083,-1.4552084 V 1.8521437 c 0,-1.18235679 -0.2728515,-1.45520838 -1.4552083,-1.45520838 H 1.5875 c -0.018474,0 -0.036744,-1.3571e-4 -0.054777,0 z"
     sodipodi:nodetypes="cssccsssssc" />
  <path
     id="rect13049"
     style="opacity:0.1;fill:#ffffff;stroke-width:0.999999;stroke-linecap:round;stroke-linejoin:round"
     d="m 0.50000004,12 v 4.999876 c 0,4.398925 0.99920766,5.467685 5.29296876,5.5 H 6 17.99999 c 4.46875,0 5.5,-1.159104 5.5,-5.5 V 12 Z"
     transform="scale(0.26458334)"
     sodipodi:nodetypes="csccsscc" />
  <path
     d="M 2.326656,4.2233043 C 2.2578379,4.2140439 2.1354179,4.1741977 2.0537648,4.1348806 1.5217406,3.8799545 1.3041737,3.2378902 1.5662171,2.6970818 1.8655931,2.0786977 2.6824148,1.9210589 3.1739313,2.3868314 3.3160707,2.5212927 3.3791977,2.6360689 3.59319,3.1448362 c 0.2233983,0.5320771 0.2646892,0.6157383 0.3370792,0.6866731 0.077555,0.075459 0.1494181,0.1008592 0.2869141,0.1008592 0.2259118,0 0.3872441,-0.1396471 0.3872441,-0.3344598 0,-0.1649148 -0.057968,-0.2177256 -0.3536156,-0.3226858 C 3.8005704,3.1128216 3.6547321,2.9660308 3.6542029,2.6712585 c 0,-0.1572419 0.039836,-0.2620698 0.1410785,-0.3707342 0.1453145,-0.1551252 0.3959753,-0.2063485 0.6177755,-0.1293018 0.094626,0.033602 0.2926028,0.208862 0.2926028,0.2590271 0,0.024342 -0.1147419,0.098743 -0.1784007,0.1163372 -0.033615,0.00873 -0.0626,-0.00265 -0.1013751,-0.039846 -0.078613,-0.075433 -0.1318154,-0.098743 -0.2259118,-0.098743 -0.1623853,0 -0.2631016,0.097684 -0.2631016,0.2554553 0,0.1572418 0.064056,0.2104495 0.3840691,0.3184525 0.4409811,0.1489075 0.571209,0.2833687 0.5738548,0.5945452 0.00265,0.2688167 -0.1184487,0.4627298 -0.3593042,0.5774796 -0.1095798,0.051752 -0.1467696,0.058367 -0.325702,0.058367 -0.255426,0 -0.3701785,-0.047519 -0.513371,-0.2088621 C 3.6002015,3.8949035 3.5025332,3.6912008 3.189793,2.9476158 3.0600943,2.6395085 2.8936185,2.4884843 2.6159382,2.4290589 2.4752566,2.3990023 2.2793882,2.4264131 2.1516739,2.4941729 2.0271371,2.5592869 1.888043,2.70621 1.8223999,2.8405389 1.7681389,2.9496002 1.7629769,2.980186 1.7629769,3.1698658 c 0,0.1809221 0.00728,0.223811 0.052673,0.3230827 0.068818,0.1515533 0.2042081,0.2915708 0.3530865,0.36703 0.1075954,0.054266 0.1410784,0.061013 0.3127374,0.061013 0.1649016,0 0.2072508,-0.00767 0.3055938,-0.054795 C 2.8992964,3.811401 3.0501698,3.6769133 3.1117119,3.5761864 l 0.032028,-0.052282 0.06313,0.1442773 c 0.035203,0.079693 0.063527,0.1545961 0.063527,0.1680898 0,0.039846 -0.1426686,0.1700742 -0.2734204,0.2512219 C 2.7984584,4.2100487 2.5704405,4.2559804 2.326918,4.222881"
     style="fill:#ffffff;stroke-width:0.264583"
     id="path874" />
  <path
     id="rect5096"
     style="opacity:0.4;stroke-width:0.240954;stroke-linecap:round;stroke-linejoin:round"
     d="M 1.5275554,0.26458333 C 0.28821988,0.27390666 1.0104166e-8,0.58239335 1.0104166e-8,1.8520834 V 4.4978839 C 1.0104166e-8,5.7877277 0.29765627,6.085384 1.5875001,6.085384 h 3.1749975 c 1.2898438,0 1.5875,-0.2976563 1.5875,-1.5875001 V 1.8520834 c 0,-1.28984381 -0.2976562,-1.58750007 -1.5875,-1.58750007 H 1.5875001 c -0.020154,0 -0.040273,-1.4798e-4 -0.059945,0 z m 0.032556,0.26458334 c 0.018033,-1.3565e-4 0.036303,0 0.054777,0 h 3.147609 c 1.1823568,0 1.3229167,0.29315998 1.3229167,1.32291673 v 2.6458005 c 0,1.0162919 -0.1405599,1.3229167 -1.3229167,1.3229167 H 1.5875001 c -0.99193704,0 -1.32291675,-0.1405599 -1.32291675,-1.3229167 V 1.8520834 c 0,-0.96076805 0.15947068,-1.31437034 1.29552805,-1.32291673 z"
     sodipodi:nodetypes="csssssssscssssssssss" />
  <path
     id="rect1565"
     style="fill:url(#linearGradient1873);fill-opacity:1;stroke-width:0.118194"
     d="M 1.5601116,0.52922694 C 0.42405397,0.53777695 0.26458335,0.8913756 0.26458335,1.8521436 V 4.497977 c 0,1.1823568 0.33097974,1.3229167 1.32291675,1.3229167 h 3.1749975 c 1.1823568,0 1.3229167,-0.3066248 1.3229167,-1.3229167 V 1.8521436 c 0,-1.02975658 -0.1405599,-1.32291666 -1.3229167,-1.32291666 h -3.147609 c -0.018473,0 -0.036744,-1.356e-4 -0.054777,0 z m 0.00259,0.26458338 h 0.049609 3.0179 c 1.0641211,0 1.190625,0.14300558 1.190625,1.05833328 V 4.497977 c 0,0.8938382 -0.1265039,1.0583334 -1.190625,1.0583334 H 1.7197917 c -1.02290214,0 -1.19062501,-0.1576914 -1.19062501,-1.0583334 V 1.8521436 c 0,-0.8540052 0.14116471,-1.05833328 1.03352871,-1.05833328 z"
     sodipodi:nodetypes="csssssssscsssssssssss" />
</svg>
