<?xml version="1.0" encoding="UTF-8" standalone="no"?>
<!-- Created with Inkscape (http://www.inkscape.org/) -->

<svg
   width="24"
   height="24"
   viewBox="0 0 6.3499999 6.3500002"
   version="1.1"
   id="svg5013"
   sodipodi:docname="libreoffice-base.svg"
   inkscape:version="1.1.2 (0a00cf5339, 2022-02-04)"
   xmlns:inkscape="http://www.inkscape.org/namespaces/inkscape"
   xmlns:sodipodi="http://sodipodi.sourceforge.net/DTD/sodipodi-0.dtd"
   xmlns:xlink="http://www.w3.org/1999/xlink"
   xmlns="http://www.w3.org/2000/svg"
   xmlns:svg="http://www.w3.org/2000/svg">
  <sodipodi:namedview
     id="namedview5015"
     pagecolor="#ffffff"
     bordercolor="#666666"
     borderopacity="1.0"
     inkscape:pageshadow="2"
     inkscape:pageopacity="0.0"
     inkscape:pagecheckerboard="0"
     inkscape:document-units="px"
     showgrid="false"
     units="px"
     showguides="false"
     inkscape:zoom="12.174403"
     inkscape:cx="3.6552101"
     inkscape:cy="22.670517"
     inkscape:window-width="1920"
     inkscape:window-height="1010"
     inkscape:window-x="0"
     inkscape:window-y="0"
     inkscape:window-maximized="1"
     inkscape:current-layer="svg5013" />
  <defs
     id="defs5010">
    <linearGradient
       inkscape:collect="always"
       id="linearGradient1150">
      <stop
         style="stop-color:#f2f2f2;stop-opacity:1"
         offset="0"
         id="stop1146" />
      <stop
         style="stop-color:#ffffff;stop-opacity:1"
         offset="1"
         id="stop1148" />
    </linearGradient>
    <linearGradient
       inkscape:collect="always"
       xlink:href="#linearGradient1871"
       id="linearGradient1873"
       x1="17.222656"
       y1="1.325706"
       x2="17.164322"
       y2="46.88232"
       gradientUnits="userSpaceOnUse"
       gradientTransform="matrix(0.12026516,0,0,0.11615853,0.28863637,0.38719515)" />
    <linearGradient
       inkscape:collect="always"
       id="linearGradient1871">
      <stop
         style="stop-color:#ffffff;stop-opacity:1;"
         offset="0"
         id="stop1867" />
      <stop
         style="stop-color:#ffffff;stop-opacity:0.1"
         offset="0.12"
         id="stop2515" />
      <stop
         style="stop-color:#ffffff;stop-opacity:0.102"
         offset="0.89999998"
         id="stop2581" />
      <stop
         style="stop-color:#ffffff;stop-opacity:0.502"
         offset="1"
         id="stop1869" />
    </linearGradient>
    <linearGradient
       inkscape:collect="always"
       xlink:href="#linearGradient2290"
       id="linearGradient2292"
       x1="1.9583793"
       y1="0.097477973"
       x2="6.3288045"
       y2="8.3507528"
       gradientUnits="userSpaceOnUse"
       gradientTransform="matrix(2.7368992,0,0,2.6596675,0.41379327,0.74074096)" />
    <linearGradient
       inkscape:collect="always"
       id="linearGradient2290">
      <stop
         style="stop-color:#9911aa;stop-opacity:1"
         offset="0"
         id="stop2286" />
      <stop
         style="stop-color:#c04fba;stop-opacity:1"
         offset="1"
         id="stop2288" />
    </linearGradient>
    <linearGradient
       inkscape:collect="always"
       xlink:href="#linearGradient1150"
       id="linearGradient1120"
       gradientUnits="userSpaceOnUse"
       gradientTransform="matrix(0.72413793,0,0,0.70370371,0.1094392,0.19593765)"
       x1="2.1166666"
       y1="0.5291667"
       x2="6.0821819"
       y2="7.8572841" />
    <linearGradient
       id="linearGradient9342"
       x1="520.59003"
       x2="516.15002"
       y1="735.04999"
       y2="720.85999"
       gradientTransform="matrix(0.06484393,0,0,0.06797928,-30.523612,-47.274317)"
       gradientUnits="userSpaceOnUse"
       xlink:href="#linearGradient14494" />
    <linearGradient
       id="linearGradient14494">
      <stop
         stop-color="#dc85e9"
         offset="0"
         id="stop13" />
      <stop
         stop-color="#f2cbf8"
         offset="1"
         id="stop15" />
    </linearGradient>
    <linearGradient
       id="linearGradient9339"
       x1="520.59003"
       x2="516.15002"
       y1="735.04999"
       y2="720.85999"
       gradientTransform="matrix(0.06484393,0,0,0.06797928,-30.523612,-46.644109)"
       gradientUnits="userSpaceOnUse"
       xlink:href="#linearGradient14494" />
    <linearGradient
       id="linearGradient9348"
       x1="520.59003"
       x2="516.15002"
       y1="735.04999"
       y2="720.85999"
       gradientTransform="matrix(0.06484393,0,0,0.06797928,-30.523612,-45.834119)"
       gradientUnits="userSpaceOnUse"
       xlink:href="#linearGradient14494" />
  </defs>
  <path
     d="M 1.5275552,0.52916667 C 0.28821992,0.53848667 1.6249999e-8,0.84697669 1.6249999e-8,2.1166667 V 4.7625 C 1.6249999e-8,6.052344 0.29765622,6.35 1.5875,6.35 h 3.175 C 6.0523438,6.35 6.35,6.052344 6.35,4.7625 V 2.1166667 C 6.35,0.82682299 6.0523438,0.52916667 4.7625,0.52916667 h -3.175 c -0.020153,0 -0.040273,-1.48e-4 -0.059945,0 z"
     style="opacity:0.1;fill:#000000;stroke-width:0.264583;stroke-linecap:round;stroke-linejoin:round"
     id="path9125"
     sodipodi:nodetypes="cssssssssc" />
  <path
     id="rect6397"
     style="fill:url(#linearGradient2292);fill-opacity:1;stroke-width:0.688732;stroke-linejoin:round"
     d="m 5.7929687,1.4999999 c -4.2937606,0.032301 -5.29296876,1.1010742 -5.29296876,5.5 V 17 c 0,4.398925 0.99920776,5.467685 5.29296876,5.5 H 5.9999999 18 c 4.46875,0 5.5,-1.031251 5.5,-5.5 V 6.9999999 c 0,-4.4687499 -1.03125,-5.5 -5.5,-5.5 H 5.9999999 c -0.069823,0 -0.138875,-5.129e-4 -0.2070312,0 z"
     transform="scale(0.26458334)"
     sodipodi:nodetypes="cssccsssssc" />
  <path
     id="rect6397-6"
     style="fill:url(#linearGradient1120);fill-opacity:1;stroke-width:0.182227;stroke-linejoin:round"
     d="m 1.5626953,0.79374998 c -0.89233165,0.0076 -1.03352866,0.2043281 -1.03352866,1.05833342 v 2.6458333 c 0,0.9006419 0.16772282,1.0583333 1.19062506,1.0583333 h 2.9104167 c 1.0641206,0 1.190625,-0.1601124 1.190625,-1.0583333 V 2.38125 l -1.5875,-1.58750002 H 1.6123047 c -0.016626,0 -0.03338,-1.206e-4 -0.049609,0 z"
     sodipodi:nodetypes="csssssccsc" />
  <path
     id="rect13049"
     style="opacity:0.1;fill:#ffffff;stroke-width:0.264583;stroke-linecap:round;stroke-linejoin:round"
     d="m 0.13229165,3.175 v 1.3229168 c 0,1.1638822 0.2643737,1.4466583 1.40043135,1.4552083 H 1.5875 4.7625001 c 1.1823568,0 1.4552084,-0.3011384 1.4552084,-1.4552083 V 3.175 Z"
     sodipodi:nodetypes="csccsscc" />
  <path
     style="color:#000000;fill:url(#linearGradient9348);stroke-width:0.264589;-inkscape-stroke:none"
     d="m 1.7198817,3.2331386 v 0.7732607 c 0,0.213536 0.6514074,0.3866303 1.4549438,0.3866303 0.8035364,0 1.4549438,-0.1731002 1.4549438,-0.3866303 V 3.2331386 Z"
     id="path895" />
  <path
     style="color:#000000;fill:url(#linearGradient9339);stroke-width:0.264589;-inkscape-stroke:none"
     d="m 1.7198817,2.4212149 v 0.7732607 c 0,0.2135359 0.6514074,0.3866303 1.4549438,0.3866303 0.8035364,0 1.4549438,-0.1731002 1.4549438,-0.3866303 V 2.4212149 Z"
     id="path901" />
  <path
     style="color:#000000;fill:url(#linearGradient9342);stroke-width:0.264589;-inkscape-stroke:none"
     d="M 4.6297693,2.3709538 A 1.4549438,0.38663034 0 0 1 3.1748255,2.7575842 1.4549438,0.38663034 0 0 1 1.7198818,2.3709538 1.4549438,0.38663034 0 0 1 3.1748255,1.9843234 1.4549438,0.38663034 0 0 1 4.6297693,2.3709538 Z"
     id="path907" />
  <path
     id="path897"
     style="color:#000000;fill:#8e03a3;stroke-width:0.264583;-inkscape-stroke:none"
     d="m 3.1749999,1.8520833 c -0.4112708,0 -0.7835494,0.043566 -1.0629842,0.1178222 C 1.9722983,2.0070334 1.855724,2.0505928 1.7637165,2.1083984 1.6942546,2.1520392 1.6291454,2.2107333 1.6014525,2.2887491 H 1.5875 v 0.082166 0.050126 0.7735962 0.038757 0.7730797 c 0,0.1206458 0.084208,0.2047103 0.1762166,0.2625162 0.092008,0.057806 0.2085814,0.1013655 0.3482992,0.1384927 0.2794357,0.074256 0.6517171,0.1178224 1.0629841,0.1178224 0.4112675,0 0.783032,-0.043567 1.0624674,-0.1178224 0.139718,-0.037128 0.2562913,-0.080687 0.3482994,-0.1384928 0.092008,-0.057805 0.1762165,-0.1418696 0.1762165,-0.2625162 V 3.194637 2.3709147 2.2887491 H 4.7480317 C 4.7203378,2.2107333 4.6552286,2.1520392 4.5857667,2.1083984 4.4937592,2.0505928 4.3771848,2.0070334 4.2374673,1.9699055 3.9580327,1.8956497 3.5862709,1.8520833 3.1749999,1.8520833 Z m 0,0.2645833 c 0.3922718,0 0.7476207,0.042844 0.9947714,0.1085206 0.073438,0.019516 0.1356977,0.041619 0.1870686,0.063562 0.016785,0.00717 0.03263,0.014145 0.047026,0.021188 0.015184,0.00766 0.029698,0.015422 0.041341,0.022738 0.013811,0.00868 0.02404,0.016441 0.031522,0.022738 0.00748,0.0063 0.01243,0.010991 0.015502,0.01447 6.085e-4,6.879e-4 5.556e-4,4.763e-4 0.00103,0.00103 -1.903e-4,2.302e-4 -8.202e-4,7.937e-4 -0.00103,0.00103 -0.00307,0.00354 -0.00802,0.00864 -0.015502,0.014986 -0.00745,0.00628 -0.017291,0.013795 -0.031522,0.022738 -0.055241,0.034706 -0.1518602,0.074132 -0.2754355,0.1069702 -0.025075,0.00666 -0.051559,0.013023 -0.079065,0.019121 -0.026514,0.00588 -0.054037,0.011602 -0.082166,0.017052 -0.00103,2.011e-4 -0.00206,3.175e-4 -0.0031,5.292e-4 -0.229662,0.044308 -0.5177631,0.07183 -0.8304403,0.07183 -0.3126769,0 -0.6007781,-0.027522 -0.8304402,-0.07183 -0.00106,-2.035e-4 -0.00205,-3.175e-4 -0.0031,-5.292e-4 -0.028128,-0.00545 -0.055652,-0.011176 -0.082166,-0.017052 -0.027506,-0.0061 -0.05399,-0.012459 -0.079065,-0.019121 C 2.0566534,2.4837994 1.960034,2.4443734 1.9047934,2.4096672 c -0.029184,-0.018336 -0.041239,-0.031015 -0.047025,-0.037724 -5.953e-4,-6.615e-4 -5.556e-4,-4.763e-4 -0.00104,-0.00103 1.931e-4,-2.222e-4 8.228e-4,-7.937e-4 0.00104,-0.00103 2.16e-4,-2.397e-4 8.017e-4,-7.673e-4 0.00103,-0.00103 0.00295,-0.00328 0.00738,-0.00752 0.014469,-0.013436 0.00753,-0.0063 0.017713,-0.014063 0.031523,-0.022738 0.011687,-0.00734 0.025656,-0.015065 0.041341,-0.022738 0.014396,-0.00704 0.030241,-0.014018 0.047026,-0.021188 0.051371,-0.021942 0.113631,-0.044047 0.1870687,-0.063562 C 2.4273793,2.1595102 2.7827283,2.1166663 3.1749999,2.1166666 Z M 1.8520832,2.6809733 c 0.074907,0.035375 0.161605,0.065338 0.2599325,0.091467 0.2794349,0.074256 0.6517134,0.1173055 1.0629842,0.1173055 0.411271,0 0.7830328,-0.04305 1.0624674,-0.1173055 0.098328,-0.02613 0.1850258,-0.056092 0.2599325,-0.091467 V 3.194637 c 0,-0.013883 0.00305,0.00353 -0.052193,0.03824 C 4.3899658,3.267583 4.2933471,3.307009 4.1697713,3.3398472 3.9226195,3.4055242 3.567268,3.4488847 3.1749999,3.4488847 2.7827315,3.4488847 2.4273801,3.4055237 2.1802286,3.3398472 2.0566528,3.3070092 1.9600341,3.2675832 1.9047932,3.232877 1.8495522,3.198171 1.8520832,3.180758 1.8520832,3.194637 Z m 0,0.8237223 c 0.074907,0.035224 0.1616047,0.064822 0.2599325,0.090951 0.2794357,0.074255 0.6517172,0.1178224 1.0629842,0.1178224 0.4112675,0 0.783032,-0.043567 1.0624674,-0.1178224 0.098328,-0.02613 0.1850258,-0.055727 0.2599325,-0.090951 v 0.5017783 c 0,-0.013883 0.00305,0.00353 -0.052193,0.03824 -0.055241,0.034706 -0.1518597,0.074132 -0.2754355,0.1069703 -0.2471518,0.065677 -0.6025033,0.1090371 -0.9947714,0.1090371 -0.3922684,0 -0.7476198,-0.043361 -0.9947713,-0.1090371 -0.1235758,-0.032838 -0.2201945,-0.072264 -0.2754354,-0.1069703 -0.055241,-0.034706 -0.05271,-0.052119 -0.05271,-0.03824 z" />
  <path
     id="rect1565"
     style="opacity:0.3;fill:url(#linearGradient1873);fill-opacity:1;stroke-width:0.118194"
     d="M 1.5601116,0.52916667 C 0.42405397,0.53771668 0.26458335,0.89131535 0.26458335,1.8520833 v 2.6458334 c 0,1.1823568 0.33097974,1.3229167 1.32291675,1.3229167 h 3.1749976 c 1.1823568,0 1.3229167,-0.3066248 1.3229167,-1.3229167 V 1.8520833 c 0,-1.02975655 -0.1405599,-1.32291663 -1.3229167,-1.32291663 H 1.6148886 c -0.018473,0 -0.036744,-1.356e-4 -0.054777,0 z m 0.00259,0.26458338 c 0.016229,0 0.032983,0 0.049609,0 h 3.0179001 c 1.0641211,0 1.190625,0.1430056 1.190625,1.05833325 v 2.6458334 c 0,0.8938382 -0.1265039,1.0583334 -1.190625,1.0583334 h -2.910419 c -1.02290214,0 -1.19062501,-0.1576914 -1.19062501,-1.0583334 V 1.8520833 c 0,-0.85400515 0.1411647,-1.05833325 1.03352871,-1.05833325 z"
     sodipodi:nodetypes="csssssssscsssssssssss" />
  <path
     id="rect5096"
     style="opacity:0.4;stroke-width:0.240954;stroke-linecap:round;stroke-linejoin:round"
     d="M 1.5276195,0.26458333 C 0.28828403,0.27390666 6.4159692e-5,0.58239335 6.4159692e-5,1.8520834 v 2.6458333 c 0,1.2898438 0.297656260308,1.5875001 1.587500040308,1.5875001 h 3.1749359 c 1.2898438,0 1.5875,-0.2976563 1.5875,-1.5875001 V 1.8520834 c 0,-1.28984381 -0.2976562,-1.58750007 -1.5875,-1.58750007 H 1.5875642 c -0.020154,0 -0.040273,-1.4798e-4 -0.059945,0 z m 0.032556,0.26458334 c 0.018033,-1.3565e-4 0.036303,0 0.054777,0 h 3.1475474 c 1.1823568,0 1.3229167,0.29315998 1.3229167,1.32291673 v 2.6458333 c 0,1.0162919 -0.1405599,1.3229167 -1.3229167,1.3229167 H 1.5875642 c -0.99193699,0 -1.3229167,-0.1405599 -1.3229167,-1.3229167 V 1.8520834 c 0,-0.96076805 0.15947068,-1.31437034 1.295528,-1.32291673 z"
     sodipodi:nodetypes="csssssssscssssssssss" />
</svg>
