<?xml version="1.0" encoding="UTF-8" standalone="no"?>
<!-- Created with Inkscape (http://www.inkscape.org/) -->

<svg
   width="24"
   height="24"
   viewBox="0 0 6.3499999 6.3500002"
   version="1.1"
   id="svg5013"
   sodipodi:docname="preferences-desktop-font-installer.svg"
   inkscape:version="1.1.2 (0a00cf5339, 2022-02-04)"
   xmlns:inkscape="http://www.inkscape.org/namespaces/inkscape"
   xmlns:sodipodi="http://sodipodi.sourceforge.net/DTD/sodipodi-0.dtd"
   xmlns:xlink="http://www.w3.org/1999/xlink"
   xmlns="http://www.w3.org/2000/svg"
   xmlns:svg="http://www.w3.org/2000/svg">
  <sodipodi:namedview
     id="namedview5015"
     pagecolor="#ffffff"
     bordercolor="#666666"
     borderopacity="1.0"
     inkscape:pageshadow="2"
     inkscape:pageopacity="0.0"
     inkscape:pagecheckerboard="0"
     inkscape:document-units="px"
     showgrid="false"
     units="px"
     showguides="true"
     inkscape:zoom="12.174337"
     inkscape:cx="-0.61604997"
     inkscape:cy="19.302899"
     inkscape:window-width="1920"
     inkscape:window-height="1010"
     inkscape:window-x="0"
     inkscape:window-y="0"
     inkscape:window-maximized="1"
     inkscape:current-layer="svg5013" />
  <defs
     id="defs5010">
    <linearGradient
       inkscape:collect="always"
       xlink:href="#linearGradient1871"
       id="linearGradient1873"
       x1="11.046622"
       y1="2.3372049"
       x2="10.794909"
       y2="47.930588"
       gradientUnits="userSpaceOnUse"
       gradientTransform="matrix(0.12026516,0,0,0.11615853,0.28863637,0.25496375)" />
    <linearGradient
       inkscape:collect="always"
       id="linearGradient1871">
      <stop
         style="stop-color:#ffffff;stop-opacity:1;"
         offset="0"
         id="stop1867" />
      <stop
         style="stop-color:#ffffff;stop-opacity:0.1"
         offset="0.12"
         id="stop2515" />
      <stop
         style="stop-color:#ffffff;stop-opacity:0.102"
         offset="0.89999998"
         id="stop2581" />
      <stop
         style="stop-color:#ffffff;stop-opacity:0.502"
         offset="1"
         id="stop1869" />
    </linearGradient>
    <linearGradient
       inkscape:collect="always"
       xlink:href="#linearGradient2290"
       id="linearGradient2292"
       x1="1.9582907"
       y1="0.28538564"
       x2="6.4769249"
       y2="8.5555315"
       gradientUnits="userSpaceOnUse"
       gradientTransform="matrix(0.72413793,0,0,0.70370371,0.10948281,0.06375639)" />
    <linearGradient
       inkscape:collect="always"
       id="linearGradient2290">
      <stop
         style="stop-color:#ea9d60;stop-opacity:1"
         offset="0"
         id="stop2286" />
      <stop
         style="stop-color:#efbe94;stop-opacity:1"
         offset="1"
         id="stop2288" />
    </linearGradient>
    <linearGradient
       inkscape:collect="always"
       xlink:href="#linearGradient2011"
       id="linearGradient2013"
       x1="6.8791666"
       y1="0.66145831"
       x2="6.8791666"
       y2="14.948958"
       gradientUnits="userSpaceOnUse"
       gradientTransform="matrix(1.0000002,0,0,0.47619046,-3.1750006,0.21418656)" />
    <linearGradient
       inkscape:collect="always"
       id="linearGradient2011">
      <stop
         style="stop-color:#f1e2a7;stop-opacity:1;"
         offset="0"
         id="stop2007" />
      <stop
         style="stop-color:#f9f1d2;stop-opacity:1"
         offset="1"
         id="stop2009" />
    </linearGradient>
  </defs>
  <path
     d="M 1.5275554,0.79381578 C 0.28822009,0.80313578 1.9010417e-7,1.1116258 1.9010417e-7,2.3813158 v 2.381217 c 0,1.289844 0.29765619989583,1.5875 1.58750000989583,1.5875 h 3.1749977 c 1.2898438,0 1.5875,-0.297656 1.5875,-1.5875 v -2.381217 c 0,-1.2898437 -0.2976562,-1.58750002 -1.5875,-1.58750002 H 1.5875002 c -0.020153,0 -0.040273,-1.48e-4 -0.059945,0 z"
     style="opacity:0.1;fill:#000000;stroke-width:0.264583;stroke-linecap:round;stroke-linejoin:round"
     id="path9125"
     sodipodi:nodetypes="cssssssssc" />
  <path
     id="rect7669"
     style="fill:#808080;stroke-width:0.264583;stroke-linecap:round;stroke-linejoin:round"
     d="M 1.7973064,0.66145835 C 0.66124888,0.67000474 0.39687501,0.95278432 0.39687501,2.1166667 v 2.1166667 c 0,1.1638823 0.26437379,1.4466584 1.40043139,1.4552084 h 0.054777 2.6458334 c 1.1823568,0 1.4552083,-0.2728518 1.4552083,-1.4552084 V 2.1166667 c 0,-1.1823567 -0.2728515,-1.45520835 -1.4552083,-1.45520835 H 1.8520834 c -0.018474,0 -0.036744,-1.3565e-4 -0.054777,0 z" />
  <path
     id="rect6397"
     style="fill:url(#linearGradient2292);fill-opacity:1;stroke-width:0.182227;stroke-linejoin:round"
     d="M 1.532723,0.39693532 C 0.39666551,0.40548163 0.13229168,0.68826121 0.13229168,1.8521437 v 2.6458334 c 0,1.1638823 0.26437373,1.4466584 1.40043132,1.4552084 H 1.5875 4.7624975 c 1.1823568,0 1.4552083,-0.2728518 1.4552083,-1.4552084 V 1.8521437 c 0,-1.18235679 -0.2728515,-1.45520838 -1.4552083,-1.45520838 H 1.5875 c -0.018474,0 -0.036744,-1.3571e-4 -0.054777,0 z"
     sodipodi:nodetypes="cssccsssssc" />
  <rect
     style="opacity:0.6;fill:url(#linearGradient2013);fill-opacity:1;stroke-width:0.16126;stroke-linecap:round;stroke-linejoin:round"
     id="rect1683"
     width="1.0583334"
     height="5.2916665"
     x="2.6458335"
     y="0.5291667" />
  <path
     id="rect1156"
     style="opacity:0.1;fill:#ffffff;fill-opacity:1;stroke-width:2;stroke-linecap:round;stroke-linejoin:round"
     d="M 12 1.5 L 12 22.5 L 18 22.5 C 22.46875 22.5 23.5 21.468749 23.5 17 L 23.5 7 C 23.5 2.53125 22.46875 1.5 18 1.5 L 12 1.5 z "
     transform="scale(0.26458334)" />
  <path
     d="m 2.3867459,1.3229166 c -0.1096275,0 -0.2038932,0.00765 -0.2828131,0.022992 -0.076737,0.015346 -0.1337469,0.031787 -0.1710214,0.049326 l 0.029586,0.1874626 c 0.028504,-0.010954 0.073446,-0.025188 0.134837,-0.042728 0.061391,-0.017542 0.1546013,-0.026353 0.2795852,-0.026353 0.087699,0 0.1578319,0.014288 0.2104496,0.042783 0.054814,0.0263 0.096491,0.06251 0.1249944,0.1085506 0.030694,0.043849 0.0504,0.094276 0.059169,0.1512808 0.00878,0.054814 0.01315,0.1117706 0.01315,0.1709685 v 0.1052555 c -0.00878,-0.00439 -0.025215,-0.00876 -0.049326,-0.01315 -0.021934,-0.00659 -0.049324,-0.012065 -0.082211,-0.016431 -0.030694,-0.00659 -0.063572,-0.010954 -0.098653,-0.01315 -0.032888,-0.00439 -0.064659,-0.00659 -0.095358,-0.00659 -0.1030473,0 -0.1984137,0.00984 -0.2861205,0.029586 -0.087699,0.019738 -0.1633617,0.051557 -0.226941,0.095406 -0.063585,0.041659 -0.112903,0.095353 -0.1479841,0.161126 -0.035079,0.065778 -0.052626,0.1447085 -0.052626,0.2367915 0,0.09647 0.015346,0.1787207 0.04603,0.2466895 0.032885,0.065773 0.076726,0.1205732 0.1315376,0.1644226 0.057007,0.041656 0.1228143,0.072324 0.1973633,0.092054 0.076737,0.019738 0.1600412,0.029641 0.2499334,0.029641 0.070157,0 0.138131,-0.00333 0.2039064,-0.0099 0.067969,-0.00439 0.1293521,-0.010954 0.1841659,-0.019738 0.054811,-0.00876 0.1030234,-0.016404 0.1446821,-0.022992 0.041656,-0.00878 0.073483,-0.016457 0.095406,-0.023045 V 1.9510904 c 0,-0.089895 -0.01098,-0.1732492 -0.032885,-0.2499889 C 2.9436674,1.624367 2.9085836,1.5586074 2.8603501,1.5037964 2.8121139,1.4467919 2.748516,1.4029504 2.6695855,1.3722561 2.5928484,1.3393684 2.4985853,1.3229272 2.3867724,1.3229272 Z m 1.2184063,0.8573029 v 2.3269046 h 0.2495153 l 0.077814,-0.1004358 c 0.1555591,0.090741 0.3111235,0.1328499 0.4699264,0.1328499 0.4666721,0 0.7421034,-0.3467629 0.7421034,-0.8199173 0,-0.4731544 -0.1911985,-0.8069792 -0.6708511,-0.8069792 -0.1847268,0 -0.3370527,0.045418 -0.4699264,0.1134745 V 2.1802169 Z m -1.1526309,0.047075 c 0.092086,0 0.1644306,0.00659 0.217051,0.019738 0.052618,0.010954 0.090977,0.021934 0.1150937,0.032883 v 0.5985668 c -0.043849,0.00878 -0.097541,0.016404 -0.1611207,0.022992 -0.061391,0.00439 -0.1337389,0.00659 -0.2170509,0.00659 -0.067969,0 -0.1293548,-0.00548 -0.1841659,-0.016431 -0.052618,-0.013176 -0.098671,-0.032911 -0.1381416,-0.059219 -0.037266,-0.0263 -0.066879,-0.061352 -0.088805,-0.105201 -0.019738,-0.043852 -0.029588,-0.097597 -0.029588,-0.1611789 0,-0.07235 0.015346,-0.1304713 0.04603,-0.1743181 0.030694,-0.043849 0.07016,-0.077787 0.1183931,-0.1019069 0.048236,-0.0263 0.100875,-0.042799 0.1578795,-0.049377 0.057004,-0.00878 0.1118023,-0.01315 0.1644227,-0.01315 z m 1.9239178,1.0094383 c 0.2787121,0 0.3694906,0.2009405 0.3694906,0.5055659 0,0.3046254 -0.1425892,0.482891 -0.4083315,0.482891 -0.1296326,0 -0.2398368,-0.032385 -0.3338248,-0.106926 V 3.3242752 c 0.07778,-0.032406 0.2300791,-0.087553 0.3726657,-0.087553 z M 2.4599032,3.6795392 c -0.165608,0 -0.3180292,0.025956 -0.4572529,0.077811 -0.1392185,0.051866 -0.2593182,0.1264947 -0.3603096,0.223856 -0.1000919,0.097367 -0.1783874,0.2165562 -0.2348019,0.3576109 -0.056417,0.1410388 -0.084622,0.3002756 -0.084622,0.4777317 0,0.1110112 0.017304,0.2119868 0.051893,0.3029743 0.034573,0.090993 0.085516,0.1687804 0.1528524,0.233389 0.067334,0.064601 0.1505956,0.1146889 0.2497746,0.1501775 0.099184,0.035489 0.2138601,0.053202 0.3439848,0.053202 0.060968,0 0.1223963,-0.00362 0.1842717,-0.010901 0.061878,-0.00638 0.1218962,-0.015081 0.1801363,-0.025982 0.058235,-0.011827 0.1132893,-0.02503 0.1651556,-0.039587 0.052776,-0.014552 0.1005522,-0.029565 0.1433195,-0.045032 l 0.083259,-0.4299215 h -0.088704 l -0.09829,0.2743465 c -0.028205,0.021828 -0.061881,0.042767 -0.10101,0.062786 -0.039127,0.019103 -0.082338,0.03637 -0.1296538,0.051842 -0.046405,0.015478 -0.096443,0.027765 -0.1501298,0.036862 -0.053684,0.0091 -0.1087385,0.013653 -0.1651556,0.013653 -0.097364,0 -0.1806231,-0.015002 -0.2497773,-0.045035 -0.069154,-0.030028 -0.1260131,-0.07143 -0.1706007,-0.124206 -0.044588,-0.053687 -0.077364,-0.1174248 -0.09829,-0.1911271 -0.020029,-0.073705 -0.030057,-0.153752 -0.030057,-0.2401967 0,-0.160147 0.021431,-0.3052762 0.064198,-0.4353983 0.042765,-0.1301244 0.1018865,-0.241133 0.1774118,-0.3330307 0.076433,-0.091906 0.1669706,-0.1624145 0.2716212,-0.2115502 0.1046428,-0.050049 0.2188713,-0.075091 0.342609,-0.075091 0.087355,0 0.1710664,0.010954 0.2511399,0.032779 0.080076,0.020928 0.1482751,0.05094 0.2046896,0.090069 v 0.237522 h 0.08876 L 3.0577478,3.749122 C 2.9767641,3.7309186 2.8880334,3.7150198 2.7915769,3.7013673 2.6951257,3.6868152 2.5845643,3.6795392 2.4598953,3.6795392 Z"
     style="fill:#000000;opacity:0.1;stroke-width:0.264583;enable-background:new"
     id="path872"
     sodipodi:nodetypes="cccccscccsccccscccscccsccccscccccccccsssccccccccscccsccccccssccccccccscccsccccccccccscccscccscccccccc" />
  <path
     d="m 2.3867458,1.0583333 c -0.1096275,0 -0.2038932,0.00765 -0.2828131,0.022992 -0.076737,0.015346 -0.1337469,0.031787 -0.1710214,0.049326 l 0.029586,0.1874626 c 0.028504,-0.010954 0.073446,-0.025188 0.134837,-0.042728 0.061391,-0.017542 0.1546013,-0.026353 0.2795852,-0.026353 0.087699,0 0.1578319,0.014288 0.2104496,0.042783 0.054814,0.0263 0.096491,0.06251 0.1249945,0.1085506 0.030694,0.043849 0.0504,0.094276 0.059169,0.1512809 0.00878,0.054814 0.01315,0.1117705 0.01315,0.1709684 v 0.1052556 c -0.00878,-0.00439 -0.025215,-0.00876 -0.049326,-0.01315 -0.021934,-0.00659 -0.049324,-0.012065 -0.082211,-0.016431 -0.030694,-0.00659 -0.063572,-0.010954 -0.098653,-0.01315 -0.032888,-0.00439 -0.064659,-0.00659 -0.095358,-0.00659 -0.1030473,0 -0.1984137,0.00984 -0.2861205,0.029586 -0.087699,0.019738 -0.1633617,0.051557 -0.226941,0.095406 -0.063585,0.041659 -0.112903,0.095353 -0.1479841,0.1611259 -0.035079,0.065778 -0.052626,0.1447085 -0.052626,0.2367915 0,0.09647 0.015346,0.1787207 0.04603,0.2466895 0.032885,0.065773 0.076726,0.1205732 0.1315376,0.1644226 0.057007,0.041656 0.1228143,0.072324 0.1973633,0.092054 0.076737,0.019738 0.1600412,0.029641 0.2499334,0.029641 0.070157,0 0.138131,-0.00333 0.2039064,-0.0099 0.067969,-0.00439 0.1293522,-0.010954 0.1841659,-0.019738 0.054811,-0.00876 0.1030235,-0.016404 0.1446821,-0.022992 0.041656,-0.00878 0.073483,-0.016457 0.095406,-0.023045 V 1.6865071 c 0,-0.089895 -0.01098,-0.1732492 -0.032885,-0.2499889 C 2.9436674,1.3597837 2.9085834,1.2940241 2.8603501,1.2392131 2.8121139,1.1822086 2.748516,1.1383671 2.6695855,1.1076728 2.5928483,1.0747851 2.4985852,1.0583439 2.3867723,1.0583439 Z M 3.6051522,1.9156362 V 4.2425408 H 3.8546675 L 3.9324815,4.142105 c 0.1555591,0.090741 0.3111235,0.1328499 0.4699262,0.1328499 0.4666723,0 0.7421036,-0.3467629 0.7421036,-0.8199172 0,-0.4731544 -0.1911985,-0.8069792 -0.670851,-0.8069792 -0.1847271,0 -0.3370528,0.045418 -0.4699265,0.1134745 V 1.9156336 Z m -1.152631,0.047075 c 0.092086,0 0.1644306,0.00659 0.2170511,0.019738 0.052618,0.010954 0.090977,0.021934 0.1150935,0.032883 v 0.5985667 c -0.043849,0.00878 -0.097541,0.016404 -0.1611206,0.022992 -0.061391,0.00439 -0.1337389,0.00659 -0.2170509,0.00659 -0.067969,0 -0.1293548,-0.00548 -0.1841659,-0.016431 -0.052618,-0.013176 -0.098671,-0.032911 -0.1381416,-0.059219 -0.037266,-0.0263 -0.066879,-0.061352 -0.088805,-0.105201 -0.019738,-0.043852 -0.029588,-0.097597 -0.029588,-0.1611789 0,-0.07235 0.015346,-0.1304713 0.04603,-0.1743181 0.030694,-0.043849 0.07016,-0.077787 0.1183931,-0.1019069 0.048236,-0.0263 0.100875,-0.042799 0.1578795,-0.049377 0.057004,-0.00878 0.1118023,-0.01315 0.1644227,-0.01315 z m 1.9239179,1.0094383 c 0.2787121,0 0.3694906,0.2009405 0.3694906,0.5055659 0,0.3046253 -0.1425892,0.482891 -0.4083317,0.482891 -0.1296326,0 -0.2398366,-0.032385 -0.3338248,-0.1069261 V 3.059692 C 4.0815532,3.027286 4.2338525,2.972139 4.3764391,2.972139 Z M 2.4599031,3.414956 c -0.165608,0 -0.3180292,0.025956 -0.4572529,0.077811 C 1.8634317,3.544633 1.743332,3.6192617 1.6423406,3.716623 1.5422487,3.81399 1.4639532,3.9331791 1.4075387,4.0742338 c -0.056417,0.1410388 -0.084622,0.3002756 -0.084622,0.4777317 0,0.1110112 0.017304,0.2119868 0.051893,0.3029744 0.034573,0.090993 0.085516,0.1687803 0.1528524,0.2333889 0.067334,0.064601 0.1505956,0.114689 0.2497746,0.1501775 0.099184,0.035489 0.2138601,0.053202 0.3439848,0.053202 0.060968,0 0.1223963,-0.00362 0.1842717,-0.010901 0.061878,-0.00638 0.1218962,-0.015081 0.1801363,-0.025982 0.058235,-0.011827 0.1132893,-0.02503 0.1651556,-0.039587 0.052776,-0.014552 0.1005522,-0.029565 0.1433195,-0.045032 l 0.083259,-0.4299214 h -0.088704 l -0.09829,0.2743464 c -0.028205,0.021828 -0.061881,0.042767 -0.10101,0.062786 -0.039127,0.019103 -0.082338,0.03637 -0.1296538,0.051842 -0.046405,0.015478 -0.096443,0.027765 -0.1501298,0.036862 -0.053684,0.0091 -0.1087385,0.013653 -0.1651556,0.013653 -0.097364,0 -0.1806231,-0.015002 -0.2497773,-0.045035 C 1.8256891,5.1047113 1.76883,5.0633093 1.7242424,5.0105338 1.6796544,4.9568468 1.6468784,4.8931088 1.6259524,4.8194065 1.6059234,4.7457015 1.5958954,4.6656544 1.5958954,4.5792098 c 0,-0.160147 0.021431,-0.305276 0.064198,-0.4353981 0.042765,-0.1301245 0.1018865,-0.2411331 0.1774118,-0.3330308 0.076433,-0.091906 0.1669706,-0.1624144 0.2716212,-0.2115502 0.1046428,-0.050049 0.2188713,-0.075091 0.342609,-0.075091 0.087355,0 0.1710664,0.010954 0.25114,0.032779 0.080076,0.020928 0.1482749,0.05094 0.2046896,0.090069 v 0.237522 h 0.08876 L 3.057748,3.4845387 C 2.9767639,3.4663354 2.8880332,3.4504366 2.7915767,3.4367841 2.6951255,3.422232 2.5845642,3.414956 2.4598952,3.414956 Z"
     style="fill:#333333;stroke-width:0.0700042;enable-background:new"
     id="path2898" />
  <path
     id="rect5096"
     style="opacity:0.4;stroke-width:0.240954;stroke-linecap:round;stroke-linejoin:round"
     d="M 1.5275554,0.26458333 C 0.28821988,0.27390666 1.0104166e-8,0.58239335 1.0104166e-8,1.8520834 V 4.4978839 C 1.0104166e-8,5.7877277 0.29765627,6.085384 1.5875001,6.085384 h 3.1749975 c 1.2898438,0 1.5875,-0.2976563 1.5875,-1.5875001 V 1.8520834 c 0,-1.28984381 -0.2976562,-1.58750007 -1.5875,-1.58750007 H 1.5875001 c -0.020154,0 -0.040273,-1.4798e-4 -0.059945,0 z m 0.032556,0.26458334 c 0.018033,-1.3565e-4 0.036303,0 0.054777,0 h 3.147609 c 1.1823568,0 1.3229167,0.29315998 1.3229167,1.32291673 v 2.6458005 c 0,1.0162919 -0.1405599,1.3229167 -1.3229167,1.3229167 H 1.5875001 c -0.99193704,0 -1.32291675,-0.1405599 -1.32291675,-1.3229167 V 1.8520834 c 0,-0.96076805 0.15947068,-1.31437034 1.29552805,-1.32291673 z"
     sodipodi:nodetypes="csssssssscssssssssss" />
  <path
     id="rect1565"
     style="fill:url(#linearGradient1873);fill-opacity:1;stroke-width:0.118194"
     d="M 1.5601116,0.52922694 C 0.42405397,0.53777695 0.26458335,0.8913756 0.26458335,1.8521436 V 4.497977 c 0,1.1823568 0.33097974,1.3229167 1.32291675,1.3229167 h 3.1749975 c 1.1823568,0 1.3229167,-0.3066248 1.3229167,-1.3229167 V 1.8521436 c 0,-1.02975658 -0.1405599,-1.32291666 -1.3229167,-1.32291666 h -3.147609 c -0.018473,0 -0.036744,-1.356e-4 -0.054777,0 z m 0.00259,0.26458338 h 0.049609 3.0179 c 1.0641211,0 1.190625,0.14300558 1.190625,1.05833328 V 4.497977 c 0,0.8938382 -0.1265039,1.0583334 -1.190625,1.0583334 H 1.7197917 c -1.02290214,0 -1.19062501,-0.1576914 -1.19062501,-1.0583334 V 1.8521436 c 0,-0.8540052 0.14116471,-1.05833328 1.03352871,-1.05833328 z"
     sodipodi:nodetypes="csssssssscsssssssssss" />
</svg>
