<?xml version="1.0" encoding="UTF-8" standalone="no"?>
<!-- Created with Inkscape (http://www.inkscape.org/) -->

<svg
   width="24"
   height="24"
   viewBox="0 0 6.3499999 6.3500002"
   version="1.1"
   id="svg5013"
   sodipodi:docname="system-file-manager.svg"
   inkscape:version="1.1.2 (0a00cf5339, 2022-02-04)"
   xmlns:inkscape="http://www.inkscape.org/namespaces/inkscape"
   xmlns:sodipodi="http://sodipodi.sourceforge.net/DTD/sodipodi-0.dtd"
   xmlns:xlink="http://www.w3.org/1999/xlink"
   xmlns="http://www.w3.org/2000/svg"
   xmlns:svg="http://www.w3.org/2000/svg">
  <sodipodi:namedview
     id="namedview5015"
     pagecolor="#ffffff"
     bordercolor="#666666"
     borderopacity="1.0"
     inkscape:pageshadow="2"
     inkscape:pageopacity="0.0"
     inkscape:pagecheckerboard="0"
     inkscape:document-units="px"
     showgrid="false"
     units="px"
     showguides="true"
     inkscape:zoom="13.333698"
     inkscape:cx="-1.1624682"
     inkscape:cy="28.199228"
     inkscape:window-width="1920"
     inkscape:window-height="1010"
     inkscape:window-x="0"
     inkscape:window-y="0"
     inkscape:window-maximized="1"
     inkscape:current-layer="svg5013" />
  <defs
     id="defs5010">
    <linearGradient
       inkscape:collect="always"
       xlink:href="#linearGradient2290"
       id="linearGradient2292"
       x1="-0.15119053"
       y1="-0.27850887"
       x2="8.617857"
       y2="8.7451754"
       gradientUnits="userSpaceOnUse"
       gradientTransform="matrix(2.7368992,0,0,2.6596675,0.41379328,0.74074097)" />
    <linearGradient
       inkscape:collect="always"
       id="linearGradient2290">
      <stop
         style="stop-color:#948b74;stop-opacity:1"
         offset="0"
         id="stop2286" />
      <stop
         style="stop-color:#aea795;stop-opacity:1"
         offset="1"
         id="stop2288" />
    </linearGradient>
    <linearGradient
       inkscape:collect="always"
       xlink:href="#linearGradient1871"
       id="linearGradient1873"
       x1="11.046622"
       y1="2.3372049"
       x2="10.794909"
       y2="47.930588"
       gradientUnits="userSpaceOnUse"
       gradientTransform="matrix(0.12026516,0,0,0.11615853,0.2886364,0.25502952)" />
    <linearGradient
       inkscape:collect="always"
       id="linearGradient1871">
      <stop
         style="stop-color:#ffffff;stop-opacity:1;"
         offset="0"
         id="stop1867" />
      <stop
         style="stop-color:#ffffff;stop-opacity:0.1"
         offset="0.12"
         id="stop2515" />
      <stop
         style="stop-color:#ffffff;stop-opacity:0.102"
         offset="0.89999998"
         id="stop2581" />
      <stop
         style="stop-color:#ffffff;stop-opacity:0.502"
         offset="1"
         id="stop1869" />
    </linearGradient>
  </defs>
  <path
     d="M 1.5275554,0.79388155 C 0.2882201,0.80320155 2e-7,1.1116916 2e-7,2.3813816 v 2.381217 c 0,1.289844 0.2976562,1.5875 1.5875,1.5875 h 3.1749977 c 1.2898438,0 1.5875,-0.297656 1.5875,-1.5875 v -2.381217 c 0,-1.2898437 -0.2976562,-1.58750005 -1.5875,-1.58750005 H 1.5875002 c -0.020153,0 -0.040273,-1.48e-4 -0.059945,0 z"
     style="opacity:0.1;fill:#000000;stroke-width:0.264583;stroke-linecap:round;stroke-linejoin:round"
     id="path9125"
     sodipodi:nodetypes="cssssssssc" />
  <path
     id="rect7669"
     style="fill:#808080;stroke-width:0.264583;stroke-linecap:round;stroke-linejoin:round"
     d="M 1.7973064,0.66145835 C 0.66124888,0.67000474 0.39687501,0.95278432 0.39687501,2.1166667 v 2.1166667 c 0,1.1638823 0.26437379,1.4466584 1.40043139,1.4552084 h 0.054777 2.6458334 c 1.1823568,0 1.4552083,-0.2728518 1.4552083,-1.4552084 V 2.1166667 c 0,-1.1823567 -0.2728515,-1.45520835 -1.4552083,-1.45520835 H 1.8520834 c -0.018474,0 -0.036744,-1.3565e-4 -0.054777,0 z" />
  <path
     id="rect6397"
     style="fill:url(#linearGradient2292);fill-opacity:1;stroke-width:0.688732;stroke-linejoin:round"
     d="M 5.7929688 1.5 C 1.4992082 1.532301 0.5 2.6010738 0.5 7 L 0.5 17 C 0.5 21.398925 1.4992078 22.467685 5.7929688 22.5 L 6 22.5 L 18 22.5 C 22.46875 22.5 23.5 21.468749 23.5 17 L 23.5 7 C 23.5 2.5312497 22.46875 1.5 18 1.5 L 6 1.5 C 5.930177 1.5 5.861125 1.4994871 5.7929688 1.5 z "
     transform="scale(0.26458334)" />
  <path
     id="path874"
     style="color:#000000;opacity:0.1;fill:#000000;stroke-width:0.529167;stroke-linejoin:round;-inkscape-stroke:none"
     d="M 2.1120154,1.0583515 C 1.7866451,1.0621015 1.4976536,1.0360445 1.211812,1.1937438 1.0540381,1.2807898 0.93402401,1.4244778 0.86971401,1.5957864 c -0.060602,0.1614446 -0.075964,0.3313509 -0.075964,0.5208985 v 0.5286499 0.9528808 0.4764569 0.1586466 c 0,0.1896253 0.015532,0.3596317 0.075964,0.5208984 0.06422,0.1710682 0.18371829,0.3151751 0.34209799,0.4025593 0.2861589,0.1578909 0.5751134,0.1311291 0.9002034,0.1348756 0.00103,6.1e-6 0.00207,6.1e-6 0.0031,0 h 0.00155 2.1166733 0.00156 c 0.00103,6.1e-6 0.00207,6.1e-6 0.0031,0 0.3250934,-0.00375 0.6140483,0.023016 0.9002068,-0.1348756 0.1583796,-0.087384 0.2778782,-0.2314911 0.3420981,-0.4025593 h 5.292e-4 C 5.5412588,4.592855 5.5562628,4.4228758 5.5562568,4.2333191 V 3.5982156 2.3812682 c 0,-0.1895448 -0.015351,-0.3594455 -0.075964,-0.5208985 -0.014238,-0.037922 -0.027608,-0.060817 -0.032556,-0.07028 -6.794e-4,-0.00104 -0.00137,-0.00207 -0.00206,-0.0031 0.00697,0.012894 0.00577,0.00957 -0.00414,-0.00982 v -5.159e-4 c -0.03256,-0.063518 -0.074107,-0.1230337 -0.1240234,-0.1762167 -0.00386,-0.00417 -0.00749,-0.00841 -0.00982,-0.010852 -8.554e-4,-0.00104 -0.00172,-0.00207 -0.00259,-0.0031 -0.039726,-0.040289 -0.086963,-0.079656 -0.1431368,-0.1136888 0.044135,0.029424 0.037967,0.018921 -0.023254,-0.014986 H 5.1381835 C 5.0658149,1.417873 4.9909306,1.3903617 4.9175358,1.3715107 4.6951339,1.3143941 4.4819535,1.3257556 4.2379905,1.3229348 c -0.00103,-6.1e-6 -0.00207,-6.1e-6 -0.0031,0 h -5.301e-4 -0.00102 -0.94879 L 3.097481,1.1358662 C 3.0478685,1.0862472 2.9805795,1.058365 2.9104123,1.0583515 H 2.1182166 c -0.00207,-2.42e-5 -0.00413,-2.42e-5 -0.0062,0 z"
     sodipodi:nodetypes="sccscccscccccccccccccsccccccccccccccccccccss" />
  <path
     d="M 2.1147069,1.5875262 C 1.7818081,1.5913626 1.5387387,1.5799562 1.3395604,1.6898455 1.2399686,1.7447916 1.160918,1.8373438 1.1173517,1.9533953 1.0737881,2.0694495 1.0584406,2.2072887 1.0584406,2.3812761 v 1.0577842 0.4237468 0.4764567 0.1586468 c 0,0.1739898 0.015419,0.3118292 0.058911,0.4278807 0.043566,0.1160516 0.1226169,0.209118 0.2222087,0.2640667 0.1991783,0.1098999 0.4427645,0.097966 0.7756633,0.1018026 h 0.00155 2.1166735 0.00156 C 4.5679074,5.2878106 4.811491,5.2997506 5.010672,5.189858 5.110264,5.134909 5.1893142,5.0418376 5.2328805,4.9257913 5.2764465,4.8097451 5.2917945,4.6719004 5.2917915,4.4979106 V 3.8628071 2.6458595 c -1.3e-6,-0.086995 -0.00415,-0.1649286 -0.013435,-0.2356446 -0.00465,-0.035358 -0.010533,-0.068808 -0.018098,-0.100769 -0.00757,-0.031961 -0.0165,-0.062454 -0.027389,-0.091467 -0.029952,-0.079785 -0.077269,-0.1480344 -0.1359088,-0.2010214 -1.805e-4,-1.628e-4 -3.44e-4,-3.44e-4 -5.292e-4,-5.292e-4 -4.498e-4,-4.233e-4 -0.00108,-6.086e-4 -0.00156,-0.00103 -0.00629,-0.00562 -0.012562,-0.011277 -0.019121,-0.016536 -0.00725,-0.00593 -0.014642,-0.01161 -0.02222,-0.017052 -0.00228,-0.00164 -0.0044,-0.00357 -0.00672,-0.00517 -0.00206,-0.0014 -0.00411,-0.00276 -0.0062,-0.00414 -0.00984,-0.00654 -0.019627,-0.012896 -0.029972,-0.018603 -0.049776,-0.027474 -0.102576,-0.0471 -0.1586232,-0.061495 -0.056047,-0.014396 -0.1156166,-0.023323 -0.1793172,-0.028939 -0.063701,-0.00562 -0.1313621,-0.00816 -0.2041218,-0.0093 -0.072761,-0.00119 -0.1503529,-0.00111 -0.2335776,-0.00206 H 4.2344684 3.1750909 L 2.9105076,1.5875182 H 2.1152237 Z"
     style="font-variant-ligatures:none;font-variant-position:normal;font-variant-caps:normal;font-variant-numeric:normal;font-variant-alternates:normal;font-feature-settings:normal;text-indent:0;text-decoration-line:none;text-decoration-style:solid;text-decoration-color:#000000;text-transform:none;white-space:normal;shape-padding:0;opacity:0.1;isolation:auto;mix-blend-mode:normal;stroke-width:0.264583"
     id="path1020"
     sodipodi:nodetypes="cscscccsccccccssccccccscccccccscccccccc" />
  <path
     d="M 2.1151053,1.3229299 C 1.7822066,1.3267664 1.5386312,1.3153629 1.3394528,1.4252523 1.239861,1.4801983 1.1608114,1.5727469 1.1172452,1.6887984 1.0736815,1.8048526 1.058333,1.950557 1.058333,2.1166826 v 1.4816872 h 4.23334 V 2.381266 C 5.291673,2.2072786 5.276327,2.069428 5.232761,1.9533818 5.227341,1.9389358 5.220087,1.9258678 5.213129,1.9125588 5.210479,1.9076688 5.208419,1.9024778 5.205909,1.8975568 5.1602121,1.8079297 5.0933334,1.7349656 5.0105691,1.6893038 4.8113722,1.5794065 4.5678153,1.5913471 4.2349166,1.5875001 h -0.00159 l -1.0582382,7.9e-6 -0.2645833,-0.2645833 -0.7949101,-8e-6 z"
     style="color:#000000;font-variant-ligatures:none;font-variant-position:normal;font-variant-caps:normal;font-variant-numeric:normal;font-variant-alternates:normal;font-feature-settings:normal;text-indent:0;text-decoration-line:none;text-decoration-style:solid;text-decoration-color:#000000;text-transform:none;white-space:normal;shape-padding:0;isolation:auto;mix-blend-mode:normal;solid-color:#000000;fill:#e3dfd5;stroke-width:0.264583;color-rendering:auto;image-rendering:auto;shape-rendering:auto"
     id="path1630"
     sodipodi:nodetypes="cscsccssccccccccc" />
  <path
     d="m 4.2353981,1.587545 c 0.3328988,0.00384 0.5764742,-0.00757 0.7756525,0.1023197 0.099592,0.054949 0.1786414,0.1474973 0.2222077,0.2635488 0.043564,0.1160516 0.058909,0.2538942 0.058912,0.4278842 l 3.71e-5,1.8521041 C 5.29221,4.4073918 5.2768614,4.5452397 5.2332954,4.661286 5.1897291,4.7773322 5.1106795,4.8704021 5.0110877,4.9253507 4.8119067,5.0352454 4.5683339,5.0233074 4.2354352,5.0271545 h -0.00159 -2.1166734 -0.00159 C 1.782688,5.023318 1.5391126,5.0352507 1.3399343,4.9253507 1.2403425,4.8704021 1.1612929,4.7773375 1.1177266,4.661286 1.0742344,4.5452344 1.0588886,4.4073918 1.0588886,4.2334018 v -0.15875 L 1.0588515,2.645299 c -5.3e-6,-0.1739874 0.015346,-0.311838 0.058912,-0.4278842 0.00542,-0.014446 0.012674,-0.027514 0.019632,-0.040825 0.00265,-0.00489 0.00471,-0.010054 0.00722,-0.014975 0.045697,-0.089628 0.1125756,-0.1625924 0.19534,-0.2082542 0.1991968,-0.1098973 0.4427802,-0.097957 0.7756789,-0.1018037 h 0.00159 l 0.7938254,5.291e-4 0.2645834,-0.2645833 1.0592965,1.06e-5 z"
     style="color:#000000;font-variant-ligatures:none;font-variant-position:normal;font-variant-caps:normal;font-variant-numeric:normal;font-variant-alternates:normal;font-feature-settings:normal;text-indent:0;text-decoration-line:none;text-decoration-style:solid;text-decoration-color:#000000;text-transform:none;white-space:normal;shape-padding:0;isolation:auto;mix-blend-mode:normal;solid-color:#000000;fill:#faf8f6;stroke-width:0.264583;color-rendering:auto;image-rendering:auto;shape-rendering:auto"
     id="path1510"
     sodipodi:nodetypes="cccccssccccccsccsccccccccc" />
  <path
     id="rect1565"
     style="fill:url(#linearGradient1873);fill-opacity:1;stroke-width:0.118194"
     d="M 1.5601116,0.52929271 C 0.424054,0.53784272 0.2645833,0.89144137 0.2645833,1.8522094 v 2.6458334 c 0,1.1823568 0.3309798,1.3229167 1.3229168,1.3229167 h 3.1749975 c 1.1823568,0 1.3229167,-0.3066248 1.3229167,-1.3229167 V 1.8522094 c 0,-1.02975661 -0.1405599,-1.32291669 -1.3229167,-1.32291669 h -3.147609 c -0.018473,0 -0.036744,-1.356e-4 -0.054777,0 z m 0.00259,0.26458338 h 0.049609 3.0179 c 1.0641211,0 1.190625,0.14300558 1.190625,1.05833331 v 2.6458334 c 0,0.8938382 -0.1265039,1.0583334 -1.190625,1.0583334 H 1.7197917 c -1.0229021,0 -1.190625,-0.1576914 -1.190625,-1.0583334 V 1.8522094 c 0,-0.85400523 0.1411647,-1.05833331 1.0335287,-1.05833331 z"
     sodipodi:nodetypes="csssssssscsssssssssss" />
  <path
     id="rect5096"
     style="opacity:0.4;stroke-width:0.240954;stroke-linecap:round;stroke-linejoin:round"
     d="M 1.5275554,0.2646491 C 0.2882199,0.27397243 0,0.58245912 0,1.8521492 v 2.6458005 c 0,1.2898438 0.2976563,1.5875001 1.5875001,1.5875001 h 3.1749975 c 1.2898438,0 1.5875,-0.2976563 1.5875,-1.5875001 V 1.8521492 c 0,-1.28984384 -0.2976562,-1.5875001 -1.5875,-1.5875001 H 1.5875001 c -0.020154,0 -0.040273,-1.4798e-4 -0.059945,0 z m 0.032556,0.26458334 c 0.018033,-1.3565e-4 0.036303,0 0.054777,0 h 3.147609 c 1.1823568,0 1.3229167,0.29315998 1.3229167,1.32291676 v 2.6458005 c 0,1.0162919 -0.1405599,1.3229167 -1.3229167,1.3229167 H 1.5875001 c -0.991937,0 -1.3229168,-0.1405599 -1.3229168,-1.3229167 V 1.8521492 c 0,-0.96076808 0.1594707,-1.31437037 1.2955281,-1.32291676 z"
     sodipodi:nodetypes="csssssssscssssssssss" />
</svg>
