<?xml version="1.0" encoding="UTF-8" standalone="no"?>
<!-- Created with Inkscape (http://www.inkscape.org/) -->

<svg
   width="24"
   height="24"
   viewBox="0 0 6.3499999 6.3500002"
   version="1.1"
   id="svg5013"
   sodipodi:docname="applications-development.svg"
   inkscape:version="1.1.2 (0a00cf5339, 2022-02-04)"
   xmlns:inkscape="http://www.inkscape.org/namespaces/inkscape"
   xmlns:sodipodi="http://sodipodi.sourceforge.net/DTD/sodipodi-0.dtd"
   xmlns:xlink="http://www.w3.org/1999/xlink"
   xmlns="http://www.w3.org/2000/svg"
   xmlns:svg="http://www.w3.org/2000/svg">
  <sodipodi:namedview
     id="namedview5015"
     pagecolor="#ffffff"
     bordercolor="#666666"
     borderopacity="1.0"
     inkscape:pageshadow="2"
     inkscape:pageopacity="0.0"
     inkscape:pagecheckerboard="0"
     inkscape:document-units="px"
     showgrid="false"
     units="px"
     showguides="true"
     inkscape:zoom="24.348674"
     inkscape:cx="5.9346148"
     inkscape:cy="11.62281"
     inkscape:window-width="1920"
     inkscape:window-height="998"
     inkscape:window-x="0"
     inkscape:window-y="0"
     inkscape:window-maximized="1"
     inkscape:current-layer="svg5013" />
  <defs
     id="defs5010">
    <linearGradient
       inkscape:collect="always"
       xlink:href="#linearGradient1871"
       id="linearGradient1873"
       x1="11.046622"
       y1="2.3372049"
       x2="10.794909"
       y2="47.930588"
       gradientUnits="userSpaceOnUse"
       gradientTransform="matrix(0.12026516,0,0,0.11615853,0.28863637,0.25496375)" />
    <linearGradient
       inkscape:collect="always"
       id="linearGradient1871">
      <stop
         style="stop-color:#ffffff;stop-opacity:1;"
         offset="0"
         id="stop1867" />
      <stop
         style="stop-color:#ffffff;stop-opacity:0.1"
         offset="0.12"
         id="stop2515" />
      <stop
         style="stop-color:#ffffff;stop-opacity:0.102"
         offset="0.89999998"
         id="stop2581" />
      <stop
         style="stop-color:#ffffff;stop-opacity:0.502"
         offset="1"
         id="stop1869" />
    </linearGradient>
    <linearGradient
       inkscape:collect="always"
       xlink:href="#linearGradient2290"
       id="linearGradient2292"
       x1="1.9582907"
       y1="0.28538564"
       x2="6.4769249"
       y2="8.5555315"
       gradientUnits="userSpaceOnUse"
       gradientTransform="matrix(0.72413793,0,0,0.70370371,0.10948276,0.06375641)" />
    <linearGradient
       inkscape:collect="always"
       id="linearGradient2290">
      <stop
         style="stop-color:#9b33ae;stop-opacity:1"
         offset="0"
         id="stop2286" />
      <stop
         style="stop-color:#e97cc8;stop-opacity:1"
         offset="1"
         id="stop2288" />
    </linearGradient>
    <linearGradient
       inkscape:collect="always"
       xlink:href="#linearGradient2290"
       id="linearGradient1209"
       gradientUnits="userSpaceOnUse"
       gradientTransform="matrix(0.72413793,0,0,0.70370371,0.10961544,0.06391412)"
       x1="2.0066428"
       y1="1.037221"
       x2="2.0066428"
       y2="8.5569582" />
  </defs>
  <path
     d="M 1.5275554,0.79381578 C 0.28822009,0.80313578 1.9010417e-7,1.1116258 1.9010417e-7,2.3813158 v 2.381217 c 0,1.289844 0.29765619989583,1.5875 1.58750000989583,1.5875 h 3.1749977 c 1.2898438,0 1.5875,-0.297656 1.5875,-1.5875 v -2.381217 c 0,-1.2898437 -0.2976562,-1.58750002 -1.5875,-1.58750002 H 1.5875002 c -0.020153,0 -0.040273,-1.48e-4 -0.059945,0 z"
     style="opacity:0.1;fill:#000000;stroke-width:0.264583;stroke-linecap:round;stroke-linejoin:round"
     id="path9125"
     sodipodi:nodetypes="cssssssssc" />
  <path
     id="rect6397"
     style="fill:url(#linearGradient2292);fill-opacity:1;stroke-width:0.182227;stroke-linejoin:round"
     d="M 1.5327229,0.39693531 C 0.39666546,0.40548531 0.13229166,0.68826122 0.13229166,1.8521437 v 2.6458334 c 0,1.1638823 0.2643737,1.4466584 1.40043124,1.4552084 h 0.054777 3.1749975 c 1.1823568,0 1.4552083,-0.2728518 1.4552083,-1.4552084 V 1.8521437 c 0,-1.18235678 -0.2728515,-1.45520839 -1.4552083,-1.45520839 H 1.5874999 c -0.018474,0 -0.036744,-1.357e-4 -0.054777,0 z"
     sodipodi:nodetypes="cssccsssssc" />
  <path
     id="rect6397-6"
     style="fill:url(#linearGradient1209);fill-opacity:1;stroke-width:0.182227;stroke-linejoin:round"
     d="m 1.5627016,0.79381032 c -0.89236393,0 -1.03352867,0.20432814 -1.03352867,1.05833338 v 2.6458334 c 0,0.900642 0.16772282,1.0583334 1.19062507,1.0583334 h 2.9104167 c 1.0641211,0 1.1906251,-0.1644952 1.1906251,-1.0583334 V 1.8521437 c 0,-0.91532775 -0.126504,-1.05833338 -1.1906251,-1.05833338 H 1.612311 Z"
     sodipodi:nodetypes="sssssssscs" />
  <path
     d="M 2.5705012,3.9586059 C 2.8688189,3.648038 3.1413927,3.3251669 3.1762119,3.2411088 3.2110257,3.157048 3.3482942,2.9910617 3.48125,2.8722532 3.8292829,2.5612619 4.0323242,2.5856565 4.207055,2.9594784 c 0.044519,0.095247 0.1057937,0.1731724 0.1361652,0.1731724 0.069469,0 0.3898106,-0.3118379 0.3898106,-0.3794654 0,-0.087606 -0.164375,-0.2386013 -0.2597467,-0.2386013 -0.1005576,0 -0.1968553,-0.1444043 -0.1968553,-0.2951956 0,-0.114263 -0.3145367,-0.4323292 -0.5428721,-0.5489575 C 3.6247653,1.614861 3.437435,1.5875 3.1657873,1.5875 c -0.4106334,0 -0.5822421,0.068038 -0.319458,0.1266349 0.078954,0.017595 0.2275497,0.1023011 0.3302001,0.1882087 0.2643399,0.2212049 0.2536851,0.3874029 -0.047805,0.7456752 -0.1289552,0.1532467 -0.266065,0.2786063 -0.3047206,0.2786063 -0.08545,0 -1.2365038,1.0701602 -1.2365038,1.1496146 0,0.059981 0.3533775,0.44704 0.4081463,0.44704 0.017833,0 0.2764896,-0.2541006 0.5748073,-0.5646738 z"
     style="opacity:1;fill:#ffffff;fill-opacity:1;stroke-width:0.0990706;enable-background:new"
     id="path983" />
  <path
     id="rect5096"
     style="opacity:0.4;stroke-width:0.240954;stroke-linecap:round;stroke-linejoin:round"
     d="M 1.5275554,0.26458333 C 0.28821988,0.27390666 1.0104166e-8,0.58239335 1.0104166e-8,1.8520834 V 4.4978839 C 1.0104166e-8,5.7877277 0.29765627,6.085384 1.5875001,6.085384 h 3.1749975 c 1.2898438,0 1.5875,-0.2976563 1.5875,-1.5875001 V 1.8520834 c 0,-1.28984381 -0.2976562,-1.58750007 -1.5875,-1.58750007 H 1.5875001 c -0.020154,0 -0.040273,-1.4798e-4 -0.059945,0 z m 0.032556,0.26458334 c 0.018033,-1.3565e-4 0.036303,0 0.054777,0 h 3.147609 c 1.1823568,0 1.3229167,0.29315998 1.3229167,1.32291673 v 2.6458005 c 0,1.0162919 -0.1405599,1.3229167 -1.3229167,1.3229167 H 1.5875001 c -0.99193704,0 -1.32291675,-0.1405599 -1.32291675,-1.3229167 V 1.8520834 c 0,-0.96076805 0.15947068,-1.31437034 1.29552805,-1.32291673 z"
     sodipodi:nodetypes="csssssssscssssssssss" />
  <path
     id="rect1565"
     style="fill:url(#linearGradient1873);fill-opacity:1;stroke-width:0.118194"
     d="M 1.5601116,0.52922694 C 0.42405397,0.53777695 0.26458335,0.8913756 0.26458335,1.8521436 V 4.497977 c 0,1.1823568 0.33097974,1.3229167 1.32291675,1.3229167 h 3.1749975 c 1.1823568,0 1.3229167,-0.3066248 1.3229167,-1.3229167 V 1.8521436 c 0,-1.02975658 -0.1405599,-1.32291666 -1.3229167,-1.32291666 h -3.147609 c -0.018473,0 -0.036744,-1.356e-4 -0.054777,0 z m 0.00259,0.26458338 h 0.049609 3.0179 c 1.0641211,0 1.190625,0.14300558 1.190625,1.05833328 V 4.497977 c 0,0.8938382 -0.1265039,1.0583334 -1.190625,1.0583334 H 1.7197917 c -1.02290214,0 -1.19062501,-0.1576914 -1.19062501,-1.0583334 V 1.8521436 c 0,-0.8540052 0.14116471,-1.05833328 1.03352871,-1.05833328 z"
     sodipodi:nodetypes="csssssssscsssssssssss" />
</svg>
