<?xml version="1.0" encoding="UTF-8" standalone="no"?>
<!-- Created with Inkscape (http://www.inkscape.org/) -->

<svg
   width="24"
   height="24"
   viewBox="0 0 6.3499999 6.3500002"
   version="1.1"
   id="svg5013"
   sodipodi:docname="firefox-trunk.svg"
   inkscape:version="1.1.2 (0a00cf5339, 2022-02-04)"
   xmlns:inkscape="http://www.inkscape.org/namespaces/inkscape"
   xmlns:sodipodi="http://sodipodi.sourceforge.net/DTD/sodipodi-0.dtd"
   xmlns:xlink="http://www.w3.org/1999/xlink"
   xmlns="http://www.w3.org/2000/svg"
   xmlns:svg="http://www.w3.org/2000/svg">
  <sodipodi:namedview
     id="namedview5015"
     pagecolor="#ffffff"
     bordercolor="#666666"
     borderopacity="1.0"
     inkscape:pageshadow="2"
     inkscape:pageopacity="0.0"
     inkscape:pagecheckerboard="0"
     inkscape:document-units="px"
     showgrid="false"
     units="px"
     showguides="true"
     inkscape:zoom="17.217113"
     inkscape:cx="2.6136786"
     inkscape:cy="18.266709"
     inkscape:window-width="1851"
     inkscape:window-height="1016"
     inkscape:window-x="0"
     inkscape:window-y="0"
     inkscape:window-maximized="1"
     inkscape:current-layer="svg5013" />
  <defs
     id="defs5010">
    <linearGradient
       inkscape:collect="always"
       xlink:href="#linearGradient1871"
       id="linearGradient1873"
       x1="11.046622"
       y1="2.3372049"
       x2="10.794909"
       y2="47.930588"
       gradientUnits="userSpaceOnUse"
       gradientTransform="matrix(0.12026516,0,0,0.11615853,0.28863637,0.25496375)" />
    <linearGradient
       inkscape:collect="always"
       id="linearGradient1871">
      <stop
         style="stop-color:#ffffff;stop-opacity:1;"
         offset="0"
         id="stop1867" />
      <stop
         style="stop-color:#ffffff;stop-opacity:0.1"
         offset="0.12"
         id="stop2515" />
      <stop
         style="stop-color:#ffffff;stop-opacity:0.102"
         offset="0.89999998"
         id="stop2581" />
      <stop
         style="stop-color:#ffffff;stop-opacity:0.502"
         offset="1"
         id="stop1869" />
    </linearGradient>
    <linearGradient
       id="a-76"
       x1="74.803001"
       y1="20.542999"
       x2="7.7420001"
       y2="62.785999"
       gradientUnits="userSpaceOnUse"
       gradientTransform="matrix(0.06151618,0,0,0.06151618,0.71378042,0.79349746)">
      <stop
         offset="0"
         stop-color="#3fe1b0"
         id="stop4973" />
      <stop
         offset=".406"
         stop-color="#00b3f4"
         id="stop4975" />
      <stop
         offset=".421"
         stop-color="#03b0f4"
         id="stop4977" />
      <stop
         offset=".818"
         stop-color="#5561e9"
         id="stop4979" />
      <stop
         offset="1"
         stop-color="#7542e5"
         id="stop4981" />
    </linearGradient>
    <radialGradient
       id="b-3"
       cx="-7907.187"
       cy="-8515.1211"
       r="80.796997"
       gradientTransform="matrix(0.06151618,0,0,0.06151618,491.30525,525.15732)"
       gradientUnits="userSpaceOnUse">
      <stop
         offset=".108"
         stop-color="#3fe1b0"
         id="stop4984" />
      <stop
         offset=".122"
         stop-color="#3bdcb3"
         id="stop4986" />
      <stop
         offset=".254"
         stop-color="#1bb3d3"
         id="stop4988" />
      <stop
         offset=".358"
         stop-color="#0799e6"
         id="stop4990" />
      <stop
         offset=".42"
         stop-color="#0090ed"
         id="stop4992" />
      <stop
         offset=".487"
         stop-color="#2482f1"
         id="stop4994" />
      <stop
         offset=".64"
         stop-color="#7165fb"
         id="stop4996" />
      <stop
         offset=".71"
         stop-color="#9059ff"
         id="stop4998" />
      <stop
         offset=".795"
         stop-color="#7d49ed"
         id="stop5000" />
      <stop
         offset=".86"
         stop-color="#7542e5"
         id="stop5002" />
    </radialGradient>
    <radialGradient
       id="c-5"
       cx="-7936.7109"
       cy="-8482.0889"
       r="80.796997"
       gradientTransform="matrix(0.06151618,0,0,0.06151618,491.30525,525.15732)"
       gradientUnits="userSpaceOnUse">
      <stop
         offset=".3"
         stop-color="#45278d"
         id="stop5005" />
      <stop
         offset=".341"
         stop-color="#562896"
         stop-opacity=".787"
         id="stop5007" />
      <stop
         offset=".43"
         stop-color="#782aa9"
         stop-opacity=".364"
         id="stop5009" />
      <stop
         offset=".495"
         stop-color="#8d2bb5"
         stop-opacity=".1"
         id="stop5011" />
      <stop
         offset=".53"
         stop-color="#952bb9"
         stop-opacity="0"
         id="stop5013" />
    </radialGradient>
    <radialGradient
       id="d-2"
       cx="-7926.9702"
       cy="-8533.457"
       r="58.534"
       gradientTransform="matrix(0.06151618,0,0,0.06151618,491.30525,525.15732)"
       gradientUnits="userSpaceOnUse">
      <stop
         offset=".132"
         stop-color="#3fe1b0"
         id="stop5016" />
      <stop
         offset=".289"
         stop-color="#28d0c8"
         id="stop5018" />
      <stop
         offset=".526"
         stop-color="#00b3f4"
         id="stop5020" />
    </radialGradient>
    <radialGradient
       id="e-1"
       cx="-7945.6479"
       cy="-8460.9844"
       r="38.471001"
       gradientTransform="matrix(0.06151618,0,0,0.06151618,491.30525,525.15732)"
       gradientUnits="userSpaceOnUse">
      <stop
         offset=".287"
         stop-color="#0060df"
         id="stop5023" />
      <stop
         offset=".417"
         stop-color="#2357e1"
         id="stop5025" />
      <stop
         offset=".604"
         stop-color="#4f4ce3"
         id="stop5027" />
      <stop
         offset=".748"
         stop-color="#6b45e4"
         id="stop5029" />
      <stop
         offset=".833"
         stop-color="#7542e5"
         id="stop5031" />
    </radialGradient>
    <radialGradient
       id="f-2"
       cx="-7935.6201"
       cy="-8491.5459"
       r="20.396999"
       gradientTransform="matrix(0.05979372,-0.0144563,0.01691695,0.07000541,621.49204,482.69873)"
       gradientUnits="userSpaceOnUse">
      <stop
         offset=".206"
         stop-color="#45278d"
         stop-opacity="0"
         id="stop5034" />
      <stop
         offset=".251"
         stop-color="#44268a"
         stop-opacity=".055"
         id="stop5036" />
      <stop
         offset=".725"
         stop-color="#371f6f"
         stop-opacity=".591"
         id="stop5038" />
      <stop
         offset=".956"
         stop-color="#321c64"
         stop-opacity=".8"
         id="stop5040" />
    </radialGradient>
    <radialGradient
       id="g-7"
       cx="-7943.645"
       cy="-8466.5225"
       r="0.62599999"
       gradientTransform="matrix(0.06151618,0,0,0.06151618,491.30525,525.15732)"
       gradientUnits="userSpaceOnUse">
      <stop
         offset=".353"
         stop-color="#3a8ee6"
         id="stop5043" />
      <stop
         offset=".472"
         stop-color="#5c79f0"
         id="stop5045" />
      <stop
         offset=".669"
         stop-color="#9059ff"
         id="stop5047" />
      <stop
         offset="1"
         stop-color="#c139e6"
         id="stop5049" />
    </radialGradient>
    <radialGradient
       id="h-4"
       cx="-7943.48"
       cy="-8466.749"
       r="0.22400001"
       gradientTransform="matrix(0.05979372,-0.0144563,0.01691695,0.07000541,621.05837,482.37383)"
       gradientUnits="userSpaceOnUse">
      <stop
         offset=".206"
         stop-color="#9059ff"
         stop-opacity="0"
         id="stop5052" />
      <stop
         offset=".278"
         stop-color="#8c4ff3"
         stop-opacity=".064"
         id="stop5054" />
      <stop
         offset=".747"
         stop-color="#7716a8"
         stop-opacity=".45"
         id="stop5056" />
      <stop
         offset=".975"
         stop-color="#6e008b"
         stop-opacity=".6"
         id="stop5058" />
    </radialGradient>
    <radialGradient
       id="i-6"
       cx="-7937.731"
       cy="-8518.4268"
       r="27.676001"
       gradientTransform="matrix(0.06151618,0,0,0.06151618,491.30525,525.15732)"
       gradientUnits="userSpaceOnUse">
      <stop
         offset="0"
         stop-color="#0df"
         id="stop5061" />
      <stop
         offset=".235"
         stop-color="#00d6fd"
         id="stop5063" />
      <stop
         offset=".572"
         stop-color="#00c3f8"
         id="stop5065" />
      <stop
         offset=".792"
         stop-color="#00b3f4"
         id="stop5067" />
    </radialGradient>
    <radialGradient
       id="j-9"
       cx="-7915.9771"
       cy="-8535.9814"
       r="118.081"
       gradientTransform="matrix(0.06151618,0,0,0.06151618,491.30525,525.15732)"
       gradientUnits="userSpaceOnUse">
      <stop
         offset=".126"
         stop-color="#3fe1b0"
         id="stop5070" />
      <stop
         offset=".429"
         stop-color="#0df"
         id="stop5072" />
      <stop
         offset=".479"
         stop-color="#1ec1ff"
         id="stop5074" />
      <stop
         offset=".624"
         stop-color="#7077ff"
         id="stop5076" />
      <stop
         offset=".69"
         stop-color="#9059ff"
         id="stop5078" />
      <stop
         offset=".904"
         stop-color="#b833e1"
         id="stop5080" />
    </radialGradient>
    <radialGradient
       id="k-82"
       cx="-7927.165"
       cy="-8522.8594"
       r="86.499001"
       gradientTransform="matrix(0.0064592,0.06120859,-0.04017006,0.00424462,-287.42824,521.84722)"
       gradientUnits="userSpaceOnUse">
      <stop
         offset="0"
         stop-color="#54ffbd"
         id="stop5083" />
      <stop
         offset=".095"
         stop-color="#4cf3b8"
         id="stop5085" />
      <stop
         offset=".197"
         stop-color="#3fe1b0"
         id="stop5087" />
      <stop
         offset=".257"
         stop-color="#33d8bd"
         id="stop5089" />
      <stop
         offset=".369"
         stop-color="#12c0e1"
         id="stop5091" />
      <stop
         offset=".423"
         stop-color="#00b3f4"
         id="stop5093" />
      <stop
         offset=".737"
         stop-color="#0060df"
         id="stop5095" />
    </radialGradient>
    <radialGradient
       id="l-6"
       cx="-7938.3828"
       cy="-8508.1758"
       r="73.720001"
       gradientTransform="matrix(0.06151618,0,0,0.06151618,491.30525,525.15732)"
       gradientUnits="userSpaceOnUse">
      <stop
         offset=".137"
         stop-color="#3fe1b0"
         id="stop5098" />
      <stop
         offset=".435"
         stop-color="#0df"
         id="stop5100" />
      <stop
         offset=".484"
         stop-color="#1ec1ff"
         id="stop5102" />
      <stop
         offset=".622"
         stop-color="#7077ff"
         id="stop5104" />
      <stop
         offset=".685"
         stop-color="#9059ff"
         id="stop5106" />
    </radialGradient>
    <radialGradient
       id="m-8"
       cx="-7918.9229"
       cy="-8503.8613"
       r="80.685997"
       gradientTransform="matrix(0.06151618,0,0,0.06151618,491.30525,525.15732)"
       gradientUnits="userSpaceOnUse">
      <stop
         offset=".094"
         stop-color="#54ffbd"
         id="stop5109" />
      <stop
         offset=".242"
         stop-color="#41f7cc"
         id="stop5111" />
      <stop
         offset=".543"
         stop-color="#0fe3f3"
         id="stop5113" />
      <stop
         offset=".626"
         stop-color="#0df"
         id="stop5115" />
    </radialGradient>
    <linearGradient
       id="n-8"
       x1="70.013"
       y1="12.061"
       x2="15.267"
       y2="66.806"
       gradientUnits="userSpaceOnUse"
       gradientTransform="matrix(0.06151618,0,0,0.06151618,0.71378042,0.79349746)">
      <stop
         offset=".167"
         stop-color="#54ffbd"
         stop-opacity=".8"
         id="stop5118" />
      <stop
         offset=".236"
         stop-color="#43f8ca"
         stop-opacity=".639"
         id="stop5120" />
      <stop
         offset=".361"
         stop-color="#27ede1"
         stop-opacity=".368"
         id="stop5122" />
      <stop
         offset=".466"
         stop-color="#12e4f1"
         stop-opacity=".169"
         id="stop5124" />
      <stop
         offset=".545"
         stop-color="#05dffb"
         stop-opacity=".046"
         id="stop5126" />
      <stop
         offset=".589"
         stop-color="#0df"
         stop-opacity="0"
         id="stop5128" />
    </linearGradient>
  </defs>
  <path
     d="M 1.5275554,0.79381578 C 0.28822009,0.80313578 1.9010417e-7,1.1116258 1.9010417e-7,2.3813158 v 2.381217 c 0,1.289844 0.29765619989583,1.5875 1.58750000989583,1.5875 h 3.1749977 c 1.2898438,0 1.5875,-0.297656 1.5875,-1.5875 v -2.381217 c 0,-1.2898437 -0.2976562,-1.58750002 -1.5875,-1.58750002 H 1.5875002 c -0.020153,0 -0.040273,-1.48e-4 -0.059945,0 z"
     style="opacity:0.1;fill:#000000;stroke-width:0.264583;stroke-linecap:round;stroke-linejoin:round"
     id="path9125"
     sodipodi:nodetypes="cssssssssc" />
  <path
     id="rect7669"
     style="fill:#808080;stroke-width:0.264583;stroke-linecap:round;stroke-linejoin:round"
     d="M 1.7973064,0.66145835 C 0.66124888,0.67000474 0.39687501,0.95278432 0.39687501,2.1166667 v 2.1166667 c 0,1.1638823 0.26437379,1.4466584 1.40043139,1.4552084 h 0.054777 2.6458334 c 1.1823568,0 1.4552083,-0.2728518 1.4552083,-1.4552084 V 2.1166667 c 0,-1.1823567 -0.2728515,-1.45520835 -1.4552083,-1.45520835 H 1.8520834 c -0.018474,0 -0.036744,-1.3565e-4 -0.054777,0 z" />
  <path
     id="rect6397"
     style="fill:#00365e;fill-opacity:1;stroke-width:0.182227;stroke-linejoin:round"
     d="M 1.532723,0.39693532 C 0.39666551,0.40548163 0.13229168,0.68826121 0.13229168,1.8521437 v 2.6458334 c 0,1.1638823 0.26437373,1.4466584 1.40043132,1.4552084 H 1.5875 4.7624975 c 1.1823568,0 1.4552083,-0.2728518 1.4552083,-1.4552084 V 1.8521437 c 0,-1.18235679 -0.2728515,-1.45520838 -1.4552083,-1.45520838 H 1.5875 c -0.018474,0 -0.036744,-1.3571e-4 -0.054777,0 z"
     sodipodi:nodetypes="cssccsssssc" />
  <path
     d="M 5.383842,2.4440378 C 5.2802487,2.1947744 5.0701093,1.9256411 4.9055537,1.8405642 a 2.4770102,2.4770102 0 0 1 0.2414509,0.7236763 l 4.226e-4,0.004 C 4.8778673,1.8961753 4.4207406,1.6251966 4.047399,1.0351336 4.0285135,1.0052982 4.0096282,0.97540114 3.9912346,0.94384347 3.980715,0.92581929 3.9722876,0.90957915 3.9649672,0.89463064 a 0.43387355,0.43387355 0 0 1 -0.035556,-0.0944273 0.00615162,0.00615162 0 0 0 -0.00541,-0.00615 0.00848923,0.00848923 0 0 0 -0.00449,0 c -3.019e-4,0 -7.944e-4,5.5778e-4 -0.00117,6.8032e-4 -3.802e-4,1.2301e-4 -0.00118,6.8032e-4 -0.00172,9.2963e-4 l 9.296e-4,-0.001597 C 3.3186775,1.1447086 3.1154896,1.7938274 3.0967887,2.1185095 A 1.192614,1.192614 0 0 0 2.440657,2.3714026 0.71278789,0.71278789 0 0 0 2.379141,2.3247733 1.1053225,1.1053225 0 0 1 2.3724351,1.7420307 1.7658217,1.7658217 0 0 0 1.7985508,2.1855622 h -0.00109 C 1.7029574,2.065786 1.7096011,1.6708521 1.7150145,1.5883589 A 0.42618403,0.42618403 0 0 0 1.6354125,1.6306205 1.7362939,1.7362939 0 0 0 1.4023894,1.8302403 2.0820149,2.0820149 0 0 0 1.1795162,2.0976512 v 3.801e-4 -4.352e-4 A 2.0136089,2.0136089 0 0 0 0.85963217,2.8199805 l -0.003199,0.015749 c -0.004491,0.020977 -0.0206694,0.1260468 -0.0234376,0.1488692 0,0.00178 -3.8014e-4,0.00344 -5.5778e-4,0.00523 a 2.272223,2.272223 0 0 0 -0.0386881,0.3286738 v 0.012303 A 2.3843053,2.3843053 0 0 0 5.527664,3.7339804 c 0.00401,-0.030758 0.00726,-0.061209 0.010826,-0.092274 A 2.4518501,2.4518501 0 0 0 5.383842,2.4440378 Z M 2.6359146,4.3103154 c 0.011134,0.00535 0.021592,0.011135 0.033034,0.016241 l 0.00167,0.00105 q -0.017348,-0.0083 -0.034696,-0.017285 z M 3.1820551,2.8723133 Z M 5.1476198,2.5687927 v -0.00227 l 4.226e-4,0.00252 z"
     id="path5142"
     inkscape:connector-curvature="0"
     style="fill:url(#a-76);stroke-width:0.0615163" />
  <path
     d="m 5.1477428,2.5690387 -4.225e-4,-0.00252 v 0.00227 z"
     id="path5144"
     inkscape:connector-curvature="0"
     style="fill:none;stroke-width:0.0615163" />
  <path
     d="M 5.383842,2.4440378 C 5.2802487,2.1947744 5.0701093,1.9256411 4.9055537,1.8405642 a 2.4770102,2.4770102 0 0 1 0.2414509,0.7236763 v 0.00228 l 4.226e-4,0.00252 a 2.1592176,2.1592176 0 0 1 -0.074171,1.60914 C 4.799993,4.764491 4.1385711,5.3654426 3.1032538,5.3362223 1.9845823,5.3045415 0.99940083,4.4744426 0.81522137,3.3872057 c -0.0335261,-0.1714456 0,-0.258368 0.0168554,-0.397702 a 1.7763408,1.7763408 0 0 0 -0.0383247,0.3289885 v 0.012303 A 2.3843053,2.3843053 0 0 0 5.5276665,3.7339721 c 0.00401,-0.030758 0.00726,-0.061208 0.010826,-0.092274 A 2.4518501,2.4518501 0 0 0 5.3838412,2.4440395 Z"
     id="path5146"
     inkscape:connector-curvature="0"
     style="fill:url(#b-3);stroke-width:0.0615163" />
  <path
     d="M 5.383842,2.4440378 C 5.2802487,2.1947744 5.0701093,1.9256411 4.9055537,1.8405642 a 2.4770102,2.4770102 0 0 1 0.2414509,0.7236763 v 0.00228 l 4.226e-4,0.00252 a 2.1592176,2.1592176 0 0 1 -0.074171,1.60914 C 4.799993,4.764491 4.1385711,5.3654426 3.1032538,5.3362223 1.9845823,5.3045415 0.99940083,4.4744426 0.81522137,3.3872057 c -0.0335261,-0.1714456 0,-0.258368 0.0168554,-0.397702 a 1.7763408,1.7763408 0 0 0 -0.0383247,0.3289885 v 0.012303 A 2.3843053,2.3843053 0 0 0 5.5276665,3.7339721 c 0.00401,-0.030758 0.00726,-0.061208 0.010826,-0.092274 A 2.4518501,2.4518501 0 0 0 5.3838412,2.4440395 Z"
     id="path5148"
     inkscape:connector-curvature="0"
     style="fill:url(#c-5);stroke-width:0.0615163" />
  <path
     d="m 4.2252463,2.7243055 c 0.00517,0.00363 0.00996,0.00726 0.014827,0.010889 A 1.2979912,1.2979912 0 0 0 4.0186144,2.4463764 C 3.2775898,1.7052295 3.8244071,0.8393895 3.9166197,0.79540531 l 9.297e-4,-0.001352 C 3.3186796,1.1446954 3.1154918,1.7938141 3.0967909,2.1184962 c 0.027805,-0.00191 0.055365,-0.00425 0.083785,-0.00425 a 1.2032564,1.2032564 0 0 1 1.0446676,0.610056 z"
     id="path5150"
     inkscape:connector-curvature="0"
     style="fill:url(#d-2);stroke-width:0.0615163" />
  <path
     d="m 3.1821165,2.8723133 c -0.00394,0.059302 -0.2134609,0.2638429 -0.2867267,0.2638429 -0.6779698,0 -0.7880222,0.4101284 -0.7880222,0.4101284 0.03002,0.3453517 0.2706712,0.6298026 0.5615812,0.7802711 0.013287,0.00689 0.02676,0.013103 0.040232,0.019193 q 0.035003,0.015503 0.070006,0.028667 a 1.0602312,1.0602312 0 0 0 0.310226,0.059855 C 4.2777196,4.4900042 4.5079131,3.013247 3.6503778,2.5847254 A 0.82308636,0.82308636 0 0 1 4.2252463,2.7243055 1.2032564,1.2032564 0 0 0 3.1805787,2.1142496 c -0.028297,0 -0.05598,0.00234 -0.083785,0.00425 A 1.192614,1.192614 0 0 0 2.4406622,2.3713878 c 0.036356,0.030758 0.077387,0.071851 0.1638177,0.1570509 0.1617874,0.1593882 0.5767141,0.3244976 0.5776366,0.3438746 z"
     id="path5152"
     inkscape:connector-curvature="0"
     style="fill:url(#e-1);stroke-width:0.0615163" />
  <path
     d="m 3.1821165,2.8723133 c -0.00394,0.059302 -0.2134609,0.2638429 -0.2867267,0.2638429 -0.6779698,0 -0.7880222,0.4101284 -0.7880222,0.4101284 0.03002,0.3453517 0.2706712,0.6298026 0.5615812,0.7802711 0.013287,0.00689 0.02676,0.013103 0.040232,0.019193 q 0.035003,0.015503 0.070006,0.028667 a 1.0602312,1.0602312 0 0 0 0.310226,0.059855 C 4.2777196,4.4900042 4.5079131,3.013247 3.6503778,2.5847254 A 0.82308636,0.82308636 0 0 1 4.2252463,2.7243055 1.2032564,1.2032564 0 0 0 3.1805787,2.1142496 c -0.028297,0 -0.05598,0.00234 -0.083785,0.00425 A 1.192614,1.192614 0 0 0 2.4406622,2.3713878 c 0.036356,0.030758 0.077387,0.071851 0.1638177,0.1570509 0.1617874,0.1593882 0.5767141,0.3244976 0.5776366,0.3438746 z"
     id="path5154"
     inkscape:connector-curvature="0"
     style="fill:url(#f-2);stroke-width:0.0615163" />
  <path
     d="m 2.6359146,4.3103154 q 0.017347,0.00892 0.034695,0.017286 l -0.00167,-0.00104 c -0.011259,-0.00511 -0.0219,-0.010889 -0.033034,-0.016241 z"
     id="path5156"
     inkscape:connector-curvature="0"
     style="fill:url(#g-7);stroke-width:0.0615163" />
  <path
     d="m 2.6359146,4.3103154 q 0.017347,0.00892 0.034695,0.017286 l -0.00167,-0.00104 c -0.011259,-0.00511 -0.0219,-0.010889 -0.033034,-0.016241 z"
     id="path5158"
     inkscape:connector-curvature="0"
     style="fill:url(#h-4);stroke-width:0.0615163" />
  <path
     d="m 2.3295026,2.2920929 c 0.019316,0.012303 0.035249,0.023007 0.049213,0.032665 A 1.1053225,1.1053225 0 0 1 2.3720097,1.7420154 1.7658217,1.7658217 0 0 0 1.7981253,2.185547 c 0.011628,-3.131e-4 0.3574705,-0.00652 0.5313773,0.1065459 z"
     id="path5160"
     inkscape:connector-curvature="0"
     style="fill:url(#i-6);stroke-width:0.0615163" />
  <path
     d="m 0.81552802,3.3872037 c 0.18399493,1.0872369 1.16936088,1.9173361 2.28803258,1.949017 1.035317,0.029281 1.6967388,-0.5717314 1.9699938,-1.158042 a 2.1592176,2.1592176 0 0 0 0.074188,-1.60914 v -0.00228 c 0,-0.00178 -3.799e-4,-0.00283 0,-0.00228 l 4.226e-4,0.004 C 5.2327639,3.1207118 4.9518808,3.655718 4.5127784,4.0174945 l -0.00135,0.00308 C 3.6558587,4.7173653 2.8370785,4.4409734 2.6713538,4.3281527 q -0.017343,-0.0083 -0.034691,-0.017285 C 2.1378196,4.07243 1.9317405,3.6179484 1.975909,3.228182 A 0.61227045,0.61227045 0 0 1 1.4111291,2.872926 0.89924338,0.89924338 0 0 1 2.287673,2.8377387 1.1872621,1.1872621 0 0 0 3.1828562,2.872926 C 3.1819283,2.8535484 2.7670069,2.6883775 2.6052194,2.5290508 2.5187893,2.4438508 2.4777579,2.4028194 2.4414019,2.3719999 A 0.71278789,0.71278789 0 0 0 2.3798859,2.3253705 C 2.3657377,2.3157131 2.3498044,2.3052548 2.3306728,2.2927056 2.1567665,2.1796388 1.8109227,2.185852 1.7994806,2.1861594 h -0.00112 C 1.7038841,2.0663884 1.7105279,1.6714545 1.7159415,1.5889613 A 0.42618403,0.42618403 0 0 0 1.6363395,1.6312231 1.7362939,1.7362939 0 0 0 1.4033161,1.8308429 2.0820149,2.0820149 0 0 0 1.1795203,2.0976384 V 2.0979962 2.097561 A 2.0136089,2.0136089 0 0 0 0.85963631,2.8199447 c -0.001179,0.00486 -0.0858766,0.3751871 -0.0441073,0.5672405 z"
     id="path5162"
     inkscape:connector-curvature="0"
     style="fill:url(#j-9);stroke-width:0.0615163" />
  <path
     d="m 3.1821165,2.8723133 h -6.14e-5 z"
     id="path5164"
     inkscape:connector-curvature="0"
     style="fill:#ff4aa2;stroke-width:0.0615163" />
  <path
     d="m 4.0187365,2.4463755 a 1.2979912,1.2979912 0 0 1 0.2214583,0.2891259 c 0.013103,0.0099 0.025345,0.019747 0.035741,0.029282 0.5405426,0.498281 0.2573223,1.202641 0.2362221,1.2527768 C 4.9512605,3.6557834 5.2318968,3.1207772 5.1475581,2.5685467 4.8778716,1.8961749 4.4207448,1.6251961 4.0474031,1.0351329 4.0285176,1.0052978 4.0096323,0.97540072 3.9912387,0.94384292 3.9807193,0.9258187 3.9722919,0.90957852 3.9649715,0.89463009 a 0.43387355,0.43387355 0 0 1 -0.035556,-0.0944274 0.00615162,0.00615162 0 0 0 -0.00541,-0.00615 0.00848923,0.00848923 0 0 0 -0.00449,0 c -3.018e-4,0 -7.944e-4,5.5777e-4 -0.00117,6.8031e-4 -3.802e-4,1.2297e-4 -0.00118,6.8032e-4 -0.00172,9.2963e-4 -0.092213,0.0437382 -0.6390298,0.90957807 0.102117,1.65072507 z"
     id="path5166"
     inkscape:connector-curvature="0"
     style="fill:url(#k-82);stroke-width:0.0615163" />
  <path
     d="m 4.2755665,2.7644755 c -0.010397,-0.00953 -0.022638,-0.019377 -0.035741,-0.029282 -0.00486,-0.00363 -0.00966,-0.00726 -0.014826,-0.010889 A 0.82308636,0.82308636 0 0 0 3.6501308,2.5847238 C 4.5076663,3.0134914 4.2775957,4.4900026 3.0891648,4.434269 A 1.0602312,1.0602312 0 0 1 2.7789387,4.3744138 q -0.035003,-0.013102 -0.070005,-0.028666 c -0.013472,-0.00615 -0.026944,-0.012303 -0.040232,-0.019193 l 0.00167,0.00104 C 2.8360952,4.4407226 3.6546295,4.7171147 4.5104425,4.0200135 l 0.00135,-0.00308 C 4.5331409,3.9671055 4.8163616,3.2625609 4.2755728,2.7644646 Z"
     id="path5168"
     inkscape:connector-curvature="0"
     style="fill:url(#l-6);stroke-width:0.0615163" />
  <path
     d="m 2.1073676,3.5462846 c 0,0 0.1100524,-0.4101284 0.7880222,-0.4101284 0.073266,0 0.2829745,-0.2045412 0.2867267,-0.2638429 a 1.1872621,1.1872621 0 0 1 -0.8951832,-0.035187 0.89924338,0.89924338 0 0 0 -0.8765439,0.035187 0.61227045,0.61227045 0 0 0 0.56478,0.3552561 c -0.044169,0.3898278 0.1619105,0.8443094 0.6607452,1.0826845 0.011134,0.00535 0.021592,0.011135 0.033034,0.016241 C 2.3777928,4.1760875 2.1373875,3.8916366 2.1073676,3.5462846 Z"
     id="path5170"
     inkscape:connector-curvature="0"
     style="fill:url(#m-8);stroke-width:0.0615163" />
  <path
     d="m 3.7562469,3.1593478 -6.14e-5,6.15e-5 z"
     id="path5172"
     inkscape:connector-curvature="0"
     style="fill:#ff4aa2;stroke-width:0.0615163" />
  <path
     d="M 5.383842,2.4440378 C 5.2802487,2.1947744 5.0701093,1.9256411 4.9055537,1.8405642 a 2.4770102,2.4770102 0 0 1 0.2414509,0.7236763 l 4.226e-4,0.004 C 4.8778673,1.8961753 4.4207406,1.6251966 4.047399,1.0351336 4.0285135,1.0052982 4.0096282,0.97540114 3.9912346,0.94384347 3.980715,0.92581929 3.9722876,0.90957915 3.9649672,0.89463064 a 0.43387355,0.43387355 0 0 1 -0.035556,-0.0944273 0.00615162,0.00615162 0 0 0 -0.00541,-0.00615 0.00848923,0.00848923 0 0 0 -0.00449,0 c -3.019e-4,0 -7.944e-4,5.5778e-4 -0.00117,6.8032e-4 -3.802e-4,1.2301e-4 -0.00118,6.8032e-4 -0.00172,9.2963e-4 l 9.296e-4,-0.001597 C 3.3186913,1.1447079 3.1155034,1.7938266 3.0968025,2.1185088 c 0.027805,-0.00191 0.055365,-0.00425 0.083785,-0.00425 A 1.2032564,1.2032564 0 0 1 4.2252527,2.7243183 0.82308636,0.82308636 0 0 0 3.6503839,2.5847381 C 4.5079194,3.0135059 4.277849,4.4900168 3.0894182,4.4342832 A 1.0602312,1.0602312 0 0 1 2.7791922,4.374428 Q 2.7441932,4.361326 2.7091912,4.345762 C 2.6957192,4.339612 2.6822472,4.333458 2.6689592,4.326569 l 0.00167,0.00104 q -0.017347,-0.0083 -0.034695,-0.017286 c 0.011134,0.00535 0.021592,0.011135 0.033034,0.016241 -0.2911567,-0.1504691 -0.5315621,-0.43492 -0.561582,-0.7802718 0,0 0.1100525,-0.4101284 0.7880223,-0.4101284 0.073266,0 0.2829744,-0.2045411 0.2867267,-0.2638428 C 3.1812077,2.8529438 2.7662864,2.6877729 2.604499,2.5284461 2.5180686,2.443246 2.4770375,2.4022149 2.4406812,2.3713953 A 0.71278789,0.71278789 0 0 0 2.3791469,2.3247743 1.1053225,1.1053225 0 0 1 2.3724411,1.7420317 1.7658217,1.7658217 0 0 0 1.7985568,2.1855631 h -0.00109 C 1.7029659,2.0657892 1.7096096,1.6708554 1.715023,1.5883621 A 0.42618403,0.42618403 0 0 0 1.635421,1.6306238 1.7362939,1.7362939 0 0 0 1.4023979,1.8302437 2.0820149,2.0820149 0 0 0 1.1795247,2.0976545 V 2.0980122 2.097577 A 2.0136089,2.0136089 0 0 0 0.85964067,2.8199613 l -0.003199,0.015749 c -0.004491,0.020977 -0.0246064,0.127523 -0.0274975,0.150407 0,0.00172 0,-0.00178 0,0 a 2.7740101,2.7740101 0 0 0 -0.0351876,0.3323794 v 0.012303 A 2.3843053,2.3843053 0 0 0 5.5276725,3.7339759 c 0.00401,-0.030758 0.00726,-0.061208 0.010826,-0.092274 A 2.4518501,2.4518501 0 0 0 5.38385,2.4440478 Z m -0.2365298,0.1224788 4.226e-4,0.00252 z"
     id="path5174"
     inkscape:connector-curvature="0"
     style="fill:url(#n-8);stroke-width:0.0615163" />
  <path
     id="rect5096"
     style="opacity:0.4;stroke-width:0.240954;stroke-linecap:round;stroke-linejoin:round"
     d="M 1.5275554,0.26458333 C 0.28821988,0.27390666 1.0104166e-8,0.58239335 1.0104166e-8,1.8520834 V 4.4978839 C 1.0104166e-8,5.7877277 0.29765627,6.085384 1.5875001,6.085384 h 3.1749975 c 1.2898438,0 1.5875,-0.2976563 1.5875,-1.5875001 V 1.8520834 c 0,-1.28984381 -0.2976562,-1.58750007 -1.5875,-1.58750007 H 1.5875001 c -0.020154,0 -0.040273,-1.4798e-4 -0.059945,0 z m 0.032556,0.26458334 c 0.018033,-1.3565e-4 0.036303,0 0.054777,0 h 3.147609 c 1.1823568,0 1.3229167,0.29315998 1.3229167,1.32291673 v 2.6458005 c 0,1.0162919 -0.1405599,1.3229167 -1.3229167,1.3229167 H 1.5875001 c -0.99193704,0 -1.32291675,-0.1405599 -1.32291675,-1.3229167 V 1.8520834 c 0,-0.96076805 0.15947068,-1.31437034 1.29552805,-1.32291673 z"
     sodipodi:nodetypes="csssssssscssssssssss" />
  <path
     id="rect1565"
     style="fill:url(#linearGradient1873);fill-opacity:1;stroke-width:0.118194;opacity:0.4"
     d="M 1.5601116,0.52922694 C 0.42405397,0.53777695 0.26458335,0.8913756 0.26458335,1.8521436 V 4.497977 c 0,1.1823568 0.33097974,1.3229167 1.32291675,1.3229167 h 3.1749975 c 1.1823568,0 1.3229167,-0.3066248 1.3229167,-1.3229167 V 1.8521436 c 0,-1.02975658 -0.1405599,-1.32291666 -1.3229167,-1.32291666 h -3.147609 c -0.018473,0 -0.036744,-1.356e-4 -0.054777,0 z m 0.00259,0.26458338 h 0.049609 3.0179 c 1.0641211,0 1.190625,0.14300558 1.190625,1.05833328 V 4.497977 c 0,0.8938382 -0.1265039,1.0583334 -1.190625,1.0583334 H 1.7197917 c -1.02290214,0 -1.19062501,-0.1576914 -1.19062501,-1.0583334 V 1.8521436 c 0,-0.8540052 0.14116471,-1.05833328 1.03352871,-1.05833328 z"
     sodipodi:nodetypes="csssssssscsssssssssss" />
</svg>
