<?xml version="1.0" encoding="UTF-8" standalone="no"?>
<!-- Created with Inkscape (http://www.inkscape.org/) -->

<svg
   width="24"
   height="24"
   viewBox="0 0 6.3499999 6.3500002"
   version="1.1"
   id="svg5013"
   sodipodi:docname="io.github.seadve.kooha.svg"
   inkscape:version="1.1.2 (0a00cf5339, 2022-02-04)"
   xmlns:inkscape="http://www.inkscape.org/namespaces/inkscape"
   xmlns:sodipodi="http://sodipodi.sourceforge.net/DTD/sodipodi-0.dtd"
   xmlns:xlink="http://www.w3.org/1999/xlink"
   xmlns="http://www.w3.org/2000/svg"
   xmlns:svg="http://www.w3.org/2000/svg">
  <sodipodi:namedview
     id="namedview5015"
     pagecolor="#ffffff"
     bordercolor="#666666"
     borderopacity="1.0"
     inkscape:pageshadow="2"
     inkscape:pageopacity="0.0"
     inkscape:pagecheckerboard="0"
     inkscape:document-units="px"
     showgrid="false"
     units="px"
     showguides="true"
     inkscape:zoom="5.7820711"
     inkscape:cx="6.0531943"
     inkscape:cy="32.08193"
     inkscape:window-width="1920"
     inkscape:window-height="1012"
     inkscape:window-x="0"
     inkscape:window-y="0"
     inkscape:window-maximized="1"
     inkscape:current-layer="svg5013" />
  <defs
     id="defs5010">
    <linearGradient
       inkscape:collect="always"
       xlink:href="#linearGradient1871"
       id="linearGradient1873"
       x1="17.305155"
       y1="0.083426654"
       x2="17.305155"
       y2="47.797596"
       gradientUnits="userSpaceOnUse"
       gradientTransform="matrix(0.12026516,0,0,0.11615853,0.2886362,0.38726097)" />
    <linearGradient
       inkscape:collect="always"
       id="linearGradient1871">
      <stop
         style="stop-color:#ffffff;stop-opacity:1;"
         offset="0"
         id="stop1867" />
      <stop
         style="stop-color:#ffffff;stop-opacity:0.1"
         offset="0.12"
         id="stop2515" />
      <stop
         style="stop-color:#ffffff;stop-opacity:0.102"
         offset="0.89999998"
         id="stop2581" />
      <stop
         style="stop-color:#ffffff;stop-opacity:0.502"
         offset="1"
         id="stop1869" />
    </linearGradient>
    <linearGradient
       inkscape:collect="always"
       id="linearGradient1437">
      <stop
         style="stop-color:#a1a09d;stop-opacity:1;"
         offset="0"
         id="stop1433" />
      <stop
         style="stop-color:#a1a09d;stop-opacity:1"
         offset="0.1"
         id="stop1635" />
      <stop
         style="stop-color:#c3c3c0;stop-opacity:1"
         offset="0.16"
         id="stop1569" />
      <stop
         style="stop-color:#a1a09d;stop-opacity:1"
         offset="0.22"
         id="stop1829" />
      <stop
         style="stop-color:#a1a09d;stop-opacity:1"
         offset="0.77999997"
         id="stop2919" />
      <stop
         style="stop-color:#c3c3c0;stop-opacity:1"
         offset="0.83999997"
         id="stop3819" />
      <stop
         style="stop-color:#a1a09d;stop-opacity:1"
         offset="0.89999998"
         id="stop3305" />
      <stop
         style="stop-color:#a1a09d;stop-opacity:1"
         offset="1"
         id="stop1435" />
    </linearGradient>
    <linearGradient
       inkscape:collect="always"
       xlink:href="#linearGradient1437"
       id="linearGradient996"
       x1="0.5"
       y1="18.75"
       x2="23.5"
       y2="18.75"
       gradientUnits="userSpaceOnUse" />
    <linearGradient
       inkscape:collect="always"
       id="linearGradient1753">
      <stop
         style="stop-color:#e72662;stop-opacity:1"
         offset="0"
         id="stop1749" />
      <stop
         style="stop-color:#e22f77;stop-opacity:1;"
         offset="0.5"
         id="stop6209" />
      <stop
         style="stop-color:#cb5de3;stop-opacity:1"
         offset="1"
         id="stop1751" />
    </linearGradient>
    <linearGradient
       inkscape:collect="always"
       xlink:href="#linearGradient1753"
       id="linearGradient1096"
       gradientUnits="userSpaceOnUse"
       gradientTransform="matrix(0.2070652,0,0,0.2070652,6.3763602,5.8442919)"
       x1="-20.817587"
       y1="62.635059"
       x2="84.017387"
       y2="-13.735013" />
  </defs>
  <path
     d="M 1.5275552,0.52916667 C 0.28821992,0.53848667 1.6249999e-8,0.84697669 1.6249999e-8,2.1166667 V 4.7625 C 1.6249999e-8,6.052344 0.29765622,6.35 1.5875,6.35 h 3.175 C 6.0523438,6.35 6.35,6.052344 6.35,4.7625 V 2.1166667 C 6.35,0.82682299 6.0523438,0.52916667 4.7625,0.52916667 h -3.175 c -0.020153,0 -0.040273,-1.48e-4 -0.059945,0 z"
     style="opacity:0.1;fill:#000000;stroke-width:0.264583;stroke-linecap:round;stroke-linejoin:round"
     id="path9125"
     sodipodi:nodetypes="cssssssssc" />
  <path
     id="rect16934"
     style="fill:#deddda;fill-opacity:1;stroke-width:0.175781;stroke-linecap:round;stroke-linejoin:round"
     d="m 5.7929687,1.4999999 c -4.2937607,0.032301 -5.29296876,1.1010741 -5.29296876,5.5 V 17 c 0,4.398925 0.99920766,5.467685 5.29296876,5.5 H 5.9999999 18 c 4.46875,0 5.5,-1.031251 5.5,-5.5 V 6.9999999 c 0,-4.46875 -1.03125,-5.5 -5.5,-5.5 H 5.9999999 c -0.069823,0 -0.138875,-5.129e-4 -0.2070312,0 z"
     sodipodi:nodetypes="cssccsssssc"
     transform="scale(0.26458334)" />
  <path
     d="m 1.5627016,0.79381587 c -0.892364,0 -1.0335287,0.2043282 -1.0335287,1.05833333 v 2.1166667 c 0,0.9006419 0.167723,1.0583333 1.190625,1.0583333 h 2.910417 c 1.0641208,0 1.1906247,-0.1644951 1.1906247,-1.0583333 V 1.8521492 c 0,-0.91532763 -0.1265039,-1.05833333 -1.1906247,-1.05833333 H 1.612311 Z"
     style="fill:#4d4d4d;fill-opacity:1;stroke-width:0.0123054;stroke-linecap:round;stroke-linejoin:round"
     id="path860"
     sodipodi:nodetypes="sssssssscs" />
  <path
     id="path1001"
     style="fill:url(#linearGradient1096);fill-opacity:1;stroke-width:0.036398;stroke-linecap:round;stroke-linejoin:round"
     d="M 6.1425781 4 C 3.0005906 3.9998216 3 4.5225465 3 7 L 3 15 C 3.0006534 18.034633 3.6651249 18 6.1425781 18 L 17.857422 18 L 18 18 C 21.000803 17.98419 21 17.439776 21 15 L 21 7 C 21 4.5225465 20.99941 3.9998216 17.857422 4 L 6.1425781 4 z "
     transform="scale(0.26458334)" />
  <path
     id="path1021"
     style="fill:#ffffff;stroke:none;stroke-width:0.0700042"
     d="m 1.1859839,1.7198772 c 0,0.020413 -0.040932,0.00631 -0.059428,0.016536 -0.042,0.023164 -0.067999,0.06731 -0.068213,0.1152385 V 3.9671315 C 1.0571259,4.0720327 1.172736,4.1364648 1.2614314,4.0803028 1.562486,3.8929056 1.9007313,3.575763 2.1166736,3.3393062 v 0.3648604 c 0,0.4397378 0.089429,0.5291667 0.5291666,0.5291667 h 2.1166569 c 0.439739,0 0.529167,-0.089429 0.529167,-0.5291667 v -1.5875 C 5.2916641,1.6769289 5.2022341,1.5875 4.7624971,1.5875 H 2.6458402 c -0.4397374,0 -0.5291666,0.089429 -0.5291666,0.5291666 V 2.4799399 C 1.9321132,2.2868027 1.5625021,1.9279563 1.2614314,1.7405477 1.2384524,1.7260406 1.2122126,1.7189075 1.1859839,1.7198758 Z m 1.4262667,0.1322061 c 0.010724,-7.52e-5 0.022056,0 0.03359,0 h 2.1166565 c 0.182365,0 0.264584,0.00866 0.264584,0.2645833 v 1.5875 c 0,0.2641714 -0.07595,0.2645834 -0.264584,0.2645834 H 2.6458402 c -0.1929164,0 -0.2645833,-0.00106 -0.2645833,-0.2645834 v -1.5875 c 0,-0.2466554 0.070144,-0.2634567 0.2309937,-0.2645833 z M 1.3239599,2.1679117 C 1.6112656,2.3859398 1.9351678,2.6849053 2.1166736,2.9093831 1.9425971,3.1107144 1.6113797,3.4348631 1.3239599,3.6529388 Z"
     sodipodi:nodetypes="scccccsssssssscccscssssssssccccc" />
  <path
     id="path885"
     style="fill:url(#linearGradient996);fill-opacity:1.0;stroke-width:0.175781;stroke-linecap:round;stroke-linejoin:round"
     d="M 0.5 15 L 0.5 17 C 0.5 21.398925 1.4992078 22.467685 5.7929688 22.5 L 6 22.5 L 18 22.5 C 22.46875 22.5 23.5 21.468749 23.5 17 L 23.5 15 C 23.5 19.468749 22.46875 20.5 18 20.5 L 6 20.5 L 5.7929688 20.5 C 1.4992078 20.467685 0.5 19.398925 0.5 15 z "
     transform="scale(0.26458334)" />
  <path
     id="rect5096"
     style="opacity:0.4;stroke-width:0.240954;stroke-linecap:round;stroke-linejoin:round"
     d="M 1.5275554,0.26464907 C 0.2882199,0.27396907 0,0.58245917 0,1.8521492 v 2.6458333 c 0,1.2898438 0.2976563,1.5875001 1.5875001,1.5875001 h 3.1749977 c 1.2898438,0 1.5874999,-0.2976563 1.5874999,-1.5875001 V 1.8521492 c 0,-1.28984383 -0.2976561,-1.58750013 -1.5874999,-1.58750013 H 1.5875001 c -0.020154,0 -0.040273,-1.479e-4 -0.059945,0 z m 0.032556,0.2645834 c 0.018033,-1.357e-4 0.036303,0 0.054777,0 h 3.1476092 c 1.1823568,0 1.3229167,0.29316 1.3229167,1.32291673 v 2.6458333 c 0,1.0162919 -0.1405599,1.3229167 -1.3229167,1.3229167 H 1.5875001 c -0.991937,0 -1.3229168,-0.1405599 -1.3229168,-1.3229167 V 1.8521492 c 0,-0.96076803 0.1594707,-1.31437033 1.2955281,-1.32291673 z"
     sodipodi:nodetypes="csssssssscssssssssss" />
  <path
     id="rect1565"
     style="opacity:0.7;fill:url(#linearGradient1873);fill-opacity:1;stroke-width:0.118194"
     d="m 1.5601114,0.52923247 c -1.1360576,0.00855 -1.2955283,0.3621487 -1.2955283,1.32291663 v 2.6458334 c 0,1.1823568 0.3309798,1.3229167 1.3229168,1.3229167 h 3.1749977 c 1.1823568,0 1.3229167,-0.3066248 1.3229167,-1.3229167 V 1.8521491 c 0,-1.02975653 -0.1405599,-1.32291663 -1.3229167,-1.32291663 H 1.6148884 c -0.018473,0 -0.036744,-1.356e-4 -0.054777,0 z m 0.00259,0.2645834 h 0.049609 3.0179002 c 1.0641211,0 1.190625,0.1430056 1.190625,1.05833323 v 2.6458334 c 0,0.8938382 -0.1265039,1.0583334 -1.190625,1.0583334 H 1.7197915 c -1.0229021,0 -1.190625,-0.1576914 -1.190625,-1.0583334 V 1.8521491 c 0,-0.85400513 0.1411647,-1.05833323 1.0335287,-1.05833323 z"
     sodipodi:nodetypes="csssssssscsssssssssss" />
</svg>
