<?xml version="1.0" encoding="UTF-8" standalone="no"?>
<!-- Created with Inkscape (http://www.inkscape.org/) -->

<svg
   width="24"
   height="24"
   viewBox="0 0 6.3499999 6.3500002"
   version="1.1"
   id="svg5013"
   sodipodi:docname="preferences-desktop-locale.svg"
   inkscape:version="1.1.2 (0a00cf5339, 2022-02-04)"
   xmlns:inkscape="http://www.inkscape.org/namespaces/inkscape"
   xmlns:sodipodi="http://sodipodi.sourceforge.net/DTD/sodipodi-0.dtd"
   xmlns:xlink="http://www.w3.org/1999/xlink"
   xmlns="http://www.w3.org/2000/svg"
   xmlns:svg="http://www.w3.org/2000/svg">
  <sodipodi:namedview
     id="namedview5015"
     pagecolor="#ffffff"
     bordercolor="#666666"
     borderopacity="1.0"
     inkscape:pageshadow="2"
     inkscape:pageopacity="0.0"
     inkscape:pagecheckerboard="0"
     inkscape:document-units="px"
     showgrid="false"
     units="px"
     showguides="true"
     inkscape:zoom="17.217113"
     inkscape:cx="2.5846377"
     inkscape:cy="20.61902"
     inkscape:window-width="1920"
     inkscape:window-height="1010"
     inkscape:window-x="0"
     inkscape:window-y="0"
     inkscape:window-maximized="1"
     inkscape:current-layer="svg5013" />
  <defs
     id="defs5010">
    <linearGradient
       inkscape:collect="always"
       xlink:href="#linearGradient1871"
       id="linearGradient1873"
       x1="11.046622"
       y1="2.3372049"
       x2="10.794909"
       y2="47.930588"
       gradientUnits="userSpaceOnUse"
       gradientTransform="matrix(0.12026516,0,0,0.11615853,0.28863637,0.25496375)" />
    <linearGradient
       inkscape:collect="always"
       id="linearGradient1871">
      <stop
         style="stop-color:#ffffff;stop-opacity:1;"
         offset="0"
         id="stop1867" />
      <stop
         style="stop-color:#ffffff;stop-opacity:0.1"
         offset="0.12"
         id="stop2515" />
      <stop
         style="stop-color:#ffffff;stop-opacity:0.102"
         offset="0.89999998"
         id="stop2581" />
      <stop
         style="stop-color:#ffffff;stop-opacity:0.502"
         offset="1"
         id="stop1869" />
    </linearGradient>
  </defs>
  <path
     d="M 1.5275554,0.79381578 C 0.28822009,0.80313578 1.9010417e-7,1.1116258 1.9010417e-7,2.3813158 v 2.381217 c 0,1.289844 0.29765619989583,1.5875 1.58750000989583,1.5875 h 3.1749977 c 1.2898438,0 1.5875,-0.297656 1.5875,-1.5875 v -2.381217 c 0,-1.2898437 -0.2976562,-1.58750002 -1.5875,-1.58750002 H 1.5875002 c -0.020153,0 -0.040273,-1.48e-4 -0.059945,0 z"
     style="opacity:0.1;fill:#000000;stroke-width:0.264583;stroke-linecap:round;stroke-linejoin:round"
     id="path9125"
     sodipodi:nodetypes="cssssssssc" />
  <path
     id="rect7669"
     style="fill:#808080;stroke-width:0.264583;stroke-linecap:round;stroke-linejoin:round"
     d="M 1.7973064,0.66145835 C 0.66124888,0.67000474 0.39687501,0.95278432 0.39687501,2.1166667 v 2.1166667 c 0,1.1638823 0.26437379,1.4466584 1.40043139,1.4552084 h 0.054777 2.6458334 c 1.1823568,0 1.4552083,-0.2728518 1.4552083,-1.4552084 V 2.1166667 c 0,-1.1823567 -0.2728515,-1.45520835 -1.4552083,-1.45520835 H 1.8520834 c -0.018474,0 -0.036744,-1.3565e-4 -0.054777,0 z" />
  <path
     id="rect6397"
     style="fill:#f6f5f4;fill-opacity:1;stroke-width:0.182227;stroke-linejoin:round"
     d="M 1.532723,0.39693532 C 0.39666551,0.40548163 0.13229168,0.68826121 0.13229168,1.8521437 v 2.6458334 c 0,1.1638823 0.26437373,1.4466584 1.40043132,1.4552084 H 1.5875 4.7624975 c 1.1823568,0 1.4552083,-0.2728518 1.4552083,-1.4552084 V 1.8521437 c 0,-1.18235679 -0.2728515,-1.45520838 -1.4552083,-1.45520838 H 1.5875 c -0.018474,0 -0.036744,-1.3571e-4 -0.054777,0 z"
     sodipodi:nodetypes="cssccsssssc" />
  <path
     id="rect1310"
     style="fill:#3584e4;fill-opacity:1;stroke-width:0.529167;stroke-linecap:round;stroke-linejoin:round"
     d="m 3.1750003,0.396875 v 5.5562501 h 1.5875 c 1.1823568,0 1.4552084,-0.2728518 1.4552084,-1.4552084 V 1.8520833 c 0,-1.18235681 -0.2728516,-1.4552083 -1.4552084,-1.4552083 z" />
  <path
     id="rect1487"
     style="opacity:0.1;fill:#ffffff;fill-opacity:1;stroke-width:2;stroke-linecap:round;stroke-linejoin:round"
     d="M 12 12 L 12 22.5 L 18 22.5 C 22.46875 22.5 23.5 21.468749 23.5 17 L 23.5 12 L 12 12 z "
     transform="scale(0.26458334)" />
  <rect
     style="opacity:0.1;fill:#000000;fill-opacity:1;stroke-width:0.0946781;stroke-linejoin:round"
     id="rect2208"
     width="0.26458335"
     height="5.5562501"
     x="3.1750002"
     y="0.39687499" />
  <path
     id="path876"
     style="color:#000000;fill:#ffffff;stroke-width:0.0661458;stroke-linecap:round;-inkscape-stroke:none"
     d="m 4.4450615,2.1166667 v 0.033073 0.2899048 H 3.5830987 V 2.7212811 H 3.9536189 C 4.0762554,3.0318911 4.2261939,3.2967181 4.40062,3.5181317 4.1924402,3.7282254 3.9564346,3.8750532 3.6849014,3.9537639 l -0.032039,0.00878 0.078548,0.2707847 0.032039,-0.0093 c 0.3125268,-0.090603 0.5853943,-0.261634 0.822689,-0.4976429 0.2372196,0.235853 0.5103022,0.4070826 0.8226888,0.4976442 l 0.031523,0.0093 0.078548,-0.2707847 -0.032039,-0.00878 C 5.2153239,3.8750426 4.9793143,3.728224 4.7711398,3.5181316 4.945564,3.2967153 5.0954981,3.0318671 5.2181412,2.721281 H 5.5886611 V 2.4396444 H 4.7266983 V 2.1166667 Z M 4.2610935,2.721281 H 4.9106663 C 4.8150874,2.9441377 4.706623,3.135878 4.5856214,3.2985068 4.4646735,3.1359177 4.3566285,2.9440517 4.2610935,2.721281 Z" />
  <path
     d="M 2.2907572,4.0111512 C 2.2693789,3.9485383 2.2472342,3.8866878 2.224323,3.8255989 2.2014101,3.7645119 2.1792662,3.7018983 2.1578914,3.637758 H 1.4889983 c -0.021376,0.064142 -0.04352,0.1275193 -0.066432,0.1901322 -0.021378,0.061087 -0.042759,0.122174 -0.064143,0.183261 h -0.30009 C 1.1178928,3.8416345 1.1743981,3.685098 1.2278492,3.5415422 1.2813004,3.3979865 1.3332231,3.26207 1.3836174,3.1337928 1.4355427,3.0055088 1.4867035,2.883333 1.5370995,2.7672655 1.5874956,2.6512016 1.6394201,2.5366635 1.692873,2.4236512 h 0.2726002 c 0.053451,0.1130123 0.1053756,0.2275504 0.1557734,0.3436143 0.050398,0.1160675 0.1007948,0.2382433 0.1511909,0.3665273 0.051925,0.1282788 0.1046127,0.2641952 0.1580621,0.4077494 0.054979,0.1435558 0.1122486,0.3000923 0.1718098,0.469609 z M 1.8234501,2.7306207 C 1.7883223,2.8115621 1.7478508,2.9100665 1.7020355,3.0261339 1.6577478,3.1421979 1.6111696,3.2681924 1.5623011,3.4041176 H 2.0845886 C 2.0357166,3.2681977 1.988372,3.1414446 1.942555,3.0238585 1.8967433,2.9062636 1.8570381,2.8085265 1.8234396,2.7306472 Z"
     style="fill:#77767b;stroke-width:0.264583;enable-background:new"
     id="path988" />
  <path
     id="rect5096"
     style="opacity:0.4;stroke-width:0.240954;stroke-linecap:round;stroke-linejoin:round"
     d="M 1.5275554,0.26458333 C 0.28821988,0.27390666 1.0104166e-8,0.58239335 1.0104166e-8,1.8520834 V 4.4978839 C 1.0104166e-8,5.7877277 0.29765627,6.085384 1.5875001,6.085384 h 3.1749975 c 1.2898438,0 1.5875,-0.2976563 1.5875,-1.5875001 V 1.8520834 c 0,-1.28984381 -0.2976562,-1.58750007 -1.5875,-1.58750007 H 1.5875001 c -0.020154,0 -0.040273,-1.4798e-4 -0.059945,0 z m 0.032556,0.26458334 c 0.018033,-1.3565e-4 0.036303,0 0.054777,0 h 3.147609 c 1.1823568,0 1.3229167,0.29315998 1.3229167,1.32291673 v 2.6458005 c 0,1.0162919 -0.1405599,1.3229167 -1.3229167,1.3229167 H 1.5875001 c -0.99193704,0 -1.32291675,-0.1405599 -1.32291675,-1.3229167 V 1.8520834 c 0,-0.96076805 0.15947068,-1.31437034 1.29552805,-1.32291673 z"
     sodipodi:nodetypes="csssssssscssssssssss" />
  <path
     id="rect1565"
     style="fill:url(#linearGradient1873);fill-opacity:1;stroke-width:0.118194"
     d="M 1.5601116,0.52922694 C 0.42405397,0.53777695 0.26458335,0.8913756 0.26458335,1.8521436 V 4.497977 c 0,1.1823568 0.33097974,1.3229167 1.32291675,1.3229167 h 3.1749975 c 1.1823568,0 1.3229167,-0.3066248 1.3229167,-1.3229167 V 1.8521436 c 0,-1.02975658 -0.1405599,-1.32291666 -1.3229167,-1.32291666 h -3.147609 c -0.018473,0 -0.036744,-1.356e-4 -0.054777,0 z m 0.00259,0.26458338 h 0.049609 3.0179 c 1.0641211,0 1.190625,0.14300558 1.190625,1.05833328 V 4.497977 c 0,0.8938382 -0.1265039,1.0583334 -1.190625,1.0583334 H 1.7197917 c -1.02290214,0 -1.19062501,-0.1576914 -1.19062501,-1.0583334 V 1.8521436 c 0,-0.8540052 0.14116471,-1.05833328 1.03352871,-1.05833328 z"
     sodipodi:nodetypes="csssssssscsssssssssss" />
</svg>
