<?xml version="1.0" encoding="UTF-8" standalone="no"?>
<!-- Created with Inkscape (http://www.inkscape.org/) -->

<svg
   width="24"
   height="24"
   viewBox="0 0 6.3499999 6.3500002"
   version="1.1"
   id="svg5013"
   sodipodi:docname="preferences-system-windows.svg"
   inkscape:version="1.1.2 (0a00cf5339, 2022-02-04)"
   xmlns:inkscape="http://www.inkscape.org/namespaces/inkscape"
   xmlns:sodipodi="http://sodipodi.sourceforge.net/DTD/sodipodi-0.dtd"
   xmlns:xlink="http://www.w3.org/1999/xlink"
   xmlns="http://www.w3.org/2000/svg"
   xmlns:svg="http://www.w3.org/2000/svg">
  <sodipodi:namedview
     id="namedview5015"
     pagecolor="#ffffff"
     bordercolor="#666666"
     borderopacity="1.0"
     inkscape:pageshadow="2"
     inkscape:pageopacity="0.0"
     inkscape:pagecheckerboard="0"
     inkscape:document-units="px"
     showgrid="false"
     units="px"
     showguides="true"
     inkscape:zoom="12.174337"
     inkscape:cx="-0.45176997"
     inkscape:cy="14.949479"
     inkscape:window-width="1920"
     inkscape:window-height="1010"
     inkscape:window-x="0"
     inkscape:window-y="0"
     inkscape:window-maximized="1"
     inkscape:current-layer="svg5013" />
  <defs
     id="defs5010">
    <linearGradient
       inkscape:collect="always"
       xlink:href="#linearGradient1871"
       id="linearGradient1873"
       x1="11.046622"
       y1="2.3372049"
       x2="10.794909"
       y2="47.930588"
       gradientUnits="userSpaceOnUse"
       gradientTransform="matrix(0.12026516,0,0,0.11615853,0.28863637,0.25496375)" />
    <linearGradient
       inkscape:collect="always"
       id="linearGradient1871">
      <stop
         style="stop-color:#ffffff;stop-opacity:1;"
         offset="0"
         id="stop1867" />
      <stop
         style="stop-color:#ffffff;stop-opacity:0.1"
         offset="0.12"
         id="stop2515" />
      <stop
         style="stop-color:#ffffff;stop-opacity:0.102"
         offset="0.89999998"
         id="stop2581" />
      <stop
         style="stop-color:#ffffff;stop-opacity:0.502"
         offset="1"
         id="stop1869" />
    </linearGradient>
    <linearGradient
       inkscape:collect="always"
       xlink:href="#linearGradient2290"
       id="linearGradient2292"
       x1="1.9582907"
       y1="0.28538564"
       x2="6.4532399"
       y2="8.3434572"
       gradientUnits="userSpaceOnUse"
       gradientTransform="matrix(0.72413793,0,0,0.70370371,0.10948281,0.06375639)" />
    <linearGradient
       inkscape:collect="always"
       id="linearGradient2290">
      <stop
         style="stop-color:#5884f4;stop-opacity:1"
         offset="0"
         id="stop2286" />
      <stop
         style="stop-color:#80a3fa;stop-opacity:1"
         offset="1"
         id="stop2288" />
    </linearGradient>
  </defs>
  <path
     d="M 1.5275554,0.79381578 C 0.28822009,0.80313578 1.9010417e-7,1.1116258 1.9010417e-7,2.3813158 v 2.381217 c 0,1.289844 0.29765619989583,1.5875 1.58750000989583,1.5875 h 3.1749977 c 1.2898438,0 1.5875,-0.297656 1.5875,-1.5875 v -2.381217 c 0,-1.2898437 -0.2976562,-1.58750002 -1.5875,-1.58750002 H 1.5875002 c -0.020153,0 -0.040273,-1.48e-4 -0.059945,0 z"
     style="opacity:0.1;fill:#000000;stroke-width:0.264583;stroke-linecap:round;stroke-linejoin:round"
     id="path9125"
     sodipodi:nodetypes="cssssssssc" />
  <path
     id="rect7669"
     style="fill:#808080;stroke-width:0.264583;stroke-linecap:round;stroke-linejoin:round"
     d="M 1.7973064,0.66145835 C 0.66124888,0.67000474 0.39687501,0.95278432 0.39687501,2.1166667 v 2.1166667 c 0,1.1638823 0.26437379,1.4466584 1.40043139,1.4552084 h 0.054777 2.6458334 c 1.1823568,0 1.4552083,-0.2728518 1.4552083,-1.4552084 V 2.1166667 c 0,-1.1823567 -0.2728515,-1.45520835 -1.4552083,-1.45520835 H 1.8520834 c -0.018474,0 -0.036744,-1.3565e-4 -0.054777,0 z" />
  <path
     id="rect6397"
     style="fill:url(#linearGradient2292);fill-opacity:1;stroke-width:0.182227;stroke-linejoin:round"
     d="M 1.532723,0.39693532 C 0.39666551,0.40548163 0.13229168,0.68826121 0.13229168,1.8521437 v 2.6458334 c 0,1.1638823 0.26437373,1.4466584 1.40043132,1.4552084 H 1.5875 4.7624975 c 1.1823568,0 1.4552083,-0.2728518 1.4552083,-1.4552084 V 1.8521437 c 0,-1.18235679 -0.2728515,-1.45520838 -1.4552083,-1.45520838 H 1.5875 c -0.018474,0 -0.036744,-1.3571e-4 -0.054777,0 z"
     sodipodi:nodetypes="cssccsssssc" />
  <path
     d="m 1.7383665,1.5876188 c -0.1408509,-7.937e-4 -0.2516875,0.00212 -0.3427941,0.017145 -0.091173,0.015002 -0.1657139,0.043566 -0.2202101,0.097666 -0.054499,0.054099 -0.083315,0.1280795 -0.098616,0.2183368 -0.010901,0.064225 -0.014711,0.1432428 -0.016563,0.2308198 -7.938e-4,0.035494 -0.00185,0.068255 -0.00185,0.1084342 v 2.0947063 c 0,0.1393057 0.00323,0.2489385 0.018521,0.3390106 0.015293,0.090072 0.044098,0.1637004 0.098616,0.2176013 0.054517,0.053901 0.1288786,0.082291 0.2199614,0.097422 0.091083,0.015134 0.202102,0.018336 0.3430323,0.018336 h 1.4366045 1.436427 c 0.1409409,0 0.25196,-0.00323 0.3430323,-0.018336 0.091072,-0.015108 0.1654439,-0.043521 0.2199613,-0.097422 0.054517,-0.053901 0.083309,-0.1275318 0.098616,-0.2176013 0.015293,-0.09007 0.018521,-0.1997022 0.018521,-0.3390106 V 2.2600206 c 0,-0.04018 -0.00132,-0.07294 -0.00185,-0.1084342 C 5.2879191,2.0640091 5.2840826,1.9849912 5.2732083,1.9207663 5.2579153,1.830509 5.2290916,1.7565262 5.1745928,1.7024295 5.1200965,1.6483301 5.0455555,1.619771 4.9543827,1.6047638 4.8632126,1.5897619 4.7523389,1.5869574 4.6113504,1.5876188 H 3.175188 Z"
     style="color:#000000;opacity:0.1;fill:#000000;fill-opacity:1;stroke-width:0.264583;enable-background:accumulate"
     id="path1141"
     sodipodi:nodetypes="cccccsscscscscscssccccccc" />
  <path
     d="m 1.7383665,1.3230355 c -0.1408509,-7.938e-4 -0.2516875,0.00212 -0.3427941,0.017145 -0.091173,0.015002 -0.1657139,0.043566 -0.2202101,0.097666 -0.054499,0.054099 -0.083315,0.1280795 -0.098616,0.2183368 -0.010901,0.064225 -0.014711,0.1432428 -0.016563,0.2308199 -7.938e-4,0.035494 -0.00185,0.068255 -0.00185,0.1084342 v 2.0947062 c 0,0.1393058 0.00323,0.2489386 0.018521,0.3390107 0.015293,0.090072 0.044098,0.1637003 0.098616,0.2176012 0.054517,0.053901 0.1288786,0.082291 0.2199614,0.097422 0.091083,0.015134 0.202102,0.018336 0.3430323,0.018336 h 2.0980628 0.7750705 c 0.1409409,0 0.25196,-0.00323 0.3430323,-0.018336 0.091072,-0.015108 0.1654439,-0.043521 0.2199613,-0.097422 0.054517,-0.053901 0.083309,-0.1275318 0.098616,-0.2176012 0.015293,-0.090069 0.018521,-0.1997022 0.018521,-0.3390107 V 1.995437 c 0,-0.04018 -0.00132,-0.07294 -0.00185,-0.1084342 C 5.2880179,1.7994257 5.2841879,1.7204079 5.2733099,1.6561829 5.2580171,1.5659256 5.2291934,1.4919428 5.1746946,1.4378461 5.1201983,1.3837468 5.0456573,1.3551876 4.9544845,1.3401805 4.8633144,1.3251786 4.7524407,1.322374 4.6114522,1.3230355 H 3.8366463 Z"
     style="color:#000000;fill:#e3dfd5;stroke-width:0.264583;enable-background:accumulate;fill-opacity:1"
     id="path901"
     sodipodi:nodetypes="cccccsscscscscscssccccccc" />
  <path
     d="m 1.7384784,1.3230355 c -0.1408509,-7.938e-4 -0.2515076,0.00212 -0.3426089,0.017039 -0.091173,0.015002 -0.166161,0.043569 -0.2206572,0.097668 -0.054499,0.054099 -0.082886,0.1283362 -0.098187,0.2185935 -0.00923,0.054451 -0.011774,0.1239308 -0.013944,0.1958525 H 5.2871187 C 5.285002,1.7802672 5.2823826,1.7107877 5.2731751,1.6563364 5.2578822,1.5660791 5.2294871,1.4918397 5.1749882,1.4377429 5.120492,1.3836436 5.0455038,1.3550818 4.954331,1.3400746 4.8631609,1.3250728 4.7527132,1.322374 4.6117221,1.3230355 H 3.8365458 Z"
     style="color:#000000;fill:#5d5d5d;stroke-width:0.264583;enable-background:accumulate;fill-opacity:1"
     id="path1021"
     sodipodi:nodetypes="cccccccccccc" />
  <path
     id="rect5096"
     style="opacity:0.4;stroke-width:0.240954;stroke-linecap:round;stroke-linejoin:round"
     d="M 1.5275554,0.26458333 C 0.28821988,0.27390666 1.0104166e-8,0.58239335 1.0104166e-8,1.8520834 V 4.4978839 C 1.0104166e-8,5.7877277 0.29765627,6.085384 1.5875001,6.085384 h 3.1749975 c 1.2898438,0 1.5875,-0.2976563 1.5875,-1.5875001 V 1.8520834 c 0,-1.28984381 -0.2976562,-1.58750007 -1.5875,-1.58750007 H 1.5875001 c -0.020154,0 -0.040273,-1.4798e-4 -0.059945,0 z m 0.032556,0.26458334 c 0.018033,-1.3565e-4 0.036303,0 0.054777,0 h 3.147609 c 1.1823568,0 1.3229167,0.29315998 1.3229167,1.32291673 v 2.6458005 c 0,1.0162919 -0.1405599,1.3229167 -1.3229167,1.3229167 H 1.5875001 c -0.99193704,0 -1.32291675,-0.1405599 -1.32291675,-1.3229167 V 1.8520834 c 0,-0.96076805 0.15947068,-1.31437034 1.29552805,-1.32291673 z"
     sodipodi:nodetypes="csssssssscssssssssss" />
  <path
     id="rect1565"
     style="fill:url(#linearGradient1873);fill-opacity:1;stroke-width:0.118194"
     d="M 1.5601116,0.52922694 C 0.42405397,0.53777695 0.26458335,0.8913756 0.26458335,1.8521436 V 4.497977 c 0,1.1823568 0.33097974,1.3229167 1.32291675,1.3229167 h 3.1749975 c 1.1823568,0 1.3229167,-0.3066248 1.3229167,-1.3229167 V 1.8521436 c 0,-1.02975658 -0.1405599,-1.32291666 -1.3229167,-1.32291666 h -3.147609 c -0.018473,0 -0.036744,-1.356e-4 -0.054777,0 z m 0.00259,0.26458338 h 0.049609 3.0179 c 1.0641211,0 1.190625,0.14300558 1.190625,1.05833328 V 4.497977 c 0,0.8938382 -0.1265039,1.0583334 -1.190625,1.0583334 H 1.7197917 c -1.02290214,0 -1.19062501,-0.1576914 -1.19062501,-1.0583334 V 1.8521436 c 0,-0.8540052 0.14116471,-1.05833328 1.03352871,-1.05833328 z"
     sodipodi:nodetypes="csssssssscsssssssssss" />
</svg>
