<?xml version="1.0" encoding="UTF-8" standalone="no"?>
<!-- Created with Inkscape (http://www.inkscape.org/) -->

<svg
   width="24"
   height="24"
   viewBox="0 0 6.3499999 6.3500002"
   version="1.1"
   id="svg5013"
   sodipodi:docname="software-properties.svg"
   inkscape:version="1.1.2 (0a00cf5339, 2022-02-04)"
   xmlns:inkscape="http://www.inkscape.org/namespaces/inkscape"
   xmlns:sodipodi="http://sodipodi.sourceforge.net/DTD/sodipodi-0.dtd"
   xmlns:xlink="http://www.w3.org/1999/xlink"
   xmlns="http://www.w3.org/2000/svg"
   xmlns:svg="http://www.w3.org/2000/svg">
  <sodipodi:namedview
     id="namedview5015"
     pagecolor="#ffffff"
     bordercolor="#666666"
     borderopacity="1.0"
     inkscape:pageshadow="2"
     inkscape:pageopacity="0.0"
     inkscape:pagecheckerboard="0"
     inkscape:document-units="px"
     showgrid="false"
     units="px"
     showguides="true"
     inkscape:zoom="32.25"
     inkscape:cx="11.984496"
     inkscape:cy="12"
     inkscape:window-width="1920"
     inkscape:window-height="998"
     inkscape:window-x="0"
     inkscape:window-y="0"
     inkscape:window-maximized="1"
     inkscape:current-layer="svg5013" />
  <defs
     id="defs5010">
    <linearGradient
       inkscape:collect="always"
       xlink:href="#linearGradient1871"
       id="linearGradient1873"
       x1="17.305155"
       y1="0.083426654"
       x2="17.305155"
       y2="47.797596"
       gradientUnits="userSpaceOnUse"
       gradientTransform="matrix(0.12026516,0,0,0.11615853,0.2886364,0.38726097)" />
    <linearGradient
       inkscape:collect="always"
       id="linearGradient1871">
      <stop
         style="stop-color:#ffffff;stop-opacity:1;"
         offset="0"
         id="stop1867" />
      <stop
         style="stop-color:#ffffff;stop-opacity:0.1"
         offset="0.12"
         id="stop2515" />
      <stop
         style="stop-color:#ffffff;stop-opacity:0.102"
         offset="0.89999998"
         id="stop2581" />
      <stop
         style="stop-color:#ffffff;stop-opacity:0.502"
         offset="1"
         id="stop1869" />
    </linearGradient>
  </defs>
  <path
     d="M 1.5275552,0.52916667 C 0.28821992,0.53848667 1.6249999e-8,0.84697669 1.6249999e-8,2.1166667 V 4.7625 C 1.6249999e-8,6.052344 0.29765622,6.35 1.5875,6.35 h 3.175 C 6.0523438,6.35 6.35,6.052344 6.35,4.7625 V 2.1166667 C 6.35,0.82682299 6.0523438,0.52916667 4.7625,0.52916667 h -3.175 c -0.020153,0 -0.040273,-1.48e-4 -0.059945,0 z"
     style="opacity:0.1;fill:#000000;stroke-width:0.264583;stroke-linecap:round;stroke-linejoin:round"
     id="path9125"
     sodipodi:nodetypes="cssssssssc" />
  <path
     id="rect16934"
     style="fill:#641c5d;fill-opacity:1;stroke-width:0.175781;stroke-linecap:round;stroke-linejoin:round"
     d="m 5.7929687,1.4999999 c -4.2937607,0.032301 -5.29296876,1.1010741 -5.29296876,5.5 V 17 c 0,4.398925 0.99920766,5.467685 5.29296876,5.5 H 5.9999999 18 c 4.46875,0 5.5,-1.031251 5.5,-5.5 V 6.9999999 c 0,-4.46875 -1.03125,-5.5 -5.5,-5.5 H 5.9999999 c -0.069823,0 -0.138875,-5.129e-4 -0.2070312,0 z"
     sodipodi:nodetypes="cssccsssssc"
     transform="scale(0.26458334)" />
  <path
     d="M 1.532723,0.39693531 C 0.39666537,0.40548531 0.13229167,0.68826111 0.13229167,1.8521437 V 4.497977 c 0,1.1638823 0.2643736,1.4466584 1.40043133,1.4552084 H 1.5875 4.7625 c 1.1823567,0 1.4552083,-0.2728519 1.4552083,-1.4552084 V 1.8521437 c 1e-7,-1.18235689 -0.2728515,-1.45520839 -1.4552082,-1.45520839 h -3.175 c -0.018474,0 -0.036744,-1.357e-4 -0.054777,0 z M 1.8272787,1.0583936 h 0.049609 2.488737 c 1.0283962,0 1.190625,0.1430057 1.190625,1.0583334 v 2.1166667 c 0,0.8938382 -0.1265039,1.0583333 -1.190625,1.0583333 h -2.38125 c -1.02290213,0 -1.19062513,-0.1576916 -1.19062513,-1.0583333 V 2.116727 c 0,-0.8540052 0.1411647,-1.0583334 1.03352913,-1.0583334 z"
     style="fill:#ebebeb;fill-opacity:1;stroke-width:0.0465087;stroke-linecap:round;stroke-linejoin:round"
     id="path3832" />
  <path
     d="M 2.8728723,1.3229166 C 2.749169,1.5806261 2.6306278,1.841791 2.5172459,2.1063743 2.403856,2.3675207 2.2886961,2.6424202 2.1718588,2.9310806 2.0584663,3.2197146 1.8213917,3.8485233 1.8213917,3.8485233 L 1.5538979,4.4979432 H 2.232025 l 0.245327,-0.6741055 1.4188546,0.07878 0.2579688,0.5953125 H 4.8295243 L 4.5370539,3.8588289 c 0,0 -0.2388103,-0.6271155 -0.3556529,-0.9123099 C 4.0680085,2.6578851 3.9545975,2.3812897 3.8411997,2.1167063 3.7278072,1.852123 3.4804403,1.3229298 3.4804403,1.3229298 H 3.1749789 Z M 3.419184,2.6269156 C 3.5428847,2.932721 3.6700011,3.2626035 3.8005809,3.6165367 L 2.5820423,3.5701658 C 2.6885636,3.2712131 2.7950981,2.9826056 2.9016061,2.7042904 2.9894054,2.4793125 3.0806496,2.2623303 3.1750265,2.0526745 v -0.00402 c 0,0 0.1383057,0.3169973 0.2441628,0.5782734 z"
     style="fill:#ececec;stroke-width:0.264583;enable-background:new"
     id="path881" />
  <path
     d="M 3.4736617,1.3144357 3.1750265,2.0486545 c 0,0 0.1357577,0.3186641 0.2373365,0.5697802 0.1237007,0.3058054 0.2508145,0.6356879 0.3813969,0.9896211 l 0.6519334,0.017595 C 4.3543485,3.3854618 4.2639801,3.1560945 4.1746541,2.9380249 4.0612616,2.6493909 3.9478506,2.3727955 3.8344528,2.1082122 3.7210604,1.8436288 3.4736935,1.3144357 3.4736935,1.3144357 Z M 3.3783006,3.8713955 3.9019639,3.9070217 4.1471798,4.489449 H 4.822026 L 4.5695474,3.908715 4.5640474,3.894163 Z"
     style="opacity:0.1;fill:#c43ac4;stroke-width:0.264583;enable-background:new;fill-opacity:1"
     id="path1100" />
  <path
     id="rect2923"
     style="opacity:1;fill:#f8f8f8;stroke-width:0.529167;stroke-linecap:round;stroke-linejoin:round"
     d="m 1.7197917,3.175 h 2.9104167 c 0.2198687,0 0.396875,0.1770062 0.396875,0.396875 0,0.2198687 -0.1770063,0.396875 -0.396875,0.396875 H 1.7197917 c -0.2198687,0 -0.396875,-0.1770063 -0.396875,-0.396875 0,-0.2198688 0.1770063,-0.396875 0.396875,-0.396875 z" />
  <path
     id="rect3110"
     style="opacity:0.1;fill:#1f1f1f;stroke-width:0.529167;stroke-linecap:round;stroke-linejoin:round"
     d="m 1.7197916,3.4395834 h 2.9104166 c 0.07329,0 0.1322917,0.059002 0.1322917,0.1322917 0,0.07329 -0.059002,0.1322917 -0.1322917,0.1322917 H 1.7197916 c -0.07329,0 -0.1322916,-0.059002 -0.1322916,-0.1322917 0,-0.07329 0.059002,-0.1322917 0.1322916,-0.1322917 z"
     sodipodi:nodetypes="sssssss" />
  <path
     d="m 1.7197916,3.4395834 h 1.8520832 c 0.07329,0 0.1322917,0.059002 0.1322917,0.1322917 0,0.07329 -0.059002,0.1322917 -0.1322917,0.1322917 H 1.7197916 c -0.07329,0 -0.1322916,-0.059002 -0.1322916,-0.1322917 0,-0.07329 0.059002,-0.1322917 0.1322916,-0.1322917 z"
     style="opacity:1;fill:#77216f;stroke-width:0.140009;stroke-linecap:round;stroke-linejoin:round;fill-opacity:1"
     id="path3340"
     sodipodi:nodetypes="sssssss" />
  <path
     id="rect13049"
     style="opacity:0.1;fill:#ffffff;stroke-width:0.264583;stroke-linecap:round;stroke-linejoin:round"
     d="m 0.13229167,3.175 v 1.3228839 c 0,1.1638823 0.2643737,1.4466583 1.40043133,1.4552084 H 1.5875 4.7624975 c 1.1823568,0 1.4552083,-0.3066797 1.4552083,-1.4552084 V 3.175 Z"
     sodipodi:nodetypes="csccsscc" />
  <circle
     style="opacity:0.41;fill:#000000;fill-opacity:1;stroke-width:0.529167;stroke-linecap:round;stroke-linejoin:round"
     id="path9062"
     cx="3.5718751"
     cy="3.5718751"
     r="0.66145831" />
  <circle
     style="opacity:1;fill:#ebebeb;fill-opacity:1;stroke-width:0.592565;stroke-linecap:round;stroke-linejoin:round"
     id="path9254"
     cx="3.5718751"
     cy="3.5718751"
     r="0.39687499" />
  <path
     id="rect5096"
     style="opacity:0.4;stroke-width:0.240954;stroke-linecap:round;stroke-linejoin:round"
     d="M 1.5275554,0.26464907 C 0.2882199,0.27396907 0,0.58245917 0,1.8521492 v 2.6458333 c 0,1.2898438 0.2976563,1.5875001 1.5875001,1.5875001 h 3.1749977 c 1.2898438,0 1.5874999,-0.2976563 1.5874999,-1.5875001 V 1.8521492 c 0,-1.28984383 -0.2976561,-1.58750013 -1.5874999,-1.58750013 H 1.5875001 c -0.020154,0 -0.040273,-1.479e-4 -0.059945,0 z m 0.032556,0.2645834 c 0.018033,-1.357e-4 0.036303,0 0.054777,0 h 3.1476092 c 1.1823568,0 1.3229167,0.29316 1.3229167,1.32291673 v 2.6458333 c 0,1.0162919 -0.1405599,1.3229167 -1.3229167,1.3229167 H 1.5875001 c -0.991937,0 -1.3229168,-0.1405599 -1.3229168,-1.3229167 V 1.8521492 c 0,-0.96076803 0.1594707,-1.31437033 1.2955281,-1.32291673 z"
     sodipodi:nodetypes="csssssssscssssssssss" />
  <path
     id="rect1565"
     style="fill:url(#linearGradient1873);fill-opacity:1;stroke-width:0.118194;opacity:1"
     d="M 1.5601116,0.52923247 C 0.424054,0.53778247 0.2645833,0.89138117 0.2645833,1.8521491 v 2.6458334 c 0,1.1823568 0.3309798,1.3229167 1.3229168,1.3229167 h 3.1749977 c 1.1823568,0 1.3229167,-0.3066248 1.3229167,-1.3229167 V 1.8521491 c 0,-1.02975653 -0.1405599,-1.32291663 -1.3229167,-1.32291663 H 1.6148886 c -0.018473,0 -0.036744,-1.356e-4 -0.054777,0 z m 0.00259,0.2645834 h 0.049609 3.0179002 c 1.0641211,0 1.190625,0.1430056 1.190625,1.05833323 v 2.6458334 c 0,0.8938382 -0.1265039,1.0583334 -1.190625,1.0583334 H 1.7197917 c -1.0229021,0 -1.190625,-0.1576914 -1.190625,-1.0583334 V 1.8521491 c 0,-0.85400513 0.1411647,-1.05833323 1.0335287,-1.05833323 z"
     sodipodi:nodetypes="csssssssscsssssssssss" />
</svg>
