<?xml version="1.0" encoding="UTF-8" standalone="no"?>
<!-- Created with Inkscape (http://www.inkscape.org/) -->

<svg
   width="24"
   height="24"
   viewBox="0 0 6.3499999 6.3500002"
   version="1.1"
   id="svg5013"
   sodipodi:docname="system-settings.svg"
   inkscape:version="1.1.2 (0a00cf5339, 2022-02-04)"
   xmlns:inkscape="http://www.inkscape.org/namespaces/inkscape"
   xmlns:sodipodi="http://sodipodi.sourceforge.net/DTD/sodipodi-0.dtd"
   xmlns:xlink="http://www.w3.org/1999/xlink"
   xmlns="http://www.w3.org/2000/svg"
   xmlns:svg="http://www.w3.org/2000/svg">
  <sodipodi:namedview
     id="namedview5015"
     pagecolor="#ffffff"
     bordercolor="#666666"
     borderopacity="1.0"
     inkscape:pageshadow="2"
     inkscape:pageopacity="0.0"
     inkscape:pagecheckerboard="0"
     inkscape:document-units="px"
     showgrid="false"
     units="px"
     showguides="false"
     inkscape:zoom="17.217113"
     inkscape:cx="1.4810845"
     inkscape:cy="10.774164"
     inkscape:window-width="1920"
     inkscape:window-height="1010"
     inkscape:window-x="0"
     inkscape:window-y="0"
     inkscape:window-maximized="1"
     inkscape:current-layer="svg5013" />
  <defs
     id="defs5010">
    <linearGradient
       inkscape:collect="always"
       id="linearGradient1071">
      <stop
         style="stop-color:#e6e6e6;stop-opacity:1;"
         offset="0"
         id="stop1067" />
      <stop
         style="stop-color:#d3d3d3;stop-opacity:1"
         offset="1"
         id="stop1069" />
    </linearGradient>
    <linearGradient
       inkscape:collect="always"
       xlink:href="#linearGradient1871"
       id="linearGradient1873"
       x1="11.046622"
       y1="2.3372049"
       x2="10.794909"
       y2="47.930588"
       gradientUnits="userSpaceOnUse"
       gradientTransform="matrix(0.12026516,0,0,0.11615853,0.28863637,0.25496375)" />
    <linearGradient
       inkscape:collect="always"
       id="linearGradient1871">
      <stop
         style="stop-color:#ffffff;stop-opacity:1;"
         offset="0"
         id="stop1867" />
      <stop
         style="stop-color:#ffffff;stop-opacity:0.1"
         offset="0.12"
         id="stop2515" />
      <stop
         style="stop-color:#ffffff;stop-opacity:0.102"
         offset="0.89999998"
         id="stop2581" />
      <stop
         style="stop-color:#ffffff;stop-opacity:0.502"
         offset="1"
         id="stop1869" />
    </linearGradient>
    <linearGradient
       inkscape:collect="always"
       xlink:href="#linearGradient1071"
       id="linearGradient1073"
       x1="5.0524802"
       y1="6.0794616"
       x2="1.5275553"
       y2="0.26458332"
       gradientUnits="userSpaceOnUse" />
  </defs>
  <path
     d="M 1.5275554,0.79381578 C 0.28822009,0.80313578 1.9010417e-7,1.1116258 1.9010417e-7,2.3813158 v 2.381217 c 0,1.289844 0.29765619989583,1.5875 1.58750000989583,1.5875 h 3.1749977 c 1.2898438,0 1.5875,-0.297656 1.5875,-1.5875 v -2.381217 c 0,-1.2898437 -0.2976562,-1.58750002 -1.5875,-1.58750002 H 1.5875002 c -0.020153,0 -0.040273,-1.48e-4 -0.059945,0 z"
     style="opacity:0.1;fill:#000000;stroke-width:0.264583;stroke-linecap:round;stroke-linejoin:round"
     id="path9125"
     sodipodi:nodetypes="cssssssssc" />
  <path
     id="rect6397"
     style="fill:url(#linearGradient1073);fill-opacity:1;stroke-width:0.182227;stroke-linejoin:round"
     d="M 1.532723,0.39693532 C 0.39666551,0.40548163 0.13229168,0.68826121 0.13229168,1.8521437 v 2.6458334 c 0,1.1638823 0.26437373,1.4466584 1.40043132,1.4552084 H 1.5875 4.7624975 c 1.1823568,0 1.4552083,-0.2728518 1.4552083,-1.4552084 V 1.8521437 c 0,-1.18235679 -0.2728515,-1.45520838 -1.4552083,-1.45520838 H 1.5875 c -0.018474,0 -0.036744,-1.3571e-4 -0.054777,0 z"
     sodipodi:nodetypes="cssccsssssc" />
  <circle
     style="fill:#4d4d4d;fill-opacity:1;stroke-width:0.148828"
     id="path1406"
     cx="3.175"
     cy="3.175"
     r="2.3812499" />
  <path
     d="m 3.1749913,1.2339259 c -0.1396058,-0.00155 -0.1884395,0.00363 -0.208077,0.172436 l -0.00748,0.059653 c -0.017232,0.1094805 -0.020526,0.159057 -0.1241067,0.1858823 -0.00694,0.00155 -0.01387,0.00311 -0.020778,0.00475 -0.00164,3.36e-4 -0.00308,7.302e-4 -0.00475,0.00106 l 2.071e-4,5.17e-5 c -0.026152,0.00631 -0.052023,0.013315 -0.077649,0.020929 l 2.588e-4,-3.041e-4 c -0.00428,0.00146 -0.00818,0.00263 -0.012234,0.00389 -0.00388,0.00119 -0.00776,0.00232 -0.011626,0.00354 -0.104089,0.0292 -0.1316261,-0.012102 -0.2015545,-0.098626 L 2.470854,1.5392628 C 2.420149,1.4710758 2.383633,1.4419758 2.3447255,1.438813 c -0.00486,-3.942e-4 -0.00979,-3.891e-4 -0.014762,0 C 2.2951795,1.441543 2.2570455,1.46289 2.2044925,1.494017 2.0828133,1.562475 2.0431189,1.59133 2.1105135,1.7473378 l 0.023305,0.055405 c 0.042873,0.1113622 0.065182,0.1544524 -0.033718,0.2408348 l 0.00263,-6.057e-4 c -0.020443,0.019376 -0.040327,0.039312 -0.059703,0.059754 l 5.565e-4,-0.00263 C 1.957202,2.1989989 1.9141122,2.1766879 1.80275,2.1338149 L 1.747345,2.1104589 c -0.048753,-0.021061 -0.085088,-0.03165 -0.114098,-0.032556 -0.06382,-0.002 -0.092157,0.042881 -0.1392228,0.1265349 -0.071147,0.1201262 -0.091127,0.165005 0.045244,0.2664151 l 0.04792,0.036352 c 0.086525,0.069929 0.127829,0.097466 0.098628,0.2015543 -0.00122,0.00387 -0.00235,0.00775 -0.00354,0.011629 -0.00127,0.00405 -0.00238,0.00795 -0.00384,0.012235 l 2.536e-4,-2.589e-4 c -0.00761,0.025627 -0.01462,0.051497 -0.020929,0.077649 l -5.24e-5,-2.08e-4 c -3.282e-4,0.00167 -7.224e-4,0.00312 -0.00106,0.00475 -0.00164,0.00691 -0.0032,0.013835 -0.00475,0.020778 -0.026828,0.1035817 -0.076402,0.1068766 -0.1858823,0.124107 l -0.059653,0.00748 c -0.1688053,0.019635 -0.1739897,0.068468 -0.1724367,0.2080745 -0.00155,0.1396055 0.00363,0.1884393 0.172436,0.208077 l 0.059653,0.00748 c 0.1094805,0.017232 0.159057,0.020526 0.1858823,0.1241071 0.00155,0.00694 0.00311,0.013869 0.00475,0.020778 3.36e-4,0.00164 7.302e-4,0.00308 0.00106,0.00475 l 5.18e-5,-2.07e-4 c 0.00631,0.026152 0.013315,0.052023 0.020929,0.077649 l -3.041e-4,-2.588e-4 c 0.00146,0.00428 0.00263,0.00818 0.00389,0.012234 0.00119,0.00388 0.00232,0.00776 0.00354,0.011629 0.029199,0.1040887 -0.012103,0.1316258 -0.098628,0.2015545 l -0.047925,0.036348 c -0.1363704,0.1014072 -0.1163913,0.1462368 -0.045244,0.266363 0.068458,0.1216792 0.097313,0.1613736 0.2533208,0.093979 l 0.055405,-0.023305 c 0.1113639,-0.042876 0.1544541,-0.065185 0.2408365,0.033715 l -6.057e-4,-0.00262 c 0.019376,0.020442 0.039311,0.040328 0.059754,0.059702 L 2.100098,4.3064131 C 2.199,4.3927951 2.176689,4.4358857 2.133816,4.5472476 L 2.11046,4.6026536 c -0.067397,0.156008 -0.0277,0.1849114 0.093979,0.2533726 0.1201262,0.071148 0.165005,0.091075 0.2664151,-0.045295 l 0.036348,-0.047925 c 0.069929,-0.086525 0.097466,-0.1278265 0.2015546,-0.098628 0.00387,0.00122 0.00775,0.00236 0.011629,0.00354 0.00405,0.00127 0.00795,0.00243 0.012234,0.00389 l -2.589e-4,-2.925e-4 c 0.025628,0.00761 0.051497,0.014621 0.077649,0.020929 l -2.071e-4,5.18e-5 c 0.00167,3.442e-4 0.00312,7.143e-4 0.00475,0.00106 0.00691,0.00164 0.013835,0.0032 0.020778,0.00475 0.1035817,0.026828 0.1068766,0.076402 0.124107,0.1858821 l 0.00748,0.059653 c 0.019637,0.1688043 0.068469,0.173989 0.2080773,0.1724357 0.1396061,0.00156 0.1884398,-0.00363 0.2080771,-0.1724357 l 0.00748,-0.059653 c 0.017232,-0.1094802 0.020527,-0.1590568 0.1241073,-0.1858821 0.00694,-0.00156 0.013869,-0.00311 0.020778,-0.00475 0.00164,-3.443e-4 0.00308,-7.144e-4 0.00475,-0.00106 l -2.07e-4,-5.18e-5 c 0.026152,-0.00631 0.052023,-0.013314 0.077649,-0.020929 l -2.589e-4,2.925e-4 c 0.00428,-0.00145 0.00818,-0.00262 0.012234,-0.00389 0.00388,-0.00119 0.00776,-0.00233 0.011628,-0.00354 0.104089,-0.029199 0.1316261,0.012104 0.2015543,0.098628 l 0.036343,0.047915 c 0.1014186,0.1363782 0.1462484,0.116399 0.2663743,0.045251 0.1216792,-0.068458 0.1613762,-0.097313 0.093979,-0.2533207 L 4.2161786,4.5472464 C 4.1733057,4.4358843 4.1509973,4.392794 4.2498968,4.3064117 l -0.00262,6.082e-4 c 0.020441,-0.019375 0.040328,-0.039311 0.059702,-0.059754 l -5.565e-4,0.00262 c 0.086382,-0.098902 0.1294726,-0.076591 0.2408347,-0.033718 l 0.055405,0.023355 c 0.1560079,0.067397 0.1848625,0.0277 0.2533207,-0.093979 0.071148,-0.120126 0.091127,-0.165005 -0.045244,-0.2664148 l -0.047924,-0.036348 c -0.086525,-0.069929 -0.127829,-0.097466 -0.098628,-0.2015548 0.00122,-0.00387 0.00236,-0.00775 0.00354,-0.011628 0.00127,-0.00405 0.00238,-0.00795 0.00384,-0.012234 l -2.588e-4,2.588e-4 c 0.00761,-0.025628 0.014621,-0.051497 0.020929,-0.077649 l 5.18e-5,2.071e-4 c 3.442e-4,-0.00167 7.143e-4,-0.00312 0.00106,-0.00475 0.00164,-0.00691 0.0032,-0.013835 0.00475,-0.020778 0.026828,-0.1035817 0.076402,-0.1068766 0.1858825,-0.124107 l 0.059653,-0.00748 C 5.1124384,3.3634235 5.1176225,3.3145921 5.1160698,3.1749837 5.1176305,3.0353779 5.1124396,2.9865442 4.9436338,2.9669066 l -0.059653,-0.00748 C 4.7745004,2.9421919 4.7249236,2.9389006 4.6980984,2.8353173 c -0.00156,-0.00694 -0.00311,-0.01387 -0.00475,-0.020778 -3.443e-4,-0.00164 -7.144e-4,-0.00308 -0.00106,-0.00475 l -5.18e-5,2.071e-4 c -0.00631,-0.026153 -0.013314,-0.052024 -0.020929,-0.077651 L 4.6716,2.732604 C 4.67015,2.728324 4.66898,2.724424 4.66771,2.72037 4.66652,2.71649 4.66538,2.71261 4.66417,2.708741 4.634971,2.604652 4.676274,2.5771149 4.762798,2.5071865 L 4.810723,2.4708395 C 4.9470936,2.3694316 4.9271144,2.324602 4.8559668,2.2044758 4.8089009,2.1208215 4.7805641,2.0758936 4.7167441,2.0778918 4.6877371,2.0788003 4.6513991,2.0894368 4.602646,2.1104988 L 4.547241,2.1338038 C 4.4358784,2.1766771 4.3927882,2.1989857 4.3064058,2.1000863 l 6.083e-4,0.00263 c -0.019375,-0.020442 -0.039311,-0.040328 -0.059754,-0.059702 l 0.00262,5.564e-4 C 4.1509854,1.9572013 4.1732967,1.9141111 4.2161695,1.8027489 l 0.023355,-0.055405 c 0.067397,-0.1560084 0.0277,-0.1848628 -0.093979,-0.2533212 -0.060064,-0.035574 -0.1013273,-0.058364 -0.1402348,-0.055204 -0.038908,0.00316 -0.075475,0.032263 -0.1261802,0.1004498 l -0.036348,0.047925 c -0.069928,0.086525 -0.097465,0.1278291 -0.2015545,0.098628 -0.00387,-0.00122 -0.00775,-0.00235 -0.011629,-0.00354 -0.00405,-0.00127 -0.00795,-0.00238 -0.012234,-0.00384 l 2.588e-4,2.537e-4 c -0.025625,-0.00761 -0.051495,-0.01462 -0.077647,-0.020929 l 2.071e-4,-5.17e-5 c -0.00167,-3.282e-4 -0.00312,-7.224e-4 -0.00475,-0.00106 -0.00691,-0.00164 -0.013835,-0.0032 -0.020778,-0.00475 C 3.4110729,1.6250727 3.4077783,1.5754987 3.3905476,1.4660183 l -0.00748,-0.059653 C 3.3634342,1.2375582 3.3146018,1.2323764 3.174996,1.2339294 Z m -2.899e-4,0.8022218 c 1.036e-4,-2e-7 2.071e-4,-2e-7 2.899e-4,0 0.1311059,7.8e-6 0.2578167,0.022646 0.3762113,0.064203 0.022947,0.075095 0.073486,0.1387116 0.1414462,0.1780475 0.067912,0.039037 0.1480652,0.050972 0.2244041,0.033415 0.1864466,0.1602347 0.3217273,0.3805856 0.3737268,0.635405 0.013107,0.06419 -0.035944,0.1242646 -0.1014593,0.1242597 H 3.8689131 c -0.045795,3.6e-6 -0.086152,-0.030074 -0.099236,-0.073959 C 3.6911451,2.7341061 3.4500461,2.5542445 3.175219,2.5538562 c -0.048285,2.614e-4 -0.096396,0.00609 -0.1433175,0.017491 -0.044656,0.010845 -0.091116,-0.00904 -0.114098,-0.048834 L 2.7578536,2.2455391 c -0.032688,-0.056648 -0.00532,-0.1290377 0.056669,-0.1498892 0.116078,-0.039073 0.237664,-0.059164 0.3601378,-0.0595 z M 2.4937815,2.2974638 c 0.03523,0.00165 0.067195,0.021121 0.084827,0.051665 l 0.1599497,0.2769754 c 0.022918,0.039692 0.017016,0.089726 -0.014509,0.1229966 -0.1090405,0.115092 -0.1699383,0.2674245 -0.1702619,0.4259587 1.812e-4,0.1586299 0.060965,0.3110893 0.1700108,0.426321 0.031499,0.03326 0.037401,0.083266 0.01451,0.1229449 L 2.5788128,4.000654 C 2.5460728,4.057364 2.4695756,4.069824 2.4205323,4.026436 2.230079,3.8580144 2.1033604,3.6320288 2.0565637,3.3860875 c 0.05332,-0.05736 0.083004,-0.1327444 0.083108,-0.211059 -1.294e-4,-0.078287 -0.029844,-0.1536319 -0.08316,-0.2109579 0.046706,-0.2460502 0.1733471,-0.47216 0.3638392,-0.640711 0.020183,-0.017858 0.046533,-0.027144 0.073454,-0.025883 z M 3.8691854,3.278538 h 0.3190873 c 0.065515,-6e-6 0.114569,0.06007 0.101459,0.1242597 -0.051984,0.2546719 -0.1871402,0.4749295 -0.3734418,0.6351461 -0.02481,-0.0057 -0.050226,-0.00833 -0.075677,-0.00783 -0.052021,0.00122 -0.1029012,0.015494 -0.1479689,0.041504 -0.067756,0.039284 -0.1181692,0.1027164 -0.1411433,0.1775919 -0.1184308,0.041737 -0.2452219,0.064516 -0.3764184,0.064656 -1.552e-4,5e-7 -3.183e-4,5e-7 -5.021e-4,0 C 3.052158,4.3133848 2.9306264,4.2931362 2.8146493,4.2539572 2.7527324,4.2330524 2.7254254,4.1607223 2.7580799,4.1041159 L 2.9177759,3.827477 c 0.022982,-0.039793 0.069442,-0.059678 0.1140983,-0.048834 0.046952,0.011406 0.095102,0.017232 0.1434184,0.017492 0.274905,-2.925e-4 0.5161096,-0.1801728 0.5946649,-0.443663 0.013084,-0.043885 0.053441,-0.073963 0.099236,-0.073958 z"
     style="color:#000000;fill:#cdcdcd;stroke-width:0.235186;enable-background:accumulate"
     id="path974" />
  <path
     id="rect5096"
     style="opacity:0.4;stroke-width:0.240954;stroke-linecap:round;stroke-linejoin:round"
     d="M 1.5275554,0.26458333 C 0.28821988,0.27390666 1.0104166e-8,0.58239335 1.0104166e-8,1.8520834 V 4.4978839 C 1.0104166e-8,5.7877277 0.29765627,6.085384 1.5875001,6.085384 h 3.1749975 c 1.2898438,0 1.5875,-0.2976563 1.5875,-1.5875001 V 1.8520834 c 0,-1.28984381 -0.2976562,-1.58750007 -1.5875,-1.58750007 H 1.5875001 c -0.020154,0 -0.040273,-1.4798e-4 -0.059945,0 z m 0.032556,0.26458334 c 0.018033,-1.3565e-4 0.036303,0 0.054777,0 h 3.147609 c 1.1823568,0 1.3229167,0.29315998 1.3229167,1.32291673 v 2.6458005 c 0,1.0162919 -0.1405599,1.3229167 -1.3229167,1.3229167 H 1.5875001 c -0.99193704,0 -1.32291675,-0.1405599 -1.32291675,-1.3229167 V 1.8520834 c 0,-0.96076805 0.15947068,-1.31437034 1.29552805,-1.32291673 z"
     sodipodi:nodetypes="csssssssscssssssssss" />
  <path
     id="rect1565"
     style="fill:url(#linearGradient1873);fill-opacity:1;stroke-width:0.118194;opacity:0.7"
     d="M 1.5601116,0.52922694 C 0.42405397,0.53777695 0.26458335,0.8913756 0.26458335,1.8521436 V 4.497977 c 0,1.1823568 0.33097974,1.3229167 1.32291675,1.3229167 h 3.1749975 c 1.1823568,0 1.3229167,-0.3066248 1.3229167,-1.3229167 V 1.8521436 c 0,-1.02975658 -0.1405599,-1.32291666 -1.3229167,-1.32291666 h -3.147609 c -0.018473,0 -0.036744,-1.356e-4 -0.054777,0 z m 0.00259,0.26458338 h 0.049609 3.0179 c 1.0641211,0 1.190625,0.14300558 1.190625,1.05833328 V 4.497977 c 0,0.8938382 -0.1265039,1.0583334 -1.190625,1.0583334 H 1.7197917 c -1.02290214,0 -1.19062501,-0.1576914 -1.19062501,-1.0583334 V 1.8521436 c 0,-0.8540052 0.14116471,-1.05833328 1.03352871,-1.05833328 z"
     sodipodi:nodetypes="csssssssscsssssssssss" />
</svg>
