<?xml version="1.0" encoding="UTF-8" standalone="no"?>
<!-- Created with Inkscape (http://www.inkscape.org/) -->

<svg
   width="24"
   height="24"
   viewBox="0 0 6.3499999 6.3500002"
   version="1.1"
   id="svg5013"
   sodipodi:docname="yast-online_update.svg"
   inkscape:version="1.1.2 (0a00cf5339, 2022-02-04)"
   xmlns:inkscape="http://www.inkscape.org/namespaces/inkscape"
   xmlns:sodipodi="http://sodipodi.sourceforge.net/DTD/sodipodi-0.dtd"
   xmlns:xlink="http://www.w3.org/1999/xlink"
   xmlns="http://www.w3.org/2000/svg"
   xmlns:svg="http://www.w3.org/2000/svg">
  <sodipodi:namedview
     id="namedview5015"
     pagecolor="#ffffff"
     bordercolor="#666666"
     borderopacity="1.0"
     inkscape:pageshadow="2"
     inkscape:pageopacity="0.0"
     inkscape:pagecheckerboard="0"
     inkscape:document-units="px"
     showgrid="false"
     units="px"
     showguides="true"
     inkscape:zoom="32.25"
     inkscape:cx="13.689922"
     inkscape:cy="13.147287"
     inkscape:window-width="1851"
     inkscape:window-height="1053"
     inkscape:window-x="0"
     inkscape:window-y="0"
     inkscape:window-maximized="1"
     inkscape:current-layer="svg5013" />
  <defs
     id="defs5010">
    <linearGradient
       inkscape:collect="always"
       xlink:href="#linearGradient1871"
       id="linearGradient1873"
       x1="17.305155"
       y1="0.083426654"
       x2="17.305155"
       y2="47.797596"
       gradientUnits="userSpaceOnUse"
       gradientTransform="matrix(0.12026516,0,0,0.11615853,0.2886364,0.38726097)" />
    <linearGradient
       inkscape:collect="always"
       id="linearGradient1871">
      <stop
         style="stop-color:#ffffff;stop-opacity:1;"
         offset="0"
         id="stop1867" />
      <stop
         style="stop-color:#ffffff;stop-opacity:0.1"
         offset="0.12"
         id="stop2515" />
      <stop
         style="stop-color:#ffffff;stop-opacity:0.102"
         offset="0.89999998"
         id="stop2581" />
      <stop
         style="stop-color:#ffffff;stop-opacity:0.502"
         offset="1"
         id="stop1869" />
    </linearGradient>
  </defs>
  <path
     d="M 1.5275552,0.52916667 C 0.28821992,0.53848667 1.6249999e-8,0.84697669 1.6249999e-8,2.1166667 V 4.7625 C 1.6249999e-8,6.052344 0.29765622,6.35 1.5875,6.35 h 3.175 C 6.0523438,6.35 6.35,6.052344 6.35,4.7625 V 2.1166667 C 6.35,0.82682299 6.0523438,0.52916667 4.7625,0.52916667 h -3.175 c -0.020153,0 -0.040273,-1.48e-4 -0.059945,0 z"
     style="opacity:0.1;fill:#000000;stroke-width:0.264583;stroke-linecap:round;stroke-linejoin:round"
     id="path9125"
     sodipodi:nodetypes="cssssssssc" />
  <path
     id="rect16934"
     style="fill:#4d4d4d;fill-opacity:1;stroke-width:0.175781;stroke-linecap:round;stroke-linejoin:round"
     d="m 5.7929687,1.4999999 c -4.2937607,0.032301 -5.29296876,1.1010741 -5.29296876,5.5 V 17 c 0,4.398925 0.99920766,5.467685 5.29296876,5.5 H 5.9999999 18 c 4.46875,0 5.5,-1.031251 5.5,-5.5 V 6.9999999 c 0,-4.46875 -1.03125,-5.5 -5.5,-5.5 H 5.9999999 c -0.069823,0 -0.138875,-5.129e-4 -0.2070312,0 z"
     sodipodi:nodetypes="cssccsssssc"
     transform="scale(0.26458334)" />
  <path
     d="m 1.8272787,1.0583333 c -0.89236399,0 -1.03352869,0.2043282 -1.03352869,1.0583334 v 2.1166667 c 0,0.9006419 0.167723,1.0583333 1.19062499,1.0583333 h 2.38125 c 1.0641211,0 1.190625,-0.1644951 1.190625,-1.0583333 V 2.1166667 C 5.55625,1.201339 5.3940213,1.0583333 4.365625,1.0583333 H 1.8768881 Z"
     style="fill:#babeb4;fill-opacity:1;stroke-width:0.0465087;stroke-linecap:round;stroke-linejoin:round;opacity:0.1"
     id="path1305"
     sodipodi:nodetypes="sssssssscs" />
  <path
     id="path1361"
     style="fill:#ebebeb;fill-opacity:1;stroke-width:0.175781;stroke-linecap:round;stroke-linejoin:round"
     d="M 6 1.5 C 5.8997766 1.5 5.8038237 1.5008885 5.7070312 1.5019531 C 5.3762802 1.5056018 5.0635511 1.5156877 4.7714844 1.5332031 C 4.7516361 1.5343912 4.7325657 1.5358521 4.7128906 1.5371094 L 3.5 3 L 4.7148438 4.2128906 C 5.2616866 4.0597605 5.9751476 4 6.90625 4 L 7.09375 4 L 7.5 4 L 16.5 4 C 16.738805 4 16.964934 4.0027432 17.179688 4.0078125 C 17.183389 4.0078924 17.187712 4.0077311 17.191406 4.0078125 C 17.202126 4.0080711 17.211995 4.0094929 17.222656 4.0097656 C 17.341776 4.0128126 17.456427 4.0165784 17.568359 4.0214844 C 19.991693 4.1204641 20.754619 4.6559789 20.943359 6.6015625 C 20.957473 6.7470536 20.968344 6.9007816 20.976562 7.0625 C 20.977518 7.0804187 20.979582 7.0971126 20.980469 7.1152344 C 20.984664 7.2050429 20.989526 7.2898433 20.992188 7.3847656 C 20.992457 7.3937882 20.991932 7.4030402 20.992188 7.4121094 C 20.997429 7.598365 21 7.7935877 21 8 L 21 16 C 21 16.158885 20.998928 16.309868 20.996094 16.457031 C 20.995119 16.515181 20.993615 16.576492 20.992188 16.632812 C 20.989292 16.732741 20.985102 16.831358 20.980469 16.925781 C 20.980212 16.931583 20.978779 16.937579 20.978516 16.943359 C 20.957374 17.407025 20.916561 17.805119 20.839844 18.142578 L 22.5 17.400391 L 23.396484 18.974609 C 23.414133 18.831836 23.432626 18.690908 23.445312 18.537109 C 23.44578 18.531431 23.446804 18.525225 23.447266 18.519531 C 23.449618 18.490487 23.45094 18.457177 23.453125 18.427734 C 23.465205 18.264951 23.473274 18.095147 23.480469 17.919922 C 23.483974 17.834303 23.487821 17.746869 23.490234 17.658203 C 23.496033 17.445977 23.5 17.23013 23.5 17 L 23.5 7 C 23.5 6.7357232 23.495992 6.4848704 23.488281 6.2441406 C 23.487827 6.2299401 23.488764 6.2152924 23.488281 6.2011719 C 23.487836 6.1881465 23.486798 6.1770199 23.486328 6.1640625 C 23.477949 5.9328295 23.465895 5.7120201 23.449219 5.5019531 C 23.448634 5.4945855 23.447861 5.4878109 23.447266 5.4804688 C 23.4471 5.4784284 23.447432 5.4766478 23.447266 5.4746094 C 23.429663 5.2585959 23.406384 5.055801 23.378906 4.8613281 C 23.37759 4.8519908 23.37634 4.8432733 23.375 4.8339844 C 23.374002 4.8270705 23.372105 4.8213402 23.371094 4.8144531 C 23.342663 4.6208916 23.310964 4.4366129 23.271484 4.2636719 C 23.270876 4.2610058 23.270142 4.2585207 23.269531 4.2558594 C 23.267788 4.248268 23.265438 4.2419276 23.263672 4.234375 C 23.22636 4.0747727 23.184466 3.9239462 23.136719 3.78125 C 23.134915 3.775847 23.132679 3.7710044 23.130859 3.765625 C 23.113209 3.713445 23.095307 3.663263 23.076172 3.6132812 C 23.068257 3.5926163 23.060908 3.5710751 23.052734 3.5507812 C 23.051068 3.5466414 23.048552 3.543187 23.046875 3.5390625 C 23.029392 3.4960693 23.010862 3.4554014 22.992188 3.4140625 C 22.980357 3.3878787 22.969349 3.3614664 22.957031 3.3359375 C 22.950686 3.3227762 22.943976 3.3098637 22.9375 3.296875 C 22.909868 3.2414774 22.88162 3.1870683 22.851562 3.1347656 C 22.843661 3.1210166 22.836198 3.1072884 22.828125 3.09375 C 22.824939 3.0884031 22.821572 3.0834392 22.818359 3.078125 C 22.791247 3.0332743 22.763422 2.9898153 22.734375 2.9472656 C 22.725132 2.9337275 22.716474 2.9195586 22.707031 2.90625 C 22.703758 2.9016354 22.700563 2.8971652 22.697266 2.8925781 C 22.658736 2.8389744 22.618047 2.7881909 22.576172 2.7382812 C 22.575002 2.7368863 22.573438 2.7357671 22.572266 2.734375 C 22.571077 2.7329647 22.56955 2.7318761 22.568359 2.7304688 C 22.534334 2.6902652 22.499171 2.6511349 22.462891 2.6132812 C 22.45044 2.6002829 22.438502 2.5869447 22.425781 2.5742188 C 22.423186 2.5716239 22.420575 2.5689898 22.417969 2.5664062 C 22.369327 2.5181862 22.318267 2.4720925 22.265625 2.4277344 C 22.225734 2.3941212 22.18483 2.3615371 22.142578 2.3300781 C 22.126312 2.3179621 22.110372 2.304771 22.09375 2.2929688 C 22.088794 2.2894532 22.083113 2.286691 22.078125 2.2832031 C 22.040727 2.2570538 22.002094 2.2316439 21.962891 2.2070312 C 21.944366 2.1954008 21.925184 2.1831681 21.90625 2.171875 C 21.904281 2.1707021 21.902364 2.169138 21.900391 2.1679688 C 21.837439 2.1306629 21.770665 2.0961884 21.703125 2.0625 C 21.644783 2.0333995 21.585296 2.00501 21.523438 1.9785156 C 21.485223 1.9621401 21.445834 1.9470478 21.40625 1.9316406 C 21.370292 1.9176467 21.333979 1.9038359 21.296875 1.890625 C 21.272627 1.881992 21.247398 1.8735384 21.222656 1.8652344 C 21.075803 1.8159422 20.920661 1.772596 20.755859 1.734375 C 20.751902 1.7334565 20.748109 1.7313811 20.744141 1.7304688 C 20.739291 1.7293551 20.733381 1.7296201 20.728516 1.7285156 C 20.552108 1.68847 20.365787 1.6536095 20.167969 1.625 C 20.167334 1.624908 20.16665 1.6250918 20.166016 1.625 C 20.164798 1.6248242 20.163328 1.6251754 20.162109 1.625 C 19.964112 1.5964987 19.75564 1.5728382 19.535156 1.5546875 C 19.529963 1.5542595 19.524737 1.553157 19.519531 1.5527344 C 19.509645 1.5519336 19.498214 1.5515625 19.488281 1.5507812 C 19.290935 1.5352582 19.083147 1.5238334 18.867188 1.515625 C 18.823509 1.5139665 18.778833 1.5130965 18.734375 1.5117188 C 18.499849 1.504453 18.256767 1.5 18 1.5 L 6 1.5 z M 0.59960938 5.0214844 C 0.59806155 5.0340428 0.59721132 5.0479045 0.59570312 5.0605469 C 0.58016567 5.1907888 0.5661677 5.323584 0.5546875 5.4628906 C 0.55419067 5.4689166 0.55322388 5.4744256 0.55273438 5.4804688 C 0.54179432 5.6154556 0.53280115 5.754723 0.52539062 5.8984375 C 0.52419768 5.9215727 0.52454267 5.9453849 0.5234375 5.96875 C 0.50821431 6.2905941 0.5 6.6330888 0.5 7 L 0.5 17 C 0.5 17.274933 0.50335205 17.537633 0.51171875 17.787109 C 0.51184629 17.790909 0.51158914 17.795034 0.51171875 17.798828 C 0.51955479 18.028074 0.53297676 18.244519 0.54882812 18.453125 C 0.55023262 18.471608 0.55126322 18.491441 0.55273438 18.509766 C 0.55298768 18.512922 0.55247908 18.516379 0.55273438 18.519531 C 0.56987221 18.730886 0.59258289 18.932294 0.61914062 19.123047 C 0.62021897 19.130792 0.6219522 19.138772 0.62304688 19.146484 C 0.62394705 19.152818 0.62408876 19.159704 0.625 19.166016 C 0.65043835 19.342231 0.68038875 19.508775 0.71484375 19.667969 C 0.71885433 19.686499 0.72242403 19.706304 0.7265625 19.724609 C 0.76518851 19.895461 0.80907073 20.057188 0.859375 20.208984 C 0.86090048 20.213588 0.86369769 20.21807 0.86523438 20.222656 C 0.91510444 20.371492 0.9710611 20.509284 1.0332031 20.640625 C 1.040526 20.656102 1.047187 20.672258 1.0546875 20.6875 C 1.0572289 20.692663 1.0599381 20.697989 1.0625 20.703125 C 1.0897339 20.757718 1.1168953 20.811694 1.1464844 20.863281 C 1.1473682 20.864822 1.1495047 20.865649 1.1503906 20.867188 C 1.1871918 20.931084 1.2250731 20.993339 1.265625 21.052734 C 1.3021558 21.10624 1.3411807 21.157075 1.3808594 21.207031 C 1.3906604 21.219371 1.4001594 21.232014 1.4101562 21.244141 C 1.4160772 21.251324 1.4217443 21.258516 1.4277344 21.265625 C 1.4627447 21.307177 1.4997018 21.347667 1.5371094 21.386719 C 1.5744543 21.425705 1.6125481 21.463444 1.6523438 21.5 C 1.655699 21.50308 1.6587364 21.506702 1.6621094 21.509766 C 1.6810832 21.526997 1.7011669 21.543851 1.7207031 21.560547 C 1.7252399 21.564424 1.7298077 21.568417 1.734375 21.572266 C 1.774202 21.60583 1.8152417 21.638504 1.8574219 21.669922 C 1.9152459 21.712992 1.9747419 21.753813 2.0371094 21.792969 C 2.0875434 21.824632 2.1398715 21.855579 2.1933594 21.884766 C 2.1946224 21.885455 2.1960008 21.886031 2.1972656 21.886719 C 2.2296462 21.904321 2.2633561 21.920781 2.296875 21.9375 C 2.3552165 21.9666 2.4147043 21.99499 2.4765625 22.021484 C 2.5147775 22.03786 2.5541661 22.052952 2.59375 22.068359 C 2.6240092 22.080135 2.6544772 22.092295 2.6855469 22.103516 C 2.8130941 22.149579 2.9502017 22.189466 3.0917969 22.226562 C 3.1286567 22.23621 3.1652867 22.246793 3.203125 22.255859 C 3.3422621 22.28923 3.4898561 22.317882 3.6425781 22.34375 C 3.6868828 22.351237 3.7318667 22.358347 3.7773438 22.365234 C 3.9321991 22.388733 4.0929181 22.408912 4.2617188 22.425781 C 4.3102882 22.43063 4.358451 22.437077 4.4082031 22.441406 C 4.5949279 22.457681 4.7883746 22.469151 4.9921875 22.478516 C 5.003772 22.479048 5.0137498 22.479958 5.0253906 22.480469 C 5.0338644 22.480842 5.0422776 22.480107 5.0507812 22.480469 C 5.2469709 22.488809 5.4555477 22.493397 5.6679688 22.496094 C 5.7771581 22.497466 5.886408 22.5 6 22.5 L 18 22.5 C 18.279297 22.5 18.545799 22.496925 18.798828 22.488281 C 18.970932 22.482402 19.128655 22.471273 19.289062 22.460938 L 20.5 21 L 19.285156 19.787109 C 18.738313 19.940241 18.024852 20 17.09375 20 L 16.90625 20 L 16.5 20 L 7.5 20 C 7.256838 20 7.0268297 19.997453 6.8085938 19.992188 C 3.7565649 19.924941 3.0839684 19.331165 3.0078125 16.615234 C 3.0077237 16.612066 3.0078997 16.608643 3.0078125 16.605469 C 3.0025593 16.414294 2.9999999 16.212687 3 16 L 3 8 C 3 7.7769503 3.0027616 7.5668185 3.0078125 7.3671875 C 3.022999 6.7669521 3.0653946 6.2701535 3.1582031 5.859375 L 1.5 6.5996094 L 0.59960938 5.0214844 z "
     transform="scale(0.26458334)" />
  <path
     id="rect13049"
     style="opacity:0.1;fill:#ffffff;stroke-width:0.264583;stroke-linecap:round;stroke-linejoin:round"
     d="m 0.13229167,3.175 v 1.3228839 c 0,1.1638823 0.2643737,1.4466583 1.40043133,1.4552084 H 1.5875 4.7624975 c 1.1823568,0 1.4552083,-0.3066797 1.4552083,-1.4552084 V 3.175 Z"
     sodipodi:nodetypes="csccsscc" />
  <path
     d="M 2.8728723,1.3229166 C 2.749169,1.5806261 2.6306278,1.841791 2.5172459,2.1063743 2.403856,2.3675207 2.2886961,2.6424202 2.1718588,2.9310806 2.0584663,3.2197146 1.8213917,3.8485233 1.8213917,3.8485233 L 1.5538979,4.4979432 H 2.232025 l 0.245327,-0.6741055 1.4188546,0.07878 0.2579688,0.5953125 H 4.8295243 L 4.5370539,3.8588289 c 0,0 -0.2388103,-0.6271155 -0.3556529,-0.9123099 C 4.0680085,2.6578851 3.9545975,2.3812897 3.8411997,2.1167063 3.7278072,1.852123 3.4804403,1.3229298 3.4804403,1.3229298 H 3.1749789 Z M 3.419184,2.6269156 C 3.5428847,2.932721 3.6700011,3.2626035 3.8005809,3.6165367 L 2.5820423,3.5701658 C 2.6885636,3.2712131 2.7950981,2.9826056 2.9016061,2.7042904 2.9894054,2.4793125 3.0806496,2.2623303 3.1750265,2.0526745 v -0.00402 c 0,0 0.1383057,0.3169973 0.2441628,0.5782734 z"
     style="fill:#ececec;stroke-width:0.264583;enable-background:new"
     id="path881" />
  <path
     d="M 3.4736617,1.3144357 3.1750265,2.0486545 c 0,0 0.1357577,0.3186641 0.2373365,0.5697802 0.1237007,0.3058054 0.2508145,0.6356879 0.3813969,0.9896211 l 0.6519334,0.017595 C 4.3543485,3.3854618 4.2639801,3.1560945 4.1746541,2.9380249 4.0612616,2.6493909 3.9478506,2.3727955 3.8344528,2.1082122 3.7210604,1.8436288 3.4736935,1.3144357 3.4736935,1.3144357 Z M 3.3783006,3.8713955 3.9019639,3.9070217 4.1471798,4.489449 H 4.822026 L 4.5695474,3.908715 4.5640474,3.894163 Z"
     style="opacity:0.1;fill:#1f1f1f;stroke-width:0.264583;enable-background:new"
     id="path1100" />
  <path
     id="rect2923"
     style="opacity:1;fill:#f8f8f8;stroke-width:0.529167;stroke-linecap:round;stroke-linejoin:round"
     d="m 1.7197917,3.175 h 2.9104167 c 0.2198687,0 0.396875,0.1770062 0.396875,0.396875 0,0.2198687 -0.1770063,0.396875 -0.396875,0.396875 H 1.7197917 c -0.2198687,0 -0.396875,-0.1770063 -0.396875,-0.396875 0,-0.2198688 0.1770063,-0.396875 0.396875,-0.396875 z" />
  <path
     id="rect3110"
     style="opacity:0.1;fill:#1f1f1f;stroke-width:0.529167;stroke-linecap:round;stroke-linejoin:round"
     d="m 1.7197916,3.4395834 h 2.9104166 c 0.07329,0 0.1322917,0.059002 0.1322917,0.1322917 0,0.07329 -0.059002,0.1322917 -0.1322917,0.1322917 H 1.7197916 c -0.07329,0 -0.1322916,-0.059002 -0.1322916,-0.1322917 0,-0.07329 0.059002,-0.1322917 0.1322916,-0.1322917 z"
     sodipodi:nodetypes="sssssss" />
  <path
     d="m 1.7197916,3.4395834 h 1.8520832 c 0.07329,0 0.1322917,0.059002 0.1322917,0.1322917 0,0.07329 -0.059002,0.1322917 -0.1322917,0.1322917 H 1.7197916 c -0.07329,0 -0.1322916,-0.059002 -0.1322916,-0.1322917 0,-0.07329 0.059002,-0.1322917 0.1322916,-0.1322917 z"
     style="opacity:1;fill:#00a489;stroke-width:0.140009;stroke-linecap:round;stroke-linejoin:round;fill-opacity:1"
     id="path3340"
     sodipodi:nodetypes="sssssss" />
  <path
     id="rect5096"
     style="opacity:0.4;stroke-width:0.240954;stroke-linecap:round;stroke-linejoin:round"
     d="M 1.5275554,0.26464907 C 0.2882199,0.27396907 0,0.58245917 0,1.8521492 v 2.6458333 c 0,1.2898438 0.2976563,1.5875001 1.5875001,1.5875001 h 3.1749977 c 1.2898438,0 1.5874999,-0.2976563 1.5874999,-1.5875001 V 1.8521492 c 0,-1.28984383 -0.2976561,-1.58750013 -1.5874999,-1.58750013 H 1.5875001 c -0.020154,0 -0.040273,-1.479e-4 -0.059945,0 z m 0.032556,0.2645834 c 0.018033,-1.357e-4 0.036303,0 0.054777,0 h 3.1476092 c 1.1823568,0 1.3229167,0.29316 1.3229167,1.32291673 v 2.6458333 c 0,1.0162919 -0.1405599,1.3229167 -1.3229167,1.3229167 H 1.5875001 c -0.991937,0 -1.3229168,-0.1405599 -1.3229168,-1.3229167 V 1.8521492 c 0,-0.96076803 0.1594707,-1.31437033 1.2955281,-1.32291673 z"
     sodipodi:nodetypes="csssssssscssssssssss" />
  <path
     id="rect1565"
     style="fill:url(#linearGradient1873);fill-opacity:1;stroke-width:0.118194;opacity:1"
     d="M 1.5601116,0.52923247 C 0.424054,0.53778247 0.2645833,0.89138117 0.2645833,1.8521491 v 2.6458334 c 0,1.1823568 0.3309798,1.3229167 1.3229168,1.3229167 h 3.1749977 c 1.1823568,0 1.3229167,-0.3066248 1.3229167,-1.3229167 V 1.8521491 c 0,-1.02975653 -0.1405599,-1.32291663 -1.3229167,-1.32291663 H 1.6148886 c -0.018473,0 -0.036744,-1.356e-4 -0.054777,0 z m 0.00259,0.2645834 h 0.049609 3.0179002 c 1.0641211,0 1.190625,0.1430056 1.190625,1.05833323 v 2.6458334 c 0,0.8938382 -0.1265039,1.0583334 -1.190625,1.0583334 H 1.7197917 c -1.0229021,0 -1.190625,-0.1576914 -1.190625,-1.0583334 V 1.8521491 c 0,-0.85400513 0.1411647,-1.05833323 1.0335287,-1.05833323 z"
     sodipodi:nodetypes="csssssssscsssssssssss" />
</svg>
