<?xml version="1.0" encoding="UTF-8" standalone="no"?>
<!-- Created with Inkscape (http://www.inkscape.org/) -->

<svg
   width="32"
   height="32"
   viewBox="0 0 8.4666665 8.4666669"
   version="1.1"
   id="svg2021"
   sodipodi:docname="folder-remote-open.svg"
   inkscape:version="1.1.2 (0a00cf5339, 2022-02-04)"
   xmlns:inkscape="http://www.inkscape.org/namespaces/inkscape"
   xmlns:sodipodi="http://sodipodi.sourceforge.net/DTD/sodipodi-0.dtd"
   xmlns:xlink="http://www.w3.org/1999/xlink"
   xmlns="http://www.w3.org/2000/svg"
   xmlns:svg="http://www.w3.org/2000/svg">
  <sodipodi:namedview
     id="namedview2023"
     pagecolor="#ffffff"
     bordercolor="#666666"
     borderopacity="1.0"
     inkscape:pageshadow="2"
     inkscape:pageopacity="0.0"
     inkscape:pagecheckerboard="0"
     inkscape:document-units="px"
     showgrid="false"
     units="px"
     inkscape:zoom="18.826718"
     inkscape:cx="20.848031"
     inkscape:cy="16.944005"
     inkscape:window-width="1851"
     inkscape:window-height="1053"
     inkscape:window-x="0"
     inkscape:window-y="0"
     inkscape:window-maximized="1"
     inkscape:current-layer="svg2021" />
  <defs
     id="defs2018">
    <linearGradient
       inkscape:collect="always"
       xlink:href="#linearGradient1559"
       id="linearGradient1561"
       x1="0.14257771"
       y1="9.9999561"
       x2="32"
       y2="26.879032"
       gradientUnits="userSpaceOnUse"
       gradientTransform="matrix(0.26458333,0,0,0.26458333,-3.28125e-8,-0.52915491)" />
    <linearGradient
       inkscape:collect="always"
       id="linearGradient1559">
      <stop
         style="stop-color:#666666;stop-opacity:1;"
         offset="0"
         id="stop1555" />
      <stop
         style="stop-color:#7a7a7a;stop-opacity:1"
         offset="1"
         id="stop1557" />
    </linearGradient>
    <linearGradient
       inkscape:collect="always"
       id="linearGradient5495">
      <stop
         style="stop-color:#45602a;stop-opacity:1"
         offset="0"
         id="stop5491" />
      <stop
         style="stop-color:#b4d959;stop-opacity:1"
         offset="1"
         id="stop5493" />
    </linearGradient>
    <linearGradient
       inkscape:collect="always"
       xlink:href="#linearGradient5495"
       id="linearGradient875"
       x1="0.13229167"
       y1="8.0697975"
       x2="8.3431597"
       y2="0.66146439"
       gradientUnits="userSpaceOnUse"
       gradientTransform="translate(0,-0.52916667)" />
    <linearGradient
       inkscape:collect="always"
       xlink:href="#linearGradient7079"
       id="linearGradient7081"
       x1="0"
       y1="7.6729169"
       x2="0"
       y2="8.2020836"
       gradientUnits="userSpaceOnUse"
       gradientTransform="translate(0.26458342,-0.26458326)" />
    <linearGradient
       inkscape:collect="always"
       id="linearGradient7079">
      <stop
         style="stop-color:#8a826a;stop-opacity:1;"
         offset="0"
         id="stop7075" />
      <stop
         style="stop-color:#a69f8a;stop-opacity:1"
         offset="1"
         id="stop7077" />
    </linearGradient>
    <linearGradient
       inkscape:collect="always"
       xlink:href="#linearGradient8064"
       id="linearGradient8066"
       x1="4.2333331"
       y1="7.1437502"
       x2="4.2333331"
       y2="8.2020836"
       gradientUnits="userSpaceOnUse" />
    <linearGradient
       inkscape:collect="always"
       id="linearGradient8064">
      <stop
         style="stop-color:#746c58;stop-opacity:1;"
         offset="0"
         id="stop8060" />
      <stop
         style="stop-color:#8a836a;stop-opacity:1"
         offset="1"
         id="stop8062" />
    </linearGradient>
  </defs>
  <path
     id="rect4964"
     style="opacity:0.05;fill:#ffffff;stroke-width:0.999999;stroke-linejoin:round"
     d="M 31 21 L 22.001953 29.998047 L 25.007812 29.998047 C 26.50701 29.998047 27.628172 29.935829 28.472656 29.763672 C 29.313291 29.592273 29.879311 29.310187 30.251953 28.875 C 30.627097 28.436895 30.814445 27.842116 30.908203 27.044922 C 30.978326 26.445711 30.995546 25.734171 31 24.888672 L 31 21 z "
     transform="scale(0.26458333)" />
  <rect
     style="fill:#8a836a;fill-opacity:1;stroke-width:0.264583;stroke-linejoin:round"
     id="rect8751"
     width="0.5291667"
     height="1.3229166"
     x="3.96875"
     y="6.3500004" />
  <path
     id="rect7575"
     style="opacity:0.1;fill:#000000;fill-opacity:1;stroke-width:0.264583;stroke-linejoin:round"
     d="m 3.4395834,7.4083336 c -0.1465792,0 -0.2645833,0.1180041 -0.2645833,0.2645833 H 0.26458342 V 8.2020836 H 3.1750001 c 0,0.1465791 0.1180041,0.2645833 0.2645833,0.2645833 h 1.5875 c 0.1465791,0 0.2645833,-0.1180042 0.2645833,-0.2645833 H 8.2020831 V 7.6729169 H 5.2916667 c 0,-0.1465792 -0.1180042,-0.2645833 -0.2645833,-0.2645833 z"
     sodipodi:nodetypes="sccccssccccss" />
  <path
     id="rect6592"
     style="fill:url(#linearGradient7081);stroke-width:0.264583;stroke-linejoin:round"
     d="M 0.26458342,7.4083336 H 8.2020841 V 7.9375003 H 0.26458342 Z"
     sodipodi:nodetypes="ccccc" />
  <rect
     style="opacity:0.3;fill:#ffffff;fill-opacity:1;stroke-width:0.264583;stroke-linejoin:round"
     id="rect9125"
     width="7.9375005"
     height="0.26458326"
     x="0.26458335"
     y="7.4083333" />
  <path
     id="rect7471"
     style="fill:url(#linearGradient8066);stroke-width:0.264583;stroke-linejoin:round"
     d="m 3.4395834,7.1437505 h 1.5875001 c 0.1465792,0 0.2645833,0.1180042 0.2645833,0.2645833 v 0.5291667 c 0,0.1465792 -0.1180041,0.2645834 -0.2645833,0.2645834 H 3.4395834 c -0.1465792,0 -0.2645833,-0.1180042 -0.2645833,-0.2645834 V 7.4083338 c 0,-0.1465791 0.1180041,-0.2645833 0.2645833,-0.2645833 z" />
  <path
     id="rect7820"
     style="opacity:0.7;fill:#ffffff;fill-opacity:1;stroke-width:0.264583;stroke-linejoin:round"
     d="m 3.4395834,7.1437502 c -0.1465792,0 -0.2645833,0.1180042 -0.2645833,0.2645834 v 0.2645833 c 0,-0.1465792 0.1180041,-0.2645833 0.2645833,-0.2645833 h 1.5875 c 0.1465791,0 0.2645833,0.1180041 0.2645833,0.2645833 V 7.4083336 c 0,-0.1465792 -0.1180042,-0.2645834 -0.2645833,-0.2645834 z" />
  <path
     id="rect990"
     style="fill:url(#linearGradient875);fill-opacity:1;stroke-width:0.264583;stroke-linejoin:round"
     d="m 1.8608683,0.13230343 c -0.4005527,0 -0.704363,0.0157959 -0.94412843,0.0645955 -0.2397389,0.0488077 -0.4222097,0.13515908 -0.5462199,0.2790527 -0.1240102,0.1438937 -0.1796264,0.3304249 -0.2072225,0.55397137 -0.0276225,0.2235279 -0.0288098,0.4904358 -0.0310058,0.8211385 v 5.159e-4 3.1760216 5.292e-4 c 0.0045,0.6614054 -0.010068,1.0765657 0.1979207,1.3658082 0.1039813,0.1446213 0.2644486,0.2371823 0.4697388,0.2873208 0.20531663,0.050137 0.46118613,0.065618 0.79633383,0.065618 h 5.0270832 c 0.4005527,0 0.7044955,-0.015796 0.9441283,-0.064596 C 7.8071296,6.6334661 7.9891489,6.547345 8.1126829,6.4032265 8.2362169,6.2591079 8.2909957,6.0723378 8.3173217,5.8487384 8.3435155,5.6251443 8.3431599,5.3578122 8.3431599,5.0270831 V 2.3812617 c 0,-0.3307292 9.1e-5,-0.5980559 -0.025839,-0.8216553 C 8.2908623,1.3360123 8.2362158,1.1492368 8.1126818,1.0051183 7.9891479,0.86099973 7.8071286,0.77488123 7.5674955,0.72606563 7.3278637,0.67725003 7.0239209,0.66147003 6.6233682,0.66147003 H 3.7651449 L 3.1982545,0.13230343 h -0.052193 c -0.6087269,-2.646e-5 -1.2851929,0 -1.2851932,0 z"
     sodipodi:nodetypes="scscccccccsscscsscssscccs" />
  <path
     id="rect1302"
     style="fill:url(#linearGradient1561);fill-opacity:1;stroke-width:0.214996;stroke-linejoin:round"
     d="M 4.271057,2.1166668 3.7041666,2.6458334 h -1.984375 c -1.57879513,0 -1.58744703,0.2636973 -1.58749993,1.5678629 v 0.019637 c 0,0.6502664 0.00497,-0.2874784 0.00258,0.3596659 -5.29e-5,0.00265 -5.29e-5,0.00516 0,0.00775 0.014288,0.4667779 -0.026606,0.9623192 0.056844,1.4738117 0,0.00265 0.00258,0.00519 0.00258,0.00775 0.07067,0.3536686 0.3781045,0.5803927 0.703833,0.6216677 0.47945153,0.071353 0.94105433,0.027805 1.37097573,0.042891 0.00265,4.5e-5 0.00511,4.5e-5 0.00775,0 1.7182572,-0.00185 3.4416008,0.00651 5.1635092,-0.03359 0.00953,-9.26e-5 0.019055,-7.408e-4 0.028422,-0.00206 0.1516592,-0.023522 0.3191677,-0.069226 0.4718058,-0.1638141 0.1526381,-0.094586 0.293288,-0.251841 0.3374469,-0.4630209 0,-0.00529 0.0031,-0.010649 0.0031,-0.01602 0.079825,-0.6035146 0.040209,-1.1955364 0.053227,-1.7632 2.65e-5,-0.00185 2.65e-5,-0.00378 0,-0.00568 -0.00291,-0.926121 0.0052,-0.2685913 -0.00723,-1.1999247 C 8.2802295,2.3052469 8.0496708,2.1166668 6.7473916,2.1166668 Z"
     sodipodi:nodetypes="ccscscccccccccscccccsc" />
  <path
     id="path3780"
     style="opacity:0.1;fill:#000000;fill-opacity:1;stroke-width:0.0568844;stroke-linejoin:round"
     d="M 4.271057,1.8520834 3.7041666,2.3812501 h -1.984375 c -1.57879502,0 -1.58744703,0.2636974 -1.58749994,1.5678628 v 0.019637 c 0,0.041892 4.7882e-4,0.083687 5.1677e-4,0.1255737 0.002141,-1.1984755 0.0588414,-1.4484903 1.58698317,-1.4484903 h 1.984375 L 4.271057,2.1166667 h 2.4763346 c 1.3022795,0 1.5328429,0.1885738 1.5797485,0.9828858 0.00505,0.3782018 0.00632,0.7561863 0.00672,1.1337809 h 5.167e-4 C 8.3344651,3.767735 8.3333676,3.3015569 8.3271401,2.8349692 8.2802345,2.0406572 8.0496711,1.8520834 6.7473916,1.8520834 Z" />
  <path
     id="rect2157"
     style="opacity:0.4;fill:#131313;fill-opacity:1;stroke-width:0.264583;stroke-linejoin:round"
     d="M 1.8588008,1.1777778e-5 C 1.4551895,1.1777778e-5 1.1447864,0.01514778 0.88935098,0.06719078 0.63284549,0.11946578 0.4184109,0.21697658 0.2697506,0.38965168 0.1217513,0.56155893 0.0611563,0.77778873 0.032039,1.013903 0.002932,1.2496926 0.002192,1.5194805 0,1.8500277 v 5.16e-4 0.00103 3.1760238 0.00103 5.292e-4 c 0.00448,0.6590884 -0.021747,1.101958 0.2227254,1.442289 0.1258869,0.175248 0.3185962,0.283198 0.5446696,0.338469 0.2235998,0.05467 0.4884702,0.06925 0.8273397,0.06925 h 5.0219151 c 0.4036113,0 0.7141178,-0.01513 0.96945,-0.06718 0.256351,-0.052268 0.4703498,-0.149362 0.618567,-0.322456 0.1475549,-0.172321 0.207338,-0.3890111 0.2351277,-0.6252853 0.027595,-0.2357993 0.026872,-0.5064998 0.026872,-0.8371581 V 2.3812617 c 0,-0.3307288 4.233e-4,-0.6010571 -0.026872,-0.8366414 V 1.5441044 C 8.4118765,1.3079304 8.3522532,1.0916931 8.2046668,0.91933543 8.056449,0.74624093 7.842449,0.64863283 7.5860998,0.59635773 7.3307559,0.54428763 7.0202576,0.52917833 6.6166498,0.52917833 H 3.8132034 L 3.2468297,1.1777778e-5 H 3.1429601 c -0.6081031,-2.65e-5 -1.2841593,0 -1.2841593,0 z m 0,0.264583302222 c 0,0 0.6760724,-2.65e-5 1.2841593,0 l 0.5663737,0.52916665 h 2.907316 c 0.3966662,0 0.6933152,0.016451 0.9167399,0.062012 0.2224196,0.045356 0.372178,0.1205022 0.4707724,0.23564457 0.099225,0.1158792 0.1486889,0.272676 0.1736328,0.4836914 0.024514,0.211614 0.024805,0.4754235 0.024805,0.8061523 v 2.6458236 c 0,0.3307993 -6.72e-5,0.594764 -0.024805,0.8061524 -0.024807,0.2109242 -0.074376,0.3682923 -0.1736328,0.4842077 -0.098595,0.115143 -0.2483544,0.189775 -0.4707724,0.235128 -0.2234366,0.04555 -0.5200769,0.06201 -0.9167399,0.06201 H 1.5947343 c -0.3307304,0 -0.5776871,-0.01587 -0.76429444,-0.06149 C 0.64635895,6.5080937 0.519042,6.4309037 0.4371822,6.3169317 0.266218,6.078932 0.2685631,5.6910637 0.2640662,5.0281221 v -5.292e-4 -3.1754945 -0.00103 c 0.00219,-0.3302618 0.00393,-0.5936068 0.029972,-0.8046021 V 1.0459495 C 0.3200552,0.83497123 0.3704912,0.67813783 0.4702548,0.56225803 0.5693578,0.44714628 0.71958582,0.37195358 0.94206066,0.32661358 1.1656585,0.28105758 1.4621378,0.26460158 1.8588005,0.26460158 Z"
     sodipodi:nodetypes="ccscccccccscsscscssccssscccccccssscsscscsscccccccccccc" />
  <path
     id="path3097"
     style="opacity:0.2;fill:#ffffff;fill-opacity:1;stroke-width:0.0699995;stroke-linejoin:round"
     d="m 1.8588012,0.26458332 c -0.396611,0 -0.6926544,0.0164557 -0.91622309,0.0620117 C 0.72013224,0.37193502 0.56986238,0.4471278 0.4707723,0.56223954 0.3710217,0.67811934 0.32056927,0.83495154 0.29455565,1.045931 v 5.167e-4 C 0.26851657,1.257443 0.26677334,1.5207872 0.26458333,1.8510498 v 0.00103 0.2635498 c 0.00219,-0.3302626 0.003934,-0.5936067 0.0299723,-0.804602 V 1.3105143 C 0.32056967,1.0995349 0.37102161,0.94270269 0.4707723,0.82682289 0.5698623,0.7117111 0.72013222,0.63651837 0.94257811,0.59117837 1.1661468,0.54562236 1.4621902,0.52916665 1.8588012,0.52916665 c 0,0 0.6761516,-2.651e-5 1.2841593,0 L 3.7093342,1.0583333 h 2.9067992 c 0.3966147,0 0.6933444,0.016451 0.91674,0.062012 0.2223908,0.045356 0.372191,0.1205021 0.4707723,0.2356446 0.099212,0.1158791 0.1486922,0.272676 0.1736328,0.4836914 0.024511,0.2116139 0.024805,0.4754237 0.024805,0.8061523 V 2.38125 c 0,-0.3307287 -2.937e-4,-0.5945384 -0.024805,-0.8061524 C 8.1523379,1.3640822 8.1028576,1.2072854 8.0036457,1.0914062 7.9050644,0.97626382 7.7552642,0.90111771 7.5328734,0.8557617 7.3094778,0.81020068 7.0127481,0.79374998 6.6161334,0.79374998 H 3.7093342 L 3.1429605,0.26458332 c -0.6080077,-2.651e-5 -1.2841593,0 -1.2841593,0 z" />
  <path
     id="path4020"
     style="opacity:0.3;fill:#ffffff;fill-opacity:1;stroke-width:0.0150507;stroke-linejoin:round"
     d="M 4.271057,2.1166667 3.7041666,2.6458334 h -1.984375 c -1.578795,0 -1.58744703,0.2636974 -1.58749994,1.5678629 v 0.019637 h 0.00155 C 0.14159756,3.1449545 0.24770981,2.9104167 1.7197916,2.9104167 h 1.984375 L 4.271057,2.3812501 h 2.4763346 c 1.3022797,0 1.5328387,0.1886635 1.5797485,0.9828858 V 3.0995525 C 8.2802303,2.3053303 8.0496716,2.1166667 6.7473916,2.1166667 Z" />
</svg>
