<?xml version="1.0" encoding="UTF-8" standalone="no"?>
<!-- Created with Inkscape (http://www.inkscape.org/) -->

<svg
   width="32"
   height="32"
   viewBox="0 0 8.4666665 8.4666669"
   version="1.1"
   id="svg2719"
   inkscape:version="1.1.2 (0a00cf5339, 2022-02-04)"
   sodipodi:docname="firefox-trunk.svg"
   xmlns:inkscape="http://www.inkscape.org/namespaces/inkscape"
   xmlns:sodipodi="http://sodipodi.sourceforge.net/DTD/sodipodi-0.dtd"
   xmlns:xlink="http://www.w3.org/1999/xlink"
   xmlns="http://www.w3.org/2000/svg"
   xmlns:svg="http://www.w3.org/2000/svg">
  <sodipodi:namedview
     id="namedview2721"
     pagecolor="#ffffff"
     bordercolor="#666666"
     borderopacity="1.0"
     inkscape:pageshadow="2"
     inkscape:pageopacity="0.0"
     inkscape:pagecheckerboard="0"
     inkscape:document-units="px"
     showgrid="false"
     units="px"
     inkscape:zoom="24.65625"
     inkscape:cx="15.979721"
     inkscape:cy="16"
     inkscape:window-width="1851"
     inkscape:window-height="1016"
     inkscape:window-x="0"
     inkscape:window-y="0"
     inkscape:window-maximized="1"
     inkscape:current-layer="svg2719" />
  <defs
     id="defs2716">
    <linearGradient
       inkscape:collect="always"
       id="linearGradient1871">
      <stop
         style="stop-color:#ffffff;stop-opacity:1;"
         offset="0"
         id="stop1867" />
      <stop
         style="stop-color:#ffffff;stop-opacity:0.1"
         offset="0.12"
         id="stop2515" />
      <stop
         style="stop-color:#ffffff;stop-opacity:0.102"
         offset="0.89999998"
         id="stop2581" />
      <stop
         style="stop-color:#ffffff;stop-opacity:0.502"
         offset="1"
         id="stop1869" />
    </linearGradient>
    <linearGradient
       inkscape:collect="always"
       xlink:href="#linearGradient1871"
       id="linearGradient16320"
       x1="10"
       y1="4"
       x2="10"
       y2="29.100245"
       gradientUnits="userSpaceOnUse"
       gradientTransform="matrix(0.26458333,0,0,0.26458333,0,-0.26458332)" />
    <linearGradient
       id="a-76"
       x1="74.803001"
       y1="20.542999"
       x2="7.7420001"
       y2="62.785999"
       gradientUnits="userSpaceOnUse"
       gradientTransform="matrix(0.07518643,0,0,0.07518643,1.2251793,1.3226111)">
      <stop
         offset="0"
         stop-color="#3fe1b0"
         id="stop4973" />
      <stop
         offset=".406"
         stop-color="#00b3f4"
         id="stop4975" />
      <stop
         offset=".421"
         stop-color="#03b0f4"
         id="stop4977" />
      <stop
         offset=".818"
         stop-color="#5561e9"
         id="stop4979" />
      <stop
         offset="1"
         stop-color="#7542e5"
         id="stop4981" />
    </linearGradient>
    <radialGradient
       id="b-3"
       cx="-7907.187"
       cy="-8515.1211"
       r="80.796997"
       gradientTransform="matrix(0.07518643,0,0,0.07518643,600.83692,642.21172)"
       gradientUnits="userSpaceOnUse">
      <stop
         offset=".108"
         stop-color="#3fe1b0"
         id="stop4984" />
      <stop
         offset=".122"
         stop-color="#3bdcb3"
         id="stop4986" />
      <stop
         offset=".254"
         stop-color="#1bb3d3"
         id="stop4988" />
      <stop
         offset=".358"
         stop-color="#0799e6"
         id="stop4990" />
      <stop
         offset=".42"
         stop-color="#0090ed"
         id="stop4992" />
      <stop
         offset=".487"
         stop-color="#2482f1"
         id="stop4994" />
      <stop
         offset=".64"
         stop-color="#7165fb"
         id="stop4996" />
      <stop
         offset=".71"
         stop-color="#9059ff"
         id="stop4998" />
      <stop
         offset=".795"
         stop-color="#7d49ed"
         id="stop5000" />
      <stop
         offset=".86"
         stop-color="#7542e5"
         id="stop5002" />
    </radialGradient>
    <radialGradient
       id="c-5"
       cx="-7936.7109"
       cy="-8482.0889"
       r="80.796997"
       gradientTransform="matrix(0.07518643,0,0,0.07518643,600.83692,642.21172)"
       gradientUnits="userSpaceOnUse">
      <stop
         offset=".3"
         stop-color="#45278d"
         id="stop5005" />
      <stop
         offset=".341"
         stop-color="#562896"
         stop-opacity=".787"
         id="stop5007" />
      <stop
         offset=".43"
         stop-color="#782aa9"
         stop-opacity=".364"
         id="stop5009" />
      <stop
         offset=".495"
         stop-color="#8d2bb5"
         stop-opacity=".1"
         id="stop5011" />
      <stop
         offset=".53"
         stop-color="#952bb9"
         stop-opacity="0"
         id="stop5013" />
    </radialGradient>
    <radialGradient
       id="d-2"
       cx="-7926.9702"
       cy="-8533.457"
       r="58.534"
       gradientTransform="matrix(0.07518643,0,0,0.07518643,600.83692,642.21172)"
       gradientUnits="userSpaceOnUse">
      <stop
         offset=".132"
         stop-color="#3fe1b0"
         id="stop5016" />
      <stop
         offset=".289"
         stop-color="#28d0c8"
         id="stop5018" />
      <stop
         offset=".526"
         stop-color="#00b3f4"
         id="stop5020" />
    </radialGradient>
    <radialGradient
       id="e-1"
       cx="-7945.6479"
       cy="-8460.9844"
       r="38.471001"
       gradientTransform="matrix(0.07518643,0,0,0.07518643,600.83692,642.21172)"
       gradientUnits="userSpaceOnUse">
      <stop
         offset=".287"
         stop-color="#0060df"
         id="stop5023" />
      <stop
         offset=".417"
         stop-color="#2357e1"
         id="stop5025" />
      <stop
         offset=".604"
         stop-color="#4f4ce3"
         id="stop5027" />
      <stop
         offset=".748"
         stop-color="#6b45e4"
         id="stop5029" />
      <stop
         offset=".833"
         stop-color="#7542e5"
         id="stop5031" />
    </radialGradient>
    <radialGradient
       id="f-2"
       cx="-7935.6201"
       cy="-8491.5459"
       r="20.396999"
       gradientTransform="matrix(0.07308121,-0.01766881,0.02067627,0.08556216,759.95411,590.31789)"
       gradientUnits="userSpaceOnUse">
      <stop
         offset=".206"
         stop-color="#45278d"
         stop-opacity="0"
         id="stop5034" />
      <stop
         offset=".251"
         stop-color="#44268a"
         stop-opacity=".055"
         id="stop5036" />
      <stop
         offset=".725"
         stop-color="#371f6f"
         stop-opacity=".591"
         id="stop5038" />
      <stop
         offset=".956"
         stop-color="#321c64"
         stop-opacity=".8"
         id="stop5040" />
    </radialGradient>
    <radialGradient
       id="g-7"
       cx="-7943.645"
       cy="-8466.5225"
       r="0.62599999"
       gradientTransform="matrix(0.07518643,0,0,0.07518643,600.83692,642.21172)"
       gradientUnits="userSpaceOnUse">
      <stop
         offset=".353"
         stop-color="#3a8ee6"
         id="stop5043" />
      <stop
         offset=".472"
         stop-color="#5c79f0"
         id="stop5045" />
      <stop
         offset=".669"
         stop-color="#9059ff"
         id="stop5047" />
      <stop
         offset="1"
         stop-color="#c139e6"
         id="stop5049" />
    </radialGradient>
    <radialGradient
       id="h-4"
       cx="-7943.48"
       cy="-8466.749"
       r="0.22400001"
       gradientTransform="matrix(0.07308121,-0.01766881,0.02067627,0.08556216,759.42407,589.92073)"
       gradientUnits="userSpaceOnUse">
      <stop
         offset=".206"
         stop-color="#9059ff"
         stop-opacity="0"
         id="stop5052" />
      <stop
         offset=".278"
         stop-color="#8c4ff3"
         stop-opacity=".064"
         id="stop5054" />
      <stop
         offset=".747"
         stop-color="#7716a8"
         stop-opacity=".45"
         id="stop5056" />
      <stop
         offset=".975"
         stop-color="#6e008b"
         stop-opacity=".6"
         id="stop5058" />
    </radialGradient>
    <radialGradient
       id="i-6"
       cx="-7937.731"
       cy="-8518.4268"
       r="27.676001"
       gradientTransform="matrix(0.07518643,0,0,0.07518643,600.83692,642.21172)"
       gradientUnits="userSpaceOnUse">
      <stop
         offset="0"
         stop-color="#0df"
         id="stop5061" />
      <stop
         offset=".235"
         stop-color="#00d6fd"
         id="stop5063" />
      <stop
         offset=".572"
         stop-color="#00c3f8"
         id="stop5065" />
      <stop
         offset=".792"
         stop-color="#00b3f4"
         id="stop5067" />
    </radialGradient>
    <radialGradient
       id="j-9"
       cx="-7915.9771"
       cy="-8535.9814"
       r="118.081"
       gradientTransform="matrix(0.07518643,0,0,0.07518643,600.83692,642.21172)"
       gradientUnits="userSpaceOnUse">
      <stop
         offset=".126"
         stop-color="#3fe1b0"
         id="stop5070" />
      <stop
         offset=".429"
         stop-color="#0df"
         id="stop5072" />
      <stop
         offset=".479"
         stop-color="#1ec1ff"
         id="stop5074" />
      <stop
         offset=".624"
         stop-color="#7077ff"
         id="stop5076" />
      <stop
         offset=".69"
         stop-color="#9059ff"
         id="stop5078" />
      <stop
         offset=".904"
         stop-color="#b833e1"
         id="stop5080" />
    </radialGradient>
    <radialGradient
       id="k-82"
       cx="-7927.165"
       cy="-8522.8594"
       r="86.499001"
       gradientTransform="matrix(0.00789457,0.0748105,-0.04909674,0.00518786,-350.94838,638.16604)"
       gradientUnits="userSpaceOnUse">
      <stop
         offset="0"
         stop-color="#54ffbd"
         id="stop5083" />
      <stop
         offset=".095"
         stop-color="#4cf3b8"
         id="stop5085" />
      <stop
         offset=".197"
         stop-color="#3fe1b0"
         id="stop5087" />
      <stop
         offset=".257"
         stop-color="#33d8bd"
         id="stop5089" />
      <stop
         offset=".369"
         stop-color="#12c0e1"
         id="stop5091" />
      <stop
         offset=".423"
         stop-color="#00b3f4"
         id="stop5093" />
      <stop
         offset=".737"
         stop-color="#0060df"
         id="stop5095" />
    </radialGradient>
    <radialGradient
       id="l-6"
       cx="-7938.3828"
       cy="-8508.1758"
       r="73.720001"
       gradientTransform="matrix(0.07518643,0,0,0.07518643,600.83692,642.21172)"
       gradientUnits="userSpaceOnUse">
      <stop
         offset=".137"
         stop-color="#3fe1b0"
         id="stop5098" />
      <stop
         offset=".435"
         stop-color="#0df"
         id="stop5100" />
      <stop
         offset=".484"
         stop-color="#1ec1ff"
         id="stop5102" />
      <stop
         offset=".622"
         stop-color="#7077ff"
         id="stop5104" />
      <stop
         offset=".685"
         stop-color="#9059ff"
         id="stop5106" />
    </radialGradient>
    <radialGradient
       id="m-8"
       cx="-7918.9229"
       cy="-8503.8613"
       r="80.685997"
       gradientTransform="matrix(0.07518643,0,0,0.07518643,600.83692,642.21172)"
       gradientUnits="userSpaceOnUse">
      <stop
         offset=".094"
         stop-color="#54ffbd"
         id="stop5109" />
      <stop
         offset=".242"
         stop-color="#41f7cc"
         id="stop5111" />
      <stop
         offset=".543"
         stop-color="#0fe3f3"
         id="stop5113" />
      <stop
         offset=".626"
         stop-color="#0df"
         id="stop5115" />
    </radialGradient>
    <linearGradient
       id="n-8"
       x1="70.013"
       y1="12.061"
       x2="15.267"
       y2="66.806"
       gradientUnits="userSpaceOnUse"
       gradientTransform="matrix(0.07518643,0,0,0.07518643,1.2251793,1.3226111)">
      <stop
         offset=".167"
         stop-color="#54ffbd"
         stop-opacity=".8"
         id="stop5118" />
      <stop
         offset=".236"
         stop-color="#43f8ca"
         stop-opacity=".639"
         id="stop5120" />
      <stop
         offset=".361"
         stop-color="#27ede1"
         stop-opacity=".368"
         id="stop5122" />
      <stop
         offset=".466"
         stop-color="#12e4f1"
         stop-opacity=".169"
         id="stop5124" />
      <stop
         offset=".545"
         stop-color="#05dffb"
         stop-opacity=".046"
         id="stop5126" />
      <stop
         offset=".589"
         stop-color="#0df"
         stop-opacity="0"
         id="stop5128" />
    </linearGradient>
  </defs>
  <path
     id="rect18683"
     style="opacity:0.1;fill:#000000;stroke-width:0.264583;stroke-linejoin:round"
     d="m 2.38125,0.92604165 c -1.45520832,0 -1.984375,0.52916665 -1.984375,1.98437495 v 3.0427085 c 0,1.5875 0.52916665,2.1166666 2.1166666,2.1166666 h 3.4395833 c 1.5875,0 2.1166667,-0.5291666 2.1166667,-2.1166666 V 3.0427083 c 0,-1.5875 -0.5291667,-2.11666665 -2.1166667,-2.11666665 z"
     sodipodi:nodetypes="sssssssss" />
  <path
     id="rect6397"
     style="fill:#00365e;fill-opacity:1;stroke-width:0.255274;stroke-linejoin:round"
     d="M 0.39687499,2.6458334 C 0.396875,1.190625 0.92604165,0.66145833 2.38125,0.66145834 h 3.571875 c 1.5874999,-1e-8 2.1166666,0.52916666 2.1166668,2.11666666 l 10e-8,2.9104168 c 0,1.5874999 -0.529166,2.1166666 -2.116666,2.1166666 H 2.5135417 c -1.58750001,0 -2.11666671,-0.5291667 -2.11666671,-2.1166667 z"
     sodipodi:nodetypes="ccccccccc" />
  <path
     d="M 6.9330321,3.3399381 C 6.8064181,3.0352828 6.549581,2.7063421 6.3484575,2.6023593 a 3.0274567,3.0274567 0 0 1 0.2951066,0.8844932 l 5.165e-4,0.00489 C 6.3146186,2.6703284 5.7559082,2.3391322 5.2996018,1.6179442 5.2765197,1.5814786 5.2534376,1.5449378 5.2309564,1.5063673 5.2180992,1.4843378 5.2077994,1.4644887 5.1988518,1.4462183 a 0.53028989,0.53028989 0 0 1 -0.043458,-0.1154111 0.00751864,0.00751864 0 0 0 -0.00662,-0.00752 0.01037573,0.01037573 0 0 0 -0.00549,0 c -3.69e-4,0 -9.709e-4,6.818e-4 -0.00143,8.315e-4 -4.646e-4,1.504e-4 -0.00144,8.315e-4 -0.0021,0.00114 l 0.00114,-0.00195 C 4.4089392,1.7518675 4.1605985,2.5452348 4.1377418,2.9420685 A 1.4576393,1.4576393 0 0 0 3.3358032,3.25116 0.87118514,0.87118514 0 0 0 3.2606172,3.194169 a 1.3509497,1.3509497 0 0 1 -0.0082,-0.7122409 2.1582265,2.1582265 0 0 0 -0.701414,0.542094 h -0.00134 C 2.4341733,2.8776303 2.4422934,2.3949334 2.4489098,2.2941084 A 0.52089158,0.52089158 0 0 0 2.3516185,2.3457614 2.1221369,2.1221369 0 0 0 2.0668124,2.5897412 2.5446848,2.5446848 0 0 0 1.794412,2.9165767 v 4.646e-4 -5.32e-4 A 2.4610774,2.4610774 0 0 0 1.4034426,3.7994225 l -0.00391,0.019248 c -0.00549,0.025639 -0.025263,0.1540573 -0.028647,0.1819513 0,0.00218 -4.646e-4,0.00421 -6.817e-4,0.00639 a 2.7771613,2.7771613 0 0 0 -0.047285,0.4017125 v 0.015037 A 2.9141508,2.9141508 0 0 0 7.108814,4.9165328 c 0.00491,-0.037593 0.00887,-0.07481 0.013232,-0.1127796 A 2.9967055,2.9967055 0 0 0 6.9330321,3.3399381 Z M 3.5744543,5.6209439 c 0.013609,0.00654 0.026391,0.01361 0.040375,0.01985 l 0.00204,0.00129 q -0.021202,-0.010152 -0.042405,-0.021129 z m 0.667505,-1.757558 z M 6.6443161,3.4924162 v -0.00278 l 5.165e-4,0.00308 z"
     id="path5142"
     inkscape:connector-curvature="0"
     style="fill:url(#a-76);stroke-width:0.0751866" />
  <path
     d="m 6.6444664,3.4927169 -5.165e-4,-0.00308 v 0.00278 z"
     id="path5144"
     inkscape:connector-curvature="0"
     style="fill:none;stroke-width:0.0751866" />
  <path
     d="M 6.9330321,3.3399381 C 6.8064181,3.0352828 6.549581,2.7063421 6.3484575,2.6023593 a 3.0274567,3.0274567 0 0 1 0.2951066,0.8844932 v 0.00278 l 5.165e-4,0.00308 A 2.6390436,2.6390436 0 0 1 6.5534276,5.4594461 C 6.2194389,6.1760474 5.4110343,6.9105438 4.1456467,6.8748301 2.7783816,6.8361091 1.5742709,5.8215439 1.3491626,4.4926988 c -0.040976,-0.2095446 0,-0.3157831 0.020601,-0.4860802 a 2.1710831,2.1710831 0 0 0 -0.046841,0.4020971 v 0.015037 a 2.9141508,2.9141508 0 0 0 5.785895,0.4927717 c 0.00491,-0.037593 0.00887,-0.07481 0.013232,-0.1127796 A 2.9967055,2.9967055 0 0 0 6.933031,3.3399402 Z"
     id="path5146"
     inkscape:connector-curvature="0"
     style="fill:url(#b-3);stroke-width:0.0751866" />
  <path
     d="M 6.9330321,3.3399381 C 6.8064181,3.0352828 6.549581,2.7063421 6.3484575,2.6023593 a 3.0274567,3.0274567 0 0 1 0.2951066,0.8844932 v 0.00278 l 5.165e-4,0.00308 A 2.6390436,2.6390436 0 0 1 6.5534276,5.4594461 C 6.2194389,6.1760474 5.4110343,6.9105438 4.1456467,6.8748301 2.7783816,6.8361091 1.5742709,5.8215439 1.3491626,4.4926988 c -0.040976,-0.2095446 0,-0.3157831 0.020601,-0.4860802 a 2.1710831,2.1710831 0 0 0 -0.046841,0.4020971 v 0.015037 a 2.9141508,2.9141508 0 0 0 5.785895,0.4927717 c 0.00491,-0.037593 0.00887,-0.07481 0.013232,-0.1127796 A 2.9967055,2.9967055 0 0 0 6.933031,3.3399402 Z"
     id="path5148"
     inkscape:connector-curvature="0"
     style="fill:url(#c-5);stroke-width:0.0751866" />
  <path
     d="m 5.5169707,3.6824875 c 0.00631,0.00444 0.012179,0.00887 0.018121,0.013309 A 1.5864336,1.5864336 0 0 0 5.2644207,3.3427963 C 4.3587239,2.4369502 5.0270562,1.3787014 5.1397605,1.3249429 l 0.00114,-0.00165 c -0.7319556,0.42856 -0.9802962,1.2219274 -1.003153,1.618761 0.033984,-0.00233 0.067668,-0.00519 0.1024041,-0.00519 a 1.4706465,1.4706465 0 0 1 1.2768158,0.745624 z"
     id="path5150"
     inkscape:connector-curvature="0"
     style="fill:url(#d-2);stroke-width:0.0751866" />
  <path
     d="m 4.2420344,3.8633859 c -0.00481,0.07248 -0.2608967,0.3224747 -0.3504437,0.3224747 -0.8286297,0 -0.9631383,0.501268 -0.9631383,0.501268 0.036691,0.4220965 0.3308203,0.7697586 0.686377,0.9536646 0.01624,0.00842 0.032706,0.016014 0.049172,0.023458 q 0.042781,0.018948 0.085562,0.035037 a 1.2958381,1.2958381 0 0 0 0.3791649,0.073156 c 1.452376,0.068119 1.7337235,-1.7368064 0.685625,-2.260555 A 1.0059944,1.0059944 0 0 1 5.5169707,3.6824875 1.4706465,1.4706465 0 0 0 4.2401549,2.9368636 c -0.034586,0 -0.06842,0.00286 -0.1024039,0.00519 A 1.4576393,1.4576393 0 0 0 3.3358125,3.2511437 c 0.044435,0.037593 0.094584,0.087818 0.2002215,0.191951 0.1977402,0.1948078 0.7048728,0.3966082 0.7060004,0.4202912 z"
     id="path5152"
     inkscape:connector-curvature="0"
     style="fill:url(#e-1);stroke-width:0.0751866" />
  <path
     d="m 4.2420344,3.8633859 c -0.00481,0.07248 -0.2608967,0.3224747 -0.3504437,0.3224747 -0.8286297,0 -0.9631383,0.501268 -0.9631383,0.501268 0.036691,0.4220965 0.3308203,0.7697586 0.686377,0.9536646 0.01624,0.00842 0.032706,0.016014 0.049172,0.023458 q 0.042781,0.018948 0.085562,0.035037 a 1.2958381,1.2958381 0 0 0 0.3791649,0.073156 c 1.452376,0.068119 1.7337235,-1.7368064 0.685625,-2.260555 A 1.0059944,1.0059944 0 0 1 5.5169707,3.6824875 1.4706465,1.4706465 0 0 0 4.2401549,2.9368636 c -0.034586,0 -0.06842,0.00286 -0.1024039,0.00519 A 1.4576393,1.4576393 0 0 0 3.3358125,3.2511437 c 0.044435,0.037593 0.094584,0.087818 0.2002215,0.191951 0.1977402,0.1948078 0.7048728,0.3966082 0.7060004,0.4202912 z"
     id="path5154"
     inkscape:connector-curvature="0"
     style="fill:url(#f-2);stroke-width:0.0751866" />
  <path
     d="m 3.5744543,5.6209439 q 0.021202,0.010902 0.042405,0.021127 l -0.00204,-0.00127 c -0.013761,-0.00624 -0.026766,-0.013309 -0.040375,-0.01985 z"
     id="path5156"
     inkscape:connector-curvature="0"
     style="fill:url(#g-7);stroke-width:0.0751866" />
  <path
     d="m 3.5744543,5.6209439 q 0.021202,0.010902 0.042405,0.021127 l -0.00204,-0.00127 c -0.013761,-0.00624 -0.026766,-0.013309 -0.040375,-0.01985 z"
     id="path5158"
     inkscape:connector-curvature="0"
     style="fill:url(#h-4);stroke-width:0.0751866" />
  <path
     d="m 3.1999507,3.1542276 c 0.023609,0.015037 0.043082,0.02812 0.060149,0.039924 A 1.3509497,1.3509497 0 0 1 3.2518997,2.481911 2.1582265,2.1582265 0 0 0 2.5504855,3.024005 c 0.014212,-3.826e-4 0.4369084,-0.00797 0.6494603,0.1302228 z"
     id="path5160"
     inkscape:connector-curvature="0"
     style="fill:url(#i-6);stroke-width:0.0751866" />
  <path
     d="M 1.3495375,4.4926964 C 1.5744201,5.8215414 2.7787563,6.8361071 4.1460216,6.8748281 5.411409,6.9106186 6.2198133,6.1760453 6.5537917,5.4594435 a 2.6390436,2.6390436 0 0 0 0.090675,-1.9667266 v -0.00278 c 0,-0.00218 -4.643e-4,-0.00346 0,-0.00278 l 5.164e-4,0.00489 C 6.7483645,4.1669835 6.4050629,4.82088 5.8683822,5.2630511 l -0.00165,0.00376 C 4.8210526,6.1184493 3.8203213,5.780637 3.617769,5.6427451 Q 3.596571,5.6325961 3.575369,5.6216181 C 2.9656716,5.3301951 2.7137972,4.7747175 2.7677808,4.2983366 A 0.74833048,0.74833048 0 0 1 2.0774943,3.8641347 1.0990752,1.0990752 0 0 1 3.1488257,3.8211281 1.451098,1.451098 0 0 0 4.2429385,3.8641347 C 4.2418043,3.840451 3.7346782,3.6385755 3.5369379,3.4438428 3.4313011,3.3397095 3.3811517,3.28956 3.3367166,3.2518918 A 0.87118514,0.87118514 0 0 0 3.2615303,3.1949003 C 3.2442381,3.1830967 3.2247641,3.1703144 3.201381,3.1549765 2.9888289,3.0167837 2.5661309,3.0243776 2.5521461,3.0247534 h -0.00137 C 2.4353059,2.8783665 2.4434262,2.3956697 2.4500427,2.2948446 A 0.52089158,0.52089158 0 0 0 2.3527514,2.3464979 2.1221369,2.1221369 0 0 0 2.0679451,2.5904777 2.5446848,2.5446848 0 0 0 1.7944169,2.9165611 v 4.373e-4 -5.32e-4 A 2.4610774,2.4610774 0 0 0 1.4034476,3.7993807 c -0.00144,0.00594 -0.1049603,0.4585621 -0.053909,0.693294 z"
     id="path5162"
     inkscape:connector-curvature="0"
     style="fill:url(#j-9);stroke-width:0.0751866" />
  <path
     d="m 4.2420344,3.8633859 h -7.51e-5 z"
     id="path5164"
     inkscape:connector-curvature="0"
     style="fill:#ff4aa2;stroke-width:0.0751866" />
  <path
     d="m 5.2645699,3.3427953 a 1.5864336,1.5864336 0 0 1 0.2706712,0.353376 c 0.016014,0.012104 0.030977,0.024135 0.043683,0.035789 C 6.2395875,4.3409705 5.8934294,5.2018548 5.86764,5.263132 6.4043213,4.8209603 6.7473212,4.1670639 6.6442407,3.4921156 6.3146238,2.6703279 5.7559133,2.3391316 5.2996069,1.6179434 5.2765246,1.5814782 5.2534425,1.5449373 5.2309615,1.5063667 5.2181044,1.4843371 5.2078042,1.464488 5.1988571,1.4462177 a 0.53028989,0.53028989 0 0 1 -0.043458,-0.1154113 0.00751864,0.00751864 0 0 0 -0.00662,-0.00752 0.01037573,0.01037573 0 0 0 -0.00549,0 c -3.69e-4,0 -9.71e-4,6.817e-4 -0.00143,8.315e-4 -4.646e-4,1.503e-4 -0.00144,8.315e-4 -0.0021,0.00114 -0.112705,0.053458 -0.781037,1.1117067 0.1248089,2.017553 z"
     id="path5166"
     inkscape:connector-curvature="0"
     style="fill:url(#k-82);stroke-width:0.0751866" />
  <path
     d="m 5.5784732,3.7315842 c -0.012707,-0.011653 -0.027669,-0.023683 -0.043683,-0.035789 -0.00594,-0.00444 -0.011804,-0.00887 -0.018121,-0.013309 A 1.0059944,1.0059944 0 0 0 4.8140518,3.5118876 C 5.8621506,4.035937 5.5809533,5.8405616 4.1284268,5.7724427 A 1.2958381,1.2958381 0 0 1 3.7492616,5.6992865 q -0.042781,-0.016014 -0.085562,-0.035036 c -0.016465,-0.00752 -0.032931,-0.015037 -0.049172,-0.023458 l 0.00204,0.00127 C 3.8191183,5.7803308 4.8195491,6.1181431 5.8655427,5.2661308 l 0.00165,-0.00376 c 0.026094,-0.060906 0.3722522,-0.9220156 -0.2887119,-1.5308 z"
     id="path5168"
     inkscape:connector-curvature="0"
     style="fill:url(#l-6);stroke-width:0.0751866" />
  <path
     d="m 2.9284524,4.6871286 c 0,0 0.1345086,-0.501268 0.9631383,-0.501268 0.089547,0 0.3458576,-0.2499949 0.3504437,-0.3224747 A 1.451098,1.451098 0 0 1 3.1479216,3.8203794 1.0990752,1.0990752 0 0 0 2.0765903,3.8633859 0.74833048,0.74833048 0 0 0 2.7668769,4.2975877 c -0.053984,0.4764562 0.1978906,1.0319338 0.8075774,1.3232811 0.013609,0.00654 0.026391,0.01361 0.040375,0.01985 C 3.2589721,5.4568876 2.9651435,5.1092255 2.9284524,4.6871286 Z"
     id="path5170"
     inkscape:connector-curvature="0"
     style="fill:url(#m-8);stroke-width:0.0751866" />
  <path
     d="m 4.9437493,4.2142058 -7.51e-5,7.52e-5 z"
     id="path5172"
     inkscape:connector-curvature="0"
     style="fill:#ff4aa2;stroke-width:0.0751866" />
  <path
     d="M 6.9330321,3.3399381 C 6.8064181,3.0352828 6.549581,2.7063421 6.3484575,2.6023593 a 3.0274567,3.0274567 0 0 1 0.2951066,0.8844932 l 5.165e-4,0.00489 C 6.3146186,2.6703284 5.7559082,2.3391322 5.2996018,1.6179442 5.2765197,1.5814786 5.2534376,1.5449378 5.2309564,1.5063673 5.2180992,1.4843378 5.2077994,1.4644887 5.1988518,1.4462183 a 0.53028989,0.53028989 0 0 1 -0.043458,-0.1154111 0.00751864,0.00751864 0 0 0 -0.00662,-0.00752 0.01037573,0.01037573 0 0 0 -0.00549,0 c -3.69e-4,0 -9.709e-4,6.818e-4 -0.00143,8.315e-4 -4.646e-4,1.504e-4 -0.00144,8.315e-4 -0.0021,0.00114 l 0.00114,-0.00195 c -0.7319377,0.4285578 -0.9802785,1.2219251 -1.003135,1.618759 0.033984,-0.00233 0.067668,-0.00519 0.1024039,-0.00519 A 1.4706465,1.4706465 0 0 1 5.5169785,3.6825031 1.0059944,1.0059944 0 0 0 4.8143612,3.5119052 C 5.8624599,4.0359546 5.5812629,5.840579 4.1287364,5.77246 a 1.2958381,1.2958381 0 0 1 -0.379165,-0.073156 q -0.042776,-0.016013 -0.085557,-0.035036 c -0.016466,-0.00752 -0.032931,-0.015038 -0.049172,-0.023458 l 0.00204,0.00127 q -0.021202,-0.01015 -0.042405,-0.021127 c 0.013609,0.00654 0.026391,0.01361 0.040375,0.01985 C 3.2589955,5.4568971 2.9651668,5.1092349 2.9284758,4.6871383 c 0,0 0.1345085,-0.501268 0.9631383,-0.501268 0.089547,0 0.3458576,-0.2499947 0.3504437,-0.3224746 C 4.2409236,3.839712 3.7337976,3.6378365 3.5360574,3.4431038 3.4304203,3.3389704 3.3802712,3.2888211 3.3358357,3.2511528 a 0.87118514,0.87118514 0 0 0 -0.075209,-0.056981 1.3509497,1.3509497 0 0 1 -0.0082,-0.7122409 2.1582265,2.1582265 0 0 0 -0.7014142,0.542094 h -0.00134 C 2.4341837,2.8776342 2.4423039,2.3949374 2.4489202,2.2941123 A 0.52089158,0.52089158 0 0 0 2.3516289,2.3457655 2.1221369,2.1221369 0 0 0 2.0668228,2.5897453 2.5446848,2.5446848 0 0 0 1.7944223,2.9165807 V 2.9170179 2.916486 A 2.4610774,2.4610774 0 0 0 1.4034529,3.7994002 l -0.00391,0.019248 c -0.00549,0.025638 -0.030074,0.1558614 -0.033608,0.1838308 0,0.0021 0,-0.00218 0,0 a 3.3904566,3.3904566 0 0 0 -0.043007,0.4062415 v 0.015037 a 2.9141508,2.9141508 0 0 0 5.7858966,0.492771 c 0.00491,-0.037593 0.00887,-0.07481 0.013232,-0.1127796 A 2.9967055,2.9967055 0 0 0 6.9330408,3.3399502 Z m -0.289092,0.1496963 5.165e-4,0.00308 z"
     id="path5174"
     inkscape:connector-curvature="0"
     style="fill:url(#n-8);stroke-width:0.0751866" />
  <path
     id="rect13250"
     style="fill:url(#linearGradient16320);fill-opacity:1;stroke-width:0.264583;stroke-linejoin:round;opacity:0.4"
     d="m 2.6458333,0.79375 c -1.71979143,0 -2.11666664,0.396875 -2.11666664,2.1166666 v 2.6458335 c 0,1.7197919 0.39687515,2.1166666 2.11666664,2.1166666 h 3.175 c 1.7197913,0 2.1166666,-0.3968747 2.1166666,-2.1166666 V 2.9104166 C 7.9374999,1.190625 7.5406249,0.79375 5.8208333,0.79375 Z m 0,0.2645833 h 3.175 c 1.5213541,0 1.8520833,0.3307294 1.8520833,1.8520833 v 2.6458335 c 0,1.5213542 -0.3307292,1.8520833 -1.8520833,1.8520833 h -3.175 c -1.5213541,0 -1.85208331,-0.3307291 -1.85208331,-1.8520833 V 2.9104166 c 0,-1.521354 0.33072921,-1.8520834 1.85208331,-1.8520833 z"
     sodipodi:nodetypes="ssssssssssssssssss" />
  <path
     id="rect2545"
     style="opacity:0.4;fill:#000000;stroke-width:0.387914;stroke-linejoin:round"
     d="m 2.6458333,0.52916667 c -1.91822909,0 -2.38124997,0.4630208 -2.38124997,2.38124993 V 5.55625 c 0,1.8520831 0.52916735,2.38125 2.38124997,2.38125 h 3.175 c 1.8520841,0 2.3812499,-0.5291669 2.3812499,-2.38125 V 2.9104166 c 0,-1.8520832 -0.5291666,-2.38124988 -2.3812499,-2.38124993 z m 0,0.26458333 h 3.175 c 1.7197916,0 2.1166666,0.396875 2.1166666,2.1166666 V 5.55625 c 0,1.7197917 -0.3968753,2.1166666 -2.1166666,2.1166666 h -3.175 c -1.71979162,0 -2.11666664,-0.3968749 -2.11666664,-2.1166666 V 2.9104166 c 0,-1.7197916 0.39687505,-2.1166666 2.11666664,-2.1166666 z"
     sodipodi:nodetypes="ssssssssssssssssss" />
</svg>
