<?xml version="1.0" encoding="UTF-8" standalone="no"?>
<!-- Created with Inkscape (http://www.inkscape.org/) -->

<svg
   width="32"
   height="32"
   viewBox="0 0 8.4666665 8.4666669"
   version="1.1"
   id="svg2719"
   inkscape:version="1.1.2 (0a00cf5339, 2022-02-04)"
   sodipodi:docname="lastfm.svg"
   xmlns:inkscape="http://www.inkscape.org/namespaces/inkscape"
   xmlns:sodipodi="http://sodipodi.sourceforge.net/DTD/sodipodi-0.dtd"
   xmlns:xlink="http://www.w3.org/1999/xlink"
   xmlns="http://www.w3.org/2000/svg"
   xmlns:svg="http://www.w3.org/2000/svg">
  <sodipodi:namedview
     id="namedview2721"
     pagecolor="#ffffff"
     bordercolor="#666666"
     borderopacity="1.0"
     inkscape:pageshadow="2"
     inkscape:pageopacity="0.0"
     inkscape:pagecheckerboard="0"
     inkscape:document-units="px"
     showgrid="false"
     units="px"
     inkscape:zoom="12.78125"
     inkscape:cx="6.0635697"
     inkscape:cy="18.229829"
     inkscape:window-width="1920"
     inkscape:window-height="1010"
     inkscape:window-x="0"
     inkscape:window-y="0"
     inkscape:window-maximized="1"
     inkscape:current-layer="svg2719"
     showguides="false" />
  <defs
     id="defs2716">
    <linearGradient
       inkscape:collect="always"
       id="linearGradient2290">
      <stop
         style="stop-color:#da1636;stop-opacity:1"
         offset="0"
         id="stop2286" />
      <stop
         style="stop-color:#f22c42;stop-opacity:1"
         offset="1"
         id="stop2288" />
    </linearGradient>
    <linearGradient
       inkscape:collect="always"
       id="linearGradient1871">
      <stop
         style="stop-color:#ffffff;stop-opacity:1;"
         offset="0"
         id="stop1867" />
      <stop
         style="stop-color:#ffffff;stop-opacity:0.1"
         offset="0.12"
         id="stop2515" />
      <stop
         style="stop-color:#ffffff;stop-opacity:0.102"
         offset="0.89999998"
         id="stop2581" />
      <stop
         style="stop-color:#ffffff;stop-opacity:0.502"
         offset="1"
         id="stop1869" />
    </linearGradient>
    <linearGradient
       inkscape:collect="always"
       xlink:href="#linearGradient1871"
       id="linearGradient16320"
       x1="10"
       y1="4"
       x2="10"
       y2="29.100245"
       gradientUnits="userSpaceOnUse"
       gradientTransform="matrix(0.26458333,0,0,0.26458333,0,-0.26458332)" />
    <linearGradient
       inkscape:collect="always"
       xlink:href="#linearGradient2290"
       id="linearGradient2292"
       x1="2.1166666"
       y1="0.5291667"
       x2="6.0821819"
       y2="7.8572841"
       gradientUnits="userSpaceOnUse" />
  </defs>
  <path
     id="rect18683"
     style="opacity:0.1;fill:#000000;stroke-width:0.264583;stroke-linejoin:round"
     d="m 2.38125,0.92604165 c -1.45520832,0 -1.984375,0.52916665 -1.984375,1.98437495 v 3.0427085 c 0,1.5875 0.52916665,2.1166666 2.1166666,2.1166666 h 3.4395833 c 1.5875,0 2.1166667,-0.5291666 2.1166667,-2.1166666 V 3.0427083 c 0,-1.5875 -0.5291667,-2.11666665 -2.1166667,-2.11666665 z"
     sodipodi:nodetypes="sssssssss" />
  <path
     id="rect6397"
     style="fill:url(#linearGradient2292);fill-opacity:1;stroke-width:0.255274;stroke-linejoin:round"
     d="M 0.39687499,2.6458334 C 0.396875,1.190625 0.92604165,0.66145833 2.38125,0.66145834 h 3.571875 c 1.5874999,-1e-8 2.1166666,0.52916666 2.1166668,2.11666666 l 10e-8,2.9104168 c 0,1.5874999 -0.529166,2.1166666 -2.116666,2.1166666 H 2.5135417 c -1.58750001,0 -2.11666671,-0.5291667 -2.11666671,-2.1166667 z"
     sodipodi:nodetypes="ccccccccc" />
  <path
     id="rect1372"
     style="opacity:0.05;fill:#ffffff;fill-opacity:1;stroke-width:0.999999;stroke-linejoin:round"
     d="M 1.5 16 L 1.5 21.5 C 1.5 27.5 3.5 29.5 9.5 29.5 L 22.5 29.5 C 28.5 29.5 30.5 27.5 30.5 21.5 L 30.5 16 L 1.5 16 z "
     transform="scale(0.26458333)" />
  <path
     id="rect13250"
     style="fill:url(#linearGradient16320);fill-opacity:1;stroke-width:0.264583;stroke-linejoin:round"
     d="m 2.6458333,0.79375 c -1.71979143,0 -2.11666664,0.396875 -2.11666664,2.1166666 v 2.6458335 c 0,1.7197919 0.39687515,2.1166666 2.11666664,2.1166666 h 3.175 c 1.7197913,0 2.1166666,-0.3968747 2.1166666,-2.1166666 V 2.9104166 C 7.9374999,1.190625 7.5406249,0.79375 5.8208333,0.79375 Z m 0,0.2645833 h 3.175 c 1.5213541,0 1.8520833,0.3307294 1.8520833,1.8520833 v 2.6458335 c 0,1.5213542 -0.3307292,1.8520833 -1.8520833,1.8520833 h -3.175 c -1.5213541,0 -1.85208331,-0.3307291 -1.85208331,-1.8520833 V 2.9104166 c 0,-1.521354 0.33072921,-1.8520834 1.85208331,-1.8520833 z"
     sodipodi:nodetypes="ssssssssssssssssss" />
  <path
     id="rect2545"
     style="opacity:0.4;fill:#000000;stroke-width:0.387914;stroke-linejoin:round"
     d="m 2.6458333,0.52916667 c -1.91822909,0 -2.38124997,0.4630208 -2.38124997,2.38124993 V 5.55625 c 0,1.8520831 0.52916735,2.38125 2.38124997,2.38125 h 3.175 c 1.8520841,0 2.3812499,-0.5291669 2.3812499,-2.38125 V 2.9104166 c 0,-1.8520832 -0.5291666,-2.38124988 -2.3812499,-2.38124993 z m 0,0.26458333 h 3.175 c 1.7197916,0 2.1166666,0.396875 2.1166666,2.1166666 V 5.55625 c 0,1.7197917 -0.3968753,2.1166666 -2.1166666,2.1166666 h -3.175 c -1.71979162,0 -2.11666664,-0.3968749 -2.11666664,-2.1166666 V 2.9104166 c 0,-1.7197916 0.39687505,-2.1166666 2.11666664,-2.1166666 z"
     sodipodi:nodetypes="ssssssssssssssssss" />
  <path
     d="M 3.1892093,5.5437314 C 3.1045108,5.5320897 2.9538439,5.4823481 2.8533472,5.4332149 2.1985564,5.1145508 1.9307716,4.3119637 2.2532987,3.6359269 2.621731,2.8629467 3.6270418,2.6659115 4.2320115,3.2481271 c 0.1749372,0.1680898 0.2526321,0.3115204 0.5160169,0.9475258 0.2749549,0.6651095 0.3257549,0.7696729 0.4148665,0.8583347 0.095448,0.094324 0.183896,0.126074 0.3531394,0.126074 0.2780506,0 0.476594,-0.1745456 0.476594,-0.4180946 0,-0.2061368 -0.071342,-0.2721504 -0.4352131,-0.4033573 C 5.0032983,4.1555949 4.8237785,3.9721329 4.8231435,3.6036741 c 0,-0.1965589 0.049027,-0.327607 0.1736328,-0.4634176 0.1788451,-0.1939131 0.487336,-0.2579423 0.7603331,-0.1616604 0.1164617,0.042042 0.3601244,0.2610908 0.3601244,0.323797 0,0.030427 -0.1412187,0.1234281 -0.2195671,0.145415 -0.041373,0.010848 -0.077044,-0.00317 -0.1247669,-0.049795 C 5.6761468,3.3037151 5.6106678,3.274585 5.4948491,3.274585 c -0.1998583,0 -0.3238235,0.1221052 -0.3238235,0.3193256 0,0.196559 0.078835,0.2630488 0.4726781,0.3980656 C 6.186417,4.1781106 6.3467016,4.3462004 6.349956,4.7351643 6.353216,5.0712116 6.2041759,5.3135964 5.9077314,5.457027 5.7728654,5.521718 5.7270951,5.529999 5.5068877,5.529999 5.1925362,5.529999 5.0513016,5.4706 4.8750627,5.2689082 4.7566459,5.1332568 4.6364404,4.8786218 4.2515457,3.9491141 4.09192,3.5639602 3.8870028,3.37518 3.5452934,3.300885 3.3721501,3.2633406 3.1310882,3.2982392 2.9738993,3.3822973 2.8206262,3.4637096 2.6494408,3.6473569 2.568637,3.8152879 2.501856,3.9516012 2.495504,3.9898335 2.495504,4.2269266 c 0,0.2261658 0.00896,0.2797704 0.064828,0.40386 0.084698,0.1894417 0.2513277,0.3644635 0.434578,0.4587875 0.132424,0.067839 0.1736329,0.076279 0.3848894,0.076279 0.2029513,0 0.2550742,-0.00979 0.3761052,-0.068501 0.1381257,-0.068501 0.3238236,-0.2365905 0.3995473,-0.3625057 l 0.039418,-0.065352 0.077695,0.1803399 c 0.043328,0.099589 0.078184,0.1932517 0.078184,0.2101057 0,0.049821 -0.1755881,0.2126191 -0.3365235,0.3140339 -0.244324,0.153221 -0.5249596,0.2106092 -0.8246796,0.1692548"
     style="fill:#ffffff;stroke-width:0.264583"
     id="path874" />
</svg>
