<?xml version="1.0" encoding="UTF-8" standalone="no"?>
<!-- Created with Inkscape (http://www.inkscape.org/) -->

<svg
   width="32"
   height="32"
   viewBox="0 0 8.4666665 8.4666669"
   version="1.1"
   id="svg2719"
   inkscape:version="1.1.2 (0a00cf5339, 2022-02-04)"
   sodipodi:docname="preferences-desktop-theme.svg"
   xmlns:inkscape="http://www.inkscape.org/namespaces/inkscape"
   xmlns:sodipodi="http://sodipodi.sourceforge.net/DTD/sodipodi-0.dtd"
   xmlns:xlink="http://www.w3.org/1999/xlink"
   xmlns="http://www.w3.org/2000/svg"
   xmlns:svg="http://www.w3.org/2000/svg">
  <sodipodi:namedview
     id="namedview2721"
     pagecolor="#ffffff"
     bordercolor="#666666"
     borderopacity="1.0"
     inkscape:pageshadow="2"
     inkscape:pageopacity="0.0"
     inkscape:pagecheckerboard="0"
     inkscape:document-units="px"
     showgrid="false"
     units="px"
     inkscape:zoom="17.500893"
     inkscape:cx="14.142135"
     inkscape:cy="15.284934"
     inkscape:window-width="1851"
     inkscape:window-height="1049"
     inkscape:window-x="0"
     inkscape:window-y="0"
     inkscape:window-maximized="1"
     inkscape:current-layer="svg2719" />
  <defs
     id="defs2716">
    <linearGradient
       inkscape:collect="always"
       id="linearGradient1871">
      <stop
         style="stop-color:#ffffff;stop-opacity:1;"
         offset="0"
         id="stop1867" />
      <stop
         style="stop-color:#ffffff;stop-opacity:0.1"
         offset="0.12"
         id="stop2515" />
      <stop
         style="stop-color:#ffffff;stop-opacity:0.102"
         offset="0.89999998"
         id="stop2581" />
      <stop
         style="stop-color:#ffffff;stop-opacity:0.502"
         offset="1"
         id="stop1869" />
    </linearGradient>
    <linearGradient
       inkscape:collect="always"
       xlink:href="#linearGradient1871"
       id="linearGradient16320"
       x1="10"
       y1="4"
       x2="10"
       y2="29.100245"
       gradientUnits="userSpaceOnUse"
       gradientTransform="matrix(0.26458333,0,0,0.26458333,0,-0.26458332)" />
    <linearGradient
       inkscape:collect="always"
       xlink:href="#linearGradient3598"
       id="linearGradient3600"
       x1="12.262125"
       y1="9.7353592"
       x2="0.36087561"
       y2="4.2708535"
       gradientUnits="userSpaceOnUse"
       gradientTransform="matrix(2.4356956,0,0,2.4296963,0.53333328,0.89285725)" />
    <linearGradient
       inkscape:collect="always"
       id="linearGradient3598">
      <stop
         style="stop-color:#a52d9b;stop-opacity:1"
         offset="0"
         id="stop3594" />
      <stop
         style="stop-color:#6e3c61;stop-opacity:1"
         offset="1"
         id="stop3596" />
    </linearGradient>
  </defs>
  <path
     id="rect18683"
     style="opacity:0.1;fill:#000000;stroke-width:0.264583;stroke-linejoin:round"
     d="m 2.38125,0.92604165 c -1.45520832,0 -1.984375,0.52916665 -1.984375,1.98437495 v 3.0427085 c 0,1.5875 0.52916665,2.1166666 2.1166666,2.1166666 h 3.4395833 c 1.5875,0 2.1166667,-0.5291666 2.1166667,-2.1166666 V 3.0427083 c 0,-1.5875 -0.5291667,-2.11666665 -2.1166667,-2.11666665 z"
     sodipodi:nodetypes="sssssssss" />
  <path
     id="rect877"
     style="display:inline;fill:url(#linearGradient3600);fill-opacity:1;stroke:none;stroke-width:0.241369;stroke-linecap:round;stroke-linejoin:round;stroke-miterlimit:4;stroke-dasharray:none;stroke-dashoffset:0;stroke-opacity:1;enable-background:new"
     d="M 9,2.5 C 3.5,2.5 1.5,4.4999998 1.5,10 v 11.5 c 0,6 2,8 8,8 h 13 c 6,0 8,-2 8,-8 v -11 c -1e-6,-6 -2,-8 -8,-8 z"
     transform="scale(0.26458333)"
     sodipodi:nodetypes="cccccsscc" />
  <path
     d="m 4.2957843,2.9105348 c -0.180676,-7.937e-4 -0.3222096,0.00307 -0.4373298,0.022199 -0.1151679,0.019156 -0.2068142,0.054978 -0.2734204,0.1217427 -0.066609,0.066768 -0.102415,0.1585278 -0.1217428,0.273685 -0.00781,0.046556 -0.011827,0.1011079 -0.015478,0.1571678 -0.00534,0.082583 -0.00823,0.1726967 -0.00823,0.2801678 v 1.4835981 c 0,0.1804061 0.00437,0.3216803 0.023707,0.4365624 0.019341,0.1148818 0.055113,0.2064065 0.1217401,0.2729177 0.066627,0.066511 0.1580965,0.1021901 0.2731823,0.1214911 0.1150779,0.019315 0.2568099,0.023707 0.4375679,0.023707 h 0.9958916 0.9958917 c 0.180766,0 0.3225006,-0.00439 0.4375679,-0.023707 0.115076,-0.019289 0.2065425,-0.054976 0.2731831,-0.121492 C 7.0649417,5.8920584 7.1007219,5.8005441 7.120055,5.6856567 7.139396,5.570764 7.1437616,5.4294872 7.1437616,5.2490943 V 3.7654962 c 0,-0.1074632 -0.00315,-0.197575 -0.00849,-0.2801673 -0.00362,-0.05606 -0.00741,-0.1106117 -0.015214,-0.1571678 C 7.1007404,3.2130171 7.0649235,3.1212543 6.998312,3.0544761 6.9317031,2.9877111 6.8400594,2.951876 6.7248915,2.9327334 6.6097237,2.9135775 6.4681425,2.9096352 6.2873236,2.9105348 H 5.2916701 Z"
     style="color:#000000;fill:#000000;stroke-width:0.0700042;enable-background:accumulate;opacity:0.1"
     id="path873" />
  <path
     d="m 4.2957843,2.6459535 c -0.180676,-7.937e-4 -0.3222096,0.00307 -0.4373298,0.022199 -0.1151678,0.019156 -0.2068142,0.054978 -0.2734204,0.1217427 -0.066609,0.066768 -0.1024149,0.1585277 -0.1217428,0.273685 -0.00781,0.046556 -0.011827,0.1011079 -0.015478,0.1571678 -0.00534,0.082582 -0.00823,0.1726962 -0.00823,0.2801673 v 1.4835981 c 0,0.1804061 0.00437,0.3216804 0.023707,0.4365625 0.019341,0.114882 0.055113,0.2064067 0.1217401,0.2729177 0.066627,0.066511 0.1580965,0.10219 0.2731823,0.1214913 0.1150779,0.019315 0.2568099,0.023707 0.4375679,0.023707 h 0.9958917 0.9958916 c 0.180766,0 0.3225007,-0.00439 0.4375679,-0.023707 C 6.8402081,5.7961959 6.9316745,5.7605089 6.9983151,5.6939932 7.0649421,5.6274772 7.1007221,5.5359628 7.1200552,5.4210755 7.1393962,5.3061828 7.1437622,5.1649059 7.1437622,4.984513 V 3.5009149 c 0,-0.1074632 -0.00315,-0.197575 -0.00849,-0.2801673 -0.00362,-0.05606 -0.00741,-0.1106117 -0.015214,-0.1571678 C 7.1007406,2.9484358 7.064924,2.856673 6.9983125,2.7898948 6.9317036,2.7231298 6.8400599,2.6872947 6.7248921,2.6681521 6.6097242,2.6489962 6.4681431,2.6450539 6.2873242,2.6459535 H 5.2916706 Z"
     style="color:#000000;fill:#faf8f6;stroke-width:0.264583;enable-background:accumulate"
     id="path899"
     sodipodi:nodetypes="ccsccsscscscscccssccccccc" />
  <path
     d="m 4.2969643,2.6459509 c -0.180676,-7.938e-4 -0.3220773,0.0031 -0.4371975,0.022225 -0.1151678,0.019156 -0.2072772,0.055192 -0.2738966,0.121957 -0.066609,0.066768 -0.1021133,0.1582235 -0.1214411,0.2733675 -0.00601,0.035835 -0.00881,0.078573 -0.01188,0.1209225 H 7.1329034 C 7.1298871,3.1420737 7.1270296,3.0993356 7.1210236,3.0635004 7.101709,2.9483564 7.066194,2.8568979 6.9995825,2.7901329 6.9329736,2.723368 6.8408642,2.6873185 6.7256858,2.6681759 6.610518,2.64902 6.4693257,2.6450513 6.2884883,2.6459509 H 5.2926761 Z"
     style="color:#000000;fill:#411934;stroke-width:0.264583;enable-background:accumulate;fill-opacity:1"
     id="path1019" />
  <path
     id="rect1519"
     style="opacity:0.3;fill:#000000;stroke-width:0.94868;stroke-linejoin:round"
     d="M 9 2.5 C 3.5000001 2.5 1.5 4.4999998 1.5 10 L 1.5 21.5 C 1.5 27.329785 3.3891653 29.382319 9 29.494141 L 9 2.5 z "
     transform="scale(0.26458333)" />
  <path
     id="rect31"
     d="m 1.3229167,2.1166666 c -0.1465792,0 -0.2645834,0.1180041 -0.2645834,0.2645833 v 0.5291667 c 0,0.1465791 0.1180042,0.2645833 0.2645834,0.2645833 h 0.5291666 c 0.1465792,0 0.2645834,-0.1180042 0.2645834,-0.2645833 V 2.3812499 c 0,-0.1465792 -0.1180042,-0.2645833 -0.2645834,-0.2645833 z m 0,1.8520833 c -0.1465792,0 -0.2645834,0.1180042 -0.2645834,0.2645833 v 0.5291667 c 0,0.1465791 0.1180042,0.2645833 0.2645834,0.2645833 h 0.5291666 c 0.1465792,0 0.2645834,-0.1180042 0.2645834,-0.2645833 V 4.2333332 c 0,-0.1465791 -0.1180042,-0.2645833 -0.2645834,-0.2645833 z m 0,1.8520833 c -0.1465792,0 -0.2645834,0.1180042 -0.2645834,0.2645833 v 0.5291667 c 0,0.1465792 0.1180042,0.2645833 0.2645834,0.2645833 h 0.5291666 c 0.1465792,0 0.2645834,-0.1180041 0.2645834,-0.2645833 V 6.0854165 c 0,-0.1465791 -0.1180042,-0.2645833 -0.2645834,-0.2645833 z"
     style="opacity:0.25;fill:#000000;fill-opacity:1;stroke-width:0.264583" />
  <path
     id="rect33"
     d="m 1.3229167,1.8520833 c -0.1465792,0 -0.2645834,0.1180041 -0.2645834,0.2645833 v 0.5291666 c 0,0.1465792 0.1180042,0.2645834 0.2645834,0.2645834 h 0.5291666 c 0.1465792,0 0.2645834,-0.1180042 0.2645834,-0.2645834 V 2.1166666 c 0,-0.1465792 -0.1180042,-0.2645833 -0.2645834,-0.2645833 z m 0,1.8520833 c -0.1465792,0 -0.2645834,0.1180041 -0.2645834,0.2645833 v 0.5291666 c 0,0.1465792 0.1180042,0.2645834 0.2645834,0.2645834 h 0.5291666 c 0.1465792,0 0.2645834,-0.1180042 0.2645834,-0.2645834 V 3.9687499 c 0,-0.1465792 -0.1180042,-0.2645833 -0.2645834,-0.2645833 z m 0,1.8520833 c -0.1465792,0 -0.2645834,0.1180041 -0.2645834,0.2645833 v 0.5291667 c 0,0.1465791 0.1180042,0.2645833 0.2645834,0.2645833 h 0.5291666 c 0.1465792,0 0.2645834,-0.1180042 0.2645834,-0.2645833 V 5.8208332 c 0,-0.1465792 -0.1180042,-0.2645833 -0.2645834,-0.2645833 z"
     style="fill:#faf8f6;fill-opacity:1;stroke-width:0.264583" />
  <path
     id="rect13250"
     style="fill:url(#linearGradient16320);fill-opacity:1;stroke-width:0.264583;stroke-linejoin:round;opacity:0.3"
     d="m 2.6458333,0.79375 c -1.71979143,0 -2.11666664,0.396875 -2.11666664,2.1166666 v 2.6458335 c 0,1.7197919 0.39687515,2.1166666 2.11666664,2.1166666 h 3.175 c 1.7197913,0 2.1166666,-0.3968747 2.1166666,-2.1166666 V 2.9104166 C 7.9374999,1.190625 7.5406249,0.79375 5.8208333,0.79375 Z m 0,0.2645833 h 3.175 c 1.5213541,0 1.8520833,0.3307294 1.8520833,1.8520833 v 2.6458335 c 0,1.5213542 -0.3307292,1.8520833 -1.8520833,1.8520833 h -3.175 c -1.5213541,0 -1.85208331,-0.3307291 -1.85208331,-1.8520833 V 2.9104166 c 0,-1.521354 0.33072921,-1.8520834 1.85208331,-1.8520833 z"
     sodipodi:nodetypes="ssssssssssssssssss" />
  <path
     id="rect2545"
     style="opacity:0.4;fill:#000000;stroke-width:0.387914;stroke-linejoin:round"
     d="m 2.6458333,0.52916667 c -1.91822909,0 -2.38124997,0.4630208 -2.38124997,2.38124993 V 5.55625 c 0,1.8520831 0.52916735,2.38125 2.38124997,2.38125 h 3.175 c 1.8520841,0 2.3812499,-0.5291669 2.3812499,-2.38125 V 2.9104166 c 0,-1.8520832 -0.5291666,-2.38124988 -2.3812499,-2.38124993 z m 0,0.26458333 h 3.175 c 1.7197916,0 2.1166666,0.396875 2.1166666,2.1166666 V 5.55625 c 0,1.7197917 -0.3968753,2.1166666 -2.1166666,2.1166666 h -3.175 c -1.71979162,0 -2.11666664,-0.3968749 -2.11666664,-2.1166666 V 2.9104166 c 0,-1.7197916 0.39687505,-2.1166666 2.11666664,-2.1166666 z"
     sodipodi:nodetypes="ssssssssssssssssss" />
</svg>
