<?xml version="1.0" encoding="UTF-8" standalone="no"?>
<!-- Created with Inkscape (http://www.inkscape.org/) -->

<svg
   width="32"
   height="32"
   viewBox="0 0 8.4666665 8.4666669"
   version="1.1"
   id="svg2719"
   inkscape:version="1.1.2 (0a00cf5339, 2022-02-04)"
   sodipodi:docname="preferences-desktop-wallpaper.svg"
   xmlns:inkscape="http://www.inkscape.org/namespaces/inkscape"
   xmlns:sodipodi="http://sodipodi.sourceforge.net/DTD/sodipodi-0.dtd"
   xmlns:xlink="http://www.w3.org/1999/xlink"
   xmlns="http://www.w3.org/2000/svg"
   xmlns:svg="http://www.w3.org/2000/svg">
  <sodipodi:namedview
     id="namedview2721"
     pagecolor="#ffffff"
     bordercolor="#666666"
     borderopacity="1.0"
     inkscape:pageshadow="2"
     inkscape:pageopacity="0.0"
     inkscape:pagecheckerboard="0"
     inkscape:document-units="px"
     showgrid="false"
     units="px"
     inkscape:zoom="24.1875"
     inkscape:cx="15.979328"
     inkscape:cy="16"
     inkscape:window-width="1920"
     inkscape:window-height="998"
     inkscape:window-x="0"
     inkscape:window-y="0"
     inkscape:window-maximized="1"
     inkscape:current-layer="svg2719"
     showguides="false" />
  <defs
     id="defs2716">
    <linearGradient
       inkscape:collect="always"
       id="linearGradient1871">
      <stop
         style="stop-color:#ffffff;stop-opacity:1;"
         offset="0"
         id="stop1867" />
      <stop
         style="stop-color:#ffffff;stop-opacity:0.1"
         offset="0.12"
         id="stop2515" />
      <stop
         style="stop-color:#ffffff;stop-opacity:0.102"
         offset="0.89999998"
         id="stop2581" />
      <stop
         style="stop-color:#ffffff;stop-opacity:0.502"
         offset="1"
         id="stop1869" />
    </linearGradient>
    <linearGradient
       inkscape:collect="always"
       xlink:href="#linearGradient1871"
       id="linearGradient16320"
       x1="10"
       y1="4"
       x2="10"
       y2="29.100245"
       gradientUnits="userSpaceOnUse"
       gradientTransform="matrix(0.26458333,0,0,0.26458333,0,-0.26458332)" />
    <linearGradient
       inkscape:collect="always"
       xlink:href="#linearGradient3598"
       id="linearGradient3600"
       x1="12.262125"
       y1="9.7353592"
       x2="0.36087561"
       y2="4.2708535"
       gradientUnits="userSpaceOnUse"
       gradientTransform="matrix(2.4356956,0,0,2.4296963,0.53333328,0.89285725)" />
    <linearGradient
       inkscape:collect="always"
       id="linearGradient3598">
      <stop
         style="stop-color:#a52d9b;stop-opacity:1"
         offset="0"
         id="stop3594" />
      <stop
         style="stop-color:#6e3c61;stop-opacity:1"
         offset="1"
         id="stop3596" />
    </linearGradient>
  </defs>
  <path
     id="rect18683"
     style="opacity:0.1;fill:#000000;stroke-width:0.264583;stroke-linejoin:round"
     d="m 2.38125,0.92604165 c -1.45520832,0 -1.984375,0.52916665 -1.984375,1.98437495 v 3.0427085 c 0,1.5875 0.52916665,2.1166666 2.1166666,2.1166666 h 3.4395833 c 1.5875,0 2.1166667,-0.5291666 2.1166667,-2.1166666 V 3.0427083 c 0,-1.5875 -0.5291667,-2.11666665 -2.1166667,-2.11666665 z"
     sodipodi:nodetypes="sssssssss" />
  <path
     id="rect877"
     style="display:inline;fill:url(#linearGradient3600);fill-opacity:1;stroke:none;stroke-width:0.241369;stroke-linecap:round;stroke-linejoin:round;stroke-miterlimit:4;stroke-dasharray:none;stroke-dashoffset:0;stroke-opacity:1;enable-background:new"
     d="M 9,2.5 C 3.5,2.5 1.5,4.4999998 1.5,10 v 11.5 c 0,6 2,8 8,8 h 13 c 6,0 8,-2 8,-8 v -11 c -1e-6,-6 -2,-8 -8,-8 z"
     transform="scale(0.26458333)"
     sodipodi:nodetypes="cccccsscc" />
  <path
     id="path883"
     style="color:#000000;opacity:0.3;fill:#000000;stroke-width:0.999999"
     d="M 23.607422 2.5253906 C 23.940592 2.5415042 24.261269 2.5654368 24.566406 2.5976562 C 24.554295 2.5963775 24.541452 2.5950028 24.529297 2.59375 C 24.384133 2.5787934 24.2354 2.5659812 24.083984 2.5546875 C 24.081452 2.5544988 24.078706 2.5548752 24.076172 2.5546875 C 23.923277 2.5433553 23.766785 2.5331018 23.607422 2.5253906 z M 24.566406 2.5976562 C 24.863093 2.6289834 25.144999 2.6694117 25.416016 2.7167969 C 25.357877 2.7066376 25.297586 2.6969057 25.238281 2.6875 C 25.147099 2.6730384 25.056853 2.6591891 24.962891 2.6464844 C 24.833643 2.6290088 24.70098 2.6118738 24.566406 2.5976562 z M 25.523438 2.7363281 C 25.769744 2.781961 26.005141 2.8345405 26.230469 2.8945312 C 26.151729 2.8735789 26.07151 2.8531588 25.990234 2.8339844 C 25.931227 2.8200591 25.872857 2.8079223 25.8125 2.7949219 C 25.799574 2.7921373 25.786424 2.7878987 25.773438 2.7851562 C 25.734067 2.7768499 25.692287 2.76964 25.652344 2.7617188 C 25.609796 2.753281 25.566456 2.7445357 25.523438 2.7363281 z M 18 3 L 18 7.8125 L 18 8 L 18 8.0996094 C 18 14.717909 18.30539 15.1574 24.9375 15.125 L 30 15.125 L 30 11 C 30 4.5000004 28.5 3 22 3 L 18 3 z M 27.089844 3.1796875 C 27.154993 3.2061655 27.220187 3.2335456 27.283203 3.2617188 C 27.25037 3.2469613 27.219006 3.2310389 27.185547 3.2167969 C 27.18237 3.2154448 27.178964 3.2142385 27.175781 3.2128906 C 27.147951 3.201102 27.118295 3.1910484 27.089844 3.1796875 z M 27.408203 3.3203125 C 27.46276 3.3462802 27.515446 3.3730645 27.568359 3.4003906 C 27.539268 3.3853125 27.51215 3.3681975 27.482422 3.3535156 C 27.458439 3.3416712 27.432483 3.3319216 27.408203 3.3203125 z M 27.728516 3.484375 C 27.771756 3.5086089 27.813377 3.5353243 27.855469 3.5605469 C 27.827145 3.5433181 27.800362 3.5243629 27.771484 3.5078125 C 27.757453 3.4997708 27.742629 3.4923052 27.728516 3.484375 z M 28.027344 3.6660156 C 28.081256 3.7013956 28.133624 3.7382185 28.185547 3.7753906 C 28.159327 3.7567513 28.134139 3.737066 28.107422 3.71875 C 28.104287 3.7166009 28.100798 3.7150334 28.097656 3.7128906 C 28.074316 3.6969732 28.050952 3.6813924 28.027344 3.6660156 z M 28.271484 3.8378906 C 28.283892 3.847211 28.296303 3.8558056 28.308594 3.8652344 C 28.306416 3.8635644 28.304915 3.8610415 28.302734 3.859375 C 28.300158 3.8574056 28.297503 3.8554803 28.294922 3.8535156 C 28.287479 3.847851 28.278971 3.8434985 28.271484 3.8378906 z M 29.621094 5.4746094 C 29.638979 5.5100043 29.658493 5.543959 29.675781 5.5800781 C 29.674891 5.5782191 29.674719 5.5760758 29.673828 5.5742188 C 29.67319 5.5728888 29.672514 5.5716414 29.671875 5.5703125 C 29.656015 5.5373422 29.637524 5.5069392 29.621094 5.4746094 z M 29.757812 5.7617188 C 29.782231 5.8175534 29.806967 5.8741546 29.830078 5.9316406 C 29.826025 5.9214023 29.822502 5.9105367 29.818359 5.9003906 C 29.816273 5.8952782 29.814597 5.8898649 29.8125 5.8847656 C 29.810589 5.8801188 29.808561 5.8757295 29.806641 5.8710938 C 29.791177 5.833759 29.774062 5.7983754 29.757812 5.7617188 z M 30.105469 6.7675781 C 30.167622 7.0008213 30.220806 7.2442574 30.267578 7.5 C 30.262918 7.4740342 30.258831 7.4476872 30.253906 7.421875 C 30.240216 7.3500735 30.225847 7.278965 30.210938 7.2089844 C 30.198982 7.1529113 30.186577 7.0978817 30.173828 7.0429688 C 30.155222 6.9627459 30.135554 6.8844104 30.115234 6.8066406 C 30.111824 6.7935964 30.108923 6.7806181 30.105469 6.7675781 z M 30.285156 7.5957031 C 30.328958 7.847761 30.366552 8.1105764 30.396484 8.3847656 C 30.392151 8.3477455 30.387137 8.3103278 30.382812 8.2734375 C 30.373514 8.194116 30.36399 8.1145244 30.353516 8.0371094 C 30.346275 7.9835999 30.337887 7.9315116 30.330078 7.8789062 C 30.315888 7.7832733 30.301249 7.6883735 30.285156 7.5957031 z M 30.404297 8.4667969 C 30.433174 8.7460934 30.455242 9.0391675 30.470703 9.3417969 C 30.468699 9.3068442 30.466831 9.2714104 30.464844 9.2363281 C 30.459068 9.1343106 30.452624 9.0309413 30.445312 8.9316406 C 30.444927 8.926405 30.445703 8.9212437 30.445312 8.9160156 C 30.436127 8.7927515 30.42567 8.6738019 30.414062 8.5546875 C 30.412707 8.5407522 30.411546 8.5275508 30.410156 8.5136719 C 30.408563 8.4977577 30.406004 8.4825611 30.404297 8.4667969 z M 30.478516 9.4882812 C 30.492678 9.8130647 30.5 10.148102 30.5 10.5 C 30.5 10.324467 30.497614 10.153111 30.494141 9.984375 C 30.490667 9.815682 30.485563 9.6502805 30.478516 9.4882812 z "
     transform="scale(0.26458333)" />
  <path
     d="M 8.0697916,3.7375041 4.9940104,0.66145834 V 1.802474 1.852086 1.878732 c 0,1.7510918 0.080685,1.8673233 1.835441,1.8587243 z"
     style="color:#000000;fill:#faf8f6;stroke-width:0.264583"
     id="path1120" />
  <path
     id="rect2240"
     style="opacity:1;fill:#5d5d5d;fill-opacity:1;stroke-width:2;stroke-linecap:round;stroke-linejoin:round"
     d="m 18.5,2.5 12,12 v -4 c -1e-6,-6 -2,-8 -8,-8 z"
     transform="scale(0.26458333)"
     sodipodi:nodetypes="ccssc" />
  <path
     id="rect1519"
     style="opacity:0.3;fill:#000000;stroke-width:0.94868;stroke-linejoin:round"
     d="M 9 2.5 C 3.5000001 2.5 1.5 4.4999998 1.5 10 L 1.5 21.5 C 1.5 27.329785 3.3891653 29.382319 9 29.494141 L 9 2.5 z "
     transform="scale(0.26458333)" />
  <path
     id="rect13250"
     style="fill:url(#linearGradient16320);fill-opacity:1;stroke-width:0.264583;stroke-linejoin:round;opacity:0.3"
     d="m 2.6458333,0.79375 c -1.71979143,0 -2.11666664,0.396875 -2.11666664,2.1166666 v 2.6458335 c 0,1.7197919 0.39687515,2.1166666 2.11666664,2.1166666 h 3.175 c 1.7197913,0 2.1166666,-0.3968747 2.1166666,-2.1166666 V 2.9104166 C 7.9374999,1.190625 7.5406249,0.79375 5.8208333,0.79375 Z m 0,0.2645833 h 3.175 c 1.5213541,0 1.8520833,0.3307294 1.8520833,1.8520833 v 2.6458335 c 0,1.5213542 -0.3307292,1.8520833 -1.8520833,1.8520833 h -3.175 c -1.5213541,0 -1.85208331,-0.3307291 -1.85208331,-1.8520833 V 2.9104166 c 0,-1.521354 0.33072921,-1.8520834 1.85208331,-1.8520833 z"
     sodipodi:nodetypes="ssssssssssssssssss" />
  <path
     id="rect2545"
     style="opacity:0.4;fill:#000000;stroke-width:0.387914;stroke-linejoin:round"
     d="m 2.6458333,0.52916667 c -1.91822909,0 -2.38124997,0.4630208 -2.38124997,2.38124993 V 5.55625 c 0,1.8520831 0.52916735,2.38125 2.38124997,2.38125 h 3.175 c 1.8520841,0 2.3812499,-0.5291669 2.3812499,-2.38125 V 2.9104166 c 0,-1.8520832 -0.5291666,-2.38124988 -2.3812499,-2.38124993 z m 0,0.26458333 h 3.175 c 1.7197916,0 2.1166666,0.396875 2.1166666,2.1166666 V 5.55625 c 0,1.7197917 -0.3968753,2.1166666 -2.1166666,2.1166666 h -3.175 c -1.71979162,0 -2.11666664,-0.3968749 -2.11666664,-2.1166666 V 2.9104166 c 0,-1.7197916 0.39687505,-2.1166666 2.11666664,-2.1166666 z"
     sodipodi:nodetypes="ssssssssssssssssss" />
</svg>
