<?xml version="1.0" encoding="UTF-8" standalone="no"?>
<!-- Created with Inkscape (http://www.inkscape.org/) -->

<svg
   width="32"
   height="32"
   viewBox="0 0 8.4666665 8.4666669"
   version="1.1"
   id="svg2719"
   inkscape:version="1.1.2 (0a00cf5339, 2022-02-04)"
   sodipodi:docname="quadrapassel.svg"
   xmlns:inkscape="http://www.inkscape.org/namespaces/inkscape"
   xmlns:sodipodi="http://sodipodi.sourceforge.net/DTD/sodipodi-0.dtd"
   xmlns:xlink="http://www.w3.org/1999/xlink"
   xmlns="http://www.w3.org/2000/svg"
   xmlns:svg="http://www.w3.org/2000/svg">
  <sodipodi:namedview
     id="namedview2721"
     pagecolor="#ffffff"
     bordercolor="#666666"
     borderopacity="1.0"
     inkscape:pageshadow="2"
     inkscape:pageopacity="0.0"
     inkscape:pagecheckerboard="0"
     inkscape:document-units="px"
     showgrid="false"
     units="px"
     inkscape:zoom="18.318485"
     inkscape:cx="19.570396"
     inkscape:cy="19.051794"
     inkscape:window-width="1851"
     inkscape:window-height="1049"
     inkscape:window-x="0"
     inkscape:window-y="0"
     inkscape:window-maximized="1"
     inkscape:current-layer="svg2719" />
  <defs
     id="defs2716">
    <linearGradient
       inkscape:collect="always"
       id="linearGradient1694">
      <stop
         style="stop-color:#fdc92b;stop-opacity:1;"
         offset="0"
         id="stop1690" />
      <stop
         style="stop-color:#ffda64;stop-opacity:1"
         offset="1"
         id="stop1692" />
    </linearGradient>
    <linearGradient
       inkscape:collect="always"
       id="linearGradient2610">
      <stop
         style="stop-color:#5bdbc1;stop-opacity:1"
         offset="0"
         id="stop2606" />
      <stop
         style="stop-color:#2b898f;stop-opacity:1"
         offset="1"
         id="stop2608" />
    </linearGradient>
    <linearGradient
       inkscape:collect="always"
       id="linearGradient1871">
      <stop
         style="stop-color:#ffffff;stop-opacity:1;"
         offset="0"
         id="stop1867" />
      <stop
         style="stop-color:#ffffff;stop-opacity:0.1"
         offset="0.12"
         id="stop2515" />
      <stop
         style="stop-color:#ffffff;stop-opacity:0.102"
         offset="0.89999998"
         id="stop2581" />
      <stop
         style="stop-color:#ffffff;stop-opacity:0.502"
         offset="1"
         id="stop1869" />
    </linearGradient>
    <linearGradient
       inkscape:collect="always"
       xlink:href="#linearGradient1871"
       id="linearGradient16320"
       x1="10"
       y1="4"
       x2="10"
       y2="29.100245"
       gradientUnits="userSpaceOnUse"
       gradientTransform="matrix(0.26458333,0,0,0.26458333,0,-0.26458332)" />
    <linearGradient
       inkscape:collect="always"
       xlink:href="#linearGradient2610"
       id="linearGradient2612"
       x1="5.2916665"
       y1="7.9375"
       x2="2.6458333"
       y2="0.5291667"
       gradientUnits="userSpaceOnUse" />
    <linearGradient
       inkscape:collect="always"
       xlink:href="#linearGradient1694"
       id="linearGradient1696"
       x1="22.964844"
       y1="22.971489"
       x2="40"
       y2="22.971489"
       gradientUnits="userSpaceOnUse"
       gradientTransform="translate(0.03515626,6.0570236)" />
    <linearGradient
       inkscape:collect="always"
       xlink:href="#linearGradient1694"
       id="linearGradient2846"
       x1="0.79374999"
       y1="4.2333331"
       x2="4.4979167"
       y2="4.2333331"
       gradientUnits="userSpaceOnUse"
       gradientTransform="translate(0,1.3228154)" />
    <linearGradient
       inkscape:collect="always"
       xlink:href="#linearGradient1694"
       id="linearGradient3516"
       x1="4.2333331"
       y1="4.2333331"
       x2="8.4666662"
       y2="4.2333331"
       gradientUnits="userSpaceOnUse"
       gradientTransform="translate(0,1.5875)" />
    <linearGradient
       inkscape:collect="always"
       xlink:href="#linearGradient1694"
       id="linearGradient4378"
       x1="4.4979167"
       y1="4.2333331"
       x2="8.7312498"
       y2="4.2333331"
       gradientUnits="userSpaceOnUse"
       gradientTransform="translate(0,1.5875)" />
    <linearGradient
       inkscape:collect="always"
       xlink:href="#linearGradient1694"
       id="linearGradient5880"
       x1="6.3499999"
       y1="4.2333331"
       x2="10.583329"
       y2="4.2333331"
       gradientUnits="userSpaceOnUse" />
    <linearGradient
       inkscape:collect="always"
       xlink:href="#linearGradient1694"
       id="linearGradient7235"
       x1="2.3812499"
       y1="5.5562501"
       x2="6.3499999"
       y2="5.5562501"
       gradientUnits="userSpaceOnUse"
       gradientTransform="scale(3.7795275)" />
  </defs>
  <path
     id="rect18683"
     style="opacity:0.1;fill:#000000;stroke-width:0.264583;stroke-linejoin:round"
     d="m 2.38125,0.92604165 c -1.45520832,0 -1.984375,0.52916665 -1.984375,1.98437495 v 3.0427085 c 0,1.5875 0.52916665,2.1166666 2.1166666,2.1166666 h 3.4395833 c 1.5875,0 2.1166667,-0.5291666 2.1166667,-2.1166666 V 3.0427083 c 0,-1.5875 -0.5291667,-2.11666665 -2.1166667,-2.11666665 z"
     sodipodi:nodetypes="sssssssss" />
  <path
     id="rect6397"
     style="fill:url(#linearGradient2612);fill-opacity:1;stroke-width:0.255274;stroke-linejoin:round"
     d="M 0.39687499,2.6458334 C 0.396875,1.190625 0.92604165,0.66145833 2.38125,0.66145834 h 3.571875 c 1.5874999,-1e-8 2.1166666,0.52916666 2.1166668,2.11666666 l 10e-8,2.9104168 c 0,1.5874999 -0.529166,2.1166666 -2.116666,2.1166666 H 2.5135417 c -1.58750001,0 -2.11666671,-0.5291667 -2.11666671,-2.1166667 z"
     sodipodi:nodetypes="ccccccccc" />
  <g
     id="g7930"
     style="opacity:0.4">
    <path
       id="rect1285"
       style="opacity:1;fill:url(#linearGradient1696);fill-opacity:1;stroke-width:0.999999"
       d="M 3.9492188,26 C 3.4193903,26.026685 3,26.463313 3,27 v 0.478516 c 1.1616561,1.372226 3.0763497,1.957358 6,2.015625 V 27 C 9,26.446 8.5539997,26 8,26 H 4 c -0.01731,0 -0.033676,-8.6e-4 -0.050781,0 z M 11,26 c -0.554,0 -1,0.446 -1,1 v 2.5 h 6 V 27 c 0,-0.554 -0.446,-1 -1,-1 z m 7,0 c -0.554,0 -1,0.446 -1,1 v 2.5 h 5.5 c 0.170215,0 0.336178,-0.0026 0.5,-0.0059 V 27 c 0,-0.554 -0.446,-1 -1,-1 z m 7,0 c -0.554,0 -1,0.446 -1,1 v 2.451172 c 3.031575,-0.211306 4.816959,-1.131903 5.726562,-3.136719 C 29.544469,26.121419 29.28754,26 29,26 Z"
       transform="scale(0.26458333)" />
    <path
       id="rect6462"
       style="opacity:0.4;fill:#000000;fill-opacity:1;stroke-width:0.264583"
       d="m 6.6145832,3.4395833 c -0.1465791,0 -0.2645833,0.1180042 -0.2645833,0.2645834 V 4.7625 c 0,0.1465792 0.1180042,0.2645833 0.2645833,0.2645833 h 1.0583334 c 0.1465791,0 0.2645833,-0.1180041 0.2645833,-0.2645833 V 3.7041667 c 0,-0.1465792 -0.1180042,-0.2645834 -0.2645833,-0.2645834 z M 1.0583333,5.2916667 c -0.14657914,0 -0.26458331,0.1180041 -0.26458331,0.2645833 v 1.0583333 c 0,0.1465792 0.11800417,0.2645833 0.26458331,0.2645833 h 1.0583333 c 0.1465792,0 0.2645834,-0.1180041 0.2645834,-0.2645833 V 5.55625 c 0,-0.1465792 -0.1180042,-0.2645833 -0.2645834,-0.2645833 z m 3.7041666,0 c -0.1465791,0 -0.2645833,0.1180041 -0.2645833,0.2645833 v 1.0583333 c 0,0.1465792 0.1180042,0.2645833 0.2645833,0.2645833 h 1.0583334 c 0.1465791,0 0.2645833,-0.1180041 0.2645833,-0.2645833 V 5.55625 c 0,-0.1465792 -0.1180042,-0.2645833 -0.2645833,-0.2645833 z m 1.8520833,0 c -0.1465791,0 -0.2645833,0.1180041 -0.2645833,0.2645833 v 1.0583333 c 0,0.1465792 0.1180042,0.2645833 0.2645833,0.2645833 h 1.0583334 c 0.1465791,0 0.2645833,-0.1180041 0.2645833,-0.2645833 V 5.55625 c 0,-0.1465792 -0.1180042,-0.2645833 -0.2645833,-0.2645833 z" />
    <rect
       style="opacity:1;fill:url(#linearGradient2846);fill-opacity:1;stroke-width:0.264583"
       id="rect2668"
       width="1.5875"
       height="1.5875"
       x="0.79374999"
       y="5.0270834"
       ry="0.26458332" />
    <rect
       style="opacity:1;fill:url(#linearGradient3516);fill-opacity:1;stroke-width:0.264583"
       id="rect3428"
       width="1.5874999"
       height="1.5875001"
       x="4.4979167"
       y="5.0270834"
       ry="0.26458332" />
    <rect
       style="opacity:1;fill:url(#linearGradient4378);fill-opacity:1;stroke-width:0.264583"
       id="rect4290"
       width="1.5875001"
       height="1.5875001"
       x="6.3499999"
       y="5.0270834"
       ry="0.26458332" />
    <rect
       style="opacity:1;fill:url(#linearGradient5880);fill-opacity:1;stroke-width:0.264583"
       id="rect5792"
       width="1.5875001"
       height="1.5875001"
       x="6.3499999"
       y="3.1749997"
       ry="0.26458332" />
    <path
       id="rect944"
       style="opacity:0.7;fill:#ffffff;stroke-width:0.999999"
       d="m 25,12 c -0.554,0 -1,0.446 -1,1 v 1 c 0,-0.554 0.446,-1 1,-1 h 4 c 0.554,0 1,0.446 1,1 v -1 c 0,-0.554 -0.446,-1 -1,-1 z M 4,19 c -0.554,0 -1,0.446 -1,1 v 1 c 0,-0.554 0.446,-1 1,-1 h 4 c 0.554,0 1,0.446 1,1 V 20 C 9,19.446 8.554,19 8,19 Z m 14,0 c -0.554,0 -1,0.446 -1,1 v 1 c 0,-0.554 0.446,-1 1,-1 h 4 c 0.554,0 1,0.446 1,1 v -1 c 0,-0.554 -0.446,-1 -1,-1 z m 7,0 c -0.554,0 -1,0.446 -1,1 v 1 c 0,-0.554 0.446,-1 1,-1 h 4 c 0.554,0 1,0.446 1,1 v -1 c 0,-0.554 -0.446,-1 -1,-1 z M 4,26 c -0.5539999,0 -1,0.446 -1,1 v 0.478516 c 0.029742,0.03513 0.061065,0.06941 0.091797,0.103515 C 3.2495883,27.238086 3.5955171,27 4,27 h 4 c 0.5540001,0 1,0.446 1,1 V 27 C 9,26.446 8.5540001,26 8,26 Z m 7,0 c -0.554,0 -1,0.446 -1,1 v 1 c 0,-0.554 0.446,-1 1,-1 h 4 c 0.554,0 1,0.446 1,1 v -1 c 0,-0.554 -0.446,-1 -1,-1 z m 7,0 c -0.554,0 -1,0.446 -1,1 v 1 c 0,-0.554 0.446,-1 1,-1 h 4 c 0.554,0 1,0.446 1,1 v -1 c 0,-0.554 -0.446,-1 -1,-1 z m 7,0 c -0.554,0 -1,0.446 -1,1 v 1 c 0,-0.554 0.446,-1 1,-1 h 4 c 0.111332,0 0.218493,0.01945 0.318359,0.05273 0.151749,-0.228108 0.287911,-0.473148 0.408203,-0.738281 C 29.54447,26.121423 29.28754,26 29,26 Z"
       transform="scale(0.26458333)" />
  </g>
  <path
     id="rect7001"
     style="opacity:0.4;fill:#000000;fill-opacity:1;stroke-width:0.999999"
     d="M 18 6 C 17.446 6 17 6.446 17 7 L 17 11 C 17 11.554 17.446 12 18 12 L 22 12 C 22.554 12 23 11.554 23 11 L 23 7 C 23 6.446 22.554 6 22 6 L 18 6 z M 11 13 C 10.446 13 10 13.446 10 14 L 10 18 C 10 18.554 10.446 19 11 19 L 15 19 C 15.554 19 16 18.554 16 18 L 16 14 C 16 13.446 15.554 13 15 13 L 11 13 z M 18 13 C 17.446 13 17 13.446 17 14 L 17 18 C 17 18.554 17.446 19 18 19 L 22 19 C 22.554 19 23 18.554 23 18 L 23 14 C 23 13.446 22.554 13 22 13 L 18 13 z M 11 20 C 10.446 20 10 20.446 10 21 L 10 25 C 10 25.554 10.446 26 11 26 L 15 26 C 15.554 26 16 25.554 16 25 L 16 21 C 16 20.446 15.554 20 15 20 L 11 20 z "
     transform="scale(0.26458333)" />
  <path
     id="rect6897"
     style="opacity:1;fill:url(#linearGradient7235);fill-opacity:1;stroke-width:0.999999"
     d="M 18 5 C 17.446 5 17 5.446 17 6 L 17 10 C 17 10.554 17.446 11 18 11 L 22 11 C 22.554 11 23 10.554 23 10 L 23 6 C 23 5.446 22.554 5 22 5 L 18 5 z M 11 12 C 10.446 12 10 12.446 10 13 L 10 17 C 10 17.554 10.446 18 11 18 L 15 18 C 15.554 18 16 17.554 16 17 L 16 13 C 16 12.446 15.554 12 15 12 L 11 12 z M 18 12 C 17.446 12 17 12.446 17 13 L 17 17 C 17 17.554 17.446 18 18 18 L 22 18 C 22.554 18 23 17.554 23 17 L 23 13 C 23 12.446 22.554 12 22 12 L 18 12 z M 11 19 C 10.446 19 10 19.446 10 20 L 10 24 C 10 24.554 10.446 25 11 25 L 15 25 C 15.554 25 16 24.554 16 24 L 16 20 C 16 19.446 15.554 19 15 19 L 11 19 z "
     transform="scale(0.26458333)" />
  <path
     id="rect7712"
     style="opacity:0.7;fill:#ffffff;fill-opacity:1;stroke-width:0.999999"
     d="m 18,5 c -0.554,0 -1,0.446 -1,1 v 1 c 0,-0.5540001 0.446,-1 1,-1 h 4 c 0.554,0 1,0.4459999 1,1 V 6 C 23,5.446 22.554,5 22,5 Z m -7,7 c -0.554,0 -1,0.446 -1,1 v 1 c 0,-0.554 0.446,-1 1,-1 h 4 c 0.554,0 1,0.446 1,1 v -1 c 0,-0.554 -0.446,-1 -1,-1 z m 7,0 c -0.554,0 -1,0.446 -1,1 v 1 c 0,-0.554 0.446,-1 1,-1 h 4 c 0.554,0 1,0.446 1,1 v -1 c 0,-0.554 -0.446,-1 -1,-1 z m -7,7 c -0.554,0 -1,0.446 -1,1 v 1 c 0,-0.554 0.446,-1 1,-1 h 4 c 0.554,0 1,0.446 1,1 v -1 c 0,-0.554 -0.446,-1 -1,-1 z"
     transform="scale(0.26458333)" />
  <path
     id="rect13250"
     style="fill:url(#linearGradient16320);fill-opacity:1;stroke-width:0.264583;stroke-linejoin:round;opacity:1"
     d="m 2.6458333,0.79375 c -1.71979143,0 -2.11666664,0.396875 -2.11666664,2.1166666 v 2.6458335 c 0,1.7197919 0.39687515,2.1166666 2.11666664,2.1166666 h 3.175 c 1.7197913,0 2.1166666,-0.3968747 2.1166666,-2.1166666 V 2.9104166 C 7.9374999,1.190625 7.5406249,0.79375 5.8208333,0.79375 Z m 0,0.2645833 h 3.175 c 1.5213541,0 1.8520833,0.3307294 1.8520833,1.8520833 v 2.6458335 c 0,1.5213542 -0.3307292,1.8520833 -1.8520833,1.8520833 h -3.175 c -1.5213541,0 -1.85208331,-0.3307291 -1.85208331,-1.8520833 V 2.9104166 c 0,-1.521354 0.33072921,-1.8520834 1.85208331,-1.8520833 z"
     sodipodi:nodetypes="ssssssssssssssssss" />
  <path
     id="rect2545"
     style="opacity:0.4;fill:#000000;stroke-width:0.387914;stroke-linejoin:round"
     d="m 2.6458333,0.52916667 c -1.91822909,0 -2.38124997,0.4630208 -2.38124997,2.38124993 V 5.55625 c 0,1.8520831 0.52916735,2.38125 2.38124997,2.38125 h 3.175 c 1.8520841,0 2.3812499,-0.5291669 2.3812499,-2.38125 V 2.9104166 c 0,-1.8520832 -0.5291666,-2.38124988 -2.3812499,-2.38124993 z m 0,0.26458333 h 3.175 c 1.7197916,0 2.1166666,0.396875 2.1166666,2.1166666 V 5.55625 c 0,1.7197917 -0.3968753,2.1166666 -2.1166666,2.1166666 h -3.175 c -1.71979162,0 -2.11666664,-0.3968749 -2.11666664,-2.1166666 V 2.9104166 c 0,-1.7197916 0.39687505,-2.1166666 2.11666664,-2.1166666 z"
     sodipodi:nodetypes="ssssssssssssssssss" />
</svg>
