<?xml version="1.0" encoding="UTF-8" standalone="no"?>
<!-- Created with Inkscape (http://www.inkscape.org/) -->

<svg
   width="32"
   height="32"
   viewBox="0 0 8.4666665 8.4666669"
   version="1.1"
   id="svg2719"
   inkscape:version="1.1.2 (0a00cf5339, 2022-02-04)"
   sodipodi:docname="system-file-manager.svg"
   xmlns:inkscape="http://www.inkscape.org/namespaces/inkscape"
   xmlns:sodipodi="http://sodipodi.sourceforge.net/DTD/sodipodi-0.dtd"
   xmlns:xlink="http://www.w3.org/1999/xlink"
   xmlns="http://www.w3.org/2000/svg"
   xmlns:svg="http://www.w3.org/2000/svg">
  <sodipodi:namedview
     id="namedview2721"
     pagecolor="#ffffff"
     bordercolor="#666666"
     borderopacity="1.0"
     inkscape:pageshadow="2"
     inkscape:pageopacity="0.0"
     inkscape:pagecheckerboard="0"
     inkscape:document-units="px"
     showgrid="false"
     units="px"
     inkscape:zoom="24.75"
     inkscape:cx="15.979798"
     inkscape:cy="16"
     inkscape:window-width="1920"
     inkscape:window-height="1010"
     inkscape:window-x="0"
     inkscape:window-y="0"
     inkscape:window-maximized="1"
     inkscape:current-layer="svg2719"
     showguides="true" />
  <defs
     id="defs2716">
    <linearGradient
       inkscape:collect="always"
       id="linearGradient1047">
      <stop
         style="stop-color:#948b74;stop-opacity:1;"
         offset="0"
         id="stop1043" />
      <stop
         style="stop-color:#aea795;stop-opacity:1"
         offset="1"
         id="stop1045" />
    </linearGradient>
    <linearGradient
       inkscape:collect="always"
       id="linearGradient1871">
      <stop
         style="stop-color:#ffffff;stop-opacity:1;"
         offset="0"
         id="stop1867" />
      <stop
         style="stop-color:#ffffff;stop-opacity:0.1"
         offset="0.12"
         id="stop2515" />
      <stop
         style="stop-color:#ffffff;stop-opacity:0.102"
         offset="0.89999998"
         id="stop2581" />
      <stop
         style="stop-color:#ffffff;stop-opacity:0.502"
         offset="1"
         id="stop1869" />
    </linearGradient>
    <linearGradient
       inkscape:collect="always"
       xlink:href="#linearGradient1871"
       id="linearGradient16320"
       x1="10"
       y1="4"
       x2="10"
       y2="29.100245"
       gradientUnits="userSpaceOnUse"
       gradientTransform="matrix(0.26458333,0,0,0.26458333,0,-0.26458332)" />
    <linearGradient
       inkscape:collect="always"
       xlink:href="#linearGradient1047"
       id="linearGradient1049"
       x1="0"
       y1="0"
       x2="8.4666672"
       y2="8.4666672"
       gradientUnits="userSpaceOnUse" />
  </defs>
  <path
     id="rect18683"
     style="opacity:0.1;fill:#000000;stroke-width:0.264583;stroke-linejoin:round"
     d="m 2.38125,0.92604165 c -1.45520832,0 -1.984375,0.52916665 -1.984375,1.98437495 v 3.0427085 c 0,1.5875 0.52916665,2.1166666 2.1166666,2.1166666 h 3.4395833 c 1.5875,0 2.1166667,-0.5291666 2.1166667,-2.1166666 V 3.0427083 c 0,-1.5875 -0.5291667,-2.11666665 -2.1166667,-2.11666665 z"
     sodipodi:nodetypes="sssssssss" />
  <path
     id="rect6397"
     style="fill:url(#linearGradient1049);fill-opacity:1;stroke-width:0.255274;stroke-linejoin:round"
     d="M 0.39687499,2.6458334 C 0.396875,1.190625 0.92604165,0.66145833 2.38125,0.66145834 h 3.571875 c 1.5874999,-1e-8 2.1166666,0.52916666 2.1166668,2.11666666 l 10e-8,2.9104168 c 0,1.5874999 -0.529166,2.1166666 -2.116666,2.1166666 H 2.5135417 c -1.58750001,0 -2.11666671,-0.5291667 -2.11666671,-2.1166667 z"
     sodipodi:nodetypes="ccccccccc" />
  <path
     id="rect2399"
     style="opacity:0.1;fill:#ffffff;fill-opacity:1;stroke:none;stroke-width:0.999999;stroke-linecap:round;stroke-linejoin:round;stroke-miterlimit:4;stroke-dasharray:none;stroke-opacity:1"
     d="M 22.5 2.5 L 1.5839844 23.416016 C 2.0153802 27.932203 4.1915391 29.5 9.5 29.5 L 22.5 29.5 C 28.5 29.5 30.5 27.5 30.5 21.5 L 30.5 10.5 C 30.499999 4.5 28.5 2.5 22.5 2.5 z "
     transform="scale(0.26458333)" />
  <path
     id="rect2545"
     style="opacity:0.4;fill:#000000;stroke-width:0.387914;stroke-linejoin:round"
     d="m 2.6458333,0.52916667 c -1.91822909,0 -2.38124997,0.4630208 -2.38124997,2.38124993 V 5.55625 c 0,1.8520831 0.52916735,2.38125 2.38124997,2.38125 h 3.175 c 1.8520841,0 2.3812499,-0.5291669 2.3812499,-2.38125 V 2.9104166 c 0,-1.8520832 -0.5291666,-2.38124988 -2.3812499,-2.38124993 z m 0,0.26458333 h 3.175 c 1.7197916,0 2.1166666,0.396875 2.1166666,2.1166666 V 5.55625 c 0,1.7197917 -0.3968753,2.1166666 -2.1166666,2.1166666 h -3.175 c -1.71979162,0 -2.11666664,-0.3968749 -2.11666664,-2.1166666 V 2.9104166 c 0,-1.7197916 0.39687505,-2.1166666 2.11666664,-2.1166666 z"
     sodipodi:nodetypes="ssssssssssssssssss" />
  <path
     id="rect13250"
     style="fill:url(#linearGradient16320);fill-opacity:1;stroke-width:0.264583;stroke-linejoin:round"
     d="m 2.6458333,0.79375 c -1.71979143,0 -2.11666664,0.396875 -2.11666664,2.1166666 v 2.6458335 c 0,1.7197919 0.39687515,2.1166666 2.11666664,2.1166666 h 3.175 c 1.7197913,0 2.1166666,-0.3968747 2.1166666,-2.1166666 V 2.9104166 C 7.9374999,1.190625 7.5406249,0.79375 5.8208333,0.79375 Z m 0,0.2645833 h 3.175 c 1.5213541,0 1.8520833,0.3307294 1.8520833,1.8520833 v 2.6458335 c 0,1.5213542 -0.3307292,1.8520833 -1.8520833,1.8520833 h -3.175 c -1.5213541,0 -1.85208331,-0.3307291 -1.85208331,-1.8520833 V 2.9104166 c 0,-1.521354 0.33072921,-1.8520834 1.85208331,-1.8520833 z"
     sodipodi:nodetypes="ssssssssssssssssss" />
  <path
     id="path1951"
     style="color:#000000;opacity:0.1;fill:#000000;stroke-width:0.999999;-inkscape-stroke:none;stroke:none"
     d="M 11.990234 6.0039062 C 10.138857 6.0254923 8.5751688 5.9008429 7.125 6.7011719 C 6.3400401 7.1342664 5.7337588 7.8512872 5.4082031 8.71875 C 5.0957953 9.5509525 5.0177179 10.460792 5.0136719 11.5 L 5 15.501953 L 5 20.5 C 5 21.546026 5.0906217 22.448229 5.4003906 23.273438 C 5.7243113 24.136507 6.3196291 24.863106 7.109375 25.298828 C 8.1530836 25.874738 9.2828908 25.956683 10.478516 25.982422 L 10.484375 25.982422 L 10.496094 25.982422 L 20.013672 25.996094 L 20.017578 25.996094 C 21.868743 25.974702 23.439229 26.099619 24.890625 25.298828 C 25.679556 24.863629 26.277041 24.137894 26.601562 23.273438 C 26.910323 22.450865 27.004267 21.548448 27 20.498047 L 26.978516 15.5 L 26.978516 15 L 26.978516 13.501953 C 26.978516 12.458543 26.897276 11.55011 26.585938 10.720703 C 26.261258 9.8556876 25.661694 9.1352431 24.875 8.7011719 C 24.054725 8.2484657 23.166988 8.0978212 22.257812 8.0410156 C 22.257741 8.0410111 22.255386 8.0411524 22.25 8.0410156 C 22.23526 8.0406388 22.208764 8.0406324 22.228516 8.0410156 L 22.214844 8.3847656 C 22.210233 8.2371297 22.202848 8.0410723 22.205078 8.0410156 C 22.196688 8.0405194 22.18804 8.041493 22.179688 8.0410156 C 22.005138 8.0310377 21.83095 8.0243312 21.650391 8.0195312 C 21.64669 8.0194322 21.643119 8.0196265 21.640625 8.0195312 C 21.646143 8.0198975 21.712951 8.0293347 21.712891 8.0292969 C 21.712891 8.0292969 21.645448 8.342465 21.623047 8.4472656 L 21.634766 8.0195312 C 21.62475 8.0192621 21.613569 8.0198189 21.603516 8.0195312 C 21.516825 8.0170515 21.428673 8.0132684 21.333984 8.0117188 C 21.327899 8.011622 21.322933 8.0117656 21.318359 8.0117188 C 21.315859 8.0116776 21.313041 8.0117599 21.310547 8.0117188 C 21.299737 8.0115445 21.288153 8.0118907 21.277344 8.0117188 C 21.082411 8.0086188 20.884293 8.0053425 20.679688 8.0039062 L 20.677734 8.0039062 L 20.673828 8.0039062 L 20.669922 8.0039062 C 20.457701 8.0024462 20.234438 7.9987394 20.003906 7.9960938 L 20 7.9960938 L 19.974609 7.9960938 L 17.974609 7.9960938 L 16.388672 7.9960938 L 14.386719 6.0039062 L 12.009766 6.0039062 L 11.994141 6.0039062 L 11.990234 6.0039062 z M 22.158203 8.2304688 C 22.166896 8.3763699 22.175781 8.5410156 22.175781 8.5410156 C 22.168711 8.540596 22.161378 8.5394685 22.154297 8.5390625 L 22.158203 8.2304688 z "
     transform="scale(0.26458333)" />
  <path
     d="M 3.1760326,2.1166864 C 2.6767638,2.1225064 2.3120274,2.1047924 2.0133128,2.2696487 1.8639449,2.3520607 1.7458421,2.4914261 1.6805165,2.6654903 1.6151745,2.8395491 1.5926495,3.046353 1.5916335,3.3073115 l -0.0031,0.9260417 h 0.00258 c -0.00157,0.042773 -0.00258,0.086768 -0.00258,0.1328083 v 1.3229167 c 0,0.2609585 0.023547,0.467251 0.088883,0.6413041 0.065326,0.174059 0.1834232,0.313429 0.3327963,0.395842 0.2136246,0.117874 0.4620674,0.142266 0.7684284,0.148828 l 2.5161256,0.0041 c 0.4992688,-0.0058 0.8644954,0.01186 1.1632362,-0.152962 0.1493602,-0.08239 0.2674567,-0.221791 0.3327966,-0.395842 C 6.8561351,6.1563358 6.880743,5.9500298 6.879682,5.689074 L 6.874512,4.2333491 h 0.00103 v -0.396875 c 0,-0.2609506 -0.02355,-0.4677783 -0.088883,-0.6418212 C 6.7213358,3.0206004 6.6032408,2.881233 6.4538703,2.7988153 6.30375,2.7159645 6.136773,2.6796964 5.9443408,2.6629062 c -0.046843,-0.00409 -0.095237,-0.0072 -0.1452108,-0.0093 -8.467e-4,-3.57e-5 -0.00175,3.49e-5 -0.00259,0 -0.024675,-0.00106 -0.049965,-0.00188 -0.075448,-0.00259 -8.466e-4,-2.24e-5 -0.00172,2.23e-5 -0.00259,0 -0.025368,-6.879e-4 -0.051316,-0.00111 -0.077515,-0.00156 -0.00101,-1.58e-5 -0.00209,1.57e-5 -0.0031,0 -0.053566,-8.731e-4 -0.1091811,-0.00167 -0.166398,-0.00206 -0.00101,-6.6e-6 -0.00209,6.9e-6 -0.0031,0 C 5.410868,2.6469995 5.3515635,2.6465497 5.2901053,2.6458363 H 5.2875053 4.7562717 4.227105 L 3.6979384,2.1166667 H 3.1781001 Z"
     style="color:#000000;text-indent:0;text-decoration-line:none;text-decoration-style:solid;text-decoration-color:#000000;text-transform:none;white-space:normal;shape-padding:0;opacity:0.1;isolation:auto;mix-blend-mode:normal;solid-color:#000000;fill:#000000;stroke-width:0.0700042;color-rendering:auto;image-rendering:auto;shape-rendering:auto"
     id="path2693" />
  <path
     d="M 3.1749397,1.8522208 C 2.6756707,1.8580417 2.3110219,1.8403146 2.0123073,2.0051712 1.8629395,2.0875836 1.7448665,2.2269238 1.6795409,2.4009877 1.6141994,2.5750467 1.591686,2.7818027 1.59067,3.0427611 L 1.5875,3.9687499 H 6.8746637 V 3.5719014 c 0,-0.2609506 -0.02355,-0.4677304 -0.08888,-0.6417733 C 6.7204537,2.7560718 6.6023887,2.6167291 6.4530187,2.5343114 6.1543567,2.3694812 5.7887027,2.3871395 5.2894337,2.381361 h -0.534299 -0.529141 l -0.52914,-0.5291402 h -0.519827 z"
     style="color:#000000;text-indent:0;text-decoration-line:none;text-decoration-style:solid;text-decoration-color:#000000;text-transform:none;white-space:normal;shape-padding:0;isolation:auto;mix-blend-mode:normal;solid-color:#000000;fill:#e3dfd5;stroke-width:0.264583;color-rendering:auto;image-rendering:auto;shape-rendering:auto"
     id="path997"
     sodipodi:nodetypes="ccccccscccccccc" />
  <path
     d="m 5.2866529,2.38125 c 0.4992688,0.00582 0.8646054,-0.011589 1.1633465,0.1532679 0.1493652,0.082412 0.2675467,0.2215991 0.3328723,0.3956579 0.065344,0.1740561 0.087921,0.3806031 0.088937,0.6415616 l 0.0072,1.852295 c 0.00106,0.2609559 -0.023601,0.4673071 -0.088937,0.64135 C 6.7247321,6.2394333 6.606556,6.3790195 6.4571961,6.4614108 6.158455,6.6262382 5.7931183,6.6085191 5.2938496,6.6142923 h 5.29e-5 L 2.7779531,6.610059 C 2.471592,6.6034973 2.2229366,6.579317 2.009312,6.4614425 1.8599389,6.3790301 1.7417654,6.2394465 1.6764397,6.0653877 1.6111035,5.8913342 1.5875,5.6849963 1.5875,5.4240377 V 4.1011475 C 1.5875,3.8401969 1.611101,3.6336552 1.67644,3.4596123 1.7417786,3.2855535 1.8599468,3.1461605 2.009312,3.0637692 2.3080531,2.8989417 2.6733633,2.9164704 3.1726585,2.9106945 L 3.7065348,2.9104299 4.235675,2.3812897 h 1.0498402 0.00159 z"
     style="color:#000000;text-indent:0;text-decoration-line:none;text-decoration-style:solid;text-decoration-color:#000000;text-transform:none;white-space:normal;shape-padding:0;isolation:auto;mix-blend-mode:normal;solid-color:#000000;fill:#faf8f6;stroke-width:0.264583;color-rendering:auto;image-rendering:auto;shape-rendering:auto"
     id="path882" />
  <path
     id="path2081"
     style="color:#000000;text-indent:0;text-decoration-line:none;text-decoration-style:solid;text-decoration-color:#000000;text-transform:none;white-space:normal;shape-padding:0;opacity:0.4;isolation:auto;mix-blend-mode:normal;solid-color:#000000;fill:#ffffff;stroke-width:0.264583;color-rendering:auto;image-rendering:auto;shape-rendering:auto"
     d="M 12 7 C 10.113 7.0219969 8.7344688 6.9550457 7.6054688 7.578125 C 7.040929 7.8896034 6.5945562 8.4163391 6.3476562 9.0742188 C 6.1006944 9.7320792 6.0155587 10.5137 6.0117188 11.5 L 6 15 L 6.0039062 15 L 6.0117188 12.5 C 6.0155587 11.5137 6.1006944 10.732079 6.3476562 10.074219 C 6.5945562 9.4163391 7.040929 8.8896034 7.6054688 8.578125 C 8.7344688 7.9550457 10.113 8.0219969 12 8 L 12.007812 8 L 13.972656 8 L 15.972656 10 L 17.972656 10 L 19.992188 10 C 21.879187 10.02184 23.259872 9.9551451 24.388672 10.578125 C 24.953222 10.889625 25.399565 11.416369 25.646484 12.074219 C 25.893405 12.732019 25.982422 13.51373 25.982422 14.5 L 25.982422 13.5 C 25.982422 12.51373 25.893405 11.732019 25.646484 11.074219 C 25.399565 10.416369 24.953222 9.889625 24.388672 9.578125 C 23.259872 8.9551451 21.879187 9.02184 19.992188 9 L 17.972656 9 L 15.972656 9 L 13.972656 7 L 12.007812 7 L 12 7 z "
     transform="scale(0.26458333)" />
</svg>
