<?xml version="1.0" encoding="UTF-8" standalone="no"?>
<!-- Created with Inkscape (http://www.inkscape.org/) -->

<svg
   width="32"
   height="32"
   viewBox="0 0 8.4666665 8.4666669"
   version="1.1"
   id="svg2719"
   inkscape:version="1.1.2 (0a00cf5339, 2022-02-04)"
   sodipodi:docname="transmission.svg"
   xmlns:inkscape="http://www.inkscape.org/namespaces/inkscape"
   xmlns:sodipodi="http://sodipodi.sourceforge.net/DTD/sodipodi-0.dtd"
   xmlns:xlink="http://www.w3.org/1999/xlink"
   xmlns="http://www.w3.org/2000/svg"
   xmlns:svg="http://www.w3.org/2000/svg">
  <sodipodi:namedview
     id="namedview2721"
     pagecolor="#ffffff"
     bordercolor="#666666"
     borderopacity="1.0"
     inkscape:pageshadow="2"
     inkscape:pageopacity="0.0"
     inkscape:pagecheckerboard="0"
     inkscape:document-units="px"
     showgrid="false"
     units="px"
     inkscape:zoom="18.075417"
     inkscape:cx="8.0219449"
     inkscape:cy="19.861229"
     inkscape:window-width="1920"
     inkscape:window-height="1012"
     inkscape:window-x="0"
     inkscape:window-y="0"
     inkscape:window-maximized="1"
     inkscape:current-layer="svg2719" />
  <defs
     id="defs2716">
    <linearGradient
       inkscape:collect="always"
       id="linearGradient1657">
      <stop
         style="stop-color:#fdfdfd;stop-opacity:1;"
         offset="0"
         id="stop1653" />
      <stop
         style="stop-color:#f1f0e9;stop-opacity:1"
         offset="1"
         id="stop1655" />
    </linearGradient>
    <linearGradient
       inkscape:collect="always"
       id="linearGradient1596">
      <stop
         style="stop-color:#8c8c8c;stop-opacity:1"
         offset="0"
         id="stop1592" />
      <stop
         style="stop-color:#b8b8b8;stop-opacity:1"
         offset="1"
         id="stop1594" />
    </linearGradient>
    <linearGradient
       inkscape:collect="always"
       id="linearGradient1871">
      <stop
         style="stop-color:#ffffff;stop-opacity:1;"
         offset="0"
         id="stop1867" />
      <stop
         style="stop-color:#ffffff;stop-opacity:0.1"
         offset="0.12"
         id="stop2515" />
      <stop
         style="stop-color:#ffffff;stop-opacity:0.102"
         offset="0.89999998"
         id="stop2581" />
      <stop
         style="stop-color:#ffffff;stop-opacity:0.502"
         offset="1"
         id="stop1869" />
    </linearGradient>
    <linearGradient
       inkscape:collect="always"
       xlink:href="#linearGradient1871"
       id="linearGradient16320"
       x1="10"
       y1="4"
       x2="10"
       y2="29.100245"
       gradientUnits="userSpaceOnUse"
       gradientTransform="matrix(0.26458333,0,0,0.26458333,0,-0.26458332)" />
    <linearGradient
       inkscape:collect="always"
       xlink:href="#linearGradient1596"
       id="linearGradient1598"
       x1="4.2333331"
       y1="0.5291667"
       x2="4.2333331"
       y2="7.8052082"
       gradientUnits="userSpaceOnUse" />
    <linearGradient
       inkscape:collect="always"
       xlink:href="#linearGradient1657"
       id="linearGradient1659"
       x1="4.2116375"
       y1="6.6145835"
       x2="4.2116375"
       y2="1.3229167"
       gradientUnits="userSpaceOnUse" />
  </defs>
  <path
     id="rect18683"
     style="opacity:0.1;fill:#000000;stroke-width:0.264583;stroke-linejoin:round"
     d="m 2.38125,0.92604165 c -1.45520832,0 -1.984375,0.52916665 -1.984375,1.98437495 v 3.0427085 c 0,1.5875 0.52916665,2.1166666 2.1166666,2.1166666 h 3.4395833 c 1.5875,0 2.1166667,-0.5291666 2.1166667,-2.1166666 V 3.0427083 c 0,-1.5875 -0.5291667,-2.11666665 -2.1166667,-2.11666665 z"
     sodipodi:nodetypes="sssssssss" />
  <path
     id="rect6397"
     style="fill:url(#linearGradient1598);fill-opacity:1;stroke-width:0.255274;stroke-linejoin:round"
     d="M 0.39687499,2.6458334 C 0.396875,1.190625 0.92604165,0.66145833 2.38125,0.66145834 h 3.571875 c 1.5874999,-1e-8 2.1166666,0.52916666 2.1166668,2.11666666 l 10e-8,2.9104168 c 0,1.5874999 -0.529166,2.1166666 -2.116666,2.1166666 H 2.5135417 c -1.58750001,0 -2.11666671,-0.5291667 -2.11666671,-2.1166667 z"
     sodipodi:nodetypes="ccccccccc" />
  <path
     id="rect960"
     style="opacity:0.05;fill:#000000;fill-opacity:1;stroke-width:0.999999;stroke-linejoin:round"
     d="m 16,2.5 v 27 h 6.5 c 6,0 8,-2 8,-8 v -11 c 0,-6 -2,-8 -8,-8 z"
     transform="scale(0.26458333)"
     sodipodi:nodetypes="ccssssc" />
  <path
     d="M 1.8520833,2.38125 C 1.7055041,2.38125 1.5875,2.4975422 1.5875,2.642002 v 3.9764231 c 0,0.1444625 0.1180041,0.2607495 0.2645833,0.2607495 h 4.7625001 c 0.1465791,0 0.2645833,-0.116287 0.2645833,-0.2607495 V 2.642002 c 0,-0.1444598 -0.1180042,-0.260752 -0.2645833,-0.260752 z m 3.175,0.2645833 V 4.7625 h 0.79375 L 4.2333331,6.5532265 2.6458333,4.7625 H 3.4395831 V 2.6458333 Z"
     style="fill:#000000;fill-opacity:1;stroke-width:0.0347475;enable-background:new;opacity:0.1"
     id="path1522" />
  <path
     d="M 1.8520834,2.1166667 C 1.7055042,2.1166667 1.5875,2.232959 1.5875,2.3774188 v 3.9764229 c 0,0.1444625 0.1180042,0.2607495 0.2645834,0.2607495 h 4.7625 c 0.1465792,0 0.2645834,-0.116287 0.2645834,-0.2607495 V 2.3774188 c 0,-0.1444598 -0.1180042,-0.2607521 -0.2645834,-0.2607521 z m 3.175,0.2645833 v 2.1166666 h 0.79375 L 4.2333332,6.2886431 2.6458333,4.4979166 H 3.4395832 V 2.38125 Z"
     style="fill:url(#linearGradient1659);fill-opacity:1;stroke-width:0.131329;enable-background:new"
     id="path2406"
     sodipodi:nodetypes="ssssssssscccccccc" />
  <path
     d="M 1.8520834,2.1166747 C 1.7055042,2.1166747 1.5875,2.232967 1.5875,2.3774215 V 4.4979246 L 3.4395833,4.465328 V 2.3486613 h 1.5875 V 4.465328 L 6.8791666,4.497925 V 2.3774215 c 0,-0.1444545 -0.1180041,-0.2607468 -0.2645833,-0.2607468 z"
     style="opacity:0.06;stroke-width:0.131329;enable-background:new;fill:#000000"
     id="path1134" />
  <path
     id="circle35"
     d="M 2.1166666,5.8208414 A 0.26458333,0.26458333 0 0 0 1.8520833,6.0854247 0.26458333,0.26458333 0 0 0 2.1166666,6.350008 0.26458333,0.26458333 0 0 0 2.38125,6.0854247 0.26458333,0.26458333 0 0 0 2.1166666,5.8208414 Z m 4.2333333,0 A 0.26458333,0.26458333 0 0 0 6.0854166,6.0854247 0.26458333,0.26458333 0 0 0 6.3499999,6.350008 0.26458333,0.26458333 0 0 0 6.6145832,6.0854247 0.26458333,0.26458333 0 0 0 6.3499999,5.8208414 Z"
     style="fill:#c8c4b7;fill-opacity:1;stroke-width:0.264583" />
  <path
     d="m 4.2116459,1.587508 c -0.4359804,0 -0.7865268,0.1180042 -0.7865268,0.2645833 H 2.8923276 c -0.6968067,0 -1.2279312,0.085667 -1.2919075,0.1984375 h -0.01292 c -0.1465792,0 -0.2645834,0.2507589 -0.2645834,0.5622396 0,0.3114807 0.1180042,0.5622395 0.2645834,0.5622395 v 0.043926 c 0,0.1221476 0.5620015,0.2206572 1.3048192,0.2206572 h 0.5327918 c 0,0.1465792 0.35052,0.2645834 0.7865269,0.2645834 H 4.24006 c 0.4359804,0 0.7870296,-0.1180042 0.7870296,-0.2645834 h 0.5472642 c 0.7428441,0 1.3048191,-0.096798 1.3048191,-0.2206572 v -0.043926 c 0.1465792,0 0.2645833,-0.2507588 0.2645833,-0.5622395 0,-0.3114807 -0.1180041,-0.5622396 -0.2645833,-0.5622396 H 6.8662607 C 6.8022845,1.9389858 6.2711599,1.8520913 5.5743533,1.8520913 H 5.0270891 c 0,-0.1465791 -0.3510492,-0.2645833 -0.7870296,-0.2645833 z"
     style="opacity:0.25;fill:#000000;stroke-width:0.123748;enable-background:new"
     id="path1403" />
  <path
     d="m 1.5875001,1.7859057 h 5.2916666 c 0.1465791,0 0.2645833,0.2507694 0.2645833,0.5622632 0,0.3114937 -0.1180042,0.5622631 -0.2645833,0.5622631 H 1.5875001 c -0.1465792,0 -0.2645834,-0.2507694 -0.2645834,-0.5622631 0,-0.3114938 0.1180042,-0.5622632 0.2645834,-0.5622632 z"
     style="fill:#fdfdfd;stroke-width:0.12375;enable-background:new"
     id="path2050" />
  <path
     d="m 2.8924912,1.587508 h 2.6817174 c 0.7428508,0 1.3049581,0.098341 1.3049581,0.2204948 v 1.1465789 c 0,0.1238636 -0.5621073,0.2204948 -1.3049581,0.2204948 H 2.8924912 C 2.1496404,3.1750765 1.5875,3.0767355 1.5875,2.9545817 V 1.8080028 c 0,-0.1238637 0.5621735,-0.2204948 1.3049912,-0.2204948 z"
     style="fill:#ff2a2a;stroke-width:0.121585;enable-background:new"
     id="path2272" />
  <path
     d="m 4.2116375,1.3229167 h 0.028377 c 0.4359815,0 0.7869701,0.1180101 0.7869701,0.2645967 v 1.5875739 c 0,0.1465866 -0.3509886,0.2645968 -0.7869701,0.2645968 h -0.028377 c -0.4359814,0 -0.78697,-0.1180102 -0.78697,-0.2645968 V 1.5875134 c 0,-0.1465866 0.3509886,-0.2645967 0.78697,-0.2645967 z"
     style="fill:#fdfdfd;stroke-width:0.12375;enable-background:new"
     id="path1910" />
  <path
     d="m 4.2183557,1.3229167 c -0.4359805,0 -0.7865269,0.1180042 -0.7865269,0.2645834 H 2.8990373 c -0.6968067,0 -1.2279312,0.085667 -1.2919075,0.1984374 h -0.01292 c -0.1465792,0 -0.2645833,0.2507589 -0.2645833,0.5622396 0,0.034351 0.00656,0.064016 0.00931,0.096634 C 1.3728425,2.2174811 1.469011,2.050529 1.5874993,2.050529 h 0.012912 C 1.6643883,1.9377581 2.1955155,1.8520913 2.8923222,1.8520913 h 0.5327915 c 0,-0.1465791 0.35052,-0.2645833 0.7865268,-0.2645833 h 0.028419 c 0.4359804,0 0.7870296,0.1180042 0.7870296,0.2645833 h 0.5472642 c 0.6968066,0 1.2279312,0.086894 1.2919074,0.1984375 h 0.012912 c 0.1304131,0 0.2330926,0.2024459 0.2552806,0.4656138 0.00804,-0.053898 0.016007,-0.1082543 0.016007,-0.1679496 0,-0.3114675 -0.1180042,-0.5622396 -0.2645833,-0.5622396 H 6.8729652 C 6.8090101,1.6744104 6.2778644,1.5875159 5.5810577,1.5875159 H 5.0337935 c 0,-0.1465791 -0.3510491,-0.2645833 -0.7870295,-0.2645833 z"
     style="opacity:0.6;fill:#fdfdfd;stroke-width:0.123748;enable-background:new"
     id="path1640" />
  <path
     id="rect13250"
     style="fill:url(#linearGradient16320);fill-opacity:1;stroke-width:0.264583;stroke-linejoin:round;opacity:1"
     d="m 2.6458333,0.79375 c -1.71979143,0 -2.11666664,0.396875 -2.11666664,2.1166666 v 2.6458335 c 0,1.7197919 0.39687515,2.1166666 2.11666664,2.1166666 h 3.175 c 1.7197913,0 2.1166666,-0.3968747 2.1166666,-2.1166666 V 2.9104166 C 7.9374999,1.190625 7.5406249,0.79375 5.8208333,0.79375 Z m 0,0.2645833 h 3.175 c 1.5213541,0 1.8520833,0.3307294 1.8520833,1.8520833 v 2.6458335 c 0,1.5213542 -0.3307292,1.8520833 -1.8520833,1.8520833 h -3.175 c -1.5213541,0 -1.85208331,-0.3307291 -1.85208331,-1.8520833 V 2.9104166 c 0,-1.521354 0.33072921,-1.8520834 1.85208331,-1.8520833 z"
     sodipodi:nodetypes="ssssssssssssssssss" />
  <path
     id="rect2545"
     style="opacity:0.4;fill:#000000;stroke-width:0.387914;stroke-linejoin:round"
     d="m 2.6458333,0.52916667 c -1.91822909,0 -2.38124997,0.4630208 -2.38124997,2.38124993 V 5.55625 c 0,1.8520831 0.52916735,2.38125 2.38124997,2.38125 h 3.175 c 1.8520841,0 2.3812499,-0.5291669 2.3812499,-2.38125 V 2.9104166 c 0,-1.8520832 -0.5291666,-2.38124988 -2.3812499,-2.38124993 z m 0,0.26458333 h 3.175 c 1.7197916,0 2.1166666,0.396875 2.1166666,2.1166666 V 5.55625 c 0,1.7197917 -0.3968753,2.1166666 -2.1166666,2.1166666 h -3.175 c -1.71979162,0 -2.11666664,-0.3968749 -2.11666664,-2.1166666 V 2.9104166 c 0,-1.7197916 0.39687505,-2.1166666 2.11666664,-2.1166666 z"
     sodipodi:nodetypes="ssssssssssssssssss" />
</svg>
