<?xml version="1.0" encoding="UTF-8" standalone="no"?>
<!-- Created with Inkscape (http://www.inkscape.org/) -->

<svg
   width="32"
   height="32"
   viewBox="0 0 8.4666665 8.4666669"
   version="1.1"
   id="svg2719"
   inkscape:version="1.1.2 (0a00cf5339, 2022-02-04)"
   sodipodi:docname="amazon-store.svg"
   xmlns:inkscape="http://www.inkscape.org/namespaces/inkscape"
   xmlns:sodipodi="http://sodipodi.sourceforge.net/DTD/sodipodi-0.dtd"
   xmlns:xlink="http://www.w3.org/1999/xlink"
   xmlns="http://www.w3.org/2000/svg"
   xmlns:svg="http://www.w3.org/2000/svg">
  <sodipodi:namedview
     id="namedview2721"
     pagecolor="#ffffff"
     bordercolor="#666666"
     borderopacity="1.0"
     inkscape:pageshadow="2"
     inkscape:pageopacity="0.0"
     inkscape:pagecheckerboard="0"
     inkscape:document-units="px"
     showgrid="false"
     units="px"
     inkscape:zoom="12.375"
     inkscape:cx="7.4747475"
     inkscape:cy="13.737374"
     inkscape:window-width="1920"
     inkscape:window-height="1010"
     inkscape:window-x="0"
     inkscape:window-y="0"
     inkscape:window-maximized="1"
     inkscape:current-layer="svg2719" />
  <defs
     id="defs2716">
    <linearGradient
       inkscape:collect="always"
       id="linearGradient1871">
      <stop
         style="stop-color:#ffffff;stop-opacity:1;"
         offset="0"
         id="stop1867" />
      <stop
         style="stop-color:#ffffff;stop-opacity:0.1"
         offset="0.12"
         id="stop2515" />
      <stop
         style="stop-color:#ffffff;stop-opacity:0.102"
         offset="0.89999998"
         id="stop2581" />
      <stop
         style="stop-color:#ffffff;stop-opacity:0.502"
         offset="1"
         id="stop1869" />
    </linearGradient>
    <linearGradient
       inkscape:collect="always"
       xlink:href="#linearGradient1871"
       id="linearGradient16320"
       x1="10"
       y1="4"
       x2="10"
       y2="29.100245"
       gradientUnits="userSpaceOnUse"
       gradientTransform="matrix(0.26458333,0,0,0.26458333,0,-0.26458332)" />
  </defs>
  <path
     id="rect18683"
     style="opacity:0.1;fill:#000000;stroke-width:0.264583;stroke-linejoin:round"
     d="m 2.38125,0.92604165 c -1.45520832,0 -1.984375,0.52916665 -1.984375,1.98437495 v 3.0427085 c 0,1.5875 0.52916665,2.1166666 2.1166666,2.1166666 h 3.4395833 c 1.5875,0 2.1166667,-0.5291666 2.1166667,-2.1166666 V 3.0427083 c 0,-1.5875 -0.5291667,-2.11666665 -2.1166667,-2.11666665 z"
     sodipodi:nodetypes="sssssssss" />
  <path
     id="rect6397"
     style="fill:#ffffff;fill-opacity:1;stroke-width:0.255274;stroke-linejoin:round"
     d="M 0.39687499,2.6458334 C 0.396875,1.190625 0.92604165,0.66145833 2.38125,0.66145834 h 3.571875 c 1.5874999,-1e-8 2.1166666,0.52916666 2.1166668,2.11666666 l 10e-8,2.9104168 c 0,1.5874999 -0.529166,2.1166666 -2.116666,2.1166666 H 2.5135417 c -1.58750001,0 -2.11666671,-0.5291667 -2.11666671,-2.1166667 z"
     sodipodi:nodetypes="ccccccccc" />
  <path
     d="m 5.6206809,3.6062308 c 0,0.1981147 0.00712,0.3950229 -0.00238,0.5931429 -0.0095,0.2253959 0.05932,0.4187561 0.2016654,0.5895711 0.016616,0.020161 0.032036,0.040333 0.04626,0.06169 0.051022,0.077113 0.041524,0.1304872 -0.028464,0.1898068 -0.1494843,0.1257512 -0.2977621,0.2526771 -0.4472252,0.3784335 -0.088971,0.074732 -0.1447271,0.073552 -0.2348812,0 C 5.0346527,5.3204133 4.9397466,5.1994141 4.8555377,5.0701016 4.8353764,5.0392644 4.8246926,5.0404471 4.799782,5.0641749 4.6502977,5.2100874 4.4925214,5.3453212 4.2920466,5.4129487 3.9824312,5.5185254 3.6680533,5.5351386 3.3572473,5.424802 3.0582946,5.3180347 2.8791716,5.0973801 2.8127348,4.790146 2.7391859,4.4472989 2.7771457,4.1210677 2.988299,3.8304229 3.1484513,3.6109616 3.370278,3.4816491 3.6253363,3.4021683 3.888692,3.3215021 4.1603503,3.2906544 4.4331886,3.2633732 c 0.077113,-0.00831 0.153035,-0.015425 0.2301399,-0.022542 0.018971,-0.00132 0.035589,-0.00357 0.034399,-0.028472 C 4.6953457,3.0866156 4.7084161,2.9584885 4.6787563,2.8351159 4.6407939,2.6773449 4.53758,2.5848095 4.3798036,2.5503978 4.2671123,2.5255005 4.1555984,2.5325913 4.0464551,2.5693949 3.8803761,2.6263306 3.7771622,2.7414058 3.735649,2.9122155 3.7131065,3.0059336 3.6692122,3.0391494 3.5778674,3.0296535 3.3833167,3.0094922 3.1887712,2.9893204 2.9954137,2.9691539 2.9159276,2.9608459 2.8744144,2.9003463 2.891017,2.8232335 2.9918497,2.3309233 3.3145356,2.0545131 3.7795408,1.9275925 4.1366224,1.8303215 4.4984401,1.8243864 4.856686,1.9252125 c 0.2882635,0.080666 0.5302779,0.2230226 0.6655064,0.5053542 0.077113,0.1601523 0.094909,0.3333485 0.097279,0.5065448 0.00238,0.2218531 0,0.446061 0.00132,0.6690783 -0.00132,0 0,0 0,0 z m -0.922946,0.3701257 c 0,-0.059317 -0.00238,-0.118626 0.00132,-0.1779456 0.00238,-0.03678 -0.010689,-0.049832 -0.04745,-0.046268 -0.090165,0.00831 -0.1814988,0.0095 -0.2716741,0.021352 C 4.2221622,3.7936564 4.0679366,3.8328147 3.9398254,3.9324568 3.7535719,4.0783771 3.7144295,4.2776851 3.7452667,4.5018666 3.7820464,4.7652143 4.0169408,4.9111241 4.2684273,4.8233618 4.4392476,4.7640448 4.5436468,4.6383095 4.6160104,4.4805147 4.6919326,4.3203836 4.6978672,4.1483832 4.6978672,3.9763512 Z"
     style="fill:#050606;stroke-width:0.069379;enable-background:new"
     id="path895" />
  <path
     id="path24"
     d="m 6.7522242,5.3531613 c -0.033938,-1.77e-5 -0.067696,0.00103 -0.1018024,0.0031 -0.1980936,0.010679 -0.3870643,0.054895 -0.5555218,0.1663981 -0.022545,0.015422 -0.049375,0.03411 -0.03514,0.066146 0.011859,0.028469 0.041065,0.021503 0.067179,0.019121 0.135255,-0.014221 0.2707886,-0.032329 0.4072102,-0.031006 v 5.292e-4 c 0.078296,0 0.1577088,-0.00381 0.237195,0.017571 0.075909,0.018976 0.102861,0.052076 0.1018024,0.1291912 -0.00119,0.022548 -0.00196,0.046547 -0.00672,0.07028 -0.03439,0.1862402 -0.1057018,0.3594333 -0.1757,0.5338175 -0.0095,0.021347 -0.021352,0.047306 0,0.065112 0.02255,0.018965 0.048411,0.00457 0.069763,-0.010853 0.00948,-0.00712 0.019082,-0.013912 0.027389,-0.02222 C 7.0263235,6.1266434 7.1368143,5.8395327 7.1439316,5.509756 7.1451222,5.4480658 7.1155479,5.412324 7.055048,5.3945175 6.955393,5.3642598 6.8540382,5.3532296 6.7522242,5.3531764 Z M 1.3778753,5.461165 c -0.017571,-0.00273 -0.035457,0.00339 -0.047025,0.021188 -0.015425,0.021357 -0.00581,0.042655 0.00723,0.060462 0.00949,0.013054 0.02122,0.023418 0.033073,0.034106 C 1.506386,5.69674 1.6490479,5.8059303 1.7985216,5.9055827 2.5328197,6.3955172 3.3454286,6.628294 4.2505682,6.6342206 4.5459754,6.6318406 4.8639393,6.5974166 5.1771265,6.5262169 5.6516567,6.4206482 6.1000874,6.2498522 6.5093449,5.9841312 c 0.027284,-0.017793 0.054298,-0.034616 0.078031,-0.054777 0.033226,-0.028474 0.058245,-0.06396 0.039274,-0.1090372 -0.020167,-0.048649 -0.0655,-0.0543 -0.1105877,-0.045992 -0.032028,0.00713 -0.063723,0.020029 -0.094568,0.033073 C 5.7868125,6.0624455 5.1273082,6.1997714 4.4428046,6.218742 3.9635384,6.2318018 3.4911561,6.1843422 3.0237696,6.0823162 2.5077265,5.9696302 2.0153038,5.7921405 1.5478909,5.545398 1.4968898,5.5192969 1.447123,5.4917472 1.3949287,5.4668499 c -0.00563,-0.00267 -0.011196,-0.00478 -0.017053,-0.00568 z"
     style="fill:#f6a61f;fill-opacity:1;stroke-width:0.264583" />
  <path
     id="rect13250"
     style="fill:url(#linearGradient16320);fill-opacity:1;stroke-width:0.264583;stroke-linejoin:round;opacity:0.3"
     d="m 2.6458333,0.79375 c -1.71979143,0 -2.11666664,0.396875 -2.11666664,2.1166666 v 2.6458335 c 0,1.7197919 0.39687515,2.1166666 2.11666664,2.1166666 h 3.175 c 1.7197913,0 2.1166666,-0.3968747 2.1166666,-2.1166666 V 2.9104166 C 7.9374999,1.190625 7.5406249,0.79375 5.8208333,0.79375 Z m 0,0.2645833 h 3.175 c 1.5213541,0 1.8520833,0.3307294 1.8520833,1.8520833 v 2.6458335 c 0,1.5213542 -0.3307292,1.8520833 -1.8520833,1.8520833 h -3.175 c -1.5213541,0 -1.85208331,-0.3307291 -1.85208331,-1.8520833 V 2.9104166 c 0,-1.521354 0.33072921,-1.8520834 1.85208331,-1.8520833 z"
     sodipodi:nodetypes="ssssssssssssssssss" />
  <path
     id="rect2545"
     style="opacity:0.4;fill:#000000;stroke-width:0.387914;stroke-linejoin:round"
     d="m 2.6458333,0.52916667 c -1.91822909,0 -2.38124997,0.4630208 -2.38124997,2.38124993 V 5.55625 c 0,1.8520831 0.52916735,2.38125 2.38124997,2.38125 h 3.175 c 1.8520841,0 2.3812499,-0.5291669 2.3812499,-2.38125 V 2.9104166 c 0,-1.8520832 -0.5291666,-2.38124988 -2.3812499,-2.38124993 z m 0,0.26458333 h 3.175 c 1.7197916,0 2.1166666,0.396875 2.1166666,2.1166666 V 5.55625 c 0,1.7197917 -0.3968753,2.1166666 -2.1166666,2.1166666 h -3.175 c -1.71979162,0 -2.11666664,-0.3968749 -2.11666664,-2.1166666 V 2.9104166 c 0,-1.7197916 0.39687505,-2.1166666 2.11666664,-2.1166666 z"
     sodipodi:nodetypes="ssssssssssssssssss" />
</svg>
