<?xml version="1.0" encoding="UTF-8" standalone="no"?>
<!-- Created with Inkscape (http://www.inkscape.org/) -->

<svg
   width="32"
   height="32"
   viewBox="0 0 8.4666665 8.4666669"
   version="1.1"
   id="svg2719"
   inkscape:version="1.1.2 (0a00cf5339, 2022-02-04)"
   sodipodi:docname="applications-accessories.svg"
   xmlns:inkscape="http://www.inkscape.org/namespaces/inkscape"
   xmlns:sodipodi="http://sodipodi.sourceforge.net/DTD/sodipodi-0.dtd"
   xmlns:xlink="http://www.w3.org/1999/xlink"
   xmlns="http://www.w3.org/2000/svg"
   xmlns:svg="http://www.w3.org/2000/svg">
  <sodipodi:namedview
     id="namedview2721"
     pagecolor="#ffffff"
     bordercolor="#666666"
     borderopacity="1.0"
     inkscape:pageshadow="2"
     inkscape:pageopacity="0.0"
     inkscape:pagecheckerboard="0"
     inkscape:document-units="px"
     showgrid="false"
     units="px"
     inkscape:zoom="13.269301"
     inkscape:cx="16.014408"
     inkscape:cy="16.541942"
     inkscape:window-width="1851"
     inkscape:window-height="1049"
     inkscape:window-x="0"
     inkscape:window-y="0"
     inkscape:window-maximized="1"
     inkscape:current-layer="svg2719" />
  <defs
     id="defs2716">
    <linearGradient
       inkscape:collect="always"
       id="linearGradient1871">
      <stop
         style="stop-color:#ffffff;stop-opacity:1;"
         offset="0"
         id="stop1867" />
      <stop
         style="stop-color:#ffffff;stop-opacity:0.1"
         offset="0.12"
         id="stop2515" />
      <stop
         style="stop-color:#ffffff;stop-opacity:0.102"
         offset="0.89999998"
         id="stop2581" />
      <stop
         style="stop-color:#ffffff;stop-opacity:0.502"
         offset="1"
         id="stop1869" />
    </linearGradient>
    <linearGradient
       inkscape:collect="always"
       xlink:href="#linearGradient1871"
       id="linearGradient16320"
       x1="10"
       y1="4"
       x2="10"
       y2="29.100245"
       gradientUnits="userSpaceOnUse"
       gradientTransform="matrix(0.26458333,0,0,0.26458333,0,-0.26458332)" />
  </defs>
  <path
     id="rect18683"
     style="opacity:0.1;fill:#000000;stroke-width:0.264583;stroke-linejoin:round"
     d="m 2.38125,0.92604165 c -1.45520832,0 -1.984375,0.52916665 -1.984375,1.98437495 v 3.0427085 c 0,1.5875 0.52916665,2.1166666 2.1166666,2.1166666 h 3.4395833 c 1.5875,0 2.1166667,-0.5291666 2.1166667,-2.1166666 V 3.0427083 c 0,-1.5875 -0.5291667,-2.11666665 -2.1166667,-2.11666665 z"
     sodipodi:nodetypes="sssssssss" />
  <path
     id="rect6397"
     style="fill:#f7f7f7;fill-opacity:1;stroke-width:0.255274;stroke-linejoin:round"
     d="M 0.39687499,2.6458334 C 0.396875,1.190625 0.92604165,0.66145833 2.38125,0.66145834 h 3.571875 c 1.5874999,-1e-8 2.1166666,0.52916666 2.1166668,2.11666666 l 10e-8,2.9104168 c 0,1.5874999 -0.529166,2.1166666 -2.116666,2.1166666 H 2.5135417 c -1.58750001,0 -2.11666671,-0.5291667 -2.11666671,-2.1166667 z"
     sodipodi:nodetypes="ccccccccc" />
  <path
     d="m 0.8466666,2.1166667 v 4.8518202 c 0,0.489168 0.489168,0.489168 0.489168,0.489168 H 7.14375 Z m 1.2229332,2.394367 2.0314418,1.7066747 H 2.0695998 Z"
     style="opacity:0.1;fill:#000000;stroke-width:0.0700042"
     id="path1594" />
  <path
     d="m 0.84666667,1.8520833 v 4.8518201 c 0,0.4891682 0.48916803,0.4891682 0.48916803,0.4891682 H 7.14375 Z M 2.0695999,4.2464503 4.1010417,5.953125 H 2.0695999 Z"
     style="fill:#6ebc2a;stroke-width:0.264583"
     id="path4212"
     sodipodi:nodetypes="csccccccc" />
  <path
     d="M 3.6982773,1.8520833 V 2.4815022 H 3.3835679 c -0.3145896,0 -0.3147095,0.3023071 -0.3147095,0.3023071 V 4.0354126 L 3.2357732,4.199227 2.0782211,6.2042725 2.0373967,6.882784 2.6048041,6.5081298 2.9086614,5.9815471 c 0.3404659,0.1765617 0.7189476,0.2700702 1.1053591,0.2707843 0.4008493,0 0.7784274,-0.097748 1.1110431,-0.2707843 L 5.4294379,6.5086465 5.996845,6.8833008 5.9560206,6.2042725 5.6268419,5.6337647 C 6.117163,5.1923138 6.4257595,4.5523025 6.4257595,3.8405925 c -0.00106,-0.034973 -0.00259,-0.069999 -0.00517,-0.1049031 h -0.627352 c 0.00238,0.034904 0.00346,0.06993 0.00362,0.1049031 0,0.4776631 -0.1880868,0.9118713 -0.4940269,1.2319661 L 4.7953679,4.1935424 4.9565983,4.0354126 V 2.7838093 c 0,-0.3090595 -0.3147097,-0.3023071 -0.3147097,-0.3023071 H 4.3271789 V 1.8520833 Z m 0.649056,2.7817424 0.4630208,0.8020182 C 4.5705665,5.5558558 4.3003597,5.6234293 4.0140205,5.6234293 c -0.2777866,0 -0.5471687,-0.066698 -0.7901326,-0.1875854 l 0.4599201,-0.7968506 0.01447,0.01447 c 0.208992,0.1659041 0.4350419,0.1930477 0.6289022,0 z"
     style="isolation:isolate;fill:#000000;stroke-width:0.264583;opacity:0.1"
     id="path1040" />
  <path
     d="M 3.7503656,3.0427084 2.0781161,5.9396893 2.0372917,6.6182008 2.6046989,6.2435468 2.9085564,5.7169638 c 0.3404658,0.1765618 0.7189475,0.2700705 1.1053588,0.2707847 1.331939,0 2.4117393,-1.0797739 2.4117393,-2.4117393 -0.00106,-0.034973 -0.00259,-0.069999 -0.00517,-0.1049031 h -0.627349 c 0.00238,0.034904 0.00346,0.06993 0.00362,0.1049031 0,0.9845146 -0.7983752,1.7828371 -1.7828369,1.7828371 -0.2777865,0 -0.5471686,-0.066698 -0.7901326,-0.1875856 L 4.2769486,3.346566 Z"
     style="isolation:isolate;fill:#ffffff;stroke-width:0.264583"
     id="path947" />
  <path
     d="M 4.2837364,3.0427083 3.7570833,3.3467676 5.4295675,6.2436904 5.9969664,6.6183404 5.9562179,5.9396048 Z"
     style="isolation:isolate;fill:#e4e4e4;stroke-width:0.301069"
     id="path3545" />
  <path
     d="M 3.6983194,1.5875 V 2.2166262 H 3.3837563 c -0.3145896,0 -0.3145896,0.3023657 -0.3145896,0.3023657 v 1.2516115 l 0.6291262,0.6180931 c 0.2089918,0.1659043 0.435319,0.1930479 0.6291792,0 L 4.9565983,3.7706034 V 2.5189919 c 0,-0.3090596 -0.3145895,-0.3023657 -0.3145895,-0.3023657 H 4.3274456 V 1.5875 Z"
     style="isolation:isolate;fill:#4f4f4f;stroke-width:0.301069"
     id="path3788" />
  <path
     d="m 4.3391667,3.413125 c 0,0.1753507 -0.1421495,0.3175 -0.3175,0.3175 -0.1753505,0 -0.3175,-0.1421493 -0.3175,-0.3175 0,-0.1753505 0.1421495,-0.3175 0.3175,-0.3175 0.1753505,0 0.3175,0.1421495 0.3175,0.3175 z"
     style="isolation:isolate;vector-effect:non-scaling-stroke;fill:#000000;stroke-width:0.0803947;opacity:0.1"
     id="path1281" />
  <path
     d="m 4.3391667,3.1485417 c 0,0.1753506 -0.1421494,0.3175001 -0.3175,0.3175001 -0.1753506,0 -0.3175,-0.1421495 -0.3175,-0.3175001 0,-0.1753506 0.1421494,-0.3175 0.3175,-0.3175 0.1753506,0 0.3175,0.1421494 0.3175,0.3175 z"
     style="isolation:isolate;vector-effect:non-scaling-stroke;fill:#ffffff;stroke-width:0.303854"
     id="path4073"
     sodipodi:nodetypes="sssss" />
  <path
     id="rect13250"
     style="opacity:1;fill:url(#linearGradient16320);fill-opacity:1;stroke-width:0.264583;stroke-linejoin:round"
     d="m 2.6458333,0.79375 c -1.71979143,0 -2.11666664,0.396875 -2.11666664,2.1166666 v 2.6458335 c 0,1.7197919 0.39687515,2.1166666 2.11666664,2.1166666 h 3.175 c 1.7197913,0 2.1166666,-0.3968747 2.1166666,-2.1166666 V 2.9104166 C 7.9374999,1.190625 7.5406249,0.79375 5.8208333,0.79375 Z m 0,0.2645833 h 3.175 c 1.5213541,0 1.8520833,0.3307294 1.8520833,1.8520833 v 2.6458335 c 0,1.5213542 -0.3307292,1.8520833 -1.8520833,1.8520833 h -3.175 c -1.5213541,0 -1.85208331,-0.3307291 -1.85208331,-1.8520833 V 2.9104166 c 0,-1.521354 0.33072921,-1.8520834 1.85208331,-1.8520833 z"
     sodipodi:nodetypes="ssssssssssssssssss" />
  <path
     id="rect2545"
     style="opacity:0.4;fill:#000000;stroke-width:0.387914;stroke-linejoin:round"
     d="m 2.6458333,0.52916667 c -1.91822909,0 -2.38124997,0.4630208 -2.38124997,2.38124993 V 5.55625 c 0,1.8520831 0.52916735,2.38125 2.38124997,2.38125 h 3.175 c 1.8520841,0 2.3812499,-0.5291669 2.3812499,-2.38125 V 2.9104166 c 0,-1.8520832 -0.5291666,-2.38124988 -2.3812499,-2.38124993 z m 0,0.26458333 h 3.175 c 1.7197916,0 2.1166666,0.396875 2.1166666,2.1166666 V 5.55625 c 0,1.7197917 -0.3968753,2.1166666 -2.1166666,2.1166666 h -3.175 c -1.71979162,0 -2.11666664,-0.3968749 -2.11666664,-2.1166666 V 2.9104166 c 0,-1.7197916 0.39687505,-2.1166666 2.11666664,-2.1166666 z"
     sodipodi:nodetypes="ssssssssssssssssss" />
</svg>
