<?xml version="1.0" encoding="UTF-8" standalone="no"?>
<!-- Created with Inkscape (http://www.inkscape.org/) -->

<svg
   width="32"
   height="32"
   viewBox="0 0 8.4666665 8.4666669"
   version="1.1"
   id="svg2719"
   inkscape:version="1.1.2 (0a00cf5339, 2022-02-04)"
   sodipodi:docname="deja-dup.svg"
   xmlns:inkscape="http://www.inkscape.org/namespaces/inkscape"
   xmlns:sodipodi="http://sodipodi.sourceforge.net/DTD/sodipodi-0.dtd"
   xmlns:xlink="http://www.w3.org/1999/xlink"
   xmlns="http://www.w3.org/2000/svg"
   xmlns:svg="http://www.w3.org/2000/svg">
  <sodipodi:namedview
     id="namedview2721"
     pagecolor="#ffffff"
     bordercolor="#666666"
     borderopacity="1.0"
     inkscape:pageshadow="2"
     inkscape:pageopacity="0.0"
     inkscape:pagecheckerboard="0"
     inkscape:document-units="px"
     showgrid="false"
     units="px"
     inkscape:zoom="35.001786"
     inkscape:cx="13.756441"
     inkscape:cy="21.727463"
     inkscape:window-width="1851"
     inkscape:window-height="1016"
     inkscape:window-x="0"
     inkscape:window-y="0"
     inkscape:window-maximized="1"
     inkscape:current-layer="svg2719" />
  <defs
     id="defs2716">
    <linearGradient
       inkscape:collect="always"
       id="linearGradient1871">
      <stop
         style="stop-color:#ffffff;stop-opacity:1;"
         offset="0"
         id="stop1867" />
      <stop
         style="stop-color:#ffffff;stop-opacity:0.1"
         offset="0.12"
         id="stop2515" />
      <stop
         style="stop-color:#ffffff;stop-opacity:0.102"
         offset="0.89999998"
         id="stop2581" />
      <stop
         style="stop-color:#ffffff;stop-opacity:0.502"
         offset="1"
         id="stop1869" />
    </linearGradient>
    <linearGradient
       inkscape:collect="always"
       xlink:href="#linearGradient1871"
       id="linearGradient16320"
       x1="10"
       y1="4"
       x2="10"
       y2="29.100245"
       gradientUnits="userSpaceOnUse"
       gradientTransform="matrix(0.26458333,0,0,0.26458333,0,-0.26458332)" />
  </defs>
  <path
     id="rect18683"
     style="opacity:0.1;fill:#000000;stroke-width:0.264583;stroke-linejoin:round"
     d="m 2.38125,0.92604165 c -1.45520832,0 -1.984375,0.52916665 -1.984375,1.98437495 v 3.0427085 c 0,1.5875 0.52916665,2.1166666 2.1166666,2.1166666 h 3.4395833 c 1.5875,0 2.1166667,-0.5291666 2.1166667,-2.1166666 V 3.0427083 c 0,-1.5875 -0.5291667,-2.11666665 -2.1166667,-2.11666665 z"
     sodipodi:nodetypes="sssssssss" />
  <path
     id="rect6397"
     style="fill:#4d4d4d;fill-opacity:1;stroke-width:0.255274;stroke-linejoin:round"
     d="M 0.39687499,2.6458334 C 0.396875,1.190625 0.92604165,0.66145833 2.38125,0.66145834 h 3.571875 c 1.5874999,-1e-8 2.1166666,0.52916666 2.1166668,2.11666666 l 10e-8,2.9104168 c 0,1.5874999 -0.529166,2.1166666 -2.116666,2.1166666 H 2.5135417 c -1.58750001,0 -2.11666671,-0.5291667 -2.11666671,-2.1166667 z"
     sodipodi:nodetypes="ccccccccc" />
  <path
     id="path20"
     style="color:#000000;fill:#cdcdcd;stroke-width:0.264583;stroke-linecap:round;-inkscape-stroke:none"
     d="M 5.5937298,4.365625 A 0.1984375,0.1984375 0 0 0 5.4945108,4.392497 L 4.2191369,5.128886 2.9437627,4.3924969 A 0.1984375,0.1984375 0 0 0 2.7928674,4.3728595 0.1984375,0.1984375 0 0 0 2.6724613,4.4653602 0.1984375,0.1984375 0 0 0 2.7453252,4.7366616 L 4.0206994,5.473051 V 6.9458292 A 0.1984375,0.1984375 0 0 0 4.2191369,7.1442667 0.1984375,0.1984375 0 0 0 4.4175744,6.9458292 V 5.473051 L 5.6929486,4.7366619 A 0.1984375,0.1984375 0 0 0 5.7658124,4.4653605 0.1984375,0.1984375 0 0 0 5.5937298,4.365625 Z" />
  <path
     id="rect13250"
     style="fill:url(#linearGradient16320);fill-opacity:1;stroke-width:0.264583;stroke-linejoin:round;opacity:0.3"
     d="m 2.6458333,0.79375 c -1.71979143,0 -2.11666664,0.396875 -2.11666664,2.1166666 v 2.6458335 c 0,1.7197919 0.39687515,2.1166666 2.11666664,2.1166666 h 3.175 c 1.7197913,0 2.1166666,-0.3968747 2.1166666,-2.1166666 V 2.9104166 C 7.9374999,1.190625 7.5406249,0.79375 5.8208333,0.79375 Z m 0,0.2645833 h 3.175 c 1.5213541,0 1.8520833,0.3307294 1.8520833,1.8520833 v 2.6458335 c 0,1.5213542 -0.3307292,1.8520833 -1.8520833,1.8520833 h -3.175 c -1.5213541,0 -1.85208331,-0.3307291 -1.85208331,-1.8520833 V 2.9104166 c 0,-1.521354 0.33072921,-1.8520834 1.85208331,-1.8520833 z"
     sodipodi:nodetypes="ssssssssssssssssss" />
  <path
     id="rect2545"
     style="opacity:0.4;fill:#000000;stroke-width:0.387914;stroke-linejoin:round"
     d="m 2.6458333,0.52916667 c -1.91822909,0 -2.38124997,0.4630208 -2.38124997,2.38124993 V 5.55625 c 0,1.8520831 0.52916735,2.38125 2.38124997,2.38125 h 3.175 c 1.8520841,0 2.3812499,-0.5291669 2.3812499,-2.38125 V 2.9104166 c 0,-1.8520832 -0.5291666,-2.38124988 -2.3812499,-2.38124993 z m 0,0.26458333 h 3.175 c 1.7197916,0 2.1166666,0.396875 2.1166666,2.1166666 V 5.55625 c 0,1.7197917 -0.3968753,2.1166666 -2.1166666,2.1166666 h -3.175 c -1.71979162,0 -2.11666664,-0.3968749 -2.11666664,-2.1166666 V 2.9104166 c 0,-1.7197916 0.39687505,-2.1166666 2.11666664,-2.1166666 z"
     sodipodi:nodetypes="ssssssssssssssssss" />
  <circle
     style="opacity:1;fill:#ffffff;stroke-width:0.239227"
     id="path942"
     cx="4.2333336"
     cy="2.6458333"
     r="1.3229166" />
  <circle
     style="opacity:1;fill:#cdcdcd;stroke-width:0.31106;fill-opacity:1"
     id="path1068"
     cx="4.2333336"
     cy="2.6458335"
     r="1.1575521" />
  <circle
     style="opacity:1;fill:#666666;fill-opacity:1;stroke-width:0.319696"
     id="path1340"
     cx="4.2333331"
     cy="2.6458333"
     r="0.9921875" />
  <path
     d="M 4.2333241,1.6536458 4.0364373,2.0151093 C 3.7603679,2.1011863 3.5722057,2.356641 3.571875,2.6458294 c 0,0.3652999 0.2961338,0.6614556 0.6614557,0.6614556 0.3652999,0 0.6614557,-0.2961557 0.6614557,-0.6614556 C 4.8947578,2.3561338 4.7062231,2.1001725 4.4295626,2.0142274 Z"
     style="fill:#f7f7f7;stroke-width:0.220485;enable-background:new"
     id="path1022" />
  <circle
     style="opacity:1;fill:#e6e6e6;fill-opacity:1;stroke-width:0.213791"
     id="path1496"
     cx="4.2333336"
     cy="5.3578129"
     r="0.59531248" />
  <circle
     style="opacity:1;fill:#ffffff;fill-opacity:1;stroke-width:0.193081"
     id="path1644"
     cx="4.2333331"
     cy="5.3578124"
     r="0.39687499" />
</svg>
