<?xml version="1.0" encoding="UTF-8" standalone="no"?>
<!-- Created with Inkscape (http://www.inkscape.org/) -->

<svg
   width="32"
   height="32"
   viewBox="0 0 8.4666665 8.4666669"
   version="1.1"
   id="svg2719"
   inkscape:version="1.1.2 (0a00cf5339, 2022-02-04)"
   sodipodi:docname="disk-burner.svg"
   xmlns:inkscape="http://www.inkscape.org/namespaces/inkscape"
   xmlns:sodipodi="http://sodipodi.sourceforge.net/DTD/sodipodi-0.dtd"
   xmlns:xlink="http://www.w3.org/1999/xlink"
   xmlns="http://www.w3.org/2000/svg"
   xmlns:svg="http://www.w3.org/2000/svg">
  <sodipodi:namedview
     id="namedview2721"
     pagecolor="#ffffff"
     bordercolor="#666666"
     borderopacity="1.0"
     inkscape:pageshadow="2"
     inkscape:pageopacity="0.0"
     inkscape:pagecheckerboard="0"
     inkscape:document-units="px"
     showgrid="false"
     units="px"
     inkscape:zoom="25.90625"
     inkscape:cx="15.9807"
     inkscape:cy="16"
     inkscape:window-width="1851"
     inkscape:window-height="1049"
     inkscape:window-x="0"
     inkscape:window-y="0"
     inkscape:window-maximized="1"
     inkscape:current-layer="svg2719" />
  <defs
     id="defs2716">
    <linearGradient
       inkscape:collect="always"
       id="linearGradient1871">
      <stop
         style="stop-color:#ffffff;stop-opacity:1;"
         offset="0"
         id="stop1867" />
      <stop
         style="stop-color:#ffffff;stop-opacity:0.1"
         offset="0.12"
         id="stop2515" />
      <stop
         style="stop-color:#ffffff;stop-opacity:0.102"
         offset="0.89999998"
         id="stop2581" />
      <stop
         style="stop-color:#ffffff;stop-opacity:0.502"
         offset="1"
         id="stop1869" />
    </linearGradient>
    <linearGradient
       inkscape:collect="always"
       xlink:href="#linearGradient1871"
       id="linearGradient16320"
       x1="10"
       y1="4"
       x2="10"
       y2="29.100245"
       gradientUnits="userSpaceOnUse"
       gradientTransform="matrix(0.26458333,0,0,0.26458333,0,-0.26458332)" />
    <linearGradient
       inkscape:collect="always"
       xlink:href="#linearGradient2221"
       id="linearGradient1241"
       x1="3.7320032"
       y1="3.4674196"
       x2="8.9689608"
       y2="8.7034121"
       gradientUnits="userSpaceOnUse"
       gradientTransform="matrix(0.75000005,0,0,0.75000005,-0.52916635,-0.33072889)" />
    <linearGradient
       inkscape:collect="always"
       id="linearGradient2221">
      <stop
         style="stop-color:#cdcdcd;stop-opacity:1"
         offset="0"
         id="stop2217" />
      <stop
         style="stop-color:#d9d9d9;stop-opacity:1"
         offset="1"
         id="stop2219" />
    </linearGradient>
    <linearGradient
       inkscape:collect="always"
       xlink:href="#linearGradient1871"
       id="linearGradient2256"
       gradientUnits="userSpaceOnUse"
       gradientTransform="matrix(0.73660719,0,0,0.73660719,-3.6311485,0.23183232)"
       x1="10.676629"
       y1="1.8404214"
       x2="10.676629"
       y2="9.0242605" />
  </defs>
  <path
     id="rect18683"
     style="opacity:0.1;fill:#000000;stroke-width:0.264583;stroke-linejoin:round"
     d="m 2.38125,0.92604165 c -1.45520832,0 -1.984375,0.52916665 -1.984375,1.98437495 v 3.0427085 c 0,1.5875 0.52916665,2.1166666 2.1166666,2.1166666 h 3.4395833 c 1.5875,0 2.1166667,-0.5291666 2.1166667,-2.1166666 V 3.0427083 c 0,-1.5875 -0.5291667,-2.11666665 -2.1166667,-2.11666665 z"
     sodipodi:nodetypes="sssssssss" />
  <path
     id="rect6397"
     style="fill:#4d4d4d;fill-opacity:1;stroke-width:0.255274;stroke-linejoin:round"
     d="M 0.39687499,2.6458334 C 0.396875,1.190625 0.92604165,0.66145833 2.38125,0.66145834 h 3.571875 c 1.5874999,-1e-8 2.1166666,0.52916666 2.1166668,2.11666666 l 10e-8,2.9104168 c 0,1.5874999 -0.529166,2.1166666 -2.116666,2.1166666 H 2.5135417 c -1.58750001,0 -2.11666671,-0.5291667 -2.11666671,-2.1166667 z"
     sodipodi:nodetypes="ccccccccc" />
  <circle
     style="fill:url(#linearGradient1241);fill-opacity:1;stroke-width:0.198437;stroke-linejoin:round"
     id="path985"
     cx="4.2333336"
     cy="4.2333336"
     r="2.778125" />
  <path
     d="m 4.2333334,1.4552083 c -1.5343162,0 -2.7781251,1.2438089 -2.7781251,2.778125 h 2.7781251 z m 0,2.778125 v 2.7781254 c 1.5343164,0 2.7781249,-1.243809 2.7781249,-2.7781254 z"
     style="opacity:0.2;fill:#ffffff;stroke-width:0.370416;enable-background:new"
     id="path1693" />
  <path
     d="m 6.0491934,2.3318736 c -1.0028706,-1.0028739 -2.6288485,-1.0028739 -3.6317191,0 L 4.2333335,4.1477329 Z M 4.2333335,4.1477329 2.4174743,5.9635928 c 1.0028706,1.0028731 2.6288485,1.0028731 3.6317191,0 z"
     style="opacity:0.02;stroke-width:0.395078;enable-background:new"
     id="path2016" />
  <path
     id="path1117-3"
     style="fill:#faf8f6;stroke-width:0.370416;enable-background:new"
     d="M 2.2698356,2.3540209 C 2.0979409,2.5254067 1.9494855,2.7184265 1.8277952,2.9284561 L 4.2333333,4.3175186 Z M 4.2333333,4.3175186 6.1975544,6.2810159 C 6.369449,6.1096304 6.5179043,5.9166105 6.6395947,5.7065812 Z" />
  <path
     id="path1307"
     style="opacity:0.4;fill:#000000;fill-opacity:1;stroke-width:0.6875;stroke-linejoin:round"
     d="M 16 5 C 9.9248679 5.0000004 5.0000004 9.9248679 5 16 C 5 22.075132 9.9248679 27 16 27 C 22.075132 27 27 22.075132 27 16 C 27 9.9248679 22.075132 5 16 5 z M 16 6 C 21.522847 6 26 10.477153 26 16 C 26 21.522848 21.522848 26 16 26 C 10.477153 26 6 21.522847 6 16 C 6.0000004 10.477153 10.477153 6.0000004 16 6 z "
     transform="scale(0.26458333)" />
  <circle
     style="fill:#aea795;fill-opacity:1;stroke-width:0.264583;stroke-linejoin:round"
     id="path7417"
     cx="4.2333331"
     cy="4.2333331"
     r="1.190625" />
  <circle
     style="fill:#faf8f6;fill-opacity:1;stroke-width:0.286632;stroke-linejoin:round"
     id="path7675"
     cx="4.2333336"
     cy="4.2333336"
     r="0.85989583" />
  <circle
     style="fill:#4d4d4d;fill-opacity:1;stroke-width:0.396875;stroke-linejoin:round"
     id="path7828"
     cx="4.2333331"
     cy="4.2333331"
     r="0.39687499" />
  <path
     id="path2161"
     style="fill:url(#linearGradient2256);fill-opacity:1;stroke-width:0.194893;stroke-linejoin:round"
     d="M 4.2333333,1.5875 C 2.77208,1.5874998 1.5875,2.7720798 1.5875,4.2333333 c 0,1.4612533 1.18458,2.6458333 2.6458333,2.6458333 1.4612535,0 2.6458333,-1.18458 2.6458333,-2.6458333 0,-1.4612532 -1.1845798,-2.6458334 -2.6458333,-2.6458333 z m 0,0.2645834 c 1.3151281,-10e-8 2.38125,1.0661218 2.38125,2.3812499 0,1.3151279 -1.0661219,2.38125 -2.38125,2.38125 -1.3151281,0 -2.38125,-1.0661221 -2.38125,-2.38125 0,-1.3151281 1.0661219,-2.3812501 2.38125,-2.3812499 z" />
  <path
     d="m 4.5666227,2.1166667 c 0,0 0.00306,0.1060587 -0.014064,0.1546837 -0.00809,0.023015 -0.031895,0.037937 -0.040706,0.06069 -0.013892,0.035881 -0.021372,0.075749 -0.017021,0.1139777 0.00246,0.021803 0.016302,0.041045 0.024421,0.06143 0.00653,0.016409 0.012774,0.034004 0.019244,0.048845 l 0.013319,0.032566 0.028863,-0.1013955 c 0.00442,-0.015126 0.00833,-0.030153 0.012576,-0.045887 0,0 0.034553,-0.086175 0.037746,-0.13174 0.00276,-0.03946 -0.00265,-0.08055 -0.016284,-0.1176773 -0.010285,-0.027962 -0.048105,-0.075492 -0.048105,-0.075492 z M 4.3001819,2.6029211 c -0.048088,0.033004 -0.092247,0.067633 -0.13396,0.1036161 H 4.165463 v 7.346e-4 c 0,0 -0.1140555,0.1058154 -0.1613446,0.1672656 C 3.9358334,2.9632604 3.8771152,3.0600487 3.830192,3.1616991 3.783661,3.262508 3.749069,3.3693118 3.7250969,3.4777276 c -0.025121,0.1136001 -0.039158,0.2307676 -0.039967,0.347113 -0.00118,0.1704769 0.013405,0.3470579 0.051068,0.5084579 v 0.00221 H 3.736957 C 3.7730003,4.48915 3.779304,4.5622169 3.8479733,4.684852 4.6268143,4.5483385 5.1433934,5.1503114 4.969245,5.8002113 4.8773834,6.1430328 4.5943602,6.3081707 4.3231248,6.3700961 3.9408649,6.4365644 3.6184228,6.2296756 3.5408251,5.9400908 c -0.015149,-0.095499 0.0083,-0.223689 0.062909,-0.2560795 -0.031536,0.010989 -0.069476,0.023987 -0.1154579,0.06735 -0.07744,0.073007 -0.079355,0.098215 -0.1805879,0.1265599 0.049542,-0.1396165 -0.2223021,-0.2526381 -0.1731852,-0.5521246 0.00114,-0.00693 -0.012904,0.05745 -0.011839,0.050328 C 3.002848,6.0378892 3.6813583,6.782545 4.4334018,6.581029 4.9429626,6.4538384 5.2462666,6.0797182 5.3467014,5.6573673 5.4046992,5.4134912 5.3868002,5.1616287 5.3341206,4.9505595 5.2912073,4.7786458 5.2039767,4.5975512 5.0721198,4.4310009 5.0298748,4.3776392 4.9852985,4.3291466 4.9403798,4.2837184 l -7.589e-4,-0.00149 -0.00371,-0.00371 C 4.8348128,4.1769654 4.7299757,4.0929851 4.6295321,4.0135772 c 0,0 -0.2032095,-0.1657336 -0.2975255,-0.2568195 -0.00579,-0.00562 -0.011828,-0.011584 -0.017021,-0.017763 -0.032863,-0.039163 -0.06425,-0.080253 -0.092513,-0.1228583 -0.00775,-0.011681 -0.014885,-0.023513 -0.020725,-0.036265 C 4.171872,3.5146463 4.1458589,3.447199 4.1306969,3.3770805 4.11092,3.2856293 4.1029479,3.1908513 4.1055315,3.0973178 4.1077123,3.017663 4.1188222,2.9372208 4.140318,2.8604814 4.1792285,2.7693783 4.2421743,2.6851857 4.3001819,2.6029211 Z m 0.2257345,0.3374916 c -0.025588,0.040932 -0.044904,0.087468 -0.067352,0.1309997 -0.019925,0.038642 -0.043364,0.075272 -0.059949,0.115458 -0.036283,0.087915 -0.057103,0.1817006 -0.085854,0.2723615 -0.00345,0.01088 -0.01173,0.021228 -0.010359,0.032564 0.01037,0.085773 0.082035,0.1528075 0.1347005,0.2212941 0.020248,0.026333 0.06883,0.071791 0.06883,0.071791 0.00821,0.00909 0.016929,0.017855 0.025905,0.026643 0,0 -0.017061,-0.1033239 -0.024422,-0.1554238 -6.434e-4,-0.00458 -0.00114,-0.00943 -0.00149,-0.014064 C 4.4931179,3.4571628 4.4838619,3.2708914 4.4992759,3.0862125 4.5033659,3.0370855 4.5259199,2.94041 4.5259199,2.94041 Z M 3.1966727,4.4124981 c 0,0 0.030735,0.2042176 0.00887,0.3027062 -0.010349,0.046609 -0.052598,0.081774 -0.064389,0.1280394 -0.018598,0.07296 -0.024806,0.1524806 -0.00741,0.2257348 0.00991,0.041778 0.04225,0.075198 0.062169,0.113237 0.00465,0.00887 0.00875,0.017939 0.013319,0.026642 C 3.2338777,5.098418 3.3142683,5.0086809 3.346149,4.9009704 3.35848,4.8593214 3.369049,4.8155794 3.366873,4.7721906 3.363023,4.6948796 3.342905,4.6168665 3.307686,4.5479377 3.281168,4.4960377 3.196669,4.412497 3.196669,4.412497 Z m 0.8970176,0.3907797 c -0.4328389,0 -0.7837804,0.3509416 -0.7837804,0.7837799 1.615e-4,0.040328 0.00401,0.080801 0.010359,0.1206394 0.00885,0.013748 0.017788,0.027666 0.025164,0.042186 0.00658,0.012919 0.00971,0.027451 0.014064,0.042186 0.00238,-0.00175 0.00875,-0.00259 0.011099,-0.00445 0.016847,-0.01405 0.038246,-0.039091 0.079191,-0.077711 0.053172,-0.050124 0.1028988,-0.073229 0.1354409,-0.079933 0.072201,-0.014867 0.091304,-0.00158 0.1539437,0.00815 -0.051033,0.021157 -0.06654,0.044482 -0.1058356,0.094735 -0.00136,0.00175 -0.022707,0.027575 -0.031824,0.068089 -0.00894,0.039725 -0.010264,0.089063 -0.00445,0.1280392 0.070876,0.2561659 0.3607298,0.4459676 0.7164297,0.3841189 0.075222,-0.017362 0.1494254,-0.043554 0.220555,-0.078451 0.2144522,-0.1456763 0.343064,-0.388348 0.3434127,-0.6475993 0,-0.4328385 -0.350941,-0.7837798 -0.7837798,-0.7837798 z"
     style="fill:#4d4d4d;stroke-width:1.43229"
     id="path2378" />
  <path
     id="rect13250"
     style="fill:url(#linearGradient16320);fill-opacity:1;stroke-width:0.264583;stroke-linejoin:round"
     d="m 2.6458333,0.79375 c -1.71979143,0 -2.11666664,0.396875 -2.11666664,2.1166666 v 2.6458335 c 0,1.7197919 0.39687515,2.1166666 2.11666664,2.1166666 h 3.175 c 1.7197913,0 2.1166666,-0.3968747 2.1166666,-2.1166666 V 2.9104166 C 7.9374999,1.190625 7.5406249,0.79375 5.8208333,0.79375 Z m 0,0.2645833 h 3.175 c 1.5213541,0 1.8520833,0.3307294 1.8520833,1.8520833 v 2.6458335 c 0,1.5213542 -0.3307292,1.8520833 -1.8520833,1.8520833 h -3.175 c -1.5213541,0 -1.85208331,-0.3307291 -1.85208331,-1.8520833 V 2.9104166 c 0,-1.521354 0.33072921,-1.8520834 1.85208331,-1.8520833 z"
     sodipodi:nodetypes="ssssssssssssssssss" />
  <path
     id="rect2545"
     style="opacity:0.4;fill:#000000;stroke-width:0.387914;stroke-linejoin:round"
     d="m 2.6458333,0.52916667 c -1.91822909,0 -2.38124997,0.4630208 -2.38124997,2.38124993 V 5.55625 c 0,1.8520831 0.52916735,2.38125 2.38124997,2.38125 h 3.175 c 1.8520841,0 2.3812499,-0.5291669 2.3812499,-2.38125 V 2.9104166 c 0,-1.8520832 -0.5291666,-2.38124988 -2.3812499,-2.38124993 z m 0,0.26458333 h 3.175 c 1.7197916,0 2.1166666,0.396875 2.1166666,2.1166666 V 5.55625 c 0,1.7197917 -0.3968753,2.1166666 -2.1166666,2.1166666 h -3.175 c -1.71979162,0 -2.11666664,-0.3968749 -2.11666664,-2.1166666 V 2.9104166 c 0,-1.7197916 0.39687505,-2.1166666 2.11666664,-2.1166666 z"
     sodipodi:nodetypes="ssssssssssssssssss" />
</svg>
