<?xml version="1.0" encoding="UTF-8" standalone="no"?>
<!-- Created with Inkscape (http://www.inkscape.org/) -->

<svg
   width="32"
   height="32"
   viewBox="0 0 8.4666665 8.4666669"
   version="1.1"
   id="svg2719"
   inkscape:version="1.1.2 (0a00cf5339, 2022-02-04, custom)"
   sodipodi:docname="evolution.svg"
   xmlns:inkscape="http://www.inkscape.org/namespaces/inkscape"
   xmlns:sodipodi="http://sodipodi.sourceforge.net/DTD/sodipodi-0.dtd"
   xmlns:xlink="http://www.w3.org/1999/xlink"
   xmlns="http://www.w3.org/2000/svg"
   xmlns:svg="http://www.w3.org/2000/svg">
  <sodipodi:namedview
     id="namedview2721"
     pagecolor="#ffffff"
     bordercolor="#666666"
     borderopacity="1.0"
     inkscape:pageshadow="2"
     inkscape:pageopacity="0.0"
     inkscape:pagecheckerboard="0"
     inkscape:document-units="px"
     showgrid="false"
     units="px"
     inkscape:zoom="4"
     inkscape:cx="16.875"
     inkscape:cy="-2"
     inkscape:window-width="1920"
     inkscape:window-height="1027"
     inkscape:window-x="-8"
     inkscape:window-y="-8"
     inkscape:window-maximized="1"
     inkscape:current-layer="svg2719" />
  <defs
     id="defs2716">
    <linearGradient
       inkscape:collect="always"
       id="linearGradient1871">
      <stop
         style="stop-color:#ffffff;stop-opacity:1;"
         offset="0"
         id="stop1867" />
      <stop
         style="stop-color:#ffffff;stop-opacity:0.1"
         offset="0.12"
         id="stop2515" />
      <stop
         style="stop-color:#ffffff;stop-opacity:0.102"
         offset="0.89999998"
         id="stop2581" />
      <stop
         style="stop-color:#ffffff;stop-opacity:0.502"
         offset="1"
         id="stop1869" />
    </linearGradient>
    <linearGradient
       inkscape:collect="always"
       xlink:href="#linearGradient1871"
       id="linearGradient16320"
       x1="10"
       y1="4"
       x2="10"
       y2="29.100245"
       gradientUnits="userSpaceOnUse"
       gradientTransform="matrix(0.26458333,0,0,0.26458333,0,-0.26458332)" />
    <linearGradient
       inkscape:collect="always"
       id="linearGradient1331">
      <stop
         style="stop-color:#a2bcfe;stop-opacity:1"
         offset="0"
         id="stop1327" />
      <stop
         style="stop-color:#80a3fa;stop-opacity:1"
         offset="1"
         id="stop1329" />
    </linearGradient>
    <linearGradient
       inkscape:collect="always"
       xlink:href="#linearGradient1331"
       id="linearGradient871"
       x1="11.225061"
       y1="10.373736"
       x2="0.41401795"
       y2="0.600326"
       gradientUnits="userSpaceOnUse" />
  </defs>
  <path
     id="rect18683"
     style="opacity:0.1;fill:#000000;stroke-width:0.264583;stroke-linejoin:round"
     d="m 2.38125,0.92604165 c -1.45520832,0 -1.984375,0.52916665 -1.984375,1.98437495 v 2.778125 c 0,1.5875 0.52916665,2.1166666 2.1166666,2.1166666 h 3.4395833 c 1.5875,0 2.1166667,-0.5291666 2.1166667,-2.1166666 V 3.0427083 c 0,-1.5875 -0.5291667,-2.11666665 -2.1166667,-2.11666665 z" />
  <path
     id="rect6397"
     style="fill:url(#linearGradient871);stroke-width:0.255274;stroke-linejoin:round;fill-opacity:1"
     d="M 0.39687499,2.6458334 C 0.396875,1.190625 0.92604165,0.66145833 2.38125,0.66145834 h 3.571875 c 1.5874999,-1e-8 2.1166666,0.52916666 2.1166668,2.11666666 l 10e-8,2.6458334 c 0,1.5874999 -0.529166,2.1166666 -2.116666,2.1166666 H 2.5135417 c -1.58750001,0 -2.11666671,-0.5291667 -2.11666671,-2.1166667 z"
     sodipodi:nodetypes="ccccccccc" />
  <path
     id="rect2491"
     style="opacity:1;fill:#faf8f6;stroke-width:0.264583;stroke-linejoin:round"
     d="m 2.38125,1.8520833 h 3.7041667 c 0.2221258,0 0.4515133,0.019285 0.5953127,0.1653645 0.1408771,0.1431109 0.1984373,0.4107738 0.1984373,0.6283855 v 2.6458336 c 0,0.4397375 -0.3540125,0.79375 -0.79375,0.79375 H 2.38125 c -0.4397375,0 -0.79375,-0.3540125 -0.79375,-0.79375 V 2.6458333 C 1.5875,2.4228972 1.638917,2.161358 1.7859375,2.0174478 1.9289122,1.8774978 2.1644486,1.8520833 2.38125,1.8520833 Z"
     sodipodi:nodetypes="sssssssssss" />
  <path
     id="rect1261"
     style="opacity:1;fill:#a2bcfe;fill-opacity:1;stroke-width:0.999999;stroke-linejoin:round"
     d="m 1.5,11.5 v 9 c 0,5.999999 2,8 8,8 h 13 c 6,0 8,-2.000002 8,-8 v -9 l -14.5,8 z"
     transform="scale(0.26458333)"
     sodipodi:nodetypes="cssssccc" />
  <path
     id="rect1805"
     style="opacity:0.2;fill:#ffffff;stroke-width:2.06155;stroke-linejoin:round"
     d="M 30.5,11.5 3.0605469,26.546875 C 4.2941362,27.945153 6.3434779,28.5 9.5,28.5 h 13 c 6,0 8,-2.000002 8,-8 z"
     sodipodi:nodetypes="ccsssc"
     transform="scale(0.26458333)" />
  <path
     id="rect3166"
     style="opacity:0.5;fill:#80a3fa;fill-opacity:1;stroke-width:0.324046;stroke-linejoin:round"
     d="M 2.6458333,2.778125 V 3.175 h 3.175 V 2.778125 Z m 0,0.79375 V 3.96875 h 1.5875 V 3.571875 Z"
     sodipodi:nodetypes="cccccccccc" />
  <path
     id="rect3659"
     style="opacity:1;fill:#e93549;stroke-width:0.264583;stroke-linejoin:round"
     d="M 0.26458333,3.7041667 V 4.6632813 L 0.66145832,4.8947917 V 3.9356771 Z m 7.93749987,0 -0.396875,0.2315104 v 0.9591146 l 0.396875,-0.2315104 z" />
  <path
     id="rect4105"
     style="opacity:1;fill:#87a6f3;fill-opacity:1;stroke-width:0.999999;stroke-linejoin:round"
     d="M 1.5 19.291016 L 1.5 20.5 C 1.5 21.428794 1.5490739 22.261348 1.6523438 23.005859 L 2.5 23.5 L 2.5 19.875 L 1.5 19.291016 z M 30.5 19.291016 L 29.5 19.875 L 29.5 23.5 L 30.347656 23.005859 C 30.450926 22.261348 30.5 21.428794 30.5 20.5 L 30.5 19.291016 z "
     transform="scale(0.26458333)" />
  <path
     id="rect2545"
     style="opacity:0.4;fill:#000000;stroke-width:0.387914;stroke-linejoin:round"
     d="m 2.6458333,0.52916667 c -1.91822909,0 -2.38124992,0.4630208 -2.38124997,2.38124993 v 2.38125 c 6.1e-7,1.8520831 0.52916735,2.38125 2.38124997,2.38125 h 3.175 c 1.8520841,0 2.3812499,-0.5291669 2.3812499,-2.38125 v -2.38125 c 0,-1.8520832 -0.5291666,-2.38124988 -2.3812499,-2.38124993 z m 0,0.26458333 h 3.175 c 1.7197916,0 2.1166666,0.396875 2.1166666,2.1166666 v 2.38125 c -3e-7,1.7197917 -0.3968753,2.1166666 -2.1166666,2.1166666 h -3.175 c -1.71979162,0 -2.11666664,-0.3968749 -2.11666664,-2.1166666 v -2.38125 C 0.52916669,1.190625 0.92604171,0.79375 2.6458333,0.79375 Z" />
  <path
     id="rect13250"
     style="fill:url(#linearGradient16320);fill-opacity:1;stroke-width:0.264583;stroke-linejoin:round"
     d="m 2.6458333,0.79375 c -1.71979143,0 -2.11666661,0.396875 -2.11666664,2.1166666 v 2.38125 c 0,1.7197919 0.39687515,2.1166666 2.11666664,2.1166666 h 3.175 c 1.7197913,0 2.1166663,-0.3968747 2.1166666,-2.1166666 v -2.38125 C 7.9374999,1.190625 7.5406249,0.79375 5.8208333,0.79375 Z m 0,0.2645833 h 3.175 c 1.5213541,0 1.8520833,0.3307294 1.8520833,1.8520833 v 2.38125 c 0,1.5213542 -0.3307292,1.8520833 -1.8520833,1.8520833 h -3.175 c -1.5213541,0 -1.85208328,-0.3307291 -1.85208331,-1.8520833 v -2.38125 c 0,-1.521354 0.33072921,-1.8520834 1.85208331,-1.8520833 z" />
</svg>
