<?xml version="1.0" encoding="UTF-8" standalone="no"?>
<!-- Created with Inkscape (http://www.inkscape.org/) -->

<svg
   width="32"
   height="32"
   viewBox="0 0 8.4666665 8.4666669"
   version="1.1"
   id="svg2719"
   inkscape:version="1.1.2 (0a00cf5339, 2022-02-04)"
   sodipodi:docname="gnome-2048.svg"
   xmlns:inkscape="http://www.inkscape.org/namespaces/inkscape"
   xmlns:sodipodi="http://sodipodi.sourceforge.net/DTD/sodipodi-0.dtd"
   xmlns:xlink="http://www.w3.org/1999/xlink"
   xmlns="http://www.w3.org/2000/svg"
   xmlns:svg="http://www.w3.org/2000/svg">
  <sodipodi:namedview
     id="namedview2721"
     pagecolor="#ffffff"
     bordercolor="#666666"
     borderopacity="1.0"
     inkscape:pageshadow="2"
     inkscape:pageopacity="0.0"
     inkscape:pagecheckerboard="0"
     inkscape:document-units="px"
     showgrid="false"
     units="px"
     inkscape:zoom="9.0377085"
     inkscape:cx="4.3705769"
     inkscape:cy="17.150365"
     inkscape:window-width="1920"
     inkscape:window-height="1010"
     inkscape:window-x="0"
     inkscape:window-y="0"
     inkscape:window-maximized="1"
     inkscape:current-layer="svg2719" />
  <defs
     id="defs2716">
    <linearGradient
       inkscape:collect="always"
       id="linearGradient2290">
      <stop
         style="stop-color:#f5f5f5;stop-opacity:1"
         offset="0"
         id="stop2286" />
      <stop
         style="stop-color:#e8e8e8;stop-opacity:1"
         offset="1"
         id="stop2288" />
    </linearGradient>
    <linearGradient
       inkscape:collect="always"
       id="linearGradient1871">
      <stop
         style="stop-color:#ffffff;stop-opacity:1;"
         offset="0"
         id="stop1867" />
      <stop
         style="stop-color:#ffffff;stop-opacity:0.1"
         offset="0.12"
         id="stop2515" />
      <stop
         style="stop-color:#ffffff;stop-opacity:0.102"
         offset="0.89999998"
         id="stop2581" />
      <stop
         style="stop-color:#ffffff;stop-opacity:0.502"
         offset="1"
         id="stop1869" />
    </linearGradient>
    <linearGradient
       inkscape:collect="always"
       xlink:href="#linearGradient1871"
       id="linearGradient16320"
       x1="10"
       y1="4"
       x2="10"
       y2="29.100245"
       gradientUnits="userSpaceOnUse"
       gradientTransform="matrix(0.26458333,0,0,0.26458333,0,-0.26458332)" />
    <linearGradient
       inkscape:collect="always"
       xlink:href="#linearGradient2290"
       id="linearGradient2292"
       x1="5.8128405"
       y1="7.9366827"
       x2="2.6458333"
       y2="0.5291667"
       gradientUnits="userSpaceOnUse" />
    <linearGradient
       id="linearGradient1024"
       x1="46.868999"
       x2="254.14999"
       y1="150.12"
       y2="150.12"
       gradientTransform="matrix(7.7241,0,0,7.7241,-2677.5,-937.03)"
       gradientUnits="userSpaceOnUse"
       xlink:href="#linearGradient4289" />
    <linearGradient
       id="linearGradient4289">
      <stop
         stop-color="#fdfdfb"
         offset="0"
         id="stop8" />
      <stop
         stop-color="#f0e9df"
         offset="1"
         id="stop10" />
    </linearGradient>
  </defs>
  <path
     id="rect18683"
     style="opacity:0.1;fill:#000000;stroke-width:0.264583;stroke-linejoin:round"
     d="m 2.38125,0.92604165 c -1.45520832,0 -1.984375,0.52916665 -1.984375,1.98437495 v 3.0427085 c 0,1.5875 0.52916665,2.1166666 2.1166666,2.1166666 h 3.4395833 c 1.5875,0 2.1166667,-0.5291666 2.1166667,-2.1166666 V 3.0427083 c 0,-1.5875 -0.5291667,-2.11666665 -2.1166667,-2.11666665 z"
     sodipodi:nodetypes="sssssssss" />
  <path
     id="rect6397"
     style="fill:url(#linearGradient2292);fill-opacity:1;stroke-width:0.255274;stroke-linejoin:round"
     d="M 0.39687499,2.6458334 C 0.396875,1.190625 0.92604165,0.66145833 2.38125,0.66145834 h 3.571875 c 1.5874999,-1e-8 2.1166666,0.52916666 2.1166668,2.11666666 l 10e-8,2.9104168 c 0,1.5874999 -0.529166,2.1166666 -2.116666,2.1166666 H 2.5135417 c -1.58750001,0 -2.11666671,-0.5291667 -2.11666671,-2.1166667 z"
     sodipodi:nodetypes="ccccccccc" />
  <path
     id="rect1032"
     style="opacity:1;fill:#20afe9;fill-opacity:1;stroke-width:0.878075;stroke-linecap:round;stroke-linejoin:round"
     d="M 16 16 L 16 29.5 L 22.5 29.5 C 28.5 29.5 30.5 27.5 30.5 21.5 L 30.5 16 L 16 16 z "
     transform="scale(0.26458333)" />
  <path
     id="rect4625"
     style="opacity:1;fill:#98d24d;fill-opacity:1;stroke-width:0.770037;stroke-linecap:round;stroke-linejoin:round"
     d="M 1.5 16 L 1.5 21.5 C 1.5 27.5 3.5 29.5 9.5 29.5 L 16 29.5 L 16 16 L 1.5 16 z "
     transform="scale(0.26458333)" />
  <path
     id="rect6174"
     style="opacity:1;fill:#e99c20;fill-opacity:1;stroke-width:1.3763;stroke-linecap:round;stroke-linejoin:round"
     d="M 9 2.5 C 3.4999997 2.5 1.5 4.4999998 1.5 10 L 1.5 16 L 16 16 L 16 2.5 L 9 2.5 z "
     transform="scale(0.26458333)" />
  <path
     id="path28"
     style="stroke-width:0.11048;fill:#ffffff"
     d="M 9.2890625 6.5996094 C 8.4005389 6.6093264 7.4846223 6.9881486 7.0058594 7.7265625 L 8.0664062 8.5371094 C 8.285267 8.0485669 9.7699696 7.3221592 10.109375 8.3925781 C 10.366131 9.5107461 7.8643734 11.452198 7 12.316406 L 7 13.414062 L 11.820312 13.414062 L 11.820312 12.193359 L 8.890625 12.193359 L 8.890625 12.126953 C 9.8867127 11.179256 11.594901 10.124546 11.580078 8.40625 C 11.526012 7.183373 10.43145 6.5871161 9.2890625 6.5996094 z M 22.513672 18 C 21.497587 18.005082 20.173707 18.421948 20.191406 19.626953 C 20.173707 20.599575 20.509448 20.825848 21.226562 21.265625 C 20.598661 21.581598 20.01977 22.14148 20 23.128906 C 20.019224 24.497577 21.258287 24.944298 22.513672 24.953125 C 23.705861 24.944287 24.982333 24.469337 24.992188 23.148438 C 24.982355 22.139777 24.4478 21.7554 23.597656 21.242188 C 24.369934 20.820264 24.772443 20.60235 24.773438 19.634766 C 24.772443 18.410923 23.455459 18.004989 22.513672 18 z M 9.953125 18.164062 L 6.7128906 22.455078 L 6.7128906 23.685547 L 10.033203 23.685547 L 10.033203 24.800781 L 11.304688 24.800781 L 11.304688 23.685547 L 12.164062 23.685547 L 12.164062 22.558594 L 11.304688 22.558594 L 11.304688 18.164062 L 9.953125 18.164062 z M 22.501953 19.144531 C 23.005112 19.140013 23.404591 19.260641 23.425781 19.730469 C 23.411607 20.3746 22.492188 20.777344 22.492188 20.777344 C 22.492188 20.777344 21.490789 20.368021 21.488281 19.771484 C 21.490789 19.259168 21.971881 19.139996 22.501953 19.144531 z M 10.033203 19.958984 L 10.033203 22.558594 L 8.0410156 22.558594 L 10.033203 19.958984 z M 22.5 21.755859 C 22.5 21.755859 23.581463 22.155054 23.576172 23.068359 C 23.568659 23.612152 23.108182 23.864704 22.5 23.859375 C 21.86875 23.8647 21.344847 23.637723 21.349609 23.009766 C 21.344859 22.154827 22.5 21.755859 22.5 21.755859 z "
     transform="scale(0.26458333)" />
  <path
     id="rect13250"
     style="fill:url(#linearGradient16320);fill-opacity:1;stroke-width:0.264583;stroke-linejoin:round"
     d="m 2.6458333,0.79375 c -1.71979143,0 -2.11666664,0.396875 -2.11666664,2.1166666 v 2.6458335 c 0,1.7197919 0.39687515,2.1166666 2.11666664,2.1166666 h 3.175 c 1.7197913,0 2.1166666,-0.3968747 2.1166666,-2.1166666 V 2.9104166 C 7.9374999,1.190625 7.5406249,0.79375 5.8208333,0.79375 Z m 0,0.2645833 h 3.175 c 1.5213541,0 1.8520833,0.3307294 1.8520833,1.8520833 v 2.6458335 c 0,1.5213542 -0.3307292,1.8520833 -1.8520833,1.8520833 h -3.175 c -1.5213541,0 -1.85208331,-0.3307291 -1.85208331,-1.8520833 V 2.9104166 c 0,-1.521354 0.33072921,-1.8520834 1.85208331,-1.8520833 z"
     sodipodi:nodetypes="ssssssssssssssssss" />
  <path
     id="rect2545"
     style="opacity:0.4;fill:#000000;stroke-width:0.387914;stroke-linejoin:round"
     d="m 2.6458333,0.52916667 c -1.91822909,0 -2.38124997,0.4630208 -2.38124997,2.38124993 V 5.55625 c 0,1.8520831 0.52916735,2.38125 2.38124997,2.38125 h 3.175 c 1.8520841,0 2.3812499,-0.5291669 2.3812499,-2.38125 V 2.9104166 c 0,-1.8520832 -0.5291666,-2.38124988 -2.3812499,-2.38124993 z m 0,0.26458333 h 3.175 c 1.7197916,0 2.1166666,0.396875 2.1166666,2.1166666 V 5.55625 c 0,1.7197917 -0.3968753,2.1166666 -2.1166666,2.1166666 h -3.175 c -1.71979162,0 -2.11666664,-0.3968749 -2.11666664,-2.1166666 V 2.9104166 c 0,-1.7197916 0.39687505,-2.1166666 2.11666664,-2.1166666 z"
     sodipodi:nodetypes="ssssssssssssssssss" />
</svg>
