<?xml version="1.0" encoding="UTF-8" standalone="no"?>
<!-- Created with Inkscape (http://www.inkscape.org/) -->

<svg
   width="32"
   height="32"
   viewBox="0 0 8.4666665 8.4666669"
   version="1.1"
   id="svg2719"
   inkscape:version="1.1.2 (0a00cf5339, 2022-02-04)"
   sodipodi:docname="gsconnect.svg"
   xmlns:inkscape="http://www.inkscape.org/namespaces/inkscape"
   xmlns:sodipodi="http://sodipodi.sourceforge.net/DTD/sodipodi-0.dtd"
   xmlns:xlink="http://www.w3.org/1999/xlink"
   xmlns="http://www.w3.org/2000/svg"
   xmlns:svg="http://www.w3.org/2000/svg">
  <sodipodi:namedview
     id="namedview2721"
     pagecolor="#ffffff"
     bordercolor="#666666"
     borderopacity="1.0"
     inkscape:pageshadow="2"
     inkscape:pageopacity="0.0"
     inkscape:pagecheckerboard="0"
     inkscape:document-units="px"
     showgrid="false"
     units="px"
     inkscape:zoom="25.46875"
     inkscape:cx="16"
     inkscape:cy="16"
     inkscape:window-width="1851"
     inkscape:window-height="1016"
     inkscape:window-x="0"
     inkscape:window-y="0"
     inkscape:window-maximized="1"
     inkscape:current-layer="svg2719" />
  <defs
     id="defs2716">
    <linearGradient
       inkscape:collect="always"
       id="linearGradient1871">
      <stop
         style="stop-color:#ffffff;stop-opacity:1;"
         offset="0"
         id="stop1867" />
      <stop
         style="stop-color:#ffffff;stop-opacity:0.1"
         offset="0.12"
         id="stop2515" />
      <stop
         style="stop-color:#ffffff;stop-opacity:0.102"
         offset="0.89999998"
         id="stop2581" />
      <stop
         style="stop-color:#ffffff;stop-opacity:0.502"
         offset="1"
         id="stop1869" />
    </linearGradient>
    <linearGradient
       inkscape:collect="always"
       xlink:href="#linearGradient1871"
       id="linearGradient16320"
       x1="10"
       y1="4"
       x2="10"
       y2="29.100245"
       gradientUnits="userSpaceOnUse"
       gradientTransform="matrix(0.26458333,0,0,0.26458333,0,-0.26458332)" />
    <linearGradient
       inkscape:collect="always"
       xlink:href="#linearGradient13289"
       id="linearGradient13291"
       x1="25"
       y1="29"
       x2="19"
       y2="7"
       gradientUnits="userSpaceOnUse"
       gradientTransform="matrix(0.26458333,0,0,0.26458333,-1.3229166,-0.52916664)" />
    <linearGradient
       inkscape:collect="always"
       id="linearGradient13289">
      <stop
         style="stop-color:#dfdfdf;stop-opacity:1"
         offset="0"
         id="stop13285" />
      <stop
         style="stop-color:#c6c6c6;stop-opacity:1"
         offset="1"
         id="stop13287" />
    </linearGradient>
    <linearGradient
       inkscape:collect="always"
       xlink:href="#linearGradient3598"
       id="linearGradient1599"
       x1="5.9797931"
       y1="2.4520421"
       x2="8.2273169"
       y2="9.6627779"
       gradientUnits="userSpaceOnUse"
       gradientTransform="matrix(0.60542803,0,0,0.66047356,0.65079679,0.23257449)" />
    <linearGradient
       inkscape:collect="always"
       id="linearGradient3598">
      <stop
         style="stop-color:#5884f4;stop-opacity:1"
         offset="0"
         id="stop3594" />
      <stop
         style="stop-color:#80a3fa;stop-opacity:1"
         offset="1"
         id="stop3596" />
    </linearGradient>
  </defs>
  <path
     id="rect18683"
     style="opacity:0.1;fill:#000000;stroke-width:0.264583;stroke-linejoin:round"
     d="m 2.38125,0.92604165 c -1.45520832,0 -1.984375,0.52916665 -1.984375,1.98437495 v 3.0427085 c 0,1.5875 0.52916665,2.1166666 2.1166666,2.1166666 h 3.4395833 c 1.5875,0 2.1166667,-0.5291666 2.1166667,-2.1166666 V 3.0427083 c 0,-1.5875 -0.5291667,-2.11666665 -2.1166667,-2.11666665 z"
     sodipodi:nodetypes="sssssssss" />
  <path
     id="rect6397"
     style="fill:#4d4d4d;fill-opacity:1;stroke-width:0.255274;stroke-linejoin:round"
     d="M 0.39687499,2.6458334 C 0.396875,1.190625 0.92604165,0.66145833 2.38125,0.66145834 h 3.571875 c 1.5874999,-1e-8 2.1166666,0.52916666 2.1166668,2.11666666 l 10e-8,2.9104168 c 0,1.5874999 -0.529166,2.1166666 -2.116666,2.1166666 H 2.5135417 c -1.58750001,0 -2.11666671,-0.5291667 -2.11666671,-2.1166667 z"
     sodipodi:nodetypes="ccccccccc" />
  <path
     d="m 3.1749999,1.5875 c -0.5291666,0 -0.5291666,0.2360082 -0.5291666,0.5291666 v 4.7625001 c 0,0.2931581 0,0.5291667 0.5291666,0.5291667 h 2.1166667 c 0.5291667,1e-6 0.5291667,-0.2360076 0.5291667,-0.5291667 V 2.1166666 c 0,-0.2931584 0,-0.5291666 -0.5291667,-0.5291666 z"
     style="opacity:0.1;fill:#ffffff;fill-opacity:1;stroke-width:0.0200963"
     id="path905"
     sodipodi:nodetypes="sssscssss" />
  <path
     id="path4863"
     style="fill:url(#linearGradient13291);fill-opacity:1;stroke-width:0.0759547"
     d="m 3.175,1.3229167 c -0.5291666,0 -0.5291666,0.2360082 -0.5291666,0.5291666 v 4.7625 c 0,0.293158 0,0.5291668 0.5291666,0.5291668 h 2.1166666 c 0.5291667,1e-6 0.5291667,-0.2360077 0.5291667,-0.5291668 v -4.7625 c 0,-0.2931584 0,-0.5291666 -0.5291667,-0.5291666 z"
     sodipodi:nodetypes="sssscssss" />
  <rect
     style="fill:url(#linearGradient1599);fill-opacity:1;stroke-width:0.181531"
     id="rect1437"
     width="2.6458333"
     height="4.7624998"
     x="2.9104164"
     y="1.8520833"
     ry="0.26458335" />
  <path
     d="M 3.1750001,6.6145827 C 3.0284209,6.6145827 2.9104167,6.496579 2.9104167,6.35 V 6.085417 C 2.9104167,6.231996 3.0284209,6.35 3.1750001,6.35 H 5.2916667 C 5.4382459,6.35 5.55625,6.231996 5.55625,6.085417 V 6.35 c 0,0.146579 -0.1180041,0.2645827 -0.2645833,0.2645827 z"
     style="opacity:0.4;fill:#ffffff;fill-opacity:1;stroke-width:0.287073"
     id="path3389"
     sodipodi:nodetypes="sscsscsss" />
  <path
     id="rect3123"
     style="opacity:0.1;fill:#000000;fill-opacity:1;stroke-width:0.287073"
     d="m 3.175,1.8520836 c -0.1465792,0 -0.2645833,0.1180041 -0.2645833,0.2645833 v 0.2645833 c 0,-0.1465791 0.1180041,-0.2645833 0.2645833,-0.2645833 h 2.1166666 c 0.1465792,0 0.2645834,0.1180042 0.2645834,0.2645833 V 2.1166669 c 0,-0.1465792 -0.1180042,-0.2645833 -0.2645834,-0.2645833 z"
     sodipodi:nodetypes="sscsscsss" />
  <path
     id="rect13250"
     style="fill:url(#linearGradient16320);fill-opacity:1;stroke-width:0.264583;stroke-linejoin:round;opacity:1"
     d="m 2.6458333,0.79375 c -1.71979143,0 -2.11666664,0.396875 -2.11666664,2.1166666 v 2.6458335 c 0,1.7197919 0.39687515,2.1166666 2.11666664,2.1166666 h 3.175 c 1.7197913,0 2.1166666,-0.3968747 2.1166666,-2.1166666 V 2.9104166 C 7.9374999,1.190625 7.5406249,0.79375 5.8208333,0.79375 Z m 0,0.2645833 h 3.175 c 1.5213541,0 1.8520833,0.3307294 1.8520833,1.8520833 v 2.6458335 c 0,1.5213542 -0.3307292,1.8520833 -1.8520833,1.8520833 h -3.175 c -1.5213541,0 -1.85208331,-0.3307291 -1.85208331,-1.8520833 V 2.9104166 c 0,-1.521354 0.33072921,-1.8520834 1.85208331,-1.8520833 z"
     sodipodi:nodetypes="ssssssssssssssssss" />
  <path
     id="rect2545"
     style="opacity:0.4;fill:#000000;stroke-width:0.387914;stroke-linejoin:round"
     d="m 2.6458333,0.52916667 c -1.91822909,0 -2.38124997,0.4630208 -2.38124997,2.38124993 V 5.55625 c 0,1.8520831 0.52916735,2.38125 2.38124997,2.38125 h 3.175 c 1.8520841,0 2.3812499,-0.5291669 2.3812499,-2.38125 V 2.9104166 c 0,-1.8520832 -0.5291666,-2.38124988 -2.3812499,-2.38124993 z m 0,0.26458333 h 3.175 c 1.7197916,0 2.1166666,0.396875 2.1166666,2.1166666 V 5.55625 c 0,1.7197917 -0.3968753,2.1166666 -2.1166666,2.1166666 h -3.175 c -1.71979162,0 -2.11666664,-0.3968749 -2.11666664,-2.1166666 V 2.9104166 c 0,-1.7197916 0.39687505,-2.1166666 2.11666664,-2.1166666 z"
     sodipodi:nodetypes="ssssssssssssssssss" />
</svg>
