<?xml version="1.0" encoding="UTF-8" standalone="no"?>
<!-- Created with Inkscape (http://www.inkscape.org/) -->

<svg
   width="32"
   height="32"
   viewBox="0 0 8.4666665 8.4666669"
   version="1.1"
   id="svg2719"
   inkscape:version="1.1.2 (0a00cf5339, 2022-02-04)"
   sodipodi:docname="kblackbox.svg"
   xmlns:inkscape="http://www.inkscape.org/namespaces/inkscape"
   xmlns:sodipodi="http://sodipodi.sourceforge.net/DTD/sodipodi-0.dtd"
   xmlns:xlink="http://www.w3.org/1999/xlink"
   xmlns="http://www.w3.org/2000/svg"
   xmlns:svg="http://www.w3.org/2000/svg">
  <sodipodi:namedview
     id="namedview2721"
     pagecolor="#ffffff"
     bordercolor="#666666"
     borderopacity="1.0"
     inkscape:pageshadow="2"
     inkscape:pageopacity="0.0"
     inkscape:pagecheckerboard="0"
     inkscape:document-units="px"
     showgrid="false"
     units="px"
     inkscape:zoom="27.789474"
     inkscape:cx="15.995265"
     inkscape:cy="16.265152"
     inkscape:window-width="1920"
     inkscape:window-height="1010"
     inkscape:window-x="0"
     inkscape:window-y="0"
     inkscape:window-maximized="1"
     inkscape:current-layer="svg2719" />
  <defs
     id="defs2716">
    <linearGradient
       inkscape:collect="always"
       id="linearGradient1871">
      <stop
         style="stop-color:#ffffff;stop-opacity:1;"
         offset="0"
         id="stop1867" />
      <stop
         style="stop-color:#ffffff;stop-opacity:0.1"
         offset="0.12"
         id="stop2515" />
      <stop
         style="stop-color:#ffffff;stop-opacity:0.102"
         offset="0.89999998"
         id="stop2581" />
      <stop
         style="stop-color:#ffffff;stop-opacity:0.502"
         offset="1"
         id="stop1869" />
    </linearGradient>
    <linearGradient
       inkscape:collect="always"
       xlink:href="#linearGradient1871"
       id="linearGradient16320"
       x1="10"
       y1="4"
       x2="10"
       y2="29.100245"
       gradientUnits="userSpaceOnUse"
       gradientTransform="matrix(0.26458333,0,0,0.26458333,0,-0.26458332)" />
  </defs>
  <path
     id="rect18683"
     style="opacity:0.1;fill:#000000;stroke-width:0.264583;stroke-linejoin:round"
     d="m 2.38125,0.92604165 c -1.45520832,0 -1.984375,0.52916665 -1.984375,1.98437495 v 3.0427085 c 0,1.5875 0.52916665,2.1166666 2.1166666,2.1166666 h 3.4395833 c 1.5875,0 2.1166667,-0.5291666 2.1166667,-2.1166666 V 3.0427083 c 0,-1.5875 -0.5291667,-2.11666665 -2.1166667,-2.11666665 z"
     sodipodi:nodetypes="sssssssss" />
  <path
     id="rect6397"
     style="fill:#4d4d4d;fill-opacity:1;stroke-width:0.255274;stroke-linejoin:round"
     d="M 0.39687499,2.6458334 C 0.396875,1.190625 0.92604165,0.66145833 2.38125,0.66145834 h 3.571875 c 1.5874999,-1e-8 2.1166666,0.52916666 2.1166668,2.11666666 l 10e-8,2.9104168 c 0,1.5874999 -0.529166,2.1166666 -2.116666,2.1166666 H 2.5135417 c -1.58750001,0 -2.11666671,-0.5291667 -2.11666671,-2.1166667 z"
     sodipodi:nodetypes="ccccccccc" />
  <path
     id="rect13250"
     style="fill:url(#linearGradient16320);fill-opacity:1;stroke-width:0.264583;stroke-linejoin:round;opacity:0.3"
     d="m 2.6458333,0.79375 c -1.71979143,0 -2.11666664,0.396875 -2.11666664,2.1166666 v 2.6458335 c 0,1.7197919 0.39687515,2.1166666 2.11666664,2.1166666 h 3.175 c 1.7197913,0 2.1166666,-0.3968747 2.1166666,-2.1166666 V 2.9104166 C 7.9374999,1.190625 7.5406249,0.79375 5.8208333,0.79375 Z m 0,0.2645833 h 3.175 c 1.5213541,0 1.8520833,0.3307294 1.8520833,1.8520833 v 2.6458335 c 0,1.5213542 -0.3307292,1.8520833 -1.8520833,1.8520833 h -3.175 c -1.5213541,0 -1.85208331,-0.3307291 -1.85208331,-1.8520833 V 2.9104166 c 0,-1.521354 0.33072921,-1.8520834 1.85208331,-1.8520833 z"
     sodipodi:nodetypes="ssssssssssssssssss" />
  <path
     id="rect2545"
     style="opacity:0.4;fill:#000000;stroke-width:0.387914;stroke-linejoin:round"
     d="m 2.6458333,0.52916667 c -1.91822909,0 -2.38124997,0.4630208 -2.38124997,2.38124993 V 5.55625 c 0,1.8520831 0.52916735,2.38125 2.38124997,2.38125 h 3.175 c 1.8520841,0 2.3812499,-0.5291669 2.3812499,-2.38125 V 2.9104166 c 0,-1.8520832 -0.5291666,-2.38124988 -2.3812499,-2.38124993 z m 0,0.26458333 h 3.175 c 1.7197916,0 2.1166666,0.396875 2.1166666,2.1166666 V 5.55625 c 0,1.7197917 -0.3968753,2.1166666 -2.1166666,2.1166666 h -3.175 c -1.71979162,0 -2.11666664,-0.3968749 -2.11666664,-2.1166666 V 2.9104166 c 0,-1.7197916 0.39687505,-2.1166666 2.11666664,-2.1166666 z"
     sodipodi:nodetypes="ssssssssssssssssss" />
  <path
     id="rect3775"
     style="fill:#ffffff;stroke-width:0.211666;stroke-linejoin:round"
     d="m 4.1622265,2.1166667 c -0.1891993,0 -0.3683572,0.021547 -0.5378482,0.064906 C 3.4588289,2.2249307 3.3090161,2.2821887 3.175,2.3531384 L 3.328789,2.7789522 C 3.5771134,2.6449356 3.8313841,2.5780339 4.0915332,2.5780339 c 0.2049662,0 0.3607304,0.053152 0.4671549,0.1595768 0.1064247,0.102483 0.159577,0.2362865 0.159577,0.4018359 0,0.1024831 -0.023807,0.1972972 -0.071107,0.2840137 C 4.6038,3.5101767 4.5465423,3.592674 4.4755924,3.6715072 4.4046428,3.7503403 4.3299431,3.8291455 4.25111,3.9079786 4.1722768,3.9828699 4.097164,4.0657808 4.0262141,4.1564389 c -0.07095,0.086716 -0.1300539,0.1815302 -0.1773533,0.2840137 -0.043359,0.1024828 -0.064906,0.2165851 -0.064906,0.3427179 0,0.086717 0.0078,0.1696274 0.023564,0.2484603 h 0.4613673 c -0.00394,-0.019708 -0.00579,-0.041669 -0.00579,-0.065319 v -0.064906 c 0,-0.1300745 0.025239,-0.2464363 0.076481,-0.3489194 C 4.3908216,4.4460624 4.4540312,4.3498154 4.5289225,4.263099 4.603814,4.1724409 4.6867249,4.0854245 4.7773827,4.0026497 4.8680408,3.9198751 4.9505384,3.8332719 5.0254298,3.742614 5.1003211,3.6519559 5.1635309,3.5552956 5.2147722,3.4528125 c 0.051242,-0.1064247 0.076895,-0.2264787 0.076895,-0.3604948 0,-0.1064247 -0.017855,-0.2168346 -0.05333,-0.3311425 C 5.2068034,2.6429255 5.1476995,2.5366212 5.0609831,2.4420215 4.9742668,2.3474218 4.857905,2.2704627 4.7120639,2.2113379 4.5701643,2.1482714 4.3869009,2.1166667 4.1622265,2.1166667 Z m -0.094258,3.4763769 c -0.1221914,0 -0.2188517,0.039403 -0.2898015,0.1182358 -0.07095,0.078833 -0.1066601,0.1718011 -0.1066601,0.2782258 0,0.1064248 0.03571,0.1989794 0.1066601,0.2778125 0.07095,0.078833 0.1676101,0.1182358 0.2898015,0.1182358 0.1221913,0 0.2184383,-0.039403 0.2893881,-0.1182358 0.07095,-0.078833 0.1066601,-0.1713877 0.1066601,-0.2778125 0,-0.1064247 -0.03571,-0.1993927 -0.1066601,-0.2782258 C 4.2864071,5.6324462 4.1901601,5.5930436 4.0679685,5.5930436 Z" />
</svg>
