<?xml version="1.0" encoding="UTF-8" standalone="no"?>
<!-- Created with Inkscape (http://www.inkscape.org/) -->

<svg
   width="32"
   height="32"
   viewBox="0 0 8.4666665 8.4666669"
   version="1.1"
   id="svg2719"
   inkscape:version="1.1.2 (0a00cf5339, 2022-02-04)"
   sodipodi:docname="kget.svg"
   xmlns:inkscape="http://www.inkscape.org/namespaces/inkscape"
   xmlns:sodipodi="http://sodipodi.sourceforge.net/DTD/sodipodi-0.dtd"
   xmlns:xlink="http://www.w3.org/1999/xlink"
   xmlns="http://www.w3.org/2000/svg"
   xmlns:svg="http://www.w3.org/2000/svg">
  <sodipodi:namedview
     id="namedview2721"
     pagecolor="#ffffff"
     bordercolor="#666666"
     borderopacity="1.0"
     inkscape:pageshadow="2"
     inkscape:pageopacity="0.0"
     inkscape:pagecheckerboard="0"
     inkscape:document-units="px"
     showgrid="false"
     units="px"
     inkscape:zoom="26.625"
     inkscape:cx="15.981221"
     inkscape:cy="16"
     inkscape:window-width="1851"
     inkscape:window-height="1053"
     inkscape:window-x="0"
     inkscape:window-y="0"
     inkscape:window-maximized="1"
     inkscape:current-layer="svg2719" />
  <defs
     id="defs2716">
    <linearGradient
       inkscape:collect="always"
       id="linearGradient1049">
      <stop
         style="stop-color:#5884f4;stop-opacity:1;"
         offset="0"
         id="stop1045" />
      <stop
         style="stop-color:#80a3fa;stop-opacity:1"
         offset="1"
         id="stop1047" />
    </linearGradient>
    <linearGradient
       inkscape:collect="always"
       id="linearGradient1871">
      <stop
         style="stop-color:#ffffff;stop-opacity:1;"
         offset="0"
         id="stop1867" />
      <stop
         style="stop-color:#ffffff;stop-opacity:0.1"
         offset="0.12"
         id="stop2515" />
      <stop
         style="stop-color:#ffffff;stop-opacity:0.102"
         offset="0.89999998"
         id="stop2581" />
      <stop
         style="stop-color:#ffffff;stop-opacity:0.502"
         offset="1"
         id="stop1869" />
    </linearGradient>
    <linearGradient
       inkscape:collect="always"
       xlink:href="#linearGradient1871"
       id="linearGradient16320"
       x1="10"
       y1="4"
       x2="10"
       y2="29.100245"
       gradientUnits="userSpaceOnUse"
       gradientTransform="matrix(0.26458333,0,0,0.26458333,0,-0.26458332)" />
    <linearGradient
       inkscape:collect="always"
       xlink:href="#linearGradient1049"
       id="linearGradient1051"
       x1="2.6458333"
       y1="0.5291667"
       x2="5.7276278"
       y2="7.9846039"
       gradientUnits="userSpaceOnUse" />
  </defs>
  <path
     id="rect18683"
     style="opacity:0.1;fill:#000000;stroke-width:0.264583;stroke-linejoin:round"
     d="m 2.38125,0.92604165 c -1.45520832,0 -1.984375,0.52916665 -1.984375,1.98437495 v 3.0427085 c 0,1.5875 0.52916665,2.1166666 2.1166666,2.1166666 h 3.4395833 c 1.5875,0 2.1166667,-0.5291666 2.1166667,-2.1166666 V 3.0427083 c 0,-1.5875 -0.5291667,-2.11666665 -2.1166667,-2.11666665 z"
     sodipodi:nodetypes="sssssssss" />
  <path
     id="rect6397"
     style="fill:url(#linearGradient1051);fill-opacity:1;stroke-width:0.255274;stroke-linejoin:round"
     d="M 0.39687499,2.6458334 C 0.396875,1.190625 0.92604165,0.66145833 2.38125,0.66145834 h 3.571875 c 1.5874999,-1e-8 2.1166666,0.52916666 2.1166668,2.11666666 l 10e-8,2.9104168 c 0,1.5874999 -0.529166,2.1166666 -2.116666,2.1166666 H 2.5135417 c -1.58750001,0 -2.11666671,-0.5291667 -2.11666671,-2.1166667 z"
     sodipodi:nodetypes="ccccccccc" />
  <path
     d="M 3.4364877,1.8528771 5.019331,1.8520833 v 1.8473473 l 0.6000221,2.646e-4 C 5.374005,4.1894125 4.9318068,5.0490172 4.2279093,6.0971906 3.5238796,5.048832 3.0818402,4.188751 2.8364656,3.6990073 l 0.6000221,2.645e-4 z M 2.38125,6.6013541 V 6.9970649 H 6.0745687 V 6.6013541 Z"
     style="color:#000000;opacity:0.1;fill:#000000;stroke-width:0.264583"
     id="path876"
     sodipodi:nodetypes="ccccccccccccc" />
  <path
     id="rect859"
     style="opacity:0.05;fill:#ffffff;stroke-width:1.38699"
     d="M 1.6621094 7.6171875 C 1.5529172 8.3256957 1.5 9.1174489 1.5 10 L 1.5 21.5 C 1.5 27.5 3.5 29.5 9.5 29.5 L 22.5 29.5 C 27.423297 29.5 29.65113 28.151676 30.292969 24.353516 L 1.6621094 7.6171875 z "
     transform="scale(0.26458333)" />
  <path
     d="M 3.4364877,1.5882938 5.0193311,1.5875 v 1.847347 l 0.600022,2.65e-4 C 5.374005,3.924829 4.9318069,4.784434 4.2279094,5.832607 3.5238796,4.784249 3.0818402,3.924168 2.8364656,3.434424 l 0.6000221,2.65e-4 z M 2.38125,6.336771 V 6.732482 H 6.0745688 V 6.336771 Z"
     style="color:#000000;opacity:1;fill:#ffffff;stroke-width:0.0700042"
     id="path1099" />
  <path
     id="rect2545"
     style="opacity:0.4;fill:#000000;stroke-width:0.387914;stroke-linejoin:round"
     d="m 2.6458333,0.52916667 c -1.91822909,0 -2.38124997,0.4630208 -2.38124997,2.38124993 V 5.55625 c 0,1.8520831 0.52916735,2.38125 2.38124997,2.38125 h 3.175 c 1.8520841,0 2.3812499,-0.5291669 2.3812499,-2.38125 V 2.9104166 c 0,-1.8520832 -0.5291666,-2.38124988 -2.3812499,-2.38124993 z m 0,0.26458333 h 3.175 c 1.7197916,0 2.1166666,0.396875 2.1166666,2.1166666 V 5.55625 c 0,1.7197917 -0.3968753,2.1166666 -2.1166666,2.1166666 h -3.175 c -1.71979162,0 -2.11666664,-0.3968749 -2.11666664,-2.1166666 V 2.9104166 c 0,-1.7197916 0.39687505,-2.1166666 2.11666664,-2.1166666 z"
     sodipodi:nodetypes="ssssssssssssssssss" />
  <path
     id="rect13250"
     style="fill:url(#linearGradient16320);fill-opacity:1;stroke-width:0.264583;stroke-linejoin:round;opacity:1"
     d="m 2.6458333,0.79375 c -1.71979143,0 -2.11666664,0.396875 -2.11666664,2.1166666 v 2.6458335 c 0,1.7197919 0.39687515,2.1166666 2.11666664,2.1166666 h 3.175 c 1.7197913,0 2.1166666,-0.3968747 2.1166666,-2.1166666 V 2.9104166 C 7.9374999,1.190625 7.5406249,0.79375 5.8208333,0.79375 Z m 0,0.2645833 h 3.175 c 1.5213541,0 1.8520833,0.3307294 1.8520833,1.8520833 v 2.6458335 c 0,1.5213542 -0.3307292,1.8520833 -1.8520833,1.8520833 h -3.175 c -1.5213541,0 -1.85208331,-0.3307291 -1.85208331,-1.8520833 V 2.9104166 c 0,-1.521354 0.33072921,-1.8520834 1.85208331,-1.8520833 z"
     sodipodi:nodetypes="ssssssssssssssssss" />
</svg>
