<?xml version="1.0" encoding="UTF-8" standalone="no"?>
<!-- Created with Inkscape (http://www.inkscape.org/) -->

<svg
   width="32"
   height="32"
   viewBox="0 0 8.4666665 8.4666669"
   version="1.1"
   id="svg2719"
   inkscape:version="1.1.2 (0a00cf5339, 2022-02-04)"
   sodipodi:docname="kwin.svg"
   xmlns:inkscape="http://www.inkscape.org/namespaces/inkscape"
   xmlns:sodipodi="http://sodipodi.sourceforge.net/DTD/sodipodi-0.dtd"
   xmlns:xlink="http://www.w3.org/1999/xlink"
   xmlns="http://www.w3.org/2000/svg"
   xmlns:svg="http://www.w3.org/2000/svg">
  <sodipodi:namedview
     id="namedview2721"
     pagecolor="#ffffff"
     bordercolor="#666666"
     borderopacity="1.0"
     inkscape:pageshadow="2"
     inkscape:pageopacity="0.0"
     inkscape:pagecheckerboard="0"
     inkscape:document-units="px"
     showgrid="false"
     units="px"
     inkscape:zoom="24.65625"
     inkscape:cx="16"
     inkscape:cy="16"
     inkscape:window-width="1851"
     inkscape:window-height="1016"
     inkscape:window-x="0"
     inkscape:window-y="0"
     inkscape:window-maximized="1"
     inkscape:current-layer="svg2719" />
  <defs
     id="defs2716">
    <linearGradient
       inkscape:collect="always"
       id="linearGradient1871">
      <stop
         style="stop-color:#ffffff;stop-opacity:1;"
         offset="0"
         id="stop1867" />
      <stop
         style="stop-color:#ffffff;stop-opacity:0.1"
         offset="0.12"
         id="stop2515" />
      <stop
         style="stop-color:#ffffff;stop-opacity:0.102"
         offset="0.89999998"
         id="stop2581" />
      <stop
         style="stop-color:#ffffff;stop-opacity:0.502"
         offset="1"
         id="stop1869" />
    </linearGradient>
    <linearGradient
       inkscape:collect="always"
       xlink:href="#linearGradient1871"
       id="linearGradient16320"
       x1="10"
       y1="4"
       x2="10"
       y2="29.100245"
       gradientUnits="userSpaceOnUse"
       gradientTransform="matrix(0.26458333,0,0,0.26458333,0,-0.26458332)" />
    <linearGradient
       inkscape:collect="always"
       xlink:href="#linearGradient3598"
       id="linearGradient3600"
       x1="12.646386"
       y1="11.784748"
       x2="0.24184538"
       y2="0.5291667"
       gradientUnits="userSpaceOnUse"
       gradientTransform="matrix(2.4356953,0,0,2.4296959,0.53333351,0.89285728)" />
    <linearGradient
       inkscape:collect="always"
       id="linearGradient3598">
      <stop
         style="stop-color:#1a86f2;stop-opacity:1"
         offset="0"
         id="stop3594" />
      <stop
         style="stop-color:#21c9fb;stop-opacity:1"
         offset="1"
         id="stop3596" />
    </linearGradient>
  </defs>
  <path
     id="rect18683"
     style="opacity:0.1;fill:#000000;stroke-width:0.264583;stroke-linejoin:round"
     d="m 2.38125,0.92604165 c -1.45520832,0 -1.984375,0.52916665 -1.984375,1.98437495 v 3.0427085 c 0,1.5875 0.52916665,2.1166666 2.1166666,2.1166666 h 3.4395833 c 1.5875,0 2.1166667,-0.5291666 2.1166667,-2.1166666 V 3.0427083 c 0,-1.5875 -0.5291667,-2.11666665 -2.1166667,-2.11666665 z"
     sodipodi:nodetypes="sssssssss" />
  <path
     id="rect877"
     style="display:inline;fill:url(#linearGradient3600);fill-opacity:1;stroke:none;stroke-width:0.241369;stroke-linecap:round;stroke-linejoin:round;stroke-miterlimit:4;stroke-dasharray:none;stroke-dashoffset:0;stroke-opacity:1;enable-background:new"
     d="M 9 2.5 C 3.4999999 2.5 1.5 4.4999998 1.5 10 L 1.5 21.5 C 1.5 27.5 3.4999999 29.5 9.5 29.5 L 22.5 29.5 C 28.5 29.5 30.5 27.5 30.5 21.5 L 30.5 10.5 C 30.499999 4.5 28.5 2.5 22.5 2.5 L 9 2.5 z "
     transform="scale(0.26458333)" />
  <path
     d="m 6.1614381,2.3813903 c 0.2798683,-0.00352 0.4677439,0.059331 0.5642613,0.1751787 0.101343,0.1206735 0.1534673,0.3186173 0.1534673,0.5937364 v 2.6953625 c 0,0.2751458 -0.052125,0.4730578 -0.1534673,0.5937367 -0.096525,0.1158528 -0.2843665,0.1751787 -0.5642613,0.1751787 h -3.856196 c -0.2798951,0 -0.4682469,-0.059326 -0.5647906,-0.1751787 C 1.6391083,6.3187284 1.5875,6.1208137 1.5875,5.8456679 V 3.1503054 C 1.5875,2.8751599 1.639109,2.6772214 1.7404515,2.556569 1.8369685,2.4407216 2.025347,2.3813903 2.3052421,2.3813903 Z"
     style="opacity:0.1;fill:#000000;stroke-width:0.070004;enable-background:new"
     id="path1055" />
  <path
     d="m 6.1614381,2.1168069 c 0.2798685,-0.00352 0.467744,0.059331 0.5642613,0.1751787 0.1013432,0.1206735 0.1534674,0.3186173 0.1534674,0.5937364 v 2.6953627 c 0,0.2751456 -0.052125,0.4730577 -0.1534674,0.5937366 C 6.6291741,6.290674 6.4413331,6.35 6.1614381,6.35 H 2.3052422 C 2.0253471,6.35 1.8369953,6.290674 1.7404516,6.1748213 1.6391084,6.0541451 1.5875001,5.8562303 1.5875001,5.5810847 V 2.885722 c 0,-0.2751455 0.051609,-0.473084 0.1529515,-0.5937364 0.096517,-0.1158474 0.2848955,-0.1751787 0.5647906,-0.1751787 z"
     style="fill:#eff0f1;stroke-width:0.264582;enable-background:new;fill-opacity:1"
     id="path1002"
     sodipodi:nodetypes="ccsscsscsscsc" />
  <path
     d="m 2.3052219,2.116807 c -0.2798749,0 -0.4682658,0.059332 -0.5647762,0.1751658 -0.1013359,0.120659 -0.1529456,0.3186058 -0.1529456,0.5936919 v 0.024802 h 5.2916667 v -0.024802 c 0,-0.2751126 -0.052129,-0.4730541 -0.1534641,-0.5936919 C 6.6291844,2.1761392 6.4413041,2.1132857 6.1614559,2.116807 Z"
     style="fill:#5d676b;stroke-width:0.264557;enable-background:new;fill-opacity:1"
     id="path882"
     sodipodi:nodetypes="scsccsccs" />
  <path
     id="rect13250"
     style="fill:url(#linearGradient16320);fill-opacity:1;stroke-width:0.264583;stroke-linejoin:round;opacity:1"
     d="m 2.6458333,0.79375 c -1.71979143,0 -2.11666664,0.396875 -2.11666664,2.1166666 v 2.6458335 c 0,1.7197919 0.39687515,2.1166666 2.11666664,2.1166666 h 3.175 c 1.7197913,0 2.1166666,-0.3968747 2.1166666,-2.1166666 V 2.9104166 C 7.9374999,1.190625 7.5406249,0.79375 5.8208333,0.79375 Z m 0,0.2645833 h 3.175 c 1.5213541,0 1.8520833,0.3307294 1.8520833,1.8520833 v 2.6458335 c 0,1.5213542 -0.3307292,1.8520833 -1.8520833,1.8520833 h -3.175 c -1.5213541,0 -1.85208331,-0.3307291 -1.85208331,-1.8520833 V 2.9104166 c 0,-1.521354 0.33072921,-1.8520834 1.85208331,-1.8520833 z"
     sodipodi:nodetypes="ssssssssssssssssss" />
  <path
     id="rect2545"
     style="opacity:0.4;fill:#000000;stroke-width:0.387914;stroke-linejoin:round"
     d="m 2.6458333,0.52916667 c -1.91822909,0 -2.38124997,0.4630208 -2.38124997,2.38124993 V 5.55625 c 0,1.8520831 0.52916735,2.38125 2.38124997,2.38125 h 3.175 c 1.8520841,0 2.3812499,-0.5291669 2.3812499,-2.38125 V 2.9104166 c 0,-1.8520832 -0.5291666,-2.38124988 -2.3812499,-2.38124993 z m 0,0.26458333 h 3.175 c 1.7197916,0 2.1166666,0.396875 2.1166666,2.1166666 V 5.55625 c 0,1.7197917 -0.3968753,2.1166666 -2.1166666,2.1166666 h -3.175 c -1.71979162,0 -2.11666664,-0.3968749 -2.11666664,-2.1166666 V 2.9104166 c 0,-1.7197916 0.39687505,-2.1166666 2.11666664,-2.1166666 z"
     sodipodi:nodetypes="ssssssssssssssssss" />
  <path
     id="path31"
     style="fill:#4d4d4d;stroke-width:0.109488"
     d="m 4.3744728,3.4395833 v 2.136e-4 l 0.00192,-2.136e-4 z m 0,2.136e-4 -0.352849,0.034857 V 4.976294 L 4.3744728,4.921335 V 4.2864211 L 4.8684616,4.9919054 5.2876035,4.8507658 4.727322,4.2158513 5.2916667,3.580723 4.8684616,3.4395833 4.3744728,4.1452814 Z m -0.797225,0.4234188 c -0.00434,5.3e-4 -0.00912,0.00143 -0.012403,0.0047 L 3.4145096,4.0174004 c -0.00631,0.0063 -0.00699,0.015903 -0.00235,0.023523 l 0.1599559,0.2626055 c -0.037632,0.061113 -0.066772,0.127872 -0.086395,0.1986647 L 3.190397,4.5631406 C 3.181427,4.5649706 3.175,4.5734286 3.175,4.5826016 v 0.2112817 c 0,0.00894 0.00691,0.016541 0.015611,0.018605 l 0.2863424,0.069073 c 0.018015,0.079648 0.04832,0.154349 0.088747,0.2226157 L 3.3988987,5.3565161 c -0.00506,0.00767 -0.00396,0.01787 0.00257,0.024379 l 0.1503351,0.1494796 c 0.00635,0.0063 0.016116,0.00696 0.023737,0.00235 L 3.8362177,5.375762 c 0.064329,0.038451 0.1345121,0.067794 0.2091433,0.086394 l 0.060733,0.2906194 c 0.00191,0.00896 0.00958,0.015398 0.018819,0.015398 h 0.2125649 c 0.00889,0 0.016702,-0.00592 0.018818,-0.014541 l 0.072281,-0.2925442 c 0.075224,-0.019487 0.1452367,-0.051005 0.2097849,-0.090671 l 0.2617499,0.1704367 c 0.00773,0.00497 0.017817,0.00405 0.024379,-0.00235 L 5.0741834,5.3890214 c 0.00635,-0.0063 0.00786,-0.015956 0.00321,-0.023523 l -0.1022212,-0.1672293 -0.03336,0.010478 c -0.00487,0.00148 -0.010401,-7.35e-4 -0.013259,-0.00492 0,0 -0.031691,-0.042866 -0.056884,-0.076985 C 4.8599177,5.1089607 4.8029867,5.0251646 4.744216,4.9484943 4.6515003,5.1470496 4.452351,5.2741868 4.2333333,5.2743985 3.9215789,5.2743985 3.6687748,5.0215945 3.6687748,4.7098399 3.6689828,4.4957827 3.769045,4.3055963 3.951054,4.2102912 V 3.9821155 C 3.911691,3.9967475 3.885736,4.0146095 3.8496901,4.0351495 L 3.5892234,3.8657822 c -0.00386,-0.00254 -0.00769,-0.00299 -0.011976,-0.00257 z" />
</svg>
