<?xml version="1.0" encoding="UTF-8" standalone="no"?>
<!-- Created with Inkscape (http://www.inkscape.org/) -->

<svg
   width="32"
   height="32"
   viewBox="0 0 8.4666665 8.4666669"
   version="1.1"
   id="svg2719"
   inkscape:version="1.1.2 (0a00cf5339, 2022-02-04)"
   sodipodi:docname="nvidia.svg"
   xmlns:inkscape="http://www.inkscape.org/namespaces/inkscape"
   xmlns:sodipodi="http://sodipodi.sourceforge.net/DTD/sodipodi-0.dtd"
   xmlns:xlink="http://www.w3.org/1999/xlink"
   xmlns="http://www.w3.org/2000/svg"
   xmlns:svg="http://www.w3.org/2000/svg">
  <sodipodi:namedview
     id="namedview2721"
     pagecolor="#ffffff"
     bordercolor="#666666"
     borderopacity="1.0"
     inkscape:pageshadow="2"
     inkscape:pageopacity="0.0"
     inkscape:pagecheckerboard="0"
     inkscape:document-units="px"
     showgrid="false"
     units="px"
     inkscape:zoom="18.009126"
     inkscape:cx="6.3578877"
     inkscape:cy="22.12767"
     inkscape:window-width="1851"
     inkscape:window-height="1016"
     inkscape:window-x="0"
     inkscape:window-y="0"
     inkscape:window-maximized="1"
     inkscape:current-layer="svg2719" />
  <defs
     id="defs2716">
    <linearGradient
       inkscape:collect="always"
       id="linearGradient1871">
      <stop
         style="stop-color:#ffffff;stop-opacity:1;"
         offset="0"
         id="stop1867" />
      <stop
         style="stop-color:#ffffff;stop-opacity:0.1"
         offset="0.12"
         id="stop2515" />
      <stop
         style="stop-color:#ffffff;stop-opacity:0.102"
         offset="0.89999998"
         id="stop2581" />
      <stop
         style="stop-color:#ffffff;stop-opacity:0.502"
         offset="1"
         id="stop1869" />
    </linearGradient>
    <linearGradient
       inkscape:collect="always"
       xlink:href="#linearGradient1871"
       id="linearGradient16320"
       x1="10"
       y1="4"
       x2="10"
       y2="29.100245"
       gradientUnits="userSpaceOnUse"
       gradientTransform="matrix(0.26458333,0,0,0.26458333,0,-0.26458332)" />
    <linearGradient
       inkscape:collect="always"
       xlink:href="#linearGradient3598"
       id="linearGradient1051"
       x1="3.7041667"
       y1="7.8052082"
       x2="3.7041667"
       y2="0.66145831"
       gradientUnits="userSpaceOnUse" />
    <linearGradient
       inkscape:collect="always"
       id="linearGradient4855">
      <stop
         style="stop-color:#f7f7f7;stop-opacity:1;"
         offset="0"
         id="stop4851" />
      <stop
         style="stop-color:#ffffff;stop-opacity:1"
         offset="1"
         id="stop4853" />
    </linearGradient>
    <linearGradient
       inkscape:collect="always"
       id="linearGradient1188">
      <stop
         style="stop-color:#8ad600;stop-opacity:1"
         offset="0"
         id="stop1184" />
      <stop
         style="stop-color:#70ad00;stop-opacity:1"
         offset="1"
         id="stop1186" />
    </linearGradient>
    <linearGradient
       inkscape:collect="always"
       id="linearGradient3598">
      <stop
         style="stop-color:#f7f7f7;stop-opacity:1"
         offset="0"
         id="stop3594" />
      <stop
         style="stop-color:#e6e6e6;stop-opacity:1"
         offset="1"
         id="stop3596" />
    </linearGradient>
    <linearGradient
       inkscape:collect="always"
       xlink:href="#linearGradient1188"
       id="linearGradient2545"
       x1="4.7624998"
       y1="7.9375"
       x2="4.7624998"
       y2="0.79374999"
       gradientUnits="userSpaceOnUse"
       gradientTransform="translate(0,-0.13229166)" />
    <linearGradient
       inkscape:collect="always"
       xlink:href="#linearGradient1188"
       id="linearGradient5682"
       x1="2.6458333"
       y1="0.66145831"
       x2="2.6458333"
       y2="7.8052082"
       gradientUnits="userSpaceOnUse" />
    <linearGradient
       inkscape:collect="always"
       xlink:href="#linearGradient4855"
       id="linearGradient5690"
       x1="4.7624993"
       y1="6.3412452"
       x2="4.7624998"
       y2="1.578745"
       gradientUnits="userSpaceOnUse" />
    <linearGradient
       inkscape:collect="always"
       xlink:href="#linearGradient4855"
       id="linearGradient5882"
       x1="5.5107417"
       y1="4.0778546"
       x2="5.5107422"
       y2="7.7820215"
       gradientUnits="userSpaceOnUse"
       gradientTransform="scale(3.7795275)" />
  </defs>
  <path
     id="rect18683"
     style="opacity:0.1;fill:#000000;stroke-width:0.264583;stroke-linejoin:round"
     d="m 2.38125,0.92604165 c -1.45520832,0 -1.984375,0.52916665 -1.984375,1.98437495 v 3.0427085 c 0,1.5875 0.52916665,2.1166666 2.1166666,2.1166666 h 3.4395833 c 1.5875,0 2.1166667,-0.5291666 2.1166667,-2.1166666 V 3.0427083 c 0,-1.5875 -0.5291667,-2.11666665 -2.1166667,-2.11666665 z"
     sodipodi:nodetypes="sssssssss" />
  <path
     id="rect6397"
     style="fill:url(#linearGradient1051);fill-opacity:1;stroke-width:0.255274;stroke-linejoin:round"
     d="M 0.39687499,2.6458334 C 0.396875,1.190625 0.92604165,0.66145833 2.38125,0.66145834 h 3.571875 c 1.5874999,-1e-8 2.1166666,0.52916666 2.1166668,2.11666666 l 10e-8,2.9104168 c 0,1.5874999 -0.529166,2.1166666 -2.116666,2.1166666 H 2.5135417 c -1.58750001,0 -2.11666671,-0.5291667 -2.11666671,-2.1166667 z"
     sodipodi:nodetypes="ccccccccc" />
  <path
     id="rect960"
     style="opacity:1;fill:url(#linearGradient2545);fill-opacity:1;stroke-width:0.264583;stroke-linejoin:round"
     d="M 3.7041667,0.66145834 V 7.8052082 h 2.2489582 c 1.5875,0 2.1166667,-0.5291667 2.1166667,-2.1166667 V 2.7781249 c 0,-1.5875 -0.5291667,-2.11666656 -2.1166667,-2.11666656 z"
     sodipodi:nodetypes="ccssssc" />
  <path
     id="path40"
     style="opacity:0.2;fill:#000000;stroke-width:0.999999"
     d="m 14.417969,10.5 c -0.09161,6.62e-4 -0.183186,0.0028 -0.275391,0.0059 -0.04781,0.0016 -0.09503,0.0053 -0.142578,0.0078 v 1.257812 c 0.04732,-0.0021 0.09458,-0.0043 0.142578,-0.0059 0.0663,-10e-4 0.133618,-0.0036 0.199219,-0.0039 4.132,-0.0127 6.830078,3.65039 6.830078,3.65039 0,0 -3.008322,4.175782 -6.232422,4.175782 -0.338236,0 -0.649914,-0.04089 -0.939453,-0.111329 v 1.181641 c 0.277967,0.03578 0.568136,0.05664 0.873047,0.05664 4.6007,0 9.015625,-5.369141 9.015625,-5.369141 0,0 -3.606759,-4.728978 -9.197266,-4.84375 -0.09017,-0.0019 -0.181824,-0.0026 -0.273437,-0.002 z m 0.123047,2.789062 c -0.185165,0 -0.364243,0.01 -0.541016,0.02344 v 1.416016 c 1.384873,0.254252 1.73739,0.994328 2.664062,2.539062 l 2.207032,-1.863281 c 0,0 -1.611878,-2.115235 -4.330078,-2.115235 z m 10.509765,4.044922 c -2.9985,2.587799 -6.095653,4.773438 -10.376953,4.773438 -0.231197,0 -0.454968,-0.01176 -0.673828,-0.03125 v 1.330078 c 0.241621,0.01751 0.487607,0.02734 0.740234,0.02734 3.766001,0 10.409266,-1.924047 13.259766,-4.310547 -0.4184,-0.424071 -2.452168,-1.390982 -2.949219,-1.789063 z"
     transform="scale(0.26458333)"
     sodipodi:nodetypes="sccccccsccscsssccccscsccscc" />
  <path
     d="m 3.8147542,2.5136085 c -0.024238,1.752e-4 -0.048468,7.409e-4 -0.072864,0.00156 -0.01265,4.234e-4 -0.025143,0.0014 -0.037724,0.00206 v 0.3328009 c 0.01252,-5.556e-4 0.025024,-0.00114 0.037724,-0.00156 0.017542,-2.646e-4 0.035353,-9.525e-4 0.05271,-0.00103 1.0932583,-0.00336 1.8071248,0.9658323 1.8071248,0.9658323 0,0 -0.7959519,1.1048424 -1.648995,1.1048424 -0.089492,10e-8 -0.1719564,-0.010819 -0.2485636,-0.029456 v 0.3126428 c 0.073545,0.00947 0.1503193,0.014986 0.2309937,0.014986 1.2172685,0 2.3853841,-1.4205852 2.3853841,-1.4205852 0,0 -0.9542883,-1.2512088 -2.4334433,-1.2815756 -0.023858,-5.027e-4 -0.048108,-6.879e-4 -0.072347,-5.291e-4 z m 0.032556,0.7379393 c -0.048992,0 -0.096373,0.00265 -0.1431438,0.0062 V 3.6324039 C 4.0705809,3.6996749 4.1638511,3.8954865 4.409033,4.3041974 L 4.9929769,3.8112043 c 0,0 -0.426476,-0.5596559 -1.1456667,-0.5596565 z m 2.7807087,1.070219 C 5.834666,5.0064553 5.0152109,5.584739 3.8824503,5.584739 c -0.061171,0 -0.120377,-0.00311 -0.1782837,-0.00827 v 0.3519165 c 0.063929,0.00463 0.1290127,0.00723 0.1958536,0.00723 0.9964211,0 2.7541183,-0.5090708 3.5083131,-1.1404989 C 7.2976316,4.6829199 6.7595305,4.4270913 6.6280191,4.3217657 Z"
     style="opacity:1;fill:url(#linearGradient5690);stroke-width:0.264583;fill-opacity:1"
     id="path5281" />
  <path
     id="path2290"
     style="opacity:0.3;fill:#000000;stroke-width:0.264583"
     d="m 14,10.513672 c -0.104829,0.0056 -0.209625,0.0115 -0.314453,0.01953 v 0.0098 C 8.4949471,10.959829 4.0000004,15.357422 4,15.357422 c 0,0 2.5459472,7.359403 9.685547,8.033203 v -0.01172 c 0.104218,0.01003 0.20885,0.01969 0.314453,0.02734 v -1.330078 c -0.105855,-0.0094 -0.2111,-0.0201 -0.314453,-0.0332 v 0.01172 C 8.4460468,21.395431 6.6523438,15.621094 6.6523438,15.621094 c 0,0 2.3470032,-3.462213 7.0332032,-3.820313 v -0.01172 c 0.104164,-0.0073 0.208781,-0.01291 0.314453,-0.01758 z m 0,2.798828 c -0.105507,0.008 -0.210725,0.01625 -0.314453,0.02734 -3.1577,0.341461 -5.0585939,2.449218 -5.0585939,2.449218 0,0 1.0987933,4.116266 5.0585939,4.822266 0.10265,0.01813 0.208021,0.03318 0.314453,0.04687 v -1.181641 c -0.107683,-0.0262 -0.212954,-0.05572 -0.314453,-0.08984 -2.2325,-0.750095 -2.958985,-3.355469 -2.958985,-3.355469 0,0 1.295825,-1.548509 2.953126,-1.349609 h 0.0059 c 0.110625,0.01337 0.21506,0.02863 0.314453,0.04687 z"
     transform="scale(0.26458333)"
     sodipodi:nodetypes="ccccccccccccccccccccccccccc" />
  <path
     d="m 3.7041662,2.5172285 c -0.027736,0.00148 -0.055463,0.00304 -0.083199,0.00517 v 0.00259 C 2.247621,2.6352829 1.058333,3.7988128 1.0583329,3.7988128 c 0,0 0.6736152,1.9471753 2.5626343,2.1254516 v -0.0031 c 0.027574,0.00265 0.055258,0.00521 0.083199,0.00723 V 5.5764807 c -0.028007,-0.00249 -0.055853,-0.00532 -0.083199,-0.00878 v 0.0031 C 2.2346828,5.3963606 1.7600988,3.8685672 1.7600988,3.8685672 c 0,0 0.620978,-0.9160438 1.8608684,-1.0107911 v -0.0031 c 0.02756,-0.00193 0.05524,-0.00342 0.083199,-0.00465 z m 0,0.7405232 c -0.027915,0.00212 -0.055754,0.0043 -0.083199,0.00723 -0.8354747,0.090345 -1.3384196,0.6480223 -1.3384196,0.6480223 0,0 0.2907223,1.0890954 1.3384196,1.2758912 0.027159,0.0048 0.055039,0.00878 0.083199,0.012401 V 4.8886574 C 3.6756751,4.8817274 3.6478222,4.8739144 3.6209672,4.8648874 3.030285,4.6664247 2.8380691,3.9770862 2.8380691,3.9770862 c 0,0 0.3428537,-0.4097097 0.781348,-0.3570841 h 0.00156 c 0.029269,0.00354 0.056901,0.00758 0.083199,0.012401 z"
     style="opacity:1;fill:url(#linearGradient5682);stroke-width:0.0700042;fill-opacity:1"
     id="path5509" />
  <path
     id="rect5794"
     style="opacity:0.2;fill:url(#linearGradient5882);fill-opacity:1;stroke-width:1.21307"
     d="M 1.5 14.412109 L 1.5 21.5 C 1.5 27.5 3.5 29.5 9.5 29.5 L 22.5 29.5 C 28.5 29.5 30.5 27.5 30.5 21.5 L 30.5 14.412109 L 1.5 14.412109 z "
     transform="scale(0.26458333)" />
  <path
     id="rect2545"
     style="opacity:0.4;fill:#000000;stroke-width:0.387914;stroke-linejoin:round"
     d="m 2.6458333,0.52916667 c -1.91822909,0 -2.38124997,0.4630208 -2.38124997,2.38124993 V 5.55625 c 0,1.8520831 0.52916735,2.38125 2.38124997,2.38125 h 3.175 c 1.8520841,0 2.3812499,-0.5291669 2.3812499,-2.38125 V 2.9104166 c 0,-1.8520832 -0.5291666,-2.38124988 -2.3812499,-2.38124993 z m 0,0.26458333 h 3.175 c 1.7197916,0 2.1166666,0.396875 2.1166666,2.1166666 V 5.55625 c 0,1.7197917 -0.3968753,2.1166666 -2.1166666,2.1166666 h -3.175 c -1.71979162,0 -2.11666664,-0.3968749 -2.11666664,-2.1166666 V 2.9104166 c 0,-1.7197916 0.39687505,-2.1166666 2.11666664,-2.1166666 z"
     sodipodi:nodetypes="ssssssssssssssssss" />
  <path
     id="rect13250"
     style="fill:url(#linearGradient16320);fill-opacity:1;stroke-width:0.264583;stroke-linejoin:round;opacity:1"
     d="m 2.6458333,0.79375 c -1.71979143,0 -2.11666664,0.396875 -2.11666664,2.1166666 v 2.6458335 c 0,1.7197919 0.39687515,2.1166666 2.11666664,2.1166666 h 3.175 c 1.7197913,0 2.1166666,-0.3968747 2.1166666,-2.1166666 V 2.9104166 C 7.9374999,1.190625 7.5406249,0.79375 5.8208333,0.79375 Z m 0,0.2645833 h 3.175 c 1.5213541,0 1.8520833,0.3307294 1.8520833,1.8520833 v 2.6458335 c 0,1.5213542 -0.3307292,1.8520833 -1.8520833,1.8520833 h -3.175 c -1.5213541,0 -1.85208331,-0.3307291 -1.85208331,-1.8520833 V 2.9104166 c 0,-1.521354 0.33072921,-1.8520834 1.85208331,-1.8520833 z"
     sodipodi:nodetypes="ssssssssssssssssss" />
</svg>
