<?xml version="1.0" encoding="UTF-8" standalone="no"?>
<!-- Created with Inkscape (http://www.inkscape.org/) -->

<svg
   width="32"
   height="32"
   viewBox="0 0 8.4666665 8.4666669"
   version="1.1"
   id="svg2719"
   inkscape:version="1.1.2 (0a00cf5339, 2022-02-04)"
   sodipodi:docname="preferences-desktop-font.svg"
   xmlns:inkscape="http://www.inkscape.org/namespaces/inkscape"
   xmlns:sodipodi="http://sodipodi.sourceforge.net/DTD/sodipodi-0.dtd"
   xmlns:xlink="http://www.w3.org/1999/xlink"
   xmlns="http://www.w3.org/2000/svg"
   xmlns:svg="http://www.w3.org/2000/svg">
  <sodipodi:namedview
     id="namedview2721"
     pagecolor="#ffffff"
     bordercolor="#666666"
     borderopacity="1.0"
     inkscape:pageshadow="2"
     inkscape:pageopacity="0.0"
     inkscape:pagecheckerboard="0"
     inkscape:document-units="px"
     showgrid="false"
     units="px"
     inkscape:zoom="17.500893"
     inkscape:cx="18.313351"
     inkscape:cy="20.284679"
     inkscape:window-width="1920"
     inkscape:window-height="1010"
     inkscape:window-x="0"
     inkscape:window-y="0"
     inkscape:window-maximized="1"
     inkscape:current-layer="svg2719" />
  <defs
     id="defs2716">
    <linearGradient
       inkscape:collect="always"
       id="linearGradient1871">
      <stop
         style="stop-color:#ffffff;stop-opacity:1;"
         offset="0"
         id="stop1867" />
      <stop
         style="stop-color:#ffffff;stop-opacity:0.1"
         offset="0.12"
         id="stop2515" />
      <stop
         style="stop-color:#ffffff;stop-opacity:0.102"
         offset="0.89999998"
         id="stop2581" />
      <stop
         style="stop-color:#ffffff;stop-opacity:0.502"
         offset="1"
         id="stop1869" />
    </linearGradient>
    <linearGradient
       inkscape:collect="always"
       xlink:href="#linearGradient1871"
       id="linearGradient16320"
       x1="10"
       y1="4"
       x2="10"
       y2="29.100245"
       gradientUnits="userSpaceOnUse"
       gradientTransform="matrix(0.26458333,0,0,0.26458333,0,-0.26458332)" />
  </defs>
  <path
     id="rect18683"
     style="opacity:0.1;fill:#000000;stroke-width:0.264583;stroke-linejoin:round"
     d="m 2.38125,0.92604165 c -1.45520832,0 -1.984375,0.52916665 -1.984375,1.98437495 v 3.0427085 c 0,1.5875 0.52916665,2.1166666 2.1166666,2.1166666 h 3.4395833 c 1.5875,0 2.1166667,-0.5291666 2.1166667,-2.1166666 V 3.0427083 c 0,-1.5875 -0.5291667,-2.11666665 -2.1166667,-2.11666665 z"
     sodipodi:nodetypes="sssssssss" />
  <path
     id="rect6397"
     style="fill:#f7f7f7;fill-opacity:1;stroke-width:0.255274;stroke-linejoin:round"
     d="M 0.39687499,2.6458334 C 0.396875,1.190625 0.92604165,0.66145833 2.38125,0.66145834 h 3.571875 c 1.5874999,-1e-8 2.1166666,0.52916666 2.1166668,2.11666666 l 10e-8,2.9104168 c 0,1.5874999 -0.529166,2.1166666 -2.116666,2.1166666 H 2.5135417 c -1.58750001,0 -2.11666671,-0.5291667 -2.11666671,-2.1166667 z"
     sodipodi:nodetypes="ccccccccc" />
  <path
     d="m 3.1818739,1.8520833 c -0.137033,0 -0.2548625,0.00955 -0.3535362,0.028736 -0.095925,0.019182 -0.1671849,0.039732 -0.213778,0.061659 l 0.036983,0.2343282 c 0.035626,-0.013679 0.091808,-0.031485 0.1685448,-0.053409 0.076737,-0.021907 0.1932517,-0.032927 0.3494617,-0.032927 0.1096248,0 0.1972918,0.017859 0.2630646,0.05348 0.068514,0.032888 0.120613,0.078137 0.1562418,0.1356862 0.038367,0.054814 0.063003,0.1178455 0.073964,0.1891004 0.010954,0.068519 0.016431,0.1397159 0.016431,0.2137119 v 0.1315667 c -0.01098,-0.00548 -0.031512,-0.010954 -0.061659,-0.016431 -0.027408,-0.00823 -0.061656,-0.015081 -0.1027642,-0.020532 -0.038367,-0.00823 -0.079468,-0.013679 -0.1233197,-0.016431 -0.041108,-0.00548 -0.080825,-0.00825 -0.1191947,-0.00825 -0.1288072,0 -0.2480205,0.012303 -0.3576373,0.036983 -0.1096248,0.024659 -0.2042028,0.064445 -0.2836864,0.1192557 -0.079481,0.052073 -0.1411287,0.119192 -0.1849781,0.2014087 -0.043852,0.082222 -0.065783,0.1808853 -0.065783,0.2959893 0,0.1205865 0.019182,0.223401 0.057536,0.3083722 0.041108,0.082217 0.095909,0.1507146 0.1644227,0.205528 0.071258,0.05207 0.1535192,0.090406 0.2467028,0.1150673 0.095922,0.024659 0.2000514,0.03705 0.31242,0.03705 0.087696,0 0.1726618,-0.00415 0.2548837,-0.012356 0.08496,-0.00548 0.1616895,-0.013705 0.230206,-0.024686 0.068514,-0.010954 0.1287806,-0.020479 0.1808533,-0.028734 0.05207,-0.010954 0.091853,-0.020558 0.1192556,-0.028797 V 2.6373084 c 0,-0.1123686 -0.013705,-0.2165614 -0.041103,-0.312473 C 3.8780006,2.2289135 3.8341327,2.1467154 3.7738394,2.0782015 3.7135462,2.0069466 3.6340495,1.9521461 3.5353863,1.9137762 3.4394643,1.8726679 3.3216348,1.8521151 3.1818501,1.8521151 Z m 1.523021,1.0716419 V 5.8322898 H 5.0167857 L 5.1140517,5.706745 c 0.1944529,0.1134269 0.3888846,0.1660604 0.5874015,0.1660604 0.5833533,0 0.9276291,-0.4334404 0.9276291,-1.02489 0,-0.5914496 -0.2389955,-1.0087239 -0.8385439,-1.0087239 -0.2309072,0 -0.4212961,0.056769 -0.5874015,0.1418404 V 2.9236776 Z m -1.440815,0.058843 c 0.115107,0 0.205539,0.00825 0.2713038,0.024686 0.065773,0.013679 0.1137206,0.0274 0.1438672,0.041103 v 0.7482152 c -0.054811,0.010954 -0.121928,0.020479 -0.2014035,0.028736 -0.076737,0.00548 -0.1671717,0.00826 -0.2713038,0.00826 -0.08496,0 -0.1616921,-0.00683 -0.2302086,-0.020532 C 2.9105622,3.7965745 2.8529968,3.7718926 2.8036627,3.7390049 2.7570748,3.7061171 2.7200596,3.662318 2.6926514,3.6075043 2.6679923,3.5526906 2.6556706,3.4855102 2.6556706,3.406032 c 0,-0.09044 0.019182,-0.1630891 0.057534,-0.2178976 0.03837,-0.054814 0.087704,-0.097232 0.147997,-0.1273783 0.060293,-0.032888 0.1260901,-0.053504 0.1973477,-0.061722 0.071257,-0.01098 0.1397529,-0.016431 0.2055283,-0.016431 z m 2.4049037,1.261798 c 0.3484034,0 0.4618567,0.2511742 0.4618567,0.6319573 0,0.3807883 -0.1782365,0.6036204 -0.5104342,0.6036204 -0.1620414,0 -0.2997993,-0.040484 -0.4172743,-0.1336569 V 4.3537822 C 5.3003582,4.3132745 5.4907339,4.2443426 5.6689836,4.2443426 Z M 3.2733139,4.7978483 c -0.20701,0 -0.3975365,0.032433 -0.5715529,0.097263 C 2.5277392,4.9599453 2.37762,5.0532294 2.2513609,5.1749351 2.1262473,5.2966435 2.0283805,5.4456303 1.9578585,5.6219222 1.8873391,5.7982194 1.8520833,5.9972866 1.8520833,6.2190603 c 0,0.1387634 0.021643,0.2649802 0.064865,0.3787246 0.043222,0.1137391 0.1068971,0.2109761 0.1910663,0.2917296 0.084169,0.080751 0.1882431,0.1433618 0.3122084,0.1877219 0.1239653,0.04436 0.2673349,0.066503 0.4299743,0.066503 0.076208,0 0.1529953,-0.00452 0.2303383,-0.0136 0.077346,-0.00796 0.1523735,-0.018838 0.2251683,-0.032467 0.072792,-0.014764 0.1416103,-0.031284 0.2064438,-0.049482 0.065971,-0.018177 0.1256903,-0.036957 0.179152,-0.056293 L 3.7953712,6.4545025 H 3.6844896 L 3.561633,6.7974289 c -0.035261,0.0273 -0.077356,0.053459 -0.1262645,0.078483 -0.048908,0.023892 -0.1029202,0.045463 -0.1620678,0.064802 -0.058005,0.019341 -0.1205521,0.034705 -0.1876584,0.046077 -0.067109,0.011377 -0.135927,0.017066 -0.2064464,0.017066 -0.1217057,0 -0.2257769,-0.018759 -0.3122083,-0.056293 C 2.480543,6.9100309 2.4094679,6.8582759 2.3537335,6.7923069 2.297999,6.7251979 2.2570335,6.645524 2.2308742,6.5533934 c -0.02503,-0.092131 -0.037571,-0.192188 -0.037571,-0.3002491 0,-0.2001838 0.026789,-0.3816086 0.080248,-0.544248 0.053456,-0.1626529 0.1273572,-0.3014136 0.2217631,-0.4162957 0.095544,-0.1148821 0.2087139,-0.2030174 0.3395134,-0.2644404 0.130802,-0.062558 0.2735791,-0.093861 0.428281,-0.093861 0.1091909,0 0.2138309,0.013679 0.3139281,0.040971 0.1000945,0.026167 0.1853459,0.063675 0.2558653,0.1125855 v 0.2969152 h 0.110948 L 4.0206295,4.8848142 C 3.9193999,4.86206 3.8084866,4.8421819 3.687916,4.8251189 3.5673507,4.806942 3.4291508,4.7978271 3.2733139,4.7978271 Z"
     style="fill:#ffffff;stroke-width:0.0700042;enable-background:new"
     id="path1013" />
  <path
     d="m 3.1818739,1.5875 c -0.137033,0 -0.2548625,0.00955 -0.3535362,0.028736 -0.095925,0.019182 -0.167185,0.039732 -0.2137781,0.061659 l 0.036983,0.2343282 c 0.035626,-0.013679 0.091808,-0.031485 0.1685448,-0.053409 0.076737,-0.021907 0.1932517,-0.032927 0.3494617,-0.032927 0.1096248,0 0.1972919,0.017859 0.2630646,0.05348 0.068514,0.032888 0.120613,0.078137 0.1562418,0.1356862 0.038367,0.054814 0.063003,0.1178455 0.073964,0.1891004 0.010954,0.068519 0.016431,0.1397159 0.016431,0.2137119 v 0.1315667 c -0.01098,-0.00548 -0.031512,-0.010954 -0.061659,-0.016431 -0.027408,-0.00823 -0.061656,-0.015081 -0.1027642,-0.020532 -0.038367,-0.00823 -0.079468,-0.013679 -0.1233196,-0.016431 -0.041108,-0.00548 -0.080825,-0.00825 -0.1191948,-0.00825 -0.1288071,0 -0.2480204,0.012303 -0.3576373,0.036983 -0.1096248,0.024659 -0.2042028,0.064445 -0.2836863,0.1192557 -0.079481,0.052073 -0.1411287,0.1191922 -0.1849781,0.2014088 -0.043852,0.082222 -0.065783,0.1808851 -0.065783,0.2959894 0,0.1205865 0.019182,0.2234009 0.057536,0.3083719 0.041108,0.082217 0.095909,0.1507146 0.1644227,0.2055283 0.071258,0.05207 0.1535192,0.090406 0.2467028,0.1150673 0.095922,0.024659 0.2000514,0.03705 0.31242,0.03705 0.087696,0 0.1726618,-0.00415 0.2548837,-0.012356 0.08496,-0.00548 0.1616895,-0.013705 0.230206,-0.024686 0.068514,-0.010954 0.1287806,-0.020479 0.1808533,-0.028734 0.05207,-0.010954 0.091853,-0.020558 0.1192556,-0.028797 V 2.3727251 c 0,-0.1123685 -0.013705,-0.2165614 -0.041103,-0.3124729 C 3.8780006,1.9643302 3.8341327,1.8821321 3.7738394,1.8136182 3.7135462,1.7423633 3.6340495,1.6875628 3.5353863,1.6491929 3.4394643,1.6080846 3.3216347,1.5875318 3.1818501,1.5875318 Z m 1.523021,1.0716419 v 2.9085646 h 0.3118908 l 0.097266,-0.1255448 c 0.1944528,0.1134269 0.3888846,0.1660604 0.5874014,0.1660604 0.5833533,0 0.9276292,-0.4334404 0.9276292,-1.0248899 0,-0.5914496 -0.2389955,-1.008724 -0.838544,-1.008724 -0.2309071,0 -0.421296,0.056769 -0.5874014,0.1418405 V 2.6590942 Z m -1.440815,0.058843 c 0.115107,0 0.205539,0.00825 0.2713038,0.024686 0.065773,0.013679 0.1137205,0.0274 0.1438672,0.041103 v 0.7482152 c -0.054811,0.010954 -0.121928,0.020479 -0.2014035,0.028736 -0.076737,0.00548 -0.1671717,0.00826 -0.2713038,0.00826 -0.08496,0 -0.1616921,-0.00683 -0.2302086,-0.020532 C 2.9105622,3.5319918 2.8529968,3.5073088 2.8036626,3.4744211 2.7570748,3.4415334 2.7200596,3.3977342 2.6926514,3.3429205 2.6679922,3.2881068 2.6556706,3.2209264 2.6556706,3.1414483 c 0,-0.09044 0.019182,-0.1630892 0.057534,-0.2178976 0.03837,-0.054814 0.087704,-0.097232 0.1479973,-0.1273784 0.060293,-0.032888 0.1260899,-0.053504 0.1973475,-0.061722 0.071257,-0.01098 0.1397529,-0.016431 0.2055283,-0.016431 z m 2.4049038,1.2617979 c 0.3484033,0 0.4618566,0.2511742 0.4618566,0.6319573 0,0.3807883 -0.1782365,0.6036204 -0.5104341,0.6036204 -0.1620415,0 -0.2997994,-0.040484 -0.4172744,-0.1336569 V 4.089199 C 5.3003582,4.0486913 5.4907339,3.9797594 5.6689837,3.9797594 Z M 3.2733139,4.533265 c -0.20701,0 -0.3975365,0.032433 -0.5715529,0.097263 C 2.5277392,4.695362 2.3776199,4.7886462 2.2513608,4.9103519 2.1262472,5.0320602 2.0283804,5.1810471 1.9578584,5.3573389 1.887339,5.5336361 1.8520833,5.7327033 1.8520833,5.9544771 c 0,0.1387633 0.021643,0.2649802 0.064865,0.3787245 0.043222,0.1137391 0.106897,0.2109761 0.1910662,0.2917296 0.084169,0.080751 0.1882432,0.1433618 0.3122085,0.1877219 0.1239652,0.04436 0.267335,0.066503 0.4299743,0.066503 0.076208,0 0.1529953,-0.00452 0.2303383,-0.0136 0.077346,-0.00796 0.1523736,-0.018838 0.2251684,-0.032467 0.072792,-0.014764 0.1416103,-0.031284 0.2064438,-0.049482 0.065971,-0.018177 0.1256903,-0.036957 0.179152,-0.056293 L 3.7953712,6.1899192 H 3.6844896 L 3.561633,6.5328456 c -0.035261,0.0273 -0.077356,0.053459 -0.1262645,0.078483 -0.048908,0.023892 -0.1029202,0.045463 -0.1620678,0.064802 -0.058005,0.019341 -0.1205521,0.034705 -0.1876584,0.046077 -0.067109,0.011377 -0.135927,0.017066 -0.2064464,0.017066 -0.1217057,0 -0.2257769,-0.018759 -0.3122084,-0.056293 C 2.4805429,6.645447 2.4094678,6.5936919 2.3537334,6.5277233 2.2979989,6.4606144 2.2570334,6.3809404 2.2308741,6.2888098 c -0.02503,-0.092131 -0.037571,-0.192188 -0.037571,-0.3002491 0,-0.2001838 0.026789,-0.3816086 0.080248,-0.5442479 0.053456,-0.1626526 0.1273572,-0.3014134 0.2217632,-0.4162954 0.095544,-0.1148821 0.2087139,-0.2030175 0.3395133,-0.2644405 0.130802,-0.062558 0.2735791,-0.093861 0.428281,-0.093861 0.1091909,0 0.213831,0.013679 0.3139281,0.040971 0.1000946,0.026167 0.185346,0.063675 0.2558653,0.1125855 V 5.1201876 H 3.9438501 L 4.0206295,4.6202309 C 3.9193999,4.5974768 3.8084866,4.5775986 3.687916,4.5605357 3.5673506,4.5423588 3.4291508,4.5332439 3.2733139,4.5332439 Z"
     style="fill:#5d5d5d;stroke-width:0.264583;enable-background:new"
     id="path872"
     sodipodi:nodetypes="cccccscccsccccsccsscccsccccscccccccccsssccccccccscccsccccccssccccccccsccssccccccccccscccscccscccccccc" />
  <path
     id="rect13250"
     style="fill:url(#linearGradient16320);fill-opacity:1;stroke-width:0.264583;stroke-linejoin:round;opacity:0.7"
     d="m 2.6458333,0.79375 c -1.71979143,0 -2.11666664,0.396875 -2.11666664,2.1166666 v 2.6458335 c 0,1.7197919 0.39687515,2.1166666 2.11666664,2.1166666 h 3.175 c 1.7197913,0 2.1166666,-0.3968747 2.1166666,-2.1166666 V 2.9104166 C 7.9374999,1.190625 7.5406249,0.79375 5.8208333,0.79375 Z m 0,0.2645833 h 3.175 c 1.5213541,0 1.8520833,0.3307294 1.8520833,1.8520833 v 2.6458335 c 0,1.5213542 -0.3307292,1.8520833 -1.8520833,1.8520833 h -3.175 c -1.5213541,0 -1.85208331,-0.3307291 -1.85208331,-1.8520833 V 2.9104166 c 0,-1.521354 0.33072921,-1.8520834 1.85208331,-1.8520833 z"
     sodipodi:nodetypes="ssssssssssssssssss" />
  <path
     id="rect2545"
     style="opacity:0.4;fill:#000000;stroke-width:0.387914;stroke-linejoin:round"
     d="m 2.6458333,0.52916667 c -1.91822909,0 -2.38124997,0.4630208 -2.38124997,2.38124993 V 5.55625 c 0,1.8520831 0.52916735,2.38125 2.38124997,2.38125 h 3.175 c 1.8520841,0 2.3812499,-0.5291669 2.3812499,-2.38125 V 2.9104166 c 0,-1.8520832 -0.5291666,-2.38124988 -2.3812499,-2.38124993 z m 0,0.26458333 h 3.175 c 1.7197916,0 2.1166666,0.396875 2.1166666,2.1166666 V 5.55625 c 0,1.7197917 -0.3968753,2.1166666 -2.1166666,2.1166666 h -3.175 c -1.71979162,0 -2.11666664,-0.3968749 -2.11666664,-2.1166666 V 2.9104166 c 0,-1.7197916 0.39687505,-2.1166666 2.11666664,-2.1166666 z"
     sodipodi:nodetypes="ssssssssssssssssss" />
</svg>
