<?xml version="1.0" encoding="UTF-8" standalone="no"?>
<!-- Created with Inkscape (http://www.inkscape.org/) -->

<svg
   width="32"
   height="32"
   viewBox="0 0 8.4666665 8.4666669"
   version="1.1"
   id="svg2719"
   inkscape:version="1.1.2 (0a00cf5339, 2022-02-04)"
   sodipodi:docname="preferences-system-notifications.svg"
   xmlns:inkscape="http://www.inkscape.org/namespaces/inkscape"
   xmlns:sodipodi="http://sodipodi.sourceforge.net/DTD/sodipodi-0.dtd"
   xmlns:xlink="http://www.w3.org/1999/xlink"
   xmlns="http://www.w3.org/2000/svg"
   xmlns:svg="http://www.w3.org/2000/svg">
  <sodipodi:namedview
     id="namedview2721"
     pagecolor="#ffffff"
     bordercolor="#666666"
     borderopacity="1.0"
     inkscape:pageshadow="2"
     inkscape:pageopacity="0.0"
     inkscape:pagecheckerboard="0"
     inkscape:document-units="px"
     showgrid="false"
     units="px"
     inkscape:zoom="18.075417"
     inkscape:cx="10.815795"
     inkscape:cy="11.452018"
     inkscape:window-width="1851"
     inkscape:window-height="1053"
     inkscape:window-x="0"
     inkscape:window-y="0"
     inkscape:window-maximized="1"
     inkscape:current-layer="svg2719" />
  <defs
     id="defs2716">
    <linearGradient
       inkscape:collect="always"
       id="linearGradient1596">
      <stop
         style="stop-color:#aea795;stop-opacity:1;"
         offset="0"
         id="stop1592" />
      <stop
         style="stop-color:#c8c4b7;stop-opacity:1"
         offset="1"
         id="stop1594" />
    </linearGradient>
    <linearGradient
       inkscape:collect="always"
       id="linearGradient1871">
      <stop
         style="stop-color:#ffffff;stop-opacity:1;"
         offset="0"
         id="stop1867" />
      <stop
         style="stop-color:#ffffff;stop-opacity:0.1"
         offset="0.12"
         id="stop2515" />
      <stop
         style="stop-color:#ffffff;stop-opacity:0.102"
         offset="0.89999998"
         id="stop2581" />
      <stop
         style="stop-color:#ffffff;stop-opacity:0.502"
         offset="1"
         id="stop1869" />
    </linearGradient>
    <linearGradient
       inkscape:collect="always"
       xlink:href="#linearGradient1871"
       id="linearGradient16320"
       x1="10"
       y1="4"
       x2="10"
       y2="29.100245"
       gradientUnits="userSpaceOnUse"
       gradientTransform="matrix(0.26458333,0,0,0.26458333,0,-0.26458332)" />
    <linearGradient
       inkscape:collect="always"
       xlink:href="#linearGradient1596"
       id="linearGradient1598"
       x1="2.6458333"
       y1="0.5291667"
       x2="5.8208332"
       y2="7.8052082"
       gradientUnits="userSpaceOnUse" />
    <linearGradient
       inkscape:collect="always"
       xlink:href="#linearGradient4356"
       id="linearGradient4358"
       x1="5.8208442"
       y1="5.7723732"
       x2="5.8208494"
       y2="2.5973732"
       gradientUnits="userSpaceOnUse"
       gradientTransform="matrix(3.7795275,0,0,3.7795275,1.8543307e-5,-0.49999997)" />
    <linearGradient
       inkscape:collect="always"
       id="linearGradient4356">
      <stop
         style="stop-color:#f3e6d1;stop-opacity:1"
         offset="0"
         id="stop4352" />
      <stop
         style="stop-color:#f7f4ee;stop-opacity:0.94769877"
         offset="1"
         id="stop4354" />
    </linearGradient>
    <linearGradient
       inkscape:collect="always"
       xlink:href="#linearGradient4110"
       id="linearGradient4112"
       x1="3.4958868"
       y1="2.3536298"
       x2="3.4958339"
       y2="6.0578227"
       gradientUnits="userSpaceOnUse"
       gradientTransform="matrix(3.7795275,0,0,3.7795275,1.8543307e-5,-0.49999997)" />
    <linearGradient
       inkscape:collect="always"
       id="linearGradient4110">
      <stop
         style="stop-color:#fdfdfb;stop-opacity:1;"
         offset="0"
         id="stop4106" />
      <stop
         style="stop-color:#f0e9de;stop-opacity:1"
         offset="1"
         id="stop4108" />
    </linearGradient>
    <linearGradient
       inkscape:collect="always"
       xlink:href="#linearGradient4356"
       id="linearGradient1311"
       x1="1.74625"
       y1="3.1996591"
       x2="3.5983386"
       y2="3.1996591"
       gradientUnits="userSpaceOnUse"
       gradientTransform="translate(-0.02645833,-0.05291662)" />
  </defs>
  <path
     id="rect18683"
     style="opacity:0.1;fill:#000000;stroke-width:0.264583;stroke-linejoin:round"
     d="m 2.38125,0.92604165 c -1.45520832,0 -1.984375,0.52916665 -1.984375,1.98437495 v 3.0427085 c 0,1.5875 0.52916665,2.1166666 2.1166666,2.1166666 h 3.4395833 c 1.5875,0 2.1166667,-0.5291666 2.1166667,-2.1166666 V 3.0427083 c 0,-1.5875 -0.5291667,-2.11666665 -2.1166667,-2.11666665 z"
     sodipodi:nodetypes="sssssssss" />
  <path
     id="rect6397"
     style="fill:url(#linearGradient1598);fill-opacity:1;stroke-width:0.255274;stroke-linejoin:round"
     d="M 0.39687499,2.6458334 C 0.396875,1.190625 0.92604165,0.66145833 2.38125,0.66145834 h 3.571875 c 1.5874999,-1e-8 2.1166666,0.52916666 2.1166668,2.11666666 l 10e-8,2.9104168 c 0,1.5874999 -0.529166,2.1166666 -2.116666,2.1166666 H 2.5135417 c -1.58750001,0 -2.11666671,-0.5291667 -2.11666671,-2.1166667 z"
     sodipodi:nodetypes="ccccccccc" />
  <path
     id="path990-3"
     style="opacity:0.1;fill:#000000;fill-opacity:1;stroke-width:0.264583;enable-background:new"
     d="M 2.1502563,2.5137139 C 1.9376993,2.5177239 1.7931143,2.5728889 1.716691,2.6646091 1.631085,2.7665213 1.5875,2.9335134 1.5875,3.1658705 c 0,0.7665337 0,1.5330674 0,2.2996011 v 0.081649 c 0,0.2323597 0.043582,0.3998608 0.129191,0.5017783 0.081529,0.097835 0.2405472,0.1477944 0.4769736,0.1477944 h 0.5612061 l 0.7405232,0.5229654 0.74104,-0.5229656 h 2.0360513 c 0.2364372,0 0.395429,-0.049959 0.4769736,-0.1477944 0.085603,-0.1019151 0.1297077,-0.2694212 0.1297077,-0.5017783 0,-0.79375 0,-1.5875 0,-2.3812499 0,-0.2323597 -0.044104,-0.3993703 -0.1297077,-0.5012614 C 6.6679277,2.5667741 6.5089147,2.5137139 6.2724852,2.5137139 H 3.2675009 2.1936646 c -0.014777,-1.885e-4 -0.029238,-2.672e-4 -0.043408,0 z"
     sodipodi:nodetypes="scccscscccsccccsccs" />
  <path
     id="path1143"
     style="fill:url(#linearGradient4358);fill-opacity:1;stroke-width:0.999999;enable-background:new"
     d="M 15.566406 14.238281 A 5.9999999 5.9999999 0 0 1 10 18 A 5.9999999 5.9999999 0 0 1 6 16.466797 L 6 19.964844 C 6 20.843054 6.1666728 21.476128 6.4902344 21.861328 C 6.7983755 22.231098 7.3974355 22.419922 8.2910156 22.419922 L 10.414062 22.419922 L 13.212891 24.396484 L 16.011719 22.419922 L 23.708984 22.419922 C 24.602605 22.419922 25.203519 22.2311 25.511719 21.861328 C 25.835259 21.476138 26 20.843044 26 19.964844 L 26 14.238281 L 15.566406 14.238281 z "
     transform="scale(0.26458333)" />
  <path
     id="path990"
     style="fill:url(#linearGradient4112);fill-opacity:1;stroke-width:0.999999;enable-background:new"
     d="M 14.873047 8.5 A 5.9999999 5.9999999 0 0 1 16 12 A 5.9999999 5.9999999 0 0 1 10 18 A 5.9999999 5.9999999 0 0 1 6 16.466797 L 6 19.65625 L 10.414062 22.419922 L 13.212891 24.396484 L 16.011719 22.419922 L 26 15.232422 L 26 10.964844 C 26 10.086634 25.833308 9.4554127 25.509766 9.0703125 C 25.201617 8.7005424 24.602576 8.5 23.708984 8.5 L 14.873047 8.5 z "
     transform="scale(0.26458333)" />
  <circle
     style="fill:#f64040;stroke-width:0.287073;fill-opacity:1"
     id="path1078"
     cx="2.6458333"
     cy="3.175"
     r="1.3229166" />
  <path
     d="m 2.4440172,2.197743 h 0.391795 l -0.02376,0.5224197 c -0.00124,0.00787 -0.00124,0.015888 0,0.02376 -3.175e-4,0.00395 -3.175e-4,0.00791 0,0.011853 0.00757,0.022362 0.02513,0.039922 0.047493,0.047493 0.00394,3.175e-4 0.00791,3.175e-4 0.011853,0 0.00787,0.00124 0.015888,0.00124 0.02376,0 0.00787,0.00124 0.015888,0.00124 0.02376,0 0.00438,-0.0035 0.00835,-0.00748 0.011853,-0.011853 L 3.3700588,2.5064588 3.560027,2.8507611 3.0969797,3.0882193 c -0.00394,-3.175e-4 -0.00791,-3.175e-4 -0.011853,0 -0.00438,0.0035 -0.00835,0.00748 -0.011853,0.011853 -0.00687,0.010686 -0.010949,0.022926 -0.011853,0.0356 -0.00124,0.00787 -0.00124,0.015888 0,0.02376 -3.175e-4,0.00395 -3.175e-4,0.00791 0,0.011853 0.00251,0.00856 0.00654,0.0166 0.011853,0.02376 0.0035,0.00438 0.00748,0.00835 0.011853,0.011853 0.0035,0.00438 0.00748,0.00835 0.011853,0.011853 L 3.5718803,3.4562071 3.3700403,3.8005094 2.9307526,3.5037792 c -0.00394,-3.175e-4 -0.00791,-3.175e-4 -0.011853,0 -0.00716,-0.00532 -0.015203,-0.00933 -0.02376,-0.011853 -0.00787,-0.00124 -0.015888,-0.00124 -0.02376,0 -0.020013,0.00492 -0.03716,0.017775 -0.047493,0.035605 -0.00438,0.0035 -0.00835,0.00748 -0.011853,0.011853 -3.175e-4,0.00394 -3.175e-4,0.00791 0,0.011853 -0.00124,0.00787 -0.00124,0.015888 0,0.02376 l 0.02376,0.5224462 h -0.391795 l 0.035605,-0.5223933 c -9.049e-4,-0.012674 -0.00498,-0.024913 -0.011853,-0.0356 -0.00252,-0.00856 -0.00654,-0.0166 -0.011853,-0.02376 -0.00716,-0.00532 -0.015204,-0.00933 -0.02376,-0.011853 -0.00716,-0.00532 -0.015204,-0.00933 -0.02376,-0.011853 -0.00394,-3.175e-4 -0.00791,-3.175e-4 -0.011853,0 -0.012673,8.996e-4 -0.024914,0.00498 -0.0356,0.011853 L 1.9097573,3.800647 1.7197917,3.4563447 2.1947188,3.2188864 c 0.00438,-0.0035 0.00835,-0.00748 0.011853,-0.011853 0.00438,-0.0035 0.00835,-0.00748 0.011853,-0.011853 0.00532,-0.00716 0.00933,-0.015203 0.011853,-0.02376 3.096e-4,-0.00394 3.096e-4,-0.00791 0,-0.011853 0.00125,-0.00787 0.00125,-0.015888 0,-0.02376 3.096e-4,-0.00395 3.096e-4,-0.00791 0,-0.011853 -0.00252,-0.00856 -0.00654,-0.0166 -0.011853,-0.02376 -0.0035,-0.00438 -0.00748,-0.00835 -0.011853,-0.011853 -0.00394,-3.175e-4 -0.00791,-3.175e-4 -0.011853,0 L 1.7197917,2.8508854 1.9097573,2.5065567 2.3609248,2.7915129 c 0.0035,0.00438 0.00748,0.00835 0.011853,0.011853 0.00787,0.00124 0.015889,0.00124 0.02376,0 0.00787,0.00124 0.015889,0.00124 0.02376,0 0.00394,3.175e-4 0.00791,3.175e-4 0.011853,0 0.00438,-0.0035 0.00835,-0.00748 0.011853,-0.011853 0.00438,-0.0035 0.00835,-0.00748 0.011853,-0.011853 0.00438,-0.0035 0.00835,-0.00748 0.011853,-0.011853 3.096e-4,-0.00394 3.096e-4,-0.00791 0,-0.011853 0.00532,-0.00716 0.00933,-0.015203 0.011853,-0.02376 3.096e-4,-0.00394 3.096e-4,-0.00791 0,-0.011853 L 2.4453665,2.1960417 Z"
     style="fill:url(#linearGradient1311);fill-opacity:1;stroke-width:0.379942;enable-background:new"
     id="path904" />
  <path
     id="rect13250"
     style="fill:url(#linearGradient16320);fill-opacity:1;stroke-width:0.264583;stroke-linejoin:round;opacity:0.7"
     d="m 2.6458333,0.79375 c -1.71979143,0 -2.11666664,0.396875 -2.11666664,2.1166666 v 2.6458335 c 0,1.7197919 0.39687515,2.1166666 2.11666664,2.1166666 h 3.175 c 1.7197913,0 2.1166666,-0.3968747 2.1166666,-2.1166666 V 2.9104166 C 7.9374999,1.190625 7.5406249,0.79375 5.8208333,0.79375 Z m 0,0.2645833 h 3.175 c 1.5213541,0 1.8520833,0.3307294 1.8520833,1.8520833 v 2.6458335 c 0,1.5213542 -0.3307292,1.8520833 -1.8520833,1.8520833 h -3.175 c -1.5213541,0 -1.85208331,-0.3307291 -1.85208331,-1.8520833 V 2.9104166 c 0,-1.521354 0.33072921,-1.8520834 1.85208331,-1.8520833 z"
     sodipodi:nodetypes="ssssssssssssssssss" />
  <path
     id="rect2545"
     style="opacity:0.4;fill:#000000;stroke-width:0.387914;stroke-linejoin:round"
     d="m 2.6458333,0.52916667 c -1.91822909,0 -2.38124997,0.4630208 -2.38124997,2.38124993 V 5.55625 c 0,1.8520831 0.52916735,2.38125 2.38124997,2.38125 h 3.175 c 1.8520841,0 2.3812499,-0.5291669 2.3812499,-2.38125 V 2.9104166 c 0,-1.8520832 -0.5291666,-2.38124988 -2.3812499,-2.38124993 z m 0,0.26458333 h 3.175 c 1.7197916,0 2.1166666,0.396875 2.1166666,2.1166666 V 5.55625 c 0,1.7197917 -0.3968753,2.1166666 -2.1166666,2.1166666 h -3.175 c -1.71979162,0 -2.11666664,-0.3968749 -2.11666664,-2.1166666 V 2.9104166 c 0,-1.7197916 0.39687505,-2.1166666 2.11666664,-2.1166666 z"
     sodipodi:nodetypes="ssssssssssssssssss" />
</svg>
