<?xml version="1.0" encoding="UTF-8" standalone="no"?>
<!-- Created with Inkscape (http://www.inkscape.org/) -->

<svg
   width="32"
   height="32"
   viewBox="0 0 8.4666665 8.4666669"
   version="1.1"
   id="svg2719"
   inkscape:version="1.1.2 (0a00cf5339, 2022-02-04)"
   sodipodi:docname="sudoku.svg"
   xmlns:inkscape="http://www.inkscape.org/namespaces/inkscape"
   xmlns:sodipodi="http://sodipodi.sourceforge.net/DTD/sodipodi-0.dtd"
   xmlns:xlink="http://www.w3.org/1999/xlink"
   xmlns="http://www.w3.org/2000/svg"
   xmlns:svg="http://www.w3.org/2000/svg">
  <sodipodi:namedview
     id="namedview2721"
     pagecolor="#ffffff"
     bordercolor="#666666"
     borderopacity="1.0"
     inkscape:pageshadow="2"
     inkscape:pageopacity="0.0"
     inkscape:pagecheckerboard="0"
     inkscape:document-units="px"
     showgrid="false"
     units="px"
     inkscape:zoom="18.075417"
     inkscape:cx="4.2322675"
     inkscape:cy="19.197344"
     inkscape:window-width="1920"
     inkscape:window-height="1010"
     inkscape:window-x="0"
     inkscape:window-y="0"
     inkscape:window-maximized="1"
     inkscape:current-layer="svg2719" />
  <defs
     id="defs2716">
    <linearGradient
       inkscape:collect="always"
       id="linearGradient1871">
      <stop
         style="stop-color:#ffffff;stop-opacity:1;"
         offset="0"
         id="stop1867" />
      <stop
         style="stop-color:#ffffff;stop-opacity:0.1"
         offset="0.12"
         id="stop2515" />
      <stop
         style="stop-color:#ffffff;stop-opacity:0.102"
         offset="0.89999998"
         id="stop2581" />
      <stop
         style="stop-color:#ffffff;stop-opacity:0.502"
         offset="1"
         id="stop1869" />
    </linearGradient>
    <linearGradient
       inkscape:collect="always"
       xlink:href="#linearGradient1871"
       id="linearGradient16320"
       x1="10"
       y1="4"
       x2="10"
       y2="29.100245"
       gradientUnits="userSpaceOnUse"
       gradientTransform="matrix(0.26458333,0,0,0.26458333,0,-0.26458332)" />
  </defs>
  <path
     id="rect18683"
     style="opacity:0.1;fill:#000000;stroke-width:0.264583;stroke-linejoin:round"
     d="m 2.38125,0.92604165 c -1.45520832,0 -1.984375,0.52916665 -1.984375,1.98437495 v 3.0427085 c 0,1.5875 0.52916665,2.1166666 2.1166666,2.1166666 h 3.4395833 c 1.5875,0 2.1166667,-0.5291666 2.1166667,-2.1166666 V 3.0427083 c 0,-1.5875 -0.5291667,-2.11666665 -2.1166667,-2.11666665 z"
     sodipodi:nodetypes="sssssssss" />
  <path
     id="rect6397"
     style="fill:#e7e7df;fill-opacity:1;stroke-width:0.255274;stroke-linejoin:round"
     d="M 0.39687499,2.6458334 C 0.396875,1.190625 0.92604165,0.66145833 2.38125,0.66145834 h 3.571875 c 1.5874999,-1e-8 2.1166666,0.52916666 2.1166668,2.11666666 l 10e-8,2.9104168 c 0,1.5874999 -0.529166,2.1166666 -2.116666,2.1166666 H 2.5135417 c -1.58750001,0 -2.11666671,-0.5291667 -2.11666671,-2.1166667 z"
     sodipodi:nodetypes="ccccccccc" />
  <path
     id="rect26"
     d="M 2.9104166,1.0583333 V 2.9104167 H 1.0583333 V 3.175 H 2.9104166 V 5.2916666 H 1.0583333 V 5.55625 H 2.9104166 V 7.4083333 H 3.175 V 5.55625 H 5.2916666 V 7.4083333 H 5.5562499 V 5.55625 H 7.4083332 V 5.2916666 H 5.5562499 V 3.175 H 7.4083332 V 2.9104167 H 5.5562499 V 1.0583333 H 5.2916666 V 2.9104167 H 3.175 V 1.0583333 Z M 1.561145,1.2965617 v 0.2067057 h 0.5860107 c -0.038418,0.053748 -0.076435,0.1106305 -0.1152384,0.1855184 -0.04786,0.090925 -0.091751,0.1903339 -0.1312581,0.298173 -0.039505,0.106396 -0.073227,0.2168672 -0.1018026,0.3317627 v 5.16e-4 c -0.027301,0.1138203 -0.044814,0.2216824 -0.051677,0.3245288 l -0.00155,0.028422 h 0.027905 0.1968872 l 0.00207,-0.024805 c 0.00798,-0.116556 0.027238,-0.2331422 0.057878,-0.3498493 0.030747,-0.1185202 0.066695,-0.2290351 0.1080037,-0.3317627 v -5.159e-4 c 0.042792,-0.1043973 0.087809,-0.1982996 0.1343588,-0.2811206 0.04676,-0.083195 0.090105,-0.1487593 0.129191,-0.1968873 l 0.00568,-0.00775 V 1.2965617 Z m 2.6742552,0 -0.00775,0.00879 C 4.1693742,1.3706401 4.106256,1.4243326 4.0385132,1.4670939 3.9699942,1.5089175 3.8998199,1.5436291 3.8271566,1.5714803 l -0.025839,0.010335 0.010851,0.024805 0.066146,0.1545126 0.022738,-0.00672 c 0.028759,-0.00888 0.058369,-0.019879 0.088367,-0.033073 0.029565,-0.013003 0.057484,-0.026839 0.084233,-0.041341 l 5.291e-4,-5.159e-4 c 0.028098,-0.014479 0.053895,-0.029208 0.076481,-0.043925 0.00707,-0.00475 0.01162,-0.0093 0.018087,-0.013953 V 2.4696177 H 3.8757431 V 2.6721893 H 4.6565737 V 2.4696167 H 4.4007648 V 1.2965617 Z M 3.175,3.175 H 5.2916666 V 5.2916666 H 3.175 Z m 3.6416381,0.3700034 -0.024289,5.291e-4 c -0.1125501,0.00143 -0.2143707,0.019717 -0.304891,0.05581 -0.090381,0.036039 -0.168257,0.088482 -0.2325439,0.1565796 C 6.1918452,3.8262141 6.1431595,3.9110177 6.10867,4.0111365 h -5.292e-4 v 5.292e-4 c -0.033255,0.099121 -0.049609,0.2122477 -0.049609,0.3395141 0,0.1743586 0.034851,0.3135956 0.107487,0.4154787 0.07321,0.1026874 0.1871366,0.1545124 0.3312459,0.1545124 0.070274,0 0.1323308,-0.013004 0.1850014,-0.040307 l 5.292e-4,-5.292e-4 c 0.051119,-0.02797 0.093442,-0.063616 0.1266074,-0.10697 h 5.291e-4 v -5.291e-4 c 0.032539,-0.044 0.056735,-0.091642 0.072347,-0.1431436 v -5.291e-4 c 0.015375,-0.052166 0.023254,-0.1029888 0.023254,-0.1529622 0,-0.053687 -0.00716,-0.1061836 -0.021188,-0.1570963 -0.014205,-0.05155 -0.037045,-0.097447 -0.068729,-0.1364258 L 6.8150866,4.1821494 C 6.7827778,4.1412422 6.7395428,4.1085855 6.6869293,4.0849976 v 5.292e-4 c -0.052625,-0.024249 -0.1151104,-0.036174 -0.1875856,-0.036173 -0.044869,0 -0.088118,0.00522 -0.129191,0.015502 -0.019333,0.00501 -0.036197,0.013171 -0.05426,0.019637 0.014113,-0.048249 0.027983,-0.097085 0.049093,-0.1322917 0.029098,-0.04853 0.064586,-0.087064 0.1069703,-0.1167887 l 5.291e-4,-5.291e-4 c 0.042672,-0.031228 0.09075,-0.053532 0.1452108,-0.066663 h 5.291e-4 c 0.056636,-0.014676 0.1198861,-0.022928 0.1891353,-0.024288 l 0.028422,-5.291e-4 z m -0.33538,0.6991821 c 0.074081,0 0.1217136,0.019717 0.1519285,0.056844 h 5.292e-4 v 5.292e-4 c 0.032166,0.038112 0.050126,0.095917 0.050126,0.1767335 0,0.026736 -0.00374,0.05571 -0.011369,0.087333 v 5.292e-4 5.291e-4 c -0.00605,0.028869 -0.016986,0.054438 -0.032556,0.078032 -0.015372,0.023291 -0.034641,0.042792 -0.058394,0.058911 -0.021754,0.013533 -0.049768,0.021188 -0.0863,0.021188 -0.044418,0 -0.078364,-0.00963 -0.1038696,-0.026872 -0.026794,-0.019463 -0.048268,-0.044922 -0.065112,-0.076998 V 4.620415 l -5.298e-4,-5.291e-4 c -0.015997,-0.034695 -0.02802,-0.073722 -0.035656,-0.1183392 v -5.291e-4 c -0.00647,-0.047152 -0.00982,-0.096968 -0.00982,-0.1498619 v -0.041858 c 0,-0.00755 6.085e-4,-0.01519 0.00103,-0.022738 0.02973,-0.012816 0.058936,-0.023696 0.087333,-0.030489 0.033943,-0.00782 0.0715,-0.011885 0.1126548,-0.011885 z m 0.1033529,1.5497762 -0.00827,0.0093 C 6.522631,5.8654507 6.469899,5.9353622 6.4176959,6.0130706 6.3656029,6.0891796 6.3168222,6.1672724 6.270935,6.2476816 6.225144,6.3264906 6.183589,6.4030002 6.1463948,6.4776418 v 5.292e-4 c -0.035961,0.074656 -0.064464,0.1408763 -0.085783,0.1989542 l -0.00206,0.00414 v 0.00517 0.1457277 H 6.5701446 V 7.1701194 H 6.7706493 V 6.8321557 H 6.9055246 V 6.634235 H 6.7706493 V 5.7939762 Z m -4.6162557,5.292e-4 c -0.070297,0 -0.1323676,0.014018 -0.1850016,0.042891 -0.050999,0.027976 -0.093525,0.063616 -0.1266073,0.1069702 -0.032703,0.042858 -0.056783,0.091235 -0.072347,0.1441773 -0.015284,0.050711 -0.023255,0.1010947 -0.023255,0.1508951 0,0.05501 0.00712,0.1079066 0.021187,0.157613 0.014247,0.050347 0.037206,0.095698 0.06873,0.1359091 v 5.292e-4 c 0.032181,0.03953 0.074895,0.070918 0.1260905,0.094568 v 5.291e-4 h 5.16e-4 c 0.05245,0.022715 0.1152026,0.03359 0.1886189,0.03359 0.044479,0 0.087451,-0.00468 0.1281576,-0.013435 h 5.159e-4 c 0.016078,-0.00403 0.029381,-0.010517 0.044442,-0.015502 -0.031895,0.1080293 -0.071254,0.203468 -0.1415933,0.2511472 -0.085284,0.057356 -0.2001716,0.087333 -0.3462321,0.087333 h -0.027387 l 0.00827,0.1989543 0.025321,-5.292e-4 C 1.9043283,7.1687025 2.0942768,7.101614 2.2205362,6.9660095 2.3466603,6.829094 2.4076049,6.627632 2.4076049,6.3665629 c 0,-0.173059 -0.035323,-0.311825 -0.1090372,-0.4149617 C 2.2243232,5.8477221 2.110945,5.7945049 1.9683552,5.7945049 Z m 0.00207,0.1989542 c 0.044032,0 0.077414,0.00952 0.1028361,0.027905 l 5.159e-4,5.291e-4 5.16e-4,5.292e-4 c 0.028044,0.018217 0.04912,0.042244 0.064596,0.074414 l 5.159e-4,5.291e-4 v 5.294e-4 c 0.017069,0.032947 0.028791,0.072152 0.03514,0.1183391 v 5.292e-4 h 5.159e-4 c 0.00776,0.047053 0.011369,0.097001 0.011369,0.1498616 v 0.039791 c 0,0.00626 -6.667e-4,0.01343 -0.00103,0.020153 -0.028685,0.011658 -0.057767,0.022125 -0.088367,0.028939 h -5.159e-4 c -0.033842,0.00775 -0.071096,0.011885 -0.1121379,0.011885 -0.073725,0 -0.1226005,-0.018947 -0.1539958,-0.054777 v -5.291e-4 c -0.030737,-0.03805 -0.048059,-0.095988 -0.048059,-0.1767335 0,-0.026825 0.0031,-0.055299 0.0093,-0.085266 0.00732,-0.029149 0.01866,-0.054252 0.034107,-0.076481 V 6.073063 h 5.159e-4 c 0.015352,-0.02332 0.034288,-0.042133 0.057878,-0.056844 h 5.159e-4 l 5.16e-4,-5.292e-4 c 0.021641,-0.014621 0.04915,-0.02222 0.085266,-0.02222 z M 6.5701415,6.1102213 V 6.6342204 H 6.2735189 c 0.017931,-0.043155 0.035924,-0.086678 0.056844,-0.1307415 l 5.292e-4,-5.291e-4 c 0.027931,-0.056202 0.057336,-0.1109491 0.088884,-0.1643312 l 5.291e-4,-5.291e-4 c 0.031651,-0.054968 0.063832,-0.1068128 0.096635,-0.1560629 v -5.292e-4 c 0.018031,-0.026085 0.035575,-0.047642 0.053227,-0.071313 z"
     style="fill:#847d6c;fill-opacity:1;stroke-width:0.264583" />
  <rect
     style="opacity:1;fill:#f2f2f2;fill-opacity:1;stroke-width:0.529167;stroke-linecap:round;stroke-linejoin:round"
     id="rect1114"
     width="1.8520833"
     height="2.1166666"
     x="1.0583333"
     y="3.175" />
  <path
     id="path1050"
     style="color:#000000;fill:#1a1a1a;stroke-width:0.0529169;-inkscape-stroke:none"
     d="m 1.9414835,3.5455201 c -0.045894,0 -0.089435,0.00566 -0.1302246,0.017571 -0.039732,0.011597 -0.076407,0.026257 -0.109554,0.043925 -0.031277,0.016007 -0.058685,0.033737 -0.082166,0.053227 -0.022462,0.018645 -0.03969,0.034723 -0.052193,0.049093 l -0.013436,0.015502 0.1136881,0.1643312 0.022737,-0.022738 c 0.00664,-0.00678 0.018304,-0.01683 0.034106,-0.028939 l 5.16e-4,-5.292e-4 5.159e-4,-5.292e-4 c 0.015166,-0.012912 0.032932,-0.025964 0.053743,-0.039274 0.021398,-0.012859 0.045284,-0.023858 0.072347,-0.033073 0.02709,-0.00881 0.056884,-0.01292 0.089917,-0.01292 0.027547,0 0.052375,0.00341 0.075448,0.010853 0.022405,0.00723 0.041129,0.018709 0.057361,0.034106 l 0.00103,5.291e-4 5.159e-4,5.292e-4 c 0.016944,0.013848 0.029836,0.03136 0.039274,0.054261 l 5.159e-4,5.292e-4 v 5.291e-4 c 0.010262,0.022132 0.01602,0.050525 0.01602,0.085266 0,0.029841 -0.00575,0.058856 -0.018087,0.08785 h -5.159e-4 v 5.292e-4 c -0.011343,0.028326 -0.026947,0.056101 -0.047542,0.083716 l -5.159e-4,5.292e-4 v 5.292e-4 c -0.019508,0.027901 -0.043038,0.055874 -0.070797,0.084233 H 1.993677 v 5.292e-4 c -0.02712,0.028941 -0.055919,0.058817 -0.085783,0.089325 -0.036937,0.037735 -0.074367,0.076794 -0.1126547,0.1173057 -0.037814,0.040062 -0.072029,0.082895 -0.1028361,0.1286743 -0.031118,0.046241 -0.056676,0.095766 -0.076481,0.1477946 -0.02031,0.053355 -0.030489,0.1106874 -0.030489,0.1720824 v 0.023254 c 0,0.00869 8.996e-4,0.01724 0.00258,0.025839 l 0.00413,0.021188 H 2.407605 V 4.7221923 H 1.8334798 c 0.00328,-0.011486 0.00373,-0.020151 0.012402,-0.035657 0.015536,-0.027775 0.035137,-0.056615 0.058911,-0.0863 0.024127,-0.030126 0.049648,-0.059583 0.076481,-0.088367 0.027169,-0.029144 0.050545,-0.054242 0.070797,-0.074931 0.037051,-0.037852 0.073876,-0.076503 0.109554,-0.1157552 0.036151,-0.039773 0.068128,-0.080014 0.096118,-0.1214395 v -5.292e-4 c 0.029624,-0.041854 0.053112,-0.084828 0.07028,-0.1286743 0.018783,-0.044621 0.028422,-0.091259 0.028422,-0.1390097 0,-0.1202666 -0.034075,-0.2171888 -0.1038696,-0.2842204 0,0 -5.16e-4,0 -5.16e-4,0 C 2.182743,3.5782538 2.077749,3.5455077 1.9414844,3.5455077 Z" />
  <path
     id="rect1620"
     style="opacity:0.05;fill:#000000;fill-opacity:1;stroke-width:2;stroke-linecap:round;stroke-linejoin:round"
     d="M 9 2.5 C 3.5000001 2.5 1.5 4.4999998 1.5 10 L 1.5 12 L 30.5 12 L 30.5 10.5 C 30.499999 4.5 28.5 2.5 22.5 2.5 L 9 2.5 z "
     transform="scale(0.26458333)" />
  <path
     id="rect13250"
     style="fill:url(#linearGradient16320);fill-opacity:1;stroke-width:0.264583;stroke-linejoin:round;opacity:1"
     d="m 2.6458333,0.79375 c -1.71979143,0 -2.11666664,0.396875 -2.11666664,2.1166666 v 2.6458335 c 0,1.7197919 0.39687515,2.1166666 2.11666664,2.1166666 h 3.175 c 1.7197913,0 2.1166666,-0.3968747 2.1166666,-2.1166666 V 2.9104166 C 7.9374999,1.190625 7.5406249,0.79375 5.8208333,0.79375 Z m 0,0.2645833 h 3.175 c 1.5213541,0 1.8520833,0.3307294 1.8520833,1.8520833 v 2.6458335 c 0,1.5213542 -0.3307292,1.8520833 -1.8520833,1.8520833 h -3.175 c -1.5213541,0 -1.85208331,-0.3307291 -1.85208331,-1.8520833 V 2.9104166 c 0,-1.521354 0.33072921,-1.8520834 1.85208331,-1.8520833 z"
     sodipodi:nodetypes="ssssssssssssssssss" />
  <path
     id="rect2545"
     style="opacity:0.4;fill:#000000;stroke-width:0.387914;stroke-linejoin:round"
     d="m 2.6458333,0.52916667 c -1.91822909,0 -2.38124997,0.4630208 -2.38124997,2.38124993 V 5.55625 c 0,1.8520831 0.52916735,2.38125 2.38124997,2.38125 h 3.175 c 1.8520841,0 2.3812499,-0.5291669 2.3812499,-2.38125 V 2.9104166 c 0,-1.8520832 -0.5291666,-2.38124988 -2.3812499,-2.38124993 z m 0,0.26458333 h 3.175 c 1.7197916,0 2.1166666,0.396875 2.1166666,2.1166666 V 5.55625 c 0,1.7197917 -0.3968753,2.1166666 -2.1166666,2.1166666 h -3.175 c -1.71979162,0 -2.11666664,-0.3968749 -2.11666664,-2.1166666 V 2.9104166 c 0,-1.7197916 0.39687505,-2.1166666 2.11666664,-2.1166666 z"
     sodipodi:nodetypes="ssssssssssssssssss" />
</svg>
