<?xml version="1.0" encoding="UTF-8" standalone="no"?>
<!-- Created with Inkscape (http://www.inkscape.org/) -->

<svg
   width="16"
   height="16"
   viewBox="0 0 4.2333333 4.2333333"
   version="1.1"
   id="svg1003"
   sodipodi:docname="applications-science.svg"
   inkscape:version="1.1.2 (0a00cf5339, 2022-02-04)"
   xmlns:inkscape="http://www.inkscape.org/namespaces/inkscape"
   xmlns:sodipodi="http://sodipodi.sourceforge.net/DTD/sodipodi-0.dtd"
   xmlns:xlink="http://www.w3.org/1999/xlink"
   xmlns="http://www.w3.org/2000/svg"
   xmlns:svg="http://www.w3.org/2000/svg">
  <sodipodi:namedview
     id="namedview1005"
     pagecolor="#ffffff"
     bordercolor="#666666"
     borderopacity="1.0"
     inkscape:pageshadow="2"
     inkscape:pageopacity="0.0"
     inkscape:pagecheckerboard="0"
     inkscape:document-units="px"
     showgrid="false"
     units="px"
     showguides="true"
     inkscape:lockguides="true"
     inkscape:zoom="49.5"
     inkscape:cx="7.989899"
     inkscape:cy="8"
     inkscape:window-width="1920"
     inkscape:window-height="1010"
     inkscape:window-x="0"
     inkscape:window-y="0"
     inkscape:window-maximized="1"
     inkscape:current-layer="svg1003" />
  <defs
     id="defs1000">
    <linearGradient
       inkscape:collect="always"
       xlink:href="#linearGradient1871"
       id="linearGradient16320"
       x1="10"
       y1="4"
       x2="10"
       y2="29.100245"
       gradientUnits="userSpaceOnUse"
       gradientTransform="matrix(0.13229166,0,0,0.12211538,0,0.04070512)" />
    <linearGradient
       inkscape:collect="always"
       id="linearGradient1871">
      <stop
         style="stop-color:#ffffff;stop-opacity:1;"
         offset="0"
         id="stop1867" />
      <stop
         style="stop-color:#ffffff;stop-opacity:0.1"
         offset="0.12"
         id="stop2515" />
      <stop
         style="stop-color:#ffffff;stop-opacity:0.102"
         offset="0.89999998"
         id="stop2581" />
      <stop
         style="stop-color:#ffffff;stop-opacity:0.502"
         offset="1"
         id="stop1869" />
    </linearGradient>
  </defs>
  <path
     d="M 1.0583333,0.396875 H 3.175 c 0.7935019,1.919e-4 0.9259876,0.157244 0.9260416,0.9921875 V 2.8376562 C 4.1009876,3.6238466 3.9685019,3.8366501 3.175,3.8364583 H 1.0583333 c -0.79355622,0 -0.92604169,-0.2128036 -0.92604169,-0.9988021 V 1.3890625 c 0,-0.7859985 0.13248546,-0.9921875 0.92604169,-0.9921875 z"
     style="fill:#f7f7f7;fill-opacity:1;stroke-width:0.0653156;stroke-linejoin:round"
     id="path17503"
     sodipodi:nodetypes="sccccssss" />
  <path
     id="path980"
     style="color:#000000;isolation:isolate;fill:#f34f17;stroke-width:0.132292;-inkscape-stroke:none"
     d="m 2.1165385,0.76623333 c -0.095941,0 -0.1831004,0.049973 -0.2537313,0.1271241 C 1.8043006,0.95726483 1.759267,1.051476 1.7165629,1.150706 1.6160908,1.1106653 1.5174355,1.0764934 1.4307922,1.0726746 1.3262926,1.0680646 1.2293959,1.0942336 1.161558,1.1620746 1.093715,1.2299086 1.06755,1.3268108 1.072158,1.4313088 1.075988,1.5180718 1.110054,1.6164482 1.150189,1.7170795 1.050994,1.7597755 0.95724831,1.8048315 0.89335734,1.863324 0.81620604,1.933956 0.76623333,2.0211154 0.76623333,2.1170553 c 0,0.095941 0.0499728,0.1831006 0.12712401,0.2537312 0.0638909,0.058491 0.15763616,0.1035477 0.25683186,0.1462444 -0.040041,0.1004722 -0.074213,0.1991273 -0.078031,0.2857706 -0.00461,0.1044996 0.021561,0.2013964 0.0894,0.2692342 0.067838,0.067836 0.1647365,0.094006 0.2692342,0.0894 0.086642,-0.00382 0.1852963,-0.037992 0.2857707,-0.078031 0.042703,0.099231 0.087737,0.1934411 0.1462443,0.2573486 0.070632,0.077151 0.1577918,0.127124 0.2537313,0.127124 0.095939,0 0.1830999,-0.049969 0.2537312,-0.127124 0.058507,-0.063911 0.1035401,-0.1581092 0.1462443,-0.2573486 0.1006298,0.040148 0.1990064,0.074204 0.2857707,0.078031 0.1044996,0.00461 0.2013953,-0.021566 0.2692342,-0.0894 0.067838,-0.067838 0.094523,-0.1647364 0.089917,-0.2692342 -0.00381,-0.086503 -0.038625,-0.18496 -0.078548,-0.2852539 0.099513,-0.042767 0.1933069,-0.088131 0.2573486,-0.1467611 0.077149,-0.07063 0.127124,-0.1577945 0.127124,-0.2537312 0,-0.095942 -0.049973,-0.1831009 -0.127124,-0.2537313 C 3.2761929,1.8046937 3.1823955,1.7593261 3.0828878,1.7165629 3.1229068,1.6161122 3.1576156,1.5179317 3.161436,1.431309 3.1660442,1.3268125 3.1393605,1.2299129 3.0715189,1.1620748 3.0036805,1.0942365 2.9067824,1.0680688 2.8022847,1.0726746 2.7155218,1.0764987 2.6171455,1.1105647 2.516514,1.150706 2.4738073,1.051478 2.4287747,0.95726483 2.3702697,0.89335743 2.2996407,0.81620633 2.2124792,0.76623343 2.1165385,0.76623333 Z m 0,0.1700155 c 0.041325,0 0.086139,0.022014 0.1348754,0.077515 0.039758,0.045277 0.077339,0.1232537 0.1126547,0.2056722 C 2.2836276,1.261975 2.2009016,1.311083 2.1165385,1.370848 2.0322139,1.3111109 1.9499351,1.2619609 1.8695251,1.2194356 1.90484,1.1370177 1.9424221,1.0590404 1.9821797,1.0137634 2.0309153,0.95826223 2.0752106,0.93624883 2.1165385,0.93624883 Z M 1.3811828,1.2416565 c 0.015222,-0.00127 0.032217,-0.0012 0.050643,0 0.060044,0.0039 0.1416926,0.032921 0.2247925,0.066146 -0.026727,0.086819 -0.049807,0.1798947 -0.067179,0.2816366 -0.10194,0.017385 -0.1951524,0.040912 -0.2821538,0.067696 -0.03332,-0.083267 -0.061726,-0.1646514 -0.065629,-0.2247926 -0.00478,-0.073705 0.011091,-0.1211636 0.040308,-0.1503784 0.021913,-0.021913 0.053553,-0.036492 0.099218,-0.040308 z m 1.4200685,0 c 0.073704,-0.00478 0.1211638,0.011091 0.1503783,0.040308 0.029217,0.029217 0.045091,0.076672 0.040308,0.1503784 -0.0039,0.060142 -0.03231,0.1415301 -0.065629,0.2247925 -0.086969,-0.0268 -0.180246,-0.050295 -0.2821538,-0.067696 C 2.6267793,1.4876905 2.6031878,1.3946361 2.5764587,1.3078023 2.6597352,1.27447 2.7411035,1.2455612 2.8012513,1.2416565 Z m -0.989087,0.1400431 c 0.051729,0.028405 0.1045421,0.061451 0.1591634,0.098185 -0.029611,0.023965 -0.059654,0.047306 -0.088367,0.072347 -0.03919,0.00269 -0.076355,0.00737 -0.1142049,0.011369 0.012652,-0.064549 0.026914,-0.1252758 0.043408,-0.181901 z m 0.6087483,5.16e-4 c 0.016434,0.056472 0.030792,0.117038 0.043408,0.1813851 -0.03781,-0.00398 -0.075753,-0.00878 -0.1136881,-0.011369 -0.028764,-0.025086 -0.059218,-0.048341 -0.088884,-0.072347 0.054479,-0.036641 0.1075653,-0.069317 0.1591641,-0.097669 z m -0.3043741,0.332797 c 0.055315,2.2e-6 0.1106291,0.00129 0.1658813,0.00413 0.040638,0.036704 0.080656,0.073925 0.1193726,0.1126547 0.038828,0.038815 0.076378,0.079143 0.1131713,0.1198893 0.00279,0.05415 0.00517,0.1092175 0.00517,0.1653646 0,0.056011 -0.00237,0.110467 -0.00517,0.164331 -0.073867,0.081884 -0.1517107,0.1596917 -0.2335775,0.2335775 -0.1098136,0.00561 -0.2198891,0.00563 -0.3296956,0 -0.081686,-0.073722 -0.1593385,-0.151375 -0.2330608,-0.2330607 -0.00565,-0.1101636 -0.00567,-0.2205663 0,-0.3307292 0.036704,-0.040638 0.073925,-0.080656 0.1126546,-0.1193725 0.038722,-0.03873 0.07873,-0.07595 0.1193726,-0.1126547 0.05525,-0.00285 0.1105662,-0.00414 0.1658815,-0.00413 z m -0.5534546,0.05426 c -0.00401,0.038062 -0.00877,0.076017 -0.011369,0.1142049 -0.024956,0.028612 -0.048461,0.058344 -0.072347,0.08785 -0.036565,-0.054408 -0.069371,-0.1071157 -0.097669,-0.1586466 0.056478,-0.016434 0.1170344,-0.030792 0.181385,-0.043408 z m 1.1069092,0 c 0.064529,0.012653 0.1252971,0.026924 0.181901,0.043408 -0.028407,0.051728 -0.06145,0.1045395 -0.098185,0.1591634 C 2.7297441,1.942233 2.7064021,1.91219 2.6813621,1.883477 2.6786721,1.84429 2.6739921,1.807117 2.6699931,1.7692726 Z M 1.2194356,1.8700419 c 0.042496,0.080299 0.091242,0.1627948 0.1508952,0.2470134 C 1.3105595,2.201441 1.2614673,2.2836356 1.2189188,2.3640686 1.1365493,2.3287698 1.0590201,2.2911546 1.0137634,2.251414 0.95826714,2.2026818 0.93573202,2.1583776 0.93573202,2.1170553 c 0,-0.041326 0.0225303,-0.08614 0.0780314,-0.1348755 0.045339,-0.039813 0.1230938,-0.076785 0.2056722,-0.1121379 z m 1.7947224,0 c 0.082396,0.03531 0.1604045,0.072388 0.2056723,0.1121379 0.055501,0.048735 0.077515,0.093547 0.077515,0.1348755 0,0.041325 -0.022019,0.086143 -0.077515,0.1348754 C 3.1745654,2.2916779 3.096544,2.3287672 3.014158,2.3640686 2.9716469,2.2837625 2.9224159,2.2012907 2.862746,2.1170553 2.9224154,2.0328159 2.9716538,1.9503635 3.014158,1.8700419 Z M 2.7537088,2.262266 c 0.036736,0.054627 0.069778,0.1074371 0.098185,0.1591634 -0.056625,0.016491 -0.1173491,0.030754 -0.181901,0.043408 0.004,-0.03785 0.00868,-0.075023 0.011369,-0.1142049 0.02504,-0.028713 0.048382,-0.058756 0.072347,-0.088367 z m -1.2743407,5.16e-4 c 0.023884,0.029506 0.047385,0.059234 0.072347,0.08785 0.00269,0.039187 0.00737,0.076361 0.011369,0.1142049 -0.064381,-0.01262 -0.12489,-0.026972 -0.1813843,-0.043407 0.0283,-0.051532 0.061104,-0.1042381 0.097669,-0.1586466 z M 1.3072855,2.5769747 c 0.087067,0.026818 0.1800891,0.049779 0.2821533,0.067179 0.017387,0.101946 0.040408,0.1951749 0.067179,0.2821535 -0.08311,0.033225 -0.1647506,0.062248 -0.2247925,0.066146 -0.073702,0.00478 -0.1206455,-0.011089 -0.1498616,-0.040308 -0.029217,-0.029217 -0.04509,-0.076673 -0.040308,-0.1503783 0.0039,-0.060142 0.03231,-0.1415304 0.06563,-0.2247922 z m 1.6190227,0 c 0.033324,0.083265 0.061724,0.1646515 0.065629,0.2247926 0.00479,0.073704 -0.011091,0.1211641 -0.040308,0.1503783 -0.029221,0.029221 -0.076678,0.045092 -0.1503783,0.040308 C 2.7411059,2.9885436 2.6597398,2.9596396 2.5764583,2.9263076 2.6032343,2.8393216 2.6267663,2.7461118 2.6441543,2.644155 2.7460656,2.626764 2.8393608,2.603765 2.9263077,2.576976 Z m -1.1575521,0.093535 c 0.03785,0.004 0.075015,0.00868 0.1142049,0.011369 0.028615,0.024956 0.058341,0.048461 0.08785,0.072347 -0.054415,0.036565 -0.107116,0.069378 -0.1586466,0.097668 -0.016439,-0.056491 -0.03079,-0.1170122 -0.043408,-0.181384 z m 0.6955647,0 C 2.4517058,2.7348587 2.4373478,2.7954274 2.4209128,2.851894 2.3692788,2.823532 2.3162663,2.790891 2.2617494,2.754225 c 0.029667,-0.024006 0.060118,-0.047254 0.088884,-0.072347 0.039014,-0.00268 0.076002,-0.0074 0.1136874,-0.011368 z M 2.1165385,2.8632628 c 0.084423,0.059799 0.1670453,0.1088557 0.2475301,0.151412 -0.035305,0.082377 -0.072911,0.1598952 -0.1126547,0.2051556 -0.048736,0.055501 -0.093547,0.078031 -0.1348754,0.078031 -0.041327,0 -0.085623,-0.022532 -0.1343588,-0.078031 -0.039744,-0.045261 -0.077348,-0.1227778 -0.1126546,-0.2051556 0.080452,-0.042542 0.1626297,-0.091641 0.2470134,-0.151412 z" />
  <path
     id="path872"
     style="color:#000000;isolation:isolate;fill:#111111;stroke-width:0.132292;-inkscape-stroke:none"
     d="m 1.5661845,1.0654399 c -0.025571,0 -0.052105,0.00802 -0.073897,0.027389 -0.021792,0.019371 -0.036174,0.051133 -0.036174,0.082165 0,0.031033 0.014382,0.062795 0.036174,0.082165 0.021792,0.019371 0.048326,0.027389 0.073897,0.027389 0.025571,0 0.051588,-0.00802 0.07338,-0.027389 0.021792,-0.019371 0.036174,-0.051133 0.036174,-0.082165 0,-0.031032 -0.014381,-0.062795 -0.036174,-0.082165 -0.021792,-0.019371 -0.047809,-0.027389 -0.07338,-0.027389 z m 0.7828979,0.1343587 c -0.027234,-4.3e-6 -0.054989,0.00846 -0.078031,0.028939 -0.023043,0.020476 -0.038235,0.054083 -0.038241,0.087333 -5.3e-6,0.03325 0.014688,0.066333 0.037724,0.086816 0.023036,0.020483 0.051314,0.029451 0.078548,0.029455 0.027234,4.4e-6 0.055505,-0.00898 0.078548,-0.029455 0.023043,-0.020476 0.037718,-0.053566 0.037724,-0.086816 5.2e-6,-0.03325 -0.014688,-0.06685 -0.037724,-0.087333 -0.023036,-0.020483 -0.051314,-0.028935 -0.078548,-0.028939 z m 0.1188558,0.4702555 c -0.025567,1.01e-5 -0.051591,0.00812 -0.073381,0.027388 -0.02179,0.019267 -0.035945,0.050652 -0.036173,0.081649 -2.307e-4,0.031309 0.013726,0.063603 0.035657,0.083199 0.02193,0.019596 0.048658,0.027915 0.074414,0.027905 0.025756,-1.01e-5 0.052499,-0.00829 0.074414,-0.027905 0.021915,-0.019613 0.035395,-0.05189 0.03514,-0.083199 -2.526e-4,-0.030997 -0.014368,-0.062399 -0.036173,-0.081649 -0.021805,-0.01925 -0.04833,-0.027398 -0.073897,-0.027388 z m 0.4387329,0.1379761 c -0.024006,0 -0.048625,0.00763 -0.069246,0.025838 -0.020622,0.018211 -0.033864,0.048082 -0.034106,0.076998 -2.45e-4,0.029219 0.012838,0.059464 0.03359,0.078031 0.020754,0.018568 0.045572,0.026355 0.069763,0.026355 0.024191,0 0.049527,-0.00779 0.07028,-0.026355 0.020754,-0.018568 0.033835,-0.048812 0.03359,-0.078031 -2.427e-4,-0.028916 -0.013486,-0.058787 -0.034106,-0.076998 -0.020622,-0.018211 -0.045759,-0.025838 -0.069763,-0.025838 z m -1.5446086,0.037207 c -0.024098,0 -0.049076,0.00745 -0.069763,0.025838 -0.020688,0.018389 -0.03359,0.048446 -0.03359,0.077515 0,0.029069 0.012902,0.059642 0.03359,0.078031 0.020687,0.018389 0.045665,0.025838 0.069763,0.025838 0.024098,0 0.049593,-0.00745 0.07028,-0.025838 0.020687,-0.018389 0.03359,-0.048963 0.03359,-0.078031 0,-0.029069 -0.012902,-0.059126 -0.03359,-0.077515 -0.020687,-0.018389 -0.046182,-0.025838 -0.07028,-0.025838 z M 1.0711242,2.2870707 c -0.023221,0 -0.047664,0.00764 -0.067696,0.025321 -0.020032,0.017685 -0.0328287,0.046541 -0.0330729,0.074414 -2.4686e-4,0.028171 0.0123891,0.057916 0.0325561,0.075964 0.020167,0.018048 0.044806,0.025838 0.068213,0.025838 0.023407,0 0.047529,-0.00779 0.067696,-0.025838 0.020167,-0.018049 0.032803,-0.047793 0.032556,-0.075964 -2.442e-4,-0.027874 -0.013041,-0.056729 -0.033073,-0.074414 -0.020032,-0.017685 -0.043958,-0.025321 -0.067179,-0.025321 z m 1.9879924,0.2682007 c -0.028253,-8.9e-6 -0.057825,0.00892 -0.081649,0.029972 -0.023823,0.021049 -0.039023,0.055344 -0.039274,0.089917 -2.538e-4,0.034903 0.014827,0.069551 0.038757,0.09095 0.023929,0.021399 0.053201,0.03048 0.081649,0.030489 0.028448,9e-6 0.058223,-0.0091 0.082166,-0.030489 0.023942,-0.021384 0.038989,-0.056047 0.038757,-0.09095 -2.294e-4,-0.034573 -0.015463,-0.068853 -0.039274,-0.089917 -0.023811,-0.021064 -0.052879,-0.029963 -0.081132,-0.029972 z m -1.035079,0.1555462 c -0.025587,5.291e-4 -0.051978,0.0097 -0.073381,0.029456 -0.021402,0.019756 -0.034573,0.051131 -0.034106,0.082166 4.709e-4,0.031278 0.014886,0.063062 0.037207,0.082165 0.022321,0.019103 0.049196,0.026898 0.074931,0.026355 0.025735,-5.556e-4 0.052402,-0.00943 0.073897,-0.029456 0.021495,-0.020029 0.034957,-0.052445 0.034107,-0.083716 -8.441e-4,-0.031026 -0.016024,-0.061781 -0.038241,-0.080615 -0.022217,-0.018833 -0.048827,-0.026895 -0.074414,-0.026355 z M 1.1992818,2.8823832 c -0.024878,0 -0.050558,0.00796 -0.07183,0.026872 -0.021272,0.018907 -0.03514,0.049473 -0.03514,0.079582 0,0.030108 0.013868,0.06119 0.03514,0.080098 0.021272,0.01891 0.046952,0.026872 0.07183,0.026872 0.024878,0 0.050558,-0.00796 0.07183,-0.026872 0.021272,-0.018907 0.03514,-0.04999 0.03514,-0.080098 0,-0.030108 -0.013868,-0.060673 -0.03514,-0.079582 -0.021272,-0.01891 -0.046952,-0.026872 -0.07183,-0.026872 z" />
  <circle
     style="opacity:1;fill:#49a619;fill-opacity:1;stroke-width:0.264583;stroke-linecap:round;stroke-linejoin:round"
     id="path937"
     cx="2.1166666"
     cy="2.1166666"
     r="0.26458332" />
  <path
     id="rect7040"
     style="opacity:0.4;stroke-width:0.264583;stroke-linejoin:round"
     d="M 1.0583333,0.26458333 C 0.21187339,0.26458333 0,0.47645663 0,1.3229166 v 1.5875 C 0,3.7568766 0.21187339,3.96875 1.0583333,3.96875 H 3.175 C 4.021402,3.9689566 4.2332756,3.7570833 4.2333333,2.9104166 v -1.5875 C 4.2332756,0.42374666 4.021402,0.26478997 3.175,0.26458333 Z M 0.94929604,0.52916666 H 1.3229166 3.175 c 0.5820833,0 0.79375,-2.9e-7 0.79375,0.79374994 v 0.1829346 1.2216309 0.1829345 c 0,0.79375 -0.2116667,0.79375 -0.79375,0.79375 H 1.3229166 1.0583333 c -0.5820832,0 -0.79374997,0 -0.79374997,-0.79375 V 2.7274821 1.5058512 1.3229166 c 0,-0.74414078 0.16294232,-0.79084294 0.68471271,-0.79374994 z"
     sodipodi:nodetypes="ssssccccsccssccsscssccsc" />
  <path
     id="rect13250"
     style="opacity:1;fill:url(#linearGradient16320);fill-opacity:1;stroke-width:0.127101;stroke-linejoin:round"
     d="M 0.94929604,0.52916666 C 0.4275256,0.53207345 0.26458333,0.5787759 0.26458333,1.3229166 v 0.1829346 1.2216309 0.1829345 c 0,0.79375 0.21166674,0.79375 0.79374997,0.79375 H 1.3229166 3.175 c 0.5820833,0 0.79375,0 0.79375,-0.79375 V 2.7274821 1.5058512 1.3229166 C 3.96875,0.52916642 3.7570833,0.52916666 3.175,0.52916666 H 1.3229166 Z m 0.0847494,0.26458333 c 0.0079,-4.458e-5 0.016138,0 0.024288,0 H 3.175 c 0.5216072,0 0.5291666,0.0892859 0.5291666,0.52916661 v 1.5875 c 0,0.4398807 -0.00756,0.5291667 -0.5291666,0.5291667 H 1.0583333 c -0.52160723,0 -0.52916664,-0.089286 -0.52916664,-0.5291667 v -1.5875 c 0,-0.4330075 0.007113,-0.52635721 0.50487874,-0.52916661 z"
     sodipodi:nodetypes="csccsscssccssccssssssssss" />
</svg>
