<?xml version="1.0" encoding="UTF-8" standalone="no"?>
<!-- Created with Inkscape (http://www.inkscape.org/) -->

<svg
   width="16"
   height="16"
   viewBox="0 0 4.2333333 4.2333333"
   version="1.1"
   id="svg1003"
   sodipodi:docname="kblackbox.svg"
   inkscape:version="1.1.2 (0a00cf5339, 2022-02-04)"
   xmlns:inkscape="http://www.inkscape.org/namespaces/inkscape"
   xmlns:sodipodi="http://sodipodi.sourceforge.net/DTD/sodipodi-0.dtd"
   xmlns:xlink="http://www.w3.org/1999/xlink"
   xmlns="http://www.w3.org/2000/svg"
   xmlns:svg="http://www.w3.org/2000/svg">
  <sodipodi:namedview
     id="namedview1005"
     pagecolor="#ffffff"
     bordercolor="#666666"
     borderopacity="1.0"
     inkscape:pageshadow="2"
     inkscape:pageopacity="0.0"
     inkscape:pagecheckerboard="0"
     inkscape:document-units="px"
     showgrid="false"
     units="px"
     showguides="true"
     inkscape:lockguides="true"
     inkscape:zoom="35.001786"
     inkscape:cx="6.3282485"
     inkscape:cy="9.71379"
     inkscape:window-width="1920"
     inkscape:window-height="1010"
     inkscape:window-x="0"
     inkscape:window-y="0"
     inkscape:window-maximized="1"
     inkscape:current-layer="svg1003" />
  <defs
     id="defs1000">
    <linearGradient
       inkscape:collect="always"
       xlink:href="#linearGradient1871"
       id="linearGradient16320"
       x1="10"
       y1="4"
       x2="10"
       y2="29.100245"
       gradientUnits="userSpaceOnUse"
       gradientTransform="matrix(0.13229166,0,0,0.12211538,0,0.04070512)" />
    <linearGradient
       inkscape:collect="always"
       id="linearGradient1871">
      <stop
         style="stop-color:#ffffff;stop-opacity:1;"
         offset="0"
         id="stop1867" />
      <stop
         style="stop-color:#ffffff;stop-opacity:0.1"
         offset="0.12"
         id="stop2515" />
      <stop
         style="stop-color:#ffffff;stop-opacity:0.102"
         offset="0.89999998"
         id="stop2581" />
      <stop
         style="stop-color:#ffffff;stop-opacity:0.502"
         offset="1"
         id="stop1869" />
    </linearGradient>
  </defs>
  <path
     d="M 1.0583333,0.396875 H 3.175 c 0.7935019,1.919e-4 0.9259876,0.157244 0.9260416,0.9921875 V 2.8376562 C 4.1009876,3.6238466 3.9685019,3.8366501 3.175,3.8364583 H 1.0583333 c -0.79355622,0 -0.92604169,-0.2128036 -0.92604169,-0.9988021 V 1.3890625 c 0,-0.7859985 0.13248546,-0.9921875 0.92604169,-0.9921875 z"
     style="fill:#4d4d4d;fill-opacity:1;stroke-width:0.0653156;stroke-linejoin:round"
     id="path17503"
     sodipodi:nodetypes="sccccssss" />
  <path
     id="rect1071"
     style="fill:#ffffff;fill-opacity:1;stroke-width:0.0739046;stroke-linecap:round;stroke-linejoin:round"
     d="m 2.0813012,1.0583333 c -0.094597,0 -0.1843143,0.0108 -0.2690574,0.032477 -0.082772,0.021679 -0.1577375,0.050266 -0.2247438,0.08574 l 0.076935,0.2129078 c 0.1241586,-0.067006 0.2512862,-0.1006078 0.3813571,-0.1006078 0.1024802,0 0.180338,0.026611 0.2335488,0.079822 0.053211,0.05124 0.079822,0.1182989 0.079822,0.2010714 0,0.05124 -0.01186,0.098533 -0.035509,0.1418902 -0.021678,0.043357 -0.050266,0.08472 -0.08574,0.1241359 -0.035473,0.039416 -0.072884,0.078803 -0.1122997,0.1182179 -0.039416,0.037445 -0.076826,0.078808 -0.1122997,0.1241359 -0.035473,0.043357 -0.065122,0.09065 -0.088772,0.1418903 -0.021679,0.05124 -0.032477,0.1084161 -0.032477,0.1714808 0,0.043357 0.00395,0.08472 0.011837,0.1241359 h 0.2305173 c -0.00197,-0.00985 -0.00289,-0.020653 -0.00289,-0.032477 v -0.032478 c 0,-0.065036 0.012775,-0.1231276 0.038396,-0.1743677 0.025622,-0.053211 0.057104,-0.1015645 0.094548,-0.1449215 0.037445,-0.045327 0.078808,-0.088668 0.1241358,-0.1300541 0.045328,-0.041386 0.086836,-0.084726 0.1242803,-0.130054 0.037445,-0.045327 0.068925,-0.093681 0.094545,-0.1449215 0.02562,-0.053211 0.038396,-0.1132795 0.038396,-0.1802858 0,-0.053211 -0.00882,-0.1084104 -0.026559,-0.1655627 C 2.6035055,1.3213862 2.573857,1.2681633 2.5305,1.2208647 2.487143,1.1735662 2.4290509,1.1352397 2.3561324,1.1056782 2.2851846,1.0741457 2.1936352,1.0583333 2.0813012,1.0583333 Z M 2.033956,2.796525 c -0.061094,0 -0.1094475,0.019766 -0.1449214,0.059181 -0.035474,0.039416 -0.053119,0.085648 -0.053119,0.1388591 0,0.053211 0.017645,0.099588 0.053119,0.1390033 0.035473,0.039416 0.083827,0.059037 0.1449214,0.059037 0.061094,0 0.1093032,-0.019622 0.1447771,-0.059037 0.035474,-0.039416 0.053263,-0.085793 0.053263,-0.1390033 0,-0.053211 -0.017789,-0.099444 -0.053263,-0.1388591 C 2.1432601,2.81629 2.0950501,2.796525 2.033956,2.796525 Z" />
  <path
     id="rect7040"
     style="opacity:0.4;stroke-width:0.264583;stroke-linejoin:round"
     d="M 1.0583333,0.26458333 C 0.21187339,0.26458333 0,0.47645663 0,1.3229166 v 1.5875 C 0,3.7568766 0.21187339,3.96875 1.0583333,3.96875 H 3.175 C 4.021402,3.9689566 4.2332756,3.7570833 4.2333333,2.9104166 v -1.5875 C 4.2332756,0.42374666 4.021402,0.26478997 3.175,0.26458333 Z M 0.94929604,0.52916666 H 1.3229166 3.175 c 0.5820833,0 0.79375,-2.9e-7 0.79375,0.79374994 v 0.1829346 1.2216309 0.1829345 c 0,0.79375 -0.2116667,0.79375 -0.79375,0.79375 H 1.3229166 1.0583333 c -0.5820832,0 -0.79374997,0 -0.79374997,-0.79375 V 2.7274821 1.5058512 1.3229166 c 0,-0.74414078 0.16294232,-0.79084294 0.68471271,-0.79374994 z"
     sodipodi:nodetypes="ssssccccsccssccsscssccsc" />
  <path
     id="rect13250"
     style="opacity:1;fill:url(#linearGradient16320);fill-opacity:1;stroke-width:0.127101;stroke-linejoin:round"
     d="M 0.94929604,0.52916666 C 0.4275256,0.53207345 0.26458333,0.5787759 0.26458333,1.3229166 v 0.1829346 1.2216309 0.1829345 c 0,0.79375 0.21166674,0.79375 0.79374997,0.79375 H 1.3229166 3.175 c 0.5820833,0 0.79375,0 0.79375,-0.79375 V 2.7274821 1.5058512 1.3229166 C 3.96875,0.52916642 3.7570833,0.52916666 3.175,0.52916666 H 1.3229166 Z m 0.0847494,0.26458333 c 0.0079,-4.458e-5 0.016138,0 0.024288,0 H 3.175 c 0.5216072,0 0.5291666,0.0892859 0.5291666,0.52916661 v 1.5875 c 0,0.4398807 -0.00756,0.5291667 -0.5291666,0.5291667 H 1.0583333 c -0.52160723,0 -0.52916664,-0.089286 -0.52916664,-0.5291667 v -1.5875 c 0,-0.4330075 0.007113,-0.52635721 0.50487874,-0.52916661 z"
     sodipodi:nodetypes="csccsscssccssccssssssssss" />
</svg>
