<?xml version="1.0" encoding="UTF-8" standalone="no"?>
<!-- Created with Inkscape (http://www.inkscape.org/) -->

<svg
   width="16"
   height="16"
   viewBox="0 0 4.2333333 4.2333333"
   version="1.1"
   id="svg1003"
   sodipodi:docname="libreoffice-base.svg"
   inkscape:version="1.1.2 (0a00cf5339, 2022-02-04)"
   xmlns:inkscape="http://www.inkscape.org/namespaces/inkscape"
   xmlns:sodipodi="http://sodipodi.sourceforge.net/DTD/sodipodi-0.dtd"
   xmlns:xlink="http://www.w3.org/1999/xlink"
   xmlns="http://www.w3.org/2000/svg"
   xmlns:svg="http://www.w3.org/2000/svg">
  <sodipodi:namedview
     id="namedview1005"
     pagecolor="#ffffff"
     bordercolor="#666666"
     borderopacity="1.0"
     inkscape:pageshadow="2"
     inkscape:pageopacity="0.0"
     inkscape:pagecheckerboard="0"
     inkscape:document-units="px"
     showgrid="false"
     units="px"
     showguides="true"
     inkscape:lockguides="true"
     inkscape:zoom="28.285713"
     inkscape:cx="8.5732327"
     inkscape:cy="11.666667"
     inkscape:window-width="1920"
     inkscape:window-height="1010"
     inkscape:window-x="0"
     inkscape:window-y="0"
     inkscape:window-maximized="1"
     inkscape:current-layer="svg1003" />
  <defs
     id="defs1000">
    <linearGradient
       inkscape:collect="always"
       id="linearGradient2463">
      <stop
         style="stop-color:#9911aa;stop-opacity:1"
         offset="0"
         id="stop2459" />
      <stop
         style="stop-color:#c04fba;stop-opacity:1"
         offset="1"
         id="stop2461" />
    </linearGradient>
    <linearGradient
       inkscape:collect="always"
       xlink:href="#linearGradient1871"
       id="linearGradient16320"
       x1="10"
       y1="4"
       x2="10"
       y2="29.100245"
       gradientUnits="userSpaceOnUse"
       gradientTransform="matrix(0.13229166,0,0,0.12211538,0,0.04070512)" />
    <linearGradient
       inkscape:collect="always"
       id="linearGradient1871">
      <stop
         style="stop-color:#ffffff;stop-opacity:1;"
         offset="0"
         id="stop1867" />
      <stop
         style="stop-color:#ffffff;stop-opacity:0.1"
         offset="0.12"
         id="stop2515" />
      <stop
         style="stop-color:#ffffff;stop-opacity:0.102"
         offset="0.89999998"
         id="stop2581" />
      <stop
         style="stop-color:#ffffff;stop-opacity:0.502"
         offset="1"
         id="stop1869" />
    </linearGradient>
    <linearGradient
       inkscape:collect="always"
       xlink:href="#linearGradient2463"
       id="linearGradient2465"
       x1="1.0583333"
       y1="0.26458332"
       x2="3.0253367"
       y2="3.9593961"
       gradientUnits="userSpaceOnUse" />
    <linearGradient
       inkscape:collect="always"
       xlink:href="#linearGradient5989"
       id="linearGradient5991"
       x1="4.5568275"
       y1="0.79374999"
       x2="8.4326887"
       y2="11.597079"
       gradientUnits="userSpaceOnUse"
       gradientTransform="matrix(0.31250001,0,0,0.31250001,-0.0496094,0.17365262)" />
    <linearGradient
       inkscape:collect="always"
       id="linearGradient5989">
      <stop
         style="stop-color:#f2f2f2;stop-opacity:1;"
         offset="0"
         id="stop5985" />
      <stop
         style="stop-color:#ffffff;stop-opacity:1"
         offset="1"
         id="stop5987" />
    </linearGradient>
  </defs>
  <path
     d="M 1.0583333,0.396875 H 3.175 c 0.7935019,1.919e-4 0.9259876,0.157244 0.9260416,0.9921875 V 2.8376562 C 4.1009876,3.6238466 3.9685019,3.8366501 3.175,3.8364583 H 1.0583333 c -0.79355622,0 -0.92604169,-0.2128036 -0.92604169,-0.9988021 V 1.3890625 c 0,-0.7859985 0.13248546,-0.9921875 0.92604169,-0.9921875 z"
     style="fill:url(#linearGradient2465);fill-opacity:1;stroke-width:0.0653156;stroke-linejoin:round"
     id="path17503"
     sodipodi:nodetypes="sccccssss" />
  <path
     id="rect2891"
     style="fill:url(#linearGradient5991);fill-opacity:1;stroke-width:0.0802481;stroke-linejoin:round"
     d="M 1.0340454,0.7937698 C 0.53627959,0.7965792 0.52916669,0.88992896 0.52916669,1.3229365 v 1.5875 c 0,0.4398806 0.00756,0.5291666 0.52916661,0.5291666 H 3.175 c 0.5216067,0 0.5291666,-0.089286 0.5291666,-0.5291666 V 1.5875198 l -0.79375,-0.79375 H 1.0583333 c -0.00815,0 -0.016388,-4.458e-5 -0.024288,0 z"
     sodipodi:nodetypes="csssssccsc" />
  <path
     id="rect6827"
     style="opacity:0.1;fill:#ffffff;fill-opacity:1;stroke-width:0.264583;stroke-linejoin:round"
     d="M 0.26458333,2.1166865 V 2.727502 2.9104365 c 0,0.79375 0.21166686,0.79375 0.79374987,0.79375 h 0.2645834 1.8520833 c 0.5820833,0 0.79375,0 0.79375,-0.79375 V 2.727502 2.1166865 Z" />
  <path
     id="path884"
     style="color:#000000;fill:#f2cbf8;stroke:none;stroke-width:0.264583;stroke-dashoffset:0pt;-inkscape-stroke:none"
     d="m 2.11667,1.4552083 a 0.92604165,0.396875 0 0 0 -0.9260416,0.396875 0.92604165,0.396875 0 0 0 0.056844,0.1348755 h -0.056844 v 0.5291666 0.1322917 c 0,0.2191887 0.4146021,0.396875 0.9260416,0.396875 0.5114396,0 0.9260417,-0.1776863 0.9260417,-0.396875 V 2.5161254 1.9869588 H 2.9858677 A 0.92604165,0.396875 0 0 0 3.0427117,1.8520833 0.92604165,0.396875 0 0 0 2.11667,1.4552083 Z" />
  <path
     id="path886"
     style="color:#000000;fill:#8e03a3;stroke:none;stroke-width:0.264583;stroke-dashoffset:0pt;-inkscape-stroke:none"
     d="m 2.11667,1.3229167 c -0.2710391,0 -0.5169574,0.04519 -0.7069335,0.1266072 -0.094986,0.040709 -0.1765097,0.090397 -0.2402954,0.1550293 -0.063786,0.06463 -0.1111044,0.1510286 -0.1111044,0.2475301 0,8.712e-4 -7.7e-6,0.00171 0,0.00258 v 0.1322915 0.5291666 0.1322917 c 0,0.096501 0.047319,0.1829004 0.1111044,0.2475301 0.063786,0.064632 0.1453099,0.1138037 0.2402954,0.1545125 0.1899761,0.081418 0.4358944,0.127124 0.7069335,0.127124 0.2710392,0 0.5169601,-0.045707 0.7069336,-0.127124 0.094988,-0.040709 0.1765096,-0.08988 0.2402954,-0.1545125 0.063786,-0.06463 0.1111044,-0.1510286 0.1111044,-0.2475301 V 2.5161254 1.8546671 c 7.6e-6,-8.705e-4 0,-0.00171 0,-0.00258 0,-0.096499 -0.047319,-0.1828992 -0.1111044,-0.2475289 C 3.0001132,1.5399208 2.9185917,1.4902327 2.8236036,1.4495239 2.6336301,1.3681063 2.3877092,1.3229167 2.11667,1.3229167 Z m 0,0.2645833 c 0.03005,0 0.05966,7.646e-4 0.088883,0.00207 0.029223,0.0013 0.058092,0.00317 0.0863,0.00568 0.028207,0.00251 0.055679,0.00568 0.082682,0.0093 0.027003,0.00362 0.053455,0.00776 0.079065,0.012402 0.025609,0.00464 0.050386,0.00993 0.074414,0.015503 0.024028,0.00557 0.047507,0.01117 0.069763,0.01757 0.022257,0.0064 0.043265,0.013535 0.063562,0.020671 0.020296,0.00714 0.03973,0.014443 0.057878,0.022221 0.018148,0.00778 0.034899,0.016043 0.050643,0.024288 0.015743,0.00825 0.030244,0.016436 0.043408,0.024805 0.013166,0.00837 0.025246,0.016657 0.035657,0.024805 0.010411,0.00815 0.019389,0.016188 0.026872,0.023771 0.00748,0.00758 0.013438,0.014507 0.018087,0.020671 0.00465,0.00616 0.00788,0.011564 0.010335,0.016537 0.00491,0.00995 0.0062,0.017743 0.0062,0.024289 0,7.726e-4 3.68e-5,0.00178 0,0.00259 -5.821e-4,0.0129 -0.00645,0.030371 -0.034623,0.058911 C 2.845861,1.943916 2.79181,1.980143 2.7192164,2.011252 2.5740312,2.073476 2.3570666,2.1166708 2.1166688,2.1166708 c -0.2403977,0 -0.4573624,-0.043195 -0.6025472,-0.1054199 -0.072594,-0.03111 -0.1266446,-0.067337 -0.1565795,-0.097668 -0.028169,-0.02854 -0.034035,-0.046015 -0.034623,-0.058911 -3.69e-5,-8.096e-4 0,-0.00181 0,-0.00259 0,-0.00327 1.266e-4,-0.00684 0.00103,-0.010852 9.075e-4,-0.00401 0.00271,-0.00846 0.00517,-0.013436 0.00246,-0.00497 0.00569,-0.010373 0.010335,-0.016537 0.00465,-0.00616 0.010602,-0.013088 0.018087,-0.020671 0.00748,-0.00758 0.01646,-0.015624 0.026872,-0.023771 0.010411,-0.00815 0.022492,-0.016436 0.035657,-0.024805 0.013165,-0.00837 0.027665,-0.016559 0.043408,-0.024805 0.015743,-0.00824 0.032494,-0.01651 0.050643,-0.024288 0.018148,-0.00778 0.037581,-0.015085 0.057878,-0.022221 0.020297,-0.00714 0.041305,-0.014271 0.063562,-0.020671 0.022257,-0.0064 0.045736,-0.012001 0.069763,-0.01757 0.024028,-0.00557 0.048804,-0.010858 0.074414,-0.015503 0.02561,-0.00464 0.052062,-0.00878 0.079065,-0.012402 0.027003,-0.00362 0.054475,-0.00679 0.082682,-0.0093 0.028207,-0.00251 0.057077,-0.00438 0.0863,-0.00568 0.029222,-0.0013 0.058833,-0.00207 0.088882,-0.00207 z M 1.3229201,2.212268 c 0.027529,0.015011 0.056383,0.028815 0.086816,0.041858 0.1899761,0.081418 0.4358944,0.127124 0.7069335,0.127124 0.2710392,0 0.5169601,-0.045706 0.7069336,-0.127124 0.030434,-0.013043 0.059287,-0.026847 0.086816,-0.041858 v 0.3038574 0.1322917 c 0,0.013097 -0.00468,0.031163 -0.034623,0.061495 -0.029935,0.030332 -0.083986,0.066556 -0.1565796,0.097668 -0.1451849,0.062223 -0.3621468,0.10542 -0.6025473,0.10542 -0.2404004,0 -0.4573624,-0.043198 -0.6025472,-0.10542 C 1.4415292,2.7764683 1.3874782,2.7402439 1.3575433,2.7099121 1.3276083,2.6795802 1.3229201,2.6615087 1.3229201,2.6484171 V 2.5161254 Z" />
  <path
     id="rect7040"
     style="opacity:0.4;stroke-width:0.264583;stroke-linejoin:round"
     d="M 1.0583333,0.26458333 C 0.21187339,0.26458333 0,0.47645663 0,1.3229166 v 1.5875 C 0,3.7568766 0.21187339,3.96875 1.0583333,3.96875 H 3.175 C 4.021402,3.9689566 4.2332756,3.7570833 4.2333333,2.9104166 v -1.5875 C 4.2332756,0.42374666 4.021402,0.26478997 3.175,0.26458333 Z M 0.94929604,0.52916666 H 1.3229166 3.175 c 0.5820833,0 0.79375,-2.9e-7 0.79375,0.79374994 v 0.1829346 1.2216309 0.1829345 c 0,0.79375 -0.2116667,0.79375 -0.79375,0.79375 H 1.3229166 1.0583333 c -0.5820832,0 -0.79374997,0 -0.79374997,-0.79375 V 2.7274821 1.5058512 1.3229166 c 0,-0.74414078 0.16294232,-0.79084294 0.68471271,-0.79374994 z"
     sodipodi:nodetypes="ssssccccsccssccsscssccsc" />
  <path
     id="rect13250"
     style="opacity:0.3;fill:url(#linearGradient16320);fill-opacity:1;stroke-width:0.127101;stroke-linejoin:round"
     d="M 0.94929604,0.52916666 C 0.4275256,0.53207345 0.26458333,0.5787759 0.26458333,1.3229166 v 0.1829346 1.2216309 0.1829345 c 0,0.79375 0.21166674,0.79375 0.79374997,0.79375 H 1.3229166 3.175 c 0.5820833,0 0.79375,0 0.79375,-0.79375 V 2.7274821 1.5058512 1.3229166 C 3.96875,0.52916642 3.7570833,0.52916666 3.175,0.52916666 H 1.3229166 Z m 0.0847494,0.26458333 c 0.0079,-4.458e-5 0.016138,0 0.024288,0 H 3.175 c 0.5216072,0 0.5291666,0.0892859 0.5291666,0.52916661 v 1.5875 c 0,0.4398807 -0.00756,0.5291667 -0.5291666,0.5291667 H 1.0583333 c -0.52160723,0 -0.52916664,-0.089286 -0.52916664,-0.5291667 v -1.5875 c 0,-0.4330075 0.007113,-0.52635721 0.50487874,-0.52916661 z"
     sodipodi:nodetypes="csccsscssccssccssssssssss" />
</svg>
