<?xml version="1.0" encoding="UTF-8" standalone="no"?>
<!-- Created with Inkscape (http://www.inkscape.org/) -->

<svg
   width="16"
   height="16"
   viewBox="0 0 4.2333333 4.2333333"
   version="1.1"
   id="svg1003"
   sodipodi:docname="preferences-desktop-theme-applications.svg"
   inkscape:version="1.1.2 (0a00cf5339, 2022-02-04)"
   xmlns:inkscape="http://www.inkscape.org/namespaces/inkscape"
   xmlns:sodipodi="http://sodipodi.sourceforge.net/DTD/sodipodi-0.dtd"
   xmlns:xlink="http://www.w3.org/1999/xlink"
   xmlns="http://www.w3.org/2000/svg"
   xmlns:svg="http://www.w3.org/2000/svg">
  <sodipodi:namedview
     id="namedview1005"
     pagecolor="#ffffff"
     bordercolor="#666666"
     borderopacity="1.0"
     inkscape:pageshadow="2"
     inkscape:pageopacity="0.0"
     inkscape:pagecheckerboard="0"
     inkscape:document-units="px"
     showgrid="false"
     units="px"
     showguides="true"
     inkscape:lockguides="true"
     inkscape:zoom="20.001019"
     inkscape:cx="7.474619"
     inkscape:cy="5.9496967"
     inkscape:window-width="1851"
     inkscape:window-height="1053"
     inkscape:window-x="0"
     inkscape:window-y="0"
     inkscape:window-maximized="1"
     inkscape:current-layer="svg1003" />
  <defs
     id="defs1000">
    <linearGradient
       inkscape:collect="always"
       id="linearGradient17934">
      <stop
         style="stop-color:#29c8fd;stop-opacity:1"
         offset="0"
         id="stop17930" />
      <stop
         style="stop-color:#0829df;stop-opacity:1"
         offset="1"
         id="stop17932" />
    </linearGradient>
    <linearGradient
       inkscape:collect="always"
       xlink:href="#linearGradient1871"
       id="linearGradient16320"
       x1="10"
       y1="4"
       x2="10"
       y2="29.100245"
       gradientUnits="userSpaceOnUse"
       gradientTransform="matrix(0.13229166,0,0,0.12211538,0,0.04070512)" />
    <linearGradient
       inkscape:collect="always"
       id="linearGradient1871">
      <stop
         style="stop-color:#ffffff;stop-opacity:1;"
         offset="0"
         id="stop1867" />
      <stop
         style="stop-color:#ffffff;stop-opacity:0.1"
         offset="0.12"
         id="stop2515" />
      <stop
         style="stop-color:#ffffff;stop-opacity:0.102"
         offset="0.89999998"
         id="stop2581" />
      <stop
         style="stop-color:#ffffff;stop-opacity:0.502"
         offset="1"
         id="stop1869" />
    </linearGradient>
    <linearGradient
       inkscape:collect="always"
       xlink:href="#linearGradient17934"
       id="linearGradient17936"
       x1="4.2333331"
       y1="3.96875"
       x2="-0.53718448"
       y2="0.26725584"
       gradientUnits="userSpaceOnUse" />
  </defs>
  <path
     d="M 1.0583333,0.396875 H 3.175 c 0.7935019,1.919e-4 0.9259876,0.157244 0.9260416,0.9921875 V 2.8376562 C 4.1009876,3.6238466 3.9685019,3.8366501 3.175,3.8364583 H 1.0583333 c -0.79355622,0 -0.92604169,-0.2128036 -0.92604169,-0.9988021 V 1.3890625 c 0,-0.7859985 0.13248546,-0.9921875 0.92604169,-0.9921875 z"
     style="fill:url(#linearGradient17936);fill-opacity:1;stroke-width:0.0653156;stroke-linejoin:round"
     id="path17503"
     sodipodi:nodetypes="sccccssss" />
  <path
     id="path2377"
     style="opacity:0.6;fill:#ffffff;fill-opacity:1;stroke-width:0.138748"
     d="M 3 6 L 3 7 C 3 7.5540001 3.4459999 8 4 8 L 12 8 C 12.554 8 13 7.5540001 13 7 L 13 6 C 13 6.5540001 12.554 7 12 7 L 4 7 C 3.4459999 7 3 6.5540001 3 6 z "
     transform="scale(0.26458333)" />
  <path
     id="rect1123"
     style="fill:#000000;fill-opacity:1;stroke-width:0.138748;opacity:0.3"
     d="m 1.0583334,0.79380091 h 2.1166665 c 0.1465792,0 0.2645834,0.1180042 0.2645834,0.26458339 V 1.5875 c 0,0.1465792 -0.1180042,0.2645834 -0.2645834,0.2645834 H 1.0583334 C 0.9117542,1.8520834 0.79375,1.7340792 0.79375,1.5875 V 1.0583843 c 0,-0.14657919 0.1180042,-0.26458339 0.2645834,-0.26458339 z"
     sodipodi:nodetypes="sssssssss" />
  <path
     d="m 2.5135417,1.3229167 h 0.5291667 c 0.07329,0 0.1322916,0.059002 0.1322916,0.1322916 v 0.2645834 c 0,0.07329 -0.059002,0.1322917 -0.1322916,0.1322917 H 2.5135417 c -0.07329,0 -0.1322916,-0.059002 -0.1322916,-0.1322917 V 1.4552083 c 0,-0.07329 0.059002,-0.1322916 0.1322916,-0.1322916 z"
     style="opacity:0.1;fill:#000000;stroke-width:0.035002"
     id="path1809" />
  <path
     id="rect4149"
     style="fill:#ffffff;stroke-width:0.132291"
     d="m 2.5135417,1.0583333 h 0.5291667 c 0.07329,0 0.1322917,0.059002 0.1322917,0.1322916 v 0.2645834 c 0,0.07329 -0.059002,0.1322917 -0.1322917,0.1322917 H 2.5135417 C 2.4402517,1.5875 2.38125,1.528498 2.38125,1.4552083 V 1.1906249 c 0,-0.07329 0.059002,-0.1322916 0.1322917,-0.1322916 z"
     sodipodi:nodetypes="sssssssss" />
  <path
     id="path2167"
     style="opacity:0.2;fill:#000000;fill-opacity:1;stroke-width:0.0367104"
     d="m 1.0583333,0.79374999 c -0.14657916,0 -0.2645833,0.11800417 -0.2645833,0.26458331 v 0.2645834 c 0,-0.1465792 0.11800414,-0.2645834 0.2645833,-0.2645834 H 3.175 c 0.1465791,0 0.2645833,0.1180042 0.2645833,0.2645834 V 1.0583333 C 3.4395833,0.91175416 3.3215791,0.79374999 3.175,0.79374999 Z" />
  <path
     id="path3359"
     style="opacity:0.1;fill:#000000;fill-opacity:1;stroke-width:0.00971296"
     d="M 1.0583333,2.38125 C 0.91175403,2.38125 0.79375,2.4992542 0.79375,2.6458333 V 3.175 c 0,0.1465792 0.11800403,0.2645833 0.2645833,0.2645833 H 3.175 c 0.1465791,0 0.2645833,-0.1180041 0.2645833,-0.2645833 V 2.6458333 C 3.4395833,2.4992542 3.3215791,2.38125 3.175,2.38125 Z M 1.190625,2.6458333 h 1.8520833 c 0.07329,0 0.1322917,0.059002 0.1322917,0.1322917 V 3.0427083 C 3.175,3.1159983 3.115998,3.175 3.0427083,3.175 H 1.190625 C 1.117335,3.175 1.0583333,3.115998 1.0583333,3.0427083 V 2.778125 c 0,-0.07329 0.059002,-0.1322917 0.1322917,-0.1322917 z" />
  <path
     d="m 1.0583335,2.38125 h 0.7937498 c 0.1465791,0 0.2645833,0.1180042 0.2645833,0.2645833 v 0.5291159 c 0,0.1465792 -0.1180042,0.2645833 -0.2645833,0.2645833 H 1.0583335 c -0.14657929,0 -0.26458351,-0.1180041 -0.26458351,-0.2645833 V 2.6458333 c 0,-0.1465791 0.11800422,-0.2645833 0.26458351,-0.2645833 z"
     style="opacity:0.2;fill:#000000;fill-opacity:1;stroke-width:0.00971296"
     id="path3540"
     sodipodi:nodetypes="sssssssss" />
  <path
     d="m 1.190625,2.6458333 h 0.5291666 c 0.07329,0 0.1322916,0.059002 0.1322916,0.1322917 v 0.2645833 c 0,0.07329 -0.059002,0.1322917 -0.1322916,0.1322917 H 1.190625 C 1.117335,3.175 1.0583333,3.115998 1.0583333,3.0427083 V 2.778125 c 0,-0.07329 0.059002,-0.1322917 0.1322917,-0.1322917 z"
     style="fill:#ffffff;stroke-width:0.035002"
     id="path3239" />
  <path
     id="rect13250"
     style="opacity:0.4;fill:url(#linearGradient16320);fill-opacity:1;stroke-width:0.127101;stroke-linejoin:round"
     d="M 0.94929604,0.52916666 C 0.4275256,0.53207345 0.26458333,0.5787759 0.26458333,1.3229166 v 0.1829346 1.2216309 0.1829345 c 0,0.79375 0.21166674,0.79375 0.79374997,0.79375 H 1.3229166 3.175 c 0.5820833,0 0.79375,0 0.79375,-0.79375 V 2.7274821 1.5058512 1.3229166 C 3.96875,0.52916642 3.7570833,0.52916666 3.175,0.52916666 H 1.3229166 Z m 0.0847494,0.26458333 c 0.0079,-4.458e-5 0.016138,0 0.024288,0 H 3.175 c 0.5216072,0 0.5291666,0.0892859 0.5291666,0.52916661 v 1.5875 c 0,0.4398807 -0.00756,0.5291667 -0.5291666,0.5291667 H 1.0583333 c -0.52160723,0 -0.52916664,-0.089286 -0.52916664,-0.5291667 v -1.5875 c 0,-0.4330075 0.007113,-0.52635721 0.50487874,-0.52916661 z"
     sodipodi:nodetypes="csccsscssccssccssssssssss" />
  <path
     id="rect7040"
     style="opacity:0.4;stroke-width:0.264583;stroke-linejoin:round"
     d="M 1.0583333,0.26458333 C 0.21187339,0.26458333 0,0.47645663 0,1.3229166 v 1.5875 C 0,3.7568766 0.21187339,3.96875 1.0583333,3.96875 H 3.175 C 4.021402,3.9689566 4.2332756,3.7570833 4.2333333,2.9104166 v -1.5875 C 4.2332756,0.42374666 4.021402,0.26478997 3.175,0.26458333 Z M 0.94929604,0.52916666 H 1.3229166 3.175 c 0.5820833,0 0.79375,-2.9e-7 0.79375,0.79374994 v 0.1829346 1.2216309 0.1829345 c 0,0.79375 -0.2116667,0.79375 -0.79375,0.79375 H 1.3229166 1.0583333 c -0.5820832,0 -0.79374997,0 -0.79374997,-0.79375 V 2.7274821 1.5058512 1.3229166 c 0,-0.74414078 0.16294232,-0.79084294 0.68471271,-0.79374994 z"
     sodipodi:nodetypes="ssssccccsccssccsscssccsc" />
</svg>
