<?xml version="1.0" encoding="UTF-8" standalone="no"?>
<!-- Created with Inkscape (http://www.inkscape.org/) -->

<svg
   width="16"
   height="16"
   viewBox="0 0 4.2333333 4.2333333"
   version="1.1"
   id="svg1003"
   sodipodi:docname="system-config-users.svg"
   inkscape:version="1.1.2 (0a00cf5339, 2022-02-04)"
   xmlns:inkscape="http://www.inkscape.org/namespaces/inkscape"
   xmlns:sodipodi="http://sodipodi.sourceforge.net/DTD/sodipodi-0.dtd"
   xmlns:xlink="http://www.w3.org/1999/xlink"
   xmlns="http://www.w3.org/2000/svg"
   xmlns:svg="http://www.w3.org/2000/svg">
  <sodipodi:namedview
     id="namedview1005"
     pagecolor="#ffffff"
     bordercolor="#666666"
     borderopacity="1.0"
     inkscape:pageshadow="2"
     inkscape:pageopacity="0.0"
     inkscape:pagecheckerboard="0"
     inkscape:document-units="px"
     showgrid="false"
     units="px"
     showguides="true"
     inkscape:lockguides="true"
     inkscape:zoom="50.9375"
     inkscape:cx="8"
     inkscape:cy="7.9705521"
     inkscape:window-width="1851"
     inkscape:window-height="1049"
     inkscape:window-x="0"
     inkscape:window-y="0"
     inkscape:window-maximized="1"
     inkscape:current-layer="svg1003" />
  <defs
     id="defs1000">
    <linearGradient
       inkscape:collect="always"
       id="linearGradient17934">
      <stop
         style="stop-color:#8c59d9;stop-opacity:1"
         offset="0"
         id="stop17930" />
      <stop
         style="stop-color:#a7a7f1;stop-opacity:1"
         offset="1"
         id="stop17932" />
    </linearGradient>
    <linearGradient
       inkscape:collect="always"
       xlink:href="#linearGradient1871"
       id="linearGradient16320"
       x1="10"
       y1="4"
       x2="10"
       y2="29.100245"
       gradientUnits="userSpaceOnUse"
       gradientTransform="matrix(0.13229166,0,0,0.12211538,0,0.04070512)" />
    <linearGradient
       inkscape:collect="always"
       id="linearGradient1871">
      <stop
         style="stop-color:#ffffff;stop-opacity:1;"
         offset="0"
         id="stop1867" />
      <stop
         style="stop-color:#ffffff;stop-opacity:0.1"
         offset="0.12"
         id="stop2515" />
      <stop
         style="stop-color:#ffffff;stop-opacity:0.102"
         offset="0.89999998"
         id="stop2581" />
      <stop
         style="stop-color:#ffffff;stop-opacity:0.502"
         offset="1"
         id="stop1869" />
    </linearGradient>
    <linearGradient
       inkscape:collect="always"
       xlink:href="#linearGradient17934"
       id="linearGradient17936"
       x1="2.1166666"
       y1="3.96875"
       x2="2.1166666"
       y2="0.26458332"
       gradientUnits="userSpaceOnUse" />
    <clipPath
       id="clipPath1225-9">
      <path
         d="m 330.31,236.5 c 4.5406,0 5.1895,0.64729 5.1895,5.1836 v 3.6328 c 0,4.5363 -0.64891,5.1836 -5.1895,5.1836 h -4.6211 c -4.5405,0 -5.1894,-0.6473 -5.1894,-5.1836 v -3.6328 c 0,-4.5363 0.64892,-5.1836 5.1895,-5.1836 z"
         fill="#325fd1"
         id="path7" />
    </clipPath>
  </defs>
  <path
     d="M 1.0583333,0.396875 H 3.175 c 0.7935019,1.919e-4 0.9259876,0.157244 0.9260416,0.9921875 V 2.8376562 C 4.1009876,3.6238466 3.9685019,3.8366501 3.175,3.8364583 H 1.0583333 c -0.79355622,0 -0.92604169,-0.2128036 -0.92604169,-0.9988021 V 1.3890625 c 0,-0.7859985 0.13248546,-0.9921875 0.92604169,-0.9921875 z"
     style="fill:url(#linearGradient17936);fill-opacity:1;stroke-width:0.0653156;stroke-linejoin:round"
     id="path17503"
     sodipodi:nodetypes="sccccssss" />
  <path
     d="m 2.5816534,0.80771594 c -0.084288,0 -0.1637504,0.015649 -0.2367238,0.047181 l -1.465e-4,4.97e-5 -9.4e-5,4.98e-5 c -0.07257,0.029959 -0.1364296,0.073795 -0.1898325,0.130543 l -9.12e-5,9.13e-5 -2.765e-4,5.529e-4 -1.466e-4,1.438e-4 C 2.1023413,1.0433764 2.0620173,1.112087 2.0334575,1.1908115 v 5.53e-5 l -5.53e-5,9.68e-5 c -0.028902,0.078324 -0.043095,0.1645218 -0.043095,0.2575275 0,0.094393 0.014157,0.1812001 0.043095,0.2596426 0.028609,0.077491 0.06898,0.1454656 0.1209319,0.2024684 l 1.465e-4,1.438e-4 3.733e-4,3.733e-4 5.25e-5,5.53e-5 c 0.053383,0.056751 0.1171024,0.1013064 0.1895449,0.1327052 l 1.438e-4,5.53e-5 1.465e-4,1.438e-4 1.466e-4,9.68e-5 1.437e-4,5.25e-5 c 0.072952,0.030038 0.1523117,0.044876 0.2365303,0.044876 0.084221,0 0.1636287,-0.014848 0.2365827,-0.044876 l 2.765e-4,-1.438e-4 2.765e-4,-1.466e-4 c 0.072545,-0.031443 0.1357025,-0.07626 0.1877643,-0.1333295 l 1.492e-4,-1.494e-4 C 3.0599833,1.8535193 3.101237,1.785504 3.1298521,1.7079905 3.1588068,1.6295536 3.17285,1.5427471 3.17285,1.4483479 3.17285,1.3554799 3.158748,1.269426 3.129946,1.1912047 L 3.1297996,1.1906518 C 3.1012318,1.1119135 3.0600751,1.0431981 3.0066557,0.98621194 l -1.466e-4,-1.465e-4 C 2.9544169,0.92896304 2.8910602,0.88486724 2.8183605,0.85485324 l -1.437e-4,-4.97e-5 -9.4e-5,-5.26e-5 C 2.7452876,0.82329114 2.6659356,0.80762744 2.5818304,0.80757774 Z m -2.765e-4,0.1005153 h 2.765e-4 c 0.072179,0 0.1375052,0.013161 0.1974196,0.039108 l 1.465e-4,5.25e-5 1.438e-4,9.95e-5 1.465e-4,9.13e-5 1.465e-4,5.81e-5 c 0.060044,0.024719 0.1104831,0.059908 0.1528315,0.10637156 l 1.467e-4,1.465e-4 2.764e-4,5.53e-4 c 0.043712,0.046549 0.07782,0.102899 0.1023399,0.1706572 l 2.764e-4,0.00111 1.467e-4,8.294e-4 v 9.68e-5 c 0.023945,0.065474 0.036321,0.1388684 0.036321,0.2211099 0,0.084421 -0.012581,0.1590444 -0.036852,0.2248094 -0.024471,0.066324 -0.058549,0.1221541 -0.102434,0.1688823 l -1.465e-4,1.438e-4 -2.766e-4,2.765e-4 -1.438e-4,1.465e-4 c -0.04234,0.046448 -0.092883,0.082344 -0.152931,0.1084867 l -1.466e-4,9.96e-5 -1.438e-4,5.53e-5 c -0.059992,0.024636 -0.1255079,0.037186 -0.1978564,0.037186 -0.072345,0 -0.1378618,-0.012553 -0.1978536,-0.037186 l -1.438e-4,-5.53e-5 -1.465e-4,-9.96e-5 C 2.3228844,1.9251272 2.2715139,1.8891078 2.2276365,1.842529 l -9.68e-5,-9.68e-5 -9.4e-5,-9.68e-5 C 2.1849672,1.7956183 2.1514311,1.7396579 2.1268864,1.6731657 2.1026103,1.6074008 2.0900344,1.5327793 2.0900344,1.4483562 c 0,-0.082405 0.012415,-0.1559725 0.036468,-0.2215413 l 1.465e-4,-8.294e-4 9.4e-5,-1.438e-4 9.41e-5,-2.765e-4 C 2.151417,1.1576332 2.184982,1.1011604 2.2273001,1.0546175 l 9.67e-5,-9.4e-5 9.4e-5,-9.4e-5 c 0.043896,-0.046596 0.095117,-0.0819012 0.1551398,-0.10661756 l 2.765e-4,-9.4e-5 5.53e-5,-5.53e-5 2.765e-4,-9.68e-5 c 0.059845,-0.025936 0.1251042,-0.039086 0.1971817,-0.03911 z M 1.3600577,1.1031181 c -0.063838,0 -0.1244629,0.011945 -0.1800777,0.035936 l -9.4e-5,5.8e-5 -9.12e-5,5.53e-5 c -0.055302,0.022839 -0.104245,0.056394 -0.1449569,0.099694 l -1.438e-4,1.465e-4 -1.824e-4,1.935e-4 -1.438e-4,1.438e-4 c -0.0397353,0.043582 -0.0704352,0.096028 -0.09206,0.1557182 l -9.123e-5,1.437e-4 c -1.661e-5,1.94e-5 -1.661e-5,9.4e-5 -5.528e-5,9.69e-5 -0.0218433,0.059383 -0.0324806,0.1244738 -0.0324806,0.1943476 0,0.071063 0.0106729,0.1368388 0.0326708,0.1964629 0.0216771,0.05867 0.0524021,0.1104913 0.0920098,0.1539402 l 4.23e-4,4.231e-4 c 0.040676,0.043261 0.089422,0.077286 0.1445725,0.1011842 l 9.41e-5,5.53e-5 8.294e-4,2.765e-4 5.26e-5,5.25e-5 c 0.055507,0.022811 0.1159273,0.03402 0.1795965,0.03402 0.063692,0 0.1240314,-0.011199 0.1795523,-0.03402 1.65e-5,-1.38e-5 9.39e-5,-1.38e-5 9.39e-5,-5.25e-5 l 5.531e-4,-2.765e-4 2.765e-4,-1.466e-4 c 0.055184,-0.023916 0.1035156,-0.058108 0.1432259,-0.1016183 l 9.4e-5,-9.68e-5 5.53e-5,-9.68e-5 c 0.040646,-0.043386 0.07207,-0.095203 0.093738,-0.1538932 0.022009,-0.059624 0.032621,-0.1254001 0.032621,-0.1964601 0,-0.069929 -0.010645,-0.1350721 -0.032525,-0.1944915 l -5.81e-5,-1.465e-4 C 1.7559069,1.3349917 1.7245215,1.2825093 1.6836743,1.2389526 l -9.4e-5,-9.4e-5 -5.53e-5,-9.96e-5 C 1.643805,1.19528 1.595302,1.161614 1.5400136,1.138778 l -1.88e-4,-1.107e-4 c -0.055618,-0.024 -0.1161872,-0.03595 -0.1800251,-0.03595 z m -0.00293,0.1005592 h 0.00293 c 0.051725,0 0.098132,0.00937 0.1406793,0.027821 l 1.438e-4,5.25e-5 2.765e-4,9.68e-5 2.766e-4,1.438e-4 c 0.042613,0.01753 0.078099,0.042379 0.1080581,0.075193 l 1.465e-4,1.467e-4 1.438e-4,9.67e-5 2.766e-4,2.765e-4 c 0.031061,0.033036 0.055332,0.073172 0.072935,0.1217973 l 1.437e-4,8.296e-4 c 0.017281,0.046952 0.026267,0.099899 0.026267,0.1596582 0,0.061081 -0.00904,0.1146776 -0.026378,0.1616269 -0.017558,0.047566 -0.041911,0.087255 -0.073125,0.1204536 l -1.466e-4,1.438e-4 -1.438e-4,9.68e-5 -9.4e-5,9.67e-5 -1.465e-4,1.465e-4 c -0.030045,0.032956 -0.06587,0.058308 -0.1086305,0.076922 l -1.466e-4,9.4e-5 -1.438e-4,5.53e-5 c -0.042531,0.01742 -0.089026,0.026433 -0.1408259,0.026433 -0.051811,0 -0.098365,-0.00899 -0.1409172,-0.026433 l -1.466e-4,-5.53e-5 -1.437e-4,-9.4e-5 C 1.1756892,1.9306675 1.139321,1.9051959 1.1081489,1.8721603 l -9.12e-5,-9.68e-5 -9.4e-5,-9.67e-5 C 1.0778114,1.8388058 1.053806,1.7991009 1.0361847,1.7513722 1.0188486,1.7043865 1.009807,1.6507764 1.009807,1.5896955 c 0,-0.059836 0.00899,-0.1128555 0.026322,-0.1598491 1.93e-5,-9.39e-5 1.93e-5,-1.465e-4 5.53e-5,-2.764e-4 l 5.81e-5,-5.81e-5 5.25e-5,-1.465e-4 c 0.017668,-0.04879 0.041684,-0.088944 0.071685,-0.1219412 l 9.41e-5,-9.4e-5 8.85e-5,-9.95e-5 c 0.031122,-0.03297 0.067255,-0.05798 0.1098858,-0.075529 l 2.764e-4,-9.67e-5 2.765e-4,-1.437e-4 c 0.041442,-0.017972 0.086818,-0.026959 0.136933,-0.027429 z m 1.2385213,1.102591 c -0.4432816,0 -0.7135031,0.040422 -0.8823603,0.165567 -0.084158,0.062366 -0.1394822,0.1469421 -0.1712879,0.2481597 -0.030606,0.097411 -0.040711,0.2195532 -0.041801,0.3521478 l 0.1005623,2.765e-4 c 0.00111,-0.127037 0.011364,-0.2400776 0.037186,-0.3222307 0.026848,-0.085485 0.068359,-0.1479928 0.1352518,-0.1975661 0.1345246,-0.099694 0.3858253,-0.1458195 0.822471,-0.1458195 0.4366455,0 0.6878992,0.046144 0.822305,0.1458195 0.066824,0.04956 0.1082627,0.1120453 0.1350083,0.1975191 0.025687,0.082136 0.035767,0.1951551 0.036708,0.3221754 l 0.1005624,-9.39e-5 C 3.6894205,2.9396122 3.6794389,2.8175327 3.6489771,2.7201032 3.6173015,2.61888 3.5619466,2.5342246 3.4778332,2.4718494 3.3090561,2.3466788 3.0389478,2.3062797 2.5956664,2.3062797 Z M 1.330173,2.2851994 c -0.31424,8.294e-4 -0.49988072,0.031565 -0.62579791,0.1255052 -0.0637162,0.047527 -0.10605081,0.1131042 -0.12981857,0.190167 -0.0238617,0.077342 -0.03133,0.166568 -0.031565,0.2719911 V 3.0231891 H 0.64350406 V 2.873001 C 0.6436506,2.7725327 0.65154976,2.6922764 0.6706009,2.6305123 0.68954105,2.5690832 0.71820554,2.5258108 0.76443597,2.4913204 0.85633837,2.4227653 1.0230474,2.3869865 1.3301785,2.3858033 Z"
     style="color:#000000;font-variant-ligatures:normal;font-variant-position:normal;font-variant-caps:normal;font-variant-numeric:normal;font-variant-alternates:normal;font-feature-settings:normal;text-indent:0;text-decoration-line:none;text-decoration-style:solid;text-decoration-color:#000000;text-transform:none;text-orientation:mixed;dominant-baseline:auto;white-space:normal;shape-padding:0;isolation:auto;mix-blend-mode:normal;solid-color:#000000;fill:#ffffff;stroke:#ffffff;stroke-width:0.0276498;color-rendering:auto;image-rendering:auto;shape-rendering:auto"
     id="path872" />
  <path
     id="rect13250"
     style="opacity:1;fill:url(#linearGradient16320);fill-opacity:1;stroke-width:0.127101;stroke-linejoin:round"
     d="M 0.94929604,0.52916666 C 0.4275256,0.53207345 0.26458333,0.5787759 0.26458333,1.3229166 v 0.1829346 1.2216309 0.1829345 c 0,0.79375 0.21166674,0.79375 0.79374997,0.79375 H 1.3229166 3.175 c 0.5820833,0 0.79375,0 0.79375,-0.79375 V 2.7274821 1.5058512 1.3229166 C 3.96875,0.52916642 3.7570833,0.52916666 3.175,0.52916666 H 1.3229166 Z m 0.0847494,0.26458333 c 0.0079,-4.458e-5 0.016138,0 0.024288,0 H 3.175 c 0.5216072,0 0.5291666,0.0892859 0.5291666,0.52916661 v 1.5875 c 0,0.4398807 -0.00756,0.5291667 -0.5291666,0.5291667 H 1.0583333 c -0.52160723,0 -0.52916664,-0.089286 -0.52916664,-0.5291667 v -1.5875 c 0,-0.4330075 0.007113,-0.52635721 0.50487874,-0.52916661 z"
     sodipodi:nodetypes="csccsscssccssccssssssssss" />
  <path
     id="rect7040"
     style="opacity:0.4;stroke-width:0.264583;stroke-linejoin:round"
     d="M 1.0583333,0.26458333 C 0.21187339,0.26458333 0,0.47645663 0,1.3229166 v 1.5875 C 0,3.7568766 0.21187339,3.96875 1.0583333,3.96875 H 3.175 C 4.021402,3.9689566 4.2332756,3.7570833 4.2333333,2.9104166 v -1.5875 C 4.2332756,0.42374666 4.021402,0.26478997 3.175,0.26458333 Z M 0.94929604,0.52916666 H 1.3229166 3.175 c 0.5820833,0 0.79375,-2.9e-7 0.79375,0.79374994 v 0.1829346 1.2216309 0.1829345 c 0,0.79375 -0.2116667,0.79375 -0.79375,0.79375 H 1.3229166 1.0583333 c -0.5820832,0 -0.79374997,0 -0.79374997,-0.79375 V 2.7274821 1.5058512 1.3229166 c 0,-0.74414078 0.16294232,-0.79084294 0.68471271,-0.79374994 z"
     sodipodi:nodetypes="ssssccccsccssccsscssccsc" />
</svg>
