<?xml version="1.0" encoding="UTF-8" standalone="no"?>
<!-- Created with Inkscape (http://www.inkscape.org/) -->

<svg
   width="16"
   height="16"
   viewBox="0 0 4.2333333 4.2333333"
   version="1.1"
   id="svg1003"
   sodipodi:docname="accessories-dictionary.svg"
   inkscape:version="1.1.2 (0a00cf5339, 2022-02-04)"
   xmlns:inkscape="http://www.inkscape.org/namespaces/inkscape"
   xmlns:sodipodi="http://sodipodi.sourceforge.net/DTD/sodipodi-0.dtd"
   xmlns:xlink="http://www.w3.org/1999/xlink"
   xmlns="http://www.w3.org/2000/svg"
   xmlns:svg="http://www.w3.org/2000/svg">
  <sodipodi:namedview
     id="namedview1005"
     pagecolor="#ffffff"
     bordercolor="#666666"
     borderopacity="1.0"
     inkscape:pageshadow="2"
     inkscape:pageopacity="0.0"
     inkscape:pagecheckerboard="0"
     inkscape:document-units="px"
     showgrid="false"
     units="px"
     showguides="true"
     inkscape:lockguides="true"
     inkscape:zoom="35.001786"
     inkscape:cx="10.17091"
     inkscape:cy="8.4424263"
     inkscape:window-width="1851"
     inkscape:window-height="1049"
     inkscape:window-x="0"
     inkscape:window-y="0"
     inkscape:window-maximized="1"
     inkscape:current-layer="svg1003" />
  <defs
     id="defs1000">
    <linearGradient
       inkscape:collect="always"
       id="linearGradient17934">
      <stop
         style="stop-color:#da1636;stop-opacity:1"
         offset="0"
         id="stop17930" />
      <stop
         style="stop-color:#bc1938;stop-opacity:1"
         offset="1"
         id="stop17932" />
    </linearGradient>
    <linearGradient
       inkscape:collect="always"
       xlink:href="#linearGradient1871"
       id="linearGradient16320"
       x1="10"
       y1="4"
       x2="10"
       y2="29.100245"
       gradientUnits="userSpaceOnUse"
       gradientTransform="matrix(0.13229166,0,0,0.12211538,0,0.04070512)" />
    <linearGradient
       inkscape:collect="always"
       id="linearGradient1871">
      <stop
         style="stop-color:#ffffff;stop-opacity:1;"
         offset="0"
         id="stop1867" />
      <stop
         style="stop-color:#ffffff;stop-opacity:0.1"
         offset="0.12"
         id="stop2515" />
      <stop
         style="stop-color:#ffffff;stop-opacity:0.102"
         offset="0.89999998"
         id="stop2581" />
      <stop
         style="stop-color:#ffffff;stop-opacity:0.502"
         offset="1"
         id="stop1869" />
    </linearGradient>
    <linearGradient
       inkscape:collect="always"
       xlink:href="#linearGradient17934"
       id="linearGradient17936"
       x1="2.6458333"
       y1="0.26458332"
       x2="2.6458333"
       y2="3.96875"
       gradientUnits="userSpaceOnUse" />
  </defs>
  <path
     d="M 1.0583333,0.396875 H 3.175 c 0.7935019,1.919e-4 0.9259876,0.157244 0.9260416,0.9921875 V 2.8376562 C 4.1009876,3.6238466 3.9685019,3.8366501 3.175,3.8364583 H 1.0583333 c -0.79355622,0 -0.92604169,-0.2128036 -0.92604169,-0.9988021 V 1.3890625 c 0,-0.7859985 0.13248546,-0.9921875 0.92604169,-0.9921875 z"
     style="fill:url(#linearGradient17936);fill-opacity:1;stroke-width:0.0653156;stroke-linejoin:round"
     id="path17503"
     sodipodi:nodetypes="sccccssss" />
  <path
     id="rect2126"
     style="opacity:0.03;fill:#ffffff;fill-opacity:1;stroke-width:0.999999"
     d="M 0.5 7 L 0.5 10.724609 C 0.5 13.695313 1.0007324 14.5 4 14.5 L 12 14.5 C 14.999062 14.500725 15.499796 13.696037 15.5 10.724609 L 15.5 7 L 0.5 7 z "
     transform="scale(0.26458333)" />
  <path
     id="rect1340"
     style="opacity:0.15;fill:#000000;fill-opacity:1;stroke-width:1.35128;stroke-linecap:round;stroke-linejoin:round"
     d="M 2.9882812 1.5390625 C 0.88316297 1.7288399 0.5 2.6506349 0.5 5.25 L 0.5 10.724609 C 0.5 13.328502 0.88520241 14.26661 3 14.458984 L 3 1.5390625 C 2.9963209 1.5393888 2.9919499 1.5387318 2.9882812 1.5390625 z "
     transform="scale(0.26458333)" />
  <path
     d="m 2.8804443,1.8520833 c -0.085333,0 -0.1587129,0.00595 -0.2201518,0.017912 -0.05973,0.011959 -0.1041083,0.024739 -0.1331199,0.038396 l 0.023019,0.1459203 c 0.022172,-0.00852 0.057168,-0.019606 0.104955,-0.033261 0.047786,-0.013653 0.1203404,-0.020532 0.2176224,-0.020532 0.068262,0 0.1228566,0.011112 0.1638141,0.033303 0.042667,0.020479 0.075107,0.048657 0.097293,0.084495 0.023892,0.034131 0.039235,0.073385 0.046059,0.1177555 0.00685,0.042667 0.010239,0.087003 0.010239,0.1330828 v 0.081928 c -0.00683,-0.00341 -0.019632,-0.00683 -0.038394,-0.010239 -0.017066,-0.00513 -0.038394,-0.00939 -0.063995,-0.012779 -0.023892,-0.00513 -0.049482,-0.00852 -0.07679,-0.010239 -0.025612,-0.00341 -0.050329,-0.00513 -0.074229,-0.00513 -0.080211,0 -0.1544426,0.00767 -0.2227104,0.023045 -0.068265,0.015372 -0.127164,0.040129 -0.1766517,0.074263 -0.049493,0.032427 -0.087884,0.074224 -0.115189,0.1254204 -0.027308,0.0512 -0.040965,0.1126413 -0.040965,0.1843169 0,0.075094 0.011959,0.1391179 0.035827,0.192024 0.025585,0.051197 0.059724,0.093853 0.1023884,0.1279869 0.044373,0.032425 0.095597,0.056295 0.1536277,0.071654 0.059732,0.015372 0.1245738,0.023072 0.1945481,0.023072 0.054613,0 0.107524,-0.00265 0.1587209,-0.0077 0.052906,-0.00341 0.1006898,-0.00852 0.1433566,-0.015372 0.042664,-0.00683 0.08019,-0.012779 0.1126146,-0.017886 0.03243,-0.00685 0.0572,-0.012806 0.074266,-0.017939 v -0.834524 c 0,-0.069974 -0.00855,-0.1348582 -0.025585,-0.1945905 C 3.3139482,2.0867369 3.28663,2.035548 3.2490883,1.9928839 3.2115412,1.9485133 3.1620324,1.9143873 3.1005935,1.8904928 3.0408638,1.8648812 2.9674869,1.8520965 2.8804496,1.8520965 Z m 0.051189,0.7039768 c 0.071678,0 0.1279922,0.00513 0.1689523,0.015372 0.040958,0.00852 0.070816,0.017066 0.089588,0.025585 v 0.4659313 c -0.034131,0.00685 -0.075925,0.012779 -0.1254151,0.017912 -0.047786,0.00341 -0.104103,0.00513 -0.1689523,0.00513 -0.052909,0 -0.1006899,-0.00429 -0.1433539,-0.012806 -0.040957,-0.010239 -0.076806,-0.025612 -0.1075294,-0.046096 -0.029009,-0.020479 -0.052059,-0.047757 -0.069125,-0.081889 -0.015372,-0.034134 -0.023045,-0.07597 -0.023045,-0.1254575 0,-0.056322 0.011959,-0.1015603 0.03583,-0.1356889 0.023892,-0.034134 0.05461,-0.06055 0.092154,-0.079325 0.03755,-0.020479 0.07852,-0.033319 0.1228964,-0.038436 0.044371,-0.00685 0.087024,-0.010213 0.1279842,-0.010213 z"
     style="fill:#fa9381;stroke-width:0.264583;enable-background:new"
     id="path876" />
  <path
     id="rect7040"
     style="opacity:0.4;stroke-width:0.264583;stroke-linejoin:round"
     d="M 1.0583333,0.26458333 C 0.21187339,0.26458333 0,0.47645663 0,1.3229166 v 1.5875 C 0,3.7568766 0.21187339,3.96875 1.0583333,3.96875 H 3.175 C 4.021402,3.9689566 4.2332756,3.7570833 4.2333333,2.9104166 v -1.5875 C 4.2332756,0.42374666 4.021402,0.26478997 3.175,0.26458333 Z M 0.94929604,0.52916666 H 1.3229166 3.175 c 0.5820833,0 0.79375,-2.9e-7 0.79375,0.79374994 v 0.1829346 1.2216309 0.1829345 c 0,0.79375 -0.2116667,0.79375 -0.79375,0.79375 H 1.3229166 1.0583333 c -0.5820832,0 -0.79374997,0 -0.79374997,-0.79375 V 2.7274821 1.5058512 1.3229166 c 0,-0.74414078 0.16294232,-0.79084294 0.68471271,-0.79374994 z"
     sodipodi:nodetypes="ssssccccsccssccsscssccsc" />
  <path
     id="rect13250"
     style="opacity:0.4;fill:url(#linearGradient16320);fill-opacity:1;stroke-width:0.127101;stroke-linejoin:round"
     d="M 0.94929604,0.52916666 C 0.4275256,0.53207345 0.26458333,0.5787759 0.26458333,1.3229166 v 0.1829346 1.2216309 0.1829345 c 0,0.79375 0.21166674,0.79375 0.79374997,0.79375 H 1.3229166 3.175 c 0.5820833,0 0.79375,0 0.79375,-0.79375 V 2.7274821 1.5058512 1.3229166 C 3.96875,0.52916642 3.7570833,0.52916666 3.175,0.52916666 H 1.3229166 Z m 0.0847494,0.26458333 c 0.0079,-4.458e-5 0.016138,0 0.024288,0 H 3.175 c 0.5216072,0 0.5291666,0.0892859 0.5291666,0.52916661 v 1.5875 c 0,0.4398807 -0.00756,0.5291667 -0.5291666,0.5291667 H 1.0583333 c -0.52160723,0 -0.52916664,-0.089286 -0.52916664,-0.5291667 v -1.5875 c 0,-0.4330075 0.007113,-0.52635721 0.50487874,-0.52916661 z"
     sodipodi:nodetypes="csccsscssccssccssssssssss" />
</svg>
