<?xml version="1.0" encoding="UTF-8" standalone="no"?>
<!-- Created with Inkscape (http://www.inkscape.org/) -->

<svg
   width="16"
   height="16"
   viewBox="0 0 4.2333333 4.2333333"
   version="1.1"
   id="svg1003"
   sodipodi:docname="applications-accessories.svg"
   inkscape:version="1.1.2 (0a00cf5339, 2022-02-04)"
   xmlns:inkscape="http://www.inkscape.org/namespaces/inkscape"
   xmlns:sodipodi="http://sodipodi.sourceforge.net/DTD/sodipodi-0.dtd"
   xmlns:xlink="http://www.w3.org/1999/xlink"
   xmlns="http://www.w3.org/2000/svg"
   xmlns:svg="http://www.w3.org/2000/svg">
  <sodipodi:namedview
     id="namedview1005"
     pagecolor="#ffffff"
     bordercolor="#666666"
     borderopacity="1.0"
     inkscape:pageshadow="2"
     inkscape:pageopacity="0.0"
     inkscape:pagecheckerboard="0"
     inkscape:document-units="px"
     showgrid="false"
     units="px"
     showguides="true"
     inkscape:lockguides="true"
     inkscape:zoom="49.5"
     inkscape:cx="7.989899"
     inkscape:cy="8"
     inkscape:window-width="1920"
     inkscape:window-height="1010"
     inkscape:window-x="0"
     inkscape:window-y="0"
     inkscape:window-maximized="1"
     inkscape:current-layer="svg1003" />
  <defs
     id="defs1000">
    <linearGradient
       inkscape:collect="always"
       xlink:href="#linearGradient1871"
       id="linearGradient16320"
       x1="10"
       y1="4"
       x2="10"
       y2="29.100245"
       gradientUnits="userSpaceOnUse"
       gradientTransform="matrix(0.13229166,0,0,0.12211538,0,0.04070512)" />
    <linearGradient
       inkscape:collect="always"
       id="linearGradient1871">
      <stop
         style="stop-color:#ffffff;stop-opacity:1;"
         offset="0"
         id="stop1867" />
      <stop
         style="stop-color:#ffffff;stop-opacity:0.1"
         offset="0.12"
         id="stop2515" />
      <stop
         style="stop-color:#ffffff;stop-opacity:0.102"
         offset="0.89999998"
         id="stop2581" />
      <stop
         style="stop-color:#ffffff;stop-opacity:0.502"
         offset="1"
         id="stop1869" />
    </linearGradient>
    <filter
       id="filter194"
       x="-0.020460054"
       y="-0.020460054"
       width="1.0409201"
       height="1.0576021"
       color-interpolation-filters="sRGB">
      <feFlood
         flood-color="rgb(0,0,0)"
         flood-opacity=".49804"
         result="flood"
         id="feFlood7" />
      <feComposite
         in="flood"
         in2="SourceGraphic"
         operator="in"
         result="composite1"
         id="feComposite9" />
      <feGaussianBlur
         in="composite1"
         result="blur"
         stdDeviation="1.0220649"
         id="feGaussianBlur11" />
      <feOffset
         dx="0"
         dy="2"
         result="offset"
         id="feOffset13" />
      <feComposite
         in="SourceGraphic"
         in2="offset"
         result="composite2"
         id="feComposite15" />
    </filter>
  </defs>
  <path
     d="M 1.0583333,0.396875 H 3.175 c 0.7935019,1.919e-4 0.9259876,0.157244 0.9260416,0.9921875 V 2.8376562 C 4.1009876,3.6238466 3.9685019,3.8366501 3.175,3.8364583 H 1.0583333 c -0.79355622,0 -0.92604169,-0.2128036 -0.92604169,-0.9988021 V 1.3890625 c 0,-0.7859985 0.13248546,-0.9921875 0.92604169,-0.9921875 z"
     style="fill:#f7f7f7;fill-opacity:1;stroke-width:0.0653156;stroke-linejoin:round"
     id="path17503"
     sodipodi:nodetypes="sccccssss" />
  <path
     d="M 0.52916666,0.79374999 V 3.2123062 c 0,0.2198688 0.21986876,0.2198688 0.21986876,0.2198688 H 3.6073291 Z M 1.0788385,1.9888465 2.1212439,2.8825031 H 1.0788385 Z"
     style="fill:#6ebc2a;stroke-width:1.00005;enable-background:new"
     id="path872" />
  <rect
     transform="matrix(0,0.01771729,-0.01771729,0,-0.49276308,-0.64029166)"
     x="96.352997"
     y="-211.89"
     width="119.89"
     height="119.89"
     color="#000000"
     enable-background="accumulate"
     fill="none"
     filter="url(#filter194)"
     id="rect35" />
  <path
     d="M 2.2271537,1.5478125 1.9547387,1.7050861 2.8198203,3.2034215 3.1132962,3.397205 3.0922089,3.0461294 Z"
     style="isolation:isolate;fill:#e4e4e4;stroke-width:0.301069"
     id="path916" />
  <path
     id="path39"
     style="isolation:isolate;fill:#ffffff;fill-opacity:1;stroke-width:0.264583"
     d="M 1.9521317,1.5477505 1.0870681,3.046367 1.0658808,3.39725 1.3594029,3.2034633 1.5164993,2.9316452 c 0.1759046,0.09107 0.371452,0.1396804 0.5710246,0.1400432 0.6889222,0 1.247469,-0.558494 1.247469,-1.247469 -5.292e-4,-0.018097 -0.00116,-0.036205 -0.00259,-0.05426 h -0.324531 c 0.00106,0.018045 0.00156,0.036171 0.00156,0.05426 0,0.5092171 -0.4126906,0.9219074 -0.9219076,0.9219074 -0.1434432,0 -0.2827351,-0.034311 -0.4082438,-0.096635 l 0.545186,-0.944645 z" />
  <path
     d="M 1.9255287,0.79374999 V 1.119161 H 1.7628311 c -0.1627189,0 -0.1627189,0.1563952 -0.1627189,0.1563952 v 0.6473825 l 0.3254112,0.3196961 c 0.1081008,0.085812 0.2251604,0.099854 0.3254375,0 L 2.5763719,1.9229387 V 1.2755562 c 0,-0.1598586 -0.1627161,-0.1563952 -0.1627161,-0.1563952 H 2.2509556 V 0.79374999 Z"
     style="isolation:isolate;fill:#4f4f4f;stroke-width:0.301069"
     id="path1116" />
  <path
     d="m 2.2496433,1.6086693 c 0,0.089866 -0.07285,0.1627161 -0.1627161,0.1627161 -0.089866,0 -0.1627161,-0.07285 -0.1627161,-0.1627161 0,-0.089866 0.07285,-0.1627161 0.1627161,-0.1627161 0.089866,0 0.1627161,0.07285 0.1627161,0.1627161 z"
     style="isolation:isolate;vector-effect:non-scaling-stroke;fill:#ffffff;stroke-width:0.301069"
     id="path1336" />
  <path
     id="rect7040"
     style="opacity:0.4;stroke-width:0.264583;stroke-linejoin:round"
     d="M 1.0583333,0.26458333 C 0.21187339,0.26458333 0,0.47645663 0,1.3229166 v 1.5875 C 0,3.7568766 0.21187339,3.96875 1.0583333,3.96875 H 3.175 C 4.021402,3.9689566 4.2332756,3.7570833 4.2333333,2.9104166 v -1.5875 C 4.2332756,0.42374666 4.021402,0.26478997 3.175,0.26458333 Z M 0.94929604,0.52916666 H 1.3229166 3.175 c 0.5820833,0 0.79375,-2.9e-7 0.79375,0.79374994 v 0.1829346 1.2216309 0.1829345 c 0,0.79375 -0.2116667,0.79375 -0.79375,0.79375 H 1.3229166 1.0583333 c -0.5820832,0 -0.79374997,0 -0.79374997,-0.79375 V 2.7274821 1.5058512 1.3229166 c 0,-0.74414078 0.16294232,-0.79084294 0.68471271,-0.79374994 z"
     sodipodi:nodetypes="ssssccccsccssccsscssccsc" />
  <path
     id="rect13250"
     style="opacity:1;fill:url(#linearGradient16320);fill-opacity:1;stroke-width:0.127101;stroke-linejoin:round"
     d="M 0.94929604,0.52916666 C 0.4275256,0.53207345 0.26458333,0.5787759 0.26458333,1.3229166 v 0.1829346 1.2216309 0.1829345 c 0,0.79375 0.21166674,0.79375 0.79374997,0.79375 H 1.3229166 3.175 c 0.5820833,0 0.79375,0 0.79375,-0.79375 V 2.7274821 1.5058512 1.3229166 C 3.96875,0.52916642 3.7570833,0.52916666 3.175,0.52916666 H 1.3229166 Z m 0.0847494,0.26458333 c 0.0079,-4.458e-5 0.016138,0 0.024288,0 H 3.175 c 0.5216072,0 0.5291666,0.0892859 0.5291666,0.52916661 v 1.5875 c 0,0.4398807 -0.00756,0.5291667 -0.5291666,0.5291667 H 1.0583333 c -0.52160723,0 -0.52916664,-0.089286 -0.52916664,-0.5291667 v -1.5875 c 0,-0.4330075 0.007113,-0.52635721 0.50487874,-0.52916661 z"
     sodipodi:nodetypes="csccsscssccssccssssssssss" />
</svg>
