<?xml version="1.0" encoding="UTF-8" standalone="no"?>
<!-- Created with Inkscape (http://www.inkscape.org/) -->

<svg
   width="16"
   height="16"
   viewBox="0 0 4.2333333 4.2333333"
   version="1.1"
   id="svg1003"
   sodipodi:docname="discord.svg"
   inkscape:version="1.1.2 (0a00cf5339, 2022-02-04)"
   xmlns:inkscape="http://www.inkscape.org/namespaces/inkscape"
   xmlns:sodipodi="http://sodipodi.sourceforge.net/DTD/sodipodi-0.dtd"
   xmlns:xlink="http://www.w3.org/1999/xlink"
   xmlns="http://www.w3.org/2000/svg"
   xmlns:svg="http://www.w3.org/2000/svg">
  <sodipodi:namedview
     id="namedview1005"
     pagecolor="#ffffff"
     bordercolor="#666666"
     borderopacity="1.0"
     inkscape:pageshadow="2"
     inkscape:pageopacity="0.0"
     inkscape:pagecheckerboard="0"
     inkscape:document-units="px"
     showgrid="false"
     units="px"
     showguides="true"
     inkscape:lockguides="true"
     inkscape:zoom="14.142857"
     inkscape:cx="1.0252526"
     inkscape:cy="0.84848489"
     inkscape:window-width="1920"
     inkscape:window-height="998"
     inkscape:window-x="0"
     inkscape:window-y="0"
     inkscape:window-maximized="1"
     inkscape:current-layer="svg1003" />
  <defs
     id="defs1000">
    <linearGradient
       inkscape:collect="always"
       xlink:href="#linearGradient1871"
       id="linearGradient16320"
       x1="10"
       y1="4"
       x2="10"
       y2="29.100245"
       gradientUnits="userSpaceOnUse"
       gradientTransform="matrix(0.13229166,0,0,0.12211538,0,0.04070512)" />
    <linearGradient
       inkscape:collect="always"
       id="linearGradient1871">
      <stop
         style="stop-color:#ffffff;stop-opacity:1;"
         offset="0"
         id="stop1867" />
      <stop
         style="stop-color:#ffffff;stop-opacity:0.1"
         offset="0.12"
         id="stop2515" />
      <stop
         style="stop-color:#ffffff;stop-opacity:0.102"
         offset="0.89999998"
         id="stop2581" />
      <stop
         style="stop-color:#ffffff;stop-opacity:0.502"
         offset="1"
         id="stop1869" />
    </linearGradient>
  </defs>
  <path
     d="M 1.0583333,0.396875 H 3.175 c 0.7935019,1.919e-4 0.9259876,0.157244 0.9260416,0.9921875 V 2.8376562 C 4.1009876,3.6238466 3.9685019,3.8366501 3.175,3.8364583 H 1.0583333 c -0.79355622,0 -0.92604169,-0.2128036 -0.92604169,-0.9988021 V 1.3890625 c 0,-0.7859985 0.13248546,-0.9921875 0.92604169,-0.9921875 z"
     style="fill:#5865f2;fill-opacity:1;stroke-width:0.0653156;stroke-linejoin:round"
     id="path17503"
     sodipodi:nodetypes="sccccssss" />
  <path
     id="rect13250"
     style="opacity:0.699;fill:url(#linearGradient16320);fill-opacity:1;stroke-width:0.127101;stroke-linejoin:round"
     d="M 0.94929604,0.52916666 C 0.4275256,0.53207345 0.26458333,0.5787759 0.26458333,1.3229166 v 0.1829346 1.2216309 0.1829345 c 0,0.79375 0.21166674,0.79375 0.79374997,0.79375 H 1.3229166 3.175 c 0.5820833,0 0.79375,0 0.79375,-0.79375 V 2.7274821 1.5058512 1.3229166 C 3.96875,0.52916642 3.7570833,0.52916666 3.175,0.52916666 H 1.3229166 Z m 0.0847494,0.26458333 c 0.0079,-4.458e-5 0.016138,0 0.024288,0 H 3.175 c 0.5216072,0 0.5291666,0.0892859 0.5291666,0.52916661 v 1.5875 c 0,0.4398807 -0.00756,0.5291667 -0.5291666,0.5291667 H 1.0583333 c -0.52160723,0 -0.52916664,-0.089286 -0.52916664,-0.5291667 v -1.5875 c 0,-0.4330075 0.007113,-0.52635721 0.50487874,-0.52916661 z"
     sodipodi:nodetypes="csccsscssccssccssssssssss" />
  <path
     id="rect7040"
     style="opacity:0.4;stroke-width:0.264583;stroke-linejoin:round"
     d="M 1.0583333,0.26458333 C 0.21187339,0.26458333 0,0.47645663 0,1.3229166 v 1.5875 C 0,3.7568766 0.21187339,3.96875 1.0583333,3.96875 H 3.175 C 4.021402,3.9689566 4.2332756,3.7570833 4.2333333,2.9104166 v -1.5875 C 4.2332756,0.42374666 4.021402,0.26478997 3.175,0.26458333 Z M 0.94929604,0.52916666 H 1.3229166 3.175 c 0.5820833,0 0.79375,-2.9e-7 0.79375,0.79374994 v 0.1829346 1.2216309 0.1829345 c 0,0.79375 -0.2116667,0.79375 -0.79375,0.79375 H 1.3229166 1.0583333 c -0.5820832,0 -0.79374997,0 -0.79374997,-0.79375 V 2.7274821 1.5058512 1.3229166 c 0,-0.74414078 0.16294232,-0.79084294 0.68471271,-0.79374994 z"
     sodipodi:nodetypes="ssssccccsccssccsscssccsc" />
  <path
     id="rect889"
     style="fill:#ffffff;fill-opacity:1;stroke-width:0.147654"
     d="m 1.7549289,1.0583548 c 0,0 -0.308253,-0.00676 -0.6347229,0.2358259 0,0 -0.32645601,0.5873062 -0.32645601,1.310528 0,0 0.1904443,0.3262647 0.69148461,0.3421362 0,0 0.083767,-0.099499 0.1517818,-0.1856503 C 1.3490878,2.6750432 1.2403141,2.4958901 1.2403141,2.4958901 c 0,0 0.022538,0.0159 0.063347,0.038572 0.00225,0 0.00456,0.0021 0.00909,0.00439 0.0068,0.00453 0.013581,0.00675 0.020388,0.011287 0.056681,0.03174 0.1134357,0.056741 0.1655799,0.077145 0.092954,0.038542 0.2041274,0.072591 0.3333555,0.097529 0.1700363,0.031736 0.3694099,0.043004 0.5870561,0.0022 0.1065568,-0.020403 0.2156073,-0.04992 0.3289648,-0.09753 0.079351,-0.029473 0.1676475,-0.07238 0.2606005,-0.1335931 0,0 -0.1135031,0.1836147 -0.4105011,0.2674995 0.068015,0.083884 0.1499006,0.1812601 0.1499006,0.1812601 0.5010446,-0.015871 0.6914883,-0.3422079 0.6914883,-0.3399414 0,-0.7232218 -0.3264561,-1.310528 -0.3264561,-1.310528 C 2.7889242,1.0515932 2.4780898,1.0583521 2.4780898,1.0583521 l -0.031675,0.036377 C 2.8318303,1.2103542 3.0108921,1.3804177 3.0108921,1.3804177 2.7751078,1.2534571 2.5438811,1.1899141 2.3285018,1.1649755 c -0.163235,-0.018138 -0.3195575,-0.013747 -0.4578543,0.00439 -0.0136,0 -0.024969,0.00244 -0.038575,0.00471 -0.079351,0.00907 -0.2720292,0.036131 -0.5146148,0.1426871 -0.083885,0.036274 -0.1339062,0.063661 -0.1339062,0.063661 0,0 0.1858674,-0.1791579 0.5939554,-0.2947825 z m -0.06115,0.8366808 c 0.1292275,0 0.2333888,0.1110145 0.2311219,0.2493107 0,0.1382965 -0.1018944,0.2493108 -0.2311219,0.2493108 -0.1269606,0 -0.2314355,-0.1110143 -0.2314355,-0.2493108 0,-0.1382962 0.1022074,-0.2493107 0.2314355,-0.2493107 z m 0.8275867,0 c 0.1269598,0 0.2311217,0.1110145 0.2311217,0.2493107 0,0.1382965 -0.1018944,0.2493108 -0.2311217,0.2493108 -0.1269607,0 -0.2314363,-0.1110143 -0.2314363,-0.2493108 0,-0.1382962 0.1022081,-0.2493107 0.2314363,-0.2493107 z" />
</svg>
