<?xml version="1.0" encoding="UTF-8" standalone="no"?>
<!-- Created with Inkscape (http://www.inkscape.org/) -->

<svg
   width="16"
   height="16"
   viewBox="0 0 4.2333333 4.2333333"
   version="1.1"
   id="svg1003"
   sodipodi:docname="fbmessenger.svg"
   inkscape:version="1.1.2 (0a00cf5339, 2022-02-04)"
   xmlns:inkscape="http://www.inkscape.org/namespaces/inkscape"
   xmlns:sodipodi="http://sodipodi.sourceforge.net/DTD/sodipodi-0.dtd"
   xmlns:xlink="http://www.w3.org/1999/xlink"
   xmlns="http://www.w3.org/2000/svg"
   xmlns:svg="http://www.w3.org/2000/svg">
  <sodipodi:namedview
     id="namedview1005"
     pagecolor="#ffffff"
     bordercolor="#666666"
     borderopacity="1.0"
     inkscape:pageshadow="2"
     inkscape:pageopacity="0.0"
     inkscape:pagecheckerboard="0"
     inkscape:document-units="px"
     showgrid="false"
     units="px"
     showguides="false"
     inkscape:lockguides="true"
     inkscape:zoom="28.285713"
     inkscape:cx="7.936869"
     inkscape:cy="10.570708"
     inkscape:window-width="1920"
     inkscape:window-height="998"
     inkscape:window-x="0"
     inkscape:window-y="0"
     inkscape:window-maximized="1"
     inkscape:current-layer="svg1003" />
  <defs
     id="defs1000">
    <linearGradient
       inkscape:collect="always"
       xlink:href="#linearGradient1871"
       id="linearGradient16320"
       x1="10"
       y1="4"
       x2="10"
       y2="29.100245"
       gradientUnits="userSpaceOnUse"
       gradientTransform="matrix(0.13229166,0,0,0.12211538,0,0.04070512)" />
    <linearGradient
       inkscape:collect="always"
       id="linearGradient1871">
      <stop
         style="stop-color:#ffffff;stop-opacity:1;"
         offset="0"
         id="stop1867" />
      <stop
         style="stop-color:#ffffff;stop-opacity:0.1"
         offset="0.12"
         id="stop2515" />
      <stop
         style="stop-color:#ffffff;stop-opacity:0.102"
         offset="0.89999998"
         id="stop2581" />
      <stop
         style="stop-color:#ffffff;stop-opacity:0.502"
         offset="1"
         id="stop1869" />
    </linearGradient>
    <radialGradient
       id="Gradient"
       cx="101.925"
       cy="809.00787"
       r="1.0896"
       gradientTransform="matrix(2.6458223,0,0,-2.6458173,-268.37236,2143.9124)"
       gradientUnits="userSpaceOnUse">
      <stop
         offset="0"
         style="stop-color:#0099FF"
         id="stop2" />
      <stop
         offset="0.6098"
         style="stop-color:#A033FF"
         id="stop4" />
      <stop
         offset="0.9348"
         style="stop-color:#FF5280"
         id="stop6" />
      <stop
         offset="1"
         style="stop-color:#FF7061"
         id="stop8" />
    </radialGradient>
  </defs>
  <path
     d="M 1.0583333,0.396875 H 3.175 c 0.7935019,1.919e-4 0.9259876,0.157244 0.9260416,0.9921875 V 2.8376562 C 4.1009876,3.6238466 3.9685019,3.8366501 3.175,3.8364583 H 1.0583333 c -0.79355622,0 -0.92604169,-0.2128036 -0.92604169,-0.9988021 V 1.3890625 c 0,-0.7859985 0.13248546,-0.9921875 0.92604169,-0.9921875 z"
     style="fill:#ffffff;fill-opacity:1;stroke-width:0.0653156;stroke-linejoin:round"
     id="path17503"
     sodipodi:nodetypes="sccccssss" />
  <path
     fill="url(#Gradient)"
     d="m 2.1166612,0.7937581 c -0.7451298,0 -1.32291121,0.5460316 -1.32291121,1.2832239 0,0.3856286 0.15808767,0.7190022 0.41539411,0.9491887 0.021496,0.019184 0.034726,0.046301 0.035389,0.075406 l 0.00729,0.2354781 c 0.00231,0.075075 0.079705,0.1240223 0.148496,0.093596 L 1.6629135,3.314895 c 0.022159,-0.00991 0.047295,-0.011588 0.070776,-0.0053 0.120716,0.033074 0.2490381,0.050934 0.3829829,0.050934 0.7451296,0 1.3229108,-0.5460315 1.3229108,-1.2832236 0,-0.7371924 -0.5777812,-1.28355481 -1.3229108,-1.28355481 z"
     id="path11"
     style="fill:url(#Gradient);stroke-width:0.00330728" />
  <path
     fill="#ffffff"
     d="m 1.3222531,2.452358 0.388605,-0.6164766 c 0.061846,-0.098226 0.1941372,-0.1223698 0.2870718,-0.052916 l 0.3092305,0.2318401 c 0.028444,0.021166 0.067469,0.021166 0.09558,-3.306e-4 L 2.8201191,1.6976371 c 0.055564,-0.042334 0.1283228,0.024474 0.091281,0.083675 L 2.5224642,2.3974572 C 2.460618,2.4956833 2.328327,2.519827 2.2353924,2.4503734 L 1.926162,2.2185334 C 1.8977204,2.1973669 1.858694,2.1973669 1.8305808,2.2188641 L 1.4132032,2.5357015 c -0.055563,0.042333 -0.1283228,-0.024143 -0.09095,-0.083344 z"
     id="path13"
     style="stroke-width:0.00330728" />
  <path
     id="rect13250"
     style="opacity:1;fill:url(#linearGradient16320);fill-opacity:1;stroke-width:0.127101;stroke-linejoin:round"
     d="M 0.94929604,0.52916666 C 0.4275256,0.53207345 0.26458333,0.5787759 0.26458333,1.3229166 v 0.1829346 1.2216309 0.1829345 c 0,0.79375 0.21166674,0.79375 0.79374997,0.79375 H 1.3229166 3.175 c 0.5820833,0 0.79375,0 0.79375,-0.79375 V 2.7274821 1.5058512 1.3229166 C 3.96875,0.52916642 3.7570833,0.52916666 3.175,0.52916666 H 1.3229166 Z m 0.0847494,0.26458333 c 0.0079,-4.458e-5 0.016138,0 0.024288,0 H 3.175 c 0.5216072,0 0.5291666,0.0892859 0.5291666,0.52916661 v 1.5875 c 0,0.4398807 -0.00756,0.5291667 -0.5291666,0.5291667 H 1.0583333 c -0.52160723,0 -0.52916664,-0.089286 -0.52916664,-0.5291667 v -1.5875 c 0,-0.4330075 0.007113,-0.52635721 0.50487874,-0.52916661 z"
     sodipodi:nodetypes="csccsscssccssccssssssssss" />
  <path
     id="rect7040"
     style="opacity:0.4;stroke-width:0.264583;stroke-linejoin:round"
     d="M 1.0583333,0.26458333 C 0.21187339,0.26458333 0,0.47645663 0,1.3229166 v 1.5875 C 0,3.7568766 0.21187339,3.96875 1.0583333,3.96875 H 3.175 C 4.021402,3.9689566 4.2332756,3.7570833 4.2333333,2.9104166 v -1.5875 C 4.2332756,0.42374666 4.021402,0.26478997 3.175,0.26458333 Z M 0.94929604,0.52916666 H 1.3229166 3.175 c 0.5820833,0 0.79375,-2.9e-7 0.79375,0.79374994 v 0.1829346 1.2216309 0.1829345 c 0,0.79375 -0.2116667,0.79375 -0.79375,0.79375 H 1.3229166 1.0583333 c -0.5820832,0 -0.79374997,0 -0.79374997,-0.79375 V 2.7274821 1.5058512 1.3229166 c 0,-0.74414078 0.16294232,-0.79084294 0.68471271,-0.79374994 z"
     sodipodi:nodetypes="ssssccccsccssccsscssccsc" />
</svg>
