<?xml version="1.0" encoding="UTF-8" standalone="no"?>
<!-- Created with Inkscape (http://www.inkscape.org/) -->

<svg
   width="16"
   height="16"
   viewBox="0 0 4.2333333 4.2333333"
   version="1.1"
   id="svg1003"
   sodipodi:docname="kfontview.svg"
   inkscape:version="1.1.2 (0a00cf5339, 2022-02-04)"
   xmlns:inkscape="http://www.inkscape.org/namespaces/inkscape"
   xmlns:sodipodi="http://sodipodi.sourceforge.net/DTD/sodipodi-0.dtd"
   xmlns:xlink="http://www.w3.org/1999/xlink"
   xmlns="http://www.w3.org/2000/svg"
   xmlns:svg="http://www.w3.org/2000/svg">
  <sodipodi:namedview
     id="namedview1005"
     pagecolor="#ffffff"
     bordercolor="#666666"
     borderopacity="1.0"
     inkscape:pageshadow="2"
     inkscape:pageopacity="0.0"
     inkscape:pagecheckerboard="0"
     inkscape:document-units="px"
     showgrid="false"
     units="px"
     showguides="true"
     inkscape:lockguides="true"
     inkscape:zoom="24.75"
     inkscape:cx="4.7474747"
     inkscape:cy="11.353535"
     inkscape:window-width="1920"
     inkscape:window-height="998"
     inkscape:window-x="0"
     inkscape:window-y="0"
     inkscape:window-maximized="1"
     inkscape:current-layer="svg1003" />
  <defs
     id="defs1000">
    <linearGradient
       inkscape:collect="always"
       id="linearGradient17934">
      <stop
         style="stop-color:#f2f2f2;stop-opacity:1"
         offset="0"
         id="stop17930" />
      <stop
         style="stop-color:#f9f9f9;stop-opacity:1"
         offset="1"
         id="stop17932" />
    </linearGradient>
    <linearGradient
       inkscape:collect="always"
       xlink:href="#linearGradient1871"
       id="linearGradient16320"
       x1="10"
       y1="4"
       x2="10"
       y2="29.100245"
       gradientUnits="userSpaceOnUse"
       gradientTransform="matrix(0.13229166,0,0,0.12211538,0,0.04070512)" />
    <linearGradient
       inkscape:collect="always"
       id="linearGradient1871">
      <stop
         style="stop-color:#ffffff;stop-opacity:1;"
         offset="0"
         id="stop1867" />
      <stop
         style="stop-color:#ffffff;stop-opacity:0.1"
         offset="0.12"
         id="stop2515" />
      <stop
         style="stop-color:#ffffff;stop-opacity:0.102"
         offset="0.89999998"
         id="stop2581" />
      <stop
         style="stop-color:#ffffff;stop-opacity:0.502"
         offset="1"
         id="stop1869" />
    </linearGradient>
    <linearGradient
       inkscape:collect="always"
       xlink:href="#linearGradient17934"
       id="linearGradient17936"
       x1="1.0583333"
       y1="0.26458332"
       x2="3.2458229"
       y2="3.9714229"
       gradientUnits="userSpaceOnUse" />
  </defs>
  <path
     d="M 1.0583333,0.396875 H 3.175 c 0.7935019,1.919e-4 0.9259876,0.157244 0.9260416,0.9921875 V 2.8376562 C 4.1009876,3.6238466 3.9685019,3.8366501 3.175,3.8364583 H 1.0583333 c -0.79355622,0 -0.92604169,-0.2128036 -0.92604169,-0.9988021 V 1.3890625 c 0,-0.7859985 0.13248546,-0.9921875 0.92604169,-0.9921875 z"
     style="fill:url(#linearGradient17936);fill-opacity:1;stroke-width:0.0653156;stroke-linejoin:round"
     id="path17503"
     sodipodi:nodetypes="sccccssss" />
  <path
     id="rect2981"
     style="fill:#2f5fdd;fill-opacity:1;stroke-width:0.0933823;stroke-linejoin:round"
     d="M 1.3322184,1.0583333 C 1.2631344,1.2022591 1.1969259,1.348117 1.1335985,1.4958807 1.0702715,1.6417255 1.0060614,1.7952122 0.94081506,1.956409 c -0.063327,0.1611966 -0.1285364,0.3319392 -0.1957017,0.5123262 -0.067165,0.1784679 -0.1391863,0.3732781 -0.2159467,0.5843692 h 0.2907255 L 1.0011853,2.5436964 h 0.903912 c 0.030704,0.086355 0.060402,0.1716354 0.089187,0.2560719 0.028785,0.082517 0.059483,0.1669807 0.092106,0.2533361 H 2.3915244 C 2.3147641,2.8420133 2.2429255,2.6472031 2.1757601,2.4687352 2.108595,2.2883482 2.0423866,2.1176056 1.9771403,1.956409 1.913813,1.7952122 1.85042,1.6417255 1.7870926,1.4958807 1.7237653,1.348117 1.6575571,1.2022591 1.5884728,1.0583333 Z m 0.1209229,0.3195428 c 0.065246,0.1439257 0.1276402,0.2945972 0.1871295,0.451956 0.061408,0.1554398 0.122803,0.3165552 0.1842113,0.483509 H 1.0818006 C 1.1412896,2.1463873 1.2008685,1.9852719 1.2603578,1.8298321 1.3217658,1.6724733 1.3859759,1.5218018 1.4531413,1.3778761 Z M 3.128552,1.5188616 c -0.094032,0 -0.1814923,0.00763 -0.2620907,0.022981 -0.080598,0.013433 -0.1381788,0.027874 -0.1727208,0.043226 l 0.031735,0.2216007 c 0.032623,-0.013433 0.081576,-0.025875 0.1468219,-0.037389 0.067165,-0.013433 0.1448166,-0.020063 0.2330911,-0.020063 0.069084,0 0.1248486,0.010444 0.1670668,0.031553 0.044137,0.01919 0.078649,0.046073 0.1035961,0.080615 0.024947,0.032623 0.042203,0.071132 0.051798,0.1152688 0.0096,0.042218 0.014409,0.085358 0.014409,0.1294951 v 0.074779 c -0.00768,-0.00192 -0.021117,-0.00473 -0.040307,-0.00857 -0.01919,-0.00384 -0.042259,-0.00765 -0.069125,-0.01149 -0.024947,-0.00576 -0.05183,-0.00957 -0.080615,-0.01149 -0.028785,-0.00384 -0.056667,-0.00584 -0.083533,-0.00584 -0.084436,0 -0.164903,0.00863 -0.2416634,0.025899 -0.07676,0.017271 -0.1439678,0.044154 -0.2015381,0.080615 -0.05757,0.036461 -0.1037074,0.084414 -0.1382497,0.1439036 -0.032623,0.059489 -0.04888,0.1305111 -0.04888,0.2130285 0,0.086355 0.014441,0.1601924 0.043226,0.2216007 0.028785,0.061408 0.06911,0.1113598 0.1209229,0.1497401 0.051813,0.036461 0.1132074,0.063344 0.1842113,0.080615 0.071003,0.017271 0.1486547,0.025899 0.2330911,0.025899 0.059489,0 0.1190679,-0.003 0.1785572,-0.00876 0.061408,-0.00384 0.1179894,-0.00847 0.1698027,-0.014226 0.051813,-0.00576 0.097768,-0.01157 0.1380673,-0.017327 0.042218,-0.00768 0.074914,-0.013488 0.097942,-0.017326 V 2.09174 c 0,-0.084436 -0.00963,-0.1612709 -0.028817,-0.2303552 C 3.6561594,1.7903814 3.6236461,1.729986 3.5775899,1.6800917 3.5334527,1.6282784 3.473874,1.5889531 3.3990326,1.562087 3.3261102,1.5333019 3.2360166,1.5188613 3.128552,1.5188616 Z M 3.17652,2.3594851 c 0.00513,-9e-5 0.010283,0 0.01532,0 0.061408,0 0.1131759,0.00381 0.1553941,0.01149 0.044137,0.00576 0.075834,0.013386 0.095024,0.02298 v 0.4461197 c -0.032623,0.00768 -0.073947,0.013489 -0.123841,0.017327 -0.047975,0.00192 -0.1035572,0.00292 -0.1668845,0.00292 -0.1055453,-2.2e-6 -0.1890094,-0.018257 -0.2504177,-0.054718 -0.061408,-0.03838 -0.092106,-0.1055877 -0.092106,-0.2015382 0,-0.051813 0.012442,-0.092954 0.037389,-0.1236586 0.024947,-0.032623 0.055645,-0.05769 0.092106,-0.074961 0.03838,-0.01919 0.079704,-0.031632 0.123841,-0.037389 0.040299,-0.00504 0.078283,-0.00794 0.1141745,-0.00857 z" />
  <path
     id="rect7040"
     style="opacity:0.4;stroke-width:0.264583;stroke-linejoin:round"
     d="M 1.0583333,0.26458333 C 0.21187339,0.26458333 0,0.47645663 0,1.3229166 v 1.5875 C 0,3.7568766 0.21187339,3.96875 1.0583333,3.96875 H 3.175 C 4.021402,3.9689566 4.2332756,3.7570833 4.2333333,2.9104166 v -1.5875 C 4.2332756,0.42374666 4.021402,0.26478997 3.175,0.26458333 Z M 0.94929604,0.52916666 H 1.3229166 3.175 c 0.5820833,0 0.79375,-2.9e-7 0.79375,0.79374994 v 0.1829346 1.2216309 0.1829345 c 0,0.79375 -0.2116667,0.79375 -0.79375,0.79375 H 1.3229166 1.0583333 c -0.5820832,0 -0.79374997,0 -0.79374997,-0.79375 V 2.7274821 1.5058512 1.3229166 c 0,-0.74414078 0.16294232,-0.79084294 0.68471271,-0.79374994 z"
     sodipodi:nodetypes="ssssccccsccssccsscssccsc" />
  <path
     id="rect13250"
     style="opacity:1;fill:url(#linearGradient16320);fill-opacity:1;stroke-width:0.127101;stroke-linejoin:round"
     d="M 0.94929604,0.52916666 C 0.4275256,0.53207345 0.26458333,0.5787759 0.26458333,1.3229166 v 0.1829346 1.2216309 0.1829345 c 0,0.79375 0.21166674,0.79375 0.79374997,0.79375 H 1.3229166 3.175 c 0.5820833,0 0.79375,0 0.79375,-0.79375 V 2.7274821 1.5058512 1.3229166 C 3.96875,0.52916642 3.7570833,0.52916666 3.175,0.52916666 H 1.3229166 Z m 0.0847494,0.26458333 c 0.0079,-4.458e-5 0.016138,0 0.024288,0 H 3.175 c 0.5216072,0 0.5291666,0.0892859 0.5291666,0.52916661 v 1.5875 c 0,0.4398807 -0.00756,0.5291667 -0.5291666,0.5291667 H 1.0583333 c -0.52160723,0 -0.52916664,-0.089286 -0.52916664,-0.5291667 v -1.5875 c 0,-0.4330075 0.007113,-0.52635721 0.50487874,-0.52916661 z"
     sodipodi:nodetypes="csccsscssccssccssssssssss" />
</svg>
