<?xml version="1.0" encoding="UTF-8" standalone="no"?>
<!-- Created with Inkscape (http://www.inkscape.org/) -->

<svg
   width="16"
   height="16"
   viewBox="0 0 4.2333333 4.2333333"
   version="1.1"
   id="svg1003"
   sodipodi:docname="libreoffice-math.svg"
   inkscape:version="1.1.2 (0a00cf5339, 2022-02-04)"
   xmlns:inkscape="http://www.inkscape.org/namespaces/inkscape"
   xmlns:sodipodi="http://sodipodi.sourceforge.net/DTD/sodipodi-0.dtd"
   xmlns:xlink="http://www.w3.org/1999/xlink"
   xmlns="http://www.w3.org/2000/svg"
   xmlns:svg="http://www.w3.org/2000/svg">
  <sodipodi:namedview
     id="namedview1005"
     pagecolor="#ffffff"
     bordercolor="#666666"
     borderopacity="1.0"
     inkscape:pageshadow="2"
     inkscape:pageopacity="0.0"
     inkscape:pagecheckerboard="0"
     inkscape:document-units="px"
     showgrid="false"
     units="px"
     showguides="true"
     inkscape:lockguides="true"
     inkscape:zoom="28.285713"
     inkscape:cx="8.5732327"
     inkscape:cy="11.666667"
     inkscape:window-width="1920"
     inkscape:window-height="1010"
     inkscape:window-x="0"
     inkscape:window-y="0"
     inkscape:window-maximized="1"
     inkscape:current-layer="svg1003" />
  <defs
     id="defs1000">
    <linearGradient
       inkscape:collect="always"
       id="linearGradient851">
      <stop
         style="stop-color:#666666;stop-opacity:1;"
         offset="0"
         id="stop847" />
      <stop
         style="stop-color:#333333;stop-opacity:1"
         offset="1"
         id="stop849" />
    </linearGradient>
    <linearGradient
       inkscape:collect="always"
       id="linearGradient2463">
      <stop
         style="stop-color:#626262;stop-opacity:1"
         offset="0"
         id="stop2459" />
      <stop
         style="stop-color:#4e4e4e;stop-opacity:1"
         offset="1"
         id="stop2461" />
    </linearGradient>
    <linearGradient
       inkscape:collect="always"
       xlink:href="#linearGradient1871"
       id="linearGradient16320"
       x1="10"
       y1="4"
       x2="10"
       y2="29.100245"
       gradientUnits="userSpaceOnUse"
       gradientTransform="matrix(0.13229166,0,0,0.12211538,0,0.04070512)" />
    <linearGradient
       inkscape:collect="always"
       id="linearGradient1871">
      <stop
         style="stop-color:#ffffff;stop-opacity:1;"
         offset="0"
         id="stop1867" />
      <stop
         style="stop-color:#ffffff;stop-opacity:0.1"
         offset="0.12"
         id="stop2515" />
      <stop
         style="stop-color:#ffffff;stop-opacity:0.102"
         offset="0.89999998"
         id="stop2581" />
      <stop
         style="stop-color:#ffffff;stop-opacity:0.502"
         offset="1"
         id="stop1869" />
    </linearGradient>
    <linearGradient
       inkscape:collect="always"
       xlink:href="#linearGradient2463"
       id="linearGradient2465"
       x1="1.0583333"
       y1="0.26458332"
       x2="3.0253367"
       y2="3.9593961"
       gradientUnits="userSpaceOnUse" />
    <linearGradient
       inkscape:collect="always"
       xlink:href="#linearGradient5989"
       id="linearGradient5991"
       x1="4.5568275"
       y1="0.79374999"
       x2="8.4326887"
       y2="11.597079"
       gradientUnits="userSpaceOnUse"
       gradientTransform="matrix(0.31250001,0,0,0.31250001,-0.0496094,0.17365262)" />
    <linearGradient
       inkscape:collect="always"
       id="linearGradient5989">
      <stop
         style="stop-color:#f2f2f2;stop-opacity:1;"
         offset="0"
         id="stop5985" />
      <stop
         style="stop-color:#ffffff;stop-opacity:1"
         offset="1"
         id="stop5987" />
    </linearGradient>
    <linearGradient
       inkscape:collect="always"
       xlink:href="#linearGradient851"
       id="linearGradient853"
       x1="2.1166666"
       y1="0.13259426"
       x2="2.1166666"
       y2="4.3659277"
       gradientUnits="userSpaceOnUse" />
  </defs>
  <path
     d="M 1.0583333,0.396875 H 3.175 c 0.7935019,1.919e-4 0.9259876,0.157244 0.9260416,0.9921875 V 2.8376562 C 4.1009876,3.6238466 3.9685019,3.8366501 3.175,3.8364583 H 1.0583333 c -0.79355622,0 -0.92604169,-0.2128036 -0.92604169,-0.9988021 V 1.3890625 c 0,-0.7859985 0.13248546,-0.9921875 0.92604169,-0.9921875 z"
     style="fill:url(#linearGradient2465);fill-opacity:1;stroke-width:0.0653156;stroke-linejoin:round"
     id="path17503"
     sodipodi:nodetypes="sccccssss" />
  <path
     id="rect2891"
     style="fill:url(#linearGradient5991);fill-opacity:1;stroke-width:0.0802481;stroke-linejoin:round"
     d="M 1.0340454,0.7937698 C 0.53627959,0.7965792 0.52916669,0.88992896 0.52916669,1.3229365 v 1.5875 c 0,0.4398806 0.00756,0.5291666 0.52916661,0.5291666 H 3.175 c 0.5216067,0 0.5291666,-0.089286 0.5291666,-0.5291666 V 1.5875198 l -0.79375,-0.79375 H 1.0583333 c -0.00815,0 -0.016388,-4.458e-5 -0.024288,0 z"
     sodipodi:nodetypes="csssssccsc" />
  <path
     id="rect6827"
     style="opacity:0.1;fill:#ffffff;fill-opacity:1;stroke-width:0.264583;stroke-linejoin:round"
     d="M 0.26458333,2.1166865 V 2.727502 2.9104365 c 0,0.79375 0.21166686,0.79375 0.79374987,0.79375 h 0.2645834 1.8520833 c 0.5820833,0 0.79375,0 0.79375,-0.79375 V 2.727502 2.1166865 Z" />
  <path
     id="path42"
     style="color:#000000;fill:url(#linearGradient853);fill-opacity:1;stroke-width:0.264583;stroke-linecap:square;stroke-linejoin:round;-inkscape-stroke:none"
     d="M 1.7197915,1.3229169 A 0.13230489,0.13230489 0 0 0 1.5890502,1.4335045 l -0.1255738,0.751892 a 0.13230489,0.13230489 0 0 0 -0.074414,-0.06873 H 1.190625 1.0583333 V 2.3812498 H 1.190625 1.267106 l 0.056327,0.6723105 a 0.13230489,0.13230489 0 0 0 0.2625162,0.010851 L 1.8319294,1.5875002 H 2.9104165 V 1.7197919 H 3.1749999 V 1.5875002 1.4552085 A 0.13230489,0.13230489 0 0 0 3.0427082,1.3229169 Z m 0.396875,0.6066813 -0.1870686,0.1870687 0.093534,0.093534 0.3033407,0.3033407 -0.3033407,0.3033405 -0.093534,0.093535 0.1870686,0.1870686 0.093534,-0.093534 0.3033406,-0.3033408 0.3033406,0.3033408 0.093534,0.093534 L 3.0974851,2.9104169 3.003951,2.8168824 2.7006102,2.5135419 3.003951,2.2102012 3.0974851,2.1166669 2.9104165,1.9295982 2.8168821,2.0231325 2.5135415,2.3264732 2.2102009,2.0231325 Z" />
  <path
     id="rect7040"
     style="opacity:0.4;stroke-width:0.264583;stroke-linejoin:round"
     d="M 1.0583333,0.26458333 C 0.21187339,0.26458333 0,0.47645663 0,1.3229166 v 1.5875 C 0,3.7568766 0.21187339,3.96875 1.0583333,3.96875 H 3.175 C 4.021402,3.9689566 4.2332756,3.7570833 4.2333333,2.9104166 v -1.5875 C 4.2332756,0.42374666 4.021402,0.26478997 3.175,0.26458333 Z M 0.94929604,0.52916666 H 1.3229166 3.175 c 0.5820833,0 0.79375,-2.9e-7 0.79375,0.79374994 v 0.1829346 1.2216309 0.1829345 c 0,0.79375 -0.2116667,0.79375 -0.79375,0.79375 H 1.3229166 1.0583333 c -0.5820832,0 -0.79374997,0 -0.79374997,-0.79375 V 2.7274821 1.5058512 1.3229166 c 0,-0.74414078 0.16294232,-0.79084294 0.68471271,-0.79374994 z"
     sodipodi:nodetypes="ssssccccsccssccsscssccsc" />
  <path
     id="rect13250"
     style="opacity:0.3;fill:url(#linearGradient16320);fill-opacity:1;stroke-width:0.127101;stroke-linejoin:round"
     d="M 0.94929604,0.52916666 C 0.4275256,0.53207345 0.26458333,0.5787759 0.26458333,1.3229166 v 0.1829346 1.2216309 0.1829345 c 0,0.79375 0.21166674,0.79375 0.79374997,0.79375 H 1.3229166 3.175 c 0.5820833,0 0.79375,0 0.79375,-0.79375 V 2.7274821 1.5058512 1.3229166 C 3.96875,0.52916642 3.7570833,0.52916666 3.175,0.52916666 H 1.3229166 Z m 0.0847494,0.26458333 c 0.0079,-4.458e-5 0.016138,0 0.024288,0 H 3.175 c 0.5216072,0 0.5291666,0.0892859 0.5291666,0.52916661 v 1.5875 c 0,0.4398807 -0.00756,0.5291667 -0.5291666,0.5291667 H 1.0583333 c -0.52160723,0 -0.52916664,-0.089286 -0.52916664,-0.5291667 v -1.5875 c 0,-0.4330075 0.007113,-0.52635721 0.50487874,-0.52916661 z"
     sodipodi:nodetypes="csccsscssccssccssssssssss" />
</svg>
