<?xml version="1.0" encoding="UTF-8" standalone="no"?>
<!-- Created with Inkscape (http://www.inkscape.org/) -->

<svg
   width="16"
   height="16"
   viewBox="0 0 4.2333333 4.2333333"
   version="1.1"
   id="svg1003"
   sodipodi:docname="preferences-desktop-theme-applications.svg"
   inkscape:version="1.1.2 (0a00cf5339, 2022-02-04)"
   xmlns:inkscape="http://www.inkscape.org/namespaces/inkscape"
   xmlns:sodipodi="http://sodipodi.sourceforge.net/DTD/sodipodi-0.dtd"
   xmlns:xlink="http://www.w3.org/1999/xlink"
   xmlns="http://www.w3.org/2000/svg"
   xmlns:svg="http://www.w3.org/2000/svg">
  <sodipodi:namedview
     id="namedview1005"
     pagecolor="#ffffff"
     bordercolor="#666666"
     borderopacity="1.0"
     inkscape:pageshadow="2"
     inkscape:pageopacity="0.0"
     inkscape:pagecheckerboard="0"
     inkscape:document-units="px"
     showgrid="false"
     units="px"
     showguides="true"
     inkscape:lockguides="true"
     inkscape:zoom="28.285713"
     inkscape:cx="3.7297981"
     inkscape:cy="9.8989903"
     inkscape:window-width="1920"
     inkscape:window-height="1010"
     inkscape:window-x="0"
     inkscape:window-y="0"
     inkscape:window-maximized="1"
     inkscape:current-layer="svg1003" />
  <defs
     id="defs1000">
    <linearGradient
       inkscape:collect="always"
       id="linearGradient17934">
      <stop
         style="stop-color:#2de360;stop-opacity:1"
         offset="0"
         id="stop17930" />
      <stop
         style="stop-color:#388eba;stop-opacity:1"
         offset="1"
         id="stop17932" />
    </linearGradient>
    <linearGradient
       inkscape:collect="always"
       xlink:href="#linearGradient1871"
       id="linearGradient16320"
       x1="10"
       y1="4"
       x2="10"
       y2="29.100245"
       gradientUnits="userSpaceOnUse"
       gradientTransform="matrix(0.13229166,0,0,0.12211538,0,0.04070512)" />
    <linearGradient
       inkscape:collect="always"
       id="linearGradient1871">
      <stop
         style="stop-color:#ffffff;stop-opacity:1;"
         offset="0"
         id="stop1867" />
      <stop
         style="stop-color:#ffffff;stop-opacity:0.1"
         offset="0.12"
         id="stop2515" />
      <stop
         style="stop-color:#ffffff;stop-opacity:0.102"
         offset="0.89999998"
         id="stop2581" />
      <stop
         style="stop-color:#ffffff;stop-opacity:0.502"
         offset="1"
         id="stop1869" />
    </linearGradient>
    <linearGradient
       inkscape:collect="always"
       xlink:href="#linearGradient17934"
       id="linearGradient17936"
       x1="4.2333331"
       y1="3.96875"
       x2="-0.53718448"
       y2="0.26725584"
       gradientUnits="userSpaceOnUse" />
  </defs>
  <path
     d="M 1.0583333,0.396875 H 3.175 c 0.7935019,1.919e-4 0.9259876,0.157244 0.9260416,0.9921875 V 2.8376562 C 4.1009876,3.6238466 3.9685019,3.8366501 3.175,3.8364583 H 1.0583333 c -0.79355622,0 -0.92604169,-0.2128036 -0.92604169,-0.9988021 V 1.3890625 c 0,-0.7859985 0.13248546,-0.9921875 0.92604169,-0.9921875 z"
     style="fill:url(#linearGradient17936);fill-opacity:1;stroke-width:0.0653156;stroke-linejoin:round"
     id="path17503"
     sodipodi:nodetypes="sccccssss" />
  <path
     id="rect13250"
     style="opacity:0.4;fill:url(#linearGradient16320);fill-opacity:1;stroke-width:0.127101;stroke-linejoin:round"
     d="M 0.94929604,0.52916666 C 0.4275256,0.53207345 0.26458333,0.5787759 0.26458333,1.3229166 v 0.1829346 1.2216309 0.1829345 c 0,0.79375 0.21166674,0.79375 0.79374997,0.79375 H 1.3229166 3.175 c 0.5820833,0 0.79375,0 0.79375,-0.79375 V 2.7274821 1.5058512 1.3229166 C 3.96875,0.52916642 3.7570833,0.52916666 3.175,0.52916666 H 1.3229166 Z m 0.0847494,0.26458333 c 0.0079,-4.458e-5 0.016138,0 0.024288,0 H 3.175 c 0.5216072,0 0.5291666,0.0892859 0.5291666,0.52916661 v 1.5875 c 0,0.4398807 -0.00756,0.5291667 -0.5291666,0.5291667 H 1.0583333 c -0.52160723,0 -0.52916664,-0.089286 -0.52916664,-0.5291667 v -1.5875 c 0,-0.4330075 0.007113,-0.52635721 0.50487874,-0.52916661 z"
     sodipodi:nodetypes="csccsscssccssccssssssssss" />
  <path
     id="rect7040"
     style="opacity:0.4;stroke-width:0.264583;stroke-linejoin:round"
     d="M 1.0583333,0.26458333 C 0.21187339,0.26458333 0,0.47645663 0,1.3229166 v 1.5875 C 0,3.7568766 0.21187339,3.96875 1.0583333,3.96875 H 3.175 C 4.021402,3.9689566 4.2332756,3.7570833 4.2333333,2.9104166 v -1.5875 C 4.2332756,0.42374666 4.021402,0.26478997 3.175,0.26458333 Z M 0.94929604,0.52916666 H 1.3229166 3.175 c 0.5820833,0 0.79375,-2.9e-7 0.79375,0.79374994 v 0.1829346 1.2216309 0.1829345 c 0,0.79375 -0.2116667,0.79375 -0.79375,0.79375 H 1.3229166 1.0583333 c -0.5820832,0 -0.79374997,0 -0.79374997,-0.79375 V 2.7274821 1.5058512 1.3229166 c 0,-0.74414078 0.16294232,-0.79084294 0.68471271,-0.79374994 z"
     sodipodi:nodetypes="ssssccccsccssccsscssccsc" />
  <path
     id="path2315"
     style="opacity:0.6;fill:#ffffff;stroke-width:0.0200012;stroke-linejoin:round"
     d="m 1.0748703,1.4557251 c -0.01076,0.042185 -0.016537,0.086147 -0.016537,0.1317749 0,0.2931582 0.2360084,0.5291666 0.5291667,0.5291666 H 2.6458333 C 2.9389916,2.1166666 3.175,1.8806582 3.175,1.5875 3.175,1.541872 3.16922,1.49791 3.158464,1.4557251 3.09992,1.6843241 2.8931861,1.8520833 2.6458338,1.8520833 H 1.5875005 c -0.2473523,0 -0.4540858,-0.1677592 -0.5126302,-0.3963582 z" />
  <path
     id="rect2694"
     style="opacity:0.3;fill:#000000;stroke-width:0.0755952;stroke-linejoin:round"
     d="m 1.5875004,0.79380083 h 1.0583333 c 0.2931584,0 0.5291668,0.23600837 0.5291668,0.52916667 0,0.2931583 -0.2360084,0.5291666 -0.5291668,0.5291666 H 1.5875004 c -0.2931583,0 -0.5291666,-0.2360083 -0.5291666,-0.5291666 0,-0.2931583 0.2360083,-0.52916667 0.5291666,-0.52916667 z"
     sodipodi:nodetypes="sssssss" />
  <path
     id="path2075"
     style="opacity:0.2;fill:#000000;fill-opacity:1;stroke-width:0.0200012;stroke-linejoin:round"
     d="m 1.5735479,0.79380093 c -0.2867768,0.00722 -0.5152141,0.24058897 -0.5152141,0.52916667 0,0.045806 0.00569,0.089959 0.016537,0.1322917 0.058544,-0.2285991 0.2652773,-0.3968751 0.5126297,-0.3968751 h 1.0583333 c 0.2473523,0 0.4540858,0.168276 0.5126302,0.3968751 C 3.169304,1.4129263 3.175,1.3687733 3.175,1.3229676 3.175,1.0298093 2.9389919,0.79380093 2.6458333,0.79380093 H 1.5875005 c -0.00458,0 -0.0094,-1.146e-4 -0.013951,0 z" />
  <circle
     style="opacity:0.1;fill:#000000;fill-opacity:1;stroke-width:0.044097;stroke-linejoin:round"
     id="path4786"
     cx="2.645834"
     cy="1.5875509"
     r="0.26458332" />
  <circle
     style="fill:#ffffff;fill-opacity:1;stroke-width:0.044097;stroke-linejoin:round"
     id="path4592"
     cx="2.6458344"
     cy="1.3229678"
     r="0.26458332" />
  <path
     id="rect3290"
     style="opacity:0.1;fill:#000000;fill-opacity:1;stroke-width:0.0755952;stroke-linejoin:round"
     d="m 1.5735479,2.3813009 c -0.2867768,0.00722 -0.5152141,0.2405889 -0.5152141,0.5291665 0,0.2931583 0.2360083,0.5291667 0.5291667,0.5291667 h 1.0583333 c 0.2931583,0 0.5291667,-0.2360084 0.5291667,-0.5291667 0,-0.2931583 -0.2360084,-0.5291665 -0.5291667,-0.5291665 H 1.5875005 c -0.00458,0 -0.0094,-1.146e-4 -0.013953,0 z m 0.013953,0.2645832 h 1.0583333 c 0.1465792,0 0.2645834,0.1180041 0.2645834,0.2645833 0,0.1465792 -0.1180042,0.2645833 -0.2645834,0.2645833 H 1.5875005 c -0.1465792,0 -0.2645834,-0.1180041 -0.2645834,-0.2645833 0,-0.1465792 0.1180042,-0.2645833 0.2645838,-0.2645833 z" />
  <circle
     style="opacity:0.2;fill:#000000;fill-opacity:1;stroke-width:0.0755946;stroke-linejoin:round"
     id="path3871"
     cx="1.5875006"
     cy="2.9104681"
     r="0.52916664" />
  <circle
     style="fill:#ffffff;fill-opacity:1;stroke-width:0.0430353;stroke-linejoin:round"
     id="path3997"
     cx="1.5875006"
     cy="2.9104681"
     r="0.26458332" />
</svg>
