<?xml version="1.0" encoding="UTF-8" standalone="no"?>
<!-- Created with Inkscape (http://www.inkscape.org/) -->

<svg
   width="16"
   height="16"
   viewBox="0 0 4.2333333 4.2333333"
   version="1.1"
   id="svg1003"
   sodipodi:docname="preferences-desktop-font.svg"
   inkscape:version="1.1.2 (0a00cf5339, 2022-02-04)"
   xmlns:inkscape="http://www.inkscape.org/namespaces/inkscape"
   xmlns:sodipodi="http://sodipodi.sourceforge.net/DTD/sodipodi-0.dtd"
   xmlns:xlink="http://www.w3.org/1999/xlink"
   xmlns="http://www.w3.org/2000/svg"
   xmlns:svg="http://www.w3.org/2000/svg">
  <sodipodi:namedview
     id="namedview1005"
     pagecolor="#ffffff"
     bordercolor="#666666"
     borderopacity="1.0"
     inkscape:pageshadow="2"
     inkscape:pageopacity="0.0"
     inkscape:pagecheckerboard="0"
     inkscape:document-units="px"
     showgrid="false"
     units="px"
     showguides="false"
     inkscape:lockguides="true"
     inkscape:zoom="28.285713"
     inkscape:cx="12.391415"
     inkscape:cy="11.737374"
     inkscape:window-width="1920"
     inkscape:window-height="1010"
     inkscape:window-x="0"
     inkscape:window-y="0"
     inkscape:window-maximized="1"
     inkscape:current-layer="svg1003" />
  <defs
     id="defs1000">
    <linearGradient
       inkscape:collect="always"
       xlink:href="#linearGradient1871"
       id="linearGradient16320"
       x1="10"
       y1="4"
       x2="10"
       y2="29.100245"
       gradientUnits="userSpaceOnUse"
       gradientTransform="matrix(0.13229166,0,0,0.12211538,0,0.04070512)" />
    <linearGradient
       inkscape:collect="always"
       id="linearGradient1871">
      <stop
         style="stop-color:#ffffff;stop-opacity:1;"
         offset="0"
         id="stop1867" />
      <stop
         style="stop-color:#ffffff;stop-opacity:0.1"
         offset="0.12"
         id="stop2515" />
      <stop
         style="stop-color:#ffffff;stop-opacity:0.102"
         offset="0.89999998"
         id="stop2581" />
      <stop
         style="stop-color:#ffffff;stop-opacity:0.502"
         offset="1"
         id="stop1869" />
    </linearGradient>
  </defs>
  <path
     d="M 1.0583333,0.396875 H 3.175 c 0.7935019,1.919e-4 0.9259876,0.157244 0.9260416,0.9921875 V 2.8376562 C 4.1009876,3.6238466 3.9685019,3.8366501 3.175,3.8364583 H 1.0583333 c -0.79355622,0 -0.92604169,-0.2128036 -0.92604169,-0.9988021 V 1.3890625 c 0,-0.7859985 0.13248546,-0.9921875 0.92604169,-0.9921875 z"
     style="fill:#f7f7f7;fill-opacity:1;stroke-width:0.0653156;stroke-linejoin:round"
     id="path17503"
     sodipodi:nodetypes="sccccssss" />
  <path
     d="m 1.2929442,1.0583333 c -0.085333,0 -0.1587129,0.00595 -0.2201518,0.017912 -0.05973,0.011959 -0.10410826,0.024738 -0.13311986,0.038396 l 0.023019,0.1459204 c 0.022172,-0.00852 0.057168,-0.019606 0.10495496,-0.033261 0.047786,-0.013653 0.1203404,-0.020532 0.2176224,-0.020532 0.068262,0 0.1228566,0.011113 0.1638141,0.033303 0.042667,0.020479 0.075107,0.048657 0.097293,0.084495 0.023892,0.034131 0.039235,0.073385 0.046059,0.1177555 0.00685,0.042667 0.010239,0.087003 0.010239,0.1330827 v 0.081928 c -0.00683,-0.00341 -0.019632,-0.00683 -0.038394,-0.010239 -0.017066,-0.00513 -0.038394,-0.00939 -0.063995,-0.012779 -0.023892,-0.00513 -0.049482,-0.00852 -0.07679,-0.010239 -0.025612,-0.00341 -0.050329,-0.00513 -0.074229,-0.00513 -0.080211,0 -0.1544426,0.00767 -0.2227104,0.023045 -0.068265,0.015372 -0.12716396,0.040129 -0.17665166,0.074263 -0.049493,0.032427 -0.087884,0.074224 -0.115189,0.1254205 -0.027308,0.0512 -0.040965,0.1126412 -0.040965,0.1843168 0,0.075094 0.011959,0.1391179 0.035827,0.192024 0.025585,0.051197 0.059724,0.093853 0.1023884,0.1279869 0.044373,0.032425 0.095597,0.056295 0.15362766,0.071654 0.059732,0.015372 0.1245738,0.023072 0.1945481,0.023072 0.054613,0 0.107524,-0.00265 0.1587209,-0.0077 0.052906,-0.00341 0.1006898,-0.00852 0.1433566,-0.015372 0.042664,-0.00683 0.08019,-0.012779 0.1126146,-0.017886 0.03243,-0.00685 0.0572,-0.012806 0.074266,-0.017939 v -0.834524 c 0,-0.069974 -0.00855,-0.1348581 -0.025585,-0.1945904 C 1.7264481,1.292987 1.6991299,1.241798 1.6615882,1.199134 1.6240411,1.1547634 1.5745323,1.1206374 1.5130934,1.0967429 1.4533637,1.0711312 1.3799868,1.0583465 1.2929495,1.0583465 Z m 0.9483989,0.4613804 v 1.8112581 h 0.1942227 l 0.060568,-0.078182 c 0.1210892,0.070636 0.2421705,0.1034124 0.3657865,0.1034124 0.3632729,0 0.5776648,-0.2699279 0.5776648,-0.6382279 0,-0.3683 -0.1488282,-0.6281473 -0.5221817,-0.6281473 -0.1437905,0 -0.2623529,0.035356 -0.3657865,0.088331 V 1.5197164 Z m -0.897202,0.2425938 c 0.071678,0 0.1279922,0.00513 0.1689523,0.015372 0.040958,0.00852 0.070816,0.017066 0.089588,0.025585 v 0.4659313 c -0.034131,0.00685 -0.075925,0.012779 -0.1254151,0.017912 -0.047786,0.00341 -0.104103,0.00513 -0.1689524,0.00513 -0.052909,0 -0.1006898,-0.00429 -0.1433539,-0.012806 -0.040958,-0.010239 -0.076806,-0.025612 -0.1075293,-0.046096 -0.029009,-0.020479 -0.052059,-0.047757 -0.069125,-0.081888 -0.015372,-0.034134 -0.023045,-0.07597 -0.023045,-0.1254575 0,-0.056322 0.011959,-0.1015603 0.03583,-0.1356889 0.023892,-0.034134 0.05461,-0.06055 0.092154,-0.079325 0.03755,-0.020479 0.07852,-0.033319 0.1228963,-0.038436 0.044371,-0.00685 0.087024,-0.010213 0.1279843,-0.010213 z M 2.8417092,2.342089 c 0.2169503,0 0.287602,0.1564111 0.287602,0.3935412 0,0.2371302 -0.11099,0.3758936 -0.3178439,0.3758936 -0.1009068,0 -0.1866847,-0.025215 -0.259842,-0.08323 V 2.4102536 c 0.060542,-0.025215 0.1790911,-0.068151 0.2900891,-0.068149 z"
     style="fill:#ffffff;stroke-width:0.264583;enable-background:new"
     id="path872"
     sodipodi:nodetypes="cccccscccsccccscccscccsccccscccccccccsssccccccccscccsccccccsscccc" />
  <path
     d="m 1.2929443,0.79374999 c -0.085333,0 -0.1587129,0.00595 -0.2201518,0.017912 -0.05973,0.011959 -0.1041083,0.024738 -0.1331199,0.038396 l 0.023019,0.1459204 c 0.022172,-0.00852 0.057168,-0.019606 0.104955,-0.033261 0.047786,-0.013653 0.1203404,-0.020532 0.2176224,-0.020532 0.068262,0 0.1228566,0.011113 0.1638141,0.033303 0.042667,0.020479 0.075107,0.048657 0.097293,0.084495 0.023892,0.034131 0.039235,0.073385 0.046059,0.1177555 0.00685,0.042667 0.010239,0.087003 0.010239,0.1330827 v 0.081928 c -0.00683,-0.00341 -0.019632,-0.00683 -0.038394,-0.010239 -0.017066,-0.00513 -0.038394,-0.00939 -0.063995,-0.012779 -0.023892,-0.00513 -0.049482,-0.00852 -0.07679,-0.010239 -0.025612,-0.00341 -0.050329,-0.00513 -0.074229,-0.00513 -0.080211,0 -0.1544426,0.00767 -0.2227104,0.023045 -0.068265,0.015372 -0.127164,0.040129 -0.1766517,0.074263 -0.049493,0.032427 -0.087884,0.074224 -0.115189,0.1254205 -0.027308,0.0512 -0.040965,0.1126412 -0.040965,0.1843168 0,0.075094 0.011959,0.1391179 0.035827,0.192024 0.025585,0.051197 0.059724,0.093853 0.1023884,0.1279869 0.044373,0.032425 0.095597,0.056295 0.1536277,0.071654 0.059732,0.015372 0.1245738,0.023072 0.1945481,0.023072 0.054613,0 0.107524,-0.00265 0.1587209,-0.0077 0.052906,-0.00341 0.1006898,-0.00852 0.1433566,-0.015372 0.042664,-0.00683 0.08019,-0.012779 0.1126146,-0.017886 0.03243,-0.00685 0.0572,-0.012806 0.074266,-0.017939 v -0.834524 c 0,-0.069974 -0.00855,-0.1348581 -0.025585,-0.1945904 C 1.7264482,1.0284037 1.69913,0.97721469 1.6615883,0.93455069 1.6240412,0.89018009 1.5745324,0.85605409 1.5130935,0.83215959 1.4533638,0.80654789 1.3799869,0.79376319 1.2929496,0.79376319 Z M 2.2413432,1.2551304 v 1.8112582 h 0.1942226 l 0.060568,-0.078182 c 0.1210892,0.070636 0.2421706,0.1034124 0.3657865,0.1034124 0.3632729,0 0.5776648,-0.269928 0.5776648,-0.638228 0,-0.3683 -0.1488284,-0.6281473 -0.5221816,-0.6281473 -0.1437908,0 -0.2623529,0.035356 -0.3657866,0.088331 V 1.2551331 Z m -0.897202,0.2425938 c 0.071678,0 0.1279922,0.00513 0.1689523,0.015372 0.040958,0.00852 0.070816,0.017066 0.089588,0.025585 v 0.4659314 c -0.034131,0.00685 -0.075925,0.012779 -0.1254151,0.017912 -0.047786,0.00341 -0.104103,0.00513 -0.1689524,0.00513 -0.052909,0 -0.1006898,-0.00429 -0.1433539,-0.012806 -0.040958,-0.010239 -0.076806,-0.025612 -0.1075293,-0.046096 -0.029009,-0.020479 -0.052059,-0.047757 -0.069125,-0.081888 -0.015372,-0.034134 -0.023045,-0.07597 -0.023045,-0.1254575 0,-0.056322 0.011959,-0.1015603 0.03583,-0.1356889 0.023892,-0.034134 0.05461,-0.06055 0.092154,-0.079325 0.03755,-0.020479 0.07852,-0.033319 0.1228963,-0.038436 0.044371,-0.00685 0.087024,-0.010213 0.1279843,-0.010213 z m 1.497568,0.5797815 c 0.2169504,0 0.2876021,0.1564111 0.2876021,0.3935413 0,0.2371301 -0.1109901,0.3758935 -0.317844,0.3758935 -0.1009068,0 -0.1866846,-0.025215 -0.2598419,-0.08323 V 2.1456703 c 0.060542,-0.025215 0.1790911,-0.068151 0.2900891,-0.068149 z"
     style="fill:#5d5d5d;stroke-width:0.0700042;enable-background:new"
     id="path1088" />
  <path
     id="rect13250"
     style="opacity:0.4;fill:url(#linearGradient16320);fill-opacity:1;stroke-width:0.127101;stroke-linejoin:round"
     d="M 0.94929604,0.52916666 C 0.4275256,0.53207345 0.26458333,0.5787759 0.26458333,1.3229166 v 0.1829346 1.2216309 0.1829345 c 0,0.79375 0.21166674,0.79375 0.79374997,0.79375 H 1.3229166 3.175 c 0.5820833,0 0.79375,0 0.79375,-0.79375 V 2.7274821 1.5058512 1.3229166 C 3.96875,0.52916642 3.7570833,0.52916666 3.175,0.52916666 H 1.3229166 Z m 0.0847494,0.26458333 c 0.0079,-4.458e-5 0.016138,0 0.024288,0 H 3.175 c 0.5216072,0 0.5291666,0.0892859 0.5291666,0.52916661 v 1.5875 c 0,0.4398807 -0.00756,0.5291667 -0.5291666,0.5291667 H 1.0583333 c -0.52160723,0 -0.52916664,-0.089286 -0.52916664,-0.5291667 v -1.5875 c 0,-0.4330075 0.007113,-0.52635721 0.50487874,-0.52916661 z"
     sodipodi:nodetypes="csccsscssccssccssssssssss" />
  <path
     id="rect7040"
     style="opacity:0.4;stroke-width:0.264583;stroke-linejoin:round"
     d="M 1.0583333,0.26458333 C 0.21187339,0.26458333 0,0.47645663 0,1.3229166 v 1.5875 C 0,3.7568766 0.21187339,3.96875 1.0583333,3.96875 H 3.175 C 4.021402,3.9689566 4.2332756,3.7570833 4.2333333,2.9104166 v -1.5875 C 4.2332756,0.42374666 4.021402,0.26478997 3.175,0.26458333 Z M 0.94929604,0.52916666 H 1.3229166 3.175 c 0.5820833,0 0.79375,-2.9e-7 0.79375,0.79374994 v 0.1829346 1.2216309 0.1829345 c 0,0.79375 -0.2116667,0.79375 -0.79375,0.79375 H 1.3229166 1.0583333 c -0.5820832,0 -0.79374997,0 -0.79374997,-0.79375 V 2.7274821 1.5058512 1.3229166 c 0,-0.74414078 0.16294232,-0.79084294 0.68471271,-0.79374994 z"
     sodipodi:nodetypes="ssssccccsccssccsscssccsc" />
</svg>
