<?xml version="1.0" encoding="UTF-8" standalone="no"?>
<!-- Created with Inkscape (http://www.inkscape.org/) -->

<svg
   width="16"
   height="16"
   viewBox="0 0 4.2333333 4.2333333"
   version="1.1"
   id="svg1003"
   sodipodi:docname="preferences-system-network.svg"
   inkscape:version="1.1.2 (0a00cf5339, 2022-02-04)"
   xmlns:inkscape="http://www.inkscape.org/namespaces/inkscape"
   xmlns:sodipodi="http://sodipodi.sourceforge.net/DTD/sodipodi-0.dtd"
   xmlns:xlink="http://www.w3.org/1999/xlink"
   xmlns="http://www.w3.org/2000/svg"
   xmlns:svg="http://www.w3.org/2000/svg">
  <sodipodi:namedview
     id="namedview1005"
     pagecolor="#ffffff"
     bordercolor="#666666"
     borderopacity="1.0"
     inkscape:pageshadow="2"
     inkscape:pageopacity="0.0"
     inkscape:pagecheckerboard="0"
     inkscape:document-units="px"
     showgrid="false"
     units="px"
     showguides="true"
     inkscape:lockguides="true"
     inkscape:zoom="28.285713"
     inkscape:cx="4.967172"
     inkscape:cy="6.7878791"
     inkscape:window-width="1920"
     inkscape:window-height="1010"
     inkscape:window-x="0"
     inkscape:window-y="0"
     inkscape:window-maximized="1"
     inkscape:current-layer="svg1003" />
  <defs
     id="defs1000">
    <linearGradient
       inkscape:collect="always"
       id="linearGradient17934">
      <stop
         style="stop-color:#8c59d9;stop-opacity:1"
         offset="0"
         id="stop17930" />
      <stop
         style="stop-color:#a7a7f1;stop-opacity:1"
         offset="1"
         id="stop17932" />
    </linearGradient>
    <linearGradient
       inkscape:collect="always"
       xlink:href="#linearGradient1871"
       id="linearGradient16320"
       x1="10"
       y1="4"
       x2="10"
       y2="29.100245"
       gradientUnits="userSpaceOnUse"
       gradientTransform="matrix(0.13229166,0,0,0.12211538,0,0.04070512)" />
    <linearGradient
       inkscape:collect="always"
       id="linearGradient1871">
      <stop
         style="stop-color:#ffffff;stop-opacity:1;"
         offset="0"
         id="stop1867" />
      <stop
         style="stop-color:#ffffff;stop-opacity:0.1"
         offset="0.12"
         id="stop2515" />
      <stop
         style="stop-color:#ffffff;stop-opacity:0.102"
         offset="0.89999998"
         id="stop2581" />
      <stop
         style="stop-color:#ffffff;stop-opacity:0.502"
         offset="1"
         id="stop1869" />
    </linearGradient>
    <linearGradient
       inkscape:collect="always"
       xlink:href="#linearGradient17934"
       id="linearGradient17936"
       x1="1.0583333"
       y1="0.26458332"
       x2="3.1669822"
       y2="3.9714224"
       gradientUnits="userSpaceOnUse" />
    <clipPath
       id="clipPath1225-9">
      <path
         d="m 330.31,236.5 c 4.5406,0 5.1895,0.64729 5.1895,5.1836 v 3.6328 c 0,4.5363 -0.64891,5.1836 -5.1895,5.1836 h -4.6211 c -4.5405,0 -5.1894,-0.6473 -5.1894,-5.1836 v -3.6328 c 0,-4.5363 0.64892,-5.1836 5.1895,-5.1836 z"
         fill="#325fd1"
         id="path7" />
    </clipPath>
  </defs>
  <path
     d="M 1.0583333,0.396875 H 3.175 c 0.7935019,1.919e-4 0.9259876,0.157244 0.9260416,0.9921875 V 2.8376562 C 4.1009876,3.6238466 3.9685019,3.8366501 3.175,3.8364583 H 1.0583333 c -0.79355622,0 -0.92604169,-0.2128036 -0.92604169,-0.9988021 V 1.3890625 c 0,-0.7859985 0.13248546,-0.9921875 0.92604169,-0.9921875 z"
     style="fill:url(#linearGradient17936);fill-opacity:1;stroke-width:0.0653156;stroke-linejoin:round"
     id="path17503"
     sodipodi:nodetypes="sccccssss" />
  <path
     id="path1424"
     style="color:#000000;font-variant-ligatures:normal;font-variant-position:normal;font-variant-caps:normal;font-variant-numeric:normal;font-variant-alternates:normal;font-feature-settings:normal;text-indent:0;text-decoration-line:none;text-decoration-style:solid;text-decoration-color:#000000;text-transform:none;text-orientation:mixed;dominant-baseline:auto;white-space:normal;shape-padding:0;opacity:0.5;isolation:auto;mix-blend-mode:normal;solid-color:#000000;fill:#ffffff;fill-rule:evenodd;stroke-width:0.999999;color-rendering:auto;image-rendering:auto;shape-rendering:auto"
     d="M 4.0117188 1.5 C 3.9540653 2.7900013 3.9523526 4.0595093 4.0292969 5.2910156 C 3.4628924 4.9338528 1.9451029 3.7730402 0.8046875 2.7851562 C 0.7230091 2.9817347 0.66289421 3.2054336 0.6171875 3.4589844 C 1.7066645 4.39152 3.1324709 5.4164112 3.6464844 5.7421875 C 2.9862677 5.9909749 1.7022628 6.7341228 0.5 7.6015625 L 0.5 8.3085938 C 1.8427964 7.3448788 3.2987039 6.5080696 4.1015625 6.2089844 C 4.1908614 7.1441245 4.32291 8.0561468 4.5136719 8.9355469 C 4.7237531 9.9040969 5.0087281 10.830191 5.3613281 11.712891 C 4.8549482 11.877512 3.3464691 12.518964 2.8554688 12.621094 C 2.3953606 12.716802 1.5154536 13.002477 0.8046875 13.195312 C 0.89322065 13.410453 1.0054917 13.594736 1.1464844 13.75 C 1.790519 13.554858 2.5998666 13.270506 2.9707031 13.193359 C 3.4966429 13.08398 5.0415905 12.435239 5.5878906 12.255859 C 5.9435018 13.053538 6.3741505 13.801131 6.875 14.5 L 7.578125 14.5 C 7.0058797 13.753439 6.524599 12.940107 6.1308594 12.064453 C 7.6838593 11.480533 9.2109938 10.570012 10.371094 9.1953125 C 11.716736 9.7001063 13.896777 10.481327 15.5 10.816406 C 15.500115 10.78571 15.499998 10.755781 15.5 10.724609 L 15.5 10.216797 C 13.961177 9.8742632 11.937366 9.1506254 10.677734 8.6835938 C 11.285344 7.3631935 11.771041 5.9757156 12.119141 4.5410156 C 12.748688 4.4852716 14.16248 4.3175441 15.478516 4.3164062 C 15.46875 4.1216355 15.455967 3.9392418 15.4375 3.7695312 C 14.246915 3.7638192 12.784559 3.8910176 12.257812 3.9375 C 12.466758 3.3450102 12.800473 2.3516567 12.970703 1.5292969 C 12.801353 1.5174157 12.619699 1.5103657 12.427734 1.5058594 C 12.245858 2.6210814 11.882008 3.4027745 11.652344 4.0019531 C 9.180044 4.241243 6.8257342 4.6507851 4.6152344 5.390625 C 4.5307133 4.1338261 4.5344405 2.8286607 4.5957031 1.5 L 4.0117188 1.5 z M 11.515625 4.6035156 C 11.176375 5.9435154 10.709056 7.2411218 10.134766 8.4824219 C 8.3507659 7.7767021 6.6453125 6.8726249 5.0078125 5.890625 C 7.0506124 5.2287148 9.2232247 4.8349153 11.515625 4.6035156 z M 4.6953125 6.3867188 C 6.3173123 7.3616585 8.0126156 8.2592561 9.7910156 8.9726562 C 8.7228153 10.170156 7.3356029 10.988338 5.9082031 11.523438 C 5.5637729 10.665278 5.2828618 9.763447 5.0761719 8.8105469 C 4.9067217 8.0293571 4.7821823 7.2193188 4.6953125 6.3867188 z "
     transform="scale(0.26458333)" />
  <path
     id="ellipse29"
     d="M 3.1802668,0.97975213 A 0.23961195,0.2413873 0 0 0 2.9404881,1.2210811 0.23961195,0.2413873 0 0 0 3.1802668,1.46241 0.23961195,0.2413873 0 0 0 3.4195287,1.2210811 0.23961195,0.2413873 0 0 0 3.1802668,0.97975213 Z M 1.1039079,1.3104813 A 0.23961195,0.2413873 0 0 0 0.86412916,1.5518103 0.23961195,0.2413873 0 0 0 1.1039079,1.7931392 0.23961195,0.2413873 0 0 0 1.3436865,1.5518103 0.23961195,0.2413873 0 0 0 1.1039079,1.3104813 Z M 2.7007095,2.1062984 A 0.23961195,0.2413873 0 0 0 2.4614477,2.3476273 0.23961195,0.2413873 0 0 0 2.7007095,2.5889562 0.23961195,0.2413873 0 0 0 2.9404881,2.3476273 0.23961195,0.2413873 0 0 0 2.7007095,2.1062984 Z M 1.5829484,2.9109004 A 0.23961195,0.2413873 0 0 0 1.3431698,3.1522292 0.23961195,0.2413873 0 0 0 1.5829484,3.3935583 0.23961195,0.2413873 0 0 0 1.8222103,3.1522292 0.23961195,0.2413873 0 0 0 1.5829484,2.9109004 Z"
     style="stroke-width:0.264583;fill:#ffffff" />
  <path
     id="rect13250"
     style="opacity:0.699;fill:url(#linearGradient16320);fill-opacity:1;stroke-width:0.127101;stroke-linejoin:round"
     d="M 0.94929604,0.52916666 C 0.4275256,0.53207345 0.26458333,0.5787759 0.26458333,1.3229166 v 0.1829346 1.2216309 0.1829345 c 0,0.79375 0.21166674,0.79375 0.79374997,0.79375 H 1.3229166 3.175 c 0.5820833,0 0.79375,0 0.79375,-0.79375 V 2.7274821 1.5058512 1.3229166 C 3.96875,0.52916642 3.7570833,0.52916666 3.175,0.52916666 H 1.3229166 Z m 0.0847494,0.26458333 c 0.0079,-4.458e-5 0.016138,0 0.024288,0 H 3.175 c 0.5216072,0 0.5291666,0.0892859 0.5291666,0.52916661 v 1.5875 c 0,0.4398807 -0.00756,0.5291667 -0.5291666,0.5291667 H 1.0583333 c -0.52160723,0 -0.52916664,-0.089286 -0.52916664,-0.5291667 v -1.5875 c 0,-0.4330075 0.007113,-0.52635721 0.50487874,-0.52916661 z"
     sodipodi:nodetypes="csccsscssccssccssssssssss" />
  <path
     id="rect7040"
     style="opacity:0.4;stroke-width:0.264583;stroke-linejoin:round"
     d="M 1.0583333,0.26458333 C 0.21187339,0.26458333 0,0.47645663 0,1.3229166 v 1.5875 C 0,3.7568766 0.21187339,3.96875 1.0583333,3.96875 H 3.175 C 4.021402,3.9689566 4.2332756,3.7570833 4.2333333,2.9104166 v -1.5875 C 4.2332756,0.42374666 4.021402,0.26478997 3.175,0.26458333 Z M 0.94929604,0.52916666 H 1.3229166 3.175 c 0.5820833,0 0.79375,-2.9e-7 0.79375,0.79374994 v 0.1829346 1.2216309 0.1829345 c 0,0.79375 -0.2116667,0.79375 -0.79375,0.79375 H 1.3229166 1.0583333 c -0.5820832,0 -0.79374997,0 -0.79374997,-0.79375 V 2.7274821 1.5058512 1.3229166 c 0,-0.74414078 0.16294232,-0.79084294 0.68471271,-0.79374994 z"
     sodipodi:nodetypes="ssssccccsccssccsscssccsc" />
</svg>
