<?xml version="1.0" encoding="UTF-8" standalone="no"?>
<!-- Created with Inkscape (http://www.inkscape.org/) -->

<svg
   width="16"
   height="16"
   viewBox="0 0 4.2333333 4.2333333"
   version="1.1"
   id="svg1003"
   sodipodi:docname="ubiquity.svg"
   inkscape:version="1.1.2 (0a00cf5339, 2022-02-04)"
   xmlns:inkscape="http://www.inkscape.org/namespaces/inkscape"
   xmlns:sodipodi="http://sodipodi.sourceforge.net/DTD/sodipodi-0.dtd"
   xmlns:xlink="http://www.w3.org/1999/xlink"
   xmlns="http://www.w3.org/2000/svg"
   xmlns:svg="http://www.w3.org/2000/svg">
  <sodipodi:namedview
     id="namedview1005"
     pagecolor="#ffffff"
     bordercolor="#666666"
     borderopacity="1.0"
     inkscape:pageshadow="2"
     inkscape:pageopacity="0.0"
     inkscape:pagecheckerboard="0"
     inkscape:document-units="px"
     showgrid="false"
     units="px"
     showguides="false"
     inkscape:lockguides="true"
     inkscape:zoom="39.9375"
     inkscape:cx="8"
     inkscape:cy="8"
     inkscape:window-width="1718"
     inkscape:window-height="847"
     inkscape:window-x="0"
     inkscape:window-y="0"
     inkscape:window-maximized="1"
     inkscape:current-layer="svg1003" />
  <defs
     id="defs1000">
    <linearGradient
       inkscape:collect="always"
       id="linearGradient17934">
      <stop
         style="stop-color:#b3b3b3;stop-opacity:1"
         offset="0"
         id="stop17930" />
      <stop
         style="stop-color:#d9d9d9;stop-opacity:1"
         offset="1"
         id="stop17932" />
    </linearGradient>
    <linearGradient
       inkscape:collect="always"
       xlink:href="#linearGradient1871"
       id="linearGradient16320"
       x1="10"
       y1="4"
       x2="10"
       y2="29.100245"
       gradientUnits="userSpaceOnUse"
       gradientTransform="matrix(0.13229166,0,0,0.12211538,0,0.04070512)" />
    <linearGradient
       inkscape:collect="always"
       id="linearGradient1871">
      <stop
         style="stop-color:#ffffff;stop-opacity:1;"
         offset="0"
         id="stop1867" />
      <stop
         style="stop-color:#ffffff;stop-opacity:0.1"
         offset="0.12"
         id="stop2515" />
      <stop
         style="stop-color:#ffffff;stop-opacity:0.102"
         offset="0.89999998"
         id="stop2581" />
      <stop
         style="stop-color:#ffffff;stop-opacity:0.502"
         offset="1"
         id="stop1869" />
    </linearGradient>
    <linearGradient
       inkscape:collect="always"
       xlink:href="#linearGradient17934"
       id="linearGradient17936"
       x1="1.0583333"
       y1="0.39687499"
       x2="2.42802"
       y2="3.8377948"
       gradientUnits="userSpaceOnUse" />
    <linearGradient
       inkscape:collect="always"
       xlink:href="#linearGradient2221"
       id="linearGradient1241"
       x1="6.3499999"
       y1="2.3812499"
       x2="6.3499999"
       y2="9.7895832"
       gradientUnits="userSpaceOnUse"
       gradientTransform="matrix(0.28571428,0,0,0.28571428,0.30238087,0.37797601)" />
    <linearGradient
       inkscape:collect="always"
       id="linearGradient2221">
      <stop
         style="stop-color:#e6e6e6;stop-opacity:1;"
         offset="0"
         id="stop2217" />
      <stop
         style="stop-color:#f2f2f2;stop-opacity:1"
         offset="1"
         id="stop2219" />
    </linearGradient>
  </defs>
  <path
     d="M 1.0583333,0.396875 H 3.175 c 0.7935019,1.919e-4 0.9259876,0.157244 0.9260416,0.9921875 V 2.8376562 C 4.1009876,3.6238466 3.9685019,3.8366501 3.175,3.8364583 H 1.0583333 c -0.79355622,0 -0.92604169,-0.2128036 -0.92604169,-0.9988021 V 1.3890625 c 0,-0.7859985 0.13248546,-0.9921875 0.92604169,-0.9921875 z"
     style="fill:url(#linearGradient17936);fill-opacity:1;stroke-width:0.0653156;stroke-linejoin:round"
     id="path17503"
     sodipodi:nodetypes="sccccssss" />
  <circle
     style="fill:#4d4d4d;fill-opacity:1;stroke-width:0.229323;stroke-linejoin:round"
     id="path968"
     cx="2.1166666"
     cy="2.1166666"
     r="1.3229166" />
  <circle
     style="fill:url(#linearGradient1241);fill-opacity:1;stroke-width:0.0755951;stroke-linejoin:round"
     id="path985"
     cx="2.1166666"
     cy="2.1166666"
     r="1.0583333" />
  <path
     d="m 1.9611208,1.3229167 c -0.3710338,0.074147 -0.6381507,0.3998781 -0.6382041,0.778248 0,0.438376 0.3553739,0.79375 0.7937499,0.79375 0.4383761,0 0.79375,-0.355374 0.79375,-0.79375 C 2.9100489,1.9780241 2.8810333,1.8566582 2.825668,1.7466654 L 2.5900221,1.864487 c 0.036724,0.07349 0.055832,0.1545223 0.055811,0.2366777 0,0.2922507 -0.236916,0.5291667 -0.5291667,0.5291667 -0.2922506,0 -0.5291666,-0.236916 -0.5291666,-0.5291667 2.674e-4,-0.2519983 0.1782006,-0.4688488 0.4252967,-0.5183134 z"
     style="opacity:0.7;fill:#34be5b;stroke-width:0.264583;enable-background:new"
     id="path1776" />
  <circle
     style="opacity:0.1;fill:#000000;stroke-width:0.173518;stroke-linecap:round;stroke-linejoin:round"
     id="path945"
     cx="2.1166666"
     cy="2.1166666"
     r="0.46302083" />
  <path
     id="circle73"
     style="opacity:0.2;fill:#000000;stroke-width:0.264582"
     d="m 2.1151171,1.7197924 a 0.02822205,0.02822205 0 0 0 -0.028422,0.028422 0.02822205,0.02822205 0 0 0 0.028422,0.028422 0.02822205,0.02822205 0 0 0 0.028422,-0.028422 0.02822205,0.02822205 0 0 0 -0.028422,-0.028422 z M 1.933216,1.7688854 a 0.02822205,0.02822205 0 0 0 -0.015503,0.00413 0.02822205,0.02822205 0 0 0 -0.010335,0.038241 0.02822205,0.02822205 0 0 0 0.038241,0.010335 0.02822205,0.02822205 0 0 0 0.010335,-0.038241 0.02822205,0.02822205 0 0 0 -0.022738,-0.014469 z m 0.3638021,0 a 0.02822205,0.02822205 0 0 0 -0.022738,0.014469 0.02822205,0.02822205 0 0 0 0.010335,0.038241 0.02822205,0.02822205 0 0 0 0.038241,-0.010335 0.02822205,0.02822205 0 0 0 -0.010335,-0.038241 0.02822205,0.02822205 0 0 0 -0.015503,-0.00413 z M 1.7962735,1.9032437 a 0.02822205,0.02822205 0 0 0 -0.023254,0.014469 0.02822205,0.02822205 0 0 0 0.010335,0.038241 0.02822205,0.02822205 0 0 0 0.038757,-0.010336 0.02822205,0.02822205 0 0 0 -0.010335,-0.03824 0.02822205,0.02822205 0 0 0 -0.015503,-0.00413 z m 0.6382039,0 a 0.02822205,0.02822205 0 0 0 -0.015503,0.00413 0.02822205,0.02822205 0 0 0 -0.010335,0.038241 0.02822205,0.02822205 0 0 0 0.038241,0.010335 0.02822205,0.02822205 0 0 0 0.010335,-0.038241 0.02822205,0.02822205 0 0 0 -0.022738,-0.014465 z M 1.7482144,2.086695 a 0.02822205,0.02822205 0 0 0 -0.028422,0.028422 0.02822205,0.02822205 0 0 0 0.028422,0.027905 0.02822205,0.02822205 0 0 0 0.028422,-0.027905 0.02822205,0.02822205 0 0 0 -0.028422,-0.028422 z m 0.7338053,0 A 0.02822205,0.02822205 0 0 0 2.4535977,2.115117 0.02822205,0.02822205 0 0 0 2.4820197,2.143022 0.02822205,0.02822205 0 0 0 2.5104417,2.115117 0.02822205,0.02822205 0 0 0 2.4820197,2.086695 Z M 1.7947232,2.2701464 a 0.02822205,0.02822205 0 0 0 -0.011369,0.00413 0.02822205,0.02822205 0 0 0 -0.010335,0.038241 0.02822205,0.02822205 0 0 0 0.038757,0.010335 0.02822205,0.02822205 0 0 0 0.010335,-0.03824 0.02822205,0.02822205 0 0 0 -0.027388,-0.014469 z m 0.6366536,0 a 0.02822205,0.02822205 0 0 0 -0.022738,0.014469 0.02822205,0.02822205 0 0 0 0.010335,0.038241 0.02822205,0.02822205 0 0 0 0.038241,-0.010335 0.02822205,0.02822205 0 0 0 -0.010335,-0.038241 0.02822205,0.02822205 0 0 0 -0.015503,-0.00413 z M 1.9301154,2.4045051 a 0.02822205,0.02822205 0 0 0 -0.022738,0.013953 0.02822205,0.02822205 0 0 0 0.010335,0.038757 0.02822205,0.02822205 0 0 0 0.038241,-0.010335 0.02822205,0.02822205 0 0 0 -0.010335,-0.038757 0.02822205,0.02822205 0 0 0 -0.015503,-0.00362 z m 0.3658692,0 a 0.02822205,0.02822205 0 0 0 -0.011369,0.00362 0.02822205,0.02822205 0 0 0 -0.010335,0.038757 0.02822205,0.02822205 0 0 0 0.038241,0.010335 0.02822205,0.02822205 0 0 0 0.010335,-0.038757 0.02822205,0.02822205 0 0 0 -0.026872,-0.013953 z m -0.1808675,0.049093 a 0.02822205,0.02822205 0 0 0 -0.028422,0.028422 0.02822205,0.02822205 0 0 0 0.028422,0.027905 0.02822205,0.02822205 0 0 0 0.028422,-0.027905 0.02822205,0.02822205 0 0 0 -0.028422,-0.028422 z" />
  <circle
     style="fill:#ffffff;stroke-width:0.264583;stroke-linecap:round;stroke-linejoin:round"
     id="path1107"
     cx="2.1166666"
     cy="2.1166666"
     r="0.26458332" />
  <circle
     style="opacity:0.1;fill:#000000;stroke-width:0.817421;stroke-linecap:round;stroke-linejoin:round"
     id="path1255"
     cx="2.1166666"
     cy="2.1166668"
     r="0.22489583" />
  <circle
     style="fill:#888888;fill-opacity:1;stroke-width:0.264583;stroke-linecap:round;stroke-linejoin:round"
     id="path1381"
     cx="2.1166666"
     cy="2.1166666"
     r="0.06614583" />
  <path
     d="m 2.5515476,2.38125 c 0,0 -1.3935461,1.2535084 -1.4729491,1.3122253 -0.079285,0.058675 -0.19112886,0.04197 -0.24979996,-0.037317 -0.058675,-0.079285 -0.04197,-0.1911289 0.037317,-0.2498 0.079285,-0.058675 1.68540686,-1.0251032 1.68540686,-1.0251032 z"
     style="fill:#ffffff;stroke-width:0.264583;enable-background:new"
     id="path1081" />
  <circle
     style="opacity:1;fill:#808080;fill-opacity:1;stroke-width:0.197561;stroke-linecap:round;stroke-linejoin:round"
     id="path1594"
     cx="0.95911455"
     cy="3.5388021"
     r="0.06614583" />
  <path
     id="rect13250"
     style="opacity:1;fill:url(#linearGradient16320);fill-opacity:1;stroke-width:0.127101;stroke-linejoin:round"
     d="M 0.94929604,0.52916666 C 0.4275256,0.53207345 0.26458333,0.5787759 0.26458333,1.3229166 v 0.1829346 1.2216309 0.1829345 c 0,0.79375 0.21166674,0.79375 0.79374997,0.79375 H 1.3229166 3.175 c 0.5820833,0 0.79375,0 0.79375,-0.79375 V 2.7274821 1.5058512 1.3229166 C 3.96875,0.52916642 3.7570833,0.52916666 3.175,0.52916666 H 1.3229166 Z m 0.0847494,0.26458333 c 0.0079,-4.458e-5 0.016138,0 0.024288,0 H 3.175 c 0.5216072,0 0.5291666,0.0892859 0.5291666,0.52916661 v 1.5875 c 0,0.4398807 -0.00756,0.5291667 -0.5291666,0.5291667 H 1.0583333 c -0.52160723,0 -0.52916664,-0.089286 -0.52916664,-0.5291667 v -1.5875 c 0,-0.4330075 0.007113,-0.52635721 0.50487874,-0.52916661 z"
     sodipodi:nodetypes="csccsscssccssccssssssssss" />
  <path
     id="rect7040"
     style="opacity:0.4;stroke-width:0.264583;stroke-linejoin:round"
     d="M 1.0583333,0.26458333 C 0.21187339,0.26458333 0,0.47645663 0,1.3229166 v 1.5875 C 0,3.7568766 0.21187339,3.96875 1.0583333,3.96875 H 3.175 C 4.021402,3.9689566 4.2332756,3.7570833 4.2333333,2.9104166 v -1.5875 C 4.2332756,0.42374666 4.021402,0.26478997 3.175,0.26458333 Z M 0.94929604,0.52916666 H 1.3229166 3.175 c 0.5820833,0 0.79375,-2.9e-7 0.79375,0.79374994 v 0.1829346 1.2216309 0.1829345 c 0,0.79375 -0.2116667,0.79375 -0.79375,0.79375 H 1.3229166 1.0583333 c -0.5820832,0 -0.79374997,0 -0.79374997,-0.79375 V 2.7274821 1.5058512 1.3229166 c 0,-0.74414078 0.16294232,-0.79084294 0.68471271,-0.79374994 z"
     sodipodi:nodetypes="ssssccccsccssccsscssccsc" />
  <path
     d="m 2.3812499,1.3228901 c 0,0.5845228 -1.0583095,1.4552348 -1.0583095,1.4552348 0,0 -1.05835707,-0.870712 -1.05835707,-1.4552348 0,-0.58448307 0.47384227,-1.05830677 1.05835707,-1.05830677 0.5845175,0 1.0583095,0.4738132 1.0583095,1.05830677 z"
     style="opacity:0.2;stroke-width:0.264583;enable-background:new"
     id="path964" />
  <path
     d="m 2.38125,1.0583069 c 0,0.5845174 -1.0583069,1.4552347 -1.0583069,1.4552347 0,0 -1.05835977,-0.8707173 -1.05835977,-1.4552347 C 0.26458333,0.47381584 0.73842561,0 1.3229431,0 1.9074606,0 2.38125,0.47381584 2.38125,1.0583069 Z"
     style="fill:#34be5b;stroke-width:0.264583;enable-background:new"
     id="path1240" />
  <path
     d="M 1.0366454,0.52916666 H 1.5658121 V 0.79374999 H 1.8086917 C 1.7192096,0.99315587 1.5579381,1.2747096 1.3012208,1.7015619 1.0444586,1.2746567 0.88323208,0.99290187 0.79374999,0.79345895 H 1.0366322 Z"
     style="color:#000000;fill:#ffffff;stroke-width:0.264583"
     id="path1500" />
</svg>
