<?xml version="1.0" encoding="UTF-8" standalone="no"?>
<!-- Created with Inkscape (http://www.inkscape.org/) -->

<svg
   width="16"
   height="16"
   viewBox="0 0 4.2333333 4.2333333"
   version="1.1"
   id="svg1003"
   sodipodi:docname="utilities-tweak-tool.svg"
   inkscape:version="1.1.2 (0a00cf5339, 2022-02-04)"
   xmlns:inkscape="http://www.inkscape.org/namespaces/inkscape"
   xmlns:sodipodi="http://sodipodi.sourceforge.net/DTD/sodipodi-0.dtd"
   xmlns:xlink="http://www.w3.org/1999/xlink"
   xmlns="http://www.w3.org/2000/svg"
   xmlns:svg="http://www.w3.org/2000/svg">
  <sodipodi:namedview
     id="namedview1005"
     pagecolor="#ffffff"
     bordercolor="#666666"
     borderopacity="1.0"
     inkscape:pageshadow="2"
     inkscape:pageopacity="0.0"
     inkscape:pagecheckerboard="0"
     inkscape:document-units="px"
     showgrid="false"
     units="px"
     showguides="true"
     inkscape:lockguides="true"
     inkscape:zoom="40.002039"
     inkscape:cx="4.1372891"
     inkscape:cy="8.5995616"
     inkscape:window-width="1851"
     inkscape:window-height="1053"
     inkscape:window-x="0"
     inkscape:window-y="0"
     inkscape:window-maximized="1"
     inkscape:current-layer="svg1003" />
  <defs
     id="defs1000">
    <linearGradient
       inkscape:collect="always"
       id="linearGradient17934">
      <stop
         style="stop-color:#e6e6e6;stop-opacity:1"
         offset="0"
         id="stop17930" />
      <stop
         style="stop-color:#f7f7f7;stop-opacity:1"
         offset="1"
         id="stop17932" />
    </linearGradient>
    <linearGradient
       inkscape:collect="always"
       xlink:href="#linearGradient1871"
       id="linearGradient16320"
       x1="10"
       y1="4"
       x2="10"
       y2="29.100245"
       gradientUnits="userSpaceOnUse"
       gradientTransform="matrix(0.13229166,0,0,0.12211538,0,0.04070512)" />
    <linearGradient
       inkscape:collect="always"
       id="linearGradient1871">
      <stop
         style="stop-color:#ffffff;stop-opacity:1;"
         offset="0"
         id="stop1867" />
      <stop
         style="stop-color:#ffffff;stop-opacity:0.1"
         offset="0.12"
         id="stop2515" />
      <stop
         style="stop-color:#ffffff;stop-opacity:0.102"
         offset="0.89999998"
         id="stop2581" />
      <stop
         style="stop-color:#ffffff;stop-opacity:0.502"
         offset="1"
         id="stop1869" />
    </linearGradient>
    <linearGradient
       inkscape:collect="always"
       xlink:href="#linearGradient17934"
       id="linearGradient17936"
       x1="1.0583333"
       y1="0.39687499"
       x2="2.42802"
       y2="3.8377948"
       gradientUnits="userSpaceOnUse" />
    <linearGradient
       inkscape:collect="always"
       xlink:href="#linearGradient4938"
       id="linearGradient4940"
       x1="8.9958334"
       y1="2.1166666"
       x2="10.054167"
       y2="5.8208332"
       gradientUnits="userSpaceOnUse"
       gradientTransform="matrix(0.28571425,0,0,0.28571425,0.30238105,0.18898812)" />
    <linearGradient
       inkscape:collect="always"
       id="linearGradient4938">
      <stop
         style="stop-color:#2ea750;stop-opacity:1"
         offset="0"
         id="stop4934" />
      <stop
         style="stop-color:#34be5b;stop-opacity:1"
         offset="1"
         id="stop4936" />
    </linearGradient>
  </defs>
  <path
     d="M 1.0583333,0.396875 H 3.175 c 0.7935019,1.919e-4 0.9259876,0.157244 0.9260416,0.9921875 V 2.8376562 C 4.1009876,3.6238466 3.9685019,3.8366501 3.175,3.8364583 H 1.0583333 c -0.79355622,0 -0.92604169,-0.2128036 -0.92604169,-0.9988021 V 1.3890625 c 0,-0.7859985 0.13248546,-0.9921875 0.92604169,-0.9921875 z"
     style="fill:url(#linearGradient17936);fill-opacity:1;stroke-width:0.0653156;stroke-linejoin:round"
     id="path17503"
     sodipodi:nodetypes="sccccssss" />
  <path
     id="rect13250"
     style="opacity:0.699;fill:url(#linearGradient16320);fill-opacity:1;stroke-width:0.127101;stroke-linejoin:round"
     d="M 0.94929604,0.52916666 C 0.4275256,0.53207345 0.26458333,0.5787759 0.26458333,1.3229166 v 0.1829346 1.2216309 0.1829345 c 0,0.79375 0.21166674,0.79375 0.79374997,0.79375 H 1.3229166 3.175 c 0.5820833,0 0.79375,0 0.79375,-0.79375 V 2.7274821 1.5058512 1.3229166 C 3.96875,0.52916642 3.7570833,0.52916666 3.175,0.52916666 H 1.3229166 Z m 0.0847494,0.26458333 c 0.0079,-4.458e-5 0.016138,0 0.024288,0 H 3.175 c 0.5216072,0 0.5291666,0.0892859 0.5291666,0.52916661 v 1.5875 c 0,0.4398807 -0.00756,0.5291667 -0.5291666,0.5291667 H 1.0583333 c -0.52160723,0 -0.52916664,-0.089286 -0.52916664,-0.5291667 v -1.5875 c 0,-0.4330075 0.007113,-0.52635721 0.50487874,-0.52916661 z"
     sodipodi:nodetypes="csccsscssccssccssssssssss" />
  <path
     id="rect7040"
     style="opacity:0.4;stroke-width:0.264583;stroke-linejoin:round"
     d="M 1.0583333,0.26458333 C 0.21187339,0.26458333 0,0.47645663 0,1.3229166 v 1.5875 C 0,3.7568766 0.21187339,3.96875 1.0583333,3.96875 H 3.175 C 4.021402,3.9689566 4.2332756,3.7570833 4.2333333,2.9104166 v -1.5875 C 4.2332756,0.42374666 4.021402,0.26478997 3.175,0.26458333 Z M 0.94929604,0.52916666 H 1.3229166 3.175 c 0.5820833,0 0.79375,-2.9e-7 0.79375,0.79374994 v 0.1829346 1.2216309 0.1829345 c 0,0.79375 -0.2116667,0.79375 -0.79375,0.79375 H 1.3229166 1.0583333 c -0.5820832,0 -0.79374997,0 -0.79374997,-0.79375 V 2.7274821 1.5058512 1.3229166 c 0,-0.74414078 0.16294232,-0.79084294 0.68471271,-0.79374994 z"
     sodipodi:nodetypes="ssssccccsccssccsscssccsc" />
  <path
     d="m 1.5875,1.0583843 h 1.0583331 c 0.2931583,0 0.5291669,0.2360083 0.5291669,0.5291666 0,0.2931582 -0.2360086,0.5291665 -0.5291669,0.5291665 H 1.5875 c -0.2931583,0 -0.5291667,-0.2360083 -0.5291667,-0.5291665 0,-0.2931583 0.2360084,-0.5291666 0.5291667,-0.5291666 z"
     style="opacity:0.6;fill:#ffffff;stroke-width:0.0200012;stroke-linejoin:round"
     id="path2315" />
  <path
     id="rect2694"
     style="fill:url(#linearGradient4940);stroke-width:0.075595;stroke-linejoin:round"
     d="m 1.5874998,0.79374999 h 1.0583333 c 0.2931584,0 0.5291669,0.23600831 0.5291669,0.52916651 0,0.2931584 -0.2360085,0.5291668 -0.5291669,0.5291668 H 1.5874998 c -0.2931582,0 -0.5291665,-0.2360084 -0.5291665,-0.5291668 0,-0.2931582 0.2360083,-0.52916651 0.5291665,-0.52916651 z"
     sodipodi:nodetypes="sssssss" />
  <path
     id="path2075"
     style="opacity:0.2;fill:#000000;fill-opacity:1;stroke-width:0.0200012;stroke-linejoin:round"
     d="M 1.5735474,0.79380091 C 1.2867706,0.80101795 1.0583333,1.0343899 1.0583333,1.3229676 c 0,0.045806 0.00569,0.089959 0.016537,0.1322917 C 1.1334141,1.2266602 1.3401476,1.0583842 1.5875,1.0583842 h 1.0583333 c 0.2473523,0 0.4540858,0.168276 0.5126302,0.3968751 0.010841,-0.042333 0.016536,-0.086486 0.016536,-0.1322917 0,-0.2931583 -0.2360083,-0.52916669 -0.5291666,-0.52916669 H 1.5875 c -0.00458,0 -0.0094,-1.1456e-4 -0.013951,0 z" />
  <circle
     style="opacity:0.1;fill:#000000;fill-opacity:1;stroke-width:0.0440971;stroke-linejoin:round"
     id="path4786"
     cx="2.6458333"
     cy="1.5875509"
     r="0.26458332" />
  <circle
     style="fill:#ffffff;fill-opacity:1;stroke-width:0.0440971;stroke-linejoin:round"
     id="path4592"
     cx="2.6458337"
     cy="1.3229678"
     r="0.26458332" />
  <path
     id="rect2930"
     style="fill:#dedede;stroke-width:0.0755951;stroke-linejoin:round"
     d="m 1.5875,2.3813009 h 1.0583332 c 0.2931583,0 0.5291668,0.2360083 0.5291668,0.5291667 0,0.2931583 -0.2360085,0.5291665 -0.5291668,0.5291665 H 1.5875 c -0.2931584,0 -0.5291667,-0.2360082 -0.5291667,-0.5291665 0,-0.2931584 0.2360083,-0.5291667 0.5291667,-0.5291667 z" />
  <path
     id="rect3290"
     style="opacity:0.1;fill:#000000;fill-opacity:1;stroke-width:0.0755952;stroke-linejoin:round"
     d="m 1.5735474,2.3813009 c -0.2867768,0.00722 -0.5152141,0.240589 -0.5152141,0.5291666 0,0.2931584 0.2360083,0.5291667 0.5291667,0.5291667 h 1.0583333 c 0.2931583,0 0.5291666,-0.2360083 0.5291666,-0.5291667 0,-0.2931583 -0.2360083,-0.5291666 -0.5291666,-0.5291666 H 1.5875 c -0.00458,0 -0.0094,-1.146e-4 -0.013953,0 z m 0.013953,0.2645833 h 1.0583333 c 0.1465791,0 0.2645833,0.1180042 0.2645833,0.2645833 0,0.1465792 -0.1180042,0.2645834 -0.2645833,0.2645834 H 1.5875 c -0.1465792,0 -0.2645834,-0.1180042 -0.2645834,-0.2645834 0,-0.1465791 0.1180042,-0.2645833 0.2645838,-0.2645833 z" />
  <circle
     style="opacity:0.2;fill:#000000;fill-opacity:1;stroke-width:0.0755947;stroke-linejoin:round"
     id="path3871"
     cx="1.5875"
     cy="2.9104676"
     r="0.52916664" />
  <circle
     style="fill:#ffffff;fill-opacity:1;stroke-width:0.0430354;stroke-linejoin:round"
     id="path3997"
     cx="1.5875"
     cy="2.9104676"
     r="0.26458332" />
</svg>
