<?xml version="1.0" encoding="UTF-8" standalone="no"?>
<!-- Created with Inkscape (http://www.inkscape.org/) -->

<svg
   width="16"
   height="16"
   viewBox="0 0 4.2333333 4.2333333"
   version="1.1"
   id="svg1003"
   sodipodi:docname="applications-all.svg"
   inkscape:version="1.1.2 (0a00cf5339, 2022-02-04)"
   xmlns:inkscape="http://www.inkscape.org/namespaces/inkscape"
   xmlns:sodipodi="http://sodipodi.sourceforge.net/DTD/sodipodi-0.dtd"
   xmlns:xlink="http://www.w3.org/1999/xlink"
   xmlns="http://www.w3.org/2000/svg"
   xmlns:svg="http://www.w3.org/2000/svg">
  <sodipodi:namedview
     id="namedview1005"
     pagecolor="#ffffff"
     bordercolor="#666666"
     borderopacity="1.0"
     inkscape:pageshadow="2"
     inkscape:pageopacity="0.0"
     inkscape:pagecheckerboard="0"
     inkscape:document-units="px"
     showgrid="false"
     units="px"
     showguides="false"
     inkscape:lockguides="true"
     inkscape:zoom="48.375"
     inkscape:cx="7.9896641"
     inkscape:cy="8"
     inkscape:window-width="1920"
     inkscape:window-height="998"
     inkscape:window-x="0"
     inkscape:window-y="0"
     inkscape:window-maximized="1"
     inkscape:current-layer="svg1003" />
  <defs
     id="defs1000">
    <linearGradient
       inkscape:collect="always"
       id="linearGradient17934">
      <stop
         style="stop-color:#5884f4;stop-opacity:1"
         offset="0"
         id="stop17930" />
      <stop
         style="stop-color:#80a3fa;stop-opacity:1"
         offset="1"
         id="stop17932" />
    </linearGradient>
    <linearGradient
       inkscape:collect="always"
       xlink:href="#linearGradient1871"
       id="linearGradient16320"
       x1="10"
       y1="4"
       x2="10"
       y2="29.100245"
       gradientUnits="userSpaceOnUse"
       gradientTransform="matrix(0.13229166,0,0,0.12211538,0,0.04070512)" />
    <linearGradient
       inkscape:collect="always"
       id="linearGradient1871">
      <stop
         style="stop-color:#ffffff;stop-opacity:1;"
         offset="0"
         id="stop1867" />
      <stop
         style="stop-color:#ffffff;stop-opacity:0.1"
         offset="0.12"
         id="stop2515" />
      <stop
         style="stop-color:#ffffff;stop-opacity:0.102"
         offset="0.89999998"
         id="stop2581" />
      <stop
         style="stop-color:#ffffff;stop-opacity:0.502"
         offset="1"
         id="stop1869" />
    </linearGradient>
    <linearGradient
       inkscape:collect="always"
       xlink:href="#linearGradient17934"
       id="linearGradient17936"
       x1="1.0583333"
       y1="0.26458332"
       x2="3.1669822"
       y2="3.9714224"
       gradientUnits="userSpaceOnUse" />
    <clipPath
       id="clipPath1225-9">
      <path
         d="m 330.31,236.5 c 4.5406,0 5.1895,0.64729 5.1895,5.1836 v 3.6328 c 0,4.5363 -0.64891,5.1836 -5.1895,5.1836 h -4.6211 c -4.5405,0 -5.1894,-0.6473 -5.1894,-5.1836 v -3.6328 c 0,-4.5363 0.64892,-5.1836 5.1895,-5.1836 z"
         fill="#325fd1"
         id="path7" />
    </clipPath>
  </defs>
  <path
     d="M 1.0583333,0.396875 H 3.175 c 0.7935019,1.919e-4 0.9259876,0.157244 0.9260416,0.9921875 V 2.8376562 C 4.1009876,3.6238466 3.9685019,3.8366501 3.175,3.8364583 H 1.0583333 c -0.79355622,0 -0.92604169,-0.2128036 -0.92604169,-0.9988021 V 1.3890625 c 0,-0.7859985 0.13248546,-0.9921875 0.92604169,-0.9921875 z"
     style="fill:url(#linearGradient17936);fill-opacity:1;stroke-width:0.0653156;stroke-linejoin:round"
     id="path17503"
     sodipodi:nodetypes="sccccssss" />
  <path
     d="m 1.190625,1.0583333 c -0.1465792,0 -0.26458334,0.1180041 -0.26458334,0.2645833 v 0.5291667 c 0,0.1465792 0.11800414,0.2645833 0.26458334,0.2645833 h 0.5291667 c 0.1465792,0 0.2645833,-0.1180041 0.2645833,-0.2645833 V 1.3229166 c 0,-0.1465792 -0.1180041,-0.2645833 -0.2645833,-0.2645833 z m 1.3229167,0 c -0.1465792,0 -0.2645833,0.1180041 -0.2645833,0.2645833 v 0.5291667 c 0,0.1465792 0.1180041,0.2645833 0.2645833,0.2645833 h 0.5291667 c 0.1465791,0 0.2645833,-0.1180041 0.2645833,-0.2645833 V 1.3229166 c 0,-0.1465792 -0.1180042,-0.2645833 -0.2645833,-0.2645833 z M 1.190625,2.38125 c -0.1465792,0 -0.26458334,0.1180041 -0.26458334,0.2645833 V 3.175 c 0,0.1465791 0.11800414,0.2645833 0.26458334,0.2645833 H 1.7197917 C 1.8663709,3.4395833 1.984375,3.3215791 1.984375,3.175 V 2.6458333 C 1.984375,2.4992541 1.8663709,2.38125 1.7197917,2.38125 Z m 1.3229167,0 c -0.1465792,0 -0.2645833,0.1180041 -0.2645833,0.2645833 V 3.175 c 0,0.1465791 0.1180041,0.2645833 0.2645833,0.2645833 h 0.5291667 c 0.1465791,0 0.2645833,-0.1180042 0.2645833,-0.2645833 V 2.6458333 C 3.3072917,2.4992541 3.1892875,2.38125 3.0427084,2.38125 Z"
     style="opacity:0.1;fill:#000000;stroke-width:0.529167;stroke-linecap:round;stroke-linejoin:round"
     id="path1941" />
  <path
     id="rect13250"
     style="opacity:0.699;fill:url(#linearGradient16320);fill-opacity:1;stroke-width:0.127101;stroke-linejoin:round"
     d="M 0.94929604,0.52916666 C 0.4275256,0.53207345 0.26458333,0.5787759 0.26458333,1.3229166 v 0.1829346 1.2216309 0.1829345 c 0,0.79375 0.21166674,0.79375 0.79374997,0.79375 H 1.3229166 3.175 c 0.5820833,0 0.79375,0 0.79375,-0.79375 V 2.7274821 1.5058512 1.3229166 C 3.96875,0.52916642 3.7570833,0.52916666 3.175,0.52916666 H 1.3229166 Z m 0.0847494,0.26458333 c 0.0079,-4.458e-5 0.016138,0 0.024288,0 H 3.175 c 0.5216072,0 0.5291666,0.0892859 0.5291666,0.52916661 v 1.5875 c 0,0.4398807 -0.00756,0.5291667 -0.5291666,0.5291667 H 1.0583333 c -0.52160723,0 -0.52916664,-0.089286 -0.52916664,-0.5291667 v -1.5875 c 0,-0.4330075 0.007113,-0.52635721 0.50487874,-0.52916661 z"
     sodipodi:nodetypes="csccsscssccssccssssssssss" />
  <path
     id="rect7040"
     style="opacity:0.4;stroke-width:0.264583;stroke-linejoin:round"
     d="M 1.0583333,0.26458333 C 0.21187339,0.26458333 0,0.47645663 0,1.3229166 v 1.5875 C 0,3.7568766 0.21187339,3.96875 1.0583333,3.96875 H 3.175 C 4.021402,3.9689566 4.2332756,3.7570833 4.2333333,2.9104166 v -1.5875 C 4.2332756,0.42374666 4.021402,0.26478997 3.175,0.26458333 Z M 0.94929604,0.52916666 H 1.3229166 3.175 c 0.5820833,0 0.79375,-2.9e-7 0.79375,0.79374994 v 0.1829346 1.2216309 0.1829345 c 0,0.79375 -0.2116667,0.79375 -0.79375,0.79375 H 1.3229166 1.0583333 c -0.5820832,0 -0.79374997,0 -0.79374997,-0.79375 V 2.7274821 1.5058512 1.3229166 c 0,-0.74414078 0.16294232,-0.79084294 0.68471271,-0.79374994 z"
     sodipodi:nodetypes="ssssccccsccssccsscssccsc" />
  <path
     id="rect1586"
     style="fill:#ffffff;stroke-width:0.529167;stroke-linecap:round;stroke-linejoin:round"
     d="m 1.190625,0.79374999 c -0.1465792,0 -0.26458334,0.11800417 -0.26458334,0.26458331 V 1.5875 c 0,0.1465792 0.11800414,0.2645833 0.26458334,0.2645833 h 0.5291666 c 0.1465792,0 0.2645834,-0.1180041 0.2645834,-0.2645833 V 1.0583333 c 0,-0.14657914 -0.1180042,-0.26458331 -0.2645834,-0.26458331 z m 1.3229166,0 c -0.1465792,0 -0.2645833,0.11800417 -0.2645833,0.26458331 V 1.5875 c 0,0.1465792 0.1180041,0.2645833 0.2645833,0.2645833 h 0.5291667 c 0.1465792,0 0.2645833,-0.1180041 0.2645833,-0.2645833 V 1.0583333 c 0,-0.14657914 -0.1180041,-0.26458331 -0.2645833,-0.26458331 z M 1.190625,2.1166666 c -0.1465792,0 -0.26458334,0.1180042 -0.26458334,0.2645834 V 2.9104166 C 0.92604166,3.0569958 1.0440458,3.175 1.190625,3.175 H 1.7197916 C 1.8663708,3.175 1.984375,3.0569958 1.984375,2.9104166 V 2.38125 c 0,-0.1465792 -0.1180042,-0.2645834 -0.2645834,-0.2645834 z m 1.3229166,0 c -0.1465792,0 -0.2645833,0.1180042 -0.2645833,0.2645834 v 0.5291666 c 0,0.1465792 0.1180041,0.2645834 0.2645833,0.2645834 h 0.5291667 c 0.1465792,0 0.2645833,-0.1180042 0.2645833,-0.2645834 V 2.38125 c 0,-0.1465792 -0.1180041,-0.2645834 -0.2645833,-0.2645834 z"
     sodipodi:nodetypes="ssssssssssssssssssssssssssssssssssss" />
</svg>
