<?xml version="1.0" encoding="UTF-8" standalone="no"?>
<!-- Created with Inkscape (http://www.inkscape.org/) -->

<svg
   width="16"
   height="16"
   viewBox="0 0 4.2333333 4.2333333"
   version="1.1"
   id="svg1003"
   sodipodi:docname="cs-cat-appearance.svg"
   inkscape:version="1.1.2 (0a00cf5339, 2022-02-04)"
   xmlns:inkscape="http://www.inkscape.org/namespaces/inkscape"
   xmlns:sodipodi="http://sodipodi.sourceforge.net/DTD/sodipodi-0.dtd"
   xmlns:xlink="http://www.w3.org/1999/xlink"
   xmlns="http://www.w3.org/2000/svg"
   xmlns:svg="http://www.w3.org/2000/svg">
  <sodipodi:namedview
     id="namedview1005"
     pagecolor="#ffffff"
     bordercolor="#666666"
     borderopacity="1.0"
     inkscape:pageshadow="2"
     inkscape:pageopacity="0.0"
     inkscape:pagecheckerboard="0"
     inkscape:document-units="px"
     showgrid="false"
     units="px"
     showguides="true"
     inkscape:lockguides="true"
     inkscape:zoom="20.001019"
     inkscape:cx="11.824397"
     inkscape:cy="10.099485"
     inkscape:window-width="1920"
     inkscape:window-height="1010"
     inkscape:window-x="0"
     inkscape:window-y="0"
     inkscape:window-maximized="1"
     inkscape:current-layer="svg1003" />
  <defs
     id="defs1000">
    <radialGradient
       inkscape:collect="always"
       xlink:href="#linearGradient1603"
       id="radialGradient1454"
       cx="-4.5056305"
       cy="2.1946039"
       fx="-4.5056305"
       fy="2.1946039"
       r="3.7041667"
       gradientUnits="userSpaceOnUse"
       gradientTransform="matrix(-2.128901,1.9149356,-2.5887101,-2.8779598,-2.723059,16.09837)" />
    <linearGradient
       inkscape:collect="always"
       id="linearGradient1603">
      <stop
         style="stop-color:#ff910c;stop-opacity:1;"
         offset="0"
         id="stop1599" />
      <stop
         style="stop-color:#ff910c;stop-opacity:0;"
         offset="1"
         id="stop1601" />
    </linearGradient>
    <radialGradient
       inkscape:collect="always"
       xlink:href="#linearGradient3954"
       id="radialGradient3956"
       cx="14.816666"
       cy="15.345833"
       fx="14.816666"
       fy="15.345833"
       r="7.4083333"
       gradientUnits="userSpaceOnUse"
       gradientTransform="matrix(1.0495362,-1.0427698,1.1856819,1.193376,-19.317336,12.101303)" />
    <linearGradient
       inkscape:collect="always"
       id="linearGradient3954">
      <stop
         style="stop-color:#24c2f5;stop-opacity:1;"
         offset="0"
         id="stop3950" />
      <stop
         style="stop-color:#24c2f5;stop-opacity:0;"
         offset="1"
         id="stop3952" />
    </linearGradient>
    <radialGradient
       inkscape:collect="always"
       xlink:href="#linearGradient5569"
       id="radialGradient5571"
       cx="1.5874997"
       cy="15.345834"
       fx="1.5874997"
       fy="15.345834"
       r="7.4083333"
       gradientUnits="userSpaceOnUse"
       gradientTransform="matrix(1.056299,-1.0248649,1.2470695,1.2853192,-19.77848,-3.1330395)" />
    <linearGradient
       inkscape:collect="always"
       id="linearGradient5569">
      <stop
         style="stop-color:#f5cc24;stop-opacity:1;"
         offset="0"
         id="stop5565" />
      <stop
         style="stop-color:#f5cc24;stop-opacity:0.00045133"
         offset="1"
         id="stop5567" />
    </linearGradient>
    <radialGradient
       inkscape:collect="always"
       xlink:href="#linearGradient7221"
       id="radialGradient7223"
       cx="8.4666662"
       cy="2.1573725"
       fx="8.4666662"
       fy="2.1573725"
       r="7.4083333"
       gradientUnits="userSpaceOnUse"
       gradientTransform="matrix(-1.0123736,4.3445443e-6,-3.5348901e-7,-1.1569981,16.571434,2.9960393)" />
    <linearGradient
       inkscape:collect="always"
       id="linearGradient7221">
      <stop
         style="stop-color:#ff2a2a;stop-opacity:1"
         offset="0"
         id="stop7217" />
      <stop
         style="stop-color:#ff2929;stop-opacity:0.00392157"
         offset="1"
         id="stop7219" />
    </linearGradient>
    <radialGradient
       inkscape:collect="always"
       xlink:href="#linearGradient10051"
       id="radialGradient10053"
       cx="15.345833"
       cy="1.5874997"
       fx="15.345833"
       fy="1.5874997"
       r="7.4083333"
       gradientUnits="userSpaceOnUse"
       gradientTransform="matrix(-0.84916668,-0.8147048,1.0290902,-1.072621,26.361784,15.240813)" />
    <linearGradient
       inkscape:collect="always"
       id="linearGradient10051">
      <stop
         style="stop-color:#aa3ad4;stop-opacity:1"
         offset="0"
         id="stop10047" />
      <stop
         style="stop-color:#aa3ad4;stop-opacity:0"
         offset="1"
         id="stop10049" />
    </linearGradient>
    <radialGradient
       inkscape:collect="always"
       xlink:href="#linearGradient15132"
       id="radialGradient15134"
       cx="20.066483"
       cy="4.0683722"
       fx="20.066483"
       fy="4.0683722"
       r="7.4083328"
       gradientUnits="userSpaceOnUse"
       gradientTransform="matrix(0,1.0123734,-1.0123734,0,4.6187135,-12.314775)" />
    <linearGradient
       inkscape:collect="always"
       id="linearGradient15132">
      <stop
         style="stop-color:#f5e224;stop-opacity:1;"
         offset="0"
         id="stop15128" />
      <stop
         style="stop-color:#f5e224;stop-opacity:0;"
         offset="1"
         id="stop15130" />
    </linearGradient>
    <radialGradient
       inkscape:collect="always"
       xlink:href="#linearGradient12059"
       id="radialGradient12061"
       cx="8.4666662"
       cy="15.875"
       fx="8.4666662"
       fy="15.875"
       r="7.4083333"
       gradientUnits="userSpaceOnUse"
       gradientTransform="matrix(1.0123734,0,0,1.0123734,-0.57142848,-0.57142878)" />
    <linearGradient
       inkscape:collect="always"
       id="linearGradient12059">
      <stop
         style="stop-color:#47c12a;stop-opacity:1;"
         offset="0"
         id="stop12055" />
      <stop
         style="stop-color:#47c12a;stop-opacity:0;"
         offset="1"
         id="stop12057" />
    </linearGradient>
  </defs>
  <path
     id="rect7040"
     style="opacity:0.4;stroke-width:0.264583;stroke-linejoin:round"
     d="M 1.0583333,0.26458333 C 0.21187339,0.26458333 0,0.47645663 0,1.3229166 v 1.5875 C 0,3.7568766 0.21187339,3.96875 1.0583333,3.96875 H 3.175 C 4.021402,3.9689566 4.2332756,3.7570833 4.2333333,2.9104166 v -1.5875 C 4.2332756,0.42374666 4.021402,0.26478997 3.175,0.26458333 Z M 0.94929604,0.52916666 H 1.3229166 3.175 c 0.5820833,0 0.79375,-2.9e-7 0.79375,0.79374994 v 0.1829346 1.2216309 0.1829345 c 0,0.79375 -0.2116667,0.79375 -0.79375,0.79375 H 1.3229166 1.0583333 c -0.5820832,0 -0.79374997,0 -0.79374997,-0.79375 V 2.7274821 1.5058512 1.3229166 c 0,-0.74414078 0.16294232,-0.79084294 0.68471271,-0.79374994 z"
     sodipodi:nodetypes="ssssccccsccssccsscssccsc" />
  <g
     id="g1321">
    <path
       d="M 1.0583333,0.396875 H 3.175 c 0.7935019,1.919e-4 0.9259876,0.157244 0.9260416,0.9921875 V 2.8376562 C 4.1009876,3.6238466 3.9685019,3.8366501 3.175,3.8364583 H 1.0583333 c -0.79355622,0 -0.92604169,-0.2128036 -0.92604169,-0.9988021 V 1.3890625 c 0,-0.7859985 0.13248546,-0.9921875 0.92604169,-0.9921875 z"
       style="fill:#ffffff;fill-opacity:1;stroke-width:0.0653156;stroke-linejoin:round"
       id="path17503"
       sodipodi:nodetypes="sccccssss" />
    <path
       id="rect1278"
       style="fill:url(#radialGradient1454);stroke-width:4.82143;stroke-linecap:round;stroke-linejoin:round"
       d="M 4,1.5 C 1.0007324,1.5 0.5,2.279297 0.5,5.25 v 5.474609 C 0.5,13.695312 1.0007324,14.5 4,14.5 h 8 c 2.999062,7.25e-4 3.499796,-0.803962 3.5,-3.775391 V 5.25 C 15.499796,2.094308 14.999062,1.5007253 12,1.5 Z"
       transform="scale(0.26458333)" />
    <path
       id="rect2770"
       style="fill:url(#radialGradient3956);stroke-width:0.179703;stroke-linecap:round;stroke-linejoin:round"
       d="M 4,1.5 C 1.0007325,1.5 0.5,2.2792976 0.5,5.25 v 5.474609 C 0.5,13.695312 1.0007325,14.5 4,14.5 h 8 c 2.999062,7.25e-4 3.499796,-0.803963 3.5,-3.775391 V 5.25 C 15.499796,2.0943082 14.999062,1.5007253 12,1.5 Z"
       transform="scale(0.26458333)" />
    <path
       id="rect4922"
       style="fill:url(#radialGradient5571);stroke-width:0.179703;stroke-linecap:round;stroke-linejoin:round"
       d="M 4,1.5 C 1.0007324,1.5 0.5,2.279297 0.5,5.25 v 5.474609 C 0.5,13.695312 1.0007324,14.5 4,14.5 h 8 c 2.999062,7.25e-4 3.499796,-0.803962 3.5,-3.775391 V 5.25 C 15.499796,2.094308 14.999062,1.5007253 12,1.5 Z"
       transform="scale(0.26458333)" />
    <path
       id="rect5961"
       style="fill:url(#radialGradient7223);stroke-width:0.179703;stroke-linecap:round;stroke-linejoin:round"
       d="M 4,1.5 C 1.0007326,1.5 0.5,2.2792971 0.5,5.25 v 5.474609 C 0.5,13.695312 1.0007326,14.5 4,14.5 h 8 c 2.999062,7.25e-4 3.499796,-0.803962 3.5,-3.775391 V 5.25 C 15.499796,2.094308 14.999062,1.5007253 12,1.5 Z"
       transform="scale(0.26458333)" />
    <path
       id="rect8637"
       style="fill:url(#radialGradient10053);stroke-width:0.179703;stroke-linecap:round;stroke-linejoin:round"
       d="M 4,1.5 C 1.0007325,1.5 0.5,2.279297 0.5,5.25 v 5.474609 C 0.5,13.695312 1.0007325,14.5 4,14.5 h 8 c 2.999062,7.25e-4 3.499796,-0.803962 3.5,-3.775391 V 5.25 C 15.499796,2.094308 14.999062,1.5007253 12,1.5 Z"
       transform="scale(0.26458333)" />
    <path
       id="rect14620"
       style="fill:url(#radialGradient15134);stroke-width:0.179703;stroke-linecap:round;stroke-linejoin:round"
       d="M 4,1.5 C 1.0007324,1.5 0.5,2.279297 0.5,5.25 v 5.474609 C 0.5,13.695312 1.0007324,14.5 4,14.5 h 8 c 2.999062,7.25e-4 3.499796,-0.803962 3.5,-3.775391 V 5.25 C 15.499796,2.094308 14.999062,1.5007253 12,1.5 Z"
       transform="scale(0.26458333)" />
    <path
       id="rect11481"
       style="fill:url(#radialGradient12061);stroke-width:0.179703;stroke-linecap:round;stroke-linejoin:round"
       d="M 4,1.5 C 1.0007323,1.5 0.5,2.279297 0.5,5.25 v 5.474609 C 0.5,13.695312 1.0007323,14.5 4,14.5 h 8 c 2.999062,7.25e-4 3.499796,-0.803962 3.5,-3.775391 V 5.25 C 15.499796,2.094308 14.999062,1.5007253 12,1.5 Z"
       transform="scale(0.26458333)" />
  </g>
</svg>
