<?xml version="1.0" encoding="UTF-8" standalone="no"?>
<!-- Created with Inkscape (http://www.inkscape.org/) -->

<svg
   width="16"
   height="16"
   viewBox="0 0 4.2333333 4.2333333"
   version="1.1"
   id="svg1003"
   sodipodi:docname="disk-burner.svg"
   inkscape:version="1.1.2 (0a00cf5339, 2022-02-04)"
   xmlns:inkscape="http://www.inkscape.org/namespaces/inkscape"
   xmlns:sodipodi="http://sodipodi.sourceforge.net/DTD/sodipodi-0.dtd"
   xmlns:xlink="http://www.w3.org/1999/xlink"
   xmlns="http://www.w3.org/2000/svg"
   xmlns:svg="http://www.w3.org/2000/svg">
  <sodipodi:namedview
     id="namedview1005"
     pagecolor="#ffffff"
     bordercolor="#666666"
     borderopacity="1.0"
     inkscape:pageshadow="2"
     inkscape:pageopacity="0.0"
     inkscape:pagecheckerboard="0"
     inkscape:document-units="px"
     showgrid="false"
     units="px"
     showguides="true"
     inkscape:lockguides="true"
     inkscape:zoom="28.285713"
     inkscape:cx="5.9747477"
     inkscape:cy="10.800506"
     inkscape:window-width="1851"
     inkscape:window-height="1049"
     inkscape:window-x="0"
     inkscape:window-y="0"
     inkscape:window-maximized="1"
     inkscape:current-layer="svg1003" />
  <defs
     id="defs1000">
    <linearGradient
       inkscape:collect="always"
       xlink:href="#linearGradient1871"
       id="linearGradient16320"
       x1="10"
       y1="4"
       x2="10"
       y2="29.100245"
       gradientUnits="userSpaceOnUse"
       gradientTransform="matrix(0.13229166,0,0,0.12211538,0,0.04070512)" />
    <linearGradient
       inkscape:collect="always"
       id="linearGradient1871">
      <stop
         style="stop-color:#ffffff;stop-opacity:1;"
         offset="0"
         id="stop1867" />
      <stop
         style="stop-color:#ffffff;stop-opacity:0.1"
         offset="0.12"
         id="stop2515" />
      <stop
         style="stop-color:#ffffff;stop-opacity:0.102"
         offset="0.89999998"
         id="stop2581" />
      <stop
         style="stop-color:#ffffff;stop-opacity:0.502"
         offset="1"
         id="stop1869" />
    </linearGradient>
    <linearGradient
       inkscape:collect="always"
       xlink:href="#linearGradient2221"
       id="linearGradient17936"
       x1="0.079200566"
       y1="1.1528647"
       x2="3.7925284"
       y2="3.8270159"
       gradientUnits="userSpaceOnUse" />
    <linearGradient
       inkscape:collect="always"
       id="linearGradient2221">
      <stop
         style="stop-color:#cdcdcd;stop-opacity:1"
         offset="0"
         id="stop2217" />
      <stop
         style="stop-color:#d9d9d9;stop-opacity:1"
         offset="1"
         id="stop2219" />
    </linearGradient>
  </defs>
  <path
     d="M 1.0583333,0.396875 H 3.175 c 0.7935019,1.919e-4 0.9259876,0.157244 0.9260416,0.9921875 V 2.8376562 C 4.1009876,3.6238466 3.9685019,3.8366501 3.175,3.8364583 H 1.0583333 c -0.79355622,0 -0.92604169,-0.2128036 -0.92604169,-0.9988021 V 1.3890625 c 0,-0.7859985 0.13248546,-0.9921875 0.92604169,-0.9921875 z"
     style="fill:url(#linearGradient17936);fill-opacity:1;stroke-width:0.0653156;stroke-linejoin:round"
     id="path17503"
     sodipodi:nodetypes="sccccssss" />
  <path
     id="path1693"
     style="opacity:0.2;fill:#ffffff;stroke-width:1.03529;enable-background:new"
     d="M 4 1.5 C 1.0007325 1.5 0.5 2.279297 0.5 5.25 L 0.5 7.765625 L 8 7.765625 L 8 1.5 L 4 1.5 z M 8 7.765625 L 8 14.5 L 12 14.5 C 14.999062 14.500725 15.499796 13.696038 15.5 10.724609 L 15.5 7.765625 L 8 7.765625 z "
     transform="scale(0.26458333)" />
  <path
     id="path2016"
     style="opacity:0.02;stroke-width:1.08597;enable-background:new"
     d="M 3.9082031 3 C 3.6607732 3.0013965 3.4452464 3.0080608 3.2578125 3.0234375 L 8 7.765625 L 11.410156 3 L 4 3 C 3.9691969 3 3.9380614 2.9998314 3.9082031 3 z M 8 7.765625 L 2.84375 12.919922 C 3.1250315 12.979447 3.5000058 13 4 13 L 12 13 C 12.499994 13 12.874969 12.979447 13.15625 12.919922 L 8 7.765625 z "
     transform="scale(0.26458333)" />
  <path
     id="path1117-3"
     style="fill:#faf8f6;stroke-width:1.03529;enable-background:new"
     d="M 3.7265625 1.5019531 C 1.2133421 1.5461964 0.60207719 2.2343918 0.51367188 4.5371094 L 8 8 L 3.7636719 1.5019531 C 3.7515186 1.502136 3.738628 1.5017407 3.7265625 1.5019531 z M 8 8 L 11.609375 14.5 L 12 14.5 C 14.906011 14.500702 15.46589 13.746293 15.498047 10.996094 L 8 8 z "
     transform="scale(0.26458333)" />
  <circle
     style="fill:#aea795;fill-opacity:1;stroke-width:0.205786;stroke-linejoin:round"
     id="path7417"
     cx="2.1166666"
     cy="2.1166666"
     r="0.92604166" />
  <circle
     style="fill:#faf8f6;fill-opacity:1;stroke-width:0.207516;stroke-linejoin:round"
     id="path7675"
     cx="2.1166666"
     cy="2.1166663"
     r="0.622549" />
  <circle
     style="fill:#4d4d4d;fill-opacity:1;stroke-width:0.249019;stroke-linejoin:round"
     id="path7828"
     cx="2.1166666"
     cy="2.1166663"
     r="0.24901959" />
  <path
     d="m 2.3127239,0.79374999 c 0,0 0.00181,0.0623877 -0.00827,0.0909905 -0.00476,0.0135389 -0.018762,0.0223154 -0.023945,0.0357 -0.00817,0.0211068 -0.012571,0.0445585 -0.010012,0.0670458 0.00145,0.012825 0.00959,0.0241446 0.014366,0.0361346 0.00384,0.00965 0.00751,0.020003 0.011319,0.028733 l 0.00784,0.019156 0.016978,-0.059645 c 0.0026,-0.0089 0.0049,-0.0177368 0.0074,-0.0269921 0,0 0.020325,-0.0506916 0.022203,-0.0774941 0.00162,-0.0232114 -0.00156,-0.0473823 -0.00958,-0.0692218 -0.00605,-0.0164485 -0.028297,-0.0444068 -0.028297,-0.0444068 z M 2.155994,1.079782 c -0.028286,0.019414 -0.054263,0.039784 -0.0788,0.06095 h -4.465e-4 v 4.321e-4 c 0,0 -0.067092,0.062244 -0.094909,0.098392 -0.040168,0.052189 -0.074708,0.1091243 -0.1023097,0.1689187 -0.027371,0.059299 -0.047719,0.1221251 -0.061821,0.1858991 -0.014776,0.066824 -0.023034,0.1357456 -0.023509,0.2041841 -6.928e-4,0.1002806 0.00789,0.2041518 0.03004,0.2990928 v 0.00131 h 4.466e-4 c 0.021202,0.090374 0.02491,0.1333545 0.065304,0.2054927 0.4581417,-0.080305 0.7620118,0.2737964 0.6595715,0.6560905 -0.054036,0.2016614 -0.2205207,0.2988013 -0.380071,0.3352279 -0.2248587,0.039099 -0.4145305,-0.0826 -0.4601763,-0.2529442 -0.00891,-0.056175 0.00489,-0.1315818 0.037005,-0.1506351 -0.01855,0.00646 -0.040868,0.01411 -0.067916,0.039618 -0.045552,0.042946 -0.046679,0.057773 -0.1062281,0.074447 0.029143,-0.082132 -0.1307662,-0.1486156 -0.1018739,-0.324784 6.667e-4,-0.00408 -0.00759,0.033794 -0.00697,0.029605 -0.070474,0.3892729 0.3286496,0.8273056 0.771028,0.7087669 C 2.5341004,3.3450276 2.7125143,3.1249567 2.7715937,2.8765152 2.8057101,2.7330586 2.7951813,2.5849042 2.7641932,2.4607458 2.7389501,2.3596202 2.687638,2.2530939 2.6100752,2.1551231 2.5852251,2.123734 2.5590035,2.0952088 2.532581,2.0684863 l -4.464e-4,-8.727e-4 -0.00219,-0.00218 C 2.4704746,2.0056876 2.408806,1.9562875 2.3497216,1.9095769 c 0,0 -0.1195351,-0.09749 -0.175015,-0.1510702 -0.00341,-0.0033 -0.00696,-0.00682 -0.010013,-0.010449 -0.01933,-0.023037 -0.037794,-0.047208 -0.054419,-0.07227 -0.00456,-0.00688 -0.00876,-0.013832 -0.012191,-0.021332 -0.017574,-0.038368 -0.032876,-0.078043 -0.041794,-0.1192889 -0.011634,-0.053794 -0.016323,-0.1095466 -0.014803,-0.1645664 0.00129,-0.046856 0.00782,-0.094175 0.020463,-0.1393154 0.022889,-0.053589 0.059916,-0.1031151 0.094038,-0.1515056 z m 0.132785,0.1985245 c -0.015053,0.024077 -0.026415,0.051452 -0.039618,0.077059 -0.01172,0.022731 -0.025508,0.044278 -0.035264,0.067916 -0.021343,0.051715 -0.03359,0.1068828 -0.050502,0.1602128 -0.00203,0.00641 -0.0069,0.012486 -0.00609,0.019155 0.0061,0.050455 0.048256,0.089887 0.079236,0.130173 0.011912,0.01549 0.040488,0.04223 0.040488,0.04223 0.00483,0.00535 0.00996,0.010503 0.015238,0.015673 0,0 -0.010035,-0.060779 -0.014366,-0.091426 -3.786e-4,-0.00269 -6.679e-4,-0.00556 -8.652e-4,-0.00827 -0.00754,-0.1087497 -0.012983,-0.2183211 -0.00392,-0.3269557 0.00241,-0.028898 0.015673,-0.085766 0.015673,-0.085766 z M 1.5068709,2.1442391 c 0,0 0.01808,0.120128 0.00522,0.1780626 -0.00609,0.027417 -0.030939,0.048102 -0.037876,0.075317 -0.01094,0.042918 -0.014592,0.089694 -0.00436,0.1327852 0.00584,0.024576 0.024854,0.044234 0.03657,0.06661 0.00274,0.00522 0.00515,0.010552 0.00784,0.015673 0.014499,-0.064964 0.061789,-0.1177509 0.080542,-0.18111 0.00726,-0.024499 0.01347,-0.05023 0.012191,-0.075753 -0.00228,-0.045478 -0.014107,-0.091368 -0.034823,-0.1319143 -0.015598,-0.03053 -0.065302,-0.079671 -0.065302,-0.079671 z m 0.5276574,0.2298704 c -0.2546111,0 -0.4610472,0.2064362 -0.4610472,0.461047 9.49e-5,0.023723 0.00236,0.04753 0.00609,0.070964 0.00521,0.00809 0.010463,0.016275 0.014803,0.024815 0.00387,0.0076 0.00571,0.016147 0.00827,0.024815 0.0014,-0.00103 0.00515,-0.00152 0.00653,-0.00261 0.00991,-0.00826 0.022497,-0.022995 0.046584,-0.045713 0.031277,-0.029485 0.060528,-0.043076 0.079671,-0.047019 0.042472,-0.00875 0.053709,-9.335e-4 0.090555,0.0048 -0.030018,0.012445 -0.039141,0.026166 -0.062256,0.055727 -8.045e-4,0.00103 -0.013356,0.016221 -0.01872,0.040053 -0.00526,0.023368 -0.00603,0.05239 -0.00261,0.075317 0.041692,0.1506858 0.212194,0.2623338 0.4214293,0.2259521 0.044248,-0.010213 0.087897,-0.02562 0.1297383,-0.046147 0.1261479,-0.085694 0.201802,-0.2284422 0.202007,-0.3809429 0,-0.2546109 -0.2064358,-0.4610469 -0.461047,-0.4610469 z"
     style="fill:#4d4d4d;stroke-width:0.842517"
     id="path2378" />
  <path
     id="rect13250"
     style="opacity:1;fill:url(#linearGradient16320);fill-opacity:1;stroke-width:0.127101;stroke-linejoin:round"
     d="M 0.94929604,0.52916666 C 0.4275256,0.53207345 0.26458333,0.5787759 0.26458333,1.3229166 v 0.1829346 1.2216309 0.1829345 c 0,0.79375 0.21166674,0.79375 0.79374997,0.79375 H 1.3229166 3.175 c 0.5820833,0 0.79375,0 0.79375,-0.79375 V 2.7274821 1.5058512 1.3229166 C 3.96875,0.52916642 3.7570833,0.52916666 3.175,0.52916666 H 1.3229166 Z m 0.0847494,0.26458333 c 0.0079,-4.458e-5 0.016138,0 0.024288,0 H 3.175 c 0.5216072,0 0.5291666,0.0892859 0.5291666,0.52916661 v 1.5875 c 0,0.4398807 -0.00756,0.5291667 -0.5291666,0.5291667 H 1.0583333 c -0.52160723,0 -0.52916664,-0.089286 -0.52916664,-0.5291667 v -1.5875 c 0,-0.4330075 0.007113,-0.52635721 0.50487874,-0.52916661 z"
     sodipodi:nodetypes="csccsscssccssccssssssssss" />
  <path
     id="rect7040"
     style="opacity:0.4;stroke-width:0.264583;stroke-linejoin:round"
     d="M 1.0583333,0.26458333 C 0.21187339,0.26458333 0,0.47645663 0,1.3229166 v 1.5875 C 0,3.7568766 0.21187339,3.96875 1.0583333,3.96875 H 3.175 C 4.021402,3.9689566 4.2332756,3.7570833 4.2333333,2.9104166 v -1.5875 C 4.2332756,0.42374666 4.021402,0.26478997 3.175,0.26458333 Z M 0.94929604,0.52916666 H 1.3229166 3.175 c 0.5820833,0 0.79375,-2.9e-7 0.79375,0.79374994 v 0.1829346 1.2216309 0.1829345 c 0,0.79375 -0.2116667,0.79375 -0.79375,0.79375 H 1.3229166 1.0583333 c -0.5820832,0 -0.79374997,0 -0.79374997,-0.79375 V 2.7274821 1.5058512 1.3229166 c 0,-0.74414078 0.16294232,-0.79084294 0.68471271,-0.79374994 z"
     sodipodi:nodetypes="ssssccccsccssccsscssccsc" />
</svg>
