<?xml version="1.0" encoding="UTF-8" standalone="no"?>
<!-- Created with Inkscape (http://www.inkscape.org/) -->

<svg
   width="16"
   height="16"
   viewBox="0 0 4.2333333 4.2333333"
   version="1.1"
   id="svg1003"
   sodipodi:docname="libreoffice-writer.svg"
   inkscape:version="1.1.2 (0a00cf5339, 2022-02-04)"
   xmlns:inkscape="http://www.inkscape.org/namespaces/inkscape"
   xmlns:sodipodi="http://sodipodi.sourceforge.net/DTD/sodipodi-0.dtd"
   xmlns:xlink="http://www.w3.org/1999/xlink"
   xmlns="http://www.w3.org/2000/svg"
   xmlns:svg="http://www.w3.org/2000/svg">
  <sodipodi:namedview
     id="namedview1005"
     pagecolor="#ffffff"
     bordercolor="#666666"
     borderopacity="1.0"
     inkscape:pageshadow="2"
     inkscape:pageopacity="0.0"
     inkscape:pagecheckerboard="0"
     inkscape:document-units="px"
     showgrid="false"
     units="px"
     showguides="true"
     inkscape:lockguides="true"
     inkscape:zoom="40.002039"
     inkscape:cx="10.111985"
     inkscape:cy="9.5995107"
     inkscape:window-width="1920"
     inkscape:window-height="1010"
     inkscape:window-x="0"
     inkscape:window-y="0"
     inkscape:window-maximized="1"
     inkscape:current-layer="svg1003" />
  <defs
     id="defs1000">
    <linearGradient
       inkscape:collect="always"
       id="linearGradient2463">
      <stop
         style="stop-color:#0369a3;stop-opacity:1"
         offset="0"
         id="stop2459" />
      <stop
         style="stop-color:#047ac6;stop-opacity:1"
         offset="1"
         id="stop2461" />
    </linearGradient>
    <linearGradient
       inkscape:collect="always"
       xlink:href="#linearGradient1871"
       id="linearGradient16320"
       x1="10"
       y1="4"
       x2="10"
       y2="29.100245"
       gradientUnits="userSpaceOnUse"
       gradientTransform="matrix(0.13229166,0,0,0.12211538,0,0.04070512)" />
    <linearGradient
       inkscape:collect="always"
       id="linearGradient1871">
      <stop
         style="stop-color:#ffffff;stop-opacity:1;"
         offset="0"
         id="stop1867" />
      <stop
         style="stop-color:#ffffff;stop-opacity:0.1"
         offset="0.12"
         id="stop2515" />
      <stop
         style="stop-color:#ffffff;stop-opacity:0.102"
         offset="0.89999998"
         id="stop2581" />
      <stop
         style="stop-color:#ffffff;stop-opacity:0.502"
         offset="1"
         id="stop1869" />
    </linearGradient>
    <linearGradient
       inkscape:collect="always"
       xlink:href="#linearGradient5989"
       id="linearGradient5991"
       x1="4.5568275"
       y1="0.79374999"
       x2="8.4326887"
       y2="11.597079"
       gradientUnits="userSpaceOnUse"
       gradientTransform="matrix(1.1811024,0,0,1.1811024,-0.1875001,0.65625)" />
    <linearGradient
       inkscape:collect="always"
       id="linearGradient5989">
      <stop
         style="stop-color:#f2f2f2;stop-opacity:1;"
         offset="0"
         id="stop5985" />
      <stop
         style="stop-color:#ffffff;stop-opacity:1"
         offset="1"
         id="stop5987" />
    </linearGradient>
    <linearGradient
       inkscape:collect="always"
       xlink:href="#linearGradient2463"
       id="linearGradient2465"
       x1="1.0583333"
       y1="0.26458332"
       x2="3.0253367"
       y2="3.9593961"
       gradientUnits="userSpaceOnUse" />
    <linearGradient
       inkscape:collect="always"
       xlink:href="#linearGradient2463"
       id="linearGradient3996"
       x1="11.999201"
       y1="3.0490766"
       x2="11.974609"
       y2="13.923828"
       gradientUnits="userSpaceOnUse" />
  </defs>
  <path
     d="M 1.0583333,0.396875 H 3.175 c 0.7935019,1.919e-4 0.9259876,0.157244 0.9260416,0.9921875 V 2.8376562 C 4.1009876,3.6238466 3.9685019,3.8366501 3.175,3.8364583 H 1.0583333 c -0.79355622,0 -0.92604169,-0.2128036 -0.92604169,-0.9988021 V 1.3890625 c 0,-0.7859985 0.13248546,-0.9921875 0.92604169,-0.9921875 z"
     style="fill:url(#linearGradient2465);fill-opacity:1;stroke-width:0.0653156;stroke-linejoin:round"
     id="path17503"
     sodipodi:nodetypes="sccccssss" />
  <path
     id="rect2891"
     style="fill:url(#linearGradient5991);fill-opacity:1;stroke-width:0.3033;stroke-linejoin:round"
     d="M 3.9082031,3 C 2.0268837,3.0106182 2,3.3634362 2,5 v 6 c 0,1.662541 0.028571,2 2,2 h 8 c 1.971427,0 2,-0.337459 2,-2 V 6 L 11,3 H 4 c -0.030803,0 -0.061939,-1.685e-4 -0.091797,0 z"
     transform="scale(0.26458333)"
     sodipodi:nodetypes="csssssccsc" />
  <path
     id="rect6827"
     style="opacity:0.1;fill:#ffffff;fill-opacity:1;stroke-width:0.264583;stroke-linejoin:round"
     d="m 0.26458333,2.1166667 v 0.6108155 0.1829345 c 0,0.79375 0.21166684,0.79375 0.79374987,0.79375 h 0.2645834 1.8520833 c 0.5820833,0 0.79375,0 0.79375,-0.79375 V 2.7274822 2.1166667 Z" />
  <path
     id="rect3673"
     style="opacity:1;fill:url(#linearGradient3996);fill-opacity:1;stroke-width:0.866026;stroke-linejoin:round"
     d="M 4.4746094 4.4238281 C 4.1976094 4.4238281 3.9746094 4.6468281 3.9746094 4.9238281 C 3.9746094 5.2008281 4.1976094 5.4238281 4.4746094 5.4238281 L 9.4746094 5.4238281 C 9.7516094 5.4238281 9.9746094 5.2008281 9.9746094 4.9238281 C 9.9746094 4.6468281 9.7516094 4.4238281 9.4746094 4.4238281 L 4.4746094 4.4238281 z M 4.4746094 6.4238281 C 4.1976094 6.4238281 3.9746094 6.6468281 3.9746094 6.9238281 C 3.9746094 7.2008281 4.1976094 7.4238281 4.4746094 7.4238281 L 11.474609 7.4238281 C 11.751609 7.4238281 11.974609 7.2008281 11.974609 6.9238281 C 11.974609 6.6468281 11.751609 6.4238281 11.474609 6.4238281 L 4.4746094 6.4238281 z M 4.4746094 8.4238281 C 4.1976094 8.4238281 3.9746094 8.6468281 3.9746094 8.9238281 C 3.9746094 9.2008281 4.1976094 9.4238281 4.4746094 9.4238281 L 11.474609 9.4238281 C 11.751609 9.4238281 11.974609 9.2008281 11.974609 8.9238281 C 11.974609 8.6468281 11.751609 8.4238281 11.474609 8.4238281 L 4.4746094 8.4238281 z M 4.4746094 10.423828 C 4.1976094 10.423828 3.9746094 10.646828 3.9746094 10.923828 C 3.9746094 11.200828 4.1976094 11.423828 4.4746094 11.423828 L 9.4746094 11.423828 C 9.7516094 11.423828 9.9746094 11.200828 9.9746094 10.923828 C 9.9746094 10.646828 9.7516094 10.423828 9.4746094 10.423828 L 4.4746094 10.423828 z "
     transform="scale(0.26458333)" />
  <path
     id="rect13250"
     style="opacity:0.3;fill:url(#linearGradient16320);fill-opacity:1;stroke-width:0.127101;stroke-linejoin:round"
     d="M 0.94929604,0.52916666 C 0.4275256,0.53207345 0.26458333,0.5787759 0.26458333,1.3229166 v 0.1829346 1.2216309 0.1829345 c 0,0.79375 0.21166674,0.79375 0.79374997,0.79375 H 1.3229166 3.175 c 0.5820833,0 0.79375,0 0.79375,-0.79375 V 2.7274821 1.5058512 1.3229166 C 3.96875,0.52916642 3.7570833,0.52916666 3.175,0.52916666 H 1.3229166 Z m 0.0847494,0.26458333 c 0.0079,-4.458e-5 0.016138,0 0.024288,0 H 3.175 c 0.5216072,0 0.5291666,0.0892859 0.5291666,0.52916661 v 1.5875 c 0,0.4398807 -0.00756,0.5291667 -0.5291666,0.5291667 H 1.0583333 c -0.52160723,0 -0.52916664,-0.089286 -0.52916664,-0.5291667 v -1.5875 c 0,-0.4330075 0.007113,-0.52635721 0.50487874,-0.52916661 z"
     sodipodi:nodetypes="csccsscssccssccssssssssss" />
  <path
     id="rect7040"
     style="opacity:0.4;stroke-width:0.264583;stroke-linejoin:round"
     d="M 1.0583333,0.26458333 C 0.21187339,0.26458333 0,0.47645663 0,1.3229166 v 1.5875 C 0,3.7568766 0.21187339,3.96875 1.0583333,3.96875 H 3.175 C 4.021402,3.9689566 4.2332756,3.7570833 4.2333333,2.9104166 v -1.5875 C 4.2332756,0.42374666 4.021402,0.26478997 3.175,0.26458333 Z M 0.94929604,0.52916666 H 1.3229166 3.175 c 0.5820833,0 0.79375,-2.9e-7 0.79375,0.79374994 v 0.1829346 1.2216309 0.1829345 c 0,0.79375 -0.2116667,0.79375 -0.79375,0.79375 H 1.3229166 1.0583333 c -0.5820832,0 -0.79374997,0 -0.79374997,-0.79375 V 2.7274821 1.5058512 1.3229166 c 0,-0.74414078 0.16294232,-0.79084294 0.68471271,-0.79374994 z"
     sodipodi:nodetypes="ssssccccsccssccsscssccsc" />
</svg>
