<?xml version="1.0" encoding="UTF-8" standalone="no"?>
<!-- Created with Inkscape (http://www.inkscape.org/) -->

<svg
   width="16"
   height="16"
   viewBox="0 0 4.2333333 4.2333333"
   version="1.1"
   id="svg1003"
   sodipodi:docname="preferences-system-users.svg"
   inkscape:version="1.1.2 (0a00cf5339, 2022-02-04)"
   xmlns:inkscape="http://www.inkscape.org/namespaces/inkscape"
   xmlns:sodipodi="http://sodipodi.sourceforge.net/DTD/sodipodi-0.dtd"
   xmlns:xlink="http://www.w3.org/1999/xlink"
   xmlns="http://www.w3.org/2000/svg"
   xmlns:svg="http://www.w3.org/2000/svg">
  <sodipodi:namedview
     id="namedview1005"
     pagecolor="#ffffff"
     bordercolor="#666666"
     borderopacity="1.0"
     inkscape:pageshadow="2"
     inkscape:pageopacity="0.0"
     inkscape:pagecheckerboard="0"
     inkscape:document-units="px"
     showgrid="false"
     units="px"
     showguides="true"
     inkscape:lockguides="true"
     inkscape:zoom="35.001786"
     inkscape:cx="6.3282485"
     inkscape:cy="9.71379"
     inkscape:window-width="1920"
     inkscape:window-height="998"
     inkscape:window-x="0"
     inkscape:window-y="0"
     inkscape:window-maximized="1"
     inkscape:current-layer="svg1003" />
  <defs
     id="defs1000">
    <linearGradient
       inkscape:collect="always"
       id="linearGradient17934">
      <stop
         style="stop-color:#1a7fd4;stop-opacity:1"
         offset="0"
         id="stop17930" />
      <stop
         style="stop-color:#37a6e6;stop-opacity:1"
         offset="1"
         id="stop17932" />
    </linearGradient>
    <linearGradient
       inkscape:collect="always"
       xlink:href="#linearGradient1871"
       id="linearGradient16320"
       x1="10"
       y1="4"
       x2="10"
       y2="29.100245"
       gradientUnits="userSpaceOnUse"
       gradientTransform="matrix(0.13229166,0,0,0.12211538,0,0.04070512)" />
    <linearGradient
       inkscape:collect="always"
       id="linearGradient1871">
      <stop
         style="stop-color:#ffffff;stop-opacity:1;"
         offset="0"
         id="stop1867" />
      <stop
         style="stop-color:#ffffff;stop-opacity:0.1"
         offset="0.12"
         id="stop2515" />
      <stop
         style="stop-color:#ffffff;stop-opacity:0.102"
         offset="0.89999998"
         id="stop2581" />
      <stop
         style="stop-color:#ffffff;stop-opacity:0.502"
         offset="1"
         id="stop1869" />
    </linearGradient>
    <linearGradient
       inkscape:collect="always"
       xlink:href="#linearGradient17934"
       id="linearGradient17936"
       x1="1.0583333"
       y1="0.39687499"
       x2="3.1763365"
       y2="3.8377948"
       gradientUnits="userSpaceOnUse" />
  </defs>
  <path
     d="M 1.0583333,0.396875 H 3.175 c 0.7935019,1.919e-4 0.9259876,0.157244 0.9260416,0.9921875 V 2.8376562 C 4.1009876,3.6238466 3.9685019,3.8366501 3.175,3.8364583 H 1.0583333 c -0.79355622,0 -0.92604169,-0.2128036 -0.92604169,-0.9988021 V 1.3890625 c 0,-0.7859985 0.13248546,-0.9921875 0.92604169,-0.9921875 z"
     style="fill:url(#linearGradient17936);fill-opacity:1;stroke-width:0.0653156;stroke-linejoin:round"
     id="path17503"
     sodipodi:nodetypes="sccccssss" />
  <path
     id="rect18340"
     style="opacity:0.1;fill:#ffffff;fill-opacity:1;stroke-width:0.264583;stroke-linejoin:round"
     d="M 2.1166667,0.396875 V 3.8364584 H 3.1750001 C 3.9685019,3.8366502 4.1009877,3.6237434 4.1010417,2.8375529 V 1.3890626 C 4.1009877,0.55411898 3.9685019,0.3970669 3.1750001,0.396875 Z" />
  <path
     id="path24"
     style="font-variant-ligatures:normal;font-variant-position:normal;font-variant-caps:normal;font-variant-numeric:normal;font-variant-alternates:normal;font-feature-settings:normal;text-indent:0;text-decoration-line:none;text-decoration-style:solid;text-decoration-color:#000000;text-transform:none;text-orientation:mixed;white-space:normal;shape-padding:0;isolation:auto;mix-blend-mode:normal;fill:#f6fcfe;fill-opacity:1;stroke-width:0.264583"
     d="m 2.1166669,1.0583333 v 5.159e-4 c -0.074824,0 -0.1458881,0.012677 -0.2113566,0.038757 -0.06508,0.024844 -0.123043,0.06129 -0.171049,0.1085205 v 5.159e-4 l -5.168e-4,5.184e-4 c -0.04677,0.047448 -0.082612,0.104249 -0.1080038,0.168982 -0.025876,0.064781 -0.038241,0.1359697 -0.038241,0.2118733 0,0.076944 0.012319,0.1485135 0.038241,0.2134237 0.025453,0.063749 0.061347,0.1200977 0.1080038,0.1674316 h 5.159e-4 c 0.047895,0.04712 0.105227,0.084105 0.1700155,0.1100708 l 5.159e-4,5.16e-4 h 5.16e-4 c 0.065333,0.024845 0.1366513,0.037208 0.2113591,0.037208 0.074697,0 0.1454586,-0.012326 0.2108398,-0.037207 0.064733,-0.025956 0.1217027,-0.063293 0.1684652,-0.1105876 0.048046,-0.047342 0.085045,-0.103943 0.1105875,-0.1679484 0.026009,-0.064908 0.038241,-0.1364802 0.038241,-0.2134236 h 0.00103 c 0,-0.075814 -0.012399,-0.1466396 -0.03824,-0.2113566 C 2.58214,1.3111352 2.5451543,1.2536127 2.4970054,1.2061279 2.4501344,1.1586854 2.3930554,1.121935 2.3280234,1.0970906 2.2625576,1.0709524 2.1915466,1.0583333 2.1166669,1.0583333 Z m 0.0031,1.3229166 c -0.3267075,0 -0.5016584,0.028692 -0.6320028,0.1209229 -0.065169,0.046114 -0.1085196,0.1087411 -0.1328084,0.181901 -0.024278,0.073163 -0.032039,0.2263428 -0.032039,0.2263428 h 1.5874999 c 0,0 -0.00731,-0.153167 -0.031523,-0.2263428 C 2.8547086,2.610898 2.8117482,2.5483003 2.7466025,2.5021728 2.6163217,2.4099179 2.4464749,2.3812499 2.1197669,2.3812499 Z" />
  <path
     id="rect7040"
     style="opacity:0.4;stroke-width:0.264583;stroke-linejoin:round"
     d="M 1.0583333,0.26458333 C 0.21187339,0.26458333 0,0.47645663 0,1.3229166 v 1.5875 C 0,3.7568766 0.21187339,3.96875 1.0583333,3.96875 H 3.175 C 4.021402,3.9689566 4.2332756,3.7570833 4.2333333,2.9104166 v -1.5875 C 4.2332756,0.42374666 4.021402,0.26478997 3.175,0.26458333 Z M 0.94929604,0.52916666 H 1.3229166 3.175 c 0.5820833,0 0.79375,-2.9e-7 0.79375,0.79374994 v 0.1829346 1.2216309 0.1829345 c 0,0.79375 -0.2116667,0.79375 -0.79375,0.79375 H 1.3229166 1.0583333 c -0.5820832,0 -0.79374997,0 -0.79374997,-0.79375 V 2.7274821 1.5058512 1.3229166 c 0,-0.74414078 0.16294232,-0.79084294 0.68471271,-0.79374994 z"
     sodipodi:nodetypes="ssssccccsccssccsscssccsc" />
  <path
     id="rect13250"
     style="opacity:1;fill:url(#linearGradient16320);fill-opacity:1;stroke-width:0.127101;stroke-linejoin:round"
     d="M 0.94929604,0.52916666 C 0.4275256,0.53207345 0.26458333,0.5787759 0.26458333,1.3229166 v 0.1829346 1.2216309 0.1829345 c 0,0.79375 0.21166674,0.79375 0.79374997,0.79375 H 1.3229166 3.175 c 0.5820833,0 0.79375,0 0.79375,-0.79375 V 2.7274821 1.5058512 1.3229166 C 3.96875,0.52916642 3.7570833,0.52916666 3.175,0.52916666 H 1.3229166 Z m 0.0847494,0.26458333 c 0.0079,-4.458e-5 0.016138,0 0.024288,0 H 3.175 c 0.5216072,0 0.5291666,0.0892859 0.5291666,0.52916661 v 1.5875 c 0,0.4398807 -0.00756,0.5291667 -0.5291666,0.5291667 H 1.0583333 c -0.52160723,0 -0.52916664,-0.089286 -0.52916664,-0.5291667 v -1.5875 c 0,-0.4330075 0.007113,-0.52635721 0.50487874,-0.52916661 z"
     sodipodi:nodetypes="csccsscssccssccssssssssss" />
</svg>
