<?xml version="1.0" encoding="UTF-8" standalone="no"?>
<!-- Created with Inkscape (http://www.inkscape.org/) -->

<svg
   width="16"
   height="16"
   viewBox="0 0 4.2333333 4.2333333"
   version="1.1"
   id="svg1003"
   sodipodi:docname="preferences-system-windows.svg"
   inkscape:version="1.1.2 (0a00cf5339, 2022-02-04)"
   xmlns:inkscape="http://www.inkscape.org/namespaces/inkscape"
   xmlns:sodipodi="http://sodipodi.sourceforge.net/DTD/sodipodi-0.dtd"
   xmlns:xlink="http://www.w3.org/1999/xlink"
   xmlns="http://www.w3.org/2000/svg"
   xmlns:svg="http://www.w3.org/2000/svg">
  <sodipodi:namedview
     id="namedview1005"
     pagecolor="#ffffff"
     bordercolor="#666666"
     borderopacity="1.0"
     inkscape:pageshadow="2"
     inkscape:pageopacity="0.0"
     inkscape:pagecheckerboard="0"
     inkscape:document-units="px"
     showgrid="false"
     units="px"
     showguides="true"
     inkscape:lockguides="true"
     inkscape:zoom="28.285713"
     inkscape:cx="6.8409094"
     inkscape:cy="4.2954547"
     inkscape:window-width="1851"
     inkscape:window-height="1016"
     inkscape:window-x="0"
     inkscape:window-y="0"
     inkscape:window-maximized="1"
     inkscape:current-layer="svg1003" />
  <defs
     id="defs1000">
    <linearGradient
       inkscape:collect="always"
       id="linearGradient17934">
      <stop
         style="stop-color:#5884f4;stop-opacity:1"
         offset="0"
         id="stop17930" />
      <stop
         style="stop-color:#80a3fa;stop-opacity:1"
         offset="1"
         id="stop17932" />
    </linearGradient>
    <linearGradient
       inkscape:collect="always"
       xlink:href="#linearGradient1871"
       id="linearGradient16320"
       x1="10"
       y1="4"
       x2="10"
       y2="29.100245"
       gradientUnits="userSpaceOnUse"
       gradientTransform="matrix(0.13229166,0,0,0.12211538,0,0.04070512)" />
    <linearGradient
       inkscape:collect="always"
       id="linearGradient1871">
      <stop
         style="stop-color:#ffffff;stop-opacity:1;"
         offset="0"
         id="stop1867" />
      <stop
         style="stop-color:#ffffff;stop-opacity:0.1"
         offset="0.12"
         id="stop2515" />
      <stop
         style="stop-color:#ffffff;stop-opacity:0.102"
         offset="0.89999998"
         id="stop2581" />
      <stop
         style="stop-color:#ffffff;stop-opacity:0.502"
         offset="1"
         id="stop1869" />
    </linearGradient>
    <linearGradient
       inkscape:collect="always"
       xlink:href="#linearGradient17934"
       id="linearGradient17936"
       x1="1.0583333"
       y1="0.26458332"
       x2="3.1669822"
       y2="3.9714224"
       gradientUnits="userSpaceOnUse" />
  </defs>
  <path
     d="M 1.0583333,0.396875 H 3.175 c 0.7935019,1.919e-4 0.9259876,0.157244 0.9260416,0.9921875 V 2.8376562 C 4.1009876,3.6238466 3.9685019,3.8366501 3.175,3.8364583 H 1.0583333 c -0.79355622,0 -0.92604169,-0.2128036 -0.92604169,-0.9988021 V 1.3890625 c 0,-0.7859985 0.13248546,-0.9921875 0.92604169,-0.9921875 z"
     style="fill:url(#linearGradient17936);fill-opacity:1;stroke-width:0.0653156;stroke-linejoin:round"
     id="path17503"
     sodipodi:nodetypes="sccccssss" />
  <path
     d="m 3.1787411,0.79385804 c 0.1017746,-0.001323 0.1700874,0.0214048 0.2051897,0.0632434 0.036854,0.0435663 0.055806,0.11502496 0.055806,0.21435746 v 1.0322454 c 0,0.09933 -0.018944,0.1707885 -0.055806,0.2143522 -0.035102,0.041825 -0.1034072,0.063243 -0.2051897,0.063243 H 1.8486542 c -0.1017826,0 -0.1702779,-0.021405 -0.2053776,-0.063243 C 1.6064255,2.2744928 1.5876586,2.2030341 1.5876586,2.1037043 V 1.0714589 c 0,-0.0993325 0.018759,-0.17079122 0.055618,-0.21435751 0.035097,-0.0418227 0.103595,-0.0632434 0.2053776,-0.0632434 z"
     style="fill:#c8c4b7;stroke-width:0.264583;enable-background:new"
     id="path998" />
  <path
     d="M 2.3848323,1.587608 C 2.486607,1.586288 2.5549197,1.609013 2.590022,1.650851 2.626876,1.694417 2.645828,1.7658759 2.645828,1.8652084 v 1.0322455 c 0,0.09933 -0.018944,0.1707886 -0.055806,0.2143522 -0.035102,0.041825 -0.1034071,0.063243 -0.2051897,0.063243 H 1.0547455 c -0.10178249,0 -0.17027782,-0.021405 -0.20537745,-0.063243 -0.0368512,-0.043563 -0.0556181,-0.115022 -0.0556181,-0.2143519 V 1.8652088 c 0,-0.099332 0.018759,-0.1707912 0.0556181,-0.2143574 0.035097,-0.041823 0.10359496,-0.063243 0.20537741,-0.063243 z"
     style="fill:#e3dfd5;stroke-width:0.264583;enable-background:new"
     id="path878" />
  <path
     d="m 1.0547719,1.5875551 c -0.10178248,0 -0.17005821,0.02122 -0.20515519,0.063045 -0.0349991,0.041368 -0.0524642,0.1098894 -0.0542607,0.2015384 H 2.6443436 C 2.6424915,1.7604894 2.6250819,1.6919676 2.5900829,1.6506 2.5549806,1.6087615 2.4867022,1.5862322 2.3849276,1.5875551 Z"
     style="fill:#5d5d5d;stroke-width:0.264583;enable-background:new"
     id="path1118" />
  <path
     d="m 1.8469609,0.79380512 c -0.1017826,0 -0.1700583,0.0212196 -0.2051553,0.0630449 -0.034999,0.0413676 -0.052464,0.10988939 -0.054261,0.20153848 h 1.848988 C 3.4346805,0.96673943 3.4172709,0.89821764 3.3822718,0.85685004 3.3471695,0.81501147 3.2788912,0.7924822 3.1771165,0.79380512 Z"
     style="fill:#5d5d5d;stroke-width:0.264583;enable-background:new"
     id="path1238" />
  <path
     id="rect13250"
     style="opacity:0.699;fill:url(#linearGradient16320);fill-opacity:1;stroke-width:0.127101;stroke-linejoin:round"
     d="M 0.94929604,0.52916666 C 0.4275256,0.53207345 0.26458333,0.5787759 0.26458333,1.3229166 v 0.1829346 1.2216309 0.1829345 c 0,0.79375 0.21166674,0.79375 0.79374997,0.79375 H 1.3229166 3.175 c 0.5820833,0 0.79375,0 0.79375,-0.79375 V 2.7274821 1.5058512 1.3229166 C 3.96875,0.52916642 3.7570833,0.52916666 3.175,0.52916666 H 1.3229166 Z m 0.0847494,0.26458333 c 0.0079,-4.458e-5 0.016138,0 0.024288,0 H 3.175 c 0.5216072,0 0.5291666,0.0892859 0.5291666,0.52916661 v 1.5875 c 0,0.4398807 -0.00756,0.5291667 -0.5291666,0.5291667 H 1.0583333 c -0.52160723,0 -0.52916664,-0.089286 -0.52916664,-0.5291667 v -1.5875 c 0,-0.4330075 0.007113,-0.52635721 0.50487874,-0.52916661 z"
     sodipodi:nodetypes="csccsscssccssccssssssssss" />
  <path
     id="rect7040"
     style="opacity:0.4;stroke-width:0.264583;stroke-linejoin:round"
     d="M 1.0583333,0.26458333 C 0.21187339,0.26458333 0,0.47645663 0,1.3229166 v 1.5875 C 0,3.7568766 0.21187339,3.96875 1.0583333,3.96875 H 3.175 C 4.021402,3.9689566 4.2332756,3.7570833 4.2333333,2.9104166 v -1.5875 C 4.2332756,0.42374666 4.021402,0.26478997 3.175,0.26458333 Z M 0.94929604,0.52916666 H 1.3229166 3.175 c 0.5820833,0 0.79375,-2.9e-7 0.79375,0.79374994 v 0.1829346 1.2216309 0.1829345 c 0,0.79375 -0.2116667,0.79375 -0.79375,0.79375 H 1.3229166 1.0583333 c -0.5820832,0 -0.79374997,0 -0.79374997,-0.79375 V 2.7274821 1.5058512 1.3229166 c 0,-0.74414078 0.16294232,-0.79084294 0.68471271,-0.79374994 z"
     sodipodi:nodetypes="ssssccccsccssccsscssccsc" />
</svg>
