<?xml version="1.0" encoding="UTF-8" standalone="no"?>
<!-- Created with Inkscape (http://www.inkscape.org/) -->

<svg
   width="16"
   height="16"
   viewBox="0 0 4.2333333 4.2333333"
   version="1.1"
   id="svg1003"
   sodipodi:docname="system-file-manager.svg"
   inkscape:version="1.1.2 (0a00cf5339, 2022-02-04)"
   xmlns:inkscape="http://www.inkscape.org/namespaces/inkscape"
   xmlns:sodipodi="http://sodipodi.sourceforge.net/DTD/sodipodi-0.dtd"
   xmlns:xlink="http://www.w3.org/1999/xlink"
   xmlns="http://www.w3.org/2000/svg"
   xmlns:svg="http://www.w3.org/2000/svg">
  <sodipodi:namedview
     id="namedview1005"
     pagecolor="#ffffff"
     bordercolor="#666666"
     borderopacity="1.0"
     inkscape:pageshadow="2"
     inkscape:pageopacity="0.0"
     inkscape:pagecheckerboard="0"
     inkscape:document-units="px"
     showgrid="false"
     units="px"
     showguides="true"
     inkscape:lockguides="true"
     inkscape:zoom="56.571426"
     inkscape:cx="7.9987378"
     inkscape:cy="8.0075762"
     inkscape:window-width="1920"
     inkscape:window-height="1010"
     inkscape:window-x="0"
     inkscape:window-y="0"
     inkscape:window-maximized="1"
     inkscape:current-layer="svg1003" />
  <defs
     id="defs1000">
    <linearGradient
       inkscape:collect="always"
       id="linearGradient17934">
      <stop
         style="stop-color:#948b74;stop-opacity:1"
         offset="0"
         id="stop17930" />
      <stop
         style="stop-color:#aea795;stop-opacity:1"
         offset="1"
         id="stop17932" />
    </linearGradient>
    <linearGradient
       inkscape:collect="always"
       xlink:href="#linearGradient1871"
       id="linearGradient16320"
       x1="10"
       y1="4"
       x2="10"
       y2="29.100245"
       gradientUnits="userSpaceOnUse"
       gradientTransform="matrix(0.13229166,0,0,0.12211538,0,0.04070512)" />
    <linearGradient
       inkscape:collect="always"
       id="linearGradient1871">
      <stop
         style="stop-color:#ffffff;stop-opacity:1;"
         offset="0"
         id="stop1867" />
      <stop
         style="stop-color:#ffffff;stop-opacity:0.1"
         offset="0.12"
         id="stop2515" />
      <stop
         style="stop-color:#ffffff;stop-opacity:0.102"
         offset="0.89999998"
         id="stop2581" />
      <stop
         style="stop-color:#ffffff;stop-opacity:0.502"
         offset="1"
         id="stop1869" />
    </linearGradient>
    <linearGradient
       inkscape:collect="always"
       xlink:href="#linearGradient17934"
       id="linearGradient17936"
       x1="0"
       y1="0"
       x2="4.2333331"
       y2="4.2333331"
       gradientUnits="userSpaceOnUse" />
  </defs>
  <path
     d="M 1.0583333,0.396875 H 3.175 c 0.7935019,1.919e-4 0.9259876,0.157244 0.9260416,0.9921875 V 2.8376562 C 4.1009876,3.6238466 3.9685019,3.8366501 3.175,3.8364583 H 1.0583333 c -0.79355622,0 -0.92604169,-0.2128036 -0.92604169,-0.9988021 V 1.3890625 c 0,-0.7859985 0.13248546,-0.9921875 0.92604169,-0.9921875 z"
     style="fill:url(#linearGradient17936);fill-opacity:1;stroke-width:0.0653156;stroke-linejoin:round"
     id="path17503"
     sodipodi:nodetypes="sccccssss" />
  <path
     d="m 1.5921509,1.0583333 c -0.2496555,0.00291 -0.4319762,-0.00595 -0.5813598,0.076481 -0.0746893,0.041209 -0.13372475,0.1108834 -0.16639815,0.1979207 -0.0326734,0.087035 -0.0439337,0.1904234 -0.0444417,0.3209106 l -0.00155,0.4501017 c -0.001141,0.025292 -0.002067,0.051449 -0.002067,0.079065 v 0.6614583 c 0,0.1304871 0.0117711,0.2338786 0.0444417,0.3209106 0.0326707,0.087032 0.0917062,0.1567119 0.16639815,0.1979208 0.1068388,0.058941 0.2312762,0.071133 0.3844726,0.074414 l 1.2578044,0.00206 c 0.2496608,-0.00289 0.4325008,0.00594 0.5818766,-0.076481 0.074689,-0.041206 0.1337274,-0.1108887 0.1663981,-0.1979207 0.032671,-0.087037 0.044971,-0.1904236 0.044442,-0.3209107 l -0.0031,-0.7276041 h 0.0031 V 1.9182257 c 0,-0.1304846 -0.011774,-0.233876 -0.044442,-0.3209106 C 3.3650574,1.5102838 3.3060194,1.440604 3.2313273,1.3993978 3.1558623,1.3577484 3.0718961,1.3395189 2.9750122,1.3311849 c -0.010768,-9.552e-4 -0.021982,-0.00186 -0.033073,-0.00259 -0.00118,-7.38e-5 -0.00243,7.13e-5 -0.00362,0 -0.011158,-6.985e-4 -0.022609,-0.00156 -0.034106,-0.00207 -0.00117,-4.94e-5 -0.00244,4.75e-5 -0.00362,0 -0.011734,-4.948e-4 -0.023559,-6.985e-4 -0.035657,-0.00104 -0.00103,-2.74e-5 -0.00207,2.64e-5 -0.0031,0 -0.012002,-3.202e-4 -0.024318,-8.255e-4 -0.03669,-0.00103 -0.00116,-1.85e-5 -0.00245,1.77e-5 -0.00362,0 -0.026101,-4.154e-4 -0.053302,-8.414e-4 -0.081132,-0.00104 -0.00116,-7.8e-6 -0.00245,7.7e-6 -0.00362,0 -0.028154,-1.872e-4 -0.057299,-1.762e-4 -0.087333,-5.133e-4 H 2.6453166 2.3822835 2.120284 2.1177002 L 1.8531169,1.0583333 H 1.5931845 Z"
     style="opacity:0.2;fill:#000000;fill-opacity:1;stroke-width:0.264583;stroke-linejoin:round"
     id="path1186" />
  <path
     id="rect13250"
     style="opacity:0.699;fill:url(#linearGradient16320);fill-opacity:1;stroke-width:0.127101;stroke-linejoin:round"
     d="M 0.94929604,0.52916666 C 0.4275256,0.53207345 0.26458333,0.5787759 0.26458333,1.3229166 v 0.1829346 1.2216309 0.1829345 c 0,0.79375 0.21166674,0.79375 0.79374997,0.79375 H 1.3229166 3.175 c 0.5820833,0 0.79375,0 0.79375,-0.79375 V 2.7274821 1.5058512 1.3229166 C 3.96875,0.52916642 3.7570833,0.52916666 3.175,0.52916666 H 1.3229166 Z m 0.0847494,0.26458333 c 0.0079,-4.458e-5 0.016138,0 0.024288,0 H 3.175 c 0.5216072,0 0.5291666,0.0892859 0.5291666,0.52916661 v 1.5875 c 0,0.4398807 -0.00756,0.5291667 -0.5291666,0.5291667 H 1.0583333 c -0.52160723,0 -0.52916664,-0.089286 -0.52916664,-0.5291667 v -1.5875 c 0,-0.4330075 0.007113,-0.52635721 0.50487874,-0.52916661 z"
     sodipodi:nodetypes="csccsscssccssccssssssssss" />
  <path
     id="rect7040"
     style="opacity:0.4;stroke-width:0.264583;stroke-linejoin:round"
     d="M 1.0583333,0.26458333 C 0.21187339,0.26458333 0,0.47645663 0,1.3229166 v 1.5875 C 0,3.7568766 0.21187339,3.96875 1.0583333,3.96875 H 3.175 C 4.021402,3.9689566 4.2332756,3.7570833 4.2333333,2.9104166 v -1.5875 C 4.2332756,0.42374666 4.021402,0.26478997 3.175,0.26458333 Z M 0.94929604,0.52916666 H 1.3229166 3.175 c 0.5820833,0 0.79375,-2.9e-7 0.79375,0.79374994 v 0.1829346 1.2216309 0.1829345 c 0,0.79375 -0.2116667,0.79375 -0.79375,0.79375 H 1.3229166 1.0583333 c -0.5820832,0 -0.79374997,0 -0.79374997,-0.79375 V 2.7274821 1.5058512 1.3229166 c 0,-0.74414078 0.16294232,-0.79084294 0.68471271,-0.79374994 z"
     sodipodi:nodetypes="ssssccccsccssccsscssccsc" />
  <path
     id="rect978"
     style="fill:#e3dfd5;fill-opacity:1;stroke-width:0.264583;stroke-linejoin:round"
     d="M 1.589567,0.92604166 C 1.3399115,0.92895166 1.1575909,0.92008966 1.0082072,1.0025228 0.933518,1.0437317 0.87448244,1.1134062 0.84180905,1.2004435 0.80913565,1.2874782 0.79787525,1.390867 0.79736725,1.5213542 l -0.00155,0.4630208 H 3.4395833 V 1.7859375 c 0,-0.1304846 -0.011774,-0.2338759 -0.044442,-0.3209106 C 3.3624733,1.3779922 3.3034353,1.3083123 3.2287433,1.2671061 3.0794047,1.1846858 2.8965276,1.1935142 2.6468668,1.190625 H 2.3796997 2.1151163 L 1.850533,0.92604166 H 1.5906005 Z" />
  <path
     id="rect873"
     style="fill:#faf8f6;fill-opacity:1;stroke-width:0.264583;stroke-linejoin:round"
     d="M 2.1177002,1.190625 1.8531168,1.4552084 H 1.5864664 c -0.2496608,0.00289 -0.4325008,-0.00594 -0.5818766,0.076481 -0.0746919,0.041206 -0.13372736,0.110886 -0.16639811,0.1979207 -0.0326734,0.087019 -0.0444417,0.1904261 -0.0444417,0.3209106 v 0.6614584 c 0,0.1304872 0.0117711,0.2338787 0.0444417,0.3209107 0.0326707,0.087032 0.0917062,0.1567119 0.16639811,0.1979208 0.1068388,0.058941 0.2312763,0.071133 0.3844727,0.074414 l 1.2578043,0.00207 c 0.2496608,-0.00289 0.4325009,0.00594 0.5818767,-0.076481 0.074689,-0.041206 0.1337273,-0.1108888 0.166398,-0.1979208 0.032671,-0.087037 0.044971,-0.1904235 0.044442,-0.3209107 L 3.4359635,1.7859375 C 3.435458,1.6554424 3.4241976,1.5520616 3.3915242,1.4650269 3.3588508,1.3779896 3.2998153,1.308315 3.2251261,1.2671061 3.0758524,1.1847333 2.8931389,1.1935162 2.6437662,1.190625 h -5.159e-4 -5.16e-4 z" />
</svg>
