<?xml version="1.0" encoding="UTF-8" standalone="no"?>
<!-- Created with Inkscape (http://www.inkscape.org/) -->

<svg
   width="16"
   height="16"
   viewBox="0 0 4.2333333 4.2333333"
   version="1.1"
   id="svg1003"
   sodipodi:docname="usb-creator.svg"
   inkscape:version="1.1.2 (0a00cf5339, 2022-02-04)"
   xmlns:inkscape="http://www.inkscape.org/namespaces/inkscape"
   xmlns:sodipodi="http://sodipodi.sourceforge.net/DTD/sodipodi-0.dtd"
   xmlns:xlink="http://www.w3.org/1999/xlink"
   xmlns="http://www.w3.org/2000/svg"
   xmlns:svg="http://www.w3.org/2000/svg">
  <sodipodi:namedview
     id="namedview1005"
     pagecolor="#ffffff"
     bordercolor="#666666"
     borderopacity="1.0"
     inkscape:pageshadow="2"
     inkscape:pageopacity="0.0"
     inkscape:pagecheckerboard="0"
     inkscape:document-units="px"
     showgrid="false"
     units="px"
     showguides="true"
     inkscape:lockguides="true"
     inkscape:zoom="35.001786"
     inkscape:cx="10.185195"
     inkscape:cy="8.4138564"
     inkscape:window-width="1851"
     inkscape:window-height="1053"
     inkscape:window-x="0"
     inkscape:window-y="0"
     inkscape:window-maximized="1"
     inkscape:current-layer="svg1003" />
  <defs
     id="defs1000">
    <linearGradient
       inkscape:collect="always"
       id="linearGradient17934">
      <stop
         style="stop-color:#dedede;stop-opacity:1"
         offset="0"
         id="stop17930" />
      <stop
         style="stop-color:#999999;stop-opacity:1"
         offset="1"
         id="stop17932" />
    </linearGradient>
    <linearGradient
       inkscape:collect="always"
       xlink:href="#linearGradient1871"
       id="linearGradient16320"
       x1="10"
       y1="4"
       x2="10"
       y2="29.100245"
       gradientUnits="userSpaceOnUse"
       gradientTransform="matrix(0.13229166,0,0,0.12211538,0,0.04070512)" />
    <linearGradient
       inkscape:collect="always"
       id="linearGradient1871">
      <stop
         style="stop-color:#ffffff;stop-opacity:1;"
         offset="0"
         id="stop1867" />
      <stop
         style="stop-color:#ffffff;stop-opacity:0.1"
         offset="0.12"
         id="stop2515" />
      <stop
         style="stop-color:#ffffff;stop-opacity:0.102"
         offset="0.89999998"
         id="stop2581" />
      <stop
         style="stop-color:#ffffff;stop-opacity:0.502"
         offset="1"
         id="stop1869" />
    </linearGradient>
    <linearGradient
       inkscape:collect="always"
       xlink:href="#linearGradient17934"
       id="linearGradient17936"
       x1="1.0583333"
       y1="4.4979167"
       x2="1.0583333"
       y2="-0.26458332"
       gradientUnits="userSpaceOnUse" />
  </defs>
  <path
     d="M 1.0583333,0.396875 H 3.175 c 0.7935019,1.919e-4 0.9259876,0.157244 0.9260416,0.9921875 V 2.8376562 C 4.1009876,3.6238466 3.9685019,3.8366501 3.175,3.8364583 H 1.0583333 c -0.79355622,0 -0.92604169,-0.2128036 -0.92604169,-0.9988021 V 1.3890625 c 0,-0.7859985 0.13248546,-0.9921875 0.92604169,-0.9921875 z"
     style="fill:url(#linearGradient17936);fill-opacity:1;stroke-width:0.0653156;stroke-linejoin:round"
     id="path17503"
     sodipodi:nodetypes="sccccssss" />
  <path
     d="M 1.7765051,1.4741155 H 2.0032557 V 2.4915442 C 1.9452855,2.4545951 1.8854394,2.4221916 1.8274321,2.3932118 1.742403,2.3507224 1.6638244,2.3096167 1.6152548,2.2691698 1.5666905,2.228641 1.5497043,2.2016905 1.5497043,2.154473 c 0.1252537,0 0.2268008,-0.1015551 0.2268008,-0.2268088 0,-0.1252537 -0.1015497,-0.2267744 -0.2268008,-0.2267744 -0.1252564,0 -0.2267876,0.1015207 -0.2267876,0.2267744 V 2.154473 c 0,0.1228301 0.068035,0.2234036 0.1470739,0.2892425 0.079007,0.065828 0.1709738,0.1098417 0.2560082,0.152355 0.085021,0.042489 0.1631685,0.083587 0.2117064,0.1240393 0.048562,0.040434 0.06555,0.067477 0.06555,0.1146969 -0.062801,0 -0.1133714,0.050591 -0.1133714,0.1134163 v 0.2267532 c 0,0.062846 0.05057,0.113411 0.1133714,0.113411 h 0.2268272 c 0.062796,0 0.1133714,-0.050565 0.1133714,-0.113411 V 2.948223 c 0,-0.062825 -0.050575,-0.1134163 -0.1133714,-0.1134163 V 2.6080535 c 0,-0.047292 0.016801,-0.074285 0.065556,-0.1147657 C 2.3441766,2.4528542 2.4227446,2.4118252 2.5077685,2.3693014 2.592832,2.326812 2.6843461,2.2827827 2.763348,2.2169041 2.8423844,2.1510493 2.9104167,2.0505288 2.9104167,1.9276616 V 1.5874868 c 0,-0.062801 -0.05057,-0.1133661 -0.113411,-0.1133661 H 2.5702551 c -0.062833,0 -0.1134189,0.050564 -0.1134189,0.1133661 v 0.2268273 c 0,0.062796 0.050586,0.113358 0.1134189,0.113358 h 0.1133793 c 0,0.047273 -0.016775,0.07429 -0.065556,0.1147525 -0.048567,0.040436 -0.1266825,0.081463 -0.2117461,0.1240075 -0.058052,0.029289 -0.1180782,0.061431 -0.1762495,0.098322 V 1.474126 H 2.4568362 L 2.1166614,0.79374999 Z"
     style="fill:#808080;stroke-width:0.264583;enable-background:new"
     id="path1112" />
  <path
     id="rect7040"
     style="opacity:0.4;stroke-width:0.264583;stroke-linejoin:round"
     d="M 1.0583333,0.26458333 C 0.21187339,0.26458333 0,0.47645663 0,1.3229166 v 1.5875 C 0,3.7568766 0.21187339,3.96875 1.0583333,3.96875 H 3.175 C 4.021402,3.9689566 4.2332756,3.7570833 4.2333333,2.9104166 v -1.5875 C 4.2332756,0.42374666 4.021402,0.26478997 3.175,0.26458333 Z M 0.94929604,0.52916666 H 1.3229166 3.175 c 0.5820833,0 0.79375,-2.9e-7 0.79375,0.79374994 v 0.1829346 1.2216309 0.1829345 c 0,0.79375 -0.2116667,0.79375 -0.79375,0.79375 H 1.3229166 1.0583333 c -0.5820832,0 -0.79374997,0 -0.79374997,-0.79375 V 2.7274821 1.5058512 1.3229166 c 0,-0.74414078 0.16294232,-0.79084294 0.68471271,-0.79374994 z"
     sodipodi:nodetypes="ssssccccsccssccsscssccsc" />
  <path
     id="rect13250"
     style="opacity:0.4;fill:url(#linearGradient16320);fill-opacity:1;stroke-width:0.127101;stroke-linejoin:round"
     d="M 0.94929604,0.52916666 C 0.4275256,0.53207345 0.26458333,0.5787759 0.26458333,1.3229166 v 0.1829346 1.2216309 0.1829345 c 0,0.79375 0.21166674,0.79375 0.79374997,0.79375 H 1.3229166 3.175 c 0.5820833,0 0.79375,0 0.79375,-0.79375 V 2.7274821 1.5058512 1.3229166 C 3.96875,0.52916642 3.7570833,0.52916666 3.175,0.52916666 H 1.3229166 Z m 0.0847494,0.26458333 c 0.0079,-4.458e-5 0.016138,0 0.024288,0 H 3.175 c 0.5216072,0 0.5291666,0.0892859 0.5291666,0.52916661 v 1.5875 c 0,0.4398807 -0.00756,0.5291667 -0.5291666,0.5291667 H 1.0583333 c -0.52160723,0 -0.52916664,-0.089286 -0.52916664,-0.5291667 v -1.5875 c 0,-0.4330075 0.007113,-0.52635721 0.50487874,-0.52916661 z"
     sodipodi:nodetypes="csccsscssccssccssssssssss" />
</svg>
