<?xml version="1.0" encoding="UTF-8" standalone="no"?>
<!-- Created with Inkscape (http://www.inkscape.org/) -->

<svg
   width="48"
   height="48"
   viewBox="0 0 12.7 12.7"
   version="1.1"
   id="svg5"
   inkscape:version="1.1.2 (0a00cf5339, 2022-02-04)"
   sodipodi:docname="user-desktop.svg"
   xmlns:inkscape="http://www.inkscape.org/namespaces/inkscape"
   xmlns:sodipodi="http://sodipodi.sourceforge.net/DTD/sodipodi-0.dtd"
   xmlns:xlink="http://www.w3.org/1999/xlink"
   xmlns="http://www.w3.org/2000/svg"
   xmlns:svg="http://www.w3.org/2000/svg">
  <sodipodi:namedview
     id="namedview7"
     pagecolor="#ffffff"
     bordercolor="#666666"
     borderopacity="1.0"
     inkscape:pageshadow="2"
     inkscape:pageopacity="0.0"
     inkscape:pagecheckerboard="0"
     inkscape:document-units="px"
     showgrid="false"
     units="px"
     inkscape:zoom="6.8296165"
     inkscape:cx="21.597113"
     inkscape:cy="44.512016"
     inkscape:window-width="1851"
     inkscape:window-height="1049"
     inkscape:window-x="0"
     inkscape:window-y="0"
     inkscape:window-maximized="1"
     inkscape:current-layer="svg5"
     showguides="false"
     inkscape:lockguides="true" />
  <defs
     id="defs2">
    <linearGradient
       inkscape:collect="always"
       xlink:href="#linearGradient2350"
       id="linearGradient3600"
       x1="0.091291681"
       y1="3.9145257"
       x2="13.060876"
       y2="9.56252"
       gradientUnits="userSpaceOnUse"
       gradientTransform="translate(-0.13228176,0.39688216)" />
    <linearGradient
       inkscape:collect="always"
       id="linearGradient1871">
      <stop
         style="stop-color:#ffffff;stop-opacity:1;"
         offset="0"
         id="stop1867" />
      <stop
         style="stop-color:#ffffff;stop-opacity:0.1"
         offset="0.12"
         id="stop2515" />
      <stop
         style="stop-color:#ffffff;stop-opacity:0.102"
         offset="0.89999998"
         id="stop2581" />
      <stop
         style="stop-color:#ffffff;stop-opacity:0.502"
         offset="1"
         id="stop1869" />
    </linearGradient>
    <linearGradient
       inkscape:collect="always"
       xlink:href="#linearGradient1871"
       id="linearGradient3542"
       x1="3.8364582"
       y1="1.3229167"
       x2="3.8527246"
       y2="11.969996"
       gradientUnits="userSpaceOnUse"
       gradientTransform="translate(0,-0.26458332)" />
    <linearGradient
       inkscape:collect="always"
       id="linearGradient2350">
      <stop
         style="stop-color:#0829dc;stop-opacity:1;"
         offset="0"
         id="stop2346" />
      <stop
         style="stop-color:#3ecffd;stop-opacity:1"
         offset="1"
         id="stop2348" />
    </linearGradient>
  </defs>
  <path
     d="m 3.3072916,1.3229167 c -3.04237179,0 -3.04270832,0.5324204 -3.04270832,3.571875 v 3.4395834 c 0,3.0394559 3.3633e-4,3.5718759 3.04270832,3.5718759 h 6.0854167 c 3.0423717,0 3.0427077,-0.53242 3.0427077,-3.5718759 V 4.8947917 c 0,-3.0394547 -3.36e-4,-3.571875 -3.0427077,-3.571875 z"
     style="display:inline;opacity:0.1;fill:#000000;fill-opacity:1;stroke:none;stroke-width:0.0992187;stroke-linecap:round;stroke-linejoin:round;stroke-miterlimit:4;stroke-dasharray:none;stroke-dashoffset:0;stroke-opacity:1;enable-background:new"
     id="path3132"
     sodipodi:nodetypes="sssssssss" />
  <path
     id="rect877"
     style="display:inline;fill:url(#linearGradient3600);fill-opacity:1;stroke:none;stroke-width:0.0992187;stroke-linecap:round;stroke-linejoin:round;stroke-miterlimit:4;stroke-dasharray:none;stroke-dashoffset:0;stroke-opacity:1;enable-background:new"
     d="m 3.3072916,1.0583334 c -3.0423717,0 -3.04270827,0.5324204 -3.04270827,3.5718749 v 3.4395833 c 0,3.0394554 3.3635e-4,3.5718754 3.04270827,3.5718754 h 6.0854167 c 3.0423727,0 3.0427087,-0.532421 3.0427087,-3.5718754 V 4.6302083 c 0,-3.0394546 -3.36e-4,-3.5718749 -3.0427087,-3.5718749 z"
     sodipodi:nodetypes="sssssssss" />
  <path
     id="rect6223"
     style="opacity:0.3;fill:#000000;fill-opacity:1;stroke-width:0.264583;stroke-linecap:round;stroke-linejoin:round"
     d="M 2.9104166,1.0815877 C 0.68415066,1.2090544 0.26458333,1.4009027 0.26458333,4.1010416 v 4.4979167 c 0,2.7001397 0.4195668,2.8919877 2.64583327,3.0194537 z"
     sodipodi:nodetypes="csscc" />
  <path
     id="path3421"
     style="display:inline;opacity:0.5;fill:url(#linearGradient3542);fill-opacity:1;stroke:none;stroke-width:0.0262516;stroke-linecap:round;stroke-linejoin:round;stroke-miterlimit:4;stroke-dasharray:none;stroke-dashoffset:0;stroke-opacity:1;enable-background:new"
     d="m 3.3072916,1.0583333 c -3.04237164,0 -3.04270827,0.5324204 -3.04270827,3.571875 v 3.4395833 c 0,3.0394554 3.3634e-4,3.5718754 3.04270827,3.5718754 h 6.0854166 c 3.0423718,0 3.0427088,-0.532421 3.0427088,-3.5718754 V 4.6302083 c 0,-3.0394547 -3.37e-4,-3.571875 -3.0427088,-3.571875 z m 0,0.2645834 h 6.0854166 c 2.7781248,0 2.7781248,0.529167 2.7781248,3.3072916 v 3.4395833 c 0,2.7781254 0,3.3072924 -2.7781248,3.3072924 H 3.3072916 c -2.77812489,0 -2.77812494,-0.529167 -2.77812494,-3.3072924 V 4.6302083 c 0,-2.7781251 3e-8,-3.3072916 2.77812494,-3.3072916 z"
     sodipodi:nodetypes="ssssssssssssssssss" />
</svg>
