<?xml version="1.0" encoding="UTF-8" standalone="no"?>
<!-- Created with Inkscape (http://www.inkscape.org/) -->

<svg
   width="48"
   height="48"
   viewBox="0 0 12.7 12.7"
   version="1.1"
   id="svg5"
   inkscape:version="1.1.2 (0a00cf5339, 2022-02-04)"
   sodipodi:docname="user-desktop.svg"
   xmlns:inkscape="http://www.inkscape.org/namespaces/inkscape"
   xmlns:sodipodi="http://sodipodi.sourceforge.net/DTD/sodipodi-0.dtd"
   xmlns:xlink="http://www.w3.org/1999/xlink"
   xmlns="http://www.w3.org/2000/svg"
   xmlns:svg="http://www.w3.org/2000/svg">
  <sodipodi:namedview
     id="namedview7"
     pagecolor="#ffffff"
     bordercolor="#666666"
     borderopacity="1.0"
     inkscape:pageshadow="2"
     inkscape:pageopacity="0.0"
     inkscape:pagecheckerboard="0"
     inkscape:document-units="px"
     showgrid="false"
     units="px"
     inkscape:zoom="6.8296165"
     inkscape:cx="21.450692"
     inkscape:cy="44.731648"
     inkscape:window-width="1851"
     inkscape:window-height="1053"
     inkscape:window-x="0"
     inkscape:window-y="0"
     inkscape:window-maximized="1"
     inkscape:current-layer="svg5"
     showguides="false"
     inkscape:lockguides="true" />
  <defs
     id="defs2">
    <linearGradient
       inkscape:collect="always"
       xlink:href="#linearGradient2350"
       id="linearGradient3600"
       x1="0.091291681"
       y1="3.9145257"
       x2="13.060876"
       y2="9.56252"
       gradientUnits="userSpaceOnUse"
       gradientTransform="translate(-0.13228176,0.66146548)" />
    <linearGradient
       inkscape:collect="always"
       id="linearGradient1871">
      <stop
         style="stop-color:#ffffff;stop-opacity:1;"
         offset="0"
         id="stop1867" />
      <stop
         style="stop-color:#ffffff;stop-opacity:0.1"
         offset="0.12"
         id="stop2515" />
      <stop
         style="stop-color:#ffffff;stop-opacity:0.102"
         offset="0.89999998"
         id="stop2581" />
      <stop
         style="stop-color:#ffffff;stop-opacity:0.502"
         offset="1"
         id="stop1869" />
    </linearGradient>
    <linearGradient
       inkscape:collect="always"
       xlink:href="#linearGradient1871"
       id="linearGradient3542"
       x1="3.8364582"
       y1="1.3229167"
       x2="3.8527246"
       y2="11.44083"
       gradientUnits="userSpaceOnUse"
       gradientTransform="scale(3.7795276)" />
    <linearGradient
       inkscape:collect="always"
       id="linearGradient2350">
      <stop
         style="stop-color:#0829dc;stop-opacity:1;"
         offset="0"
         id="stop2346" />
      <stop
         style="stop-color:#3ecffd;stop-opacity:1"
         offset="1"
         id="stop2348" />
    </linearGradient>
  </defs>
  <path
     d="m 3.3072916,1.5875 c -3.04237179,0 -3.04270832,0.5324204 -3.04270832,3.571875 v 2.9104167 c 0,3.0394553 3.3633e-4,3.5718753 3.04270832,3.5718753 h 6.0854167 c 3.0423717,0 3.0427077,-0.53242 3.0427077,-3.5718753 V 5.159375 c 0,-3.0394547 -3.36e-4,-3.571875 -3.0427077,-3.571875 z"
     style="display:inline;opacity:0.1;fill:#000000;fill-opacity:1;stroke:none;stroke-width:0.0992187;stroke-linecap:round;stroke-linejoin:round;stroke-miterlimit:4;stroke-dasharray:none;stroke-dashoffset:0;stroke-opacity:1;enable-background:new"
     id="path3132"
     sodipodi:nodetypes="sssssssss" />
  <path
     id="rect877"
     style="display:inline;fill:url(#linearGradient3600);fill-opacity:1;stroke:none;stroke-width:0.0992187;stroke-linecap:round;stroke-linejoin:round;stroke-miterlimit:4;stroke-dasharray:none;stroke-dashoffset:0;stroke-opacity:1;enable-background:new"
     d="m 3.3072916,1.3229167 c -3.0423717,0 -3.04270827,0.5324204 -3.04270827,3.5718749 v 2.9104166 c 0,3.0394548 3.3635e-4,3.5718748 3.04270827,3.5718748 h 6.0854167 c 3.0423727,0 3.0427087,-0.532421 3.0427087,-3.5718748 V 4.8947916 c 0,-3.0394546 -3.36e-4,-3.5718749 -3.0427087,-3.5718749 z"
     sodipodi:nodetypes="sssssssss" />
  <path
     id="rect6223"
     style="opacity:0.3;fill:#000000;fill-opacity:1;stroke-width:0.999999;stroke-linecap:round;stroke-linejoin:round"
     d="M 11,5.0878906 C 2.5857663,5.5696543 1,6.2947503 1,16.5 v 15 c 0,10.205251 1.5857643,10.930346 10,11.412109 z"
     transform="scale(0.26458333)"
     sodipodi:nodetypes="csscc" />
  <path
     id="path3421"
     style="display:inline;opacity:0.5;fill:url(#linearGradient3542);fill-opacity:1;stroke:none;stroke-width:0.0992186;stroke-linecap:round;stroke-linejoin:round;stroke-miterlimit:4;stroke-dasharray:none;stroke-dashoffset:0;stroke-opacity:1;enable-background:new"
     d="M 12.5,5 C 1.0012723,5 1,7.0122976 1,18.5 v 11 C 1,40.987704 1.0012712,43 12.5,43 h 23 C 46.99873,43 47,40.9877 47,29.5 v -11 C 47,7.0122972 46.99873,5 35.5,5 Z m 0,1 h 23 C 46.000001,6 46,8.0000013 46,18.5 v 11 c 0,10.499999 10e-7,12.5 -10.5,12.5 h -23 C 2.0000002,42 2,39.999999 2,29.5 v -11 C 2,7.9999997 2.0000001,6 12.5,6 Z"
     transform="scale(0.26458333)"
     sodipodi:nodetypes="ssssssssssssssssss" />
</svg>
