<?xml version="1.0" encoding="UTF-8" standalone="no"?>
<!-- Created with Inkscape (http://www.inkscape.org/) -->

<svg
   width="48"
   height="48"
   viewBox="0 0 12.7 12.7"
   version="1.1"
   id="svg5"
   inkscape:version="1.1.2 (0a00cf5339, 2022-02-04)"
   sodipodi:docname="accessories-text-editor.svg"
   xmlns:inkscape="http://www.inkscape.org/namespaces/inkscape"
   xmlns:sodipodi="http://sodipodi.sourceforge.net/DTD/sodipodi-0.dtd"
   xmlns:xlink="http://www.w3.org/1999/xlink"
   xmlns="http://www.w3.org/2000/svg"
   xmlns:svg="http://www.w3.org/2000/svg">
  <sodipodi:namedview
     id="namedview7"
     pagecolor="#ffffff"
     bordercolor="#666666"
     borderopacity="1.0"
     inkscape:pageshadow="2"
     inkscape:pageopacity="0.0"
     inkscape:pagecheckerboard="0"
     inkscape:document-units="px"
     showgrid="false"
     units="px"
     inkscape:zoom="17.999997"
     inkscape:cx="23.972226"
     inkscape:cy="24.000003"
     inkscape:window-width="1920"
     inkscape:window-height="1010"
     inkscape:window-x="0"
     inkscape:window-y="0"
     inkscape:window-maximized="1"
     inkscape:current-layer="svg5" />
  <defs
     id="defs2">
    <linearGradient
       inkscape:collect="always"
       id="linearGradient1176">
      <stop
         style="stop-color:#5884f4;stop-opacity:1;"
         offset="0"
         id="stop1172" />
      <stop
         style="stop-color:#2f5fdd;stop-opacity:1"
         offset="0.30000001"
         id="stop1952" />
      <stop
         style="stop-color:#5884f4;stop-opacity:1"
         offset="0.30000001"
         id="stop2594" />
      <stop
         style="stop-color:#2f5fdd;stop-opacity:1"
         offset="0.69999999"
         id="stop1628" />
      <stop
         style="stop-color:#234db8;stop-opacity:1"
         offset="0.69999999"
         id="stop1822" />
      <stop
         style="stop-color:#234db8;stop-opacity:1"
         offset="1"
         id="stop1174" />
    </linearGradient>
    <linearGradient
       inkscape:collect="always"
       id="linearGradient3598">
      <stop
         style="stop-color:#f5f5f5;stop-opacity:1"
         offset="0"
         id="stop3594" />
      <stop
         style="stop-color:#e8e8e8;stop-opacity:1"
         offset="1"
         id="stop3596" />
    </linearGradient>
    <linearGradient
       inkscape:collect="always"
       id="linearGradient1871">
      <stop
         style="stop-color:#ffffff;stop-opacity:1;"
         offset="0"
         id="stop1867" />
      <stop
         style="stop-color:#ffffff;stop-opacity:0.1"
         offset="0.12"
         id="stop2515" />
      <stop
         style="stop-color:#ffffff;stop-opacity:0.102"
         offset="0.89999998"
         id="stop2581" />
      <stop
         style="stop-color:#ffffff;stop-opacity:0.502"
         offset="1"
         id="stop1869" />
    </linearGradient>
    <linearGradient
       inkscape:collect="always"
       xlink:href="#linearGradient1871"
       id="linearGradient1873"
       x1="17.222656"
       y1="3.5"
       x2="17.222656"
       y2="44.466438"
       gradientUnits="userSpaceOnUse"
       gradientTransform="matrix(0.26458333,0,0,0.26458333,0,-0.13229166)" />
    <linearGradient
       inkscape:collect="always"
       xlink:href="#linearGradient3598"
       id="linearGradient3600"
       x1="7.8838859"
       y1="11.784748"
       x2="4.4751787"
       y2="0.5291667"
       gradientUnits="userSpaceOnUse" />
    <linearGradient
       inkscape:collect="always"
       xlink:href="#linearGradient1176"
       id="linearGradient1178"
       x1="8.5798378"
       y1="2.9104166"
       x2="10.054166"
       y2="4.3847456"
       gradientUnits="userSpaceOnUse"
       gradientTransform="translate(-9.6666667e-8,-0.26458337)" />
  </defs>
  <path
     id="rect3143"
     style="opacity:0.1;fill:#000000;fill-opacity:1;stroke-width:0.264583"
     d="m 4.5160033,1.0583334 c -3.60405388,0 -4.1191283,0.5137855 -4.1191283,4.1144775 v 2.883545 c 0,3.6006791 0.51507442,4.1144791 4.1191283,4.1144791 h 3.6679933 c 3.6040544,0 4.1191284,-0.5138 4.1191284,-4.1144791 v -2.883545 c 0,-3.600692 -0.515074,-4.1144775 -4.1191284,-4.1144775 z" />
  <path
     style="display:inline;fill:url(#linearGradient3600);fill-opacity:1;stroke:none;stroke-width:0.0992187;stroke-linecap:round;stroke-linejoin:round;stroke-miterlimit:4;stroke-dasharray:none;stroke-dashoffset:0;stroke-opacity:1;enable-background:new"
     d="m 8.1839962,0.66145835 c 3.6040548,0 4.1191298,0.51378545 4.1191298,4.11447755 v 2.883545 c 0,3.6006781 -0.515075,4.1144781 -4.1191298,4.1144781 H 4.5160033 c -3.604054,0 -4.1191283,-0.5138 -4.1191283,-4.1144781 v -2.883545 c 0,-3.6006921 0.5150743,-4.11447755 4.1191283,-4.11447755 z"
     id="rect877"
     inkscape:connector-curvature="0"
     sodipodi:nodetypes="sssssssss" />
  <path
     id="rect1370"
     style="opacity:0.4;fill:#000000;fill-opacity:1;stroke-width:0.264583"
     d="m 4.4751788,0.52916667 c -3.68414336,0 -4.21059547,0.52624033 -4.21059547,4.21266273 v 2.9517578 c 0,3.6864088 0.52645211,4.2126628 4.21059547,4.2126628 H 8.224821 c 3.684144,0 4.210596,-0.526254 4.210596,-4.2126628 V 4.7418294 c 0,-3.6864224 -0.526452,-4.21266273 -4.210596,-4.21266273 z m 0.081649,0.2645833 h 3.5863445 c 3.5239637,0 4.0276607,0.50133143 4.0276607,4.01629243 v 2.8153318 c 0,3.5149478 -0.503697,4.0162928 -4.0276607,4.0162928 H 4.5568277 c -3.5239637,0 -4.02766104,-0.501345 -4.02766104,-4.0162928 V 4.8100424 c 0,-3.514961 0.50369724,-4.01629243 4.02766114,-4.01629243 z" />
  <path
     id="rect1565"
     style="fill:url(#linearGradient1873);fill-opacity:1;stroke-width:0.264583"
     d="m 4.5568277,0.79374997 c -3.5239635,0 -4.02766104,0.50133123 -4.02766104,4.01629243 v 2.8153318 c 0,3.5149478 0.50369754,4.0162928 4.02766104,4.0162928 h 3.5863445 c 3.5239638,0 4.0276608,-0.501345 4.0276608,-4.0162928 V 4.8100424 c 0,-3.5149612 -0.503697,-4.01629243 -4.0276608,-4.01629243 z m 0.081649,0.26458343 h 3.4230468 c 3.3637835,0 3.8447265,0.4769388 3.8447265,3.8204385 v 2.6778728 c 0,3.3434873 -0.480943,3.8204393 -3.8447265,3.8204393 h -3.423047 c -3.3637834,0 -3.84472651,-0.476952 -3.84472651,-3.8204393 V 4.8787719 c 0,-3.3434997 0.48094311,-3.8204385 3.84472671,-3.8204385 z" />
  <path
     id="path42"
     d="M 2.6458333,2.6458333 V 3.175 H 7.4083332 V 2.6458333 Z m 0,1.0583334 V 4.2333333 H 10.054167 V 3.7041667 Z m 0,1.0583333 V 5.2916666 H 6.0854166 V 4.7625 Z m 0,1.0583333 V 6.3453491 H 6.0854166 V 5.8208333 Z m 0,1.0536824 v 0.5291667 h 2.38125 V 6.8745157 Z m 0,1.0629842 V 8.4666666 H 10.054167 V 7.9374999 Z"
     style="stroke-width:0.264583;fill:#c8c4b7;fill-opacity:1" />
  <path
     id="rect1724"
     style="fill:#fec589;fill-opacity:1;stroke-width:0.264583;stroke-linejoin:round"
     d="M 4.212146,7.0135258 3.935677,7.2899948 2.6458333,10.054167 5.4100057,8.7643228 5.6864747,8.4878538 Z" />
  <path
     id="rect1305"
     style="fill:url(#linearGradient1178);fill-opacity:1;stroke-width:0.264583;stroke-linejoin:round"
     d="M 8.5798378,2.6458333 3.935677,7.2899941 C 4.1199514,7.1057198 4.4425695,7.6125138 4.166154,7.888924 4.6268465,7.4282315 5.2717683,8.0731719 4.8110759,8.5338459 5.0874861,8.2574357 5.594288,8.5800485 5.4100057,8.7643228 L 10.054166,4.120162 Z" />
  <path
     id="rect1848"
     style="fill:#5d5d5d;fill-opacity:1;stroke-width:0.264583;stroke-linejoin:round"
     d="m 3.1269411,9.1193436 c -0.037184,-0.003 -0.070797,0.05529 -0.070797,0.05529 L 2.6458333,10.054167 3.5253662,9.6438556 c 0,0 0.086995,-0.0515 0.041341,-0.09715 -0.045654,-0.04565 -0.1829345,0.0016 -0.1829348,0.0016 0,0 0.091591,-0.139353 0,-0.230994 -0.091644,-0.09164 -0.2309934,0 -0.2309934,0 0,0 0.046067,-0.138415 0,-0.184485 -0.00864,-0.0086 -0.017259,-0.01275 -0.025839,-0.01344 z" />
</svg>
