<?xml version="1.0" encoding="UTF-8" standalone="no"?>
<!-- Created with Inkscape (http://www.inkscape.org/) -->

<svg
   width="48"
   height="48"
   viewBox="0 0 12.7 12.7"
   version="1.1"
   id="svg5"
   inkscape:version="1.1.2 (0a00cf5339, 2022-02-04)"
   sodipodi:docname="com.uploadedlobster.peek.svg"
   xmlns:inkscape="http://www.inkscape.org/namespaces/inkscape"
   xmlns:sodipodi="http://sodipodi.sourceforge.net/DTD/sodipodi-0.dtd"
   xmlns:xlink="http://www.w3.org/1999/xlink"
   xmlns="http://www.w3.org/2000/svg"
   xmlns:svg="http://www.w3.org/2000/svg">
  <sodipodi:namedview
     id="namedview7"
     pagecolor="#ffffff"
     bordercolor="#666666"
     borderopacity="1.0"
     inkscape:pageshadow="2"
     inkscape:pageopacity="0.0"
     inkscape:pagecheckerboard="0"
     inkscape:document-units="px"
     showgrid="false"
     units="px"
     inkscape:zoom="8.6413041"
     inkscape:cx="22.97107"
     inkscape:cy="34.369812"
     inkscape:window-width="1555"
     inkscape:window-height="991"
     inkscape:window-x="26"
     inkscape:window-y="23"
     inkscape:window-maximized="0"
     inkscape:current-layer="svg5"
     showguides="false" />
  <defs
     id="defs2">
    <linearGradient
       inkscape:collect="always"
       xlink:href="#linearGradient1871"
       id="linearGradient1873"
       x1="17.222656"
       y1="3.5"
       x2="17.222656"
       y2="44.466438"
       gradientUnits="userSpaceOnUse"
       gradientTransform="matrix(0.26458333,0,0,0.26458333,0,-0.13229163)" />
    <linearGradient
       inkscape:collect="always"
       id="linearGradient1871">
      <stop
         style="stop-color:#ffffff;stop-opacity:1;"
         offset="0"
         id="stop1867" />
      <stop
         style="stop-color:#ffffff;stop-opacity:0.1"
         offset="0.12"
         id="stop2515" />
      <stop
         style="stop-color:#ffffff;stop-opacity:0.102"
         offset="0.89999998"
         id="stop2581" />
      <stop
         style="stop-color:#ffffff;stop-opacity:0.502"
         offset="1"
         id="stop1869" />
    </linearGradient>
    <linearGradient
       inkscape:collect="always"
       id="linearGradient2290">
      <stop
         style="stop-color:#f4842f;stop-opacity:1"
         offset="0"
         id="stop2286" />
      <stop
         style="stop-color:#fad86a;stop-opacity:1"
         offset="1"
         id="stop2288" />
    </linearGradient>
    <linearGradient
       inkscape:collect="always"
       xlink:href="#linearGradient2290"
       id="linearGradient1227"
       x1="4.2333336"
       y1="0.52916664"
       x2="4.2333336"
       y2="12.170834"
       gradientUnits="userSpaceOnUse" />
  </defs>
  <path
     id="rect3143"
     style="opacity:0.1;fill:#000000;fill-opacity:1;stroke-width:0.264583"
     d="m 4.5160033,1.0583333 c -3.6040539,0 -4.1191283,0.5137856 -4.1191283,4.1144776 v 2.8835446 c 0,3.6006805 0.5150744,4.1144805 4.1191283,4.1144805 h 3.6679933 c 3.6040544,0 4.1191284,-0.5138 4.1191284,-4.1144805 V 5.1728109 c 0,-3.600692 -0.515074,-4.1144776 -4.1191284,-4.1144776 z" />
  <path
     style="display:inline;fill:url(#linearGradient1227);fill-opacity:1;stroke:none;stroke-width:0.0992187;stroke-linecap:round;stroke-linejoin:round;stroke-miterlimit:4;stroke-dasharray:none;stroke-dashoffset:0;stroke-opacity:1;enable-background:new"
     d="m 8.1839953,0.66145835 c 3.6040547,0 4.1191297,0.51378555 4.1191297,4.11447755 v 2.883545 c 0,3.6006771 -0.515075,4.1144771 -4.1191297,4.1144771 H 4.5160029 c -3.60405369,0 -4.1191279,-0.5138 -4.1191279,-4.1144771 v -2.883545 c 0,-3.600692 0.51507421,-4.11447755 4.1191279,-4.11447755 z"
     id="rect877"
     inkscape:connector-curvature="0"
     sodipodi:nodetypes="sssssssss" />
  <path
     id="rect1301"
     style="opacity:1;fill:#4d4d4d;fill-opacity:1;stroke-width:0.264583;stroke-linejoin:round"
     d="M 0.43511554,3.4395832 C 0.602743,1.0442971 1.4172812,0.66145833 4.5160033,0.66145833 h 3.6679933 c 3.0987224,0 3.9132604,0.38283877 4.0808874,2.77812487 z" />
  <path
     id="rect1565"
     style="fill:url(#linearGradient1873);fill-opacity:1;stroke-width:0.264583;opacity:0.7"
     d="m 4.5568277,0.79375 c -3.5239635,0 -4.02766103,0.5013312 -4.02766103,4.0162924 v 2.8153318 c 0,3.5149478 0.50369753,4.0162928 4.02766103,4.0162928 h 3.5863445 c 3.5239638,0 4.0276608,-0.501345 4.0276608,-4.0162928 V 4.8100424 c 0,-3.5149612 -0.503697,-4.0162924 -4.0276608,-4.0162924 z m 0.081649,0.2645834 h 3.4230468 c 3.3637835,0 3.8447265,0.4769388 3.8447265,3.8204385 v 2.6778728 c 0,3.3434873 -0.480943,3.8204393 -3.8447265,3.8204393 H 4.6384765 C 1.2746931,11.377084 0.79375,10.900132 0.79375,7.5566447 V 4.8787719 c 0,-3.3434997 0.4809431,-3.8204385 3.8447267,-3.8204385 z" />
  <path
     id="rect1370"
     style="opacity:0.4;fill:#000000;fill-opacity:1;stroke-width:0.264583"
     d="m 4.4751788,0.52916667 c -3.68414314,0 -4.21059547,0.52624033 -4.21059547,4.21266263 v 2.9517578 c 0,3.6864079 0.52645233,4.2126629 4.21059547,4.2126629 H 8.224821 c 3.684144,0 4.210596,-0.526255 4.210596,-4.2126629 V 4.7418293 c 0,-3.6864223 -0.526452,-4.21266263 -4.210596,-4.21266263 z M 4.5568278,0.79375 h 3.5863445 c 3.5239637,0 4.0276607,0.5013312 4.0276607,4.0162924 v 2.8153317 c 0,3.5149469 -0.503697,4.0162919 -4.0276607,4.0162919 H 4.5568277 c -3.5239638,0 -4.02766104,-0.501345 -4.02766104,-4.0162919 V 4.8100424 c 0,-3.5149612 0.50369724,-4.0162924 4.02766114,-4.0162924 z" />
  <path
     d="m 2.3812499,5.0270833 v 1.8520834 h 0.264584 V 5.2916666 H 4.2333336 V 5.0270833 Z m 6.0854173,0 V 5.2916666 H 10.054167 V 6.8791667 H 10.31875 V 5.0270833 Z M 2.3812499,8.4666666 V 10.31875 H 4.2333336 V 10.054167 H 2.6458339 V 8.4666666 Z m 7.6729171,0 V 10.054167 H 8.4666672 V 10.31875 H 10.31875 V 8.4666666 Z"
     style="opacity:0.1;fill:#000000;fill-opacity:1;stroke-width:0.140009;stroke-linejoin:round"
     id="path1462"
     sodipodi:nodetypes="cccccccccccccccccccccccccccc" />
  <path
     id="rect2027"
     style="fill:#ffffff;fill-opacity:1;stroke-width:0.529167;stroke-linejoin:round"
     d="m 2.3812499,4.7625 v 1.8520833 h 0.264584 v -1.5875 H 4.2333336 V 4.7625 Z m 6.0854173,0 v 0.2645833 h 1.5874998 v 1.5875 H 10.31875 V 4.7625 Z M 2.3812499,8.2020833 V 10.054167 H 4.2333336 V 9.7895833 H 2.6458339 v -1.5875 z m 7.6729171,0 v 1.5875 H 8.4666672 V 10.054167 H 10.31875 V 8.2020833 Z"
     sodipodi:nodetypes="cccccccccccccccccccccccccccc" />
  <circle
     style="fill:#f53838;fill-opacity:1;stroke-width:0.198436;stroke-linejoin:round"
     id="path1241"
     cx="9.6572914"
     cy="2.2489583"
     r="0.39687499" />
  <rect
     style="fill:#ffffff;fill-opacity:1;stroke-width:0.626119;stroke-linejoin:round"
     id="rect2060"
     width="3.7041667"
     height="0.26458335"
     x="4.4979167"
     y="2.1166666" />
</svg>
