<?xml version="1.0" encoding="UTF-8" standalone="no"?>
<!-- Created with Inkscape (http://www.inkscape.org/) -->

<svg
   width="48"
   height="48"
   viewBox="0 0 12.7 12.7"
   version="1.1"
   id="svg5"
   inkscape:version="1.1.2 (0a00cf5339, 2022-02-04)"
   sodipodi:docname="google-chrome-beta.svg"
   xmlns:inkscape="http://www.inkscape.org/namespaces/inkscape"
   xmlns:sodipodi="http://sodipodi.sourceforge.net/DTD/sodipodi-0.dtd"
   xmlns:xlink="http://www.w3.org/1999/xlink"
   xmlns="http://www.w3.org/2000/svg"
   xmlns:svg="http://www.w3.org/2000/svg">
  <sodipodi:namedview
     id="namedview7"
     pagecolor="#ffffff"
     bordercolor="#666666"
     borderopacity="1.0"
     inkscape:pageshadow="2"
     inkscape:pageopacity="0.0"
     inkscape:pagecheckerboard="0"
     inkscape:document-units="px"
     showgrid="false"
     units="px"
     inkscape:zoom="17.270833"
     inkscape:cx="12.738239"
     inkscape:cy="32.279855"
     inkscape:window-width="1851"
     inkscape:window-height="1049"
     inkscape:window-x="0"
     inkscape:window-y="0"
     inkscape:window-maximized="1"
     inkscape:current-layer="svg5" />
  <defs
     id="defs2">
    <linearGradient
       inkscape:collect="always"
       id="linearGradient13171">
      <stop
         style="stop-color:#32a651;stop-opacity:1;"
         offset="0"
         id="stop13167" />
      <stop
         style="stop-color:#279847;stop-opacity:1"
         offset="1"
         id="stop13169" />
    </linearGradient>
    <linearGradient
       inkscape:collect="always"
       id="linearGradient12495">
      <stop
         style="stop-color:#db3328;stop-opacity:1;"
         offset="0"
         id="stop12491" />
      <stop
         style="stop-color:#e53d30;stop-opacity:1"
         offset="1"
         id="stop12493" />
    </linearGradient>
    <linearGradient
       inkscape:collect="always"
       id="linearGradient1871">
      <stop
         style="stop-color:#ffffff;stop-opacity:1;"
         offset="0"
         id="stop1867" />
      <stop
         style="stop-color:#ffffff;stop-opacity:0.1"
         offset="0.12"
         id="stop2515" />
      <stop
         style="stop-color:#ffffff;stop-opacity:0.102"
         offset="0.89999998"
         id="stop2581" />
      <stop
         style="stop-color:#ffffff;stop-opacity:0.502"
         offset="1"
         id="stop1869" />
    </linearGradient>
    <linearGradient
       inkscape:collect="always"
       xlink:href="#linearGradient1871"
       id="linearGradient1873"
       x1="17.222656"
       y1="3.5"
       x2="17.222656"
       y2="44.466438"
       gradientUnits="userSpaceOnUse"
       gradientTransform="matrix(0.26458333,0,0,0.26458333,0,-0.13229166)" />
    <linearGradient
       inkscape:collect="always"
       xlink:href="#linearGradient12495"
       id="linearGradient12497"
       x1="3.7041574"
       y1="5.15939"
       x2="8.9958239"
       y2="5.15939"
       gradientUnits="userSpaceOnUse" />
    <linearGradient
       inkscape:collect="always"
       xlink:href="#linearGradient13171"
       id="linearGradient13173"
       x1="4.4023013"
       y1="4.2994838"
       x2="5.9898009"
       y2="7.474484"
       gradientUnits="userSpaceOnUse" />
  </defs>
  <path
     id="rect3143"
     style="opacity:0.1;fill:#000000;fill-opacity:1;stroke-width:0.264583"
     d="m 4.5160033,1.0583334 c -3.60405388,0 -4.1191283,0.5137855 -4.1191283,4.1144775 v 2.883545 c 0,3.6006791 0.51507442,4.1144791 4.1191283,4.1144791 h 3.6679933 c 3.6040544,0 4.1191284,-0.5138 4.1191284,-4.1144791 v -2.883545 c 0,-3.600692 -0.515074,-4.1144775 -4.1191284,-4.1144775 z" />
  <path
     style="display:inline;fill:#ffffff;fill-opacity:1;stroke:none;stroke-width:0.0992187;stroke-linecap:round;stroke-linejoin:round;stroke-miterlimit:4;stroke-dasharray:none;stroke-dashoffset:0;stroke-opacity:1;enable-background:new"
     d="m 8.1839962,0.66145835 c 3.6040548,0 4.1191298,0.51378545 4.1191298,4.11447755 v 2.883545 c 0,3.6006781 -0.515075,4.1144781 -4.1191298,4.1144781 H 4.5160033 c -3.604054,0 -4.1191283,-0.5138 -4.1191283,-4.1144781 v -2.883545 c 0,-3.6006921 0.5150743,-4.11447755 4.1191283,-4.11447755 z"
     id="rect877"
     inkscape:connector-curvature="0"
     sodipodi:nodetypes="sssssssss" />
  <g
     id="g13900">
    <path
       d="m 6.3499908,1.8520833 c -1.6648002,0 -3.1172325,0.9051142 -3.8949803,2.2495046 L 2.6017322,6.7248018 4.4023011,7.4744838 6.3499908,6.3500302 V 4.1010567 H 10.244704 C 9.4668234,2.7569983 8.014591,1.8520833 6.3499908,1.8520833 Z"
       style="fill:url(#linearGradient12497);fill-opacity:1;stroke-width:0.0175699"
       id="path1309" />
    <path
       d="m 1.8521097,6.3500302 c 0,2.4841174 2.013697,4.4978798 4.4978805,4.4978798 L 8.322717,9.7933342 8.2976798,7.4744838 6.3499902,6.3500302 4.4023011,7.4744838 2.4550101,4.1015879 C 2.0722656,4.7632044 1.8520833,5.5305796 1.8520833,6.3499639"
       style="fill:url(#linearGradient13173);fill-opacity:1;stroke-width:0.0175699"
       id="path1449"
       sodipodi:nodetypes="cccccccc" />
    <path
       d="m 6.3500375,6.3500302 1.947689,1.1244536 -1.947689,3.3734262 c 2.4841163,0 4.4978795,-2.0137624 4.4978795,-4.4978798 0,-0.819517 -0.220254,-1.5871712 -0.603213,-2.2489735 H 6.3499908 Z"
       style="fill:#fbbf12;stroke-width:0.0175699"
       id="path1829" />
    <path
       d="m 8.5990112,6.3500302 c 0,1.2420585 -1.0069151,2.2489734 -2.2489737,2.2489734 -1.242059,0 -2.2489739,-1.0069149 -2.2489739,-2.2489734 0,-1.2420588 1.0069149,-2.2489735 2.2489739,-2.2489735 1.2420586,0 2.2489737,1.0069147 2.2489737,2.2489735"
       style="fill:#ffffff;stroke-width:0.0175699"
       id="path2229" />
    <path
       d="m 8.0697916,6.3499995 c 0,0.9498011 -0.7699913,1.7197905 -1.7197917,1.7197905 -0.949801,0 -1.7197916,-0.7699894 -1.7197916,-1.7197905 0,-0.9498007 0.7699906,-1.7197912 1.7197916,-1.7197912 0.9498004,0 1.7197917,0.7699905 1.7197917,1.7197912"
       style="fill:#4688f4;fill-opacity:1;stroke-width:0.0165362"
       id="path2029" />
  </g>
  <path
     id="rect3959"
     style="fill:#414342;fill-opacity:1;stroke-width:0.680901;stroke-linejoin:round"
     d="M 7.484375 28 A 17 17 0 0 0 24 41 A 17 17 0 0 0 40.515625 28 L 7.484375 28 z "
     transform="scale(0.26458333)" />
  <path
     id="rect7125"
     style="fill:#ffffff;fill-opacity:1;stroke-width:0.224975;stroke-linejoin:round"
     d="m 4.2333333,7.9375 v 1.5898815 h 0.6016626 c 0.084389,0 0.1631987,-0.019054 0.2357437,-0.057547 0.074025,-0.038493 0.132484,-0.091837 0.1754188,-0.1599408 0.044416,-0.069584 0.066278,-0.1470961 0.066278,-0.2329656 0,-0.08735 -0.025069,-0.1638544 -0.075406,-0.2289969 C 5.1866929,8.7827887 5.1217153,8.7368647 5.0417678,8.7102156 v -0.00873 c 0.066623,-0.031091 0.1190661,-0.07561 0.1575592,-0.13335 0.039974,-0.05774 0.059928,-0.1250228 0.059928,-0.2020095 0,-0.081428 -0.020458,-0.1547264 -0.061912,-0.2198687 C 5.1558884,8.081114 5.0993384,8.0300753 5.0282739,7.9930626 4.9586901,7.9560499 4.8839871,7.9375 4.8040396,7.9375 Z M 6.8781086,8.0752156 V 8.3950969 H 6.6804648 V 8.5661501 H 6.8781086 V 9.230122 c 0,0.053298 0.00742,0.098322 0.022225,0.1353345 0.014805,0.037013 0.037065,0.069502 0.066675,0.097631 0.02665,0.025165 0.059138,0.045121 0.097631,0.059928 0.039974,0.014807 0.083089,0.022225 0.1289842,0.022225 0.035532,0 0.064312,-0.00229 0.086519,-0.00674 0.023688,-0.00445 0.046849,-0.011863 0.069056,-0.022225 V 9.3321194 c -0.039974,0.02517 -0.081684,0.037703 -0.1246187,0.037703 -0.053299,0 -0.093711,-0.016242 -0.1218406,-0.048816 -0.023688,-0.02961 -0.035719,-0.075534 -0.035719,-0.1377159 V 8.5661501 H 7.3424523 V 8.3950969 H 7.067021 V 8.0752156 Z m -2.4582441,0.042069 h 0.3929062 c 0.051818,0 0.097238,0.012535 0.1357314,0.037703 0.039974,0.025169 0.070157,0.058055 0.090884,0.098028 0.022208,0.038493 0.033337,0.077501 0.033337,0.1174751 0,0.041454 -0.011129,0.082264 -0.033337,0.1222375 -0.022207,0.038494 -0.053796,0.070479 -0.09525,0.095647 -0.039974,0.025169 -0.086798,0.037704 -0.1400969,0.037704 H 4.4198645 Z m 1.6101221,0.2420937 c -0.1095577,0 -0.2060166,0.027375 -0.288925,0.082153 C 5.6581526,8.4963103 5.594076,8.5696085 5.5481803,8.6614 c -0.044416,0.091792 -0.066675,0.192464 -0.066675,0.3020219 0,0.1139989 0.023664,0.216977 0.071041,0.3087687 0.048856,0.090311 0.1161398,0.1613045 0.2020093,0.2131221 0.08587,0.051818 0.1828323,0.077787 0.2909095,0.077787 0.1184406,0 0.2191134,-0.026474 0.3020219,-0.079772 C 6.431876,9.4300287 6.4986551,9.3572348 6.5475117,9.2654434 L 6.3875709,9.1876565 C 6.3091039,9.3238632 6.1973015,9.392047 6.0522117,9.392047 5.9900307,9.392047 5.9301671,9.377205 5.8724271,9.347597 5.8161681,9.317987 5.7693434,9.273467 5.7323303,9.2142473 5.6953153,9.1550273 5.6744603,9.0826294 5.6700213,8.9967598 h 0.8949533 c 0.00444,-0.016286 0.00674,-0.035342 0.00674,-0.057547 0,-0.112519 -0.02226,-0.2126876 -0.066675,-0.3000377 C 6.4621107,8.5518247 6.3999421,8.4836411 6.3185142,8.4347845 6.237086,8.3844472 6.1410243,8.3593782 6.0299866,8.3593783 Z m 1.940719,0 c -0.094753,0 -0.181089,0.01945 -0.2595564,0.057944 -0.076986,0.038493 -0.1377503,0.091837 -0.1821656,0.1599404 l 0.1420813,0.1063624 c 0.031091,-0.048857 0.073305,-0.08646 0.1266034,-0.1131095 0.053299,-0.02813 0.1117563,-0.042466 0.1754189,-0.042466 0.090311,0 0.165014,0.02597 0.2242337,0.077787 0.059221,0.050338 0.0889,0.1176204 0.0889,0.2020094 V 8.876902 C 8.2551319,8.857656 8.2101039,8.840511 8.1508869,8.825706 8.0931489,8.8109 8.0300774,8.803481 7.9619742,8.803481 c -0.137687,0 -0.2517951,0.034292 -0.3421061,0.1023937 -0.090311,0.066623 -0.1353345,0.1598751 -0.1353345,0.2797969 0,0.072544 0.017648,0.1375228 0.053182,0.1952626 0.035532,0.056257 0.086067,0.1007765 0.1512093,0.13335 0.065143,0.032573 0.1389453,0.048816 0.2218532,0.048816 0.081428,0 0.1547267,-0.019054 0.2198692,-0.057547 0.065142,-0.038493 0.1142723,-0.085318 0.1468439,-0.1400968 h 0.00873 V 9.5273815 H 8.4660073 V 8.8102283 c 0,-0.1391681 -0.044122,-0.2486651 -0.1329531,-0.3286127 C 8.2457027,8.4001876 8.1246789,8.3593782 7.9707056,8.3593783 Z m -1.9431003,0.171053 c 0.076987,0 0.1405596,0.016244 0.1908969,0.048816 0.051818,0.032571 0.089818,0.07248 0.1135063,0.1198563 0.023688,0.047376 0.037124,0.094705 0.040084,0.1420813 H 5.6811334 c 0.019247,-0.093272 0.059552,-0.167975 0.1202532,-0.2242344 0.062181,-0.05774 0.1373882,-0.086519 0.2262187,-0.086519 z M 4.4198645,8.8034814 H 4.837377 c 0.056259,0 0.1058934,0.013435 0.1488282,0.040084 0.042935,0.025169 0.076324,0.059062 0.1000126,0.1019971 0.023688,0.041453 0.035322,0.084568 0.035322,0.1289843 0,0.044413 -0.011633,0.088033 -0.035322,0.1309687 -0.022207,0.041454 -0.054696,0.075744 -0.097631,0.1023939 -0.041454,0.02665 -0.08918,0.039687 -0.1424781,0.039687 H 4.4198645 Z m 3.5710818,0.1531937 c 0.057738,0 0.1124882,0.00742 0.1643059,0.022225 0.051817,0.014801 0.095437,0.034254 0.1309686,0.057944 8e-7,0.065143 -0.016243,0.1250056 -0.048814,0.1797844 -0.032571,0.054777 -0.076193,0.098395 -0.1309693,0.1309688 -0.054781,0.032569 -0.1141379,0.048816 -0.1777997,0.048816 -0.072545,0 -0.1324079,-0.019054 -0.1797846,-0.057547 -0.047376,-0.038493 -0.071041,-0.089028 -0.071041,-0.1512093 0,-0.068102 0.02597,-0.1233544 0.077787,-0.1662908 0.053298,-0.042936 0.1317118,-0.06469 0.2353472,-0.06469 z" />
  <path
     id="rect1370"
     style="opacity:0.4;fill:#000000;fill-opacity:1;stroke-width:0.264583"
     d="m 4.4751788,0.52916667 c -3.68414336,0 -4.21059547,0.52624033 -4.21059547,4.21266273 v 2.9517578 c 0,3.6864088 0.52645211,4.2126628 4.21059547,4.2126628 H 8.224821 c 3.684144,0 4.210596,-0.526254 4.210596,-4.2126628 V 4.7418294 c 0,-3.6864224 -0.526452,-4.21266273 -4.210596,-4.21266273 z m 0.081649,0.2645833 h 3.5863445 c 3.5239637,0 4.0276607,0.50133143 4.0276607,4.01629243 v 2.8153318 c 0,3.5149478 -0.503697,4.0162928 -4.0276607,4.0162928 H 4.5568277 c -3.5239637,0 -4.02766104,-0.501345 -4.02766104,-4.0162928 V 4.8100424 c 0,-3.514961 0.50369724,-4.01629243 4.02766114,-4.01629243 z" />
  <path
     id="rect1565"
     style="fill:url(#linearGradient1873);fill-opacity:1;stroke-width:0.264583;opacity:0.4"
     d="m 4.5568277,0.79374997 c -3.5239635,0 -4.02766104,0.50133123 -4.02766104,4.01629243 v 2.8153318 c 0,3.5149478 0.50369754,4.0162928 4.02766104,4.0162928 h 3.5863445 c 3.5239638,0 4.0276608,-0.501345 4.0276608,-4.0162928 V 4.8100424 c 0,-3.5149612 -0.503697,-4.01629243 -4.0276608,-4.01629243 z m 0.081649,0.26458343 h 3.4230468 c 3.3637835,0 3.8447265,0.4769388 3.8447265,3.8204385 v 2.6778728 c 0,3.3434873 -0.480943,3.8204393 -3.8447265,3.8204393 h -3.423047 c -3.3637834,0 -3.84472651,-0.476952 -3.84472651,-3.8204393 V 4.8787719 c 0,-3.3434997 0.48094311,-3.8204385 3.84472671,-3.8204385 z" />
</svg>
