<?xml version="1.0" encoding="UTF-8" standalone="no"?>
<!-- Created with Inkscape (http://www.inkscape.org/) -->

<svg
   width="48"
   height="48"
   viewBox="0 0 12.7 12.7"
   version="1.1"
   id="svg5"
   inkscape:version="1.1.2 (0a00cf5339, 2022-02-04, custom)"
   sodipodi:docname="jockey.svg"
   xmlns:inkscape="http://www.inkscape.org/namespaces/inkscape"
   xmlns:sodipodi="http://sodipodi.sourceforge.net/DTD/sodipodi-0.dtd"
   xmlns:xlink="http://www.w3.org/1999/xlink"
   xmlns="http://www.w3.org/2000/svg"
   xmlns:svg="http://www.w3.org/2000/svg">
  <sodipodi:namedview
     id="namedview7"
     pagecolor="#ffffff"
     bordercolor="#666666"
     borderopacity="1.0"
     inkscape:pageshadow="2"
     inkscape:pageopacity="0.0"
     inkscape:pagecheckerboard="0"
     inkscape:document-units="px"
     showgrid="false"
     units="px"
     inkscape:zoom="8"
     inkscape:cx="1.6875"
     inkscape:cy="30.25"
     inkscape:window-width="1920"
     inkscape:window-height="1009"
     inkscape:window-x="-8"
     inkscape:window-y="-8"
     inkscape:window-maximized="1"
     inkscape:current-layer="svg5" />
  <defs
     id="defs2">
    <linearGradient
       inkscape:collect="always"
       id="linearGradient15706">
      <stop
         style="stop-color:#313131;stop-opacity:1;"
         offset="0"
         id="stop15702" />
      <stop
         style="stop-color:#535353;stop-opacity:1"
         offset="1"
         id="stop15704" />
    </linearGradient>
    <linearGradient
       inkscape:collect="always"
       id="linearGradient1331">
      <stop
         style="stop-color:#216c4d;stop-opacity:1"
         offset="0"
         id="stop1327" />
      <stop
         style="stop-color:#2d976b;stop-opacity:1"
         offset="1"
         id="stop1329" />
    </linearGradient>
    <linearGradient
       inkscape:collect="always"
       id="linearGradient1871">
      <stop
         style="stop-color:#ffffff;stop-opacity:1;"
         offset="0"
         id="stop1867" />
      <stop
         style="stop-color:#ffffff;stop-opacity:0.1"
         offset="0.12"
         id="stop2515" />
      <stop
         style="stop-color:#ffffff;stop-opacity:0.102"
         offset="0.89999998"
         id="stop2581" />
      <stop
         style="stop-color:#ffffff;stop-opacity:0.502"
         offset="1"
         id="stop1869" />
    </linearGradient>
    <linearGradient
       inkscape:collect="always"
       xlink:href="#linearGradient1871"
       id="linearGradient1873"
       x1="17.222656"
       y1="3.5"
       x2="17.222656"
       y2="44.466438"
       gradientUnits="userSpaceOnUse"
       gradientTransform="matrix(0.26458333,0,0,0.26458333,0,-0.13229166)" />
    <linearGradient
       inkscape:collect="always"
       xlink:href="#linearGradient1331"
       id="linearGradient1333"
       x1="3.9506629"
       y1="0.66145837"
       x2="9.807375"
       y2="11.794012"
       gradientUnits="userSpaceOnUse" />
    <linearGradient
       inkscape:collect="always"
       xlink:href="#linearGradient15706"
       id="linearGradient15708"
       x1="4.4979167"
       y1="4.1010418"
       x2="6.1783767"
       y2="8.3956041"
       gradientUnits="userSpaceOnUse"
       gradientTransform="matrix(0.94468179,0,0,0.98574267,0.24881671,-0.07382161)" />
  </defs>
  <path
     id="rect3143"
     style="opacity:0.1;fill:#000000;fill-opacity:1;stroke-width:0.264583"
     d="m 4.5160033,1.0583334 c -3.60405388,0 -4.1191283,0.5137855 -4.1191283,4.1144775 v 2.883545 c 0,3.6006791 0.51507442,4.1144791 4.1191283,4.1144791 h 3.6679933 c 3.6040544,0 4.1191284,-0.5138 4.1191284,-4.1144791 v -2.883545 c 0,-3.600692 -0.515074,-4.1144775 -4.1191284,-4.1144775 z" />
  <path
     style="display:inline;fill:url(#linearGradient1333);fill-opacity:1;stroke:none;stroke-width:0.0992187;stroke-linecap:round;stroke-linejoin:round;stroke-miterlimit:4;stroke-dasharray:none;stroke-dashoffset:0;stroke-opacity:1;enable-background:new"
     d="m 8.1839962,0.66145835 c 3.6040548,0 4.1191298,0.51378545 4.1191298,4.11447755 v 2.883545 c 0,3.6006781 -0.515075,4.1144781 -4.1191298,4.1144781 H 4.5160033 c -3.604054,0 -4.1191283,-0.5138 -4.1191283,-4.1144781 v -2.883545 c 0,-3.6006921 0.5150743,-4.11447755 4.1191283,-4.11447755 z"
     id="rect877"
     inkscape:connector-curvature="0"
     sodipodi:nodetypes="sssssssss" />
  <path
     id="rect1370"
     style="opacity:0.4;fill:#000000;fill-opacity:1;stroke-width:0.264583"
     d="m 4.4751788,0.52916667 c -3.68414336,0 -4.21059547,0.52624033 -4.21059547,4.21266273 v 2.9517578 c 0,3.6864088 0.52645211,4.2126628 4.21059547,4.2126628 H 8.224821 c 3.684144,0 4.210596,-0.526254 4.210596,-4.2126628 V 4.7418294 c 0,-3.6864224 -0.526452,-4.21266273 -4.210596,-4.21266273 z m 0.081649,0.2645833 h 3.5863445 c 3.5239637,0 4.0276607,0.50133143 4.0276607,4.01629243 v 2.8153318 c 0,3.5149478 -0.503697,4.0162928 -4.0276607,4.0162928 H 4.5568277 c -3.5239637,0 -4.02766104,-0.501345 -4.02766104,-4.0162928 V 4.8100424 c 0,-3.514961 0.50369724,-4.01629243 4.02766114,-4.01629243 z" />
  <path
     id="rect1565"
     style="opacity:1;fill:url(#linearGradient1873);fill-opacity:1;stroke-width:0.264583"
     d="m 4.5568277,0.79374997 c -3.5239635,0 -4.02766104,0.50133123 -4.02766104,4.01629243 v 2.8153318 c 0,3.5149478 0.50369754,4.0162928 4.02766104,4.0162928 h 3.5863445 c 3.5239638,0 4.0276608,-0.501345 4.0276608,-4.0162928 V 4.8100424 c 0,-3.5149612 -0.503697,-4.01629243 -4.0276608,-4.01629243 z m 0.081649,0.26458343 h 3.4230468 c 3.3637835,0 3.8447265,0.4769388 3.8447265,3.8204385 v 2.6778728 c 0,3.3434873 -0.480943,3.8204393 -3.8447265,3.8204393 h -3.423047 c -3.3637834,0 -3.84472651,-0.476952 -3.84472651,-3.8204393 V 4.8787719 c 0,-3.3434997 0.48094311,-3.8204385 3.84472671,-3.8204385 z" />
  <path
     id="rect3714"
     style="opacity:1;fill:#5ca487;fill-opacity:1;stroke-width:0.999999;stroke-linejoin:round"
     d="m 19,4 v 11.5 c 0,0.554 0.446,1 1,1 0.554,0 1,-0.446 1,-1 V 4 Z m 4,0 v 11.5 c 0,0.554 0.446,1 1,1 0.554,0 1,-0.446 1,-1 V 4 Z m 4,0 v 11.5 c 0,0.554 0.446,1 1,1 0.554,0 1,-0.446 1,-1 V 4 Z m 14,7 c -0.554003,0 -1,0.446 -1,1 v 6 h -8 c -0.554,0 -1,0.446 -1,1 0,0.554 0.446,1 1,1 h 9 c 0.553999,0 1,-0.446 1,-1 v -7 c 0,-0.554 -0.446001,-1 -1,-1 z M 7,13 c -0.5540001,0 -1,0.446 -1,1 0,0.554 0.462541,1.134365 1,1 h 2 v 4 c 0,0.554 0.4459999,1 1,1 h 6 c 0.554,0 1,-0.446 1,-1 0,-0.554 -0.448749,-0.944875 -1,-1 h -5 v -4 c 0,-0.554 -0.446,-1 -1,-1 z m 0,9 c -0.554,0 -1,0.446 -1,1 0,0.554 0.446,1 1,1 h 9 c 0.554,0 1,-0.446 1,-1 0,-0.554 -0.446,-1 -1,-1 z m 25,0 c -0.554,0 -1,0.446 -1,1 0,0.554 0.446,1 1,1 h 9 c 0.554,0 1,-0.446 1,-1 0,-0.554 -0.446,-1 -1,-1 z M 6.9746094,26 C 6.432669,26.013638 6,26.454656 6,27 v 8 c 0,0.554 0.4459999,1 1,1 0.5540001,0 1,-0.446 1,-1 v -7 h 8 c 0.554,0 1,-0.446 1,-1 0,-0.554 -0.446,-1 -1,-1 z M 32,26 c -0.554,0 -1,0.446 -1,1 0,0.554 0.448749,0.944875 1,1 h 5 v 6 c 0,0.554 0.445996,1 1,1 h 3 c 0.553996,0 1,-0.446 1,-1 0,-0.554 -0.462545,-1.134363 -1,-1 h -2 v -6 c 0,-0.554 -0.446004,-1 -1,-1 z m -12,4.5 c -0.554,0 -1,0.446 -1,1 V 43 h 2 V 31.5 c 0,-0.554 -0.446,-1 -1,-1 z m 4,0 c -0.554,0 -1,0.446 -1,1 V 43 h 2 V 31.5 c 0,-0.554 -0.446,-1 -1,-1 z m 4,0 c -0.554,0 -1,0.446 -1,1 V 43 h 2 V 31.5 c 0,-0.554 -0.446,-1 -1,-1 z"
     transform="scale(0.26458333)"
     sodipodi:nodetypes="cssscccssscccsssccsscsssssssssscssssscssssssssssssssssscsssscssscssscssssscsssssccssssccssssccss" />
  <path
     id="rect14077"
     style="opacity:0.1;fill:#000000;stroke-width:0.264583;stroke-linejoin:round"
     d="m 4.4979166,3.9687502 h 3.7041665 c 0.2931583,0 0.5291667,0.2360083 0.5291667,0.5291666 v 3.7041666 c 0,0.2931583 -0.2360084,0.5291666 -0.5291667,0.5291666 H 4.4979166 C 4.2047583,8.73125 3.96875,8.4952417 3.96875,8.2020834 V 4.4979168 c 0,-0.2931583 0.2360083,-0.5291666 0.5291666,-0.5291666 z" />
  <path
     id="rect12815"
     style="opacity:1;fill:#7ea193;fill-opacity:1;stroke-width:0.340178;stroke-linejoin:round"
     d="m 4.4979166,3.7041667 h 3.7041666 c 0.2931583,0 0.5291666,0.2360083 0.5291666,0.5291666 v 3.7041666 c 0,0.2931583 -0.2360083,0.5291666 -0.5291666,0.5291666 H 4.4979166 C 4.2047583,8.4666665 3.96875,8.2306582 3.96875,7.9374999 V 4.2333333 c 0,-0.2931583 0.2360083,-0.5291666 0.5291666,-0.5291666 z" />
  <path
     id="rect16447"
     style="opacity:0.8;fill:#eab305;fill-opacity:1;stroke-width:0.504349;stroke-linejoin:round"
     d="m 5.0270833,3.175 v 1.5875 h -1.5875 v 0.5291666 h 1.5875 v 0.5291667 h -1.5875 V 6.35 h 1.5875 v 0.5291666 h -1.5875 v 0.5291667 h 1.5875 v 1.5875 h 0.5291666 v -1.5875 h 0.5291667 v 1.5875 h 0.5291667 v -1.5875 h 0.5291666 v 1.5875 h 0.5291667 v -1.5875 h 1.5875 V 6.8791666 h -1.5875 V 6.35 h 1.5875 V 5.8208333 h -1.5875 V 5.2916666 h 1.5875 V 4.7625 h -1.5875 V 3.175 H 7.1437499 V 4.7625 H 6.6145833 V 3.175 H 6.0854166 V 4.7625 H 5.5562499 V 3.175 Z M 5.5562499,5.2916666 H 6.0854166 V 5.8208333 H 5.5562499 Z m 1.0583334,0 H 7.1437499 V 5.8208333 H 6.6145833 Z M 5.5562499,6.35 H 6.0854166 V 6.8791666 H 5.5562499 Z m 1.0583334,0 H 7.1437499 V 6.8791666 H 6.6145833 Z" />
  <path
     id="rect15502"
     style="opacity:1;fill:url(#linearGradient15708);stroke-width:0.255321;stroke-linejoin:round"
     d="M 4.4979167,4.2333335 H 8.2020833 V 7.9375001 H 4.4979167 Z"
     sodipodi:nodetypes="ccccc" />
  <path
     id="rect16260"
     style="opacity:0.6;fill:#ffffff;stroke-width:0.264583;stroke-linejoin:round"
     d="M 4.4979167,4.2333334 H 8.2020833 V 4.4979167 H 4.4979167 Z" />
  <path
     id="rect17096"
     style="opacity:0.2;fill:#000000;stroke-width:0.264583;stroke-linejoin:round"
     d="M 4.4979167,7.6729168 H 8.2020833 V 7.9375001 H 4.4979167 Z" />
  <circle
     style="opacity:0.8;fill:#e97cc8;fill-opacity:1;stroke-width:0.132291;stroke-linejoin:round"
     id="path17275"
     cx="1.8520833"
     cy="3.7041667"
     r="0.26458332" />
  <path
     id="path17599"
     style="opacity:0.8;fill:#ffffff;fill-opacity:1;stroke-width:0.264583;stroke-linejoin:round"
     d="M 10.847917,2.9104167 A 0.26458332,0.26458332 0 0 0 10.583333,3.175 0.26458332,0.26458332 0 0 0 10.847917,3.4395833 0.26458332,0.26458332 0 0 0 11.1125,3.175 0.26458332,0.26458332 0 0 0 10.847917,2.9104167 Z m 0,5.8208332 A 0.26458332,0.26458332 0 0 0 10.583333,8.9958333 0.26458332,0.26458332 0 0 0 10.847917,9.2604166 0.26458332,0.26458332 0 0 0 11.1125,8.9958333 0.26458332,0.26458332 0 0 0 10.847917,8.7312499 Z" />
  <circle
     style="opacity:0.8;fill:#81e9c0;fill-opacity:1;stroke-width:0.63357;stroke-linejoin:round"
     id="path17826"
     cx="1.8520833"
     cy="6.0854168"
     r="0.26458332" />
  <circle
     style="opacity:0.8;fill:#fec589;fill-opacity:1;stroke-width:0.264583;stroke-linejoin:round"
     id="path18040"
     cx="10.847917"
     cy="6.0854163"
     r="0.26458332" />
  <circle
     style="opacity:0.8;fill:#c5c9f0;fill-opacity:1;stroke-width:0.264583;stroke-linejoin:round"
     id="path18387"
     cx="1.8520833"
     cy="9.260417"
     r="0.26458332" />
  <path
     id="rect5299"
     style="opacity:0.06;fill:#ffffff;fill-opacity:1;stroke-width:0.264583"
     d="m 0.52916667,6.0854167 v 1.441773 c 0,3.6006783 0.51507443,4.1144773 4.11912783,4.1144773 h 3.667994 c 3.6040535,0 4.1191275,-0.513799 4.1191275,-4.1144773 v -1.441773 z" />
</svg>
