<?xml version="1.0" encoding="UTF-8" standalone="no"?>
<!-- Created with Inkscape (http://www.inkscape.org/) -->

<svg
   width="48"
   height="48"
   viewBox="0 0 12.7 12.7"
   version="1.1"
   id="svg5"
   inkscape:version="1.1.2 (0a00cf5339, 2022-02-04)"
   sodipodi:docname="libreoffice-impress.svg"
   xmlns:inkscape="http://www.inkscape.org/namespaces/inkscape"
   xmlns:sodipodi="http://sodipodi.sourceforge.net/DTD/sodipodi-0.dtd"
   xmlns:xlink="http://www.w3.org/1999/xlink"
   xmlns="http://www.w3.org/2000/svg"
   xmlns:svg="http://www.w3.org/2000/svg">
  <sodipodi:namedview
     id="namedview7"
     pagecolor="#ffffff"
     bordercolor="#666666"
     borderopacity="1.0"
     inkscape:pageshadow="2"
     inkscape:pageopacity="0.0"
     inkscape:pagecheckerboard="0"
     inkscape:document-units="px"
     showgrid="false"
     units="px"
     inkscape:zoom="11.667262"
     inkscape:cx="33.384011"
     inkscape:cy="22.284577"
     inkscape:window-width="1920"
     inkscape:window-height="1010"
     inkscape:window-x="0"
     inkscape:window-y="0"
     inkscape:window-maximized="1"
     inkscape:current-layer="svg5"
     showguides="false" />
  <defs
     id="defs2">
    <linearGradient
       inkscape:collect="always"
       id="linearGradient5855">
      <stop
         style="stop-color:#a33e03;stop-opacity:1;"
         offset="0"
         id="stop5851" />
      <stop
         style="stop-color:#622502;stop-opacity:1"
         offset="1"
         id="stop5853" />
    </linearGradient>
    <linearGradient
       inkscape:collect="always"
       id="linearGradient3503">
      <stop
         style="stop-color:#ffffff;stop-opacity:0.6"
         offset="0"
         id="stop3499" />
      <stop
         style="stop-color:#ffffff;stop-opacity:0.851"
         offset="1"
         id="stop3501" />
    </linearGradient>
    <linearGradient
       inkscape:collect="always"
       id="linearGradient5989">
      <stop
         style="stop-color:#f2f2f2;stop-opacity:1;"
         offset="0"
         id="stop5985" />
      <stop
         style="stop-color:#ffffff;stop-opacity:1"
         offset="1"
         id="stop5987" />
    </linearGradient>
    <linearGradient
       inkscape:collect="always"
       id="linearGradient1331">
      <stop
         style="stop-color:#b44910;stop-opacity:1"
         offset="0"
         id="stop1327" />
      <stop
         style="stop-color:#e76428;stop-opacity:1"
         offset="1"
         id="stop1329" />
    </linearGradient>
    <linearGradient
       inkscape:collect="always"
       id="linearGradient1871">
      <stop
         style="stop-color:#ffffff;stop-opacity:1;"
         offset="0"
         id="stop1867" />
      <stop
         style="stop-color:#ffffff;stop-opacity:0.1"
         offset="0.12"
         id="stop2515" />
      <stop
         style="stop-color:#ffffff;stop-opacity:0.102"
         offset="0.89999998"
         id="stop2581" />
      <stop
         style="stop-color:#ffffff;stop-opacity:0.502"
         offset="1"
         id="stop1869" />
    </linearGradient>
    <linearGradient
       inkscape:collect="always"
       xlink:href="#linearGradient1871"
       id="linearGradient1873"
       x1="17.222656"
       y1="3.5"
       x2="17.222656"
       y2="44.466438"
       gradientUnits="userSpaceOnUse"
       gradientTransform="matrix(0.26458333,0,0,0.26458333,0,-0.13229166)" />
    <linearGradient
       inkscape:collect="always"
       xlink:href="#linearGradient1331"
       id="linearGradient1333"
       x1="4.4751787"
       y1="0.5291667"
       x2="8.2108183"
       y2="11.778486"
       gradientUnits="userSpaceOnUse" />
    <linearGradient
       inkscape:collect="always"
       xlink:href="#linearGradient5989"
       id="linearGradient5991"
       x1="4.5568275"
       y1="0.79374999"
       x2="8.4326887"
       y2="11.597079"
       gradientUnits="userSpaceOnUse"
       gradientTransform="scale(3.7795276)" />
    <linearGradient
       inkscape:collect="always"
       xlink:href="#linearGradient3503"
       id="linearGradient3505"
       x1="6.0854168"
       y1="7.9375"
       x2="6.0854168"
       y2="3.7041667"
       gradientUnits="userSpaceOnUse" />
    <linearGradient
       inkscape:collect="always"
       xlink:href="#linearGradient3503"
       id="linearGradient5247"
       x1="8.1526117"
       y1="7.0414181"
       x2="8.1526117"
       y2="5.453918"
       gradientUnits="userSpaceOnUse"
       gradientTransform="translate(0.31405513,0.10233202)" />
    <linearGradient
       inkscape:collect="always"
       xlink:href="#linearGradient5855"
       id="linearGradient5857"
       x1="6.0854168"
       y1="-1.5875002"
       x2="6.0854168"
       y2="15.081249"
       gradientUnits="userSpaceOnUse"
       gradientTransform="scale(3.7795276)" />
  </defs>
  <path
     id="rect3143"
     style="opacity:0.1;fill:#000000;fill-opacity:1;stroke-width:0.264583"
     d="m 4.5160033,1.0583334 c -3.60405388,0 -4.1191283,0.5137855 -4.1191283,4.1144775 v 2.883545 c 0,3.6006791 0.51507442,4.1144791 4.1191283,4.1144791 h 3.6679933 c 3.6040544,0 4.1191284,-0.5138 4.1191284,-4.1144791 v -2.883545 c 0,-3.600692 -0.515074,-4.1144775 -4.1191284,-4.1144775 z" />
  <path
     style="display:inline;fill:url(#linearGradient1333);fill-opacity:1;stroke:none;stroke-width:0.0992187;stroke-linecap:round;stroke-linejoin:round;stroke-miterlimit:4;stroke-dasharray:none;stroke-dashoffset:0;stroke-opacity:1;enable-background:new"
     d="m 8.1839962,0.66145835 c 3.6040548,0 4.1191298,0.51378545 4.1191298,4.11447755 v 2.883545 c 0,3.6006781 -0.515075,4.1144781 -4.1191298,4.1144781 H 4.5160033 c -3.604054,0 -4.1191283,-0.5138 -4.1191283,-4.1144781 v -2.883545 c 0,-3.6006921 0.5150743,-4.11447755 4.1191283,-4.11447755 z"
     id="rect877"
     inkscape:connector-curvature="0"
     sodipodi:nodetypes="sssssssss" />
  <path
     id="rect2891"
     style="opacity:1;fill:url(#linearGradient5991);fill-opacity:1;stroke-width:0.97056;stroke-linejoin:round"
     d="M 13 7.5 C 8.5 7.5 7 8.9999996 7 13.5 L 7 33.5 C 7 38.000004 8.5 39.5 13 39.5 L 35 39.5 C 39.499996 39.5 41 38.000004 41 33.5 L 41 15.5 L 33 7.5 L 13 7.5 z "
     transform="scale(0.26458333)" />
  <path
     id="rect5299-4"
     style="opacity:0.1;fill:#ffffff;fill-opacity:1;stroke-width:0.264583"
     d="m 0.396875,6.2177083 v 1.4417725 c 0,3.6006782 0.5150744,4.1144772 4.1191283,4.1144772 h 3.6679933 c 3.6040544,0 4.1191284,-0.513799 4.1191284,-4.1144772 V 6.2177083 Z" />
  <path
     id="path64"
     d="m 3.96875,3.4395834 c -0.43815,0 -0.79375,0.3556 -0.79375,0.79375 v 3.175 c 0,0.4381499 0.3556,0.7937499 0.79375,0.7937499 h 1.8520833 v 0.096635 L 4.8136595,9.0708695 c -0.080433,0.06138 -0.036992,0.1896527 0.064079,0.1896527 h 0.2619993 c 0.1291167,0 0.2540455,-0.04735 0.350883,-0.1328087 L 6.2378621,8.4666667 h 0.2242757 l 0.747758,0.6610468 c 0.096573,0.08546 0.2212496,0.1328087 0.3503662,0.1328087 h 0.2619994 c 0.1013355,0 0.1445123,-0.1282697 0.064079,-0.1896527 L 6.8791666,8.2987182 v -0.096635 h 1.8520833 c 0.43815,0 0.79375,-0.3556 0.79375,-0.7937499 v -3.175 c 0,-0.43815 -0.3556,-0.79375 -0.79375,-0.79375 z"
     style="stroke-width:0.264583;fill:#a33e03;fill-opacity:1"
     sodipodi:nodetypes="sssscccssccccsscccsssss" />
  <path
     id="rect3254"
     style="opacity:1;fill:url(#linearGradient3505);stroke-width:0.264583;stroke-linejoin:round"
     d="m 3.9687499,3.7041667 h 4.7625 c 0.2931583,0 0.5291666,0.2360083 0.5291666,0.5291666 v 3.1749998 c 0,0.2931583 -0.2360083,0.5291667 -0.5291666,0.5291667 h -4.7625 c -0.2931583,0 -0.5291666,-0.2360084 -0.5291666,-0.5291667 V 4.2333333 c 0,-0.2931583 0.2360083,-0.5291666 0.5291666,-0.5291666 z" />
  <path
     id="rect4510"
     style="opacity:1;fill:#d36118;fill-opacity:1;stroke-width:0.999999;stroke-linejoin:round"
     d="M 16 16 C 15.446 16 15 16.446 15 17 C 15 17.554 15.446 18 16 18 L 32 18 C 32.554 18 33 17.554 33 17 C 33 16.446 32.554 16 32 16 L 16 16 z M 16 20 A 0.99999995 0.99999995 0 0 0 15 21 A 0.99999995 0.99999995 0 0 0 16 22 A 0.99999995 0.99999995 0 0 0 17 21 A 0.99999995 0.99999995 0 0 0 16 20 z M 16 23 A 0.99999995 0.99999995 0 0 0 15 24 A 0.99999995 0.99999995 0 0 0 16 25 A 0.99999995 0.99999995 0 0 0 17 24 A 0.99999995 0.99999995 0 0 0 16 23 z M 16 26 A 0.99999995 0.99999995 0 0 0 15 27 A 0.99999995 0.99999995 0 0 0 16 28 A 0.99999995 0.99999995 0 0 0 17 27 A 0.99999995 0.99999995 0 0 0 16 26 z "
     transform="scale(0.26458333)" />
  <rect
     style="opacity:1;fill:#e5723c;fill-opacity:1;stroke-width:0.264583;stroke-linejoin:round"
     id="rect4834"
     width="2.1166666"
     height="2.1166666"
     x="6.6145835"
     y="5.2916665"
     ry="0.52916664" />
  <rect
     style="opacity:1;fill:url(#linearGradient5247);fill-opacity:1;stroke-width:0.264583;stroke-linejoin:round"
     id="rect5239"
     width="1.5875"
     height="1.5875"
     x="6.8791671"
     y="5.5562501"
     ry="0.26458332" />
  <path
     id="rect5637"
     style="opacity:1;fill:url(#linearGradient5857);fill-opacity:1;stroke-width:0.999999;stroke-linejoin:round"
     d="M 19 20 C 18.446 20 18 20.446 18 21 C 18 21.554 18.446 22 19 22 L 22 22 C 22.554 22 23 21.554 23 21 C 23 20.446 22.554 20 22 20 L 19 20 z M 19 23 C 18.446 23 18 23.446 18 24 C 18 24.554 18.446 25 19 25 L 22 25 C 22.554 25 23 24.554 23 24 C 23 23.446 22.554 23 22 23 L 19 23 z M 19 26 C 18.446 26 18 26.446 18 27 C 18 27.554 18.446 28 19 28 L 22 28 C 22.554 28 23 27.554 23 27 C 23 26.446 22.554 26 22 26 L 19 26 z "
     transform="scale(0.26458333)" />
  <path
     style="color:#000000;fill:#b44910;stroke-width:0.264583;stroke-linecap:round;stroke-linejoin:round;-inkscape-stroke:none"
     d="M 8.3931551,5.5700695 A 0.13229166,0.13229166 0 0 0 8.2159028,5.6294976 L 7.8784559,6.30491 7.4671135,6.0992362 a 0.13230489,0.13230489 0 0 0 -0.1772523,0.059428 l -0.396875,0.79375 a 0.13229166,0.13229166 0 0 0 0.059428,0.1772523 0.13229166,0.13229166 0 0 0 0.1772524,-0.059428 L 7.4671135,6.394826 7.8784559,6.6004999 a 0.13230489,0.13230489 0 0 0 0.1772523,-0.059428 l 0.396875,-0.79375 A 0.13229166,0.13229166 0 0 0 8.3931551,5.5700695 Z"
     id="path94" />
  <path
     id="rect1565"
     style="opacity:1;fill:url(#linearGradient1873);fill-opacity:1;stroke-width:0.264583"
     d="m 4.5568277,0.79374997 c -3.5239635,0 -4.02766104,0.50133123 -4.02766104,4.01629243 v 2.8153318 c 0,3.5149478 0.50369754,4.0162928 4.02766104,4.0162928 h 3.5863445 c 3.5239638,0 4.0276608,-0.501345 4.0276608,-4.0162928 V 4.8100424 c 0,-3.5149612 -0.503697,-4.01629243 -4.0276608,-4.01629243 z m 0.081649,0.26458343 h 3.4230468 c 3.3637835,0 3.8447265,0.4769388 3.8447265,3.8204385 v 2.6778728 c 0,3.3434873 -0.480943,3.8204393 -3.8447265,3.8204393 h -3.423047 c -3.3637834,0 -3.84472651,-0.476952 -3.84472651,-3.8204393 V 4.8787719 c 0,-3.3434997 0.48094311,-3.8204385 3.84472671,-3.8204385 z" />
  <path
     id="rect1370"
     style="opacity:0.4;fill:#000000;fill-opacity:1;stroke-width:0.264583"
     d="m 4.4751788,0.52916667 c -3.68414336,0 -4.21059547,0.52624033 -4.21059547,4.21266273 v 2.9517578 c 0,3.6864088 0.52645211,4.2126628 4.21059547,4.2126628 H 8.224821 c 3.684144,0 4.210596,-0.526254 4.210596,-4.2126628 V 4.7418294 c 0,-3.6864224 -0.526452,-4.21266273 -4.210596,-4.21266273 z m 0.081649,0.2645833 h 3.5863445 c 3.5239637,0 4.0276607,0.50133143 4.0276607,4.01629243 v 2.8153318 c 0,3.5149478 -0.503697,4.0162928 -4.0276607,4.0162928 H 4.5568277 c -3.5239637,0 -4.02766104,-0.501345 -4.02766104,-4.0162928 V 4.8100424 c 0,-3.514961 0.50369724,-4.01629243 4.02766114,-4.01629243 z" />
</svg>
