<?xml version="1.0" encoding="UTF-8" standalone="no"?>
<!-- Created with Inkscape (http://www.inkscape.org/) -->

<svg
   width="48"
   height="48"
   viewBox="0 0 12.7 12.7"
   version="1.1"
   id="svg5"
   inkscape:version="1.1.2 (0a00cf5339, 2022-02-04)"
   sodipodi:docname="microsoft-edge-beta.svg"
   xmlns:inkscape="http://www.inkscape.org/namespaces/inkscape"
   xmlns:sodipodi="http://sodipodi.sourceforge.net/DTD/sodipodi-0.dtd"
   xmlns:xlink="http://www.w3.org/1999/xlink"
   xmlns="http://www.w3.org/2000/svg"
   xmlns:svg="http://www.w3.org/2000/svg">
  <sodipodi:namedview
     id="namedview7"
     pagecolor="#ffffff"
     bordercolor="#666666"
     borderopacity="1.0"
     inkscape:pageshadow="2"
     inkscape:pageopacity="0.0"
     inkscape:pagecheckerboard="0"
     inkscape:document-units="px"
     showgrid="false"
     units="px"
     inkscape:zoom="16.645833"
     inkscape:cx="24"
     inkscape:cy="24"
     inkscape:window-width="1920"
     inkscape:window-height="1019"
     inkscape:window-x="0"
     inkscape:window-y="0"
     inkscape:window-maximized="1"
     inkscape:current-layer="svg5" />
  <defs
     id="defs2">
    <linearGradient
       inkscape:collect="always"
       id="linearGradient1871">
      <stop
         style="stop-color:#ffffff;stop-opacity:1;"
         offset="0"
         id="stop1867" />
      <stop
         style="stop-color:#ffffff;stop-opacity:0.1"
         offset="0.12"
         id="stop2515" />
      <stop
         style="stop-color:#ffffff;stop-opacity:0.102"
         offset="0.89999998"
         id="stop2581" />
      <stop
         style="stop-color:#ffffff;stop-opacity:0.502"
         offset="1"
         id="stop1869" />
    </linearGradient>
    <linearGradient
       inkscape:collect="always"
       xlink:href="#linearGradient1871"
       id="linearGradient1873"
       x1="17.222656"
       y1="3.5"
       x2="17.222656"
       y2="44.466438"
       gradientUnits="userSpaceOnUse"
       gradientTransform="matrix(0.26458333,0,0,0.26458333,0,-0.13229166)" />
    <linearGradient
       id="linear-gradient"
       x1="63.330002"
       y1="84.029999"
       x2="241.67"
       y2="84.029999"
       gradientTransform="matrix(0.03513778,0,0,-0.03513778,1.6900983,11.025854)"
       gradientUnits="userSpaceOnUse">
      <stop
         offset="0"
         stop-color="#0c59a4"
         id="stop4" />
      <stop
         offset="1"
         stop-color="#114a8b"
         id="stop6" />
    </linearGradient>
    <radialGradient
       id="radial-gradient"
       cx="161.83"
       cy="68.910004"
       r="95.379997"
       gradientTransform="matrix(0.03513778,0,0,-0.03338089,1.6900983,10.42289)"
       gradientUnits="userSpaceOnUse">
      <stop
         offset="0.72"
         stop-opacity="0"
         id="stop9" />
      <stop
         offset="0.95"
         stop-opacity="0.53"
         id="stop11" />
      <stop
         offset="1"
         id="stop13" />
    </radialGradient>
    <linearGradient
       id="linear-gradient-2"
       x1="157.35001"
       y1="161.39"
       x2="45.959999"
       y2="40.060001"
       gradientTransform="matrix(0.03513778,0,0,-0.03513778,1.6900983,11.025854)"
       gradientUnits="userSpaceOnUse">
      <stop
         offset="0"
         stop-color="#1b9de2"
         id="stop16" />
      <stop
         offset="0.16"
         stop-color="#1595df"
         id="stop18" />
      <stop
         offset="0.67"
         stop-color="#0680d7"
         id="stop20" />
      <stop
         offset="1"
         stop-color="#0078d4"
         id="stop22" />
    </linearGradient>
    <radialGradient
       id="radial-gradient-2"
       cx="-340.29001"
       cy="62.990002"
       r="143.24001"
       gradientTransform="matrix(0.00527067,-0.0347864,-0.02811022,-0.00421653,7.8968353,-2.7270716)"
       gradientUnits="userSpaceOnUse">
      <stop
         offset="0.76"
         stop-opacity="0"
         id="stop25" />
      <stop
         offset="0.95"
         stop-opacity="0.5"
         id="stop27" />
      <stop
         offset="1"
         id="stop29" />
    </radialGradient>
    <radialGradient
       id="radial-gradient-3"
       cx="113.37"
       cy="570.21002"
       r="202.42999"
       gradientTransform="matrix(-0.00140551,0.03513778,0.07484347,0.00281102,-39.756317,-2.0696446)"
       gradientUnits="userSpaceOnUse">
      <stop
         offset="0"
         stop-color="#35c1f1"
         id="stop32" />
      <stop
         offset="0.11"
         stop-color="#34c1ed"
         id="stop34" />
      <stop
         offset="0.23"
         stop-color="#2fc2df"
         id="stop36" />
      <stop
         offset="0.31"
         stop-color="#2bc3d2"
         id="stop38" />
      <stop
         offset="0.67"
         stop-color="#36c752"
         id="stop40" />
    </radialGradient>
    <radialGradient
       id="radial-gradient-4"
       cx="376.51999"
       cy="567.96997"
       r="97.339996"
       gradientTransform="matrix(0.00983858,0.03373227,0.02740747,-0.00808169,-8.9833537,-3.5387546)"
       gradientUnits="userSpaceOnUse">
      <stop
         offset="0"
         stop-color="#66eb6e"
         id="stop43" />
      <stop
         offset="1"
         stop-color="#66eb6e"
         stop-opacity="0"
         id="stop45" />
    </radialGradient>
  </defs>
  <path
     id="rect3143"
     style="opacity:0.1;fill:#000000;fill-opacity:1;stroke-width:0.264583"
     d="m 4.5160033,1.0583334 c -3.60405388,0 -4.1191283,0.5137855 -4.1191283,4.1144775 v 2.883545 c 0,3.6006791 0.51507442,4.1144791 4.1191283,4.1144791 h 3.6679933 c 3.6040544,0 4.1191284,-0.5138 4.1191284,-4.1144791 v -2.883545 c 0,-3.600692 -0.515074,-4.1144775 -4.1191284,-4.1144775 z" />
  <path
     style="display:inline;fill:#ffffff;fill-opacity:1;stroke:none;stroke-width:0.0992187;stroke-linecap:round;stroke-linejoin:round;stroke-miterlimit:4;stroke-dasharray:none;stroke-dashoffset:0;stroke-opacity:1;enable-background:new"
     d="m 8.1839962,0.66145835 c 3.6040548,0 4.1191298,0.51378545 4.1191298,4.11447755 v 2.883545 c 0,3.6006781 -0.515075,4.1144781 -4.1191298,4.1144781 H 4.5160033 c -3.604054,0 -4.1191283,-0.5138 -4.1191283,-4.1144781 v -2.883545 c 0,-3.6006921 0.5150743,-4.11447755 4.1191283,-4.11447755 z"
     id="rect877"
     inkscape:connector-curvature="0"
     sodipodi:nodetypes="sssssssss" />
  <g
     id="g33244">
    <path
       class="cls-1"
       d="m 9.9713693,8.5472354 a 3.293464,3.293464 0 0 1 -0.370352,0.165499 3.5794855,3.5794855 0 0 1 -1.261446,0.22699 c -1.66272,0 -3.111099,-1.143735 -3.111099,-2.61144 a 1.1061373,1.1061373 0 0 1 0.577314,-0.959612 c -1.503897,0.06325 -1.890413,1.630393 -1.890413,2.548543 0,2.5959786 2.392532,2.8591606 2.908003,2.8591606 0.27794,0 0.697133,-0.08082 0.94872,-0.160228 l 0.04603,-0.01546 A 4.5095825,4.5095825 0 0 0 10.158302,8.7454124 0.14055111,0.14055111 0 0 0 9.9713693,8.5472354 Z"
       id="path52"
       style="fill:url(#linear-gradient);stroke-width:0.0351377" />
    <path
       class="cls-2"
       d="m 9.9713693,8.5472354 a 3.293464,3.293464 0 0 1 -0.370352,0.165499 3.5794855,3.5794855 0 0 1 -1.261446,0.22699 c -1.66272,0 -3.111099,-1.143735 -3.111099,-2.61144 a 1.1061373,1.1061373 0 0 1 0.577314,-0.959612 c -1.503897,0.06325 -1.890413,1.630393 -1.890413,2.548543 0,2.5959786 2.392532,2.8591606 2.908003,2.8591606 0.27794,0 0.697133,-0.08082 0.94872,-0.160228 l 0.04603,-0.01546 A 4.5095825,4.5095825 0 0 0 10.158302,8.7454124 0.14055111,0.14055111 0 0 0 9.9713693,8.5472354 Z"
       id="path54"
       style="opacity:0.35;isolation:isolate;fill:url(#radial-gradient);stroke-width:0.0351377" />
    <path
       class="cls-3"
       d="m 5.5672003,10.335046 a 2.7829121,2.7829121 0 0 1 -0.799033,-0.7498406 2.8363214,2.8363214 0 0 1 1.037619,-4.216533 c 0.10963,-0.05165 0.296914,-0.145119 0.546041,-0.140551 a 1.1367071,1.1367071 0 0 1 0.902689,0.456791 1.1201924,1.1201924 0 0 1 0.223477,0.655671 c 0,-0.0074 0.85947,-2.796968 -2.811023,-2.796968 -1.542548,0 -2.811022,1.46384 -2.811022,2.748126 a 4.5731818,4.5731818 0 0 0 0.425519,1.967716 4.4976356,4.4976356 0 0 0 5.494845,2.3580956 2.6546592,2.6546592 0 0 1 -2.205949,-0.281102 z"
       id="path56"
       style="fill:url(#linear-gradient-2);stroke-width:0.0351377" />
    <path
       class="cls-4"
       d="m 5.5672003,10.335046 a 2.7829121,2.7829121 0 0 1 -0.799033,-0.7498406 2.8363214,2.8363214 0 0 1 1.037619,-4.216533 c 0.10963,-0.05165 0.296914,-0.145119 0.546041,-0.140551 a 1.1367071,1.1367071 0 0 1 0.902689,0.456791 1.1201924,1.1201924 0 0 1 0.223477,0.655671 c 0,-0.0074 0.85947,-2.796968 -2.811023,-2.796968 -1.542548,0 -2.811022,1.46384 -2.811022,2.748126 a 4.5731818,4.5731818 0 0 0 0.425519,1.967716 4.4976356,4.4976356 0 0 0 5.494845,2.3580956 2.6546592,2.6546592 0 0 1 -2.205949,-0.281102 z"
       id="path58"
       style="opacity:0.41;isolation:isolate;fill:url(#radial-gradient-2);stroke-width:0.0351377" />
    <path
       class="cls-5"
       d="m 7.2046213,7.0826924 c -0.02846,0.03689 -0.115955,0.08784 -0.115955,0.19888 0,0.09171 0.05973,0.179906 0.16585,0.254047 0.505282,0.351377 1.457867,0.304995 1.460326,0.304995 a 2.092806,2.092806 0 0 0 1.063621,-0.2934 2.1567568,2.1567568 0 0 0 1.0692427,-1.858086 c 0.0091,-0.787437 -0.281103,-1.31099 -0.398463,-1.5429 -0.7445687,-1.45646 -2.3517707,-2.294145 -4.0995237,-2.294145 a 4.4976356,4.4976356 0 0 0 -4.497636,4.434387 c 0.01687,-1.283934 1.29307,-2.32085 2.811022,-2.32085 0.122982,0 0.824333,0.01195 1.475787,0.353838 0.574151,0.301482 0.874931,0.665509 1.084,1.026374 0.217152,0.37492 0.255803,0.848577 0.255803,1.037267 0,0.18869 -0.09628,0.468387 -0.274074,0.699593 z"
       id="path60"
       style="fill:url(#radial-gradient-3);stroke-width:0.0351377" />
    <path
       class="cls-6"
       d="m 7.2046213,7.0826924 c -0.02846,0.03689 -0.115955,0.08784 -0.115955,0.19888 0,0.09171 0.05973,0.179906 0.16585,0.254047 0.505282,0.351377 1.457867,0.304995 1.460326,0.304995 0.374403,-9.03e-4 0.741708,-0.10222 1.063621,-0.2934 0.6607897,-0.385833 1.0676747,-1.092901 1.0692427,-1.858086 0.0091,-0.787437 -0.281103,-1.31099 -0.398463,-1.5429 -0.7445687,-1.45646 -2.3517707,-2.294145 -4.0995237,-2.294145 -2.459484,-2.39e-4 -4.46305,1.975147 -4.497636,4.434387 0.01687,-1.283934 1.29307,-2.32085 2.811022,-2.32085 0.122982,0 0.824333,0.01195 1.475787,0.353838 0.574151,0.301482 0.874931,0.665509 1.084,1.026374 0.217152,0.37492 0.255803,0.848577 0.255803,1.037267 0,0.18869 -0.09628,0.468387 -0.274074,0.699593 z"
       id="path62"
       sodipodi:nodetypes="cscccccccsccsc"
       style="fill:url(#radial-gradient-4);stroke-width:0.0351377" />
  </g>
  <g
     id="g949">
    <path
       id="rect13902"
       style="fill:#50e6ff;fill-opacity:1;stroke-width:0.264583;stroke-linejoin:round"
       d="m 4.8947917,8.2020833 h 5.5562503 c 0.219869,0 0.396875,0.177005 0.396875,0.396875 v 1.8520827 c 0,0.219869 -0.177006,0.396875 -0.396875,0.396875 H 4.8947917 c -0.219869,0 -0.396875,-0.177006 -0.396875,-0.396875 V 8.5989583 c 0,-0.21987 0.177006,-0.396875 0.396875,-0.396875 z" />
    <path
       d="m 5.3710417,8.7973953 v 1.4552087 h 0.558848 c 0.165073,0 0.295413,-0.03873 0.390803,-0.11653 0.09539,-0.07848 0.143176,-0.1843414 0.143176,-0.3176174 0,-0.09133 -0.0312,-0.1687564 -0.09344,-0.2323504 -0.06156,-0.06359 -0.144118,-0.101898 -0.247626,-0.114753 v -0.0043 c 0.08254,-0.023 0.150093,-0.06371 0.202862,-0.122571 0.05345,-0.05886 0.08029,-0.127583 0.08029,-0.206059 0,-0.108245 -0.04347,-0.192001 -0.130741,-0.2515359 -0.08727,-0.05954 -0.212094,-0.08953 -0.37446,-0.08953 z m 1.332283,0 v 1.4552087 h 0.872557 V 9.9868576 H 7.0312437 V 9.6539642 h 0.475714 v -0.265746 h -0.475714 v -0.324011 h 0.511242 V 8.7973953 Z m 0.989442,0 v 0.2668119 h 0.41283 v 1.1883968 h 0.328986 V 9.0642072 h 0.414962 V 8.7973953 Z m 1.580977,0 -0.529716,1.4552087 h 0.355275 l 0.102319,-0.3236564 h 0.517637 l 0.103386,0.3236564 H 10.180051 L 9.6624147,8.7973953 Z m -3.575138,0.2415869 h 0.122925 c 0.159661,0 0.239456,0.05334 0.239456,0.160229 0,0.0575 -0.01974,0.10292 -0.05898,0.136071 -0.03856,0.03247 -0.09151,0.04868 -0.159164,0.04868 h -0.144241 z m 3.756683,0.01812 h 0.0082 c 0.0047,0.05074 0.01301,0.09456 0.02452,0.131096 l 0.156322,0.489215 h -0.37272 l 0.158453,-0.493478 c 0.01352,-0.04194 0.02184,-0.08421 0.02523,-0.126833 z m -3.756683,0.570573 h 0.179769 c 0.07577,0 0.134627,0.01659 0.176572,0.04974 0.04262,0.03315 0.06395,0.0786 0.06395,0.1367814 0,0.06088 -0.02172,0.10906 -0.06502,0.144241 -0.04262,0.03518 -0.101866,0.05258 -0.177637,0.05258 h -0.177638 z"
       style="font-weight:bold;font-size:3.02297px;line-height:1.25;font-family:'Segoe UI';-inkscape-font-specification:'Segoe UI Bold';stroke-width:0.0519573"
       id="path14212" />
  </g>
  <path
     id="rect1370"
     style="opacity:0.4;fill:#000000;fill-opacity:1;stroke-width:0.264583"
     d="m 4.4751788,0.52916667 c -3.68414336,0 -4.21059547,0.52624033 -4.21059547,4.21266273 v 2.9517578 c 0,3.6864088 0.52645211,4.2126628 4.21059547,4.2126628 H 8.224821 c 3.684144,0 4.210596,-0.526254 4.210596,-4.2126628 V 4.7418294 c 0,-3.6864224 -0.526452,-4.21266273 -4.210596,-4.21266273 z m 0.081649,0.2645833 h 3.5863445 c 3.5239637,0 4.0276607,0.50133143 4.0276607,4.01629243 v 2.8153318 c 0,3.5149478 -0.503697,4.0162928 -4.0276607,4.0162928 H 4.5568277 c -3.5239637,0 -4.02766104,-0.501345 -4.02766104,-4.0162928 V 4.8100424 c 0,-3.514961 0.50369724,-4.01629243 4.02766114,-4.01629243 z" />
  <path
     id="rect1565"
     style="fill:url(#linearGradient1873);fill-opacity:1;stroke-width:0.264583;opacity:0.4"
     d="m 4.5568277,0.79374997 c -3.5239635,0 -4.02766104,0.50133123 -4.02766104,4.01629243 v 2.8153318 c 0,3.5149478 0.50369754,4.0162928 4.02766104,4.0162928 h 3.5863445 c 3.5239638,0 4.0276608,-0.501345 4.0276608,-4.0162928 V 4.8100424 c 0,-3.5149612 -0.503697,-4.01629243 -4.0276608,-4.01629243 z m 0.081649,0.26458343 h 3.4230468 c 3.3637835,0 3.8447265,0.4769388 3.8447265,3.8204385 v 2.6778728 c 0,3.3434873 -0.480943,3.8204393 -3.8447265,3.8204393 h -3.423047 c -3.3637834,0 -3.84472651,-0.476952 -3.84472651,-3.8204393 V 4.8787719 c 0,-3.3434997 0.48094311,-3.8204385 3.84472671,-3.8204385 z" />
</svg>
