<?xml version="1.0" encoding="UTF-8" standalone="no"?>
<!-- Created with Inkscape (http://www.inkscape.org/) -->

<svg
   width="48"
   height="48"
   viewBox="0 0 12.7 12.7"
   version="1.1"
   id="svg5"
   inkscape:version="1.1.2 (0a00cf5339, 2022-02-04)"
   sodipodi:docname="color.svg"
   xmlns:inkscape="http://www.inkscape.org/namespaces/inkscape"
   xmlns:sodipodi="http://sodipodi.sourceforge.net/DTD/sodipodi-0.dtd"
   xmlns:xlink="http://www.w3.org/1999/xlink"
   xmlns="http://www.w3.org/2000/svg"
   xmlns:svg="http://www.w3.org/2000/svg">
  <sodipodi:namedview
     id="namedview7"
     pagecolor="#ffffff"
     bordercolor="#666666"
     borderopacity="1.0"
     inkscape:pageshadow="2"
     inkscape:pageopacity="0.0"
     inkscape:pagecheckerboard="0"
     inkscape:document-units="px"
     showgrid="false"
     units="px"
     inkscape:zoom="12.445079"
     inkscape:cx="20.530203"
     inkscape:cy="24.748737"
     inkscape:window-width="1920"
     inkscape:window-height="1010"
     inkscape:window-x="0"
     inkscape:window-y="0"
     inkscape:window-maximized="1"
     inkscape:current-layer="svg5" />
  <defs
     id="defs2">
    <linearGradient
       inkscape:collect="always"
       id="linearGradient1871">
      <stop
         style="stop-color:#ffffff;stop-opacity:1;"
         offset="0"
         id="stop1867" />
      <stop
         style="stop-color:#ffffff;stop-opacity:0.1"
         offset="0.12"
         id="stop2515" />
      <stop
         style="stop-color:#ffffff;stop-opacity:0.102"
         offset="0.89999998"
         id="stop2581" />
      <stop
         style="stop-color:#ffffff;stop-opacity:0.502"
         offset="1"
         id="stop1869" />
    </linearGradient>
    <linearGradient
       inkscape:collect="always"
       xlink:href="#linearGradient1871"
       id="linearGradient1873"
       x1="17.222656"
       y1="3.5"
       x2="17.222656"
       y2="44.466438"
       gradientUnits="userSpaceOnUse"
       gradientTransform="matrix(0.26458333,0,0,0.26458333,0,-0.13229166)" />
    <radialGradient
       inkscape:collect="always"
       xlink:href="#linearGradient1603"
       id="radialGradient1454"
       cx="-4.5056305"
       cy="2.1946039"
       fx="-4.5056305"
       fy="2.1946039"
       r="3.7041667"
       gradientUnits="userSpaceOnUse"
       gradientTransform="matrix(-6.3867035,5.7448074,-7.7661309,-8.6338798,-8.1691805,48.295113)" />
    <linearGradient
       inkscape:collect="always"
       id="linearGradient1603">
      <stop
         style="stop-color:#ff910c;stop-opacity:1;"
         offset="0"
         id="stop1599" />
      <stop
         style="stop-color:#ff910c;stop-opacity:0;"
         offset="1"
         id="stop1601" />
    </linearGradient>
    <radialGradient
       inkscape:collect="always"
       xlink:href="#linearGradient3954"
       id="radialGradient3956"
       cx="14.816666"
       cy="15.345833"
       fx="14.816666"
       fy="15.345833"
       r="7.4083333"
       gradientUnits="userSpaceOnUse"
       gradientTransform="matrix(3.1486088,-3.1283096,3.5570459,3.5801284,-57.952014,36.30391)" />
    <linearGradient
       inkscape:collect="always"
       id="linearGradient3954">
      <stop
         style="stop-color:#24c2f5;stop-opacity:1;"
         offset="0"
         id="stop3950" />
      <stop
         style="stop-color:#24c2f5;stop-opacity:0;"
         offset="1"
         id="stop3952" />
    </linearGradient>
    <radialGradient
       inkscape:collect="always"
       xlink:href="#linearGradient5569"
       id="radialGradient5571"
       cx="1.5874997"
       cy="15.345834"
       fx="1.5874997"
       fy="15.345834"
       r="7.4083333"
       gradientUnits="userSpaceOnUse"
       gradientTransform="matrix(3.1688971,-3.0745948,3.7412087,3.8559579,-59.335446,-9.3991192)" />
    <linearGradient
       inkscape:collect="always"
       id="linearGradient5569">
      <stop
         style="stop-color:#f5cc24;stop-opacity:1;"
         offset="0"
         id="stop5565" />
      <stop
         style="stop-color:#f5cc24;stop-opacity:0.00045133"
         offset="1"
         id="stop5567" />
    </linearGradient>
    <radialGradient
       inkscape:collect="always"
       xlink:href="#linearGradient7221"
       id="radialGradient7223"
       cx="8.4666662"
       cy="2.1573725"
       fx="8.4666662"
       fy="2.1573725"
       r="7.4083333"
       gradientUnits="userSpaceOnUse"
       gradientTransform="matrix(-3.037121,1.3033634e-5,-1.0604671e-6,-3.4709946,49.714303,8.9881187)" />
    <linearGradient
       inkscape:collect="always"
       id="linearGradient7221">
      <stop
         style="stop-color:#ff2a2a;stop-opacity:1"
         offset="0"
         id="stop7217" />
      <stop
         style="stop-color:#ff2929;stop-opacity:0.00392157"
         offset="1"
         id="stop7219" />
    </linearGradient>
    <radialGradient
       inkscape:collect="always"
       xlink:href="#linearGradient10051"
       id="radialGradient10053"
       cx="15.345833"
       cy="1.5874997"
       fx="15.345833"
       fy="1.5874997"
       r="7.4083333"
       gradientUnits="userSpaceOnUse"
       gradientTransform="matrix(-2.5475002,-2.4441146,3.0872708,-3.2178634,79.085356,45.722442)" />
    <linearGradient
       inkscape:collect="always"
       id="linearGradient10051">
      <stop
         style="stop-color:#aa3ad4;stop-opacity:1"
         offset="0"
         id="stop10047" />
      <stop
         style="stop-color:#aa3ad4;stop-opacity:0"
         offset="1"
         id="stop10049" />
    </linearGradient>
    <radialGradient
       inkscape:collect="always"
       xlink:href="#linearGradient15132"
       id="radialGradient15134"
       cx="20.066483"
       cy="4.0683722"
       fx="20.066483"
       fy="4.0683722"
       r="7.4083328"
       gradientUnits="userSpaceOnUse"
       gradientTransform="matrix(0,3.0371204,-3.0371204,0,13.85614,-36.944328)" />
    <linearGradient
       inkscape:collect="always"
       id="linearGradient15132">
      <stop
         style="stop-color:#f5e224;stop-opacity:1;"
         offset="0"
         id="stop15128" />
      <stop
         style="stop-color:#f5e224;stop-opacity:0;"
         offset="1"
         id="stop15130" />
    </linearGradient>
    <radialGradient
       inkscape:collect="always"
       xlink:href="#linearGradient12059"
       id="radialGradient12061"
       cx="8.4666662"
       cy="15.875"
       fx="8.4666662"
       fy="15.875"
       r="7.4083333"
       gradientUnits="userSpaceOnUse"
       gradientTransform="matrix(3.0371204,0,0,3.0371204,-1.7142879,-1.714286)" />
    <linearGradient
       inkscape:collect="always"
       id="linearGradient12059">
      <stop
         style="stop-color:#47c12a;stop-opacity:1;"
         offset="0"
         id="stop12055" />
      <stop
         style="stop-color:#47c12a;stop-opacity:0;"
         offset="1"
         id="stop12057" />
    </linearGradient>
  </defs>
  <path
     id="rect3143"
     style="opacity:0.1;fill:#000000;fill-opacity:1;stroke-width:0.264583"
     d="m 4.5160033,1.0583334 c -3.60405388,0 -4.1191283,0.5137855 -4.1191283,4.1144775 v 2.883545 c 0,3.6006791 0.51507442,4.1144791 4.1191283,4.1144791 h 3.6679933 c 3.6040544,0 4.1191284,-0.5138 4.1191284,-4.1144791 v -2.883545 c 0,-3.600692 -0.515074,-4.1144775 -4.1191284,-4.1144775 z" />
  <path
     id="rect11481-5"
     style="fill:#ffffff;fill-opacity:1;stroke-width:0.539108;stroke-linecap:round;stroke-linejoin:round"
     d="M 17.068359 2.5 C 3.4467386 2.5 1.5 4.4418662 1.5 18.050781 L 1.5 28.949219 C 1.5 42.558077 3.4467386 44.5 17.068359 44.5 L 30.931641 44.5 C 44.553263 44.5 46.5 42.558077 46.5 28.949219 L 46.5 18.050781 C 46.5 4.4418662 44.553263 2.5 30.931641 2.5 L 17.068359 2.5 z "
     transform="scale(0.26458333)" />
  <path
     id="rect1278"
     style="fill:url(#radialGradient1454);stroke-width:14.4643;stroke-linecap:round;stroke-linejoin:round"
     d="M 17.068359 2.5 C 3.446738 2.5 1.5 4.4418662 1.5 18.050781 L 1.5 28.949219 C 1.5 42.558081 3.446738 44.5 17.068359 44.5 L 30.931641 44.5 C 44.553265 44.5 46.5 42.558081 46.5 28.949219 L 46.5 18.050781 C 46.5 4.4418662 44.553265 2.5 30.931641 2.5 L 17.068359 2.5 z "
     transform="scale(0.26458333)" />
  <path
     id="rect2770"
     style="fill:url(#radialGradient3956);stroke-width:0.539108;stroke-linecap:round;stroke-linejoin:round"
     d="M 17.068359 2.5 C 3.446738 2.5 1.5 4.4418658 1.5 18.050781 L 1.5 28.949219 C 1.5 42.55808 3.446738 44.5 17.068359 44.5 L 30.931641 44.5 C 44.553265 44.5 46.5 42.558081 46.5 28.949219 L 46.5 18.050781 C 46.5 4.4418658 44.553265 2.5 30.931641 2.5 L 17.068359 2.5 z "
     transform="scale(0.26458333)" />
  <path
     id="rect4922"
     style="fill:url(#radialGradient5571);stroke-width:0.539108;stroke-linecap:round;stroke-linejoin:round"
     d="M 17.068359 2.5 C 3.446738 2.5 1.5 4.4418662 1.5 18.050781 L 1.5 28.949219 C 1.5 42.558081 3.446738 44.5 17.068359 44.5 L 30.931641 44.5 C 44.553265 44.5 46.5 42.558081 46.5 28.949219 L 46.5 18.050781 C 46.5 4.4418662 44.553265 2.5 30.931641 2.5 L 17.068359 2.5 z "
     transform="scale(0.26458333)" />
  <path
     id="rect5961"
     style="fill:url(#radialGradient7223);stroke-width:0.539108;stroke-linecap:round;stroke-linejoin:round"
     d="M 17.068359 2.5 C 3.4467379 2.5 1.5 4.4418662 1.5 18.050781 L 1.5 28.949219 C 1.5 42.558081 3.4467379 44.5 17.068359 44.5 L 30.931641 44.5 C 44.553265 44.5 46.5 42.558081 46.5 28.949219 L 46.5 18.050781 C 46.5 4.4418662 44.553265 2.5 30.931641 2.5 L 17.068359 2.5 z "
     transform="scale(0.26458333)" />
  <path
     id="rect8637"
     style="fill:url(#radialGradient10053);stroke-width:0.539108;stroke-linecap:round;stroke-linejoin:round"
     d="M 17.068359 2.5 C 3.4467378 2.5 1.5 4.4418662 1.5 18.050781 L 1.5 28.949219 C 1.5 42.558081 3.4467378 44.5 17.068359 44.5 L 30.931641 44.5 C 44.553265 44.5 46.5 42.558081 46.5 28.949219 L 46.5 18.050781 C 46.5 4.4418662 44.553265 2.5 30.931641 2.5 L 17.068359 2.5 z "
     transform="scale(0.26458333)" />
  <path
     id="rect14620"
     style="fill:url(#radialGradient15134);stroke-width:0.539108;stroke-linecap:round;stroke-linejoin:round"
     d="M 17.068359 2.5 C 3.4467379 2.5 1.5 4.4418662 1.5 18.050781 L 1.5 28.949219 C 1.5 42.558081 3.4467379 44.5 17.068359 44.5 L 30.931641 44.5 C 44.553265 44.5 46.5 42.558081 46.5 28.949219 L 46.5 18.050781 C 46.5 4.4418662 44.553265 2.5 30.931641 2.5 L 17.068359 2.5 z "
     transform="scale(0.26458333)" />
  <path
     id="rect11481"
     style="fill:url(#radialGradient12061);stroke-width:0.539108;stroke-linecap:round;stroke-linejoin:round"
     d="M 17.068359,2.5 C 3.446738,2.5 1.5,4.4418662 1.5,18.050781 V 28.949219 C 1.5,42.558081 3.446738,44.5 17.068359,44.5 H 30.931641 C 44.553265,44.5 46.5,42.558081 46.5,28.949219 V 18.050781 C 46.5,4.4418662 44.553265,2.5 30.931641,2.5 Z"
     transform="scale(0.26458333)"
     sodipodi:nodetypes="sssssssss" />
  <path
     id="rect1370"
     style="opacity:0.4;fill:#000000;fill-opacity:1;stroke-width:0.264583"
     d="m 4.4751788,0.52916667 c -3.68414336,0 -4.21059547,0.52624033 -4.21059547,4.21266273 v 2.9517578 c 0,3.6864088 0.52645211,4.2126628 4.21059547,4.2126628 H 8.224821 c 3.684144,0 4.210596,-0.526254 4.210596,-4.2126628 V 4.7418294 c 0,-3.6864224 -0.526452,-4.21266273 -4.210596,-4.21266273 z m 0.081649,0.2645833 h 3.5863445 c 3.5239637,0 4.0276607,0.50133143 4.0276607,4.01629243 v 2.8153318 c 0,3.5149478 -0.503697,4.0162928 -4.0276607,4.0162928 H 4.5568277 c -3.5239637,0 -4.02766104,-0.501345 -4.02766104,-4.0162928 V 4.8100424 c 0,-3.514961 0.50369724,-4.01629243 4.02766114,-4.01629243 z" />
  <path
     id="rect1565"
     style="opacity:1;fill:url(#linearGradient1873);fill-opacity:1;stroke-width:0.264583"
     d="m 4.5568277,0.79374997 c -3.5239635,0 -4.02766104,0.50133123 -4.02766104,4.01629243 v 2.8153318 c 0,3.5149478 0.50369754,4.0162928 4.02766104,4.0162928 h 3.5863445 c 3.5239638,0 4.0276608,-0.501345 4.0276608,-4.0162928 V 4.8100424 c 0,-3.5149612 -0.503697,-4.01629243 -4.0276608,-4.01629243 z m 0.081649,0.26458343 h 3.4230468 c 3.3637835,0 3.8447265,0.4769388 3.8447265,3.8204385 v 2.6778728 c 0,3.3434873 -0.480943,3.8204393 -3.8447265,3.8204393 h -3.423047 c -3.3637834,0 -3.84472651,-0.476952 -3.84472651,-3.8204393 V 4.8787719 c 0,-3.3434997 0.48094311,-3.8204385 3.84472671,-3.8204385 z" />
</svg>
