<?xml version="1.0" encoding="UTF-8" standalone="no"?>
<!-- Created with Inkscape (http://www.inkscape.org/) -->

<svg
   width="48"
   height="48"
   viewBox="0 0 12.7 12.7"
   version="1.1"
   id="svg5"
   inkscape:version="1.1.2 (0a00cf5339, 2022-02-04)"
   sodipodi:docname="preferences-desktop-keyboard-shortcuts.svg"
   xmlns:inkscape="http://www.inkscape.org/namespaces/inkscape"
   xmlns:sodipodi="http://sodipodi.sourceforge.net/DTD/sodipodi-0.dtd"
   xmlns:xlink="http://www.w3.org/1999/xlink"
   xmlns="http://www.w3.org/2000/svg"
   xmlns:svg="http://www.w3.org/2000/svg">
  <sodipodi:namedview
     id="namedview7"
     pagecolor="#ffffff"
     bordercolor="#666666"
     borderopacity="1.0"
     inkscape:pageshadow="2"
     inkscape:pageopacity="0.0"
     inkscape:pagecheckerboard="0"
     inkscape:document-units="px"
     showgrid="false"
     units="px"
     inkscape:zoom="17.863634"
     inkscape:cx="24.01527"
     inkscape:cy="24.04326"
     inkscape:window-width="1920"
     inkscape:window-height="1012"
     inkscape:window-x="0"
     inkscape:window-y="0"
     inkscape:window-maximized="1"
     inkscape:current-layer="svg5" />
  <defs
     id="defs2">
    <linearGradient
       inkscape:collect="always"
       id="linearGradient3598">
      <stop
         style="stop-color:#a7a7a7;stop-opacity:1"
         offset="0"
         id="stop3594" />
      <stop
         style="stop-color:#d9d9d9;stop-opacity:1"
         offset="1"
         id="stop3596" />
    </linearGradient>
    <linearGradient
       inkscape:collect="always"
       id="linearGradient1871">
      <stop
         style="stop-color:#ffffff;stop-opacity:1;"
         offset="0"
         id="stop1867" />
      <stop
         style="stop-color:#ffffff;stop-opacity:0.1"
         offset="0.12"
         id="stop2515" />
      <stop
         style="stop-color:#ffffff;stop-opacity:0.102"
         offset="0.89999998"
         id="stop2581" />
      <stop
         style="stop-color:#ffffff;stop-opacity:0.502"
         offset="1"
         id="stop1869" />
    </linearGradient>
    <linearGradient
       inkscape:collect="always"
       xlink:href="#linearGradient1871"
       id="linearGradient1873"
       x1="17.222656"
       y1="3.5"
       x2="17.222656"
       y2="44.466438"
       gradientUnits="userSpaceOnUse"
       gradientTransform="matrix(0.26458333,0,0,0.26458333,0,-0.13229166)" />
    <linearGradient
       inkscape:collect="always"
       xlink:href="#linearGradient3598"
       id="linearGradient3600"
       x1="4.5184035"
       y1="0.66749942"
       x2="4.5241141"
       y2="11.554838"
       gradientUnits="userSpaceOnUse" />
  </defs>
  <path
     id="rect3143"
     style="opacity:0.1;fill:#000000;fill-opacity:1;stroke-width:0.264583"
     d="m 4.5160033,1.0583334 c -3.60405388,0 -4.1191283,0.5137855 -4.1191283,4.1144775 v 2.883545 c 0,3.6006791 0.51507442,4.1144791 4.1191283,4.1144791 h 3.6679933 c 3.6040544,0 4.1191284,-0.5138 4.1191284,-4.1144791 v -2.883545 c 0,-3.600692 -0.515074,-4.1144775 -4.1191284,-4.1144775 z" />
  <path
     style="display:inline;fill:url(#linearGradient3600);fill-opacity:1;stroke:none;stroke-width:0.0992187;stroke-linecap:round;stroke-linejoin:round;stroke-miterlimit:4;stroke-dasharray:none;stroke-dashoffset:0;stroke-opacity:1;enable-background:new"
     d="m 8.1839962,0.66145835 c 3.6040548,0 4.1191298,0.51378545 4.1191298,4.11447755 v 2.883545 c 0,3.6006781 -0.515075,4.1144781 -4.1191298,4.1144781 H 4.5160033 c -3.604054,0 -4.1191283,-0.5138 -4.1191283,-4.1144781 v -2.883545 c 0,-3.6006921 0.5150743,-4.11447755 4.1191283,-4.11447755 z"
     id="rect877"
     inkscape:connector-curvature="0"
     sodipodi:nodetypes="sssssssss" />
  <path
     d="M 2.1166667,4.2333334 V 5.2916667 H 3.175 V 4.2333334 Z m 1.8520833,0 V 5.2916667 H 5.0270834 V 4.2333334 Z m 1.8520835,0 V 5.2916667 H 6.8791669 V 4.2333334 Z m 1.8520834,0 V 5.2916667 H 8.7312502 V 4.2333334 Z m 1.8520834,0 V 5.2916667 H 10.583335 V 4.2333334 Z M 2.9104167,6.0854167 V 7.14375 H 3.96875 V 6.0854167 Z m 1.8520833,0 V 7.14375 H 5.8208335 V 6.0854167 Z m 1.8520835,0 V 7.14375 H 7.6729169 V 6.0854167 Z m 1.8520834,0 V 7.14375 H 9.5250003 V 6.0854167 Z M 2.1166667,7.9375 V 8.9958334 H 3.175 V 7.9375 Z m 1.8520833,0 V 8.9958334 H 8.7312502 V 7.9375 Z m 5.5562503,0 V 8.9958334 H 10.583335 V 7.9375 Z"
     style="opacity:0.25;fill:#000000;stroke-width:0.264583;enable-background:new"
     id="path1121" />
  <path
     d="M 2.1166667,3.7041667 C 1.9705474,3.7041812 1.8520979,3.8226307 1.8520833,3.96875 v 1.0583334 c 1.46e-5,0.1461193 0.1184641,0.2645687 0.2645834,0.2645833 H 3.175 C 3.3211193,5.2916521 3.4395688,5.1732027 3.4395833,5.0270834 V 3.96875 C 3.4395688,3.8226307 3.3211193,3.7041812 3.175,3.7041667 Z m 1.8520833,0 C 3.8226307,3.7041812 3.7041812,3.8226307 3.7041667,3.96875 v 1.0583334 c 1.45e-5,0.1461193 0.118464,0.2645687 0.2645833,0.2645833 H 5.0270834 C 5.1732027,5.2916521 5.2916522,5.1732027 5.2916667,5.0270834 V 3.96875 C 5.2916522,3.8226307 5.1732027,3.7041812 5.0270834,3.7041667 Z m 1.8520835,0 C 5.6747142,3.7041812 5.5562646,3.8226307 5.5562501,3.96875 v 1.0583334 c 1.45e-5,0.1461193 0.1184641,0.2645687 0.2645834,0.2645833 H 6.8791669 C 7.0252862,5.2916521 7.1437356,5.1732027 7.1437502,5.0270834 V 3.96875 C 7.1437356,3.8226307 7.0252862,3.7041812 6.8791669,3.7041667 Z m 1.8520834,0 C 7.5267976,3.7041812 7.4083481,3.8226307 7.4083335,3.96875 v 1.0583334 c 1.46e-5,0.1461193 0.1184641,0.2645687 0.2645834,0.2645833 H 8.7312502 C 8.8773696,5.2916521 8.995819,5.1732027 8.9958336,5.0270834 V 3.96875 C 8.995819,3.8226307 8.8773696,3.7041812 8.7312502,3.7041667 Z m 1.8520834,0 C 9.3788809,3.7041812 9.2604315,3.8226307 9.2604169,3.96875 v 1.0583334 c 1.46e-5,0.1461193 0.118464,0.2645687 0.2645834,0.2645833 h 1.0583347 c 0.146119,-1.46e-5 0.264568,-0.118464 0.264583,-0.2645833 V 3.96875 C 10.847903,3.8226307 10.729454,3.7041812 10.583335,3.7041667 Z M 2.38125,4.2333334 H 2.9104167 V 4.7625001 H 2.38125 Z m 1.8520834,0 H 4.7625 V 4.7625001 H 4.2333334 Z m 1.8520834,0 H 6.6145835 V 4.7625001 H 6.0854168 Z m 1.8520834,0 H 8.4666669 V 4.7625001 H 7.9375002 Z m 1.8520834,0 H 10.318751 V 4.7625001 H 9.7895836 Z M 2.9104167,5.55625 C 2.7642974,5.5562646 2.6458479,5.674714 2.6458334,5.8208334 v 1.0583333 c 1.45e-5,0.1461194 0.118464,0.2645688 0.2645833,0.2645834 H 3.96875 C 4.1148693,7.1437355 4.2333188,7.0252861 4.2333334,6.8791667 V 5.8208334 C 4.2333188,5.674714 4.1148693,5.5562646 3.96875,5.55625 Z m 1.8520833,0 C 4.6163807,5.5562646 4.4979313,5.674714 4.4979167,5.8208334 V 6.8791667 C 4.4979313,7.0252861 4.6163807,7.1437355 4.7625,7.1437501 H 5.8208335 C 5.9669528,7.1437355 6.0854023,7.0252861 6.0854168,6.8791667 V 5.8208334 C 6.0854023,5.674714 5.9669528,5.5562646 5.8208335,5.55625 Z m 1.8520835,0 C 6.4684642,5.5562646 6.3500147,5.674714 6.3500002,5.8208334 v 1.0583333 c 1.45e-5,0.1461194 0.118464,0.2645688 0.2645833,0.2645834 H 7.6729169 C 7.8190362,7.1437355 7.9374857,7.0252861 7.9375002,6.8791667 V 5.8208334 C 7.9374857,5.674714 7.8190362,5.5562646 7.6729169,5.55625 Z m 1.8520834,0 C 8.3205476,5.5562646 8.2020981,5.674714 8.2020836,5.8208334 v 1.0583333 c 1.45e-5,0.1461194 0.118464,0.2645688 0.2645833,0.2645834 H 9.5250003 C 9.6711196,7.1437355 9.789569,7.0252861 9.7895836,6.8791667 V 5.8208334 C 9.789569,5.674714 9.6711196,5.5562646 9.5250003,5.55625 Z M 3.175,6.0854167 H 3.7041667 V 6.6145834 H 3.175 Z m 1.8520834,0 H 5.5562501 V 6.6145834 H 5.0270834 Z m 1.8520835,0 H 7.4083335 V 6.6145834 H 6.8791669 Z m 1.8520833,0 H 9.2604169 V 6.6145834 H 8.7312502 Z M 2.1166667,7.4083334 C 1.9705474,7.408348 1.8520979,7.5267974 1.8520833,7.6729167 v 1.0583334 c 1.46e-5,0.1461193 0.1184641,0.2645688 0.2645834,0.2645833 H 3.175 C 3.3211193,8.9958189 3.4395688,8.8773694 3.4395833,8.7312501 V 7.6729167 C 3.4395688,7.5267974 3.3211193,7.408348 3.175,7.4083334 Z m 1.8520833,0 C 3.8226307,7.408348 3.7041812,7.5267974 3.7041667,7.6729167 v 1.0583334 c 1.45e-5,0.1461193 0.118464,0.2645688 0.2645833,0.2645833 H 8.7312502 C 8.8773696,8.9958189 8.995819,8.8773694 8.9958336,8.7312501 V 7.6729167 C 8.995819,7.5267974 8.8773696,7.408348 8.7312502,7.4083334 Z m 5.5562503,0 C 9.3788809,7.408348 9.2604315,7.5267974 9.2604169,7.6729167 v 1.0583334 c 1.46e-5,0.1461193 0.118464,0.2645688 0.2645834,0.2645833 h 1.0583347 c 0.146119,-1.45e-5 0.264568,-0.118464 0.264583,-0.2645833 V 7.6729167 C 10.847903,7.5267974 10.729454,7.408348 10.583335,7.4083334 Z M 2.38125,7.9375001 H 2.9104167 V 8.4666667 H 2.38125 Z m 1.8520834,0 H 8.4666669 V 8.4666667 H 4.2333334 Z m 5.5562502,0 H 10.318751 V 8.4666667 H 9.7895836 Z"
     style="color:#000000;opacity:0.05;fill:#000000;stroke-width:0.264583;stroke-linejoin:round;-inkscape-stroke:none"
     id="path1455" />
  <path
     d="M 5.8208335,3.96875 V 5.0270834 H 6.8791669 V 3.96875 Z m 1.8520834,0 V 5.0270834 H 8.7312502 V 3.96875 Z m 1.8520834,0 V 5.0270834 H 10.583335 V 3.96875 Z M 4.7625,5.8208334 V 6.8791667 H 5.8208335 V 5.8208334 Z m 1.8520835,0 V 6.8791667 H 7.6729169 V 5.8208334 Z m 1.8520834,0 V 6.8791667 H 9.5250003 V 5.8208334 Z M 2.1166667,7.6729167 V 8.7312501 H 3.175 V 7.6729167 Z m 1.8520833,0 V 8.7312501 H 8.7312502 V 7.6729167 Z m 5.5562503,0 V 8.7312501 H 10.583335 V 7.6729167 Z"
     style="fill:#f7f7f7;stroke-width:0.264583;enable-background:new"
     id="path881"
     sodipodi:nodetypes="ccccccccccccccccccccccccccccccccccccccccccccc" />
  <path
     d="M 2.1166667,3.96875 V 5.0270833 H 3.175 V 3.96875 Z m 1.8520833,0 V 5.0270833 H 5.0270834 V 3.96875 Z M 2.9104166,5.8208333 V 6.8791667 H 3.96875 V 5.8208333 Z"
     style="fill:#843e64;stroke-width:0.0700042;enable-background:new;fill-opacity:1"
     id="path871" />
  <path
     d="M 5.8208335,3.96875 V 4.2333334 H 6.8791669 V 3.96875 Z m 1.8520834,0 V 4.2333334 H 8.7312502 V 3.96875 Z m 1.8520834,0 V 4.2333334 H 10.583335 V 3.96875 Z M 4.7625,5.8208334 V 6.0854167 H 5.8208335 V 5.8208334 Z m 1.8520835,0 V 6.0854167 H 7.6729169 V 5.8208334 Z m 1.8520834,0 V 6.0854167 H 9.5250003 V 5.8208334 Z M 2.1166667,7.6729167 V 7.9375 H 3.175 V 7.6729167 Z m 1.8520833,0 V 7.9375 H 8.7312502 V 7.6729167 Z m 5.5562503,0 V 7.9375 H 10.583335 V 7.6729167 Z"
     style="fill:#ffffff;stroke-width:0.264583;enable-background:new"
     id="path1001"
     sodipodi:nodetypes="ccccccccccccccccccccccccccccccccccccccccccccc" />
  <path
     d="M 2.1166667,3.96875 V 4.2333334 H 3.175 V 3.96875 Z m 1.8520833,0 V 4.2333334 H 5.0270834 V 3.96875 Z M 2.9104167,5.8208333 V 6.0854167 H 3.96875 V 5.8208333 Z"
     style="fill:#974772;stroke-width:0.0700042;enable-background:new;fill-opacity:1"
     id="path1099" />
  <path
     id="rect1565"
     style="opacity:1;fill:url(#linearGradient1873);fill-opacity:1;stroke-width:0.264583"
     d="m 4.5568277,0.79374997 c -3.5239635,0 -4.02766104,0.50133123 -4.02766104,4.01629243 v 2.8153318 c 0,3.5149478 0.50369754,4.0162928 4.02766104,4.0162928 h 3.5863445 c 3.5239638,0 4.0276608,-0.501345 4.0276608,-4.0162928 V 4.8100424 c 0,-3.5149612 -0.503697,-4.01629243 -4.0276608,-4.01629243 z m 0.081649,0.26458343 h 3.4230468 c 3.3637835,0 3.8447265,0.4769388 3.8447265,3.8204385 v 2.6778728 c 0,3.3434873 -0.480943,3.8204393 -3.8447265,3.8204393 h -3.423047 c -3.3637834,0 -3.84472651,-0.476952 -3.84472651,-3.8204393 V 4.8787719 c 0,-3.3434997 0.48094311,-3.8204385 3.84472671,-3.8204385 z" />
  <path
     id="rect1370"
     style="opacity:0.4;fill:#000000;fill-opacity:1;stroke-width:0.264583"
     d="m 4.4751788,0.52916667 c -3.68414336,0 -4.21059547,0.52624033 -4.21059547,4.21266273 v 2.9517578 c 0,3.6864088 0.52645211,4.2126628 4.21059547,4.2126628 H 8.224821 c 3.684144,0 4.210596,-0.526254 4.210596,-4.2126628 V 4.7418294 c 0,-3.6864224 -0.526452,-4.21266273 -4.210596,-4.21266273 z m 0.081649,0.2645833 h 3.5863445 c 3.5239637,0 4.0276607,0.50133143 4.0276607,4.01629243 v 2.8153318 c 0,3.5149478 -0.503697,4.0162928 -4.0276607,4.0162928 H 4.5568277 c -3.5239637,0 -4.02766104,-0.501345 -4.02766104,-4.0162928 V 4.8100424 c 0,-3.514961 0.50369724,-4.01629243 4.02766114,-4.01629243 z" />
</svg>
