<?xml version="1.0" encoding="UTF-8" standalone="no"?>
<!-- Created with Inkscape (http://www.inkscape.org/) -->

<svg
   width="48"
   height="48"
   viewBox="0 0 12.7 12.7"
   version="1.1"
   id="svg5"
   inkscape:version="1.1.2 (0a00cf5339, 2022-02-04)"
   sodipodi:docname="workspace-switcher-right-bottom.svg"
   xmlns:inkscape="http://www.inkscape.org/namespaces/inkscape"
   xmlns:sodipodi="http://sodipodi.sourceforge.net/DTD/sodipodi-0.dtd"
   xmlns:xlink="http://www.w3.org/1999/xlink"
   xmlns="http://www.w3.org/2000/svg"
   xmlns:svg="http://www.w3.org/2000/svg">
  <sodipodi:namedview
     id="namedview7"
     pagecolor="#ffffff"
     bordercolor="#666666"
     borderopacity="1.0"
     inkscape:pageshadow="2"
     inkscape:pageopacity="0.0"
     inkscape:pagecheckerboard="0"
     inkscape:document-units="px"
     showgrid="false"
     units="px"
     inkscape:zoom="8.4895833"
     inkscape:cx="22.792638"
     inkscape:cy="36.220859"
     inkscape:window-width="1851"
     inkscape:window-height="1016"
     inkscape:window-x="0"
     inkscape:window-y="0"
     inkscape:window-maximized="1"
     inkscape:current-layer="svg5" />
  <defs
     id="defs2">
    <linearGradient
       inkscape:collect="always"
       xlink:href="#linearGradient1871"
       id="linearGradient1873"
       x1="17.222656"
       y1="3.5"
       x2="17.222656"
       y2="44.466438"
       gradientUnits="userSpaceOnUse"
       gradientTransform="matrix(0.26458333,0,0,0.26458333,3.3333334e-8,-0.13229166)" />
    <linearGradient
       inkscape:collect="always"
       id="linearGradient1871">
      <stop
         style="stop-color:#ffffff;stop-opacity:1;"
         offset="0"
         id="stop1867" />
      <stop
         style="stop-color:#ffffff;stop-opacity:0.1"
         offset="0.12"
         id="stop2515" />
      <stop
         style="stop-color:#ffffff;stop-opacity:0.102"
         offset="0.89999998"
         id="stop2581" />
      <stop
         style="stop-color:#ffffff;stop-opacity:0.502"
         offset="1"
         id="stop1869" />
    </linearGradient>
    <linearGradient
       inkscape:collect="always"
       xlink:href="#linearGradient3598"
       id="linearGradient3600"
       x1="8.7085123"
       y1="0.5291667"
       x2="8.7085123"
       y2="11.641666"
       gradientUnits="userSpaceOnUse" />
    <linearGradient
       inkscape:collect="always"
       id="linearGradient3598">
      <stop
         style="stop-color:#5884f4;stop-opacity:1"
         offset="0"
         id="stop3594" />
      <stop
         style="stop-color:#80a3fa;stop-opacity:1"
         offset="1"
         id="stop3596" />
    </linearGradient>
  </defs>
  <path
     id="rect3143"
     style="opacity:0.1;fill:#000000;fill-opacity:1;stroke-width:0.264583"
     d="m 4.5160033,1.0583334 c -3.60405387,0 -4.11912827,0.5137855 -4.11912827,4.1144775 v 2.883545 c 0,3.6006801 0.5150744,4.1144801 4.11912827,4.1144801 h 3.6679933 c 3.6040544,0 4.1191284,-0.5138 4.1191284,-4.1144801 v -2.883545 c 0,-3.600692 -0.515074,-4.1144775 -4.1191284,-4.1144775 z" />
  <path
     style="display:inline;fill:url(#linearGradient3600);fill-opacity:1;stroke:none;stroke-width:0.0992187;stroke-linecap:round;stroke-linejoin:round;stroke-miterlimit:4;stroke-dasharray:none;stroke-dashoffset:0;stroke-opacity:1;enable-background:new"
     d="m 8.1839962,0.66145833 c 3.6040548,0 4.1191298,0.51378547 4.1191298,4.11447757 v 2.883545 c 0,3.6006781 -0.515075,4.1144781 -4.1191298,4.1144781 H 4.5160033 c -3.604054,0 -4.1191283,-0.5138 -4.1191283,-4.1144781 v -2.883545 c 0,-3.6006921 0.5150743,-4.11447757 4.1191283,-4.11447757 z"
     id="rect877"
     inkscape:connector-curvature="0"
     sodipodi:nodetypes="sssssssss" />
  <path
     id="rect1370"
     style="opacity:0.4;fill:#000000;fill-opacity:1;stroke-width:0.264583"
     d="m 4.4751788,0.52916667 c -3.68414337,0 -4.21059547,0.52624033 -4.21059547,4.21266273 v 2.9517578 c 0,3.6864098 0.5264521,4.2126638 4.21059547,4.2126638 H 8.224821 c 3.684144,0 4.210596,-0.526254 4.210596,-4.2126638 V 4.7418294 c 0,-3.6864224 -0.526452,-4.21266273 -4.210596,-4.21266273 z m 0.081649,0.2645833 h 3.5863445 c 3.5239637,0 4.0276607,0.50133143 4.0276607,4.01629243 v 2.8153318 c 0,3.5149488 -0.503697,4.0162938 -4.0276607,4.0162938 H 4.5568277 c -3.5239637,0 -4.02766097,-0.501345 -4.02766097,-4.0162938 V 4.8100424 c 0,-3.514961 0.50369717,-4.01629243 4.02766107,-4.01629243 z" />
  <path
     id="rect1565"
     style="opacity:1;fill:url(#linearGradient1873);fill-opacity:1;stroke-width:0.264583"
     d="m 4.5568277,0.79374997 c -3.5239635,0 -4.02766097,0.50133123 -4.02766097,4.01629243 v 2.8153318 c 0,3.5149488 0.50369747,4.0162938 4.02766097,4.0162938 h 3.5863445 c 3.5239638,0 4.0276608,-0.501345 4.0276608,-4.0162938 V 4.8100424 c 0,-3.5149612 -0.503697,-4.01629243 -4.0276608,-4.01629243 z m 0.081649,0.26458343 h 3.4230468 c 3.3637835,0 3.8447265,0.4769388 3.8447265,3.8204385 v 2.6778728 c 0,3.3434883 -0.480943,3.8204403 -3.8447265,3.8204403 h -3.423047 c -3.3637834,0 -3.84472647,-0.476952 -3.84472647,-3.8204403 V 4.8787719 c 0,-3.3434997 0.48094307,-3.8204385 3.84472667,-3.8204385 z" />
  <path
     d="m 10.508153,6.6145331 c 1.802028,0 1.927244,0.2568927 1.927244,2.0572386 v 1.4417723 c 0,1.80034 -0.125216,2.05724 -1.927244,2.05724 H 8.4095641 C 6.6075372,12.170784 6.35,11.913884 6.35,10.113544 V 8.6717717 c 0,-1.8003459 0.2575372,-2.0572386 2.0595641,-2.0572386 z"
     style="display:inline;opacity:0.1;fill:#000000;fill-opacity:1;stroke:none;stroke-width:0.00347287;stroke-linecap:round;stroke-linejoin:round;stroke-miterlimit:4;stroke-dasharray:none;stroke-dashoffset:0;stroke-opacity:1;enable-background:new"
     id="path1398" />
  <path
     d="m 10.508153,6.35 c 1.802028,0 1.927244,0.2568927 1.927244,2.0572386 v 1.4417723 c 0,1.8003401 -0.125216,2.0572401 -1.927244,2.0572401 H 8.409564 C 6.6075371,11.906251 6.35,11.649351 6.35,9.8490109 V 8.4072386 C 6.35,6.6068927 6.6075371,6.35 8.409564,6.35 Z"
     style="display:inline;fill:#e9e9e9;fill-opacity:1;stroke:none;stroke-width:0.0131258;stroke-linecap:round;stroke-linejoin:round;stroke-miterlimit:4;stroke-dasharray:none;stroke-dashoffset:0;stroke-opacity:1;enable-background:new"
     id="path945"
     sodipodi:nodetypes="sssssssss" />
</svg>
