<?xml version="1.0" encoding="UTF-8" standalone="no"?>
<!-- Created with Inkscape (http://www.inkscape.org/) -->

<svg
   width="32"
   height="32"
   viewBox="0 0 8.4666665 8.4666669"
   version="1.1"
   id="svg2719"
   inkscape:version="1.1.2 (0a00cf5339, 2022-02-04)"
   sodipodi:docname="accessories-text-editor.svg"
   xmlns:inkscape="http://www.inkscape.org/namespaces/inkscape"
   xmlns:sodipodi="http://sodipodi.sourceforge.net/DTD/sodipodi-0.dtd"
   xmlns:xlink="http://www.w3.org/1999/xlink"
   xmlns="http://www.w3.org/2000/svg"
   xmlns:svg="http://www.w3.org/2000/svg">
  <sodipodi:namedview
     id="namedview2721"
     pagecolor="#ffffff"
     bordercolor="#666666"
     borderopacity="1.0"
     inkscape:pageshadow="2"
     inkscape:pageopacity="0.0"
     inkscape:pagecheckerboard="0"
     inkscape:document-units="px"
     showgrid="false"
     units="px"
     inkscape:zoom="17.500893"
     inkscape:cx="13.627876"
     inkscape:cy="19.08474"
     inkscape:window-width="1920"
     inkscape:window-height="1010"
     inkscape:window-x="0"
     inkscape:window-y="0"
     inkscape:window-maximized="1"
     inkscape:current-layer="svg2719" />
  <defs
     id="defs2716">
    <linearGradient
       inkscape:collect="always"
       id="linearGradient2610">
      <stop
         style="stop-color:#e8e8e8;stop-opacity:1;"
         offset="0"
         id="stop2606" />
      <stop
         style="stop-color:#f5f5f5;stop-opacity:1"
         offset="1"
         id="stop2608" />
    </linearGradient>
    <linearGradient
       inkscape:collect="always"
       id="linearGradient1871">
      <stop
         style="stop-color:#ffffff;stop-opacity:1;"
         offset="0"
         id="stop1867" />
      <stop
         style="stop-color:#ffffff;stop-opacity:0.1"
         offset="0.12"
         id="stop2515" />
      <stop
         style="stop-color:#ffffff;stop-opacity:0.102"
         offset="0.89999998"
         id="stop2581" />
      <stop
         style="stop-color:#ffffff;stop-opacity:0.502"
         offset="1"
         id="stop1869" />
    </linearGradient>
    <linearGradient
       inkscape:collect="always"
       xlink:href="#linearGradient1871"
       id="linearGradient16320"
       x1="10"
       y1="4"
       x2="10"
       y2="29.100245"
       gradientUnits="userSpaceOnUse"
       gradientTransform="matrix(0.26458333,0,0,0.26458333,0,-0.26458332)" />
    <linearGradient
       inkscape:collect="always"
       xlink:href="#linearGradient2610"
       id="linearGradient2612"
       x1="2.6458333"
       y1="0.5291667"
       x2="6.0137062"
       y2="7.982666"
       gradientUnits="userSpaceOnUse" />
    <linearGradient
       inkscape:collect="always"
       xlink:href="#linearGradient1176"
       id="linearGradient1178"
       x1="8.5798378"
       y1="2.9104166"
       x2="10.054166"
       y2="4.3847456"
       gradientUnits="userSpaceOnUse"
       gradientTransform="matrix(0.71428578,0,0,0.71428578,-0.30238114,-0.49136919)" />
    <linearGradient
       inkscape:collect="always"
       id="linearGradient1176">
      <stop
         style="stop-color:#5884f4;stop-opacity:1;"
         offset="0"
         id="stop1172" />
      <stop
         style="stop-color:#2f5fdd;stop-opacity:1"
         offset="0.30000001"
         id="stop1952" />
      <stop
         style="stop-color:#5884f4;stop-opacity:1"
         offset="0.30000001"
         id="stop2594" />
      <stop
         style="stop-color:#2f5fdd;stop-opacity:1"
         offset="0.69999999"
         id="stop1628" />
      <stop
         style="stop-color:#234db8;stop-opacity:1"
         offset="0.69999999"
         id="stop1822" />
      <stop
         style="stop-color:#234db8;stop-opacity:1"
         offset="1"
         id="stop1174" />
    </linearGradient>
  </defs>
  <path
     id="rect18683"
     style="opacity:0.1;fill:#000000;stroke-width:0.264583;stroke-linejoin:round"
     d="m 2.38125,0.92604165 c -1.45520832,0 -1.984375,0.52916665 -1.984375,1.98437495 v 3.0427085 c 0,1.5875 0.52916665,2.1166666 2.1166666,2.1166666 h 3.4395833 c 1.5875,0 2.1166667,-0.5291666 2.1166667,-2.1166666 V 3.0427083 c 0,-1.5875 -0.5291667,-2.11666665 -2.1166667,-2.11666665 z"
     sodipodi:nodetypes="sssssssss" />
  <path
     id="rect6397"
     style="fill:url(#linearGradient2612);fill-opacity:1;stroke-width:0.255274;stroke-linejoin:round"
     d="M 0.39687499,2.6458334 C 0.396875,1.190625 0.92604165,0.66145833 2.38125,0.66145834 h 3.571875 c 1.5874999,-1e-8 2.1166666,0.52916666 2.1166668,2.11666666 l 10e-8,2.9104168 c 0,1.5874999 -0.529166,2.1166666 -2.116666,2.1166666 H 2.5135417 c -1.58750001,0 -2.11666671,-0.5291667 -2.11666671,-2.1166667 z"
     sodipodi:nodetypes="ccccccccc" />
  <path
     id="path42"
     d="M 1.5875,2.1166667 V 2.38125 h 3.175 V 2.1166667 Z m 0,0.5291667 V 2.9104167 H 6.8791666 V 2.6458334 Z m 0,0.5291666 V 3.4395834 H 3.96875 V 3.175 Z m 0,0.5291667 V 3.96875 H 3.96875 V 3.7041667 Z m 0,0.79375 V 4.7599161 H 3.96875 V 4.4979167 Z m 0,0.5291666 V 5.2916667 H 3.175 V 5.0270833 Z m 0,0.5291667 V 5.8208333 H 6.8791666 V 5.55625 Z m 0,0.5291667 V 6.35 H 5.0270833 V 6.0854167 Z"
     style="stroke-width:0.264583;fill:#c8c4b7;fill-opacity:1" />
  <path
     id="rect1724"
     style="fill:#fec589;fill-opacity:1;stroke-width:0.188988;stroke-linejoin:round"
     d="M 2.7062949,4.7072806 2.508817,4.9047585 1.5875,6.8791674 3.561909,5.95785 3.7593869,5.7603721 Z" />
  <path
     id="rect1305"
     style="fill:url(#linearGradient1178);fill-opacity:1;stroke-width:0.188988;stroke-linejoin:round"
     d="M 5.826075,1.5875 2.508817,4.904758 C 2.6404416,4.7731335 2.8708831,5.1351292 2.6734434,5.3325651 3.0025095,5.003499 3.463168,5.4641708 3.134102,5.7932236 3.3315379,5.5957878 3.6935393,5.8262255 3.561909,5.95785 L 6.8791667,2.640592 Z" />
  <path
     id="rect1848"
     style="fill:#5d5d5d;fill-opacity:1;stroke-width:0.188988;stroke-linejoin:round"
     d="m 1.9311485,6.2114363 c -0.02656,-0.00214 -0.050569,0.039493 -0.050569,0.039493 L 1.5875,6.8791674 2.2157378,6.5860878 c 0,0 0.062139,-0.036786 0.029529,-0.069393 -0.03261,-0.032607 -0.1306675,0.00114 -0.1306677,0.00114 0,0 0.065422,-0.099538 0,-0.1649957 -0.06546,-0.065457 -0.1649953,0 -0.1649953,0 0,0 0.032905,-0.098868 0,-0.1317751 -0.00617,-0.00614 -0.012328,-0.00911 -0.018456,-0.0096 z" />
  <path
     id="rect13250"
     style="fill:url(#linearGradient16320);fill-opacity:1;stroke-width:0.264583;stroke-linejoin:round;opacity:0.7"
     d="m 2.6458333,0.79375 c -1.71979143,0 -2.11666664,0.396875 -2.11666664,2.1166666 v 2.6458335 c 0,1.7197919 0.39687515,2.1166666 2.11666664,2.1166666 h 3.175 c 1.7197913,0 2.1166666,-0.3968747 2.1166666,-2.1166666 V 2.9104166 C 7.9374999,1.190625 7.5406249,0.79375 5.8208333,0.79375 Z m 0,0.2645833 h 3.175 c 1.5213541,0 1.8520833,0.3307294 1.8520833,1.8520833 v 2.6458335 c 0,1.5213542 -0.3307292,1.8520833 -1.8520833,1.8520833 h -3.175 c -1.5213541,0 -1.85208331,-0.3307291 -1.85208331,-1.8520833 V 2.9104166 c 0,-1.521354 0.33072921,-1.8520834 1.85208331,-1.8520833 z"
     sodipodi:nodetypes="ssssssssssssssssss" />
  <path
     id="rect2545"
     style="opacity:0.4;fill:#000000;stroke-width:0.387914;stroke-linejoin:round"
     d="m 2.6458333,0.52916667 c -1.91822909,0 -2.38124997,0.4630208 -2.38124997,2.38124993 V 5.55625 c 0,1.8520831 0.52916735,2.38125 2.38124997,2.38125 h 3.175 c 1.8520841,0 2.3812499,-0.5291669 2.3812499,-2.38125 V 2.9104166 c 0,-1.8520832 -0.5291666,-2.38124988 -2.3812499,-2.38124993 z m 0,0.26458333 h 3.175 c 1.7197916,0 2.1166666,0.396875 2.1166666,2.1166666 V 5.55625 c 0,1.7197917 -0.3968753,2.1166666 -2.1166666,2.1166666 h -3.175 c -1.71979162,0 -2.11666664,-0.3968749 -2.11666664,-2.1166666 V 2.9104166 c 0,-1.7197916 0.39687505,-2.1166666 2.11666664,-2.1166666 z"
     sodipodi:nodetypes="ssssssssssssssssss" />
</svg>
