<?xml version="1.0" encoding="UTF-8" standalone="no"?>
<!-- Created with Inkscape (http://www.inkscape.org/) -->

<svg
   width="32"
   height="32"
   viewBox="0 0 8.4666665 8.4666669"
   version="1.1"
   id="svg2719"
   inkscape:version="1.1.2 (0a00cf5339, 2022-02-04)"
   sodipodi:docname="discord.svg"
   xmlns:inkscape="http://www.inkscape.org/namespaces/inkscape"
   xmlns:sodipodi="http://sodipodi.sourceforge.net/DTD/sodipodi-0.dtd"
   xmlns:xlink="http://www.w3.org/1999/xlink"
   xmlns="http://www.w3.org/2000/svg"
   xmlns:svg="http://www.w3.org/2000/svg">
  <sodipodi:namedview
     id="namedview2721"
     pagecolor="#ffffff"
     bordercolor="#666666"
     borderopacity="1.0"
     inkscape:pageshadow="2"
     inkscape:pageopacity="0.0"
     inkscape:pagecheckerboard="0"
     inkscape:document-units="px"
     showgrid="false"
     units="px"
     inkscape:zoom="4.2757863"
     inkscape:cx="-11.342943"
     inkscape:cy="42.09752"
     inkscape:window-width="1920"
     inkscape:window-height="998"
     inkscape:window-x="0"
     inkscape:window-y="0"
     inkscape:window-maximized="1"
     inkscape:current-layer="svg2719" />
  <defs
     id="defs2716">
    <linearGradient
       inkscape:collect="always"
       id="linearGradient1871">
      <stop
         style="stop-color:#ffffff;stop-opacity:1;"
         offset="0"
         id="stop1867" />
      <stop
         style="stop-color:#ffffff;stop-opacity:0.1"
         offset="0.12"
         id="stop2515" />
      <stop
         style="stop-color:#ffffff;stop-opacity:0.102"
         offset="0.89999998"
         id="stop2581" />
      <stop
         style="stop-color:#ffffff;stop-opacity:0.502"
         offset="1"
         id="stop1869" />
    </linearGradient>
    <linearGradient
       inkscape:collect="always"
       xlink:href="#linearGradient1871"
       id="linearGradient16320"
       x1="10"
       y1="4"
       x2="10"
       y2="29.100245"
       gradientUnits="userSpaceOnUse"
       gradientTransform="matrix(0.26458333,0,0,0.26458333,0,-0.26458332)" />
  </defs>
  <path
     id="rect18683"
     style="opacity:0.1;fill:#000000;stroke-width:0.264583;stroke-linejoin:round"
     d="m 2.38125,0.92604165 c -1.45520832,0 -1.984375,0.52916665 -1.984375,1.98437495 v 3.0427085 c 0,1.5875 0.52916665,2.1166666 2.1166666,2.1166666 h 3.4395833 c 1.5875,0 2.1166667,-0.5291666 2.1166667,-2.1166666 V 3.0427083 c 0,-1.5875 -0.5291667,-2.11666665 -2.1166667,-2.11666665 z"
     sodipodi:nodetypes="sssssssss" />
  <path
     id="rect6397"
     style="fill:#5865f2;fill-opacity:1;stroke-width:0.255274;stroke-linejoin:round"
     d="M 0.39687499,2.6458334 C 0.396875,1.190625 0.92604165,0.66145833 2.38125,0.66145834 h 3.571875 c 1.5874999,-1e-8 2.1166666,0.52916666 2.1166668,2.11666666 l 10e-8,2.9104168 c 0,1.5874999 -0.529166,2.1166666 -2.116666,2.1166666 H 2.5135417 c -1.58750001,0 -2.11666671,-0.5291667 -2.11666671,-2.1166667 z"
     sodipodi:nodetypes="ccccccccc" />
  <path
     id="rect2545"
     style="opacity:0.4;fill:#000000;stroke-width:0.387914;stroke-linejoin:round"
     d="m 2.6458333,0.52916667 c -1.91822909,0 -2.38124997,0.4630208 -2.38124997,2.38124993 V 5.55625 c 0,1.8520831 0.52916735,2.38125 2.38124997,2.38125 h 3.175 c 1.8520841,0 2.3812499,-0.5291669 2.3812499,-2.38125 V 2.9104166 c 0,-1.8520832 -0.5291666,-2.38124988 -2.3812499,-2.38124993 z m 0,0.26458333 h 3.175 c 1.7197916,0 2.1166666,0.396875 2.1166666,2.1166666 V 5.55625 c 0,1.7197917 -0.3968753,2.1166666 -2.1166666,2.1166666 h -3.175 c -1.71979162,0 -2.11666664,-0.3968749 -2.11666664,-2.1166666 V 2.9104166 c 0,-1.7197916 0.39687505,-2.1166666 2.11666664,-2.1166666 z"
     sodipodi:nodetypes="ssssssssssssssssss" />
  <path
     id="rect13250"
     style="fill:url(#linearGradient16320);fill-opacity:1;stroke-width:0.264583;stroke-linejoin:round"
     d="m 2.6458333,0.79375 c -1.71979143,0 -2.11666664,0.396875 -2.11666664,2.1166666 v 2.6458335 c 0,1.7197919 0.39687515,2.1166666 2.11666664,2.1166666 h 3.175 c 1.7197913,0 2.1166666,-0.3968747 2.1166666,-2.1166666 V 2.9104166 C 7.9374999,1.190625 7.5406249,0.79375 5.8208333,0.79375 Z m 0,0.2645833 h 3.175 c 1.5213541,0 1.8520833,0.3307294 1.8520833,1.8520833 v 2.6458335 c 0,1.5213542 -0.3307292,1.8520833 -1.8520833,1.8520833 h -3.175 c -1.5213541,0 -1.85208331,-0.3307291 -1.85208331,-1.8520833 V 2.9104166 c 0,-1.521354 0.33072921,-1.8520834 1.85208331,-1.8520833 z"
     sodipodi:nodetypes="ssssssssssssssssss" />
  <path
     id="rect889"
     style="fill:#ffffff;fill-opacity:1;stroke-width:0.324839"
     d="m 3.4375116,2.1167081 c 0,0 -0.6781566,-0.01487 -1.3963917,0.5188174 0,0 -0.7182032,1.2920741 -0.7182032,2.8831625 0,0 0.4189768,0.7177825 1.521267,0.7526998 0,0 0.1842874,-0.2188971 0.3339193,-0.4084309 C 2.5446603,5.6734237 2.3053575,5.2792868 2.3053575,5.2792868 c 0,0 0.049577,0.03498 0.1393634,0.084861 0.00506,0 0.01001,0.00462 0.020009,0.00966 0.014971,0.00998 0.029887,0.014861 0.044847,0.024832 0.1246938,0.069828 0.2495592,0.124829 0.3642771,0.1697195 0.2044966,0.084791 0.4490794,0.1597 0.733381,0.2145642 0.3740803,0.069819 0.812702,0.094608 1.2915243,0.00484 0.2344243,-0.044887 0.4743365,-0.1098237 0.7237241,-0.2145661 0.17457,-0.064841 0.3688234,-0.1592359 0.5733202,-0.2939051 0,0 -0.2497068,0.4039528 -0.9031024,0.5884991 0.149633,0.1845458 0.3297822,0.3987724 0.3297822,0.3987724 1.1022895,-0.034914 1.5212667,-0.7528566 1.5212667,-0.7478703 0,-1.5910887 -0.7182039,-2.8831627 -0.7182039,-2.8831627 C 5.7122984,2.1018386 5.0284636,2.1167081 5.0284636,2.1167081 l -0.069685,0.08003 C 5.8066938,2.4511131 6.2006293,2.8252529 6.2006293,2.8252529 5.6819043,2.5459394 5.1732038,2.4061449 4.69937,2.3512799 4.340253,2.3113759 3.9963435,2.3210369 3.6920912,2.3609399 c -0.029931,0 -0.054934,0.00537 -0.084854,0.010351 -0.1745711,0.019952 -0.598466,0.079489 -1.1321541,0.3139118 -0.184547,0.079804 -0.2945943,0.1400534 -0.2945943,0.1400534 0,0 0.4089096,-0.3941474 1.3067021,-0.6485219 z M 3.3029783,3.9574065 c 0.2843005,0 0.5134558,0.244232 0.5084684,0.5484839 0,0.3042525 -0.2241679,0.548484 -0.5084684,0.548484 -0.2793131,0 -0.5091592,-0.2442315 -0.5091592,-0.548484 0,-0.3042519 0.2248576,-0.5484839 0.5091592,-0.5484839 z m 1.8206903,0 c 0.2793131,0 0.5084695,0.244232 0.5084695,0.5484839 0,0.3042525 -0.2241679,0.548484 -0.5084695,0.548484 -0.2793131,0 -0.5091581,-0.2442315 -0.5091581,-0.548484 0,-0.3042519 0.2248565,-0.5484839 0.5091581,-0.5484839 z" />
</svg>
