<?xml version="1.0" encoding="UTF-8" standalone="no"?>
<!-- Created with Inkscape (http://www.inkscape.org/) -->

<svg
   width="32"
   height="32"
   viewBox="0 0 8.4666665 8.4666669"
   version="1.1"
   id="svg2719"
   inkscape:version="1.1.2 (0a00cf5339, 2022-02-04)"
   sodipodi:docname="gnome-usage.svg"
   xmlns:inkscape="http://www.inkscape.org/namespaces/inkscape"
   xmlns:sodipodi="http://sodipodi.sourceforge.net/DTD/sodipodi-0.dtd"
   xmlns:xlink="http://www.w3.org/1999/xlink"
   xmlns="http://www.w3.org/2000/svg"
   xmlns:svg="http://www.w3.org/2000/svg">
  <sodipodi:namedview
     id="namedview2721"
     pagecolor="#ffffff"
     bordercolor="#666666"
     borderopacity="1.0"
     inkscape:pageshadow="2"
     inkscape:pageopacity="0.0"
     inkscape:pagecheckerboard="0"
     inkscape:document-units="px"
     showgrid="false"
     units="px"
     inkscape:zoom="8.7504464"
     inkscape:cx="7.828172"
     inkscape:cy="37.140962"
     inkscape:window-width="1920"
     inkscape:window-height="998"
     inkscape:window-x="0"
     inkscape:window-y="0"
     inkscape:window-maximized="1"
     inkscape:current-layer="svg2719" />
  <defs
     id="defs2716">
    <linearGradient
       inkscape:collect="always"
       id="linearGradient1024">
      <stop
         style="stop-color:#31c6b7;stop-opacity:1"
         offset="0"
         id="stop1020" />
      <stop
         style="stop-color:#2daaaa;stop-opacity:1"
         offset="1"
         id="stop1022" />
    </linearGradient>
    <linearGradient
       inkscape:collect="always"
       id="linearGradient1871">
      <stop
         style="stop-color:#ffffff;stop-opacity:1;"
         offset="0"
         id="stop1867" />
      <stop
         style="stop-color:#ffffff;stop-opacity:0.1"
         offset="0.12"
         id="stop2515" />
      <stop
         style="stop-color:#ffffff;stop-opacity:0.102"
         offset="0.89999998"
         id="stop2581" />
      <stop
         style="stop-color:#ffffff;stop-opacity:0.502"
         offset="1"
         id="stop1869" />
    </linearGradient>
    <linearGradient
       inkscape:collect="always"
       xlink:href="#linearGradient1871"
       id="linearGradient16320"
       x1="10"
       y1="4"
       x2="10"
       y2="29.100245"
       gradientUnits="userSpaceOnUse"
       gradientTransform="matrix(0.26458333,0,0,0.26458333,0,-0.26458332)" />
    <linearGradient
       inkscape:collect="always"
       xlink:href="#linearGradient1024"
       id="linearGradient1026"
       x1="10.451042"
       y1="10.054167"
       x2="-1.4552083"
       y2="-0.52916646"
       gradientUnits="userSpaceOnUse" />
  </defs>
  <path
     id="rect18683"
     style="opacity:0.1;fill:#000000;stroke-width:0.264583;stroke-linejoin:round"
     d="m 2.38125,0.92604165 c -1.45520832,0 -1.984375,0.52916665 -1.984375,1.98437495 v 3.0427085 c 0,1.5875 0.52916665,2.1166666 2.1166666,2.1166666 h 3.4395833 c 1.5875,0 2.1166667,-0.5291666 2.1166667,-2.1166666 V 3.0427083 c 0,-1.5875 -0.5291667,-2.11666665 -2.1166667,-2.11666665 z"
     sodipodi:nodetypes="sssssssss" />
  <path
     id="rect6397"
     style="fill:url(#linearGradient1026);fill-opacity:1;stroke-width:0.255274;stroke-linejoin:round"
     d="M 0.39687499,2.6458334 C 0.396875,1.190625 0.92604165,0.66145833 2.38125,0.66145834 h 3.571875 c 1.5874999,-1e-8 2.1166666,0.52916666 2.1166668,2.11666666 l 10e-8,2.9104168 c 0,1.5874999 -0.529166,2.1166666 -2.116666,2.1166666 H 2.5135417 c -1.58750001,0 -2.11666671,-0.5291667 -2.11666671,-2.1166667 z"
     sodipodi:nodetypes="ccccccccc" />
  <path
     id="rect1372"
     style="opacity:0.1;fill:#ffffff;fill-opacity:1;stroke-width:0.264583;stroke-linejoin:round"
     d="m 0.396875,4.2333333 v 1.4552083 c 0,1.5875 0.52916666,2.1166666 2.1166666,2.1166666 h 3.4395833 c 1.5875,0 2.1166667,-0.5291666 2.1166667,-2.1166666 V 4.2333333 Z" />
  <path
     id="circle29"
     d="M 7.0114583,2.1166666 A 0.396875,0.396875 0 0 0 6.630603,2.4019205 H 5.2678954 c -0.1871048,0 -0.3518207,0.080165 -0.4759399,0.2056723 C 4.6678366,2.7331003 4.5779055,2.900395 4.5046347,3.0923177 4.3580928,3.476163 4.2790822,3.9658792 4.2105956,4.4519246 4.1421092,4.93797 4.0846687,5.4204295 3.9956216,5.76864 3.9510978,5.9427453 3.8975861,6.0828925 3.8416259,6.1670654 c -0.05596,0.084173 -0.09591,0.107487 -0.1519288,0.107487 -0.059288,0 -0.1153839,-0.025321 -0.1824177,-0.091467 C 3.4402456,6.1169396 3.3700763,6.0108229 3.304191,5.8776774 3.1724209,5.6113862 3.0568117,5.2405248 2.9507244,4.8663695 2.8446368,4.4922143 2.7476096,4.115237 2.6416992,3.8230225 2.5887441,3.6769151 2.5344525,3.5516637 2.4680664,3.4530191 2.4016803,3.3543748 2.3105854,3.2654337 2.181779,3.2654337 c -0.092526,0 -0.1781294,0.046969 -0.2340942,0.1080038 -0.055965,0.061035 -0.091902,0.1342694 -0.1219564,0.2144572 -0.060109,0.1603753 -0.094519,0.3538479 -0.1281576,0.5436359 -0.033638,0.1897883 -0.066519,0.3762298 -0.1090372,0.5012616 -0.021259,0.062516 -0.045571,0.1085932 -0.063045,0.1297077 -0.017474,0.021114 -0.015357,0.017052 -0.021187,0.017052 H 0.52916667 V 5.0441357 H 1.5043009 c 0.091536,0 0.1737486,-0.051494 0.2247925,-0.1131713 0.051044,-0.061678 0.083065,-0.1340099 0.1100709,-0.2134238 0.054011,-0.1588278 0.085929,-0.3508105 0.1193725,-0.5395018 0.033444,-0.1886913 0.06844,-0.373643 0.1147217,-0.4971275 0.023141,-0.061742 0.049813,-0.106917 0.069763,-0.1286742 0.01995,-0.021757 0.024055,-0.02222 0.038757,-0.02222 -0.00243,0 0.022829,0.00489 0.067179,0.070797 0.044351,0.065901 0.094896,0.1761543 0.1441772,0.3121255 0.098563,0.271943 0.1961478,0.6472063 0.3033406,1.0252604 0.107193,0.378055 0.2231255,0.7589171 0.3705201,1.0567832 0.073697,0.1489331 0.1550427,0.2783207 0.2547649,0.3767211 0.099722,0.0984 0.2261608,0.1674318 0.3679359,0.1674318 0.1564677,0 0.2872481,-0.09824 0.3720704,-0.2258261 C 4.14659,6.1857233 4.2036272,6.0231802 4.2519367,5.8342693 4.3485565,5.4564475 4.4046791,4.9711297 4.4725953,4.4891319 4.5405114,4.0071341 4.6210101,3.5290728 4.7516479,3.1868858 4.8169669,3.0157922 4.8947599,2.8798803 4.9800579,2.7936282 5.0653556,2.7073762 5.1510012,2.6665041 5.2678954,2.6665041 H 6.646106 a 0.396875,0.396875 0 0 0 0.3653523,0.2439125 0.396875,0.396875 0 0 0 0.396875,-0.396875 0.396875,0.396875 0 0 0 -0.396875,-0.396875 z"
     style="fill:#d6f6f0;fill-opacity:1;stroke-width:0.264583" />
  <path
     id="rect13250"
     style="fill:url(#linearGradient16320);fill-opacity:1;stroke-width:0.264583;stroke-linejoin:round;opacity:1"
     d="m 2.6458333,0.79375 c -1.71979143,0 -2.11666664,0.396875 -2.11666664,2.1166666 v 2.6458335 c 0,1.7197919 0.39687515,2.1166666 2.11666664,2.1166666 h 3.175 c 1.7197913,0 2.1166666,-0.3968747 2.1166666,-2.1166666 V 2.9104166 C 7.9374999,1.190625 7.5406249,0.79375 5.8208333,0.79375 Z m 0,0.2645833 h 3.175 c 1.5213541,0 1.8520833,0.3307294 1.8520833,1.8520833 v 2.6458335 c 0,1.5213542 -0.3307292,1.8520833 -1.8520833,1.8520833 h -3.175 c -1.5213541,0 -1.85208331,-0.3307291 -1.85208331,-1.8520833 V 2.9104166 c 0,-1.521354 0.33072921,-1.8520834 1.85208331,-1.8520833 z"
     sodipodi:nodetypes="ssssssssssssssssss" />
  <path
     id="rect2545"
     style="opacity:0.4;fill:#000000;stroke-width:0.387914;stroke-linejoin:round"
     d="m 2.6458333,0.52916667 c -1.91822909,0 -2.38124997,0.4630208 -2.38124997,2.38124993 V 5.55625 c 0,1.8520831 0.52916735,2.38125 2.38124997,2.38125 h 3.175 c 1.8520841,0 2.3812499,-0.5291669 2.3812499,-2.38125 V 2.9104166 c 0,-1.8520832 -0.5291666,-2.38124988 -2.3812499,-2.38124993 z m 0,0.26458333 h 3.175 c 1.7197916,0 2.1166666,0.396875 2.1166666,2.1166666 V 5.55625 c 0,1.7197917 -0.3968753,2.1166666 -2.1166666,2.1166666 h -3.175 c -1.71979162,0 -2.11666664,-0.3968749 -2.11666664,-2.1166666 V 2.9104166 c 0,-1.7197916 0.39687505,-2.1166666 2.11666664,-2.1166666 z"
     sodipodi:nodetypes="ssssssssssssssssss" />
</svg>
