<?xml version="1.0" encoding="UTF-8" standalone="no"?>
<!-- Created with Inkscape (http://www.inkscape.org/) -->

<svg
   width="32"
   height="32"
   viewBox="0 0 8.4666665 8.4666669"
   version="1.1"
   id="svg2719"
   inkscape:version="1.1.2 (0a00cf5339, 2022-02-04)"
   sodipodi:docname="kmines.svg"
   xmlns:inkscape="http://www.inkscape.org/namespaces/inkscape"
   xmlns:sodipodi="http://sodipodi.sourceforge.net/DTD/sodipodi-0.dtd"
   xmlns:xlink="http://www.w3.org/1999/xlink"
   xmlns="http://www.w3.org/2000/svg"
   xmlns:svg="http://www.w3.org/2000/svg">
  <sodipodi:namedview
     id="namedview2721"
     pagecolor="#ffffff"
     bordercolor="#666666"
     borderopacity="1.0"
     inkscape:pageshadow="2"
     inkscape:pageopacity="0.0"
     inkscape:pagecheckerboard="0"
     inkscape:document-units="px"
     showgrid="false"
     units="px"
     inkscape:zoom="17.500893"
     inkscape:cx="8.8852609"
     inkscape:cy="21.913168"
     inkscape:window-width="1851"
     inkscape:window-height="1016"
     inkscape:window-x="0"
     inkscape:window-y="0"
     inkscape:window-maximized="1"
     inkscape:current-layer="svg2719" />
  <defs
     id="defs2716">
    <linearGradient
       inkscape:collect="always"
       id="linearGradient2610">
      <stop
         style="stop-color:#5bdbc1;stop-opacity:1"
         offset="0"
         id="stop2606" />
      <stop
         style="stop-color:#2b898f;stop-opacity:1"
         offset="1"
         id="stop2608" />
    </linearGradient>
    <linearGradient
       inkscape:collect="always"
       id="linearGradient1871">
      <stop
         style="stop-color:#ffffff;stop-opacity:1;"
         offset="0"
         id="stop1867" />
      <stop
         style="stop-color:#ffffff;stop-opacity:0.1"
         offset="0.12"
         id="stop2515" />
      <stop
         style="stop-color:#ffffff;stop-opacity:0.102"
         offset="0.89999998"
         id="stop2581" />
      <stop
         style="stop-color:#ffffff;stop-opacity:0.502"
         offset="1"
         id="stop1869" />
    </linearGradient>
    <linearGradient
       inkscape:collect="always"
       xlink:href="#linearGradient1871"
       id="linearGradient16320"
       x1="10"
       y1="4"
       x2="10"
       y2="29.100245"
       gradientUnits="userSpaceOnUse"
       gradientTransform="matrix(0.26458333,0,0,0.26458333,0,-0.26458332)" />
    <linearGradient
       inkscape:collect="always"
       xlink:href="#linearGradient2610"
       id="linearGradient2612"
       x1="4.442916e-16"
       y1="8.4666672"
       x2="4.4408921e-16"
       y2="5.5511151e-17"
       gradientUnits="userSpaceOnUse" />
  </defs>
  <path
     id="rect18683"
     style="opacity:0.1;fill:#000000;stroke-width:0.264583;stroke-linejoin:round"
     d="m 2.38125,0.92604165 c -1.45520832,0 -1.984375,0.52916665 -1.984375,1.98437495 v 3.0427085 c 0,1.5875 0.52916665,2.1166666 2.1166666,2.1166666 h 3.4395833 c 1.5875,0 2.1166667,-0.5291666 2.1166667,-2.1166666 V 3.0427083 c 0,-1.5875 -0.5291667,-2.11666665 -2.1166667,-2.11666665 z"
     sodipodi:nodetypes="sssssssss" />
  <path
     id="rect6397"
     style="fill:url(#linearGradient2612);fill-opacity:1;stroke-width:0.255274;stroke-linejoin:round"
     d="M 0.39687499,2.6458334 C 0.396875,1.190625 0.92604165,0.66145833 2.38125,0.66145834 h 3.571875 c 1.5874999,-1e-8 2.1166666,0.52916666 2.1166668,2.11666666 l 10e-8,2.9104168 c 0,1.5874999 -0.529166,2.1166666 -2.116666,2.1166666 H 2.5135417 c -1.58750001,0 -2.11666671,-0.5291667 -2.11666671,-2.1166667 z"
     sodipodi:nodetypes="ccccccccc" />
  <path
     id="path1171"
     style="color:#000000;opacity:0.2;fill:#81e9c0;stroke-width:0.999999"
     d="M 8.75 11.5 C 6.3088999 11.5 1.5 12.535156 1.5 12.535156 L 1.5019531 21.630859 C 1.531542 27.52746 3.5445499 29.5 9.5 29.5 L 22.5 29.5 C 28.5 29.5 30.5 27.5 30.5 21.5 L 30.5 12.535156 C 30.5 12.535156 25.6911 13.572266 23.25 13.572266 C 18.3678 13.572266 13.6327 11.5 8.75 11.5 z "
     transform="scale(0.26458333)" />
  <path
     d="m 2.3151042,3.0427082 c -0.6458744,0 -1.9182292,0.2743993 -1.9182292,0.2743993 v 0.2645834 c 0,0 1.2723548,-0.2743994 1.9182292,-0.2743994 1.2917487,0 2.5447095,0.548296 3.8364583,0.548296 0.6458743,0 1.9176999,-0.2738966 1.9176999,-0.2738966 V 3.3171075 c 0,0 -1.2718256,0.2738967 -1.9176999,0.2738967 -1.2917488,0 -2.5447096,-0.548296 -3.8364583,-0.548296 z"
     style="color:#000000;opacity:0.3;fill:#ffffff;stroke-width:0.264583"
     id="path952"
     sodipodi:nodetypes="sccssccss" />
  <path
     id="rect24"
     d="m 4.1802336,1.8523241 c -0.1260481,0.0028 -0.1743366,0.030313 -0.1953369,0.2108398 l -0.0093,0.072864 c -0.021061,0.1338103 -0.024818,0.1945891 -0.1514121,0.2273763 -0.00849,0.00185 -0.017399,0.00367 -0.025839,0.00568 -0.00212,5.292e-4 -0.00362,5.053e-4 -0.00569,0.00103 l 5.292e-4,5.16e-4 c -0.0186,0.00447 -0.036908,0.00996 -0.055294,0.014986 v 0.00155 C 3.4338051,2.4699129 3.1549424,2.6261221 2.9260554,2.8419281 l 0.00259,-5.291e-4 c -0.024977,0.02368 -0.049181,0.047879 -0.072864,0.072864 l 5.292e-4,-0.0031 C 2.7507369,3.0320395 2.6983764,3.0049011 2.5622747,2.9525031 L 2.4940317,2.9235764 C 2.4344449,2.8978325 2.3904789,2.8848943 2.3550221,2.8837857 2.2770229,2.8814045 2.2420156,2.936572 2.1844899,3.0388149 2.0975293,3.1856375 2.0731067,3.2404245 2.2397836,3.3643765 l 0.058911,0.044442 c 0.105754,0.085468 0.1560931,0.1192768 0.1204061,0.2464964 -0.00159,0.00474 -0.00268,0.00922 -0.00413,0.013954 -0.00159,0.00479 -0.00296,0.00996 -0.00465,0.014986 -0.00926,0.031165 -0.017648,0.06277 -0.025322,0.094568 h -5.159e-4 c -5.292e-4,0.00212 -5.053e-4,0.00368 -0.00103,0.00569 -0.00212,0.00844 -0.00378,0.016828 -0.00568,0.025321 -0.00106,0.00421 -0.00297,0.00588 -0.00413,0.00982 -0.03064,0.1334534 -0.046752,0.2698043 -0.048059,0.4066935 3.166e-4,0.1291862 0.013822,0.2580058 0.040308,0.3844726 0.00384,0.010239 0.00866,0.01696 0.011886,0.029456 0.00185,0.00849 0.00367,0.016881 0.00568,0.025321 5.292e-4,0.00212 5.054e-4,0.00362 0.00103,0.00568 h 5.158e-4 c 0.0077,0.031962 0.016008,0.063244 0.025321,0.094568 0.00185,0.00524 0.00309,0.010038 0.00465,0.014986 0.00132,0.00474 0.00265,0.00924 0.00413,0.013952 0.035687,0.1272196 -0.01466,0.1610281 -0.1204061,0.2464967 l -0.058911,0.044442 C 2.0731094,5.2096611 2.0975293,5.2644507 2.1844896,5.4112786 2.2681586,5.5599982 2.303863,5.6083731 2.4945482,5.5260003 l 0.067696,-0.028422 c 0.1361096,-0.052398 0.1884676,-0.079536 0.294039,0.041341 l -5.292e-4,-0.0031 c 0.02368,0.024977 0.047879,0.049181 0.072864,0.072864 l -0.0031,-0.00103 0.00103,0.00103 C 3.1552339,5.8246 3.4339159,5.9809814 3.7378679,6.0639526 v 5.292e-4 c 0.01823,0.005 0.03633,0.010541 0.054777,0.014986 h 5.291e-4 c 0.00185,5.291e-4 0.00383,0.00103 0.00568,0.00156 0.00844,0.00212 0.016827,0.00378 0.025321,0.00568 0.1266005,0.032787 0.1303512,0.093566 0.1514121,0.2273763 l 0.0093,0.072864 C 4.0088851,6.5932649 4.0685051,6.599685 4.239135,6.597788 4.4097648,6.599638 4.4693828,6.593258 4.4933832,6.3869481 l 0.0093,-0.072864 C 4.5237442,6.1802738 4.5280042,6.119495 4.654612,6.0867078 c 0.00849,-0.00185 0.01688,-0.00367 0.025321,-0.00568 0.00212,-5.292e-4 0.00362,-0.00103 0.00568,-0.00156 0.027419,-0.00661 0.05419,-0.013899 0.081132,-0.021704 0.2867538,-0.08218 0.5502481,-0.2299418 0.769462,-0.4314981 0.00667,-0.00648 0.00914,-0.011697 0.017052,-0.018603 l -0.00362,0.00103 c 0.024977,-0.02368 0.0497,-0.048396 0.07338,-0.073381 l -0.00103,0.00362 c 0.1055938,-0.1208816 0.1584551,-0.093743 0.29457,-0.041343 l 0.067696,0.028422 C 6.1749326,5.6083839 6.2101306,5.5600091 6.2937972,5.4112894 6.3807575,5.2644669 6.4051801,5.2096798 6.2385032,5.0857278 L 6.1801115,5.0412768 C 6.0743602,4.9558111 6.0234991,4.9219997 6.0591888,4.7947801 c 0.00159,-0.00474 0.00322,-0.00922 0.00465,-0.013952 0.00159,-0.00495 0.00288,-0.00975 0.00465,-0.014986 h -5.292e-4 c 0.00931,-0.031321 0.018113,-0.062604 0.025839,-0.094568 5.292e-4,-0.00212 5.028e-4,-0.00367 0.00103,-0.00568 0.00212,-0.00844 0.0043,-0.016828 0.0062,-0.025321 0.00238,-0.00876 0.00573,-0.013049 0.00827,-0.020669 C 6.1383029,4.4904609 6.1537221,4.358662 6.1553068,4.2263392 6.154885,4.0976713 6.1413803,3.9693764 6.1149992,3.843417 c -0.00452,-0.01143 -0.010221,-0.019182 -0.013951,-0.03359 -0.00185,-0.00849 -0.00419,-0.01688 -0.0062,-0.025321 -5.292e-4,-0.00212 -5.028e-4,-0.00362 -0.00103,-0.00569 -0.0077,-0.031962 -0.016526,-0.063763 -0.025839,-0.095085 l 5.291e-4,5.292e-4 c -0.00185,-0.00524 -0.00309,-0.010038 -0.00465,-0.014986 -0.00132,-0.00474 -0.00314,-0.00976 -0.00465,-0.01447 -0.035687,-0.1272196 0.01466,-0.1605113 0.120406,-0.2459796 l 0.058911,-0.044442 C 6.4051926,3.2404438 6.3807699,3.1856568 6.2938123,3.0388263 6.2362916,2.9365833 6.2012816,2.8813577 6.1232798,2.8837971 c -0.035454,0.00106 -0.079423,0.014552 -0.1390094,0.040307 l -0.067696,0.028422 c -0.1361096,0.052401 -0.188971,0.079539 -0.2945556,-0.041341 l 5.292e-4,0.0031 C 5.598868,2.8893081 5.574669,2.8651011 5.549684,2.8414211 l 0.00206,5.292e-4 C 5.323512,2.6273233 5.0457748,2.4718571 4.7429899,2.3892422 v -0.0031 c -0.01905,-0.00527 -0.038062,-0.01082 -0.057361,-0.015503 h -5.291e-4 c -0.00185,-5.291e-4 -0.00334,-0.00102 -0.00517,-0.00155 -0.00844,-0.00212 -0.017346,-0.00378 -0.025839,-0.00568 C 4.5274902,2.330614 4.5237421,2.2698405 4.5026813,2.1360275 l -0.00929,-0.072864 C 4.4692628,1.8567624 4.4097744,1.850427 4.2391446,1.8523241 c -0.021328,-2.316e-4 -0.040904,-3.996e-4 -0.058911,0 z m -0.032556,5.0182982 c -0.070092,0.00353 -0.1255736,0.061292 -0.1255736,0.1322917 0,0.070999 0.055482,0.1287616 0.1255736,0.1322917 -0.070092,0.00353 -0.1255736,0.061292 -0.1255736,0.1322916 0,0.070999 0.055482,0.1287616 0.1255736,0.1322917 -0.070092,0.00353 -0.1255736,0.061292 -0.1255736,0.1322917 0,0.070999 0.055482,0.1287616 0.1255736,0.1322916 -0.070092,0.00353 -0.1255736,0.061292 -0.1255736,0.1322917 h 0.5291666 c 0,-0.070999 -0.055482,-0.1287616 -0.1255736,-0.1322917 0.070092,-0.00353 0.1255736,-0.061292 0.1255736,-0.1322916 0,-0.070999 -0.055482,-0.1287616 -0.1255736,-0.1322917 0.070092,-0.00353 0.1255736,-0.061292 0.1255736,-0.1322917 0,-0.070999 -0.055482,-0.1287616 -0.1255736,-0.1322916 0.070092,-0.00353 0.1255736,-0.061292 0.1255736,-0.1322917 0,-0.07329 -0.059002,-0.1322917 -0.1322917,-0.1322917 H 4.1543954 c -0.0023,0 -0.00446,-1.137e-4 -0.00672,0 z"
     style="fill:#313131;fill-opacity:1;stroke-width:0.264583"
     sodipodi:nodetypes="cccccccccccccccccccccccccccccccccccccccccccccccccccccccccccccccccccccccccccccccccccccccccccccccccccccccccccccscscsccccscscssscc" />
  <path
     id="path1286"
     style="opacity:0.6;fill:#ffffff;fill-opacity:1;stroke-width:0.264583"
     d="M 15.800781 7.0117188 C 15.324379 7.0223014 15.141871 7.1262877 15.0625 7.8085938 L 15.027344 8.0839844 C 14.947743 8.5897241 14.933544 8.8194389 14.455078 8.9433594 C 14.42299 8.9503515 14.389321 8.9572469 14.357422 8.9648438 C 14.349409 8.9668435 14.343761 8.9667669 14.335938 8.96875 L 14.337891 8.9707031 C 14.267591 8.9875976 14.198397 9.0083478 14.128906 9.0273438 L 14.128906 9.0332031 C 12.979601 9.3459454 11.925632 9.9363076 11.060547 10.751953 L 11.070312 10.75 C 10.975911 10.839499 10.884432 10.930959 10.794922 11.025391 L 10.796875 11.013672 C 10.397866 11.470524 10.199947 11.367961 9.6855469 11.169922 L 9.4277344 11.060547 C 9.2025244 10.963247 9.0363537 10.914346 8.9023438 10.910156 C 8.6075436 10.901156 8.4752325 11.109664 8.2578125 11.496094 C 7.9791745 11.966541 7.8732805 12.187634 8.2304688 12.529297 C 8.2395632 12.513822 8.2463582 12.500417 8.2558594 12.484375 C 8.4732793 12.097945 8.6055905 11.889437 8.9003906 11.898438 C 9.0344006 11.902627 9.2005713 11.951529 9.4257812 12.048828 L 9.6835938 12.158203 C 10.197994 12.356243 10.395913 12.458805 10.794922 12.001953 L 10.792969 12.013672 C 10.882479 11.91924 10.973958 11.82778 11.068359 11.738281 L 11.058594 11.740234 C 11.923679 10.924589 12.977648 10.334227 14.126953 10.021484 L 14.126953 10.015625 C 14.196444 9.9966291 14.265638 9.9758789 14.335938 9.9589844 L 14.333984 9.9570312 C 14.341808 9.9550478 14.347456 9.9551247 14.355469 9.953125 C 14.387368 9.9455281 14.421037 9.9386328 14.453125 9.9316406 C 14.931591 9.8077201 14.94579 9.5780053 15.025391 9.0722656 L 15.060547 8.796875 C 15.139918 8.1145686 15.322426 8.0105827 15.798828 8 C 15.866886 7.9984897 15.940875 7.9991243 16.021484 8 C 16.666384 7.9928295 16.891226 8.016776 16.982422 8.796875 L 17.017578 9.0722656 C 17.097178 9.5780155 17.111353 9.8076903 17.589844 9.9316406 C 17.621943 9.9388217 17.655601 9.9451124 17.6875 9.953125 C 17.694417 9.9551281 17.700039 9.9569846 17.707031 9.9589844 L 17.708984 9.9589844 C 17.781925 9.9766839 17.853781 9.99766 17.925781 10.017578 L 17.925781 10.029297 C 19.070165 10.341542 20.119798 10.930992 20.982422 11.742188 L 20.974609 11.738281 C 21.069041 11.82778 21.160501 11.919271 21.25 12.013672 L 21.248047 12.001953 C 21.647107 12.458822 21.846898 12.356254 22.361328 12.158203 L 22.617188 12.050781 C 22.842396 11.95344 23.008579 11.902444 23.142578 11.898438 C 23.437388 11.889217 23.569708 12.097944 23.787109 12.484375 C 23.797413 12.501773 23.804629 12.51647 23.814453 12.533203 C 24.17525 12.189924 24.068474 11.967888 23.789062 11.496094 C 23.571661 11.109663 23.439341 10.900936 23.144531 10.910156 C 23.010532 10.914163 22.844349 10.965158 22.619141 11.0625 L 22.363281 11.169922 C 21.848851 11.367973 21.64906 11.470541 21.25 11.013672 L 21.251953 11.025391 C 21.162454 10.930989 21.070994 10.839499 20.976562 10.75 L 20.984375 10.753906 C 20.121751 9.9427112 19.072119 9.3532609 17.927734 9.0410156 L 17.927734 9.0292969 C 17.855734 9.0093788 17.783879 8.9884027 17.710938 8.9707031 L 17.708984 8.9707031 C 17.701992 8.9687034 17.69637 8.9668469 17.689453 8.9648438 C 17.657554 8.9568312 17.623896 8.9505405 17.591797 8.9433594 C 17.113306 8.819409 17.099131 8.5897343 17.019531 8.0839844 L 16.984375 7.8085938 C 16.893179 7.0284951 16.668337 7.0045482 16.023438 7.0117188 C 15.942828 7.010843 15.868839 7.0102085 15.800781 7.0117188 z M 23.005859 14.1875 C 22.860127 14.347387 22.815037 14.508225 22.900391 14.8125 C 22.906098 14.830302 22.91298 14.849273 22.917969 14.867188 C 22.923865 14.885889 22.928555 14.904023 22.935547 14.923828 L 22.933594 14.921875 C 22.968792 15.040257 23.002148 15.160449 23.03125 15.28125 C 23.033243 15.289074 23.033156 15.294722 23.035156 15.302734 C 23.042753 15.334634 23.051602 15.366349 23.058594 15.398438 C 23.072695 15.452893 23.094245 15.482191 23.111328 15.525391 C 23.176054 15.834444 23.220644 16.148427 23.244141 16.462891 C 23.256665 16.304006 23.263714 16.143924 23.265625 15.984375 C 23.264025 15.498072 23.212985 15.013176 23.113281 14.537109 C 23.096198 14.493909 23.074648 14.464612 23.060547 14.410156 C 23.053555 14.378068 23.044706 14.346352 23.037109 14.314453 C 23.035109 14.306441 23.035196 14.300792 23.033203 14.292969 C 23.024666 14.25753 23.015068 14.222804 23.005859 14.1875 z M 9.0429688 14.193359 C 9.0343803 14.22699 9.0237741 14.259202 9.015625 14.292969 L 9.0136719 14.292969 C 9.0116717 14.300981 9.0117484 14.306856 9.0097656 14.314453 C 9.001753 14.346352 8.9954624 14.378053 8.9882812 14.410156 C 8.984275 14.426068 8.9770405 14.432374 8.9726562 14.447266 C 8.8568515 14.951656 8.7959555 15.466999 8.7910156 15.984375 C 8.7914286 16.1524 8.8003141 16.320891 8.8125 16.488281 C 8.839894 16.134409 8.8911653 15.781977 8.9707031 15.435547 C 8.9750874 15.420656 8.9823218 15.414349 8.9863281 15.398438 C 8.9935092 15.366334 8.9997999 15.334634 9.0078125 15.302734 C 9.0097952 15.295138 9.0097186 15.289263 9.0117188 15.28125 L 9.0136719 15.28125 C 9.042676 15.161069 9.0743766 15.041617 9.109375 14.923828 C 9.1157624 14.904832 9.1209437 14.885291 9.1269531 14.867188 C 9.1324334 14.849295 9.1365687 14.832368 9.1425781 14.814453 C 9.2268781 14.513935 9.1844368 14.35192 9.0429688 14.193359 z M 23.003906 18.755859 C 22.981446 18.841568 22.958817 18.926863 22.933594 19.011719 L 22.935547 19.011719 C 22.928857 19.031508 22.923978 19.049651 22.917969 19.068359 C 22.912564 19.086244 22.9064 19.103179 22.900391 19.121094 C 22.765501 19.601924 22.957732 19.729714 23.357422 20.052734 L 23.578125 20.220703 C 23.67353 20.291652 23.750492 20.356895 23.814453 20.417969 C 24.11978 19.898385 24.191689 19.687256 23.580078 19.232422 L 23.359375 19.064453 C 23.209491 18.943321 23.089132 18.850997 23.003906 18.755859 z M 9.0410156 18.759766 C 8.9563448 18.853518 8.8372045 18.945034 8.6894531 19.064453 L 8.4667969 19.232422 C 7.8561313 19.686505 7.9263499 19.898182 8.2304688 20.416016 C 8.2940658 20.355511 8.3704474 20.290895 8.4648438 20.220703 L 8.6875 20.052734 C 9.0871703 19.729704 9.2774581 19.601924 9.1425781 19.121094 C 9.1369844 19.103288 9.1319421 19.086274 9.1269531 19.068359 C 9.1210571 19.049658 9.1163671 19.031523 9.109375 19.011719 C 9.0845023 18.92806 9.0626244 18.844229 9.0410156 18.759766 z "
     transform="scale(0.26458333)" />
  <path
     id="path1646"
     style="color:#000000;opacity:0.2;fill:#81e9c0;stroke-width:0.264583"
     d="M 8.75 14.5 C 6.3088999 14.5 1.5 15.535156 1.5 15.535156 L 1.5 21.5 C 1.5 21.529252 1.4999047 21.556875 1.5 21.585938 C 1.5194536 27.51792 3.5292522 29.5 9.5 29.5 L 22.5 29.5 C 28.5 29.5 30.5 27.5 30.5 21.5 L 30.5 15.535156 C 30.5 15.535156 25.6911 16.572266 23.25 16.572266 C 18.3678 16.572266 13.6327 14.5 8.75 14.5 z "
     transform="scale(0.26458333)" />
  <path
     id="path1526"
     style="color:#000000;opacity:0.3;fill:#ffffff;stroke-width:0.264583"
     d="M 8.75 14.5 C 6.3088999 14.5 1.5 15.537109 1.5 15.537109 L 1.5 16.537109 C 1.5 16.537109 6.3088999 15.5 8.75 15.5 C 13.6322 15.5 18.3678 17.572266 23.25 17.572266 C 25.6911 17.572266 30.498047 16.537109 30.498047 16.537109 L 30.498047 15.537109 C 30.498047 15.537109 25.6911 16.572266 23.25 16.572266 C 18.3678 16.572266 13.6322 14.5 8.75 14.5 z M 8.75 17.5 C 6.3088999 17.5 1.5 18.537109 1.5 18.537109 L 1.5 19.537109 C 1.5 19.537109 6.3088999 18.5 8.75 18.5 C 13.6322 18.5 18.3678 20.572266 23.25 20.572266 C 25.6911 20.572266 30.498047 19.537109 30.498047 19.537109 L 30.498047 18.537109 C 30.498047 18.537109 25.6911 19.572266 23.25 19.572266 C 18.3678 19.572266 13.6322 17.5 8.75 17.5 z M 8.75 20.5 C 6.3088999 20.5 1.5 21.537109 1.5 21.537109 L 1.5 22.537109 C 1.5 22.537109 6.3088999 21.5 8.75 21.5 C 13.6322 21.5 18.3678 23.572266 23.25 23.572266 C 25.6911 23.572266 30.498047 22.537109 30.498047 22.537109 L 30.498047 21.537109 C 30.498047 21.537109 25.6911 22.572266 23.25 22.572266 C 18.3678 22.572266 13.6322 20.5 8.75 20.5 z "
     transform="scale(0.26458333)" />
  <path
     id="path1766"
     style="color:#000000;opacity:0.2;fill:#81e9c0;stroke-width:0.070004"
     d="M 8.75 17.5 C 6.3088999 17.5 1.5 18.535156 1.5 18.535156 L 1.5 21.5 C 1.5 21.514626 1.4999762 21.52839 1.5 21.542969 C 1.5097388 27.508901 3.5146261 29.5 9.5 29.5 L 22.5 29.5 C 28.5 29.5 30.5 27.5 30.5 21.5 L 30.5 18.535156 C 30.5 18.535156 25.6911 19.572266 23.25 19.572266 C 18.3678 19.572266 13.6327 17.5 8.75 17.5 z "
     transform="scale(0.26458333)" />
  <path
     id="path1886"
     style="color:#000000;opacity:0.2;fill:#81e9c0;stroke-width:0.0185219"
     d="M 8.75 20.5 C 6.3088999 20.5 1.5 21.535156 1.5 21.535156 C 1.5079698 27.507274 3.5119667 29.5 9.5 29.5 L 22.5 29.5 C 28.488033 29.5 30.49203 27.507273 30.5 21.535156 C 30.5 21.535156 25.6911 22.572266 23.25 22.572266 C 18.3678 22.572266 13.6327 20.5 8.75 20.5 z "
     transform="scale(0.26458333)" />
  <path
     id="rect13250"
     style="fill:url(#linearGradient16320);fill-opacity:1;stroke-width:0.264583;stroke-linejoin:round;opacity:1"
     d="m 2.6458333,0.79375 c -1.71979143,0 -2.11666664,0.396875 -2.11666664,2.1166666 v 2.6458335 c 0,1.7197919 0.39687515,2.1166666 2.11666664,2.1166666 h 3.175 c 1.7197913,0 2.1166666,-0.3968747 2.1166666,-2.1166666 V 2.9104166 C 7.9374999,1.190625 7.5406249,0.79375 5.8208333,0.79375 Z m 0,0.2645833 h 3.175 c 1.5213541,0 1.8520833,0.3307294 1.8520833,1.8520833 v 2.6458335 c 0,1.5213542 -0.3307292,1.8520833 -1.8520833,1.8520833 h -3.175 c -1.5213541,0 -1.85208331,-0.3307291 -1.85208331,-1.8520833 V 2.9104166 c 0,-1.521354 0.33072921,-1.8520834 1.85208331,-1.8520833 z"
     sodipodi:nodetypes="ssssssssssssssssss" />
  <path
     id="rect2545"
     style="opacity:0.4;fill:#000000;stroke-width:0.387914;stroke-linejoin:round"
     d="m 2.6458333,0.52916667 c -1.91822909,0 -2.38124997,0.4630208 -2.38124997,2.38124993 V 5.55625 c 0,1.8520831 0.52916735,2.38125 2.38124997,2.38125 h 3.175 c 1.8520841,0 2.3812499,-0.5291669 2.3812499,-2.38125 V 2.9104166 c 0,-1.8520832 -0.5291666,-2.38124988 -2.3812499,-2.38124993 z m 0,0.26458333 h 3.175 c 1.7197916,0 2.1166666,0.396875 2.1166666,2.1166666 V 5.55625 c 0,1.7197917 -0.3968753,2.1166666 -2.1166666,2.1166666 h -3.175 c -1.71979162,0 -2.11666664,-0.3968749 -2.11666664,-2.1166666 V 2.9104166 c 0,-1.7197916 0.39687505,-2.1166666 2.11666664,-2.1166666 z"
     sodipodi:nodetypes="ssssssssssssssssss" />
</svg>
