<?xml version="1.0" encoding="UTF-8" standalone="no"?>
<!-- Created with Inkscape (http://www.inkscape.org/) -->

<svg
   width="32"
   height="32"
   viewBox="0 0 8.4666665 8.4666669"
   version="1.1"
   id="svg2719"
   inkscape:version="1.1.2 (0a00cf5339, 2022-02-04)"
   sodipodi:docname="krita.svg"
   xmlns:inkscape="http://www.inkscape.org/namespaces/inkscape"
   xmlns:sodipodi="http://sodipodi.sourceforge.net/DTD/sodipodi-0.dtd"
   xmlns:xlink="http://www.w3.org/1999/xlink"
   xmlns="http://www.w3.org/2000/svg"
   xmlns:svg="http://www.w3.org/2000/svg">
  <sodipodi:namedview
     id="namedview2721"
     pagecolor="#ffffff"
     bordercolor="#666666"
     borderopacity="1.0"
     inkscape:pageshadow="2"
     inkscape:pageopacity="0.0"
     inkscape:pagecheckerboard="0"
     inkscape:document-units="px"
     showgrid="false"
     units="px"
     inkscape:zoom="8.7173008"
     inkscape:cx="-0.86035806"
     inkscape:cy="13.1348"
     inkscape:window-width="1851"
     inkscape:window-height="1016"
     inkscape:window-x="0"
     inkscape:window-y="0"
     inkscape:window-maximized="1"
     inkscape:current-layer="svg2719"
     showguides="true" />
  <defs
     id="defs2716">
    <linearGradient
       inkscape:collect="always"
       id="linearGradient1871">
      <stop
         style="stop-color:#ffffff;stop-opacity:1;"
         offset="0"
         id="stop1867" />
      <stop
         style="stop-color:#ffffff;stop-opacity:0.1"
         offset="0.12"
         id="stop2515" />
      <stop
         style="stop-color:#ffffff;stop-opacity:0.102"
         offset="0.89999998"
         id="stop2581" />
      <stop
         style="stop-color:#ffffff;stop-opacity:0.502"
         offset="1"
         id="stop1869" />
    </linearGradient>
    <linearGradient
       inkscape:collect="always"
       xlink:href="#linearGradient1871"
       id="linearGradient16320"
       x1="10"
       y1="4"
       x2="10"
       y2="29.100245"
       gradientUnits="userSpaceOnUse"
       gradientTransform="matrix(0.26458333,0,0,0.26458333,0,-0.26458332)" />
    <linearGradient
       inkscape:collect="always"
       xlink:href="#linearGradient1469"
       id="linearGradient1346"
       x1="2.1166666"
       y1="14.816667"
       x2="14.2875"
       y2="2.645834"
       gradientUnits="userSpaceOnUse"
       gradientTransform="matrix(1.9572554,0,0,1.9572554,-0.57142866,-0.57142862)" />
    <linearGradient
       inkscape:collect="always"
       id="linearGradient1469">
      <stop
         style="stop-color:#db43a5;stop-opacity:1;"
         offset="0"
         id="stop1465" />
      <stop
         style="stop-color:#ff57ec;stop-opacity:1"
         offset="1"
         id="stop1467" />
    </linearGradient>
    <linearGradient
       inkscape:collect="always"
       xlink:href="#linearGradient1014"
       id="linearGradient2825"
       x1="830.87299"
       y1="180.29501"
       x2="185.65994"
       y2="865.52716"
       gradientUnits="userSpaceOnUse"
       gradientTransform="matrix(0.03312249,0,0,0.03312249,-0.95870702,-0.95870551)" />
    <linearGradient
       id="linearGradient1014"
       x1="13.647"
       x2="1.63"
       y1="2.8415"
       y2="15.328"
       gradientTransform="matrix(54.869734,0,0,54.869734,47.430386,47.886564)"
       gradientUnits="userSpaceOnUse">
      <stop
         stop-color="#fff"
         stop-opacity="0"
         offset="0"
         id="stop14" />
      <stop
         stop-color="#E8FFFC"
         stop-opacity=".1387"
         offset=".1387"
         id="stop16" />
      <stop
         stop-color="#ADFFF3"
         stop-opacity=".43"
         offset=".43"
         id="stop18" />
      <stop
         stop-color="#4FFFE5"
         stop-opacity=".8463"
         offset=".8463"
         id="stop20" />
      <stop
         stop-color="#2BFFE0"
         offset="1"
         id="stop22" />
    </linearGradient>
    <linearGradient
       inkscape:collect="always"
       xlink:href="#linearGradient1018"
       id="linearGradient1239"
       x1="340.81418"
       y1="390.53976"
       x2="1084.8319"
       y2="1069.1462"
       gradientUnits="userSpaceOnUse"
       gradientTransform="matrix(0.03312249,0,0,0.03312249,-0.95870664,-0.95870532)" />
    <linearGradient
       id="linearGradient1018"
       x1="1.9072"
       x2="15.875225"
       y1="1.6914001"
       y2="15.866918"
       gradientTransform="matrix(54.869734,0,0,54.869734,47.430386,47.886564)"
       gradientUnits="userSpaceOnUse">
      <stop
         stop-color="#fff"
         stop-opacity="0"
         offset="0"
         id="stop25" />
      <stop
         stop-color="#FFFFF8"
         stop-opacity=".0883"
         offset=".0883"
         id="stop27" />
      <stop
         stop-color="#FFFEE5"
         stop-opacity=".2164"
         offset=".2164"
         id="stop29" />
      <stop
         stop-color="#FFFCC5"
         stop-opacity=".3689"
         offset=".3689"
         id="stop31" />
      <stop
         stop-color="#FFF999"
         stop-opacity=".5402"
         offset=".5402"
         id="stop33" />
      <stop
         stop-color="#FFF660"
         stop-opacity=".7272"
         offset=".7272"
         id="stop35" />
      <stop
         stop-color="#FFF31C"
         stop-opacity=".9242"
         offset=".9242"
         id="stop37" />
      <stop
         stop-color="#FFF100"
         offset="1"
         id="stop39" />
    </linearGradient>
    <linearGradient
       y2="200.87404"
       x2="1280.8954"
       y1="62.713318"
       x1="1142.5884"
       gradientTransform="matrix(0.10680106,-0.01101566,0.01101566,0.10680106,-122.15144,11.115612)"
       gradientUnits="userSpaceOnUse"
       id="linearGradient1403"
       xlink:href="#linearGradient1373" />
    <linearGradient
       id="linearGradient1373">
      <stop
         id="stop1369"
         offset="0"
         style="stop-color:#343434;stop-opacity:1" />
      <stop
         id="stop1371"
         offset="1"
         style="stop-color:#4d4d4d;stop-opacity:1" />
    </linearGradient>
    <linearGradient
       gradientTransform="matrix(3.1592762e-4,0.02840594,0.02840594,-3.1592762e-4,-1.591284,-31.703682)"
       y2="89.862335"
       x2="1324.9103"
       y1="230.86234"
       x1="1327.5938"
       gradientUnits="userSpaceOnUse"
       id="linearGradient1405"
       xlink:href="#linearGradient4663-8-4" />
    <linearGradient
       id="linearGradient4663-8-4">
      <stop
         offset="0"
         style="stop-color:#5596ea;stop-opacity:1"
         id="stop4665-6-3" />
      <stop
         offset="1"
         style="stop-color:#5596ea;stop-opacity:0"
         id="stop4667-8-0" />
    </linearGradient>
  </defs>
  <path
     id="rect18683"
     style="opacity:0.1;fill:#000000;stroke-width:0.264583;stroke-linejoin:round"
     d="m 2.38125,0.92604165 c -1.45520832,0 -1.984375,0.52916665 -1.984375,1.98437495 v 3.0427085 c 0,1.5875 0.52916665,2.1166666 2.1166666,2.1166666 h 3.4395833 c 1.5875,0 2.1166667,-0.5291666 2.1166667,-2.1166666 V 3.0427083 c 0,-1.5875 -0.5291667,-2.11666665 -2.1166667,-2.11666665 z"
     sodipodi:nodetypes="sssssssss" />
  <path
     id="rect863"
     style="fill:url(#linearGradient1346);fill-opacity:1;stroke-width:0.517856"
     d="M 9 2.5 C 3.5 2.5 1.5 4.4999998 1.5 10 L 1.5 21.5 C 1.5 27.5 3.5 29.5 9.5 29.5 L 22.5 29.5 C 28.5 29.5 30.5 27.5 30.5 21.5 L 30.5 10.5 C 30.499999 4.5 28.5 2.5 22.5 2.5 L 9 2.5 z "
     transform="scale(0.26458333)" />
  <path
     id="rect2737"
     style="fill:url(#linearGradient2825);fill-opacity:1;stroke-width:0.0331224"
     d="M 9 2.5 C 3.5000001 2.5 1.5 4.4999998 1.5 10 L 1.5 21.5 C 1.5 27.5 3.5 29.5 9.5 29.5 L 22.5 29.5 C 28.5 29.5 30.5 27.5 30.5 21.5 L 30.5 10.5 C 30.499999 4.5 28.5 2.5 22.5 2.5 L 9 2.5 z "
     transform="scale(0.26458333)" />
  <path
     id="rect911"
     style="fill:url(#linearGradient1239);stroke-width:0.036834"
     d="M 9 2.5 C 3.5000001 2.5 1.5 4.4999998 1.5 10 L 1.5 21.5 C 1.5 27.5 3.5 29.5 9.5 29.5 L 22.5 29.5 C 28.5 29.5 30.5 27.5 30.5 21.5 L 30.5 10.5 C 30.499999 4.5 28.5 2.5 22.5 2.5 L 9 2.5 z "
     transform="scale(0.26458333)" />
  <path
     id="path1393-3"
     style="display:inline;fill:#000000;fill-opacity:0.47;stroke:none;stroke-width:4.81009;stroke-linecap:butt;stroke-linejoin:miter;stroke-miterlimit:4;stroke-dasharray:none;stroke-dashoffset:0;stroke-opacity:1"
     d="M 2.3925781 5.2695312 C 1.9721728 6.0513101 1.7117477 7.0185986 1.5878906 8.1933594 C 4.421831 11.169572 8.0178185 14.963695 8.6347656 15.669922 C 9.9227194 17.144257 12.973171 19.072575 15.003906 18.892578 C 15.747447 19.45039 17.607595 20.68609 18.220703 21.011719 C 18.200142 21.300694 18.248438 21.596221 18.34375 21.890625 C 18.863496 23.495942 20.955586 24.59042 19.669922 26.246094 C 22.144908 24.846147 22.86399 22.409261 21.886719 20.625 C 21.276485 19.510866 20.351201 19.122995 19.564453 19.361328 C 19.092015 18.793535 17.21241 17.141504 16.638672 16.640625 C 16.262037 14.668595 13.681927 12.567595 12.025391 11.640625 C 11.150582 11.151101 6.2694281 7.8775697 2.3925781 5.2695312 z "
     transform="scale(0.26458333)" />
  <path
     id="path1393"
     style="display:inline;fill:url(#linearGradient1403);fill-opacity:1;stroke:none;stroke-width:4.81009;stroke-linecap:butt;stroke-linejoin:miter;stroke-miterlimit:4;stroke-dasharray:none;stroke-dashoffset:0;stroke-opacity:1"
     d="M 2.4238281 5.2128906 C 2.091876 5.8120878 1.8549141 6.521965 1.7050781 7.3535156 C 4.611917 10.390996 8.4868828 14.46696 9.1914062 15.273438 C 10.786588 17.099458 14.56684 20.006795 16.53125 18.173828 C 17.919384 15.873446 14.295581 12.775817 12.179688 11.591797 C 11.246774 10.978483 6.3667809 7.7900816 2.4238281 5.2128906 z "
     transform="scale(0.26458333)" />
  <path
     inkscape:connector-curvature="0"
     style="display:inline;fill:url(#linearGradient1405);fill-opacity:1;stroke:none;stroke-width:1.27267;stroke-linecap:butt;stroke-linejoin:miter;stroke-miterlimit:4;stroke-dasharray:none;stroke-dashoffset:0;stroke-opacity:1"
     d="M 5.2076255,5.2871294 C 3.1791316,7.0967243 1.5200258,5.3624501 1.2629618,4.7616792 1.414977,5.8044474 2.1176355,6.7376017 3.1791316,7.0967243 3.9808222,7.3679447 5.2601,7.3616496 5.8336231,6.3283713 Z"
     id="path1397" />
  <path
     inkscape:connector-curvature="0"
     id="path1395"
     d="M 5.1992367,5.4574231 C 5.0335375,5.5333114 5.0514569,5.5881623 4.9043307,5.5645009 4.8028556,5.5481806 3.9237767,4.8818258 3.9237767,4.8818258 3.8792193,4.7748959 3.9326683,4.6278963 4.0330696,4.5115508 4.12619,4.3893018 4.258996,4.3066686 4.37282,4.3281994 c 0,0 0.8334218,0.7226448 0.870332,0.818568 0.053514,0.1390777 -0.00383,0.1328629 -0.043914,0.3106557 z"
     style="fill:#bfbfbf;fill-opacity:1;stroke:none;stroke-width:1.27267;stroke-linecap:butt;stroke-linejoin:miter;stroke-miterlimit:4;stroke-dasharray:none;stroke-dashoffset:0;stroke-opacity:1" />
  <path
     inkscape:connector-curvature="0"
     style="fill:#282828;fill-opacity:1;stroke:none;stroke-width:1.27267;stroke-linecap:butt;stroke-linejoin:miter;stroke-miterlimit:4;stroke-dasharray:none;stroke-dashoffset:0;stroke-opacity:1"
     d="M 5.2447258,6.9314657 C 5.8995655,6.5610637 6.0901587,5.9158292 5.831589,5.4437439 5.6306558,5.0768909 5.3007347,5.0075321 5.0728594,5.1849158 4.8468023,5.3608852 4.8268743,5.5705681 4.8943056,5.7788197 5.0318218,6.2035584 5.5848912,6.4934046 5.2447258,6.9314657 Z"
     id="path1399" />
  <path
     id="rect13250"
     style="fill:url(#linearGradient16320);fill-opacity:1;stroke-width:0.264583;stroke-linejoin:round"
     d="m 2.6458333,0.79375 c -1.71979143,0 -2.11666664,0.396875 -2.11666664,2.1166666 v 2.6458335 c 0,1.7197919 0.39687515,2.1166666 2.11666664,2.1166666 h 3.175 c 1.7197913,0 2.1166666,-0.3968747 2.1166666,-2.1166666 V 2.9104166 C 7.9374999,1.190625 7.5406249,0.79375 5.8208333,0.79375 Z m 0,0.2645833 h 3.175 c 1.5213541,0 1.8520833,0.3307294 1.8520833,1.8520833 v 2.6458335 c 0,1.5213542 -0.3307292,1.8520833 -1.8520833,1.8520833 h -3.175 c -1.5213541,0 -1.85208331,-0.3307291 -1.85208331,-1.8520833 V 2.9104166 c 0,-1.521354 0.33072921,-1.8520834 1.85208331,-1.8520833 z"
     sodipodi:nodetypes="ssssssssssssssssss" />
  <path
     id="rect2545"
     style="opacity:0.4;fill:#000000;stroke-width:0.387914;stroke-linejoin:round"
     d="m 2.6458333,0.52916667 c -1.91822909,0 -2.38124997,0.4630208 -2.38124997,2.38124993 V 5.55625 c 0,1.8520831 0.52916735,2.38125 2.38124997,2.38125 h 3.175 c 1.8520841,0 2.3812499,-0.5291669 2.3812499,-2.38125 V 2.9104166 c 0,-1.8520832 -0.5291666,-2.38124988 -2.3812499,-2.38124993 z m 0,0.26458333 h 3.175 c 1.7197916,0 2.1166666,0.396875 2.1166666,2.1166666 V 5.55625 c 0,1.7197917 -0.3968753,2.1166666 -2.1166666,2.1166666 h -3.175 c -1.71979162,0 -2.11666664,-0.3968749 -2.11666664,-2.1166666 V 2.9104166 c 0,-1.7197916 0.39687505,-2.1166666 2.11666664,-2.1166666 z"
     sodipodi:nodetypes="ssssssssssssssssss" />
</svg>
