<?xml version="1.0" encoding="UTF-8" standalone="no"?>
<!-- Created with Inkscape (http://www.inkscape.org/) -->

<svg
   width="32"
   height="32"
   viewBox="0 0 8.4666665 8.4666669"
   version="1.1"
   id="svg2719"
   inkscape:version="1.1.2 (0a00cf5339, 2022-02-04)"
   sodipodi:docname="libreoffice-writer.svg"
   xmlns:inkscape="http://www.inkscape.org/namespaces/inkscape"
   xmlns:sodipodi="http://sodipodi.sourceforge.net/DTD/sodipodi-0.dtd"
   xmlns:xlink="http://www.w3.org/1999/xlink"
   xmlns="http://www.w3.org/2000/svg"
   xmlns:svg="http://www.w3.org/2000/svg">
  <sodipodi:namedview
     id="namedview2721"
     pagecolor="#ffffff"
     bordercolor="#666666"
     borderopacity="1.0"
     inkscape:pageshadow="2"
     inkscape:pageopacity="0.0"
     inkscape:pagecheckerboard="0"
     inkscape:document-units="px"
     showgrid="false"
     units="px"
     inkscape:zoom="17.103145"
     inkscape:cx="7.1624253"
     inkscape:cy="15.31882"
     inkscape:window-width="1920"
     inkscape:window-height="998"
     inkscape:window-x="0"
     inkscape:window-y="0"
     inkscape:window-maximized="1"
     inkscape:current-layer="svg2719"
     showguides="false" />
  <defs
     id="defs2716">
    <linearGradient
       inkscape:collect="always"
       id="linearGradient2290">
      <stop
         style="stop-color:#259dd2;stop-opacity:1"
         offset="0"
         id="stop2286" />
      <stop
         style="stop-color:#065d8d;stop-opacity:1"
         offset="1"
         id="stop2288" />
    </linearGradient>
    <linearGradient
       inkscape:collect="always"
       id="linearGradient1871">
      <stop
         style="stop-color:#ffffff;stop-opacity:1;"
         offset="0"
         id="stop1867" />
      <stop
         style="stop-color:#ffffff;stop-opacity:0.1"
         offset="0.12"
         id="stop2515" />
      <stop
         style="stop-color:#ffffff;stop-opacity:0.102"
         offset="0.89999998"
         id="stop2581" />
      <stop
         style="stop-color:#ffffff;stop-opacity:0.502"
         offset="1"
         id="stop1869" />
    </linearGradient>
    <linearGradient
       inkscape:collect="always"
       xlink:href="#linearGradient1871"
       id="linearGradient16320"
       x1="10"
       y1="4"
       x2="10"
       y2="29.100245"
       gradientUnits="userSpaceOnUse"
       gradientTransform="matrix(0.26458333,0,0,0.26458333,0,-0.26458332)" />
    <linearGradient
       inkscape:collect="always"
       xlink:href="#linearGradient2290"
       id="linearGradient2292"
       x1="5.8208332"
       y1="7.9375"
       x2="2.6458333"
       y2="0.5291667"
       gradientUnits="userSpaceOnUse" />
    <linearGradient
       inkscape:collect="always"
       xlink:href="#linearGradient9171"
       id="linearGradient1939"
       x1="23"
       y1="1.9999999"
       x2="23"
       y2="44"
       gradientUnits="userSpaceOnUse"
       gradientTransform="matrix(0.50000001,0,0,0.50000001,3.5001861,3.5003343)" />
    <linearGradient
       inkscape:collect="always"
       id="linearGradient9171">
      <stop
         style="stop-color:#0369a3;stop-opacity:1"
         offset="0"
         id="stop9167" />
      <stop
         style="stop-color:#047fc6;stop-opacity:1"
         offset="1"
         id="stop9169" />
    </linearGradient>
  </defs>
  <path
     id="rect18683"
     style="opacity:0.1;fill:#000000;stroke-width:0.264583;stroke-linejoin:round"
     d="m 2.38125,0.92604165 c -1.45520832,0 -1.984375,0.52916665 -1.984375,1.98437495 v 3.0427085 c 0,1.5875 0.52916665,2.1166666 2.1166666,2.1166666 h 3.4395833 c 1.5875,0 2.1166667,-0.5291666 2.1166667,-2.1166666 V 3.0427083 c 0,-1.5875 -0.5291667,-2.11666665 -2.1166667,-2.11666665 z"
     sodipodi:nodetypes="sssssssss" />
  <path
     id="rect6397"
     style="fill:url(#linearGradient2292);fill-opacity:1;stroke-width:0.255274;stroke-linejoin:round"
     d="M 0.39687499,2.6458334 C 0.396875,1.190625 0.92604165,0.66145833 2.38125,0.66145834 h 3.571875 c 1.5874999,-1e-8 2.1166666,0.52916666 2.1166668,2.11666666 l 10e-8,2.9104168 c 0,1.5874999 -0.529166,2.1166666 -2.116666,2.1166666 H 2.5135417 c -1.58750001,0 -2.11666671,-0.5291667 -2.11666671,-2.1166667 z"
     sodipodi:nodetypes="ccccccccc" />
  <path
     id="rect2161"
     style="fill:#ffffff;stroke-width:2;stroke-linecap:round;stroke-linejoin:round"
     d="M 10,5 C 4.9999999,5 3.9999981,6.0000003 4,11 v 10 c -1.9e-6,5 0.9999999,6 6,6 h 12 c 5,0 6.000002,-1 6,-6 V 12 L 21,5 Z"
     transform="scale(0.26458333)"
     sodipodi:nodetypes="scssssccs" />
  <path
     id="rect1372"
     style="opacity:0.1;fill:#ffffff;fill-opacity:1;stroke-width:0.999999;stroke-linejoin:round"
     d="M 1.5 16 L 1.5 21.5 C 1.5 27.5 3.5 29.5 9.5 29.5 L 22.5 29.5 C 28.5 29.5 30.5 27.5 30.5 21.5 L 30.5 16 L 1.5 16 z "
     transform="scale(0.26458333)" />
  <g
     id="g1928"
     transform="translate(0.26458336,0.52916667)">
    <path
       id="rect1094"
       style="fill:url(#linearGradient1939);fill-opacity:1;stroke-width:0.499997;stroke-linejoin:round"
       d="M 7.5,8 C 7.2229984,8 7,8.2229999 7,8.5 7,8.7770016 7.2229999,9 7.5,9 h 5 C 12.777002,9 13,8.7770004 13,8.5 13,8.2229984 12.777,8 12.5,8 Z m 8.039062,0 C 14.688063,8 14,8.6880626 14,9.5390625 V 13.460938 C 14,14.311937 14.688063,15 15.539062,15 h 5.921876 C 22.311937,15 23,14.311937 23,13.460938 V 9.5390625 C 23,8.6880626 22.311937,8 21.460938,8 Z M 7.5,10 C 7.2229984,10 7,10.223 7,10.5 7,10.777002 7.2229999,11 7.5,11 h 5 C 12.777002,11 13,10.777 13,10.5 13,10.222998 12.777,10 12.5,10 Z m 0,2 C 7.2229984,12 7,12.223 7,12.5 7,12.777002 7.2229999,13 7.5,13 h 5 C 12.777002,13 13,12.777 13,12.5 13,12.222998 12.777,12 12.5,12 Z m 0,2 C 7.2229984,14 7,14.223 7,14.5 7,14.777002 7.2229999,15 7.5,15 h 5 C 12.777002,15 13,14.777 13,14.5 13,14.222998 12.777,14 12.5,14 Z m 0,2 C 7.2229984,16 7,16.223 7,16.5 7,16.777002 7.2229999,17 7.5,17 h 15 C 22.777002,17 23,16.777 23,16.5 23,16.222998 22.777,16 22.5,16 Z m 0,2 C 7.2229984,18 7,18.223 7,18.5 7,18.777002 7.2229999,19 7.5,19 h 15 C 22.777002,19 23,18.777 23,18.5 23,18.222998 22.777,18 22.5,18 Z m 0,2 C 7.2229984,20 7,20.223 7,20.5 7,20.777002 7.2229999,21 7.5,21 h 11 C 18.777002,21 19,20.777 19,20.5 19,20.223002 18.777,20 18.5,20 Z"
       transform="scale(0.26458333)" />
    <path
       id="path7982"
       style="fill:#aadcf7;fill-opacity:1;fill-rule:nonzero;stroke-width:0.999999"
       d="M 15.664062,9 C 15.293863,9.0187252 15,9.3243141 15,9.6992188 v 3.2441402 l 1.085938,-1.857421 c 0.358999,-0.614001 1.23153,-0.653219 1.644531,-0.07422 l 1.263672,1.769531 c 0.053,0.07401 0.163657,0.07881 0.222656,0.0078 l 0.466797,-0.55664 c 0.396,-0.473016 1.126671,-0.466328 1.513672,0.01367 L 22,13.240234 V 9.6992188 C 22,9.3122189 21.687783,9 21.300781,9 h -5.601562 c -0.01209,0 -0.02321,-6.04e-4 -0.03516,0 z"
       transform="scale(0.26458333)" />
  </g>
  <path
     id="rect13250"
     style="fill:url(#linearGradient16320);fill-opacity:1;stroke-width:0.264583;stroke-linejoin:round"
     d="m 2.6458333,0.79375 c -1.71979143,0 -2.11666664,0.396875 -2.11666664,2.1166666 v 2.6458335 c 0,1.7197919 0.39687515,2.1166666 2.11666664,2.1166666 h 3.175 c 1.7197913,0 2.1166666,-0.3968747 2.1166666,-2.1166666 V 2.9104166 C 7.9374999,1.190625 7.5406249,0.79375 5.8208333,0.79375 Z m 0,0.2645833 h 3.175 c 1.5213541,0 1.8520833,0.3307294 1.8520833,1.8520833 v 2.6458335 c 0,1.5213542 -0.3307292,1.8520833 -1.8520833,1.8520833 h -3.175 c -1.5213541,0 -1.85208331,-0.3307291 -1.85208331,-1.8520833 V 2.9104166 c 0,-1.521354 0.33072921,-1.8520834 1.85208331,-1.8520833 z"
     sodipodi:nodetypes="ssssssssssssssssss" />
  <path
     id="rect2545"
     style="opacity:0.4;fill:#000000;stroke-width:0.387914;stroke-linejoin:round"
     d="m 2.6458333,0.52916667 c -1.91822909,0 -2.38124997,0.4630208 -2.38124997,2.38124993 V 5.55625 c 0,1.8520831 0.52916735,2.38125 2.38124997,2.38125 h 3.175 c 1.8520841,0 2.3812499,-0.5291669 2.3812499,-2.38125 V 2.9104166 c 0,-1.8520832 -0.5291666,-2.38124988 -2.3812499,-2.38124993 z m 0,0.26458333 h 3.175 c 1.7197916,0 2.1166666,0.396875 2.1166666,2.1166666 V 5.55625 c 0,1.7197917 -0.3968753,2.1166666 -2.1166666,2.1166666 h -3.175 c -1.71979162,0 -2.11666664,-0.3968749 -2.11666664,-2.1166666 V 2.9104166 c 0,-1.7197916 0.39687505,-2.1166666 2.11666664,-2.1166666 z"
     sodipodi:nodetypes="ssssssssssssssssss" />
</svg>
