<?xml version="1.0" encoding="UTF-8" standalone="no"?>
<!-- Created with Inkscape (http://www.inkscape.org/) -->

<svg
   width="32"
   height="32"
   viewBox="0 0 8.4666665 8.4666669"
   version="1.1"
   id="svg2719"
   inkscape:version="1.1.2 (0a00cf5339, 2022-02-04)"
   sodipodi:docname="libreoffice-draw.svg"
   xmlns:inkscape="http://www.inkscape.org/namespaces/inkscape"
   xmlns:sodipodi="http://sodipodi.sourceforge.net/DTD/sodipodi-0.dtd"
   xmlns:xlink="http://www.w3.org/1999/xlink"
   xmlns="http://www.w3.org/2000/svg"
   xmlns:svg="http://www.w3.org/2000/svg">
  <sodipodi:namedview
     id="namedview2721"
     pagecolor="#ffffff"
     bordercolor="#666666"
     borderopacity="1.0"
     inkscape:pageshadow="2"
     inkscape:pageopacity="0.0"
     inkscape:pagecheckerboard="0"
     inkscape:document-units="px"
     showgrid="false"
     units="px"
     inkscape:zoom="25.5625"
     inkscape:cx="18.132029"
     inkscape:cy="15.452323"
     inkscape:window-width="1920"
     inkscape:window-height="998"
     inkscape:window-x="0"
     inkscape:window-y="0"
     inkscape:window-maximized="1"
     inkscape:current-layer="svg2719"
     showguides="false" />
  <defs
     id="defs2716">
    <linearGradient
       inkscape:collect="always"
       id="linearGradient2290">
      <stop
         style="stop-color:#d98027;stop-opacity:1"
         offset="0"
         id="stop2286" />
      <stop
         style="stop-color:#be5e0f;stop-opacity:1"
         offset="1"
         id="stop2288" />
    </linearGradient>
    <linearGradient
       inkscape:collect="always"
       id="linearGradient1871">
      <stop
         style="stop-color:#ffffff;stop-opacity:1;"
         offset="0"
         id="stop1867" />
      <stop
         style="stop-color:#ffffff;stop-opacity:0.1"
         offset="0.12"
         id="stop2515" />
      <stop
         style="stop-color:#ffffff;stop-opacity:0.102"
         offset="0.89999998"
         id="stop2581" />
      <stop
         style="stop-color:#ffffff;stop-opacity:0.502"
         offset="1"
         id="stop1869" />
    </linearGradient>
    <linearGradient
       inkscape:collect="always"
       xlink:href="#linearGradient1871"
       id="linearGradient16320"
       x1="10"
       y1="4"
       x2="10"
       y2="29.100245"
       gradientUnits="userSpaceOnUse"
       gradientTransform="matrix(0.26458333,0,0,0.26458333,0,-0.26458332)" />
    <linearGradient
       inkscape:collect="always"
       xlink:href="#linearGradient2290"
       id="linearGradient2292"
       x1="5.8208332"
       y1="7.9375"
       x2="2.6458333"
       y2="0.5291667"
       gradientUnits="userSpaceOnUse" />
    <linearGradient
       id="_Linear12"
       x2="1"
       gradientTransform="matrix(0,-8.29,8.29,0,11.8,20.55)"
       gradientUnits="userSpaceOnUse">
      <stop
         stop-color="#f0bc6f"
         offset="0"
         id="stop12" />
      <stop
         stop-color="#f9eab5"
         offset="1"
         id="stop14" />
    </linearGradient>
    <linearGradient
       id="_Linear13"
       x2="1"
       gradientTransform="matrix(0,-8.85,8.85,0,14.04,24.5)"
       gradientUnits="userSpaceOnUse">
      <stop
         stop-color="#f5ce53"
         offset="0"
         id="stop17" />
      <stop
         stop-color="#fde9a9"
         offset="1"
         id="stop19" />
    </linearGradient>
  </defs>
  <path
     id="rect18683"
     style="opacity:0.1;fill:#000000;stroke-width:0.264583;stroke-linejoin:round"
     d="m 2.38125,0.92604165 c -1.45520832,0 -1.984375,0.52916665 -1.984375,1.98437495 v 3.0427085 c 0,1.5875 0.52916665,2.1166666 2.1166666,2.1166666 h 3.4395833 c 1.5875,0 2.1166667,-0.5291666 2.1166667,-2.1166666 V 3.0427083 c 0,-1.5875 -0.5291667,-2.11666665 -2.1166667,-2.11666665 z"
     sodipodi:nodetypes="sssssssss" />
  <path
     id="rect6397"
     style="fill:url(#linearGradient2292);fill-opacity:1;stroke-width:0.255274;stroke-linejoin:round"
     d="M 0.39687499,2.6458334 C 0.396875,1.190625 0.92604165,0.66145833 2.38125,0.66145834 h 3.571875 c 1.5874999,-1e-8 2.1166666,0.52916666 2.1166668,2.11666666 l 10e-8,2.9104168 c 0,1.5874999 -0.529166,2.1166666 -2.116666,2.1166666 H 2.5135417 c -1.58750001,0 -2.11666671,-0.5291667 -2.11666671,-2.1166667 z"
     sodipodi:nodetypes="ccccccccc" />
  <path
     id="rect2161"
     style="fill:#ffffff;stroke-width:2;stroke-linecap:round;stroke-linejoin:round"
     d="M 10,5 C 4.9999999,5 3.9999981,6.0000003 4,11 v 10 c -1.9e-6,5 0.9999999,6 6,6 h 12 c 5,0 6.000002,-1 6,-6 V 12 L 21,5 Z"
     transform="scale(0.26458333)"
     sodipodi:nodetypes="scssssccs" />
  <path
     id="rect1372"
     style="opacity:0.1;fill:#ffffff;fill-opacity:1;stroke-width:0.999999;stroke-linejoin:round"
     d="M 1.5 16 L 1.5 21.5 C 1.5 27.5 3.5 29.5 9.5 29.5 L 22.5 29.5 C 28.5 29.5 30.5 27.5 30.5 21.5 L 30.5 16 L 1.5 16 z "
     transform="scale(0.26458333)" />
  <g
     id="g1248"
     transform="matrix(0.26458333,0,0,0.26458333,0.00516769,-0.52916662)">
    <path
       style="color:#000000;clip-rule:evenodd;fill:url(#_Linear12);stroke-width:1px;-inkscape-stroke:none"
       d="m 12.98,21.5 c 2.485,0 4.5,-2.015 4.5,-4.5 0,-2.485 -2.015,-4.5 -4.5,-4.5 -2.485,0 -4.5,2.015 -4.5,4.5 0,2.485 2.015,4.5 4.5,4.5 z"
       id="path1007" />
    <path
       style="color:#000000;clip-rule:evenodd;fill:#cb851d;-inkscape-stroke:none"
       d="m 12.980469,12 c -2.755286,0 -5.0000003,2.244714 -5.0000003,5 0,2.755286 2.2447143,5 5.0000003,5 2.755285,0 5,-2.244714 5,-5 0,-2.755286 -2.244715,-5 -5,-5 z m 0,1 c 2.214709,0 4,1.785291 4,4 0,2.214709 -1.785291,4 -4,4 -2.21471,0 -4.0000003,-1.785291 -4.0000002,-4 0,-2.214709 1.7852902,-4 4.0000002,-4 z"
       id="path1009" />
    <path
       d="m 12.98,20 c 1.657,0 3,-1.343 3,-3 0,-1.657 -1.343,-3 -3,-3 -1.656,0 -3,1.343 -3,3 0,1.657 1.344,3 3,3 z"
       fill="#f0c46f"
       fill-opacity="0.6"
       id="path43"
       style="clip-rule:evenodd" />
    <path
       style="color:#000000;clip-rule:evenodd;fill:#c99c00;stroke-width:1px;stroke-linecap:round;stroke-linejoin:round;-inkscape-stroke:none"
       d="m 22.48,21.5 h -5 c -0.552,0 -1,-0.448 -1,-1 v -5 c 0,-0.552 0.448,-1 1,-1 h 5 c 0.552,0 1,0.448 1,1 v 5 c 0,0.552 -0.448,1 -1,1 z"
       id="path1150" />
    <path
       style="color:#000000;clip-rule:evenodd;fill:#876900;stroke-linecap:round;stroke-linejoin:round;-inkscape-stroke:none"
       d="m 17.480469,14 c -0.822531,0 -1.5,0.677469 -1.5,1.5 v 5 c 0,0.822531 0.677469,1.5 1.5,1.5 h 5 c 0.82253,0 1.5,-0.677469 1.5,-1.5 v -5 c 0,-0.822531 -0.67747,-1.5 -1.5,-1.5 z m 0,1 h 5 c 0.281468,0 0.5,0.218532 0.5,0.5 v 5 c 0,0.281468 -0.218532,0.5 -0.5,0.5 h -5 c -0.281469,0 -0.5,-0.218532 -0.5,-0.5 v -5 c 0,-0.281468 0.218531,-0.5 0.5,-0.5 z"
       id="path1152" />
    <path
       style="color:#000000;clip-rule:evenodd;fill:url(#_Linear13);stroke-width:1px;stroke-linecap:round;stroke-linejoin:round;-inkscape-stroke:none"
       d="m 18.45,22.94 c 0.443,0.665 -0.034,1.555 -0.832,1.555 h -7.432 c -0.763,0 -1.245,-0.819 -0.875,-1.486 l 3.379,-6.08 c 0.363,-0.655 1.291,-0.692 1.706,-0.069 z"
       id="path902" />
    <path
       style="color:#000000;clip-rule:evenodd;fill:#c99c00;stroke-linecap:round;stroke-linejoin:round;-inkscape-stroke:none"
       d="m 13.503906,15.929688 c -0.495829,0.02002 -0.982553,0.275558 -1.25,0.755859 l -3.3808591,6.080078 c -0.5435722,0.979899 0.1917029,2.228516 1.3125001,2.228516 h 7.43164 c 1.169762,0 1.89698,-1.3579 1.248047,-2.332032 L 14.8125,16.582031 c -0.305364,-0.458413 -0.811854,-0.6724 -1.308594,-0.652343 z m 0.03906,0.970703 c 0.161759,-0.0064 0.327864,0.07174 0.4375,0.236328 l 4.052734,6.080078 c 0.237066,0.355867 0.01022,0.777344 -0.416016,0.777344 h -7.43164 c -0.4052016,0 -0.6339273,-0.388088 -0.4375001,-0.742188 L 13.12695,17.171875 c 0.09587,-0.172985 0.254256,-0.265041 0.416016,-0.271484 z"
       id="path904" />
    <path
       d="m 16.98,23 h -6 l 2.5,-5 z"
       fill="#f5ce53"
       fill-opacity="0.6"
       id="path49"
       style="clip-rule:evenodd" />
  </g>
  <path
     id="rect13250"
     style="fill:url(#linearGradient16320);fill-opacity:1;stroke-width:0.264583;stroke-linejoin:round"
     d="m 2.6458333,0.79375 c -1.71979143,0 -2.11666664,0.396875 -2.11666664,2.1166666 v 2.6458335 c 0,1.7197919 0.39687515,2.1166666 2.11666664,2.1166666 h 3.175 c 1.7197913,0 2.1166666,-0.3968747 2.1166666,-2.1166666 V 2.9104166 C 7.9374999,1.190625 7.5406249,0.79375 5.8208333,0.79375 Z m 0,0.2645833 h 3.175 c 1.5213541,0 1.8520833,0.3307294 1.8520833,1.8520833 v 2.6458335 c 0,1.5213542 -0.3307292,1.8520833 -1.8520833,1.8520833 h -3.175 c -1.5213541,0 -1.85208331,-0.3307291 -1.85208331,-1.8520833 V 2.9104166 c 0,-1.521354 0.33072921,-1.8520834 1.85208331,-1.8520833 z"
     sodipodi:nodetypes="ssssssssssssssssss" />
  <path
     id="rect2545"
     style="opacity:0.4;fill:#000000;stroke-width:0.387914;stroke-linejoin:round"
     d="m 2.6458333,0.52916667 c -1.91822909,0 -2.38124997,0.4630208 -2.38124997,2.38124993 V 5.55625 c 0,1.8520831 0.52916735,2.38125 2.38124997,2.38125 h 3.175 c 1.8520841,0 2.3812499,-0.5291669 2.3812499,-2.38125 V 2.9104166 c 0,-1.8520832 -0.5291666,-2.38124988 -2.3812499,-2.38124993 z m 0,0.26458333 h 3.175 c 1.7197916,0 2.1166666,0.396875 2.1166666,2.1166666 V 5.55625 c 0,1.7197917 -0.3968753,2.1166666 -2.1166666,2.1166666 h -3.175 c -1.71979162,0 -2.11666664,-0.3968749 -2.11666664,-2.1166666 V 2.9104166 c 0,-1.7197916 0.39687505,-2.1166666 2.11666664,-2.1166666 z"
     sodipodi:nodetypes="ssssssssssssssssss" />
</svg>
