<?xml version="1.0" encoding="UTF-8" standalone="no"?>
<!-- Created with Inkscape (http://www.inkscape.org/) -->

<svg
   width="32"
   height="32"
   viewBox="0 0 8.4666665 8.4666669"
   version="1.1"
   id="svg2719"
   inkscape:version="1.1.2 (0a00cf5339, 2022-02-04)"
   sodipodi:docname="lollypop.svg"
   xmlns:inkscape="http://www.inkscape.org/namespaces/inkscape"
   xmlns:sodipodi="http://sodipodi.sourceforge.net/DTD/sodipodi-0.dtd"
   xmlns:xlink="http://www.w3.org/1999/xlink"
   xmlns="http://www.w3.org/2000/svg"
   xmlns:svg="http://www.w3.org/2000/svg">
  <sodipodi:namedview
     id="namedview2721"
     pagecolor="#ffffff"
     bordercolor="#666666"
     borderopacity="1.0"
     inkscape:pageshadow="2"
     inkscape:pageopacity="0.0"
     inkscape:pagecheckerboard="0"
     inkscape:document-units="px"
     showgrid="false"
     units="px"
     inkscape:zoom="6.1328124"
     inkscape:cx="9.457325"
     inkscape:cy="34.812739"
     inkscape:window-width="1920"
     inkscape:window-height="1012"
     inkscape:window-x="0"
     inkscape:window-y="0"
     inkscape:window-maximized="1"
     inkscape:current-layer="svg2719" />
  <defs
     id="defs2716">
    <linearGradient
       inkscape:collect="always"
       id="linearGradient4145">
      <stop
         style="stop-color:#e72662;stop-opacity:1"
         offset="0"
         id="stop4141" />
      <stop
         style="stop-color:#f76363;stop-opacity:1"
         offset="1"
         id="stop4143" />
    </linearGradient>
    <linearGradient
       inkscape:collect="always"
       id="linearGradient2171">
      <stop
         style="stop-color:#e0e0e0;stop-opacity:1"
         offset="0"
         id="stop2167" />
      <stop
         style="stop-color:#f2f2f2;stop-opacity:1"
         offset="1"
         id="stop2169" />
    </linearGradient>
    <linearGradient
       inkscape:collect="always"
       id="linearGradient1871">
      <stop
         style="stop-color:#ffffff;stop-opacity:1;"
         offset="0"
         id="stop1867" />
      <stop
         style="stop-color:#ffffff;stop-opacity:0.1"
         offset="0.12"
         id="stop2515" />
      <stop
         style="stop-color:#ffffff;stop-opacity:0.102"
         offset="0.89999998"
         id="stop2581" />
      <stop
         style="stop-color:#ffffff;stop-opacity:0.502"
         offset="1"
         id="stop1869" />
    </linearGradient>
    <linearGradient
       inkscape:collect="always"
       xlink:href="#linearGradient1871"
       id="linearGradient16320"
       x1="10"
       y1="4"
       x2="10"
       y2="29.100245"
       gradientUnits="userSpaceOnUse"
       gradientTransform="matrix(0.26458333,0,0,0.26458333,0,-0.26458332)" />
    <linearGradient
       inkscape:collect="always"
       xlink:href="#linearGradient2171"
       id="linearGradient2292"
       x1="-0.0079929531"
       y1="-0.00081733015"
       x2="8.4666672"
       y2="8.4666672"
       gradientUnits="userSpaceOnUse" />
    <linearGradient
       inkscape:collect="always"
       xlink:href="#linearGradient4145"
       id="linearGradient930"
       x1="0.26458326"
       y1="0.79414684"
       x2="7.9386916"
       y2="7.9368348"
       gradientUnits="userSpaceOnUse"
       gradientTransform="translate(0.26458341)" />
    <linearGradient
       inkscape:collect="always"
       xlink:href="#linearGradient4145"
       id="linearGradient2146"
       x1="0.0039057354"
       y1="-2.6456692e-07"
       x2="32.003906"
       y2="32"
       gradientUnits="userSpaceOnUse" />
  </defs>
  <path
     id="rect18683"
     style="opacity:0.1;fill:#000000;stroke-width:0.264583;stroke-linejoin:round"
     d="m 2.38125,0.92604165 c -1.45520832,0 -1.984375,0.52916665 -1.984375,1.98437495 v 3.0427085 c 0,1.5875 0.52916665,2.1166666 2.1166666,2.1166666 h 3.4395833 c 1.5875,0 2.1166667,-0.5291666 2.1166667,-2.1166666 V 3.0427083 c 0,-1.5875 -0.5291667,-2.11666665 -2.1166667,-2.11666665 z"
     sodipodi:nodetypes="sssssssss" />
  <path
     id="rect6397"
     style="fill:url(#linearGradient2292);fill-opacity:1;stroke-width:0.255274;stroke-linejoin:round"
     d="M 0.39687499,2.6458334 C 0.396875,1.190625 0.92604165,0.66145833 2.38125,0.66145834 h 3.571875 c 1.5874999,-1e-8 2.1166666,0.52916666 2.1166668,2.11666666 l 10e-8,2.9104168 c 0,1.5874999 -0.529166,2.1166666 -2.116666,2.1166666 H 2.5135417 c -1.58750001,0 -2.11666671,-0.5291667 -2.11666671,-2.1166667 z"
     sodipodi:nodetypes="ccccccccc" />
  <path
     id="path867"
     style="opacity:0.1;fill:#000000;fill-opacity:1;stroke-width:0.93264"
     d="M 9 3.5 C 8.5335027 3.5 8.0947886 3.5152314 7.6777344 3.5449219 C 7.4307498 5.7679009 7.6885438 7.6713352 8.2910156 9.3105469 C 9.0928673 9.0012152 10.392744 9 12.5 9 L 16.464844 9 C 16.816812 6.8386265 17.389624 5.0252005 18.259766 3.5 L 9 3.5 z M 27.890625 3.8105469 C 25.700858 5.3267187 21.736228 7.0641277 20.121094 9.0019531 C 23.975913 9.0216471 24.785593 9.2620661 24.955078 12.125 C 26.715176 11.393247 28.541735 10.847255 30.484375 10.632812 C 30.489955 10.627548 30.494444 10.622444 30.5 10.617188 L 30.5 10.5 C 30.5 7.2305393 29.905837 5.1492821 28.394531 3.9316406 C 28.224992 3.8897846 28.055748 3.8475463 27.890625 3.8105469 z M 1.5214844 9.0898438 C 1.508052 9.3824621 1.5 9.6846526 1.5 10 L 1.5 11 L 1.5 17.306641 C 3.3390656 17.980073 5.1835152 18.441908 7 18.642578 L 7 14.5 C 7 13.786936 6.9997354 13.169061 7.0117188 12.628906 C 5.8664156 11.79232 3.635904 11.054562 1.5214844 9.0898438 z M 25 15.519531 L 25 19 C 25 19.860927 24.998209 20.594975 24.980469 21.226562 C 26.750038 22.390019 28.467614 23.768908 30.054688 25.414062 C 30.362708 24.357492 30.5 23.065946 30.5 21.5 L 30.5 16.826172 C 28.638385 16.183719 26.793405 15.73411 25 15.519531 z M 7.0449219 21.878906 C 5.3045429 22.601656 3.4986835 23.141082 1.5800781 23.359375 C 1.9336197 27.209359 3.5382045 28.935431 7.2382812 29.378906 C 8.9788613 28.063264 10.550677 26.59862 11.884766 24.998047 C 8.0265615 24.978577 7.2150055 24.739585 7.0449219 21.878906 z M 23.693359 24.621094 C 22.828207 25.000452 21.390292 25 19 25 L 15.542969 25 C 15.265233 26.707814 14.849022 28.197187 14.257812 29.5 L 22.5 29.5 C 23.18928 29.5 23.823424 29.471837 24.410156 29.416016 C 24.487241 27.602982 24.216278 26.015068 23.693359 24.621094 z "
     transform="scale(0.26458333)" />
  <path
     id="path1096"
     style="fill:url(#linearGradient2146);fill-opacity:1;stroke-width:0.93264"
     d="M 9,2.5 C 8.533503,2.5 8.0947885,2.5152305 7.6777344,2.5449219 7.4307496,4.7679011 7.6885385,6.671335 8.2910156,8.3105469 9.0928674,8.0012137 10.392744,8 12.5,8 h 3.964844 c 0.351968,-2.1613753 0.92478,-3.9747995 1.794922,-5.5 z M 25.890625,2.8105469 C 23.700858,4.3267187 21.736228,6.064128 20.121094,8.0019531 23.975913,8.0216473 24.785593,8.2620664 24.955078,11.125 26.715176,10.393247 28.541734,9.8472551 30.484375,9.6328125 30.334569,5.5367798 29.063927,3.5215965 25.890625,2.8105469 Z M 1.9160156,6.4492188 C 1.6305956,7.4218421 1.5,8.5964444 1.5,10 v 6.306641 c 1.8390655,0.673432 3.6835151,1.135267 5.5,1.335937 V 13.5 C 7,12.786936 6.9997331,12.169061 7.0117188,11.628906 5.1323894,10.256153 3.4035474,8.5716775 1.9160156,6.4492188 Z M 25,14.519531 V 18 c 0,0.860927 -0.0018,1.594975 -0.01953,2.226562 1.841184,1.210542 3.62539,2.654439 5.265625,4.388672 C 30.41951,23.723533 30.5,22.691543 30.5,21.5 V 15.826172 C 28.638374,15.183719 26.793405,14.73411 25,14.519531 Z M 7.0449219,20.878906 C 5.2850212,21.609763 3.4583187,22.153762 1.515625,22.367188 1.6655269,26.46586 2.9374325,28.481578 6.1152344,29.191406 8.305503,27.675144 10.269307,25.936195 11.884766,23.998047 8.026562,23.978577 7.2150056,23.739585 7.0449219,20.878906 Z M 23.693359,23.621094 C 22.828207,24.000453 21.390292,24 19,24 H 15.542969 C 15.191477,26.16135 14.620134,27.974813 13.75,29.5 h 8.75 c 0.659639,0 1.268382,-0.02517 1.833984,-0.07617 0.24434,-2.240145 -0.02288,-4.15594 -0.640625,-5.802734 z"
     transform="scale(0.26458333)"
     sodipodi:nodetypes="sccsccsccccccsccscccsccsccccccccsccscc" />
  <path
     d="m 3.1750001,3.1753968 v 2.6458334 c 0,0 0.8472495,-0.2301611 2.3824414,-1.3240809 0,-2.513e-4 -2.646e-4,-5.291e-4 -2.646e-4,-0.00106 -1.246e-4,-5.275e-4 -5.291e-4,-7.92e-4 -0.00106,-0.00132 -2.643e-4,-2.646e-4 -5.292e-4,-7.938e-4 -7.937e-4,-0.00132 -2.646e-4,-5.292e-4 -2.646e-4,-0.00106 -2.646e-4,-0.00132 C 3.9360465,3.3633301 3.1752631,3.175 3.1752631,3.175 Z"
     style="color:#000000;opacity:0.1;fill:#000000;fill-opacity:1;stroke-width:0.0700042"
     id="path2032"
     sodipodi:nodetypes="ccccssccc" />
  <path
     d="m 3.175,2.9108135 v 2.6458333 c 0,0 0.8472496,-0.2300588 2.3824415,-1.3239785 0,-2.514e-4 -2.646e-4,-5.292e-4 -2.646e-4,-0.00106 -1.244e-4,-5.292e-4 -5.292e-4,-7.938e-4 -0.00106,-0.00132 -2.645e-4,-2.646e-4 -5.291e-4,-7.938e-4 -7.937e-4,-0.00132 -2.646e-4,-5.292e-4 -2.646e-4,-0.00106 -2.646e-4,-0.00132 C 3.9360467,3.0988491 3.175263,2.9104167 3.175263,2.9104167 Z"
     style="color:#000000;fill:url(#linearGradient930);fill-opacity:1.0;stroke-width:0.264583"
     id="path886"
     sodipodi:nodetypes="cccccsccc" />
  <path
     id="rect13250"
     style="fill:url(#linearGradient16320);fill-opacity:1;stroke-width:0.264583;stroke-linejoin:round;opacity:0.7"
     d="m 2.6458333,0.79375 c -1.71979143,0 -2.11666664,0.396875 -2.11666664,2.1166666 v 2.6458335 c 0,1.7197919 0.39687515,2.1166666 2.11666664,2.1166666 h 3.175 c 1.7197913,0 2.1166666,-0.3968747 2.1166666,-2.1166666 V 2.9104166 C 7.9374999,1.190625 7.5406249,0.79375 5.8208333,0.79375 Z m 0,0.2645833 h 3.175 c 1.5213541,0 1.8520833,0.3307294 1.8520833,1.8520833 v 2.6458335 c 0,1.5213542 -0.3307292,1.8520833 -1.8520833,1.8520833 h -3.175 c -1.5213541,0 -1.85208331,-0.3307291 -1.85208331,-1.8520833 V 2.9104166 c 0,-1.521354 0.33072921,-1.8520834 1.85208331,-1.8520833 z"
     sodipodi:nodetypes="ssssssssssssssssss" />
  <path
     id="rect2545"
     style="opacity:0.4;fill:#000000;stroke-width:0.387914;stroke-linejoin:round"
     d="m 2.6458333,0.52916667 c -1.91822909,0 -2.38124997,0.4630208 -2.38124997,2.38124993 V 5.55625 c 0,1.8520831 0.52916735,2.38125 2.38124997,2.38125 h 3.175 c 1.8520841,0 2.3812499,-0.5291669 2.3812499,-2.38125 V 2.9104166 c 0,-1.8520832 -0.5291666,-2.38124988 -2.3812499,-2.38124993 z m 0,0.26458333 h 3.175 c 1.7197916,0 2.1166666,0.396875 2.1166666,2.1166666 V 5.55625 c 0,1.7197917 -0.3968753,2.1166666 -2.1166666,2.1166666 h -3.175 c -1.71979162,0 -2.11666664,-0.3968749 -2.11666664,-2.1166666 V 2.9104166 c 0,-1.7197916 0.39687505,-2.1166666 2.11666664,-2.1166666 z"
     sodipodi:nodetypes="ssssssssssssssssss" />
</svg>
