<?xml version="1.0" encoding="UTF-8" standalone="no"?>
<!-- Created with Inkscape (http://www.inkscape.org/) -->

<svg
   width="32"
   height="32"
   viewBox="0 0 8.4666665 8.4666669"
   version="1.1"
   id="svg2719"
   inkscape:version="1.1.2 (0a00cf5339, 2022-02-04)"
   sodipodi:docname="preferences-desktop-theme-applications.svg"
   xmlns:inkscape="http://www.inkscape.org/namespaces/inkscape"
   xmlns:sodipodi="http://sodipodi.sourceforge.net/DTD/sodipodi-0.dtd"
   xmlns:xlink="http://www.w3.org/1999/xlink"
   xmlns="http://www.w3.org/2000/svg"
   xmlns:svg="http://www.w3.org/2000/svg">
  <sodipodi:namedview
     id="namedview2721"
     pagecolor="#ffffff"
     bordercolor="#666666"
     borderopacity="1.0"
     inkscape:pageshadow="2"
     inkscape:pageopacity="0.0"
     inkscape:pagecheckerboard="0"
     inkscape:document-units="px"
     showgrid="false"
     units="px"
     inkscape:zoom="17.500893"
     inkscape:cx="14.142135"
     inkscape:cy="12.942197"
     inkscape:window-width="1851"
     inkscape:window-height="1016"
     inkscape:window-x="0"
     inkscape:window-y="0"
     inkscape:window-maximized="1"
     inkscape:current-layer="svg2719" />
  <defs
     id="defs2716">
    <linearGradient
       inkscape:collect="always"
       id="linearGradient1871">
      <stop
         style="stop-color:#ffffff;stop-opacity:1;"
         offset="0"
         id="stop1867" />
      <stop
         style="stop-color:#ffffff;stop-opacity:0.1"
         offset="0.12"
         id="stop2515" />
      <stop
         style="stop-color:#ffffff;stop-opacity:0.102"
         offset="0.89999998"
         id="stop2581" />
      <stop
         style="stop-color:#ffffff;stop-opacity:0.502"
         offset="1"
         id="stop1869" />
    </linearGradient>
    <linearGradient
       inkscape:collect="always"
       xlink:href="#linearGradient1871"
       id="linearGradient16320"
       x1="10"
       y1="4"
       x2="10"
       y2="29.100245"
       gradientUnits="userSpaceOnUse"
       gradientTransform="matrix(0.26458333,0,0,0.26458333,0,-0.26458332)" />
    <linearGradient
       inkscape:collect="always"
       xlink:href="#linearGradient3598"
       id="linearGradient3600"
       x1="12.262125"
       y1="9.7353592"
       x2="0.36087561"
       y2="4.2708535"
       gradientUnits="userSpaceOnUse"
       gradientTransform="matrix(2.4356956,0,0,2.4296963,0.53333328,0.89285725)" />
    <linearGradient
       inkscape:collect="always"
       id="linearGradient3598">
      <stop
         style="stop-color:#5d863b;stop-opacity:1"
         offset="0"
         id="stop3594" />
      <stop
         style="stop-color:#93b258;stop-opacity:1"
         offset="1"
         id="stop3596" />
    </linearGradient>
  </defs>
  <path
     id="rect18683"
     style="opacity:0.1;fill:#000000;stroke-width:0.264583;stroke-linejoin:round"
     d="m 2.38125,0.92604165 c -1.45520832,0 -1.984375,0.52916665 -1.984375,1.98437495 v 3.0427085 c 0,1.5875 0.52916665,2.1166666 2.1166666,2.1166666 h 3.4395833 c 1.5875,0 2.1166667,-0.5291666 2.1166667,-2.1166666 V 3.0427083 c 0,-1.5875 -0.5291667,-2.11666665 -2.1166667,-2.11666665 z"
     sodipodi:nodetypes="sssssssss" />
  <path
     id="rect877"
     style="display:inline;fill:url(#linearGradient3600);fill-opacity:1;stroke:none;stroke-width:0.241369;stroke-linecap:round;stroke-linejoin:round;stroke-miterlimit:4;stroke-dasharray:none;stroke-dashoffset:0;stroke-opacity:1;enable-background:new"
     d="M 9,2.5 C 3.5,2.5 1.5,4.4999998 1.5,10 v 11.5 c 0,6 2,8 8,8 h 13 c 6,0 8,-2 8,-8 v -11 c -1e-6,-6 -2,-8 -8,-8 z"
     transform="scale(0.26458333)"
     sodipodi:nodetypes="cccccsscc" />
  <path
     id="rect2694"
     style="opacity:0.3;fill:#000000;stroke-width:0.170089;stroke-linejoin:round"
     d="m 3.0427083,1.5875 h 2.3812499 c 0.6596062,0 1.1906252,0.5310187 1.1906252,1.1906249 0,0.6596062 -0.531019,1.1906249 -1.1906252,1.1906249 H 3.0427083 c -0.6596062,0 -1.1906249,-0.5310187 -1.1906249,-1.1906249 0,-0.6596062 0.5310187,-1.1906249 1.1906249,-1.1906249 z"
     sodipodi:nodetypes="sssssss" />
  <path
     id="path1071"
     style="opacity:0.6;fill:#ffffff;stroke-width:0.0450027;stroke-linejoin:round"
     d="m 1.8593182,2.9104167 c -0.00477,0.043467 -0.00723,0.087514 -0.00723,0.1322917 0,0.6596062 0.531019,1.1906249 1.190625,1.1906249 h 2.38125 c 0.6596062,0 1.190625,-0.5310187 1.190625,-1.1906249 0,-0.044778 -0.00247,-0.088825 -0.00723,-0.1322917 C 6.5418789,3.5072429 6.0387911,3.96875 5.4239629,3.96875 H 3.0427084 c -0.6148279,0 -1.1179159,-0.4615071 -1.1833902,-1.0583333 z" />
  <path
     id="path872"
     style="opacity:0.2;fill:#000000;stroke-width:0.0450027;stroke-linejoin:round"
     d="m 3.0427084,1.5875 c -0.659606,0 -1.190625,0.531019 -1.190625,1.190625 0,0.044778 0.00246,0.088825 0.00723,0.1322917 0.065475,-0.5968259 0.5685634,-1.0583333 1.1833913,-1.0583333 h 2.38125 c 0.6148281,0 1.1179159,0.4615074 1.1833902,1.0583333 0.00477,-0.043467 0.00724,-0.087514 0.00724,-0.1322917 0,-0.659606 -0.5310188,-1.190625 -1.190625,-1.190625 z" />
  <circle
     style="opacity:0.1;fill:#000000;fill-opacity:1;stroke-width:0.15434;stroke-linejoin:round"
     id="path4786"
     cx="5.4239578"
     cy="3.0427079"
     r="0.92604166" />
  <circle
     style="fill:#ffffff;fill-opacity:1;stroke-width:0.15434;stroke-linejoin:round"
     id="path4592"
     cx="5.4239583"
     cy="2.7781248"
     r="0.92604166" />
  <path
     id="rect3290"
     style="opacity:0.1;fill:#000000;fill-opacity:1;stroke-width:0.170089;stroke-linejoin:round"
     d="m 3.0427083,4.4979168 c -0.6596063,0 -1.190625,0.5310187 -1.190625,1.190625 0,0.6596062 0.5310187,1.1906249 1.190625,1.1906249 h 2.38125 c 0.6596062,0 1.1906249,-0.5310187 1.1906249,-1.1906249 0,-0.6596063 -0.5310187,-1.190625 -1.1906249,-1.190625 z m 0,0.2645833 h 2.38125 c 0.513027,0 0.9260416,0.4130146 0.9260416,0.9260417 0,0.513027 -0.4130146,0.9260416 -0.9260416,0.9260416 h -2.38125 c -0.5130271,0 -0.9260417,-0.4130146 -0.9260417,-0.9260416 0,-0.5130271 0.4130146,-0.9260417 0.9260417,-0.9260417 z" />
  <circle
     style="opacity:0.2;fill:#000000;fill-opacity:1;stroke-width:0.170088;stroke-linejoin:round"
     id="path3871"
     cx="3.0427084"
     cy="5.6885414"
     r="1.190625" />
  <circle
     style="fill:#ffffff;fill-opacity:1;stroke-width:0.150624;stroke-linejoin:round"
     id="path3997"
     cx="3.0427084"
     cy="5.6885414"
     r="0.92604166" />
  <path
     id="rect13250"
     style="fill:url(#linearGradient16320);fill-opacity:1;stroke-width:0.264583;stroke-linejoin:round;opacity:0.3"
     d="m 2.6458333,0.79375 c -1.71979143,0 -2.11666664,0.396875 -2.11666664,2.1166666 v 2.6458335 c 0,1.7197919 0.39687515,2.1166666 2.11666664,2.1166666 h 3.175 c 1.7197913,0 2.1166666,-0.3968747 2.1166666,-2.1166666 V 2.9104166 C 7.9374999,1.190625 7.5406249,0.79375 5.8208333,0.79375 Z m 0,0.2645833 h 3.175 c 1.5213541,0 1.8520833,0.3307294 1.8520833,1.8520833 v 2.6458335 c 0,1.5213542 -0.3307292,1.8520833 -1.8520833,1.8520833 h -3.175 c -1.5213541,0 -1.85208331,-0.3307291 -1.85208331,-1.8520833 V 2.9104166 c 0,-1.521354 0.33072921,-1.8520834 1.85208331,-1.8520833 z"
     sodipodi:nodetypes="ssssssssssssssssss" />
  <path
     id="rect2545"
     style="opacity:0.4;fill:#000000;stroke-width:0.387914;stroke-linejoin:round"
     d="m 2.6458333,0.52916667 c -1.91822909,0 -2.38124997,0.4630208 -2.38124997,2.38124993 V 5.55625 c 0,1.8520831 0.52916735,2.38125 2.38124997,2.38125 h 3.175 c 1.8520841,0 2.3812499,-0.5291669 2.3812499,-2.38125 V 2.9104166 c 0,-1.8520832 -0.5291666,-2.38124988 -2.3812499,-2.38124993 z m 0,0.26458333 h 3.175 c 1.7197916,0 2.1166666,0.396875 2.1166666,2.1166666 V 5.55625 c 0,1.7197917 -0.3968753,2.1166666 -2.1166666,2.1166666 h -3.175 c -1.71979162,0 -2.11666664,-0.3968749 -2.11666664,-2.1166666 V 2.9104166 c 0,-1.7197916 0.39687505,-2.1166666 2.11666664,-2.1166666 z"
     sodipodi:nodetypes="ssssssssssssssssss" />
</svg>
