<?xml version="1.0" encoding="UTF-8" standalone="no"?>
<!-- Created with Inkscape (http://www.inkscape.org/) -->

<svg
   width="32"
   height="32"
   viewBox="0 0 8.4666665 8.4666669"
   version="1.1"
   id="svg2719"
   inkscape:version="1.1.2 (0a00cf5339, 2022-02-04)"
   sodipodi:docname="color.svg"
   xmlns:inkscape="http://www.inkscape.org/namespaces/inkscape"
   xmlns:sodipodi="http://sodipodi.sourceforge.net/DTD/sodipodi-0.dtd"
   xmlns:xlink="http://www.w3.org/1999/xlink"
   xmlns="http://www.w3.org/2000/svg"
   xmlns:svg="http://www.w3.org/2000/svg">
  <sodipodi:namedview
     id="namedview2721"
     pagecolor="#ffffff"
     bordercolor="#666666"
     borderopacity="1.0"
     inkscape:pageshadow="2"
     inkscape:pageopacity="0.0"
     inkscape:pagecheckerboard="0"
     inkscape:document-units="px"
     showgrid="false"
     units="px"
     inkscape:zoom="17.500893"
     inkscape:cx="25.798684"
     inkscape:cy="14.399265"
     inkscape:window-width="1920"
     inkscape:window-height="1010"
     inkscape:window-x="0"
     inkscape:window-y="0"
     inkscape:window-maximized="1"
     inkscape:current-layer="svg2719" />
  <defs
     id="defs2716">
    <linearGradient
       inkscape:collect="always"
       id="linearGradient1871">
      <stop
         style="stop-color:#ffffff;stop-opacity:1;"
         offset="0"
         id="stop1867" />
      <stop
         style="stop-color:#ffffff;stop-opacity:0.1"
         offset="0.12"
         id="stop2515" />
      <stop
         style="stop-color:#ffffff;stop-opacity:0.102"
         offset="0.89999998"
         id="stop2581" />
      <stop
         style="stop-color:#ffffff;stop-opacity:0.502"
         offset="1"
         id="stop1869" />
    </linearGradient>
    <linearGradient
       inkscape:collect="always"
       xlink:href="#linearGradient1871"
       id="linearGradient16320"
       x1="10"
       y1="4"
       x2="10"
       y2="29.100245"
       gradientUnits="userSpaceOnUse"
       gradientTransform="matrix(0.26458333,0,0,0.26458333,0,-0.26458332)" />
    <radialGradient
       inkscape:collect="always"
       xlink:href="#linearGradient1603"
       id="radialGradient1454"
       cx="-4.5056305"
       cy="2.1946039"
       fx="-4.5056305"
       fy="2.1946039"
       r="3.7041667"
       gradientUnits="userSpaceOnUse"
       gradientTransform="matrix(-4.1158753,3.702209,-5.0048398,-5.5640557,-4.7312481,31.65685)" />
    <linearGradient
       inkscape:collect="always"
       id="linearGradient1603">
      <stop
         style="stop-color:#ff910c;stop-opacity:1;"
         offset="0"
         id="stop1599" />
      <stop
         style="stop-color:#ff910c;stop-opacity:0;"
         offset="1"
         id="stop1601" />
    </linearGradient>
    <radialGradient
       inkscape:collect="always"
       xlink:href="#linearGradient3954"
       id="radialGradient3956"
       cx="14.816666"
       cy="15.345833"
       fx="14.816666"
       fy="15.345833"
       r="7.4083333"
       gradientUnits="userSpaceOnUse"
       gradientTransform="matrix(2.0291034,-2.0160217,2.2923184,2.3071938,-36.813519,23.929186)" />
    <linearGradient
       inkscape:collect="always"
       id="linearGradient3954">
      <stop
         style="stop-color:#24c2f5;stop-opacity:1;"
         offset="0"
         id="stop3950" />
      <stop
         style="stop-color:#24c2f5;stop-opacity:0;"
         offset="1"
         id="stop3952" />
    </linearGradient>
    <radialGradient
       inkscape:collect="always"
       xlink:href="#linearGradient5569"
       id="radialGradient5571"
       cx="1.5874997"
       cy="15.345834"
       fx="1.5874997"
       fy="15.345834"
       r="7.4083333"
       gradientUnits="userSpaceOnUse"
       gradientTransform="matrix(2.0421781,-1.9814054,2.4110011,2.4849505,-37.705064,-5.5238763)" />
    <linearGradient
       inkscape:collect="always"
       id="linearGradient5569">
      <stop
         style="stop-color:#f5cc24;stop-opacity:1;"
         offset="0"
         id="stop5565" />
      <stop
         style="stop-color:#f5cc24;stop-opacity:0.00045133"
         offset="1"
         id="stop5567" />
    </linearGradient>
    <radialGradient
       inkscape:collect="always"
       xlink:href="#linearGradient7221"
       id="radialGradient7223"
       cx="8.4666662"
       cy="2.1573725"
       fx="8.4666662"
       fy="2.1573725"
       r="7.4083333"
       gradientUnits="userSpaceOnUse"
       gradientTransform="matrix(-1.9572557,8.3994527e-6,-6.8341209e-7,-2.2368631,32.571439,6.3256766)" />
    <linearGradient
       inkscape:collect="always"
       id="linearGradient7221">
      <stop
         style="stop-color:#ff2a2a;stop-opacity:1"
         offset="0"
         id="stop7217" />
      <stop
         style="stop-color:#ff2929;stop-opacity:0.00392157"
         offset="1"
         id="stop7219" />
    </linearGradient>
    <radialGradient
       inkscape:collect="always"
       xlink:href="#linearGradient10051"
       id="radialGradient10053"
       cx="15.345833"
       cy="1.5874997"
       fx="15.345833"
       fy="1.5874997"
       r="7.4083333"
       gradientUnits="userSpaceOnUse"
       gradientTransform="matrix(-1.6417223,-1.575096,1.9895745,-2.0737341,51.499449,29.998906)" />
    <linearGradient
       inkscape:collect="always"
       id="linearGradient10051">
      <stop
         style="stop-color:#aa3ad4;stop-opacity:1"
         offset="0"
         id="stop10047" />
      <stop
         style="stop-color:#aa3ad4;stop-opacity:0"
         offset="1"
         id="stop10049" />
    </linearGradient>
    <radialGradient
       inkscape:collect="always"
       xlink:href="#linearGradient15132"
       id="radialGradient15134"
       cx="20.066483"
       cy="4.0683722"
       fx="20.066483"
       fy="4.0683722"
       r="7.4083328"
       gradientUnits="userSpaceOnUse"
       gradientTransform="matrix(0,1.9572553,-1.9572553,0,9.4628462,-23.275232)" />
    <linearGradient
       inkscape:collect="always"
       id="linearGradient15132">
      <stop
         style="stop-color:#f5e224;stop-opacity:1;"
         offset="0"
         id="stop15128" />
      <stop
         style="stop-color:#f5e224;stop-opacity:0;"
         offset="1"
         id="stop15130" />
    </linearGradient>
    <radialGradient
       inkscape:collect="always"
       xlink:href="#linearGradient12059"
       id="radialGradient12061"
       cx="8.4666662"
       cy="15.875"
       fx="8.4666662"
       fy="15.875"
       r="7.4083333"
       gradientUnits="userSpaceOnUse"
       gradientTransform="matrix(1.9572553,0,0,1.9572553,-0.57142866,-0.57142866)" />
    <linearGradient
       inkscape:collect="always"
       id="linearGradient12059">
      <stop
         style="stop-color:#47c12a;stop-opacity:1;"
         offset="0"
         id="stop12055" />
      <stop
         style="stop-color:#47c12a;stop-opacity:0;"
         offset="1"
         id="stop12057" />
    </linearGradient>
  </defs>
  <path
     id="rect18683"
     style="opacity:0.1;fill:#000000;stroke-width:0.264583;stroke-linejoin:round"
     d="m 2.38125,0.92604165 c -1.45520832,0 -1.984375,0.52916665 -1.984375,1.98437495 v 3.0427085 c 0,1.5875 0.52916665,2.1166666 2.1166666,2.1166666 h 3.4395833 c 1.5875,0 2.1166667,-0.5291666 2.1166667,-2.1166666 V 3.0427083 c 0,-1.5875 -0.5291667,-2.11666665 -2.1166667,-2.11666665 z"
     sodipodi:nodetypes="sssssssss" />
  <g
     id="g1015">
    <path
       id="rect11481-5"
       style="fill:#ffffff;fill-opacity:1;stroke-width:0.347426;stroke-linecap:round;stroke-linejoin:round"
       d="M 9,2.5 C 3.5000001,2.5 1.5,4.4999998 1.5,10 v 11.5 c 0,6 2,8 8,8 h 13 c 6,0 8,-2 8,-8 v -11 c -1e-6,-6 -2,-8 -8,-8 z"
       transform="scale(0.26458333)" />
    <path
       id="rect1278"
       style="fill:url(#radialGradient1454);stroke-width:9.32141;stroke-linecap:round;stroke-linejoin:round"
       d="M 9,2.5 C 3.4999997,2.5 1.5,4.4999998 1.5,10 v 11.5 c 0,6 2,8 8,8 h 13 c 6,0 8,-2 8,-8 v -11 c -4e-6,-6 -2,-8 -8,-8 z"
       transform="scale(0.26458333)" />
    <path
       id="rect2770"
       style="fill:url(#radialGradient3956);stroke-width:0.347426;stroke-linecap:round;stroke-linejoin:round"
       d="M 9,2.5 C 3.5,2.5 1.5,4.4999998 1.5,10 v 11.5 c 0,6 2,8 8,8 h 13 c 6,0 8,-2 8,-8 v -11 c -1e-6,-6 -2,-8 -8,-8 z"
       transform="scale(0.26458333)" />
    <path
       id="rect4922"
       style="fill:url(#radialGradient5571);stroke-width:0.347426;stroke-linecap:round;stroke-linejoin:round"
       d="M 9,2.5 C 3.5000001,2.5 1.5,4.4999998 1.5,10 v 11.5 c 0,6 2,8 8,8 h 13 c 6,0 8,-2 8,-8 v -11 c -1e-6,-6 -2,-8 -8,-8 z"
       transform="scale(0.26458333)" />
    <path
       id="rect5961"
       style="fill:url(#radialGradient7223);stroke-width:0.347426;stroke-linecap:round;stroke-linejoin:round"
       d="M 9,2.5 C 3.4999997,2.5 1.5,4.4999998 1.5,10 v 11.5 c 0,6 2,8 8,8 h 13 c 6,0 8,-2 8,-8 v -11 c -1e-6,-6 -2,-8 -8,-8 z"
       transform="scale(0.26458333)" />
    <path
       id="rect8637"
       style="fill:url(#radialGradient10053);stroke-width:0.347426;stroke-linecap:round;stroke-linejoin:round"
       d="M 9,2.5 C 3.5000001,2.5 1.5,4.4999998 1.5,10 v 11.5 c 0,6 2,8 8,8 h 13 c 6,0 8,-2 8,-8 v -11 c 0,-6 -2,-8 -8,-8 z"
       transform="scale(0.26458333)" />
    <path
       id="rect14620"
       style="fill:url(#radialGradient15134);stroke-width:0.347426;stroke-linecap:round;stroke-linejoin:round"
       d="M 9,2.5 C 3.5000001,2.5 1.5,4.4999998 1.5,10 v 11.5 c 0,6 2,8 8,8 h 13 c 6,0 8,-2 8,-8 v -11 c -1e-6,-6 -2,-8 -8,-8 z"
       transform="scale(0.26458333)" />
    <path
       id="rect11481"
       style="fill:url(#radialGradient12061);stroke-width:0.347426;stroke-linecap:round;stroke-linejoin:round"
       d="M 9,2.5 C 3.5000001,2.5 1.5,4.4999998 1.5,10 v 11.5 c 0,6 2,8 8,8 h 13 c 6,0 8,-2 8,-8 v -11 c 0,-6 -2,-8 -8,-8 z"
       transform="scale(0.26458333)" />
  </g>
  <path
     id="rect13250"
     style="fill:url(#linearGradient16320);fill-opacity:1;stroke-width:0.264583;stroke-linejoin:round;opacity:1"
     d="m 2.6458333,0.79375 c -1.71979143,0 -2.11666664,0.396875 -2.11666664,2.1166666 v 2.6458335 c 0,1.7197919 0.39687515,2.1166666 2.11666664,2.1166666 h 3.175 c 1.7197913,0 2.1166666,-0.3968747 2.1166666,-2.1166666 V 2.9104166 C 7.9374999,1.190625 7.5406249,0.79375 5.8208333,0.79375 Z m 0,0.2645833 h 3.175 c 1.5213541,0 1.8520833,0.3307294 1.8520833,1.8520833 v 2.6458335 c 0,1.5213542 -0.3307292,1.8520833 -1.8520833,1.8520833 h -3.175 c -1.5213541,0 -1.85208331,-0.3307291 -1.85208331,-1.8520833 V 2.9104166 c 0,-1.521354 0.33072921,-1.8520834 1.85208331,-1.8520833 z"
     sodipodi:nodetypes="ssssssssssssssssss" />
  <path
     id="rect2545"
     style="opacity:0.4;fill:#000000;stroke-width:0.387914;stroke-linejoin:round"
     d="m 2.6458333,0.52916667 c -1.91822909,0 -2.38124997,0.4630208 -2.38124997,2.38124993 V 5.55625 c 0,1.8520831 0.52916735,2.38125 2.38124997,2.38125 h 3.175 c 1.8520841,0 2.3812499,-0.5291669 2.3812499,-2.38125 V 2.9104166 c 0,-1.8520832 -0.5291666,-2.38124988 -2.3812499,-2.38124993 z m 0,0.26458333 h 3.175 c 1.7197916,0 2.1166666,0.396875 2.1166666,2.1166666 V 5.55625 c 0,1.7197917 -0.3968753,2.1166666 -2.1166666,2.1166666 h -3.175 c -1.71979162,0 -2.11666664,-0.3968749 -2.11666664,-2.1166666 V 2.9104166 c 0,-1.7197916 0.39687505,-2.1166666 2.11666664,-2.1166666 z"
     sodipodi:nodetypes="ssssssssssssssssss" />
</svg>
