<?xml version="1.0" encoding="UTF-8" standalone="no"?>
<!-- Created with Inkscape (http://www.inkscape.org/) -->

<svg
   width="32"
   height="32"
   viewBox="0 0 8.4666665 8.4666669"
   version="1.1"
   id="svg2719"
   inkscape:version="1.1.2 (0a00cf5339, 2022-02-04)"
   sodipodi:docname="tilix.svg"
   xmlns:inkscape="http://www.inkscape.org/namespaces/inkscape"
   xmlns:sodipodi="http://sodipodi.sourceforge.net/DTD/sodipodi-0.dtd"
   xmlns:xlink="http://www.w3.org/1999/xlink"
   xmlns="http://www.w3.org/2000/svg"
   xmlns:svg="http://www.w3.org/2000/svg">
  <sodipodi:namedview
     id="namedview2721"
     pagecolor="#ffffff"
     bordercolor="#666666"
     borderopacity="1.0"
     inkscape:pageshadow="2"
     inkscape:pageopacity="0.0"
     inkscape:pagecheckerboard="0"
     inkscape:document-units="px"
     showgrid="false"
     units="px"
     inkscape:zoom="8.7504464"
     inkscape:cx="37.198102"
     inkscape:cy="34.169685"
     inkscape:window-width="1920"
     inkscape:window-height="1010"
     inkscape:window-x="0"
     inkscape:window-y="0"
     inkscape:window-maximized="1"
     inkscape:current-layer="svg2719" />
  <defs
     id="defs2716">
    <linearGradient
       inkscape:collect="always"
       id="linearGradient1871">
      <stop
         style="stop-color:#ffffff;stop-opacity:1;"
         offset="0"
         id="stop1867" />
      <stop
         style="stop-color:#ffffff;stop-opacity:0.1"
         offset="0.12"
         id="stop2515" />
      <stop
         style="stop-color:#ffffff;stop-opacity:0.102"
         offset="0.89999998"
         id="stop2581" />
      <stop
         style="stop-color:#ffffff;stop-opacity:0.502"
         offset="1"
         id="stop1869" />
    </linearGradient>
    <linearGradient
       inkscape:collect="always"
       xlink:href="#linearGradient1871"
       id="linearGradient16320"
       x1="10"
       y1="4"
       x2="10"
       y2="29.100245"
       gradientUnits="userSpaceOnUse"
       gradientTransform="matrix(0.26458333,0,0,0.26458333,0,-0.26458332)" />
    <linearGradient
       inkscape:collect="always"
       xlink:href="#linearGradient2330"
       id="linearGradient2332"
       x1="6.3499999"
       y1="6.2177086"
       x2="7.4083333"
       y2="6.2177086"
       gradientUnits="userSpaceOnUse"
       gradientTransform="matrix(0.50000003,0,0,0.64285715,1.0583335,0.23623524)" />
    <linearGradient
       inkscape:collect="always"
       id="linearGradient2330">
      <stop
         style="stop-color:#000000;stop-opacity:1;"
         offset="0"
         id="stop2326" />
      <stop
         style="stop-color:#000000;stop-opacity:0;"
         offset="1"
         id="stop2328" />
    </linearGradient>
  </defs>
  <path
     id="rect18683"
     style="opacity:0.1;fill:#000000;stroke-width:0.264583;stroke-linejoin:round"
     d="m 2.38125,0.92604165 c -1.45520832,0 -1.984375,0.52916665 -1.984375,1.98437495 v 3.0427085 c 0,1.5875 0.52916665,2.1166666 2.1166666,2.1166666 h 3.4395833 c 1.5875,0 2.1166667,-0.5291666 2.1166667,-2.1166666 V 3.0427083 c 0,-1.5875 -0.5291667,-2.11666665 -2.1166667,-2.11666665 z"
     sodipodi:nodetypes="sssssssss" />
  <path
     id="rect6397"
     style="fill:#4d4d4d;fill-opacity:1;stroke-width:0.255274;stroke-linejoin:round"
     d="M 0.39687499,2.6458334 C 0.396875,1.190625 0.92604165,0.66145833 2.38125,0.66145834 h 3.571875 c 1.5874999,-1e-8 2.1166666,0.52916666 2.1166668,2.11666666 l 10e-8,2.9104168 c 0,1.5874999 -0.529166,2.1166666 -2.116666,2.1166666 H 2.5135417 c -1.58750001,0 -2.11666671,-0.5291667 -2.11666671,-2.1166667 z"
     sodipodi:nodetypes="ccccccccc" />
  <path
     id="rect960"
     style="fill:#3c3c3c;fill-opacity:1;stroke-width:0.264583;stroke-linejoin:round"
     d="M 4.2333336,0.66145834 V 7.8052083 h 1.7197917 c 1.5874999,0 2.1166666,-0.5291666 2.1166666,-2.1166666 V 2.778125 c 0,-1.5875 -0.5291667,-2.11666666 -2.1166666,-2.11666666 z"
     sodipodi:nodetypes="ccssssc" />
  <rect
     style="opacity:0.2;fill:url(#linearGradient2332);fill-opacity:1;stroke-width:0.151823;stroke-linejoin:round"
     id="rect2208"
     width="0.5291667"
     height="7.1437502"
     x="4.2333336"
     y="0.66145837" />
  <path
     id="rect1707"
     style="opacity:0.2;fill:#000000;fill-opacity:1;stroke-width:0.664139;stroke-linejoin:round"
     d="M 5.7070312 8.1601562 L 5.3867188 9.1210938 L 8.6328125 10.423828 L 5.3867188 11.724609 L 5.7070312 12.6875 L 9.8828125 10.919922 L 9.8828125 9.9277344 L 5.7070312 8.1601562 z M 18.337891 8.1601562 L 18.017578 9.1210938 L 21.263672 10.423828 L 18.017578 11.724609 L 18.337891 12.6875 L 22.513672 10.919922 L 22.513672 9.9277344 L 18.337891 8.1601562 z M 10 14 L 10 15 L 15 15 L 15 14 L 10 14 z M 22.630859 14 L 22.630859 15 L 27.630859 15 L 27.630859 14 L 22.630859 14 z "
     transform="scale(0.26458333)" />
  <path
     id="rect854"
     style="opacity:1;fill:#f2f2f2;fill-opacity:1;stroke-width:0.999999;stroke-linejoin:round"
     d="M 5.6914062 7.1503906 L 5.3691406 8.1152344 L 8.6269531 9.421875 L 5.3691406 10.728516 L 5.6914062 11.693359 L 9.8828125 9.9199219 L 9.8828125 8.9238281 L 5.6914062 7.1503906 z M 18.322266 7.1503906 L 18 8.1152344 L 21.257812 9.421875 L 18 10.728516 L 18.322266 11.693359 L 22.513672 9.9199219 L 22.513672 8.9238281 L 18.322266 7.1503906 z M 10 13 L 10 14 L 15 14 L 15 13 L 10 13 z M 22.630859 13 L 22.630859 14 L 27.630859 14 L 27.630859 13 L 22.630859 13 z "
     transform="scale(0.26458333)" />
  <path
     id="rect13250"
     style="fill:url(#linearGradient16320);fill-opacity:1;stroke-width:0.264583;stroke-linejoin:round;opacity:0.3"
     d="m 2.6458333,0.79375 c -1.71979143,0 -2.11666664,0.396875 -2.11666664,2.1166666 v 2.6458335 c 0,1.7197919 0.39687515,2.1166666 2.11666664,2.1166666 h 3.175 c 1.7197913,0 2.1166666,-0.3968747 2.1166666,-2.1166666 V 2.9104166 C 7.9374999,1.190625 7.5406249,0.79375 5.8208333,0.79375 Z m 0,0.2645833 h 3.175 c 1.5213541,0 1.8520833,0.3307294 1.8520833,1.8520833 v 2.6458335 c 0,1.5213542 -0.3307292,1.8520833 -1.8520833,1.8520833 h -3.175 c -1.5213541,0 -1.85208331,-0.3307291 -1.85208331,-1.8520833 V 2.9104166 c 0,-1.521354 0.33072921,-1.8520834 1.85208331,-1.8520833 z"
     sodipodi:nodetypes="ssssssssssssssssss" />
  <path
     id="rect2545"
     style="opacity:0.4;fill:#000000;stroke-width:0.387914;stroke-linejoin:round"
     d="m 2.6458333,0.52916667 c -1.91822909,0 -2.38124997,0.4630208 -2.38124997,2.38124993 V 5.55625 c 0,1.8520831 0.52916735,2.38125 2.38124997,2.38125 h 3.175 c 1.8520841,0 2.3812499,-0.5291669 2.3812499,-2.38125 V 2.9104166 c 0,-1.8520832 -0.5291666,-2.38124988 -2.3812499,-2.38124993 z m 0,0.26458333 h 3.175 c 1.7197916,0 2.1166666,0.396875 2.1166666,2.1166666 V 5.55625 c 0,1.7197917 -0.3968753,2.1166666 -2.1166666,2.1166666 h -3.175 c -1.71979162,0 -2.11666664,-0.3968749 -2.11666664,-2.1166666 V 2.9104166 c 0,-1.7197916 0.39687505,-2.1166666 2.11666664,-2.1166666 z"
     sodipodi:nodetypes="ssssssssssssssssss" />
</svg>
