<?xml version="1.0" encoding="UTF-8" standalone="no"?>
<!-- Created with Inkscape (http://www.inkscape.org/) -->

<svg
   width="32"
   height="32"
   viewBox="0 0 8.4666665 8.4666669"
   version="1.1"
   id="svg2719"
   inkscape:version="1.1.2 (0a00cf5339, 2022-02-04)"
   sodipodi:docname="wether.svg"
   xmlns:inkscape="http://www.inkscape.org/namespaces/inkscape"
   xmlns:sodipodi="http://sodipodi.sourceforge.net/DTD/sodipodi-0.dtd"
   xmlns:xlink="http://www.w3.org/1999/xlink"
   xmlns="http://www.w3.org/2000/svg"
   xmlns:svg="http://www.w3.org/2000/svg">
  <sodipodi:namedview
     id="namedview2721"
     pagecolor="#ffffff"
     bordercolor="#666666"
     borderopacity="1.0"
     inkscape:pageshadow="2"
     inkscape:pageopacity="0.0"
     inkscape:pagecheckerboard="0"
     inkscape:document-units="px"
     showgrid="false"
     units="px"
     inkscape:zoom="17.500893"
     inkscape:cx="8.7138411"
     inkscape:cy="19.8847"
     inkscape:window-width="1920"
     inkscape:window-height="1010"
     inkscape:window-x="0"
     inkscape:window-y="0"
     inkscape:window-maximized="1"
     inkscape:current-layer="svg2719"
     showguides="true" />
  <defs
     id="defs2716">
    <linearGradient
       inkscape:collect="always"
       id="linearGradient947">
      <stop
         style="stop-color:#ffffff;stop-opacity:1;"
         offset="0"
         id="stop943" />
      <stop
         style="stop-color:#ffffff;stop-opacity:0;"
         offset="1"
         id="stop945" />
    </linearGradient>
    <linearGradient
       inkscape:collect="always"
       id="linearGradient1047">
      <stop
         style="stop-color:#369ad4;stop-opacity:1"
         offset="0"
         id="stop1043" />
      <stop
         style="stop-color:#b6e2f3;stop-opacity:1"
         offset="1"
         id="stop1045" />
    </linearGradient>
    <linearGradient
       inkscape:collect="always"
       id="linearGradient1871">
      <stop
         style="stop-color:#ffffff;stop-opacity:1;"
         offset="0"
         id="stop1867" />
      <stop
         style="stop-color:#ffffff;stop-opacity:0.1"
         offset="0.12"
         id="stop2515" />
      <stop
         style="stop-color:#ffffff;stop-opacity:0.102"
         offset="0.89999998"
         id="stop2581" />
      <stop
         style="stop-color:#ffffff;stop-opacity:0.502"
         offset="1"
         id="stop1869" />
    </linearGradient>
    <linearGradient
       inkscape:collect="always"
       xlink:href="#linearGradient1871"
       id="linearGradient16320"
       x1="10"
       y1="4"
       x2="10"
       y2="29.100245"
       gradientUnits="userSpaceOnUse"
       gradientTransform="matrix(0.26458333,0,0,0.26458333,0,-0.26458332)" />
    <linearGradient
       inkscape:collect="always"
       xlink:href="#linearGradient1047"
       id="linearGradient1049"
       x1="0"
       y1="0"
       x2="8.4666672"
       y2="8.4666672"
       gradientUnits="userSpaceOnUse" />
    <linearGradient
       inkscape:collect="always"
       xlink:href="#linearGradient947"
       id="linearGradient949"
       x1="4.6302085"
       y1="5.6549435"
       x2="6.4814153"
       y2="8.8299437"
       gradientUnits="userSpaceOnUse"
       gradientTransform="matrix(3.7795275,0,0,3.7795275,0,-0.99999998)" />
  </defs>
  <path
     id="rect18683"
     style="opacity:0.1;fill:#000000;stroke-width:0.264583;stroke-linejoin:round"
     d="m 2.38125,0.92604165 c -1.45520832,0 -1.984375,0.52916665 -1.984375,1.98437495 v 3.0427085 c 0,1.5875 0.52916665,2.1166666 2.1166666,2.1166666 h 3.4395833 c 1.5875,0 2.1166667,-0.5291666 2.1166667,-2.1166666 V 3.0427083 c 0,-1.5875 -0.5291667,-2.11666665 -2.1166667,-2.11666665 z"
     sodipodi:nodetypes="sssssssss" />
  <path
     id="rect6397"
     style="fill:url(#linearGradient1049);fill-opacity:1;stroke-width:0.255274;stroke-linejoin:round"
     d="M 0.39687499,2.6458334 C 0.396875,1.190625 0.92604165,0.66145833 2.38125,0.66145834 h 3.571875 c 1.5874999,-1e-8 2.1166666,0.52916666 2.1166668,2.11666666 l 10e-8,2.9104168 c 0,1.5874999 -0.529166,2.1166666 -2.116666,2.1166666 H 2.5135417 c -1.58750001,0 -2.11666671,-0.5291667 -2.11666671,-2.1166667 z"
     sodipodi:nodetypes="ccccccccc" />
  <path
     id="path919"
     style="color:#000000;opacity:0.2;fill:url(#linearGradient949);fill-opacity:1;stroke-width:0.999999"
     d="M 30.496094 15.246094 C 29.395495 15.565774 28.52093 16.457247 28.269531 17.623047 C 28.220246 17.687348 28.17324 17.752451 28.128906 17.820312 C 27.941555 17.744813 27.74104 17.705528 27.539062 17.705078 C 26.690483 17.706078 25.993432 18.374836 25.957031 19.222656 C 25.122772 19.349595 24.297328 19.530482 23.486328 19.763672 C 23.096965 18.587069 21.997212 17.792016 20.757812 17.791016 C 19.240212 17.793015 17.985225 18.973581 17.890625 20.488281 C 17.690375 20.448281 17.487403 20.427835 17.283203 20.427734 C 15.562403 20.427754 14.167969 21.822269 14.167969 23.542969 C 14.168639 24.089709 14.313762 24.626609 14.587891 25.099609 C 14.076791 25.623469 13.593991 26.176306 13.144531 26.753906 C 12.108331 25.956956 10.983916 25.2845 9.7910156 24.75 C 9.7071158 23.5076 8.6748876 22.543169 7.4296875 22.542969 C 7.2759775 22.543638 7.1213729 22.559344 6.9707031 22.589844 C 6.6467031 21.423144 5.5858 20.615234 4.375 20.615234 C 2.8864002 20.615284 1.6795873 21.821947 1.6796875 23.310547 C 1.6800575 23.325249 1.6796875 23.3389 1.6796875 23.353516 C 1.6519415 23.355817 1.6150334 23.355815 1.578125 23.355469 C 1.9959027 27.918012 4.1679907 29.5 9.5 29.5 L 22.5 29.5 C 28.375 29.5 30.413647 27.579843 30.496094 21.867188 L 30.496094 15.246094 z "
     transform="scale(0.26458333)" />
  <path
     id="path1034"
     style="opacity:0.1;fill:#ffffff;fill-rule:evenodd;stroke-width:0.999999;enable-background:new"
     d="M 27.591797 3.4082031 L 3.25 27.75 C 4.5 29 6.4999998 29.5 9.5 29.5 L 22.5 29.5 C 28.5 29.5 30.5 27.5 30.5 21.5 L 30.5 10.5 C 30.5 6.7040437 29.699282 4.5085501 27.591797 3.4082031 z "
     transform="scale(0.26458333)" />
  <g
     transform="matrix(0.26458333,0,0,0.26458333,-84.650721,-34.909134)"
     enable-background="new"
     id="g69">
    <path
       d="m 333.44,138.44 -1.4812,2.5613 h -2.9578 v 2.9578 l -2.5613,1.4812 1.4812,2.5613 -1.4812,2.5613 2.5613,1.4812 v 2.9578 h 2.9578 l 1.4812,2.5613 2.5613,-1.4812 2.5613,1.4812 1.4812,-2.5613 h 2.9578 v -2.9578 l 2.5613,-1.4812 -1.4812,-2.5613 1.4812,-2.5613 -2.5613,-1.4812 v -2.9578 h -2.9578 l -1.4812,-2.5613 -2.5613,1.4812 z"
       enable-background="new"
       fill="#2d2201"
       opacity="0.05"
       stroke="#000000"
       stroke-linecap="round"
       stroke-linejoin="round"
       stroke-width="2"
       id="path31" />
    <path
       d="m 333.44,139.44 -1.4812,2.5613 h -2.9578 v 2.9578 l -2.5613,1.4812 1.4812,2.5613 -1.4812,2.5613 2.5613,1.4812 v 2.9578 h 2.9578 l 1.4812,2.5613 2.5613,-1.4812 2.5613,1.4812 1.4812,-2.5613 h 2.9578 v -2.9578 l 2.5613,-1.4812 -1.4812,-2.5613 1.4812,-2.5613 -2.5613,-1.4812 v -2.9578 h -2.9578 l -1.4812,-2.5613 -2.5613,1.4812 z"
       enable-background="new"
       fill="#2d2201"
       opacity="0.1"
       id="path33" />
    <g
       transform="matrix(1.4874,0,0,1.4874,-157.81,-149.48)"
       enable-background="new"
       stroke-width="0.67232"
       id="g43">
      <rect
         transform="matrix(-0.5,-0.86603,-0.86603,0.5,0,0)"
         x="-343.91"
         y="-192.23"
         width="4.7059999"
         height="4.7059999"
         fill="#f9c010"
         id="rect35" />
      <rect
         transform="matrix(-0.5,-0.86603,-0.86603,0.5,0,0)"
         x="-339.20999"
         y="-187.52"
         width="4.7059999"
         height="4.7059999"
         fill="#fae695"
         id="rect37" />
      <rect
         transform="rotate(60)"
         x="339.20999"
         y="-187.52"
         width="4.7059999"
         height="4.7059999"
         fill="#fbcd42"
         id="rect39" />
      <rect
         transform="rotate(60)"
         x="334.5"
         y="-192.23"
         width="4.7059999"
         height="4.7059999"
         fill="#fedf7c"
         id="rect41" />
    </g>
    <g
       transform="matrix(1.4874,0,0,1.4874,-157.81,-149.48)"
       enable-background="new"
       stroke-width="0.67232"
       id="g53">
      <rect
         transform="matrix(-0.86603,-0.5,-0.5,0.86603,0,0)"
         x="-392.23001"
         y="2.4990001"
         width="4.7059999"
         height="4.7059999"
         fill="#fbcd42"
         id="rect45" />
      <rect
         transform="matrix(-0.86603,-0.5,-0.5,0.86603,0,0)"
         x="-387.51999"
         y="7.2051001"
         width="4.7059999"
         height="4.7059999"
         fill="#fedf7c"
         id="rect47" />
      <rect
         transform="rotate(30)"
         x="387.51999"
         y="7.2051001"
         width="4.7059999"
         height="4.7059999"
         fill="#f9c010"
         id="rect49" />
      <rect
         transform="rotate(30)"
         x="382.81"
         y="2.4990001"
         width="4.7059999"
         height="4.7059999"
         fill="#fae695"
         id="rect51" />
    </g>
    <g
       transform="matrix(1.4874,0,0,1.4874,-157.81,-149.48)"
       enable-background="new"
       stroke-width="0.67232"
       id="g61">
      <rect
         x="327.29001"
         y="195.28999"
         width="4.7059999"
         height="4.7059999"
         fill="#fbedb3"
         id="rect55" />
      <rect
         x="332"
         y="200"
         width="4.7059999"
         height="4.7059999"
         fill="#f9c010"
         id="rect57" />
      <path
         d="m 332,195.29 a 4.706,4.706 0 0 0 -4.7046,4.6779 h -10e-4 v 0.0281 4.706 h 4.7045 v -4e-5 a 4.706,4.706 0 0 0 0.002,4e-5 4.706,4.706 0 0 0 4.7046,-4.6779 h 0.001 v -0.0281 -4.706 h -4.7045 v 4e-5 A 4.706,4.706 0 0 0 332,195.29 Z"
         color="#000000"
         enable-background="accumulate"
         fill="#fed965"
         id="path59" />
    </g>
    <path
       d="m 340.09,148 a 4.5,4.5 0 0 0 -4.1721,2.8221 3.0938,3.0938 0 0 0 -2.8592,3.0842 3.0938,3.0938 0 0 0 3.0938,3.0937 h 6.7501 a 3.0938,3.0938 0 0 0 3.0938,-3.0937 3.0938,3.0938 0 0 0 -1.6037,-2.7109 A 4.5,4.5 0 0 0 340.0901,148 Z"
       enable-background="new"
       opacity="0.05"
       stroke="#000000"
       stroke-linecap="round"
       stroke-linejoin="round"
       stroke-width="2"
       id="path63" />
    <path
       d="m 340.09,148 a 4.5,4.5 0 0 0 -4.1721,2.8221 3.0938,3.0938 0 0 0 -2.8592,3.0842 3.0938,3.0938 0 0 0 3.0938,3.0937 h 6.7501 a 3.0938,3.0938 0 0 0 3.0938,-3.0937 3.0938,3.0938 0 0 0 -1.6037,-2.7109 A 4.5,4.5 0 0 0 340.0901,148 Z"
       enable-background="new"
       opacity="0.1"
       id="path65" />
    <path
       d="m 340.09,147 a 4.5,4.5 0 0 0 -4.1721,2.8221 3.0938,3.0938 0 0 0 -2.8592,3.0842 3.0938,3.0938 0 0 0 3.0938,3.0937 h 6.7501 a 3.0938,3.0938 0 0 0 3.0938,-3.0937 3.0938,3.0938 0 0 0 -1.6037,-2.7109 A 4.5,4.5 0 0 0 340.0901,147 Z"
       enable-background="new"
       fill="#ecf9fe"
       id="path67" />
  </g>
  <path
     id="rect2545"
     style="opacity:0.4;fill:#000000;stroke-width:0.387914;stroke-linejoin:round"
     d="m 2.6458333,0.52916667 c -1.91822909,0 -2.38124997,0.4630208 -2.38124997,2.38124993 V 5.55625 c 0,1.8520831 0.52916735,2.38125 2.38124997,2.38125 h 3.175 c 1.8520841,0 2.3812499,-0.5291669 2.3812499,-2.38125 V 2.9104166 c 0,-1.8520832 -0.5291666,-2.38124988 -2.3812499,-2.38124993 z m 0,0.26458333 h 3.175 c 1.7197916,0 2.1166666,0.396875 2.1166666,2.1166666 V 5.55625 c 0,1.7197917 -0.3968753,2.1166666 -2.1166666,2.1166666 h -3.175 c -1.71979162,0 -2.11666664,-0.3968749 -2.11666664,-2.1166666 V 2.9104166 c 0,-1.7197916 0.39687505,-2.1166666 2.11666664,-2.1166666 z"
     sodipodi:nodetypes="ssssssssssssssssss" />
  <path
     id="rect13250"
     style="fill:url(#linearGradient16320);fill-opacity:1;stroke-width:0.264583;stroke-linejoin:round"
     d="m 2.6458333,0.79375 c -1.71979143,0 -2.11666664,0.396875 -2.11666664,2.1166666 v 2.6458335 c 0,1.7197919 0.39687515,2.1166666 2.11666664,2.1166666 h 3.175 c 1.7197913,0 2.1166666,-0.3968747 2.1166666,-2.1166666 V 2.9104166 C 7.9374999,1.190625 7.5406249,0.79375 5.8208333,0.79375 Z m 0,0.2645833 h 3.175 c 1.5213541,0 1.8520833,0.3307294 1.8520833,1.8520833 v 2.6458335 c 0,1.5213542 -0.3307292,1.8520833 -1.8520833,1.8520833 h -3.175 c -1.5213541,0 -1.85208331,-0.3307291 -1.85208331,-1.8520833 V 2.9104166 c 0,-1.521354 0.33072921,-1.8520834 1.85208331,-1.8520833 z"
     sodipodi:nodetypes="ssssssssssssssssss" />
</svg>
