<?xml version="1.0" encoding="UTF-8" standalone="no"?>
<!-- Created with Inkscape (http://www.inkscape.org/) -->

<svg
   width="48"
   height="48"
   viewBox="0 0 12.7 12.7"
   version="1.1"
   id="svg5"
   inkscape:version="1.1.2 (0a00cf5339, 2022-02-04)"
   sodipodi:docname="aisleriot.svg"
   xmlns:inkscape="http://www.inkscape.org/namespaces/inkscape"
   xmlns:sodipodi="http://sodipodi.sourceforge.net/DTD/sodipodi-0.dtd"
   xmlns:xlink="http://www.w3.org/1999/xlink"
   xmlns="http://www.w3.org/2000/svg"
   xmlns:svg="http://www.w3.org/2000/svg">
  <sodipodi:namedview
     id="namedview7"
     pagecolor="#ffffff"
     bordercolor="#666666"
     borderopacity="1.0"
     inkscape:pageshadow="2"
     inkscape:pageopacity="0.0"
     inkscape:pagecheckerboard="0"
     inkscape:document-units="px"
     showgrid="false"
     units="px"
     inkscape:zoom="16.5"
     inkscape:cx="23.969697"
     inkscape:cy="24"
     inkscape:window-width="1920"
     inkscape:window-height="1010"
     inkscape:window-x="0"
     inkscape:window-y="0"
     inkscape:window-maximized="1"
     inkscape:current-layer="svg5" />
  <defs
     id="defs2">
    <linearGradient
       inkscape:collect="always"
       id="linearGradient1331">
      <stop
         style="stop-color:#e8e8e8;stop-opacity:1"
         offset="0"
         id="stop1327" />
      <stop
         style="stop-color:#f5f5f5;stop-opacity:1"
         offset="1"
         id="stop1329" />
    </linearGradient>
    <linearGradient
       inkscape:collect="always"
       id="linearGradient1871">
      <stop
         style="stop-color:#ffffff;stop-opacity:1;"
         offset="0"
         id="stop1867" />
      <stop
         style="stop-color:#ffffff;stop-opacity:0.1"
         offset="0.12"
         id="stop2515" />
      <stop
         style="stop-color:#ffffff;stop-opacity:0.102"
         offset="0.89999998"
         id="stop2581" />
      <stop
         style="stop-color:#ffffff;stop-opacity:0.502"
         offset="1"
         id="stop1869" />
    </linearGradient>
    <linearGradient
       inkscape:collect="always"
       xlink:href="#linearGradient1871"
       id="linearGradient1873"
       x1="17.222656"
       y1="3.5"
       x2="17.222656"
       y2="44.466438"
       gradientUnits="userSpaceOnUse"
       gradientTransform="matrix(0.26458333,0,0,0.26458333,0,-0.13229166)" />
    <linearGradient
       inkscape:collect="always"
       xlink:href="#linearGradient1331"
       id="linearGradient1333"
       x1="4.4751787"
       y1="0.5291667"
       x2="9.3370056"
       y2="11.764614"
       gradientUnits="userSpaceOnUse" />
  </defs>
  <path
     id="rect3143"
     style="opacity:0.1;fill:#000000;fill-opacity:1;stroke-width:0.264583"
     d="m 4.5160033,1.0583334 c -3.60405388,0 -4.1191283,0.5137855 -4.1191283,4.1144775 v 2.883545 c 0,3.6006791 0.51507442,4.1144791 4.1191283,4.1144791 h 3.6679933 c 3.6040544,0 4.1191284,-0.5138 4.1191284,-4.1144791 v -2.883545 c 0,-3.600692 -0.515074,-4.1144775 -4.1191284,-4.1144775 z" />
  <path
     style="display:inline;fill:url(#linearGradient1333);fill-opacity:1;stroke:none;stroke-width:0.0992187;stroke-linecap:round;stroke-linejoin:round;stroke-miterlimit:4;stroke-dasharray:none;stroke-dashoffset:0;stroke-opacity:1;enable-background:new"
     d="m 8.1839962,0.66145835 c 3.6040548,0 4.1191298,0.51378545 4.1191298,4.11447755 v 2.883545 c 0,3.6006781 -0.515075,4.1144781 -4.1191298,4.1144781 H 4.5160033 c -3.604054,0 -4.1191283,-0.5138 -4.1191283,-4.1144781 v -2.883545 c 0,-3.6006921 0.5150743,-4.11447755 4.1191283,-4.11447755 z"
     id="rect877"
     inkscape:connector-curvature="0"
     sodipodi:nodetypes="sssssssss" />
  <path
     id="rect5299"
     style="opacity:0.2;fill:#ffffff;fill-opacity:1;stroke-width:0.264583"
     d="m 0.52916667,6.0854167 v 1.441773 c 0,3.6006783 0.51507443,4.1144773 4.11912783,4.1144773 h 3.667994 c 3.6040535,0 4.1191275,-0.513799 4.1191275,-4.1144773 v -1.441773 z" />
  <path
     id="rect1370"
     style="opacity:0.4;fill:#000000;fill-opacity:1;stroke-width:0.264583"
     d="m 4.4751788,0.52916667 c -3.68414336,0 -4.21059547,0.52624033 -4.21059547,4.21266273 v 2.9517578 c 0,3.6864088 0.52645211,4.2126628 4.21059547,4.2126628 H 8.224821 c 3.684144,0 4.210596,-0.526254 4.210596,-4.2126628 V 4.7418294 c 0,-3.6864224 -0.526452,-4.21266273 -4.210596,-4.21266273 z m 0.081649,0.2645833 h 3.5863445 c 3.5239637,0 4.0276607,0.50133143 4.0276607,4.01629243 v 2.8153318 c 0,3.5149478 -0.503697,4.0162928 -4.0276607,4.0162928 H 4.5568277 c -3.5239637,0 -4.02766104,-0.501345 -4.02766104,-4.0162928 V 4.8100424 c 0,-3.514961 0.50369724,-4.01629243 4.02766114,-4.01629243 z" />
  <path
     id="rect1565"
     style="opacity:1;fill:url(#linearGradient1873);fill-opacity:1;stroke-width:0.264583"
     d="m 4.5568277,0.79374997 c -3.5239635,0 -4.02766104,0.50133123 -4.02766104,4.01629243 v 2.8153318 c 0,3.5149478 0.50369754,4.0162928 4.02766104,4.0162928 h 3.5863445 c 3.5239638,0 4.0276608,-0.501345 4.0276608,-4.0162928 V 4.8100424 c 0,-3.5149612 -0.503697,-4.01629243 -4.0276608,-4.01629243 z m 0.081649,0.26458343 h 3.4230468 c 3.3637835,0 3.8447265,0.4769388 3.8447265,3.8204385 v 2.6778728 c 0,3.3434873 -0.480943,3.8204393 -3.8447265,3.8204393 h -3.423047 c -3.3637834,0 -3.84472651,-0.476952 -3.84472651,-3.8204393 V 4.8787719 c 0,-3.3434997 0.48094311,-3.8204385 3.84472671,-3.8204385 z" />
  <g
     id="g1661">
    <path
       id="path31"
       d="M 3.7048946,1.5875028 2.1794063,5.5495347 H 1.8528113 V 5.8208361 H 2.9111446 V 5.5495347 H 2.6496619 L 2.9891761,4.7568185 H 4.714652 L 5.0278113,5.5495347 H 4.7632279 v 0.2687175 l 1.3229167,0.00258 V 5.5516019 L 5.8215613,5.5495319 4.2340613,1.5875 Z m 0.1467612,0.9131226 0.771529,1.990576 H 3.0806433 Z M 2.7948727,6.6151028 C 2.3198927,6.6479006 1.9091228,7.0275155 1.8579789,7.5287422 1.8299807,7.8669855 1.9010411,8.2063003 2.0853552,8.4961249 2.6540241,9.3261757 3.3432224,10.085708 3.9777462,10.84792 4.5789853,10.051339 5.294379,9.3134228 5.8711706,8.4961249 6.0633798,8.1413187 6.1476568,7.7401847 6.0344683,7.3473578 5.8627243,6.9405874 5.6125155,6.6019001 5.1611364,6.6151028 4.6434791,6.6172195 4.0996662,7.0723648 3.9777462,7.5550973 3.8316644,7.1638841 3.3542466,6.6539437 2.9054603,6.6151028 Z"
       style="fill:#da1636;fill-opacity:1;stroke-width:0.264583" />
    <path
       id="path35"
       d="M 3.7048946,1.5875028 2.1794063,5.5531521 h -0.326595 v 0.064079 h 0.326595 L 3.7048946,1.646414 h 0.5291667 l 1.5875,3.9687499 0.2645833,0.00206 v -0.058391 l -0.2645833,-0.00258 -1.5875,-3.96875 z m -0.6268352,2.9088664 -0.022738,0.058911 h 1.5952515 l -0.022738,-0.058911 z m -0.4314981,1.0567829 -0.01292,0.064079 h 0.2780191 v -0.064079 z m 2.1166666,0.0031 v 0.058911 l 0.2909382,0.00206 -0.022738,-0.058394 z M 2.7948727,6.6151028 c -0.47498,0.032798 -0.8862666,0.4124392 -0.9374106,0.9136394 -0.0045,0.054427 -0.00531,0.1090236 -0.00465,0.1632976 7.937e-4,-0.034743 0.00177,-0.069612 0.00465,-0.1043866 0.051144,-0.5012266 0.462457,-0.8813741 0.9374106,-0.914156 h 0.1105876 c 0.4487863,0.038825 0.9262094,0.549815 1.0722859,0.9410279 0.1219226,-0.4827058 0.6657329,-0.93907 1.1833902,-0.9410279 0.4514056,-0.013203 0.7010474,0.3254846 0.8728149,0.732255 0.032221,0.1118208 0.04784,0.2244923 0.050126,0.3364137 C 6.0870674,7.6109088 6.0718195,7.4787632 6.0339513,7.3473578 5.8622023,6.9405874 5.612542,6.6019001 5.1611364,6.6151028 4.6434791,6.6169549 4.0996662,7.0729082 3.9777462,7.555614 3.8316697,7.1644011 3.3542466,6.6539172 2.9054603,6.6151028 Z"
       style="opacity:0.5;fill:#ffffff;stroke-width:0.264583"
       sodipodi:nodetypes="ccccccccccccccccccccccccccccccccccccccccccc" />
    <path
       d="m 2.1318642,8.3627999 c 0.034258,0.133051 0.087143,0.261493 0.162264,0.3803385 0.5058038,0.7428707 1.1186799,1.4226586 1.683618,2.1047816 h 0.019121 C 4.4144865,10.292797 4.8915385,9.768378 5.3249524,9.2180448 Z"
       style="opacity:0.1;fill:#ffffff;stroke-width:0.0700042"
       id="path1545" />
  </g>
</svg>
