<?xml version="1.0" encoding="UTF-8" standalone="no"?>
<!-- Created with Inkscape (http://www.inkscape.org/) -->

<svg
   width="48"
   height="48"
   viewBox="0 0 12.7 12.7"
   version="1.1"
   id="svg5"
   inkscape:version="1.1.2 (0a00cf5339, 2022-02-04)"
   sodipodi:docname="applications-accessories.svg"
   xmlns:inkscape="http://www.inkscape.org/namespaces/inkscape"
   xmlns:sodipodi="http://sodipodi.sourceforge.net/DTD/sodipodi-0.dtd"
   xmlns:xlink="http://www.w3.org/1999/xlink"
   xmlns="http://www.w3.org/2000/svg"
   xmlns:svg="http://www.w3.org/2000/svg">
  <sodipodi:namedview
     id="namedview7"
     pagecolor="#ffffff"
     bordercolor="#666666"
     borderopacity="1.0"
     inkscape:pageshadow="2"
     inkscape:pageopacity="0.0"
     inkscape:pagecheckerboard="0"
     inkscape:document-units="px"
     showgrid="false"
     units="px"
     inkscape:zoom="1"
     inkscape:cx="29.5"
     inkscape:cy="12"
     inkscape:window-width="1851"
     inkscape:window-height="1053"
     inkscape:window-x="0"
     inkscape:window-y="0"
     inkscape:window-maximized="1"
     inkscape:current-layer="svg5"
     showguides="true" />
  <defs
     id="defs2">
    <linearGradient
       inkscape:collect="always"
       id="linearGradient1871">
      <stop
         style="stop-color:#ffffff;stop-opacity:1;"
         offset="0"
         id="stop1867" />
      <stop
         style="stop-color:#ffffff;stop-opacity:0.1"
         offset="0.12"
         id="stop2515" />
      <stop
         style="stop-color:#ffffff;stop-opacity:0.102"
         offset="0.89999998"
         id="stop2581" />
      <stop
         style="stop-color:#ffffff;stop-opacity:0.502"
         offset="1"
         id="stop1869" />
    </linearGradient>
    <linearGradient
       inkscape:collect="always"
       xlink:href="#linearGradient1871"
       id="linearGradient1873"
       x1="17.222656"
       y1="3.5"
       x2="17.222656"
       y2="44.466438"
       gradientUnits="userSpaceOnUse"
       gradientTransform="matrix(0.26458333,0,0,0.26458333,0,-0.13229166)" />
  </defs>
  <path
     id="rect3143"
     style="opacity:0.1;fill:#000000;fill-opacity:1;stroke-width:0.264583"
     d="m 4.5160033,1.0583334 c -3.60405388,0 -4.1191283,0.5137855 -4.1191283,4.1144775 v 2.883545 c 0,3.6006791 0.51507442,4.1144791 4.1191283,4.1144791 h 3.6679933 c 3.6040544,0 4.1191284,-0.5138 4.1191284,-4.1144791 v -2.883545 c 0,-3.600692 -0.515074,-4.1144775 -4.1191284,-4.1144775 z" />
  <path
     style="display:inline;fill:#f7f7f7;fill-opacity:1;stroke:none;stroke-width:0.0992187;stroke-linecap:round;stroke-linejoin:round;stroke-miterlimit:4;stroke-dasharray:none;stroke-dashoffset:0;stroke-opacity:1;enable-background:new"
     d="m 8.1839962,0.66145835 c 3.6040548,0 4.1191298,0.51378545 4.1191298,4.11447755 v 2.883545 c 0,3.6006781 -0.515075,4.1144781 -4.1191298,4.1144781 H 4.5160033 c -3.604054,0 -4.1191283,-0.5138 -4.1191283,-4.1144781 v -2.883545 c 0,-3.6006921 0.5150743,-4.11447755 4.1191283,-4.11447755 z"
     id="rect877"
     inkscape:connector-curvature="0"
     sodipodi:nodetypes="sssssssss" />
  <path
     d="m 1.0583333,2.1166667 v 8.2367693 c 0,0.759054 0.7590534,0.759054 0.7590534,0.759054 H 11.641666 Z M 2.9559866,6.3975184 6.5547695,9.2149179 H 2.9559866 Z"
     style="fill:#000000;stroke-width:0.0700042;opacity:0.1"
     id="path1623" />
  <path
     d="m 1.0583333,1.8520833 v 8.2367697 c 0,0.759054 0.7590534,0.759054 0.7590534,0.759054 H 11.641666 Z M 2.9559866,6.132935 6.5547695,8.9503345 H 2.9559866 Z"
     style="fill:#6ebc2a;stroke-width:0.264583"
     id="path912"
     sodipodi:nodetypes="csccccccc" />
  <path
     id="path1425-3"
     style="isolation:isolate;fill:#000000;stroke-width:0.301069;enable-background:new;opacity:0.1"
     d="M 5.5273113,2.7733625 V 3.7495303 H 5.038969 c -0.4881562,0 -0.4883422,0.4692221 -0.4883422,0.4692221 V 6.1607525 L 4.7826539,6.3886458 2.9734622,9.5223046 2.9104168,10.57547 3.7909832,9.9941104 4.2617555,9.1786561 c 0.5283245,0.273994 1.1160773,0.4195543 1.7156575,0.4206462 0.6216801,0 1.2079917,-0.1518814 1.7239258,-0.4201292 L 8.1715944,9.9941104 9.051644,10.574953 8.9885986,9.5217879 8.4790691,8.639671 C 9.240633,7.9546021 9.7198201,6.9618362 9.7198201,5.8568952 9.7182303,5.8026241 9.715522,5.7487915 9.7115519,5.6946313 L 8.7374513,5.6941145 c 0.00352,0.05416 0.00542,0.1085094 0.00568,0.1627807 0,0.7415424 -0.2919199,1.414799 -0.7668782,1.9115111 L 7.2042116,6.4315371 7.4796471,6.1607525 V 4.2187524 c 0,-0.4795838 -0.4883425,-0.4692221 -0.4883425,-0.4692221 H 6.503479 V 2.7733625 Z m -0.049093,4.2984456 0.049093,0.048059 c 0.3242998,0.2574369 0.6753368,0.2995612 0.9761677,0 l 0.00568,-0.00568 0.7033162,1.2180135 c -0.3717559,0.1859015 -0.7911358,0.290934 -1.2350622,0.290934 -0.4311531,0 -0.8497212,-0.1032823 -1.2267985,-0.2909383 z" />
  <path
     d="M 6.3934409,4.762686 5.5761959,5.2345175 8.1714144,9.7295241 9.0518949,10.310866 8.9886621,9.2576391 Z"
     style="isolation:isolate;fill:#e4e4e4;stroke-width:0.301069;enable-background:new"
     id="path1425" />
  <path
     id="path54"
     style="isolation:isolate;fill:#ffffff;stroke-width:0.264583"
     d="M 5.5686521,4.7625 2.9734617,9.2578331 2.9104167,10.310998 3.7909834,9.7296381 4.2617555,8.9141841 c 0.5283244,0.273994 1.1160773,0.419555 1.7156575,0.420647 2.0668191,0 3.7424074,-1.6756148 3.7424074,-3.7424075 -0.00159,-0.054271 -0.0043,-0.108104 -0.00827,-0.1622642 L 8.7374508,5.4296302 c 0.00352,0.05416 0.00542,0.1085096 0.00568,0.162781 0,1.5276776 -1.2381772,2.7662389 -2.7657226,2.7662389 -0.4311531,0 -0.8497212,-0.103282 -1.2267983,-0.290938 l 1.63556,-2.8334063 z" />
  <path
     d="M 5.5270929,2.5087791 V 3.4850387 H 5.0389896 c -0.4881563,0 -0.4881563,0.4691856 -0.4881563,0.4691856 v 1.9421475 l 0.9762596,0.9590881 c 0.3242998,0.2574369 0.6754813,0.2995612 0.9763125,0 L 7.479665,5.8963718 V 3.9542243 c 0,-0.4795838 -0.4881563,-0.4691856 -0.4881563,-0.4691856 H 6.5034054 V 2.5087791 Z"
     style="isolation:isolate;fill:#4f4f4f;stroke-width:0.301069;enable-background:new"
     id="path1591" />
  <path
     id="rect1565"
     style="fill:url(#linearGradient1873);fill-opacity:1;stroke-width:0.264583"
     d="m 4.5568277,0.79374997 c -3.5239635,0 -4.02766104,0.50133123 -4.02766104,4.01629243 v 2.8153318 c 0,3.5149478 0.50369754,4.0162928 4.02766104,4.0162928 h 3.5863445 c 3.5239638,0 4.0276608,-0.501345 4.0276608,-4.0162928 V 4.8100424 c 0,-3.5149612 -0.503697,-4.01629243 -4.0276608,-4.01629243 z m 0.081649,0.26458343 h 3.4230468 c 3.3637835,0 3.8447265,0.4769388 3.8447265,3.8204385 v 2.6778728 c 0,3.3434873 -0.480943,3.8204393 -3.8447265,3.8204393 h -3.423047 c -3.3637834,0 -3.84472651,-0.476952 -3.84472651,-3.8204393 V 4.8787719 c 0,-3.3434997 0.48094311,-3.8204385 3.84472671,-3.8204385 z" />
  <path
     id="rect1370"
     style="opacity:0.4;fill:#000000;fill-opacity:1;stroke-width:0.264583"
     d="m 4.4751788,0.52916667 c -3.68414336,0 -4.21059547,0.52624033 -4.21059547,4.21266273 v 2.9517578 c 0,3.6864088 0.52645211,4.2126628 4.21059547,4.2126628 H 8.224821 c 3.684144,0 4.210596,-0.526254 4.210596,-4.2126628 V 4.7418294 c 0,-3.6864224 -0.526452,-4.21266273 -4.210596,-4.21266273 z m 0.081649,0.2645833 h 3.5863445 c 3.5239637,0 4.0276607,0.50133143 4.0276607,4.01629243 v 2.8153318 c 0,3.5149478 -0.503697,4.0162928 -4.0276607,4.0162928 H 4.5568277 c -3.5239637,0 -4.02766104,-0.501345 -4.02766104,-4.0162928 V 4.8100424 c 0,-3.514961 0.50369724,-4.01629243 4.02766114,-4.01629243 z" />
  <circle
     style="opacity:0.1;fill:#000000;stroke-width:0.287073"
     id="path1013"
     cx="6.0060415"
     cy="5.2916665"
     r="0.52916664" />
  <circle
     style="opacity:1;fill:#ffffff;stroke-width:0.287073"
     id="path873"
     cx="6.0060415"
     cy="5.0270829"
     r="0.52916664" />
</svg>
