<?xml version="1.0" encoding="UTF-8" standalone="no"?>
<!-- Created with Inkscape (http://www.inkscape.org/) -->

<svg
   width="48"
   height="48"
   viewBox="0 0 12.7 12.7"
   version="1.1"
   id="svg5"
   inkscape:version="1.1.2 (0a00cf5339, 2022-02-04, custom)"
   sodipodi:docname="contacts.svg"
   xmlns:inkscape="http://www.inkscape.org/namespaces/inkscape"
   xmlns:sodipodi="http://sodipodi.sourceforge.net/DTD/sodipodi-0.dtd"
   xmlns:xlink="http://www.w3.org/1999/xlink"
   xmlns="http://www.w3.org/2000/svg"
   xmlns:svg="http://www.w3.org/2000/svg">
  <sodipodi:namedview
     id="namedview7"
     pagecolor="#ffffff"
     bordercolor="#666666"
     borderopacity="1.0"
     inkscape:pageshadow="2"
     inkscape:pageopacity="0.0"
     inkscape:pagecheckerboard="0"
     inkscape:document-units="px"
     showgrid="false"
     units="px"
     inkscape:zoom="17.291667"
     inkscape:cx="24"
     inkscape:cy="24"
     inkscape:window-width="1920"
     inkscape:window-height="1009"
     inkscape:window-x="-8"
     inkscape:window-y="-8"
     inkscape:window-maximized="1"
     inkscape:current-layer="svg5" />
  <defs
     id="defs2">
    <linearGradient
       inkscape:collect="always"
       id="linearGradient3598">
      <stop
         style="stop-color:#5884f4;stop-opacity:1"
         offset="0"
         id="stop3594" />
      <stop
         style="stop-color:#80a3fa;stop-opacity:1"
         offset="1"
         id="stop3596" />
    </linearGradient>
    <linearGradient
       inkscape:collect="always"
       id="linearGradient1871">
      <stop
         style="stop-color:#ffffff;stop-opacity:1;"
         offset="0"
         id="stop1867" />
      <stop
         style="stop-color:#ffffff;stop-opacity:0.1"
         offset="0.12"
         id="stop2515" />
      <stop
         style="stop-color:#ffffff;stop-opacity:0.102"
         offset="0.89999998"
         id="stop2581" />
      <stop
         style="stop-color:#ffffff;stop-opacity:0.502"
         offset="1"
         id="stop1869" />
    </linearGradient>
    <linearGradient
       inkscape:collect="always"
       xlink:href="#linearGradient1871"
       id="linearGradient1873"
       x1="17.222656"
       y1="3.5"
       x2="17.222656"
       y2="44.466438"
       gradientUnits="userSpaceOnUse"
       gradientTransform="matrix(0.26458333,0,0,0.26458333,0,-0.13229166)" />
    <linearGradient
       inkscape:collect="always"
       xlink:href="#linearGradient3598"
       id="linearGradient3600"
       x1="4.4751792"
       y1="0.5291667"
       x2="8.5291948"
       y2="11.823769"
       gradientUnits="userSpaceOnUse" />
  </defs>
  <path
     id="rect3143"
     style="opacity:0.1;fill:#000000;fill-opacity:1;stroke-width:0.264583"
     d="m 4.5160033,1.0583334 c -3.60405388,0 -4.1191283,0.5137855 -4.1191283,4.1144775 v 2.883545 c 0,3.6006791 0.51507442,4.1144791 4.1191283,4.1144791 h 3.6679933 c 3.6040544,0 4.1191284,-0.5138 4.1191284,-4.1144791 v -2.883545 c 0,-3.600692 -0.515074,-4.1144775 -4.1191284,-4.1144775 z" />
  <path
     style="display:inline;fill:url(#linearGradient3600);fill-opacity:1;stroke:none;stroke-width:0.0992187;stroke-linecap:round;stroke-linejoin:round;stroke-miterlimit:4;stroke-dasharray:none;stroke-dashoffset:0;stroke-opacity:1;enable-background:new"
     d="m 8.1839962,0.66145835 c 3.6040548,0 4.1191298,0.51378545 4.1191298,4.11447755 v 2.883545 c 0,3.6006781 -0.515075,4.1144781 -4.1191298,4.1144781 H 4.5160033 c -3.604054,0 -4.1191283,-0.5138 -4.1191283,-4.1144781 v -2.883545 c 0,-3.6006921 0.5150743,-4.11447755 4.1191283,-4.11447755 z"
     id="rect877"
     inkscape:connector-curvature="0"
     sodipodi:nodetypes="sssssssss" />
  <path
     id="rect889"
     style="fill:#ffffff;stroke-width:0.264583;stroke-linejoin:round"
     d="M 5.9141185,3.4395834 C 5.1881098,3.4394173 4.6088855,4.074689 4.6087718,4.8400148 4.6085921,5.6055634 5.1878989,6.241129 5.9141185,6.2409629 6.6401098,6.2407756 7.2191276,5.6053221 7.2189482,4.8400148 7.2188345,4.0749303 6.6398986,3.4397707 5.9141185,3.4395834 Z m 0,0.3110921 C 6.4577452,3.750816 6.9077654,4.2302052 6.9078562,4.8400148 6.9079991,5.450005 6.4579066,5.9297303 5.9141185,5.9298706 5.3701555,5.9299949 4.9197207,5.4502006 4.9198638,4.8400148 4.9199546,4.2300094 5.3703172,3.7505511 5.9141185,3.7506755 Z m 0.016536,3.1135049 c -0.8902793,0 -1.5101988,0.1219925 -1.92288,0.4103111 -0.4126812,0.2883183 -0.581243,0.7469664 -0.5674074,1.3053465 0.00201,0.084466 0.071056,0.1518965 0.1555461,0.1519288 h 4.668966 C 8.3493693,8.7317345 8.4184053,8.6643041 8.4204253,8.579838 8.4342073,8.0030307 8.2656947,7.5426152 7.8519845,7.2589885 7.4382743,6.9753615 6.8197724,6.8641804 5.9306545,6.8641804 Z m 0,0.3110924 c 0.8617611,0 1.4234088,0.119643 1.7456298,0.3405475 0.2839563,0.194672 0.39307,0.4889535 0.4113442,0.9048544 H 3.7736806 C 3.7927412,8.0209919 3.9019805,7.7282435 4.1860586,7.5297729 4.5095665,7.3037552 5.0700559,7.1752728 5.9306545,7.1752728 Z" />
  <path
     id="rect1206"
     style="opacity:1;fill:#f22c42;fill-opacity:1;stroke-width:0.889285;stroke-linejoin:round"
     d="M 42 3.90625 L 42 15.5 L 46.470703 15.5 C 46.453268 14.797841 46.429345 14.129891 46.392578 13.5 C 46.392069 13.491274 46.391138 13.483322 46.390625 13.474609 C 46.370666 13.135731 46.346746 12.807044 46.320312 12.488281 C 46.267446 11.850757 46.201466 11.253981 46.119141 10.693359 C 46.098559 10.553204 46.077296 10.414831 46.054688 10.279297 C 46.032079 10.143762 46.007131 10.009894 45.982422 9.8789062 C 45.957713 9.7479185 45.933134 9.6206558 45.90625 9.4941406 C 45.884728 9.3928592 45.862803 9.2937704 45.839844 9.1953125 C 45.833989 9.1702214 45.828216 9.146003 45.822266 9.1210938 C 45.815639 9.093318 45.807526 9.0666131 45.800781 9.0390625 C 45.778813 8.9493328 45.75567 8.8588451 45.732422 8.7714844 C 45.731398 8.7676416 45.731495 8.7636039 45.730469 8.7597656 C 45.706318 8.669331 45.681809 8.5820651 45.65625 8.4941406 C 45.648368 8.4670497 45.640831 8.4409172 45.632812 8.4140625 C 45.621944 8.3776132 45.61073 8.342657 45.599609 8.3066406 C 45.578716 8.2389725 45.556952 8.1716212 45.535156 8.1054688 C 45.532362 8.0969988 45.530152 8.0885234 45.527344 8.0800781 C 45.519855 8.0575318 45.511502 8.0360426 45.503906 8.0136719 C 45.475322 7.929489 45.446136 7.8453905 45.416016 7.7636719 C 45.415299 7.761729 45.41478 7.7597539 45.414062 7.7578125 C 45.41262 7.7539071 45.411602 7.7499936 45.410156 7.7460938 C 45.376543 7.6554259 45.342202 7.5661853 45.306641 7.4785156 C 45.302411 7.4681013 45.299179 7.457638 45.294922 7.4472656 C 45.265758 7.3761114 45.235567 7.3074772 45.205078 7.2382812 C 45.200685 7.2283214 45.195827 7.218904 45.191406 7.2089844 C 45.155441 7.1282881 45.117905 7.048757 45.080078 6.9707031 C 45.077302 6.9649677 45.075052 6.9588462 45.072266 6.953125 C 45.071369 6.9512859 45.07121 6.9491033 45.070312 6.9472656 C 45.029602 6.8639352 44.986259 6.7815247 44.943359 6.7011719 C 44.93924 6.6934521 44.935781 6.6854269 44.931641 6.6777344 C 44.929547 6.673846 44.92788 6.669897 44.925781 6.6660156 C 44.881446 6.5840174 44.835764 6.5047078 44.789062 6.4257812 C 44.787139 6.422528 44.785131 6.4192637 44.783203 6.4160156 C 44.782456 6.4147573 44.781998 6.4133669 44.78125 6.4121094 C 44.737813 6.3390759 44.693957 6.2677057 44.648438 6.1972656 C 44.641278 6.1861779 44.634164 6.1750866 44.626953 6.1640625 C 44.622584 6.1573879 44.61767 6.1511826 44.613281 6.1445312 C 44.570098 6.0790839 44.52553 6.0143858 44.480469 5.9511719 C 44.473683 5.9416458 44.467767 5.9313509 44.460938 5.921875 C 44.457649 5.9173148 44.45447 5.9127517 44.451172 5.9082031 C 44.397537 5.8342419 44.341468 5.7623279 44.285156 5.6914062 C 44.232879 5.625566 44.179634 5.5613168 44.125 5.4980469 C 44.117142 5.4889412 44.109469 5.4797561 44.101562 5.4707031 C 44.092759 5.4606303 44.083083 5.4514141 44.074219 5.4414062 C 44.030481 5.3920264 43.986651 5.3427327 43.941406 5.2949219 C 43.930326 5.283207 43.919375 5.2713872 43.908203 5.2597656 C 43.903101 5.2544601 43.8977 5.2494268 43.892578 5.2441406 C 43.836558 5.1863218 43.779029 5.1297403 43.720703 5.0742188 C 43.71537 5.0691402 43.710431 5.0636532 43.705078 5.0585938 C 43.69802 5.0519242 43.690686 5.045699 43.683594 5.0390625 C 43.638665 4.9970209 43.593176 4.9567443 43.546875 4.9160156 C 43.515833 4.8886923 43.484793 4.860724 43.453125 4.8339844 C 43.405056 4.7934312 43.356164 4.7540707 43.306641 4.7148438 C 43.294665 4.7053498 43.283546 4.6949639 43.271484 4.6855469 C 43.260612 4.677066 43.249223 4.6685749 43.238281 4.6601562 C 43.184181 4.6185316 43.12809 4.5772287 43.072266 4.5371094 C 43.060576 4.5287062 43.048875 4.5200566 43.037109 4.5117188 C 43.025649 4.5035999 43.013486 4.4963384 43.001953 4.4882812 C 42.949016 4.4512981 42.896275 4.4146005 42.841797 4.3789062 C 42.826108 4.3686224 42.81074 4.3578342 42.794922 4.3476562 C 42.776396 4.3357425 42.756985 4.3242694 42.738281 4.3125 C 42.694016 4.2846466 42.648782 4.2575211 42.603516 4.2304688 C 42.564175 4.2069534 42.524481 4.1830735 42.484375 4.1601562 C 42.419039 4.12283 42.352544 4.0865456 42.285156 4.0507812 C 42.281797 4.0489985 42.278755 4.0467008 42.275391 4.0449219 C 42.272329 4.0433031 42.268691 4.0426313 42.265625 4.0410156 C 42.180529 3.9961707 42.094266 3.952583 42.005859 3.9101562 C 42.003773 3.9091551 42.002088 3.9072499 42 3.90625 z "
     transform="scale(0.26458333)" />
  <path
     id="rect1457"
     style="opacity:1;fill:#76c22b;fill-opacity:1;stroke-width:0.999999;stroke-linejoin:round"
     d="M 42 13.5 L 42 23.5 L 46.5 23.5 L 46.5 18.050781 C 46.5 16.359976 46.471336 14.849267 46.392578 13.5 L 42 13.5 z "
     transform="scale(0.26458333)" />
  <path
     id="rect1741"
     style="opacity:1;fill:#fdc92b;fill-opacity:1;stroke-width:0.999999;stroke-linejoin:round"
     d="M 42 23.5 L 42 33.5 L 46.392578 33.5 C 46.471336 32.150737 46.5 30.640017 46.5 28.949219 L 46.5 23.5 L 42 23.5 z "
     transform="scale(0.26458333)" />
  <path
     id="rect1971"
     style="opacity:1;fill:#f1f0e9;fill-opacity:1;stroke-width:1.06904;stroke-linejoin:round"
     d="M 42 32.5 L 42 43.09375 C 45.18333 41.569503 46.202171 38.499276 46.439453 32.5 L 42 32.5 z "
     transform="scale(0.26458333)" />
  <rect
     style="opacity:0.1;fill:#000000;fill-opacity:1;stroke-width:0.264583;stroke-linejoin:round"
     id="rect2987"
     width="0.26458332"
     height="9.5249996"
     x="11.100856"
     y="1.4283618" />
  <path
     id="rect1565"
     style="opacity:1;fill:url(#linearGradient1873);fill-opacity:1;stroke-width:0.264583"
     d="m 4.5568277,0.79374997 c -3.5239635,0 -4.02766104,0.50133123 -4.02766104,4.01629243 v 2.8153318 c 0,3.5149478 0.50369754,4.0162928 4.02766104,4.0162928 h 3.5863445 c 3.5239638,0 4.0276608,-0.501345 4.0276608,-4.0162928 V 4.8100424 c 0,-3.5149612 -0.503697,-4.01629243 -4.0276608,-4.01629243 z m 0.081649,0.26458343 h 3.4230468 c 3.3637835,0 3.8447265,0.4769388 3.8447265,3.8204385 v 2.6778728 c 0,3.3434873 -0.480943,3.8204393 -3.8447265,3.8204393 h -3.423047 c -3.3637834,0 -3.84472651,-0.476952 -3.84472651,-3.8204393 V 4.8787719 c 0,-3.3434997 0.48094311,-3.8204385 3.84472671,-3.8204385 z" />
  <path
     id="rect1370"
     style="opacity:0.4;fill:#000000;fill-opacity:1;stroke-width:0.264583"
     d="m 4.4751788,0.52916667 c -3.68414336,0 -4.21059547,0.52624033 -4.21059547,4.21266273 v 2.9517578 c 0,3.6864088 0.52645211,4.2126628 4.21059547,4.2126628 H 8.224821 c 3.684144,0 4.210596,-0.526254 4.210596,-4.2126628 V 4.7418294 c 0,-3.6864224 -0.526452,-4.21266273 -4.210596,-4.21266273 z m 0.081649,0.2645833 h 3.5863445 c 3.5239637,0 4.0276607,0.50133143 4.0276607,4.01629243 v 2.8153318 c 0,3.5149478 -0.503697,4.0162928 -4.0276607,4.0162928 H 4.5568277 c -3.5239637,0 -4.02766104,-0.501345 -4.02766104,-4.0162928 V 4.8100424 c 0,-3.514961 0.50369724,-4.01629243 4.02766114,-4.01629243 z" />
</svg>
