<?xml version="1.0" encoding="UTF-8" standalone="no"?>
<!-- Created with Inkscape (http://www.inkscape.org/) -->

<svg
   width="48"
   height="48"
   viewBox="0 0 12.7 12.7"
   version="1.1"
   id="svg5"
   inkscape:version="1.1.2 (0a00cf5339, 2022-02-04)"
   sodipodi:docname="desktop-environment-kde.svg"
   xmlns:inkscape="http://www.inkscape.org/namespaces/inkscape"
   xmlns:sodipodi="http://sodipodi.sourceforge.net/DTD/sodipodi-0.dtd"
   xmlns:xlink="http://www.w3.org/1999/xlink"
   xmlns="http://www.w3.org/2000/svg"
   xmlns:svg="http://www.w3.org/2000/svg">
  <sodipodi:namedview
     id="namedview7"
     pagecolor="#ffffff"
     bordercolor="#666666"
     borderopacity="1.0"
     inkscape:pageshadow="2"
     inkscape:pageopacity="0.0"
     inkscape:pagecheckerboard="0"
     inkscape:document-units="px"
     showgrid="false"
     units="px"
     inkscape:zoom="8.5208335"
     inkscape:cx="43.364302"
     inkscape:cy="15.96088"
     inkscape:window-width="1920"
     inkscape:window-height="1010"
     inkscape:window-x="0"
     inkscape:window-y="0"
     inkscape:window-maximized="1"
     inkscape:current-layer="svg5" />
  <defs
     id="defs2">
    <linearGradient
       inkscape:collect="always"
       id="linearGradient3598">
      <stop
         style="stop-color:#1a86f2;stop-opacity:1"
         offset="0"
         id="stop3594" />
      <stop
         style="stop-color:#21c9fb;stop-opacity:1"
         offset="1"
         id="stop3596" />
    </linearGradient>
    <linearGradient
       inkscape:collect="always"
       id="linearGradient1871">
      <stop
         style="stop-color:#ffffff;stop-opacity:1;"
         offset="0"
         id="stop1867" />
      <stop
         style="stop-color:#ffffff;stop-opacity:0.1"
         offset="0.12"
         id="stop2515" />
      <stop
         style="stop-color:#ffffff;stop-opacity:0.102"
         offset="0.89999998"
         id="stop2581" />
      <stop
         style="stop-color:#ffffff;stop-opacity:0.502"
         offset="1"
         id="stop1869" />
    </linearGradient>
    <linearGradient
       inkscape:collect="always"
       xlink:href="#linearGradient1871"
       id="linearGradient1873"
       x1="17.222656"
       y1="3.5"
       x2="17.222656"
       y2="44.466438"
       gradientUnits="userSpaceOnUse"
       gradientTransform="matrix(0.26458333,0,0,0.26458333,0,-0.13229166)" />
    <linearGradient
       inkscape:collect="always"
       xlink:href="#linearGradient3598"
       id="linearGradient3600"
       x1="12.646386"
       y1="11.784748"
       x2="0.24184538"
       y2="0.5291667"
       gradientUnits="userSpaceOnUse" />
  </defs>
  <path
     id="rect3143"
     style="opacity:0.1;fill:#000000;fill-opacity:1;stroke-width:0.264583"
     d="m 4.5160033,1.0583334 c -3.60405388,0 -4.1191283,0.5137855 -4.1191283,4.1144775 v 2.883545 c 0,3.6006791 0.51507442,4.1144791 4.1191283,4.1144791 h 3.6679933 c 3.6040544,0 4.1191284,-0.5138 4.1191284,-4.1144791 v -2.883545 c 0,-3.600692 -0.515074,-4.1144775 -4.1191284,-4.1144775 z" />
  <path
     style="display:inline;fill:url(#linearGradient3600);fill-opacity:1;stroke:none;stroke-width:0.0992187;stroke-linecap:round;stroke-linejoin:round;stroke-miterlimit:4;stroke-dasharray:none;stroke-dashoffset:0;stroke-opacity:1;enable-background:new"
     d="m 8.1839962,0.66145835 c 3.6040548,0 4.1191298,0.51378545 4.1191298,4.11447755 v 2.883545 c 0,3.6006781 -0.515075,4.1144781 -4.1191298,4.1144781 H 4.5160033 c -3.604054,0 -4.1191283,-0.5138 -4.1191283,-4.1144781 v -2.883545 c 0,-3.6006921 0.5150743,-4.11447755 4.1191283,-4.11447755 z"
     id="rect877"
     inkscape:connector-curvature="0"
     sodipodi:nodetypes="sssssssss" />
  <path
     id="rect1370"
     style="opacity:0.4;fill:#000000;fill-opacity:1;stroke-width:0.264583"
     d="m 4.4751788,0.52916667 c -3.68414336,0 -4.21059547,0.52624033 -4.21059547,4.21266273 v 2.9517578 c 0,3.6864088 0.52645211,4.2126628 4.21059547,4.2126628 H 8.224821 c 3.684144,0 4.210596,-0.526254 4.210596,-4.2126628 V 4.7418294 c 0,-3.6864224 -0.526452,-4.21266273 -4.210596,-4.21266273 z m 0.081649,0.2645833 h 3.5863445 c 3.5239637,0 4.0276607,0.50133143 4.0276607,4.01629243 v 2.8153318 c 0,3.5149478 -0.503697,4.0162928 -4.0276607,4.0162928 H 4.5568277 c -3.5239637,0 -4.02766104,-0.501345 -4.02766104,-4.0162928 V 4.8100424 c 0,-3.514961 0.50369724,-4.01629243 4.02766114,-4.01629243 z" />
  <path
     id="rect1565"
     style="opacity:0.7;fill:url(#linearGradient1873);fill-opacity:1;stroke-width:0.264583"
     d="m 4.5568277,0.79374997 c -3.5239635,0 -4.02766104,0.50133123 -4.02766104,4.01629243 v 2.8153318 c 0,3.5149478 0.50369754,4.0162928 4.02766104,4.0162928 h 3.5863445 c 3.5239638,0 4.0276608,-0.501345 4.0276608,-4.0162928 V 4.8100424 c 0,-3.5149612 -0.503697,-4.01629243 -4.0276608,-4.01629243 z m 0.081649,0.26458343 h 3.4230468 c 3.3637835,0 3.8447265,0.4769388 3.8447265,3.8204385 v 2.6778728 c 0,3.3434873 -0.480943,3.8204393 -3.8447265,3.8204393 h -3.423047 c -3.3637834,0 -3.84472651,-0.476952 -3.84472651,-3.8204393 V 4.8787719 c 0,-3.3434997 0.48094311,-3.8204385 3.84472671,-3.8204385 z" />
  <path
     id="rect882"
     style="fill:#ffffff;stroke-width:0.264583;stroke-linecap:round;stroke-linejoin:round"
     d="m 6.8791663,1.8520833 v 5.159e-4 l 0.00723,-5.159e-4 z m 0,5.159e-4 -1.3229167,0.1307414 V 7.6145222 L 6.8791663,7.4083332 V 5.0270833 L 8.7312499,7.6729166 10.303763,7.1437499 8.2020829,4.7624999 10.31875,2.38125 8.7312499,1.8520833 6.8791663,4.4979166 Z M 3.8896847,3.4401 C 3.8734127,3.44208 3.8559957,3.44588 3.8436927,3.458187 L 3.279386,4.0188763 c -0.023675,0.023614 -0.026188,0.059275 -0.00878,0.08785 L 3.8705652,5.0911624 C 3.7294523,5.3203231 3.6206514,5.5708801 3.5470708,5.8363365 L 2.439644,6.064746 C 2.406015,6.071626 2.38125,6.103731 2.38125,6.138127 v 0.7916828 c 0,0.033536 0.025772,0.062024 0.058394,0.069763 l 1.0738363,0.258899 c 0.067551,0.2986617 0.181723,0.5791068 0.3333128,0.8350912 L 3.2209917,9.0397583 c -0.018971,0.028773 -0.015163,0.067059 0.0093,0.091467 l 0.56379,0.5601724 c 0.023813,0.023614 0.060825,0.026566 0.0894,0.0093 L 4.860686,9.1115895 c 0.2412206,0.144182 0.5045985,0.2542616 0.7844483,0.3240111 l 0.227893,1.0898564 c 0.00714,0.0336 0.03562,0.05788 0.07028,0.05788 h 0.7973671 c 0.033338,0 0.062343,-0.02243 0.07028,-0.05478 L 7.081739,9.4319835 C 7.3638112,9.3589109 7.6267299,9.2406932 7.8687709,9.0919524 l 0.981336,0.6387208 c 0.02897,0.018653 0.06686,0.015227 0.09147,-0.00878 l 0.561206,-0.5601726 c 0.02381,-0.023614 0.02935,-0.05999 0.01189,-0.088367 l -0.382922,-0.627352 -0.125574,0.039791 c -0.01826,0.00556 -0.03838,-0.00293 -0.04909,-0.018603 0,0 -0.118957,-0.1609346 -0.213423,-0.2888713 C 8.6995839,8.1112583 8.4860219,7.7976348 8.2656449,7.5101385 7.9179819,8.2546734 7.1712663,8.7304561 6.3499996,8.7312499 5.1809911,8.7312499 4.233333,7.7835918 4.233333,6.6145832 4.2341003,5.8119168 4.6091736,5.0986853 5.2916663,4.7413126 V 3.8855509 C 5.1440632,3.9404176 5.0470069,4.0080017 4.9118445,4.0850219 L 3.93516,3.4499184 C 3.920674,3.4403884 3.905758,3.4385124 3.889685,3.4400984 Z" />
</svg>
