<?xml version="1.0" encoding="UTF-8" standalone="no"?>
<!-- Created with Inkscape (http://www.inkscape.org/) -->

<svg
   width="48"
   height="48"
   viewBox="0 0 12.7 12.7"
   version="1.1"
   id="svg5"
   inkscape:version="1.1.2 (0a00cf5339, 2022-02-04)"
   sodipodi:docname="devhelp.svg"
   xmlns:inkscape="http://www.inkscape.org/namespaces/inkscape"
   xmlns:sodipodi="http://sodipodi.sourceforge.net/DTD/sodipodi-0.dtd"
   xmlns:xlink="http://www.w3.org/1999/xlink"
   xmlns="http://www.w3.org/2000/svg"
   xmlns:svg="http://www.w3.org/2000/svg">
  <sodipodi:namedview
     id="namedview7"
     pagecolor="#ffffff"
     bordercolor="#666666"
     borderopacity="1.0"
     inkscape:pageshadow="2"
     inkscape:pageopacity="0.0"
     inkscape:pagecheckerboard="0"
     inkscape:document-units="px"
     showgrid="false"
     units="px"
     inkscape:zoom="17.270833"
     inkscape:cx="23.971049"
     inkscape:cy="24"
     inkscape:window-width="1851"
     inkscape:window-height="1049"
     inkscape:window-x="0"
     inkscape:window-y="0"
     inkscape:window-maximized="1"
     inkscape:current-layer="svg5"
     showguides="false" />
  <defs
     id="defs2">
    <linearGradient
       inkscape:collect="always"
       id="linearGradient3598">
      <stop
         style="stop-color:#bc1938;stop-opacity:1"
         offset="0"
         id="stop3594" />
      <stop
         style="stop-color:#da1636;stop-opacity:1"
         offset="1"
         id="stop3596" />
    </linearGradient>
    <linearGradient
       inkscape:collect="always"
       xlink:href="#linearGradient3598"
       id="linearGradient3600"
       x1="3.175"
       y1="0.56327307"
       x2="7.9375"
       y2="11.872143"
       gradientUnits="userSpaceOnUse" />
    <linearGradient
       inkscape:collect="always"
       xlink:href="#linearGradient1871"
       id="linearGradient1873"
       x1="17.222656"
       y1="3.5"
       x2="17.222656"
       y2="44.466438"
       gradientUnits="userSpaceOnUse"
       gradientTransform="matrix(0.26458333,0,0,0.26458333,0,-0.13229163)" />
    <linearGradient
       inkscape:collect="always"
       id="linearGradient1871">
      <stop
         style="stop-color:#ffffff;stop-opacity:1;"
         offset="0"
         id="stop1867" />
      <stop
         style="stop-color:#ffffff;stop-opacity:0.1"
         offset="0.12"
         id="stop2515" />
      <stop
         style="stop-color:#ffffff;stop-opacity:0.102"
         offset="0.89999998"
         id="stop2581" />
      <stop
         style="stop-color:#ffffff;stop-opacity:0.502"
         offset="1"
         id="stop1869" />
    </linearGradient>
  </defs>
  <path
     id="rect3143"
     style="opacity:0.1;fill:#000000;fill-opacity:1;stroke-width:0.264583"
     d="m 4.5160033,1.0583333 c -3.6040539,0 -4.1191283,0.5137856 -4.1191283,4.1144776 v 2.8835446 c 0,3.6006805 0.5150744,4.1144805 4.1191283,4.1144805 h 3.6679933 c 3.6040544,0 4.1191284,-0.5138 4.1191284,-4.1144805 V 5.1728109 c 0,-3.600692 -0.515074,-4.1144776 -4.1191284,-4.1144776 z" />
  <path
     style="display:inline;fill:url(#linearGradient3600);fill-opacity:1;stroke:none;stroke-width:0.0992187;stroke-linecap:round;stroke-linejoin:round;stroke-miterlimit:4;stroke-dasharray:none;stroke-dashoffset:0;stroke-opacity:1;enable-background:new"
     d="m 8.1839953,0.66145835 c 3.6040547,0 4.1191297,0.51378555 4.1191297,4.11447755 v 2.883545 c 0,3.6006771 -0.515075,4.1144771 -4.1191297,4.1144771 H 4.5160029 c -3.60405369,0 -4.1191279,-0.5138 -4.1191279,-4.1144771 v -2.883545 c 0,-3.600692 0.51507421,-4.11447755 4.1191279,-4.11447755 z"
     id="rect877"
     inkscape:connector-curvature="0"
     sodipodi:nodetypes="sssssssss" />
  <path
     id="rect5299"
     style="opacity:0.05;fill:#ffffff;fill-opacity:1;stroke-width:0.264583"
     d="m 0.396875,6.35 v 1.3094809 c 0,3.6006781 0.51507455,4.1144771 4.1191284,4.1144771 h 3.6679933 c 3.6040543,0 4.1191283,-0.513799 4.1191283,-4.1144771 V 6.35 Z" />
  <path
     id="rect1262"
     style="opacity:1;fill:#4d4d4d;fill-opacity:1;stroke-width:1.09544;stroke-linejoin:round"
     d="M 12 2.6445312 C 2.9460572 3.2783914 1.5 6.3535255 1.5 18.050781 L 1.5 28.949219 C 1.5 40.646426 2.9460572 43.721598 12 44.355469 L 12 2.6445312 z "
     transform="scale(0.26458333)" />
  <path
     id="rect1565"
     style="fill:url(#linearGradient1873);fill-opacity:1;stroke-width:0.264583;opacity:0.4"
     d="m 4.5568277,0.79375 c -3.5239635,0 -4.02766103,0.5013312 -4.02766103,4.0162924 v 2.8153318 c 0,3.5149478 0.50369753,4.0162928 4.02766103,4.0162928 h 3.5863445 c 3.5239638,0 4.0276608,-0.501345 4.0276608,-4.0162928 V 4.8100424 c 0,-3.5149612 -0.503697,-4.0162924 -4.0276608,-4.0162924 z m 0.081649,0.2645834 h 3.4230468 c 3.3637835,0 3.8447265,0.4769388 3.8447265,3.8204385 v 2.6778728 c 0,3.3434873 -0.480943,3.8204393 -3.8447265,3.8204393 H 4.6384765 C 1.2746931,11.377084 0.79375,10.900132 0.79375,7.5566447 V 4.8787719 c 0,-3.3434997 0.4809431,-3.8204385 3.8447267,-3.8204385 z" />
  <path
     id="rect1370"
     style="opacity:0.4;fill:#000000;fill-opacity:1;stroke-width:0.264583"
     d="m 4.4751788,0.52916667 c -3.68414314,0 -4.21059547,0.52624033 -4.21059547,4.21266263 v 2.9517578 c 0,3.6864079 0.52645233,4.2126629 4.21059547,4.2126629 H 8.224821 c 3.684144,0 4.210596,-0.526255 4.210596,-4.2126629 V 4.7418293 c 0,-3.6864223 -0.526452,-4.21266263 -4.210596,-4.21266263 z M 4.5568278,0.79375 h 3.5863445 c 3.5239637,0 4.0276607,0.5013312 4.0276607,4.0162924 v 2.8153317 c 0,3.5149469 -0.503697,4.0162919 -4.0276607,4.0162919 H 4.5568277 c -3.5239638,0 -4.02766104,-0.501345 -4.02766104,-4.0162919 V 4.8100424 c 0,-3.5149612 0.50369724,-4.0162924 4.02766114,-4.0162924 z" />
  <path
     d="m 6.716905,3.4395832 c -0.2164773,0 -0.3989263,0.024241 -0.5472536,0.072347 -0.144318,0.044097 -0.2606215,0.1102429 -0.3488158,0.1984375 -0.088195,0.084186 -0.1504725,0.1900438 -0.1865519,0.3183265 -0.036079,0.128283 -0.053744,0.2748873 -0.053744,0.4392499 v 1.0821043 c 0,0.072159 -0.012121,0.1443651 -0.036174,0.2165244 -0.020044,0.06815 -0.054213,0.1304279 -0.1023194,0.1865519 -0.044097,0.052115 -0.1003149,0.096212 -0.1684649,0.1322916 -0.06815,0.032071 -0.1502847,0.048059 -0.2464967,0.048059 v 0.4330483 c 0.096212,0 0.1783463,0.01818 0.2464967,0.054261 0.06815,0.032071 0.1243679,0.076168 0.1684649,0.1322917 0.048106,0.052115 0.082276,0.1138758 0.1023194,0.1860349 0.024053,0.06815 0.036174,0.1386808 0.036174,0.2108401 v 1.0821043 c 0,0.1643623 0.017664,0.3109669 0.053744,0.4392498 0.036079,0.1282827 0.098357,0.2363335 0.1865519,0.3245279 0.088194,0.088194 0.2044975,0.1543402 0.3488158,0.1984375 0.1483273,0.044097 0.3307763,0.066146 0.5472536,0.066146 h 0.02377 V 8.8216837 c -0.2285037,0 -0.3927721,-0.042422 -0.4929931,-0.1266074 C 6.15147,8.6148996 6.1035048,8.4588838 6.1035048,8.2263712 V 7.3003295 c 0,-0.2645836 -0.036361,-0.4690811 -0.1085205,-0.6133992 C 5.9268348,6.542612 5.8287125,6.4301766 5.7004295,6.3499999 5.8287125,6.2698232 5.9268348,6.1573877 5.9949851,6.0130694 6.0671444,5.8687514 6.1035056,5.6642536 6.1035056,5.3996702 V 4.4736286 c 0,-0.2325126 0.047965,-0.3885284 0.1441773,-0.4687051 C 6.3479039,3.9207375 6.5121723,3.8783161 6.740676,3.8783161 V 3.4395832 Z m 1.5094686,0 v 0.4387329 c 0.2285039,0 0.3905797,0.042422 0.4867915,0.1266074 0.100221,0.080177 0.150379,0.2361925 0.150379,0.4687051 v 0.9260416 c 0,0.2645834 0.03417,0.4690812 0.102319,0.6133992 0.07216,0.1443183 0.172474,0.2567538 0.300757,0.3369305 -0.128283,0.080177 -0.228598,0.1926121 -0.300757,0.3369304 -0.06815,0.1443181 -0.102319,0.3488156 -0.102319,0.6133992 v 0.9260417 c 0,0.2325126 -0.05016,0.3885284 -0.150379,0.4687051 -0.096211,0.084186 -0.2582876,0.1266074 -0.4867915,0.1266074 v 0.4387328 h 0.02377 c 0.2164773,0 0.396734,-0.022048 0.5410515,-0.066146 0.148328,-0.044097 0.266823,-0.1102429 0.355018,-0.1984373 0.08819,-0.088194 0.150472,-0.1962449 0.186552,-0.3245279 0.03608,-0.1282829 0.05374,-0.2748875 0.05374,-0.4392498 V 7.1499512 c 0,-0.072159 0.01045,-0.1426898 0.03049,-0.2108401 0.02405,-0.072159 0.05771,-0.1339205 0.101803,-0.1860349 0.04811,-0.056124 0.106516,-0.1002213 0.174666,-0.1322917 0.06815,-0.036079 0.150285,-0.054261 0.246497,-0.054261 V 6.1334757 c -0.09621,0 -0.178346,-0.015989 -0.246497,-0.048059 -0.06815,-0.03608 -0.12656,-0.080177 -0.174666,-0.1322918 -0.0441,-0.056124 -0.07775,-0.1184016 -0.101803,-0.1865519 -0.02004,-0.072159 -0.03049,-0.1443652 -0.03049,-0.2165244 V 4.4679443 c 0,-0.1643626 -0.01766,-0.3109669 -0.05374,-0.4392499 C 9.2966851,3.9004117 9.2344071,3.7945535 9.1462131,3.7103679 9.0580181,3.6221735 8.9395231,3.5560277 8.7911961,3.5119304 8.6468788,3.4638244 8.4666221,3.4395832 8.2501448,3.4395832 Z"
     style="font-size:6.01326px;line-height:1.25;font-family:ubuntu;-inkscape-font-specification:ubuntu;stroke-width:0.150332;fill:#fef8f9;fill-opacity:1"
     id="path3752" />
</svg>
