<?xml version="1.0" encoding="UTF-8" standalone="no"?>
<!-- Created with Inkscape (http://www.inkscape.org/) -->

<svg
   width="48"
   height="48"
   viewBox="0 0 12.7 12.7"
   version="1.1"
   id="svg5"
   inkscape:version="1.1.2 (0a00cf5339, 2022-02-04)"
   sodipodi:docname="disk-burner.svg"
   xmlns:inkscape="http://www.inkscape.org/namespaces/inkscape"
   xmlns:sodipodi="http://sodipodi.sourceforge.net/DTD/sodipodi-0.dtd"
   xmlns:xlink="http://www.w3.org/1999/xlink"
   xmlns="http://www.w3.org/2000/svg"
   xmlns:svg="http://www.w3.org/2000/svg">
  <sodipodi:namedview
     id="namedview7"
     pagecolor="#ffffff"
     bordercolor="#666666"
     borderopacity="1.0"
     inkscape:pageshadow="2"
     inkscape:pageopacity="0.0"
     inkscape:pagecheckerboard="0"
     inkscape:document-units="px"
     showgrid="false"
     units="px"
     inkscape:zoom="12.212323"
     inkscape:cx="29.068998"
     inkscape:cy="21.985988"
     inkscape:window-width="1851"
     inkscape:window-height="1049"
     inkscape:window-x="0"
     inkscape:window-y="0"
     inkscape:window-maximized="1"
     inkscape:current-layer="svg5" />
  <defs
     id="defs2">
    <linearGradient
       inkscape:collect="always"
       id="linearGradient2221">
      <stop
         style="stop-color:#cdcdcd;stop-opacity:1"
         offset="0"
         id="stop2217" />
      <stop
         style="stop-color:#d9d9d9;stop-opacity:1"
         offset="1"
         id="stop2219" />
    </linearGradient>
    <linearGradient
       inkscape:collect="always"
       id="linearGradient1871">
      <stop
         style="stop-color:#ffffff;stop-opacity:1;"
         offset="0"
         id="stop1867" />
      <stop
         style="stop-color:#ffffff;stop-opacity:0.1"
         offset="0.12"
         id="stop2515" />
      <stop
         style="stop-color:#ffffff;stop-opacity:0.102"
         offset="0.89999998"
         id="stop2581" />
      <stop
         style="stop-color:#ffffff;stop-opacity:0.502"
         offset="1"
         id="stop1869" />
    </linearGradient>
    <linearGradient
       inkscape:collect="always"
       xlink:href="#linearGradient1871"
       id="linearGradient1873"
       x1="17.222656"
       y1="3.5"
       x2="17.222656"
       y2="44.466438"
       gradientUnits="userSpaceOnUse"
       gradientTransform="matrix(0.26458333,0,0,0.26458333,0,-0.13229166)" />
    <linearGradient
       inkscape:collect="always"
       xlink:href="#linearGradient2221"
       id="linearGradient1241"
       x1="3.7320032"
       y1="3.4674196"
       x2="8.9689608"
       y2="8.7034121"
       gradientUnits="userSpaceOnUse"
       gradientTransform="matrix(1.1785715,0,0,1.1785715,-1.1339289,-0.82209863)" />
    <linearGradient
       inkscape:collect="always"
       xlink:href="#linearGradient1871"
       id="linearGradient2256"
       gradientUnits="userSpaceOnUse"
       gradientTransform="matrix(4.4544435,0,0,4.4544435,-23.558442,-0.19805352)"
       x1="10.676629"
       y1="1.8404214"
       x2="10.676629"
       y2="9.0242605" />
  </defs>
  <path
     id="rect3143"
     style="opacity:0.1;fill:#000000;fill-opacity:1;stroke-width:0.264583"
     d="m 4.5160033,1.0583334 c -3.60405388,0 -4.1191283,0.5137855 -4.1191283,4.1144775 v 2.883545 c 0,3.6006791 0.51507442,4.1144791 4.1191283,4.1144791 h 3.6679933 c 3.6040544,0 4.1191284,-0.5138 4.1191284,-4.1144791 v -2.883545 c 0,-3.600692 -0.515074,-4.1144775 -4.1191284,-4.1144775 z" />
  <path
     style="display:inline;fill:#4d4d4d;fill-opacity:1;stroke:none;stroke-width:0.0992187;stroke-linecap:round;stroke-linejoin:round;stroke-miterlimit:4;stroke-dasharray:none;stroke-dashoffset:0;stroke-opacity:1;enable-background:new"
     d="m 8.1839962,0.66145835 c 3.6040548,0 4.1191298,0.51378545 4.1191298,4.11447755 v 2.883545 c 0,3.6006781 -0.515075,4.1144781 -4.1191298,4.1144781 H 4.5160033 c -3.604054,0 -4.1191283,-0.5138 -4.1191283,-4.1144781 v -2.883545 c 0,-3.6006921 0.5150743,-4.11447755 4.1191283,-4.11447755 z"
     id="rect877"
     inkscape:connector-curvature="0"
     sodipodi:nodetypes="sssssssss" />
  <g
     id="g2695">
    <circle
       style="opacity:1;fill:url(#linearGradient1241);fill-opacity:1;stroke-width:0.31183;stroke-linejoin:round"
       id="path985"
       cx="6.3499999"
       cy="6.3499999"
       r="4.3656249" />
    <path
       d="m 6.3500002,1.8520833 c -2.4110683,0 -4.3656252,1.9545569 -4.3656252,4.365625 h 4.3656252 z m 0,4.365625 v 4.3656257 c 2.4110685,0 4.3656248,-1.9545571 4.3656248,-4.3656257 z"
       style="opacity:0.2;fill:#ffffff;stroke-width:0.582083;enable-background:new"
       id="path1693" />
    <path
       d="m 9.1563291,3.4113804 c -1.5498909,-1.549896 -4.0627658,-1.549896 -5.6126568,0 L 6.3500002,6.2177083 Z M 6.3500002,6.2177083 3.5436723,9.0240372 c 1.549891,1.5498948 4.0627659,1.5498948 5.6126568,0 z"
       style="opacity:0.02;stroke-width:0.610575;enable-background:new"
       id="path2016" />
    <path
       id="path1117-3"
       style="fill:#faf8f6;stroke-width:0.582083;enable-background:new"
       d="M 3.2645037,3.2645032 C 2.9943833,3.5338237 2.7610964,3.8371406 2.5698688,4.167187 L 6.35,6.3499995 Z M 6.35,6.3499995 9.4366331,9.4354952 c 0.2701202,-0.26932 0.503407,-0.572637 0.6946349,-0.902683 z" />
    <path
       id="path1307"
       style="opacity:0.4;fill:#000000;fill-opacity:1;stroke-width:1.0625;stroke-linejoin:round"
       d="M 24,7 A 17,17 0 0 0 7,24 17,17 0 0 0 24,41 17,17 0 0 0 41,24 17,17 0 0 0 24,7 Z m 0,1 A 15.999999,15.999999 0 0 1 40,24 15.999999,15.999999 0 0 1 24,40 15.999999,15.999999 0 0 1 8,24 15.999999,15.999999 0 0 1 24,8 Z"
       transform="scale(0.26458333)" />
    <circle
       style="opacity:1;fill:#aea795;fill-opacity:1;stroke-width:0.411573;stroke-linejoin:round"
       id="path7417"
       cx="6.3500004"
       cy="6.3500004"
       r="1.8520833" />
    <circle
       style="opacity:1;fill:#faf8f6;fill-opacity:1;stroke-width:0.440972;stroke-linejoin:round"
       id="path7675"
       cx="6.3499999"
       cy="6.3499994"
       r="1.3229166" />
    <circle
       style="opacity:1;fill:#4d4d4d;fill-opacity:1;stroke-width:0.529166;stroke-linejoin:round"
       id="path7828"
       cx="6.3499999"
       cy="6.3499994"
       r="0.52916664" />
    <path
       id="path2161"
       style="fill:url(#linearGradient2256);fill-opacity:1;stroke-width:1.17857;stroke-linejoin:round"
       d="m 24,8 c -8.836556,-8e-7 -16,7.163443 -16,16 0,8.836555 7.163444,16 16,16 8.836556,0 16,-7.163445 16,-16 C 40,15.163444 32.836556,7.9999996 24,8 Z m 0,1 c 8.284271,-4e-7 15,6.715729 15,15 0,8.28427 -6.715729,15 -15,15 C 15.715729,39 9,32.28427 9,24 9,15.715728 15.715729,8.9999992 24,9 Z"
       transform="scale(0.26458333)" />
  </g>
  <path
     d="m 6.8989536,2.6458333 c 0,0 0.00505,0.1746857 -0.023164,0.2547733 -0.013328,0.037909 -0.052534,0.062483 -0.067046,0.09996 -0.022882,0.059099 -0.035199,0.1247638 -0.028036,0.1877283 0.00406,0.03591 0.02685,0.067605 0.040224,0.101177 0.010758,0.027026 0.021042,0.056008 0.031695,0.080453 l 0.021938,0.053637 0.047539,-0.167005 c 0.00729,-0.024911 0.013729,-0.049663 0.020712,-0.075578 0,0 0.056909,-0.1419366 0.062169,-0.2169836 0.00454,-0.064992 -0.00436,-0.1326705 -0.026818,-0.193821 C 6.9612293,2.7241186 6.8989347,2.6458352 6.8989347,2.6458352 Z M 6.4601099,3.4467229 c -0.079202,0.05436 -0.1519362,0.1113957 -0.22064,0.1706615 h -0.00125 v 0.00121 c 0,0 -0.1878556,0.1742846 -0.2657439,0.2754963 C 5.8600055,4.0402205 5.7632942,4.1996387 5.6860089,4.367063 5.6093689,4.5331008 5.5523946,4.7090132 5.5129108,4.8875803 5.4715378,5.0746859 5.4484148,5.2676682 5.4470848,5.459296 c -0.00194,0.2807856 0.022079,0.571625 0.084112,0.8374599 v 0.00365 h 0.00125 C 5.5918133,6.553458 5.6021947,6.6738034 5.7152961,6.8757905 6.9980935,6.6509353 7.84893,7.6424202 7.5620971,8.7128435 7.4107954,9.2774954 6.944639,9.5494872 6.4978981,9.6514819 5.8682938,9.7609586 5.3372127,9.420201 5.2094046,8.9432378 5.1844519,8.7859468 5.2230864,8.5748089 5.3130205,8.5214597 5.2610792,8.5395528 5.1985888,8.5609672 5.1228555,8.6323908 4.9953083,8.7526396 4.9921543,8.7941567 4.8254168,8.8408422 4.9070145,8.6108844 4.45927,8.4247309 4.5401683,7.9314592 4.542035,7.920038 4.5189135,8.0260828 4.5206607,8.0143522 4.3233247,9.1043175 5.4408712,10.330809 6.679531,9.9989007 7.5188077,9.7894104 8.0183669,9.1732122 8.1837891,8.4775757 8.279315,8.0758973 8.2498344,7.661065 8.1630678,7.3134215 8.0923872,7.0302696 7.9487131,6.7319962 7.7315372,6.457678 7.661957,6.3697885 7.5885365,6.2899178 7.5145536,6.215095 l -0.00125,-0.00244 -0.00611,-0.0061 C 7.3406783,6.0392666 7.1680055,5.900946 7.0025692,5.7701563 c 0,0 -0.3346983,-0.2729727 -0.490042,-0.4229965 -0.00955,-0.00925 -0.019485,-0.019083 -0.028037,-0.029256 C 6.4303657,5.2533995 6.3786674,5.1857217 6.3321163,5.1155484 6.3193544,5.0962995 6.3075999,5.0768196 6.2979826,5.0558181 6.2487754,4.9483877 6.2059302,4.8372987 6.1809585,4.7218093 6.1483842,4.5711846 6.1352542,4.415079 6.1395098,4.2610235 6.143119,4.129827 6.1614006,3.9973344 6.1968059,3.8709402 6.2608931,3.7208889 6.3645705,3.5822179 6.460112,3.4467247 Z M 6.831908,4.0025915 c -0.042147,0.067416 -0.07396,0.1440646 -0.1109313,0.2157642 -0.032817,0.063646 -0.071423,0.1239781 -0.09874,0.190165 -0.059761,0.1448028 -0.094051,0.2992716 -0.1414059,0.4485956 -0.00568,0.017928 -0.01932,0.034961 -0.017055,0.053635 0.017079,0.1412739 0.1351169,0.2516828 0.2218595,0.3644842 0.033353,0.043371 0.1133674,0.1182436 0.1133674,0.1182436 0.01354,0.014979 0.027885,0.029408 0.042666,0.043883 0,0 -0.028099,-0.1701802 -0.040224,-0.2559921 -0.00106,-0.00755 -0.00187,-0.015545 -0.00243,-0.023164 -0.021109,-0.3044992 -0.036353,-0.6112991 -0.010963,-0.9154763 0.00674,-0.080914 0.043883,-0.2401452 0.043883,-0.2401452 z M 4.6425653,6.4272028 c 0,0 0.050623,0.3363584 0.014625,0.498575 -0.017032,0.076767 -0.08663,0.1346878 -0.1060522,0.2108884 -0.030633,0.1201708 -0.040857,0.2511443 -0.012195,0.3717984 0.016347,0.068812 0.069591,0.1238556 0.102396,0.1865087 0.00767,0.014625 0.014413,0.029546 0.021938,0.043883 C 4.7038761,7.5569571 4.8362853,7.4091537 4.888795,7.2317483 4.909105,7.1631503 4.926512,7.0911041 4.922929,7.0196403 4.9165592,6.8923026 4.8834302,6.7638097 4.8254234,6.6502802 4.7817465,6.5647972 4.6425717,6.4272014 4.6425717,6.4272014 Z M 6.1200059,7.07084 c -0.7129109,0 -1.2909321,0.5780213 -1.2909321,1.2909316 2.659e-4,0.066423 0.0066,0.1330837 0.017056,0.1986996 0.014579,0.022645 0.029298,0.045568 0.041448,0.069484 0.010827,0.021278 0.015994,0.045211 0.023165,0.069484 0.00394,-0.00288 0.014413,-0.00425 0.018282,-0.00731 0.027748,-0.023141 0.062991,-0.064385 0.1304346,-0.1279953 0.087575,-0.082558 0.1694796,-0.1206121 0.2230791,-0.1316543 0.1189207,-0.024486 0.1503841,-0.00261 0.2535542,0.013423 -0.084051,0.034846 -0.1095955,0.073265 -0.1743178,0.1560338 -0.00225,0.00288 -0.037399,0.045418 -0.052416,0.1121482 -0.01472,0.06543 -0.01689,0.1466922 -0.00731,0.2108881 0.1167363,0.4219203 0.5941432,0.7345349 1.1800018,0.6326662 0.1238935,-0.028597 0.2461126,-0.071736 0.3632674,-0.1292125 0.353215,-0.2399372 0.5650464,-0.6396319 0.5656206,-1.0666341 0,-0.7129104 -0.5780203,-1.2909314 -1.2909314,-1.2909314 z"
     style="fill:#4d4d4d;stroke-width:2.35905"
     id="path2378" />
  <path
     id="rect1565"
     style="opacity:1;fill:url(#linearGradient1873);fill-opacity:1;stroke-width:0.264583"
     d="m 4.5568277,0.79374997 c -3.5239635,0 -4.02766104,0.50133123 -4.02766104,4.01629243 v 2.8153318 c 0,3.5149478 0.50369754,4.0162928 4.02766104,4.0162928 h 3.5863445 c 3.5239638,0 4.0276608,-0.501345 4.0276608,-4.0162928 V 4.8100424 c 0,-3.5149612 -0.503697,-4.01629243 -4.0276608,-4.01629243 z m 0.081649,0.26458343 h 3.4230468 c 3.3637835,0 3.8447265,0.4769388 3.8447265,3.8204385 v 2.6778728 c 0,3.3434873 -0.480943,3.8204393 -3.8447265,3.8204393 h -3.423047 c -3.3637834,0 -3.84472651,-0.476952 -3.84472651,-3.8204393 V 4.8787719 c 0,-3.3434997 0.48094311,-3.8204385 3.84472671,-3.8204385 z" />
  <path
     id="rect1370"
     style="opacity:0.4;fill:#000000;fill-opacity:1;stroke-width:0.264583"
     d="m 4.4751788,0.52916667 c -3.68414336,0 -4.21059547,0.52624033 -4.21059547,4.21266273 v 2.9517578 c 0,3.6864088 0.52645211,4.2126628 4.21059547,4.2126628 H 8.224821 c 3.684144,0 4.210596,-0.526254 4.210596,-4.2126628 V 4.7418294 c 0,-3.6864224 -0.526452,-4.21266273 -4.210596,-4.21266273 z m 0.081649,0.2645833 h 3.5863445 c 3.5239637,0 4.0276607,0.50133143 4.0276607,4.01629243 v 2.8153318 c 0,3.5149478 -0.503697,4.0162928 -4.0276607,4.0162928 H 4.5568277 c -3.5239637,0 -4.02766104,-0.501345 -4.02766104,-4.0162928 V 4.8100424 c 0,-3.514961 0.50369724,-4.01629243 4.02766114,-4.01629243 z" />
</svg>
