<?xml version="1.0" encoding="UTF-8" standalone="no"?>
<!-- Created with Inkscape (http://www.inkscape.org/) -->

<svg
   width="48"
   height="48"
   viewBox="0 0 12.7 12.7"
   version="1.1"
   id="svg5"
   inkscape:version="1.1.2 (0a00cf5339, 2022-02-04)"
   sodipodi:docname="document-viewer.svg"
   xmlns:inkscape="http://www.inkscape.org/namespaces/inkscape"
   xmlns:sodipodi="http://sodipodi.sourceforge.net/DTD/sodipodi-0.dtd"
   xmlns:xlink="http://www.w3.org/1999/xlink"
   xmlns="http://www.w3.org/2000/svg"
   xmlns:svg="http://www.w3.org/2000/svg">
  <sodipodi:namedview
     id="namedview7"
     pagecolor="#ffffff"
     bordercolor="#666666"
     borderopacity="1.0"
     inkscape:pageshadow="2"
     inkscape:pageopacity="0.0"
     inkscape:pagecheckerboard="0"
     inkscape:document-units="px"
     showgrid="false"
     units="px"
     inkscape:zoom="8.2500001"
     inkscape:cx="20.545454"
     inkscape:cy="27.878788"
     inkscape:window-width="1920"
     inkscape:window-height="998"
     inkscape:window-x="0"
     inkscape:window-y="0"
     inkscape:window-maximized="1"
     inkscape:current-layer="svg5" />
  <defs
     id="defs2">
    <linearGradient
       inkscape:collect="always"
       id="linearGradient3598">
      <stop
         style="stop-color:#f5f5f5;stop-opacity:1"
         offset="0"
         id="stop3594" />
      <stop
         style="stop-color:#e8e8e8;stop-opacity:1"
         offset="1"
         id="stop3596" />
    </linearGradient>
    <linearGradient
       inkscape:collect="always"
       id="linearGradient1871">
      <stop
         style="stop-color:#ffffff;stop-opacity:1;"
         offset="0"
         id="stop1867" />
      <stop
         style="stop-color:#ffffff;stop-opacity:0.1"
         offset="0.12"
         id="stop2515" />
      <stop
         style="stop-color:#ffffff;stop-opacity:0.102"
         offset="0.89999998"
         id="stop2581" />
      <stop
         style="stop-color:#ffffff;stop-opacity:0.502"
         offset="1"
         id="stop1869" />
    </linearGradient>
    <linearGradient
       inkscape:collect="always"
       xlink:href="#linearGradient1871"
       id="linearGradient1873"
       x1="17.222656"
       y1="3.5"
       x2="17.222656"
       y2="44.466438"
       gradientUnits="userSpaceOnUse"
       gradientTransform="matrix(0.26458333,0,0,0.26458333,0,-0.13229166)" />
    <linearGradient
       inkscape:collect="always"
       xlink:href="#linearGradient3598"
       id="linearGradient3600"
       x1="7.8838859"
       y1="11.784748"
       x2="4.4751787"
       y2="0.5291667"
       gradientUnits="userSpaceOnUse" />
    <linearGradient
       id="linearGradient2662"
       x1="140.45"
       x2="217.69"
       y1="291.42999"
       y2="214.2"
       gradientTransform="matrix(0.02611826,-3.1818262e-4,-3.1818262e-4,0.02611826,-0.82300278,2.9496382)"
       gradientUnits="userSpaceOnUse"
       xlink:href="#linearGradient4254" />
    <linearGradient
       id="linearGradient4254">
      <stop
         stop-color="#fff"
         offset="0"
         id="stop31" />
      <stop
         stop-color="#fff"
         stop-opacity=".3"
         offset="1"
         id="stop33" />
    </linearGradient>
    <linearGradient
       id="linearGradient2664"
       x1="299.57001"
       x2="373.31"
       y1="298.92999"
       y2="225.17999"
       gradientTransform="matrix(0.02611826,-3.1818262e-4,-3.1818262e-4,0.02611826,-0.82300278,2.9496382)"
       gradientUnits="userSpaceOnUse"
       xlink:href="#linearGradient4254" />
  </defs>
  <path
     id="rect3143"
     style="opacity:0.1;fill:#000000;fill-opacity:1;stroke-width:0.264583"
     d="m 4.5160033,1.0583334 c -3.60405388,0 -4.1191283,0.5137855 -4.1191283,4.1144775 v 2.883545 c 0,3.6006791 0.51507442,4.1144791 4.1191283,4.1144791 h 3.6679933 c 3.6040544,0 4.1191284,-0.5138 4.1191284,-4.1144791 v -2.883545 c 0,-3.600692 -0.515074,-4.1144775 -4.1191284,-4.1144775 z" />
  <path
     style="display:inline;fill:url(#linearGradient3600);fill-opacity:1;stroke:none;stroke-width:0.0992187;stroke-linecap:round;stroke-linejoin:round;stroke-miterlimit:4;stroke-dasharray:none;stroke-dashoffset:0;stroke-opacity:1;enable-background:new"
     d="m 8.1839962,0.66145835 c 3.6040548,0 4.1191298,0.51378545 4.1191298,4.11447755 v 2.883545 c 0,3.6006781 -0.515075,4.1144781 -4.1191298,4.1144781 H 4.5160033 c -3.604054,0 -4.1191283,-0.5138 -4.1191283,-4.1144781 v -2.883545 c 0,-3.6006921 0.5150743,-4.11447755 4.1191283,-4.11447755 z"
     id="rect877"
     inkscape:connector-curvature="0"
     sodipodi:nodetypes="sssssssss" />
  <rect
     style="fill:#f66151;fill-opacity:1;stroke-width:0.529167;stroke-linecap:round;stroke-linejoin:round"
     id="rect1776"
     width="3.4395833"
     height="2.6458333"
     x="6.8791666"
     y="4.7625003" />
  <path
     d="M 6.879167,7.14375 C 7.4685745,6.9787492 8.0206218,6.7016069 8.5050583,6.3275104 8.6685573,6.2011137 8.827056,6.0600696 8.926804,5.879121 8.976724,5.788578 9.010874,5.6887322 9.020294,5.5858304 9.029594,5.4829207 9.013294,5.3769472 8.967194,5.28447 8.926754,5.204886 8.867324,5.1364949 8.794165,5.0853446 8.721035,5.0343856 8.6382503,4.9989386 8.5509043,4.9811861 8.3769703,4.9448771 8.1941933,4.9739261 8.0279548,5.0367831 7.8280359,5.1126891 7.6451294,5.239311 7.5165948,5.4101895 7.3879306,5.5811765 7.3162206,5.7973278 7.3327861,6.0106349 7.3436871,6.1488321 7.3909921,6.2834997 7.463948,6.401398 7.536904,6.5193969 7.6351625,6.6209466 7.747158,6.7027585 7.9712469,6.8663689 8.2458183,6.9490829 8.5209593,6.984381 9.147254,7.064484 9.8013824,6.903257 10.318748,6.5413097 l -0.0028,-0.588645 C 9.9104444,6.4000486 9.3337067,6.6882327 8.732468,6.7440598 8.4729803,6.7681131 8.2026133,6.7484837 7.9681919,6.6344562 7.8509842,6.5774993 7.7443306,6.4971692 7.6627569,6.3955057 7.5810668,6.2939586 7.5250149,6.1708506 7.5090155,6.0414932 7.4856528,5.8528056 7.549637,5.6580061 7.6676359,5.5089134 7.7856374,5.359826 7.9543648,5.2548737 8.1358958,5.198028 8.2360833,5.166826 8.3421703,5.149353 8.4463313,5.162743 c 0.104042,0.013388 0.206158,0.059793 0.274003,0.1398984 0.05492,0.0649 0.0851,0.1489736 0.09031,0.233844 0.0053,0.084868 -0.01328,0.1703044 -0.04709,0.248367 -0.06751,0.156009 -0.192087,0.2795588 -0.319061,0.3925888 C 7.9828951,6.5881255 7.4531887,6.9151394 6.8791987,7.1437791 Z"
     style="overflow:visible;fill:#ffffff;stroke-width:0.113461;enable-background:new"
     id="path1579" />
  <path
     d="M 2.38125,2.6458334 V 3.175 H 7.4083332 V 2.6458334 Z"
     style="color:#000000;fill:#aea795;stroke-width:0.264583"
     id="path1299"
     sodipodi:nodetypes="ccccc" />
  <path
     id="path53"
     d="m 2.38125,3.7041667 v 0.5291667 h 7.937499 V 3.7041667 Z m 0,1.0583333 V 5.2916667 H 6.3500008 V 4.7625 Z m 0,1.0583333 V 6.3453491 H 6.3500008 V 5.8208333 Z m 0,1.0536825 V 7.4036825 H 5.0270833 V 6.8745158 Z m 0,1.0629842 v 0.5291666 h 7.937499 V 7.9375 Z m 0,1.0583333 V 9.5249999 H 6.8791666 V 8.9958333 Z"
     style="fill:#c8c4b7;fill-opacity:1;stroke-width:0.264583"
     sodipodi:nodetypes="cccccccccccccccccccccccccccccc" />
  <path
     id="rect1565"
     style="fill:url(#linearGradient1873);fill-opacity:1;stroke-width:0.264583"
     d="m 4.5568277,0.79374997 c -3.5239635,0 -4.02766104,0.50133123 -4.02766104,4.01629243 v 2.8153318 c 0,3.5149478 0.50369754,4.0162928 4.02766104,4.0162928 h 3.5863445 c 3.5239638,0 4.0276608,-0.501345 4.0276608,-4.0162928 V 4.8100424 c 0,-3.5149612 -0.503697,-4.01629243 -4.0276608,-4.01629243 z m 0.081649,0.26458343 h 3.4230468 c 3.3637835,0 3.8447265,0.4769388 3.8447265,3.8204385 v 2.6778728 c 0,3.3434873 -0.480943,3.8204393 -3.8447265,3.8204393 h -3.423047 c -3.3637834,0 -3.84472651,-0.476952 -3.84472651,-3.8204393 V 4.8787719 c 0,-3.3434997 0.48094311,-3.8204385 3.84472671,-3.8204385 z" />
  <path
     id="rect1370"
     style="opacity:0.4;fill:#000000;fill-opacity:1;stroke-width:0.264583"
     d="m 4.4751788,0.52916667 c -3.68414336,0 -4.21059547,0.52624033 -4.21059547,4.21266273 v 2.9517578 c 0,3.6864088 0.52645211,4.2126628 4.21059547,4.2126628 H 8.224821 c 3.684144,0 4.210596,-0.526254 4.210596,-4.2126628 V 4.7418294 c 0,-3.6864224 -0.526452,-4.21266273 -4.210596,-4.21266273 z m 0.081649,0.2645833 h 3.5863445 c 3.5239637,0 4.0276607,0.50133143 4.0276607,4.01629243 v 2.8153318 c 0,3.5149478 -0.503697,4.0162928 -4.0276607,4.0162928 H 4.5568277 c -3.5239637,0 -4.02766104,-0.501345 -4.02766104,-4.0162928 V 4.8100424 c 0,-3.514961 0.50369724,-4.01629243 4.02766114,-4.01629243 z" />
  <path
     d="m 7.9713324,8.2020833 -0.05581,5.29e-4 c -0.1026617,0.0014 -0.1964316,0.0053 -0.2764699,0.0124 -0.403357,0.03569 -0.9284142,0.130998 -1.3342854,0.241846 -0.249859,0.06822 -0.2435732,0.06722 -0.4361492,0.07648 -0.2335937,0.01123 -0.3122549,0.0024 -0.6015135,-0.06821 -0.2922482,-0.07139 -0.5224103,-0.113914 -0.877466,-0.160713 -0.3562334,-0.04698 -0.5369822,-0.05591 -0.8800494,-0.04496 -0.3709918,0.01186 -0.6972522,0.04518 -1.1007081,0.113171 -0.080765,0.0136 -0.1941499,0.03488 -0.2919718,0.05374 -0.048911,0.0094 -0.09422,0.01809 -0.1291911,0.02532 -0.034971,0.0072 -0.054051,0.01112 -0.072864,0.01705 -0.010132,0.0032 -0.041905,0.02383 -0.05116,0.04496 -0.00925,0.02113 -0.00922,0.0354 -0.010336,0.05529 -0.00224,0.03978 -0.00118,0.103308 5.16e-4,0.22686 l 0.00465,0.235635 0.048576,0.04082 c 0.021482,0.01832 0.047453,0.03547 0.072864,0.04858 0.017559,0.0091 0.038126,0.03292 0.062012,0.10697 0.023885,0.07405 0.047632,0.190315 0.079582,0.356051 0.070968,0.36798 0.1156622,0.5226057 0.2046386,0.7095167 0.1210148,0.254249 0.3090086,0.455639 0.5534544,0.593245 0.1349735,0.07598 0.3107084,0.121084 0.5348515,0.14211 0.1170575,0.01099 0.4388134,9e-4 0.5627561,-0.01654 0.2253141,-0.03187 0.4481122,-0.09276 0.6087483,-0.168465 0.3484474,-0.164252 0.6068106,-0.502062 0.7772135,-0.9963217 0.05325,-0.154528 0.1398208,-0.485127 0.1648479,-0.629936 0.021323,-0.123391 0.043043,-0.179092 0.067696,-0.201021 0.024654,-0.02193 0.077214,-0.03421 0.1958538,-0.03566 0.1174876,-0.0014 0.1699087,0.0099 0.192753,0.02946 0.022844,0.0196 0.043005,0.07141 0.061495,0.189653 0.02264,0.144604 0.098488,0.464138 0.1452107,0.612882 0.1322684,0.4211057 0.3334181,0.7337857 0.5973797,0.9100217 0.1823754,0.121753 0.4010414,0.193176 0.7136513,0.237711 0.1946572,0.02775 0.5491004,0.02665 0.7286385,-0.0036 0.2669717,-0.04503 0.4382897,-0.122794 0.6444046,-0.293006 0.1780437,-0.147103 0.3291927,-0.370037 0.4232299,-0.618567 0.05006,-0.1323237 0.08025,-0.2440567 0.136426,-0.5012597 0.02663,-0.121933 0.04971,-0.230295 0.06873,-0.31316 0.019021,-0.08286 0.0394,-0.147246 0.04186,-0.151928 0.0079,-0.01503 0.020471,-0.02844 0.09457,-0.07648 l 0.07648,-0.04961 0.0098,-0.144178 c 0.004,-0.06142 0.0081,-0.128615 0.0098,-0.213423 0.0014,-0.06862 0.00201,-0.106396 -5.292e-4,-0.135393 -0.0013,-0.0145 -0.00201,-0.02784 -0.01189,-0.04651 -0.0099,-0.01867 -0.03611,-0.03594 -0.04961,-0.03979 -0.04952,-0.0141 -0.163748,-0.03271 -0.3069572,-0.05529 -0.1432098,-0.02258 -0.3058487,-0.04586 -0.4196129,-0.05942 -0.3166253,-0.03775 -0.6764888,-0.05459 -0.9756508,-0.05323 z m -0.2955896,0.316777 c 0.3582815,-0.0052 0.7147004,0.05518 0.9916713,0.183451 0.149397,0.06917 0.3025256,0.207307 0.3607006,0.326078 0.03382,0.06925 0.04358,0.154424 0.04134,0.362252 v 5.29e-4 C 9.0645547,9.8363783 8.9648936,10.139765 8.750612,10.360103 8.6081479,10.506572 8.4331531,10.596714 8.1930233,10.64639 8.1043933,10.66474 8.0426154,10.66964 7.8467909,10.6743 7.5828719,10.6806 7.5723193,10.6799 7.4240775,10.65466 7.1935452,10.615346 7.0144411,10.538342 6.8675235,10.406094 6.7203638,10.273616 6.6045779,10.085579 6.4990706,9.8226683 6.4133813,9.6089863 6.3688263,9.4006813 6.3698795,9.2175373 c 7.674e-4,-0.129964 0.018648,-0.223432 0.065629,-0.29869 0.04684,-0.07503 0.1229036,-0.131504 0.2382285,-0.187068 0.2837582,-0.136729 0.6437328,-0.207704 1.0020059,-0.212907 z m -3.7723794,0.03049 c 0.37553,-0.0056 0.7497676,0.06145 1.0304278,0.193786 0.113909,0.05372 0.1874687,0.107926 0.2315105,0.180351 0.044189,0.07266 0.059571,0.164265 0.057878,0.295073 -0.00316,0.242095 -0.078211,0.502753 -0.2304769,0.8009837 -0.0898,0.175848 -0.172966,0.297014 -0.2676837,0.38964 C 4.5291449,10.60074 4.2742542,10.703786 3.9167992,10.736296 3.530943,10.771346 3.1979977,10.720756 2.9690535,10.592118 2.8207243,10.508648 2.6678949,10.333764 2.5943993,10.164238 2.5115253,9.9731673 2.4811549,9.7785793 2.4848453,9.4629893 c 0.00123,-0.106832 0.00271,-0.166207 0.0062,-0.207222 0.00339,-0.03972 0.00935,-0.06363 0.019637,-0.09457 0.038257,-0.115076 0.1555012,-0.247646 0.3048921,-0.347782 0.113986,-0.07642 0.3585829,-0.163539 0.5839436,-0.210323 0.1621833,-0.03366 0.3331824,-0.05118 0.5038453,-0.05374 z m 5.75262,-0.112138 c 0,0 -2.1193839,0.288537 -3.8674639,0.608748 -1.740801,-0.277711 -3.8540282,-0.514698 -3.8540282,-0.514698 l -0.010852,0.468705 c 0,0 1.5895059,0.02402 3.1222898,0.189136 -0.231942,0.04747 -0.450621,0.09467 -0.6428547,0.141076 -0.8899954,0.214837 -2.424696,1.3807257 -2.3641967,1.5353067 0.1042438,0.266355 0.5130755,0.236089 0.7606769,-0.03876 0.4593466,-0.509932 0.9766473,-0.9948257 1.6210897,-1.2216297 0.3670618,-0.129172 0.8467984,-0.235032 1.3642578,-0.322977 0.5158989,0.07539 0.9937716,0.169551 1.3580565,0.289904 0.6391072,0.211168 1.1445785,0.6834657 1.5916344,1.1823557 0.2409767,0.268893 0.6493947,0.289646 0.7601593,0.02067 C 9.5590373,10.61895 8.0522712,9.4903193 7.1672466,9.2971063 6.9757525,9.2552963 6.7577724,9.2129263 6.5264588,9.1710163 8.0640211,8.9684023 9.6554663,8.9054003 9.6554663,8.9054003 Z"
     style="opacity:0.1;fill:#000000;fill-opacity:1;stroke-width:0.0350023"
     id="path992" />
  <g
     id="g1128"
     transform="translate(0,-0.2020548)">
    <path
       id="path69"
       style="fill:#636363;fill-opacity:1;stroke-width:0.132292"
       d="m 9.6559833,8.3746826 c 0,0 -2.119384,0.2885374 -3.8674638,0.6087483 C 4.0477183,8.7057211 1.9344912,8.4687335 1.9344912,8.4687335 l -0.010852,0.4687054 c 0,0 1.5895061,0.024024 3.12229,0.1891358 C 4.8139871,9.1740484 4.5953082,9.2212458 4.4030744,9.2676513 3.513079,9.4824882 1.9783783,10.648377 2.0388776,10.802958 2.1431214,11.069313 2.5519531,11.039047 2.7995547,10.7642 3.2589012,10.254268 3.7762019,9.7693736 4.4206443,9.5425698 4.787706,9.4133973 5.2674427,9.3075375 5.7849021,9.2195922 6.300801,9.2949792 6.7786736,9.389144 7.1429586,9.5094969 7.7820657,9.7206643 8.2875372,10.192963 8.7345929,10.691853 8.9755696,10.960746 9.3839876,10.981499 9.4947523,10.712523 9.5590373,10.556424 8.0522712,9.4277928 7.1672465,9.2345798 6.9757525,9.1927719 6.7577723,9.1503973 6.5264588,9.1084891 8.0640212,8.9058749 9.6554663,8.8428723 9.6554663,8.8428723 Z"
       sodipodi:nodetypes="ccccccsccccccsccc" />
    <path
       id="path1014"
       style="color:#000000;fill:#1a5fb4;stroke-width:0.132292;-inkscape-stroke:none"
       d="m 7.9713322,8.1395548 -0.05581,5.292e-4 C 7.8128607,8.141434 7.7190907,8.145404 7.6390523,8.152485 7.2356953,8.188173 6.7106382,8.2834826 6.3047671,8.3943306 6.0549081,8.4625506 6.0611938,8.4615536 5.8686178,8.4708116 5.6350241,8.4820434 5.5563629,8.473246 5.2671043,8.4025988 4.9748561,8.3312087 4.7446941,8.2886843 4.3896383,8.2418853 4.0334049,8.1949025 3.8526561,8.1859733 3.5095889,8.1969268 3.138597,8.2087854 2.8123367,8.2421092 2.4088808,8.3100981 c -0.080765,0.013602 -0.1941499,0.034876 -0.2919718,0.053743 -0.048911,0.00943 -0.09422,0.018084 -0.1291911,0.025321 -0.034971,0.00724 -0.054051,0.011115 -0.072864,0.017052 -0.010132,0.0032 -0.041905,0.023834 -0.05116,0.044958 -0.00925,0.021127 -0.00922,0.035405 -0.010336,0.055294 -0.00224,0.039778 -0.00118,0.1033076 5.16e-4,0.2268593 l 0.00465,0.2356352 0.048576,0.040824 c 0.021482,0.018322 0.047453,0.035474 0.072864,0.048576 0.017559,0.00906 0.038126,0.032916 0.062012,0.1069702 0.023885,0.074054 0.047632,0.1903146 0.079582,0.3560506 0.070968,0.36798 0.1156622,0.5226066 0.2046386,0.7095176 0.1210148,0.254249 0.3090086,0.455639 0.5534545,0.593245 0.1349733,0.07598 0.3107084,0.121084 0.5348513,0.14211 0.1170577,0.01099 0.4388135,9e-4 0.5627563,-0.01654 0.2253141,-0.03187 0.4481123,-0.09276 0.6087483,-0.168465 0.3484475,-0.164252 0.6068107,-0.502062 0.7772135,-0.9963217 0.05325,-0.1545288 0.1398209,-0.4851268 0.1648479,-0.6299359 0.021323,-0.1233913 0.043043,-0.1790927 0.067696,-0.2010211 0.024654,-0.021929 0.077214,-0.034211 0.1958538,-0.035657 0.1174875,-0.00143 0.1699086,0.00986 0.1927529,0.029456 0.022844,0.0196 0.043005,0.071407 0.061495,0.1896525 0.02264,0.1446041 0.098488,0.4641379 0.1452108,0.6128824 0.1322684,0.4211058 0.3334181,0.7337858 0.5973797,0.9100218 0.1823754,0.121753 0.4010413,0.193176 0.7136513,0.237711 0.1946571,0.02775 0.5491004,0.02665 0.7286384,-0.0036 0.2669717,-0.04503 0.4382897,-0.122793 0.6444047,-0.293005 0.1780437,-0.147103 0.3291927,-0.370037 0.4232297,-0.6185666 0.05006,-0.132324 0.08025,-0.2440575 0.136426,-0.5012608 0.02663,-0.1219327 0.04971,-0.2302944 0.06873,-0.3131593 0.01902,-0.082865 0.0394,-0.1472462 0.04186,-0.1519287 0.0079,-0.015031 0.02047,-0.028443 0.09457,-0.076481 l 0.07648,-0.049609 0.0098,-0.144177 c 0.004,-0.061425 0.0081,-0.1286158 0.0098,-0.2134237 0.0014,-0.068624 0.002,-0.1063956 -5.29e-4,-0.1353924 -0.0013,-0.014499 -0.002,-0.02784 -0.01189,-0.046509 -0.0099,-0.018669 -0.03611,-0.035945 -0.04961,-0.039791 -0.04952,-0.014105 -0.163748,-0.032711 -0.3069571,-0.055294 -0.14321,-0.022582 -0.305849,-0.045866 -0.419613,-0.059428 -0.3166253,-0.037747 -0.676489,-0.054595 -0.975651,-0.053227 z M 7.6757426,8.4563314 c 0.3582816,-0.00521 0.7147006,0.055175 0.9916713,0.1834513 0.149397,0.069174 0.3025257,0.2073074 0.3607007,0.3260783 0.03382,0.069247 0.04358,0.154424 0.04134,0.3622516 v 5.292e-4 c -0.0049,0.4452083 -0.104561,0.7485952 -0.3188427,0.9689332 -0.142464,0.146469 -0.317459,0.236611 -0.5575887,0.286287 -0.08863,0.01835 -0.150408,0.02325 -0.3462325,0.02791 -0.2639189,0.0063 -0.2744715,0.0056 -0.4227133,-0.01964 C 7.1935451,10.552818 7.0144409,10.475814 6.8675234,10.343566 6.7203637,10.211088 6.6045778,10.023051 6.4990704,9.7601399 6.4133812,9.5464579 6.3688261,9.338153 6.3698794,9.1550087 6.3706467,9.0250443 6.3885273,8.9315765 6.4355083,8.856319 6.4823485,8.7812922 6.558412,8.7248147 6.6737367,8.6692504 6.9574949,8.5325216 7.3174695,8.4615469 7.6757426,8.4563436 Z m -3.7723794,0.030489 c 0.37553,-0.00563 0.7497678,0.061451 1.030428,0.1937867 0.113909,0.053719 0.1874687,0.1079251 0.2315104,0.1803506 0.044189,0.072658 0.059571,0.1642649 0.057878,0.2950726 -0.00316,0.2420956 -0.078211,0.502753 -0.2304769,0.8009841 C 4.9029027,10.132863 4.8197369,10.254029 4.725019,10.346655 4.5291449,10.538211 4.274254,10.641257 3.9167991,10.673767 3.5309429,10.70882 3.1979976,10.65823 2.9690534,10.529589 2.8207242,10.44612 2.6678948,10.271235 2.5943992,10.101709 2.5115257,9.9106374 2.4811548,9.7160492 2.4848452,9.4004597 c 0.00123,-0.1068321 0.00271,-0.166207 0.0062,-0.2072224 0.00339,-0.039722 0.00935,-0.063625 0.019637,-0.094568 C 2.5489391,8.9835931 2.6661835,8.8510226 2.8155744,8.750887 2.9295603,8.6744613 3.1741573,8.5873478 3.399518,8.5405639 3.5617012,8.5069036 3.7327004,8.4893824 3.9033632,8.4868204 Z"
       sodipodi:nodetypes="ccccscccccccccccccsccscccccssccccccccssccccccccsscccccccccccccccccccccccccccccsccc" />
    <path
       id="path79"
       d="m 6.5150902,8.8263346 c -0.016272,0.016616 -0.030399,0.033835 -0.041858,0.052193 -0.040319,0.064582 -0.05765,0.1478701 -0.058394,0.2738851 -0.00101,0.1757386 0.042034,0.3794948 0.1260906,0.5891112 0.1041231,0.2594651 0.2168216,0.4411871 0.3576008,0.5679241 0.1403525,0.126351 0.3110857,0.200399 0.5358847,0.238745 0.147787,0.02519 0.1507405,0.02487 0.4144454,0.0186 0.1952425,-0.0046 0.2515245,-0.0091 0.3374475,-0.02687 0.182067,-0.03766 0.3222487,-0.09806 0.4392497,-0.188619 -0.09731,0.05604 -0.210469,0.09633 -0.3472657,0.123507 -0.08649,0.0172 -0.143672,0.02128 -0.340548,0.02429 -0.2659162,0.004 -0.2688046,0.0039 -0.4180627,-0.02274 C 7.2926101,10.435755 7.1202367,10.360072 6.977594,10.231416 6.834506,10.102373 6.7194953,9.9178084 6.6122417,9.6552244 6.5256571,9.4430823 6.4804411,9.2371743 6.4799501,9.0599119 6.4796855,8.9584262 6.4904143,8.8849429 6.5150902,8.8263346 Z M 2.6052513,8.9715453 c -0.034709,0.045307 -0.060558,0.090095 -0.074414,0.1317749 -0.00997,0.029976 -0.015366,0.051423 -0.018603,0.0894 -0.00338,0.03967 -0.00445,0.098879 -0.00568,0.205672 -0.00368,0.3140294 0.026385,0.5047802 0.1080037,0.6929808 a 0.08678185,0.08892235 45 0 1 0,5.29e-4 c 0.071698,0.165162 0.2223567,0.337309 0.3658693,0.418063 0.2240463,0.126037 0.5533213,0.176908 0.9363768,0.14211 0.2822266,-0.02566 0.4973116,-0.09526 0.6697266,-0.217041 -0.1554843,0.08409 -0.343177,0.133138 -0.5772259,0.151929 C 3.6224832,10.617987 3.2888663,10.563317 3.0610376,10.433484 2.9150919,10.350292 2.7606501,10.17435 2.6863834,10.006636 2.6018387,9.8155291 2.5692871,9.6217398 2.5695947,9.3043541 c 9.1e-5,-0.1079378 6.271e-4,-0.1671566 0.00362,-0.2072227 0.00286,-0.038351 0.00834,-0.060241 0.018087,-0.090434 0.00373,-0.011565 0.00848,-0.023138 0.013953,-0.03514 z"
       style="opacity:0.5;fill:#ffffff;stroke-width:0.264583" />
    <path
       d="m 3.9019697,8.4204317 c -0.1745438,0.00262 -0.3493188,0.020651 -0.5160214,0.05525 -0.2315186,0.048062 -0.4780626,0.133649 -0.607596,0.2204974 -0.1579182,0.1058585 -0.2849377,0.2442451 -0.3305842,0.3815511 -0.011192,0.033662 -0.019271,0.065166 -0.023101,0.1100929 -0.00383,0.044948 -0.00484,0.1047623 -0.00608,0.2117407 -0.00373,0.3202707 0.028008,0.5277293 0.1151601,0.7286812 l -4.82e-5,1e-6 c 0.079828,0.184127 0.2376014,0.366027 0.4024152,0.458786 0.2460844,0.138438 0.5916033,0.188407 0.9866476,0.152519 0.3674009,-0.0334 0.6401575,-0.14211 0.8482655,-0.345643 0.1015102,-0.09927 0.1884962,-0.227032 0.280222,-0.4066469 C 5.2066214,9.6829498 5.2856304,9.411904 5.288934,9.1567679 5.2906803,9.0204448 5.2750619,8.9143223 5.2215745,8.8263758 5.1680872,8.7384294 5.0812866,8.6773043 4.9618484,8.620984 4.6686795,8.4827503 4.2859613,8.4146839 3.9019583,8.4204439 Z"
       fill="url(#linearGradient2662)"
       opacity="0.5"
       stroke-width="0.130789"
       id="path75"
       style="fill:url(#linearGradient2662)" />
    <path
       d="M 7.6746867,8.3898917 C 7.3083748,8.3952117 6.94055,8.4673497 6.6453133,8.6096099 6.5243998,8.6678699 6.4354024,8.7317008 6.3793719,8.8214562 c -0.056035,0.089755 -0.074638,0.1970947 -0.07544,0.3329027 -0.00111,0.1940909 0.045744,0.4104346 0.1339938,0.6305052 0.1076565,0.2682659 0.2280173,0.4662109 0.3854656,0.6079729 0.1574583,0.141749 0.3505819,0.223775 0.5897843,0.26456 0.1489363,0.02538 0.1711862,0.02673 0.4354161,0.02045 0.1967085,-0.0047 0.2652925,-0.0102 0.3578105,-0.02935 0.2496047,-0.05163 0.4396877,-0.148217 0.5918507,-0.304665 0.2285407,-0.234976 0.3324417,-0.5597335 0.3374537,-1.0146639 a 0.0681085,0.07042092 66.560748 0 0 0,-4.81e-5 C 9.1380066,9.1185 9.1288066,9.0209542 9.0877766,8.9369763 9.0194096,8.7970687 8.8580639,8.6554291 8.6950179,8.5799495 8.4057722,8.4460003 8.0409722,8.3845706 7.6746599,8.3898935 Z"
       fill="url(#linearGradient2664)"
       opacity="0.5"
       stroke-width="0.130789"
       id="path77"
       style="fill:url(#linearGradient2664)" />
  </g>
</svg>
