<?xml version="1.0" encoding="UTF-8" standalone="no"?>
<!-- Created with Inkscape (http://www.inkscape.org/) -->

<svg
   width="48"
   height="48"
   viewBox="0 0 12.7 12.7"
   version="1.1"
   id="svg5"
   inkscape:version="1.1.2 (0a00cf5339, 2022-02-04)"
   sodipodi:docname="gnome-2048.svg"
   xmlns:inkscape="http://www.inkscape.org/namespaces/inkscape"
   xmlns:sodipodi="http://sodipodi.sourceforge.net/DTD/sodipodi-0.dtd"
   xmlns:xlink="http://www.w3.org/1999/xlink"
   xmlns="http://www.w3.org/2000/svg"
   xmlns:svg="http://www.w3.org/2000/svg">
  <sodipodi:namedview
     id="namedview7"
     pagecolor="#ffffff"
     bordercolor="#666666"
     borderopacity="1.0"
     inkscape:pageshadow="2"
     inkscape:pageopacity="0.0"
     inkscape:pagecheckerboard="0"
     inkscape:document-units="px"
     showgrid="false"
     units="px"
     inkscape:zoom="8.9999987"
     inkscape:cx="29.833338"
     inkscape:cy="17.888891"
     inkscape:window-width="1920"
     inkscape:window-height="1010"
     inkscape:window-x="0"
     inkscape:window-y="0"
     inkscape:window-maximized="1"
     inkscape:current-layer="svg5" />
  <defs
     id="defs2">
    <linearGradient
       inkscape:collect="always"
       id="linearGradient1871">
      <stop
         style="stop-color:#ffffff;stop-opacity:1;"
         offset="0"
         id="stop1867" />
      <stop
         style="stop-color:#ffffff;stop-opacity:0.1"
         offset="0.12"
         id="stop2515" />
      <stop
         style="stop-color:#ffffff;stop-opacity:0.102"
         offset="0.89999998"
         id="stop2581" />
      <stop
         style="stop-color:#ffffff;stop-opacity:0.502"
         offset="1"
         id="stop1869" />
    </linearGradient>
    <linearGradient
       inkscape:collect="always"
       xlink:href="#linearGradient1871"
       id="linearGradient1873"
       x1="17.222656"
       y1="3.5"
       x2="17.222656"
       y2="44.466438"
       gradientUnits="userSpaceOnUse"
       gradientTransform="matrix(0.26458333,0,0,0.26458333,0,-0.13229166)" />
    <linearGradient
       inkscape:collect="always"
       xlink:href="#linearGradient1331"
       id="linearGradient1333"
       x1="4.4751787"
       y1="0.5291667"
       x2="9.3370056"
       y2="11.764614"
       gradientUnits="userSpaceOnUse" />
    <linearGradient
       inkscape:collect="always"
       id="linearGradient1331">
      <stop
         style="stop-color:#e8e8e8;stop-opacity:1"
         offset="0"
         id="stop1327" />
      <stop
         style="stop-color:#f5f5f5;stop-opacity:1"
         offset="1"
         id="stop1329" />
    </linearGradient>
    <linearGradient
       id="linearGradient997"
       x1="46.868999"
       x2="254.14999"
       y1="150.12"
       y2="150.12"
       gradientTransform="matrix(4.9778,0,0,4.9778,-1718.7,-177.17)"
       gradientUnits="userSpaceOnUse"
       xlink:href="#linearGradient4289" />
    <linearGradient
       id="linearGradient4289">
      <stop
         stop-color="#fdfdfb"
         offset="0"
         id="stop8" />
      <stop
         stop-color="#f0e9df"
         offset="1"
         id="stop10" />
    </linearGradient>
  </defs>
  <path
     id="rect3143"
     style="opacity:0.1;fill:#000000;fill-opacity:1;stroke-width:0.264583"
     d="m 4.5160033,1.0583334 c -3.60405388,0 -4.1191283,0.5137855 -4.1191283,4.1144775 v 2.883545 c 0,3.6006791 0.51507442,4.1144791 4.1191283,4.1144791 h 3.6679933 c 3.6040544,0 4.1191284,-0.5138 4.1191284,-4.1144791 v -2.883545 c 0,-3.600692 -0.515074,-4.1144775 -4.1191284,-4.1144775 z" />
  <path
     style="display:inline;fill:url(#linearGradient1333);fill-opacity:1;stroke:none;stroke-width:0.0992187;stroke-linecap:round;stroke-linejoin:round;stroke-miterlimit:4;stroke-dasharray:none;stroke-dashoffset:0;stroke-opacity:1;enable-background:new"
     d="m 8.1839959,0.66145833 c 3.6040551,0 4.1191301,0.51378537 4.1191301,4.11447747 v 2.8835448 c 0,3.6006774 -0.515075,4.1144774 -4.1191301,4.1144774 H 4.5160033 c -3.60405404,0 -4.1191283,-0.5138 -4.1191283,-4.1144774 V 4.7759358 c 0,-3.6006921 0.51507426,-4.11447747 4.1191283,-4.11447747 z"
     id="rect877"
     inkscape:connector-curvature="0"
     sodipodi:nodetypes="sssssssss" />
  <path
     id="rect1173"
     style="opacity:1;fill:#e99c20;fill-opacity:1;stroke-width:0.999999;stroke-linecap:round;stroke-linejoin:round"
     d="M 17.068359 2.5 C 3.446738 2.5 1.5 4.4418662 1.5 18.050781 L 1.5 23.5 L 24 23.5 L 24 2.5 L 17.068359 2.5 z "
     transform="scale(0.26458333)" />
  <path
     id="rect1175"
     style="opacity:1;fill:#98d24d;fill-opacity:1;stroke-width:0.999999;stroke-linecap:round;stroke-linejoin:round"
     d="M 1.5 23.5 L 1.5 28.949219 C 1.5 42.558078 3.446738 44.5 17.068359 44.5 L 24 44.5 L 24 23.5 L 1.5 23.5 z "
     transform="scale(0.26458333)" />
  <path
     id="rect1177"
     style="opacity:1;fill:#20afe9;fill-opacity:1;stroke-width:0.999999;stroke-linecap:round;stroke-linejoin:round"
     d="M 24 23.5 L 24 44.5 L 30.931641 44.5 C 44.553266 44.5 46.5 42.558078 46.5 28.949219 L 46.5 23.5 L 24 23.5 z "
     transform="scale(0.26458333)" />
  <path
     id="path30"
     style="stroke-width:0.17144;fill:#ffffff"
     d="M 13.552734 8 C 12.173947 8.0150786 10.750744 8.6021954 10.007812 9.7480469 L 11.654297 11.005859 C 11.99392 10.247752 14.299491 9.1202021 14.826172 10.78125 C 15.224598 12.516394 11.341313 15.530039 10 16.871094 L 10 18.574219 L 17.478516 18.574219 L 17.478516 16.677734 L 12.935547 16.677734 L 12.935547 16.576172 C 14.48125 15.10556 17.132392 13.471094 17.109375 10.804688 C 17.025476 8.9070588 15.325461 7.9806132 13.552734 8 z M 34.898438 28 C 33.321702 28.007886 31.269398 28.653541 31.296875 30.523438 C 31.269409 32.032727 31.791498 32.385925 32.904297 33.068359 C 31.929935 33.558678 31.030689 34.426722 31 35.958984 C 31.029831 38.082854 32.950364 38.777334 34.898438 38.791016 C 36.748447 38.7773 38.730976 38.03802 38.746094 35.988281 C 38.730836 34.423068 37.901259 33.82764 36.582031 33.03125 C 37.780428 32.376521 38.404708 32.038581 38.40625 30.537109 C 38.404708 28.637983 36.359878 28.007748 34.898438 28 z M 15.203125 28.253906 L 10.173828 34.914062 L 10.173828 36.824219 L 15.328125 36.824219 L 15.328125 38.552734 L 17.300781 38.552734 L 17.300781 36.822266 L 18.632812 36.822266 L 18.632812 35.072266 L 17.300781 35.072266 L 17.300781 28.253906 L 15.203125 28.253906 z M 34.730469 29.777344 C 34.78112 29.776179 34.831403 29.776904 34.882812 29.777344 C 35.663601 29.770332 36.283524 29.956481 36.316406 30.685547 C 36.294409 31.685094 34.867188 32.310547 34.867188 32.310547 C 34.867188 32.310547 33.314326 31.67569 33.310547 30.75 C 33.314196 30.004688 33.9707 29.79482 34.730469 29.777344 z M 15.328125 31.041016 L 15.328125 35.072266 L 12.236328 35.072266 L 15.328125 31.041016 z M 34.878906 33.828125 C 34.878906 33.828125 36.557143 34.447991 36.548828 35.865234 C 36.537168 36.709079 35.822668 37.102027 34.878906 37.09375 C 33.899351 37.102014 33.086191 36.747885 33.09375 35.773438 C 33.086376 34.446766 34.878906 33.828125 34.878906 33.828125 z "
     transform="scale(0.26458333)" />
  <path
     id="rect1565"
     style="opacity:1;fill:url(#linearGradient1873);fill-opacity:1;stroke-width:0.264583"
     d="m 4.5568277,0.79374997 c -3.5239635,0 -4.02766104,0.50133123 -4.02766104,4.01629243 v 2.8153318 c 0,3.5149478 0.50369754,4.0162928 4.02766104,4.0162928 h 3.5863445 c 3.5239638,0 4.0276608,-0.501345 4.0276608,-4.0162928 V 4.8100424 c 0,-3.5149612 -0.503697,-4.01629243 -4.0276608,-4.01629243 z m 0.081649,0.26458343 h 3.4230468 c 3.3637835,0 3.8447265,0.4769388 3.8447265,3.8204385 v 2.6778728 c 0,3.3434873 -0.480943,3.8204393 -3.8447265,3.8204393 h -3.423047 c -3.3637834,0 -3.84472651,-0.476952 -3.84472651,-3.8204393 V 4.8787719 c 0,-3.3434997 0.48094311,-3.8204385 3.84472671,-3.8204385 z" />
  <path
     id="rect1370"
     style="opacity:0.4;fill:#000000;fill-opacity:1;stroke-width:0.264583"
     d="m 4.4751788,0.52916667 c -3.68414336,0 -4.21059547,0.52624033 -4.21059547,4.21266273 v 2.9517578 c 0,3.6864088 0.52645211,4.2126628 4.21059547,4.2126628 H 8.224821 c 3.684144,0 4.210596,-0.526254 4.210596,-4.2126628 V 4.7418294 c 0,-3.6864224 -0.526452,-4.21266273 -4.210596,-4.21266273 z m 0.081649,0.2645833 h 3.5863445 c 3.5239637,0 4.0276607,0.50133143 4.0276607,4.01629243 v 2.8153318 c 0,3.5149478 -0.503697,4.0162928 -4.0276607,4.0162928 H 4.5568277 c -3.5239637,0 -4.02766104,-0.501345 -4.02766104,-4.0162928 V 4.8100424 c 0,-3.514961 0.50369724,-4.01629243 4.02766114,-4.01629243 z" />
</svg>
