<?xml version="1.0" encoding="UTF-8" standalone="no"?>
<!-- Created with Inkscape (http://www.inkscape.org/) -->

<svg
   width="48"
   height="48"
   viewBox="0 0 12.7 12.7"
   version="1.1"
   id="svg5"
   inkscape:version="1.1.2 (0a00cf5339, 2022-02-04)"
   sodipodi:docname="google-chrome-beta.svg"
   xmlns:inkscape="http://www.inkscape.org/namespaces/inkscape"
   xmlns:sodipodi="http://sodipodi.sourceforge.net/DTD/sodipodi-0.dtd"
   xmlns:xlink="http://www.w3.org/1999/xlink"
   xmlns="http://www.w3.org/2000/svg"
   xmlns:svg="http://www.w3.org/2000/svg">
  <sodipodi:namedview
     id="namedview7"
     pagecolor="#ffffff"
     bordercolor="#666666"
     borderopacity="1.0"
     inkscape:pageshadow="2"
     inkscape:pageopacity="0.0"
     inkscape:pagecheckerboard="0"
     inkscape:document-units="px"
     showgrid="false"
     units="px"
     inkscape:zoom="6.3639601"
     inkscape:cx="11.706547"
     inkscape:cy="6.7567991"
     inkscape:window-width="1920"
     inkscape:window-height="1010"
     inkscape:window-x="0"
     inkscape:window-y="0"
     inkscape:window-maximized="1"
     inkscape:current-layer="svg5" />
  <defs
     id="defs2">
    <linearGradient
       inkscape:collect="always"
       id="linearGradient1871">
      <stop
         style="stop-color:#ffffff;stop-opacity:1;"
         offset="0"
         id="stop1867" />
      <stop
         style="stop-color:#ffffff;stop-opacity:0.1"
         offset="0.12"
         id="stop2515" />
      <stop
         style="stop-color:#ffffff;stop-opacity:0.102"
         offset="0.89999998"
         id="stop2581" />
      <stop
         style="stop-color:#ffffff;stop-opacity:0.502"
         offset="1"
         id="stop1869" />
    </linearGradient>
    <linearGradient
       inkscape:collect="always"
       xlink:href="#linearGradient1871"
       id="linearGradient1873"
       x1="17.222656"
       y1="3.5"
       x2="17.222656"
       y2="44.466438"
       gradientUnits="userSpaceOnUse"
       gradientTransform="matrix(0.26458333,0,0,0.26458333,0,-0.13229166)" />
    <linearGradient
       inkscape:collect="always"
       xlink:href="#linearGradient1353"
       id="linearGradient1355"
       x1="3.0266731"
       y1="4.6582699"
       x2="7.8305969"
       y2="4.6582699"
       gradientUnits="userSpaceOnUse"
       gradientTransform="matrix(4.1632626,0,0,3.7795276,-0.60083494,-1.0909093)" />
    <linearGradient
       inkscape:collect="always"
       id="linearGradient1353">
      <stop
         style="stop-color:#db3328;stop-opacity:1;"
         offset="0"
         id="stop1349" />
      <stop
         style="stop-color:#e53d30;stop-opacity:1"
         offset="1"
         id="stop1351" />
    </linearGradient>
    <linearGradient
       inkscape:collect="always"
       xlink:href="#linearGradient5643"
       id="linearGradient5645"
       x1="2.1166666"
       y1="6.1988096"
       x2="4.8505816"
       y2="10.432143"
       gradientUnits="userSpaceOnUse"
       gradientTransform="scale(3.7795276)" />
    <linearGradient
       inkscape:collect="always"
       id="linearGradient5643">
      <stop
         style="stop-color:#32a651;stop-opacity:1;"
         offset="0"
         id="stop5639" />
      <stop
         style="stop-color:#279847;stop-opacity:1"
         offset="1"
         id="stop5641" />
    </linearGradient>
  </defs>
  <path
     id="rect3143"
     style="opacity:0.1;fill:#000000;fill-opacity:1;stroke-width:0.264583"
     d="m 4.5160033,1.0583334 c -3.60405388,0 -4.1191283,0.5137855 -4.1191283,4.1144775 v 2.883545 c 0,3.6006791 0.51507442,4.1144791 4.1191283,4.1144791 h 3.6679933 c 3.6040544,0 4.1191284,-0.5138 4.1191284,-4.1144791 v -2.883545 c 0,-3.600692 -0.515074,-4.1144775 -4.1191284,-4.1144775 z" />
  <path
     id="rect1108"
     style="fill:url(#linearGradient1355);fill-opacity:1;stroke-width:1.04953;stroke-linejoin:round"
     d="M 17.068359 2.5 C 5.4225416 2.5 2.3121113 3.9255684 1.6542969 12.841797 L 5.0273438 25.144531 L 13.644531 30.046875 L 24 33.03125 L 24 12 L 35.3125 18.169922 L 46.34375 12.806641 C 45.680401 3.9214924 42.562305 2.5 30.931641 2.5 L 17.068359 2.5 z "
     transform="scale(0.26458333)" />
  <path
     id="rect2658"
     style="fill:#fbbf12;stroke-width:0.999995;stroke-linejoin:round"
     d="M 24 12 L 24 24 L 13.5 30 L 21.958984 44.5 L 30.931641 44.5 C 44.553265 44.5 46.5 42.558081 46.5 28.949219 L 46.5 18.050781 C 46.5 15.700108 46.439737 13.704601 46.273438 12 L 24 12 z "
     transform="scale(0.26458333)" />
  <path
     id="rect1825"
     style="fill:url(#linearGradient5645);fill-opacity:1;stroke-width:1.00525;stroke-linejoin:round"
     d="M 1.96875 10.152344 C 1.6123675 12.206145 1.5 14.793721 1.5 18.050781 L 1.5 28.949219 C 1.5 42.558082 3.446738 44.5 17.068359 44.5 L 26.214844 44.5 L 34.332031 30.042969 L 13.644531 30.046875 L 1.96875 10.152344 z "
     transform="scale(0.26458333)" />
  <circle
     style="fill:#ffffff;fill-opacity:1;stroke-width:0.264582;stroke-linejoin:round"
     id="path2361"
     cx="6.3500004"
     cy="6.3500004"
     r="3.175" />
  <circle
     style="fill:#1a73e8;fill-opacity:1;stroke-width:0.28221;stroke-linejoin:round"
     id="path6261"
     cx="6.3500004"
     cy="6.3500004"
     r="2.5135417" />
  <path
     id="rect3959"
     style="fill:#414342;fill-opacity:1;stroke-width:0.680901;stroke-linejoin:round"
     d="M 1.5058594 30 C 1.6126804 42.655212 3.8068238 44.5 17.068359 44.5 L 30.931641 44.5 C 44.193178 44.5 46.38732 42.655212 46.494141 30 L 1.5058594 30 z "
     transform="scale(0.26458333)" />
  <path
     id="rect1565"
     style="opacity:1;fill:url(#linearGradient1873);fill-opacity:1;stroke-width:0.264583"
     d="m 4.5568277,0.79374997 c -3.5239635,0 -4.02766104,0.50133123 -4.02766104,4.01629243 v 2.8153318 c 0,3.5149478 0.50369754,4.0162928 4.02766104,4.0162928 h 3.5863445 c 3.5239638,0 4.0276608,-0.501345 4.0276608,-4.0162928 V 4.8100424 c 0,-3.5149612 -0.503697,-4.01629243 -4.0276608,-4.01629243 z m 0.081649,0.26458343 h 3.4230468 c 3.3637835,0 3.8447265,0.4769388 3.8447265,3.8204385 v 2.6778728 c 0,3.3434873 -0.480943,3.8204393 -3.8447265,3.8204393 h -3.423047 c -3.3637834,0 -3.84472651,-0.476952 -3.84472651,-3.8204393 V 4.8787719 c 0,-3.3434997 0.48094311,-3.8204385 3.84472671,-3.8204385 z" />
  <path
     id="rect1370"
     style="opacity:0.4;fill:#000000;fill-opacity:1;stroke-width:0.264583"
     d="m 4.4751788,0.52916667 c -3.68414336,0 -4.21059547,0.52624033 -4.21059547,4.21266273 v 2.9517578 c 0,3.6864088 0.52645211,4.2126628 4.21059547,4.2126628 H 8.224821 c 3.684144,0 4.210596,-0.526254 4.210596,-4.2126628 V 4.7418294 c 0,-3.6864224 -0.526452,-4.21266273 -4.210596,-4.21266273 z m 0.081649,0.2645833 h 3.5863445 c 3.5239637,0 4.0276607,0.50133143 4.0276607,4.01629243 v 2.8153318 c 0,3.5149478 -0.503697,4.0162928 -4.0276607,4.0162928 H 4.5568277 c -3.5239637,0 -4.02766104,-0.501345 -4.02766104,-4.0162928 V 4.8100424 c 0,-3.514961 0.50369724,-4.01629243 4.02766114,-4.01629243 z" />
  <path
     id="rect7125"
     style="fill:#ffffff;fill-opacity:1;stroke-width:1.10716;stroke-linejoin:round"
     d="M 13.5 33 L 13.5 40.824219 L 16.460938 40.824219 C 16.876237 40.824219 17.264081 40.730446 17.621094 40.541016 C 17.985392 40.351581 18.273082 40.089062 18.484375 39.753906 C 18.702955 39.411466 18.810547 39.030008 18.810547 38.607422 C 18.810547 38.177551 18.687176 37.801052 18.439453 37.480469 C 18.19173 37.159885 17.871958 36.933881 17.478516 36.802734 L 17.478516 36.759766 C 17.806385 36.60676 18.064471 36.387669 18.253906 36.103516 C 18.450628 35.819363 18.548828 35.488246 18.548828 35.109375 C 18.548828 34.708647 18.448147 34.347926 18.244141 34.027344 C 18.040133 33.706762 17.761836 33.455587 17.412109 33.273438 C 17.069669 33.091289 16.702036 33 16.308594 33 L 13.5 33 z M 26.515625 33.677734 L 26.515625 35.251953 L 25.542969 35.251953 L 25.542969 36.09375 L 26.515625 36.09375 L 26.515625 39.361328 C 26.515625 39.623625 26.552141 39.845196 26.625 40.027344 C 26.697862 40.209494 26.807407 40.369382 26.953125 40.507812 C 27.084273 40.631655 27.244159 40.729865 27.433594 40.802734 C 27.630316 40.875604 27.842495 40.912109 28.068359 40.912109 C 28.243223 40.912109 28.384852 40.900828 28.494141 40.878906 C 28.610716 40.857035 28.724696 40.82053 28.833984 40.769531 L 28.833984 39.863281 C 28.637263 39.987149 28.431996 40.048828 28.220703 40.048828 C 27.958409 40.048828 27.759528 39.968896 27.621094 39.808594 C 27.504518 39.662875 27.445313 39.43687 27.445312 39.130859 L 27.445312 36.09375 L 28.800781 36.09375 L 28.800781 35.251953 L 27.445312 35.251953 L 27.445312 33.677734 L 26.515625 33.677734 z M 14.417969 33.884766 L 16.351562 33.884766 C 16.606572 33.884766 16.830096 33.946452 17.019531 34.070312 C 17.216253 34.194174 17.364793 34.356014 17.466797 34.552734 C 17.576086 34.742169 17.630859 34.934137 17.630859 35.130859 C 17.630859 35.334866 17.576086 35.5357 17.466797 35.732422 C 17.357507 35.921858 17.202053 36.079265 16.998047 36.203125 C 16.801325 36.326988 16.570889 36.388672 16.308594 36.388672 L 14.417969 36.388672 L 14.417969 33.884766 z M 22.341797 35.076172 C 21.802635 35.076172 21.327936 35.210888 20.919922 35.480469 C 20.511907 35.75005 20.196568 36.11077 19.970703 36.5625 C 19.752123 37.01423 19.642578 37.509665 19.642578 38.048828 C 19.642578 38.609846 19.759036 39.116628 19.992188 39.568359 C 20.232624 40.012804 20.563742 40.36218 20.986328 40.617188 C 21.408915 40.872196 21.886093 41 22.417969 41 C 23.000846 41 23.496283 40.869716 23.904297 40.607422 C 24.319598 40.345125 24.648236 39.986885 24.888672 39.535156 L 24.101562 39.152344 C 23.715407 39.822653 23.165197 40.158203 22.451172 40.158203 C 22.145161 40.158203 21.850559 40.085167 21.566406 39.939453 C 21.28954 39.793732 21.059104 39.57464 20.876953 39.283203 C 20.694792 38.991764 20.592158 38.635477 20.570312 38.212891 L 24.974609 38.212891 C 24.996455 38.132739 25.007812 38.038965 25.007812 37.929688 C 25.007812 37.375953 24.898267 36.882997 24.679688 36.453125 C 24.468395 36.023251 24.162447 35.687702 23.761719 35.447266 C 23.36099 35.199543 22.888245 35.076172 22.341797 35.076172 z M 31.892578 35.076172 C 31.426276 35.076172 31.001391 35.171893 30.615234 35.361328 C 30.236364 35.550763 29.937329 35.813283 29.71875 36.148438 L 30.417969 36.671875 C 30.570974 36.431438 30.778721 36.246382 31.041016 36.115234 C 31.303311 35.9768 31.591 35.90625 31.904297 35.90625 C 32.348741 35.90625 32.716375 36.034054 33.007812 36.289062 C 33.299251 36.536786 33.445312 36.867903 33.445312 37.283203 L 33.445312 37.623047 C 33.292308 37.528329 33.070736 37.443953 32.779297 37.371094 C 32.495144 37.298235 32.184764 37.261719 31.849609 37.261719 C 31.172014 37.261719 30.61046 37.43048 30.166016 37.765625 C 29.721571 38.093493 29.5 38.552412 29.5 39.142578 C 29.5 39.49959 29.586855 39.819363 29.761719 40.103516 C 29.936582 40.380371 30.185277 40.599463 30.505859 40.759766 C 30.826442 40.920068 31.189642 41 31.597656 41 C 31.998384 41 32.359105 40.906227 32.679688 40.716797 C 33.000268 40.527362 33.242051 40.296925 33.402344 40.027344 L 33.445312 40.027344 L 33.445312 40.824219 L 34.330078 40.824219 L 34.330078 37.294922 C 34.330078 36.61004 34.11294 36.071177 33.675781 35.677734 C 33.245909 35.277006 32.650319 35.076172 31.892578 35.076172 z M 22.330078 35.917969 C 22.708949 35.917969 23.021808 35.997912 23.269531 36.158203 C 23.52454 36.318495 23.71155 36.514896 23.828125 36.748047 C 23.9447 36.981198 24.010819 37.214115 24.025391 37.447266 L 20.625 37.447266 C 20.719718 36.988249 20.918072 36.620617 21.216797 36.34375 C 21.522808 36.059597 21.89292 35.917969 22.330078 35.917969 z M 14.417969 37.261719 L 16.472656 37.261719 C 16.749523 37.261719 16.993785 37.327837 17.205078 37.458984 C 17.416371 37.582846 17.580689 37.749646 17.697266 37.960938 C 17.813841 38.16494 17.871094 38.37712 17.871094 38.595703 C 17.871094 38.814273 17.813841 39.028934 17.697266 39.240234 C 17.587976 39.444241 17.42809 39.612991 17.216797 39.744141 C 17.01279 39.87529 16.77792 39.939453 16.515625 39.939453 L 14.417969 39.939453 L 14.417969 37.261719 z M 31.992188 38.015625 C 32.276339 38.015625 32.545772 38.052131 32.800781 38.125 C 33.05579 38.197844 33.27045 38.29357 33.445312 38.410156 C 33.445313 38.730738 33.36537 39.025341 33.205078 39.294922 C 33.044787 39.564493 32.830128 39.779151 32.560547 39.939453 C 32.290966 40.09973 31.998844 40.179688 31.685547 40.179688 C 31.328535 40.179688 31.033933 40.085914 30.800781 39.896484 C 30.56763 39.707049 30.451172 39.458354 30.451172 39.152344 C 30.451172 38.817198 30.578975 38.545285 30.833984 38.333984 C 31.096279 38.122684 31.482169 38.015625 31.992188 38.015625 z "
     transform="scale(0.26458333)" />
</svg>
