<?xml version="1.0" encoding="UTF-8" standalone="no"?>
<!-- Created with Inkscape (http://www.inkscape.org/) -->

<svg
   width="48"
   height="48"
   viewBox="0 0 12.7 12.7"
   version="1.1"
   id="svg5"
   inkscape:version="1.1.2 (0a00cf5339, 2022-02-04)"
   sodipodi:docname="google-drive.svg"
   xmlns:inkscape="http://www.inkscape.org/namespaces/inkscape"
   xmlns:sodipodi="http://sodipodi.sourceforge.net/DTD/sodipodi-0.dtd"
   xmlns:xlink="http://www.w3.org/1999/xlink"
   xmlns="http://www.w3.org/2000/svg"
   xmlns:svg="http://www.w3.org/2000/svg">
  <sodipodi:namedview
     id="namedview7"
     pagecolor="#ffffff"
     bordercolor="#666666"
     borderopacity="1.0"
     inkscape:pageshadow="2"
     inkscape:pageopacity="0.0"
     inkscape:pagecheckerboard="0"
     inkscape:document-units="px"
     showgrid="false"
     units="px"
     inkscape:zoom="8.25"
     inkscape:cx="27.939394"
     inkscape:cy="38.181818"
     inkscape:window-width="1920"
     inkscape:window-height="998"
     inkscape:window-x="0"
     inkscape:window-y="0"
     inkscape:window-maximized="1"
     inkscape:current-layer="svg5"
     showguides="false" />
  <defs
     id="defs2">
    <linearGradient
       inkscape:collect="always"
       id="linearGradient1871">
      <stop
         style="stop-color:#ffffff;stop-opacity:1;"
         offset="0"
         id="stop1867" />
      <stop
         style="stop-color:#ffffff;stop-opacity:0.1"
         offset="0.12"
         id="stop2515" />
      <stop
         style="stop-color:#ffffff;stop-opacity:0.102"
         offset="0.89999998"
         id="stop2581" />
      <stop
         style="stop-color:#ffffff;stop-opacity:0.502"
         offset="1"
         id="stop1869" />
    </linearGradient>
    <linearGradient
       inkscape:collect="always"
       xlink:href="#linearGradient1871"
       id="linearGradient1873"
       x1="17.222656"
       y1="3.5"
       x2="17.222656"
       y2="44.466438"
       gradientUnits="userSpaceOnUse"
       gradientTransform="matrix(0.26458333,0,0,0.26458333,0,-0.13229166)" />
  </defs>
  <path
     id="rect3143"
     style="opacity:0.1;fill:#000000;fill-opacity:1;stroke-width:0.264583"
     d="m 4.5160033,1.0583334 c -3.60405388,0 -4.1191283,0.5137855 -4.1191283,4.1144775 v 2.883545 c 0,3.6006791 0.51507442,4.1144791 4.1191283,4.1144791 h 3.6679933 c 3.6040544,0 4.1191284,-0.5138 4.1191284,-4.1144791 v -2.883545 c 0,-3.600692 -0.515074,-4.1144775 -4.1191284,-4.1144775 z" />
  <path
     style="display:inline;fill:#ffffff;fill-opacity:1;stroke:none;stroke-width:0.0992187;stroke-linecap:round;stroke-linejoin:round;stroke-miterlimit:4;stroke-dasharray:none;stroke-dashoffset:0;stroke-opacity:1;enable-background:new"
     d="m 8.1839962,0.66145835 c 3.6040548,0 4.1191298,0.51378545 4.1191298,4.11447755 v 2.883545 c 0,3.6006781 -0.515075,4.1144781 -4.1191298,4.1144781 H 4.5160033 c -3.604054,0 -4.1191283,-0.5138 -4.1191283,-4.1144781 v -2.883545 c 0,-3.6006921 0.5150743,-4.11447755 4.1191283,-4.11447755 z"
     id="rect877"
     inkscape:connector-curvature="0"
     sodipodi:nodetypes="sssssssss" />
  <path
     inkscape:connector-curvature="0"
     d="m 2.7567585,8.8645995 0.3733867,0.6449407 c 0.077587,0.135776 0.1891173,0.242459 0.3200459,0.3200457 L 4.7837154,7.5213794 H 2.1166667 c 0,0.1503257 0.038795,0.3006477 0.1163813,0.4364247 z"
     id="path2-0"
     style="fill:#0066da;stroke-width:0.0969827" />
  <path
     inkscape:connector-curvature="0"
     d="M 6.35,4.8058392 5.0164754,2.4976305 C 4.8855474,2.5752119 4.7740167,2.6818999 4.6964298,2.8176759 L 2.233047,7.0849527 A 0.87867118,0.87867118 0 0 0 2.1166683,7.5213794 H 4.783717 Z"
     id="path4-3"
     style="fill:#00ac47;stroke-width:0.0969827" />
  <path
     inkscape:connector-curvature="0"
     d="M 9.2498095,9.8295859 C 9.3807376,9.7520062 9.4922682,9.6453172 9.5698549,9.5095402 L 9.725028,9.2428352 10.466952,7.9578041 c 0.07759,-0.135776 0.116381,-0.286101 0.116381,-0.4364247 H 7.9160905 l 0.5675481,1.1153104 z"
     id="path6-0"
     style="fill:#ea4335;stroke-width:0.0969827" />
  <path
     inkscape:connector-curvature="0"
     d="M 6.35,4.8058392 7.6835239,2.4976305 C 7.5525956,2.4200439 7.4022716,2.38125 7.247098,2.38125 H 5.4529016 c -0.1551734,0 -0.3054982,0.043645 -0.4364262,0.1163813 z"
     id="path8-4"
     style="fill:#00832d;stroke-width:0.0969827" />
  <path
     inkscape:connector-curvature="0"
     d="M 7.9162852,7.5213794 H 4.7837154 L 3.4501911,9.8295859 c 0.130928,0.07759 0.2812522,0.116382 0.4364258,0.116382 h 4.9267657 c 0.1551733,0 0.3054979,-0.04365 0.4364269,-0.116382 z"
     id="path10-4"
     style="fill:#2684fc;stroke-width:0.0969827" />
  <path
     inkscape:connector-curvature="0"
     d="M 9.2352613,4.951315 8.0035692,2.8176759 C 7.9259871,2.6818988 7.8144519,2.5752169 7.6835239,2.4976303 L 6.35,4.8058392 7.9162852,7.5213794 h 2.6621988 c 0,-0.150325 -0.03879,-0.30065 -0.116379,-0.4364267 z"
     id="path12"
     style="fill:#ffba00;stroke-width:0.0969827" />
  <path
     id="rect1370"
     style="opacity:0.4;fill:#000000;fill-opacity:1;stroke-width:0.264583"
     d="m 4.4751788,0.52916667 c -3.68414336,0 -4.21059547,0.52624033 -4.21059547,4.21266273 v 2.9517578 c 0,3.6864088 0.52645211,4.2126628 4.21059547,4.2126628 H 8.224821 c 3.684144,0 4.210596,-0.526254 4.210596,-4.2126628 V 4.7418294 c 0,-3.6864224 -0.526452,-4.21266273 -4.210596,-4.21266273 z m 0.081649,0.2645833 h 3.5863445 c 3.5239637,0 4.0276607,0.50133143 4.0276607,4.01629243 v 2.8153318 c 0,3.5149478 -0.503697,4.0162928 -4.0276607,4.0162928 H 4.5568277 c -3.5239637,0 -4.02766104,-0.501345 -4.02766104,-4.0162928 V 4.8100424 c 0,-3.514961 0.50369724,-4.01629243 4.02766114,-4.01629243 z" />
  <path
     id="rect1565"
     style="fill:url(#linearGradient1873);fill-opacity:1;stroke-width:0.264583;opacity:0.7"
     d="m 4.5568277,0.79374997 c -3.5239635,0 -4.02766104,0.50133123 -4.02766104,4.01629243 v 2.8153318 c 0,3.5149478 0.50369754,4.0162928 4.02766104,4.0162928 h 3.5863445 c 3.5239638,0 4.0276608,-0.501345 4.0276608,-4.0162928 V 4.8100424 c 0,-3.5149612 -0.503697,-4.01629243 -4.0276608,-4.01629243 z m 0.081649,0.26458343 h 3.4230468 c 3.3637835,0 3.8447265,0.4769388 3.8447265,3.8204385 v 2.6778728 c 0,3.3434873 -0.480943,3.8204393 -3.8447265,3.8204393 h -3.423047 c -3.3637834,0 -3.84472651,-0.476952 -3.84472651,-3.8204393 V 4.8787719 c 0,-3.3434997 0.48094311,-3.8204385 3.84472671,-3.8204385 z" />
</svg>
