<?xml version="1.0" encoding="UTF-8" standalone="no"?>
<!-- Created with Inkscape (http://www.inkscape.org/) -->

<svg
   width="48"
   height="48"
   viewBox="0 0 12.7 12.7"
   version="1.1"
   id="svg5"
   inkscape:version="1.1.2 (0a00cf5339, 2022-02-04)"
   sodipodi:docname="kfontview.svg"
   xmlns:inkscape="http://www.inkscape.org/namespaces/inkscape"
   xmlns:sodipodi="http://sodipodi.sourceforge.net/DTD/sodipodi-0.dtd"
   xmlns:xlink="http://www.w3.org/1999/xlink"
   xmlns="http://www.w3.org/2000/svg"
   xmlns:svg="http://www.w3.org/2000/svg">
  <sodipodi:namedview
     id="namedview7"
     pagecolor="#ffffff"
     bordercolor="#666666"
     borderopacity="1.0"
     inkscape:pageshadow="2"
     inkscape:pageopacity="0.0"
     inkscape:pagecheckerboard="0"
     inkscape:document-units="px"
     showgrid="false"
     units="px"
     inkscape:zoom="17.999997"
     inkscape:cx="23.972226"
     inkscape:cy="24.000003"
     inkscape:window-width="1920"
     inkscape:window-height="1010"
     inkscape:window-x="0"
     inkscape:window-y="0"
     inkscape:window-maximized="1"
     inkscape:current-layer="svg5" />
  <defs
     id="defs2">
    <linearGradient
       inkscape:collect="always"
       id="linearGradient1331">
      <stop
         style="stop-color:#f2f2f2;stop-opacity:1"
         offset="0"
         id="stop1327" />
      <stop
         style="stop-color:#f9f9f9;stop-opacity:1"
         offset="1"
         id="stop1329" />
    </linearGradient>
    <linearGradient
       inkscape:collect="always"
       id="linearGradient1871">
      <stop
         style="stop-color:#ffffff;stop-opacity:1;"
         offset="0"
         id="stop1867" />
      <stop
         style="stop-color:#ffffff;stop-opacity:0.1"
         offset="0.12"
         id="stop2515" />
      <stop
         style="stop-color:#ffffff;stop-opacity:0.102"
         offset="0.89999998"
         id="stop2581" />
      <stop
         style="stop-color:#ffffff;stop-opacity:0.502"
         offset="1"
         id="stop1869" />
    </linearGradient>
    <linearGradient
       inkscape:collect="always"
       xlink:href="#linearGradient1871"
       id="linearGradient1873"
       x1="17.222656"
       y1="3.5"
       x2="17.222656"
       y2="44.466438"
       gradientUnits="userSpaceOnUse"
       gradientTransform="matrix(0.26458333,0,0,0.26458333,0,-0.13229166)" />
    <linearGradient
       inkscape:collect="always"
       xlink:href="#linearGradient1331"
       id="linearGradient1333"
       x1="8.1839962"
       y1="0.66145837"
       x2="4.5157084"
       y2="11.794012"
       gradientUnits="userSpaceOnUse" />
  </defs>
  <path
     id="rect3143"
     style="opacity:0.1;fill:#000000;fill-opacity:1;stroke-width:0.264583"
     d="m 4.5160033,1.0583334 c -3.60405388,0 -4.1191283,0.5137855 -4.1191283,4.1144775 v 2.883545 c 0,3.6006791 0.51507442,4.1144791 4.1191283,4.1144791 h 3.6679933 c 3.6040544,0 4.1191284,-0.5138 4.1191284,-4.1144791 v -2.883545 c 0,-3.600692 -0.515074,-4.1144775 -4.1191284,-4.1144775 z" />
  <path
     style="display:inline;fill:url(#linearGradient1333);fill-opacity:1;stroke:none;stroke-width:0.0992187;stroke-linecap:round;stroke-linejoin:round;stroke-miterlimit:4;stroke-dasharray:none;stroke-dashoffset:0;stroke-opacity:1;enable-background:new"
     d="m 8.1839962,0.66145835 c 3.6040548,0 4.1191298,0.51378545 4.1191298,4.11447755 v 2.883545 c 0,3.6006781 -0.515075,4.1144781 -4.1191298,4.1144781 H 4.5160033 c -3.604054,0 -4.1191283,-0.5138 -4.1191283,-4.1144781 v -2.883545 c 0,-3.6006921 0.5150743,-4.11447755 4.1191283,-4.11447755 z"
     id="rect877"
     inkscape:connector-curvature="0"
     sodipodi:nodetypes="sssssssss" />
  <path
     id="rect2981"
     style="opacity:1;fill:#2f5fdd;fill-opacity:1;stroke-width:0.999999;stroke-linejoin:round"
     d="M 14.599609 13 C 13.859808 14.541252 13.150807 16.103195 12.472656 17.685547 C 11.794505 19.247349 11.106904 20.890986 10.408203 22.617188 C 9.7300524 24.343388 9.0317509 26.171813 8.3125 28.103516 C 7.5932494 30.014668 6.8220009 32.100825 6 34.361328 L 9.1132812 34.361328 L 11.054688 28.90625 L 20.734375 28.90625 C 21.063176 29.831001 21.381203 30.744236 21.689453 31.648438 C 21.997704 32.532088 22.326431 33.436577 22.675781 34.361328 L 25.943359 34.361328 C 25.121358 32.100825 24.352063 30.014668 23.632812 28.103516 C 22.913563 26.171813 22.20456 24.343388 21.505859 22.617188 C 20.827709 20.890986 20.148854 19.247349 19.470703 17.685547 C 18.792552 16.103195 18.083551 14.541252 17.34375 13 L 14.599609 13 z M 15.894531 16.421875 C 16.593232 17.963127 17.261387 19.576617 17.898438 21.261719 C 18.556037 22.926271 19.213493 24.651601 19.871094 26.439453 L 11.917969 26.439453 C 12.555019 24.651601 13.193027 22.926271 13.830078 21.261719 C 14.487679 19.576617 15.17528 17.963127 15.894531 16.421875 z M 33.835938 17.931641 C 32.828986 17.931641 31.892398 18.013334 31.029297 18.177734 C 30.166196 18.321585 29.549587 18.476225 29.179688 18.640625 L 29.519531 21.013672 C 29.868882 20.869822 30.393096 20.73658 31.091797 20.613281 C 31.811048 20.46943 32.642589 20.398437 33.587891 20.398438 C 34.327691 20.398438 34.924853 20.510278 35.376953 20.736328 C 35.849604 20.941828 36.219178 21.229709 36.486328 21.599609 C 36.753478 21.94896 36.938266 22.361334 37.041016 22.833984 C 37.143766 23.286085 37.195312 23.748053 37.195312 24.220703 L 37.195312 25.021484 C 37.113114 25.000936 36.969172 24.970788 36.763672 24.929688 C 36.558172 24.888589 36.311137 24.847742 36.023438 24.806641 C 35.756287 24.745002 35.468407 24.704154 35.160156 24.683594 C 34.851906 24.642493 34.553325 24.621094 34.265625 24.621094 C 33.361424 24.621094 32.499735 24.713488 31.677734 24.898438 C 30.855733 25.083387 30.136032 25.371268 29.519531 25.761719 C 28.903031 26.152169 28.408963 26.665684 28.039062 27.302734 C 27.689713 27.939785 27.515625 28.700333 27.515625 29.583984 C 27.515625 30.508735 27.670265 31.29943 27.978516 31.957031 C 28.286766 32.614632 28.718587 33.149546 29.273438 33.560547 C 29.828287 33.950997 30.485738 34.238877 31.246094 34.423828 C 32.006445 34.608778 32.837987 34.701172 33.742188 34.701172 C 34.379237 34.701172 35.017246 34.669071 35.654297 34.607422 C 36.311898 34.566321 36.917805 34.516727 37.472656 34.455078 C 38.027506 34.393426 38.51962 34.33118 38.951172 34.269531 C 39.403271 34.187332 39.753398 34.125085 40 34.083984 L 40 24.066406 C 40 23.162205 39.896912 22.33941 39.691406 21.599609 C 39.485906 20.839258 39.137732 20.192504 38.644531 19.658203 C 38.171881 19.103352 37.533873 18.682231 36.732422 18.394531 C 35.951521 18.086281 34.986738 17.931641 33.835938 17.931641 z M 34.349609 26.933594 C 34.404516 26.93263 34.459728 26.933594 34.513672 26.933594 C 35.171273 26.933594 35.725634 26.97444 36.177734 27.056641 C 36.650385 27.118291 36.989813 27.199984 37.195312 27.302734 L 37.195312 32.080078 C 36.845963 32.162278 36.403441 32.224524 35.869141 32.265625 C 35.35539 32.286186 34.760182 32.296875 34.082031 32.296875 C 32.95178 32.296874 32.057991 32.101387 31.400391 31.710938 C 30.74279 31.299937 30.414063 30.580235 30.414062 29.552734 C 30.414062 28.997884 30.547303 28.557316 30.814453 28.228516 C 31.081603 27.879165 31.410331 27.610731 31.800781 27.425781 C 32.211782 27.22028 32.654303 27.08704 33.126953 27.025391 C 33.558504 26.971448 33.96526 26.940337 34.349609 26.933594 z "
     transform="scale(0.26458333)" />
  <path
     id="rect5299"
     style="opacity:0.2;fill:#ffffff;fill-opacity:1;stroke-width:0.264583"
     d="m 0.52916667,6.0854167 v 1.441773 c 0,3.6006783 0.51507443,4.1144773 4.11912783,4.1144773 h 3.667994 c 3.6040535,0 4.1191275,-0.513799 4.1191275,-4.1144773 v -1.441773 z" />
  <path
     id="rect1370"
     style="opacity:0.4;fill:#000000;fill-opacity:1;stroke-width:0.264583"
     d="m 4.4751788,0.52916667 c -3.68414336,0 -4.21059547,0.52624033 -4.21059547,4.21266273 v 2.9517578 c 0,3.6864088 0.52645211,4.2126628 4.21059547,4.2126628 H 8.224821 c 3.684144,0 4.210596,-0.526254 4.210596,-4.2126628 V 4.7418294 c 0,-3.6864224 -0.526452,-4.21266273 -4.210596,-4.21266273 z m 0.081649,0.2645833 h 3.5863445 c 3.5239637,0 4.0276607,0.50133143 4.0276607,4.01629243 v 2.8153318 c 0,3.5149478 -0.503697,4.0162928 -4.0276607,4.0162928 H 4.5568277 c -3.5239637,0 -4.02766104,-0.501345 -4.02766104,-4.0162928 V 4.8100424 c 0,-3.514961 0.50369724,-4.01629243 4.02766114,-4.01629243 z" />
  <path
     id="rect1294"
     style="opacity:0.1;fill:#ffffff;fill-opacity:1;stroke-width:0.999999;stroke-linejoin:round"
     d="M 24 3 L 24 44 L 30.777344 44 C 44.09626 44 46 42.105155 46 28.820312 L 46 18.179688 C 46 4.8947948 44.09626 3 30.777344 3 L 24 3 z "
     transform="scale(0.26458333)" />
  <path
     id="rect1565"
     style="opacity:1;fill:url(#linearGradient1873);fill-opacity:1;stroke-width:0.264583"
     d="m 4.5568277,0.79374997 c -3.5239635,0 -4.02766104,0.50133123 -4.02766104,4.01629243 v 2.8153318 c 0,3.5149478 0.50369754,4.0162928 4.02766104,4.0162928 h 3.5863445 c 3.5239638,0 4.0276608,-0.501345 4.0276608,-4.0162928 V 4.8100424 c 0,-3.5149612 -0.503697,-4.01629243 -4.0276608,-4.01629243 z m 0.081649,0.26458343 h 3.4230468 c 3.3637835,0 3.8447265,0.4769388 3.8447265,3.8204385 v 2.6778728 c 0,3.3434873 -0.480943,3.8204393 -3.8447265,3.8204393 h -3.423047 c -3.3637834,0 -3.84472651,-0.476952 -3.84472651,-3.8204393 V 4.8787719 c 0,-3.3434997 0.48094311,-3.8204385 3.84472671,-3.8204385 z" />
</svg>
