<?xml version="1.0" encoding="UTF-8" standalone="no"?>
<!-- Created with Inkscape (http://www.inkscape.org/) -->

<svg
   width="48"
   height="48"
   viewBox="0 0 12.7 12.7"
   version="1.1"
   id="svg5"
   inkscape:version="1.1.2 (0a00cf5339, 2022-02-04)"
   sodipodi:docname="kmines.svg"
   xmlns:inkscape="http://www.inkscape.org/namespaces/inkscape"
   xmlns:sodipodi="http://sodipodi.sourceforge.net/DTD/sodipodi-0.dtd"
   xmlns:xlink="http://www.w3.org/1999/xlink"
   xmlns="http://www.w3.org/2000/svg"
   xmlns:svg="http://www.w3.org/2000/svg">
  <sodipodi:namedview
     id="namedview7"
     pagecolor="#ffffff"
     bordercolor="#666666"
     borderopacity="1.0"
     inkscape:pageshadow="2"
     inkscape:pageopacity="0.0"
     inkscape:pagecheckerboard="0"
     inkscape:document-units="px"
     showgrid="false"
     units="px"
     inkscape:zoom="8.9999987"
     inkscape:cx="31.277782"
     inkscape:cy="35.555561"
     inkscape:window-width="1920"
     inkscape:window-height="1010"
     inkscape:window-x="0"
     inkscape:window-y="0"
     inkscape:window-maximized="1"
     inkscape:current-layer="svg5" />
  <defs
     id="defs2">
    <linearGradient
       inkscape:collect="always"
       id="linearGradient3598">
      <stop
         style="stop-color:#2b898f;stop-opacity:1"
         offset="0"
         id="stop3594" />
      <stop
         style="stop-color:#5bdbc1;stop-opacity:1"
         offset="1"
         id="stop3596" />
    </linearGradient>
    <linearGradient
       inkscape:collect="always"
       id="linearGradient1871">
      <stop
         style="stop-color:#ffffff;stop-opacity:1;"
         offset="0"
         id="stop1867" />
      <stop
         style="stop-color:#ffffff;stop-opacity:0.1"
         offset="0.12"
         id="stop2515" />
      <stop
         style="stop-color:#ffffff;stop-opacity:0.102"
         offset="0.89999998"
         id="stop2581" />
      <stop
         style="stop-color:#ffffff;stop-opacity:0.502"
         offset="1"
         id="stop1869" />
    </linearGradient>
    <linearGradient
       inkscape:collect="always"
       xlink:href="#linearGradient1871"
       id="linearGradient1873"
       x1="17.222656"
       y1="3.5"
       x2="17.222656"
       y2="44.466438"
       gradientUnits="userSpaceOnUse"
       gradientTransform="matrix(0.26458333,0,0,0.26458333,0,-0.13229166)" />
    <linearGradient
       inkscape:collect="always"
       xlink:href="#linearGradient3598"
       id="linearGradient3600"
       x1="0"
       y1="0"
       x2="0"
       y2="12.7"
       gradientUnits="userSpaceOnUse" />
  </defs>
  <path
     id="rect3143"
     style="opacity:0.1;fill:#000000;fill-opacity:1;stroke-width:0.264583"
     d="m 4.5160033,1.0583334 c -3.60405388,0 -4.1191283,0.5137855 -4.1191283,4.1144775 v 2.883545 c 0,3.6006791 0.51507442,4.1144791 4.1191283,4.1144791 h 3.6679933 c 3.6040544,0 4.1191284,-0.5138 4.1191284,-4.1144791 v -2.883545 c 0,-3.600692 -0.515074,-4.1144775 -4.1191284,-4.1144775 z" />
  <path
     style="display:inline;fill:url(#linearGradient3600);fill-opacity:1;stroke:none;stroke-width:0.0992187;stroke-linecap:round;stroke-linejoin:round;stroke-miterlimit:4;stroke-dasharray:none;stroke-dashoffset:0;stroke-opacity:1;enable-background:new"
     d="m 8.1839962,0.66145835 c 3.6040548,0 4.1191298,0.51378545 4.1191298,4.11447755 v 2.883545 c 0,3.6006781 -0.515075,4.1144781 -4.1191298,4.1144781 H 4.5160033 c -3.604054,0 -4.1191283,-0.5138 -4.1191283,-4.1144781 v -2.883545 c 0,-3.6006921 0.5150743,-4.11447755 4.1191283,-4.11447755 z"
     id="rect877"
     inkscape:connector-curvature="0"
     sodipodi:nodetypes="sssssssss" />
  <rect
     style="fill:#313131;fill-opacity:1;stroke-width:0.264583;stroke-linejoin:round"
     id="rect10357"
     width="0.52916664"
     height="0.52916664"
     x="6.0854168"
     y="10.054167"
     ry="0.13229166" />
  <rect
     style="fill:#313131;fill-opacity:1;stroke-width:0.264583;stroke-linejoin:round"
     id="rect10608"
     width="0.5291667"
     height="0.52916622"
     x="6.0854168"
     y="10.583333"
     ry="0.13229166" />
  <rect
     style="fill:#313131;fill-opacity:1;stroke-width:0.264583;stroke-linejoin:round"
     id="rect10712"
     width="0.5291667"
     height="0.52916622"
     x="6.0854168"
     y="11.112499"
     ry="0.13229166" />
  <path
     id="path24"
     d="m 3.3734375,4.2333333 c -1.0022417,0 -2.9765625,0.4252971 -2.9765625,0.4252971 v 0.2645833 c 0,0 1.9743208,-0.4252971 2.9765625,-0.4252971 2.0044833,0 3.9481248,0.8505942 5.9526082,0.8505942 1.0022413,0 2.9765623,-0.4252971 2.9765623,-0.4252971 V 4.6586304 c 0,0 -1.974321,0.4252971 -2.9765623,0.4252971 -2.0044834,2e-7 -3.9481249,-0.8505942 -5.9526082,-0.8505942 z"
     style="opacity:0.3;fill:#ffffff;stroke-width:0.264583"
     sodipodi:nodetypes="sccssccss" />
  <path
     id="path9606"
     style="opacity:0.2;fill:#81e9c9;fill-opacity:1;stroke-width:0.264583"
     d="M 12.75,16 C 8.9634478,16 1.5076582,17.606193 1.5019531,17.607422 1.5014553,17.756322 1.5,17.898992 1.5,18.050781 V 28.949219 C 1.5,42.558081 3.446738,44.5 17.068359,44.5 h 13.863282 c 13.532606,0 15.540715,-1.922168 15.566406,-15.291016 V 17.636719 c -3.1e-5,-0.0099 3.3e-5,-0.01946 0,-0.0293 0,0 -7.461997,1.607422 -11.25,1.607422 C 27.672048,19.214844 20.325999,16 12.75,16 Z"
     transform="scale(0.26458333)"
     sodipodi:nodetypes="scsssscccss" />
  <path
     id="rect10860"
     style="opacity:0.3;fill:#000000;fill-opacity:1;stroke-width:0.264583;stroke-linejoin:round"
     d="M 6.2063394,2.1170582 C 6.0000882,2.1215382 5.9213583,2.1663393 5.8869791,2.46174 l -0.014986,0.1193726 c -0.034465,0.2189639 -0.0414,0.317896 -0.2485636,0.3715534 -0.013891,0.0031 -0.027527,0.00653 -0.041341,0.00982 -0.0031,6.35e-4 -0.00618,0.00144 -0.0093,0.00207 C 5.5206545,2.977142 5.468853,2.991235 5.4177591,3.006414 l 5.17e-4,-5.167e-4 c -0.00857,0.00292 -0.016165,0.00522 -0.024288,0.00775 -0.00775,0.00238 -0.015528,0.00429 -0.023255,0.00672 -0.029091,0.00816 -0.049618,0.00754 -0.073381,0.010335 a 3.132402,3.1345187 0 0 0 -1.037146,0.5870443 c -0.022251,0.036359 -0.056736,0.074463 -0.10697,0.1183391 l 0.00517,-0.00103 c -0.040883,0.038751 -0.080622,0.078489 -0.1193726,0.1193723 l 0.00103,-0.00517 C 3.8672984,4.0470547 3.7811601,4.0021752 3.5584391,3.9164315 L 3.4478515,3.8699227 C 3.3503475,3.8278008 3.2774596,3.8066254 3.2194418,3.8048104 3.0918015,3.8008104 3.0350285,3.8907185 2.9409056,4.0580251 2.7986101,4.2982773 2.7585961,4.3879793 3.0313394,4.5908089 l 0.096118,0.072347 c 0.1730534,0.1398561 0.2558002,0.1949101 0.197404,0.4030763 -0.00238,0.00773 -0.00488,0.015497 -0.00723,0.023254 -0.00265,0.00811 -0.00484,0.016245 -0.00775,0.024805 l 5.168e-4,-5.167e-4 c -0.015214,0.051252 -0.02924,0.1027266 -0.041858,0.1550291 -5.292e-4,0.00335 -0.00128,0.00604 -0.00207,0.0093 -0.00328,0.013814 -0.00672,0.027458 -0.00982,0.041341 -0.010742,0.04145 -0.024818,0.069931 -0.039791,0.097152 a 3.132402,3.1345187 0 0 0 -0.060461,0.5829102 3.132402,3.1345187 0 0 0 0.05581,0.5694743 c 0.017542,0.028919 0.032358,0.06238 0.044442,0.1090372 0.0031,0.013891 0.00654,0.028047 0.00982,0.041858 7.938e-4,0.0031 0.00154,0.00615 0.00207,0.0093 0.012594,0.052139 0.026679,0.1039357 0.041858,0.1550292 l -5.168e-4,-5.168e-4 c 0.00291,0.00857 0.00521,0.016192 0.00775,0.024288 0.00238,0.00775 0.00483,0.015528 0.00723,0.023255 0.058399,0.2081763 -0.024368,0.2632279 -0.197404,0.403076 l -0.095601,0.072864 C 2.7591236,7.6099909 2.7991271,7.6996902 2.9414226,7.9399586 3.0783392,8.1833139 3.1358231,8.2628553 3.4478515,8.1280607 L 3.5584391,8.0810353 C 3.7811628,7.9952923 3.8673169,7.950929 4.0400634,8.1487313 l -0.00103,-0.00517 c 0.038751,0.040883 0.078489,0.080622 0.1193726,0.1193726 l -0.00517,-0.00103 c 0.049451,0.043193 0.083643,0.080935 0.1059365,0.1167889 a 3.132402,3.1345187 0 0 0 1.0490317,0.5896279 c 0.020849,0.00304 0.037726,0.00185 0.062528,0.00879 0.00773,0.00238 0.015503,0.00488 0.023255,0.00723 0.0081,0.00265 0.015715,0.00482 0.024288,0.00775 l -5.17e-4,-5.167e-4 c 0.050938,0.015134 0.1025406,0.029301 0.1545127,0.041858 0.00336,5.292e-4 0.00656,0.00128 0.00982,0.00207 0.013811,0.00328 0.027459,0.00672 0.041341,0.00982 0.2071661,0.053652 0.2141016,0.1525897 0.2485636,0.3715536 l 0.014986,0.1193726 c 0.039272,0.3376091 0.1367726,0.3478038 0.4159954,0.3446817 0.2792148,0.0031 0.3767045,-0.0071 0.4159951,-0.3446817 L 6.7339558,9.416871 c 0.034465,-0.2189612 0.040881,-0.3178961 0.2480469,-0.3715536 0.013891,-0.0031 0.028047,-0.00654 0.041858,-0.00982 0.0031,-5.292e-4 0.00567,-0.00128 0.00878,-0.00207 h 5.168e-4 c 0.052136,-0.012594 0.1039331,-0.026676 0.1550294,-0.041858 l -5.167e-4,5.167e-4 c 0.00857,-0.00291 0.016165,-0.00521 0.024288,-0.00775 0.00775,-0.00238 0.015528,-0.0048 0.023255,-0.00723 0.01106,-0.0031 0.017674,-0.00132 0.027905,-0.00362 A 3.132402,3.1345187 0 0 0 8.4496134,8.2655199 c 0.00159,-0.00132 0.00159,-0.00238 0.0031,-0.00362 l -0.00517,0.00103 c 0.040884,-0.038751 0.080622,-0.078489 0.1193726,-0.1193726 l -0.00103,0.00517 C 8.7386521,7.9509312 8.8247862,7.9952917 9.0475095,8.0810353 l 0.1105876,0.047025 C 9.4701203,8.2628522 9.5281212,8.1833144 9.665043,7.9399586 9.8073386,7.6997037 9.8468356,7.6100039 9.5740925,7.4071746 L 9.4784912,7.3343107 C 9.3054404,7.1944546 9.2226883,7.1394009 9.2810871,6.9312347 c 0.00238,-0.00773 0.00485,-0.015503 0.00723,-0.023255 0.00265,-0.0081 0.00484,-0.015715 0.00775,-0.024288 l -5.17e-4,5.168e-4 c 0.00931,-0.031353 0.017477,-0.063351 0.025838,-0.095085 l -0.00465,-0.00258 A 3.132402,3.1345187 0 0 0 9.421647,5.9995085 3.132402,3.1345187 0 0 0 9.3177774,5.2062752 l 0.00258,-0.00155 c -0.00807,-0.03044 -0.015887,-0.060863 -0.024805,-0.09095 l 5.17e-4,5.167e-4 c -0.00294,-0.00856 -0.00524,-0.016695 -0.00775,-0.024805 -0.00238,-0.00776 -0.0048,-0.015523 -0.00723,-0.023254 C 9.222688,4.8580555 9.305455,4.8030042 9.4784912,4.663156 L 9.5740922,4.590809 C 9.8468226,4.3879909 9.8068219,4.2982932 9.6645263,4.0580251 9.5703955,3.8907185 9.5141498,3.8008178 9.3865069,3.8048104 c -0.058018,0.00183 -0.1309055,0.02299 -0.2284098,0.065112 L 9.0475095,3.9164315 C 8.8015634,3.9743067 8.593054,3.9058852 8.4723509,3.7572682 A 3.132402,3.1345187 0 0 0 7.2481362,3.0224293 c -0.00495,-0.00127 -0.00779,-6.422e-4 -0.012919,-0.00207 -0.00773,-0.00243 -0.015503,-0.00434 -0.023255,-0.00672 -0.0081,-0.00254 -0.015715,-0.00483 -0.024288,-0.00775 l 5.167e-4,5.167e-4 C 7.1370956,2.9912267 7.0852984,2.9771379 7.0331623,2.9645517 h -5.168e-4 c -0.00312,-6.35e-4 -0.00569,-0.00144 -0.00878,-0.00207 -0.013811,-0.00329 -0.027459,-0.00672 -0.041341,-0.00982 C 6.7753491,2.8990088 6.7684205,2.8000765 6.7339558,2.5811126 L 6.7189696,2.46174 C 6.6796498,2.1241318 6.5821763,2.1139626 6.3029745,2.1170582 c -0.034902,-3.889e-4 -0.06717,-6.403e-4 -0.096635,0 z" />
  <path
     id="rect1051"
     style="fill:#313131;fill-opacity:1;stroke-width:0.264583;stroke-linejoin:round"
     d="M 6.2058921,1.8524567 C 5.9996409,1.8569367 5.920911,1.9017377 5.8865318,2.1971384 l -0.014986,0.1193725 c -0.034465,0.2189639 -0.0414,0.3178961 -0.2485636,0.3715536 -0.013891,0.0031 -0.027527,0.00653 -0.041341,0.00982 -0.0031,6.35e-4 -0.00618,0.00143 -0.0093,0.00206 -0.052134,0.012586 -0.1039357,0.026679 -0.1550294,0.041858 l 5.259e-4,-5.291e-4 c -0.00857,0.00292 -0.016166,0.00522 -0.024289,0.00775 -0.00775,0.00238 -0.015528,0.00429 -0.023254,0.00672 -0.029091,0.00816 -0.049618,0.00754 -0.073381,0.010335 A 3.132402,3.1345187 0 0 0 4.2597576,3.3531402 c -0.022251,0.036359 -0.056736,0.074463 -0.1069703,0.1183392 l 0.00517,-0.00103 c -0.040883,0.038751 -0.080622,0.078489 -0.1193726,0.1193726 l 0.00103,-0.00517 C 3.8668497,3.7824545 3.7807115,3.7375748 3.5579905,3.651831 L 3.4474029,3.605322 C 3.3498989,3.5632 3.2770109,3.542025 3.2189931,3.54021 3.0913528,3.53621 3.0345799,3.626118 2.940457,3.7934244 2.7981614,4.0336767 2.7581477,4.1233789 3.030891,4.3262085 l 0.096118,0.072347 c 0.1730533,0.1398561 0.2558002,0.1949098 0.197404,0.403076 -0.00238,0.00773 -0.00488,0.015497 -0.00723,0.023254 -0.00265,0.00811 -0.00484,0.016245 -0.00775,0.024805 l 5.292e-4,-5.291e-4 c -0.015214,0.051252 -0.02924,0.1027263 -0.041858,0.1550291 -5.291e-4,0.00335 -0.00127,0.00604 -0.00206,0.0093 -0.00328,0.013814 -0.00672,0.027458 -0.00982,0.041341 -0.010742,0.04145 -0.024818,0.069931 -0.039791,0.097152 a 3.132402,3.1345187 0 0 0 -0.060462,0.5829101 3.132402,3.1345187 0 0 0 0.055811,0.5694744 c 0.017542,0.028919 0.032358,0.06238 0.044442,0.1090372 0.0031,0.013891 0.00654,0.028047 0.00982,0.041858 7.937e-4,0.0031 0.00153,0.00615 0.00206,0.0093 0.012594,0.052139 0.026679,0.1039355 0.041858,0.1550291 L 3.309433,6.6190632 c 0.00291,0.00857 0.00521,0.016193 0.00775,0.024289 0.00238,0.00775 0.00483,0.015528 0.00723,0.023254 C 3.382812,6.8747827 3.300045,6.929834 3.127009,7.0696822 L 3.031408,7.1425462 C 2.7586755,7.3453625 2.7986786,7.4350618 2.940974,7.6753302 3.0778906,7.9186857 3.1353748,7.9982269 3.4474032,7.8634323 L 3.5579908,7.8164063 C 3.7807144,7.7306633 3.8668686,7.6862999 4.039615,7.8841023 l -0.00103,-0.00517 c 0.038751,0.040883 0.078489,0.080622 0.1193726,0.1193726 l -0.00517,-0.00103 c 0.049451,0.043193 0.083643,0.080935 0.1059368,0.1167889 a 3.132402,3.1345187 0 0 0 1.0490317,0.5896279 c 0.020849,0.00304 0.037726,0.00185 0.062528,0.00878 0.00773,0.00238 0.015502,0.00488 0.023254,0.00723 0.0081,0.00265 0.015716,0.00482 0.024289,0.00775 l -5.292e-4,-5.292e-4 c 0.050938,0.015134 0.1025406,0.029301 0.1545127,0.041858 0.00336,5.292e-4 0.00656,0.00127 0.00982,0.00206 0.013811,0.00328 0.027459,0.00672 0.041341,0.00982 0.2071661,0.053652 0.2141016,0.1525897 0.2485636,0.3715536 l 0.014986,0.1193726 c 0.039272,0.3376087 0.1367724,0.3478037 0.4159951,0.3446817 0.2792148,0.0031 0.3767048,-0.0071 0.4159954,-0.3446817 l 0.014986,-0.1193726 c 0.034465,-0.2189612 0.040881,-0.3178961 0.2480468,-0.3715536 0.013891,-0.0031 0.028047,-0.00654 0.041858,-0.00982 0.0031,-5.291e-4 0.00566,-0.00127 0.00878,-0.00206 h 5.292e-4 c 0.052136,-0.012594 0.1039331,-0.026676 0.1550294,-0.041858 l -5.291e-4,5.292e-4 c 0.00857,-0.00291 0.016166,-0.00521 0.024289,-0.00775 0.00775,-0.00238 0.015528,-0.0048 0.023254,-0.00723 0.01106,-0.0031 0.017674,-0.00132 0.027905,-0.00362 A 3.132402,3.1345187 0 0 0 8.4491541,8.0008991 c 0.00159,-0.00132 0.00159,-0.00238 0.0031,-0.00362 l -0.00517,0.00103 c 0.040884,-0.038751 0.080622,-0.078489 0.1193726,-0.1193726 l -0.00103,0.00517 C 8.7381934,7.6863064 8.8243291,7.7306693 9.0470527,7.8164128 l 0.1105876,0.047026 C 9.4696634,7.9982303 9.5276643,7.918692 9.6645862,7.6753362 9.8068817,7.4350813 9.8463787,7.3453817 9.5736357,7.1425522 L 9.4780343,7.0696883 C 9.3049836,6.9298322 9.2222314,6.8747785 9.2806303,6.6666123 c 0.00238,-0.00773 0.00485,-0.015502 0.00723,-0.023254 0.00265,-0.0081 0.00484,-0.015716 0.00775,-0.024289 l -5.232e-4,5.291e-4 c 0.00931,-0.031353 0.017478,-0.063351 0.025839,-0.095085 l -0.00465,-0.00259 A 3.132402,3.1345187 0 0 0 9.421178,5.7348889 3.132402,3.1345187 0 0 0 9.3173084,4.9416557 l 0.00259,-0.00156 c -0.00807,-0.03044 -0.015888,-0.060862 -0.024805,-0.09095 l 5.292e-4,5.292e-4 c -0.00294,-0.00856 -0.00524,-0.016695 -0.00775,-0.024805 -0.00238,-0.00776 -0.0048,-0.015523 -0.00723,-0.023254 -0.058399,-0.2081768 0.024368,-0.2632279 0.197404,-0.4030761 l 0.095601,-0.072347 C 9.8463777,4.1233748 9.8063745,4.0336755 9.664079,3.7934072 9.5699482,3.6261008 9.5137025,3.5362001 9.3860596,3.5401927 c -0.058018,0.00183 -0.1309055,0.02299 -0.2284098,0.065112 L 9.0470622,3.6518138 C 8.8011161,3.7096888 8.5926065,3.6412675 8.4719035,3.4926505 A 3.132402,3.1345187 0 0 0 7.2476889,2.7578277 c -0.00495,-0.00127 -0.00779,-6.35e-4 -0.01292,-0.00206 -0.00773,-0.00243 -0.015502,-0.00434 -0.023254,-0.00672 -0.0081,-0.00254 -0.015716,-0.00483 -0.024289,-0.00775 l 5.292e-4,5.292e-4 C 7.1366592,2.7266439 7.0848622,2.7125514 7.0327261,2.6999652 h -5.292e-4 c -0.00312,-6.35e-4 -0.00569,-0.00143 -0.00878,-0.00206 -0.013811,-0.00329 -0.027459,-0.00672 -0.041341,-0.00982 C 6.7749055,2.6344279 6.7679726,2.5354931 6.733508,2.3165292 L 6.718522,2.1971566 C 6.6792023,1.8595484 6.5817285,1.8493793 6.3025266,1.8524749 c -0.034902,-3.889e-4 -0.06717,-6.403e-4 -0.096635,0 z" />
  <path
     id="rect11032"
     style="opacity:0.6;fill:#ffffff;fill-opacity:1;stroke-width:0.999999;stroke-linejoin:round"
     d="M 23.453125 7.0019531 C 22.673593 7.0188854 22.376031 7.1882124 22.246094 8.3046875 L 22.189453 8.7558594 C 22.059192 9.5834391 22.032981 9.9573566 21.25 10.160156 C 21.197499 10.171873 21.14596 10.184831 21.09375 10.197266 C 21.082033 10.199665 21.070386 10.202697 21.058594 10.205078 C 20.861552 10.252647 20.665766 10.305912 20.472656 10.363281 L 20.474609 10.361328 C 20.442219 10.372364 20.413514 10.381063 20.382812 10.390625 C 20.353522 10.39962 20.324123 10.406831 20.294922 10.416016 C 20.184972 10.446857 20.107391 10.444514 20.017578 10.455078 A 11.839 11.847 0 0 0 16.097656 12.673828 C 16.013558 12.811248 15.883221 12.955262 15.693359 13.121094 L 15.712891 13.117188 C 15.558372 13.263647 15.408178 13.413838 15.261719 13.568359 L 15.265625 13.548828 C 14.612655 14.296427 14.287093 14.126805 13.445312 13.802734 L 13.027344 13.626953 C 12.658825 13.467752 12.383342 13.387719 12.164062 13.380859 C 11.681643 13.365741 11.467068 13.705552 11.111328 14.337891 C 10.721229 14.996535 10.537161 15.356655 10.857422 15.796875 C 10.926348 15.658189 11.00877 15.51105 11.111328 15.337891 C 11.467068 14.70555 11.681642 14.365741 12.164062 14.380859 C 12.383342 14.387719 12.658825 14.467752 13.027344 14.626953 L 13.445312 14.802734 C 14.287094 15.126805 14.612653 15.296429 15.265625 14.548828 L 15.261719 14.568359 C 15.408178 14.41384 15.558372 14.263648 15.712891 14.117188 L 15.693359 14.121094 C 15.883221 13.955262 16.013554 13.811248 16.097656 13.673828 A 11.839 11.847 0 0 1 20.017578 11.455078 C 20.107391 11.444514 20.184972 11.446857 20.294922 11.416016 C 20.324123 11.406831 20.353521 11.39962 20.382812 11.390625 C 20.413514 11.381063 20.442219 11.372364 20.474609 11.361328 L 20.472656 11.363281 C 20.665766 11.305912 20.861552 11.252647 21.058594 11.205078 C 21.070386 11.202697 21.082033 11.199666 21.09375 11.197266 C 21.14596 11.184831 21.197499 11.171873 21.25 11.160156 C 22.032982 10.957357 22.059192 10.583439 22.189453 9.7558594 L 22.246094 9.3046875 C 22.376031 8.188212 22.673593 8.0188854 23.453125 8.0019531 C 23.564488 7.9995331 23.686446 8.0004833 23.818359 8.0019531 C 24.873611 7.9902532 25.242015 8.028688 25.390625 9.3046875 L 25.447266 9.7558594 C 25.577526 10.583439 25.603654 10.957264 26.386719 11.160156 C 26.439186 11.171873 26.49077 11.184831 26.542969 11.197266 C 26.55461 11.199647 26.56438 11.202678 26.576172 11.205078 L 26.578125 11.205078 C 26.775175 11.252648 26.970946 11.305887 27.164062 11.363281 L 27.162109 11.361328 C 27.194511 11.372364 27.223292 11.381025 27.253906 11.390625 C 27.283205 11.39962 27.312581 11.406831 27.341797 11.416016 C 27.361186 11.421401 27.371916 11.419028 27.390625 11.423828 A 11.839 11.847 0 0 1 32.017578 14.201172 C 32.473778 14.762874 33.261846 15.021475 34.191406 14.802734 L 34.609375 14.626953 C 34.977895 14.467752 35.253376 14.387776 35.472656 14.380859 C 35.955086 14.36577 36.167668 14.705552 36.523438 15.337891 C 36.625995 15.511061 36.70842 15.658182 36.777344 15.796875 C 37.0976 15.356673 36.913536 14.996578 36.523438 14.337891 C 36.167668 13.705552 35.955086 13.365769 35.472656 13.380859 C 35.253376 13.387776 34.977895 13.467752 34.609375 13.626953 L 34.191406 13.802734 C 33.261846 14.021474 32.473778 13.762874 32.017578 13.201172 A 11.839 11.847 0 0 0 27.390625 10.423828 C 27.371916 10.419028 27.361186 10.421401 27.341797 10.416016 C 27.312581 10.406831 27.283205 10.39962 27.253906 10.390625 C 27.223292 10.381025 27.194511 10.372364 27.162109 10.361328 L 27.164062 10.363281 C 26.970945 10.305897 26.775175 10.252648 26.578125 10.205078 L 26.576172 10.205078 C 26.56438 10.202678 26.554647 10.199647 26.542969 10.197266 C 26.49077 10.184831 26.439186 10.171873 26.386719 10.160156 C 25.603713 9.9573573 25.577526 9.5834395 25.447266 8.7558594 L 25.390625 8.3046875 C 25.242015 7.028688 24.873611 6.9902532 23.818359 7.0019531 C 23.686446 7.0004833 23.564489 6.9995331 23.453125 7.0019531 z M 12.517578 18.291016 C 12.51363 18.304002 12.510426 18.316646 12.505859 18.330078 L 12.507812 18.328125 C 12.450312 18.521833 12.397299 18.716384 12.349609 18.914062 C 12.34761 18.926724 12.344783 18.936897 12.341797 18.949219 C 12.3294 19.001429 12.316403 19.052998 12.304688 19.105469 C 12.264088 19.26213 12.210888 19.369774 12.154297 19.472656 A 11.839 11.847 0 0 0 11.925781 21.675781 A 11.839 11.847 0 0 0 11.949219 22.273438 A 11.839 11.847 0 0 1 12.154297 20.472656 C 12.210888 20.369774 12.264088 20.26213 12.304688 20.105469 C 12.316404 20.052998 12.3294 20.001429 12.341797 19.949219 C 12.344783 19.936897 12.34761 19.926724 12.349609 19.914062 C 12.397299 19.716383 12.450311 19.521833 12.507812 19.328125 L 12.505859 19.330078 C 12.516858 19.297725 12.525141 19.26698 12.535156 19.236328 C 12.544038 19.20701 12.553505 19.177653 12.5625 19.148438 C 12.672593 18.755986 12.649101 18.507095 12.517578 18.291016 z M 35.119141 18.291016 C 34.987608 18.507094 34.96412 18.755965 35.074219 19.148438 C 35.083403 19.177657 35.092567 19.206999 35.101562 19.236328 C 35.111049 19.26698 35.119748 19.297725 35.130859 19.330078 L 35.128906 19.328125 C 35.162608 19.44184 35.192155 19.556826 35.222656 19.671875 L 35.212891 19.677734 A 11.839 11.847 0 0 1 35.582031 22.320312 A 11.839 11.847 0 0 0 35.605469 21.675781 A 11.839 11.847 0 0 0 35.212891 18.677734 L 35.222656 18.671875 C 35.192155 18.556826 35.162608 18.441843 35.128906 18.328125 L 35.130859 18.330078 C 35.126246 18.316646 35.123151 18.304002 35.119141 18.291016 z M 12.517578 26.056641 C 12.385214 26.273079 12.143404 26.456423 11.816406 26.720703 L 11.455078 26.996094 C 10.615784 27.620231 10.5608 27.96141 10.859375 28.556641 C 10.980304 28.388087 11.168273 28.209375 11.455078 27.996094 L 11.816406 27.720703 C 12.470401 27.192143 12.783221 26.984074 12.5625 26.197266 C 12.553429 26.168065 12.544152 26.138666 12.535156 26.109375 C 12.529619 26.091725 12.523129 26.074131 12.517578 26.056641 z M 35.119141 26.056641 C 35.113664 26.074127 35.10734 26.091716 35.101562 26.109375 C 35.092605 26.138674 35.083214 26.16805 35.074219 26.197266 C 34.853498 26.984036 35.166263 27.192113 35.820312 27.720703 L 36.181641 27.996094 C 36.469769 28.210365 36.658277 28.389369 36.779297 28.558594 C 37.07824 27.962467 37.021666 27.620792 36.181641 26.996094 L 35.820312 26.720703 C 35.493288 26.456408 35.251498 26.27308 35.119141 26.056641 z "
     transform="scale(0.26458333)" />
  <path
     d="m 3.3734375,7.4083334 c -1.0022417,0 -2.9765625,0.425297 -2.9765625,0.425297 v 0.2645834 c 0,0 1.9743208,-0.4252971 2.9765625,-0.4252971 2.0044833,0 3.9481247,0.8505942 5.9526083,0.8505942 1.0022412,0 2.9765622,-0.4252971 2.9765622,-0.4252971 V 7.8336304 c 0,0 -1.974321,0.4252971 -2.9765622,0.4252971 -2.0044836,0 -3.948125,-0.8505941 -5.9526083,-0.8505941 z"
     style="opacity:0.3;fill:#ffffff;stroke-width:0.0700042"
     id="path9369" />
  <path
     d="m 3.3734375,6.3499999 c -1.0022417,0 -2.97656253,0.4252971 -2.97656253,0.4252971 v 0.2645833 c 0,0 1.97432083,-0.425297 2.97656253,-0.425297 2.0044833,0 3.9481247,0.8505941 5.9526083,0.8505941 1.0022412,0 2.9765622,-0.4252971 2.9765622,-0.4252971 V 6.775297 c 0,0 -1.974321,0.4252971 -2.9765622,0.4252971 -2.0044836,0 -3.948125,-0.8505942 -5.9526083,-0.8505942 z"
     style="opacity:0.3;fill:#ffffff;stroke-width:0.0700042"
     id="path9211" />
  <path
     d="m 3.3734375,5.2916667 c -1.0022417,0 -2.97656247,0.4252971 -2.97656247,0.4252971 v 0.2645833 c 0,0 1.97432077,-0.425297 2.97656247,-0.425297 2.0044833,0 3.9481247,0.8505941 5.9526083,0.8505941 1.0022412,0 2.9765622,-0.4252971 2.9765622,-0.4252971 V 5.7169638 c 0,0 -1.974321,0.4252971 -2.9765622,0.4252971 -2.0044836,0 -3.948125,-0.8505942 -5.9526083,-0.8505942 z"
     style="opacity:0.3;fill:#ffffff;stroke-width:0.0700042"
     id="path9053" />
  <path
     id="path7104"
     style="opacity:0.2;fill:#81e9c9;fill-opacity:1;stroke-width:0.264583"
     d="M 12.75,20 C 8.9619987,20 1.5,21.607422 1.5,21.607422 v 7.341797 C 1.5,42.558081 3.446738,44.5 17.068359,44.5 h 13.863282 c 13.51922,0 15.53681,-1.918953 15.566406,-15.251953 v -7.640625 c 0,0 -7.462001,1.607422 -11.25,1.607422 C 27.672093,23.214844 20.325999,20 12.75,20 Z"
     sodipodi:nodetypes="scsssccss"
     transform="scale(0.26458333)" />
  <path
     id="rect7734"
     style="opacity:0.2;fill:#81e9c9;fill-opacity:1;stroke-width:0.999999;stroke-linejoin:round"
     d="M 12.75,24 C 8.9619987,24 1.5,25.607422 1.5,25.607422 v 3.341797 C 1.5,42.558081 3.4467381,44.5 17.068359,44.5 h 13.863282 c 13.502488,0 15.531913,-1.914846 15.566406,-15.203125 v -3.689453 c 0,0 -7.462001,1.607422 -11.25,1.607422 C 27.672093,27.214844 20.325999,24 12.75,24 Z"
     sodipodi:nodetypes="scsssccss"
     transform="scale(0.26458333)" />
  <path
     id="path8344"
     style="opacity:0.2;fill:#81e9c9;fill-opacity:1;stroke-width:0.264583"
     d="M 12.75,28 C 8.9674012,28 1.5251378,29.60285 1.5039062,29.607422 1.5699326,42.613582 3.6722938,44.5 17.068359,44.5 h 13.863282 c 13.396068,0 15.498426,-1.886418 15.564453,-14.892578 -0.01063,0.0023 -7.462749,1.607422 -11.248047,1.607422 C 27.672048,31.214844 20.325999,28 12.75,28 Z"
     sodipodi:nodetypes="scsscss"
     transform="scale(0.26458333)" />
  <path
     id="rect1565"
     style="opacity:1;fill:url(#linearGradient1873);fill-opacity:1;stroke-width:0.264583"
     d="m 4.5568277,0.79374997 c -3.5239635,0 -4.02766104,0.50133123 -4.02766104,4.01629243 v 2.8153318 c 0,3.5149478 0.50369754,4.0162928 4.02766104,4.0162928 h 3.5863445 c 3.5239638,0 4.0276608,-0.501345 4.0276608,-4.0162928 V 4.8100424 c 0,-3.5149612 -0.503697,-4.01629243 -4.0276608,-4.01629243 z m 0.081649,0.26458343 h 3.4230468 c 3.3637835,0 3.8447265,0.4769388 3.8447265,3.8204385 v 2.6778728 c 0,3.3434873 -0.480943,3.8204393 -3.8447265,3.8204393 h -3.423047 c -3.3637834,0 -3.84472651,-0.476952 -3.84472651,-3.8204393 V 4.8787719 c 0,-3.3434997 0.48094311,-3.8204385 3.84472671,-3.8204385 z" />
  <path
     id="rect1370"
     style="opacity:0.4;fill:#000000;fill-opacity:1;stroke-width:0.264583"
     d="m 4.4751788,0.52916667 c -3.68414336,0 -4.21059547,0.52624033 -4.21059547,4.21266273 v 2.9517578 c 0,3.6864088 0.52645211,4.2126628 4.21059547,4.2126628 H 8.224821 c 3.684144,0 4.210596,-0.526254 4.210596,-4.2126628 V 4.7418294 c 0,-3.6864224 -0.526452,-4.21266273 -4.210596,-4.21266273 z m 0.081649,0.2645833 h 3.5863445 c 3.5239637,0 4.0276607,0.50133143 4.0276607,4.01629243 v 2.8153318 c 0,3.5149478 -0.503697,4.0162928 -4.0276607,4.0162928 H 4.5568277 c -3.5239637,0 -4.02766104,-0.501345 -4.02766104,-4.0162928 V 4.8100424 c 0,-3.514961 0.50369724,-4.01629243 4.02766114,-4.01629243 z" />
</svg>
