<?xml version="1.0" encoding="UTF-8" standalone="no"?>
<!-- Created with Inkscape (http://www.inkscape.org/) -->

<svg
   width="48"
   height="48"
   viewBox="0 0 12.7 12.7"
   version="1.1"
   id="svg5"
   inkscape:version="1.1.2 (0a00cf5339, 2022-02-04)"
   sodipodi:docname="lastfm.svg"
   xmlns:inkscape="http://www.inkscape.org/namespaces/inkscape"
   xmlns:sodipodi="http://sodipodi.sourceforge.net/DTD/sodipodi-0.dtd"
   xmlns:xlink="http://www.w3.org/1999/xlink"
   xmlns="http://www.w3.org/2000/svg"
   xmlns:svg="http://www.w3.org/2000/svg">
  <sodipodi:namedview
     id="namedview7"
     pagecolor="#ffffff"
     bordercolor="#666666"
     borderopacity="1.0"
     inkscape:pageshadow="2"
     inkscape:pageopacity="0.0"
     inkscape:pagecheckerboard="0"
     inkscape:document-units="px"
     showgrid="false"
     units="px"
     inkscape:zoom="12.050278"
     inkscape:cx="8.5060278"
     inkscape:cy="27.468246"
     inkscape:window-width="1920"
     inkscape:window-height="998"
     inkscape:window-x="0"
     inkscape:window-y="0"
     inkscape:window-maximized="1"
     inkscape:current-layer="svg5" />
  <defs
     id="defs2">
    <linearGradient
       inkscape:collect="always"
       id="linearGradient3598">
      <stop
         style="stop-color:#da1636;stop-opacity:1"
         offset="0"
         id="stop3594" />
      <stop
         style="stop-color:#f22c42;stop-opacity:1"
         offset="1"
         id="stop3596" />
    </linearGradient>
    <linearGradient
       inkscape:collect="always"
       id="linearGradient1871">
      <stop
         style="stop-color:#ffffff;stop-opacity:1;"
         offset="0"
         id="stop1867" />
      <stop
         style="stop-color:#ffffff;stop-opacity:0.1"
         offset="0.12"
         id="stop2515" />
      <stop
         style="stop-color:#ffffff;stop-opacity:0.102"
         offset="0.89999998"
         id="stop2581" />
      <stop
         style="stop-color:#ffffff;stop-opacity:0.502"
         offset="1"
         id="stop1869" />
    </linearGradient>
    <linearGradient
       inkscape:collect="always"
       xlink:href="#linearGradient1871"
       id="linearGradient1873"
       x1="17.222656"
       y1="3.5"
       x2="17.222656"
       y2="44.466438"
       gradientUnits="userSpaceOnUse"
       gradientTransform="matrix(0.26458333,0,0,0.26458333,0,-0.13229166)" />
    <linearGradient
       inkscape:collect="always"
       xlink:href="#linearGradient3598"
       id="linearGradient3600"
       x1="2.8876786"
       y1="0.5291667"
       x2="9.2178078"
       y2="11.792911"
       gradientUnits="userSpaceOnUse" />
  </defs>
  <path
     id="rect3143"
     style="opacity:0.1;fill:#000000;fill-opacity:1;stroke-width:0.264583"
     d="m 4.5160033,1.0583334 c -3.60405388,0 -4.1191283,0.5137855 -4.1191283,4.1144775 v 2.883545 c 0,3.6006791 0.51507442,4.1144791 4.1191283,4.1144791 h 3.6679933 c 3.6040544,0 4.1191284,-0.5138 4.1191284,-4.1144791 v -2.883545 c 0,-3.600692 -0.515074,-4.1144775 -4.1191284,-4.1144775 z" />
  <path
     style="display:inline;fill:url(#linearGradient3600);fill-opacity:1;stroke:none;stroke-width:0.0992187;stroke-linecap:round;stroke-linejoin:round;stroke-miterlimit:4;stroke-dasharray:none;stroke-dashoffset:0;stroke-opacity:1;enable-background:new"
     d="m 8.1839962,0.66145835 c 3.6040548,0 4.1191298,0.51378545 4.1191298,4.11447755 v 2.883545 c 0,3.6006781 -0.515075,4.1144781 -4.1191298,4.1144781 H 4.5160033 c -3.604054,0 -4.1191283,-0.5138 -4.1191283,-4.1144781 v -2.883545 c 0,-3.6006921 0.5150743,-4.11447755 4.1191283,-4.11447755 z"
     id="rect877"
     inkscape:connector-curvature="0"
     sodipodi:nodetypes="sssssssss" />
  <path
     id="rect5299"
     style="opacity:0.05;fill:#ffffff;fill-opacity:1;stroke-width:0.999999"
     d="M 1.5 24 L 1.5 28.949219 C 1.5 42.558081 3.4467385 44.5 17.068359 44.5 L 30.931641 44.5 C 44.553264 44.5 46.5 42.558081 46.5 28.949219 L 46.5 24 L 1.5 24 z "
     transform="scale(0.26458333)" />
  <path
     d="M 4.6533331,8.4464514 C 4.5156942,8.4279305 4.2708514,8.348238 4.1075505,8.2696303 3.0435022,7.7597783 2.608342,6.4756495 3.1324287,5.3941387 3.7311543,4.1573968 5.3648241,3.8421193 6.34791,4.7736643 6.6321783,5.0426133 6.7584375,5.2721129 7.1864539,6.2896739 7.6332558,7.3538281 7.7158322,7.5211505 7.8606122,7.6630201 8.0157216,7.813912 8.1594591,7.8647385 8.434467,7.8647385 c 0.451829,0 0.7744883,-0.2792677 0.7744883,-0.6689461 0,-0.3298296 -0.1159351,-0.4354512 -0.7072577,-0.6453716 C 7.6012147,6.2256183 7.3095381,5.9320631 7.3084797,5.3425185 c 0,-0.3144838 0.079671,-0.5241396 0.2821517,-0.7414683 C 7.8812497,4.2908262 8.3825822,4.1883795 8.8262091,4.34242 9.0154629,4.409677 9.411441,4.7601441 9.411441,4.8604741 c 0,0.04871 -0.2294864,0.197485 -0.3567907,0.2327011 -0.067231,0.017462 -0.1251981,-0.00529 -0.2027528,-0.079693 -0.157226,-0.1508919 -0.2636308,-0.197485 -0.451829,-0.197485 -0.324776,0 -0.5262033,0.1953683 -0.5262033,0.5109104 0,0.3144837 0.1281086,0.4208991 0.7681383,0.636905 0.8819358,0.297815 1.1423908,0.5667639 1.1476828,1.1891168 0.0053,0.5376334 -0.236897,0.9254331 -0.7186344,1.1549327 -0.2191624,0.103505 -0.2935288,0.1167606 -0.6514042,0.1167606 -0.5108575,0 -0.7403306,-0.095038 -1.0267421,-0.4177241 C 7.2004768,7.7898349 7.0051323,7.3824295 6.3796838,5.8952595 6.1202889,5.278992 5.7873082,4.9769437 5.2320007,4.8580929 4.9506427,4.798006 4.5589007,4.8538595 4.3034718,4.9883472 4.0543984,5.1185752 3.7762102,5.4124214 3.6449239,5.6811058 3.5364024,5.8992283 3.5260784,5.9603735 3.5260784,6.3397066 c 0,0.3618706 0.014557,0.4476485 0.1053465,0.6461654 0.1376389,0.3031067 0.4084108,0.5831681 0.7061994,0.73406 0.2151936,0.1085321 0.2821517,0.1220523 0.6254486,0.1220523 0.3298031,0 0.4144962,-0.01561 0.611161,-0.1095904 C 5.7986905,7.622777 6.1004372,7.3538281 6.2235214,7.1524008 l 0.064056,-0.1045634 0.1262565,0.2885282 c 0.070408,0.1593585 0.1270503,0.309192 0.1270503,0.3361795 0,0.079693 -0.2853267,0.3401748 -0.5468408,0.5024438 -0.3970338,0.2451364 -0.853096,0.3369733 -1.3401146,0.270801"
     style="fill:#ffffff;stroke-width:0.264583"
     id="path874" />
  <path
     id="rect1370"
     style="opacity:0.4;fill:#000000;fill-opacity:1;stroke-width:0.264583"
     d="m 4.4751788,0.52916667 c -3.68414336,0 -4.21059547,0.52624033 -4.21059547,4.21266273 v 2.9517578 c 0,3.6864088 0.52645211,4.2126628 4.21059547,4.2126628 H 8.224821 c 3.684144,0 4.210596,-0.526254 4.210596,-4.2126628 V 4.7418294 c 0,-3.6864224 -0.526452,-4.21266273 -4.210596,-4.21266273 z m 0.081649,0.2645833 h 3.5863445 c 3.5239637,0 4.0276607,0.50133143 4.0276607,4.01629243 v 2.8153318 c 0,3.5149478 -0.503697,4.0162928 -4.0276607,4.0162928 H 4.5568277 c -3.5239637,0 -4.02766104,-0.501345 -4.02766104,-4.0162928 V 4.8100424 c 0,-3.514961 0.50369724,-4.01629243 4.02766114,-4.01629243 z" />
  <path
     id="rect1565"
     style="opacity:1;fill:url(#linearGradient1873);fill-opacity:1;stroke-width:0.264583"
     d="m 4.5568277,0.79374997 c -3.5239635,0 -4.02766104,0.50133123 -4.02766104,4.01629243 v 2.8153318 c 0,3.5149478 0.50369754,4.0162928 4.02766104,4.0162928 h 3.5863445 c 3.5239638,0 4.0276608,-0.501345 4.0276608,-4.0162928 V 4.8100424 c 0,-3.5149612 -0.503697,-4.01629243 -4.0276608,-4.01629243 z m 0.081649,0.26458343 h 3.4230468 c 3.3637835,0 3.8447265,0.4769388 3.8447265,3.8204385 v 2.6778728 c 0,3.3434873 -0.480943,3.8204393 -3.8447265,3.8204393 h -3.423047 c -3.3637834,0 -3.84472651,-0.476952 -3.84472651,-3.8204393 V 4.8787719 c 0,-3.3434997 0.48094311,-3.8204385 3.84472671,-3.8204385 z" />
</svg>
