<?xml version="1.0" encoding="UTF-8" standalone="no"?>
<!-- Created with Inkscape (http://www.inkscape.org/) -->

<svg
   width="48"
   height="48"
   viewBox="0 0 12.7 12.7"
   version="1.1"
   id="svg5"
   inkscape:version="1.1.2 (0a00cf5339, 2022-02-04)"
   sodipodi:docname="libreoffice-calc.svg"
   xmlns:inkscape="http://www.inkscape.org/namespaces/inkscape"
   xmlns:sodipodi="http://sodipodi.sourceforge.net/DTD/sodipodi-0.dtd"
   xmlns:xlink="http://www.w3.org/1999/xlink"
   xmlns="http://www.w3.org/2000/svg"
   xmlns:svg="http://www.w3.org/2000/svg">
  <sodipodi:namedview
     id="namedview7"
     pagecolor="#ffffff"
     bordercolor="#666666"
     borderopacity="1.0"
     inkscape:pageshadow="2"
     inkscape:pageopacity="0.0"
     inkscape:pagecheckerboard="0"
     inkscape:document-units="px"
     showgrid="false"
     units="px"
     inkscape:zoom="11.785113"
     inkscape:cx="29.571205"
     inkscape:cy="23.84364"
     inkscape:window-width="1920"
     inkscape:window-height="1010"
     inkscape:window-x="0"
     inkscape:window-y="0"
     inkscape:window-maximized="1"
     inkscape:current-layer="svg5" />
  <defs
     id="defs2">
    <linearGradient
       inkscape:collect="always"
       id="linearGradient9171">
      <stop
         style="stop-color:#10a303;stop-opacity:1;"
         offset="0"
         id="stop9167" />
      <stop
         style="stop-color:#106802;stop-opacity:1"
         offset="1"
         id="stop9169" />
    </linearGradient>
    <linearGradient
       inkscape:collect="always"
       id="linearGradient5989">
      <stop
         style="stop-color:#f2f2f2;stop-opacity:1;"
         offset="0"
         id="stop5985" />
      <stop
         style="stop-color:#ffffff;stop-opacity:1"
         offset="1"
         id="stop5987" />
    </linearGradient>
    <linearGradient
       inkscape:collect="always"
       id="linearGradient1331">
      <stop
         style="stop-color:#2e851b;stop-opacity:1"
         offset="0"
         id="stop1327" />
      <stop
         style="stop-color:#18a003;stop-opacity:1"
         offset="1"
         id="stop1329" />
    </linearGradient>
    <linearGradient
       inkscape:collect="always"
       id="linearGradient1871">
      <stop
         style="stop-color:#ffffff;stop-opacity:1;"
         offset="0"
         id="stop1867" />
      <stop
         style="stop-color:#ffffff;stop-opacity:0.1"
         offset="0.12"
         id="stop2515" />
      <stop
         style="stop-color:#ffffff;stop-opacity:0.102"
         offset="0.89999998"
         id="stop2581" />
      <stop
         style="stop-color:#ffffff;stop-opacity:0.502"
         offset="1"
         id="stop1869" />
    </linearGradient>
    <linearGradient
       inkscape:collect="always"
       xlink:href="#linearGradient1871"
       id="linearGradient1873"
       x1="17.222656"
       y1="3.5"
       x2="17.222656"
       y2="44.466438"
       gradientUnits="userSpaceOnUse"
       gradientTransform="matrix(0.26458333,0,0,0.26458333,0,-0.13229166)" />
    <linearGradient
       inkscape:collect="always"
       xlink:href="#linearGradient1331"
       id="linearGradient1333"
       x1="4.4751787"
       y1="0.5291667"
       x2="8.2108183"
       y2="11.778486"
       gradientUnits="userSpaceOnUse" />
    <linearGradient
       inkscape:collect="always"
       xlink:href="#linearGradient5989"
       id="linearGradient5991"
       x1="4.5568275"
       y1="0.79374999"
       x2="8.4326887"
       y2="11.597079"
       gradientUnits="userSpaceOnUse"
       gradientTransform="scale(3.7795276)" />
    <linearGradient
       inkscape:collect="always"
       xlink:href="#linearGradient9171"
       id="linearGradient9173"
       x1="9.7895832"
       y1="0.57149988"
       x2="9.7895832"
       y2="12.170834"
       gradientUnits="userSpaceOnUse" />
  </defs>
  <path
     id="rect3143"
     style="opacity:0.1;fill:#000000;fill-opacity:1;stroke-width:0.264583"
     d="m 4.5160033,1.0583334 c -3.60405388,0 -4.1191283,0.5137855 -4.1191283,4.1144775 v 2.883545 c 0,3.6006791 0.51507442,4.1144791 4.1191283,4.1144791 h 3.6679933 c 3.6040544,0 4.1191284,-0.5138 4.1191284,-4.1144791 v -2.883545 c 0,-3.600692 -0.515074,-4.1144775 -4.1191284,-4.1144775 z" />
  <path
     style="display:inline;fill:url(#linearGradient1333);fill-opacity:1;stroke:none;stroke-width:0.0992187;stroke-linecap:round;stroke-linejoin:round;stroke-miterlimit:4;stroke-dasharray:none;stroke-dashoffset:0;stroke-opacity:1;enable-background:new"
     d="m 8.1839962,0.66145835 c 3.6040548,0 4.1191298,0.51378545 4.1191298,4.11447755 v 2.883545 c 0,3.6006781 -0.515075,4.1144781 -4.1191298,4.1144781 H 4.5160033 c -3.604054,0 -4.1191283,-0.5138 -4.1191283,-4.1144781 v -2.883545 c 0,-3.6006921 0.5150743,-4.11447755 4.1191283,-4.11447755 z"
     id="rect877"
     inkscape:connector-curvature="0"
     sodipodi:nodetypes="sssssssss" />
  <path
     id="rect1370"
     style="opacity:0.4;fill:#000000;fill-opacity:1;stroke-width:0.264583"
     d="m 4.4751788,0.52916667 c -3.68414336,0 -4.21059547,0.52624033 -4.21059547,4.21266273 v 2.9517578 c 0,3.6864088 0.52645211,4.2126628 4.21059547,4.2126628 H 8.224821 c 3.684144,0 4.210596,-0.526254 4.210596,-4.2126628 V 4.7418294 c 0,-3.6864224 -0.526452,-4.21266273 -4.210596,-4.21266273 z m 0.081649,0.2645833 h 3.5863445 c 3.5239637,0 4.0276607,0.50133143 4.0276607,4.01629243 v 2.8153318 c 0,3.5149478 -0.503697,4.0162928 -4.0276607,4.0162928 H 4.5568277 c -3.5239637,0 -4.02766104,-0.501345 -4.02766104,-4.0162928 V 4.8100424 c 0,-3.514961 0.50369724,-4.01629243 4.02766114,-4.01629243 z" />
  <path
     id="rect1565"
     style="opacity:1;fill:url(#linearGradient1873);fill-opacity:1;stroke-width:0.264583"
     d="m 4.5568277,0.79374997 c -3.5239635,0 -4.02766104,0.50133123 -4.02766104,4.01629243 v 2.8153318 c 0,3.5149478 0.50369754,4.0162928 4.02766104,4.0162928 h 3.5863445 c 3.5239638,0 4.0276608,-0.501345 4.0276608,-4.0162928 V 4.8100424 c 0,-3.5149612 -0.503697,-4.01629243 -4.0276608,-4.01629243 z m 0.081649,0.26458343 h 3.4230468 c 3.3637835,0 3.8447265,0.4769388 3.8447265,3.8204385 v 2.6778728 c 0,3.3434873 -0.480943,3.8204393 -3.8447265,3.8204393 h -3.423047 c -3.3637834,0 -3.84472651,-0.476952 -3.84472651,-3.8204393 V 4.8787719 c 0,-3.3434997 0.48094311,-3.8204385 3.84472671,-3.8204385 z" />
  <path
     id="rect2891"
     style="opacity:1;fill:url(#linearGradient5991);fill-opacity:1;stroke-width:0.97056;stroke-linejoin:round"
     d="M 13 7.5 C 8.5 7.5 7 8.9999996 7 13.5 L 7 33.5 C 7 38.000004 8.5 39.5 13 39.5 L 35 39.5 C 39.499996 39.5 41 38.000004 41 33.5 L 41 15.5 L 33 7.5 L 13 7.5 z "
     transform="scale(0.26458333)" />
  <path
     id="rect5299-4"
     style="opacity:0.1;fill:#ffffff;fill-opacity:1;stroke-width:0.264583"
     d="m 0.396875,6.2177083 v 1.4417725 c 0,3.6006782 0.5150744,4.1144772 4.1191283,4.1144772 h 3.6679933 c 3.6040544,0 4.1191284,-0.513799 4.1191284,-4.1144772 V 6.2177083 Z" />
  <g
     id="g9057">
    <path
       id="rect6217"
       style="opacity:1;fill:#ccf4c6;stroke-width:0.264583;stroke-linejoin:round"
       d="m 3.7041667,4.7624998 5.2916666,1e-7 V 6.6145833 H 9.525 v 2.3812501 l -2.38125,-1e-7 V 8.73125 H 3.7041667 Z"
       sodipodi:nodetypes="ccccccccc" />
    <rect
       style="opacity:1;fill:#92e285;fill-opacity:1;stroke-width:0.264583;stroke-linejoin:round"
       id="rect6838"
       width="5.2916665"
       height="0.79374999"
       x="3.7041667"
       y="3.7041669" />
    <path
       id="rect914"
       style="fill:url(#linearGradient9173);fill-opacity:1;stroke-width:0.264583;stroke-linejoin:round"
       d="m 3.96875,3.4395833 c -0.2931583,0 -0.5291667,0.2360083 -0.5291667,0.5291666 v 4.4979167 c 0,0.2931583 0.2360084,0.5291666 0.5291667,0.5291666 h 2.9812133 c 0.091275,0.1582412 0.2618438,0.2645829 0.45837,0.2645829 h 1.8520833 c 0.2931583,0 0.5291666,-0.2360079 0.5291666,-0.5291662 V 6.8791666 c 0,-0.2931584 -0.2360083,-0.5291667 -0.5291666,-0.5291667 v -2.38125 c 0,-0.2931583 -0.2360084,-0.5291666 -0.5291667,-0.5291666 z m 0,0.2645833 h 1.3229166 v 0.79375 H 3.7041667 V 3.9687499 c 0,-0.1465791 0.1180041,-0.2645833 0.2645833,-0.2645833 z m 1.5875,0 h 1.5874999 v 0.79375 H 5.55625 Z m 1.8520833,0 h 1.3229166 c 0.1465792,0 0.2645834,0.1180042 0.2645834,0.2645833 v 0.5291667 h -1.5875 z M 3.7041667,4.7624999 h 1.5874999 v 0.79375 H 3.7041667 Z m 1.8520833,0 h 1.5874999 v 0.79375 H 5.55625 Z m 1.8520833,0 h 1.5875 v 0.79375 h -1.5875 z M 3.7041667,5.8208333 H 5.2916666 V 6.6145832 H 3.7041667 Z m 1.8520833,0 H 7.1437499 V 6.4207966 C 7.0633666,6.4672635 6.9963664,6.5341351 6.9499633,6.6145832 H 5.55625 Z m 1.8520833,0 h 1.5875 v 0.5291666 h -1.5875 z m 0,0.7937499 h 1.8520833 c 0.1465791,0 0.2645833,0.1180042 0.2645833,0.2645834 v 1.8520833 c 0,0.1465791 -0.1180042,0.2645833 -0.2645833,0.2645833 H 7.4083333 c -0.1465792,0 -0.2645834,-0.1180042 -0.2645834,-0.2645833 V 6.8791666 c 0,-0.1465792 0.1180042,-0.2645834 0.2645834,-0.2645834 z M 3.7041667,6.8791666 h 1.5874999 v 0.79375 H 3.7041667 Z m 1.8520833,0 h 1.3229166 v 0.79375 H 5.55625 Z M 3.7041667,7.9374999 h 1.5874999 v 0.79375 H 3.96875 c -0.1465792,0 -0.2645833,-0.1180042 -0.2645833,-0.2645833 z m 1.8520833,0 h 1.3229166 v 0.79375 H 5.55625 Z"
       sodipodi:nodetypes="sssscsssscsssscccssccccccssccccccccccccccccccccccccccccccccccssssssssscccccccccccccsscccccc" />
    <path
       id="rect7050"
       style="opacity:1;fill:#239310;stroke-width:0.264583;stroke-linejoin:round"
       d="m 8.334375,6.8791666 c 0.2198687,0 0.396875,0.1770063 0.396875,0.396875 V 8.9958333 H 7.9375 V 7.2760416 c 0,-0.2198687 0.1770062,-0.396875 0.396875,-0.396875 z"
       sodipodi:nodetypes="ssccss" />
    <rect
       style="opacity:1;fill:#41b02f;fill-opacity:1;stroke-width:0.264583;stroke-linejoin:round"
       id="rect7427"
       width="0.26458332"
       height="1.8520833"
       x="8.2020836"
       y="7.1437497" />
    <path
       id="rect7685"
       style="opacity:1;fill:#41b02f;stroke-width:0.999999;stroke-linejoin:round"
       d="M 28.460938,29 C 27.648027,29.020458 27,29.681985 27,30.5 V 33 c 0,0.553999 0.446,1 1,1 h 2 V 30.5 C 30,29.669 29.331,29 28.5,29 c -0.01298,0 -0.02616,-3.25e-4 -0.03906,0 z m 6,2 C 33.648027,31.020458 33,31.681984 33,32.5 V 34 h 2 c 0.553999,0 1,-0.446001 1,-1 V 32.5 C 36,31.669 35.331,31 34.5,31 c -0.01298,0 -0.02616,-3.25e-4 -0.03906,0 z"
       transform="scale(0.26458333)" />
    <path
       id="rect8495"
       style="opacity:1;fill:#92e285;fill-opacity:1;stroke-width:1.1547;stroke-linejoin:round"
       d="m 28,30 v 4 h 1 v -4 z m 6,2 v 2 h 1 v -2 z"
       transform="scale(0.26458333)" />
  </g>
</svg>
