<?xml version="1.0" encoding="UTF-8" standalone="no"?>
<!-- Created with Inkscape (http://www.inkscape.org/) -->

<svg
   width="48"
   height="48"
   viewBox="0 0 12.7 12.7"
   version="1.1"
   id="svg5"
   inkscape:version="1.1.2 (0a00cf5339, 2022-02-04)"
   sodipodi:docname="libreoffice-base.svg"
   xmlns:inkscape="http://www.inkscape.org/namespaces/inkscape"
   xmlns:sodipodi="http://sodipodi.sourceforge.net/DTD/sodipodi-0.dtd"
   xmlns:xlink="http://www.w3.org/1999/xlink"
   xmlns="http://www.w3.org/2000/svg"
   xmlns:svg="http://www.w3.org/2000/svg">
  <sodipodi:namedview
     id="namedview7"
     pagecolor="#ffffff"
     bordercolor="#666666"
     borderopacity="1.0"
     inkscape:pageshadow="2"
     inkscape:pageopacity="0.0"
     inkscape:pagecheckerboard="0"
     inkscape:document-units="px"
     showgrid="false"
     units="px"
     inkscape:zoom="5.8336309"
     inkscape:cx="12.256518"
     inkscape:cy="33.941126"
     inkscape:window-width="1920"
     inkscape:window-height="1010"
     inkscape:window-x="0"
     inkscape:window-y="0"
     inkscape:window-maximized="1"
     inkscape:current-layer="svg5" />
  <defs
     id="defs2">
    <linearGradient
       inkscape:collect="always"
       id="linearGradient5989">
      <stop
         style="stop-color:#f2f2f2;stop-opacity:1;"
         offset="0"
         id="stop5985" />
      <stop
         style="stop-color:#ffffff;stop-opacity:1"
         offset="1"
         id="stop5987" />
    </linearGradient>
    <linearGradient
       inkscape:collect="always"
       id="linearGradient1331">
      <stop
         style="stop-color:#9911aa;stop-opacity:1"
         offset="0"
         id="stop1327" />
      <stop
         style="stop-color:#c04fba;stop-opacity:1"
         offset="1"
         id="stop1329" />
    </linearGradient>
    <linearGradient
       inkscape:collect="always"
       id="linearGradient1871">
      <stop
         style="stop-color:#ffffff;stop-opacity:1;"
         offset="0"
         id="stop1867" />
      <stop
         style="stop-color:#ffffff;stop-opacity:0.1"
         offset="0.12"
         id="stop2515" />
      <stop
         style="stop-color:#ffffff;stop-opacity:0.102"
         offset="0.89999998"
         id="stop2581" />
      <stop
         style="stop-color:#ffffff;stop-opacity:0.502"
         offset="1"
         id="stop1869" />
    </linearGradient>
    <linearGradient
       inkscape:collect="always"
       xlink:href="#linearGradient1871"
       id="linearGradient1873"
       x1="17.222656"
       y1="3.5"
       x2="17.222656"
       y2="44.466438"
       gradientUnits="userSpaceOnUse"
       gradientTransform="matrix(0.26458333,0,0,0.26458333,0,-0.13229166)" />
    <linearGradient
       inkscape:collect="always"
       xlink:href="#linearGradient1331"
       id="linearGradient1333"
       x1="4.4751787"
       y1="0.5291667"
       x2="8.2108183"
       y2="11.778486"
       gradientUnits="userSpaceOnUse" />
    <linearGradient
       inkscape:collect="always"
       xlink:href="#linearGradient5989"
       id="linearGradient5991"
       x1="4.5568275"
       y1="0.79374999"
       x2="8.4326887"
       y2="11.597079"
       gradientUnits="userSpaceOnUse"
       gradientTransform="scale(3.7795276)" />
    <linearGradient
       id="linearGradient19808"
       x1="525.44"
       x2="516.65997"
       y1="836.19"
       y2="828.5"
       gradientTransform="matrix(0.24157728,0,0,0.24685695,-120.84158,-197.56021)"
       gradientUnits="userSpaceOnUse"
       xlink:href="#linearGradient14494" />
    <linearGradient
       id="linearGradient14494">
      <stop
         stop-color="#dc85e9"
         offset="0"
         id="stop13" />
      <stop
         stop-color="#f2cbf8"
         offset="1"
         id="stop15" />
    </linearGradient>
    <linearGradient
       id="linearGradient19810"
       x1="525.44"
       x2="516.65997"
       y1="836.19"
       y2="828.5"
       gradientTransform="matrix(0.24157728,0,0,0.24685695,-120.83911,-198.7221)"
       gradientUnits="userSpaceOnUse"
       xlink:href="#linearGradient14494" />
    <linearGradient
       id="linearGradient19812"
       x1="525.44"
       x2="516.65997"
       y1="836.19"
       y2="828.5"
       gradientTransform="matrix(0.24157728,0,0,0.24685695,-120.84052,-199.86034)"
       gradientUnits="userSpaceOnUse"
       xlink:href="#linearGradient14494" />
    <linearGradient
       id="linearGradient19814"
       x1="520.59003"
       x2="516.15002"
       y1="735.04999"
       y2="720.85999"
       gradientUnits="userSpaceOnUse"
       xlink:href="#linearGradient14494"
       gradientTransform="matrix(0.12381802,0,0,0.15191083,-57.996613,-106.2275)" />
  </defs>
  <path
     id="rect3143"
     style="opacity:0.1;fill:#000000;fill-opacity:1;stroke-width:0.264583"
     d="m 4.5160033,1.0583334 c -3.60405388,0 -4.1191283,0.5137855 -4.1191283,4.1144775 v 2.883545 c 0,3.6006791 0.51507442,4.1144791 4.1191283,4.1144791 h 3.6679933 c 3.6040544,0 4.1191284,-0.5138 4.1191284,-4.1144791 v -2.883545 c 0,-3.600692 -0.515074,-4.1144775 -4.1191284,-4.1144775 z" />
  <path
     style="display:inline;fill:url(#linearGradient1333);fill-opacity:1;stroke:none;stroke-width:0.0992187;stroke-linecap:round;stroke-linejoin:round;stroke-miterlimit:4;stroke-dasharray:none;stroke-dashoffset:0;stroke-opacity:1;enable-background:new"
     d="m 8.1839962,0.66145835 c 3.6040548,0 4.1191298,0.51378545 4.1191298,4.11447755 v 2.883545 c 0,3.6006781 -0.515075,4.1144781 -4.1191298,4.1144781 H 4.5160033 c -3.604054,0 -4.1191283,-0.5138 -4.1191283,-4.1144781 v -2.883545 c 0,-3.6006921 0.5150743,-4.11447755 4.1191283,-4.11447755 z"
     id="rect877"
     inkscape:connector-curvature="0"
     sodipodi:nodetypes="sssssssss" />
  <path
     id="rect1370"
     style="opacity:0.4;fill:#000000;fill-opacity:1;stroke-width:0.264583"
     d="m 4.4751788,0.52916667 c -3.68414336,0 -4.21059547,0.52624033 -4.21059547,4.21266273 v 2.9517578 c 0,3.6864088 0.52645211,4.2126628 4.21059547,4.2126628 H 8.224821 c 3.684144,0 4.210596,-0.526254 4.210596,-4.2126628 V 4.7418294 c 0,-3.6864224 -0.526452,-4.21266273 -4.210596,-4.21266273 z m 0.081649,0.2645833 h 3.5863445 c 3.5239637,0 4.0276607,0.50133143 4.0276607,4.01629243 v 2.8153318 c 0,3.5149478 -0.503697,4.0162928 -4.0276607,4.0162928 H 4.5568277 c -3.5239637,0 -4.02766104,-0.501345 -4.02766104,-4.0162928 V 4.8100424 c 0,-3.514961 0.50369724,-4.01629243 4.02766114,-4.01629243 z" />
  <path
     id="rect1565"
     style="opacity:1;fill:url(#linearGradient1873);fill-opacity:1;stroke-width:0.264583"
     d="m 4.5568277,0.79374997 c -3.5239635,0 -4.02766104,0.50133123 -4.02766104,4.01629243 v 2.8153318 c 0,3.5149478 0.50369754,4.0162928 4.02766104,4.0162928 h 3.5863445 c 3.5239638,0 4.0276608,-0.501345 4.0276608,-4.0162928 V 4.8100424 c 0,-3.5149612 -0.503697,-4.01629243 -4.0276608,-4.01629243 z m 0.081649,0.26458343 h 3.4230468 c 3.3637835,0 3.8447265,0.4769388 3.8447265,3.8204385 v 2.6778728 c 0,3.3434873 -0.480943,3.8204393 -3.8447265,3.8204393 h -3.423047 c -3.3637834,0 -3.84472651,-0.476952 -3.84472651,-3.8204393 V 4.8787719 c 0,-3.3434997 0.48094311,-3.8204385 3.84472671,-3.8204385 z" />
  <path
     id="rect2891"
     style="opacity:1;fill:url(#linearGradient5991);fill-opacity:1;stroke-width:0.97056;stroke-linejoin:round"
     d="M 13 7.5 C 8.5 7.5 7 8.9999996 7 13.5 L 7 33.5 C 7 38.000004 8.5 39.5 13 39.5 L 35 39.5 C 39.499996 39.5 41 38.000004 41 33.5 L 41 15.5 L 33 7.5 L 13 7.5 z "
     transform="scale(0.26458333)" />
  <path
     id="rect5299-4"
     style="opacity:0.1;fill:#ffffff;fill-opacity:1;stroke-width:0.264583"
     d="m 0.396875,6.2177083 v 1.4417725 c 0,3.6006782 0.5150744,4.1144772 4.1191283,4.1144772 h 3.6679933 c 3.6040544,0 4.1191284,-0.513799 4.1191284,-4.1144772 V 6.2177083 Z" />
  <path
     style="color:#000000;fill:url(#linearGradient19808);stroke-width:0.264594;-inkscape-stroke:none"
     d="m 3.5709748,7.2136307 v 0.8640117 0.1234308 c 0,0.4771861 1.2438049,0.8640361 2.7782142,0.8640361 1.5343105,0 2.7782138,-0.3868254 2.7782138,-0.8640361 V 8.0776424 7.2136307 Z"
     id="path921" />
  <path
     style="color:#000000;fill:url(#linearGradient19810);stroke-width:0.264594;-inkscape-stroke:none"
     d="M 3.5611037,6.0579156 V 6.9219522 7.045383 c 0,0.4771861 1.243805,0.8640116 2.7782142,0.8640116 1.5343105,0 2.7782138,-0.3868255 2.7782138,-0.8640116 V 6.9219522 6.0579156 Z"
     id="path915" />
  <path
     style="color:#000000;fill:url(#linearGradient19812);stroke:none;stroke-width:0.264569;-inkscape-stroke:none"
     d="m 3.5717744,4.9173644 v 0.8639995 0.1234284 c 0,0.4771744 1.2438089,0.8639992 2.7781387,0.8639992 1.5343299,0 2.7781387,-0.3868248 2.7781387,-0.8639992 V 5.7813639 4.9173644 Z"
     id="path933" />
  <path
     style="color:#000000;fill:url(#linearGradient19814);stroke:none;stroke-width:0.264583;-inkscape-stroke:none"
     d="M 9.1286032,4.7144896 A 2.7782287,0.86399282 0 0 1 6.3503745,5.5784822 2.7782287,0.86399282 0 0 1 3.5721456,4.7144896 2.7782287,0.86399282 0 0 1 6.3503745,3.8504967 2.7782287,0.86399282 0 0 1 9.1286032,4.7144896 Z"
     id="path927" />
  <path
     id="path923"
     style="color:#000000;fill:#8e03a3;stroke-width:0.264583;-inkscape-stroke:none"
     d="m 6.3505166,3.7041667 c -0.7753657,0 -1.4768912,0.096635 -1.9936766,0.2573489 C 4.0984479,4.0418716 3.8860134,4.136988 3.7289713,4.2524538 3.5719292,4.3679198 3.4395833,4.5170421 3.4395833,4.7144411 v 3.4866088 c 0,0.1767692 0.1121875,0.3258687 0.2713013,0.442867 0.1591136,0.1169982 0.3740994,0.2135417 0.6345865,0.2945554 0.5209836,0.162028 1.2251735,0.258899 2.0034953,0.258899 0.7782724,0 1.4830269,-0.09687 2.0040119,-0.258899 C 8.6134717,8.8574605 8.8284435,8.7609159 8.987565,8.6439169 9.1466864,8.5269181 9.261232,8.3778249 9.2604165,8.2010499 V 4.7144411 C 9.2418137,4.512908 9.1285874,4.3679198 8.9715452,4.2524538 8.8145031,4.136988 8.6025854,4.0418719 8.3441933,3.9615156 7.8274078,3.800801 7.1258836,3.7041667 6.3505166,3.7041667 Z m 0,0.2930054 c 0.7590057,0 1.4460313,0.096572 1.9347656,0.2485636 0.2443673,0.075995 0.4396611,0.1671156 0.5637898,0.2583823 0.1241301,0.091266 0.160197,0.1691373 0.160197,0.2103231 0,0.041186 -0.036067,0.1195719 -0.160197,0.2108399 C 8.7249438,5.0165477 8.5296495,5.1071513 8.2852822,5.1831463 7.7965479,5.3351375 7.1095223,5.4322266 6.3505166,5.4322266 5.5915123,5.4322266 4.9039689,5.3351375 4.4152343,5.1831463 4.1708673,5.1071513 3.97609,5.0165477 3.8519613,4.925281 3.7278312,4.834013 3.6917643,4.7556272 3.6917643,4.7144411 c 0,-0.041186 0.036067,-0.1190566 0.160197,-0.2103231 C 3.97609,4.4128513 4.1708673,4.3217307 4.4152343,4.2457357 4.9039689,4.0937443 5.5915123,3.9971721 6.3505166,3.9971721 Z M 3.7026164,5.1557577 c 0.1589093,0.1163164 0.3731474,0.2118243 0.6325195,0.2924886 0.5209739,0.1620213 1.227758,0.2754355 2.006079,0.2754355 0.7782727,0 1.4830272,-0.097395 2.0040121,-0.2594157 0.1586823,-0.049349 0.3001492,-0.1045578 0.4227132,-0.1663981 0.00323,-0.00164 0.00661,-0.00299 0.00982,-0.00465 0.00323,-0.00164 0.0061,-0.00351 0.0093,-0.00517 0.046271,-0.024019 0.090304,-0.048776 0.1307412,-0.074931 0.020669,-0.013369 0.040335,-0.026868 0.059428,-0.040824 8.731e-4,-6.614e-4 0.00172,-0.0014 0.00259,-0.00206 0.0061,-0.00448 0.011613,-0.00938 0.017571,-0.013952 v 0.6263185 0.1219565 0.00156 c 0,0.061828 -0.04279,0.1402136 -0.1648479,0.2299602 -0.1220573,0.089746 -0.3137667,0.1794193 -0.5560383,0.2547647 -0.484543,0.1506908 -1.1694276,0.2470134 -1.9254639,0.2470134 -0.2052092,0 -0.4045074,-0.0087 -0.5968626,-0.02377 C 5.2378006,6.578159 4.7771025,6.4977066 4.4235139,6.3877402 4.2331663,6.3285429 4.0742155,6.260388 3.9553255,6.1903364 h 0.021704 C 3.9358458,6.1671084 3.8988743,6.1435163 3.8669473,6.1200401 3.7669752,6.0465296 3.7208017,5.9811468 3.7072673,5.9257367 h -0.00259 c -0.00114,-0.00729 -0.00206,-0.014356 -0.00206,-0.021188 v -0.014469 -0.1090372 -0.01447 z m -0.0093,1.1771891 c 0.158909,0.1163164 0.3731476,0.2118244 0.6325195,0.2924887 0.5209738,0.1620213 1.2251743,0.2594158 2.0034953,0.2594158 0.4610246,0 0.8946944,-0.02322 1.2810588,-0.075448 C 7.88394,6.7667583 8.1349984,6.7111523 8.3524607,6.6435222 8.6122088,6.5627412 8.8261453,6.4665577 8.9849803,6.35 v 0.603064 0.092501 0.031006 c 0,0.061828 -0.04279,0.1402138 -0.1648476,0.2299602 -0.1220579,0.089746 -0.313767,0.1794193 -0.5560386,0.2547647 -0.4239752,0.1318546 -1.0007586,0.1970908 -1.6448608,0.2113566 -0.092029,0.00294 -0.1855817,0.00465 -0.2800863,0.00465 -0.7560863,0 -1.4404171,-0.096842 -1.924947,-0.2475298 -0.061129,-0.01901 -0.117693,-0.039351 -0.1720826,-0.059945 -0.054035,-0.02046 -0.1046194,-0.041461 -0.1514118,-0.063045 -0.023437,-0.010811 -0.045672,-0.021545 -0.067179,-0.032556 -0.018463,-0.00945 -0.037783,-0.01886 -0.054776,-0.028423 h 0.00206 C 3.9284497,7.3220559 3.8903266,7.2980079 3.8576424,7.2739748 3.7587652,7.2012691 3.7125809,7.1362517 3.6984791,7.0812216 c -1.317e-4,-5.292e-4 1.278e-4,-0.00103 0,-0.00156 -0.00274,-0.011081 -0.00438,-0.021817 -0.00465,-0.032039 -1.45e-5,-6.615e-4 -5.291e-4,-0.0014 -5.291e-4,-0.00206 v -0.00156 -0.1219563 -0.00156 z m 5.302002,1.1415324 v 0.603064 0.1235067 c 0,0.061828 -0.042791,0.1402138 -0.1648479,0.2299602 -0.12206,0.089746 -0.3137694,0.1794192 -0.5560409,0.2547646 -0.4845423,0.1506908 -1.1694269,0.2470136 -1.9254632,0.2470136 -0.7560857,0 -1.4404173,-0.09632 -1.9249471,-0.2470136 C 4.1817543,8.610428 3.9895136,8.5207546 3.8674643,8.4310101 3.7454136,8.3412653 3.7031331,8.2628735 3.7031331,8.2010499 V 8.0775432 7.4899822 c 0.1589091,0.1163164 0.3731475,0.2118243 0.6325196,0.2924886 0.5209738,0.1620214 1.225174,0.2594155 2.0034951,0.2594155 0.7782726,0 1.4830271,-0.097395 2.004012,-0.2594155 0.2604926,-0.081011 0.4754653,-0.177044 0.6345867,-0.2940388 0.0061,-0.00448 0.011613,-0.00938 0.017571,-0.013952 z" />
</svg>
