<?xml version="1.0" encoding="UTF-8" standalone="no"?>
<!-- Created with Inkscape (http://www.inkscape.org/) -->

<svg
   width="48"
   height="48"
   viewBox="0 0 12.7 12.7"
   version="1.1"
   id="svg5"
   inkscape:version="1.1.2 (0a00cf5339, 2022-02-04)"
   sodipodi:docname="lollypop.svg"
   xmlns:inkscape="http://www.inkscape.org/namespaces/inkscape"
   xmlns:sodipodi="http://sodipodi.sourceforge.net/DTD/sodipodi-0.dtd"
   xmlns:xlink="http://www.w3.org/1999/xlink"
   xmlns="http://www.w3.org/2000/svg"
   xmlns:svg="http://www.w3.org/2000/svg">
  <sodipodi:namedview
     id="namedview7"
     pagecolor="#ffffff"
     bordercolor="#666666"
     borderopacity="1.0"
     inkscape:pageshadow="2"
     inkscape:pageopacity="0.0"
     inkscape:pagecheckerboard="0"
     inkscape:document-units="px"
     showgrid="false"
     units="px"
     inkscape:zoom="16.354167"
     inkscape:cx="23.969427"
     inkscape:cy="24"
     inkscape:window-width="1920"
     inkscape:window-height="1012"
     inkscape:window-x="0"
     inkscape:window-y="0"
     inkscape:window-maximized="1"
     inkscape:current-layer="svg5" />
  <defs
     id="defs2">
    <linearGradient
       inkscape:collect="always"
       id="linearGradient3598">
      <stop
         style="stop-color:#f2f2f2;stop-opacity:1"
         offset="0"
         id="stop3594" />
      <stop
         style="stop-color:#e0e0e0;stop-opacity:1"
         offset="1"
         id="stop3596" />
    </linearGradient>
    <linearGradient
       inkscape:collect="always"
       id="linearGradient1871">
      <stop
         style="stop-color:#ffffff;stop-opacity:1;"
         offset="0"
         id="stop1867" />
      <stop
         style="stop-color:#ffffff;stop-opacity:0.1"
         offset="0.12"
         id="stop2515" />
      <stop
         style="stop-color:#ffffff;stop-opacity:0.102"
         offset="0.89999998"
         id="stop2581" />
      <stop
         style="stop-color:#ffffff;stop-opacity:0.502"
         offset="1"
         id="stop1869" />
    </linearGradient>
    <linearGradient
       inkscape:collect="always"
       xlink:href="#linearGradient1871"
       id="linearGradient1873"
       x1="17.222656"
       y1="3.5"
       x2="17.222656"
       y2="44.466438"
       gradientUnits="userSpaceOnUse"
       gradientTransform="matrix(0.26458333,0,0,0.26458333,0,-0.13229166)" />
    <linearGradient
       inkscape:collect="always"
       xlink:href="#linearGradient3598"
       id="linearGradient3600"
       x1="12.7"
       y1="12.7"
       x2="-8e-08"
       y2="-8e-08"
       gradientUnits="userSpaceOnUse" />
    <linearGradient
       inkscape:collect="always"
       id="linearGradient17934">
      <stop
         style="stop-color:#e72662;stop-opacity:1"
         offset="0"
         id="stop17930" />
      <stop
         style="stop-color:#f76363;stop-opacity:1"
         offset="1"
         id="stop17932" />
    </linearGradient>
    <linearGradient
       inkscape:collect="always"
       xlink:href="#linearGradient17934"
       id="linearGradient3795"
       x1="-3.023622e-07"
       y1="-3.023622e-07"
       x2="48"
       y2="48"
       gradientUnits="userSpaceOnUse" />
    <linearGradient
       inkscape:collect="always"
       xlink:href="#linearGradient17934"
       id="linearGradient9281"
       gradientUnits="userSpaceOnUse"
       gradientTransform="translate(18,16.735417)"
       x1="-17.721132"
       y1="-16.457123"
       x2="29.824932"
       y2="31.763847" />
  </defs>
  <path
     id="rect3143"
     style="opacity:0.1;fill:#000000;fill-opacity:1;stroke-width:0.264583"
     d="m 4.5160033,1.0583334 c -3.60405388,0 -4.1191283,0.5137855 -4.1191283,4.1144775 v 2.883545 c 0,3.6006791 0.51507442,4.1144791 4.1191283,4.1144791 h 3.6679933 c 3.6040544,0 4.1191284,-0.5138 4.1191284,-4.1144791 v -2.883545 c 0,-3.600692 -0.515074,-4.1144775 -4.1191284,-4.1144775 z" />
  <path
     style="display:inline;fill:url(#linearGradient3600);fill-opacity:1;stroke:none;stroke-width:0.0992187;stroke-linecap:round;stroke-linejoin:round;stroke-miterlimit:4;stroke-dasharray:none;stroke-dashoffset:0;stroke-opacity:1;enable-background:new"
     d="m 8.1839962,0.66145835 c 3.6040548,0 4.1191298,0.51378545 4.1191298,4.11447755 v 2.883545 c 0,3.6006781 -0.515075,4.1144781 -4.1191298,4.1144781 H 4.5160033 c -3.604054,0 -4.1191283,-0.5138 -4.1191283,-4.1144781 v -2.883545 c 0,-3.6006921 0.5150743,-4.11447755 4.1191283,-4.11447755 z"
     id="rect877"
     inkscape:connector-curvature="0"
     sodipodi:nodetypes="sssssssss" />
  <path
     id="path5539"
     style="opacity:0.1;fill:#000000;fill-opacity:1;stroke-width:1.13543"
     d="M 17.068359 3.5 C 16.356073 3.5 15.683034 3.5075124 15.033203 3.5195312 C 13.770681 7.2533233 13.50761 10.401249 13.933594 13.066406 C 14.509981 13.016565 15.192691 13.002946 16.015625 13 C 16.324666 12.9989 16.651977 13 17 13 L 25.027344 13 C 26.125954 8.6513663 28.218563 5.6486916 31.853516 3.5039062 C 31.550042 3.501696 31.247549 3.5 30.931641 3.5 L 17.068359 3.5 z M 42.574219 5.2128906 C 38.293534 7.2492203 34.319639 9.8654029 31.117188 13 C 36.337987 12.999605 36.953771 13.009946 36.996094 18.285156 C 39.934421 17.319608 43.051223 16.859491 46.486328 17.308594 C 46.382433 10.52143 45.586211 6.9933992 42.574219 5.2128906 z M 3.4726562 7.015625 C 1.878707 9.3128668 1.5 13.045671 1.5 19.050781 L 1.5 23.212891 C 4.6312143 24.843405 7.8376158 26.070393 11 26.689453 L 11 19 C 11 18.65721 11.002229 18.335999 11.005859 18.03125 C 7.97008 15.33413 5.3640592 11.79329 3.4726562 7.015625 z M 37 23.523438 L 37 31 C 37 31.21696 36.997445 31.409775 36.996094 31.611328 C 40.057653 33.935652 42.918085 36.860212 45.292969 40.558594 C 46.249284 38.229936 46.5 34.843946 46.5 29.949219 L 46.5 26.792969 C 43.319081 25.28076 40.11046 24.135702 37 23.523438 z M 11.003906 31.714844 C 8.071861 32.678107 4.9616024 33.137739 1.5351562 32.693359 C 1.7223978 39.51269 2.7645583 42.788197 6.4550781 44.296875 C 6.4550781 44.296875 6.4570312 44.296875 6.4570312 44.296875 C 10.347874 42.336647 13.945553 39.887797 16.890625 37 C 11.663996 36.999721 11.046609 36.947261 11.003906 31.714844 z M 34.037109 36.931641 C 33.249733 37.000533 32.256224 36.999999 31 37 L 22.970703 37 C 22.031489 40.713663 20.367938 43.444871 17.638672 45.5 L 30.931641 45.5 C 31.74981 45.5 32.523725 45.492814 33.259766 45.476562 C 34.242073 42.178379 34.423662 39.356057 34.037109 36.931641 z "
     transform="scale(0.26458333)" />
  <path
     d="M 4.4979166,4.4979167 V 8.73125 c 0,0 2.6186633,-1.0989378 3.7041669,-2.1166666 C 7.1165799,5.5968546 4.4979166,4.4979167 4.4979166,4.4979167 Z"
     style="opacity:0.2;fill:#000000;fill-opacity:1;stroke-width:0.0700042"
     id="path9880" />
  <path
     id="path1096"
     style="fill:url(#linearGradient3795);fill-opacity:1;stroke-width:1.13543"
     d="M 17.068359 2.5 C 16.356073 2.5 15.683034 2.5075214 15.033203 2.5195312 C 13.770317 6.2543989 13.510996 9.40076 13.9375 12.066406 C 14.513134 12.016833 15.194452 12.002937 16.015625 12 C 16.324666 11.998895 16.651977 12 17 12 L 25.033203 12 C 26.132254 7.6548473 28.22036 4.6476314 31.853516 2.5039062 C 31.550044 2.5016961 31.24755 2.5 30.931641 2.5 L 17.068359 2.5 z M 42.574219 4.2128906 C 38.295731 6.2481752 34.332458 8.8675436 31.130859 12 C 36.332819 11.999604 36.954227 12.017657 36.996094 17.291016 C 39.934938 16.325071 43.050534 15.859401 46.486328 16.308594 C 46.382432 9.5214302 45.586213 5.993399 42.574219 4.2128906 z M 3.4726562 6.015625 C 1.8787072 8.3128671 1.5 12.045671 1.5 18.050781 L 1.5 22.212891 C 4.6316004 23.843606 7.8372366 25.058748 11 25.677734 L 11 18 C 11 17.656519 11.002212 17.334586 11.005859 17.029297 C 7.9701542 14.332196 5.3640232 10.793199 3.4726562 6.015625 z M 37 22.53125 L 37 30 C 37 30.220426 36.997492 30.416566 36.996094 30.621094 C 40.056398 32.945011 42.918943 35.861553 45.292969 39.558594 C 46.249282 37.229939 46.5 33.843946 46.5 28.949219 L 46.5 25.792969 C 43.318652 24.280556 40.110854 23.143452 37 22.53125 z M 11.003906 30.708984 C 8.0712251 31.672735 4.9624489 32.137849 1.5351562 31.693359 C 1.722399 38.512686 2.7645585 41.788198 6.4550781 43.296875 C 6.4550781 43.296875 6.4570312 43.296875 6.4570312 43.296875 C 10.345841 41.33767 13.934691 38.885831 16.878906 36 C 11.668667 35.99962 11.046156 35.940465 11.003906 30.708984 z M 34.035156 35.927734 C 33.246546 35.997316 32.260399 36 31 36 L 22.962891 36 C 22.023268 39.709122 20.365755 42.446516 17.638672 44.5 L 30.931641 44.5 C 31.749811 44.5 32.523726 44.492682 33.259766 44.476562 C 34.242752 41.176103 34.422762 38.353273 34.035156 35.927734 z "
     transform="scale(0.26458333)" />
  <path
     id="path9186"
     style="opacity:1;fill:url(#linearGradient9281);fill-opacity:1;stroke-width:0.264583"
     d="m 17,16 v 16 c 0,0 9.89731,-4.153466 14.000001,-8 C 26.89731,20.153466 17,16 17,16 Z"
     sodipodi:nodetypes="cccc"
     transform="scale(0.26458333)" />
  <path
     id="rect1370"
     style="opacity:0.4;fill:#000000;fill-opacity:1;stroke-width:0.264583"
     d="m 4.4751788,0.52916667 c -3.68414336,0 -4.21059547,0.52624033 -4.21059547,4.21266273 v 2.9517578 c 0,3.6864088 0.52645211,4.2126628 4.21059547,4.2126628 H 8.224821 c 3.684144,0 4.210596,-0.526254 4.210596,-4.2126628 V 4.7418294 c 0,-3.6864224 -0.526452,-4.21266273 -4.210596,-4.21266273 z m 0.081649,0.2645833 h 3.5863445 c 3.5239637,0 4.0276607,0.50133143 4.0276607,4.01629243 v 2.8153318 c 0,3.5149478 -0.503697,4.0162928 -4.0276607,4.0162928 H 4.5568277 c -3.5239637,0 -4.02766104,-0.501345 -4.02766104,-4.0162928 V 4.8100424 c 0,-3.514961 0.50369724,-4.01629243 4.02766114,-4.01629243 z" />
  <path
     id="rect1565"
     style="opacity:0.7;fill:url(#linearGradient1873);fill-opacity:1;stroke-width:0.264583"
     d="m 4.5568277,0.79374997 c -3.5239635,0 -4.02766104,0.50133123 -4.02766104,4.01629243 v 2.8153318 c 0,3.5149478 0.50369754,4.0162928 4.02766104,4.0162928 h 3.5863445 c 3.5239638,0 4.0276608,-0.501345 4.0276608,-4.0162928 V 4.8100424 c 0,-3.5149612 -0.503697,-4.01629243 -4.0276608,-4.01629243 z m 0.081649,0.26458343 h 3.4230468 c 3.3637835,0 3.8447265,0.4769388 3.8447265,3.8204385 v 2.6778728 c 0,3.3434873 -0.480943,3.8204393 -3.8447265,3.8204393 h -3.423047 c -3.3637834,0 -3.84472651,-0.476952 -3.84472651,-3.8204393 V 4.8787719 c 0,-3.3434997 0.48094311,-3.8204385 3.84472671,-3.8204385 z" />
</svg>
