<?xml version="1.0" encoding="UTF-8" standalone="no"?>
<!-- Created with Inkscape (http://www.inkscape.org/) -->

<svg
   width="48"
   height="48"
   viewBox="0 0 12.7 12.7"
   version="1.1"
   id="svg5"
   inkscape:version="1.1.2 (0a00cf5339, 2022-02-04)"
   sodipodi:docname="preferences-desktop-theme.svg"
   xmlns:inkscape="http://www.inkscape.org/namespaces/inkscape"
   xmlns:sodipodi="http://sodipodi.sourceforge.net/DTD/sodipodi-0.dtd"
   xmlns:xlink="http://www.w3.org/1999/xlink"
   xmlns="http://www.w3.org/2000/svg"
   xmlns:svg="http://www.w3.org/2000/svg">
  <sodipodi:namedview
     id="namedview7"
     pagecolor="#ffffff"
     bordercolor="#666666"
     borderopacity="1.0"
     inkscape:pageshadow="2"
     inkscape:pageopacity="0.0"
     inkscape:pagecheckerboard="0"
     inkscape:document-units="px"
     showgrid="false"
     units="px"
     inkscape:zoom="11.667262"
     inkscape:cx="17.356257"
     inkscape:cy="32.569767"
     inkscape:window-width="1920"
     inkscape:window-height="1010"
     inkscape:window-x="0"
     inkscape:window-y="0"
     inkscape:window-maximized="1"
     inkscape:current-layer="svg5"
     showguides="false" />
  <defs
     id="defs2">
    <linearGradient
       inkscape:collect="always"
       id="linearGradient3598">
      <stop
         style="stop-color:#fb7c38;stop-opacity:1"
         offset="0"
         id="stop3594" />
      <stop
         style="stop-color:#9b33ae;stop-opacity:1"
         offset="1"
         id="stop3596" />
    </linearGradient>
    <linearGradient
       inkscape:collect="always"
       xlink:href="#linearGradient3598"
       id="linearGradient3600"
       x1="12.262125"
       y1="9.7353592"
       x2="0.36087561"
       y2="4.2708535"
       gradientUnits="userSpaceOnUse" />
    <linearGradient
       inkscape:collect="always"
       xlink:href="#linearGradient1871"
       id="linearGradient1873"
       x1="17.222656"
       y1="3.5"
       x2="17.222656"
       y2="44.466438"
       gradientUnits="userSpaceOnUse"
       gradientTransform="matrix(0.26458333,0,0,0.26458333,0,-0.13229163)" />
    <linearGradient
       inkscape:collect="always"
       id="linearGradient1871">
      <stop
         style="stop-color:#ffffff;stop-opacity:1;"
         offset="0"
         id="stop1867" />
      <stop
         style="stop-color:#ffffff;stop-opacity:0.1"
         offset="0.12"
         id="stop2515" />
      <stop
         style="stop-color:#ffffff;stop-opacity:0.102"
         offset="0.89999998"
         id="stop2581" />
      <stop
         style="stop-color:#ffffff;stop-opacity:0.502"
         offset="1"
         id="stop1869" />
    </linearGradient>
  </defs>
  <path
     id="rect3143"
     style="opacity:0.1;fill:#000000;fill-opacity:1;stroke-width:0.264583"
     d="m 4.5160033,1.0583333 c -3.6040539,0 -4.1191283,0.5137856 -4.1191283,4.1144776 v 2.8835446 c 0,3.6006805 0.5150744,4.1144805 4.1191283,4.1144805 h 3.6679933 c 3.6040544,0 4.1191284,-0.5138 4.1191284,-4.1144805 V 5.1728109 c 0,-3.600692 -0.515074,-4.1144776 -4.1191284,-4.1144776 z" />
  <path
     style="display:inline;fill:url(#linearGradient3600);fill-opacity:1;stroke:none;stroke-width:0.0992187;stroke-linecap:round;stroke-linejoin:round;stroke-miterlimit:4;stroke-dasharray:none;stroke-dashoffset:0;stroke-opacity:1;enable-background:new"
     d="m 8.1839953,0.66145835 c 3.6040547,0 4.1191297,0.51378555 4.1191297,4.11447755 v 2.883545 c 0,3.6006771 -0.515075,4.1144771 -4.1191297,4.1144771 H 4.5160029 c -3.60405369,0 -4.1191279,-0.5138 -4.1191279,-4.1144771 v -2.883545 c 0,-3.600692 0.51507421,-4.11447755 4.1191279,-4.11447755 z"
     id="rect877"
     inkscape:connector-curvature="0"
     sodipodi:nodetypes="sssssssss" />
  <path
     id="rect1262"
     style="opacity:0.3;fill:#000000;fill-opacity:1;stroke-width:0.289835;stroke-linejoin:round"
     d="M 3.175,0.5632731 C 0.66245038,0.72395342 0.26458333,1.5427216 0.26458333,4.7418293 v 2.9517578 c 0,3.1990959 0.39786705,4.0178729 2.91041667,4.1785559 z" />
  <path
     id="rect28"
     d="m 1.3229166,3.1749999 c -0.1465792,0 -0.2645833,0.1180042 -0.2645833,0.2645833 v 1.0583333 c 0,0.1465792 0.1180041,0.2645834 0.2645833,0.2645834 h 1.0583333 c 0.1465792,0 0.2645834,-0.1180042 0.2645834,-0.2645834 V 3.4395832 c 0,-0.1465791 -0.1180042,-0.2645833 -0.2645834,-0.2645833 z m 0,2.6458333 c -0.1465792,0 -0.2645833,0.1180042 -0.2645833,0.2645833 v 1.0583333 c 0,0.1465792 0.1180041,0.2645834 0.2645833,0.2645834 h 1.0583333 c 0.1465792,0 0.2645834,-0.1180042 0.2645834,-0.2645834 V 6.0854165 c 0,-0.1465791 -0.1180042,-0.2645833 -0.2645834,-0.2645833 z m 0,2.6458333 c -0.1465792,0 -0.2645833,0.1180042 -0.2645833,0.2645833 v 1.0583335 c 0,0.146579 0.1180041,0.2645827 0.2645833,0.2645827 h 1.0583333 c 0.1465792,0 0.2645834,-0.1180037 0.2645834,-0.2645827 V 8.7312498 c 0,-0.1465791 -0.1180042,-0.2645833 -0.2645834,-0.2645833 z"
     style="opacity:0.25;fill:#000000;stroke-width:0.264583" />
  <path
     id="rect30"
     d="m 1.3229166,2.9104166 c -0.1465792,0 -0.2645833,0.1180041 -0.2645833,0.2645833 v 1.0583333 c 0,0.1465792 0.1180041,0.2645833 0.2645833,0.2645833 h 1.0583333 c 0.1465792,0 0.2645834,-0.1180041 0.2645834,-0.2645833 V 3.1749999 c 0,-0.1465792 -0.1180042,-0.2645833 -0.2645834,-0.2645833 z m 0,2.6458333 c -0.1465792,0 -0.2645833,0.1180041 -0.2645833,0.2645833 v 1.0583333 c 0,0.1465792 0.1180041,0.2645833 0.2645833,0.2645833 h 1.0583333 c 0.1465792,0 0.2645834,-0.1180041 0.2645834,-0.2645833 V 5.8208332 c 0,-0.1465792 -0.1180042,-0.2645833 -0.2645834,-0.2645833 z m 0,2.6458333 c -0.1465792,0 -0.2645833,0.1180041 -0.2645833,0.2645833 v 1.0583328 c 0,0.14658 0.1180041,0.264584 0.2645833,0.264584 h 1.0583333 c 0.1465792,0 0.2645834,-0.118004 0.2645834,-0.264584 V 8.4666665 c 0,-0.1465792 -0.1180042,-0.2645833 -0.2645834,-0.2645833 z"
     style="fill:#faf8f6;fill-opacity:1;stroke-width:0.264583" />
  <path
     d="m 5.919814,3.7041665 c -0.2946136,0 -0.5266531,0.00657 -0.7170209,0.0385 C 5.0122588,3.7746277 4.8569298,3.8344712 4.7428679,3.9483373 4.628769,4.062243 4.5686927,4.2177625 4.5366782,4.4079979 c -0.011404,0.067718 -0.018706,0.1429782 -0.024553,0.2222077 -0.01053,0.1430946 -0.014208,0.3042443 -0.014208,0.4935008 v 2.4525552 c 0,0.2940579 0.0068,0.5258329 0.038756,0.716227 0.032004,0.1906482 0.091932,0.3461809 0.2059305,0.4604279 0.1140195,0.1142868 0.2697162,0.1744875 0.4604279,0.2061898 0.1903888,0.031647 0.4223808,0.038126 0.7170208,0.03669 H 7.540625 9.1609333 c 0.29464,0.0013 0.5268651,-0.005 0.7172595,-0.03669 0.1907172,-0.031702 0.3461542,-0.0919 0.4601902,-0.2061898 0.113998,-0.1142682 0.173926,-0.2697956 0.20593,-0.4604279 0.03196,-0.1904126 0.03902,-0.4221691 0.03902,-0.716227 V 5.1237064 c 0,-0.1892618 -0.0036,-0.3504142 -0.01421,-0.4935008 -0.0059,-0.079235 -0.01342,-0.1544902 -0.02479,-0.2222077 C 10.512323,4.2177678 10.452503,4.0622404 10.338403,3.9483373 10.224343,3.8344712 10.068766,3.7746277 9.8782128,3.7426661 9.6890454,3.7109321 9.4865764,3.7041661 9.1614559,3.7041661 H 7.5406144 Z"
     style="color:#000000;opacity:0.1;fill:#000000;stroke-width:0.264583;enable-background:accumulate"
     id="path898"
     sodipodi:nodetypes="sscccssccsccccccssscscscs" />
  <path
     d="m 5.919814,3.4395832 c -0.2946136,0 -0.5266531,0.00657 -0.7170209,0.0385 C 5.0122588,3.5100442 4.8569298,3.5698882 4.7428679,3.6837539 4.628769,3.7976597 4.5686927,3.9531792 4.5366782,4.1434146 c -0.011404,0.067717 -0.018706,0.1429782 -0.024553,0.2222076 -0.01053,0.1430946 -0.014208,0.3042444 -0.014208,0.4935009 v 2.4525551 c 0,0.2940579 0.0068,0.5258329 0.038756,0.7162271 0.032004,0.1906482 0.091932,0.3461808 0.2059305,0.4604279 C 4.8566232,8.60262 5.0123199,8.6628206 5.2030316,8.694523 5.3934204,8.72617 5.6254124,8.732649 5.9200524,8.731213 H 7.540625 9.1609333 c 0.29464,0.00132 0.5268651,-0.00503 0.7172595,-0.03669 0.1907172,-0.031702 0.3461542,-0.0919 0.4601902,-0.2061898 0.113998,-0.1142682 0.173926,-0.2697956 0.20593,-0.4604279 0.03196,-0.1904127 0.03902,-0.4221692 0.03902,-0.7162271 V 4.8591231 c 0,-0.1892618 -0.0036,-0.3504142 -0.01421,-0.4935009 -0.0059,-0.079235 -0.01342,-0.1544902 -0.02479,-0.2222076 -0.03201,-0.1902302 -0.09183,-0.3457575 -0.20593,-0.4596607 -0.11406,-0.113866 -0.269637,-0.1737095 -0.4601902,-0.2056712 -0.1891674,-0.031734 -0.3916364,-0.0385 -0.7167569,-0.0385 H 7.5406144 Z"
     style="color:#000000;fill:#faf8f6;stroke-width:0.264583;enable-background:accumulate"
     id="path1379" />
  <path
     d="m 5.919814,3.4395832 c -0.2946136,0 -0.5269177,0.00683 -0.717259,0.038756 C 5.0120206,3.5103032 4.8566917,3.5701472 4.7426298,3.684013 4.6285309,3.7979188 4.5684546,3.9532001 4.53644,4.1434091 4.53184,4.1708011 4.53006,4.2036971 4.52662,4.2333251 h 6.027474 c -0.0035,-0.029625 -0.0052,-0.062521 -0.0098,-0.089916 C 10.51227,3.9531792 10.452191,3.7979164 10.338092,3.6840132 10.224032,3.5701472 10.068719,3.5103037 9.8781658,3.4783394 9.6889994,3.4466053 9.4865294,3.4395832 9.1614096,3.4395832 H 7.5403075 Z"
     style="color:#000000;fill:#7c2f68;stroke-width:0.264583;enable-background:accumulate"
     id="path1018" />
  <path
     id="rect1565"
     style="fill:url(#linearGradient1873);fill-opacity:1;stroke-width:0.264583;opacity:0.5"
     d="m 4.5568277,0.79375 c -3.5239635,0 -4.02766103,0.5013312 -4.02766103,4.0162924 v 2.8153318 c 0,3.5149478 0.50369753,4.0162928 4.02766103,4.0162928 h 3.5863445 c 3.5239638,0 4.0276608,-0.501345 4.0276608,-4.0162928 V 4.8100424 c 0,-3.5149612 -0.503697,-4.0162924 -4.0276608,-4.0162924 z m 0.081649,0.2645834 h 3.4230468 c 3.3637835,0 3.8447265,0.4769388 3.8447265,3.8204385 v 2.6778728 c 0,3.3434873 -0.480943,3.8204393 -3.8447265,3.8204393 H 4.6384765 C 1.2746931,11.377084 0.79375,10.900132 0.79375,7.5566447 V 4.8787719 c 0,-3.3434997 0.4809431,-3.8204385 3.8447267,-3.8204385 z" />
  <path
     id="rect1370"
     style="opacity:0.4;fill:#000000;fill-opacity:1;stroke-width:0.264583"
     d="m 4.4751788,0.52916667 c -3.68414314,0 -4.21059547,0.52624033 -4.21059547,4.21266263 v 2.9517578 c 0,3.6864079 0.52645233,4.2126629 4.21059547,4.2126629 H 8.224821 c 3.684144,0 4.210596,-0.526255 4.210596,-4.2126629 V 4.7418293 c 0,-3.6864223 -0.526452,-4.21266263 -4.210596,-4.21266263 z M 4.5568278,0.79375 h 3.5863445 c 3.5239637,0 4.0276607,0.5013312 4.0276607,4.0162924 v 2.8153317 c 0,3.5149469 -0.503697,4.0162919 -4.0276607,4.0162919 H 4.5568277 c -3.5239638,0 -4.02766104,-0.501345 -4.02766104,-4.0162919 V 4.8100424 c 0,-3.5149612 0.50369724,-4.0162924 4.02766114,-4.0162924 z" />
</svg>
