<?xml version="1.0" encoding="UTF-8" standalone="no"?>
<!-- Created with Inkscape (http://www.inkscape.org/) -->

<svg
   width="48"
   height="48"
   viewBox="0 0 12.7 12.7"
   version="1.1"
   id="svg5"
   inkscape:version="1.1.2 (0a00cf5339, 2022-02-04, custom)"
   sodipodi:docname="preferences-desktop-wallpaper.svg"
   xmlns:inkscape="http://www.inkscape.org/namespaces/inkscape"
   xmlns:sodipodi="http://sodipodi.sourceforge.net/DTD/sodipodi-0.dtd"
   xmlns:xlink="http://www.w3.org/1999/xlink"
   xmlns="http://www.w3.org/2000/svg"
   xmlns:svg="http://www.w3.org/2000/svg">
  <sodipodi:namedview
     id="namedview7"
     pagecolor="#ffffff"
     bordercolor="#666666"
     borderopacity="1.0"
     inkscape:pageshadow="2"
     inkscape:pageopacity="0.0"
     inkscape:pagecheckerboard="0"
     inkscape:document-units="px"
     showgrid="false"
     units="px"
     inkscape:zoom="8"
     inkscape:cx="38.375"
     inkscape:cy="36.625"
     inkscape:window-width="1920"
     inkscape:window-height="1009"
     inkscape:window-x="-8"
     inkscape:window-y="-8"
     inkscape:window-maximized="1"
     inkscape:current-layer="svg5"
     showguides="false" />
  <defs
     id="defs2">
    <linearGradient
       inkscape:collect="always"
       id="linearGradient3598">
      <stop
         style="stop-color:#fb7c38;stop-opacity:1"
         offset="0"
         id="stop3594" />
      <stop
         style="stop-color:#9b33ae;stop-opacity:1"
         offset="1"
         id="stop3596" />
    </linearGradient>
    <linearGradient
       inkscape:collect="always"
       id="linearGradient1871">
      <stop
         style="stop-color:#ffffff;stop-opacity:1;"
         offset="0"
         id="stop1867" />
      <stop
         style="stop-color:#ffffff;stop-opacity:0.1"
         offset="0.12"
         id="stop2515" />
      <stop
         style="stop-color:#ffffff;stop-opacity:0.102"
         offset="0.89999998"
         id="stop2581" />
      <stop
         style="stop-color:#ffffff;stop-opacity:0.502"
         offset="1"
         id="stop1869" />
    </linearGradient>
    <linearGradient
       inkscape:collect="always"
       xlink:href="#linearGradient1871"
       id="linearGradient1873"
       x1="17.222656"
       y1="3.5"
       x2="17.222656"
       y2="44.466438"
       gradientUnits="userSpaceOnUse"
       gradientTransform="matrix(0.26458333,0,0,0.26458333,0,0.13229167)" />
    <linearGradient
       inkscape:collect="always"
       xlink:href="#linearGradient3598"
       id="linearGradient3600"
       x1="12.262125"
       y1="9.7353592"
       x2="0.36087561"
       y2="4.2708535"
       gradientUnits="userSpaceOnUse"
       gradientTransform="translate(0,0.26458333)" />
  </defs>
  <path
     style="display:inline;fill:url(#linearGradient3600);fill-opacity:1;stroke:none;stroke-width:0.0992187;stroke-linecap:round;stroke-linejoin:round;stroke-miterlimit:4;stroke-dasharray:none;stroke-dashoffset:0;stroke-opacity:1;enable-background:new"
     d="m 8.1839962,0.92604168 c 3.6040548,0 4.1191298,0.51378542 4.1191298,4.11447752 v 2.883545 c 0,3.6006778 -0.515075,4.1144778 -4.1191298,4.1144778 H 4.5160033 c -3.604054,0 -4.1191283,-0.5138 -4.1191283,-4.1144778 v -2.883545 c 0,-3.6006921 0.5150743,-4.11447752 4.1191283,-4.11447752 z"
     id="rect877"
     inkscape:connector-curvature="0"
     sodipodi:nodetypes="sssssssss" />
  <path
     id="rect1262"
     style="opacity:0.3;fill:#000000;fill-opacity:1;stroke-width:1.09544;stroke-linejoin:round"
     d="M 12 3.1289062 C 2.5037495 3.7362019 1 6.8307589 1 18.921875 L 1 30.078125 C 1 42.169196 2.5037495 45.263789 12 45.871094 L 12 3.1289062 z "
     transform="scale(0.26458333)" />
  <path
     id="rect1752"
     style="opacity:1;fill:#5d5d5d;fill-opacity:1;stroke-width:0.999999;stroke-linejoin:round"
     d="M 28,3.5 46.5,22 V 19.050781 C 46.5,5.4418662 44.553265,3.5 30.931641,3.5 Z"
     transform="scale(0.26458333)"
     sodipodi:nodetypes="ccssc" />
  <path
     id="rect2713"
     style="opacity:0.2;fill:#000000;fill-opacity:1;stroke-width:0.999999;stroke-linejoin:round"
     d="M 27.5 4 L 28 4.5 L 28 6.4492188 C 28 20.058133 29.946733 22 43.568359 22 L 45.5 22 L 46 22.5 L 46 19.179688 C 46 5.8947948 44.09626 4 30.777344 4 L 27.5 4 z "
     transform="scale(0.26458333)" />
  <path
     id="rect2237"
     style="opacity:1;fill:#faf8f6;fill-opacity:1;stroke-width:0.264583;stroke-linejoin:round"
     d="M 12.303126,5.5562499 7.6729167,0.92604166 V 1.4417725 c 0,3.6006919 0.515074,4.1144774 4.1191293,4.1144774 z"
     sodipodi:nodetypes="ccssc" />
  <path
     id="rect1565"
     style="opacity:1;fill:url(#linearGradient1873);fill-opacity:1;stroke-width:0.264583"
     d="m 4.5568277,1.0583333 c -3.5239635,0 -4.02766104,0.5013312 -4.02766104,4.0162924 v 2.8153318 c 0,3.5149475 0.50369754,4.0162925 4.02766104,4.0162925 h 3.5863445 c 3.5239638,0 4.0276608,-0.501345 4.0276608,-4.0162925 V 5.0746257 c 0,-3.5149612 -0.503697,-4.0162924 -4.0276608,-4.0162924 z m 0.081649,0.2645834 h 3.4230468 c 3.3637835,0 3.8447265,0.4769388 3.8447265,3.8204385 V 7.821228 c 0,3.343487 -0.480943,3.820439 -3.8447265,3.820439 h -3.423047 c -3.3637834,0 -3.84472651,-0.476952 -3.84472651,-3.820439 V 5.1433552 c 0,-3.3434997 0.48094311,-3.8204385 3.84472671,-3.8204385 z" />
  <path
     id="rect1370"
     style="opacity:0.4;fill:#000000;fill-opacity:1;stroke-width:0.264583"
     d="m 4.4751788,0.79375 c -3.68414336,0 -4.21059547,0.5262403 -4.21059547,4.2126627 v 2.9517578 c 0,3.6864085 0.52645211,4.2126625 4.21059547,4.2126625 H 8.224821 c 3.684144,0 4.210596,-0.526254 4.210596,-4.2126625 V 5.0064127 c 0,-3.6864224 -0.526452,-4.2126627 -4.210596,-4.2126627 z m 0.081649,0.2645833 h 3.5863445 c 3.5239637,0 4.0276607,0.5013314 4.0276607,4.0162924 v 2.8153318 c 0,3.5149475 -0.503697,4.0162925 -4.0276607,4.0162925 H 4.5568277 c -3.5239637,0 -4.02766104,-0.501345 -4.02766104,-4.0162925 V 5.0746257 c 0,-3.514961 0.50369724,-4.0162924 4.02766114,-4.0162924 z" />
</svg>
