<?xml version="1.0" encoding="UTF-8" standalone="no"?>
<!-- Created with Inkscape (http://www.inkscape.org/) -->

<svg
   width="48"
   height="48"
   viewBox="0 0 12.7 12.7"
   version="1.1"
   id="svg5"
   inkscape:version="1.1.2 (0a00cf5339, 2022-02-04)"
   sodipodi:docname="visual-studio-code.svg"
   xmlns:inkscape="http://www.inkscape.org/namespaces/inkscape"
   xmlns:sodipodi="http://sodipodi.sourceforge.net/DTD/sodipodi-0.dtd"
   xmlns:xlink="http://www.w3.org/1999/xlink"
   xmlns="http://www.w3.org/2000/svg"
   xmlns:svg="http://www.w3.org/2000/svg">
  <sodipodi:namedview
     id="namedview7"
     pagecolor="#ffffff"
     bordercolor="#666666"
     borderopacity="1.0"
     inkscape:pageshadow="2"
     inkscape:pageopacity="0.0"
     inkscape:pagecheckerboard="0"
     inkscape:document-units="px"
     showgrid="false"
     units="px"
     inkscape:zoom="11.667262"
     inkscape:cx="17.399112"
     inkscape:cy="32.612622"
     inkscape:window-width="1851"
     inkscape:window-height="1016"
     inkscape:window-x="0"
     inkscape:window-y="0"
     inkscape:window-maximized="1"
     inkscape:current-layer="svg5"
     showguides="false" />
  <defs
     id="defs2">
    <linearGradient
       inkscape:collect="always"
       xlink:href="#linearGradient1871"
       id="linearGradient1873"
       x1="17.222656"
       y1="3.5"
       x2="17.222656"
       y2="44.466438"
       gradientUnits="userSpaceOnUse"
       gradientTransform="matrix(0.26458333,0,0,0.26458333,0,-0.13229163)" />
    <linearGradient
       inkscape:collect="always"
       id="linearGradient1871">
      <stop
         style="stop-color:#ffffff;stop-opacity:1;"
         offset="0"
         id="stop1867" />
      <stop
         style="stop-color:#ffffff;stop-opacity:0.1"
         offset="0.12"
         id="stop2515" />
      <stop
         style="stop-color:#ffffff;stop-opacity:0.102"
         offset="0.89999998"
         id="stop2581" />
      <stop
         style="stop-color:#ffffff;stop-opacity:0.502"
         offset="1"
         id="stop1869" />
    </linearGradient>
  </defs>
  <path
     id="rect3143"
     style="opacity:0.1;fill:#000000;fill-opacity:1;stroke-width:0.264583"
     d="m 4.5160033,1.0583333 c -3.6040539,0 -4.1191283,0.5137856 -4.1191283,4.1144776 v 2.8835446 c 0,3.6006805 0.5150744,4.1144805 4.1191283,4.1144805 h 3.6679933 c 3.6040544,0 4.1191284,-0.5138 4.1191284,-4.1144805 V 5.1728109 c 0,-3.600692 -0.515074,-4.1144776 -4.1191284,-4.1144776 z" />
  <path
     style="display:inline;fill:#4d4d4d;fill-opacity:1;stroke:none;stroke-width:0.0992187;stroke-linecap:round;stroke-linejoin:round;stroke-miterlimit:4;stroke-dasharray:none;stroke-dashoffset:0;stroke-opacity:1;enable-background:new"
     d="m 8.1839953,0.66145835 c 3.6040547,0 4.1191297,0.51378555 4.1191297,4.11447755 v 2.883545 c 0,3.6006771 -0.515075,4.1144771 -4.1191297,4.1144771 H 4.5160029 c -3.60405369,0 -4.1191279,-0.5138 -4.1191279,-4.1144771 v -2.883545 c 0,-3.600692 0.51507421,-4.11447755 4.1191279,-4.11447755 z"
     id="rect877"
     inkscape:connector-curvature="0"
     sodipodi:nodetypes="sssssssss" />
  <path
     id="path6"
     d="M 10.283877,3.0135487 8.5404425,2.1692445 C 8.3386552,2.0715159 8.0974695,2.1127401 7.9390814,2.2720341 L 2.2316887,7.4121655 C 2.0781744,7.5529562 2.0783508,7.7960383 2.2320698,7.9365958 l 0.4661981,0.4262576 c 0.1256732,0.1149273 0.3149364,0.1233709 0.4502445,0.020152 L 10.021537,3.2325818 c 0.230574,-0.1759351 0.561764,-0.010517 0.561764,0.2805768 v -0.020363 c 0,-0.2043364 -0.116379,-0.3906076 -0.299424,-0.4792492 z"
     style="fill:#0072b0;stroke-width:0.30238" />
  <path
     id="path12"
     d="M 10.283877,9.6864738 8.5404425,10.530781 c -0.2017873,0.09771 -0.442973,0.05648 -0.6013611,-0.102794 L 2.2316887,4.9760744 C 2.0781744,4.835295 2.0783508,4.5922022 2.2320698,4.4516493 L 2.6982679,4.0253738 C 2.8239411,3.9104642 3.0132043,3.9020039 3.1485124,4.0052448 l 6.8730246,5.4621824 c 0.230574,0.1759294 0.561764,0.010528 0.561764,-0.2805812 v 0.020379 c 0,0.2043197 -0.116379,0.3905879 -0.299424,0.4792514 z"
     style="fill:#008eda;stroke-width:0.30238" />
  <path
     id="path16"
     d="m 8.5405411,10.530915 c -0.2018529,0.09764 -0.4430379,0.05638 -0.6014269,-0.102923 0.1951427,0.196275 0.5288438,0.05724 0.5288438,-0.220343 V 2.4923536 c 0,-0.2775902 -0.3337011,-0.4166107 -0.5288438,-0.2203238 0.158389,-0.1593067 0.399574,-0.2005901 0.6014269,-0.1029483 L 10.283677,3.012226 c 0.18318,0.088596 0.299657,0.2749336 0.299657,0.4793592 v 5.7168683 c 0,0.2044194 -0.116477,0.3907544 -0.299657,0.4793511 z"
     style="fill:#1eacf8;stroke-width:0.30238" />
  <path
     id="rect1565"
     style="fill:url(#linearGradient1873);fill-opacity:1;stroke-width:0.264583;opacity:0.5"
     d="m 4.5568277,0.79375 c -3.5239635,0 -4.02766103,0.5013312 -4.02766103,4.0162924 v 2.8153318 c 0,3.5149478 0.50369753,4.0162928 4.02766103,4.0162928 h 3.5863445 c 3.5239638,0 4.0276608,-0.501345 4.0276608,-4.0162928 V 4.8100424 c 0,-3.5149612 -0.503697,-4.0162924 -4.0276608,-4.0162924 z m 0.081649,0.2645834 h 3.4230468 c 3.3637835,0 3.8447265,0.4769388 3.8447265,3.8204385 v 2.6778728 c 0,3.3434873 -0.480943,3.8204393 -3.8447265,3.8204393 H 4.6384765 C 1.2746931,11.377084 0.79375,10.900132 0.79375,7.5566447 V 4.8787719 c 0,-3.3434997 0.4809431,-3.8204385 3.8447267,-3.8204385 z" />
  <path
     id="rect1370"
     style="opacity:0.4;fill:#000000;fill-opacity:1;stroke-width:0.264583"
     d="m 4.4751788,0.52916667 c -3.68414314,0 -4.21059547,0.52624033 -4.21059547,4.21266263 v 2.9517578 c 0,3.6864079 0.52645233,4.2126629 4.21059547,4.2126629 H 8.224821 c 3.684144,0 4.210596,-0.526255 4.210596,-4.2126629 V 4.7418293 c 0,-3.6864223 -0.526452,-4.21266263 -4.210596,-4.21266263 z M 4.5568278,0.79375 h 3.5863445 c 3.5239637,0 4.0276607,0.5013312 4.0276607,4.0162924 v 2.8153317 c 0,3.5149469 -0.503697,4.0162919 -4.0276607,4.0162919 H 4.5568277 c -3.5239638,0 -4.02766104,-0.501345 -4.02766104,-4.0162919 V 4.8100424 c 0,-3.5149612 0.50369724,-4.0162924 4.02766114,-4.0162924 z" />
</svg>
