<?xml version="1.0" encoding="UTF-8" standalone="no"?>
<!-- Created with Inkscape (http://www.inkscape.org/) -->

<svg
   width="32"
   height="32"
   viewBox="0 0 8.4666665 8.4666669"
   version="1.1"
   id="svg2719"
   inkscape:version="1.1.2 (0a00cf5339, 2022-02-04)"
   sodipodi:docname="accessories-dictionary.svg"
   xmlns:inkscape="http://www.inkscape.org/namespaces/inkscape"
   xmlns:sodipodi="http://sodipodi.sourceforge.net/DTD/sodipodi-0.dtd"
   xmlns:xlink="http://www.w3.org/1999/xlink"
   xmlns="http://www.w3.org/2000/svg"
   xmlns:svg="http://www.w3.org/2000/svg">
  <sodipodi:namedview
     id="namedview2721"
     pagecolor="#ffffff"
     bordercolor="#666666"
     borderopacity="1.0"
     inkscape:pageshadow="2"
     inkscape:pageopacity="0.0"
     inkscape:pagecheckerboard="0"
     inkscape:document-units="px"
     showgrid="false"
     units="px"
     inkscape:zoom="25.90625"
     inkscape:cx="16"
     inkscape:cy="16"
     inkscape:window-width="1851"
     inkscape:window-height="1049"
     inkscape:window-x="0"
     inkscape:window-y="0"
     inkscape:window-maximized="1"
     inkscape:current-layer="svg2719" />
  <defs
     id="defs2716">
    <linearGradient
       inkscape:collect="always"
       id="linearGradient2290">
      <stop
         style="stop-color:#bc1938;stop-opacity:1"
         offset="0"
         id="stop2286" />
      <stop
         style="stop-color:#da1636;stop-opacity:1"
         offset="1"
         id="stop2288" />
    </linearGradient>
    <linearGradient
       inkscape:collect="always"
       id="linearGradient1871">
      <stop
         style="stop-color:#ffffff;stop-opacity:1;"
         offset="0"
         id="stop1867" />
      <stop
         style="stop-color:#ffffff;stop-opacity:0.1"
         offset="0.12"
         id="stop2515" />
      <stop
         style="stop-color:#ffffff;stop-opacity:0.102"
         offset="0.89999998"
         id="stop2581" />
      <stop
         style="stop-color:#ffffff;stop-opacity:0.502"
         offset="1"
         id="stop1869" />
    </linearGradient>
    <linearGradient
       inkscape:collect="always"
       xlink:href="#linearGradient1871"
       id="linearGradient16320"
       x1="10"
       y1="4"
       x2="10"
       y2="29.100245"
       gradientUnits="userSpaceOnUse"
       gradientTransform="matrix(0.26458333,0,0,0.26458333,0,-0.26458332)" />
    <linearGradient
       inkscape:collect="always"
       xlink:href="#linearGradient2290"
       id="linearGradient2292"
       x1="2.6458333"
       y1="0.5291667"
       x2="5.2916665"
       y2="7.9375"
       gradientUnits="userSpaceOnUse" />
  </defs>
  <path
     id="rect18683"
     style="opacity:0.1;fill:#000000;stroke-width:0.264583;stroke-linejoin:round"
     d="m 2.38125,0.92604165 c -1.45520832,0 -1.984375,0.52916665 -1.984375,1.98437495 v 3.0427085 c 0,1.5875 0.52916665,2.1166666 2.1166666,2.1166666 h 3.4395833 c 1.5875,0 2.1166667,-0.5291666 2.1166667,-2.1166666 V 3.0427083 c 0,-1.5875 -0.5291667,-2.11666665 -2.1166667,-2.11666665 z"
     sodipodi:nodetypes="sssssssss" />
  <path
     id="rect6397"
     style="fill:url(#linearGradient2292);fill-opacity:1;stroke-width:0.255274;stroke-linejoin:round"
     d="M 0.39687499,2.6458334 C 0.396875,1.190625 0.92604165,0.66145833 2.38125,0.66145834 h 3.571875 c 1.5874999,-1e-8 2.1166666,0.52916666 2.1166668,2.11666666 l 10e-8,2.9104168 c 0,1.5874999 -0.529166,2.1166666 -2.116666,2.1166666 H 2.5135417 c -1.58750001,0 -2.11666671,-0.5291667 -2.11666671,-2.1166667 z"
     sodipodi:nodetypes="ccccccccc" />
  <path
     id="rect1519"
     style="opacity:0.3;fill:#000000;stroke-width:0.94868;stroke-linejoin:round"
     d="M 7 2.6074219 C 3.0071182 3.0889711 1.5 5.226943 1.5 10 L 1.5 21.5 C 1.5 26.573393 2.9307458 28.785178 7 29.347656 L 7 2.6074219 z "
     transform="scale(0.26458333)" />
  <path
     id="rect1372"
     style="opacity:0.05;fill:#ffffff;fill-opacity:1;stroke-width:0.999999;stroke-linejoin:round"
     d="M 1.5 16 L 1.5 21.5 C 1.5 27.5 3.5 29.5 9.5 29.5 L 22.5 29.5 C 28.5 29.5 30.5 27.5 30.5 21.5 L 30.5 16 L 1.5 16 z "
     transform="scale(0.26458333)" />
  <path
     d="m 6.3578958,4.7625 c -0.137033,0 -0.2548625,0.00955 -0.3535362,0.028736 -0.095925,0.019182 -0.167185,0.039733 -0.2137781,0.061659 l 0.036983,0.2343282 c 0.035626,-0.013679 0.091808,-0.031485 0.1685449,-0.053409 0.076737,-0.021908 0.1932516,-0.032927 0.3494616,-0.032927 0.1096248,0 0.1972919,0.017859 0.2630646,0.05348 0.068514,0.032888 0.120613,0.078137 0.1562418,0.1356862 0.038367,0.054814 0.063003,0.1178455 0.073964,0.1891004 0.010954,0.068519 0.016431,0.1397159 0.016431,0.2137119 v 0.1315667 c -0.01098,-0.00548 -0.031512,-0.010954 -0.061659,-0.016431 -0.027408,-0.00823 -0.061656,-0.015081 -0.1027642,-0.020532 -0.038367,-0.00823 -0.079468,-0.013679 -0.1233196,-0.016431 -0.041108,-0.00548 -0.080825,-0.00826 -0.1191948,-0.00826 -0.1288071,0 -0.2480204,0.012303 -0.3576373,0.036983 -0.1096248,0.024659 -0.2042028,0.064445 -0.2836863,0.1192557 -0.079481,0.052073 -0.1411287,0.1191921 -0.1849781,0.2014087 -0.043852,0.082222 -0.065783,0.1808851 -0.065783,0.2959894 0,0.1205865 0.019182,0.223401 0.057536,0.3083719 0.041108,0.082217 0.095909,0.1507146 0.1644227,0.2055283 0.071258,0.05207 0.1535192,0.090405 0.2467028,0.1150673 0.095922,0.024659 0.2000514,0.03705 0.31242,0.03705 0.087696,0 0.1726618,-0.00415 0.2548837,-0.012356 0.08496,-0.00548 0.1616895,-0.013705 0.230206,-0.024686 0.068514,-0.010954 0.1287807,-0.020479 0.1808533,-0.028734 0.05207,-0.010954 0.091853,-0.020558 0.1192556,-0.028797 v -1.340141 c 0,-0.1123685 -0.013705,-0.2165614 -0.041103,-0.3124729 C 7.0540225,5.1393302 7.0101546,5.0571321 6.9498613,4.9886182 6.8895681,4.9173633 6.8100714,4.8625628 6.7114082,4.8241929 6.6154862,4.7830846 6.4976567,4.7625318 6.357872,4.7625318 Z m 0.082211,1.1304852 c 0.115107,0 0.205539,0.00826 0.2713038,0.024686 0.065773,0.013679 0.1137205,0.0274 0.1438672,0.041103 v 0.7482152 c -0.054811,0.010954 -0.121928,0.020479 -0.2014035,0.028736 -0.076737,0.00548 -0.1671717,0.00826 -0.2713038,0.00826 -0.08496,0 -0.1616921,-0.00683 -0.2302086,-0.020532 C 6.0865894,6.7069917 6.029024,6.6823087 5.9796898,6.649421 5.933102,6.6165333 5.8960868,6.5727342 5.8686786,6.5179204 5.8440194,6.4631067 5.8316978,6.3959264 5.8316978,6.3164482 c 0,-0.09044 0.019182,-0.1630892 0.057534,-0.2178976 0.03837,-0.054814 0.087704,-0.097232 0.1479973,-0.1273784 0.060293,-0.032888 0.1260899,-0.053504 0.1973475,-0.061722 0.071257,-0.01098 0.1397529,-0.016431 0.2055283,-0.016431 z"
     style="fill:#fa9381;stroke-width:0.264583;enable-background:new"
     id="path879" />
  <path
     id="rect13250"
     style="fill:url(#linearGradient16320);fill-opacity:1;stroke-width:0.264583;stroke-linejoin:round;opacity:0.4"
     d="m 2.6458333,0.79375 c -1.71979143,0 -2.11666664,0.396875 -2.11666664,2.1166666 v 2.6458335 c 0,1.7197919 0.39687515,2.1166666 2.11666664,2.1166666 h 3.175 c 1.7197913,0 2.1166666,-0.3968747 2.1166666,-2.1166666 V 2.9104166 C 7.9374999,1.190625 7.5406249,0.79375 5.8208333,0.79375 Z m 0,0.2645833 h 3.175 c 1.5213541,0 1.8520833,0.3307294 1.8520833,1.8520833 v 2.6458335 c 0,1.5213542 -0.3307292,1.8520833 -1.8520833,1.8520833 h -3.175 c -1.5213541,0 -1.85208331,-0.3307291 -1.85208331,-1.8520833 V 2.9104166 c 0,-1.521354 0.33072921,-1.8520834 1.85208331,-1.8520833 z"
     sodipodi:nodetypes="ssssssssssssssssss" />
  <path
     id="rect2545"
     style="opacity:0.4;fill:#000000;stroke-width:0.387914;stroke-linejoin:round"
     d="m 2.6458333,0.52916667 c -1.91822909,0 -2.38124997,0.4630208 -2.38124997,2.38124993 V 5.55625 c 0,1.8520831 0.52916735,2.38125 2.38124997,2.38125 h 3.175 c 1.8520841,0 2.3812499,-0.5291669 2.3812499,-2.38125 V 2.9104166 c 0,-1.8520832 -0.5291666,-2.38124988 -2.3812499,-2.38124993 z m 0,0.26458333 h 3.175 c 1.7197916,0 2.1166666,0.396875 2.1166666,2.1166666 V 5.55625 c 0,1.7197917 -0.3968753,2.1166666 -2.1166666,2.1166666 h -3.175 c -1.71979162,0 -2.11666664,-0.3968749 -2.11666664,-2.1166666 V 2.9104166 c 0,-1.7197916 0.39687505,-2.1166666 2.11666664,-2.1166666 z"
     sodipodi:nodetypes="ssssssssssssssssss" />
</svg>
