<?xml version="1.0" encoding="UTF-8" standalone="no"?>
<!-- Created with Inkscape (http://www.inkscape.org/) -->

<svg
   width="32"
   height="32"
   viewBox="0 0 8.4666665 8.4666669"
   version="1.1"
   id="svg2719"
   inkscape:version="1.1.2 (0a00cf5339, 2022-02-04)"
   sodipodi:docname="dcinside.svg"
   xmlns:inkscape="http://www.inkscape.org/namespaces/inkscape"
   xmlns:sodipodi="http://sodipodi.sourceforge.net/DTD/sodipodi-0.dtd"
   xmlns:xlink="http://www.w3.org/1999/xlink"
   xmlns="http://www.w3.org/2000/svg"
   xmlns:svg="http://www.w3.org/2000/svg">
  <sodipodi:namedview
     id="namedview2721"
     pagecolor="#ffffff"
     bordercolor="#666666"
     borderopacity="1.0"
     inkscape:pageshadow="2"
     inkscape:pageopacity="0.0"
     inkscape:pagecheckerboard="0"
     inkscape:document-units="px"
     showgrid="false"
     units="px"
     inkscape:zoom="24.75"
     inkscape:cx="15.979798"
     inkscape:cy="16"
     inkscape:window-width="1920"
     inkscape:window-height="1010"
     inkscape:window-x="0"
     inkscape:window-y="0"
     inkscape:window-maximized="1"
     inkscape:current-layer="svg2719" />
  <defs
     id="defs2716">
    <linearGradient
       inkscape:collect="always"
       id="linearGradient1871">
      <stop
         style="stop-color:#ffffff;stop-opacity:1;"
         offset="0"
         id="stop1867" />
      <stop
         style="stop-color:#ffffff;stop-opacity:0.1"
         offset="0.12"
         id="stop2515" />
      <stop
         style="stop-color:#ffffff;stop-opacity:0.102"
         offset="0.89999998"
         id="stop2581" />
      <stop
         style="stop-color:#ffffff;stop-opacity:0.502"
         offset="1"
         id="stop1869" />
    </linearGradient>
    <linearGradient
       inkscape:collect="always"
       xlink:href="#linearGradient1871"
       id="linearGradient16320"
       x1="10"
       y1="4"
       x2="10"
       y2="29.100245"
       gradientUnits="userSpaceOnUse"
       gradientTransform="matrix(0.26458333,0,0,0.26458333,0,-0.26458332)" />
  </defs>
  <path
     id="rect18683"
     style="opacity:0.1;fill:#000000;stroke-width:0.264583;stroke-linejoin:round"
     d="m 2.38125,0.92604165 c -1.45520832,0 -1.984375,0.52916665 -1.984375,1.98437495 v 3.0427085 c 0,1.5875 0.52916665,2.1166666 2.1166666,2.1166666 h 3.4395833 c 1.5875,0 2.1166667,-0.5291666 2.1166667,-2.1166666 V 3.0427083 c 0,-1.5875 -0.5291667,-2.11666665 -2.1166667,-2.11666665 z"
     sodipodi:nodetypes="sssssssss" />
  <path
     id="rect6397"
     style="fill:#3b468f;fill-opacity:1;stroke-width:0.255274;stroke-linejoin:round"
     d="M 0.39687499,2.6458334 C 0.396875,1.190625 0.92604165,0.66145833 2.38125,0.66145834 h 3.571875 c 1.5874999,-1e-8 2.1166666,0.52916666 2.1166668,2.11666666 l 10e-8,2.9104168 c 0,1.5874999 -0.529166,2.1166666 -2.116666,2.1166666 H 2.5135417 c -1.58750001,0 -2.11666671,-0.5291667 -2.11666671,-2.1166667 z"
     sodipodi:nodetypes="ccccccccc" />
  <path
     id="rect13250"
     style="fill:url(#linearGradient16320);fill-opacity:1;stroke-width:0.264583;stroke-linejoin:round"
     d="m 2.6458333,0.79375 c -1.71979143,0 -2.11666664,0.396875 -2.11666664,2.1166666 v 2.6458335 c 0,1.7197919 0.39687515,2.1166666 2.11666664,2.1166666 h 3.175 c 1.7197913,0 2.1166666,-0.3968747 2.1166666,-2.1166666 V 2.9104166 C 7.9374999,1.190625 7.5406249,0.79375 5.8208333,0.79375 Z m 0,0.2645833 h 3.175 c 1.5213541,0 1.8520833,0.3307294 1.8520833,1.8520833 v 2.6458335 c 0,1.5213542 -0.3307292,1.8520833 -1.8520833,1.8520833 h -3.175 c -1.5213541,0 -1.85208331,-0.3307291 -1.85208331,-1.8520833 V 2.9104166 c 0,-1.521354 0.33072921,-1.8520834 1.85208331,-1.8520833 z"
     sodipodi:nodetypes="ssssssssssssssssss" />
  <path
     id="rect2545"
     style="opacity:0.4;fill:#000000;stroke-width:0.387914;stroke-linejoin:round"
     d="m 2.6458333,0.52916667 c -1.91822909,0 -2.38124997,0.4630208 -2.38124997,2.38124993 V 5.55625 c 0,1.8520831 0.52916735,2.38125 2.38124997,2.38125 h 3.175 c 1.8520841,0 2.3812499,-0.5291669 2.3812499,-2.38125 V 2.9104166 c 0,-1.8520832 -0.5291666,-2.38124988 -2.3812499,-2.38124993 z m 0,0.26458333 h 3.175 c 1.7197916,0 2.1166666,0.396875 2.1166666,2.1166666 V 5.55625 c 0,1.7197917 -0.3968753,2.1166666 -2.1166666,2.1166666 h -3.175 c -1.71979162,0 -2.11666664,-0.3968749 -2.11666664,-2.1166666 V 2.9104166 c 0,-1.7197916 0.39687505,-2.1166666 2.11666664,-2.1166666 z"
     sodipodi:nodetypes="ssssssssssssssssss" />
  <path
     id="path4-3"
     style="fill:#ffffff;fill-opacity:1;stroke:none;stroke-width:0.00754064;stroke-miterlimit:4;stroke-dasharray:none"
     d="m 3.0430426,2.1166667 c 0.1345891,0.451805 0.049738,0.9040866 0.063612,1.353391 C 3.0736209,3.4222223 3.0515313,3.3722398 3.024398,3.324921 2.9744811,3.2378378 2.9111294,3.1642323 2.8167464,3.1205597 2.5409944,2.9929635 2.2659419,2.8632285 1.990527,2.7348687 1.9098004,2.6972608 1.8262759,2.6691471 1.7368118,2.6602898 1.5937548,2.6461466 1.4841595,2.7035846 1.4172917,2.8313829 c -0.049026,0.093679 -0.072313,0.195475 -0.076041,0.2997788 -0.015102,0.4230391 -0.02539,0.8467378 -0.01243,1.2696723 0.012616,0.4116738 0.1686129,0.7601015 0.5417951,0.9684321 0.3270539,0.182543 0.6752355,0.3246342 1.0148605,0.4829359 0.063416,0.029556 0.1193929,0.011536 0.1608568,-0.044969 0.023023,-0.031398 0.043914,-0.064123 0.07202,-0.1056538 0.029185,0.08319 0.036719,0.1586268 0.048257,0.2328761 0.00602,0.038652 0.020991,0.062061 0.058127,0.079332 0.3214983,0.1492344 0.6423876,0.2998244 0.9622164,0.4525931 0.04035,0.01925 0.063715,0.00717 0.093589,-0.016088 0.1839667,-0.1432066 0.3688909,-0.2850213 0.5534939,-0.4273669 0.03917,-0.030216 0.078345,-0.060968 0.1173524,-0.091396 -0.00155,-0.00468 -0.0032,-0.00923 -0.00475,-0.013894 -0.036634,0.00213 -0.073668,0.00254 -0.110041,0.00693 -0.1369755,0.016425 -0.267545,-0.0076 -0.3933665,-0.060685 -0.074584,-0.031449 -0.1464787,-0.07076 -0.2222711,-0.098694 -0.0581,-0.021421 -0.070082,-0.055707 -0.06946,-0.1140632 0.010696,-0.973172 0.018289,-1.9463778 0.02961,-2.9195507 7.61e-4,-0.066442 -0.020167,-0.09692 -0.079338,-0.1239265 C 3.7724209,2.4572807 3.4452759,2.3021444 3.1172562,2.1488374 3.0952813,2.1385725 3.0727818,2.1295068 3.0430426,2.1166667 Z M 5.0669144,3.324921 C 4.8529588,3.314724 4.6562234,3.380199 4.4808833,3.5424431 c -0.063153,0.058437 -0.129745,0.1136387 -0.1977806,0.1663407 -0.037465,0.029043 -0.051893,0.060204 -0.051548,0.1085788 0.0023,0.3343615 7.975e-4,0.6687629 0.00145,1.0031624 3e-5,0.018577 -0.00854,0.039972 0.01243,0.060322 0.021745,-0.016789 0.043336,-0.032979 0.064341,-0.050084 0.2160011,-0.1759796 0.4319419,-0.3521498 0.6478189,-0.52827 0.064935,-0.052979 0.133637,-0.1001121 0.208748,-0.137825 0.1261442,-0.063371 0.2508189,-0.065564 0.3791099,-0.0022 0.2064437,0.1019975 0.415359,0.1993613 0.6225895,0.2997791 0.047685,0.023089 0.094746,0.048052 0.1389212,0.077138 0.079827,0.052562 0.1239587,0.1254792 0.1122334,0.2248339 -0.0069,0.019023 -0.00859,0.034849 0.019374,0.034368 C 6.6617656,4.6194634 6.8837579,4.4390524 7.1090619,4.2626396 7.1656569,4.2183444 7.1471494,4.2070887 7.0955383,4.1829428 6.5842596,3.9440156 6.0739757,3.7031209 5.563374,3.4627458 5.4739101,3.4206455 5.3821949,3.3845761 5.2862618,3.3596512 5.211224,3.3401565 5.1382304,3.3283181 5.0669119,3.3249207 Z M 2.4369048,3.5106374 c 0.024891,-0.014435 0.061294,-0.00889 0.1125996,0.014623 0.1356748,0.062181 0.2696006,0.1275287 0.4054325,0.1893725 0.098591,0.044861 0.1480202,0.1226104 0.1491582,0.2273931 0.00218,0.1974738 -0.00166,0.3951001 -0.0011,0.5926115 1.049e-4,0.035356 -0.021276,0.05489 -0.040945,0.077504 -0.1541429,0.1774301 -0.268387,0.3739967 -0.2921065,0.6130839 -0.00424,0.042811 -0.021924,0.035963 -0.048257,0.023396 C 2.6691711,5.2235758 2.6176847,5.1955122 2.5633878,5.1751386 2.427406,5.1240368 2.3774366,5.0219286 2.3784024,4.884135 c 0.00142,-0.2025727 0.012288,-0.9979198 0.01243,-1.1929003 2.26e-5,-0.025314 -2.621e-4,-0.050534 0.00219,-0.075676 0.00548,-0.055944 0.018978,-0.090487 0.043871,-0.1049224 z" />
</svg>
