<?xml version="1.0" encoding="UTF-8" standalone="no"?>
<!-- Created with Inkscape (http://www.inkscape.org/) -->

<svg
   width="32"
   height="32"
   viewBox="0 0 8.4666665 8.4666669"
   version="1.1"
   id="svg2719"
   inkscape:version="1.1.2 (0a00cf5339, 2022-02-04)"
   sodipodi:docname="document-viewer.svg"
   xmlns:inkscape="http://www.inkscape.org/namespaces/inkscape"
   xmlns:sodipodi="http://sodipodi.sourceforge.net/DTD/sodipodi-0.dtd"
   xmlns:xlink="http://www.w3.org/1999/xlink"
   xmlns="http://www.w3.org/2000/svg"
   xmlns:svg="http://www.w3.org/2000/svg">
  <sodipodi:namedview
     id="namedview2721"
     pagecolor="#ffffff"
     bordercolor="#666666"
     borderopacity="1.0"
     inkscape:pageshadow="2"
     inkscape:pageopacity="0.0"
     inkscape:pagecheckerboard="0"
     inkscape:document-units="px"
     showgrid="false"
     units="px"
     inkscape:zoom="17.500893"
     inkscape:cx="6.0854038"
     inkscape:cy="14.513545"
     inkscape:window-width="1920"
     inkscape:window-height="1010"
     inkscape:window-x="0"
     inkscape:window-y="0"
     inkscape:window-maximized="1"
     inkscape:current-layer="svg2719" />
  <defs
     id="defs2716">
    <linearGradient
       inkscape:collect="always"
       id="linearGradient2610">
      <stop
         style="stop-color:#e8e8e8;stop-opacity:1;"
         offset="0"
         id="stop2606" />
      <stop
         style="stop-color:#f5f5f5;stop-opacity:1"
         offset="1"
         id="stop2608" />
    </linearGradient>
    <linearGradient
       inkscape:collect="always"
       id="linearGradient1871">
      <stop
         style="stop-color:#ffffff;stop-opacity:1;"
         offset="0"
         id="stop1867" />
      <stop
         style="stop-color:#ffffff;stop-opacity:0.1"
         offset="0.12"
         id="stop2515" />
      <stop
         style="stop-color:#ffffff;stop-opacity:0.102"
         offset="0.89999998"
         id="stop2581" />
      <stop
         style="stop-color:#ffffff;stop-opacity:0.502"
         offset="1"
         id="stop1869" />
    </linearGradient>
    <linearGradient
       inkscape:collect="always"
       xlink:href="#linearGradient1871"
       id="linearGradient16320"
       x1="10"
       y1="4"
       x2="10"
       y2="29.100245"
       gradientUnits="userSpaceOnUse"
       gradientTransform="matrix(0.26458333,0,0,0.26458333,0,-0.26458332)" />
    <linearGradient
       inkscape:collect="always"
       xlink:href="#linearGradient2610"
       id="linearGradient2612"
       x1="2.6458333"
       y1="0.5291667"
       x2="6.0137062"
       y2="7.982666"
       gradientUnits="userSpaceOnUse" />
    <linearGradient
       id="linearGradient4254">
      <stop
         stop-color="#fff"
         offset="0"
         id="stop31" />
      <stop
         stop-color="#fff"
         stop-opacity=".3"
         offset="1"
         id="stop33" />
    </linearGradient>
    <linearGradient
       inkscape:collect="always"
       xlink:href="#linearGradient4254"
       id="linearGradient1050"
       x1="6.8791666"
       y1="5.0270834"
       x2="6.8791666"
       y2="3.1750002"
       gradientUnits="userSpaceOnUse" />
    <linearGradient
       inkscape:collect="always"
       xlink:href="#linearGradient4254"
       id="linearGradient1916"
       x1="4.8684359"
       y1="6.5691476"
       x2="4.8684359"
       y2="4.9816475"
       gradientUnits="userSpaceOnUse" />
  </defs>
  <path
     id="rect18683"
     style="opacity:0.1;fill:#000000;stroke-width:0.264583;stroke-linejoin:round"
     d="m 2.38125,0.92604165 c -1.45520832,0 -1.984375,0.52916665 -1.984375,1.98437495 v 3.0427085 c 0,1.5875 0.52916665,2.1166666 2.1166666,2.1166666 h 3.4395833 c 1.5875,0 2.1166667,-0.5291666 2.1166667,-2.1166666 V 3.0427083 c 0,-1.5875 -0.5291667,-2.11666665 -2.1166667,-2.11666665 z"
     sodipodi:nodetypes="sssssssss" />
  <path
     id="rect6397"
     style="fill:url(#linearGradient2612);fill-opacity:1;stroke-width:0.255274;stroke-linejoin:round"
     d="M 0.39687499,2.6458334 C 0.396875,1.190625 0.92604165,0.66145833 2.38125,0.66145834 h 3.571875 c 1.5874999,-1e-8 2.1166666,0.52916666 2.1166668,2.11666666 l 10e-8,2.9104168 c 0,1.5874999 -0.529166,2.1166666 -2.116666,2.1166666 H 2.5135417 c -1.58750001,0 -2.11666671,-0.5291667 -2.11666671,-2.1166667 z"
     sodipodi:nodetypes="ccccccccc" />
  <path
     d="M 1.5875,1.8520833 V 2.1166667 H 4.7624999 V 1.8520833 Z"
     style="color:#000000;fill:#aea795;stroke-width:0.264583"
     id="path950" />
  <path
     id="path53"
     d="M 1.5875,2.38125 V 2.6458333 H 6.8791666 V 2.38125 Z m 0,0.5291666 V 3.175 H 3.9687499 V 2.9104166 Z m 0,0.5291667 V 3.7041666 H 3.9687499 V 3.4395833 Z m 0,0.79375 V 4.4953327 H 3.9687499 V 4.2333333 Z m 0,0.5291666 V 5.0270833 H 3.175 V 4.7624999 Z m 0,0.5291667 V 5.5562499 H 6.8791666 V 5.2916666 Z m 0,0.5291667 V 6.0854166 H 5.0270833 V 5.8208333 Z"
     style="fill:#c8c4b7;fill-opacity:0.9972;stroke-width:0.264583" />
  <rect
     style="fill:#f66151;fill-opacity:1;stroke-width:0.529167;stroke-linecap:round;stroke-linejoin:round"
     id="rect1069"
     width="2.3812499"
     height="2.1166666"
     x="4.4979162"
     y="2.9104166" />
  <path
     d="M 4.4979166,4.6302083 C 4.9059692,4.515976 5.2881561,4.3241052 5.6235335,4.0651112 5.7367249,3.9776029 5.8464555,3.8799664 5.9155012,3.7546756 5.9500637,3.6919905 5.9737069,3.6228655 5.9802288,3.5516211 5.9866847,3.4803767 5.9753605,3.4070104 5.943465,3.3429919 5.9154684,3.2878961 5.8743264,3.2405484 5.8236775,3.205136 5.7730495,3.1698583 5.7157355,3.1453187 5.6552649,3.1330291 5.5348478,3.1078937 5.4083029,3.128002 5.2932356,3.1715154 5.1548267,3.2240669 5.0282024,3.3117287 4.9391966,3.4300239 4.850122,3.5484011 4.8004782,3.6980468 4.8119453,3.8457108 c 0.00754,0.095676 0.040296,0.1889125 0.090805,0.2705364 0.050509,0.081693 0.1185333,0.1519952 0.1960589,0.2086319 C 5.2539476,4.4381472 5.4440375,4.495411 5.6345375,4.51984 6.0681366,4.575297 6.520971,4.463677 6.8791639,4.2131085 L 6.8773118,3.8055973 C 6.5965625,4.1153185 6.1973062,4.3148408 5.7810637,4.3534964 5.6014196,4.3701652 5.4142454,4.3565392 5.25195,4.2776192 5.1708049,4.2381857 5.0969677,4.182573 5.0404923,4.1121912 4.983935,4.0418887 4.9451286,3.9566611 4.9340558,3.8671156 4.9178633,3.7364855 4.9621757,3.6016062 5.0438684,3.4983922 5.1255612,3.3951756 5.2423668,3.3225157 5.3680359,3.2831643 c 0.06936,-0.021616 0.1428036,-0.0337 0.2149105,-0.024421 0.07203,0.00929 0.1427268,0.041394 0.1897009,0.096853 0.038018,0.044929 0.058912,0.1031346 0.062526,0.1618906 0.00368,0.058756 -0.00921,0.1179036 -0.032599,0.1719448 C 5.7558384,3.7974428 5.6695895,3.8829826 5.5816896,3.961212 5.262115,4.2455401 4.8953917,4.4719419 4.4980092,4.6302374 Z"
     style="overflow:visible;fill:#ffffff;stroke-width:0.0785495;enable-background:new"
     id="path4600" />
  <path
     id="path73-3"
     style="opacity:0.1;fill:#000000;fill-opacity:1;stroke-width:0.132291"
     d="m 6.2899196,5.8024484 c 0,0 -1.3469092,0.162791 -2.4620009,0.3488023 C 2.7246047,5.956519 1.3882878,5.7837701 1.3882878,5.7837701 L 1.3761615,6.08068 c 0,0 1.0050538,0.039502 1.9743728,0.1594512 C 3.2172027,6.2654926 3.057682,6.2905568 2.9457446,6.3156602 2.3783235,6.4429057 1.3901836,7.1673064 1.4267366,7.266029 1.4897196,7.4361361 1.7497524,7.4207835 1.9101782,7.2488851 2.2077982,6.9299551 2.5415804,6.6274688 2.9532977,6.4901179 3.1875795,6.4119672 3.5013018,6.3523634 3.8304063,6.301865 4.1531453,6.3546945 4.4539855,6.4179558 4.6814487,6.4972586 5.0845541,6.6378097 5.3996937,6.9426545 5.6774771,7.263844 5.8272115,7.4369599 6.0860153,7.454255 6.1595246,7.2846839 6.2021868,7.1862723 5.2592391,6.4545591 4.6998417,6.3228884 4.5890556,6.2968104 4.4304263,6.2703859 4.2981147,6.2438799 5.2752049,6.1313902 6.283998,6.0998321 6.283998,6.0998321 Z" />
  <path
     id="path1358-6"
     style="color:#000000;opacity:0.1;fill:#000000;fill-opacity:1;stroke:none;stroke-width:0.132292;-inkscape-stroke:none"
     d="M 6.3686563,5.7303284 C 6.3601249,5.7134899 6.3362068,5.6969649 6.3243501,5.6933732 6.2877281,5.6822934 6.2181618,5.6703209 6.1273128,5.6544849 6.0364632,5.6386488 5.9334964,5.6220378 5.8608975,5.612192 5.6620028,5.5852166 5.4365249,5.5704077 5.2469622,5.5678531 L 5.24625,5.5663723 5.2034977,5.5659917 c -0.065615,-1.972e-4 -0.1255933,0.00157 -0.1773436,0.00531 -0.2583964,0.01867 -0.5932329,0.073385 -0.8539737,0.1400502 -0.1593481,0.040729 -0.1504133,0.039578 -0.2726636,0.043482 -0.1473581,0.00471 -0.1919544,-0.00128 -0.374111,-0.048924 C 3.3401007,5.6574374 3.1931015,5.628348 2.9678183,5.5949434 2.7416879,5.561395 2.6245858,5.553542 2.406033,5.5569966 c -0.2366095,0.00375 -0.4457683,0.021662 -0.7034818,0.060814 -0.051782,0.00786 -0.1237294,0.020101 -0.1861982,0.031103 -0.031234,0.0055 -0.060033,0.010737 -0.082491,0.015006 -0.022459,0.00427 -0.033276,0.00563 -0.049521,0.010465 -0.0087,0.00259 -0.040081,0.02293 -0.048981,0.042268 -0.0089,0.01934 -0.00851,0.03006 -0.00953,0.043689 -0.00205,0.027259 -0.00251,0.067314 -0.00291,0.145769 l 3.583e-4,3.715e-4 1.508e-4,0.1593524 0.037791,0.033189 c 0.015808,0.013965 0.031862,0.024846 0.049832,0.034493 0.00345,0.00186 0.01357,0.01067 0.027168,0.05566 0.013599,0.044988 0.02788,0.1187107 0.04616,0.2241 0.040746,0.2348116 0.067855,0.3363185 0.1228499,0.4575116 0.075566,0.1665505 0.1958797,0.3004342 0.353131,0.392458 0.088689,0.051903 0.2025578,0.082657 0.3465692,0.098514 0.080806,0.0089 0.2785769,0.00549 0.3629922,-0.00499 0.1455376,-0.018194 0.2892464,-0.054674 0.3957626,-0.102731 0.2311096,-0.1042885 0.403612,-0.3232499 0.5191522,-0.6392697 0.036625,-0.1002225 0.095073,-0.3066778 0.1133643,-0.4018581 0.014798,-0.077018 0.029505,-0.1061257 0.036679,-0.1122882 0.00718,-0.00616 0.033553,-0.014492 0.1076942,-0.0142 0.073387,2.88e-4 0.1001816,0.00881 0.1071834,0.015028 0.007,0.00622 0.019747,0.033476 0.029917,0.1076029 0.013038,0.094878 0.056665,0.2960464 0.085232,0.3932642 0.079879,0.2718576 0.2055066,0.4775808 0.3766217,0.5960655 0.1176647,0.081466 0.2596844,0.1301133 0.4594851,0.1618801 0.127658,0.020309 0.3502075,0.023163 0.4702654,0.00492 0.1726714,-0.026256 0.2890591,-0.07705 0.4242398,-0.1848285 0.1193759,-0.095223 0.2201733,-0.2382849 0.2843489,-0.3988733 0.033844,-0.084694 0.055234,-0.1576913 0.09404,-0.3206971 0.018387,-0.077231 0.033978,-0.1456264 0.04694,-0.197628 0.012963,-0.052002 0.028647,-0.094538 0.026054,-0.089815 0.00207,-0.00377 0.00465,-0.00824 0.05145,-0.037479 l 0.060594,-0.037681 0.00877,-0.1047345 c 0.0033,-0.039017 0.00682,-0.082203 0.00896,-0.1365242 0.00171,-0.043636 0.00263,-0.066933 0.00117,-0.088056 -7.28e-4,-0.010557 -6.652e-4,-0.021695 -0.0092,-0.038535 z M 5.8762246,6.1368995 c 0.018338,0.039361 0.023448,0.088337 0.019556,0.2196193 l -7.6e-6,7.387e-4 C 5.8874488,6.6362035 5.8222955,6.8197128 5.6895117,6.951555 5.6013087,7.039081 5.4953229,7.0918682 5.3459553,7.1202495 5.2909636,7.1307054 5.2541125,7.1330728 5.1300917,7.1340239 4.9626283,7.1353024 4.9604226,7.1348729 4.8668831,7.117369 4.724087,7.0906342 4.6158155,7.0416607 4.5275667,6.9594137 4.4390848,6.8769408 4.3693857,6.7602018 4.3062596,6.5941077 4.2552551,6.4598062 4.2304132,6.3293647 4.2331687,6.2171355 4.2351551,6.136791 4.2468706,6.0836157 4.2738674,6.0420584 4.3007157,6.000731 4.344801,5.968332 4.416434,5.9352725 4.593596,5.8535058 4.8193836,5.8117436 5.0438914,5.8120998 c 0.2245156,3.54e-4 0.4467593,0.042533 0.6169163,0.1247928 0.089542,0.043277 0.1833157,0.1311482 0.2154214,0.2000137 z M 3.4265159,6.0327419 c 0.024177,0.041421 0.032763,0.094599 0.030192,0.1755839 -0.00474,0.1488449 -0.054067,0.3093924 -0.152993,0.4947249 C 3.2454112,6.8122567 3.1928214,6.8853778 3.134379,6.9405694 3.0127966,7.0554083 2.8571755,7.1164984 2.6336215,7.1331989 2.3915082,7.1512617 2.1850582,7.1152879 2.046948,7.0345164 1.9593339,6.9832618 1.866491,6.874062 1.8238686,6.770778 l 2.23e-5,-7.387e-4 C 1.7749492,6.6513014 1.7582026,6.5319047 1.7642578,6.3333749 c 0.00205,-0.067719 0.00335,-0.1047324 0.00591,-0.1292707 0.00242,-0.023221 0.00612,-0.036122 0.012648,-0.054599 0.02263,-0.064081 0.094453,-0.1437919 0.1870163,-0.2035878 0.066968,-0.043274 0.2227363,-0.097543 0.3639813,-0.1244825 0.1013996,-0.019335 0.2084586,-0.028565 0.3151609,-0.028487 l 3.588e-4,3.716e-4 c 0.2353062,2.604e-4 0.4692898,0.046273 0.6416582,0.1310719 0.06981,0.034351 0.1114814,0.067157 0.1355238,0.1083491 z" />
  <g
     id="g2323"
     transform="rotate(46,3.2153108,3.3200819)">
    <path
       id="path73"
       style="fill:#636363;fill-opacity:1;stroke-width:0.132291"
       d="m 6.9464533,2.648995 c 0,0 -0.8185397,1.0819696 -1.4593422,2.0133137 C 4.5806066,5.3206944 3.5280577,6.1619588 3.5280577,6.1619588 l 0.2051555,0.2149739 c 0,0 0.7265844,-0.6955348 1.4862142,-1.3094808 C 5.1450509,5.1809801 5.0522682,5.3131408 4.9925678,5.4111001 4.6899367,5.9076608 4.5246073,7.1216802 4.6210143,7.1639646 4.7871308,7.2368248 4.956721,7.039108 4.9445087,6.8042967 4.9218339,6.3686594 4.9361081,5.918432 5.123309,5.5268553 5.2298379,5.3040391 5.4048923,5.0369619 5.597182,4.7651448 5.8593777,4.5696842 6.1138653,4.3972229 6.3289201,4.2886879 6.7100447,4.0963531 7.148246,4.0814237 7.572255,4.10472 7.8007984,4.1172665 7.9930197,3.9431128 7.9221043,3.7724406 7.8809486,3.6733896 6.6995717,3.8433987 6.2162656,4.1543294 6.1205481,4.2159069 5.9913468,4.3116593 5.8803686,4.3884237 6.4781941,3.6074219 7.1562597,2.8598348 7.1562597,2.8598348 Z" />
    <path
       id="path1358"
       style="color:#000000;fill:#1a5fb4;fill-opacity:1;stroke:none;stroke-width:0.132292;-inkscape-stroke:none"
       d="m 6.9492696,2.5422578 c -0.018039,-0.00556 -0.046541,1.66e-4 -0.057361,0.0062 -0.03341,0.018647 -0.090347,0.060372 -0.1648475,0.1147227 -0.074501,0.054351 -0.1579767,0.1168802 -0.2154906,0.162264 -0.1575684,0.1243342 -0.3248511,0.2762423 -0.45837,0.4108277 l -0.00156,-5.163e-4 -0.029972,0.030489 C 5.9759467,3.3133073 5.9355518,3.3576782 5.9022946,3.3975035 5.7362274,3.5963476 5.5429892,3.8752171 5.4098183,4.1090878 5.328424,4.2520062 5.3338023,4.2447791 5.2516885,4.3354306 5.1527109,4.4447009 5.117424,4.4726209 4.9566161,4.5705581 4.7930247,4.6701841 4.6699853,4.7557193 4.4894612,4.8945696 4.3082451,5.0339296 4.2212502,5.1127106 4.0719157,5.2723241 3.91025,5.4451312 3.7778416,5.6080309 3.6269818,5.8206112 c -0.030316,0.04271 -0.07149,0.102967 -0.1069703,0.1555459 -0.01774,0.026289 -0.033979,0.050642 -0.046509,0.069763 -0.01253,0.019121 -0.019067,0.027847 -0.026872,0.042892 -0.00418,0.00806 -0.011348,0.04476 -0.00362,0.064596 0.00773,0.019836 0.015712,0.027002 0.024805,0.037207 0.018185,0.02041 0.046677,0.048567 0.1028361,0.1033528 l 5.162e-4,3e-7 0.1147332,0.110587 0.050126,-0.00413 c 0.021027,-0.00167 0.040006,-0.00566 0.059428,-0.011885 0.00373,-0.00119 0.017102,-0.00235 0.058911,0.019121 0.041808,0.021469 0.1047607,0.062408 0.1932694,0.1224683 0.197214,0.1338036 0.2890633,0.1848158 0.414445,0.2294435 0.172299,0.061338 0.3521838,0.067795 0.5276161,0.018603 C 5.088641,6.7504335 5.1898637,6.6898868 5.3013089,6.5973087 5.3638473,6.5453672 5.4987737,6.4007308 5.5498725,6.3327253 5.6378836,6.2153955 5.7114704,6.0866788 5.7508938,5.9766745 5.8364172,5.7379833 5.7987398,5.4617921 5.6516751,5.1591536 5.6050232,5.0631872 5.4971129,4.8777274 5.441352,4.7984521 5.3962295,4.7343057 5.3855072,4.7035071 5.386058,4.6940655 5.3866136,4.6846255 5.398941,4.6598625 5.450654,4.6067325 5.50184,4.5541425 5.526582,4.5407865 5.53592,4.5400705 5.54526,4.539356 5.573718,4.5491205 5.634105,4.5932975 5.711412,4.6498265 5.886426,4.7581869 5.976203,4.8051707 6.2272495,4.9365588 6.4625027,4.9890971 6.6666,4.9483136 6.8069383,4.9202636 6.9405876,4.8518966 7.102232,4.7302391 7.2055198,4.6525175 7.3621682,4.4944109 7.4324445,4.3953758 7.5335048,4.2529271 7.5778164,4.1339204 7.5941917,3.9618105 7.6086193,3.809791 7.5757291,3.6379045 7.5047916,3.4801864 7.4673774,3.3970076 7.4297267,3.3309128 7.3394271,3.1897647 c -0.042783,-0.066876 -0.081152,-0.125602 -0.1095542,-0.17105 -0.028402,-0.045448 -0.048105,-0.086279 -0.046509,-0.081132 -0.00127,-0.00411 -0.0027,-0.00907 0.00878,-0.063045 l 0.014987,-0.069763 -0.069246,-0.079065 c -0.025777,-0.029475 -0.054393,-0.06201 -0.09198,-0.1012862 -0.030201,-0.031542 -0.046323,-0.048385 -0.062528,-0.062012 -0.0081,-0.00681 -0.016068,-0.014592 -0.034107,-0.020154 z m -0.049609,0.6366538 c 0.041053,0.014151 0.079833,0.044497 0.1715659,0.1384927 l 5.261e-4,5.186e-4 C 7.2666268,3.5176832 7.353373,3.6920269 7.355973,3.8791289 7.357663,4.0033775 7.322011,4.1162863 7.2386673,4.2434477 7.2079883,4.2902687 7.1840923,4.3184217 7.0986244,4.4082955 6.9832142,4.5296467 6.981373,4.530935 6.9038038,4.5860625 6.7853779,4.6702098 6.6749376,4.714074 6.5544713,4.7204213 6.4336805,4.7267793 6.3012885,4.6958229 6.1379593,4.6258534 6.0059202,4.5692493 5.8948318,4.4965068 5.816015,4.4165637 5.7595999,4.3593228 5.729487,4.3139567 5.7183468,4.2656687 5.7072687,4.2176473 5.7145871,4.1634287 5.7405665,4.0889352 5.8048155,3.9046956 5.9316196,3.7132671 6.087832,3.5520171 6.2440483,3.3907601 6.4287725,3.2601911 6.6061465,3.194933 6.6994785,3.160585 6.8278284,3.15417 6.8996686,3.178913 Z m -1.7766354,1.689819 c 0.046591,0.011382 0.090808,0.042146 0.1472776,0.1002525 0.1037809,0.1068024 0.1850002,0.2538146 0.2495975,0.4537188 0.038055,0.117801 0.054122,0.2064251 0.053226,0.2868044 C 5.5712763,5.8767391 5.5071173,6.0311203 5.363837,6.2035328 5.2086443,6.390242 5.0393547,6.5137602 4.8853131,6.5569997 4.7875818,6.5844196 4.6445359,6.5753486 4.5406316,6.5342615 L 4.5401157,6.5337324 C 4.4207051,6.4864558 4.3231851,6.4155624 4.184581,6.2732962 4.1372937,6.2247779 4.1115718,6.1981313 4.0956976,6.1792452 4.0806756,6.1613727 4.0739663,6.1497493 4.0652085,6.1322196 4.0348325,6.0714264 4.0273857,5.9643896 4.0486721,5.8562674 4.0640628,5.778034 4.1332314,5.6282855 4.2119695,5.5079683 4.2684993,5.4215964 4.3362289,5.3381727 4.4104069,5.2614719 h 5.165e-4 C 4.5745682,5.0923877 4.7702054,4.9560369 4.9509419,4.8909518 5.0241459,4.8645968 5.076692,4.8574098 5.1230245,4.8687298 Z" />
    <path
       d="m 4.3880421,5.2557246 c -0.077062,0.079625 -0.1473214,0.1662803 -0.2065348,0.2567545 -0.082232,0.125656 -0.1543789,0.2749305 -0.173512,0.3721823 -0.023334,0.118553 -0.01824,0.2378382 0.022847,0.3200652 0.010073,0.020158 0.020571,0.03795 0.038993,0.059863 0.018428,0.021923 0.044789,0.04926 0.092187,0.097896 0.141884,0.1456217 0.2491023,0.2245971 0.3782414,0.275744 l -2.13e-5,2.19e-5 c 0.1183135,0.046877 0.270568,0.057721 0.3860215,0.025337 C 5.0986215,6.6152076 5.2758938,6.4823743 5.4368812,6.288694 5.5865918,6.1085554 5.6601246,5.9371082 5.6621753,5.7520985 5.6631808,5.6618621 5.6449007,5.5653437 5.6055052,5.4433911 5.5387449,5.2367888 5.4526669,5.0794586 5.3397859,4.9633044 5.2794684,4.9012449 5.2248943,4.8605742 5.1614989,4.8450859 5.0981029,4.8295999 5.0317973,4.8411384 4.9530157,4.8695069 4.759645,4.9391419 4.5575865,5.0805603 4.3880435,5.2557369 Z"
       style="opacity:0.5;fill:url(#linearGradient1916);fill-opacity:1;stroke-width:2.26237"
       id="path1764" />
    <path
       d="M 6.0654555,3.5463694 C 5.9036466,3.7133986 5.7711078,3.9111362 5.7025378,4.1077665 c -0.028083,0.080529 -0.039364,0.1492166 -0.024246,0.2147394 0.015116,0.065525 0.054889,0.1221289 0.1154044,0.1835271 0.086498,0.087735 0.2044763,0.163908 0.3426771,0.2231543 0.1685023,0.072185 0.3111791,0.107055 0.4452961,0.1000046 0.1341162,-0.00706 0.2574485,-0.056992 0.3829495,-0.1461698 0.078136,-0.055531 0.088712,-0.064926 0.2043375,-0.1865028 C 7.2550307,4.4060077 7.2832978,4.372701 7.316184,4.3225123 7.4049231,4.1871236 7.446832,4.0582819 7.4449114,3.9195777 7.4420274,3.7112533 7.3430308,3.5185948 7.1413603,3.3118764 l -2.12e-5,-2.2e-5 C 7.0479604,3.2161605 7.0001109,3.1764561 6.9440833,3.1571476 6.8507238,3.1249954 6.7149145,3.133851 6.6079981,3.1732077 6.4183065,3.2430048 6.2272546,3.3793528 6.0654457,3.5463819 Z"
       style="opacity:0.5;fill:url(#linearGradient1050);fill-opacity:1;stroke-width:2.26237"
       id="path1624" />
    <path
       id="path83"
       d="M 7.3707169,4.0008504 C 7.3522199,4.0697714 7.3196007,4.1385102 7.2704647,4.212207 7.2394026,4.2588101 7.2157719,4.2861871 7.1288711,4.3760213 7.0114916,4.4973542 7.0103267,4.4986935 6.9314673,4.5537883 6.8114841,4.6375926 6.7001234,4.6808271 6.5785172,4.6871134 6.4565377,4.6934263 6.3220957,4.662359 6.1563208,4.5925455 6.0224205,4.5361144 5.9099184,4.4642551 5.8302425,4.3848063 c -0.045609,-0.045492 -0.073673,-0.083491 -0.088883,-0.120923 1.545e-4,0.01478 0.00156,0.028974 0.00465,0.042375 0.010874,0.047148 0.040484,0.091857 0.096635,0.1488281 0.07832,0.079439 0.1887588,0.1518238 0.320394,0.208256 0.162974,0.069818 0.2950511,0.1008792 0.4149616,0.094568 0.1195467,-0.00629 0.2293141,-0.050042 0.3472656,-0.1338419 0.077533,-0.055102 0.078392,-0.055914 0.1937866,-0.1772502 0.085433,-0.089838 0.1089834,-0.1177208 0.1395264,-0.1643311 0.064729,-0.098755 0.100284,-0.1883513 0.1121382,-0.2816368 z m -1.7730182,1.8526 C 5.5656971,5.9611257 5.5034996,6.0674419 5.4070127,6.1810789 5.2475333,6.3688753 5.0738211,6.4941204 4.9135029,6.5381632 4.8107951,6.5663675 4.6628161,6.5569089 4.5543517,6.5149089 4.430794,6.4670149 4.3290585,6.3946614 4.1869323,6.2518758 c -0.048341,-0.048553 -0.074331,-0.075734 -0.090951,-0.095085 -0.015907,-0.018523 -0.023392,-0.030624 -0.032556,-0.048576 -0.00351,-0.00688 -0.00689,-0.014364 -0.00982,-0.02222 0.00475,0.035963 0.013367,0.068057 0.025839,0.093018 0.00897,0.017952 0.016468,0.030052 0.032039,0.048576 0.016267,0.019349 0.042085,0.046016 0.0894,0.094568 C 4.339993,6.46495 4.439091,6.5372871 4.5600344,6.5851899 a 0.05501131,0.05651997 0 0 1 0,5.292e-4 c 0.1061694,0.042007 0.2508753,0.051461 0.3513997,0.023254 C 5.0683572,6.5649242 5.2390256,6.4396913 5.3951279,6.2518893 5.5101314,6.1135125 5.5750014,5.9856867 5.5976995,5.8534641 Z"
       style="opacity:0.5;fill:#ffffff;stroke-width:0.264583" />
  </g>
  <path
     id="rect13250"
     style="fill:url(#linearGradient16320);fill-opacity:1;stroke-width:0.264583;stroke-linejoin:round;opacity:0.7"
     d="m 2.6458333,0.79375 c -1.71979143,0 -2.11666664,0.396875 -2.11666664,2.1166666 v 2.6458335 c 0,1.7197919 0.39687515,2.1166666 2.11666664,2.1166666 h 3.175 c 1.7197913,0 2.1166666,-0.3968747 2.1166666,-2.1166666 V 2.9104166 C 7.9374999,1.190625 7.5406249,0.79375 5.8208333,0.79375 Z m 0,0.2645833 h 3.175 c 1.5213541,0 1.8520833,0.3307294 1.8520833,1.8520833 v 2.6458335 c 0,1.5213542 -0.3307292,1.8520833 -1.8520833,1.8520833 h -3.175 c -1.5213541,0 -1.85208331,-0.3307291 -1.85208331,-1.8520833 V 2.9104166 c 0,-1.521354 0.33072921,-1.8520834 1.85208331,-1.8520833 z"
     sodipodi:nodetypes="ssssssssssssssssss" />
  <path
     id="rect2545"
     style="opacity:0.4;fill:#000000;stroke-width:0.387914;stroke-linejoin:round"
     d="m 2.6458333,0.52916667 c -1.91822909,0 -2.38124997,0.4630208 -2.38124997,2.38124993 V 5.55625 c 0,1.8520831 0.52916735,2.38125 2.38124997,2.38125 h 3.175 c 1.8520841,0 2.3812499,-0.5291669 2.3812499,-2.38125 V 2.9104166 c 0,-1.8520832 -0.5291666,-2.38124988 -2.3812499,-2.38124993 z m 0,0.26458333 h 3.175 c 1.7197916,0 2.1166666,0.396875 2.1166666,2.1166666 V 5.55625 c 0,1.7197917 -0.3968753,2.1166666 -2.1166666,2.1166666 h -3.175 c -1.71979162,0 -2.11666664,-0.3968749 -2.11666664,-2.1166666 V 2.9104166 c 0,-1.7197916 0.39687505,-2.1166666 2.11666664,-2.1166666 z"
     sodipodi:nodetypes="ssssssssssssssssss" />
</svg>
