<?xml version="1.0" encoding="UTF-8" standalone="no"?>
<!-- Created with Inkscape (http://www.inkscape.org/) -->

<svg
   width="32"
   height="32"
   viewBox="0 0 8.4666665 8.4666669"
   version="1.1"
   id="svg2719"
   inkscape:version="1.1.2 (0a00cf5339, 2022-02-04)"
   sodipodi:docname="google-chrome-beta.svg"
   xmlns:inkscape="http://www.inkscape.org/namespaces/inkscape"
   xmlns:sodipodi="http://sodipodi.sourceforge.net/DTD/sodipodi-0.dtd"
   xmlns:xlink="http://www.w3.org/1999/xlink"
   xmlns="http://www.w3.org/2000/svg"
   xmlns:svg="http://www.w3.org/2000/svg">
  <sodipodi:namedview
     id="namedview2721"
     pagecolor="#ffffff"
     bordercolor="#666666"
     borderopacity="1.0"
     inkscape:pageshadow="2"
     inkscape:pageopacity="0.0"
     inkscape:pagecheckerboard="0"
     inkscape:document-units="px"
     showgrid="false"
     units="px"
     inkscape:zoom="25.90625"
     inkscape:cx="16"
     inkscape:cy="16"
     inkscape:window-width="1851"
     inkscape:window-height="1049"
     inkscape:window-x="0"
     inkscape:window-y="0"
     inkscape:window-maximized="1"
     inkscape:current-layer="svg2719" />
  <defs
     id="defs2716">
    <linearGradient
       inkscape:collect="always"
       id="linearGradient1871">
      <stop
         style="stop-color:#ffffff;stop-opacity:1;"
         offset="0"
         id="stop1867" />
      <stop
         style="stop-color:#ffffff;stop-opacity:0.1"
         offset="0.12"
         id="stop2515" />
      <stop
         style="stop-color:#ffffff;stop-opacity:0.102"
         offset="0.89999998"
         id="stop2581" />
      <stop
         style="stop-color:#ffffff;stop-opacity:0.502"
         offset="1"
         id="stop1869" />
    </linearGradient>
    <linearGradient
       inkscape:collect="always"
       xlink:href="#linearGradient1871"
       id="linearGradient16320"
       x1="10"
       y1="4"
       x2="10"
       y2="29.100245"
       gradientUnits="userSpaceOnUse"
       gradientTransform="matrix(0.26458333,0,0,0.26458333,0,-0.26458332)" />
    <linearGradient
       inkscape:collect="always"
       xlink:href="#linearGradient12495"
       id="linearGradient12497"
       x1="3.7041574"
       y1="5.15939"
       x2="8.9958239"
       y2="5.15939"
       gradientUnits="userSpaceOnUse" />
    <linearGradient
       inkscape:collect="always"
       id="linearGradient12495">
      <stop
         style="stop-color:#db3328;stop-opacity:1;"
         offset="0"
         id="stop12491" />
      <stop
         style="stop-color:#e53d30;stop-opacity:1"
         offset="1"
         id="stop12493" />
    </linearGradient>
    <linearGradient
       inkscape:collect="always"
       xlink:href="#linearGradient13171"
       id="linearGradient13173"
       x1="4.4023013"
       y1="4.2994838"
       x2="5.9898009"
       y2="7.474484"
       gradientUnits="userSpaceOnUse" />
    <linearGradient
       inkscape:collect="always"
       id="linearGradient13171">
      <stop
         style="stop-color:#32a651;stop-opacity:1;"
         offset="0"
         id="stop13167" />
      <stop
         style="stop-color:#279847;stop-opacity:1"
         offset="1"
         id="stop13169" />
    </linearGradient>
  </defs>
  <path
     id="rect18683"
     style="opacity:0.1;fill:#000000;stroke-width:0.264583;stroke-linejoin:round"
     d="m 2.38125,0.92604165 c -1.45520832,0 -1.984375,0.52916665 -1.984375,1.98437495 v 3.0427085 c 0,1.5875 0.52916665,2.1166666 2.1166666,2.1166666 h 3.4395833 c 1.5875,0 2.1166667,-0.5291666 2.1166667,-2.1166666 V 3.0427083 c 0,-1.5875 -0.5291667,-2.11666665 -2.1166667,-2.11666665 z"
     sodipodi:nodetypes="sssssssss" />
  <path
     id="rect6397"
     style="fill:#ffffff;fill-opacity:1;stroke-width:0.255274;stroke-linejoin:round"
     d="M 0.39687499,2.6458334 C 0.396875,1.190625 0.92604165,0.66145833 2.38125,0.66145834 h 3.571875 c 1.5874999,-1e-8 2.1166666,0.52916666 2.1166668,2.11666666 l 10e-8,2.9104168 c 0,1.5874999 -0.529166,2.1166666 -2.116666,2.1166666 H 2.5135417 c -1.58750001,0 -2.11666671,-0.5291667 -2.11666671,-2.1166667 z"
     sodipodi:nodetypes="ccccccccc" />
  <g
     id="g13900"
     transform="matrix(0.6470588,0,0,0.6470588,0.12450987,0.12450987)">
    <path
       d="m 6.3499908,1.8520833 c -1.6648002,0 -3.1172325,0.9051142 -3.8949803,2.2495046 L 2.6017322,6.7248018 4.4023011,7.4744838 6.3499908,6.3500302 V 4.1010567 H 10.244704 C 9.4668234,2.7569983 8.014591,1.8520833 6.3499908,1.8520833 Z"
       style="fill:url(#linearGradient12497);fill-opacity:1;stroke-width:0.0175699"
       id="path1309" />
    <path
       d="m 1.8521097,6.3500302 c 0,2.4841174 2.013697,4.4978798 4.4978805,4.4978798 L 8.322717,9.7933342 8.2976798,7.4744838 6.3499902,6.3500302 4.4023011,7.4744838 2.4550101,4.1015879 C 2.0722656,4.7632044 1.8520833,5.5305796 1.8520833,6.3499639"
       style="fill:url(#linearGradient13173);fill-opacity:1;stroke-width:0.0175699"
       id="path1449"
       sodipodi:nodetypes="cccccccc" />
    <path
       d="m 6.3500375,6.3500302 1.947689,1.1244536 -1.947689,3.3734262 c 2.4841163,0 4.4978795,-2.0137624 4.4978795,-4.4978798 0,-0.819517 -0.220254,-1.5871712 -0.603213,-2.2489735 H 6.3499908 Z"
       style="fill:#fbbf12;stroke-width:0.0175699"
       id="path1829" />
    <path
       d="m 8.5990112,6.3500302 c 0,1.2420585 -1.0069151,2.2489734 -2.2489737,2.2489734 -1.242059,0 -2.2489739,-1.0069149 -2.2489739,-2.2489734 0,-1.2420588 1.0069149,-2.2489735 2.2489739,-2.2489735 1.2420586,0 2.2489737,1.0069147 2.2489737,2.2489735"
       style="fill:#ffffff;stroke-width:0.0175699"
       id="path2229" />
    <path
       d="m 8.0878317,6.3499997 c 0,0.9597641 -0.7780682,1.7378303 -1.7378315,1.7378303 -0.9597641,0 -1.7378316,-0.7780662 -1.7378316,-1.7378303 0,-0.9597637 0.7780675,-1.7378311 1.7378316,-1.7378311 0.9597633,0 1.7378315,0.7780674 1.7378315,1.7378311"
       style="fill:#4688f4;fill-opacity:1;stroke-width:0.0167097"
       id="path2029" />
  </g>
  <path
     id="rect864"
     style="fill:#414342;fill-opacity:1;stroke-width:0.242534;stroke-linecap:round;stroke-linejoin:round"
     d="m 1.4171083,4.9873959 a 2.9104166,2.9104166 0 0 0 2.8161504,2.1828125 2.9104166,2.9104166 0 0 0 2.81615,-2.1828125 z" />
  <path
     id="rect7125"
     style="fill:#ffffff;fill-opacity:1;stroke-width:0.128912;stroke-linejoin:round"
     d="m 3.0205851,5.4724654 v 0.9110118 h 0.3447564 c 0.048355,0 0.093514,-0.010918 0.1350825,-0.032975 0.042417,-0.022057 0.075915,-0.052624 0.1005161,-0.091647 0.02545,-0.039872 0.037978,-0.084287 0.037978,-0.1334907 0,-0.050052 -0.014365,-0.09389 -0.043208,-0.1312166 -0.028843,-0.037327 -0.066076,-0.063642 -0.1118865,-0.078912 v -0.005 c 0.038175,-0.017816 0.068226,-0.043326 0.090282,-0.07641 0.022905,-0.033085 0.034338,-0.071638 0.034338,-0.1157527 0,-0.046658 -0.011722,-0.088659 -0.035476,-0.125986 -0.023752,-0.037323 -0.056156,-0.066568 -0.096877,-0.087776 -0.039872,-0.021209 -0.082678,-0.031838 -0.1284877,-0.031838 z m 1.5154723,0.078912 v 0.1832939 h -0.113251 v 0.098015 h 0.113251 v 0.3804599 c 0,0.030541 0.00425,0.056339 0.012736,0.077547 0.00849,0.021209 0.021238,0.039825 0.038205,0.055943 0.01527,0.014419 0.033886,0.025855 0.055943,0.034339 0.022906,0.00849 0.04761,0.012734 0.073909,0.012734 0.02036,0 0.03685,-0.00131 0.049575,-0.00387 0.013573,-0.00255 0.026845,-0.00679 0.039571,-0.012736 V 6.2715921 c -0.022906,0.014423 -0.046806,0.021604 -0.071407,0.021604 -0.030541,0 -0.053697,-0.00931 -0.069815,-0.027971 -0.013574,-0.016967 -0.020467,-0.043281 -0.020467,-0.078911 V 5.8326858 h 0.157822 V 5.7346712 H 4.6443055 V 5.5513773 Z m -1.4085888,0.024106 h 0.2251377 c 0.029693,0 0.055719,0.00718 0.077775,0.021604 0.022905,0.014422 0.0402,0.033266 0.052077,0.056171 0.012725,0.022057 0.019103,0.044408 0.019103,0.067314 0,0.023754 -0.00638,0.047138 -0.019103,0.070042 -0.012725,0.022057 -0.030826,0.040384 -0.054579,0.054807 -0.022905,0.014422 -0.049736,0.021604 -0.080276,0.021604 H 3.127468 Z m 0.9226098,0.1387211 c -0.062778,0 -0.1180488,0.015686 -0.1655557,0.047074 -0.047507,0.031389 -0.084224,0.073389 -0.1105223,0.1259862 -0.02545,0.052596 -0.038205,0.110283 -0.038205,0.1730603 0,0.065322 0.01356,0.1243292 0.040707,0.1769264 0.027995,0.051749 0.066549,0.092429 0.1157526,0.1221202 0.049204,0.029692 0.104764,0.044573 0.166693,0.044573 0.067868,0 0.1255532,-0.015169 0.1730603,-0.04571 0.048355,-0.03054 0.08662,-0.072252 0.1146151,-0.1248487 L 4.2549764,6.1888129 C 4.2100154,6.2668599 4.1459509,6.30593 4.0628135,6.30593 4.0271835,6.30593 3.9928805,6.29742 3.9597957,6.28046 3.9275587,6.263493 3.9007287,6.237983 3.8795197,6.20405 3.8583097,6.170116 3.8463597,6.128632 3.8438167,6.0794284 h 0.5128136 c 0.00254,-0.00933 0.00387,-0.020251 0.00387,-0.032974 0,-0.064475 -0.012755,-0.1218712 -0.038205,-0.1719234 C 4.2976882,5.8244774 4.2620651,5.7854076 4.2154065,5.7574125 4.1687477,5.7285689 4.1137036,5.7142042 4.0500784,5.7142045 Z m 1.1120438,0 c -0.054294,0 -0.1037654,0.011146 -0.1487274,0.033203 -0.044113,0.022057 -0.078931,0.052624 -0.104382,0.091647 l 0.081414,0.060946 c 0.017815,-0.027995 0.042003,-0.049542 0.072544,-0.064813 0.030541,-0.01612 0.064037,-0.024334 0.1005159,-0.024334 0.051749,0 0.094554,0.014881 0.1284876,0.044573 0.033934,0.028844 0.050941,0.067397 0.050941,0.1157526 v 0.039569 c -0.017815,-0.011029 -0.043613,-0.020853 -0.077547,-0.029337 -0.033085,-0.00848 -0.069224,-0.012734 -0.108248,-0.012734 -0.078896,0 -0.1442802,0.019649 -0.1960289,0.058673 -0.051749,0.038175 -0.077547,0.091609 -0.077547,0.1603252 0,0.041568 0.010112,0.078801 0.030474,0.1118866 0.02036,0.032235 0.049317,0.057746 0.086644,0.07641 0.037326,0.018664 0.079616,0.027971 0.1271233,0.027971 0.046658,0 0.088659,-0.010917 0.1259863,-0.032974 0.037326,-0.022057 0.065478,-0.048889 0.084142,-0.080276 h 0.005 v 0.092785 H 5.4459322 V 5.9725441 c 0,-0.079744 -0.025283,-0.1424865 -0.076183,-0.188297 -0.050052,-0.046659 -0.1193996,-0.070043 -0.207627,-0.070043 z M 4.048714,5.8122195 c 0.044113,0 0.080541,0.00931 0.1093851,0.027971 0.029693,0.018663 0.051466,0.041531 0.065039,0.068678 0.013574,0.027147 0.021272,0.054267 0.022968,0.081414 h -0.395923 c 0.011029,-0.053445 0.034124,-0.096251 0.068907,-0.1284878 0.035631,-0.033085 0.078724,-0.049575 0.1296239,-0.049575 z m -0.9212454,0.156459 h 0.2392373 c 0.032237,0 0.060678,0.0077 0.085279,0.022968 0.024603,0.014422 0.043734,0.033843 0.057307,0.058445 0.013573,0.023753 0.02024,0.048458 0.02024,0.073909 0,0.025449 -0.00666,0.050443 -0.02024,0.075046 -0.012725,0.023754 -0.031342,0.043402 -0.055943,0.058673 -0.023754,0.01527 -0.0511,0.022741 -0.081641,0.022741 H 3.1274686 Z m 2.0462516,0.087781 c 0.033085,0 0.064457,0.00425 0.094148,0.012736 0.029692,0.00849 0.054686,0.019628 0.075046,0.033203 1e-7,0.037327 -0.00931,0.071629 -0.027971,0.1030176 -0.018663,0.031388 -0.043657,0.056381 -0.075046,0.075046 -0.031389,0.018662 -0.065401,0.027971 -0.1018806,0.027971 -0.041568,0 -0.075871,-0.010917 -0.1030175,-0.032974 -0.027147,-0.022057 -0.040706,-0.051013 -0.040706,-0.086644 0,-0.039022 0.01488,-0.070683 0.044573,-0.095286 0.03054,-0.024602 0.075471,-0.037068 0.1348541,-0.03707 z" />
  <path
     id="rect13250"
     style="opacity:0.4;fill:url(#linearGradient16320);fill-opacity:1;stroke-width:0.264583;stroke-linejoin:round"
     d="m 2.6458333,0.79375 c -1.71979143,0 -2.11666664,0.396875 -2.11666664,2.1166666 v 2.6458335 c 0,1.7197919 0.39687515,2.1166666 2.11666664,2.1166666 h 3.175 c 1.7197913,0 2.1166666,-0.3968747 2.1166666,-2.1166666 V 2.9104166 C 7.9374999,1.190625 7.5406249,0.79375 5.8208333,0.79375 Z m 0,0.2645833 h 3.175 c 1.5213541,0 1.8520833,0.3307294 1.8520833,1.8520833 v 2.6458335 c 0,1.5213542 -0.3307292,1.8520833 -1.8520833,1.8520833 h -3.175 c -1.5213541,0 -1.85208331,-0.3307291 -1.85208331,-1.8520833 V 2.9104166 c 0,-1.521354 0.33072921,-1.8520834 1.85208331,-1.8520833 z"
     sodipodi:nodetypes="ssssssssssssssssss" />
  <path
     id="rect2545"
     style="opacity:0.4;fill:#000000;stroke-width:0.387914;stroke-linejoin:round"
     d="m 2.6458333,0.52916667 c -1.91822909,0 -2.38124997,0.4630208 -2.38124997,2.38124993 V 5.55625 c 0,1.8520831 0.52916735,2.38125 2.38124997,2.38125 h 3.175 c 1.8520841,0 2.3812499,-0.5291669 2.3812499,-2.38125 V 2.9104166 c 0,-1.8520832 -0.5291666,-2.38124988 -2.3812499,-2.38124993 z m 0,0.26458333 h 3.175 c 1.7197916,0 2.1166666,0.396875 2.1166666,2.1166666 V 5.55625 c 0,1.7197917 -0.3968753,2.1166666 -2.1166666,2.1166666 h -3.175 c -1.71979162,0 -2.11666664,-0.3968749 -2.11666664,-2.1166666 V 2.9104166 c 0,-1.7197916 0.39687505,-2.1166666 2.11666664,-2.1166666 z"
     sodipodi:nodetypes="ssssssssssssssssss" />
</svg>
