<?xml version="1.0" encoding="UTF-8" standalone="no"?>
<!-- Created with Inkscape (http://www.inkscape.org/) -->

<svg
   width="32"
   height="32"
   viewBox="0 0 8.4666665 8.4666669"
   version="1.1"
   id="svg2719"
   inkscape:version="1.1.2 (0a00cf5339, 2022-02-04)"
   sodipodi:docname="google-drive.svg"
   xmlns:inkscape="http://www.inkscape.org/namespaces/inkscape"
   xmlns:sodipodi="http://sodipodi.sourceforge.net/DTD/sodipodi-0.dtd"
   xmlns:xlink="http://www.w3.org/1999/xlink"
   xmlns="http://www.w3.org/2000/svg"
   xmlns:svg="http://www.w3.org/2000/svg">
  <sodipodi:namedview
     id="namedview2721"
     pagecolor="#ffffff"
     bordercolor="#666666"
     borderopacity="1.0"
     inkscape:pageshadow="2"
     inkscape:pageopacity="0.0"
     inkscape:pagecheckerboard="0"
     inkscape:document-units="px"
     showgrid="false"
     units="px"
     inkscape:zoom="12.375"
     inkscape:cx="7.5555556"
     inkscape:cy="13.737374"
     inkscape:window-width="1920"
     inkscape:window-height="998"
     inkscape:window-x="0"
     inkscape:window-y="0"
     inkscape:window-maximized="1"
     inkscape:current-layer="svg2719" />
  <defs
     id="defs2716">
    <linearGradient
       inkscape:collect="always"
       id="linearGradient1871">
      <stop
         style="stop-color:#ffffff;stop-opacity:1;"
         offset="0"
         id="stop1867" />
      <stop
         style="stop-color:#ffffff;stop-opacity:0.1"
         offset="0.12"
         id="stop2515" />
      <stop
         style="stop-color:#ffffff;stop-opacity:0.102"
         offset="0.89999998"
         id="stop2581" />
      <stop
         style="stop-color:#ffffff;stop-opacity:0.502"
         offset="1"
         id="stop1869" />
    </linearGradient>
    <linearGradient
       inkscape:collect="always"
       xlink:href="#linearGradient1871"
       id="linearGradient16320"
       x1="10"
       y1="4"
       x2="10"
       y2="29.100245"
       gradientUnits="userSpaceOnUse"
       gradientTransform="matrix(0.26458333,0,0,0.26458333,0,-0.26458332)" />
  </defs>
  <path
     id="rect18683"
     style="opacity:0.1;fill:#000000;stroke-width:0.264583;stroke-linejoin:round"
     d="m 2.38125,0.92604165 c -1.45520832,0 -1.984375,0.52916665 -1.984375,1.98437495 v 3.0427085 c 0,1.5875 0.52916665,2.1166666 2.1166666,2.1166666 h 3.4395833 c 1.5875,0 2.1166667,-0.5291666 2.1166667,-2.1166666 V 3.0427083 c 0,-1.5875 -0.5291667,-2.11666665 -2.1166667,-2.11666665 z"
     sodipodi:nodetypes="sssssssss" />
  <path
     id="rect6397"
     style="fill:#ffffff;fill-opacity:1;stroke-width:0.255274;stroke-linejoin:round"
     d="M 0.39687499,2.6458334 C 0.396875,1.190625 0.92604165,0.66145833 2.38125,0.66145834 h 3.571875 c 1.5874999,-1e-8 2.1166666,0.52916666 2.1166668,2.11666666 l 10e-8,2.9104168 c 0,1.5874999 -0.529166,2.1166666 -2.116666,2.1166666 H 2.5135417 c -1.58750001,0 -2.11666671,-0.5291667 -2.11666671,-2.1166667 z"
     sodipodi:nodetypes="ccccccccc" />
  <path
     inkscape:connector-curvature="0"
     d="m 1.7629795,6.0448009 0.2567032,0.4433964 c 0.053341,0.093346 0.1300181,0.1666902 0.2200314,0.2200317 L 3.1565114,5.121337 H 1.3229167 c 0,0.1033486 0.026671,0.2066952 0.080012,0.3000415 z"
     id="path2-0"
     style="fill:#0066da;stroke-width:0.0666755" />
  <path
     inkscape:connector-curvature="0"
     d="M 4.2333314,3.254404 3.3165338,1.6675116 c -0.090013,0.053337 -0.1666902,0.126685 -0.2200312,0.220031 l -1.6935745,2.933751 a 0.60408602,0.60408602 0 0 0 -0.08001,0.3000434 h 1.8335947 z"
     id="path4-3"
     style="fill:#00ac47;stroke-width:0.0666755" />
  <path
     inkscape:connector-curvature="0"
     d="M 6.2269492,6.708229 C 6.3169621,6.6548901 6.3936394,6.5815439 6.4469802,6.4881973 L 6.5536616,6.3048377 7.0637343,5.4213785 C 7.1170753,5.3280325 7.1437503,5.2246849 7.1437503,5.121337 H 5.3100179 l 0.390189,0.7667756 z"
     id="path6-0"
     style="fill:#ea4335;stroke-width:0.0666755" />
  <path
     inkscape:connector-curvature="0"
     d="M 4.2333314,3.254404 5.1501284,1.6675116 C 5.0601153,1.6141708 4.9567676,1.5875 4.8500859,1.5875 H 3.6165767 c -0.1066816,0 -0.2100299,0.030006 -0.3000429,0.080012 z"
     id="path8-4"
     style="fill:#00832d;stroke-width:0.0666755" />
  <path
     inkscape:connector-curvature="0"
     d="M 5.3101518,5.121337 H 3.1565114 L 2.2397141,6.708229 c 0.090013,0.053344 0.1933608,0.080012 0.3000426,0.080012 h 3.3871491 c 0.1066816,0 0.2100297,-0.030008 0.3000434,-0.080012 z"
     id="path10-4"
     style="fill:#2684fc;stroke-width:0.0666755" />
  <path
     inkscape:connector-curvature="0"
     d="M 6.2169472,3.3544185 5.3701595,1.8875426 C 5.3168218,1.7941959 5.2401414,1.7208522 5.1501284,1.6675114 L 4.2333314,3.254404 5.3101518,5.121337 h 1.8302607 c 0,-0.1033486 -0.026666,-0.2066967 -0.080007,-0.3000434 z"
     id="path12"
     style="fill:#ffba00;stroke-width:0.0666755" />
  <path
     id="rect13250"
     style="fill:url(#linearGradient16320);fill-opacity:1;stroke-width:0.264583;stroke-linejoin:round;opacity:0.3"
     d="m 2.6458333,0.79375 c -1.71979143,0 -2.11666664,0.396875 -2.11666664,2.1166666 v 2.6458335 c 0,1.7197919 0.39687515,2.1166666 2.11666664,2.1166666 h 3.175 c 1.7197913,0 2.1166666,-0.3968747 2.1166666,-2.1166666 V 2.9104166 C 7.9374999,1.190625 7.5406249,0.79375 5.8208333,0.79375 Z m 0,0.2645833 h 3.175 c 1.5213541,0 1.8520833,0.3307294 1.8520833,1.8520833 v 2.6458335 c 0,1.5213542 -0.3307292,1.8520833 -1.8520833,1.8520833 h -3.175 c -1.5213541,0 -1.85208331,-0.3307291 -1.85208331,-1.8520833 V 2.9104166 c 0,-1.521354 0.33072921,-1.8520834 1.85208331,-1.8520833 z"
     sodipodi:nodetypes="ssssssssssssssssss" />
  <path
     id="rect2545"
     style="opacity:0.4;fill:#000000;stroke-width:0.387914;stroke-linejoin:round"
     d="m 2.6458333,0.52916667 c -1.91822909,0 -2.38124997,0.4630208 -2.38124997,2.38124993 V 5.55625 c 0,1.8520831 0.52916735,2.38125 2.38124997,2.38125 h 3.175 c 1.8520841,0 2.3812499,-0.5291669 2.3812499,-2.38125 V 2.9104166 c 0,-1.8520832 -0.5291666,-2.38124988 -2.3812499,-2.38124993 z m 0,0.26458333 h 3.175 c 1.7197916,0 2.1166666,0.396875 2.1166666,2.1166666 V 5.55625 c 0,1.7197917 -0.3968753,2.1166666 -2.1166666,2.1166666 h -3.175 c -1.71979162,0 -2.11666664,-0.3968749 -2.11666664,-2.1166666 V 2.9104166 c 0,-1.7197916 0.39687505,-2.1166666 2.11666664,-2.1166666 z"
     sodipodi:nodetypes="ssssssssssssssssss" />
</svg>
