<?xml version="1.0" encoding="UTF-8" standalone="no"?>
<!-- Created with Inkscape (http://www.inkscape.org/) -->

<svg
   width="32"
   height="32"
   viewBox="0 0 8.4666665 8.4666669"
   version="1.1"
   id="svg2719"
   inkscape:version="1.1.2 (0a00cf5339, 2022-02-04)"
   sodipodi:docname="kate.svg"
   xmlns:inkscape="http://www.inkscape.org/namespaces/inkscape"
   xmlns:sodipodi="http://sodipodi.sourceforge.net/DTD/sodipodi-0.dtd"
   xmlns:xlink="http://www.w3.org/1999/xlink"
   xmlns="http://www.w3.org/2000/svg"
   xmlns:svg="http://www.w3.org/2000/svg">
  <sodipodi:namedview
     id="namedview2721"
     pagecolor="#ffffff"
     bordercolor="#666666"
     borderopacity="1.0"
     inkscape:pageshadow="2"
     inkscape:pageopacity="0.0"
     inkscape:pagecheckerboard="0"
     inkscape:document-units="px"
     showgrid="false"
     units="px"
     inkscape:zoom="24.1875"
     inkscape:cx="15.979328"
     inkscape:cy="16"
     inkscape:window-width="1920"
     inkscape:window-height="998"
     inkscape:window-x="0"
     inkscape:window-y="0"
     inkscape:window-maximized="1"
     inkscape:current-layer="svg2719" />
  <defs
     id="defs2716">
    <linearGradient
       inkscape:collect="always"
       id="linearGradient1871">
      <stop
         style="stop-color:#ffffff;stop-opacity:1;"
         offset="0"
         id="stop1867" />
      <stop
         style="stop-color:#ffffff;stop-opacity:0.1"
         offset="0.12"
         id="stop2515" />
      <stop
         style="stop-color:#ffffff;stop-opacity:0.102"
         offset="0.89999998"
         id="stop2581" />
      <stop
         style="stop-color:#ffffff;stop-opacity:0.502"
         offset="1"
         id="stop1869" />
    </linearGradient>
    <linearGradient
       inkscape:collect="always"
       xlink:href="#linearGradient1871"
       id="linearGradient16320"
       x1="10"
       y1="4"
       x2="10"
       y2="29.100245"
       gradientUnits="userSpaceOnUse"
       gradientTransform="matrix(0.26458333,0,0,0.26458333,0,-0.26458332)" />
    <linearGradient
       inkscape:collect="always"
       xlink:href="#linearGradient3598"
       id="linearGradient3600"
       x1="14.772573"
       y1="14.250811"
       x2="-1.4506465"
       y2="-0.98483801"
       gradientUnits="userSpaceOnUse"
       gradientTransform="matrix(2.4356956,0,0,2.4296963,0.53333328,0.89285725)" />
    <linearGradient
       inkscape:collect="always"
       id="linearGradient3598">
      <stop
         style="stop-color:#008bff;stop-opacity:1"
         offset="0"
         id="stop3594" />
      <stop
         style="stop-color:#00ccff;stop-opacity:1"
         offset="1"
         id="stop3596" />
    </linearGradient>
  </defs>
  <path
     id="rect18683"
     style="opacity:0.1;fill:#000000;stroke-width:0.264583;stroke-linejoin:round"
     d="m 2.38125,0.92604165 c -1.45520832,0 -1.984375,0.52916665 -1.984375,1.98437495 v 3.0427085 c 0,1.5875 0.52916665,2.1166666 2.1166666,2.1166666 h 3.4395833 c 1.5875,0 2.1166667,-0.5291666 2.1166667,-2.1166666 V 3.0427083 c 0,-1.5875 -0.5291667,-2.11666665 -2.1166667,-2.11666665 z"
     sodipodi:nodetypes="sssssssss" />
  <path
     id="rect877"
     style="display:inline;fill:url(#linearGradient3600);fill-opacity:1;stroke:none;stroke-width:0.241369;stroke-linecap:round;stroke-linejoin:round;stroke-miterlimit:4;stroke-dasharray:none;stroke-dashoffset:0;stroke-opacity:1;enable-background:new"
     d="M 9,2.5 C 3.5,2.5 1.5,4.4999998 1.5,10 v 11.5 c 0,6 2,8 8,8 h 13 c 6,0 8,-2 8,-8 v -11 c -1e-6,-6 -2,-8 -8,-8 z"
     transform="scale(0.26458333)"
     sodipodi:nodetypes="cccccsscc" />
  <path
     id="rect1595"
     style="opacity:0.2;fill:#ffffff;fill-opacity:1;stroke-width:2;stroke-linecap:round;stroke-linejoin:round"
     d="M 1.5 16 L 1.5 21.5 C 1.5 27.5 3.5000003 29.5 9.5 29.5 L 22.5 29.5 C 28.5 29.5 30.5 27.5 30.5 21.5 L 30.5 16 L 1.5 16 z "
     transform="scale(0.26458333)" />
  <path
     id="path10-3"
     style="opacity:0.1;fill:#000000;stroke-width:0.212213"
     d="M 4.0159385,1.5875006 C 3.5629894,1.5871456 3.0422259,1.7164543 2.5370737,2.0823898 2.04348,2.4399533 1.8269281,2.5380071 1.5875,2.6568591 1.7974009,2.6728744 3.0362001,2.4970383 3.2910131,3.2056308 2.3825299,3.5054184 2.0257395,3.9930873 2.1404165,4.5601515 c 0.018039,0.1021045 0.052594,0.2088003 0.1052778,0.3195639 0.05441,0.1143926 0.1164646,0.2124409 0.1844436,0.2992548 0.00325,0.00455 0.00665,0.00912 0.00995,0.013677 -0.00169,-0.00237 -0.00331,-0.00467 -0.00497,-0.00705 C 2.8540632,5.7144609 3.5120038,5.7969232 4.2240141,6.273193 4.8727496,6.7071434 5.0882268,6.9279826 5.5068293,7.529486 5.4197749,6.6983931 4.9612104,5.6272831 4.7731937,5.1553449 L 4.772779,5.1532783 C 5.3608248,5.5848881 6.0578107,5.7730193 6.8791667,5.8317763 5.5660388,4.8970351 5.3167455,4.6756816 4.5651246,4.0350053 4.0608682,4.0604229 4.1164198,4.0556706 3.8190606,4.0727225 3.8563238,4.1348403 3.8940588,4.1949235 3.932628,4.2530213 4.2329508,4.7872437 4.2902908,5.4521878 3.6491238,5.585575 2.9791693,5.7249504 2.2485523,5.1463795 2.4322104,4.526993 2.6316426,3.8544141 3.5774774,3.9838105 4.4805706,3.8671408 5.3836644,3.7504703 6.2087774,2.864782 6.7050854,2.2092207 5.9900663,2.4531822 5.0801686,2.6771546 4.0640183,2.971864 3.8663362,2.567109 3.6701915,1.8680382 4.9986708,1.817537 4.9747778,1.804339 4.9500898,1.79164 4.9244788,1.77982 4.9213188,1.77833 4.9181288,1.77675 4.9149488,1.77527 4.9094588,1.77279 4.9039378,1.77022 4.8983698,1.76781 4.6689239,1.6640691 4.3623115,1.5877719 4.0159385,1.5875006 Z" />
  <path
     style="fill:#cccccc;fill-opacity:1;stroke-width:0.212221"
     d="M 3.3029037,2.9761434 C 3.0770668,2.2263999 1.8008277,2.4083293 1.5875,2.3920525 1.826936,2.2731968 2.0419567,2.3171543 2.5355668,1.959579 3.4864729,1.2707365 4.1536178,1.2615809 4.6577748,1.5351373 3.2794828,1.5875321 3.8830314,2.3558793 4.0860411,2.7515306 3.8278724,2.8265205 3.4203335,2.9397231 3.3029037,2.9761434 Z"
     id="path10" />
  <path
     style="fill:#f2f2f2;stroke-width:0.212221"
     d="M 6.7050987,1.9444625 C 6.208774,2.6000457 5.383584,3.4857842 4.4804608,3.6024583 3.5773374,3.7191323 2.6314809,3.58988 2.4320421,4.2624831 2.2483779,4.88189 2.9792195,5.4601996 3.649196,5.32082 4.3649411,5.1719178 4.2103652,4.3606725 3.8188812,3.8082351 4.1162504,3.7911831 3.941281,3.8949843 4.445554,3.8695663 L 4.7730977,4.8908752 C 4.9611205,5.3628295 5.4196067,6.4339776 5.506658,7.2650986 5.088041,6.6635722 4.8727305,6.4425126 4.2239728,6.0085528 3.3929567,5.4526786 2.6350542,5.4338602 2.2455165,4.6148872 1.8568201,3.7976837 2.4561873,3.2090207 3.3768328,2.9540884 4.6925026,2.5897707 5.8261274,2.2443645 6.7050987,1.9444625 Z"
     id="path12" />
  <path
     style="fill:#cccccc;fill-opacity:1;stroke-width:0.212221"
     d="M 3.8188812,3.8082351 C 4.1162504,3.7911833 4.060935,3.7955973 4.5652079,3.7701789 5.3168541,4.4108767 5.5659947,4.63256 6.8791667,5.5673323 5.5592525,5.472911 4.5605698,5.0446171 3.8188812,3.8082351 Z"
     id="path14" />
  <path
     style="fill:#e6e6e6;fill-opacity:1;stroke-width:0.212221"
     d="M 1.5875,2.3920525 C 1.826936,2.2731968 2.0433175,2.1752253 2.5369275,1.81765 3.4878335,1.1288074 4.4945912,1.2790345 4.9987483,1.5525908 3.6204563,1.6049855 3.7980454,1.8796083 3.7929589,2.0948959 2.8772181,1.9018693 2.6098413,2.1644999 1.5875,2.3920525 Z"
     id="path16" />
  <path
     style="fill:#f2f2f2;stroke-width:0.212221"
     d="M 4.9987483,1.5525908 C 3.6204563,1.6049855 3.8830314,2.3558793 4.0860411,2.7515306 3.9252024,2.7982489 3.8568824,2.8514717 3.6418738,2.9083751 2.7743369,1.3625711 4.2906844,1.1614714 4.9987483,1.5525908 Z"
     id="path18" />
  <path
     style="fill:#e6e6e6;fill-opacity:1;stroke-width:0.212221"
     d="M 2.4937036,4.9999818 C 1.8192429,4.1315308 2.0286492,3.3355194 3.3493408,2.9219383 4.6526446,2.5138017 5.8261274,2.2443645 6.7050987,1.9444625 4.3330802,2.8482529 1.2779745,3.4521617 2.4937036,4.9999818 Z"
     id="path20" />
  <path
     id="rect13250"
     style="fill:url(#linearGradient16320);fill-opacity:1;stroke-width:0.264583;stroke-linejoin:round;opacity:1"
     d="m 2.6458333,0.79375 c -1.71979143,0 -2.11666664,0.396875 -2.11666664,2.1166666 v 2.6458335 c 0,1.7197919 0.39687515,2.1166666 2.11666664,2.1166666 h 3.175 c 1.7197913,0 2.1166666,-0.3968747 2.1166666,-2.1166666 V 2.9104166 C 7.9374999,1.190625 7.5406249,0.79375 5.8208333,0.79375 Z m 0,0.2645833 h 3.175 c 1.5213541,0 1.8520833,0.3307294 1.8520833,1.8520833 v 2.6458335 c 0,1.5213542 -0.3307292,1.8520833 -1.8520833,1.8520833 h -3.175 c -1.5213541,0 -1.85208331,-0.3307291 -1.85208331,-1.8520833 V 2.9104166 c 0,-1.521354 0.33072921,-1.8520834 1.85208331,-1.8520833 z"
     sodipodi:nodetypes="ssssssssssssssssss" />
  <path
     id="rect2545"
     style="opacity:0.4;fill:#000000;stroke-width:0.387914;stroke-linejoin:round"
     d="m 2.6458333,0.52916667 c -1.91822909,0 -2.38124997,0.4630208 -2.38124997,2.38124993 V 5.55625 c 0,1.8520831 0.52916735,2.38125 2.38124997,2.38125 h 3.175 c 1.8520841,0 2.3812499,-0.5291669 2.3812499,-2.38125 V 2.9104166 c 0,-1.8520832 -0.5291666,-2.38124988 -2.3812499,-2.38124993 z m 0,0.26458333 h 3.175 c 1.7197916,0 2.1166666,0.396875 2.1166666,2.1166666 V 5.55625 c 0,1.7197917 -0.3968753,2.1166666 -2.1166666,2.1166666 h -3.175 c -1.71979162,0 -2.11666664,-0.3968749 -2.11666664,-2.1166666 V 2.9104166 c 0,-1.7197916 0.39687505,-2.1166666 2.11666664,-2.1166666 z"
     sodipodi:nodetypes="ssssssssssssssssss" />
</svg>
