<?xml version="1.0" encoding="UTF-8" standalone="no"?>
<!-- Created with Inkscape (http://www.inkscape.org/) -->

<svg
   width="32"
   height="32"
   viewBox="0 0 8.4666665 8.4666669"
   version="1.1"
   id="svg2719"
   inkscape:version="1.1.2 (0a00cf5339, 2022-02-04)"
   sodipodi:docname="libreoffice-base.svg"
   xmlns:inkscape="http://www.inkscape.org/namespaces/inkscape"
   xmlns:sodipodi="http://sodipodi.sourceforge.net/DTD/sodipodi-0.dtd"
   xmlns:xlink="http://www.w3.org/1999/xlink"
   xmlns="http://www.w3.org/2000/svg"
   xmlns:svg="http://www.w3.org/2000/svg">
  <sodipodi:namedview
     id="namedview2721"
     pagecolor="#ffffff"
     bordercolor="#666666"
     borderopacity="1.0"
     inkscape:pageshadow="2"
     inkscape:pageopacity="0.0"
     inkscape:pagecheckerboard="0"
     inkscape:document-units="px"
     showgrid="false"
     units="px"
     inkscape:zoom="25.5625"
     inkscape:cx="18.09291"
     inkscape:cy="15.452323"
     inkscape:window-width="1920"
     inkscape:window-height="998"
     inkscape:window-x="0"
     inkscape:window-y="0"
     inkscape:window-maximized="1"
     inkscape:current-layer="svg2719"
     showguides="false" />
  <defs
     id="defs2716">
    <linearGradient
       inkscape:collect="always"
       id="linearGradient2290">
      <stop
         style="stop-color:#c04fba;stop-opacity:1"
         offset="0"
         id="stop2286" />
      <stop
         style="stop-color:#9911aa;stop-opacity:1"
         offset="1"
         id="stop2288" />
    </linearGradient>
    <linearGradient
       inkscape:collect="always"
       id="linearGradient1871">
      <stop
         style="stop-color:#ffffff;stop-opacity:1;"
         offset="0"
         id="stop1867" />
      <stop
         style="stop-color:#ffffff;stop-opacity:0.1"
         offset="0.12"
         id="stop2515" />
      <stop
         style="stop-color:#ffffff;stop-opacity:0.102"
         offset="0.89999998"
         id="stop2581" />
      <stop
         style="stop-color:#ffffff;stop-opacity:0.502"
         offset="1"
         id="stop1869" />
    </linearGradient>
    <linearGradient
       inkscape:collect="always"
       xlink:href="#linearGradient1871"
       id="linearGradient16320"
       x1="10"
       y1="4"
       x2="10"
       y2="29.100245"
       gradientUnits="userSpaceOnUse"
       gradientTransform="matrix(0.26458333,0,0,0.26458333,0,-0.26458332)" />
    <linearGradient
       inkscape:collect="always"
       xlink:href="#linearGradient2290"
       id="linearGradient2292"
       x1="5.8208332"
       y1="7.9375"
       x2="2.6458333"
       y2="0.5291667"
       gradientUnits="userSpaceOnUse" />
    <linearGradient
       id="linearGradient1389"
       x1="525.44"
       x2="516.65997"
       y1="836.19"
       y2="828.5"
       gradientTransform="matrix(0.56516566,0,0,0.5755526,-281.56014,-457.251)"
       gradientUnits="userSpaceOnUse"
       xlink:href="#linearGradient14494" />
    <linearGradient
       id="linearGradient14494">
      <stop
         stop-color="#dc85e9"
         offset="0"
         id="stop13" />
      <stop
         stop-color="#f2cbf8"
         offset="1"
         id="stop15" />
    </linearGradient>
    <linearGradient
       id="linearGradient1391"
       x1="525.44"
       x2="516.65997"
       y1="836.19"
       y2="828.5"
       gradientTransform="matrix(0.56516566,0,0,0.5755526,-281.55436,-459.95996)"
       gradientUnits="userSpaceOnUse"
       xlink:href="#linearGradient14494" />
    <linearGradient
       id="linearGradient1393"
       x1="525.44"
       x2="516.65997"
       y1="836.19"
       y2="828.5"
       gradientTransform="matrix(0.56516566,0,0,0.5755526,-281.55766,-462.61381)"
       gradientUnits="userSpaceOnUse"
       xlink:href="#linearGradient14494" />
    <linearGradient
       id="linearGradient1395"
       x1="520.59003"
       x2="516.15002"
       y1="735.04999"
       y2="720.85999"
       gradientUnits="userSpaceOnUse"
       xlink:href="#linearGradient14494"
       gradientTransform="matrix(0.28967001,0,0,0.35418356,-134.53547,-244.30671)" />
  </defs>
  <path
     id="rect18683"
     style="opacity:0.1;fill:#000000;stroke-width:0.264583;stroke-linejoin:round"
     d="m 2.38125,0.92604165 c -1.45520832,0 -1.984375,0.52916665 -1.984375,1.98437495 v 3.0427085 c 0,1.5875 0.52916665,2.1166666 2.1166666,2.1166666 h 3.4395833 c 1.5875,0 2.1166667,-0.5291666 2.1166667,-2.1166666 V 3.0427083 c 0,-1.5875 -0.5291667,-2.11666665 -2.1166667,-2.11666665 z"
     sodipodi:nodetypes="sssssssss" />
  <path
     id="rect6397"
     style="fill:url(#linearGradient2292);fill-opacity:1;stroke-width:0.255274;stroke-linejoin:round"
     d="M 0.39687499,2.6458334 C 0.396875,1.190625 0.92604165,0.66145833 2.38125,0.66145834 h 3.571875 c 1.5874999,-1e-8 2.1166666,0.52916666 2.1166668,2.11666666 l 10e-8,2.9104168 c 0,1.5874999 -0.529166,2.1166666 -2.116666,2.1166666 H 2.5135417 c -1.58750001,0 -2.11666671,-0.5291667 -2.11666671,-2.1166667 z"
     sodipodi:nodetypes="ccccccccc" />
  <path
     id="rect2161"
     style="fill:#ffffff;stroke-width:2;stroke-linecap:round;stroke-linejoin:round"
     d="M 10,5 C 4.9999999,5 3.9999981,6.0000003 4,11 v 10 c -1.9e-6,5 0.9999999,6 6,6 h 12 c 5,0 6.000002,-1 6,-6 V 12 L 21,5 Z"
     transform="scale(0.26458333)"
     sodipodi:nodetypes="scssssccs" />
  <path
     id="rect1372"
     style="opacity:0.1;fill:#ffffff;fill-opacity:1;stroke-width:0.999999;stroke-linejoin:round"
     d="M 1.5 16 L 1.5 21.5 C 1.5 27.5 3.5 29.5 9.5 29.5 L 22.5 29.5 C 28.5 29.5 30.5 27.5 30.5 21.5 L 30.5 16 L 1.5 16 z "
     transform="scale(0.26458333)" />
  <g
     id="g1896"
     transform="matrix(0.26458333,0,0,0.26458333,0.0056853,-0.48730874)">
    <path
       style="color:#000000;fill:url(#linearGradient1389);stroke-width:1.00001;-inkscape-stroke:none"
       d="m 9.5007842,20.183891 v 2.014463 0.287782 c 0,1.11257 2.9098588,2.01452 6.4995808,2.01452 3.589492,0 6.499581,-0.901893 6.499581,-2.01452 v -0.287782 -2.014463 z"
       id="path910" />
    <path
       style="color:#000000;fill:url(#linearGradient1391);stroke-width:1.00001;-inkscape-stroke:none"
       d="m 9.477691,17.489314 v 2.014521 0.287782 c 0,1.11257 2.909859,2.014463 6.499581,2.014463 3.589492,0 6.499581,-0.901893 6.499581,-2.014463 v -0.287782 -2.014521 z"
       id="path1199" />
    <path
       style="color:#000000;fill:url(#linearGradient1393);stroke-width:0.999969;-inkscape-stroke:none"
       d="m 9.5026546,14.830092 v 2.014434 0.287777 c 0,1.112543 2.9098684,2.014434 6.4994054,2.014434 3.589536,0 6.499405,-0.901891 6.499405,-2.014434 v -0.287777 -2.014434 z"
       id="path1751" />
    <path
       style="color:#000000;fill:url(#linearGradient1395);stroke-width:0.999997;-inkscape-stroke:none"
       d="m 22.503138,14.357085 a 6.5,2.0144191 0 0 1 -6.5,2.014419 6.5,2.0144191 0 0 1 -6.5000004,-2.014419 6.5,2.0144191 0 0 1 6.5000004,-2.014419 6.5,2.0144191 0 0 1 6.5,2.014419 z"
       id="path1630" />
    <path
       id="path1157"
       style="color:#000000;fill:#8e03a3;-inkscape-stroke:none"
       d="m 16.003906,11.841797 c -1.836795,0 -3.499185,0.227456 -4.74414,0.613281 -0.622478,0.192913 -1.142047,0.422515 -1.541016,0.714844 -0.391464,0.28683 -0.7013107,0.676961 -0.7128906,1.160156 h -0.00391 v 0.5 2.013672 0.146484 h -0.023437 v 0.5 2.013672 0.28711 c 0,0.07398 0.00821,0.145209 0.021484,0.214843 v 0.177735 2.015625 0.287109 c 0,0.496098 0.3178563,0.895152 0.7167969,1.1875 0.3989397,0.292348 0.9166247,0.521918 1.5390617,0.714844 C 12.500734,24.774523 14.163264,25 16,25 c 1.836621,0 3.49924,-0.225486 4.744141,-0.611328 0.62245,-0.192921 1.142056,-0.422495 1.541015,-0.714844 C 22.684115,23.38148 23,22.982446 23,22.486328 v -0.287109 -2.515625 h -0.02344 v -0.179688 -2.140625 c 0.01532,-0.07459 0.02539,-0.150835 0.02539,-0.230469 V 16.84375 14.382812 c 1.93e-4,-0.0086 0.002,-0.01672 0.002,-0.02539 0,-0.496114 -0.317827,-0.895171 -0.716797,-1.1875 -0.398969,-0.292329 -0.916584,-0.521931 -1.539062,-0.714844 -1.244956,-0.385825 -2.907345,-0.613281 -4.744141,-0.613281 z m 0,1 c 1.753052,0 3.339686,0.225109 4.447266,0.568359 0.55379,0.171626 0.987228,0.376733 1.246094,0.566406 0.258865,0.189674 0.30664,0.320708 0.30664,0.38086 0,0.06015 -0.04778,0.191185 -0.30664,0.380859 -0.258866,0.189674 -0.692304,0.394781 -1.246094,0.566407 -1.10758,0.343249 -2.694214,0.566406 -4.447266,0.566406 -1.753052,0 -3.341639,-0.223156 -4.449218,-0.566406 -0.55379,-0.171626 -0.987228,-0.376733 -1.246094,-0.566407 -0.258866,-0.189674 -0.304688,-0.320708 -0.304688,-0.380859 0,-0.06015 0.04582,-0.191187 0.304688,-0.38086 0.258866,-0.189674 0.692304,-0.39478 1.246094,-0.566406 1.107578,-0.34325 2.696166,-0.568359 4.449218,-0.568359 z m -6.001953,2.886719 c 0.351691,0.207173 0.772803,0.38094 1.257813,0.53125 1.244955,0.385825 2.907345,0.611328 4.74414,0.611328 1.836796,0 3.499185,-0.225503 4.744141,-0.611328 0.483417,-0.149817 0.903433,-0.323031 1.253906,-0.529297 v 1.113281 0.289062 c 0,0.06018 -0.0478,0.191188 -0.306641,0.38086 -0.258835,0.189672 -0.69236,0.394781 -1.246093,0.566406 -1.107467,0.34325 -2.694374,0.566406 -4.447266,0.566406 -1.752892,0 -3.3398,-0.223156 -4.447265,-0.566406 C 11.000953,17.908453 10.567431,17.703344 10.308594,17.513672 10.049757,17.324 10.001953,17.192996 10.001953,17.132812 V 16.84375 Z m -0.023437,2.761718 c 0.355619,0.213132 0.783941,0.391391 1.279296,0.544922 1.244851,0.385831 2.9075,0.611328 4.744141,0.611328 1.836641,0 3.499291,-0.225497 4.744141,-0.611328 0.472421,-0.146423 0.884303,-0.315546 1.230468,-0.515625 v 0.984375 0.28711 c 0,0.06017 -0.04779,0.191182 -0.30664,0.380859 -0.258854,0.189677 -0.690383,0.394779 -1.244141,0.566406 -1.107516,0.343255 -2.696351,0.56836 -4.449219,0.56836 -1.752984,0 -3.339782,-0.225107 -4.447265,-0.56836 -0.553742,-0.171626 -0.987259,-0.376733 -1.246094,-0.566406 -0.258835,-0.189673 -0.304687,-0.320672 -0.304687,-0.380859 v -0.28711 z M 22,21.150391 v 1.048828 0.287109 c 0,0.0602 -0.04779,0.191176 -0.306641,0.38086 -0.258853,0.189682 -0.692336,0.394775 -1.246093,0.566406 C 19.339751,23.776854 17.752867,24 16,24 14.247018,24 12.660217,23.77686 11.552734,23.433594 10.998993,23.261961 10.565477,23.056864 10.306641,22.867188 10.047804,22.677511 10,22.546515 10,22.486328 v -0.287109 -1.021485 c 0.345946,0.200486 0.759267,0.368977 1.232422,0.515625 1.244874,0.385836 2.907407,0.613282 4.74414,0.613282 1.836622,0 3.499242,-0.227448 4.744141,-0.613282 C 21.215435,21.540027 21.644146,21.363151 22,21.150391 Z" />
  </g>
  <path
     id="rect13250"
     style="fill:url(#linearGradient16320);fill-opacity:1;stroke-width:0.264583;stroke-linejoin:round"
     d="m 2.6458333,0.79375 c -1.71979143,0 -2.11666664,0.396875 -2.11666664,2.1166666 v 2.6458335 c 0,1.7197919 0.39687515,2.1166666 2.11666664,2.1166666 h 3.175 c 1.7197913,0 2.1166666,-0.3968747 2.1166666,-2.1166666 V 2.9104166 C 7.9374999,1.190625 7.5406249,0.79375 5.8208333,0.79375 Z m 0,0.2645833 h 3.175 c 1.5213541,0 1.8520833,0.3307294 1.8520833,1.8520833 v 2.6458335 c 0,1.5213542 -0.3307292,1.8520833 -1.8520833,1.8520833 h -3.175 c -1.5213541,0 -1.85208331,-0.3307291 -1.85208331,-1.8520833 V 2.9104166 c 0,-1.521354 0.33072921,-1.8520834 1.85208331,-1.8520833 z"
     sodipodi:nodetypes="ssssssssssssssssss" />
  <path
     id="rect2545"
     style="opacity:0.4;fill:#000000;stroke-width:0.387914;stroke-linejoin:round"
     d="m 2.6458333,0.52916667 c -1.91822909,0 -2.38124997,0.4630208 -2.38124997,2.38124993 V 5.55625 c 0,1.8520831 0.52916735,2.38125 2.38124997,2.38125 h 3.175 c 1.8520841,0 2.3812499,-0.5291669 2.3812499,-2.38125 V 2.9104166 c 0,-1.8520832 -0.5291666,-2.38124988 -2.3812499,-2.38124993 z m 0,0.26458333 h 3.175 c 1.7197916,0 2.1166666,0.396875 2.1166666,2.1166666 V 5.55625 c 0,1.7197917 -0.3968753,2.1166666 -2.1166666,2.1166666 h -3.175 c -1.71979162,0 -2.11666664,-0.3968749 -2.11666664,-2.1166666 V 2.9104166 c 0,-1.7197916 0.39687505,-2.1166666 2.11666664,-2.1166666 z"
     sodipodi:nodetypes="ssssssssssssssssss" />
</svg>
