<?xml version="1.0" encoding="UTF-8" standalone="no"?>
<!-- Created with Inkscape (http://www.inkscape.org/) -->

<svg
   width="32"
   height="32"
   viewBox="0 0 8.4666665 8.4666669"
   version="1.1"
   id="svg2719"
   inkscape:version="1.1.2 (0a00cf5339, 2022-02-04)"
   sodipodi:docname="linuxmint.svg"
   xmlns:inkscape="http://www.inkscape.org/namespaces/inkscape"
   xmlns:sodipodi="http://sodipodi.sourceforge.net/DTD/sodipodi-0.dtd"
   xmlns:xlink="http://www.w3.org/1999/xlink"
   xmlns="http://www.w3.org/2000/svg"
   xmlns:svg="http://www.w3.org/2000/svg">
  <sodipodi:namedview
     id="namedview2721"
     pagecolor="#ffffff"
     bordercolor="#666666"
     borderopacity="1.0"
     inkscape:pageshadow="2"
     inkscape:pageopacity="0.0"
     inkscape:pagecheckerboard="0"
     inkscape:document-units="px"
     showgrid="false"
     units="px"
     inkscape:zoom="12.78125"
     inkscape:cx="4.1858191"
     inkscape:cy="20.772616"
     inkscape:window-width="1851"
     inkscape:window-height="1016"
     inkscape:window-x="0"
     inkscape:window-y="0"
     inkscape:window-maximized="1"
     inkscape:current-layer="svg2719"
     showguides="false" />
  <defs
     id="defs2716">
    <linearGradient
       inkscape:collect="always"
       id="linearGradient2290">
      <stop
         style="stop-color:#76c22b;stop-opacity:1"
         offset="0"
         id="stop2286" />
      <stop
         style="stop-color:#a2d74f;stop-opacity:1"
         offset="1"
         id="stop2288" />
    </linearGradient>
    <linearGradient
       inkscape:collect="always"
       id="linearGradient1871">
      <stop
         style="stop-color:#ffffff;stop-opacity:1;"
         offset="0"
         id="stop1867" />
      <stop
         style="stop-color:#ffffff;stop-opacity:0.1"
         offset="0.12"
         id="stop2515" />
      <stop
         style="stop-color:#ffffff;stop-opacity:0.102"
         offset="0.89999998"
         id="stop2581" />
      <stop
         style="stop-color:#ffffff;stop-opacity:0.502"
         offset="1"
         id="stop1869" />
    </linearGradient>
    <linearGradient
       inkscape:collect="always"
       xlink:href="#linearGradient1871"
       id="linearGradient16320"
       x1="10"
       y1="4"
       x2="10"
       y2="29.100245"
       gradientUnits="userSpaceOnUse"
       gradientTransform="matrix(0.26458333,0,0,0.26458333,0,-0.26458332)" />
    <linearGradient
       inkscape:collect="always"
       xlink:href="#linearGradient2290"
       id="linearGradient2292"
       x1="-1.595493"
       y1="-0.00081733015"
       x2="10.054167"
       y2="8.4666672"
       gradientUnits="userSpaceOnUse" />
  </defs>
  <path
     id="rect18683"
     style="opacity:0.1;fill:#000000;stroke-width:0.264583;stroke-linejoin:round"
     d="m 2.38125,0.92604165 c -1.45520832,0 -1.984375,0.52916665 -1.984375,1.98437495 v 3.0427085 c 0,1.5875 0.52916665,2.1166666 2.1166666,2.1166666 h 3.4395833 c 1.5875,0 2.1166667,-0.5291666 2.1166667,-2.1166666 V 3.0427083 c 0,-1.5875 -0.5291667,-2.11666665 -2.1166667,-2.11666665 z"
     sodipodi:nodetypes="sssssssss" />
  <path
     id="rect6397"
     style="fill:url(#linearGradient2292);fill-opacity:1;stroke-width:0.255274;stroke-linejoin:round"
     d="M 0.39687499,2.6458334 C 0.396875,1.190625 0.92604165,0.66145833 2.38125,0.66145834 h 3.571875 c 1.5874999,-1e-8 2.1166666,0.52916666 2.1166668,2.11666666 l 10e-8,2.9104168 c 0,1.5874999 -0.529166,2.1166666 -2.116666,2.1166666 H 2.5135417 c -1.58750001,0 -2.11666671,-0.5291667 -2.11666671,-2.1166667 z"
     sodipodi:nodetypes="ccccccccc" />
  <path
     id="rect1372"
     style="opacity:0.1;fill:#ffffff;fill-opacity:1;stroke-width:0.999999;stroke-linejoin:round"
     d="M 1.5 16 L 1.5 21.5 C 1.5 27.5 3.5 29.5 9.5 29.5 L 22.5 29.5 C 28.5 29.5 30.5 27.5 30.5 21.5 L 30.5 16 L 1.5 16 z "
     transform="scale(0.26458333)" />
  <path
     d="m 2.1695834,2.6458334 v 2.6560269 c 0,0.6484578 0.5319986,1.1804563 1.1804563,1.1804563 h 1.7706848 c 0.6484577,0 1.1804563,-0.5319985 1.1804563,-1.1804563 V 3.8262899 c 0,-0.485463 -0.3998797,-0.8853427 -0.8853424,-0.8853427 -0.2267953,0 -0.4328401,0.089645 -0.5902281,0.2321444 C 4.6682185,3.0305939 4.4621774,2.9409472 4.2353821,2.9409472 c -0.4854628,0 -0.8853424,0.3998797 -0.8853424,0.8853427 V 5.3018603 H 3.940268 V 3.8262899 c 0,-0.1664832 0.1286312,-0.2951141 0.2951141,-0.2951141 0.166483,0 0.2951139,0.1286309 0.2951139,0.2951141 V 5.3018603 H 5.1207245 V 3.8262899 c 0,-0.1664832 0.1286309,-0.2951141 0.2951139,-0.2951141 0.1664829,0 0.2951141,0.1286309 0.2951141,0.2951141 v 1.4755704 c 0,0.3294761 -0.2607519,0.5902281 -0.590228,0.5902281 H 3.3500397 c -0.329476,0 -0.5902279,-0.260752 -0.5902279,-0.5902281 V 2.6458334 Z"
     style="color:#000000;font-variant-ligatures:normal;font-variant-position:normal;font-variant-caps:normal;font-variant-numeric:normal;font-variant-alternates:normal;font-feature-settings:normal;text-indent:0;text-decoration-line:none;text-decoration-style:solid;text-decoration-color:#000000;text-transform:none;text-orientation:mixed;dominant-baseline:auto;white-space:normal;shape-padding:0;isolation:auto;mix-blend-mode:normal;solid-color:#000000;fill:#000000;stroke-width:0.0700042;color-rendering:auto;image-rendering:auto;shape-rendering:auto;enable-background:accumulate;opacity:0.1"
     id="path1053" />
  <path
     d="m 2.1695833,2.38125 v 2.6560269 c 0,0.6484578 0.5319985,1.1804563 1.1804564,1.1804563 h 1.7706846 c 0.6484579,0 1.1804563,-0.5319985 1.1804563,-1.1804563 V 3.5617065 c 0,-0.4854629 -0.3998795,-0.8853425 -0.8853422,-0.8853425 -0.2267953,0 -0.4328403,0.089645 -0.5902281,0.2321442 C 4.6682185,2.7660105 4.4621773,2.676364 4.2353819,2.676364 c -0.4854627,0 -0.8853422,0.3998796 -0.8853422,0.8853425 V 5.0372769 H 3.9402678 V 3.5617065 c 0,-0.1664831 0.1286312,-0.2951141 0.2951141,-0.2951141 0.1664831,0 0.2951141,0.128631 0.2951141,0.2951141 V 5.0372769 H 5.1207243 V 3.5617065 c 0,-0.1664831 0.128631,-0.2951141 0.2951141,-0.2951141 0.1664829,0 0.2951141,0.128631 0.2951141,0.2951141 v 1.4755704 c 0,0.3294762 -0.2607519,0.5902281 -0.5902282,0.5902281 H 3.3500397 c -0.3294763,0 -0.5902282,-0.2607519 -0.5902282,-0.5902281 V 2.38125 Z"
     style="color:#000000;font-variant-ligatures:normal;font-variant-position:normal;font-variant-caps:normal;font-variant-numeric:normal;font-variant-alternates:normal;font-feature-settings:normal;text-indent:0;text-decoration-line:none;text-decoration-style:solid;text-decoration-color:#000000;text-transform:none;text-orientation:mixed;dominant-baseline:auto;white-space:normal;shape-padding:0;isolation:auto;mix-blend-mode:normal;solid-color:#000000;fill:#ffffff;stroke-width:0.264583;color-rendering:auto;image-rendering:auto;shape-rendering:auto;enable-background:accumulate"
     id="path882"
     sodipodi:nodetypes="csssssscssccsssccssssssscc" />
  <path
     id="rect13250"
     style="fill:url(#linearGradient16320);fill-opacity:1;stroke-width:0.264583;stroke-linejoin:round;opacity:1"
     d="m 2.6458333,0.79375 c -1.71979143,0 -2.11666664,0.396875 -2.11666664,2.1166666 v 2.6458335 c 0,1.7197919 0.39687515,2.1166666 2.11666664,2.1166666 h 3.175 c 1.7197913,0 2.1166666,-0.3968747 2.1166666,-2.1166666 V 2.9104166 C 7.9374999,1.190625 7.5406249,0.79375 5.8208333,0.79375 Z m 0,0.2645833 h 3.175 c 1.5213541,0 1.8520833,0.3307294 1.8520833,1.8520833 v 2.6458335 c 0,1.5213542 -0.3307292,1.8520833 -1.8520833,1.8520833 h -3.175 c -1.5213541,0 -1.85208331,-0.3307291 -1.85208331,-1.8520833 V 2.9104166 c 0,-1.521354 0.33072921,-1.8520834 1.85208331,-1.8520833 z"
     sodipodi:nodetypes="ssssssssssssssssss" />
  <path
     id="rect2545"
     style="opacity:0.4;fill:#000000;stroke-width:0.387914;stroke-linejoin:round"
     d="m 2.6458333,0.52916667 c -1.91822909,0 -2.38124997,0.4630208 -2.38124997,2.38124993 V 5.55625 c 0,1.8520831 0.52916735,2.38125 2.38124997,2.38125 h 3.175 c 1.8520841,0 2.3812499,-0.5291669 2.3812499,-2.38125 V 2.9104166 c 0,-1.8520832 -0.5291666,-2.38124988 -2.3812499,-2.38124993 z m 0,0.26458333 h 3.175 c 1.7197916,0 2.1166666,0.396875 2.1166666,2.1166666 V 5.55625 c 0,1.7197917 -0.3968753,2.1166666 -2.1166666,2.1166666 h -3.175 c -1.71979162,0 -2.11666664,-0.3968749 -2.11666664,-2.1166666 V 2.9104166 c 0,-1.7197916 0.39687505,-2.1166666 2.11666664,-2.1166666 z"
     sodipodi:nodetypes="ssssssssssssssssss" />
</svg>
