<?xml version="1.0" encoding="UTF-8" standalone="no"?>
<!-- Created with Inkscape (http://www.inkscape.org/) -->

<svg
   width="32"
   height="32"
   viewBox="0 0 8.4666665 8.4666669"
   version="1.1"
   id="svg2719"
   inkscape:version="1.1.2 (0a00cf5339, 2022-02-04)"
   sodipodi:docname="maps.svg"
   xmlns:inkscape="http://www.inkscape.org/namespaces/inkscape"
   xmlns:sodipodi="http://sodipodi.sourceforge.net/DTD/sodipodi-0.dtd"
   xmlns:xlink="http://www.w3.org/1999/xlink"
   xmlns="http://www.w3.org/2000/svg"
   xmlns:svg="http://www.w3.org/2000/svg">
  <sodipodi:namedview
     id="namedview2721"
     pagecolor="#ffffff"
     bordercolor="#666666"
     borderopacity="1.0"
     inkscape:pageshadow="2"
     inkscape:pageopacity="0.0"
     inkscape:pagecheckerboard="0"
     inkscape:document-units="px"
     showgrid="false"
     units="px"
     inkscape:zoom="25.46875"
     inkscape:cx="16"
     inkscape:cy="16"
     inkscape:window-width="1851"
     inkscape:window-height="1016"
     inkscape:window-x="0"
     inkscape:window-y="0"
     inkscape:window-maximized="1"
     inkscape:current-layer="svg2719"
     showguides="false" />
  <defs
     id="defs2716">
    <linearGradient
       inkscape:collect="always"
       id="linearGradient1871">
      <stop
         style="stop-color:#ffffff;stop-opacity:1;"
         offset="0"
         id="stop1867" />
      <stop
         style="stop-color:#ffffff;stop-opacity:0.1"
         offset="0.12"
         id="stop2515" />
      <stop
         style="stop-color:#ffffff;stop-opacity:0.102"
         offset="0.89999998"
         id="stop2581" />
      <stop
         style="stop-color:#ffffff;stop-opacity:0.502"
         offset="1"
         id="stop1869" />
    </linearGradient>
    <linearGradient
       inkscape:collect="always"
       xlink:href="#linearGradient1871"
       id="linearGradient16320"
       x1="10"
       y1="4"
       x2="10"
       y2="29.100245"
       gradientUnits="userSpaceOnUse"
       gradientTransform="matrix(0.26458333,0,0,0.26458333,0,-0.26458332)" />
  </defs>
  <path
     id="rect18683"
     style="opacity:0.1;fill:#000000;stroke-width:0.264583;stroke-linejoin:round"
     d="m 2.38125,0.92604165 c -1.45520832,0 -1.984375,0.52916665 -1.984375,1.98437495 v 3.0427085 c 0,1.5875 0.52916665,2.1166666 2.1166666,2.1166666 h 3.4395833 c 1.5875,0 2.1166667,-0.5291666 2.1166667,-2.1166666 V 3.0427083 c 0,-1.5875 -0.5291667,-2.11666665 -2.1166667,-2.11666665 z"
     sodipodi:nodetypes="sssssssss" />
  <path
     id="rect6397"
     style="fill:#6dc7f1;fill-opacity:1;stroke-width:0.255274;stroke-linejoin:round"
     d="M 0.39687499,2.6458334 C 0.396875,1.190625 0.92604165,0.66145833 2.38125,0.66145834 h 3.571875 c 1.5874999,-1e-8 2.1166666,0.52916666 2.1166668,2.11666666 l 10e-8,2.9104168 c 0,1.5874999 -0.529166,2.1166666 -2.116666,2.1166666 H 2.5135417 c -1.58750001,0 -2.11666671,-0.5291667 -2.11666671,-2.1166667 z"
     sodipodi:nodetypes="ccccccccc" />
  <path
     id="path1001"
     style="color:#000000;fill:#a6d74f;stroke-width:0.999999"
     d="M 9 2.5 C 3.5000001 2.5 1.5 4.4999998 1.5 10 L 1.5 11.828125 L 12.572266 23.111328 L 29.511719 5.2636719 C 28.386999 3.264158 26.207801 2.5 22.5 2.5 L 9 2.5 z "
     transform="scale(0.26458333)" />
  <path
     id="path886"
     style="color:#000000;fill:#f9f9f9;fill-opacity:0.99608;stroke-width:0.999999"
     d="M 1.5 10.480469 L 1.5 14.101562 L 16.710938 29.5 L 20.263672 29.5 L 1.5 10.480469 z "
     transform="scale(0.26458333)" />
  <path
     id="path1244"
     style="color:#000000;fill:#fdc92b;stroke-width:0.999999"
     d="M 29.105469 4.6523438 L 4.8710938 28.806641 C 5.6808862 29.141847 6.6592988 29.344096 7.8261719 29.4375 L 30.195312 7.1386719 C 29.971629 6.1255618 29.617347 5.3051664 29.105469 4.6523438 z "
     transform="scale(0.26458333)" />
  <path
     id="rect1372"
     style="opacity:0.1;fill:#ffffff;fill-opacity:1;stroke-width:0.264583;stroke-linejoin:round"
     d="m 0.396875,4.2333333 v 1.4552083 c 0,1.5875 0.52916666,2.1166666 2.1166666,2.1166666 h 3.4395833 c 1.5875,0 2.1166667,-0.5291666 2.1166667,-2.1166666 V 4.2333333 Z" />
  <path
     id="rect1544"
     style="opacity:0.1;fill:#ffffff;fill-opacity:1;stroke-width:1.085"
     d="M 11 2.5 L 11 29.5 L 21 29.5 L 21 2.5 L 11 2.5 z "
     transform="scale(0.26458333)" />
  <path
     d="m 5.5380731,1.3229352 c -0.7790392,0 -1.4105731,0.631534 -1.4105731,1.4105467 0,0.1546807 0.026194,0.3031066 0.072125,0.4423569 0.00476,0.014155 0.00847,0.028673 0.013494,0.042632 0.035904,0.1188878 0.5625307,1.8467122 1.3264357,3.3961916 1.587e-4,0 0,-1.402e-4 0,-2.646e-4 2.645e-4,-1.402e-4 0,-5.292e-4 0,-7.937e-4 2.645e-4,-2.646e-4 0,-5.292e-4 0,-7.938e-4 2.645e-4,-2.117e-4 0,-5.292e-4 0,-5.292e-4 C 6.355715,4.9200594 6.8745099,3.1758731 6.8745099,3.1758731 H 6.8742454 C 6.9202035,3.0366891 6.9454183,2.8880859 6.9454183,2.7334898 6.9454447,1.9544507 6.3139108,1.3229167 5.5348716,1.3229167 Z"
     style="color:#000000;opacity:0.05;fill:#000000;stroke-width:0.264583"
     id="path1397"
     sodipodi:nodetypes="cscccccccccccc" />
  <path
     d="m 5.5380731,1.5875185 c -0.7790391,0 -1.4105731,0.631534 -1.4105731,1.4105467 0,0.1546807 0.026194,0.3031066 0.072125,0.4423568 0.00476,0.014155 0.00847,0.028673 0.013494,0.042632 0.035904,0.1188879 0.5625309,1.8467123 1.3264359,3.3961917 1.585e-4,0 0,-1.402e-4 0,-2.646e-4 2.644e-4,-1.402e-4 0,-5.292e-4 0,-7.937e-4 2.644e-4,-2.646e-4 0,-5.292e-4 0,-7.938e-4 2.644e-4,-2.117e-4 0,-5.292e-4 0,-5.292e-4 0.8161605,-1.6922217 1.3349555,-3.436408 1.3349555,-3.436408 h -2.65e-4 C 6.9202036,3.3012724 6.9454183,3.1526691 6.9454183,2.9980731 6.9454448,2.219034 6.3139108,1.5875 5.5348717,1.5875 Z"
     style="color:#000000;opacity:1;fill:#f22c42;fill-opacity:1;stroke-width:0.0700042"
     id="path1773" />
  <circle
     style="opacity:1;fill:#bc1937;fill-opacity:1;stroke-width:0.239227"
     id="path2106"
     cx="5.5562501"
     cy="3.0427084"
     r="0.66145831" />
  <path
     id="rect13250"
     style="fill:url(#linearGradient16320);fill-opacity:1;stroke-width:0.264583;stroke-linejoin:round;opacity:0.7"
     d="m 2.6458333,0.79375 c -1.71979143,0 -2.11666664,0.396875 -2.11666664,2.1166666 v 2.6458335 c 0,1.7197919 0.39687515,2.1166666 2.11666664,2.1166666 h 3.175 c 1.7197913,0 2.1166666,-0.3968747 2.1166666,-2.1166666 V 2.9104166 C 7.9374999,1.190625 7.5406249,0.79375 5.8208333,0.79375 Z m 0,0.2645833 h 3.175 c 1.5213541,0 1.8520833,0.3307294 1.8520833,1.8520833 v 2.6458335 c 0,1.5213542 -0.3307292,1.8520833 -1.8520833,1.8520833 h -3.175 c -1.5213541,0 -1.85208331,-0.3307291 -1.85208331,-1.8520833 V 2.9104166 c 0,-1.521354 0.33072921,-1.8520834 1.85208331,-1.8520833 z"
     sodipodi:nodetypes="ssssssssssssssssss" />
  <path
     id="rect2545"
     style="opacity:0.4;fill:#000000;stroke-width:0.387914;stroke-linejoin:round"
     d="m 2.6458333,0.52916667 c -1.91822909,0 -2.38124997,0.4630208 -2.38124997,2.38124993 V 5.55625 c 0,1.8520831 0.52916735,2.38125 2.38124997,2.38125 h 3.175 c 1.8520841,0 2.3812499,-0.5291669 2.3812499,-2.38125 V 2.9104166 c 0,-1.8520832 -0.5291666,-2.38124988 -2.3812499,-2.38124993 z m 0,0.26458333 h 3.175 c 1.7197916,0 2.1166666,0.396875 2.1166666,2.1166666 V 5.55625 c 0,1.7197917 -0.3968753,2.1166666 -2.1166666,2.1166666 h -3.175 c -1.71979162,0 -2.11666664,-0.3968749 -2.11666664,-2.1166666 V 2.9104166 c 0,-1.7197916 0.39687505,-2.1166666 2.11666664,-2.1166666 z"
     sodipodi:nodetypes="ssssssssssssssssss" />
</svg>
