<?xml version="1.0" encoding="UTF-8" standalone="no"?>
<!-- Created with Inkscape (http://www.inkscape.org/) -->

<svg
   width="32"
   height="32"
   viewBox="0 0 8.4666665 8.4666669"
   version="1.1"
   id="svg2719"
   inkscape:version="1.1.2 (0a00cf5339, 2022-02-04)"
   sodipodi:docname="microsoft-edge-beta.svg"
   xmlns:inkscape="http://www.inkscape.org/namespaces/inkscape"
   xmlns:sodipodi="http://sodipodi.sourceforge.net/DTD/sodipodi-0.dtd"
   xmlns:xlink="http://www.w3.org/1999/xlink"
   xmlns="http://www.w3.org/2000/svg"
   xmlns:svg="http://www.w3.org/2000/svg">
  <sodipodi:namedview
     id="namedview2721"
     pagecolor="#ffffff"
     bordercolor="#666666"
     borderopacity="1.0"
     inkscape:pageshadow="2"
     inkscape:pageopacity="0.0"
     inkscape:pagecheckerboard="0"
     inkscape:document-units="px"
     showgrid="false"
     units="px"
     inkscape:zoom="25.90625"
     inkscape:cx="16"
     inkscape:cy="16"
     inkscape:window-width="1920"
     inkscape:window-height="1019"
     inkscape:window-x="0"
     inkscape:window-y="0"
     inkscape:window-maximized="1"
     inkscape:current-layer="svg2719" />
  <defs
     id="defs2716">
    <linearGradient
       inkscape:collect="always"
       id="linearGradient1871">
      <stop
         style="stop-color:#ffffff;stop-opacity:1;"
         offset="0"
         id="stop1867" />
      <stop
         style="stop-color:#ffffff;stop-opacity:0.1"
         offset="0.12"
         id="stop2515" />
      <stop
         style="stop-color:#ffffff;stop-opacity:0.102"
         offset="0.89999998"
         id="stop2581" />
      <stop
         style="stop-color:#ffffff;stop-opacity:0.502"
         offset="1"
         id="stop1869" />
    </linearGradient>
    <linearGradient
       inkscape:collect="always"
       xlink:href="#linearGradient1871"
       id="linearGradient16320"
       x1="10"
       y1="4"
       x2="10"
       y2="29.100245"
       gradientUnits="userSpaceOnUse"
       gradientTransform="matrix(0.26458333,0,0,0.26458333,0,-0.26458332)" />
    <linearGradient
       id="linear-gradient"
       x1="63.330002"
       y1="84.029999"
       x2="241.67"
       y2="84.029999"
       gradientTransform="matrix(0.26458333,0,0,-0.26458333,-30.855179,42.134199)"
       gradientUnits="userSpaceOnUse">
      <stop
         offset="0"
         stop-color="#0c59a4"
         id="stop4" />
      <stop
         offset="1"
         stop-color="#114a8b"
         id="stop6" />
    </linearGradient>
    <radialGradient
       id="radial-gradient"
       cx="161.83"
       cy="68.910004"
       r="95.379997"
       gradientTransform="matrix(0.26458333,0,0,-0.25135416,-30.855179,37.593949)"
       gradientUnits="userSpaceOnUse">
      <stop
         offset="0.72"
         stop-opacity="0"
         id="stop9" />
      <stop
         offset="0.95"
         stop-opacity="0.53"
         id="stop11" />
      <stop
         offset="1"
         id="stop13" />
    </radialGradient>
    <linearGradient
       id="linear-gradient-2"
       x1="157.35001"
       y1="161.39"
       x2="45.959999"
       y2="40.060001"
       gradientTransform="matrix(0.26458333,0,0,-0.26458333,-30.855179,42.134199)"
       gradientUnits="userSpaceOnUse">
      <stop
         offset="0"
         stop-color="#1b9de2"
         id="stop16" />
      <stop
         offset="0.16"
         stop-color="#1595df"
         id="stop18" />
      <stop
         offset="0.67"
         stop-color="#0680d7"
         id="stop20" />
      <stop
         offset="1"
         stop-color="#0078d4"
         id="stop22" />
    </linearGradient>
    <radialGradient
       id="radial-gradient-2"
       cx="-340.29001"
       cy="62.990002"
       r="143.24001"
       gradientTransform="matrix(0.0396875,-0.2619375,-0.21166666,-0.03175,15.88082,-61.423717)"
       gradientUnits="userSpaceOnUse">
      <stop
         offset="0.76"
         stop-opacity="0"
         id="stop25" />
      <stop
         offset="0.95"
         stop-opacity="0.5"
         id="stop27" />
      <stop
         offset="1"
         id="stop29" />
    </radialGradient>
    <radialGradient
       id="radial-gradient-3"
       cx="113.37"
       cy="570.21002"
       r="202.42999"
       gradientTransform="matrix(-0.01058333,0.26458333,0.56356249,0.02116667,-342.9418,-56.473362)"
       gradientUnits="userSpaceOnUse">
      <stop
         offset="0"
         stop-color="#35c1f1"
         id="stop32" />
      <stop
         offset="0.11"
         stop-color="#34c1ed"
         id="stop34" />
      <stop
         offset="0.23"
         stop-color="#2fc2df"
         id="stop36" />
      <stop
         offset="0.31"
         stop-color="#2bc3d2"
         id="stop38" />
      <stop
         offset="0.67"
         stop-color="#36c752"
         id="stop40" />
    </radialGradient>
    <radialGradient
       id="radial-gradient-4"
       cx="376.51999"
       cy="567.96997"
       r="97.339996"
       gradientTransform="matrix(0.07408333,0.254,0.206375,-0.06085417,-111.22501,-67.535592)"
       gradientUnits="userSpaceOnUse">
      <stop
         offset="0"
         stop-color="#66eb6e"
         id="stop43" />
      <stop
         offset="1"
         stop-color="#66eb6e"
         stop-opacity="0"
         id="stop45" />
    </radialGradient>
  </defs>
  <path
     id="rect18683"
     style="opacity:0.1;fill:#000000;stroke-width:0.264583;stroke-linejoin:round"
     d="m 2.38125,0.92604165 c -1.45520832,0 -1.984375,0.52916665 -1.984375,1.98437495 v 3.0427085 c 0,1.5875 0.52916665,2.1166666 2.1166666,2.1166666 h 3.4395833 c 1.5875,0 2.1166667,-0.5291666 2.1166667,-2.1166666 V 3.0427083 c 0,-1.5875 -0.5291667,-2.11666665 -2.1166667,-2.11666665 z"
     sodipodi:nodetypes="sssssssss" />
  <path
     id="rect6397"
     style="fill:#ffffff;fill-opacity:1;stroke-width:0.255274;stroke-linejoin:round"
     d="M 0.39687499,2.6458334 C 0.396875,1.190625 0.92604165,0.66145833 2.38125,0.66145834 h 3.571875 c 1.5874999,-1e-8 2.1166666,0.52916666 2.1166668,2.11666666 l 10e-8,2.9104168 c 0,1.5874999 -0.529166,2.1166666 -2.116666,2.1166666 H 2.5135417 c -1.58750001,0 -2.11666671,-0.5291667 -2.11666671,-2.1166667 z"
     sodipodi:nodetypes="ccccccccc" />
  <g
     id="g1009"
     transform="matrix(0.08593213,0,0,0.08593213,3.869554,3.6382047)">
    <path
       class="cls-1"
       d="m 31.50182,23.470491 a 24.799396,24.799396 0 0 1 -2.788708,1.246187 26.953104,26.953104 0 0 1 -9.498542,1.709208 c -12.5200828,0 -23.4262077,-8.612187 -23.4262077,-19.6638326 A 8.3290832,8.3290832 0 0 1 0.13546644,-0.46371735 C -11.1887,0.01253264 -14.099117,11.812949 -14.099117,18.726512 c 0,19.547416 18.0154792,21.529145 21.8969167,21.529145 2.0928541,0 5.2493333,-0.608542 7.1437503,-1.2065 l 0.346604,-0.116417 a 33.956625,33.956625 0 0 0 17.62125,-13.969999 1.0583333,1.0583333 0 0 0 -1.407584,-1.49225 z"
       id="path52"
       style="fill:url(#linear-gradient);stroke-width:0.264583" />
    <path
       class="cls-2"
       d="m 31.50182,23.470491 a 24.799396,24.799396 0 0 1 -2.788708,1.246187 26.953104,26.953104 0 0 1 -9.498542,1.709208 c -12.5200828,0 -23.4262077,-8.612187 -23.4262077,-19.6638326 A 8.3290832,8.3290832 0 0 1 0.13546644,-0.46371735 C -11.1887,0.01253264 -14.099117,11.812949 -14.099117,18.726512 c 0,19.547416 18.0154792,21.529145 21.8969167,21.529145 2.0928541,0 5.2493333,-0.608542 7.1437503,-1.2065 l 0.346604,-0.116417 a 33.956625,33.956625 0 0 0 17.62125,-13.969999 1.0583333,1.0583333 0 0 0 -1.407584,-1.49225 z"
       id="path54"
       style="opacity:0.35;isolation:isolate;fill:url(#radial-gradient);stroke-width:0.264583" />
    <path
       class="cls-3"
       d="M -1.6610544,36.932491 A 20.955,20.955 0 0 1 -7.6776793,31.286282 21.357166,21.357166 0 0 1 0.13546644,-0.46371735 C 0.96096643,-0.85265485 2.3711956,-1.5564465 4.2470914,-1.5220507 a 8.5592707,8.5592707 0 0 1 6.7971456,3.4395833 8.4349166,8.4349166 0 0 1 1.68275,4.937125 c 0,-0.055563 6.471708,-21.0608336 -21.1666663,-21.0608336 -11.6152077,0 -21.1666667,11.022542 -21.1666667,20.6930627 A 34.43552,34.43552 0 0 0 -26.402242,21.303553 33.866666,33.866666 0 0 0 14.9733,39.05974 19.989271,19.989271 0 0 1 -1.6372419,36.943074 Z"
       id="path56"
       style="fill:url(#linear-gradient-2);stroke-width:0.264583" />
    <path
       class="cls-4"
       d="M -1.6610544,36.932491 A 20.955,20.955 0 0 1 -7.6776793,31.286282 21.357166,21.357166 0 0 1 0.13546644,-0.46371735 C 0.96096643,-0.85265485 2.3711956,-1.5564465 4.2470914,-1.5220507 a 8.5592707,8.5592707 0 0 1 6.7971456,3.4395833 8.4349166,8.4349166 0 0 1 1.68275,4.937125 c 0,-0.055563 6.471708,-21.0608336 -21.1666663,-21.0608336 -11.6152077,0 -21.1666667,11.022542 -21.1666667,20.6930627 A 34.43552,34.43552 0 0 0 -26.402242,21.303553 33.866666,33.866666 0 0 0 14.9733,39.05974 19.989271,19.989271 0 0 1 -1.6372419,36.943074 Z"
       id="path58"
       style="opacity:0.41;isolation:isolate;fill:url(#radial-gradient-2);stroke-width:0.264583" />
    <path
       class="cls-5"
       d="m 10.668529,12.442657 c -0.214313,0.277813 -0.8731252,0.661459 -0.8731252,1.497542 0,0.690563 0.4497912,1.354667 1.2488332,1.912938 3.804708,2.645833 10.977563,2.296583 10.996083,2.296583 a 15.758583,15.758583 0 0 0 8.008938,-2.209271 16.240125,16.240125 0 0 0 8.05127,-13.9911664 C 38.16932,-3.9800298 35.983862,-7.9223214 35.100154,-9.6685714 29.493633,-20.63555 17.391591,-26.943217 4.2312164,-26.943217 A 33.866666,33.866666 0 0 0 -29.63545,6.4471992 c 0.127,-9.6678748 9.736667,-17.4757292 21.1666666,-17.4757292 0.9260416,0 6.2071249,0.08996 11.1124998,2.6643544 4.3232916,2.270125 6.5881249,5.0112083 8.1623956,7.72847909 1.635125,2.82310411 1.926167,6.38968741 1.926167,7.81049991 0,1.4208125 -0.724959,3.5268956 -2.06375,5.2678536 z"
       id="path60"
       style="fill:url(#radial-gradient-3);stroke-width:0.264583" />
    <path
       class="cls-6"
       d="m 10.668529,12.442657 c -0.214313,0.277813 -0.8731252,0.661459 -0.8731252,1.497542 0,0.690563 0.4497912,1.354667 1.2488332,1.912938 3.804708,2.645833 10.977563,2.296583 10.996083,2.296583 2.819205,-0.0068 5.584973,-0.769705 8.008938,-2.209271 4.975669,-2.905276 8.039465,-8.2294146 8.05127,-13.9911664 0.06879,-5.9293124 -2.116666,-9.871604 -3.000374,-11.617854 C 29.493633,-20.63555 17.391591,-26.943217 4.2312164,-26.943217 -14.288407,-26.945048 -29.375018,-12.070593 -29.63545,6.4471992 c 0.127,-9.6678748 9.736667,-17.4757292 21.1666666,-17.4757292 0.9260416,0 6.2071249,0.08996 11.1124998,2.6643544 4.3232916,2.270125 6.5881249,5.0112083 8.1623956,7.72847909 1.635125,2.82310411 1.926167,6.38968741 1.926167,7.81049991 0,1.4208125 -0.724959,3.5268956 -2.06375,5.2678536 z"
       id="path62"
       sodipodi:nodetypes="cscccccccsccsc"
       style="fill:url(#radial-gradient-4);stroke-width:0.264583" />
  </g>
  <g
     id="g949"
     transform="matrix(0.66666664,0,0,0.66666664,-0.08819434,-0.08828238)">
    <path
       id="rect13902"
       style="fill:#50e6ff;fill-opacity:1;stroke-width:0.264583;stroke-linejoin:round"
       d="m 4.8947917,8.2020833 h 5.5562503 c 0.219869,0 0.396875,0.177005 0.396875,0.396875 v 1.8520827 c 0,0.219869 -0.177006,0.396875 -0.396875,0.396875 H 4.8947917 c -0.219869,0 -0.396875,-0.177006 -0.396875,-0.396875 V 8.5989583 c 0,-0.21987 0.177006,-0.396875 0.396875,-0.396875 z" />
    <path
       d="m 5.3710417,8.7973953 v 1.4552087 h 0.558848 c 0.165073,0 0.295413,-0.03873 0.390803,-0.11653 0.09539,-0.07848 0.143176,-0.1843414 0.143176,-0.3176174 0,-0.09133 -0.0312,-0.1687564 -0.09344,-0.2323504 -0.06156,-0.06359 -0.144118,-0.101898 -0.247626,-0.114753 v -0.0043 c 0.08254,-0.023 0.150093,-0.06371 0.202862,-0.122571 0.05345,-0.05886 0.08029,-0.127583 0.08029,-0.206059 0,-0.108245 -0.04347,-0.192001 -0.130741,-0.2515359 -0.08727,-0.05954 -0.212094,-0.08953 -0.37446,-0.08953 z m 1.332283,0 v 1.4552087 h 0.872557 V 9.9868576 H 7.0312437 V 9.6539642 h 0.475714 v -0.265746 h -0.475714 v -0.324011 h 0.511242 V 8.7973953 Z m 0.989442,0 v 0.2668119 h 0.41283 v 1.1883968 h 0.328986 V 9.0642072 h 0.414962 V 8.7973953 Z m 1.580977,0 -0.529716,1.4552087 h 0.355275 l 0.102319,-0.3236564 h 0.517637 l 0.103386,0.3236564 H 10.180051 L 9.6624147,8.7973953 Z m -3.575138,0.2415869 h 0.122925 c 0.159661,0 0.239456,0.05334 0.239456,0.160229 0,0.0575 -0.01974,0.10292 -0.05898,0.136071 -0.03856,0.03247 -0.09151,0.04868 -0.159164,0.04868 h -0.144241 z m 3.756683,0.01812 h 0.0082 c 0.0047,0.05074 0.01301,0.09456 0.02452,0.131096 l 0.156322,0.489215 h -0.37272 l 0.158453,-0.493478 c 0.01352,-0.04194 0.02184,-0.08421 0.02523,-0.126833 z m -3.756683,0.570573 h 0.179769 c 0.07577,0 0.134627,0.01659 0.176572,0.04974 0.04262,0.03315 0.06395,0.0786 0.06395,0.1367814 0,0.06088 -0.02172,0.10906 -0.06502,0.144241 -0.04262,0.03518 -0.101866,0.05258 -0.177637,0.05258 h -0.177638 z"
       style="font-weight:bold;font-size:3.02297px;line-height:1.25;font-family:'Segoe UI';-inkscape-font-specification:'Segoe UI Bold';stroke-width:0.0519573"
       id="path14212" />
  </g>
  <path
     id="rect13250"
     style="opacity:0.4;fill:url(#linearGradient16320);fill-opacity:1;stroke-width:0.264583;stroke-linejoin:round"
     d="m 2.6458333,0.79375 c -1.71979143,0 -2.11666664,0.396875 -2.11666664,2.1166666 v 2.6458335 c 0,1.7197919 0.39687515,2.1166666 2.11666664,2.1166666 h 3.175 c 1.7197913,0 2.1166666,-0.3968747 2.1166666,-2.1166666 V 2.9104166 C 7.9374999,1.190625 7.5406249,0.79375 5.8208333,0.79375 Z m 0,0.2645833 h 3.175 c 1.5213541,0 1.8520833,0.3307294 1.8520833,1.8520833 v 2.6458335 c 0,1.5213542 -0.3307292,1.8520833 -1.8520833,1.8520833 h -3.175 c -1.5213541,0 -1.85208331,-0.3307291 -1.85208331,-1.8520833 V 2.9104166 c 0,-1.521354 0.33072921,-1.8520834 1.85208331,-1.8520833 z"
     sodipodi:nodetypes="ssssssssssssssssss" />
  <path
     id="rect2545"
     style="opacity:0.4;fill:#000000;stroke-width:0.387914;stroke-linejoin:round"
     d="m 2.6458333,0.52916667 c -1.91822909,0 -2.38124997,0.4630208 -2.38124997,2.38124993 V 5.55625 c 0,1.8520831 0.52916735,2.38125 2.38124997,2.38125 h 3.175 c 1.8520841,0 2.3812499,-0.5291669 2.3812499,-2.38125 V 2.9104166 c 0,-1.8520832 -0.5291666,-2.38124988 -2.3812499,-2.38124993 z m 0,0.26458333 h 3.175 c 1.7197916,0 2.1166666,0.396875 2.1166666,2.1166666 V 5.55625 c 0,1.7197917 -0.3968753,2.1166666 -2.1166666,2.1166666 h -3.175 c -1.71979162,0 -2.11666664,-0.3968749 -2.11666664,-2.1166666 V 2.9104166 c 0,-1.7197916 0.39687505,-2.1166666 2.11666664,-2.1166666 z"
     sodipodi:nodetypes="ssssssssssssssssss" />
</svg>
