<?xml version="1.0" encoding="UTF-8" standalone="no"?>
<!-- Created with Inkscape (http://www.inkscape.org/) -->

<svg
   width="32"
   height="32"
   viewBox="0 0 8.4666665 8.4666669"
   version="1.1"
   id="svg2719"
   inkscape:version="1.1.2 (0a00cf5339, 2022-02-04)"
   sodipodi:docname="office-calendar.svg"
   xmlns:inkscape="http://www.inkscape.org/namespaces/inkscape"
   xmlns:sodipodi="http://sodipodi.sourceforge.net/DTD/sodipodi-0.dtd"
   xmlns:xlink="http://www.w3.org/1999/xlink"
   xmlns="http://www.w3.org/2000/svg"
   xmlns:svg="http://www.w3.org/2000/svg">
  <sodipodi:namedview
     id="namedview2721"
     pagecolor="#ffffff"
     bordercolor="#666666"
     borderopacity="1.0"
     inkscape:pageshadow="2"
     inkscape:pageopacity="0.0"
     inkscape:pagecheckerboard="0"
     inkscape:document-units="px"
     showgrid="false"
     units="px"
     inkscape:zoom="17.500893"
     inkscape:cx="11.970818"
     inkscape:cy="15.313504"
     inkscape:window-width="1920"
     inkscape:window-height="1010"
     inkscape:window-x="0"
     inkscape:window-y="0"
     inkscape:window-maximized="1"
     inkscape:current-layer="svg2719" />
  <defs
     id="defs2716">
    <linearGradient
       inkscape:collect="always"
       id="linearGradient2610">
      <stop
         style="stop-color:#5bdbc1;stop-opacity:1"
         offset="0"
         id="stop2606" />
      <stop
         style="stop-color:#2b898f;stop-opacity:1"
         offset="1"
         id="stop2608" />
    </linearGradient>
    <linearGradient
       inkscape:collect="always"
       id="linearGradient1871">
      <stop
         style="stop-color:#ffffff;stop-opacity:1;"
         offset="0"
         id="stop1867" />
      <stop
         style="stop-color:#ffffff;stop-opacity:0.1"
         offset="0.12"
         id="stop2515" />
      <stop
         style="stop-color:#ffffff;stop-opacity:0.102"
         offset="0.89999998"
         id="stop2581" />
      <stop
         style="stop-color:#ffffff;stop-opacity:0.502"
         offset="1"
         id="stop1869" />
    </linearGradient>
    <linearGradient
       inkscape:collect="always"
       xlink:href="#linearGradient1871"
       id="linearGradient16320"
       x1="10"
       y1="4"
       x2="10"
       y2="29.100245"
       gradientUnits="userSpaceOnUse"
       gradientTransform="matrix(0.26458333,0,0,0.26458333,0,-0.26458332)" />
    <linearGradient
       inkscape:collect="always"
       xlink:href="#linearGradient2610"
       id="linearGradient2612"
       x1="4.442916e-16"
       y1="8.4666672"
       x2="4.4408921e-16"
       y2="5.5511151e-17"
       gradientUnits="userSpaceOnUse" />
    <linearGradient
       inkscape:collect="always"
       xlink:href="#linearGradient1576"
       id="linearGradient1578"
       x1="1.0583333"
       y1="7.5406246"
       x2="1.0583333"
       y2="4.8947916"
       gradientUnits="userSpaceOnUse"
       gradientTransform="matrix(0.50000001,0,0,0.50000001,0.26458337,1.2567708)" />
    <linearGradient
       inkscape:collect="always"
       id="linearGradient1576">
      <stop
         style="stop-color:#d9d9d9;stop-opacity:1;"
         offset="0"
         id="stop1572" />
      <stop
         style="stop-color:#ececec;stop-opacity:1"
         offset="1"
         id="stop1574" />
    </linearGradient>
  </defs>
  <path
     id="rect18683"
     style="opacity:0.1;fill:#000000;stroke-width:0.264583;stroke-linejoin:round"
     d="m 2.38125,0.92604165 c -1.45520832,0 -1.984375,0.52916665 -1.984375,1.98437495 v 3.0427085 c 0,1.5875 0.52916665,2.1166666 2.1166666,2.1166666 h 3.4395833 c 1.5875,0 2.1166667,-0.5291666 2.1166667,-2.1166666 V 3.0427083 c 0,-1.5875 -0.5291667,-2.11666665 -2.1166667,-2.11666665 z"
     sodipodi:nodetypes="sssssssss" />
  <path
     id="rect6397"
     style="fill:url(#linearGradient2612);fill-opacity:1;stroke-width:0.255274;stroke-linejoin:round"
     d="M 0.39687499,2.6458334 C 0.396875,1.190625 0.92604165,0.66145833 2.38125,0.66145834 h 3.571875 c 1.5874999,-1e-8 2.1166666,0.52916666 2.1166668,2.11666666 l 10e-8,2.9104168 c 0,1.5874999 -0.529166,2.1166666 -2.116666,2.1166666 H 2.5135417 c -1.58750001,0 -2.11666671,-0.5291667 -2.11666671,-2.1166667 z"
     sodipodi:nodetypes="ccccccccc" />
  <path
     id="rect1358"
     style="fill:url(#linearGradient1578);fill-opacity:1;stroke-width:0.132291;stroke-linejoin:round"
     d="m 0.52916667,3.7041667 v 1.3229167 h 0.2645834 V 3.7041667 Z m 7.14375013,0 v 1.3229167 h 0.264583 V 3.7041667 Z"
     sodipodi:nodetypes="cccccccccc" />
  <path
     d="m 2.7554765,2.5400317 c -0.1123394,0 -0.2168631,0.014023 -0.3136106,0.042108 -0.096748,0.028086 -0.1841527,0.062423 -0.2621677,0.1029891 -0.078012,0.040569 -0.145116,0.084214 -0.2012871,0.1310217 -0.056168,0.043688 -0.098242,0.081169 -0.1263279,0.1123765 l 0.2152412,0.308901 c 0.021855,-0.018733 0.053099,-0.045262 0.093665,-0.079589 0.040569,-0.037447 0.090503,-0.071721 0.1497939,-0.1029282 0.05929,-0.034324 0.1263914,-0.063947 0.201287,-0.088911 0.074893,-0.024977 0.1575303,-0.037478 0.2480257,-0.037478 0.074893,0 0.1451399,0.010927 0.2106719,0.032784 0.068651,0.018733 0.1279578,0.049919 0.1778846,0.093604 0.04993,0.043688 0.088921,0.098277 0.1170067,0.1638088 0.031205,0.065532 0.046802,0.1451478 0.046802,0.2387653 0,0.087376 -0.017171,0.1700768 -0.051493,0.2480892 -0.031208,0.078015 -0.074853,0.1544267 -0.1310217,0.2293197 -0.053052,0.071774 -0.1154986,0.1451001 -0.1872721,0.2199957 -0.025109,0.026247 -0.051514,0.05293 -0.077859,0.079587 h 0.539512 C 3.4479308,4.1829884 3.4891343,4.1315481 3.5277529,4.0800549 3.6026485,3.9770764 3.6619522,3.8740635 3.7056402,3.7710744 3.7524472,3.6649765 3.7759052,3.555738 3.7759052,3.443388 c 0,-0.2870994 -0.085844,-0.508635 -0.257474,-0.6646863 C 3.3499212,2.6195549 3.095601,2.54 2.7554527,2.54 Z m 2.7966458,0 c -0.1497859,0 -0.2855119,0.024977 -0.4071937,0.074896 C 5.0232282,2.6617347 4.9187045,2.7256929 4.8313179,2.8068274 4.7470639,2.8879614 4.681532,2.9831139 4.6347246,3.0923392 4.5879176,3.1984398 4.5645196,3.3107607 4.5645196,3.429339 c 0,0.3401483 0.1528842,0.5976144 0.4587082,0.7723717 -0.017171,0.010451 -0.034126,0.021431 -0.05094,0.032784 H 6.1420901 C 6.1135281,4.2182497 6.0841461,4.2024777 6.0529941,4.1876927 6.1154041,4.1471267 6.1747077,4.1003357 6.2308788,4.0472863 6.2901688,3.9942373 6.3416757,3.9333594 6.3853637,3.8647079 6.4321707,3.7960569 6.4680197,3.7227272 6.492983,3.6447122 6.521069,3.5635772 6.535155,3.4777363 6.535155,3.3872382 6.535155,3.2936232 6.516422,3.196897 6.478968,3.0970432 6.4446413,2.9971841 6.3869092,2.9066886 6.3057747,2.8255542 6.2277597,2.7413002 6.126321,2.672625 6.0015039,2.619576 5.8766867,2.5665271 5.7268664,2.5400502 5.5521355,2.5400502 Z m 0,0.3604154 c 0.099859,0 0.1841288,0.017172 0.2527829,0.051493 0.068651,0.031205 0.1248728,0.071771 0.1685608,0.1216978 0.043688,0.04681 0.074882,0.098317 0.093604,0.1544849 0.021854,0.056171 0.032787,0.1076775 0.032787,0.1544849 0,0.1685105 -0.039053,0.3058054 -0.1170675,0.4119033 C 5.9047748,3.8974897 5.8002538,3.9879851 5.6691793,4.0660002 5.5505983,4.0379147 5.4476489,4.0004338 5.3602782,3.9536264 5.2760217,3.9068163 5.2073491,3.8538017 5.1542975,3.7945112 5.1012485,3.7352181 5.0622569,3.6711995 5.0372934,3.6025481 5.0123167,3.533894 4.9998125,3.4652823 4.9998125,3.3966282 c 0,-0.056168 0.00937,-0.1123289 0.028096,-0.1684999 0.021855,-0.05929 0.054607,-0.1123686 0.098295,-0.159176 0.043688,-0.04993 0.099848,-0.090493 0.1684999,-0.1216977 0.071773,-0.031208 0.1575567,-0.046802 0.2574131,-0.046802 z"
     style="fill:#ececec;stroke-width:0.264583;enable-background:new"
     id="path925" />
  <path
     d="M 2.8652521,4.2344948 C 2.8195798,4.2807069 2.7722432,4.3274773 2.7228084,4.374933 2.6291908,4.4685505 2.5340096,4.5652742 2.43727,4.665128 2.340533,4.764987 2.2531782,4.8710823 2.1751631,4.9834217 2.0971507,5.0957612 2.0331613,5.2159111 1.9832317,5.3438636 1.9364243,5.4686861 1.9130272,5.6044305 1.9130272,5.7511103 v 0.051496 c 0,0.018732 0.00159,0.037433 0.00468,0.056155 H 3.883644 V 5.4889796 H 2.3904414 c 0,-0.053049 0.020294,-0.1154668 0.060849,-0.1872403 0.043688,-0.071771 0.096734,-0.1466427 0.1591467,-0.2246551 0.06241,-0.078015 0.127942,-0.1529159 0.1965935,-0.2246894 L 2.9942709,4.6651544 c 0.093615,-0.093615 0.1872271,-0.1887987 0.2808552,-0.2855383 0.045339,-0.048363 0.088371,-0.09674 0.129323,-0.1451001 z m 2.1070358,0 c -0.05347,0.036076 -0.105148,0.076586 -0.1550088,0.1216977 -0.06241,0.056171 -0.1185703,0.1201606 -0.1684998,0.1919341 -0.046807,0.071773 -0.085831,0.1497859 -0.1170358,0.2340425 -0.028086,0.081134 -0.042111,0.1669467 -0.042111,0.2574422 0,0.093617 0.017145,0.1934554 0.051464,0.2995612 0.034327,0.1029785 0.092059,0.1981624 0.1731936,0.2855384 0.081135,0.087373 0.1888014,0.1607026 0.3229769,0.2199931 0.1373055,0.056171 0.3073929,0.084251 0.5102225,0.084251 0.1747519,0 0.3291945,-0.023389 0.4633912,-0.070205 C 6.1450641,5.8150653 6.2558452,5.7526475 6.3432238,5.671513 6.4337193,5.5872564 6.5008229,5.4905327 6.5445082,5.381318 6.5913183,5.2689786 6.6147128,5.1472861 6.6147128,5.0162195 6.6089978,4.6707001 6.4516421,4.4101649 6.1428284,4.234508 Z m 0.3973248,0.107651 c 0.1248225,0.028085 0.2356035,0.062423 0.3323431,0.1029917 0.099859,0.037446 0.1841289,0.084235 0.252783,0.1404065 0.071771,0.056168 0.1263597,0.1217321 0.1638061,0.1966251 0.037447,0.074893 0.056187,0.1622477 0.056187,0.2621041 0,0.065532 -0.012488,0.1295215 -0.037446,0.1919314 -0.024977,0.062413 -0.062415,0.1185731 -0.1123447,0.1685026 -0.04993,0.046807 -0.1154589,0.085799 -0.1965934,0.117004 -0.078015,0.031205 -0.1700847,0.046834 -0.2761721,0.046834 -0.1185809,0 -0.2168789,-0.017171 -0.2949046,-0.051496 C 5.1792556,5.4827249 5.1152979,5.4405873 5.0653684,5.3906604 5.0154388,5.3376088 4.9795613,5.2814484 4.9577173,5.2221579 4.9389848,5.159748 4.9296239,5.1004443 4.9296239,5.0442732 c 0,-0.1591495 0.037449,-0.2964391 0.1123447,-0.4119033 C 5.1199806,4.516911 5.2291878,4.4201556 5.3696021,4.3421485 Z"
     style="fill:#f9f9f9;stroke-width:0.264583;enable-background:new"
     id="path1045" />
  <path
     id="rect1372"
     style="opacity:0.2;fill:#ffffff;fill-opacity:1;stroke-width:0.264583;stroke-linejoin:round"
     d="m 0.396875,4.2333333 v 1.4552083 c 0,1.5875 0.5291666,2.1166667 2.1166665,2.1166667 h 3.4395833 c 1.5874998,0 2.1166665,-0.5291667 2.1166665,-2.1166667 V 4.2333333 Z" />
  <path
     id="rect13250"
     style="fill:url(#linearGradient16320);fill-opacity:1;stroke-width:0.264583;stroke-linejoin:round;opacity:1"
     d="m 2.6458333,0.79375 c -1.71979143,0 -2.11666664,0.396875 -2.11666664,2.1166666 v 2.6458335 c 0,1.7197919 0.39687515,2.1166666 2.11666664,2.1166666 h 3.175 c 1.7197913,0 2.1166666,-0.3968747 2.1166666,-2.1166666 V 2.9104166 C 7.9374999,1.190625 7.5406249,0.79375 5.8208333,0.79375 Z m 0,0.2645833 h 3.175 c 1.5213541,0 1.8520833,0.3307294 1.8520833,1.8520833 v 2.6458335 c 0,1.5213542 -0.3307292,1.8520833 -1.8520833,1.8520833 h -3.175 c -1.5213541,0 -1.85208331,-0.3307291 -1.85208331,-1.8520833 V 2.9104166 c 0,-1.521354 0.33072921,-1.8520834 1.85208331,-1.8520833 z"
     sodipodi:nodetypes="ssssssssssssssssss" />
  <path
     id="rect2545"
     style="opacity:0.4;fill:#000000;stroke-width:0.387914;stroke-linejoin:round"
     d="m 2.6458333,0.52916667 c -1.91822909,0 -2.38124997,0.4630208 -2.38124997,2.38124993 V 5.55625 c 0,1.8520831 0.52916735,2.38125 2.38124997,2.38125 h 3.175 c 1.8520841,0 2.3812499,-0.5291669 2.3812499,-2.38125 V 2.9104166 c 0,-1.8520832 -0.5291666,-2.38124988 -2.3812499,-2.38124993 z m 0,0.26458333 h 3.175 c 1.7197916,0 2.1166666,0.396875 2.1166666,2.1166666 V 5.55625 c 0,1.7197917 -0.3968753,2.1166666 -2.1166666,2.1166666 h -3.175 c -1.71979162,0 -2.11666664,-0.3968749 -2.11666664,-2.1166666 V 2.9104166 c 0,-1.7197916 0.39687505,-2.1166666 2.11666664,-2.1166666 z"
     sodipodi:nodetypes="ssssssssssssssssss" />
</svg>
