<?xml version="1.0" encoding="UTF-8" standalone="no"?>
<!-- Created with Inkscape (http://www.inkscape.org/) -->

<svg
   width="32"
   height="32"
   viewBox="0 0 8.4666665 8.4666669"
   version="1.1"
   id="svg2719"
   inkscape:version="1.1.2 (0a00cf5339, 2022-02-04)"
   sodipodi:docname="org.xfce.terminal-settings.svg"
   xmlns:inkscape="http://www.inkscape.org/namespaces/inkscape"
   xmlns:sodipodi="http://sodipodi.sourceforge.net/DTD/sodipodi-0.dtd"
   xmlns:xlink="http://www.w3.org/1999/xlink"
   xmlns="http://www.w3.org/2000/svg"
   xmlns:svg="http://www.w3.org/2000/svg">
  <sodipodi:namedview
     id="namedview2721"
     pagecolor="#ffffff"
     bordercolor="#666666"
     borderopacity="1.0"
     inkscape:pageshadow="2"
     inkscape:pageopacity="0.0"
     inkscape:pagecheckerboard="0"
     inkscape:document-units="px"
     showgrid="false"
     units="px"
     inkscape:zoom="24.75"
     inkscape:cx="20.585859"
     inkscape:cy="20.545455"
     inkscape:window-width="1851"
     inkscape:window-height="1049"
     inkscape:window-x="0"
     inkscape:window-y="0"
     inkscape:window-maximized="1"
     inkscape:current-layer="svg2719" />
  <defs
     id="defs2716">
    <linearGradient
       inkscape:collect="always"
       id="linearGradient1871">
      <stop
         style="stop-color:#ffffff;stop-opacity:1;"
         offset="0"
         id="stop1867" />
      <stop
         style="stop-color:#ffffff;stop-opacity:0.1"
         offset="0.12"
         id="stop2515" />
      <stop
         style="stop-color:#ffffff;stop-opacity:0.102"
         offset="0.89999998"
         id="stop2581" />
      <stop
         style="stop-color:#ffffff;stop-opacity:0.502"
         offset="1"
         id="stop1869" />
    </linearGradient>
    <linearGradient
       inkscape:collect="always"
       xlink:href="#linearGradient1871"
       id="linearGradient16320"
       x1="10"
       y1="4"
       x2="10"
       y2="29.100245"
       gradientUnits="userSpaceOnUse"
       gradientTransform="matrix(0.26458333,0,0,0.26458333,0,-0.26458332)" />
  </defs>
  <path
     id="rect18683"
     style="opacity:0.1;fill:#000000;stroke-width:0.264583;stroke-linejoin:round"
     d="m 2.38125,0.92604165 c -1.45520832,0 -1.984375,0.52916665 -1.984375,1.98437495 v 3.0427085 c 0,1.5875 0.52916665,2.1166666 2.1166666,2.1166666 h 3.4395833 c 1.5875,0 2.1166667,-0.5291666 2.1166667,-2.1166666 V 3.0427083 c 0,-1.5875 -0.5291667,-2.11666665 -2.1166667,-2.11666665 z"
     sodipodi:nodetypes="sssssssss" />
  <path
     id="rect6397"
     style="fill:#4d4d4d;fill-opacity:1;stroke-width:0.255274;stroke-linejoin:round"
     d="M 0.39687499,2.6458334 C 0.396875,1.190625 0.92604165,0.66145833 2.38125,0.66145834 h 3.571875 c 1.5874999,-1e-8 2.1166666,0.52916666 2.1166668,2.11666666 l 10e-8,2.9104168 c 0,1.5874999 -0.529166,2.1166666 -2.116666,2.1166666 H 2.5135417 c -1.58750001,0 -2.11666671,-0.5291667 -2.11666671,-2.1166667 z"
     sodipodi:nodetypes="ccccccccc" />
  <path
     id="rect13250"
     style="fill:url(#linearGradient16320);fill-opacity:1;stroke-width:0.264583;stroke-linejoin:round;opacity:0.3"
     d="m 2.6458333,0.79375 c -1.71979143,0 -2.11666664,0.396875 -2.11666664,2.1166666 v 2.6458335 c 0,1.7197919 0.39687515,2.1166666 2.11666664,2.1166666 h 3.175 c 1.7197913,0 2.1166666,-0.3968747 2.1166666,-2.1166666 V 2.9104166 C 7.9374999,1.190625 7.5406249,0.79375 5.8208333,0.79375 Z m 0,0.2645833 h 3.175 c 1.5213541,0 1.8520833,0.3307294 1.8520833,1.8520833 v 2.6458335 c 0,1.5213542 -0.3307292,1.8520833 -1.8520833,1.8520833 h -3.175 c -1.5213541,0 -1.85208331,-0.3307291 -1.85208331,-1.8520833 V 2.9104166 c 0,-1.521354 0.33072921,-1.8520834 1.85208331,-1.8520833 z"
     sodipodi:nodetypes="ssssssssssssssssss" />
  <path
     id="rect2545"
     style="opacity:0.4;fill:#000000;stroke-width:0.387914;stroke-linejoin:round"
     d="m 2.6458333,0.52916667 c -1.91822909,0 -2.38124997,0.4630208 -2.38124997,2.38124993 V 5.55625 c 0,1.8520831 0.52916735,2.38125 2.38124997,2.38125 h 3.175 c 1.8520841,0 2.3812499,-0.5291669 2.3812499,-2.38125 V 2.9104166 c 0,-1.8520832 -0.5291666,-2.38124988 -2.3812499,-2.38124993 z m 0,0.26458333 h 3.175 c 1.7197916,0 2.1166666,0.396875 2.1166666,2.1166666 V 5.55625 c 0,1.7197917 -0.3968753,2.1166666 -2.1166666,2.1166666 h -3.175 c -1.71979162,0 -2.11666664,-0.3968749 -2.11666664,-2.1166666 V 2.9104166 c 0,-1.7197916 0.39687505,-2.1166666 2.11666664,-2.1166666 z"
     sodipodi:nodetypes="ssssssssssssssssss" />
  <path
     id="rect1707"
     style="opacity:0.2;fill:#000000;fill-opacity:1;stroke-width:0.17572;stroke-linejoin:round"
     d="M 1.5098109,2.159 1.425383,2.4133134 2.2840764,2.7578888 1.425383,3.1021214 1.5098109,3.3567777 2.6145807,2.8889923 V 2.6267854 Z M 2.6458333,3.7041206 V 3.968704 H 3.96875 V 3.7041206 Z"
     sodipodi:nodetypes="ccccccccccccc" />
  <path
     id="rect854"
     style="opacity:1;fill:#f2f2f2;fill-opacity:1;stroke-width:0.999999;stroke-linejoin:round"
     d="M 5.6914062 7.1503906 L 5.3691406 8.1152344 L 8.6269531 9.421875 L 5.3691406 10.728516 L 5.6914062 11.693359 L 9.8828125 9.9199219 L 9.8828125 8.9238281 L 5.6914062 7.1503906 z M 10 13 L 10 14 L 15 14 L 15 13 L 10 13 z "
     transform="scale(0.26458333)" />
  <circle
     style="fill:#8f8f8f;fill-opacity:1;stroke-width:0.195561"
     id="path980"
     cx="6.0854163"
     cy="6.0854163"
     r="2.2489583" />
  <path
     id="path45"
     d="M 5.8223834,4.4979167 V 4.7759359 C 5.6830996,4.8033718 5.5513876,4.8523338 5.431193,4.9195964 L 5.2761636,4.7345947 4.8782551,5.0741088 5.0332845,5.2596273 C 4.9480318,5.3674444 4.8788343,5.4883701 4.8296792,5.6192952 l -0.2444295,-0.043408 -0.087333,0.5162475 0.2475301,0.043925 c 0.00479,0.1395513 0.03104,0.2738184 0.075448,0.399459 L 4.5955851,6.6657429 4.8596517,7.1173951 5.0880615,6.9851035 c 0.08897,0.098918 0.1924037,0.1843365 0.3069579,0.2532144 L 5.3020014,7.4935996 5.7939613,7.669816 5.8864623,7.4140177 c 0.063339,0.00927 0.1279157,0.014467 0.1937867,0.01447 0.067999,-2.9e-6 0.134698,-0.00511 0.1999877,-0.014986 L 6.3742878,7.6729167 6.8641803,7.4904989 6.7711628,7.2352173 C 6.8844799,7.1663404 6.9864583,7.0808938 7.0745034,6.9825196 L 7.3106646,7.1189453 7.5690469,6.6641927 7.3406372,6.5324178 C 7.384277,6.4079761 7.4102057,6.2751333 7.4150512,6.137093 L 7.6729165,6.091618 7.5788654,5.5764039 7.3313352,5.620329 C 7.2828064,5.490731 7.2147585,5.3707941 7.1308308,5.2637614 L 7.2915445,5.0715252 6.8895017,4.7371786 6.7339558,4.9226971 C 6.6143954,4.855136 6.4834853,4.805547 6.3448323,4.7774863 V 4.4979167 Z M 6.080249,5.0983968 c 0.5467807,-1.35e-5 0.9885701,0.4426715 0.9885701,0.991154 0,0.5484826 -0.4417894,0.9906505 -0.9885701,0.9906373 -0.5467715,0 -0.9880534,-0.4421642 -0.9880534,-0.9906373 0,-0.548473 0.4412819,-0.991154 0.9880534,-0.991154 z"
     style="fill:#ffffff;fill-opacity:1;stroke:none;stroke-width:0.264583" />
  <path
     id="path854"
     style="opacity:0.4;fill:#000000;stroke-width:0.750002"
     d="M 23 14 A 8.9999996 8.9999996 0 0 0 14 23 A 8.9999996 8.9999996 0 0 0 23 32 A 8.9999996 8.9999996 0 0 0 32 23 A 8.9999996 8.9999996 0 0 0 23 14 z M 23 15 A 8.0000004 8.0000004 0 0 1 31 23 A 8.0000004 8.0000004 0 0 1 23 31 A 8.0000004 8.0000004 0 0 1 15 23 A 8.0000004 8.0000004 0 0 1 23 15 z "
     transform="scale(0.26458333)" />
</svg>
