<?xml version="1.0" encoding="UTF-8" standalone="no"?>
<!-- Created with Inkscape (http://www.inkscape.org/) -->

<svg
   width="32"
   height="32"
   viewBox="0 0 8.4666665 8.4666669"
   version="1.1"
   id="svg2719"
   inkscape:version="1.1.2 (0a00cf5339, 2022-02-04)"
   sodipodi:docname="plasmadiscover.svg"
   xmlns:inkscape="http://www.inkscape.org/namespaces/inkscape"
   xmlns:sodipodi="http://sodipodi.sourceforge.net/DTD/sodipodi-0.dtd"
   xmlns:xlink="http://www.w3.org/1999/xlink"
   xmlns="http://www.w3.org/2000/svg"
   xmlns:svg="http://www.w3.org/2000/svg">
  <sodipodi:namedview
     id="namedview2721"
     pagecolor="#ffffff"
     bordercolor="#666666"
     borderopacity="1.0"
     inkscape:pageshadow="2"
     inkscape:pageopacity="0.0"
     inkscape:pagecheckerboard="0"
     inkscape:document-units="px"
     showgrid="false"
     units="px"
     inkscape:zoom="12.28125"
     inkscape:cx="17.058524"
     inkscape:cy="20.356234"
     inkscape:window-width="1920"
     inkscape:window-height="1010"
     inkscape:window-x="0"
     inkscape:window-y="0"
     inkscape:window-maximized="1"
     inkscape:current-layer="svg2719" />
  <defs
     id="defs2716">
    <linearGradient
       inkscape:collect="always"
       id="linearGradient1024">
      <stop
         style="stop-color:#407af3;stop-opacity:1"
         offset="0"
         id="stop1020" />
      <stop
         style="stop-color:#17abf3;stop-opacity:1"
         offset="1"
         id="stop1022" />
    </linearGradient>
    <linearGradient
       inkscape:collect="always"
       id="linearGradient1871">
      <stop
         style="stop-color:#ffffff;stop-opacity:1;"
         offset="0"
         id="stop1867" />
      <stop
         style="stop-color:#ffffff;stop-opacity:0.1"
         offset="0.12"
         id="stop2515" />
      <stop
         style="stop-color:#ffffff;stop-opacity:0.102"
         offset="0.89999998"
         id="stop2581" />
      <stop
         style="stop-color:#ffffff;stop-opacity:0.502"
         offset="1"
         id="stop1869" />
    </linearGradient>
    <linearGradient
       inkscape:collect="always"
       xlink:href="#linearGradient1871"
       id="linearGradient16320"
       x1="10"
       y1="4"
       x2="10"
       y2="29.100245"
       gradientUnits="userSpaceOnUse"
       gradientTransform="matrix(0.26458333,0,0,0.26458333,0,-0.26458332)" />
    <linearGradient
       inkscape:collect="always"
       xlink:href="#linearGradient1024"
       id="linearGradient1026"
       x1="10.451042"
       y1="10.054167"
       x2="-1.4552083"
       y2="-0.52916646"
       gradientUnits="userSpaceOnUse" />
  </defs>
  <path
     id="rect18683"
     style="opacity:0.1;fill:#000000;stroke-width:0.264583;stroke-linejoin:round"
     d="m 2.38125,0.92604165 c -1.45520832,0 -1.984375,0.52916665 -1.984375,1.98437495 v 3.0427085 c 0,1.5875 0.52916665,2.1166666 2.1166666,2.1166666 h 3.4395833 c 1.5875,0 2.1166667,-0.5291666 2.1166667,-2.1166666 V 3.0427083 c 0,-1.5875 -0.5291667,-2.11666665 -2.1166667,-2.11666665 z"
     sodipodi:nodetypes="sssssssss" />
  <path
     id="rect6397"
     style="fill:url(#linearGradient1026);fill-opacity:1;stroke-width:0.255274;stroke-linejoin:round"
     d="M 0.39687499,2.6458334 C 0.396875,1.190625 0.92604165,0.66145833 2.38125,0.66145834 h 3.571875 c 1.5874999,-1e-8 2.1166666,0.52916666 2.1166668,2.11666666 l 10e-8,2.9104168 c 0,1.5874999 -0.529166,2.1166666 -2.116666,2.1166666 H 2.5135417 c -1.58750001,0 -2.11666671,-0.5291667 -2.11666671,-2.1166667 z"
     sodipodi:nodetypes="ccccccccc" />
  <path
     id="rect1372"
     style="opacity:0.1;fill:#ffffff;fill-opacity:1;stroke-width:0.264583;stroke-linejoin:round"
     d="m 0.396875,4.2333333 v 1.4552083 c 0,1.5875 0.52916666,2.1166666 2.1166666,2.1166666 h 3.4395833 c 1.5875,0 2.1166667,-0.5291666 2.1166667,-2.1166666 V 4.2333333 Z" />
  <path
     d="m 3.0427085,2.1166666 c -0.1649018,0 -0.2976563,0.1327554 -0.2976563,0.2976562 0,0.1649016 0.1327554,0.2976561 0.2976563,0.2976561 0.1649014,0 0.297656,-0.1327552 0.297656,-0.2976561 0,-0.1649016 -0.1327555,-0.2976562 -0.297656,-0.2976562 z m 1.8709819,0 L 4.2333331,2.7970238 5.2538688,3.8175595 4.2333331,4.8380951 4.9136904,5.5184521 5.9342257,4.4979164 6.6145833,3.8175595 5.9342257,3.1372023 Z M 2.2985679,3.9026041 c -0.2473507,0 -0.4464846,0.1991301 -0.4464846,0.4464844 0,0.2473504 0.1991339,0.4464842 0.4464846,0.4464842 0.2473538,0 0.4464843,-0.1991338 0.4464843,-0.4464842 0,-0.2473543 -0.1991305,-0.4464844 -0.4464843,-0.4464844 z m 1.3394529,1.7859375 c -0.3298029,0 -0.5953123,0.2655091 -0.5953123,0.5953126 0,0.3298031 0.2655094,0.5953124 0.5953123,0.5953124 0.3298032,0 0.5953123,-0.2655093 0.5953123,-0.5953124 0,-0.3298035 -0.2655091,-0.5953126 -0.5953123,-0.5953126 z"
     style="fill:#000000;fill-opacity:1;stroke-width:0.0900054;opacity:0.1"
     id="path860"
     sodipodi:nodetypes="ssssscccccccccssssssssss" />
  <path
     d="m 3.0427086,1.8520833 c -0.1649018,0 -0.2976565,0.1327554 -0.2976565,0.2976562 0,0.1649016 0.1327555,0.2976561 0.2976565,0.2976561 0.1649013,0 0.297656,-0.1327552 0.297656,-0.2976561 0,-0.1649016 -0.1327555,-0.2976562 -0.297656,-0.2976562 z m 1.8709817,0 L 4.2333331,2.5324405 5.2538688,3.5529761 4.2333331,4.5735118 4.9136903,5.2538688 5.9342255,4.2333331 6.6145833,3.5529761 5.9342255,2.8726191 Z M 2.2985679,3.6380209 c -0.2473507,0 -0.4464846,0.1991301 -0.4464846,0.4464843 0,0.2473505 0.1991339,0.4464841 0.4464846,0.4464841 0.2473538,0 0.4464842,-0.1991336 0.4464842,-0.4464841 0,-0.2473542 -0.1991304,-0.4464843 -0.4464842,-0.4464843 z m 1.339453,1.7859374 c -0.3298029,0 -0.5953123,0.2655091 -0.5953123,0.5953125 0,0.3298031 0.2655094,0.5953125 0.5953123,0.5953125 0.3298031,0 0.5953122,-0.2655094 0.5953122,-0.5953125 0,-0.3298034 -0.2655091,-0.5953125 -0.5953122,-0.5953125 z"
     style="fill:#fbfbf8;fill-opacity:1;stroke-width:0.0238139"
     id="path1035" />
  <path
     id="rect13250"
     style="fill:url(#linearGradient16320);fill-opacity:1;stroke-width:0.264583;stroke-linejoin:round;opacity:0.7"
     d="m 2.6458333,0.79375 c -1.71979143,0 -2.11666664,0.396875 -2.11666664,2.1166666 v 2.6458335 c 0,1.7197919 0.39687515,2.1166666 2.11666664,2.1166666 h 3.175 c 1.7197913,0 2.1166666,-0.3968747 2.1166666,-2.1166666 V 2.9104166 C 7.9374999,1.190625 7.5406249,0.79375 5.8208333,0.79375 Z m 0,0.2645833 h 3.175 c 1.5213541,0 1.8520833,0.3307294 1.8520833,1.8520833 v 2.6458335 c 0,1.5213542 -0.3307292,1.8520833 -1.8520833,1.8520833 h -3.175 c -1.5213541,0 -1.85208331,-0.3307291 -1.85208331,-1.8520833 V 2.9104166 c 0,-1.521354 0.33072921,-1.8520834 1.85208331,-1.8520833 z"
     sodipodi:nodetypes="ssssssssssssssssss" />
  <path
     id="rect2545"
     style="opacity:0.4;fill:#000000;stroke-width:0.387914;stroke-linejoin:round"
     d="m 2.6458333,0.52916667 c -1.91822909,0 -2.38124997,0.4630208 -2.38124997,2.38124993 V 5.55625 c 0,1.8520831 0.52916735,2.38125 2.38124997,2.38125 h 3.175 c 1.8520841,0 2.3812499,-0.5291669 2.3812499,-2.38125 V 2.9104166 c 0,-1.8520832 -0.5291666,-2.38124988 -2.3812499,-2.38124993 z m 0,0.26458333 h 3.175 c 1.7197916,0 2.1166666,0.396875 2.1166666,2.1166666 V 5.55625 c 0,1.7197917 -0.3968753,2.1166666 -2.1166666,2.1166666 h -3.175 c -1.71979162,0 -2.11666664,-0.3968749 -2.11666664,-2.1166666 V 2.9104166 c 0,-1.7197916 0.39687505,-2.1166666 2.11666664,-2.1166666 z"
     sodipodi:nodetypes="ssssssssssssssssss" />
</svg>
