<?xml version="1.0" encoding="UTF-8" standalone="no"?>
<!-- Created with Inkscape (http://www.inkscape.org/) -->

<svg
   width="32"
   height="32"
   viewBox="0 0 8.4666665 8.4666669"
   version="1.1"
   id="svg2719"
   inkscape:version="1.1.2 (0a00cf5339, 2022-02-04)"
   sodipodi:docname="preferences-desktop-peripherals.svg"
   xmlns:inkscape="http://www.inkscape.org/namespaces/inkscape"
   xmlns:sodipodi="http://sodipodi.sourceforge.net/DTD/sodipodi-0.dtd"
   xmlns:xlink="http://www.w3.org/1999/xlink"
   xmlns="http://www.w3.org/2000/svg"
   xmlns:svg="http://www.w3.org/2000/svg">
  <sodipodi:namedview
     id="namedview2721"
     pagecolor="#ffffff"
     bordercolor="#666666"
     borderopacity="1.0"
     inkscape:pageshadow="2"
     inkscape:pageopacity="0.0"
     inkscape:pagecheckerboard="0"
     inkscape:document-units="px"
     showgrid="false"
     units="px"
     inkscape:zoom="24.53125"
     inkscape:cx="15.979618"
     inkscape:cy="16"
     inkscape:window-width="1920"
     inkscape:window-height="1012"
     inkscape:window-x="0"
     inkscape:window-y="0"
     inkscape:window-maximized="1"
     inkscape:current-layer="svg2719" />
  <defs
     id="defs2716">
    <linearGradient
       inkscape:collect="always"
       id="linearGradient1871">
      <stop
         style="stop-color:#ffffff;stop-opacity:1;"
         offset="0"
         id="stop1867" />
      <stop
         style="stop-color:#ffffff;stop-opacity:0.1"
         offset="0.12"
         id="stop2515" />
      <stop
         style="stop-color:#ffffff;stop-opacity:0.102"
         offset="0.89999998"
         id="stop2581" />
      <stop
         style="stop-color:#ffffff;stop-opacity:0.502"
         offset="1"
         id="stop1869" />
    </linearGradient>
    <linearGradient
       inkscape:collect="always"
       xlink:href="#linearGradient1871"
       id="linearGradient16320"
       x1="10"
       y1="4"
       x2="10"
       y2="29.100245"
       gradientUnits="userSpaceOnUse"
       gradientTransform="matrix(0.26458333,0,0,0.26458333,0,-0.26458332)" />
    <linearGradient
       inkscape:collect="always"
       xlink:href="#linearGradient1871"
       id="linearGradient5422"
       x1="23.673721"
       y1="9.0039377"
       x2="23.673721"
       y2="39.003937"
       gradientUnits="userSpaceOnUse"
       gradientTransform="matrix(0.75006243,0,0,0.66174962,-1.3366848,0.04168399)" />
    <radialGradient
       inkscape:collect="always"
       xlink:href="#linearGradient4248"
       id="radialGradient4410"
       cx="6.2918267"
       cy="7.1982756"
       fx="6.2918267"
       fy="7.1982756"
       r="2.778125"
       gradientTransform="matrix(1.1786777,0,0,0.97686864,-3.0504374,-1.7675283)"
       gradientUnits="userSpaceOnUse" />
    <linearGradient
       inkscape:collect="always"
       id="linearGradient4248">
      <stop
         style="stop-color:#cdcdcd;stop-opacity:0"
         offset="0"
         id="stop4244" />
      <stop
         style="stop-color:#ffffff;stop-opacity:1"
         offset="1"
         id="stop4246" />
    </linearGradient>
    <radialGradient
       inkscape:collect="always"
       xlink:href="#linearGradient2799"
       id="radialGradient2801"
       cx="6.2918267"
       cy="7.5567431"
       fx="6.2918267"
       fy="7.5567431"
       r="2.7781248"
       gradientTransform="matrix(1.3215389,-2.3950288e-8,2.3317129e-8,1.2289638,-3.9492954,-3.6725466)"
       gradientUnits="userSpaceOnUse" />
    <linearGradient
       inkscape:collect="always"
       id="linearGradient2799">
      <stop
         style="stop-color:#cdcdcd;stop-opacity:1;"
         offset="0"
         id="stop2795" />
      <stop
         style="stop-color:#cdcdcd;stop-opacity:1"
         offset="0.50536346"
         id="stop3635" />
      <stop
         style="stop-color:#e6e6e6;stop-opacity:1"
         offset="1"
         id="stop2797" />
    </linearGradient>
  </defs>
  <path
     id="rect18683"
     style="opacity:0.1;fill:#000000;stroke-width:0.264583;stroke-linejoin:round"
     d="m 2.38125,0.92604165 c -1.45520832,0 -1.984375,0.52916665 -1.984375,1.98437495 v 3.0427085 c 0,1.5875 0.52916665,2.1166666 2.1166666,2.1166666 h 3.4395833 c 1.5875,0 2.1166667,-0.5291666 2.1166667,-2.1166666 V 3.0427083 c 0,-1.5875 -0.5291667,-2.11666665 -2.1166667,-2.11666665 z"
     sodipodi:nodetypes="sssssssss" />
  <path
     id="rect6397"
     style="fill:#4d4d4d;fill-opacity:1;stroke-width:0.255274;stroke-linejoin:round"
     d="M 0.39687499,2.6458334 C 0.396875,1.190625 0.92604165,0.66145833 2.38125,0.66145834 h 3.571875 c 1.5874999,-1e-8 2.1166666,0.52916666 2.1166668,2.11666666 l 10e-8,2.9104168 c 0,1.5874999 -0.529166,2.1166666 -2.116666,2.1166666 H 2.5135417 c -1.58750001,0 -2.11666671,-0.5291667 -2.11666671,-2.1166667 z"
     sodipodi:nodetypes="ccccccccc" />
  <path
     d="m 4.211455,1.5875 c -0.5249143,0 -1.0267757,0.097332 -1.5163965,0.2672079 L 2.57435,1.8963335 2.1337653,3.9910276 C 2.0603762,4.339676 1.9856051,4.7041343 1.9843892,5.084028 c -0.0012,0.3803441 0.073318,0.7677137 0.2519781,1.1211986 0.1788806,0.3539191 0.4591596,0.6630202 0.8117624,0.8768173 0.352475,0.2137124 0.7677488,0.3262895 1.185958,0.3262895 0.4182107,0 0.8334843,-0.1125853 1.1859577,-0.3262895 C 5.7727107,6.8682222 6.0514651,6.5590661 6.2302993,6.2052264 6.4089698,5.8517422 6.4834953,5.464375 6.4822769,5.084028 6.4810598,4.7042446 6.4063245,4.3397903 6.3329008,3.9910274 L 5.8923164,1.896333 5.7716081,1.8547076 C 5.2799935,1.6841489 4.7363679,1.5875 4.211455,1.5875 Z"
     style="color:#000000;opacity:0.1;fill:#000000;stroke:none;stroke-width:0.192821;-inkscape-stroke:none"
     id="path1559" />
  <g
     id="g1532"
     transform="translate(-0.13229174)">
    <path
       style="color:#000000;opacity:0.4;fill:#000000;stroke:none;stroke-width:0.728772;-inkscape-stroke:none"
       d="m 4.3437466,1.3229167 c -0.5249143,0 -1.0267755,0.097332 -1.5163964,0.2672079 L 2.7066417,1.6317502 2.266057,3.7264443 C 2.192668,4.0750927 2.1178969,4.439551 2.116681,4.8194448 c -0.0012,0.3803439 0.073318,0.7677135 0.2519781,1.1211985 0.1788805,0.3539192 0.4591595,0.6630202 0.8117624,0.8768173 0.3524748,0.2137123 0.7677487,0.3262895 1.1859578,0.3262895 0.4182108,0 0.8334844,-0.1125852 1.1859579,-0.3262895 C 5.9050023,6.603639 6.1837569,6.2944828 6.3625911,5.9406431 6.5412615,5.5871588 6.6157869,5.1997918 6.6145687,4.8194447 6.6133643,4.4396612 6.5386163,4.0752069 6.4651926,3.726444 L 6.0246082,1.6317497 5.9039,1.5901243 C 5.4122852,1.4195656 4.8686596,1.3229167 4.3437466,1.3229167 Z"
       id="path2126-7"
       sodipodi:nodetypes="sccccscsscccccs" />
    <path
       id="path2574"
       style="color:#000000;fill:url(#radialGradient2801);fill-opacity:1;stroke:none;stroke-width:0.0493196;-inkscape-stroke:none"
       d="m 4.3445011,1.5875044 c -0.4823511,0 -0.944014,0.087176 -1.4004184,0.2441658 l -0.014733,0.00514 -0.4073734,1.920838 C 2.4508904,4.0924575 2.3823948,4.4318493 2.381277,4.7773936 c -0.00112,0.3456175 0.066095,0.6952846 0.2255864,1.0081238 0.1594973,0.3128535 0.4100427,0.5844959 0.7193958,0.7704551 0.3093013,0.185922 0.674754,0.2841758 1.0403331,0.2841758 0.3655778,0 0.7290927,-0.098259 1.0383949,-0.2841758 C 5.7142819,6.3700552 5.9648426,6.0984656 6.1243854,5.7855113 6.2838869,5.4726715 6.3510968,5.1230018 6.3499717,4.7773877 6.3488655,4.4317371 6.2803462,4.092341 6.2092709,3.7576375 L 5.8022852,1.8367994 5.7875559,1.8316657 C 5.3329869,1.6753205 4.8268539,1.5875044 4.3445011,1.5875044 Z" />
    <path
       id="path4075"
       style="color:#000000;opacity:0.5;fill:url(#radialGradient4410);fill-opacity:1;stroke:none;stroke-width:0.0130492;-inkscape-stroke:none"
       d="m 4.3445011,1.5875044 c -0.060294,0 -0.1201695,0.00141 -0.1798504,0.0041 -0.05968,0.00269 -0.119174,0.00664 -0.1782995,0.011965 -0.059124,0.00532 -0.1181187,0.011965 -0.1767492,0.019834 -0.058629,0.00788 -0.1170032,0.016995 -0.175199,0.027357 -0.1163923,0.020724 -0.2319007,0.046342 -0.3469095,0.076601 -0.057504,0.015131 -0.1148501,0.03149 -0.1720979,0.048902 -0.057246,0.017411 -0.1142718,0.035776 -0.1713226,0.055399 l -0.01473,0.00514 -0.4073764,1.9208378 c -0.035545,0.1674071 -0.070381,0.3358749 -0.096513,0.5057714 -0.00653,0.042474 -0.012505,0.084909 -0.017829,0.1275543 -1.4e-5,1.124e-4 1.42e-5,2.299e-4 0,3.421e-4 -2.412e-4,0.00196 -5.367e-4,0.00388 -7.725e-4,0.00581 -0.00499,0.040603 -0.00954,0.08132 -0.013173,0.1220828 -0.00384,0.042823 -0.00679,0.085916 -0.00889,0.1289228 -0.00212,0.043004 -0.00333,0.086071 -0.00349,0.1292641 -2.771e-4,0.086404 0.00376,0.1729395 0.012409,0.2592122 0.00865,0.086272 0.02201,0.1722974 0.040311,0.2571605 0.0183,0.084862 0.041443,0.1684876 0.070156,0.2506632 3.62e-5,1.04e-4 -3.66e-5,2.376e-4 0,3.418e-4 0.014326,0.040983 0.030231,0.081665 0.04729,0.1217412 0.0171,0.040176 0.035493,0.079901 0.055426,0.1190057 0.059812,0.1173195 0.1325828,0.2286912 0.2162854,0.3320515 6.14e-5,7.59e-5 -6.11e-5,2.66e-4 0,3.42e-4 0.027847,0.034374 0.05697,0.067711 0.087212,0.1001965 6.43e-5,6.91e-5 -6.42e-5,2.731e-4 0,3.419e-4 0.030249,0.032488 0.062059,0.063958 0.094574,0.094385 0.032582,0.030489 0.06604,0.059982 0.1007775,0.088226 0.069473,0.056492 0.1432103,0.1084214 0.2205489,0.1549117 0.077326,0.04648 0.1580301,0.087395 0.2414799,0.1227669 0.041726,0.017688 0.084206,0.034054 0.1271363,0.048903 0.041251,0.014269 0.083031,0.026696 0.1251973,0.038302 0.00171,4.724e-4 0.00332,0.00125 0.00505,0.00172 1.17e-4,3.23e-5 2.704e-4,-3.17e-5 3.877e-4,0 0.00129,3.513e-4 0.00257,6.618e-4 0.00388,0.00106 0.041244,0.011131 0.082887,0.020852 0.1248101,0.029408 0.00131,2.68e-4 0.00255,7.279e-4 0.00386,0.00106 1.22e-4,2.45e-5 2.658e-4,-2.45e-5 3.878e-4,0 0.00115,2.338e-4 0.00236,4.52e-4 0.00347,6.617e-4 0.043423,0.00869 0.087456,0.01634 0.1313991,0.022228 0.044593,0.00596 0.089192,0.01028 0.1341127,0.013334 6.555e-4,4.43e-5 0.00128,2.977e-4 0.00193,3.42e-4 1.277e-4,8.6e-6 2.601e-4,-8.6e-6 3.874e-4,0 2.574e-4,1.66e-5 5.183e-4,-1.71e-5 7.727e-4,0 0.045194,0.00298 0.090739,0.00443 0.1360502,0.00443 0.045696,0 0.091287,-0.00139 0.1368248,-0.00443 0.045539,-0.00304 0.090876,-0.00761 0.1360504,-0.013679 0.045174,-0.00609 0.090285,-0.013876 0.1348885,-0.02291 0.044602,-0.00903 0.088737,-0.019502 0.1325624,-0.03146 0.043828,-0.011965 0.087003,-0.025166 0.12985,-0.04001 0.040644,-0.014082 0.080967,-0.029865 0.1205472,-0.046509 0.00437,-0.00185 0.00881,-0.00357 0.013173,-0.00549 0.039199,-0.016816 0.077938,-0.034735 0.115896,-0.054031 1.529e-4,-7.79e-5 2.347e-4,-2.644e-4 3.876e-4,-3.419e-4 0.040262,-0.020484 0.079558,-0.042077 0.1182209,-0.065315 0.077325,-0.046478 0.1510803,-0.098428 0.2205489,-0.1549116 0.034602,-0.028133 0.068312,-0.057527 0.1007774,-0.087886 5.637e-4,-5.274e-4 9.914e-4,-0.00118 0.00154,-0.0017 0.032112,-0.030099 0.063132,-0.060901 0.093027,-0.093016 0.03024,-0.032485 0.059363,-0.066161 0.08721,-0.1005385 6e-5,-7.38e-5 -5.94e-5,-2.682e-4 0,-3.42e-4 0.027902,-0.034455 0.054859,-0.069487 0.080235,-0.1056688 0.025375,-0.036182 0.049374,-0.073404 0.072091,-0.11114 0.022722,-0.037736 0.044012,-0.076125 0.063955,-0.1152429 0.019935,-0.039105 0.038327,-0.078829 0.055426,-0.1190055 0.017057,-0.040074 0.032959,-0.080759 0.047289,-0.1217415 3.61e-5,-1.029e-4 -3.59e-5,-2.387e-4 0,-3.418e-4 0.014354,-0.041089 0.027441,-0.082295 0.039148,-0.1241341 0.011699,-0.041841 0.021858,-0.084098 0.031009,-0.1265285 0.00915,-0.042433 0.017342,-0.085032 0.02403,-0.1278971 0.00671,-0.042864 0.01196,-0.086131 0.01628,-0.1292642 0.00433,-0.043136 0.00766,-0.086357 0.0097,-0.1296057 0.00205,-0.043249 0.00285,-0.086405 0.0027,-0.1296056 -1.411e-4,-0.04325 -0.00139,-0.086294 -0.00349,-0.1293079 -0.00213,-0.043009 -0.00508,-0.086088 -0.0089,-0.1289165 -0.00386,-0.042833 -0.00866,-0.085595 -0.013961,-0.1282422 C 6.318329,4.3483056 6.3123432,4.3058721 6.3058054,4.2633988 6.2927685,4.1784609 6.2776896,4.0939568 6.2612579,4.0096682 6.2447938,3.92538 6.2270532,3.8413133 6.2092839,3.7576374 L 5.8022956,1.8367994 5.7875663,1.8316657 C 5.730745,1.8121262 5.6729767,1.7936383 5.6146931,1.776272 5.5565241,1.7589387 5.497664,1.7428005 5.4383313,1.7277138 c -1.189e-4,-3.03e-5 -2.684e-4,3.02e-5 -3.874e-4,0 -0.059451,-0.015116 -0.1191346,-0.029276 -0.1794626,-0.042062 -0.060327,-0.012786 -0.1212674,-0.024157 -0.1821758,-0.034539 -0.060908,-0.010376 -0.1217556,-0.019798 -0.1829512,-0.0277 -0.061197,-0.00789 -0.1225368,-0.01449 -0.183726,-0.019834 -0.06119,-0.00534 -0.1224511,-0.00926 -0.1833387,-0.011965 -0.060889,-0.0027 -0.1214938,-0.0041 -0.1817885,-0.0041 z" />
    <path
       style="color:#000000;fill:#b3b3b3;stroke-width:0.187086;-inkscape-stroke:none"
       d="M 4.2333333,1.5875 V 3.175 H 4.4979166 V 1.5875 Z"
       id="path38"
       sodipodi:nodetypes="ccccc" />
    <path
       id="path4778"
       style="color:#000000;opacity:0.4;fill:url(#linearGradient5422);fill-opacity:1;stroke:none;stroke-width:0.186405;-inkscape-stroke:none"
       d="m 16.419922,6 c -1.823059,0 -3.566025,0.3304824 -5.291016,0.9238281 l -0.05664,0.019531 -1.5390629,7.2597659 C 9.2645241,15.468578 9.0042244,16.750648 9,18.056641 c -0.00423,1.30627 0.2487709,2.628163 0.8515625,3.810547 0.6028245,1.182438 1.5514945,2.207317 2.7207035,2.910156 1.169012,0.702696 2.547973,1.076172 3.929687,1.076172 1.381713,0 2.756765,-0.373497 3.925781,-1.076172 1.168986,-0.702651 2.117706,-1.727336 2.720704,-2.910156 C 23.751278,20.6848 24.004251,19.362898 24,18.056641 23.995819,16.750244 23.735431,15.468146 23.466797,14.203125 L 21.929688,6.9414062 21.875,6.9238281 C 20.156953,6.3329224 18.242989,6 16.419922,6 Z m 0.01172,1 c 1.579991,0 3.237588,0.2867097 4.726562,0.7988281 l 0.04883,0.017578 1.332031,6.7988279 c 0.232816,1.096352 0.457315,2.381462 0.460938,3.513672 0.0037,1.13209 -0.21582,2.276046 -0.738281,3.300782 -0.522598,1.025111 -1.344301,1.914473 -2.357422,2.523437 -1.013147,0.608987 -2.20486,0.931641 -3.402344,0.931641 -1.197486,0 -2.393106,-0.322638 -3.40625,-0.931641 C 12.082389,23.343998 11.260729,22.454468 10.738281,21.429688 10.215862,20.404955 9.9963312,19.261007 10,18.128906 c 0.0037,-1.131861 0.228085,-2.416938 0.460938,-3.513672 l 1.333984,-6.7968746 0.04883,-0.019531 C 13.338742,7.2845951 14.851656,7 16.431641,7 Z"
       transform="scale(0.26458333)" />
  </g>
  <path
     id="rect13250"
     style="opacity:0.5;fill:url(#linearGradient16320);fill-opacity:1;stroke-width:0.264583;stroke-linejoin:round"
     d="m 2.6458333,0.79375 c -1.71979143,0 -2.11666664,0.396875 -2.11666664,2.1166666 v 2.6458335 c 0,1.7197919 0.39687515,2.1166666 2.11666664,2.1166666 h 3.175 c 1.7197913,0 2.1166666,-0.3968747 2.1166666,-2.1166666 V 2.9104166 C 7.9374999,1.190625 7.5406249,0.79375 5.8208333,0.79375 Z m 0,0.2645833 h 3.175 c 1.5213541,0 1.8520833,0.3307294 1.8520833,1.8520833 v 2.6458335 c 0,1.5213542 -0.3307292,1.8520833 -1.8520833,1.8520833 h -3.175 c -1.5213541,0 -1.85208331,-0.3307291 -1.85208331,-1.8520833 V 2.9104166 c 0,-1.521354 0.33072921,-1.8520834 1.85208331,-1.8520833 z"
     sodipodi:nodetypes="ssssssssssssssssss" />
  <path
     id="rect2545"
     style="opacity:0.4;fill:#000000;stroke-width:0.387914;stroke-linejoin:round"
     d="m 2.6458333,0.52916667 c -1.91822909,0 -2.38124997,0.4630208 -2.38124997,2.38124993 V 5.55625 c 0,1.8520831 0.52916735,2.38125 2.38124997,2.38125 h 3.175 c 1.8520841,0 2.3812499,-0.5291669 2.3812499,-2.38125 V 2.9104166 c 0,-1.8520832 -0.5291666,-2.38124988 -2.3812499,-2.38124993 z m 0,0.26458333 h 3.175 c 1.7197916,0 2.1166666,0.396875 2.1166666,2.1166666 V 5.55625 c 0,1.7197917 -0.3968753,2.1166666 -2.1166666,2.1166666 h -3.175 c -1.71979162,0 -2.11666664,-0.3968749 -2.11666664,-2.1166666 V 2.9104166 c 0,-1.7197916 0.39687505,-2.1166666 2.11666664,-2.1166666 z"
     sodipodi:nodetypes="ssssssssssssssssss" />
</svg>
