<?xml version="1.0" encoding="UTF-8" standalone="no"?>
<!-- Created with Inkscape (http://www.inkscape.org/) -->

<svg
   width="32"
   height="32"
   viewBox="0 0 8.4666665 8.4666669"
   version="1.1"
   id="svg2719"
   inkscape:version="1.1.2 (0a00cf5339, 2022-02-04)"
   sodipodi:docname="software-properties.svg"
   xmlns:inkscape="http://www.inkscape.org/namespaces/inkscape"
   xmlns:sodipodi="http://sodipodi.sourceforge.net/DTD/sodipodi-0.dtd"
   xmlns:xlink="http://www.w3.org/1999/xlink"
   xmlns="http://www.w3.org/2000/svg"
   xmlns:svg="http://www.w3.org/2000/svg">
  <sodipodi:namedview
     id="namedview2721"
     pagecolor="#ffffff"
     bordercolor="#666666"
     borderopacity="1.0"
     inkscape:pageshadow="2"
     inkscape:pageopacity="0.0"
     inkscape:pagecheckerboard="0"
     inkscape:document-units="px"
     showgrid="false"
     units="px"
     inkscape:zoom="24.65625"
     inkscape:cx="16.060837"
     inkscape:cy="15.918885"
     inkscape:window-width="1920"
     inkscape:window-height="1016"
     inkscape:window-x="0"
     inkscape:window-y="0"
     inkscape:window-maximized="1"
     inkscape:current-layer="svg2719"
     showguides="false" />
  <defs
     id="defs2716">
    <linearGradient
       inkscape:collect="always"
       id="linearGradient1871">
      <stop
         style="stop-color:#ffffff;stop-opacity:1;"
         offset="0"
         id="stop1867" />
      <stop
         style="stop-color:#ffffff;stop-opacity:0.1"
         offset="0.12"
         id="stop2515" />
      <stop
         style="stop-color:#ffffff;stop-opacity:0.102"
         offset="0.89999998"
         id="stop2581" />
      <stop
         style="stop-color:#ffffff;stop-opacity:0.502"
         offset="1"
         id="stop1869" />
    </linearGradient>
    <linearGradient
       inkscape:collect="always"
       xlink:href="#linearGradient1871"
       id="linearGradient16320"
       x1="10"
       y1="4"
       x2="10"
       y2="29.100245"
       gradientUnits="userSpaceOnUse"
       gradientTransform="matrix(0.26458333,0,0,0.26458333,0,-0.26458332)" />
    <linearGradient
       inkscape:collect="always"
       id="linearGradient3598">
      <stop
         style="stop-color:#2de360;stop-opacity:1"
         offset="0"
         id="stop3594" />
      <stop
         style="stop-color:#388eba;stop-opacity:1"
         offset="1"
         id="stop3596" />
    </linearGradient>
    <linearGradient
       inkscape:collect="always"
       xlink:href="#linearGradient3598"
       id="linearGradient969"
       x1="31"
       y1="32"
       x2="0.99999958"
       y2="-2.6456692e-07"
       gradientUnits="userSpaceOnUse" />
  </defs>
  <path
     id="rect18683"
     style="opacity:0.1;fill:#000000;stroke-width:0.264583;stroke-linejoin:round"
     d="m 2.38125,0.92604165 c -1.45520832,0 -1.984375,0.52916665 -1.984375,1.98437495 v 3.0427085 c 0,1.5875 0.52916665,2.1166666 2.1166666,2.1166666 h 3.4395833 c 1.5875,0 2.1166667,-0.5291666 2.1166667,-2.1166666 V 3.0427083 c 0,-1.5875 -0.5291667,-2.11666665 -2.1166667,-2.11666665 z"
     sodipodi:nodetypes="sssssssss" />
  <path
     id="rect6397"
     style="fill:#ebebeb;fill-opacity:1;stroke-width:0.255274;stroke-linejoin:round"
     d="M 0.39687499,2.6458334 C 0.396875,1.190625 0.92604165,0.66145833 2.38125,0.66145834 h 3.571875 c 1.5874999,-1e-8 2.1166666,0.52916666 2.1166668,2.11666666 l 10e-8,2.9104168 c 0,1.5874999 -0.529166,2.1166666 -2.116666,2.1166666 H 2.5135417 c -1.58750001,0 -2.11666671,-0.5291667 -2.11666671,-2.1166667 z"
     sodipodi:nodetypes="ccccccccc" />
  <path
     id="rect2161"
     style="fill:url(#linearGradient969);fill-opacity:1;stroke-width:2;stroke-linecap:round;stroke-linejoin:round"
     d="M 10,6 C 6,6 5.0000001,7.0000001 5,11 v 10 c 4e-7,4 1,5 5,5 h 12 c 4,0 5,-1 5,-5 V 11 C 27,6.9999998 26,6 22,6 Z"
     transform="scale(0.26458333)"
     sodipodi:nodetypes="cssccsscc" />
  <path
     id="rect1372"
     style="opacity:0.1;fill:#ffffff;fill-opacity:1;stroke-width:0.264583;stroke-linejoin:round"
     d="m 0.396875,4.2333333 v 1.4552084 c 0,1.5874998 0.5291666,2.1166668 2.1166666,2.1166668 h 3.4395833 c 1.5875,0 2.1166666,-0.529167 2.1166666,-2.1166668 V 4.2333333 Z" />
  <path
     d="M 3.8314842,2.1166667 3.3572979,3.1612682 2.8967907,4.26085 2.4204084,5.2195148 2.06375,6.0854167 h 0.9041871 l 0.3271044,-0.8987896 1.8918237,0.1050396 0.3439584,0.79375 H 6.4313065 L 6.0413371,5.2332732 5.5762525,4.2814611 5.1226508,3.1750265 4.6416383,2.1166667 H 4.2343388 Z M 4.5598821,3.8553496 5.0593096,5.1749325 3.4345827,5.1131021 3.8697694,3.9584869 4.2343123,3.0896481 v -0.00534 l 0.3255433,0.7710227 z"
     style="fill:#ececec;stroke-width:0.264583;enable-background:new"
     id="path1099" />
  <path
     d="M 4.6416541,2.1166667 4.2434562,3.095625 4.8031029,4.4979167 5.059336,4.9102434 5.9285716,4.9337119 5.5762524,4.2814611 5.1226508,3.1750265 4.6416383,2.1166667 Z m -0.1362419,3.1445729 0.6982355,0.047501 0.3269456,0.7765521 h 0.899795 l -0.3366294,-0.7743296 -0.00733,-0.01942 z"
     style="opacity:0.2;fill:#34be5b;stroke-width:0.264583;enable-background:new;fill-opacity:1"
     id="path1214" />
  <path
     id="rect3097"
     style="opacity:1;fill:#ececec;stroke-width:0.287073"
     d="m 2.2489583,4.4979167 h 3.9687498 c 0.2198688,0 0.396875,0.1770062 0.396875,0.396875 0,0.2198687 -0.1770062,0.396875 -0.396875,0.396875 H 2.2489583 c -0.2198687,0 -0.396875,-0.1770063 -0.396875,-0.396875 0,-0.2198688 0.1770063,-0.396875 0.396875,-0.396875 z" />
  <path
     id="rect3386"
     style="opacity:1;fill:#999999;stroke-width:0.287073"
     d="m 2.2489584,4.7625 h 3.9687501 c 0.07329,0 0.1322916,0.059002 0.1322916,0.1322917 0,0.07329 -0.059002,0.1322916 -0.1322916,0.1322916 H 2.2489584 c -0.07329,0 -0.1322917,-0.059002 -0.1322917,-0.1322916 0,-0.07329 0.059002,-0.1322917 0.1322917,-0.1322917 z"
     sodipodi:nodetypes="sssssss" />
  <path
     id="rect4166"
     style="opacity:1;fill:#34be53;stroke-width:0.287073;fill-opacity:1"
     d="m 2.2489585,4.7624998 h 2.6458332 c 0.07329,0 0.1322917,0.059002 0.1322917,0.1322917 0,0.07329 -0.059002,0.1322917 -0.1322917,0.1322917 H 2.2489585 c -0.07329,0 -0.1322917,-0.059002 -0.1322917,-0.1322917 0,-0.07329 0.059002,-0.1322917 0.1322917,-0.1322917 z" />
  <circle
     style="opacity:0.4;fill:#000000;fill-opacity:1;stroke-width:0.287073"
     id="path3573"
     cx="4.8947916"
     cy="4.8947916"
     r="0.66145831" />
  <circle
     style="opacity:1;fill:#ececec;fill-opacity:1;stroke-width:0.287073"
     id="path3721"
     cx="4.8947916"
     cy="4.8947916"
     r="0.39687499" />
  <path
     id="rect13250"
     style="fill:url(#linearGradient16320);fill-opacity:1;stroke-width:0.264583;stroke-linejoin:round"
     d="m 2.6458333,0.79375 c -1.71979143,0 -2.11666664,0.396875 -2.11666664,2.1166666 v 2.6458335 c 0,1.7197919 0.39687515,2.1166666 2.11666664,2.1166666 h 3.175 c 1.7197913,0 2.1166666,-0.3968747 2.1166666,-2.1166666 V 2.9104166 C 7.9374999,1.190625 7.5406249,0.79375 5.8208333,0.79375 Z m 0,0.2645833 h 3.175 c 1.5213541,0 1.8520833,0.3307294 1.8520833,1.8520833 v 2.6458335 c 0,1.5213542 -0.3307292,1.8520833 -1.8520833,1.8520833 h -3.175 c -1.5213541,0 -1.85208331,-0.3307291 -1.85208331,-1.8520833 V 2.9104166 c 0,-1.521354 0.33072921,-1.8520834 1.85208331,-1.8520833 z"
     sodipodi:nodetypes="ssssssssssssssssss" />
  <path
     id="rect2545"
     style="opacity:0.4;fill:#000000;stroke-width:0.387914;stroke-linejoin:round"
     d="m 2.6458333,0.52916667 c -1.91822909,0 -2.38124997,0.4630208 -2.38124997,2.38124993 V 5.55625 c 0,1.8520831 0.52916735,2.38125 2.38124997,2.38125 h 3.175 c 1.8520841,0 2.3812499,-0.5291669 2.3812499,-2.38125 V 2.9104166 c 0,-1.8520832 -0.5291666,-2.38124988 -2.3812499,-2.38124993 z m 0,0.26458333 h 3.175 c 1.7197916,0 2.1166666,0.396875 2.1166666,2.1166666 V 5.55625 c 0,1.7197917 -0.3968753,2.1166666 -2.1166666,2.1166666 h -3.175 c -1.71979162,0 -2.11666664,-0.3968749 -2.11666664,-2.1166666 V 2.9104166 c 0,-1.7197916 0.39687505,-2.1166666 2.11666664,-2.1166666 z"
     sodipodi:nodetypes="ssssssssssssssssss" />
</svg>
