<?xml version="1.0" encoding="UTF-8" standalone="no"?>
<!-- Created with Inkscape (http://www.inkscape.org/) -->

<svg
   width="32"
   height="32"
   viewBox="0 0 8.4666665 8.4666669"
   version="1.1"
   id="svg2719"
   inkscape:version="1.1.2 (0a00cf5339, 2022-02-04)"
   sodipodi:docname="system-tray.svg"
   xmlns:inkscape="http://www.inkscape.org/namespaces/inkscape"
   xmlns:sodipodi="http://sodipodi.sourceforge.net/DTD/sodipodi-0.dtd"
   xmlns:xlink="http://www.w3.org/1999/xlink"
   xmlns="http://www.w3.org/2000/svg"
   xmlns:svg="http://www.w3.org/2000/svg">
  <sodipodi:namedview
     id="namedview2721"
     pagecolor="#ffffff"
     bordercolor="#666666"
     borderopacity="1.0"
     inkscape:pageshadow="2"
     inkscape:pageopacity="0.0"
     inkscape:pagecheckerboard="0"
     inkscape:document-units="px"
     showgrid="false"
     units="px"
     inkscape:zoom="12.375"
     inkscape:cx="10.141414"
     inkscape:cy="23.272727"
     inkscape:window-width="1920"
     inkscape:window-height="1010"
     inkscape:window-x="0"
     inkscape:window-y="0"
     inkscape:window-maximized="1"
     inkscape:current-layer="svg2719" />
  <defs
     id="defs2716">
    <linearGradient
       inkscape:collect="always"
       id="linearGradient1871">
      <stop
         style="stop-color:#ffffff;stop-opacity:1;"
         offset="0"
         id="stop1867" />
      <stop
         style="stop-color:#ffffff;stop-opacity:0.1"
         offset="0.12"
         id="stop2515" />
      <stop
         style="stop-color:#ffffff;stop-opacity:0.102"
         offset="0.89999998"
         id="stop2581" />
      <stop
         style="stop-color:#ffffff;stop-opacity:0.502"
         offset="1"
         id="stop1869" />
    </linearGradient>
    <linearGradient
       inkscape:collect="always"
       xlink:href="#linearGradient1871"
       id="linearGradient16320"
       x1="10"
       y1="4"
       x2="10"
       y2="29.100245"
       gradientUnits="userSpaceOnUse"
       gradientTransform="matrix(0.26458333,0,0,0.26458333,0,-0.26458332)" />
    <linearGradient
       inkscape:collect="always"
       xlink:href="#linearGradient3598"
       id="linearGradient3600"
       x1="12.262125"
       y1="9.7353592"
       x2="0.36087561"
       y2="4.2708535"
       gradientUnits="userSpaceOnUse"
       gradientTransform="matrix(2.4356956,0,0,2.4296963,0.53333328,0.89285725)" />
    <linearGradient
       inkscape:collect="always"
       id="linearGradient3598">
      <stop
         style="stop-color:#2de360;stop-opacity:1"
         offset="0"
         id="stop3594" />
      <stop
         style="stop-color:#388eba;stop-opacity:1"
         offset="1"
         id="stop3596" />
    </linearGradient>
  </defs>
  <path
     id="rect18683"
     style="opacity:0.1;fill:#000000;stroke-width:0.264583;stroke-linejoin:round"
     d="m 2.38125,0.92604165 c -1.45520832,0 -1.984375,0.52916665 -1.984375,1.98437495 v 3.0427085 c 0,1.5875 0.52916665,2.1166666 2.1166666,2.1166666 h 3.4395833 c 1.5875,0 2.1166667,-0.5291666 2.1166667,-2.1166666 V 3.0427083 c 0,-1.5875 -0.5291667,-2.11666665 -2.1166667,-2.11666665 z"
     sodipodi:nodetypes="sssssssss" />
  <path
     id="rect877"
     style="display:inline;fill:url(#linearGradient3600);fill-opacity:1;stroke:none;stroke-width:0.241369;stroke-linecap:round;stroke-linejoin:round;stroke-miterlimit:4;stroke-dasharray:none;stroke-dashoffset:0;stroke-opacity:1;enable-background:new"
     d="M 9,2.5 C 3.5,2.5 1.5,4.4999998 1.5,10 v 11.5 c 0,6 2,8 8,8 h 13 c 6,0 8,-2 8,-8 v -11 c -1e-6,-6 -2,-8 -8,-8 z"
     transform="scale(0.26458333)"
     sodipodi:nodetypes="cccccsscc" />
  <path
     id="rect857"
     style="opacity:0.3;fill:#000000;stroke-width:2.26779;stroke-linecap:round;stroke-linejoin:round"
     d="M 1.5488281 23 C 1.8859905 27.837209 4.0313556 29.5 9.5 29.5 L 22.5 29.5 C 27.968645 29.5 30.11401 27.837209 30.451172 23 L 1.5488281 23 z "
     transform="scale(0.26458333)" />
  <path
     id="path31"
     style="stroke-width:0.344408;fill:#000000;opacity:0.1"
     d="m 4.6302083,6.6145833 c -0.1267143,0 -0.2188422,0.038451 -0.2893881,0.1167887 -0.072446,0.080465 -0.1074869,0.1713479 -0.1074869,0.2800863 0,0.1087385 0.035063,0.1996292 0.1074869,0.2800864 0.070541,0.078359 0.1626685,0.1167886 0.2893881,0.1167886 0.1267168,0 0.2193589,-0.038453 0.2899047,-0.1167886 C 4.992545,7.2110827 5.0270832,7.1201809 5.0270832,7.0114583 5.0270832,6.9027358 4.9925662,6.8118424 4.920113,6.731372 4.8495619,6.6530077 4.7569199,6.6145833 4.6302083,6.6145833 Z m 1.0583333,0 c -0.1267143,0 -0.2188422,0.038451 -0.289388,0.1167887 -0.072446,0.080465 -0.107487,0.1713479 -0.107487,0.2800863 0,0.1087385 0.035063,0.1996292 0.107487,0.2800864 0.07054,0.078359 0.1626684,0.1167886 0.289388,0.1167886 0.1267169,0 0.2193589,-0.038453 0.2899047,-0.1167886 0.072432,-0.080462 0.1069703,-0.1713638 0.1069703,-0.2800864 0,-0.1087225 -0.034517,-0.1996159 -0.1069703,-0.2800863 C 5.9078952,6.6530077 5.8152532,6.6145833 5.6885416,6.6145833 Z m 1.0583333,0 c -0.1267143,0 -0.2188422,0.038451 -0.289388,0.1167887 -0.072446,0.080465 -0.107487,0.1713479 -0.107487,0.2800863 0,0.1087385 0.035063,0.1996292 0.107487,0.2800864 0.07054,0.078359 0.1626685,0.1167886 0.289388,0.1167886 0.1267169,0 0.2193589,-0.038453 0.2899047,-0.1167886 0.072432,-0.080462 0.1069703,-0.1713638 0.1069703,-0.2800864 0,-0.1087225 -0.034517,-0.1996159 -0.1069703,-0.2800863 C 6.9662285,6.6530077 6.8735865,6.6145833 6.7468749,6.6145833 Z" />
  <path
     id="path33"
     style="stroke-width:0.344408;fill:#faf8f6;fill-opacity:1"
     d="M 4.6302083,6.35 C 4.503494,6.35 4.4113661,6.388451 4.3408202,6.4667887 4.2683742,6.5472537 4.2333333,6.6381366 4.2333333,6.746875 c 0,0.1087385 0.035063,0.1996292 0.1074869,0.2800863 0.070541,0.078359 0.1626685,0.1167887 0.2893881,0.1167887 0.1267168,0 0.2193589,-0.038454 0.2899047,-0.1167887 C 4.992545,6.9464993 5.0270832,6.8555976 5.0270832,6.746875 5.0270832,6.6381524 4.9925662,6.5472591 4.920113,6.4667887 4.8495619,6.3884244 4.7569199,6.35 4.6302083,6.35 Z m 1.0583333,0 c -0.1267143,0 -0.2188422,0.038451 -0.289388,0.1167887 -0.072446,0.080465 -0.107487,0.1713479 -0.107487,0.2800863 0,0.1087385 0.035063,0.1996292 0.107487,0.2800863 0.07054,0.078359 0.1626684,0.1167887 0.289388,0.1167887 0.1267169,0 0.2193589,-0.038454 0.2899047,-0.1167887 0.072432,-0.080462 0.1069703,-0.1713637 0.1069703,-0.2800863 0,-0.1087226 -0.034517,-0.1996159 -0.1069703,-0.2800863 C 5.9078952,6.3884244 5.8152532,6.35 5.6885416,6.35 Z m 1.0583333,0 c -0.1267143,0 -0.2188422,0.038451 -0.289388,0.1167887 -0.072446,0.080465 -0.107487,0.1713479 -0.107487,0.2800863 0,0.1087385 0.035063,0.1996292 0.107487,0.2800863 0.07054,0.078359 0.1626685,0.1167887 0.289388,0.1167887 0.1267169,0 0.2193589,-0.038454 0.2899047,-0.1167887 0.072432,-0.080462 0.1069703,-0.1713637 0.1069703,-0.2800863 0,-0.1087226 -0.034517,-0.1996159 -0.1069703,-0.2800863 C 6.9662285,6.3884244 6.8735865,6.35 6.7468749,6.35 Z" />
  <path
     id="rect13250"
     style="fill:url(#linearGradient16320);fill-opacity:1;stroke-width:0.264583;stroke-linejoin:round;opacity:0.3"
     d="m 2.6458333,0.79375 c -1.71979143,0 -2.11666664,0.396875 -2.11666664,2.1166666 v 2.6458335 c 0,1.7197919 0.39687515,2.1166666 2.11666664,2.1166666 h 3.175 c 1.7197913,0 2.1166666,-0.3968747 2.1166666,-2.1166666 V 2.9104166 C 7.9374999,1.190625 7.5406249,0.79375 5.8208333,0.79375 Z m 0,0.2645833 h 3.175 c 1.5213541,0 1.8520833,0.3307294 1.8520833,1.8520833 v 2.6458335 c 0,1.5213542 -0.3307292,1.8520833 -1.8520833,1.8520833 h -3.175 c -1.5213541,0 -1.85208331,-0.3307291 -1.85208331,-1.8520833 V 2.9104166 c 0,-1.521354 0.33072921,-1.8520834 1.85208331,-1.8520833 z"
     sodipodi:nodetypes="ssssssssssssssssss" />
  <path
     id="rect2545"
     style="opacity:0.4;fill:#000000;stroke-width:0.387914;stroke-linejoin:round"
     d="m 2.6458333,0.52916667 c -1.91822909,0 -2.38124997,0.4630208 -2.38124997,2.38124993 V 5.55625 c 0,1.8520831 0.52916735,2.38125 2.38124997,2.38125 h 3.175 c 1.8520841,0 2.3812499,-0.5291669 2.3812499,-2.38125 V 2.9104166 c 0,-1.8520832 -0.5291666,-2.38124988 -2.3812499,-2.38124993 z m 0,0.26458333 h 3.175 c 1.7197916,0 2.1166666,0.396875 2.1166666,2.1166666 V 5.55625 c 0,1.7197917 -0.3968753,2.1166666 -2.1166666,2.1166666 h -3.175 c -1.71979162,0 -2.11666664,-0.3968749 -2.11666664,-2.1166666 V 2.9104166 c 0,-1.7197916 0.39687505,-2.1166666 2.11666664,-2.1166666 z"
     sodipodi:nodetypes="ssssssssssssssssss" />
</svg>
