<?xml version="1.0" encoding="UTF-8" standalone="no"?>
<!-- Created with Inkscape (http://www.inkscape.org/) -->

<svg
   width="32"
   height="32"
   viewBox="0 0 8.4666665 8.4666669"
   version="1.1"
   id="svg2719"
   inkscape:version="1.1.2 (0a00cf5339, 2022-02-04)"
   sodipodi:docname="utilities-tweak-tool.svg"
   xmlns:inkscape="http://www.inkscape.org/namespaces/inkscape"
   xmlns:sodipodi="http://sodipodi.sourceforge.net/DTD/sodipodi-0.dtd"
   xmlns:xlink="http://www.w3.org/1999/xlink"
   xmlns="http://www.w3.org/2000/svg"
   xmlns:svg="http://www.w3.org/2000/svg">
  <sodipodi:namedview
     id="namedview2721"
     pagecolor="#ffffff"
     bordercolor="#666666"
     borderopacity="1.0"
     inkscape:pageshadow="2"
     inkscape:pageopacity="0.0"
     inkscape:pagecheckerboard="0"
     inkscape:document-units="px"
     showgrid="false"
     units="px"
     inkscape:zoom="17.500893"
     inkscape:cx="5.5997143"
     inkscape:cy="17.684812"
     inkscape:window-width="1920"
     inkscape:window-height="1016"
     inkscape:window-x="0"
     inkscape:window-y="0"
     inkscape:window-maximized="1"
     inkscape:current-layer="svg2719" />
  <defs
     id="defs2716">
    <linearGradient
       inkscape:collect="always"
       id="linearGradient1123">
      <stop
         style="stop-color:#f7f7f7;stop-opacity:1;"
         offset="0"
         id="stop1119" />
      <stop
         style="stop-color:#e6e6e6;stop-opacity:1"
         offset="1"
         id="stop1121" />
    </linearGradient>
    <linearGradient
       inkscape:collect="always"
       id="linearGradient1871">
      <stop
         style="stop-color:#ffffff;stop-opacity:1;"
         offset="0"
         id="stop1867" />
      <stop
         style="stop-color:#ffffff;stop-opacity:0.1"
         offset="0.12"
         id="stop2515" />
      <stop
         style="stop-color:#ffffff;stop-opacity:0.102"
         offset="0.89999998"
         id="stop2581" />
      <stop
         style="stop-color:#ffffff;stop-opacity:0.502"
         offset="1"
         id="stop1869" />
    </linearGradient>
    <linearGradient
       inkscape:collect="always"
       xlink:href="#linearGradient1871"
       id="linearGradient16320"
       x1="10"
       y1="4"
       x2="10"
       y2="29.100245"
       gradientUnits="userSpaceOnUse"
       gradientTransform="matrix(0.26458333,0,0,0.26458333,0,-0.26458332)" />
    <linearGradient
       inkscape:collect="always"
       xlink:href="#linearGradient1123"
       id="linearGradient1125"
       x1="0.39687499"
       y1="4.2333334"
       x2="8.0697919"
       y2="4.2333334"
       gradientUnits="userSpaceOnUse" />
    <linearGradient
       inkscape:collect="always"
       xlink:href="#linearGradient4938"
       id="linearGradient4940"
       x1="8.9958334"
       y1="2.1166666"
       x2="10.054167"
       y2="5.8208332"
       gradientUnits="userSpaceOnUse"
       gradientTransform="matrix(0.64285711,0,0,0.64285711,0.15119065,0.22678577)" />
    <linearGradient
       inkscape:collect="always"
       id="linearGradient4938">
      <stop
         style="stop-color:#2ea750;stop-opacity:1"
         offset="0"
         id="stop4934" />
      <stop
         style="stop-color:#34be5b;stop-opacity:1"
         offset="1"
         id="stop4936" />
    </linearGradient>
  </defs>
  <path
     id="rect18683"
     style="opacity:0.1;fill:#000000;stroke-width:0.264583;stroke-linejoin:round"
     d="m 2.38125,0.92604165 c -1.45520832,0 -1.984375,0.52916665 -1.984375,1.98437495 v 3.0427085 c 0,1.5875 0.52916665,2.1166666 2.1166666,2.1166666 h 3.4395833 c 1.5875,0 2.1166667,-0.5291666 2.1166667,-2.1166666 V 3.0427083 c 0,-1.5875 -0.5291667,-2.11666665 -2.1166667,-2.11666665 z"
     sodipodi:nodetypes="sssssssss" />
  <path
     id="rect6397"
     style="fill:url(#linearGradient1125);fill-opacity:1;stroke-width:0.255274;stroke-linejoin:round"
     d="M 0.39687499,2.6458334 C 0.396875,1.190625 0.92604165,0.66145833 2.38125,0.66145834 h 3.571875 c 1.5874999,-1e-8 2.1166666,0.52916666 2.1166668,2.11666666 l 10e-8,2.9104168 c 0,1.5874999 -0.529166,2.1166666 -2.116666,2.1166666 H 2.5135417 c -1.58750001,0 -2.11666671,-0.5291667 -2.11666671,-2.1166667 z"
     sodipodi:nodetypes="ccccccccc" />
  <path
     id="rect13250"
     style="fill:url(#linearGradient16320);fill-opacity:1;stroke-width:0.264583;stroke-linejoin:round;opacity:0.3"
     d="m 2.6458333,0.79375 c -1.71979143,0 -2.11666664,0.396875 -2.11666664,2.1166666 v 2.6458335 c 0,1.7197919 0.39687515,2.1166666 2.11666664,2.1166666 h 3.175 c 1.7197913,0 2.1166666,-0.3968747 2.1166666,-2.1166666 V 2.9104166 C 7.9374999,1.190625 7.5406249,0.79375 5.8208333,0.79375 Z m 0,0.2645833 h 3.175 c 1.5213541,0 1.8520833,0.3307294 1.8520833,1.8520833 v 2.6458335 c 0,1.5213542 -0.3307292,1.8520833 -1.8520833,1.8520833 h -3.175 c -1.5213541,0 -1.85208331,-0.3307291 -1.85208331,-1.8520833 V 2.9104166 c 0,-1.521354 0.33072921,-1.8520834 1.85208331,-1.8520833 z"
     sodipodi:nodetypes="ssssssssssssssssss" />
  <path
     id="rect2545"
     style="opacity:0.4;fill:#000000;stroke-width:0.387914;stroke-linejoin:round"
     d="m 2.6458333,0.52916667 c -1.91822909,0 -2.38124997,0.4630208 -2.38124997,2.38124993 V 5.55625 c 0,1.8520831 0.52916735,2.38125 2.38124997,2.38125 h 3.175 c 1.8520841,0 2.3812499,-0.5291669 2.3812499,-2.38125 V 2.9104166 c 0,-1.8520832 -0.5291666,-2.38124988 -2.3812499,-2.38124993 z m 0,0.26458333 h 3.175 c 1.7197916,0 2.1166666,0.396875 2.1166666,2.1166666 V 5.55625 c 0,1.7197917 -0.3968753,2.1166666 -2.1166666,2.1166666 h -3.175 c -1.71979162,0 -2.11666664,-0.3968749 -2.11666664,-2.1166666 V 2.9104166 c 0,-1.7197916 0.39687505,-2.1166666 2.11666664,-2.1166666 z"
     sodipodi:nodetypes="ssssssssssssssssss" />
  <path
     id="rect2694"
     style="fill:url(#linearGradient4940);stroke-width:0.170089;stroke-linejoin:round"
     d="m 3.0427082,1.5875 h 2.3812499 c 0.6596062,0 1.1906252,0.5310187 1.1906252,1.1906249 0,0.6596062 -0.531019,1.1906249 -1.1906252,1.1906249 H 3.0427082 c -0.6596062,0 -1.1906249,-0.5310187 -1.1906249,-1.1906249 0,-0.6596062 0.5310187,-1.1906249 1.1906249,-1.1906249 z"
     sodipodi:nodetypes="sssssss" />
  <path
     id="path1071"
     style="opacity:0.6;fill:#ffffff;stroke-width:0.0450027;stroke-linejoin:round"
     d="m 1.8593181,2.9104167 c -0.00477,0.043467 -0.00723,0.087514 -0.00723,0.1322917 0,0.6596062 0.531019,1.1906249 1.190625,1.1906249 h 2.38125 c 0.6596062,0 1.190625,-0.5310187 1.190625,-1.1906249 0,-0.044778 -0.00247,-0.088825 -0.00723,-0.1322917 C 6.5418788,3.5072429 6.038791,3.96875 5.4239628,3.96875 H 3.0427083 c -0.6148279,0 -1.1179159,-0.4615071 -1.1833902,-1.0583333 z" />
  <path
     id="path872"
     style="opacity:0.2;fill:#000000;stroke-width:0.0450027;stroke-linejoin:round"
     d="m 3.0427083,1.5875 c -0.659606,0 -1.190625,0.531019 -1.190625,1.190625 0,0.044778 0.00246,0.088825 0.00723,0.1322917 0.065475,-0.5968259 0.5685634,-1.0583333 1.1833913,-1.0583333 h 2.38125 c 0.6148281,0 1.1179159,0.4615074 1.1833902,1.0583333 0.00477,-0.043467 0.00724,-0.087514 0.00724,-0.1322917 0,-0.659606 -0.5310188,-1.190625 -1.190625,-1.190625 z" />
  <circle
     style="opacity:0.1;fill:#000000;fill-opacity:1;stroke-width:0.15434;stroke-linejoin:round"
     id="path4786"
     cx="5.4239578"
     cy="3.0427082"
     r="0.92604166" />
  <circle
     style="fill:#ffffff;fill-opacity:1;stroke-width:0.15434;stroke-linejoin:round"
     id="path4592"
     cx="5.4239583"
     cy="2.778125"
     r="0.92604166" />
  <path
     id="rect2930"
     style="fill:#dedede;stroke-width:0.170089;stroke-linejoin:round"
     d="m 3.0427082,4.4979168 h 2.3812497 c 0.6596062,0 1.1906253,0.5310187 1.1906253,1.190625 0,0.6596063 -0.5310191,1.1906247 -1.1906253,1.1906247 H 3.0427082 c -0.6596063,0 -1.190625,-0.5310184 -1.190625,-1.1906247 0,-0.6596063 0.5310187,-1.190625 1.190625,-1.190625 z" />
  <path
     id="rect3290"
     style="opacity:0.1;fill:#000000;fill-opacity:1;stroke-width:0.170089;stroke-linejoin:round"
     d="m 3.0427082,4.4979168 c -0.6596063,0 -1.190625,0.5310187 -1.190625,1.190625 0,0.6596062 0.5310187,1.1906249 1.190625,1.1906249 h 2.38125 c 0.6596062,0 1.1906249,-0.5310187 1.1906249,-1.1906249 0,-0.6596063 -0.5310187,-1.190625 -1.1906249,-1.190625 z m 0,0.2645833 h 2.38125 c 0.513027,0 0.9260416,0.4130146 0.9260416,0.9260417 0,0.513027 -0.4130146,0.9260416 -0.9260416,0.9260416 h -2.38125 c -0.5130271,0 -0.9260417,-0.4130146 -0.9260417,-0.9260416 0,-0.5130271 0.4130146,-0.9260417 0.9260417,-0.9260417 z" />
  <circle
     style="opacity:0.2;fill:#000000;fill-opacity:1;stroke-width:0.170088;stroke-linejoin:round"
     id="path3871"
     cx="3.0427082"
     cy="5.6885414"
     r="1.190625" />
  <circle
     style="fill:#ffffff;fill-opacity:1;stroke-width:0.150624;stroke-linejoin:round"
     id="path3997"
     cx="3.0427082"
     cy="5.6885414"
     r="0.92604166" />
</svg>
