<?xml version="1.0" encoding="UTF-8" standalone="no"?>
<!-- Created with Inkscape (http://www.inkscape.org/) -->

<svg
   width="32"
   height="32"
   viewBox="0 0 8.4666665 8.4666669"
   version="1.1"
   id="svg2719"
   inkscape:version="1.1.2 (0a00cf5339, 2022-02-04)"
   sodipodi:docname="vlc.svg"
   xmlns:inkscape="http://www.inkscape.org/namespaces/inkscape"
   xmlns:sodipodi="http://sodipodi.sourceforge.net/DTD/sodipodi-0.dtd"
   xmlns:xlink="http://www.w3.org/1999/xlink"
   xmlns="http://www.w3.org/2000/svg"
   xmlns:svg="http://www.w3.org/2000/svg">
  <sodipodi:namedview
     id="namedview2721"
     pagecolor="#ffffff"
     bordercolor="#666666"
     borderopacity="1.0"
     inkscape:pageshadow="2"
     inkscape:pageopacity="0.0"
     inkscape:pagecheckerboard="0"
     inkscape:document-units="px"
     showgrid="false"
     units="px"
     inkscape:zoom="18.318485"
     inkscape:cx="14.68462"
     inkscape:cy="23.255198"
     inkscape:window-width="1920"
     inkscape:window-height="1019"
     inkscape:window-x="0"
     inkscape:window-y="0"
     inkscape:window-maximized="1"
     inkscape:current-layer="svg2719" />
  <defs
     id="defs2716">
    <linearGradient
       inkscape:collect="always"
       id="linearGradient1871">
      <stop
         style="stop-color:#ffffff;stop-opacity:1;"
         offset="0"
         id="stop1867" />
      <stop
         style="stop-color:#ffffff;stop-opacity:0.1"
         offset="0.12"
         id="stop2515" />
      <stop
         style="stop-color:#ffffff;stop-opacity:0.102"
         offset="0.89999998"
         id="stop2581" />
      <stop
         style="stop-color:#ffffff;stop-opacity:0.502"
         offset="1"
         id="stop1869" />
    </linearGradient>
    <linearGradient
       inkscape:collect="always"
       xlink:href="#linearGradient1871"
       id="linearGradient16320"
       x1="10"
       y1="4"
       x2="10"
       y2="29.100245"
       gradientUnits="userSpaceOnUse"
       gradientTransform="matrix(0.26458333,0,0,0.26458333,0,-0.26458332)" />
    <linearGradient
       inkscape:collect="always"
       id="linearGradient6650">
      <stop
         style="stop-color:#f99907;stop-opacity:1;"
         offset="0"
         id="stop6646" />
      <stop
         style="stop-color:#e56001;stop-opacity:1"
         offset="1"
         id="stop6648" />
    </linearGradient>
    <linearGradient
       inkscape:collect="always"
       xlink:href="#linearGradient6650"
       id="linearGradient1044"
       x1="4.2333331"
       y1="0.5291667"
       x2="4.2333331"
       y2="7.9375"
       gradientUnits="userSpaceOnUse" />
  </defs>
  <path
     id="rect18683"
     style="opacity:0.1;fill:#000000;stroke-width:0.264583;stroke-linejoin:round"
     d="m 2.38125,0.92604165 c -1.45520832,0 -1.984375,0.52916665 -1.984375,1.98437495 v 3.0427085 c 0,1.5875 0.52916665,2.1166666 2.1166666,2.1166666 h 3.4395833 c 1.5875,0 2.1166667,-0.5291666 2.1166667,-2.1166666 V 3.0427083 c 0,-1.5875 -0.5291667,-2.11666665 -2.1166667,-2.11666665 z"
     sodipodi:nodetypes="sssssssss" />
  <path
     id="rect6397"
     style="fill:url(#linearGradient1044);fill-opacity:1;stroke-width:0.255274;stroke-linejoin:round"
     d="M 0.39687499,2.6458334 C 0.396875,1.190625 0.92604165,0.66145833 2.38125,0.66145834 h 3.571875 c 1.5874999,-1e-8 2.1166666,0.52916666 2.1166668,2.11666666 l 10e-8,2.9104168 c 0,1.5874999 -0.529166,2.1166666 -2.116666,2.1166666 H 2.5135417 c -1.58750001,0 -2.11666671,-0.5291667 -2.11666671,-2.1166667 z"
     sodipodi:nodetypes="ccccccccc" />
  <path
     id="path2612"
     style="fill:#ffffff;fill-opacity:1;fill-rule:evenodd;stroke:none;stroke-width:0.00691928"
     d="m 4.2300589,1.5875976 c -0.1157459,-0.00116 -0.1838477,0.00741 -0.2521204,0.058754 -0.031168,0.023426 -0.055791,0.079058 -0.070502,0.1191147 l -0.754227,2.4899344 c 0.2516884,0.2020109 0.6429439,0.331977 1.0824591,0.331977 0.4380496,0 0.8282518,-0.1289408 1.0800285,-0.3298004 L 4.5278445,1.6925608 c -0.00511,-0.016404 -0.017286,-0.028451 -0.02697,-0.037641 -0.072584,-0.068791 -0.1825637,-0.066428 -0.2708107,-0.06731 z m 0.493282,0.7419415 0.2932576,0.9545212 c -0.1923442,0.097367 -0.469704,0.1583789 -0.7779989,0.1583789 -0.3145107,0 -0.5965713,-0.063694 -0.7892011,-0.1645171 L 3.7359656,2.3316734 c 0.1275993,0.041787 0.3003539,0.067574 0.4906203,0.067574 0.1934132,0 0.3685682,-0.026688 0.496755,-0.069708 z M 2.5198754,4.9083978 c -0.069639,0 -0.1419397,0.053658 -0.1621187,0.1204723 L 1.8711513,6.6407343 c -5.622e-4,0.00177 -5.952e-4,0.00352 -0.00107,0.00548 -0.00229,0.00548 -0.00474,0.011112 -0.00634,0.016404 -0.013759,0.045739 -0.019209,0.1139472 0.00566,0.1546931 0.018291,0.0299 0.042299,0.060169 0.077364,0.060169 0.7501084,1.088e-4 2.2864969,0.00169 2.2864969,0.00169 l 2.63e-5,-8.124e-4 1.43e-5,8.124e-4 c 0,0 1.5365212,-0.0015 2.2866297,-0.00169 0.035064,-6.8e-6 0.059054,-0.030269 0.077364,-0.060169 0.024941,-0.040763 0.019543,-0.1089544 0.00566,-0.1546931 -0.00161,-0.00548 -0.00406,-0.010922 -0.00636,-0.016404 -4.63e-4,-0.00177 -5.125e-4,-0.00352 -0.00107,-0.00548 L 6.1088786,5.0288703 C 6.0886998,4.9620555 6.0163988,4.9083981 5.9467603,4.9083981 H 5.5111677 5.5111129 C 5.5775049,5.1275363 5.5276939,5.2056692 5.3897582,5.2933234 5.077191,5.4877698 4.6737205,5.6049466 4.2332405,5.6049466 c -7.1e-6,0 -7.1e-6,2.81e-5 -1.41e-5,2.81e-5 -7e-6,0 -2.11e-5,-2.81e-5 -2.84e-5,-2.81e-5 -0.4404781,0 -0.8439504,-0.1171746 -1.1565171,-0.3116232 C 2.9387982,5.2056762 2.8889403,5.1275363 2.9553262,4.9083978 h -5.48e-5 z"
     sodipodi:nodetypes="ccccscccccccsccscscccccccccccccccscccssscccs" />
  <path
     id="rect13250"
     style="opacity:0.4;fill:url(#linearGradient16320);fill-opacity:1;stroke-width:0.264583;stroke-linejoin:round"
     d="m 2.6458333,0.79375 c -1.71979143,0 -2.11666664,0.396875 -2.11666664,2.1166666 v 2.6458335 c 0,1.7197919 0.39687515,2.1166666 2.11666664,2.1166666 h 3.175 c 1.7197913,0 2.1166666,-0.3968747 2.1166666,-2.1166666 V 2.9104166 C 7.9374999,1.190625 7.5406249,0.79375 5.8208333,0.79375 Z m 0,0.2645833 h 3.175 c 1.5213541,0 1.8520833,0.3307294 1.8520833,1.8520833 v 2.6458335 c 0,1.5213542 -0.3307292,1.8520833 -1.8520833,1.8520833 h -3.175 c -1.5213541,0 -1.85208331,-0.3307291 -1.85208331,-1.8520833 V 2.9104166 c 0,-1.521354 0.33072921,-1.8520834 1.85208331,-1.8520833 z"
     sodipodi:nodetypes="ssssssssssssssssss" />
  <path
     id="rect2545"
     style="opacity:0.4;fill:#000000;stroke-width:0.387914;stroke-linejoin:round"
     d="m 2.6458333,0.52916667 c -1.91822909,0 -2.38124997,0.4630208 -2.38124997,2.38124993 V 5.55625 c 0,1.8520831 0.52916735,2.38125 2.38124997,2.38125 h 3.175 c 1.8520841,0 2.3812499,-0.5291669 2.3812499,-2.38125 V 2.9104166 c 0,-1.8520832 -0.5291666,-2.38124988 -2.3812499,-2.38124993 z m 0,0.26458333 h 3.175 c 1.7197916,0 2.1166666,0.396875 2.1166666,2.1166666 V 5.55625 c 0,1.7197917 -0.3968753,2.1166666 -2.1166666,2.1166666 h -3.175 c -1.71979162,0 -2.11666664,-0.3968749 -2.11666664,-2.1166666 V 2.9104166 c 0,-1.7197916 0.39687505,-2.1166666 2.11666664,-2.1166666 z"
     sodipodi:nodetypes="ssssssssssssssssss" />
</svg>
