<?xml version="1.0" encoding="UTF-8" standalone="no"?>
<svg
   width="48"
   height="48"
   version="1"
   id="svg55"
   sodipodi:docname="audio-headphones.svg"
   inkscape:version="1.1.2 (0a00cf5339, 2022-02-04)"
   xmlns:inkscape="http://www.inkscape.org/namespaces/inkscape"
   xmlns:sodipodi="http://sodipodi.sourceforge.net/DTD/sodipodi-0.dtd"
   xmlns:xlink="http://www.w3.org/1999/xlink"
   xmlns="http://www.w3.org/2000/svg"
   xmlns:svg="http://www.w3.org/2000/svg">
  <sodipodi:namedview
     id="namedview57"
     pagecolor="#ffffff"
     bordercolor="#666666"
     borderopacity="1.0"
     inkscape:pageshadow="2"
     inkscape:pageopacity="0.0"
     inkscape:pagecheckerboard="0"
     showgrid="false"
     showguides="false"
     inkscape:zoom="16.4375"
     inkscape:cx="23.634981"
     inkscape:cy="25.095057"
     inkscape:window-width="1851"
     inkscape:window-height="1016"
     inkscape:window-x="0"
     inkscape:window-y="0"
     inkscape:window-maximized="1"
     inkscape:current-layer="svg55" />
  <defs
     id="defs23">
    <linearGradient
       id="linearGradient8588"
       x1="13.735"
       x2="38.1"
       y1="249.69"
       y2="292.77"
       gradientTransform="matrix(0.94488,0,0,0.94488,-88.258661,-206.99044)"
       gradientUnits="userSpaceOnUse">
      <stop
         stop-color="#62237c"
         offset="0"
         id="stop2" />
      <stop
         stop-color="#c43ac4"
         offset="1"
         id="stop4" />
    </linearGradient>
    <linearGradient
       id="linearGradient8590"
       x1="96"
       x2="96"
       y1="4"
       y2="188"
       gradientTransform="matrix(.23913 0 0 .23913 1.0435 1.0435)"
       gradientUnits="userSpaceOnUse"
       xlink:href="#linearGradient927" />
    <linearGradient
       id="linearGradient927">
      <stop
         stop-color="#fff"
         offset="0"
         id="stop8" />
      <stop
         stop-color="#fff"
         stop-opacity=".098039"
         offset=".125"
         id="stop10" />
      <stop
         stop-color="#fff"
         stop-opacity=".098039"
         offset=".925"
         id="stop12" />
      <stop
         stop-color="#fff"
         stop-opacity=".49804"
         offset="1"
         id="stop14" />
    </linearGradient>
    <linearGradient
       id="linearGradient4704"
       x1="340"
       x2="347"
       y1="64"
       y2="103"
       gradientTransform="translate(-320,-60)"
       gradientUnits="userSpaceOnUse">
      <stop
         stop-color="#e5e5e5"
         offset="0"
         id="stop17" />
      <stop
         stop-color="#eaeaea"
         offset="1"
         id="stop19" />
    </linearGradient>
    <linearGradient
       id="linearGradient3647"
       x1="344"
       x2="344"
       y1="83"
       y2="101"
       gradientTransform="translate(-320,-60)"
       gradientUnits="userSpaceOnUse"
       xlink:href="#linearGradient927" />
    <linearGradient
       inkscape:collect="always"
       id="linearGradient3598">
      <stop
         style="stop-color:#28c8fd;stop-opacity:1"
         offset="0"
         id="stop3594" />
      <stop
         style="stop-color:#0829dc;stop-opacity:1"
         offset="1"
         id="stop3596" />
    </linearGradient>
    <linearGradient
       inkscape:collect="always"
       xlink:href="#linearGradient3598"
       id="linearGradient1229"
       x1="25.5"
       y1="46"
       x2="14.5"
       y2="2"
       gradientUnits="userSpaceOnUse" />
  </defs>
  <circle
     style="opacity:1;fill:url(#linearGradient1229);stroke-width:1.085;fill-opacity:1"
     id="path1053"
     cx="24"
     cy="24"
     r="22.5" />
  <circle
     transform="scale(-1)"
     cx="-24"
     cy="-25"
     r="23"
     enable-background="new"
     opacity=".1"
     id="circle25" />
  <path
     d="M 24,1.9999995 C 11.573593,1.9999995 1.5,12.073593 1.5,24.5 c 0.0026,2.734352 0.503654,5.445325 1.4785004,8 H 16.1175 l 2.9004,-10.631 c 0.05889,-0.217114 0.255513,-0.368177 0.48047,-0.36914 0.243575,-7.49e-4 0.452255,0.174112 0.49414,0.41406 l 3.1152,17.795 3.9102,-14.34 c 0.135401,-0.504167 0.855688,-0.489675 0.9707,0.01953 l 2.1582,9.5 0.89454,-2.0859 c 0.07881,-0.183514 0.25926,-0.302533 0.45898,-0.30273 h 13.502 c 0.981505,-2.55343 1.489143,-5.264442 1.498,-8 0,-12.426407 -10.073593,-22.5000005 -22.5,-22.5000005 z"
     style="opacity:0.2;fill:#23397c;enable-background:new;fill-opacity:1"
     id="path2826" />
  <circle
     cx="24"
     cy="24"
     r="22.5"
     enable-background="new"
     fill="none"
     opacity=".4"
     stroke="#000"
     stroke-dashoffset="6.6"
     stroke-linejoin="round"
     id="circle31" />
  <path
     d="m24 2a22 22 0 0 0-22 22 22 22 0 0 0 22 22 22 22 0 0 0 22-22 22 22 0 0 0-22-22zm0 0.95653a21.043 21.043 0 0 1 21.043 21.043 21.043 21.043 0 0 1-21.043 21.043 21.043 21.043 0 0 1-21.043-21.043 21.043 21.043 0 0 1 21.043-21.043z"
     enable-background="new"
     fill="url(#linearGradient8590)"
     opacity=".7"
     id="path33" />
  <circle
     cx="24"
     cy="24"
     r="20"
     enable-background="new"
     opacity="0"
     stroke-width="4"
     id="circle35" />
  <path
     d="m24.352 6.0039a18 18 0 0 0-1.043 0.0098 18 18 0 0 0-17.303 18.447 18 18 0 0 0 0.44726 3.5391h2.0723a16 16 0 0 1-0.51953-3.5898 16 16 0 0 1 15.379-16.398 16 16 0 0 1 16.594 15.168l0.02148 0.82031a16 16 0 0 1-0.5293 4h2.0586a18 18 0 0 0 0.4707-4l-0.0234-0.92188a18 18 0 0 0-17.625-17.074z"
     enable-background="new"
     fill="#ebeae5"
     opacity=".9"
     id="path37" />
  <path
     d="m24.352 6.0039a18 18 0 0 0-1.043 0.0098 18 18 0 0 0-17.303 18.447 18 18 0 0 0 0.44726 3.5391h2.0723a16 16 0 0 1-0.51953-3.5898 16 16 0 0 1 15.379-16.398 16 16 0 0 1 16.594 15.168l0.02148 0.82031a16 16 0 0 1-0.5293 4h2.0586a18 18 0 0 0 0.4707-4l-0.0234-0.92188a18 18 0 0 0-17.625-17.074z"
     enable-background="new"
     fill="none"
     opacity=".2"
     stroke="#000"
     stroke-linecap="round"
     stroke-linejoin="round"
     id="path39" />
  <path
     style="color:#000000;fill:#45adf1;stroke-linecap:square;stroke-linejoin:round;-inkscape-stroke:none;fill-opacity:1"
     d="m 19.523437,21 a 0.50005,0.50005 0 0 0 -0.505859,0.369141 L 16.119141,32 h -5.69336 -0.4999997 v 1 H 10.425781 16.5 a 0.50005,0.50005 0 0 0 0.482422,-0.369141 l 2.410156,-8.839843 3.115234,17.794921 a 0.50005,0.50005 0 0 0 0.97461,0.04492 l 3.972656,-14.568359 2.056641,9.048828 a 0.50005,0.50005 0 0 0 0.947265,0.08594 L 31.830078,33 h 5.744141 0.5 v -1 h -0.5 H 31.5 a 0.50005,0.50005 0 0 0 -0.458984,0.302734 l -0.894532,2.085938 -2.158203,-9.5 a 0.50005,0.50005 0 0 0 -0.970703,-0.01953 L 23.107422,39.208984 19.992187,21.414062 A 0.50005,0.50005 0 0 0 19.523437,21 Z"
     id="path41" />
  <path
     d="m10 21.5v0.01367c-4.7336 0.15164-8.5 3.8301-8.5 8.3867v4.1992c0 4.5567 3.7664 8.2351 8.5 8.3867v0.01367c0.0339 0 0.0676-8e-3 0.10156-0.01 0.0669 1e-3 0.13195 0.01 0.19922 0.01v-0.0273c1.1196-0.13693 2.1992-1.0046 2.1992-2.0723v-16.801c0-1.0677-1.0796-1.9353-2.1992-2.0723v-0.02734c-0.0673 0-0.13231 0.0083-0.19922 0.0098-0.03393-0.0015-0.0677-0.0098-0.10156-0.0098zm27.699 0v0.02734c-1.1196 0.13693-2.1992 1.0045-2.1992 2.0723v16.801c0 1.0677 1.0796 1.9353 2.1992 2.0723v0.02734c0.0673 0 0.13231-8e-3 0.19922-0.01 0.0339 1e-3 0.0677 0.01 0.10156 0.01v-0.0137c4.7336-0.15164 8.5-3.8301 8.5-8.3867v-4.1992c0-4.5567-3.7664-8.2351-8.5-8.3867v-0.01364c-0.0339 0-0.0676 0.0083-0.10156 0.0098-0.0669-0.0014-0.13195-0.0098-0.19922-0.0098z"
     enable-background="new"
     fill="url(#linearGradient4704)"
     id="path43" />
  <path
     d="m10.301 22.037c-3.8483 0-7.032 2.4612-7.9727 5.8125 1.3982-2.8665 4.4306-4.8496 7.9727-4.8496 0.66963 0 1.2595 0.28871 1.6621 0.73633v-0.13672c0-0.86151-0.71848-1.5625-1.6621-1.5625zm27.398 0c-0.94363 0-1.6621 0.70099-1.6621 1.5625v0.13672c0.40265-0.44762 0.99248-0.73633 1.6621-0.73633 3.5421 0 6.5745 1.9831 7.9727 4.8496-0.94068-3.3513-4.1243-5.8125-7.9727-5.8125zm-35.371 14.113c0.94068 3.3513 4.1243 5.8125 7.9727 5.8125 0.94363 0 1.6621-0.70099 1.6621-1.5625v-0.13672c-0.40265 0.44762-0.99248 0.73633-1.6621 0.73633-3.5421 0-6.5745-1.9831-7.9727-4.8496zm43.344 0c-1.3982 2.8665-4.4306 4.8496-7.9727 4.8496-0.66963 0-1.2595-0.28871-1.6621-0.73633v0.13672c0 0.86151 0.71848 1.5625 1.6621 1.5625 3.8484 0 7.032-2.4612 7.9727-5.8125z"
     enable-background="new"
     fill="url(#linearGradient3647)"
     opacity=".7"
     id="path45" />
  <path
     d="m10 21.5v0.01367c-0.33936 0.01087-0.67161 0.0437-1 0.08984v20.793c0.32839 0.0461 0.66064 0.079 1 0.0898v0.01373c0.0339 0 0.0676-8e-3 0.10156-0.01 0.0669 1e-3 0.13195 0.01 0.19922 0.01v-0.0273c1.1196-0.13693 2.1992-1.0046 2.1992-2.0723v-16.801c0-1.0677-1.0796-1.9353-2.1992-2.0723v-0.02734c-0.0673 0-0.13231 0.0083-0.19922 0.0098-0.03393-0.0015-0.0677-0.0098-0.10156-0.0098zm27.699 0v0.02734c-1.1196 0.13693-2.1992 1.0045-2.1992 2.0723v16.801c0 1.0677 1.0796 1.9353 2.1992 2.0723v0.02734c0.0673 0 0.13231-8e-3 0.19922-0.01 0.0339 1e-3 0.0677 0.01 0.10156 0.01v-0.0137c0.33936-0.0109 0.67161-0.0437 1-0.0898v-20.793c-0.32839-0.04615-0.66064-0.07897-1-0.08984v-0.01368c-0.0339 0-0.0676 0.0083-0.10156 0.0098-0.0669-0.0014-0.13195-0.0098-0.19922-0.0098z"
     enable-background="new"
     opacity=".2"
     id="path47" />
  <path
     d="m10 21.5v21c0.33914 0 0.68015-0.0773 1-0.20703 3e-3 -1e-3 6e-3 -4e-3 0.01-6e-3 0.19457-0.0798 0.37699-0.18208 0.54687-0.30078 0.0134-9e-3 0.0279-0.0159 0.041-0.0254 0.17248-0.12509 0.32985-0.26546 0.46093-0.42383 5.9e-4 -7.1e-4 1e-3 -1e-3 2e-3 -2e-3 0.0746-0.0896 0.1397-0.18476 0.19726-0.28321 0.02-0.0344 0.0351-0.0701 0.0527-0.10547 0.0416-0.0826 0.0774-0.16658 0.10547-0.2539 0.0129-0.0402 0.0253-0.08 0.0351-0.1211 0.029-0.1206 0.0488-0.24395 0.0488-0.37109v-16.801c0-0.12714-0.0199-0.25049-0.0488-0.37109-0.01-0.04107-0.0223-0.08091-0.0351-0.12109-0.0281-0.08732-0.0639-0.17135-0.10547-0.25391-0.0177-0.03531-0.0328-0.07111-0.0527-0.10547-0.0576-0.09845-0.12271-0.19359-0.19726-0.2832-5.8e-4 -6.96e-4 -1e-3 -0.0013-2e-3 -2e-3 -0.13108-0.15837-0.28845-0.29874-0.46093-0.42383-0.0132-0.0095-0.0277-0.01612-0.041-0.02539-0.16988-0.1187-0.3523-0.22099-0.54687-0.30078-4e-3 -0.0014-6e-3 -0.0044-0.01-0.0059-0.31985-0.12961-0.66086-0.20694-1-0.20694zm28 0c-0.33914 0-0.68015 0.07733-1 0.20703-4e-3 0.0014-6e-3 0.0044-0.01 0.0059-0.19457 0.07979-0.37699 0.18208-0.54687 0.30078-0.0134 0.0093-0.0279 0.01591-0.041 0.02539-0.17248 0.12509-0.32985 0.26546-0.46093 0.42383-5.8e-4 6.95e-4 -1e-3 0.0013-2e-3 2e-3 -0.0746 0.08962-0.1397 0.18475-0.19726 0.2832-0.02 0.03436-0.0351 0.07015-0.0527 0.10547-0.0416 0.08256-0.0774 0.16658-0.10547 0.25391-0.0129 0.04019-0.0253 0.08003-0.0351 0.12109-0.029 0.1206-0.0488 0.24395-0.0488 0.37109v16.801c0 0.12714 0.0199 0.25049 0.0488 0.37109 0.01 0.0411 0.0223 0.0809 0.0351 0.1211 0.0281 0.0873 0.0639 0.17134 0.10547 0.2539 0.0177 0.0353 0.0328 0.0711 0.0527 0.10547 0.0576 0.0984 0.12271 0.19359 0.19726 0.28321 5.8e-4 6.9e-4 1e-3 1e-3 2e-3 2e-3 0.13108 0.15837 0.28845 0.29874 0.46093 0.42383 0.0132 9e-3 0.0277 0.0161 0.041 0.0254 0.16988 0.1187 0.3523 0.22099 0.54687 0.30078 4e-3 1e-3 6e-3 4e-3 0.01 6e-3 0.31985 0.1297 0.66086 0.20703 1 0.20703z"
     enable-background="new"
     fill="#474747"
     id="path49" />
  <path
     d="m10.301 22.037c-0.10147 0-0.20026 0.0083-0.30078 0.01172v0.97266c0.10137-0.0033 0.19854-0.02148 0.30078-0.02148 0.66963 0 1.2595 0.28871 1.6621 0.73633v-0.13672c0-0.86151-0.71848-1.5625-1.6621-1.5625zm27.398 0c-0.94363 0-1.6621 0.70099-1.6621 1.5625v0.13672c0.40265-0.44762 0.99248-0.73633 1.6621-0.73633 0.10224 0 0.19941 0.01821 0.30078 0.02148v-0.97266c-0.10052-0.0034-0.19931-0.01172-0.30078-0.01172zm-25.736 18.227c-0.40265 0.44762-0.99248 0.73633-1.6621 0.73633-0.10224 0-0.19941-0.0182-0.30078-0.0215v0.97265c0.10052 3e-3 0.19931 0.0117 0.30078 0.0117 0.94363 0 1.6621-0.70099 1.6621-1.5625zm24.074 0v0.13672c0 0.86151 0.71848 1.5625 1.6621 1.5625 0.10147 0 0.20026-8e-3 0.30078-0.0117v-0.97265c-0.10137 3e-3 -0.19854 0.0215-0.30078 0.0215-0.66963 0-1.2595-0.28871-1.6621-0.73633z"
     enable-background="new"
     fill="url(#linearGradient3647)"
     opacity=".3"
     id="path51" />
  <path
     d="m10.301 21.5c-4.8752 0-8.8008 3.7468-8.8008 8.4004v4.1992c0 4.6536 3.9256 8.4004 8.8008 8.4004 1.2188 0 2.1992-0.93621 2.1992-2.0996v-16.801c0-1.1634-0.98042-2.0996-2.1992-2.0996zm27.398 0c-1.2188 0-2.1992 0.93621-2.1992 2.0996v16.801c0 1.1634 0.98042 2.0996 2.1992 2.0996 4.8752 0 8.8008-3.7468 8.8008-8.4004v-4.1992c0-4.6536-3.9256-8.4004-8.8008-8.4004z"
     enable-background="new"
     fill="none"
     opacity=".4"
     stroke="#000"
     stroke-linejoin="round"
     stroke-width="1.0747"
     id="path53" />
</svg>
