<?xml version="1.0" encoding="UTF-8" standalone="no"?>
<!-- Created with Inkscape (http://www.inkscape.org/) -->

<svg
   width="48"
   height="48"
   viewBox="0 0 12.7 12.7"
   version="1.1"
   id="svg5"
   inkscape:version="1.1.2 (0a00cf5339, 2022-02-04)"
   sodipodi:docname="preferences-system-power.svg"
   xmlns:inkscape="http://www.inkscape.org/namespaces/inkscape"
   xmlns:sodipodi="http://sodipodi.sourceforge.net/DTD/sodipodi-0.dtd"
   xmlns="http://www.w3.org/2000/svg"
   xmlns:svg="http://www.w3.org/2000/svg">
  <sodipodi:namedview
     id="namedview7"
     pagecolor="#ffffff"
     bordercolor="#666666"
     borderopacity="1.0"
     inkscape:pageshadow="2"
     inkscape:pageopacity="0.0"
     inkscape:pagecheckerboard="0"
     inkscape:document-units="px"
     showgrid="false"
     units="px"
     inkscape:zoom="9.2093026"
     inkscape:cx="35.018938"
     inkscape:cy="24.540403"
     inkscape:window-width="1920"
     inkscape:window-height="1010"
     inkscape:window-x="0"
     inkscape:window-y="0"
     inkscape:window-maximized="1"
     inkscape:current-layer="svg5" />
  <defs
     id="defs2" />
  <path
     id="rect1370"
     style="opacity:0.4;fill:#000000;fill-opacity:1;stroke-width:0.264583"
     d="m 4.4751788,0.79375 c -3.68414336,0 -4.21059547,0.5262403 -4.21059547,4.2126627 v 2.9517578 c 0,3.6864085 0.52645211,4.2126625 4.21059547,4.2126625 H 8.224821 c 3.684144,0 4.210596,-0.526254 4.210596,-4.2126625 V 5.0064127 c 0,-3.6864224 -0.526452,-4.2126627 -4.210596,-4.2126627 z"
     sodipodi:nodetypes="sssssssss" />
  <path
     style="display:inline;fill:#edcd01;fill-opacity:1;stroke:none;stroke-width:0.0969351;stroke-linecap:round;stroke-linejoin:round;stroke-miterlimit:4;stroke-dasharray:none;stroke-dashoffset:0;stroke-opacity:1;enable-background:new"
     d="m 8.2020833,1.0583333 c 3.5239647,0 3.9687497,0.4537889 3.9687497,3.96875 V 7.9375 c 0,3.514947 -0.444785,3.96875 -3.9687497,3.96875 H 4.4979167 c -3.52396363,0 -3.96875003,-0.453803 -3.96875003,-3.96875 V 5.0270833 c 0,-3.5149611 0.4447864,-3.96875 3.96875003,-3.96875 z"
     id="rect877"
     inkscape:connector-curvature="0"
     sodipodi:nodetypes="sssssssss" />
  <path
     id="rect1004"
     style="fill:#4d4d4d;fill-opacity:1;stroke-width:0.264583;stroke-linejoin:round"
     d="m 6.8791663,2.6458333 v 2.9104166 l 1.190625,2.6e-6 -2.248958,4.4979175 V 7.1437446 l -1.190625,5.3e-6 z"
     sodipodi:nodetypes="ccccccc" />
</svg>
