<?xml version="1.0" encoding="UTF-8" standalone="no"?>
<!-- Created with Inkscape (http://www.inkscape.org/) -->

<svg
   width="48"
   height="48"
   viewBox="0 0 12.7 12.7"
   version="1.1"
   id="svg5"
   inkscape:version="1.1.2 (0a00cf5339, 2022-02-04)"
   sodipodi:docname="preferences-system-bluetooth.svg"
   xmlns:inkscape="http://www.inkscape.org/namespaces/inkscape"
   xmlns:sodipodi="http://sodipodi.sourceforge.net/DTD/sodipodi-0.dtd"
   xmlns="http://www.w3.org/2000/svg"
   xmlns:svg="http://www.w3.org/2000/svg">
  <sodipodi:namedview
     id="namedview7"
     pagecolor="#ffffff"
     bordercolor="#666666"
     borderopacity="1.0"
     inkscape:pageshadow="2"
     inkscape:pageopacity="0.0"
     inkscape:pagecheckerboard="0"
     inkscape:document-units="px"
     showgrid="false"
     units="px"
     inkscape:zoom="9.2093026"
     inkscape:cx="27.417928"
     inkscape:cy="18.025252"
     inkscape:window-width="1920"
     inkscape:window-height="1010"
     inkscape:window-x="0"
     inkscape:window-y="0"
     inkscape:window-maximized="1"
     inkscape:current-layer="svg5" />
  <defs
     id="defs2" />
  <path
     id="rect1370"
     style="opacity:0.4;fill:#000000;fill-opacity:1;stroke-width:0.264583"
     d="m 4.4751788,0.79375 c -3.68414336,0 -4.21059547,0.5262403 -4.21059547,4.2126627 v 2.9517578 c 0,3.6864085 0.52645211,4.2126625 4.21059547,4.2126625 H 8.224821 c 3.684144,0 4.210596,-0.526254 4.210596,-4.2126625 V 5.0064127 c 0,-3.6864224 -0.526452,-4.2126627 -4.210596,-4.2126627 z"
     sodipodi:nodetypes="sssssssss" />
  <path
     style="display:inline;fill:#5884f4;fill-opacity:1;stroke:none;stroke-width:0.0969351;stroke-linecap:round;stroke-linejoin:round;stroke-miterlimit:4;stroke-dasharray:none;stroke-dashoffset:0;stroke-opacity:1;enable-background:new"
     d="m 8.2020833,1.0583333 c 3.5239647,0 3.9687497,0.4537889 3.9687497,3.96875 V 7.9375 c 0,3.514947 -0.444785,3.96875 -3.9687497,3.96875 H 4.4979167 c -3.52396363,0 -3.96875003,-0.453803 -3.96875003,-3.96875 V 5.0270833 c 0,-3.5149611 0.4447864,-3.96875 3.96875003,-3.96875 z"
     id="rect877"
     inkscape:connector-curvature="0"
     sodipodi:nodetypes="sssssssss" />
  <path
     id="rect1015"
     style="fill:#ffffff;stroke-width:0.264583;stroke-linejoin:round"
     d="M 5.7979758,2.0108333 V 5.7150001 L 4.5299561,4.4469802 4.342888,4.2599116 3.96875,4.6340488 4.155819,4.8211175 5.6884218,6.3537209 4.155819,7.8865553 3.96875,8.0736243 4.342888,8.4477613 4.5299561,8.2606923 5.7979758,6.9924409 V 10.696608 L 8.5988385,8.2057875 6.4366968,6.3537209 8.5988385,4.5016208 Z m 0.529167,1.2774412 1.4779457,1.2133463 -1.4779457,1.2133793 z m 0,3.7041664 1.4779457,1.2133466 -1.4779457,1.2133791 z"
     sodipodi:nodetypes="ccccccccccccccccccccccccc" />
</svg>
