<?xml version="1.0" encoding="UTF-8" standalone="no"?>
<!-- Created with Inkscape (http://www.inkscape.org/) -->

<svg
   width="48"
   height="48"
   viewBox="0 0 12.7 12.7"
   version="1.1"
   id="svg5"
   inkscape:version="1.1.2 (0a00cf5339, 2022-02-04)"
   sodipodi:docname="preferences-other.svg"
   xmlns:inkscape="http://www.inkscape.org/namespaces/inkscape"
   xmlns:sodipodi="http://sodipodi.sourceforge.net/DTD/sodipodi-0.dtd"
   xmlns="http://www.w3.org/2000/svg"
   xmlns:svg="http://www.w3.org/2000/svg">
  <sodipodi:namedview
     id="namedview7"
     pagecolor="#ffffff"
     bordercolor="#666666"
     borderopacity="1.0"
     inkscape:pageshadow="2"
     inkscape:pageopacity="0.0"
     inkscape:pagecheckerboard="0"
     inkscape:document-units="px"
     showgrid="false"
     units="px"
     inkscape:zoom="16.5"
     inkscape:cx="23.969697"
     inkscape:cy="24"
     inkscape:window-width="1920"
     inkscape:window-height="1010"
     inkscape:window-x="0"
     inkscape:window-y="0"
     inkscape:window-maximized="1"
     inkscape:current-layer="svg5" />
  <defs
     id="defs2" />
  <path
     id="rect1370"
     style="opacity:0.4;fill:#000000;fill-opacity:1;stroke-width:0.264583"
     d="m 4.4751788,0.79375 c -3.68414336,0 -4.21059547,0.5262403 -4.21059547,4.2126627 v 2.9517578 c 0,3.6864085 0.52645211,4.2126625 4.21059547,4.2126625 H 8.224821 c 3.684144,0 4.210596,-0.526254 4.210596,-4.2126625 V 5.0064127 c 0,-3.6864224 -0.526452,-4.2126627 -4.210596,-4.2126627 z"
     sodipodi:nodetypes="sssssssss" />
  <path
     style="display:inline;fill:#cccccc;fill-opacity:1;stroke:none;stroke-width:0.0969351;stroke-linecap:round;stroke-linejoin:round;stroke-miterlimit:4;stroke-dasharray:none;stroke-dashoffset:0;stroke-opacity:1;enable-background:new"
     d="m 8.2020833,1.0583333 c 3.5239647,0 3.9687497,0.4537889 3.9687497,3.96875 V 7.9375 c 0,3.514947 -0.444785,3.96875 -3.9687497,3.96875 H 4.4979167 c -3.52396363,0 -3.96875003,-0.453803 -3.96875003,-3.96875 V 5.0270833 c 0,-3.5149611 0.4447864,-3.96875 3.96875003,-3.96875 z"
     id="rect877"
     inkscape:connector-curvature="0"
     sodipodi:nodetypes="sssssssss" />
  <path
     id="rect987"
     style="fill:#919191;fill-opacity:1;stroke-width:0.309661;stroke-linejoin:round"
     d="m 6.3958211,1.9384756 c -0.326779,-0.00363 -0.440904,0.00888 -0.486871,0.4040121 l -0.01754,0.1397107 c -0.04033,0.2562641 -0.04846,0.3720669 -0.290913,0.4348573 -0.01625,0.00363 -0.03222,0.00763 -0.04838,0.011493 -0.0036,7.431e-4 -0.0078,0.00168 -0.01149,0.00241 -0.06102,0.014731 -0.121039,0.031223 -0.180838,0.048989 l 6.19e-4,-6.194e-4 c -0.01001,0.00342 -0.01954,0.00612 -0.02903,0.00907 -0.0091,0.00278 -0.01817,0.00502 -0.02722,0.00787 -0.243641,0.068346 -0.308064,-0.027904 -0.471748,-0.2304323 l -0.08469,-0.1124766 c -0.118687,-0.159606 -0.204075,-0.2278669 -0.295146,-0.2352706 -0.01139,-9.29e-4 -0.02345,-8.981e-4 -0.03508,0 -0.08142,0.00639 -0.170319,0.05657 -0.293332,0.129429 -0.284818,0.160242 -0.377903,0.2275399 -0.220151,0.5927121 l 0.05443,0.1300339 c 0.100354,0.2606684 0.152872,0.361484 -0.07862,0.5636817 l 0.0061,-0.00121 c -0.04785,0.045354 -0.09436,0.091861 -0.13971,0.1397108 l 0.0012,-0.00605 c -0.202204,0.2315072 -0.303019,0.1789833 -0.563688,0.07863 l -0.129429,-0.054433 c -0.114119,-0.049298 -0.199421,-0.074085 -0.267325,-0.076206 -0.149386,-0.00468 -0.215824,0.1005445 -0.325992,0.2963561 -0.166537,0.2811831 -0.213364,0.3861843 0.105842,0.6235576 l 0.112494,0.084673 c 0.202531,0.1636834 0.298784,0.2281062 0.230432,0.4717505 -0.0029,0.00905 -0.0051,0.018137 -0.0079,0.027216 -0.003,0.00949 -0.0057,0.019013 -0.0091,0.029031 l 6.19e-4,-6.192e-4 c -0.01776,0.059798 -0.03426,0.1204212 -0.04899,0.1814423 -7.43e-4,0.00367 -0.0017,0.00725 -0.0024,0.010881 -0.0038,0.016167 -0.0079,0.032137 -0.01149,0.048385 -0.0628,0.242463 -0.178593,0.2499827 -0.434857,0.2903145 l -0.139711,0.017539 c -0.39514,0.045976 -0.407057,0.1607082 -0.403422,0.4874873 -0.0036,0.3267794 0.0083,0.4409047 0.403407,0.486871 l 0.139711,0.017539 c 0.256264,0.040333 0.372067,0.04785 0.434857,0.2903081 0.0036,0.016248 0.0076,0.032823 0.01149,0.048989 7.44e-4,0.00363 0.0017,0.00722 0.0024,0.010881 0.01473,0.061021 0.03122,0.1216426 0.04899,0.1814424 l -6.19e-4,-6.195e-4 c 0.0034,0.010012 0.0061,0.018939 0.0091,0.028427 0.0028,0.00908 0.005,0.018168 0.0079,0.027216 0.06835,0.2436438 -0.0279,0.3080668 -0.230432,0.4717504 l -0.112494,0.085278 c -0.319207,0.2373755 -0.272379,0.3423828 -0.105842,0.6235657 0.160242,0.2848176 0.228145,0.3772973 0.593317,0.2195455 l 0.129429,-0.054433 c 0.260668,-0.100354 0.361484,-0.152267 0.563682,0.07923 l -0.0012,-0.00605 c 0.04535,0.047848 0.09186,0.094363 0.13971,0.1397107 l -0.006,-0.0012 c 0.231502,0.2021971 0.178978,0.3030122 0.07862,0.5636805 l -0.05443,0.1294277 c -0.157758,0.3651721 -0.06467,0.4330681 0.220151,0.5933161 0.281183,0.166537 0.386184,0.21276 0.623557,-0.106448 l 0.08467,-0.111887 c 0.163684,-0.2025323 0.228107,-0.2993852 0.471751,-0.2310394 0.009,0.00285 0.01814,0.0057 0.02722,0.00844 0.0095,0.00296 0.01901,0.00559 0.02903,0.00909 l -6.19e-4,-6.192e-4 c 0.0598,0.017761 0.119816,0.034253 0.180837,0.04899 0,0 6.2e-4,0 6.2e-4,0 0.0037,7.43e-4 0.0072,0.0016 0.01088,0.0024 0.01617,0.0038 0.03214,0.0072 0.04838,0.01085 0.242456,0.0628 0.250581,0.179197 0.290913,0.435462 l 0.01754,0.13971 c 0.04596,0.395127 0.160085,0.407043 0.48687,0.403408 0.32678,0.0036 0.440905,-0.0083 0.486871,-0.403408 l 0.01754,-0.13971 c 0.04034,-0.256265 0.04785,-0.372671 0.290308,-0.435462 0.01625,-0.0036 0.03282,-0.007 0.04899,-0.01085 0.0036,-7.75e-4 0.0066,-0.0016 0.01028,-0.0024 0,0 6.2e-4,0 6.2e-4,0 0.06102,-0.01474 0.121642,-0.03123 0.181442,-0.048989 l -6.19e-4,6.191e-4 c 0.01001,-0.0034 0.01894,-0.00614 0.02843,-0.00909 0.0091,-0.00285 0.01817,-0.00559 0.02722,-0.00844 0.243643,-0.06835 0.308067,0.02851 0.47175,0.2310375 l 0.08528,0.111889 c 0.237367,0.319206 0.342374,0.272379 0.623557,0.105835 0.284816,-0.160244 0.377907,-0.227542 0.220149,-0.5927149 L 8.8325951,9.6945393 C 8.7322411,9.4338708 8.6803281,9.3330557 8.9118241,9.1308579 l -0.006,0.00121 c 0.04785,-0.045353 0.09436,-0.091861 0.139709,-0.1397108 l -0.0012,0.00605 c 0.202199,-0.2315074 0.303015,-0.1795882 0.563684,-0.079235 l 0.129428,0.055039 C 10.102617,9.1319678 10.17052,9.0388771 10.330762,8.7540594 10.497299,8.4728766 10.543522,8.3678751 10.224316,8.130502 L 10.112409,8.0452241 C 9.9098411,7.8815409 9.8129821,7.8171177 9.8813341,7.5734738 c 0.0028,-0.00905 0.0057,-0.018137 0.0084,-0.027216 0.0029,-0.00949 0.0056,-0.018409 0.009,-0.028427 l -6.19e-4,6.195e-4 c 0.01777,-0.059799 0.03426,-0.1204213 0.04899,-0.1814426 v -6.193e-4 c 7.43e-4,-0.00366 0.0016,-0.00666 0.0025,-0.010279 0.0039,-0.016167 0.0078,-0.032741 0.01147,-0.048989 0.0628,-0.2424611 0.1786029,-0.2499812 0.4348669,-0.2903129 l 0.139711,-0.017539 c 0.395142,-0.045963 0.407059,-0.1600839 0.403423,-0.4868692 0.0036,-0.3267793 -0.0083,-0.4409046 -0.403407,-0.4868709 l -0.139626,-0.017537 c -0.256264,-0.040334 -0.372066,-0.048455 -0.4348569,-0.2909128 -0.0036,-0.016245 -0.0076,-0.032218 -0.01147,-0.048385 -7.74e-4,-0.00363 -0.0016,-0.00721 -0.0025,-0.010881 v -6.257e-4 c -0.01474,-0.061021 -0.03123,-0.1210385 -0.049,-0.1808376 l 6.19e-4,6.193e-4 c -0.0034,-0.010012 -0.0061,-0.019543 -0.009,-0.02903 -0.0028,-0.00908 -0.0056,-0.018168 -0.0084,-0.027216 -0.06835,-0.2436437 0.0285,-0.3080668 0.2310289,-0.4717504 l 0.111882,-0.084673 c 0.319133,-0.2373677 0.27291,-0.3423749 0.106373,-0.6235579 -0.110169,-0.195812 -0.176607,-0.3010331 -0.325992,-0.2963562 -0.06789,0.00214 -0.1532069,0.026904 -0.2673249,0.076205 l -0.129426,0.054432 c -0.260687,0.1003544 -0.361503,0.152873 -0.563701,-0.078624 l 0.0012,0.00605 c -0.04531,-0.047904 -0.09182,-0.094364 -0.139673,-0.1397126 l 0.006,0.00121 c -0.231483,-0.2022 -0.179563,-0.3030156 -0.07921,-0.5636841 l 0.05504,-0.1294291 c 0.157758,-0.3651719 0.06467,-0.4330746 -0.220151,-0.593317 -0.140594,-0.083268 -0.237339,-0.1368264 -0.328411,-0.129429 -0.09107,0.0074 -0.176459,0.075665 -0.295146,0.2352705 l -0.08528,0.1124943 c -0.163684,0.2025308 -0.228107,0.2987843 -0.471751,0.2304323 -0.009,-0.00285 -0.01814,-0.00509 -0.02722,-0.00787 -0.0095,-0.00297 -0.01841,-0.00565 -0.02843,-0.00907 l 6.2e-4,6.192e-4 c -0.0598,-0.017761 -0.120421,-0.034255 -0.181443,-0.048986 0,0 -6.19e-4,0 -6.19e-4,0 -0.0037,-7.432e-4 -0.0067,-0.00168 -0.01028,-0.00241 -0.01616,-0.00384 -0.03274,-0.00787 -0.04899,-0.011493 -0.242459,-0.062799 -0.249979,-0.1785962 -0.29031,-0.43486 L 6.8826901,2.3425028 C 6.8367151,1.9473552 6.7226011,1.9354454 6.3958211,1.9390804 Z m -6.19e-4,1.8779304 c 0,0 6.19e-4,0 6.19e-4,0 0.306883,1.81e-5 0.603472,0.053324 0.880601,0.1505972 a 0.72702428,0.72702428 0 0 0 0.33083,0.4167131 0.72702428,0.72702428 0 0 0 0.525579,0.078021 c 0.436421,0.375065 0.752837,0.8907605 0.874553,1.4872237 0.03069,0.1502515 -0.08433,0.2909248 -0.23769,0.2909128 h -0.749962 c -0.107194,8.6e-6 -0.201621,-0.070253 -0.232246,-0.1729756 -0.183822,-0.6165772 -0.747764,-1.037547 -1.39106,-1.0384561 -0.113022,6.195e-4 -0.225839,0.014446 -0.335669,0.041127 -0.104527,0.025383 -0.213532,-0.021165 -0.267325,-0.114309 L 5.4190561,4.3069055 c -0.07651,-0.1325972 -0.01204,-0.301981 0.133058,-0.3507888 0.271707,-0.09146 0.556425,-0.1389234 0.843102,-0.1397107 z m -1.594275,0.6120662 h 6.19e-4 c 0.08223,0.00407 0.157207,0.049639 0.198377,0.1209614 l 0.374377,0.6477499 c 0.05365,0.092908 0.03992,0.2106173 -0.03387,0.2884938 -0.255234,0.2693986 -0.397812,0.6256391 -0.398569,0.9967243 4.34e-4,0.3713095 0.142718,0.7282079 0.397964,0.997934 0.07373,0.077852 0.08745,0.1950114 0.03387,0.2878889 l -0.373167,0.64654 C 4.9238981,8.547507 4.7445781,8.5768054 4.6297811,8.4752455 4.1839811,8.0810164 3.8871441,7.552212 3.7776061,6.97653 A 0.72702428,0.72702428 0 0 0 3.9723541,6.4824016 0.72702428,0.72702428 0 0 0 3.7776061,5.9882731 c 0.109325,-0.5759365 0.40568,-1.1047883 0.85157,-1.4993202 0.04709,-0.041666 0.10896,-0.063265 0.171765,-0.060481 z m 3.22,2.2958527 v 6.195e-4 h 0.746334 c 0.153353,-1.46e-5 0.268376,0.1400563 0.237689,0.2903081 -0.121679,0.5961174 -0.437866,1.1122003 -0.873948,1.4872241 a 0.72702428,0.72702428 0 0 0 -0.177209,-0.018749 0.72702428,0.72702428 0 0 0 -0.346555,0.097374 0.72702428,0.72702428 0 0 0 -0.330225,0.4155033 c -0.2772,0.09768 -0.574097,0.1508611 -0.881192,0.1511884 -3.71e-4,10e-7 -7.74e-4,10e-7 -0.0012,0 C 6.1080671,9.1466433 5.8235961,9.0997893 5.5521251,9.008082 5.4071991,8.959151 5.3432381,8.7897931 5.4196721,8.6572931 l 0.373772,-0.6477498 c 0.0538,-0.093144 0.162797,-0.1396944 0.267325,-0.1143094 0.109902,0.026698 0.222574,0.040522 0.335669,0.041127 0.643477,-6.503e-4 1.207788,-0.4216971 1.391664,-1.038456 0.03063,-0.102723 0.125658,-0.1735922 0.232852,-0.1735802 z" />
  <path
     id="rect1453"
     style="fill:#d9d9d9;fill-opacity:1;stroke-width:0.309661;stroke-linejoin:round;opacity:0.4"
     d="m 6.3970311,3.3319544 c -1.490941,0 -2.739907,1.0371537 -3.066379,2.4289107 0.171758,0.020113 0.330524,0.1012542 0.448163,0.2280128 0.109324,-0.5759327 0.405694,-1.1054209 0.85157,-1.499925 0.04724,-0.0418 0.109359,-0.063432 0.172371,-0.060481 0.08246,0.00385 0.157106,0.049468 0.198377,0.1209614 l 0.374376,0.6483548 c 0.05364,0.092907 0.03992,0.2100164 -0.03387,0.2878888 -0.255235,0.2693997 -0.397825,0.6255996 -0.398569,0.9967245 3.1e-4,0.371311 0.142707,0.7282529 0.397964,0.997934 0.07374,0.077853 0.08746,0.1950102 0.03387,0.2878889 l -0.373166,0.6465402 c -0.07663,0.1327441 -0.255939,0.1620427 -0.370748,0.060481 -0.445814,-0.3942254 -0.742587,-0.9230612 -0.852175,-1.4987154 -0.117633,0.1267586 -0.276393,0.2072924 -0.448163,0.227408 0.326565,1.3916022 1.575531,2.4289106 3.066379,2.4289106 0.315975,0 0.621169,-0.04699 0.909027,-0.1336627 -0.06864,-0.1588353 -0.07875,-0.3372382 -0.02782,-0.5025955 -0.277215,0.09769 -0.574118,0.1514754 -0.881206,0.1518067 -3.1e-4,1.4e-6 -8.98e-4,1.4e-6 -0.0012,0 -0.286565,-0.00115 -0.571029,-0.048607 -0.842506,-0.1403154 -0.144926,-0.048932 -0.208886,-0.2182925 -0.132453,-0.3507889 l 0.374377,-0.6477498 c 0.0538,-0.093145 0.162195,-0.1396916 0.26672,-0.1143094 0.109904,0.026698 0.222566,0.040523 0.335669,0.041126 0.643499,-6.494e-4 1.208394,-0.4217098 1.392269,-1.0384552 0.03063,-0.1027228 0.125055,-0.1729845 0.232246,-0.1729752 h 0.746938 c 0.153352,-1.46e-5 0.267769,0.1406605 0.237086,0.2909128 -0.12168,0.5961222 -0.437888,1.1115928 -0.873949,1.4866195 0.168962,0.038112 0.319088,0.1352235 0.422762,0.2739779 0.610735,-0.5746938 0.992487,-1.3897444 0.992487,-2.2940384 0,-0.9044794 -0.382141,-1.7193445 -0.993095,-2.2940384 -0.103181,0.1382466 -0.252198,0.2348581 -0.420342,0.2733731 0.436431,0.3750576 0.752795,0.8907615 0.874552,1.4872245 0.03069,0.1502522 -0.08373,0.2909282 -0.237084,0.2909128 h -0.749963 c -0.107191,9.3e-6 -0.201618,-0.070252 -0.232246,-0.1729749 -0.183819,-0.6165595 -0.748381,-1.0375889 -1.391664,-1.0384561 -0.113022,6.195e-4 -0.225833,0.014446 -0.335669,0.041127 -0.104525,0.025383 -0.212924,-0.021165 -0.266721,-0.114309 L 5.4208701,4.3069055 C 5.3443561,4.1743098 5.4082081,4.004922 5.5533231,3.9561167 5.8250291,3.8646594 6.1097141,3.8171926 6.3964261,3.816406 h 6.19e-4 c 0.306884,1.81e-5 0.603458,0.053325 0.880602,0.1505972 -0.05057,-0.1651219 -0.04068,-0.3428722 0.02782,-0.5013863 -0.287732,-0.086599 -0.592572,-0.1336625 -0.908423,-0.1336625 z m 0,2.1809394 a 0.96935283,0.96935283 0 0 1 0.969508,0.9695078 0.96935283,0.96935283 0 0 1 -0.969508,0.9695078 0.96935283,0.96935283 0 0 1 -0.969508,-0.9695078 0.96935283,0.96935283 0 0 1 0.969508,-0.9695078 z" />
  <path
     id="rect1180"
     style="fill:#ffffff;fill-opacity:1;stroke-width:0.309661;stroke-linejoin:round;opacity:0.6"
     d="M 7.9538081,3.3906207 A 0.36351214,0.36351214 0 0 0 7.6562421,3.5720632 0.36351214,0.36351214 0 0 0 7.7893001,4.068611 0.36351214,0.36351214 0 0 0 8.2858481,3.9355534 0.36351214,0.36351214 0 0 0 8.1527901,3.4390056 0.36351214,0.36351214 0 0 0 7.9538081,3.3906207 Z m -4.708434,2.728291 a 0.36351214,0.36351214 0 0 0 -0.36349,0.3634899 0.36351214,0.36351214 0 0 0 0.36349,0.3634899 0.36351214,0.36351214 0 0 0 0.36349,-0.3634899 0.36351214,0.36351214 0 0 0 -0.36349,-0.3634899 z m 4.717506,2.7282911 a 0.36351214,0.36351214 0 0 0 -0.17358,0.048385 0.36351214,0.36351214 0 0 0 -0.133058,0.4965476 0.36351214,0.36351214 0 0 0 0.496548,0.1330577 0.36351214,0.36351214 0 0 0 0.133058,-0.4965478 0.36351214,0.36351214 0 0 0 -0.322968,-0.1814425 z" />
</svg>
