<?xml version="1.0" encoding="UTF-8" standalone="no"?>
<!-- Created with Inkscape (http://www.inkscape.org/) -->

<svg
   width="48"
   height="48"
   viewBox="0 0 12.7 12.7"
   version="1.1"
   id="svg5"
   inkscape:version="1.1.2 (0a00cf5339, 2022-02-04)"
   sodipodi:docname="preferences-desktop-wallpaper.svg"
   xmlns:inkscape="http://www.inkscape.org/namespaces/inkscape"
   xmlns:sodipodi="http://sodipodi.sourceforge.net/DTD/sodipodi-0.dtd"
   xmlns:xlink="http://www.w3.org/1999/xlink"
   xmlns="http://www.w3.org/2000/svg"
   xmlns:svg="http://www.w3.org/2000/svg">
  <sodipodi:namedview
     id="namedview7"
     pagecolor="#ffffff"
     bordercolor="#666666"
     borderopacity="1.0"
     inkscape:pageshadow="2"
     inkscape:pageopacity="0.0"
     inkscape:pagecheckerboard="0"
     inkscape:document-units="px"
     showgrid="false"
     units="px"
     inkscape:zoom="16.5"
     inkscape:cx="23.969697"
     inkscape:cy="24"
     inkscape:window-width="1920"
     inkscape:window-height="1010"
     inkscape:window-x="0"
     inkscape:window-y="0"
     inkscape:window-maximized="1"
     inkscape:current-layer="svg5"
     showguides="false" />
  <defs
     id="defs2">
    <linearGradient
       inkscape:collect="always"
       id="linearGradient3598">
      <stop
         style="stop-color:#fb7c38;stop-opacity:1"
         offset="0"
         id="stop3594" />
      <stop
         style="stop-color:#9b33ae;stop-opacity:1"
         offset="1"
         id="stop3596" />
    </linearGradient>
    <linearGradient
       inkscape:collect="always"
       xlink:href="#linearGradient3598"
       id="linearGradient3600"
       x1="12.262125"
       y1="9.7353592"
       x2="0.36087561"
       y2="4.2708535"
       gradientUnits="userSpaceOnUse"
       gradientTransform="matrix(0.9777777,0,0,0.97619045,0.14111115,0.41262401)" />
  </defs>
  <path
     id="rect1370"
     style="opacity:0.4;fill:#000000;fill-opacity:1;stroke-width:0.264583"
     d="m 4.4751788,0.79375 c -3.68414336,0 -4.21059547,0.5262403 -4.21059547,4.2126627 v 2.9517578 c 0,3.6864085 0.52645211,4.2126625 4.21059547,4.2126625 H 8.224821 c 3.684144,0 4.210596,-0.526254 4.210596,-4.2126625 V 5.0064127 c 0,-3.6864224 -0.526452,-4.2126627 -4.210596,-4.2126627 z"
     sodipodi:nodetypes="sssssssss" />
  <path
     style="display:inline;fill:url(#linearGradient3600);fill-opacity:1;stroke:none;stroke-width:0.0969351;stroke-linecap:round;stroke-linejoin:round;stroke-miterlimit:4;stroke-dasharray:none;stroke-dashoffset:0;stroke-opacity:1;enable-background:new"
     d="m 8.1432401,1.0583333 c 3.5239649,0 4.0275939,0.5015525 4.0275939,4.0165137 v 2.8148891 c 0,3.5149479 -0.503629,4.0165139 -4.0275939,4.0165139 H 4.5567585 c -3.5239637,0 -4.02759183,-0.501566 -4.02759183,-4.0165139 V 5.074847 c 0,-3.5149612 0.50362813,-4.0165137 4.02759183,-4.0165137 z"
     id="rect877"
     inkscape:connector-curvature="0"
     sodipodi:nodetypes="sssssssss" />
  <path
     id="rect1262"
     style="opacity:0.3;fill:#000000;fill-opacity:1;stroke-width:1.09544;stroke-linejoin:round"
     d="M 12 3.1289062 C 2.5037495 3.7362019 1 6.8307589 1 18.921875 L 1 30.078125 C 1 42.169196 2.5037495 45.263789 12 45.871094 L 12 3.1289062 z "
     transform="scale(0.26458333)" />
  <path
     id="rect1752"
     style="fill:#5d5d5d;fill-opacity:1;stroke-width:0.999999;stroke-linejoin:round"
     d="M 28.5 4 L 46 21.5 L 46 19.179688 C 46 5.8947944 44.096263 4 30.777344 4 L 28.5 4 z "
     transform="scale(0.26458333)" />
  <path
     id="rect2713"
     style="opacity:0.2;fill:#000000;fill-opacity:1;stroke-width:0.264583;stroke-linejoin:round"
     d="M 7.2760417,1.0583333 7.4083334,1.190625 v 0.5157308 c 0,3.6006918 0.515073,4.1144775 4.1191286,4.1144775 h 0.51108 l 0.132292,0.1322916 V 5.0746257 c 0,-3.5149613 -0.503698,-4.0162924 -4.0276617,-4.0162924 z" />
  <path
     id="rect2237"
     style="fill:#faf8f6;fill-opacity:1;stroke-width:0.264583;stroke-linejoin:round"
     d="M 12.303127,5.5562499 7.6729168,0.92604167 V 1.4417725 c 0,3.6006919 0.515074,4.1144774 4.1191302,4.1144774 z"
     sodipodi:nodetypes="ccssc" />
</svg>
