<?xml version="1.0" encoding="UTF-8" standalone="no"?>
<!-- Created with Inkscape (http://www.inkscape.org/) -->

<svg
   width="24"
   height="24"
   viewBox="0 0 6.3499999 6.3500002"
   version="1.1"
   id="svg5013"
   inkscape:version="1.1.2 (0a00cf5339, 2022-02-04)"
   sodipodi:docname="chromium-browser.svg"
   xmlns:inkscape="http://www.inkscape.org/namespaces/inkscape"
   xmlns:sodipodi="http://sodipodi.sourceforge.net/DTD/sodipodi-0.dtd"
   xmlns:xlink="http://www.w3.org/1999/xlink"
   xmlns="http://www.w3.org/2000/svg"
   xmlns:svg="http://www.w3.org/2000/svg">
  <sodipodi:namedview
     id="namedview5015"
     pagecolor="#ffffff"
     bordercolor="#666666"
     borderopacity="1.0"
     inkscape:pageshadow="2"
     inkscape:pageopacity="0.0"
     inkscape:pagecheckerboard="0"
     inkscape:document-units="px"
     showgrid="false"
     units="px"
     showguides="true"
     inkscape:zoom="6.6668492"
     inkscape:cx="40.723885"
     inkscape:cy="7.1998029"
     inkscape:window-width="1920"
     inkscape:window-height="1010"
     inkscape:window-x="0"
     inkscape:window-y="0"
     inkscape:window-maximized="1"
     inkscape:current-layer="svg5013" />
  <defs
     id="defs5010">
    <linearGradient
       inkscape:collect="always"
       xlink:href="#linearGradient1871"
       id="linearGradient1873"
       x1="17.305155"
       y1="0.083426654"
       x2="17.305155"
       y2="47.797596"
       gradientUnits="userSpaceOnUse"
       gradientTransform="matrix(0.12026516,0,0,0.11615853,0.28863637,0.38719515)" />
    <linearGradient
       inkscape:collect="always"
       id="linearGradient1871">
      <stop
         style="stop-color:#ffffff;stop-opacity:1;"
         offset="0"
         id="stop1867" />
      <stop
         style="stop-color:#ffffff;stop-opacity:0.1"
         offset="0.12"
         id="stop2515" />
      <stop
         style="stop-color:#ffffff;stop-opacity:0.102"
         offset="0.89999998"
         id="stop2581" />
      <stop
         style="stop-color:#ffffff;stop-opacity:0.502"
         offset="1"
         id="stop1869" />
    </linearGradient>
  </defs>
  <path
     d="M 1.5275552,0.52916667 C 0.2882199,0.53848667 0,0.84697669 0,2.1166667 V 4.7625 C 0,6.052344 0.2976562,6.35 1.5875,6.35 h 3.1750003 c 1.2898438,0 1.5875,-0.297656 1.5875,-1.5875 V 2.1166667 c 0,-1.28984371 -0.2976562,-1.58750003 -1.5875,-1.58750003 H 1.5875 c -0.020153,0 -0.040273,-1.48e-4 -0.059945,0 z"
     style="opacity:0.1;fill:#000000;stroke-width:0.264583;stroke-linecap:round;stroke-linejoin:round"
     id="path9125"
     sodipodi:nodetypes="cssssssssc" />
  <path
     id="rect1108"
     style="fill:#396bd7;fill-opacity:1;stroke-width:0.474788;stroke-linejoin:round"
     d="M 5.7929688 1.5 C 1.7497625 1.5304293 0.62693432 2.4820073 0.50976562 6.265625 L 2.0253906 12.744141 L 6.9238281 14.960938 L 11.609375 16.3125 L 11.609375 6.5 L 16.726562 9.5878906 L 23.449219 6.5 L 23.466797 5.7714844 C 23.466639 5.7688496 23.466956 5.7663035 23.466797 5.7636719 C 23.465931 5.7493348 23.463793 5.7369028 23.462891 5.7226562 C 23.45032 5.5241003 23.435992 5.331733 23.416016 5.1503906 C 23.415942 5.1497196 23.41609 5.1491083 23.416016 5.1484375 C 23.397747 4.9828911 23.374612 4.8275289 23.349609 4.6757812 C 23.343325 4.6375898 23.33681 4.5978851 23.330078 4.5605469 C 23.3037 4.4144602 23.273783 4.2759223 23.240234 4.1425781 C 23.233478 4.1157109 23.225809 4.088862 23.21875 4.0625 C 23.180283 3.9189518 23.137704 3.7813126 23.089844 3.6523438 C 23.040173 3.5184953 22.986304 3.3923152 22.925781 3.2734375 C 22.922874 3.2677248 22.920902 3.2615384 22.917969 3.2558594 C 22.913506 3.2472195 22.908819 3.2390309 22.904297 3.2304688 C 22.876442 3.1777345 22.846588 3.1259997 22.816406 3.0761719 C 22.781324 3.0182538 22.745358 2.9622938 22.707031 2.9082031 C 22.668704 2.8541124 22.627616 2.8023234 22.585938 2.7519531 C 22.58119 2.7462151 22.577058 2.7400655 22.572266 2.734375 C 22.535111 2.6902817 22.496888 2.6467479 22.457031 2.6054688 C 22.446792 2.5948621 22.436202 2.5846428 22.425781 2.5742188 C 22.390277 2.5387143 22.354048 2.5041194 22.316406 2.4707031 C 22.299968 2.4561051 22.282478 2.441941 22.265625 2.4277344 C 22.232288 2.3996435 22.199045 2.3722863 22.164062 2.3457031 C 22.161774 2.3439619 22.158546 2.3435317 22.15625 2.3417969 C 22.106008 2.3038273 22.055654 2.2673823 22.001953 2.2324219 C 21.945798 2.1958641 21.886214 2.1603252 21.826172 2.1269531 C 21.707825 2.0611748 21.583285 2.0012842 21.449219 1.9472656 C 21.447342 1.9465099 21.445239 1.946066 21.443359 1.9453125 C 21.439147 1.9436235 21.433916 1.9430841 21.429688 1.9414062 C 21.297127 1.8888018 21.156396 1.8408835 21.007812 1.7988281 C 20.870477 1.7599564 20.72393 1.7258119 20.572266 1.6953125 C 20.542678 1.6893752 20.514522 1.6833674 20.484375 1.6777344 C 20.478106 1.6765595 20.471137 1.6749899 20.464844 1.6738281 C 20.325502 1.6481051 20.180792 1.6269745 20.029297 1.6074219 C 20.001977 1.6038987 19.974989 1.5990343 19.947266 1.5957031 C 19.773039 1.5747588 19.59094 1.5586567 19.400391 1.5449219 C 19.393929 1.5444565 19.38734 1.5434262 19.380859 1.5429688 C 19.370931 1.5422681 19.359583 1.5416978 19.349609 1.5410156 C 19.173942 1.5289999 18.988726 1.5202207 18.798828 1.5136719 C 18.718494 1.5109275 18.633723 1.5096452 18.550781 1.5078125 C 18.371159 1.5038015 18.192141 1.5 18 1.5 L 5.7929688 1.5 z "
     transform="scale(0.26458334)" />
  <path
     id="rect2658"
     style="fill:#91b0e8;fill-opacity:1;stroke-width:0.454541;stroke-linejoin:round"
     d="m 12.273438,6.5 v 5.455078 L 7.25,14.75 11.345703,22.5 H 18 c 4.46875,0 5.5,-1.031251 5.5,-5.5 V 8 c 0,-0.5508183 -0.01494,-1.0491277 -0.05078,-1.5 z"
     transform="scale(0.26458334)"
     sodipodi:nodetypes="ccccssscc" />
  <path
     id="rect1825"
     style="fill:#6199f6;fill-opacity:1;stroke-width:0.454753;stroke-linejoin:round"
     d="M 0.81054688 3.953125 C 0.58537954 4.7253359 0.5 5.7214828 0.5 7 L 0.5 17 C 0.5 21.398925 1.499208 22.467685 5.7929688 22.5 L 12.117188 22.5 L 16.625 14.958984 L 6.875 14.152344 L 0.81054688 3.953125 z "
     transform="scale(0.26458334)" />
  <circle
     style="fill:#ffffff;fill-opacity:1;stroke-width:0.121266;stroke-linejoin:round"
     id="path2361"
     cx="3.175"
     cy="3.175"
     r="1.4552083" />
  <circle
     style="fill:#4688f4;fill-opacity:1;stroke-width:0.133678;stroke-linejoin:round"
     id="path6261"
     cx="3.1750002"
     cy="3.1750002"
     r="1.190625" />
  <path
     id="rect5096"
     style="opacity:0.4;stroke-width:0.240954;stroke-linecap:round;stroke-linejoin:round"
     d="M 1.5275554,0.26458333 C 0.28821988,0.27390666 1.0104166e-8,0.58239335 1.0104166e-8,1.8520834 V 4.4979167 C 1.0104166e-8,5.7877605 0.29765627,6.0854168 1.5875001,6.0854168 h 3.1749977 c 1.2898438,0 1.5875,-0.2976563 1.5875,-1.5875001 V 1.8520834 c 0,-1.28984381 -0.2976562,-1.58750007 -1.5875,-1.58750007 H 1.5875001 c -0.020154,0 -0.040273,-1.4798e-4 -0.059945,0 z m 0.032556,0.26458334 c 0.018033,-1.3565e-4 0.036303,0 0.054777,0 h 3.1476092 c 1.1823568,0 1.3229167,0.29315998 1.3229167,1.32291673 v 2.6458333 c 0,1.0162919 -0.1405599,1.3229167 -1.3229167,1.3229167 H 1.5875001 c -0.99193704,0 -1.32291675,-0.1405599 -1.32291675,-1.3229167 V 1.8520834 c 0,-0.96076805 0.15947068,-1.31437034 1.29552805,-1.32291673 z"
     sodipodi:nodetypes="csssssssscssssssssss" />
  <path
     id="rect1565"
     style="fill:url(#linearGradient1873);fill-opacity:1;stroke-width:0.118194"
     d="M 1.5601116,0.52916667 C 0.42405397,0.53771668 0.26458335,0.89131535 0.26458335,1.8520833 v 2.6458334 c 0,1.1823568 0.33097974,1.3229167 1.32291675,1.3229167 h 3.1749977 c 1.1823568,0 1.3229167,-0.3066248 1.3229167,-1.3229167 V 1.8520833 c 0,-1.02975655 -0.1405599,-1.32291663 -1.3229167,-1.32291663 H 1.6148886 c -0.018473,0 -0.036744,-1.356e-4 -0.054777,0 z m 0.00259,0.26458338 h 0.049609 3.0179002 c 1.0641211,0 1.190625,0.1430056 1.190625,1.05833325 v 2.6458334 c 0,0.8938382 -0.1265039,1.0583334 -1.190625,1.0583334 H 1.7197917 c -1.02290214,0 -1.19062501,-0.1576914 -1.19062501,-1.0583334 V 1.8520833 c 0,-0.85400515 0.14116471,-1.05833325 1.03352871,-1.05833325 z"
     sodipodi:nodetypes="csssssssscsssssssssss" />
</svg>
