<?xml version="1.0" encoding="UTF-8" standalone="no"?>
<!-- Created with Inkscape (http://www.inkscape.org/) -->

<svg
   width="24"
   height="24"
   viewBox="0 0 6.3499999 6.3500002"
   version="1.1"
   id="svg5013"
   sodipodi:docname="maps.svg"
   inkscape:version="1.1.2 (0a00cf5339, 2022-02-04)"
   xmlns:inkscape="http://www.inkscape.org/namespaces/inkscape"
   xmlns:sodipodi="http://sodipodi.sourceforge.net/DTD/sodipodi-0.dtd"
   xmlns:xlink="http://www.w3.org/1999/xlink"
   xmlns="http://www.w3.org/2000/svg"
   xmlns:svg="http://www.w3.org/2000/svg">
  <sodipodi:namedview
     id="namedview5015"
     pagecolor="#ffffff"
     bordercolor="#666666"
     borderopacity="1.0"
     inkscape:pageshadow="2"
     inkscape:pageopacity="0.0"
     inkscape:pagecheckerboard="0"
     inkscape:document-units="px"
     showgrid="false"
     units="px"
     showguides="false"
     inkscape:zoom="32.75"
     inkscape:cx="11.984733"
     inkscape:cy="12"
     inkscape:window-width="1920"
     inkscape:window-height="1010"
     inkscape:window-x="0"
     inkscape:window-y="0"
     inkscape:window-maximized="1"
     inkscape:current-layer="svg5013" />
  <defs
     id="defs5010">
    <linearGradient
       inkscape:collect="always"
       xlink:href="#linearGradient1871"
       id="linearGradient1873"
       x1="11.046622"
       y1="2.3372049"
       x2="10.794909"
       y2="47.930588"
       gradientUnits="userSpaceOnUse"
       gradientTransform="matrix(0.12026516,0,0,0.11615853,0.28863637,0.25496375)" />
    <linearGradient
       inkscape:collect="always"
       id="linearGradient1871">
      <stop
         style="stop-color:#ffffff;stop-opacity:1;"
         offset="0"
         id="stop1867" />
      <stop
         style="stop-color:#ffffff;stop-opacity:0.1"
         offset="0.12"
         id="stop2515" />
      <stop
         style="stop-color:#ffffff;stop-opacity:0.102"
         offset="0.89999998"
         id="stop2581" />
      <stop
         style="stop-color:#ffffff;stop-opacity:0.502"
         offset="1"
         id="stop1869" />
    </linearGradient>
  </defs>
  <path
     d="M 1.5275554,0.52923245 C 0.28822009,0.53855245 1.9010417e-7,0.84704247 1.9010417e-7,2.1167326 v 2.6458333 c 0,1.289844 0.29765619989583,1.5875 1.58750000989583,1.5875 h 3.1749977 c 1.2898438,0 1.5875,-0.297656 1.5875,-1.5875 V 2.1167326 c 0,-1.28984383 -0.2976562,-1.58750015 -1.5875,-1.58750015 H 1.5875002 c -0.020153,0 -0.040273,-1.48e-4 -0.059945,0 z"
     style="opacity:0.1;fill:#000000;stroke-width:0.264583;stroke-linecap:round;stroke-linejoin:round"
     id="path9125"
     sodipodi:nodetypes="cssssssssc" />
  <path
     id="rect6397-9"
     style="fill:#6dc7f1;fill-opacity:1;stroke-width:0.688732;stroke-linejoin:round"
     d="M 5.7929688 1.5 C 1.4992082 1.532301 0.5 2.6010741 0.5 7 L 0.5 17 C 0.5 21.398925 1.4992078 22.467685 5.7929688 22.5 L 6 22.5 L 18 22.5 C 22.46875 22.5 23.5 21.468749 23.5 17 L 23.5 7 C 23.5 2.53125 22.46875 1.5 18 1.5 L 6 1.5 C 5.930177 1.5 5.861125 1.4994871 5.7929688 1.5 z "
     transform="scale(0.26458334)" />
  <path
     id="path3014"
     style="color:#000000;fill:#e3dfd5;stroke-width:0.999999"
     d="M 13.195312 1.5 L 9.1738281 17.480469 L 13.941406 22.5 L 18 22.5 C 22.46875 22.5 23.5 21.468749 23.5 17 L 23.5 7 C 23.5 2.53125 22.46875 1.5 18 1.5 L 13.195312 1.5 z "
     transform="scale(0.26458334)" />
  <path
     id="rect1383"
     style="fill:#a6d74f;stroke-width:2.33378;stroke-linecap:round;stroke-linejoin:round"
     d="M 5.7929688 1.5 C 1.4992083 1.5322998 0.5 2.6010739 0.5 7 L 0.5 8.5 L 9.1738281 17.480469 L 23.023438 3.4824219 C 22.365444 1.9388036 20.913552 1.5 18 1.5 L 6 1.5 C 5.930177 1.5 5.861125 1.4994871 5.7929688 1.5 z "
     transform="scale(0.26458334)" />
  <path
     id="rect883"
     style="fill:#f9f9f9;fill-opacity:1;stroke-width:2;stroke-linecap:round;stroke-linejoin:round"
     d="M 0.5 7.1621094 L 0.5 9.8808594 L 12.837891 22.5 L 15.498047 22.5 L 0.5 7.1621094 z "
     transform="scale(0.26458334)" />
  <path
     id="path1866"
     style="fill:#fdc92b;fill-opacity:1;stroke-width:2;stroke-linecap:round;stroke-linejoin:round"
     d="M 22.496094 2.6484375 L 2.9921875 22.201172 C 3.6250289 22.380258 4.4064038 22.467299 5.3671875 22.492188 L 23.326172 4.5351562 C 23.326053 4.5345098 23.326291 4.5338494 23.326172 4.5332031 C 23.175236 3.7135871 22.913279 3.1008946 22.496094 2.6484375 z "
     transform="scale(0.26458334)" />
  <path
     id="rect2328"
     style="opacity:0.1;fill:#ffffff;fill-opacity:1;stroke-width:2;stroke-linecap:round;stroke-linejoin:round"
     d="M 0.5 12 L 0.5 17 C 0.5 21.398925 1.4992079 22.467685 5.7929688 22.5 L 6 22.5 L 18 22.5 C 22.46875 22.5 23.5 21.468749 23.5 17 L 23.5 12 L 0.5 12 z "
     transform="scale(0.26458334)" />
  <path
     id="rect2450"
     style="opacity:0.1;fill:#ffffff;fill-opacity:1;stroke-width:2;stroke-linecap:round;stroke-linejoin:round"
     d="M 8 1.5 L 8 22.5 L 16 22.5 L 16 1.5 L 8 1.5 z "
     transform="scale(0.26458334)" />
  <path
     d="m 4.2298674,1.0583333 c -0.5453327,0 -0.9873986,0.4420659 -0.9873986,0.9873986 0,0.1082753 0.018256,0.2121693 0.050482,0.3096418 0.00318,0.00992 0.00582,0.020082 0.00953,0.029845 0.025135,0.083219 0.3937794,1.2927013 0.9285023,2.3772813 1.323e-4,0 2.646e-4,-9.79e-5 0,-2.487e-4 2.382e-4,-9.53e-5 2.646e-4,-2.646e-4 0,-5.292e-4 2.382e-4,-2.222e-4 2.646e-4,-5.291e-4 0,-5.291e-4 2.382e-4,-1.482e-4 2.646e-4,-2.646e-4 0,-2.646e-4 0.5713103,-1.184566 0.9344774,-2.4054595 0.9344774,-2.4054595 h -2.381e-4 c 0.032147,-0.09743 0.049821,-0.2014564 0.049821,-0.3096682 0,-0.5453327 -0.4420659,-0.9873986 -0.9873986,-0.9873986 z"
     style="color:#000000;opacity:0.1;fill:#000000;stroke-width:0.264583"
     id="path3442"
     sodipodi:nodetypes="cscccccccccscc" />
  <path
     d="m 4.2298674,1.3229166 c -0.5453327,0 -0.9873986,0.442066 -0.9873986,0.9873986 0,0.1082753 0.018256,0.2121694 0.050482,0.3096419 0.00318,0.00992 0.00582,0.020082 0.00953,0.029845 0.025135,0.083219 0.3937794,1.2927012 0.9285023,2.3772812 1.323e-4,0 2.646e-4,-9.79e-5 0,-2.487e-4 2.381e-4,-9.53e-5 2.646e-4,-2.646e-4 0,-5.292e-4 2.381e-4,-2.222e-4 2.646e-4,-5.291e-4 0,-5.291e-4 2.381e-4,-1.482e-4 2.646e-4,-2.646e-4 0,-2.646e-4 0.5713106,-1.184566 0.9344776,-2.4054594 0.9344776,-2.4054594 h -2.381e-4 c 0.032147,-0.09743 0.049821,-0.2014565 0.049821,-0.3096682 0,-0.5453327 -0.4420659,-0.9873986 -0.9873986,-0.9873986 z"
     style="color:#000000;fill:#f22c42;stroke-width:0.0700042"
     id="path2714" />
  <path
     d="m 4.7096363,2.3393399 c 0,0.2691045 -0.2181521,0.4872567 -0.4872567,0.4872567 -0.2691045,0 -0.4872567,-0.2181522 -0.4872567,-0.4872567 0,-0.2691044 0.2181522,-0.4872567 0.4872567,-0.4872566 0.2691046,-1e-7 0.4872567,0.2181522 0.4872567,0.4872566 z"
     style="fill:#bc1938;stroke-width:0.264583"
     id="path3681" />
  <path
     id="rect5096"
     style="opacity:0.4;stroke-width:0.240954;stroke-linecap:round;stroke-linejoin:round"
     d="M 1.5275554,0.26458333 C 0.28821988,0.27390666 1.0104166e-8,0.58239335 1.0104166e-8,1.8520834 V 4.4978839 C 1.0104166e-8,5.7877277 0.29765627,6.085384 1.5875001,6.085384 h 3.1749975 c 1.2898438,0 1.5875,-0.2976563 1.5875,-1.5875001 V 1.8520834 c 0,-1.28984381 -0.2976562,-1.58750007 -1.5875,-1.58750007 H 1.5875001 c -0.020154,0 -0.040273,-1.4798e-4 -0.059945,0 z m 0.032556,0.26458334 c 0.018033,-1.3565e-4 0.036303,0 0.054777,0 h 3.147609 c 1.1823568,0 1.3229167,0.29315998 1.3229167,1.32291673 v 2.6458005 c 0,1.0162919 -0.1405599,1.3229167 -1.3229167,1.3229167 H 1.5875001 c -0.99193704,0 -1.32291675,-0.1405599 -1.32291675,-1.3229167 V 1.8520834 c 0,-0.96076805 0.15947068,-1.31437034 1.29552805,-1.32291673 z"
     sodipodi:nodetypes="csssssssscssssssssss" />
  <path
     id="rect1565"
     style="fill:url(#linearGradient1873);fill-opacity:1;stroke-width:0.118194"
     d="M 1.5601116,0.52922694 C 0.42405397,0.53777695 0.26458335,0.8913756 0.26458335,1.8521436 V 4.497977 c 0,1.1823568 0.33097974,1.3229167 1.32291675,1.3229167 h 3.1749975 c 1.1823568,0 1.3229167,-0.3066248 1.3229167,-1.3229167 V 1.8521436 c 0,-1.02975658 -0.1405599,-1.32291666 -1.3229167,-1.32291666 h -3.147609 c -0.018473,0 -0.036744,-1.356e-4 -0.054777,0 z m 0.00259,0.26458338 h 0.049609 3.0179 c 1.0641211,0 1.190625,0.14300558 1.190625,1.05833328 V 4.497977 c 0,0.8938382 -0.1265039,1.0583334 -1.190625,1.0583334 H 1.7197917 c -1.02290214,0 -1.19062501,-0.1576914 -1.19062501,-1.0583334 V 1.8521436 c 0,-0.8540052 0.14116471,-1.05833328 1.03352871,-1.05833328 z"
     sodipodi:nodetypes="csssssssscsssssssssss" />
</svg>
