<?xml version="1.0" encoding="UTF-8" standalone="no"?>
<!-- Created with Inkscape (http://www.inkscape.org/) -->

<svg
   width="24"
   height="24"
   viewBox="0 0 6.3499999 6.3500002"
   version="1.1"
   id="svg5013"
   sodipodi:docname="multimedia-photo-manager.svg"
   inkscape:version="1.1.2 (0a00cf5339, 2022-02-04)"
   xmlns:inkscape="http://www.inkscape.org/namespaces/inkscape"
   xmlns:sodipodi="http://sodipodi.sourceforge.net/DTD/sodipodi-0.dtd"
   xmlns:xlink="http://www.w3.org/1999/xlink"
   xmlns="http://www.w3.org/2000/svg"
   xmlns:svg="http://www.w3.org/2000/svg">
  <sodipodi:namedview
     id="namedview5015"
     pagecolor="#ffffff"
     bordercolor="#666666"
     borderopacity="1.0"
     inkscape:pageshadow="2"
     inkscape:pageopacity="0.0"
     inkscape:pagecheckerboard="0"
     inkscape:document-units="px"
     showgrid="false"
     units="px"
     showguides="true"
     inkscape:zoom="23.157747"
     inkscape:cx="3.3466122"
     inkscape:cy="10.363702"
     inkscape:window-width="1920"
     inkscape:window-height="1010"
     inkscape:window-x="0"
     inkscape:window-y="0"
     inkscape:window-maximized="1"
     inkscape:current-layer="svg5013" />
  <defs
     id="defs5010">
    <linearGradient
       inkscape:collect="always"
       xlink:href="#linearGradient1871"
       id="linearGradient1873"
       x1="10.572797"
       y1="1.2222221"
       x2="10.805839"
       y2="46.70113"
       gradientUnits="userSpaceOnUse"
       gradientTransform="matrix(0.12026516,0,0,0.11615853,0.28863637,0.38719515)" />
    <linearGradient
       inkscape:collect="always"
       id="linearGradient1871">
      <stop
         style="stop-color:#ffffff;stop-opacity:1;"
         offset="0"
         id="stop1867" />
      <stop
         style="stop-color:#ffffff;stop-opacity:0.1"
         offset="0.12"
         id="stop2515" />
      <stop
         style="stop-color:#ffffff;stop-opacity:0.102"
         offset="0.89999998"
         id="stop2581" />
      <stop
         style="stop-color:#ffffff;stop-opacity:0.502"
         offset="1"
         id="stop1869" />
    </linearGradient>
  </defs>
  <path
     d="M 1.5275552,0.52916667 C 0.28821992,0.53848667 1.6249999e-8,0.84697669 1.6249999e-8,2.1166667 V 4.7625 C 1.6249999e-8,6.052344 0.29765622,6.35 1.5875,6.35 h 3.175 C 6.0523438,6.35 6.35,6.052344 6.35,4.7625 V 2.1166667 C 6.35,0.82682299 6.0523438,0.52916667 4.7625,0.52916667 h -3.175 c -0.020153,0 -0.040273,-1.48e-4 -0.059945,0 z"
     style="opacity:0.1;fill:#000000;stroke-width:0.264583;stroke-linecap:round;stroke-linejoin:round"
     id="path9125"
     sodipodi:nodetypes="cssssssssc" />
  <path
     id="rect7669"
     style="fill:#808080;stroke-width:0.264583;stroke-linecap:round;stroke-linejoin:round"
     d="M 1.7973064,0.66145835 C 0.66124888,0.67000474 0.39687501,0.95278432 0.39687501,2.1166667 v 2.1166667 c 0,1.1638823 0.26437379,1.4466584 1.40043139,1.4552084 h 0.054777 2.6458334 c 1.1823568,0 1.4552083,-0.2728518 1.4552083,-1.4552084 V 2.1166667 c 0,-1.1823567 -0.2728515,-1.45520835 -1.4552083,-1.45520835 H 1.8520834 c -0.018474,0 -0.036744,-1.3565e-4 -0.054777,0 z" />
  <path
     id="rect6397"
     style="fill:#a3dbf0;fill-opacity:1;stroke-width:0.688732;stroke-linejoin:round"
     d="m 5.7929687,1.4999999 c -4.2937606,0.032301 -5.29296876,1.1010742 -5.29296876,5.5 V 17 c 0,4.398925 0.99920776,5.467685 5.29296876,5.5 H 5.9999999 18 c 4.46875,0 5.5,-1.031251 5.5,-5.5 V 6.9999999 c 0,-4.4687499 -1.03125,-5.5 -5.5,-5.5 H 5.9999999 c -0.069823,0 -0.138875,-5.129e-4 -0.2070312,0 z"
     transform="scale(0.26458334)"
     sodipodi:nodetypes="cssccsssssc" />
  <path
     id="rect1697"
     style="opacity:1;fill:#8fbf3a;fill-opacity:1;stroke-width:2;stroke-linecap:round;stroke-linejoin:round"
     d="M 0.5 17 C 0.5 21.398925 1.4992077 22.467685 5.7929688 22.5 L 6 22.5 L 18 22.5 C 22.46875 22.5 23.5 21.468749 23.5 17 L 0.5 17 z "
     transform="scale(0.26458334)" />
  <path
     id="rect1905"
     style="opacity:0.1;fill:#ffffff;stroke-width:2;stroke-linecap:round;stroke-linejoin:round"
     d="M 17.585938 1.5 L 6.6308594 22.5 L 18 22.5 C 22.46875 22.5 23.5 21.468749 23.5 17 L 23.5 7 C 23.5 2.5312498 22.46875 1.5 18 1.5 L 17.585938 1.5 z "
     transform="scale(0.26458334)" />
  <path
     id="rect902"
     style="fill:#ffda64;stroke-width:2;stroke-linecap:round;stroke-linejoin:round"
     d="M 17.585938 1.5 L 9.5 17 L 16.25 17 L 23.140625 3.7929688 C 22.545737 1.9973593 21.099855 1.5 18 1.5 L 17.585938 1.5 z "
     transform="scale(0.26458334)" />
  <path
     id="path3853"
     style="fill:#b6e2f3;fill-opacity:1;stroke-width:2;stroke-linecap:round;stroke-linejoin:round"
     d="M 13.085938 1.5 L 5 17 L 9.5 17 L 17.585938 1.5 L 13.085938 1.5 z "
     transform="scale(0.26458334)" />
  <path
     id="path8186"
     style="fill:#b6e2f3;fill-opacity:1;stroke-width:2;stroke-linecap:round;stroke-linejoin:round"
     d="M 23.138672 3.7910156 L 16.25 17 L 20.75 17 L 23.5 11.726562 L 23.5 7 C 23.5 5.6297916 23.401945 4.5842303 23.138672 3.7910156 z "
     transform="scale(0.26458334)" />
  <path
     d="m 4.696871,1.7859375 c -0.3287821,0 -0.5953125,0.2665305 -0.5953125,0.5953125 0,0.328782 0.2665304,0.5953125 0.5953125,0.5953125 0.3287821,0 0.5953125,-0.2665305 0.5953125,-0.5953125 0,-0.328782 -0.2665304,-0.5953125 -0.5953125,-0.5953125 z M 2.5047567,2.4897705 1.3229167,4.7625 H 4.2994792 L 3.4065104,3.0509766 3.1011027,3.6364706 Z"
     style="color:#000000;opacity:0.1;fill:#000000;stroke-width:0.264583"
     id="path3016" />
  <path
     d="M 1.3229167,4.4979168 2.504493,2.2251194 3.6860693,4.4979168 Z"
     style="color:#000000;fill:#f2f2f2;stroke-width:0.264583"
     id="path8931" />
  <path
     id="path34"
     d="M 4.6966594,1.5213542 A 0.59531252,0.59531252 0 0 0 4.1013469,2.1166667 0.59531252,0.59531252 0 0 0 4.6966594,2.7119792 0.59531252,0.59531252 0 0 0 5.2919719,2.1166667 0.59531252,0.59531252 0 0 0 4.6966594,1.5213542 Z M 3.4062989,2.7863933 2.5133301,4.4979168 h 1.7859376 z"
     style="fill:#f9f9f9;fill-opacity:1;stroke-width:0.264583" />
  <path
     id="rect5096"
     style="opacity:0.4;stroke-width:0.240954;stroke-linecap:round;stroke-linejoin:round"
     d="M 1.5276195,0.26458333 C 0.28828403,0.27390666 6.4159692e-5,0.58239335 6.4159692e-5,1.8520834 v 2.6458333 c 0,1.2898438 0.297656260308,1.5875001 1.587500040308,1.5875001 h 3.1749359 c 1.2898438,0 1.5875,-0.2976563 1.5875,-1.5875001 V 1.8520834 c 0,-1.28984381 -0.2976562,-1.58750007 -1.5875,-1.58750007 H 1.5875642 c -0.020154,0 -0.040273,-1.4798e-4 -0.059945,0 z m 0.032556,0.26458334 c 0.018033,-1.3565e-4 0.036303,0 0.054777,0 h 3.1475474 c 1.1823568,0 1.3229167,0.29315998 1.3229167,1.32291673 v 2.6458333 c 0,1.0162919 -0.1405599,1.3229167 -1.3229167,1.3229167 H 1.5875642 c -0.99193699,0 -1.3229167,-0.1405599 -1.3229167,-1.3229167 V 1.8520834 c 0,-0.96076805 0.15947068,-1.31437034 1.295528,-1.32291673 z"
     sodipodi:nodetypes="csssssssscssssssssss" />
  <path
     id="rect1565"
     style="fill:url(#linearGradient1873);fill-opacity:1;stroke-width:0.118194;opacity:1"
     d="M 1.5601116,0.52916667 C 0.42405397,0.53771668 0.26458335,0.89131535 0.26458335,1.8520833 v 2.6458334 c 0,1.1823568 0.33097974,1.3229167 1.32291675,1.3229167 h 3.1749976 c 1.1823568,0 1.3229167,-0.3066248 1.3229167,-1.3229167 V 1.8520833 c 0,-1.02975655 -0.1405599,-1.32291663 -1.3229167,-1.32291663 H 1.6148886 c -0.018473,0 -0.036744,-1.356e-4 -0.054777,0 z m 0.00259,0.26458338 c 0.016229,0 0.032983,0 0.049609,0 h 3.0179001 c 1.0641211,0 1.190625,0.1430056 1.190625,1.05833325 v 2.6458334 c 0,0.8938382 -0.1265039,1.0583334 -1.190625,1.0583334 h -2.910419 c -1.02290214,0 -1.19062501,-0.1576914 -1.19062501,-1.0583334 V 1.8520833 c 0,-0.85400515 0.1411647,-1.05833325 1.03352871,-1.05833325 z"
     sodipodi:nodetypes="csssssssscsssssssssss" />
</svg>
