<?xml version="1.0" encoding="UTF-8" standalone="no"?>
<!-- Created with Inkscape (http://www.inkscape.org/) -->

<svg
   width="24"
   height="24"
   viewBox="0 0 6.3499999 6.3500002"
   version="1.1"
   id="svg5013"
   sodipodi:docname="preferences-plugin.svg"
   inkscape:version="1.1.2 (0a00cf5339, 2022-02-04)"
   xmlns:inkscape="http://www.inkscape.org/namespaces/inkscape"
   xmlns:sodipodi="http://sodipodi.sourceforge.net/DTD/sodipodi-0.dtd"
   xmlns:xlink="http://www.w3.org/1999/xlink"
   xmlns="http://www.w3.org/2000/svg"
   xmlns:svg="http://www.w3.org/2000/svg">
  <sodipodi:namedview
     id="namedview5015"
     pagecolor="#ffffff"
     bordercolor="#666666"
     borderopacity="1.0"
     inkscape:pageshadow="2"
     inkscape:pageopacity="0.0"
     inkscape:pagecheckerboard="0"
     inkscape:document-units="px"
     showgrid="false"
     units="px"
     showguides="false"
     inkscape:zoom="33"
     inkscape:cx="11.984848"
     inkscape:cy="12"
     inkscape:window-width="1920"
     inkscape:window-height="1010"
     inkscape:window-x="0"
     inkscape:window-y="0"
     inkscape:window-maximized="1"
     inkscape:current-layer="svg5013" />
  <defs
     id="defs5010">
    <linearGradient
       inkscape:collect="always"
       id="linearGradient3433">
      <stop
         style="stop-color:#28851e;stop-opacity:1;"
         offset="0"
         id="stop3429" />
      <stop
         style="stop-color:#46a926;stop-opacity:1"
         offset="1"
         id="stop3431" />
    </linearGradient>
    <linearGradient
       inkscape:collect="always"
       xlink:href="#linearGradient1871"
       id="linearGradient1873"
       x1="11.046622"
       y1="2.3372049"
       x2="10.794909"
       y2="47.930588"
       gradientUnits="userSpaceOnUse"
       gradientTransform="matrix(0.12026516,0,0,0.11615853,0.28863637,0.25496375)" />
    <linearGradient
       inkscape:collect="always"
       id="linearGradient1871">
      <stop
         style="stop-color:#ffffff;stop-opacity:1;"
         offset="0"
         id="stop1867" />
      <stop
         style="stop-color:#ffffff;stop-opacity:0.1"
         offset="0.12"
         id="stop2515" />
      <stop
         style="stop-color:#ffffff;stop-opacity:0.102"
         offset="0.89999998"
         id="stop2581" />
      <stop
         style="stop-color:#ffffff;stop-opacity:0.502"
         offset="1"
         id="stop1869" />
    </linearGradient>
    <linearGradient
       inkscape:collect="always"
       xlink:href="#linearGradient2290"
       id="linearGradient2292"
       x1="1.9582907"
       y1="0.28538564"
       x2="6.4532399"
       y2="8.3434572"
       gradientUnits="userSpaceOnUse"
       gradientTransform="matrix(0.72413793,0,0,0.70370371,0.10948281,0.06375639)" />
    <linearGradient
       inkscape:collect="always"
       id="linearGradient2290">
      <stop
         style="stop-color:#aea795;stop-opacity:1"
         offset="0"
         id="stop2286" />
      <stop
         style="stop-color:#c8c4b7;stop-opacity:1"
         offset="1"
         id="stop2288" />
    </linearGradient>
    <linearGradient
       inkscape:collect="always"
       xlink:href="#linearGradient3433"
       id="linearGradient3435"
       x1="1.5275553"
       y1="0.26458332"
       x2="4.9715133"
       y2="5.9902349"
       gradientUnits="userSpaceOnUse"
       gradientTransform="scale(3.7795276)" />
  </defs>
  <path
     d="M 1.5275554,0.79381578 C 0.28822009,0.80313578 1.9010417e-7,1.1116258 1.9010417e-7,2.3813158 v 2.381217 c 0,1.289844 0.29765619989583,1.5875 1.58750000989583,1.5875 h 3.1749977 c 1.2898438,0 1.5875,-0.297656 1.5875,-1.5875 v -2.381217 c 0,-1.2898437 -0.2976562,-1.58750002 -1.5875,-1.58750002 H 1.5875002 c -0.020153,0 -0.040273,-1.48e-4 -0.059945,0 z"
     style="opacity:0.1;fill:#000000;stroke-width:0.264583;stroke-linecap:round;stroke-linejoin:round"
     id="path9125"
     sodipodi:nodetypes="cssssssssc" />
  <path
     id="rect7669"
     style="fill:#808080;stroke-width:0.264583;stroke-linecap:round;stroke-linejoin:round"
     d="M 1.7973064,0.66145835 C 0.66124888,0.67000474 0.39687501,0.95278432 0.39687501,2.1166667 v 2.1166667 c 0,1.1638823 0.26437379,1.4466584 1.40043139,1.4552084 h 0.054777 2.6458334 c 1.1823568,0 1.4552083,-0.2728518 1.4552083,-1.4552084 V 2.1166667 c 0,-1.1823567 -0.2728515,-1.45520835 -1.4552083,-1.45520835 H 1.8520834 c -0.018474,0 -0.036744,-1.3565e-4 -0.054777,0 z" />
  <path
     id="rect6397"
     style="fill:url(#linearGradient2292);fill-opacity:1;stroke-width:0.182227;stroke-linejoin:round"
     d="M 1.532723,0.39693532 C 0.39666551,0.40548163 0.13229168,0.68826121 0.13229168,1.8521437 v 2.6458334 c 0,1.1638823 0.26437373,1.4466584 1.40043132,1.4552084 H 1.5875 4.7624975 c 1.1823568,0 1.4552083,-0.2728518 1.4552083,-1.4552084 V 1.8521437 c 0,-1.18235679 -0.2728515,-1.45520838 -1.4552083,-1.45520838 H 1.5875 c -0.018474,0 -0.036744,-1.3571e-4 -0.054777,0 z"
     sodipodi:nodetypes="cssccsssssc" />
  <path
     id="path31"
     style="color:#000000;fill:#faf8f6;stroke-width:0.999999;-inkscape-stroke:none"
     d="M 12.005859,2 V 5.0332031 C 11.158388,4.739789 10.389668,4.6751759 9.828125,4.9804688 9.101837,5.3753277 8.753907,6.1500132 8.7539062,6.8925781 c -7e-7,0.7425649 0.3479319,1.5172497 1.0742188,1.9121094 0.561542,0.3052951 1.330265,0.2406817 2.177734,-0.052734 V 11.992188 H 6.2304688 l 0.4023437,0.740234 c 0.5391893,0.991729 0.4873899,1.603328 0.2929687,1.960937 -0.1944211,0.35761 -0.5971941,0.550782 -1.0332031,0.550782 -0.4360089,-2e-6 -0.8387816,-0.19317 -1.0332031,-0.550782 C 4.6649535,14.335748 4.6131541,13.724153 5.1523438,12.732422 L 5.5546875,11.992188 H 1 v 1 h 3.0332031 c -0.293416,0.84747 -0.3580257,1.616191 -0.052734,2.177734 0.3948589,0.726288 1.1695444,1.074218 1.9121093,1.074219 0.7425649,0 1.5172501,-0.347932 1.9121094,-1.074219 0.3052951,-0.561542 0.2406779,-1.330265 -0.052734,-2.177734 h 4.2539059 v 4.564453 l 0.740235,-0.404297 c 0.984468,-0.538757 1.589663,-0.488481 1.943359,-0.294922 0.353696,0.193557 0.546875,0.598147 0.546875,1.035156 0,0.437009 -0.193179,0.8416 -0.546875,1.035156 -0.353696,0.193558 -0.958891,0.243835 -1.943359,-0.294922 l -0.740235,-0.40625 V 22 h 1 v -2.246094 c 0.840867,0.291579 1.604246,0.356069 2.16211,0.05078 0.723127,-0.395724 1.068359,-1.170545 1.068359,-1.91211 0,-0.741564 -0.345234,-1.516385 -1.068359,-1.912109 -0.557864,-0.305284 -1.321243,-0.240794 -2.16211,0.05078 v -3.039062 h 5.552735 l -0.40625,-0.738282 c -0.538757,-0.984468 -0.488479,-1.589663 -0.294922,-1.943359 0.193557,-0.3536959 0.598147,-0.5488283 1.035156,-0.5488282 0.437009,0 0.8416,0.1951331 1.035156,0.5488282 0.193558,0.353696 0.243835,0.958891 -0.294922,1.943359 l -0.404296,0.738282 H 23 v -1 h -2.246094 c 0.291272,-0.840524 0.355972,-1.604426 0.05078,-2.1621099 -0.395722,-0.7231275 -1.170545,-1.0683593 -1.91211,-1.0683593 -0.741564,0 -1.516385,0.3452333 -1.912109,1.0683593 -0.305186,0.5576839 -0.240488,1.3215859 0.05078,2.1621099 H 13.005859 V 7.2304688 L 12.267578,7.6308594 C 11.275849,8.1700487 10.66425,8.1202028 10.306641,7.9257812 9.9490304,7.7313601 9.7539059,7.3285871 9.7539062,6.8925781 c 4e-7,-0.4360089 0.1951216,-0.8387816 0.5527348,-1.0332031 0.357611,-0.1944227 0.969206,-0.2462224 1.960937,0.2929688 l 0.738281,0.4023437 V 2 Z"
     transform="scale(0.26458334)"
     sodipodi:nodetypes="ccsssccccssscccccsssccccssscccccsssccccsssccccccssccccssscccc" />
  <path
     id="rect3239"
     style="fill:url(#linearGradient3435);stroke-width:1.64996;stroke-linecap:round;stroke-linejoin:round"
     d="M 18.892578 9.7617188 C 18.455569 9.7617186 18.050979 9.956851 17.857422 10.310547 C 17.663865 10.664243 17.613587 11.269438 18.152344 12.253906 L 18.558594 12.992188 L 13.005859 12.992188 L 13.005859 16.03125 C 13.846726 15.739675 14.610105 15.675185 15.167969 15.980469 C 15.891094 16.376193 16.236328 17.151014 16.236328 17.892578 C 16.236328 18.634143 15.891096 19.408963 15.167969 19.804688 C 14.610105 20.109975 13.846726 20.045485 13.005859 19.753906 L 13.005859 22.5 L 18 22.5 C 22.46875 22.5 23.5 21.468749 23.5 17 L 23.5 11.998047 L 23 11.998047 L 23 12.992188 L 19.228516 12.992188 L 19.632812 12.253906 C 20.17157 11.269438 20.121292 10.664243 19.927734 10.310547 C 19.734178 9.9568518 19.329587 9.7617188 18.892578 9.7617188 z M 12 12.992188 L 12 22.5 L 12.005859 22.5 L 12.005859 18.226562 L 12.746094 18.632812 C 13.730562 19.17157 14.335757 19.121292 14.689453 18.927734 C 15.043149 18.734178 15.236328 18.329587 15.236328 17.892578 C 15.236328 17.455569 15.043149 17.050979 14.689453 16.857422 C 14.335757 16.663863 13.730562 16.613587 12.746094 17.152344 L 12.005859 17.556641 L 12.005859 12.992188 L 12 12.992188 z "
     transform="scale(0.26458334)" />
  <path
     id="rect5096"
     style="opacity:0.4;stroke-width:0.240954;stroke-linecap:round;stroke-linejoin:round"
     d="M 1.5275554,0.26458333 C 0.28821988,0.27390666 1.0104166e-8,0.58239335 1.0104166e-8,1.8520834 V 4.4978839 C 1.0104166e-8,5.7877277 0.29765627,6.085384 1.5875001,6.085384 h 3.1749975 c 1.2898438,0 1.5875,-0.2976563 1.5875,-1.5875001 V 1.8520834 c 0,-1.28984381 -0.2976562,-1.58750007 -1.5875,-1.58750007 H 1.5875001 c -0.020154,0 -0.040273,-1.4798e-4 -0.059945,0 z m 0.032556,0.26458334 c 0.018033,-1.3565e-4 0.036303,0 0.054777,0 h 3.147609 c 1.1823568,0 1.3229167,0.29315998 1.3229167,1.32291673 v 2.6458005 c 0,1.0162919 -0.1405599,1.3229167 -1.3229167,1.3229167 H 1.5875001 c -0.99193704,0 -1.32291675,-0.1405599 -1.32291675,-1.3229167 V 1.8520834 c 0,-0.96076805 0.15947068,-1.31437034 1.29552805,-1.32291673 z"
     sodipodi:nodetypes="csssssssscssssssssss" />
  <path
     id="rect1565"
     style="fill:url(#linearGradient1873);fill-opacity:1;stroke-width:0.118194"
     d="M 1.5601116,0.52922694 C 0.42405397,0.53777695 0.26458335,0.8913756 0.26458335,1.8521436 V 4.497977 c 0,1.1823568 0.33097974,1.3229167 1.32291675,1.3229167 h 3.1749975 c 1.1823568,0 1.3229167,-0.3066248 1.3229167,-1.3229167 V 1.8521436 c 0,-1.02975658 -0.1405599,-1.32291666 -1.3229167,-1.32291666 h -3.147609 c -0.018473,0 -0.036744,-1.356e-4 -0.054777,0 z m 0.00259,0.26458338 h 0.049609 3.0179 c 1.0641211,0 1.190625,0.14300558 1.190625,1.05833328 V 4.497977 c 0,0.8938382 -0.1265039,1.0583334 -1.190625,1.0583334 H 1.7197917 c -1.02290214,0 -1.19062501,-0.1576914 -1.19062501,-1.0583334 V 1.8521436 c 0,-0.8540052 0.14116471,-1.05833328 1.03352871,-1.05833328 z"
     sodipodi:nodetypes="csssssssscsssssssssss" />
</svg>
