<?xml version="1.0" encoding="UTF-8" standalone="no"?>
<!-- Created with Inkscape (http://www.inkscape.org/) -->

<svg
   width="24"
   height="24"
   viewBox="0 0 6.3499999 6.3500002"
   version="1.1"
   id="svg5013"
   sodipodi:docname="quadrapassel.svg"
   inkscape:version="1.1.2 (0a00cf5339, 2022-02-04)"
   xmlns:inkscape="http://www.inkscape.org/namespaces/inkscape"
   xmlns:sodipodi="http://sodipodi.sourceforge.net/DTD/sodipodi-0.dtd"
   xmlns:xlink="http://www.w3.org/1999/xlink"
   xmlns="http://www.w3.org/2000/svg"
   xmlns:svg="http://www.w3.org/2000/svg">
  <sodipodi:namedview
     id="namedview5015"
     pagecolor="#ffffff"
     bordercolor="#666666"
     borderopacity="1.0"
     inkscape:pageshadow="2"
     inkscape:pageopacity="0.0"
     inkscape:pagecheckerboard="0"
     inkscape:document-units="px"
     showgrid="false"
     units="px"
     showguides="true"
     inkscape:zoom="18.856697"
     inkscape:cx="5.4887661"
     inkscape:cy="17.02313"
     inkscape:window-width="1920"
     inkscape:window-height="1010"
     inkscape:window-x="0"
     inkscape:window-y="0"
     inkscape:window-maximized="1"
     inkscape:current-layer="svg5013" />
  <defs
     id="defs5010">
    <linearGradient
       inkscape:collect="always"
       id="linearGradient1190">
      <stop
         style="stop-color:#fdc92b;stop-opacity:1;"
         offset="0"
         id="stop1186" />
      <stop
         style="stop-color:#ffda64;stop-opacity:1"
         offset="1"
         id="stop1188" />
    </linearGradient>
    <linearGradient
       inkscape:collect="always"
       xlink:href="#linearGradient1871"
       id="linearGradient1873"
       x1="10.572797"
       y1="1.2222221"
       x2="10.805839"
       y2="46.70113"
       gradientUnits="userSpaceOnUse"
       gradientTransform="matrix(0.12026516,0,0,0.11615853,0.28863637,0.38719515)" />
    <linearGradient
       inkscape:collect="always"
       id="linearGradient1871">
      <stop
         style="stop-color:#ffffff;stop-opacity:1;"
         offset="0"
         id="stop1867" />
      <stop
         style="stop-color:#ffffff;stop-opacity:0.1"
         offset="0.12"
         id="stop2515" />
      <stop
         style="stop-color:#ffffff;stop-opacity:0.102"
         offset="0.89999998"
         id="stop2581" />
      <stop
         style="stop-color:#ffffff;stop-opacity:0.502"
         offset="1"
         id="stop1869" />
    </linearGradient>
    <linearGradient
       inkscape:collect="always"
       xlink:href="#linearGradient2290"
       id="linearGradient2292"
       x1="-0.15119053"
       y1="-0.27850887"
       x2="-0.15119053"
       y2="8.7451754"
       gradientUnits="userSpaceOnUse"
       gradientTransform="matrix(2.7368992,0,0,2.6596675,0.41379327,0.74074096)" />
    <linearGradient
       inkscape:collect="always"
       id="linearGradient2290">
      <stop
         style="stop-color:#2b898f;stop-opacity:1"
         offset="0"
         id="stop2286" />
      <stop
         style="stop-color:#5bdbc1;stop-opacity:1"
         offset="1"
         id="stop2288" />
    </linearGradient>
    <linearGradient
       inkscape:collect="always"
       xlink:href="#linearGradient1190"
       id="linearGradient1192"
       x1="1.8531372"
       y1="3.1750061"
       x2="4.2344017"
       y2="3.1750061"
       gradientUnits="userSpaceOnUse" />
    <linearGradient
       inkscape:collect="always"
       xlink:href="#linearGradient1190"
       id="linearGradient1486"
       x1="4.4979215"
       y1="2.0277841"
       x2="6.8791757"
       y2="2.0277841"
       gradientUnits="userSpaceOnUse" />
  </defs>
  <path
     d="M 1.5275552,0.52916667 C 0.28821992,0.53848667 1.6249999e-8,0.84697669 1.6249999e-8,2.1166667 V 4.7625 C 1.6249999e-8,6.052344 0.29765622,6.35 1.5875,6.35 h 3.175 C 6.0523438,6.35 6.35,6.052344 6.35,4.7625 V 2.1166667 C 6.35,0.82682299 6.0523438,0.52916667 4.7625,0.52916667 h -3.175 c -0.020153,0 -0.040273,-1.48e-4 -0.059945,0 z"
     style="opacity:0.1;fill:#000000;stroke-width:0.264583;stroke-linecap:round;stroke-linejoin:round"
     id="path9125"
     sodipodi:nodetypes="cssssssssc" />
  <path
     id="rect7669"
     style="fill:#808080;stroke-width:0.264583;stroke-linecap:round;stroke-linejoin:round"
     d="M 1.7973064,0.66145835 C 0.66124888,0.67000474 0.39687501,0.95278432 0.39687501,2.1166667 v 2.1166667 c 0,1.1638823 0.26437379,1.4466584 1.40043139,1.4552084 h 0.054777 2.6458334 c 1.1823568,0 1.4552083,-0.2728518 1.4552083,-1.4552084 V 2.1166667 c 0,-1.1823567 -0.2728515,-1.45520835 -1.4552083,-1.45520835 H 1.8520834 c -0.018474,0 -0.036744,-1.3565e-4 -0.054777,0 z" />
  <path
     id="rect6397"
     style="fill:url(#linearGradient2292);fill-opacity:1;stroke-width:0.688732;stroke-linejoin:round"
     d="m 5.7929687,1.4999999 c -4.2937606,0.032301 -5.29296876,1.1010742 -5.29296876,5.5 V 17 c 0,4.398925 0.99920776,5.467685 5.29296876,5.5 H 5.9999999 18 c 4.46875,0 5.5,-1.031251 5.5,-5.5 V 6.9999999 c 0,-4.4687499 -1.03125,-5.5 -5.5,-5.5 H 5.9999999 c -0.069823,0 -0.138875,-5.129e-4 -0.2070312,0 z"
     transform="scale(0.26458334)"
     sodipodi:nodetypes="cssccsssssc" />
  <path
     d="M 3.3522756,1.587501 C 3.2766206,1.5877656 3.1753302,1.689064 3.1760578,1.7637188 v 0.7059083 c 7.937e-4,0.074655 0.1005628,0.1758554 0.1762178,0.1762178 H 4.0581839 C 4.1338389,2.6461095 4.2344017,2.544282 4.2344017,2.4696271 V 1.7637188 c 0,-0.074655 -0.1005628,-0.1765829 -0.1762178,-0.1762178 z M 2.0293588,2.9104177 C 1.9537038,2.9106823 1.8524134,3.0119807 1.853141,3.0866355 v 0.7059083 c 7.937e-4,0.074655 0.1005628,0.1758554 0.1762178,0.1762178 H 2.7352672 C 2.8109222,3.9690262 2.911485,3.8671987 2.911485,3.7925438 V 3.0866355 c 0,-0.074655 -0.1005628,-0.1765829 -0.1762178,-0.1762178 z m 1.3229168,0 c -0.075655,2.646e-4 -0.1769454,0.101563 -0.1762178,0.1762178 v 0.7059083 c 7.937e-4,0.074655 0.1005628,0.1758554 0.1762178,0.1762178 H 4.0581839 C 4.1338389,3.9690262 4.2344017,3.8671987 4.2344017,3.7925438 V 3.0866355 c 0,-0.074655 -0.1005628,-0.1765829 -0.1762178,-0.1762178 z M 2.0293588,4.2333347 C 1.9537038,4.2335992 1.8524134,4.3348976 1.853141,4.4095525 v 0.7059083 c 7.937e-4,0.074655 0.1005628,0.1758553 0.1762178,0.1762178 H 2.7352672 C 2.8109222,5.2919432 2.911485,5.1901156 2.911485,5.1154608 V 4.4095525 c 0,-0.074655 -0.1005628,-0.1765832 -0.1762178,-0.1762178 z"
     style="opacity:0.4;fill:#000000;fill-opacity:1;stroke-width:0.264583;enable-background:new"
     id="path1311" />
  <path
     d="M 3.3522756,1.3229177 C 3.2766206,1.3231822 3.1753302,1.4244806 3.1760578,1.4991355 v 0.7059083 c 7.937e-4,0.074655 0.1005628,0.1758553 0.1762178,0.1762178 h 0.7059083 c 0.075655,2.646e-4 0.1762178,-0.101563 0.1762178,-0.1762178 V 1.4991355 c 0,-0.074655 -0.1005628,-0.176583 -0.1762178,-0.1762178 z M 2.0293589,2.6458344 C 1.9537039,2.6460989 1.8524135,2.7473973 1.8531411,2.8220522 v 0.7059083 c 7.937e-4,0.074655 0.1005628,0.1758553 0.1762178,0.1762178 H 2.7352672 C 2.8109222,3.7044429 2.911485,3.6026153 2.911485,3.5279605 V 2.8220522 c 0,-0.074655 -0.1005628,-0.176583 -0.1762178,-0.1762178 z m 1.3229167,0 C 3.2766206,2.6460989 3.1753302,2.7473973 3.1760578,2.8220522 v 0.7059083 c 7.937e-4,0.074655 0.1005628,0.1758553 0.1762178,0.1762178 h 0.7059083 c 0.075655,2.646e-4 0.1762178,-0.101563 0.1762178,-0.1762178 V 2.8220522 c 0,-0.074655 -0.1005628,-0.176583 -0.1762178,-0.1762178 z M 2.0293589,3.9687511 C 1.9537039,3.9690156 1.8524135,4.070314 1.8531411,4.1449689 v 0.7059083 c 7.937e-4,0.074655 0.1005628,0.1758553 0.1762178,0.1762178 H 2.7352672 C 2.8109222,5.0273596 2.911485,4.925532 2.911485,4.8508772 V 4.1449689 c 0,-0.074655 -0.1005628,-0.176583 -0.1762178,-0.1762178 z"
     style="fill:url(#linearGradient1192);fill-opacity:1;stroke-width:0.264583;enable-background:new"
     id="path1673" />
  <path
     d="M 3.3522756,1.3229177 C 3.2766206,1.3231822 3.1753302,1.4244806 3.1760578,1.4991355 V 1.7637188 C 3.175264,1.689064 3.2766206,1.5877656 3.3522756,1.587501 h 0.7059083 c 0.075655,-2.646e-4 0.1762178,0.101563 0.1762178,0.1762178 V 1.4991355 c 0,-0.074655 -0.1005628,-0.176583 -0.1762178,-0.1762178 z M 2.0293589,2.6458344 C 1.9537039,2.6460989 1.8524135,2.7473973 1.8531411,2.8220522 V 3.0866355 C 1.8523473,3.0119807 1.9537039,2.9106823 2.0293589,2.9104177 H 2.7352672 C 2.8109222,2.9101531 2.911485,3.0119807 2.911485,3.0866355 V 2.8220522 c 0,-0.074655 -0.1005628,-0.176583 -0.1762178,-0.1762178 z m 1.3229167,0 C 3.2766206,2.6460989 3.1753302,2.7473973 3.1760578,2.8220522 V 3.0866355 C 3.175264,3.0119807 3.2766206,2.9106823 3.3522756,2.9104177 h 0.7059083 c 0.075655,-2.646e-4 0.1762178,0.101563 0.1762178,0.1762178 V 2.8220522 c 0,-0.074655 -0.1005628,-0.176583 -0.1762178,-0.1762178 z M 2.0293589,3.9687511 C 1.9537039,3.9690156 1.8524135,4.070314 1.8531411,4.1449689 V 4.4095522 C 1.8523473,4.3348974 1.9537039,4.233599 2.0293589,4.2333344 H 2.7352672 C 2.8109222,4.2330698 2.911485,4.3348974 2.911485,4.4095522 V 4.1449689 c 0,-0.074655 -0.1005628,-0.176583 -0.1762178,-0.1762178 z"
     style="opacity:0.7;fill:#ffffff;stroke-width:0.264583;enable-background:new"
     id="path2115" />
  <path
     id="path37"
     style="opacity:0.1;fill:#000000;fill-opacity:1;stroke-width:0.264583"
     d="m 4.4979214,3.5274343 v 0.2645833 c 7.938e-4,0.074655 0.1005618,0.1758542 0.1762168,0.1762167 H 5.380038 C 5.455693,3.9684989 5.5562548,3.8666724 5.5562548,3.7920176 V 3.5274343 c 0,0.074655 -0.1005618,0.1764813 -0.1762168,0.1762167 H 4.6741382 C 4.5984832,3.7032885 4.4987152,3.6020891 4.4979214,3.5274343 Z M 0.5291713,4.850351 V 5.1149343 C 0.5299651,5.1895893 0.629733,5.2907885 0.705388,5.291151 h 0.7059 C 1.486943,5.2914156 1.5875047,5.1895891 1.5875047,5.1149343 V 4.850351 c 0,0.074655 -0.1005617,0.1764813 -0.1762167,0.1762167 h -0.7059 C 0.629733,5.0262052 0.5299651,4.9250058 0.5291713,4.850351 Z m 2.6458334,0 v 0.2645833 c 7.938e-4,0.074655 0.1005618,0.1758542 0.1762168,0.1762167 H 4.0571213 C 4.1327763,5.2914156 4.2333381,5.1895891 4.2333381,5.1149343 V 4.850351 c 0,0.074655 -0.1005618,0.1764813 -0.1762168,0.1762167 H 3.3512215 C 3.2755665,5.0262052 3.1757985,4.9250058 3.1750047,4.850351 Z m 1.3229167,0 v 0.2645833 c 7.938e-4,0.074655 0.1005618,0.1758542 0.1762168,0.1762167 H 5.380038 C 5.455693,5.2914156 5.5562548,5.1895891 5.5562548,5.1149343 V 4.850351 c 0,0.074655 -0.1005618,0.1764813 -0.1762168,0.1762167 H 4.6741382 C 4.5984832,5.0262052 4.4987152,4.9250058 4.4979214,4.850351 Z" />
  <path
     d="M 4.6741382,2.6453176 C 4.5984832,2.6455822 4.4971938,2.7468795 4.4979214,2.8215341 v 0.7059002 c 7.938e-4,0.074655 0.1005618,0.1758542 0.1762168,0.1762167 H 5.380038 C 5.455693,3.7039156 5.5562548,3.6020891 5.5562548,3.5274343 V 2.8215341 c 0,-0.074655 -0.1005618,-0.1765816 -0.1762168,-0.1762165 z M 0.705388,3.9682343 C 0.629733,3.9684989 0.5284437,4.0697962 0.5291713,4.1444508 V 4.850351 C 0.5299651,4.925006 0.629733,5.0262052 0.705388,5.0265677 H 1.4112879 C 1.4869429,5.0268323 1.5875047,4.9250058 1.5875047,4.850351 V 4.1444508 c 0,-0.074655 -0.1005618,-0.1765816 -0.1762168,-0.1762165 z m 2.6458335,0 C 3.2755665,3.9684989 3.1742771,4.0697962 3.1750047,4.1444508 V 4.850351 c 7.938e-4,0.074655 0.1005618,0.1758542 0.1762168,0.1762167 H 4.0571213 C 4.1327763,5.0268323 4.2333381,4.9250058 4.2333381,4.850351 V 4.1444508 c 0,-0.074655 -0.1005618,-0.1765816 -0.1762168,-0.1762165 z m 1.3229167,0 C 4.5984832,3.9684989 4.4971938,4.0697962 4.4979214,4.1444508 V 4.850351 c 7.938e-4,0.074655 0.1005618,0.1758542 0.1762168,0.1762167 H 5.380038 C 5.455693,5.0268323 5.5562548,4.9250058 5.5562548,4.850351 V 4.1444508 c 0,-0.074655 -0.1005618,-0.1765816 -0.1762168,-0.1762165 z"
     style="fill:url(#linearGradient1486);fill-opacity:1;stroke-width:0.264583;opacity:0.3"
     id="path2315" />
  <path
     id="path41"
     d="M 4.6741382,2.6453176 C 4.5984832,2.6455822 4.4971938,2.7468795 4.4979214,2.8215341 V 3.0861174 C 4.4971277,3.0114629 4.5984832,2.9101656 4.6741382,2.909901 H 5.380038 C 5.455693,2.9096364 5.5562548,3.0114629 5.5562548,3.0861174 V 2.8215341 c 0,-0.074655 -0.1005618,-0.1765816 -0.1762168,-0.1762165 z M 0.705388,3.9682343 C 0.629733,3.9684989 0.5284437,4.0697962 0.5291713,4.1444508 V 4.4090341 C 0.5283776,4.3343791 0.629733,4.2330823 0.705388,4.2328177 h 0.7059 C 1.486943,4.2325531 1.5875047,4.3343793 1.5875047,4.4090341 V 4.1444508 c 0,-0.074655 -0.1005617,-0.1765816 -0.1762167,-0.1762165 z m 2.6458335,0 C 3.2755665,3.9684989 3.1742771,4.0697962 3.1750047,4.1444508 V 4.4090341 C 3.174211,4.3343793 3.2755665,4.2330823 3.3512215,4.2328177 h 0.7058998 c 0.075655,-2.646e-4 0.1762168,0.1015616 0.1762168,0.1762164 V 4.1444508 c 0,-0.074655 -0.1005618,-0.1765816 -0.1762168,-0.1762165 z m 1.3229167,0 C 4.5984832,3.9684989 4.4971938,4.0697962 4.4979214,4.1444508 V 4.4090341 C 4.4971277,4.3343793 4.5984832,4.2330823 4.6741382,4.2328177 H 5.380038 C 5.455693,4.2325531 5.5562548,4.3343793 5.5562548,4.4090341 V 4.1444508 c 0,-0.074655 -0.1005618,-0.1765816 -0.1762168,-0.1762165 z"
     style="opacity:0.3;fill:#ffffff;fill-opacity:1;stroke-width:0.264583" />
  <path
     id="rect5096"
     style="opacity:0.4;stroke-width:0.240954;stroke-linecap:round;stroke-linejoin:round"
     d="M 1.5276195,0.26458333 C 0.28828403,0.27390666 6.4159692e-5,0.58239335 6.4159692e-5,1.8520834 v 2.6458333 c 0,1.2898438 0.297656260308,1.5875001 1.587500040308,1.5875001 h 3.1749359 c 1.2898438,0 1.5875,-0.2976563 1.5875,-1.5875001 V 1.8520834 c 0,-1.28984381 -0.2976562,-1.58750007 -1.5875,-1.58750007 H 1.5875642 c -0.020154,0 -0.040273,-1.4798e-4 -0.059945,0 z m 0.032556,0.26458334 c 0.018033,-1.3565e-4 0.036303,0 0.054777,0 h 3.1475474 c 1.1823568,0 1.3229167,0.29315998 1.3229167,1.32291673 v 2.6458333 c 0,1.0162919 -0.1405599,1.3229167 -1.3229167,1.3229167 H 1.5875642 c -0.99193699,0 -1.3229167,-0.1405599 -1.3229167,-1.3229167 V 1.8520834 c 0,-0.96076805 0.15947068,-1.31437034 1.295528,-1.32291673 z"
     sodipodi:nodetypes="csssssssscssssssssss" />
  <path
     id="rect1565"
     style="fill:url(#linearGradient1873);fill-opacity:1;stroke-width:0.118194"
     d="M 1.5601116,0.52916667 C 0.42405397,0.53771668 0.26458335,0.89131535 0.26458335,1.8520833 v 2.6458334 c 0,1.1823568 0.33097974,1.3229167 1.32291675,1.3229167 h 3.1749976 c 1.1823568,0 1.3229167,-0.3066248 1.3229167,-1.3229167 V 1.8520833 c 0,-1.02975655 -0.1405599,-1.32291663 -1.3229167,-1.32291663 H 1.6148886 c -0.018473,0 -0.036744,-1.356e-4 -0.054777,0 z m 0.00259,0.26458338 c 0.016229,0 0.032983,0 0.049609,0 h 3.0179001 c 1.0641211,0 1.190625,0.1430056 1.190625,1.05833325 v 2.6458334 c 0,0.8938382 -0.1265039,1.0583334 -1.190625,1.0583334 h -2.910419 c -1.02290214,0 -1.19062501,-0.1576914 -1.19062501,-1.0583334 V 1.8520833 c 0,-0.85400515 0.1411647,-1.05833325 1.03352871,-1.05833325 z"
     sodipodi:nodetypes="csssssssscsssssssssss" />
</svg>
