<?xml version="1.0" encoding="UTF-8" standalone="no"?>
<!-- Created with Inkscape (http://www.inkscape.org/) -->

<svg
   width="24"
   height="24"
   viewBox="0 0 6.3499999 6.3500002"
   version="1.1"
   id="svg5013"
   sodipodi:docname="system-remixer.svg"
   inkscape:version="1.1.2 (0a00cf5339, 2022-02-04)"
   xmlns:inkscape="http://www.inkscape.org/namespaces/inkscape"
   xmlns:sodipodi="http://sodipodi.sourceforge.net/DTD/sodipodi-0.dtd"
   xmlns:xlink="http://www.w3.org/1999/xlink"
   xmlns="http://www.w3.org/2000/svg"
   xmlns:svg="http://www.w3.org/2000/svg">
  <sodipodi:namedview
     id="namedview5015"
     pagecolor="#ffffff"
     bordercolor="#666666"
     borderopacity="1.0"
     inkscape:pageshadow="2"
     inkscape:pageopacity="0.0"
     inkscape:pagecheckerboard="0"
     inkscape:document-units="px"
     showgrid="false"
     units="px"
     showguides="false"
     inkscape:zoom="12.174337"
     inkscape:cx="-9.4460993"
     inkscape:cy="10.637129"
     inkscape:window-width="1920"
     inkscape:window-height="1016"
     inkscape:window-x="0"
     inkscape:window-y="0"
     inkscape:window-maximized="1"
     inkscape:current-layer="svg5013" />
  <defs
     id="defs5010">
    <linearGradient
       inkscape:collect="always"
       xlink:href="#linearGradient1871"
       id="linearGradient1873"
       x1="11.046622"
       y1="2.3372049"
       x2="10.794909"
       y2="47.930588"
       gradientUnits="userSpaceOnUse"
       gradientTransform="matrix(0.12026516,0,0,0.11615853,0.28863637,0.25496375)" />
    <linearGradient
       inkscape:collect="always"
       id="linearGradient1871">
      <stop
         style="stop-color:#ffffff;stop-opacity:1;"
         offset="0"
         id="stop1867" />
      <stop
         style="stop-color:#ffffff;stop-opacity:0.1"
         offset="0.12"
         id="stop2515" />
      <stop
         style="stop-color:#ffffff;stop-opacity:0.102"
         offset="0.89999998"
         id="stop2581" />
      <stop
         style="stop-color:#ffffff;stop-opacity:0.502"
         offset="1"
         id="stop1869" />
    </linearGradient>
    <linearGradient
       inkscape:collect="always"
       xlink:href="#linearGradient2290"
       id="linearGradient2292"
       x1="1.9582907"
       y1="0.28538564"
       x2="6.4532399"
       y2="8.3434572"
       gradientUnits="userSpaceOnUse"
       gradientTransform="matrix(0.72413793,0,0,0.70370371,0.10948281,0.06375639)" />
    <linearGradient
       inkscape:collect="always"
       id="linearGradient2290">
      <stop
         style="stop-color:#5884f4;stop-opacity:1"
         offset="0"
         id="stop2286" />
      <stop
         style="stop-color:#80a3fa;stop-opacity:1"
         offset="1"
         id="stop2288" />
    </linearGradient>
  </defs>
  <path
     d="M 1.5275554,0.79381578 C 0.28822009,0.80313578 1.9010417e-7,1.1116258 1.9010417e-7,2.3813158 v 2.381217 c 0,1.289844 0.29765619989583,1.5875 1.58750000989583,1.5875 h 3.1749977 c 1.2898438,0 1.5875,-0.297656 1.5875,-1.5875 v -2.381217 c 0,-1.2898437 -0.2976562,-1.58750002 -1.5875,-1.58750002 H 1.5875002 c -0.020153,0 -0.040273,-1.48e-4 -0.059945,0 z"
     style="opacity:0.1;fill:#000000;stroke-width:0.264583;stroke-linecap:round;stroke-linejoin:round"
     id="path9125"
     sodipodi:nodetypes="cssssssssc" />
  <path
     id="rect7669"
     style="fill:#808080;stroke-width:0.264583;stroke-linecap:round;stroke-linejoin:round"
     d="M 1.7973064,0.66145835 C 0.66124888,0.67000474 0.39687501,0.95278432 0.39687501,2.1166667 v 2.1166667 c 0,1.1638823 0.26437379,1.4466584 1.40043139,1.4552084 h 0.054777 2.6458334 c 1.1823568,0 1.4552083,-0.2728518 1.4552083,-1.4552084 V 2.1166667 c 0,-1.1823567 -0.2728515,-1.45520835 -1.4552083,-1.45520835 H 1.8520834 c -0.018474,0 -0.036744,-1.3565e-4 -0.054777,0 z" />
  <path
     id="rect6397"
     style="fill:url(#linearGradient2292);fill-opacity:1;stroke-width:0.182227;stroke-linejoin:round"
     d="M 1.532723,0.39693532 C 0.39666551,0.40548163 0.13229168,0.68826121 0.13229168,1.8521437 v 2.6458334 c 0,1.1638823 0.26437373,1.4466584 1.40043132,1.4552084 H 1.5875 4.7624975 c 1.1823568,0 1.4552083,-0.2728518 1.4552083,-1.4552084 V 1.8521437 c 0,-1.18235679 -0.2728515,-1.45520838 -1.4552083,-1.45520838 H 1.5875 c -0.018474,0 -0.036744,-1.3571e-4 -0.054777,0 z"
     sodipodi:nodetypes="cssccsssssc" />
  <path
     d="M 3.2142751,1.7197917 C 2.6077754,1.7204684 2.055282,2.0681476 1.7926563,2.6148276 L 1.5218719,2.4417114 C 1.5005571,2.5910807 1.4843238,2.7467549 1.4727793,2.9083496 1.4621324,3.0689139 1.4562481,3.2264286 1.4552083,3.3811889 1.5940685,3.3148457 1.7343575,3.2438485 1.8758545,3.1672487 2.0180102,3.0893813 2.1531679,3.0097882 2.2815145,2.9290202 V 2.928491 L 1.9838582,2.7378049 C 2.2033985,2.2556492 2.6844889,1.9462944 3.214274,1.9456177 c 0.5801313,0 1.0735752,0.3656091 1.2660726,0.8784995 L 4.6911864,2.7450521 C 4.4666666,2.1465824 3.891174,1.7197917 3.2142751,1.7197917 Z M 4.973341,3.2163411 C 4.8344805,3.2826843 4.6941918,3.3541985 4.5526948,3.4307983 4.4105392,3.5086657 4.2748645,3.5877417 4.1465181,3.66851 v 5.292e-4 l 0.2976562,0.190686 C 4.2246405,4.341881 3.7440826,4.651775 3.2142751,4.6524293 c -0.5801314,0 -1.0735753,-0.3656092 -1.2660727,-0.8784995 L 1.7368459,3.852478 C 1.9613668,4.4509472 2.5373764,4.8777384 3.2142751,4.8777384 3.820775,4.8770505 4.3732681,4.5293827 4.6358938,3.9827027 l 0.2702676,0.1731161 c 0.021315,-0.1493692 0.038065,-0.3050431 0.049609,-0.4666382 0.010647,-0.160564 0.016534,-0.3180792 0.017571,-0.4728395 z"
     style="opacity:0.1;fill:#000000;stroke-width:0.225565"
     id="path983"
     sodipodi:nodetypes="cccccccccccccccccccccccccc" />
  <path
     d="M 3.2142751,1.5875 C 2.6077755,1.5881767 2.0552821,1.9358559 1.7926564,2.482536 L 1.521872,2.3094197 C 1.5005572,2.4587891 1.4843239,2.6144633 1.4727794,2.7760579 1.4621326,2.9366221 1.4562482,3.0941368 1.4552084,3.2488971 1.5940686,3.1825541 1.7343576,3.1115567 1.8758546,3.0349569 2.0180103,2.9570895 2.153168,2.8774965 2.2815146,2.7967284 V 2.7961993 L 1.9838583,2.6055133 C 2.2033986,2.1233575 2.6844891,1.8140027 3.2142741,1.813326 c 0.5801312,0 1.0735751,0.3656091 1.2660725,0.8784994 L 4.6911864,2.6127605 C 4.4666666,2.0142907 3.891174,1.5875 3.2142751,1.5875 Z M 4.973341,3.0840493 C 4.8344805,3.1503925 4.6941918,3.2219067 4.5526948,3.2985065 4.4105392,3.3763739 4.2748645,3.4554499 4.1465181,3.5362182 v 5.292e-4 l 0.2976562,0.190686 C 4.2246405,4.2095894 3.7440826,4.5194831 3.2142751,4.5201375 2.6341438,4.5201375 2.1406999,4.1545283 1.9482025,3.641638 L 1.736846,3.720186 C 1.9613669,4.3186554 2.5373765,4.7454466 3.2142751,4.7454466 3.820775,4.7447587 4.3732681,4.3970909 4.6358938,3.8504109 L 4.9061614,4.023527 c 0.021315,-0.1493692 0.038065,-0.3050429 0.049609,-0.4666382 0.010647,-0.160564 0.016534,-0.3180792 0.017571,-0.4728395 z"
     style="fill:#ffffff;stroke-width:0.0596807"
     id="path1102" />
  <path
     id="rect5096"
     style="opacity:0.4;stroke-width:0.240954;stroke-linecap:round;stroke-linejoin:round"
     d="M 1.5275554,0.26458333 C 0.28821988,0.27390666 1.0104166e-8,0.58239335 1.0104166e-8,1.8520834 V 4.4978839 C 1.0104166e-8,5.7877277 0.29765627,6.085384 1.5875001,6.085384 h 3.1749975 c 1.2898438,0 1.5875,-0.2976563 1.5875,-1.5875001 V 1.8520834 c 0,-1.28984381 -0.2976562,-1.58750007 -1.5875,-1.58750007 H 1.5875001 c -0.020154,0 -0.040273,-1.4798e-4 -0.059945,0 z m 0.032556,0.26458334 c 0.018033,-1.3565e-4 0.036303,0 0.054777,0 h 3.147609 c 1.1823568,0 1.3229167,0.29315998 1.3229167,1.32291673 v 2.6458005 c 0,1.0162919 -0.1405599,1.3229167 -1.3229167,1.3229167 H 1.5875001 c -0.99193704,0 -1.32291675,-0.1405599 -1.32291675,-1.3229167 V 1.8520834 c 0,-0.96076805 0.15947068,-1.31437034 1.29552805,-1.32291673 z"
     sodipodi:nodetypes="csssssssscssssssssss" />
  <path
     id="rect1565"
     style="fill:url(#linearGradient1873);fill-opacity:1;stroke-width:0.118194"
     d="M 1.5601116,0.52922694 C 0.42405397,0.53777695 0.26458335,0.8913756 0.26458335,1.8521436 V 4.497977 c 0,1.1823568 0.33097974,1.3229167 1.32291675,1.3229167 h 3.1749975 c 1.1823568,0 1.3229167,-0.3066248 1.3229167,-1.3229167 V 1.8521436 c 0,-1.02975658 -0.1405599,-1.32291666 -1.3229167,-1.32291666 h -3.147609 c -0.018473,0 -0.036744,-1.356e-4 -0.054777,0 z m 0.00259,0.26458338 h 0.049609 3.0179 c 1.0641211,0 1.190625,0.14300558 1.190625,1.05833328 V 4.497977 c 0,0.8938382 -0.1265039,1.0583334 -1.190625,1.0583334 H 1.7197917 c -1.02290214,0 -1.19062501,-0.1576914 -1.19062501,-1.0583334 V 1.8521436 c 0,-0.8540052 0.14116471,-1.05833328 1.03352871,-1.05833328 z"
     sodipodi:nodetypes="csssssssscsssssssssss" />
</svg>
