<?xml version="1.0" encoding="UTF-8" standalone="no"?>
<!-- Created with Inkscape (http://www.inkscape.org/) -->

<svg
   width="48"
   height="48"
   viewBox="0 0 12.7 12.7"
   version="1.1"
   id="svg5"
   inkscape:version="1.1.2 (0a00cf5339, 2022-02-04)"
   sodipodi:docname="accessories-character-map.svg"
   xmlns:inkscape="http://www.inkscape.org/namespaces/inkscape"
   xmlns:sodipodi="http://sodipodi.sourceforge.net/DTD/sodipodi-0.dtd"
   xmlns:xlink="http://www.w3.org/1999/xlink"
   xmlns="http://www.w3.org/2000/svg"
   xmlns:svg="http://www.w3.org/2000/svg">
  <sodipodi:namedview
     id="namedview7"
     pagecolor="#ffffff"
     bordercolor="#666666"
     borderopacity="1.0"
     inkscape:pageshadow="2"
     inkscape:pageopacity="0.0"
     inkscape:pagecheckerboard="0"
     inkscape:document-units="px"
     showgrid="false"
     units="px"
     inkscape:zoom="16.5"
     inkscape:cx="23.969697"
     inkscape:cy="24"
     inkscape:window-width="1920"
     inkscape:window-height="1010"
     inkscape:window-x="0"
     inkscape:window-y="0"
     inkscape:window-maximized="1"
     inkscape:current-layer="svg5" />
  <defs
     id="defs2">
    <linearGradient
       inkscape:collect="always"
       id="linearGradient2330">
      <stop
         style="stop-color:#000000;stop-opacity:1;"
         offset="0"
         id="stop2326" />
      <stop
         style="stop-color:#000000;stop-opacity:0;"
         offset="1"
         id="stop2328" />
    </linearGradient>
    <linearGradient
       inkscape:collect="always"
       id="linearGradient1871">
      <stop
         style="stop-color:#ffffff;stop-opacity:1;"
         offset="0"
         id="stop1867" />
      <stop
         style="stop-color:#ffffff;stop-opacity:0.1"
         offset="0.12"
         id="stop2515" />
      <stop
         style="stop-color:#ffffff;stop-opacity:0.102"
         offset="0.89999998"
         id="stop2581" />
      <stop
         style="stop-color:#ffffff;stop-opacity:0.502"
         offset="1"
         id="stop1869" />
    </linearGradient>
    <linearGradient
       inkscape:collect="always"
       xlink:href="#linearGradient1871"
       id="linearGradient1873"
       x1="17.222656"
       y1="3.5"
       x2="17.222656"
       y2="44.466438"
       gradientUnits="userSpaceOnUse"
       gradientTransform="matrix(0.26458333,0,0,0.26458333,0,-0.13229166)" />
    <linearGradient
       inkscape:collect="always"
       xlink:href="#linearGradient2330"
       id="linearGradient2332"
       x1="6.3499999"
       y1="6.2177084"
       x2="7.4083332"
       y2="6.2177084"
       gradientUnits="userSpaceOnUse" />
  </defs>
  <path
     id="rect3143"
     style="opacity:0.1;fill:#000000;fill-opacity:1;stroke-width:0.264583"
     d="m 4.5160033,1.0583334 c -3.60405388,0 -4.1191283,0.5137855 -4.1191283,4.1144775 v 2.883545 c 0,3.6006791 0.51507442,4.1144791 4.1191283,4.1144791 h 3.6679933 c 3.6040544,0 4.1191284,-0.5138 4.1191284,-4.1144791 v -2.883545 c 0,-3.600692 -0.515074,-4.1144775 -4.1191284,-4.1144775 z" />
  <path
     style="display:inline;fill:#f6f5f4;fill-opacity:1;stroke:none;stroke-width:0.0992187;stroke-linecap:round;stroke-linejoin:round;stroke-miterlimit:4;stroke-dasharray:none;stroke-dashoffset:0;stroke-opacity:1;enable-background:new"
     d="m 8.1839962,0.66145835 c 3.6040548,0 4.1191298,0.51378545 4.1191298,4.11447755 v 2.883545 c 0,3.6006781 -0.515075,4.1144781 -4.1191298,4.1144781 H 4.5160033 c -3.604054,0 -4.1191283,-0.5138 -4.1191283,-4.1144781 v -2.883545 c 0,-3.6006921 0.5150743,-4.11447755 4.1191283,-4.11447755 z"
     id="rect877"
     inkscape:connector-curvature="0"
     sodipodi:nodetypes="sssssssss" />
  <path
     id="rect10194"
     style="opacity:1;fill:#3685e4;fill-opacity:1;stroke-width:0.999999"
     d="m 24,2.5 v 42 h 6.931641 C 44.553265,44.5 46.5,42.558082 46.5,28.949219 V 18.050781 C 46.5,4.9748843 44.032323,2.5047927 31.021,2.5 Z"
     sodipodi:nodetypes="ccssscc"
     transform="scale(0.26458333)" />
  <rect
     style="opacity:0.05;fill:url(#linearGradient2332);fill-opacity:1;stroke-width:0.26779;stroke-linejoin:round"
     id="rect2208"
     width="1.0583333"
     height="11.1125"
     x="6.3499999"
     y="0.66145831" />
  <path
     id="rect2143"
     style="opacity:0.1;fill:#ffffff;fill-opacity:1;stroke-width:0.187088;stroke-linejoin:round"
     d="m 12.303126,6.2177083 v 1.4417725 c 0,3.6006772 -0.515074,4.1144772 -4.119129,4.1144772 H 6.35 V 6.2177083 Z" />
  <path
     id="rect1565"
     style="fill:url(#linearGradient1873);fill-opacity:1;stroke-width:0.264583;opacity:0.7"
     d="m 4.5568277,0.79374997 c -3.5239635,0 -4.02766104,0.50133123 -4.02766104,4.01629243 v 2.8153318 c 0,3.5149478 0.50369754,4.0162928 4.02766104,4.0162928 h 3.5863445 c 3.5239638,0 4.0276608,-0.501345 4.0276608,-4.0162928 V 4.8100424 c 0,-3.5149612 -0.503697,-4.01629243 -4.0276608,-4.01629243 z m 0.081649,0.26458343 h 3.4230468 c 3.3637835,0 3.8447265,0.4769388 3.8447265,3.8204385 v 2.6778728 c 0,3.3434873 -0.480943,3.8204393 -3.8447265,3.8204393 h -3.423047 c -3.3637834,0 -3.84472651,-0.476952 -3.84472651,-3.8204393 V 4.8787719 c 0,-3.3434997 0.48094311,-3.8204385 3.84472671,-3.8204385 z" />
  <path
     id="rect1370"
     style="opacity:0.4;fill:#000000;fill-opacity:1;stroke-width:0.264583"
     d="m 4.4751788,0.52916667 c -3.68414336,0 -4.21059547,0.52624033 -4.21059547,4.21266273 v 2.9517578 c 0,3.6864088 0.52645211,4.2126628 4.21059547,4.2126628 H 8.224821 c 3.684144,0 4.210596,-0.526254 4.210596,-4.2126628 V 4.7418294 c 0,-3.6864224 -0.526452,-4.21266273 -4.210596,-4.21266273 z m 0.081649,0.2645833 h 3.5863445 c 3.5239637,0 4.0276607,0.50133143 4.0276607,4.01629243 v 2.8153318 c 0,3.5149478 -0.503697,4.0162928 -4.0276607,4.0162928 H 4.5568277 c -3.5239637,0 -4.02766104,-0.501345 -4.02766104,-4.0162928 V 4.8100424 c 0,-3.514961 0.50369724,-4.01629243 4.02766114,-4.01629243 z" />
  <path
     id="rect32"
     d="m 9.9001128,4.2333333 c -0.058632,0 -0.1059368,0.047305 -0.1059368,0.1059368 v 0.3172931 c 0,0.058632 0.047305,0.1059367 0.1059368,0.1059367 h 0.3172932 c 0.05863,0 0.105937,-0.047305 0.105937,-0.1059367 V 4.3392701 c 0,-0.058632 -0.0473,-0.1059368 -0.105937,-0.1059368 z M 9.3709461,4.7624999 c -0.058632,0 -0.1059367,0.047305 -0.1059367,0.1059368 v 0.3172931 c 0,0.058632 0.047305,0.1059368 0.1059367,0.1059368 h 0.3172931 c 0.058632,0 0.1059368,-0.047305 0.1059368,-0.1059368 V 4.8684367 c 0,-0.058632 -0.047305,-0.1059368 -0.1059368,-0.1059368 z m 1.0583329,0 c -0.05863,0 -0.105936,0.047305 -0.105936,0.1059368 v 0.3172931 c 0,0.058632 0.0473,0.1059368 0.105936,0.1059368 h 0.317293 c 0.05863,0 0.105937,-0.047305 0.105937,-0.1059368 V 4.8684367 c 0,-0.058632 -0.0473,-0.1059368 -0.105937,-0.1059368 z m 1.09399,0.497644 -0.404626,0.1250571 c 0,0 0.06429,0.210802 0.09612,0.4490681 0.0159,0.1191331 0.02262,0.2436148 0.0124,0.3405478 -0.01021,0.096933 -0.03951,0.1568119 -0.05581,0.1731161 -0.02193,0.021923 -0.09049,0.05384 -0.197404,0.065112 -0.106913,0.011271 -0.242951,0.00388 -0.372587,-0.013435 -0.179969,-0.024043 -0.254629,-0.049442 -0.338999,-0.072348 V 5.5345459 H 9.8391345 v 0.7989176 c -0.016775,0.00419 -0.014579,0.00442 -0.033073,0.00878 -0.1038489,0.024516 -0.2345383,0.048085 -0.2883545,0.049609 -0.08926,0.00254 -0.2733233,-0.02119 -0.4221964,-0.047542 -0.057322,-0.010147 -0.059561,-0.011885 -0.1028362,-0.020672 V 5.7459004 H 8.5689279 V 6.6662574 7.000604 C 8.5681342,7.007444 8.5635579,7.045132 8.5513569,7.096205 8.5420469,7.135262 8.5364189,7.146306 8.5332699,7.1577 8.3313982,7.2376029 8.1374743,7.3118699 7.9891171,7.336501 7.8279779,7.3632546 7.7360336,7.3445126 7.6573545,7.2801736 7.6239799,7.2432676 7.5872656,7.1626592 7.5741554,7.0383277 7.5605559,6.9092307 7.5692316,6.7484375 7.5896574,6.5954608 7.6305302,6.2895074 7.7131641,6.0197854 7.7131641,6.0197854 L 7.3085397,5.8952473 c 0,0 -0.092059,0.2968316 -0.138493,0.6444052 -0.023204,0.1737868 -0.036196,0.3616645 -0.017052,0.5431192 0.019129,0.1814546 0.068032,0.3662052 0.2082562,0.5064291 l 0.00568,0.00517 0.00568,0.00517 C 7.5693374,7.7686979 7.8260539,7.7926178 8.0583633,7.7540481 8.2906728,7.7154781 8.521899,7.6231585 8.753928,7.5297722 l 0.040308,-0.01602 0.030489,-0.030489 C 8.9311004,7.3768857 8.9432734,7.2779267 8.9632177,7.1943912 8.9831672,7.1108559 8.991123,7.0398787 8.991123,7.0398787 l 0.00156,-0.011885 V 6.7556588 c 0.015346,0.00284 0.012856,0.00284 0.028939,0.00568 0.1600677,0.028334 0.3472027,0.057781 0.5079794,0.053227 0.1253331,-0.00355 0.258704,-0.032814 0.3736205,-0.059945 0.085577,-0.020204 0.1224551,-0.03095 0.1539961,-0.039791 0.05263,0.01564 0.224603,0.069151 0.488342,0.1043866 0.150447,0.0201 0.313565,0.031778 0.472839,0.014986 0.159274,-0.016793 0.324415,-0.059316 0.452169,-0.1870686 0.12214,-0.1221391 0.162029,-0.2785904 0.177767,-0.427881 0.01574,-0.1492904 0.0047,-0.3013734 -0.01395,-0.4413166 -0.03739,-0.2798868 -0.111104,-0.517798 -0.111104,-0.517798 z"
     style="stroke-width:0.264583;fill:#ffffff" />
  <path
     id="path1479"
     style="fill:#4d4d4d;fill-opacity:1;stroke-width:0.264583;stroke-linejoin:round"
     inkscape:transform-center-x="3.9059232"
     inkscape:transform-center-y="0.72532499"
     d="m 3.4396265,6.6145833 c -0.1625891,0 -0.32502,0.050096 -0.4252971,0.1503783 -0.2005594,0.2005674 -0.1268465,0.5968852 0,0.8505942 L 3.3688298,8.3250733 3.2980331,8.3958703 2.5885157,8.0413696 c -0.2536931,-0.1268492 -0.6500135,-0.2005674 -0.8505941,0 -0.2005621,0.2005673 -0.2005621,0.6505302 0,0.8511108 0.2005648,0.2005674 0.5968851,0.1268492 0.8505941,0 L 3.2975164,8.53798 3.3688294,8.608777 3.014329,9.3177778 c -0.1268465,0.2537015 -0.2005594,0.6505305 0,0.8511102 0.2005647,0.200564 0.65004,0.200564 0.8505941,0 0.2005621,-0.2005697 0.1268466,-0.5974017 0,-0.8511102 L 3.5104231,8.608777 3.5817361,8.53798 4.2907369,8.8924804 c 0.2536931,0.1268492 0.65004,0.2005674 0.8505942,0 0.2005541,-0.2005674 0.2005621,-0.6505302 0,-0.8511108 -0.2005621,-0.2005807 -0.5968852,-0.1268492 -0.8505942,0 L 3.5812198,8.3958699 3.5104231,8.3250729 3.8649235,7.6155554 c 0.1268465,-0.2537011 0.2005621,-0.6500136 0,-0.8505942 C 3.7646412,6.6646766 3.6022156,6.6145833 3.4396265,6.6145833 Z" />
  <g
     id="g1450">
    <circle
       style="opacity:1;fill:#fdc92b;fill-opacity:1;stroke-width:0.213435;stroke-linejoin:round"
       id="path1083"
       cx="3.4395835"
       cy="3.7040453"
       r="1.8520833" />
    <path
       id="circle42"
       d="M 2.7703943,3.0736647 A 0.21166667,0.21166667 0 0 0 2.5585209,3.285538 0.21166667,0.21166667 0 0 0 2.7703943,3.4968945 0.21166667,0.21166667 0 0 0 2.9817508,3.285538 0.21166667,0.21166667 0 0 0 2.7703943,3.0736647 Z m 1.2696899,0 A 0.21166667,0.21166667 0 0 0 3.8287276,3.285538 0.21166667,0.21166667 0 0 0 4.0400842,3.4968945 0.21166667,0.21166667 0 0 0 4.2519575,3.285538 0.21166667,0.21166667 0 0 0 4.0400842,3.0736647 Z"
       style="fill:#4d4d4d;fill-opacity:1;stroke-width:0.264583" />
    <path
       id="rect1966"
       style="fill:#f22c42;fill-opacity:1;stroke-width:0.264583;stroke-linejoin:round"
       d="M 2.7884146,4.2333333 2.5997958,4.3919798 c 0.2193687,0.2272057 0.5213329,0.3555209 0.8371581,0.3555339 0.3158252,-1.3e-5 0.6183063,-0.1283282 0.837675,-0.3555339 L 4.0854931,4.2333333 C 3.9246265,4.4250266 3.6871968,4.5356139 3.4369539,4.5356404 3.1867057,4.5356346 2.9492813,4.4250345 2.7884146,4.2333333 Z" />
  </g>
</svg>
