<?xml version="1.0" encoding="UTF-8" standalone="no"?>
<!-- Created with Inkscape (http://www.inkscape.org/) -->

<svg
   width="48"
   height="48"
   viewBox="0 0 12.7 12.7"
   version="1.1"
   id="svg5"
   inkscape:version="1.1.2 (0a00cf5339, 2022-02-04, custom)"
   sodipodi:docname="calculator.svg"
   xmlns:inkscape="http://www.inkscape.org/namespaces/inkscape"
   xmlns:sodipodi="http://sodipodi.sourceforge.net/DTD/sodipodi-0.dtd"
   xmlns:xlink="http://www.w3.org/1999/xlink"
   xmlns="http://www.w3.org/2000/svg"
   xmlns:svg="http://www.w3.org/2000/svg">
  <sodipodi:namedview
     id="namedview7"
     pagecolor="#ffffff"
     bordercolor="#666666"
     borderopacity="1.0"
     inkscape:pageshadow="2"
     inkscape:pageopacity="0.0"
     inkscape:pagecheckerboard="0"
     inkscape:document-units="px"
     showgrid="false"
     units="px"
     inkscape:zoom="6.025139"
     inkscape:cx="-1.7426984"
     inkscape:cy="37.343537"
     inkscape:window-width="1920"
     inkscape:window-height="1027"
     inkscape:window-x="-8"
     inkscape:window-y="-8"
     inkscape:window-maximized="1"
     inkscape:current-layer="svg5" />
  <defs
     id="defs2">
    <linearGradient
       inkscape:collect="always"
       id="linearGradient1031">
      <stop
         style="stop-color:#f9af18;stop-opacity:1;"
         offset="0"
         id="stop1027" />
      <stop
         style="stop-color:#fecf3b;stop-opacity:1"
         offset="1"
         id="stop1029" />
    </linearGradient>
    <linearGradient
       inkscape:collect="always"
       id="linearGradient1871">
      <stop
         style="stop-color:#ffffff;stop-opacity:1;"
         offset="0"
         id="stop1867" />
      <stop
         style="stop-color:#ffffff;stop-opacity:0.1"
         offset="0.12"
         id="stop2515" />
      <stop
         style="stop-color:#ffffff;stop-opacity:0.102"
         offset="0.89999998"
         id="stop2581" />
      <stop
         style="stop-color:#ffffff;stop-opacity:0.502"
         offset="1"
         id="stop1869" />
    </linearGradient>
    <linearGradient
       inkscape:collect="always"
       xlink:href="#linearGradient1871"
       id="linearGradient1873"
       x1="17.222656"
       y1="3.5"
       x2="17.222656"
       y2="44.466438"
       gradientUnits="userSpaceOnUse"
       gradientTransform="matrix(0.26458333,0,0,0.26458333,0,-0.13229166)" />
    <linearGradient
       inkscape:collect="always"
       xlink:href="#linearGradient1031"
       id="linearGradient1033"
       x1="30"
       y1="-15"
       x2="30"
       y2="62.5"
       gradientUnits="userSpaceOnUse" />
  </defs>
  <path
     id="rect3143"
     style="opacity:0.1;fill:#000000;fill-opacity:1;stroke-width:0.264583"
     d="m 4.5160033,1.0583334 c -3.60405388,0 -4.1191283,0.5137855 -4.1191283,4.1144775 v 2.883545 c 0,3.6006791 0.51507442,4.1144791 4.1191283,4.1144791 h 3.6679933 c 3.6040544,0 4.1191284,-0.5138 4.1191284,-4.1144791 v -2.883545 c 0,-3.600692 -0.515074,-4.1144775 -4.1191284,-4.1144775 z" />
  <path
     style="display:inline;fill:#4d4d4d;fill-opacity:1;stroke:none;stroke-width:0.0992187;stroke-linecap:round;stroke-linejoin:round;stroke-miterlimit:4;stroke-dasharray:none;stroke-dashoffset:0;stroke-opacity:1;enable-background:new"
     d="m 8.1839962,0.66145835 c 3.6040548,0 4.1191298,0.51378545 4.1191298,4.11447755 v 2.883545 c 0,3.6006781 -0.515075,4.1144781 -4.1191298,4.1144781 H 4.5160033 c -3.604054,0 -4.1191283,-0.5138 -4.1191283,-4.1144781 v -2.883545 c 0,-3.6006921 0.5150743,-4.11447755 4.1191283,-4.11447755 z"
     id="rect877"
     inkscape:connector-curvature="0"
     sodipodi:nodetypes="sssssssss" />
  <path
     id="rect10194"
     style="opacity:1;fill:url(#linearGradient1033);fill-opacity:1;stroke-width:0.999999"
     d="M 23.882812 2.5 L 23.882812 3 L 24 3 L 24 44.5 L 30.931641 44.5 C 31.782992 44.5 32.589046 44.492155 33.351562 44.474609 C 34.114079 44.457064 34.833287 44.430465 35.511719 44.390625 C 36.529366 44.330866 37.455059 44.242417 38.296875 44.119141 C 38.57748 44.078049 38.849072 44.033712 39.111328 43.984375 C 39.373584 43.935038 39.626593 43.88044 39.871094 43.822266 C 40.115594 43.764091 40.350786 43.702372 40.578125 43.634766 C 40.805464 43.567159 41.025558 43.493647 41.236328 43.416016 C 41.447099 43.338384 41.648954 43.256219 41.84375 43.167969 C 42.038546 43.079718 42.224881 42.986182 42.404297 42.886719 C 42.583713 42.787256 42.755293 42.681582 42.919922 42.570312 C 43.084551 42.459043 43.242142 42.342419 43.392578 42.21875 C 43.543014 42.095081 43.687382 41.964787 43.824219 41.828125 C 43.961055 41.691463 44.091013 41.548686 44.214844 41.398438 C 44.338675 41.248189 44.45694 41.09021 44.568359 40.925781 C 44.679779 40.761353 44.785164 40.589359 44.884766 40.410156 C 44.984367 40.230954 45.077638 40.044179 45.166016 39.849609 C 45.254393 39.655039 45.336316 39.452718 45.414062 39.242188 C 45.491809 39.031657 45.565102 38.813023 45.632812 38.585938 C 45.700523 38.358852 45.763998 38.12314 45.822266 37.878906 C 45.880533 37.634673 45.933004 37.383069 45.982422 37.121094 C 46.03184 36.859119 46.077978 36.586951 46.119141 36.306641 C 46.242629 35.465709 46.330748 34.542023 46.390625 33.525391 C 46.430543 32.847636 46.457025 32.128968 46.474609 31.367188 C 46.492193 30.605407 46.5 29.799773 46.5 28.949219 L 46.5 18.050781 C 46.5 17.493301 46.495488 16.964302 46.488281 16.445312 C 46.486222 16.296661 46.483189 16.149472 46.480469 16.003906 C 46.460717 14.948632 46.422663 13.970162 46.361328 13.070312 C 46.356151 12.994394 46.351222 12.918608 46.345703 12.84375 C 46.314039 12.414143 46.278108 12.000957 46.234375 11.605469 C 46.232837 11.591547 46.232023 11.576381 46.230469 11.5625 C 46.225199 11.515426 46.218344 11.472381 46.212891 11.425781 C 46.165144 11.018087 46.111483 10.624174 46.048828 10.251953 C 45.980341 9.8450859 45.902688 9.4582144 45.814453 9.0917969 C 45.814304 9.0911786 45.814602 9.0904619 45.814453 9.0898438 C 45.814103 9.0883917 45.81285 9.0873889 45.8125 9.0859375 C 45.724356 8.7205991 45.625446 8.3739748 45.515625 8.046875 C 45.462773 7.8894564 45.407826 7.7367973 45.349609 7.5878906 C 45.347061 7.5813737 45.344356 7.5748602 45.341797 7.5683594 C 45.340489 7.5650348 45.339202 7.5619141 45.337891 7.5585938 C 45.278646 7.4085423 45.217321 7.262683 45.152344 7.1210938 C 45.151733 7.1197634 45.151002 7.1185171 45.150391 7.1171875 C 45.149153 7.1144949 45.147724 7.1120646 45.146484 7.109375 C 45.080542 6.9662863 45.011516 6.8280224 44.939453 6.6933594 C 44.866036 6.5561651 44.789005 6.4236223 44.708984 6.2949219 C 44.629444 6.1669949 44.547253 6.0416602 44.460938 5.921875 C 44.460409 5.9211418 44.459513 5.9206547 44.458984 5.9199219 C 44.458446 5.9191761 44.457569 5.9187143 44.457031 5.9179688 C 44.370647 5.7983038 44.280909 5.6820909 44.1875 5.5703125 C 44.095008 5.4596308 43.998061 5.3551456 43.898438 5.2519531 C 43.89683 5.2502882 43.89614 5.2477568 43.894531 5.2460938 C 43.893892 5.2454331 43.893218 5.244801 43.892578 5.2441406 C 43.802373 5.1510073 43.709507 5.0598622 43.613281 4.9726562 C 43.610211 4.969874 43.606592 4.9676201 43.603516 4.9648438 C 43.577957 4.94178 43.55138 4.9191401 43.525391 4.8964844 C 43.435654 4.8182595 43.343013 4.7433703 43.248047 4.6699219 C 43.245143 4.6676757 43.243143 4.6643512 43.240234 4.6621094 C 43.238386 4.6606854 43.236225 4.6596253 43.234375 4.6582031 C 43.123248 4.5727711 43.009085 4.4912491 42.890625 4.4121094 C 42.886445 4.4093155 42.883096 4.4051299 42.878906 4.4023438 C 42.866902 4.3943645 42.853878 4.3868225 42.841797 4.3789062 C 42.742581 4.3138926 42.639586 4.250286 42.535156 4.1894531 C 42.520036 4.1806465 42.505465 4.1708298 42.490234 4.1621094 C 42.481499 4.1571078 42.471663 4.1534109 42.462891 4.1484375 C 42.339494 4.0784777 42.214718 4.0097915 42.083984 3.9453125 C 42.082169 3.9444175 42.079941 3.9442533 42.078125 3.9433594 C 42.072996 3.9408346 42.067641 3.9380634 42.0625 3.9355469 C 41.942321 3.8767161 41.817917 3.820021 41.691406 3.765625 C 41.67378 3.7580466 41.656423 3.7496815 41.638672 3.7421875 C 41.627857 3.7376229 41.61633 3.733049 41.605469 3.7285156 C 41.471713 3.6726846 41.334242 3.619554 41.193359 3.5683594 C 41.186271 3.5657849 41.178982 3.5631098 41.171875 3.5605469 C 41.166296 3.5585341 41.159887 3.5566932 41.154297 3.5546875 C 40.844777 3.4436415 40.518835 3.3441879 40.173828 3.2539062 C 40.167913 3.2523583 40.162175 3.249589 40.15625 3.2480469 C 40.146451 3.2454977 40.134828 3.2447208 40.125 3.2421875 C 39.775606 3.1521303 39.408867 3.0709171 39.021484 3 C 36.936851 2.6183717 34.289302 2.5 30.931641 2.5 L 23.882812 2.5 z "
     transform="scale(0.26458333)" />
  <path
     id="path29"
     d="M 3.4395834,3.175 V 4.2333333 H 2.38125 V 4.4979166 H 3.4395834 V 5.55625 H 3.7041667 V 4.4979166 H 4.7625 V 4.2333333 H 3.7041667 V 3.175 Z M 7.9375005,5.55625 V 5.8208333 H 10.583333 V 5.55625 Z m 0,1.3229166 V 7.1437499 H 10.583333 V 6.8791666 Z M 2.38125,8.4666667 V 8.73125 H 4.7625 V 8.4666667 Z"
     style="stroke-width:0.264583;fill:#ffffff"
     sodipodi:nodetypes="cccccccccccccccccccccccccccc" />
  <path
     id="rect2143"
     style="opacity:0.1;fill:#ffffff;fill-opacity:1;stroke-width:0.707104;stroke-linejoin:round"
     d="M 1.5 23.5 L 1.5 28.949219 C 1.5 42.55808 3.446738 44.5 17.068359 44.5 L 24 44.5 L 24 23.5 L 1.5 23.5 z "
     transform="scale(0.26458333)" />
  <path
     id="rect1370"
     style="opacity:0.4;fill:#000000;fill-opacity:1;stroke-width:0.264583"
     d="m 4.4751788,0.52916667 c -3.68414336,0 -4.21059547,0.52624033 -4.21059547,4.21266273 v 2.9517578 c 0,3.6864088 0.52645211,4.2126628 4.21059547,4.2126628 H 8.224821 c 3.684144,0 4.210596,-0.526254 4.210596,-4.2126628 V 4.7418294 c 0,-3.6864224 -0.526452,-4.21266273 -4.210596,-4.21266273 z m 0.081649,0.2645833 h 3.5863445 c 3.5239637,0 4.0276607,0.50133143 4.0276607,4.01629243 v 2.8153318 c 0,3.5149478 -0.503697,4.0162928 -4.0276607,4.0162928 H 4.5568277 c -3.5239637,0 -4.02766104,-0.501345 -4.02766104,-4.0162928 V 4.8100424 c 0,-3.514961 0.50369724,-4.01629243 4.02766114,-4.01629243 z" />
  <path
     id="rect1565"
     style="fill:url(#linearGradient1873);fill-opacity:1;stroke-width:0.264583"
     d="m 4.5568277,0.79374997 c -3.5239635,0 -4.02766104,0.50133123 -4.02766104,4.01629243 v 2.8153318 c 0,3.5149478 0.50369754,4.0162928 4.02766104,4.0162928 h 3.5863445 c 3.5239638,0 4.0276608,-0.501345 4.0276608,-4.0162928 V 4.8100424 c 0,-3.5149612 -0.503697,-4.01629243 -4.0276608,-4.01629243 z m 0.081649,0.26458343 h 3.4230468 c 3.3637835,0 3.8447265,0.4769388 3.8447265,3.8204385 v 2.6778728 c 0,3.3434873 -0.480943,3.8204393 -3.8447265,3.8204393 h -3.423047 c -3.3637834,0 -3.84472651,-0.476952 -3.84472651,-3.8204393 V 4.8787719 c 0,-3.3434997 0.48094311,-3.8204385 3.84472671,-3.8204385 z" />
</svg>
