<?xml version="1.0" encoding="UTF-8" standalone="no"?>
<!-- Created with Inkscape (http://www.inkscape.org/) -->

<svg
   width="48"
   height="48"
   viewBox="0 0 12.7 12.7"
   version="1.1"
   id="svg5"
   inkscape:version="1.1.2 (0a00cf5339, 2022-02-04, custom)"
   sodipodi:docname="icon-template.svg.2022_02_12_17_05_13.0.svg"
   xmlns:inkscape="http://www.inkscape.org/namespaces/inkscape"
   xmlns:sodipodi="http://sodipodi.sourceforge.net/DTD/sodipodi-0.dtd"
   xmlns:xlink="http://www.w3.org/1999/xlink"
   xmlns="http://www.w3.org/2000/svg"
   xmlns:svg="http://www.w3.org/2000/svg">
  <sodipodi:namedview
     id="namedview7"
     pagecolor="#ffffff"
     bordercolor="#666666"
     borderopacity="1.0"
     inkscape:pageshadow="2"
     inkscape:pageopacity="0.0"
     inkscape:pagecheckerboard="0"
     inkscape:document-units="px"
     showgrid="false"
     units="px"
     inkscape:zoom="6.7257367"
     inkscape:cx="20.295175"
     inkscape:cy="39.698253"
     inkscape:window-width="1920"
     inkscape:window-height="1027"
     inkscape:window-x="-8"
     inkscape:window-y="-8"
     inkscape:window-maximized="1"
     inkscape:current-layer="svg5" />
  <defs
     id="defs2">
    <linearGradient
       inkscape:collect="always"
       id="linearGradient1795">
      <stop
         style="stop-color:#000000;stop-opacity:1;"
         offset="0"
         id="stop1791" />
      <stop
         style="stop-color:#000000;stop-opacity:0;"
         offset="1"
         id="stop1793" />
    </linearGradient>
    <linearGradient
       inkscape:collect="always"
       id="linearGradient1871">
      <stop
         style="stop-color:#ffffff;stop-opacity:1;"
         offset="0"
         id="stop1867" />
      <stop
         style="stop-color:#ffffff;stop-opacity:0.1"
         offset="0.12"
         id="stop2515" />
      <stop
         style="stop-color:#ffffff;stop-opacity:0.102"
         offset="0.89999998"
         id="stop2581" />
      <stop
         style="stop-color:#ffffff;stop-opacity:0.502"
         offset="1"
         id="stop1869" />
    </linearGradient>
    <linearGradient
       inkscape:collect="always"
       xlink:href="#linearGradient1871"
       id="linearGradient1873"
       x1="17.222656"
       y1="3.5"
       x2="17.222656"
       y2="44.466438"
       gradientUnits="userSpaceOnUse"
       gradientTransform="matrix(0.26458333,0,0,0.26458333,0,-0.13229166)" />
    <radialGradient
       inkscape:collect="always"
       xlink:href="#linearGradient1795"
       id="radialGradient1797"
       cx="6.3499999"
       cy="6.3499999"
       fx="6.3499999"
       fy="6.3499999"
       r="5.2916665"
       gradientUnits="userSpaceOnUse"
       gradientTransform="matrix(0.95000007,0,0,0.95000007,0.31749987,0.31749987)" />
  </defs>
  <path
     id="rect3143"
     style="opacity:0.1;fill:#000000;fill-opacity:1;stroke-width:0.264583"
     d="m 4.5160033,1.0583334 c -3.60405388,0 -4.1191283,0.5137855 -4.1191283,4.1144775 v 2.883545 c 0,3.6006791 0.51507442,4.1144791 4.1191283,4.1144791 h 3.6679933 c 3.6040544,0 4.1191284,-0.5138 4.1191284,-4.1144791 v -2.883545 c 0,-3.600692 -0.515074,-4.1144775 -4.1191284,-4.1144775 z" />
  <path
     style="display:inline;fill:#e6e6e6;fill-opacity:1;stroke:none;stroke-width:0.0992187;stroke-linecap:round;stroke-linejoin:round;stroke-miterlimit:4;stroke-dasharray:none;stroke-dashoffset:0;stroke-opacity:1;enable-background:new"
     d="m 8.1839962,0.66145835 c 3.6040548,0 4.1191298,0.51378545 4.1191298,4.11447755 v 2.883545 c 0,3.6006781 -0.515075,4.1144781 -4.1191298,4.1144781 H 4.5160033 c -3.604054,0 -4.1191283,-0.5138 -4.1191283,-4.1144781 v -2.883545 c 0,-3.6006921 0.5150743,-4.11447755 4.1191283,-4.11447755 z"
     id="rect877"
     inkscape:connector-curvature="0"
     sodipodi:nodetypes="sssssssss" />
  <path
     id="rect960"
     style="opacity:0.5;fill:#ffffff;fill-opacity:1;stroke-width:0.921952;stroke-linejoin:round"
     d="M 1.5839844 14 C 1.5247133 15.2218 1.5 16.562701 1.5 18.050781 L 1.5 28.949219 C 1.5 42.558081 3.446738 44.5 17.068359 44.5 L 30.931641 44.5 C 44.553265 44.5 46.5 42.558081 46.5 28.949219 L 46.5 18.050781 C 46.5 16.562701 46.475287 15.2218 46.416016 14 L 1.5839844 14 z "
     transform="scale(0.26458333)" />
  <circle
     style="opacity:1;fill:url(#radialGradient1797);fill-opacity:1;stroke-width:0.251354;stroke-linejoin:round"
     id="path1709"
     cx="6.3499999"
     cy="6.3499999"
     r="5.0270834" />
  <circle
     style="opacity:1;fill:#df382c;fill-opacity:1;stroke-width:0.198437;stroke-linejoin:round"
     id="path1241"
     cx="10.715625"
     cy="2.5135417"
     r="0.39687499" />
  <circle
     style="opacity:0.1;fill:#000000;fill-opacity:1;stroke-width:0.249884;stroke-linejoin:round"
     id="path1499"
     cx="6.3499999"
     cy="6.614583"
     r="4.4979167" />
  <circle
     style="opacity:1;fill:#f2f2f2;fill-opacity:1;stroke-width:0.28112;stroke-linejoin:round"
     id="path957"
     cx="6.3499999"
     cy="6.3499999"
     r="4.4979167" />
  <path
     id="rect1370"
     style="opacity:0.4;fill:#000000;fill-opacity:1;stroke-width:0.264583"
     d="m 4.4751788,0.52916667 c -3.68414336,0 -4.21059547,0.52624033 -4.21059547,4.21266273 v 2.9517578 c 0,3.6864088 0.52645211,4.2126628 4.21059547,4.2126628 H 8.224821 c 3.684144,0 4.210596,-0.526254 4.210596,-4.2126628 V 4.7418294 c 0,-3.6864224 -0.526452,-4.21266273 -4.210596,-4.21266273 z m 0.081649,0.2645833 h 3.5863445 c 3.5239637,0 4.0276607,0.50133143 4.0276607,4.01629243 v 2.8153318 c 0,3.5149478 -0.503697,4.0162928 -4.0276607,4.0162928 H 4.5568277 c -3.5239637,0 -4.02766104,-0.501345 -4.02766104,-4.0162928 V 4.8100424 c 0,-3.514961 0.50369724,-4.01629243 4.02766114,-4.01629243 z" />
  <path
     id="rect1565"
     style="opacity:1;fill:url(#linearGradient1873);fill-opacity:1;stroke-width:0.264583"
     d="m 4.5568277,0.79374997 c -3.5239635,0 -4.02766104,0.50133123 -4.02766104,4.01629243 v 2.8153318 c 0,3.5149478 0.50369754,4.0162928 4.02766104,4.0162928 h 3.5863445 c 3.5239638,0 4.0276608,-0.501345 4.0276608,-4.0162928 V 4.8100424 c 0,-3.5149612 -0.503697,-4.01629243 -4.0276608,-4.01629243 z m 0.081649,0.26458343 h 3.4230468 c 3.3637835,0 3.8447265,0.4769388 3.8447265,3.8204385 v 2.6778728 c 0,3.3434873 -0.480943,3.8204393 -3.8447265,3.8204393 h -3.423047 c -3.3637834,0 -3.84472651,-0.476952 -3.84472651,-3.8204393 V 4.8787719 c 0,-3.3434997 0.48094311,-3.8204385 3.84472671,-3.8204385 z" />
  <circle
     style="opacity:1;fill:#46444a;fill-opacity:1;stroke-width:0.264583;stroke-linejoin:round"
     id="path1929"
     cx="6.3499999"
     cy="6.3499999"
     r="3.7041667" />
  <circle
     style="opacity:1;fill:#a7a7ff;fill-opacity:1;stroke-width:0.264583;stroke-linejoin:round"
     id="path2165"
     cx="6.3499999"
     cy="6.3499999"
     r="3.175" />
  <circle
     style="opacity:1;fill:#8f76e4;fill-opacity:1;stroke-width:0.329886;stroke-linejoin:round"
     id="path2423"
     cx="6.3499999"
     cy="6.3499999"
     r="2.9104166" />
  <circle
     style="opacity:1;fill:#8c59d9;fill-opacity:1;stroke-width:0.264583;stroke-linejoin:round"
     id="path2689"
     cx="6.3499999"
     cy="6.3499999"
     r="2.1166666" />
  <circle
     style="opacity:1;fill:#7839b7;fill-opacity:1;stroke-width:0.211666;stroke-linejoin:round"
     id="path2947"
     cx="6.3499999"
     cy="6.3499999"
     r="1.0583333" />
  <path
     id="path3205"
     style="opacity:0.2;fill:#ffffff;fill-opacity:1;stroke-width:0.999999;stroke-linejoin:round"
     d="M 30 14.898438 A 3.9999998 3.9999998 0 0 0 26 18.898438 A 3.9999998 3.9999998 0 0 0 30 22.898438 A 3.9999998 3.9999998 0 0 0 34 18.898438 A 3.9999998 3.9999998 0 0 0 30 14.898438 z M 25.5 21.5 A 1.25 1.25 0 0 0 24.25 22.75 A 1.25 1.25 0 0 0 25.5 24 A 1.25 1.25 0 0 0 26.75 22.75 A 1.25 1.25 0 0 0 25.5 21.5 z M 22.5 25 A 0.49999997 0.49999997 0 0 0 22 25.5 A 0.49999997 0.49999997 0 0 0 22.5 26 A 0.49999997 0.49999997 0 0 0 23 25.5 A 0.49999997 0.49999997 0 0 0 22.5 25 z "
     transform="scale(0.26458333)" />
</svg>
