<?xml version="1.0" encoding="UTF-8" standalone="no"?>
<!-- Created with Inkscape (http://www.inkscape.org/) -->

<svg
   width="48"
   height="48"
   viewBox="0 0 12.7 12.7"
   version="1.1"
   id="svg5"
   inkscape:version="1.1.2 (0a00cf5339, 2022-02-04)"
   sodipodi:docname="applications-graphics.svg"
   xmlns:inkscape="http://www.inkscape.org/namespaces/inkscape"
   xmlns:sodipodi="http://sodipodi.sourceforge.net/DTD/sodipodi-0.dtd"
   xmlns:xlink="http://www.w3.org/1999/xlink"
   xmlns="http://www.w3.org/2000/svg"
   xmlns:svg="http://www.w3.org/2000/svg">
  <sodipodi:namedview
     id="namedview7"
     pagecolor="#ffffff"
     bordercolor="#666666"
     borderopacity="1.0"
     inkscape:pageshadow="2"
     inkscape:pageopacity="0.0"
     inkscape:pagecheckerboard="0"
     inkscape:document-units="px"
     showgrid="false"
     units="px"
     inkscape:zoom="11.667262"
     inkscape:cx="18.213356"
     inkscape:cy="34.369675"
     inkscape:window-width="1920"
     inkscape:window-height="998"
     inkscape:window-x="0"
     inkscape:window-y="0"
     inkscape:window-maximized="1"
     inkscape:current-layer="svg5" />
  <defs
     id="defs2">
    <linearGradient
       inkscape:collect="always"
       id="linearGradient1871">
      <stop
         style="stop-color:#ffffff;stop-opacity:1;"
         offset="0"
         id="stop1867" />
      <stop
         style="stop-color:#ffffff;stop-opacity:0.1"
         offset="0.12"
         id="stop2515" />
      <stop
         style="stop-color:#ffffff;stop-opacity:0.102"
         offset="0.89999998"
         id="stop2581" />
      <stop
         style="stop-color:#ffffff;stop-opacity:0.502"
         offset="1"
         id="stop1869" />
    </linearGradient>
    <linearGradient
       inkscape:collect="always"
       xlink:href="#linearGradient1871"
       id="linearGradient1873"
       x1="17.222656"
       y1="3.5"
       x2="17.222656"
       y2="44.466438"
       gradientUnits="userSpaceOnUse"
       gradientTransform="matrix(0.26458333,0,0,0.26458333,0,-0.13229166)" />
  </defs>
  <path
     id="rect3143"
     style="opacity:0.1;fill:#000000;fill-opacity:1;stroke-width:0.264583"
     d="m 4.5160033,1.0583334 c -3.60405388,0 -4.1191283,0.5137855 -4.1191283,4.1144775 v 2.883545 c 0,3.6006791 0.51507442,4.1144791 4.1191283,4.1144791 h 3.6679933 c 3.6040544,0 4.1191284,-0.5138 4.1191284,-4.1144791 v -2.883545 c 0,-3.600692 -0.515074,-4.1144775 -4.1191284,-4.1144775 z" />
  <path
     style="display:inline;fill:#4d4d4d;fill-opacity:1;stroke:none;stroke-width:0.0992187;stroke-linecap:round;stroke-linejoin:round;stroke-miterlimit:4;stroke-dasharray:none;stroke-dashoffset:0;stroke-opacity:1;enable-background:new"
     d="m 8.1839962,0.66145835 c 3.6040548,0 4.1191298,0.51378545 4.1191298,4.11447755 v 2.883545 c 0,3.6006781 -0.515075,4.1144781 -4.1191298,4.1144781 H 4.5160033 c -3.604054,0 -4.1191283,-0.5138 -4.1191283,-4.1144781 v -2.883545 c 0,-3.6006921 0.5150743,-4.11447755 4.1191283,-4.11447755 z"
     id="rect877"
     inkscape:connector-curvature="0"
     sodipodi:nodetypes="sssssssss" />
  <path
     id="path1102"
     style="opacity:0.1;fill:#000000;fill-rule:evenodd;stroke-width:3.77975"
     d="M 29.101562 6.6992188 C 27.729753 6.6863306 26.350066 7.3470823 25.59375 8.5390625 C 24.441309 10.355231 25.023513 12.953006 26.839844 14.105469 C 28.656215 15.25789 31.253747 14.67772 32.40625 12.861328 C 33.558673 11.044957 32.976488 8.4473834 31.160156 7.2949219 C 30.535848 6.8987767 29.82013 6.7059648 29.101562 6.6992188 z M 15.701172 8.6992188 C 14.329336 8.68634 12.951612 9.3471087 12.195312 10.539062 C 11.042936 12.355393 11.623122 14.952992 13.439453 16.105469 C 15.255581 17.257864 17.853383 16.677678 19.005859 14.861328 C 20.158275 13.044997 19.57801 10.447378 17.761719 9.2949219 C 17.137355 8.8987858 16.419753 8.7059645 15.701172 8.6992188 z M 42.587891 11.5 C 42.322303 11.51217 42.06472 11.638023 41.892578 11.867188 L 40.230469 14.080078 L 42.494141 15.78125 L 44.15625 13.568359 C 44.462278 13.160957 44.380089 12.583354 43.972656 12.277344 L 43.183594 11.683594 C 43.005351 11.549708 42.794449 11.490543 42.587891 11.5 z M 39.675781 14.818359 L 33.580078 22.933594 L 35.845703 24.634766 L 41.939453 16.519531 L 39.675781 14.818359 z M 8.0039062 20.5 C 6.6647577 20.518623 5.3320289 21.176271 4.59375 22.339844 C 3.441375 24.156174 4.0235139 26.753773 5.8398438 27.90625 C 7.6559714 29.058644 10.253774 28.476507 11.40625 26.660156 C 12.558665 24.843826 11.976466 22.246206 10.160156 21.09375 C 9.5074133 20.679608 8.7551357 20.489553 8.0039062 20.5 z M 32.023438 23.136719 C 31.824963 23.139719 31.6288 23.205748 31.464844 23.335938 L 29.628906 24.792969 C 29.567308 24.841887 29.512126 24.899954 29.464844 24.962891 C 29.277538 25.212256 29.237039 25.524973 29.326172 25.800781 C 27.618863 25.854913 25.317014 27.023276 24.144531 29.128906 C 21.89356 33.171215 23.663785 39.296848 18.800781 38.228516 C 25.228658 43.14751 34.031218 35.803695 34.095703 31.119141 C 34.105003 30.440565 34.011013 29.837607 33.841797 29.302734 C 34.283032 29.405468 34.742867 29.1712 34.910156 28.736328 L 35.761719 26.527344 C 35.910146 26.141535 35.782439 25.704321 35.451172 25.457031 L 32.589844 23.320312 C 32.422075 23.195073 32.22191 23.133752 32.023438 23.136719 z M 12.769531 34.5 C 11.441634 34.518472 10.122772 35.170325 9.390625 36.324219 C 8.2478221 38.125396 8.8233192 40.700568 10.625 41.84375 C 12.426783 42.986955 15.001668 42.410573 16.144531 40.609375 C 17.287294 38.807992 16.711879 36.233028 14.910156 35.089844 C 14.262713 34.679012 13.51445 34.489638 12.769531 34.5 z "
     transform="scale(0.26458333)" />
  <path
     d="M 7.7632648,6.5644994 C 7.3057259,6.5261301 6.6186334,6.8389295 6.2824461,7.4426793 5.6868765,8.5122069 6.1550032,10.132709 4.8683334,9.8500463 6.5690425,11.15153 8.8981164,9.2088188 8.9151781,7.9693639 8.9188717,7.7012378 8.8618614,7.4772812 8.7680957,7.2922054 Z"
     style="fill:#1b90ff;fill-rule:evenodd;stroke-width:1.00006"
     id="path1204" />
  <path
     d="M 5.1040663,10.007686 C 6.7761264,10.97564 8.898598,9.1519897 8.9149156,7.9689823 8.9186092,7.7008562 8.8615986,7.4768997 8.7678329,7.2918239 L 7.7952019,6.5874518 C 7.5368347,6.7360066 7.2957207,6.9418701 7.1106555,7.2050797 6.2428936,8.4392194 6.6079212,10.485683 5.0673276,9.9735093 c 0.0122,0.01153 0.024453,0.02291 0.036742,0.03417 z"
     style="fill:#a197ff;fill-rule:evenodd;stroke-width:1.00006"
     id="path1404" />
  <path
     d="M 5.8258264,10.259635 C 7.3291285,10.477681 8.9008906,8.9864817 8.9148696,7.9690966 8.9185632,7.7009705 8.8615526,7.477014 8.7677869,7.2919382 L 7.8025441,6.5929345 C 7.5946234,6.7735348 7.411913,7.0006645 7.2862666,7.2687639 6.6674694,8.5891162 7.3583516,10.475698 5.8060324,10.246719 c 0.00659,0.0043 0.013163,0.0086 0.019751,0.01291 z"
     style="fill:#dd61fa;fill-rule:evenodd;stroke-width:1.00006"
     id="path1604" />
  <path
     d="M 7.6675481,9.7705293 C 8.3898328,9.2870783 8.9068969,8.5506873 8.9148696,7.9690964 8.9185632,7.7009705 8.8615526,7.477014 8.7677869,7.2919382 L 7.8094007,6.5978774 c -0.10522,0.1808237 -0.1847675,0.3839019 -0.2237173,0.6023202 -0.1700231,0.9533901 0.345186,2.0077692 0.081822,2.5703317 z"
     style="fill:#fa6196;fill-rule:evenodd;stroke-width:1.00006"
     id="path1804" />
  <path
     d="M 8.7681168,8.5468088 C 8.8605752,8.347504 8.9126749,8.1508837 8.9151783,7.9693639 8.9188719,7.7012378 8.8618614,7.4772812 8.7680957,7.2922054 L 7.8580245,6.6331188 c 0.00666,0.049518 0.015978,0.099108 0.028199,0.1485231 0.1758112,0.7110161 0.8348607,1.286973 0.8819005,1.7651296 z"
     style="fill:#f1a443;fill-rule:evenodd;stroke-width:1.00006"
     id="path2004" />
  <path
     d="M 10.391682,3.6563471 10.990809,4.1063679 9.378147,6.2533513 8.7790211,5.8033305 Z M 8.5167947,5.9057092 9.2740451,6.4710401 c 0.087649,0.065429 0.1210795,0.1811737 0.081808,0.2832524 L 9.1310024,7.338833 C 9.0825982,7.4646611 8.9413562,7.5274282 8.8155336,7.4790283 8.7944331,7.4709664 8.7745975,7.4599624 8.7565448,7.446403 L 7.7388218,6.681962 C 7.63103,6.600996 7.6092818,6.4479695 7.6902468,6.3401777 c 0.01251,-0.016653 0.027064,-0.031596 0.043361,-0.044538 l 0.4853818,-0.385473 c 0.08676,-0.068893 0.2090423,-0.070723 0.2978203,-0.00445 z M 10.538295,3.4611568 10.978094,2.875641 c 0.08097,-0.1077917 0.233986,-0.1295442 0.341784,-0.048575 l 0.208795,0.1568321 c 0.107792,0.080965 0.12954,0.2339925 0.04857,0.3417843 l -0.439797,0.5855157 z"
     style="fill:#ffffff;fill-opacity:1;stroke-width:3.4444"
     id="path1082" />
  <path
     d="M 10.391682,3.6563471 10.990808,4.1063679 9.3781468,6.2533513 8.7790208,5.8033305 Z M 8.5167944,5.9057092 9.2740449,6.4710401 c 0.087649,0.065429 0.1210794,0.1811737 0.081808,0.2832524 L 9.1310021,7.338833 C 9.0825979,7.4646611 8.9413559,7.5274282 8.8155333,7.4790283 8.7944328,7.4709664 8.7745973,7.4599624 8.7565445,7.446403 L 7.7388215,6.681962 C 7.6310298,6.600996 7.6092815,6.4479695 7.6902475,6.3401777 c 0.01251,-0.016653 0.027064,-0.031596 0.043361,-0.044538 L 8.2189897,5.9101666 C 8.3057497,5.8412736 8.428032,5.8394436 8.51681,5.9057166 Z M 10.538295,3.4611568 10.978093,2.875641 c 0.08097,-0.1077917 0.233987,-0.1295442 0.341784,-0.048575 l 0.208795,0.1568321 c 0.107792,0.080965 0.12954,0.2339925 0.04857,0.3417843 l -0.439798,0.5855157 z"
     style="fill:#828282;fill-opacity:1;stroke-width:3.4444"
     id="path958" />
  <path
     d="M 8.5740279,3.1381762 C 8.2690949,3.6187632 7.5817764,3.7724302 7.1011948,3.4675188 6.620624,3.1625964 6.4669408,2.4752673 6.7718576,1.9947393 7.0767851,1.5141631 7.7641091,1.3604852 8.2446371,1.6653968 8.7252078,1.9703189 8.8788911,2.6576482 8.5739793,3.1382297 Z"
     style="fill:#f35b5b;stroke-width:1.6078"
     id="path2971" />
  <path
     d="M 5.0285195,3.6673603 C 4.7235935,4.1479363 4.0362901,4.3016001 3.555773,3.9966954 3.075202,3.6917693 2.9215329,3.0044659 3.2264324,2.5238951 3.5313531,2.0433296 4.2186618,1.8896552 4.6992324,2.1945599 5.1797928,2.4994806 5.3334725,3.1867893 5.0285625,3.6673603 Z"
     style="fill:#56a913;stroke-width:1.00847"
     id="path2277" />
  <path
     d="M 3.0176849,6.7894423 C 2.712759,7.2700184 2.0254562,7.4236819 1.5449391,7.1187776 1.0643685,6.8138513 0.9106996,6.1265487 1.2155988,5.645978 1.520514,5.165413 2.2078275,5.0117386 2.688398,5.3166431 3.1689634,5.6215637 3.3226378,6.3088717 3.0177279,6.7894423 Z"
     style="fill:#3f90dc;stroke-width:1.00847"
     id="path2392" />
  <path
     d="M 4.271424,10.480015 C 3.9690415,10.956582 3.2876309,11.10907 2.8109091,10.806597 2.3342144,10.50413 2.1819599,9.8226977 2.4843265,9.3461358 2.786709,8.8695683 3.4681196,8.7170802 3.9447879,9.0195476 4.4214938,9.3220153 4.5737374,10.003447 4.2713814,10.480063 Z"
     style="fill:#f1a443;stroke-width:1.00006"
     id="path2507" />
  <path
     id="rect1370"
     style="opacity:0.4;fill:#000000;fill-opacity:1;stroke-width:0.264583"
     d="m 4.4751788,0.52916667 c -3.68414336,0 -4.21059547,0.52624033 -4.21059547,4.21266273 v 2.9517578 c 0,3.6864088 0.52645211,4.2126628 4.21059547,4.2126628 H 8.224821 c 3.684144,0 4.210596,-0.526254 4.210596,-4.2126628 V 4.7418294 c 0,-3.6864224 -0.526452,-4.21266273 -4.210596,-4.21266273 z m 0.081649,0.2645833 h 3.5863445 c 3.5239637,0 4.0276607,0.50133143 4.0276607,4.01629243 v 2.8153318 c 0,3.5149478 -0.503697,4.0162928 -4.0276607,4.0162928 H 4.5568277 c -3.5239637,0 -4.02766104,-0.501345 -4.02766104,-4.0162928 V 4.8100424 c 0,-3.514961 0.50369724,-4.01629243 4.02766114,-4.01629243 z" />
  <path
     id="rect1565"
     style="fill:url(#linearGradient1873);fill-opacity:1;stroke-width:0.264583;opacity:1"
     d="m 4.5568277,0.79374997 c -3.5239635,0 -4.02766104,0.50133123 -4.02766104,4.01629243 v 2.8153318 c 0,3.5149478 0.50369754,4.0162928 4.02766104,4.0162928 h 3.5863445 c 3.5239638,0 4.0276608,-0.501345 4.0276608,-4.0162928 V 4.8100424 c 0,-3.5149612 -0.503697,-4.01629243 -4.0276608,-4.01629243 z m 0.081649,0.26458343 h 3.4230468 c 3.3637835,0 3.8447265,0.4769388 3.8447265,3.8204385 v 2.6778728 c 0,3.3434873 -0.480943,3.8204393 -3.8447265,3.8204393 h -3.423047 c -3.3637834,0 -3.84472651,-0.476952 -3.84472651,-3.8204393 V 4.8787719 c 0,-3.3434997 0.48094311,-3.8204385 3.84472671,-3.8204385 z" />
</svg>
