<?xml version="1.0" encoding="UTF-8" standalone="no"?>
<!-- Created with Inkscape (http://www.inkscape.org/) -->

<svg
   width="48"
   height="48"
   viewBox="0 0 12.7 12.7"
   version="1.1"
   id="svg5"
   inkscape:version="1.1.2 (0a00cf5339, 2022-02-04)"
   sodipodi:docname="firefox-trunk.svg"
   xmlns:inkscape="http://www.inkscape.org/namespaces/inkscape"
   xmlns:sodipodi="http://sodipodi.sourceforge.net/DTD/sodipodi-0.dtd"
   xmlns:xlink="http://www.w3.org/1999/xlink"
   xmlns="http://www.w3.org/2000/svg"
   xmlns:svg="http://www.w3.org/2000/svg">
  <sodipodi:namedview
     id="namedview7"
     pagecolor="#ffffff"
     bordercolor="#666666"
     borderopacity="1.0"
     inkscape:pageshadow="2"
     inkscape:pageopacity="0.0"
     inkscape:pagecheckerboard="0"
     inkscape:document-units="px"
     showgrid="false"
     units="px"
     inkscape:zoom="5.833631"
     inkscape:cx="42.169277"
     inkscape:cy="22.713127"
     inkscape:window-width="1851"
     inkscape:window-height="1016"
     inkscape:window-x="0"
     inkscape:window-y="0"
     inkscape:window-maximized="1"
     inkscape:current-layer="svg5" />
  <defs
     id="defs2">
    <linearGradient
       inkscape:collect="always"
       id="linearGradient1871">
      <stop
         style="stop-color:#ffffff;stop-opacity:1;"
         offset="0"
         id="stop1867" />
      <stop
         style="stop-color:#ffffff;stop-opacity:0.1"
         offset="0.12"
         id="stop2515" />
      <stop
         style="stop-color:#ffffff;stop-opacity:0.102"
         offset="0.89999998"
         id="stop2581" />
      <stop
         style="stop-color:#ffffff;stop-opacity:0.502"
         offset="1"
         id="stop1869" />
    </linearGradient>
    <linearGradient
       inkscape:collect="always"
       xlink:href="#linearGradient1871"
       id="linearGradient1873"
       x1="17.222656"
       y1="3.5"
       x2="17.222656"
       y2="44.466438"
       gradientUnits="userSpaceOnUse"
       gradientTransform="matrix(0.26458333,0,0,0.26458333,0,-0.13229166)" />
    <linearGradient
       id="a-76"
       x1="74.803001"
       y1="20.542999"
       x2="7.7420001"
       y2="62.785999"
       gradientUnits="userSpaceOnUse"
       gradientTransform="matrix(0.11619719,0,0,0.11619719,1.7010326,1.5870227)">
      <stop
         offset="0"
         stop-color="#3fe1b0"
         id="stop4973" />
      <stop
         offset=".406"
         stop-color="#00b3f4"
         id="stop4975" />
      <stop
         offset=".421"
         stop-color="#03b0f4"
         id="stop4977" />
      <stop
         offset=".818"
         stop-color="#5561e9"
         id="stop4979" />
      <stop
         offset="1"
         stop-color="#7542e5"
         id="stop4981" />
    </linearGradient>
    <radialGradient
       id="b-3"
       cx="-7907.187"
       cy="-8515.1211"
       r="80.796997"
       gradientTransform="matrix(0.11619719,0,0,0.11619719,928.37355,992.05185)"
       gradientUnits="userSpaceOnUse">
      <stop
         offset=".108"
         stop-color="#3fe1b0"
         id="stop4984" />
      <stop
         offset=".122"
         stop-color="#3bdcb3"
         id="stop4986" />
      <stop
         offset=".254"
         stop-color="#1bb3d3"
         id="stop4988" />
      <stop
         offset=".358"
         stop-color="#0799e6"
         id="stop4990" />
      <stop
         offset=".42"
         stop-color="#0090ed"
         id="stop4992" />
      <stop
         offset=".487"
         stop-color="#2482f1"
         id="stop4994" />
      <stop
         offset=".64"
         stop-color="#7165fb"
         id="stop4996" />
      <stop
         offset=".71"
         stop-color="#9059ff"
         id="stop4998" />
      <stop
         offset=".795"
         stop-color="#7d49ed"
         id="stop5000" />
      <stop
         offset=".86"
         stop-color="#7542e5"
         id="stop5002" />
    </radialGradient>
    <radialGradient
       id="c-5"
       cx="-7936.7109"
       cy="-8482.0889"
       r="80.796997"
       gradientTransform="matrix(0.11619719,0,0,0.11619719,928.37355,992.05185)"
       gradientUnits="userSpaceOnUse">
      <stop
         offset=".3"
         stop-color="#45278d"
         id="stop5005" />
      <stop
         offset=".341"
         stop-color="#562896"
         stop-opacity=".787"
         id="stop5007" />
      <stop
         offset=".43"
         stop-color="#782aa9"
         stop-opacity=".364"
         id="stop5009" />
      <stop
         offset=".495"
         stop-color="#8d2bb5"
         stop-opacity=".1"
         id="stop5011" />
      <stop
         offset=".53"
         stop-color="#952bb9"
         stop-opacity="0"
         id="stop5013" />
    </radialGradient>
    <radialGradient
       id="d-2"
       cx="-7926.9702"
       cy="-8533.457"
       r="58.534"
       gradientTransform="matrix(0.11619719,0,0,0.11619719,928.37355,992.05185)"
       gradientUnits="userSpaceOnUse">
      <stop
         offset=".132"
         stop-color="#3fe1b0"
         id="stop5016" />
      <stop
         offset=".289"
         stop-color="#28d0c8"
         id="stop5018" />
      <stop
         offset=".526"
         stop-color="#00b3f4"
         id="stop5020" />
    </radialGradient>
    <radialGradient
       id="e-1"
       cx="-7945.6479"
       cy="-8460.9844"
       r="38.471001"
       gradientTransform="matrix(0.11619719,0,0,0.11619719,928.37355,992.05185)"
       gradientUnits="userSpaceOnUse">
      <stop
         offset=".287"
         stop-color="#0060df"
         id="stop5023" />
      <stop
         offset=".417"
         stop-color="#2357e1"
         id="stop5025" />
      <stop
         offset=".604"
         stop-color="#4f4ce3"
         id="stop5027" />
      <stop
         offset=".748"
         stop-color="#6b45e4"
         id="stop5029" />
      <stop
         offset=".833"
         stop-color="#7542e5"
         id="stop5031" />
    </radialGradient>
    <radialGradient
       id="f-2"
       cx="-7935.6201"
       cy="-8491.5459"
       r="20.396999"
       gradientTransform="matrix(0.11294367,-0.02730634,0.03195423,0.1322324,1174.282,911.85231)"
       gradientUnits="userSpaceOnUse">
      <stop
         offset=".206"
         stop-color="#45278d"
         stop-opacity="0"
         id="stop5034" />
      <stop
         offset=".251"
         stop-color="#44268a"
         stop-opacity=".055"
         id="stop5036" />
      <stop
         offset=".725"
         stop-color="#371f6f"
         stop-opacity=".591"
         id="stop5038" />
      <stop
         offset=".956"
         stop-color="#321c64"
         stop-opacity=".8"
         id="stop5040" />
    </radialGradient>
    <radialGradient
       id="g-7"
       cx="-7943.645"
       cy="-8466.5225"
       r="0.62599999"
       gradientTransform="matrix(0.11619719,0,0,0.11619719,928.37355,992.05185)"
       gradientUnits="userSpaceOnUse">
      <stop
         offset=".353"
         stop-color="#3a8ee6"
         id="stop5043" />
      <stop
         offset=".472"
         stop-color="#5c79f0"
         id="stop5045" />
      <stop
         offset=".669"
         stop-color="#9059ff"
         id="stop5047" />
      <stop
         offset="1"
         stop-color="#c139e6"
         id="stop5049" />
    </radialGradient>
    <radialGradient
       id="h-4"
       cx="-7943.48"
       cy="-8466.749"
       r="0.22400001"
       gradientTransform="matrix(0.11294367,-0.02730634,0.03195423,0.1322324,1173.4628,911.23852)"
       gradientUnits="userSpaceOnUse">
      <stop
         offset=".206"
         stop-color="#9059ff"
         stop-opacity="0"
         id="stop5052" />
      <stop
         offset=".278"
         stop-color="#8c4ff3"
         stop-opacity=".064"
         id="stop5054" />
      <stop
         offset=".747"
         stop-color="#7716a8"
         stop-opacity=".45"
         id="stop5056" />
      <stop
         offset=".975"
         stop-color="#6e008b"
         stop-opacity=".6"
         id="stop5058" />
    </radialGradient>
    <radialGradient
       id="i-6"
       cx="-7937.731"
       cy="-8518.4268"
       r="27.676001"
       gradientTransform="matrix(0.11619719,0,0,0.11619719,928.37355,992.05185)"
       gradientUnits="userSpaceOnUse">
      <stop
         offset="0"
         stop-color="#0df"
         id="stop5061" />
      <stop
         offset=".235"
         stop-color="#00d6fd"
         id="stop5063" />
      <stop
         offset=".572"
         stop-color="#00c3f8"
         id="stop5065" />
      <stop
         offset=".792"
         stop-color="#00b3f4"
         id="stop5067" />
    </radialGradient>
    <radialGradient
       id="j-9"
       cx="-7915.9771"
       cy="-8535.9814"
       r="118.081"
       gradientTransform="matrix(0.11619719,0,0,0.11619719,928.37355,992.05185)"
       gradientUnits="userSpaceOnUse">
      <stop
         offset=".126"
         stop-color="#3fe1b0"
         id="stop5070" />
      <stop
         offset=".429"
         stop-color="#0df"
         id="stop5072" />
      <stop
         offset=".479"
         stop-color="#1ec1ff"
         id="stop5074" />
      <stop
         offset=".624"
         stop-color="#7077ff"
         id="stop5076" />
      <stop
         offset=".69"
         stop-color="#9059ff"
         id="stop5078" />
      <stop
         offset=".904"
         stop-color="#b833e1"
         id="stop5080" />
    </radialGradient>
    <radialGradient
       id="k-82"
       cx="-7927.165"
       cy="-8522.8594"
       r="86.499001"
       gradientTransform="matrix(0.0122007,0.1156162,-0.07587676,0.0080176,-542.56708,985.79936)"
       gradientUnits="userSpaceOnUse">
      <stop
         offset="0"
         stop-color="#54ffbd"
         id="stop5083" />
      <stop
         offset=".095"
         stop-color="#4cf3b8"
         id="stop5085" />
      <stop
         offset=".197"
         stop-color="#3fe1b0"
         id="stop5087" />
      <stop
         offset=".257"
         stop-color="#33d8bd"
         id="stop5089" />
      <stop
         offset=".369"
         stop-color="#12c0e1"
         id="stop5091" />
      <stop
         offset=".423"
         stop-color="#00b3f4"
         id="stop5093" />
      <stop
         offset=".737"
         stop-color="#0060df"
         id="stop5095" />
    </radialGradient>
    <radialGradient
       id="l-6"
       cx="-7938.3828"
       cy="-8508.1758"
       r="73.720001"
       gradientTransform="matrix(0.11619719,0,0,0.11619719,928.37355,992.05185)"
       gradientUnits="userSpaceOnUse">
      <stop
         offset=".137"
         stop-color="#3fe1b0"
         id="stop5098" />
      <stop
         offset=".435"
         stop-color="#0df"
         id="stop5100" />
      <stop
         offset=".484"
         stop-color="#1ec1ff"
         id="stop5102" />
      <stop
         offset=".622"
         stop-color="#7077ff"
         id="stop5104" />
      <stop
         offset=".685"
         stop-color="#9059ff"
         id="stop5106" />
    </radialGradient>
    <radialGradient
       id="m-8"
       cx="-7918.9229"
       cy="-8503.8613"
       r="80.685997"
       gradientTransform="matrix(0.11619719,0,0,0.11619719,928.37355,992.05185)"
       gradientUnits="userSpaceOnUse">
      <stop
         offset=".094"
         stop-color="#54ffbd"
         id="stop5109" />
      <stop
         offset=".242"
         stop-color="#41f7cc"
         id="stop5111" />
      <stop
         offset=".543"
         stop-color="#0fe3f3"
         id="stop5113" />
      <stop
         offset=".626"
         stop-color="#0df"
         id="stop5115" />
    </radialGradient>
    <linearGradient
       id="n-8"
       x1="70.013"
       y1="12.061"
       x2="15.267"
       y2="66.806"
       gradientUnits="userSpaceOnUse"
       gradientTransform="matrix(0.11619719,0,0,0.11619719,1.7010326,1.5870227)">
      <stop
         offset=".167"
         stop-color="#54ffbd"
         stop-opacity=".8"
         id="stop5118" />
      <stop
         offset=".236"
         stop-color="#43f8ca"
         stop-opacity=".639"
         id="stop5120" />
      <stop
         offset=".361"
         stop-color="#27ede1"
         stop-opacity=".368"
         id="stop5122" />
      <stop
         offset=".466"
         stop-color="#12e4f1"
         stop-opacity=".169"
         id="stop5124" />
      <stop
         offset=".545"
         stop-color="#05dffb"
         stop-opacity=".046"
         id="stop5126" />
      <stop
         offset=".589"
         stop-color="#0df"
         stop-opacity="0"
         id="stop5128" />
    </linearGradient>
  </defs>
  <path
     id="rect3143"
     style="opacity:0.1;fill:#000000;fill-opacity:1;stroke-width:0.264583"
     d="m 4.5160033,1.0583334 c -3.60405388,0 -4.1191283,0.5137855 -4.1191283,4.1144775 v 2.883545 c 0,3.6006791 0.51507442,4.1144791 4.1191283,4.1144791 h 3.6679933 c 3.6040544,0 4.1191284,-0.5138 4.1191284,-4.1144791 v -2.883545 c 0,-3.600692 -0.515074,-4.1144775 -4.1191284,-4.1144775 z" />
  <path
     style="display:inline;fill:#00365e;fill-opacity:1;stroke:none;stroke-width:0.0992187;stroke-linecap:round;stroke-linejoin:round;stroke-miterlimit:4;stroke-dasharray:none;stroke-dashoffset:0;stroke-opacity:1;enable-background:new"
     d="m 8.1839962,0.66145835 c 3.6040548,0 4.1191298,0.51378545 4.1191298,4.11447755 v 2.883545 c 0,3.6006781 -0.515075,4.1144781 -4.1191298,4.1144781 H 4.5160033 c -3.604054,0 -4.1191283,-0.5138 -4.1191283,-4.1144781 v -2.883545 c 0,-3.6006921 0.5150743,-4.11447755 4.1191283,-4.11447755 z"
     id="rect877"
     inkscape:connector-curvature="0"
     sodipodi:nodetypes="sssssssss" />
  <path
     d="M 10.522257,4.7047093 C 10.326581,4.2338784 9.9296522,3.7255157 9.618825,3.564815 a 4.6787958,4.6787958 0 0 1 0.456074,1.3669438 l 7.98e-4,0.00755 C 9.5665277,3.6698582 8.7030668,3.1580097 7.9978661,2.0434465 7.9621935,1.9870908 7.9265212,1.9306185 7.8917778,1.8710096 7.8719078,1.8369636 7.8559898,1.8062876 7.8421618,1.7780516 a 0.81953876,0.81953876 0 0 1 -0.067162,-0.1783627 0.01161972,0.01161972 0 0 0 -0.010224,-0.011617 0.01603522,0.01603522 0 0 0 -0.00848,0 c -5.702e-4,0 -0.0015,0.00105 -0.0022,0.00128 -7.181e-4,2.323e-4 -0.00223,0.00128 -0.00325,0.00176 l 0.00176,-0.00302 C 6.6213879,2.2504189 6.2375887,3.4765317 6.2022647,4.0898201 A 2.2527148,2.2527148 0 0 0 4.9629053,4.5675068 1.3463768,1.3463768 0 0 0 4.8467083,4.4794293 2.087831,2.087831 0 0 1 4.8340417,3.3786936 3.3354403,3.3354403 0 0 0 3.7500385,4.216475 h -0.00207 C 3.5694775,3.9902338 3.5820267,3.2442479 3.592252,3.0884274 A 0.8050141,0.8050141 0 0 0 3.4418928,3.1682547 3.2796655,3.2796655 0 0 0 3.0017381,3.5453143 3.9326938,3.9326938 0 0 0 2.5807556,4.0504236 v 7.18e-4 -8.221e-4 A 3.8034824,3.8034824 0 0 0 1.9765303,5.4148214 l -0.00604,0.029748 c -0.00848,0.039624 -0.039042,0.2380884 -0.044271,0.2811973 0,0.00337 -7.18e-4,0.00651 -0.00106,0.00988 a 4.2919756,4.2919756 0 0 0 -0.073078,0.620825 v 0.023239 a 4.5036867,4.5036867 0 0 0 8.9418377,0.7615559 c 0.0076,-0.058098 0.01371,-0.1156161 0.02045,-0.1742957 A 4.6312712,4.6312712 0 0 0 10.522257,4.7047093 Z M 5.3317297,8.2298994 c 0.021032,0.01011 0.040785,0.021033 0.062398,0.030677 l 0.00315,0.00199 Q 5.364513,8.2468746 5.3317449,8.22991 Z M 6.363328,5.5136739 Z M 10.07606,4.9403573 v -0.00429 l 7.98e-4,0.00477 z"
     id="path5142"
     inkscape:connector-curvature="0"
     style="fill:url(#a-76);stroke-width:0.116197" />
  <path
     d="m 10.076293,4.940822 -7.98e-4,-0.00476 v 0.00429 z"
     id="path5144"
     inkscape:connector-curvature="0"
     style="fill:none;stroke-width:0.116197" />
  <path
     d="M 10.522257,4.7047093 C 10.326581,4.2338784 9.9296522,3.7255157 9.618825,3.564815 a 4.6787958,4.6787958 0 0 1 0.456074,1.3669438 v 0.0043 l 7.98e-4,0.00476 A 4.0785211,4.0785211 0 0 1 9.9355714,7.9803109 C 9.4194318,9.0877868 8.17008,10.222917 6.2144813,10.167723 4.1014356,10.107882 2.2405377,8.5399175 1.8926432,6.4862482 c -0.063327,-0.3238416 0,-0.4880283 0.031838,-0.7512147 a 3.3553096,3.3553096 0 0 0 -0.072391,0.6214226 v 0.023239 a 4.5036867,4.5036867 0 0 0 8.9418368,0.7615562 c 0.0076,-0.058098 0.01371,-0.1156159 0.02045,-0.1742957 a 4.6312712,4.6312712 0 0 0 -0.29212,-2.2622431 z"
     id="path5146"
     inkscape:connector-curvature="0"
     style="fill:url(#b-3);stroke-width:0.116197" />
  <path
     d="M 10.522257,4.7047093 C 10.326581,4.2338784 9.9296522,3.7255157 9.618825,3.564815 a 4.6787958,4.6787958 0 0 1 0.456074,1.3669438 v 0.0043 l 7.98e-4,0.00476 A 4.0785211,4.0785211 0 0 1 9.9355714,7.9803109 C 9.4194318,9.0877868 8.17008,10.222917 6.2144813,10.167723 4.1014356,10.107882 2.2405377,8.5399175 1.8926432,6.4862482 c -0.063327,-0.3238416 0,-0.4880283 0.031838,-0.7512147 a 3.3553096,3.3553096 0 0 0 -0.072391,0.6214226 v 0.023239 a 4.5036867,4.5036867 0 0 0 8.9418368,0.7615562 c 0.0076,-0.058098 0.01371,-0.1156159 0.02045,-0.1742957 a 4.6312712,4.6312712 0 0 0 -0.29212,-2.2622431 z"
     id="path5148"
     inkscape:connector-curvature="0"
     style="fill:url(#c-5);stroke-width:0.116197" />
  <path
     d="m 8.3337998,5.2341038 c 0.00976,0.00686 0.018822,0.013714 0.028006,0.020569 A 2.4517605,2.4517605 0 0 0 7.9434953,4.7091266 C 6.5437824,3.3091828 7.5766594,1.6737077 7.7508388,1.5906264 l 0.00176,-0.00255 c -1.1312054,0.6623188 -1.5150045,1.8884317 -1.5503285,2.50172 0.052521,-0.0036 0.1045777,-0.00802 0.1582609,-0.00802 a 2.2728169,2.2728169 0 0 1 1.9732604,1.1523279 z"
     id="path5150"
     inkscape:connector-curvature="0"
     style="fill:url(#d-2);stroke-width:0.116197" />
  <path
     d="m 6.3634441,5.5136739 c -0.00744,0.1120143 -0.403204,0.4983698 -0.5415947,0.4983698 -1.2806093,0 -1.4884862,0.7746869 -1.4884862,0.7746869 0.056705,0.6523308 0.5112677,1.1896267 1.0607642,1.473845 0.025098,0.013017 0.050546,0.024749 0.075993,0.036253 q 0.066116,0.029283 0.1322327,0.054148 A 2.0026584,2.0026584 0 0 0 6.1883354,8.4640368 C 8.432916,8.5693115 8.867726,5.779882 7.2479374,4.9704524 A 1.5547183,1.5547183 0 0 1 8.3337998,5.2341038 2.2728169,2.2728169 0 0 0 6.3605394,4.0817762 c -0.053451,0 -0.1057395,0.00441 -0.1582606,0.00802 a 2.2527148,2.2527148 0 0 0 -1.2393592,0.477687 c 0.068672,0.058098 0.1461759,0.1357181 0.3094332,0.2966515 0.3055984,0.3010667 1.0893487,0.6129399 1.0910913,0.6495417 z"
     id="path5152"
     inkscape:connector-curvature="0"
     style="fill:url(#e-1);stroke-width:0.116197" />
  <path
     d="m 6.3634441,5.5136739 c -0.00744,0.1120143 -0.403204,0.4983698 -0.5415947,0.4983698 -1.2806093,0 -1.4884862,0.7746869 -1.4884862,0.7746869 0.056705,0.6523308 0.5112677,1.1896267 1.0607642,1.473845 0.025098,0.013017 0.050546,0.024749 0.075993,0.036253 q 0.066116,0.029283 0.1322327,0.054148 A 2.0026584,2.0026584 0 0 0 6.1883354,8.4640368 C 8.432916,8.5693115 8.867726,5.779882 7.2479374,4.9704524 A 1.5547183,1.5547183 0 0 1 8.3337998,5.2341038 2.2728169,2.2728169 0 0 0 6.3605394,4.0817762 c -0.053451,0 -0.1057395,0.00441 -0.1582606,0.00802 a 2.2527148,2.2527148 0 0 0 -1.2393592,0.477687 c 0.068672,0.058098 0.1461759,0.1357181 0.3094332,0.2966515 0.3055984,0.3010667 1.0893487,0.6129399 1.0910913,0.6495417 z"
     id="path5154"
     inkscape:connector-curvature="0"
     style="fill:url(#f-2);stroke-width:0.116197" />
  <path
     d="m 5.3317297,8.2298994 q 0.032767,0.016848 0.065535,0.032651 l -0.00315,-0.00196 c -0.021266,-0.00964 -0.041366,-0.020569 -0.062398,-0.030677 z"
     id="path5156"
     inkscape:connector-curvature="0"
     style="fill:url(#g-7);stroke-width:0.116197" />
  <path
     d="m 5.3317297,8.2298994 q 0.032767,0.016848 0.065535,0.032651 l -0.00315,-0.00196 c -0.021266,-0.00964 -0.041366,-0.020569 -0.062398,-0.030677 z"
     id="path5158"
     inkscape:connector-curvature="0"
     style="fill:url(#h-4);stroke-width:0.116197" />
  <path
     d="m 4.7529515,4.4177022 c 0.036486,0.023239 0.066581,0.043458 0.092958,0.0617 A 2.087831,2.087831 0 0 1 4.8332426,3.3786674 3.3354403,3.3354403 0 0 0 3.7492391,4.2164489 c 0.021964,-5.913e-4 0.675222,-0.012318 1.0037111,0.2012533 z"
     id="path5160"
     inkscape:connector-curvature="0"
     style="fill:url(#i-6);stroke-width:0.116197" />
  <path
     d="M 1.8932225,6.4862445 C 2.2407683,8.5399136 4.1020147,10.107878 6.2150608,10.16772 8.1706591,10.22303 9.4200113,9.0877832 9.9361588,7.9803079 A 4.0785211,4.0785211 0 0 0 10.076293,4.940822 v -0.0043 c 0,-0.00338 -7.18e-4,-0.00535 0,-0.0043 l 7.98e-4,0.00755 C 10.236862,5.9828702 9.7063061,6.9934372 8.8768904,7.6767925 l -0.00255,0.00581 C 7.2582903,8.9987716 5.7117058,8.4766977 5.3986704,8.2635921 q -0.03276,-0.015685 -0.065527,-0.03265 C 4.3908838,7.7805605 4.0016234,6.9220953 4.0850527,6.1858703 A 1.1565105,1.1565105 0 0 1 3.0182465,5.5148312 1.6985704,1.6985704 0 0 1 4.6739401,5.4483664 2.2426056,2.2426056 0 0 0 6.3648413,5.5148312 C 6.3630886,5.4782291 5.5793484,5.1662397 5.2737498,4.8652893 5.110493,4.704356 5.0329892,4.6268522 4.9643168,4.5686378 A 1.3463768,1.3463768 0 0 0 4.8481199,4.4805599 C 4.8213956,4.4623182 4.7912993,4.4425637 4.7551619,4.4188597 4.4266724,4.205289 3.773412,4.217025 3.7517991,4.2176057 h -0.00212 C 3.5712279,3.9913716 3.5837774,3.2453857 3.594003,3.0895652 A 0.8050141,0.8050141 0 0 0 3.4436437,3.169393 3.2796655,3.2796655 0 0 0 3.0034886,3.5464526 3.9326938,3.9326938 0 0 0 2.5807632,4.0503996 v 6.757e-4 -8.221e-4 a 3.8034824,3.8034824 0 0 0 -0.604225,1.3645022 c -0.00223,0.00918 -0.1622113,0.7086867 -0.083314,1.0714542 z"
     id="path5162"
     inkscape:connector-curvature="0"
     style="fill:url(#j-9);stroke-width:0.116197" />
  <path
     d="M 6.3634441,5.5136739 H 6.363328 Z"
     id="path5164"
     inkscape:connector-curvature="0"
     style="fill:#ff4aa2;stroke-width:0.116197" />
  <path
     d="m 7.9437259,4.7091249 a 2.4517605,2.4517605 0 0 1 0.41831,0.5461265 c 0.024749,0.018707 0.047873,0.037299 0.06751,0.05531 C 9.4505705,6.2517588 8.9155993,7.5822161 8.8757434,7.6769172 9.7051592,6.9935614 10.235251,5.9829943 10.075944,4.9398926 9.5665357,3.6698574 8.7030747,3.1580087 7.9978739,2.0434453 7.9622013,1.98709 7.9265291,1.9306177 7.8917856,1.8710086 7.8719156,1.8369626 7.8559976,1.8062866 7.8421696,1.7780506 a 0.81953876,0.81953876 0 0 1 -0.067162,-0.1783629 0.01161972,0.01161972 0 0 0 -0.010223,-0.011617 0.01603522,0.01603522 0 0 0 -0.00848,0 c -5.702e-4,0 -0.0015,0.00105 -0.0022,0.00128 -7.181e-4,2.323e-4 -0.00223,0.00129 -0.00325,0.00176 -0.1741793,0.082617 -1.2070559,1.7180916 0.1928876,3.1180355 z"
     id="path5166"
     inkscape:connector-curvature="0"
     style="fill:url(#k-82);stroke-width:0.116197" />
  <path
     d="m 8.4288491,5.3099804 c -0.019638,-0.01801 -0.04276,-0.036602 -0.067511,-0.05531 -0.00918,-0.00686 -0.018242,-0.013712 -0.028005,-0.020569 A 1.5547183,1.5547183 0 0 0 7.2474708,4.9704495 C 8.8672597,5.7803437 8.432682,8.5693085 6.1878687,8.4640338 A 2.0026584,2.0026584 0 0 1 5.6018863,8.3509742 Q 5.5357702,8.3262256 5.469654,8.2968273 C 5.444207,8.2852103 5.41876,8.2735873 5.393661,8.2605743 l 0.00315,0.00196 C 5.709844,8.4762214 7.2559639,8.998295 8.8724991,7.6815489 l 0.00255,-0.00581 C 8.9153785,7.5816142 9.4503503,6.2508081 8.4288609,5.3099597 Z"
     id="path5168"
     inkscape:connector-curvature="0"
     style="fill:url(#l-6);stroke-width:0.116197" />
  <path
     d="m 4.3333632,6.7867306 c 0,0 0.2078769,-0.7746869 1.4884862,-0.7746869 0.1383907,0 0.5345071,-0.3863555 0.5415947,-0.4983698 A 2.2426056,2.2426056 0 0 1 4.6725429,5.4472092 1.6985704,1.6985704 0 0 0 3.0168494,5.5136739 1.1565105,1.1565105 0 0 0 4.0836557,6.184713 c -0.083429,0.7363412 0.3058309,1.5948063 1.248074,2.0450703 0.021032,0.010109 0.040785,0.021033 0.062398,0.030677 C 4.8441663,7.9763579 4.3900676,7.439062 4.3333632,6.7867306 Z"
     id="path5170"
     inkscape:connector-curvature="0"
     style="fill:url(#m-8);stroke-width:0.116197" />
  <path
     d="m 7.4479124,6.0558501 -1.161e-4,1.161e-4 z"
     id="path5172"
     inkscape:connector-curvature="0"
     style="fill:#ff4aa2;stroke-width:0.116197" />
  <path
     d="M 10.522257,4.7047093 C 10.326581,4.2338784 9.9296522,3.7255157 9.618825,3.564815 a 4.6787958,4.6787958 0 0 1 0.456074,1.3669438 l 7.98e-4,0.00755 C 9.5665277,3.6698582 8.7030668,3.1580097 7.9978661,2.0434465 7.9621935,1.9870908 7.9265212,1.9306185 7.8917778,1.8710096 7.8719078,1.8369636 7.8559898,1.8062876 7.8421618,1.7780516 a 0.81953876,0.81953876 0 0 1 -0.067162,-0.1783627 0.01161972,0.01161972 0 0 0 -0.010224,-0.011617 0.01603522,0.01603522 0 0 0 -0.00848,0 c -5.702e-4,0 -0.0015,0.00105 -0.0022,0.00128 -7.181e-4,2.323e-4 -0.00223,0.00128 -0.00325,0.00176 l 0.00176,-0.00302 c -1.1311837,0.6623213 -1.514983,1.8884342 -1.5503067,2.5017227 0.052521,-0.0036 0.1045773,-0.00802 0.1582605,-0.00802 A 2.2728169,2.2728169 0 0 1 8.3338118,5.2341278 1.5547183,1.5547183 0 0 0 7.2479489,4.9704765 C 8.8677378,5.7803709 8.4331605,8.5693354 6.1883472,8.4640606 A 2.0026584,2.0026584 0 0 1 5.602365,8.351001 Q 5.5362566,8.326253 5.4701407,8.2968545 c -0.025447,-0.011617 -0.050894,-0.02324 -0.075993,-0.036253 l 0.00315,0.00196 q -0.032768,-0.015686 -0.065536,-0.032651 c 0.021032,0.01011 0.040785,0.021033 0.062398,0.030677 C 4.8442025,7.9763726 4.3901037,7.4390765 4.3333993,6.7867456 c 0,0 0.2078768,-0.7746868 1.4884862,-0.7746868 0.1383907,0 0.5345071,-0.3863554 0.5415948,-0.4983697 C 6.3617274,5.4770871 5.5779874,5.1650977 5.2723889,4.8641472 5.1091317,4.7032137 5.0316286,4.6257104 4.9629556,4.5674957 A 1.3463768,1.3463768 0 0 0 4.8467242,4.4794337 2.087831,2.087831 0 0 1 4.8340576,3.378698 3.3354403,3.3354403 0 0 0 3.7500542,4.2164795 h -0.00207 C 3.5694935,3.9902399 3.5820429,3.244254 3.5922681,3.0884335 A 0.8050141,0.8050141 0 0 0 3.4419089,3.1682611 3.2796655,3.2796655 0 0 0 3.0017541,3.5453207 3.9326938,3.9326938 0 0 0 2.5807717,4.0504297 v 6.758e-4 -8.221e-4 a 3.8034824,3.8034824 0 0 0 -0.6042253,1.364502 l -0.00604,0.029748 c -0.00848,0.039623 -0.046479,0.2408767 -0.05194,0.2841021 0,0.00325 0,-0.00337 0,0 a 5.2397955,5.2397955 0 0 0 -0.066465,0.6278277 v 0.023239 a 4.5036867,4.5036867 0 0 0 8.9418376,0.7615563 c 0.0076,-0.058098 0.01371,-0.1156162 0.02045,-0.1742957 A 4.6312712,4.6312712 0 0 0 10.522271,4.7047281 Z m -0.446777,0.2313487 7.98e-4,0.00477 z"
     id="path5174"
     inkscape:connector-curvature="0"
     style="fill:url(#n-8);stroke-width:0.116197" />
  <path
     id="rect1370"
     style="opacity:0.4;fill:#000000;fill-opacity:1;stroke-width:0.264583"
     d="m 4.4751788,0.52916667 c -3.68414336,0 -4.21059547,0.52624033 -4.21059547,4.21266273 v 2.9517578 c 0,3.6864088 0.52645211,4.2126628 4.21059547,4.2126628 H 8.224821 c 3.684144,0 4.210596,-0.526254 4.210596,-4.2126628 V 4.7418294 c 0,-3.6864224 -0.526452,-4.21266273 -4.210596,-4.21266273 z m 0.081649,0.2645833 h 3.5863445 c 3.5239637,0 4.0276607,0.50133143 4.0276607,4.01629243 v 2.8153318 c 0,3.5149478 -0.503697,4.0162928 -4.0276607,4.0162928 H 4.5568277 c -3.5239637,0 -4.02766104,-0.501345 -4.02766104,-4.0162928 V 4.8100424 c 0,-3.514961 0.50369724,-4.01629243 4.02766114,-4.01629243 z" />
  <path
     id="rect1565"
     style="fill:url(#linearGradient1873);fill-opacity:1;stroke-width:0.264583;opacity:0.4"
     d="m 4.5568277,0.79374997 c -3.5239635,0 -4.02766104,0.50133123 -4.02766104,4.01629243 v 2.8153318 c 0,3.5149478 0.50369754,4.0162928 4.02766104,4.0162928 h 3.5863445 c 3.5239638,0 4.0276608,-0.501345 4.0276608,-4.0162928 V 4.8100424 c 0,-3.5149612 -0.503697,-4.01629243 -4.0276608,-4.01629243 z m 0.081649,0.26458343 h 3.4230468 c 3.3637835,0 3.8447265,0.4769388 3.8447265,3.8204385 v 2.6778728 c 0,3.3434873 -0.480943,3.8204393 -3.8447265,3.8204393 h -3.423047 c -3.3637834,0 -3.84472651,-0.476952 -3.84472651,-3.8204393 V 4.8787719 c 0,-3.3434997 0.48094311,-3.8204385 3.84472671,-3.8204385 z" />
</svg>
