<?xml version="1.0" encoding="UTF-8" standalone="no"?>
<!-- Created with Inkscape (http://www.inkscape.org/) -->

<svg
   width="48"
   height="48"
   viewBox="0 0 12.7 12.7"
   version="1.1"
   id="svg5"
   inkscape:version="1.1.2 (0a00cf5339, 2022-02-04)"
   sodipodi:docname="google.svg"
   xmlns:inkscape="http://www.inkscape.org/namespaces/inkscape"
   xmlns:sodipodi="http://sodipodi.sourceforge.net/DTD/sodipodi-0.dtd"
   xmlns:xlink="http://www.w3.org/1999/xlink"
   xmlns="http://www.w3.org/2000/svg"
   xmlns:svg="http://www.w3.org/2000/svg">
  <sodipodi:namedview
     id="namedview7"
     pagecolor="#ffffff"
     bordercolor="#666666"
     borderopacity="1.0"
     inkscape:pageshadow="2"
     inkscape:pageopacity="0.0"
     inkscape:pagecheckerboard="0"
     inkscape:document-units="px"
     showgrid="false"
     units="px"
     inkscape:zoom="8.25"
     inkscape:cx="27.818182"
     inkscape:cy="38.181818"
     inkscape:window-width="1920"
     inkscape:window-height="1010"
     inkscape:window-x="0"
     inkscape:window-y="0"
     inkscape:window-maximized="1"
     inkscape:current-layer="svg5"
     showguides="false" />
  <defs
     id="defs2">
    <linearGradient
       inkscape:collect="always"
       id="linearGradient1871">
      <stop
         style="stop-color:#ffffff;stop-opacity:1;"
         offset="0"
         id="stop1867" />
      <stop
         style="stop-color:#ffffff;stop-opacity:0.1"
         offset="0.12"
         id="stop2515" />
      <stop
         style="stop-color:#ffffff;stop-opacity:0.102"
         offset="0.89999998"
         id="stop2581" />
      <stop
         style="stop-color:#ffffff;stop-opacity:0.502"
         offset="1"
         id="stop1869" />
    </linearGradient>
    <linearGradient
       inkscape:collect="always"
       xlink:href="#linearGradient1871"
       id="linearGradient1873"
       x1="17.222656"
       y1="3.5"
       x2="17.222656"
       y2="44.466438"
       gradientUnits="userSpaceOnUse"
       gradientTransform="matrix(0.26458333,0,0,0.26458333,0,-0.13229166)" />
  </defs>
  <path
     id="rect3143"
     style="opacity:0.1;fill:#000000;fill-opacity:1;stroke-width:0.264583"
     d="m 4.5160033,1.0583334 c -3.60405388,0 -4.1191283,0.5137855 -4.1191283,4.1144775 v 2.883545 c 0,3.6006791 0.51507442,4.1144791 4.1191283,4.1144791 h 3.6679933 c 3.6040544,0 4.1191284,-0.5138 4.1191284,-4.1144791 v -2.883545 c 0,-3.600692 -0.515074,-4.1144775 -4.1191284,-4.1144775 z" />
  <path
     style="display:inline;fill:#ffffff;fill-opacity:1;stroke:none;stroke-width:0.0992187;stroke-linecap:round;stroke-linejoin:round;stroke-miterlimit:4;stroke-dasharray:none;stroke-dashoffset:0;stroke-opacity:1;enable-background:new"
     d="m 8.1839962,0.66145835 c 3.6040548,0 4.1191298,0.51378545 4.1191298,4.11447755 v 2.883545 c 0,3.6006781 -0.515075,4.1144781 -4.1191298,4.1144781 H 4.5160033 c -3.604054,0 -4.1191283,-0.5138 -4.1191283,-4.1144781 v -2.883545 c 0,-3.6006921 0.5150743,-4.11447755 4.1191283,-4.11447755 z"
     id="rect877"
     inkscape:connector-curvature="0"
     sodipodi:nodetypes="sssssssss" />
  <path
     id="path24487"
     style="fill:#ea4335;fill-opacity:1;stroke-width:0.423333;stroke-linejoin:round"
     d="M 6.35,2.1166667 C 4.8229418,2.1211184 3.4166347,2.9476514 2.6698112,4.2796354 l 0.392427,1.0509648 0.9346237,0.077648 C 4.3813886,4.4450512 5.3128863,3.8123792 6.35,3.81 6.8697416,3.81339 7.3759293,3.9761664 7.8002473,4.2763278 L 9.1190301,3.1601173 C 8.3515924,2.4905288 7.3684781,2.120063 6.35,2.1166667 Z"
     sodipodi:nodetypes="cccccccc" />
  <path
     id="rect25425"
     style="fill:#fbbc05;fill-opacity:1;stroke-width:0.423333;stroke-linejoin:round"
     d="M 2.6681576,4.2788086 C 2.3097016,4.9104677 2.1197841,5.6237259 2.1166667,6.35 2.11756,7.0772352 2.3057861,7.7919769 2.6631966,8.4253243 L 3.6185432,8.2888526 3.9935547,7.2950579 C 4.1690112,7.7904359 3.8116611,6.7216951 3.81,6.35 3.8128363,6.0274543 3.877109,5.7084032 3.9993426,5.4099024 Z"
     sodipodi:nodetypes="cccccccc" />
  <path
     id="rect35766"
     style="fill:#4285f4;fill-opacity:1;stroke-width:0.423333;stroke-linejoin:round"
     d="M 6.35,5.5033333 V 7.1966662 H 8.7436524 C 8.550181,7.7428879 8.1731189,8.2154356 7.6621679,8.5237163 l 0.1672602,1.0520494 1.1647516,0.07987 C 9.9985157,8.8523473 10.583233,7.6360629 10.583334,6.349998 10.583182,6.0656039 10.554374,5.7819486 10.497344,5.5033313 H 10.092201 8.7378645 Z"
     sodipodi:nodetypes="ccccccccccc" />
  <path
     id="rect24779-7"
     style="fill:#34a853;fill-opacity:1;stroke-width:0.423333;stroke-linejoin:round"
     d="M 3.9935547,7.2950579 2.6623697,8.4261513 C 3.411997,9.7582197 4.8214885,10.582739 6.35,10.583331 7.3109658,10.582824 8.243162,10.255366 8.993353,9.6548097 L 7.6621679,8.5237163 C 7.2662924,8.7630183 6.8125828,8.889668 6.35,8.889999 5.3124959,8.889491 4.3795794,8.2580736 3.9935547,7.2950579 Z"
     sodipodi:nodetypes="ccccccc" />
  <path
     id="rect1370"
     style="opacity:0.4;fill:#000000;fill-opacity:1;stroke-width:0.264583"
     d="m 4.4751788,0.52916667 c -3.68414336,0 -4.21059547,0.52624033 -4.21059547,4.21266273 v 2.9517578 c 0,3.6864088 0.52645211,4.2126628 4.21059547,4.2126628 H 8.224821 c 3.684144,0 4.210596,-0.526254 4.210596,-4.2126628 V 4.7418294 c 0,-3.6864224 -0.526452,-4.21266273 -4.210596,-4.21266273 z m 0.081649,0.2645833 h 3.5863445 c 3.5239637,0 4.0276607,0.50133143 4.0276607,4.01629243 v 2.8153318 c 0,3.5149478 -0.503697,4.0162928 -4.0276607,4.0162928 H 4.5568277 c -3.5239637,0 -4.02766104,-0.501345 -4.02766104,-4.0162928 V 4.8100424 c 0,-3.514961 0.50369724,-4.01629243 4.02766114,-4.01629243 z" />
  <path
     id="rect1565"
     style="fill:url(#linearGradient1873);fill-opacity:1;stroke-width:0.264583;opacity:0.7"
     d="m 4.5568277,0.79374997 c -3.5239635,0 -4.02766104,0.50133123 -4.02766104,4.01629243 v 2.8153318 c 0,3.5149478 0.50369754,4.0162928 4.02766104,4.0162928 h 3.5863445 c 3.5239638,0 4.0276608,-0.501345 4.0276608,-4.0162928 V 4.8100424 c 0,-3.5149612 -0.503697,-4.01629243 -4.0276608,-4.01629243 z m 0.081649,0.26458343 h 3.4230468 c 3.3637835,0 3.8447265,0.4769388 3.8447265,3.8204385 v 2.6778728 c 0,3.3434873 -0.480943,3.8204393 -3.8447265,3.8204393 h -3.423047 c -3.3637834,0 -3.84472651,-0.476952 -3.84472651,-3.8204393 V 4.8787719 c 0,-3.3434997 0.48094311,-3.8204385 3.84472671,-3.8204385 z" />
</svg>
