<?xml version="1.0" encoding="UTF-8" standalone="no"?>
<!-- Created with Inkscape (http://www.inkscape.org/) -->

<svg
   width="48"
   height="48"
   viewBox="0 0 12.7 12.7"
   version="1.1"
   id="svg5"
   inkscape:version="1.1.2 (0a00cf5339, 2022-02-04)"
   sodipodi:docname="kblackbox.svg"
   xmlns:inkscape="http://www.inkscape.org/namespaces/inkscape"
   xmlns:sodipodi="http://sodipodi.sourceforge.net/DTD/sodipodi-0.dtd"
   xmlns:xlink="http://www.w3.org/1999/xlink"
   xmlns="http://www.w3.org/2000/svg"
   xmlns:svg="http://www.w3.org/2000/svg">
  <sodipodi:namedview
     id="namedview7"
     pagecolor="#ffffff"
     bordercolor="#666666"
     borderopacity="1.0"
     inkscape:pageshadow="2"
     inkscape:pageopacity="0.0"
     inkscape:pagecheckerboard="0"
     inkscape:document-units="px"
     showgrid="false"
     units="px"
     inkscape:zoom="17.999997"
     inkscape:cx="23.972226"
     inkscape:cy="24.000003"
     inkscape:window-width="1920"
     inkscape:window-height="1010"
     inkscape:window-x="0"
     inkscape:window-y="0"
     inkscape:window-maximized="1"
     inkscape:current-layer="svg5" />
  <defs
     id="defs2">
    <linearGradient
       inkscape:collect="always"
       id="linearGradient1871">
      <stop
         style="stop-color:#ffffff;stop-opacity:1;"
         offset="0"
         id="stop1867" />
      <stop
         style="stop-color:#ffffff;stop-opacity:0.1"
         offset="0.12"
         id="stop2515" />
      <stop
         style="stop-color:#ffffff;stop-opacity:0.102"
         offset="0.89999998"
         id="stop2581" />
      <stop
         style="stop-color:#ffffff;stop-opacity:0.502"
         offset="1"
         id="stop1869" />
    </linearGradient>
    <linearGradient
       inkscape:collect="always"
       xlink:href="#linearGradient1871"
       id="linearGradient1873"
       x1="17.222656"
       y1="3.5"
       x2="17.222656"
       y2="44.466438"
       gradientUnits="userSpaceOnUse"
       gradientTransform="matrix(0.26458333,0,0,0.26458333,0,-0.13229166)" />
  </defs>
  <path
     id="rect3143"
     style="opacity:0.1;fill:#000000;fill-opacity:1;stroke-width:0.264583"
     d="m 4.5160033,1.0583334 c -3.60405388,0 -4.1191283,0.5137855 -4.1191283,4.1144775 v 2.883545 c 0,3.6006791 0.51507442,4.1144791 4.1191283,4.1144791 h 3.6679933 c 3.6040544,0 4.1191284,-0.5138 4.1191284,-4.1144791 v -2.883545 c 0,-3.600692 -0.515074,-4.1144775 -4.1191284,-4.1144775 z" />
  <path
     style="display:inline;fill:#4d4d4d;fill-opacity:1;stroke:none;stroke-width:0.0992187;stroke-linecap:round;stroke-linejoin:round;stroke-miterlimit:4;stroke-dasharray:none;stroke-dashoffset:0;stroke-opacity:1;enable-background:new"
     d="m 8.1839962,0.66145835 c 3.6040548,0 4.1191298,0.51378545 4.1191298,4.11447755 v 2.883545 c 0,3.6006781 -0.515075,4.1144781 -4.1191298,4.1144781 H 4.5160033 c -3.604054,0 -4.1191283,-0.5138 -4.1191283,-4.1144781 v -2.883545 c 0,-3.6006921 0.5150743,-4.11447755 4.1191283,-4.11447755 z"
     id="rect877"
     inkscape:connector-curvature="0"
     sodipodi:nodetypes="sssssssss" />
  <path
     id="rect1370"
     style="opacity:0.4;fill:#000000;fill-opacity:1;stroke-width:0.264583"
     d="m 4.4751788,0.52916667 c -3.68414336,0 -4.21059547,0.52624033 -4.21059547,4.21266273 v 2.9517578 c 0,3.6864088 0.52645211,4.2126628 4.21059547,4.2126628 H 8.224821 c 3.684144,0 4.210596,-0.526254 4.210596,-4.2126628 V 4.7418294 c 0,-3.6864224 -0.526452,-4.21266273 -4.210596,-4.21266273 z m 0.081649,0.2645833 h 3.5863445 c 3.5239637,0 4.0276607,0.50133143 4.0276607,4.01629243 v 2.8153318 c 0,3.5149478 -0.503697,4.0162928 -4.0276607,4.0162928 H 4.5568277 c -3.5239637,0 -4.02766104,-0.501345 -4.02766104,-4.0162928 V 4.8100424 c 0,-3.514961 0.50369724,-4.01629243 4.02766114,-4.01629243 z" />
  <path
     id="rect1565"
     style="fill:url(#linearGradient1873);fill-opacity:1;stroke-width:0.264583;opacity:1"
     d="m 4.5568277,0.79374997 c -3.5239635,0 -4.02766104,0.50133123 -4.02766104,4.01629243 v 2.8153318 c 0,3.5149478 0.50369754,4.0162928 4.02766104,4.0162928 h 3.5863445 c 3.5239638,0 4.0276608,-0.501345 4.0276608,-4.0162928 V 4.8100424 c 0,-3.5149612 -0.503697,-4.01629243 -4.0276608,-4.01629243 z m 0.081649,0.26458343 h 3.4230468 c 3.3637835,0 3.8447265,0.4769388 3.8447265,3.8204385 v 2.6778728 c 0,3.3434873 -0.480943,3.8204393 -3.8447265,3.8204393 h -3.423047 c -3.3637834,0 -3.84472651,-0.476952 -3.84472651,-3.8204393 V 4.8787719 c 0,-3.3434997 0.48094311,-3.8204385 3.84472671,-3.8204385 z" />
  <path
     id="rect1024"
     style="opacity:1;fill:#e8e8e8;fill-opacity:1;stroke-width:0.263986;stroke-linecap:round;stroke-linejoin:round"
     d="m 6.2113265,2.38125 c -0.3283545,0 -0.6394581,0.037753 -0.933609,0.1130017 -0.2873099,0.075248 -0.5472166,0.174169 -0.7798008,0.2973019 L 4.764726,3.5305483 c 0.4309653,-0.2325843 0.8722463,-0.34887 1.3237334,-0.34887 0.3557174,0 0.6260427,0.092423 0.810742,0.277123 0.1846994,0.1778588 0.2766745,0.4104304 0.2766745,0.6977403 3e-7,0.1778586 -0.040778,0.3418685 -0.1228668,0.4923642 C 6.9777612,4.7994015 6.8783917,4.9430225 6.7552588,5.0798366 6.6321259,5.2166511 6.5023968,5.3533259 6.3655827,5.4901403 6.2287682,5.6201139 6.0985908,5.7641831 5.9754579,5.9215195 5.852325,6.0720152 5.7499308,6.2360251 5.6678423,6.4138837 5.5925944,6.5917423 5.5548408,6.790033 5.5548408,7.008936 c 0,0.1504957 0.013443,0.2941166 0.040806,0.4309308 h 0.800428 C 6.3892344,7.4056633 6.3857614,7.3679094 6.3857614,7.3268653 V 7.2143119 c 0,-0.2257436 0.0447,-0.4275071 0.1336291,-0.6053659 C 6.6083196,6.4242467 6.7176596,6.2563154 6.8476332,6.1058197 6.9776068,5.9484833 7.1212276,5.7983651 7.278564,5.6547099 7.4359004,5.5110551 7.5795213,5.3604885 7.7094949,5.2031521 7.8394683,5.0458154 7.9492568,4.8783327 8.0381862,4.7004739 8.1271153,4.5157747 8.1713666,4.3070651 8.1713666,4.0744808 c 0,-0.1846992 -0.030807,-0.3764925 -0.092375,-0.5748733 C 8.0242666,3.2943859 7.9218726,3.109987 7.7713766,2.9458098 7.6208809,2.7816325 7.4191173,2.6479822 7.1660108,2.5453714 6.9197451,2.43592 6.6012471,2.38125 6.2113265,2.38125 Z M 6.047205,8.4147301 c -0.2120623,0 -0.379545,0.068562 -0.5026779,0.205376 -0.1231329,0.1368145 -0.1847488,0.2973513 -0.1847488,0.4820508 0,0.1846992 0.061616,0.3456843 0.1847488,0.4824989 0.1231329,0.1368145 0.2906156,0.2049275 0.5026779,0.2049275 0.2120621,0 0.3799934,-0.068113 0.5031263,-0.2049275 0.1231329,-0.1368146 0.1843003,-0.2977997 0.1843003,-0.4824989 0,-0.1846995 -0.061167,-0.3452363 -0.1843003,-0.4820508 C 6.4271984,8.4832919 6.2592671,8.4147301 6.047205,8.4147301 Z" />
</svg>
