<?xml version="1.0" encoding="UTF-8" standalone="no"?>
<!-- Created with Inkscape (http://www.inkscape.org/) -->

<svg
   width="48"
   height="48"
   viewBox="0 0 12.7 12.7"
   version="1.1"
   id="svg5"
   inkscape:version="1.1.2 (0a00cf5339, 2022-02-04)"
   sodipodi:docname="kdenlive.svg"
   xmlns:inkscape="http://www.inkscape.org/namespaces/inkscape"
   xmlns:sodipodi="http://sodipodi.sourceforge.net/DTD/sodipodi-0.dtd"
   xmlns:xlink="http://www.w3.org/1999/xlink"
   xmlns="http://www.w3.org/2000/svg"
   xmlns:svg="http://www.w3.org/2000/svg">
  <sodipodi:namedview
     id="namedview7"
     pagecolor="#ffffff"
     bordercolor="#666666"
     borderopacity="1.0"
     inkscape:pageshadow="2"
     inkscape:pageopacity="0.0"
     inkscape:pagecheckerboard="0"
     inkscape:document-units="px"
     showgrid="false"
     units="px"
     inkscape:zoom="12.050278"
     inkscape:cx="16.472648"
     inkscape:cy="25.227633"
     inkscape:window-width="1920"
     inkscape:window-height="1010"
     inkscape:window-x="0"
     inkscape:window-y="0"
     inkscape:window-maximized="1"
     inkscape:current-layer="svg5" />
  <defs
     id="defs2">
    <linearGradient
       inkscape:collect="always"
       id="linearGradient1331">
      <stop
         style="stop-color:#414649;stop-opacity:1"
         offset="0"
         id="stop1327" />
      <stop
         style="stop-color:#2a2c2f;stop-opacity:1"
         offset="1"
         id="stop1329" />
    </linearGradient>
    <linearGradient
       inkscape:collect="always"
       id="linearGradient1871">
      <stop
         style="stop-color:#ffffff;stop-opacity:1;"
         offset="0"
         id="stop1867" />
      <stop
         style="stop-color:#ffffff;stop-opacity:0.1"
         offset="0.12"
         id="stop2515" />
      <stop
         style="stop-color:#ffffff;stop-opacity:0.102"
         offset="0.89999998"
         id="stop2581" />
      <stop
         style="stop-color:#ffffff;stop-opacity:0.502"
         offset="1"
         id="stop1869" />
    </linearGradient>
    <linearGradient
       inkscape:collect="always"
       xlink:href="#linearGradient1871"
       id="linearGradient1873"
       x1="17.222656"
       y1="3.5"
       x2="17.222656"
       y2="44.466438"
       gradientUnits="userSpaceOnUse"
       gradientTransform="matrix(0.26458333,0,0,0.26458333,0,-0.13229166)" />
    <linearGradient
       inkscape:collect="always"
       xlink:href="#linearGradient1331"
       id="linearGradient1333"
       x1="8.1839962"
       y1="0.66145837"
       x2="8.2108183"
       y2="11.778486"
       gradientUnits="userSpaceOnUse" />
    <linearGradient
       xlink:href="#linearGradient4235"
       id="linearGradient4241"
       x1="6"
       y1="20.242001"
       x2="21"
       y2="24"
       gradientUnits="userSpaceOnUse"
       gradientTransform="matrix(0.3175,0,0,0.3175,-1.1112501,-0.95249996)" />
    <linearGradient
       id="linearGradient4235">
      <stop
         style="stop-color:#abdaf9;stop-opacity:1"
         offset="0"
         id="stop7" />
      <stop
         style="stop-color:#7cbcec;stop-opacity:1"
         offset="1"
         id="stop9" />
    </linearGradient>
    <linearGradient
       xlink:href="#linearGradient4255"
       id="linearGradient4261"
       x1="21.261999"
       y1="4.0279999"
       x2="33.031879"
       y2="16.060667"
       gradientUnits="userSpaceOnUse"
       gradientTransform="matrix(1.2631579,0,0,1.2631579,-5.3562928,-1.0526314)" />
    <linearGradient
       id="linearGradient4255">
      <stop
         style="stop-color:#000000;stop-opacity:1;"
         offset="0"
         id="stop2" />
      <stop
         style="stop-color:#000000;stop-opacity:0;"
         offset="1"
         id="stop4" />
    </linearGradient>
    <linearGradient
       xlink:href="#linearGradient4216"
       id="linearGradient4222"
       x1="24.358"
       y1="-2.839"
       x2="22.09"
       y2="3.4579999"
       gradientUnits="userSpaceOnUse"
       gradientTransform="matrix(0.38831755,0,0,-0.298927,-2.9150063,2.0716252)" />
    <linearGradient
       id="linearGradient4216">
      <stop
         style="stop-color:#c42c2c;stop-opacity:1"
         offset="0"
         id="stop17" />
      <stop
         style="stop-color:#f36856;stop-opacity:1"
         offset="1"
         id="stop19" />
    </linearGradient>
    <linearGradient
       xlink:href="#linearGradient4255"
       id="linearGradient4275"
       x1="32.265999"
       y1="20.125999"
       x2="42.889"
       y2="30.749001"
       gradientUnits="userSpaceOnUse"
       gradientTransform="matrix(1.2631579,0,0,1.2631579,-8.894493,-5.9473689)" />
    <linearGradient
       xlink:href="#linearGradient4224"
       id="linearGradient4230"
       x1="38"
       y1="33"
       x2="35"
       y2="15"
       gradientUnits="userSpaceOnUse"
       gradientTransform="matrix(0.33421052,0,0,0.33421052,-2.3533346,-1.5735747)" />
    <linearGradient
       id="linearGradient4224">
      <stop
         style="stop-color:#375a7d;stop-opacity:1"
         offset="0"
         id="stop12" />
      <stop
         style="stop-color:#54a3d8;stop-opacity:1"
         offset="1"
         id="stop14" />
    </linearGradient>
  </defs>
  <path
     id="rect3143"
     style="opacity:0.1;fill:#000000;fill-opacity:1;stroke-width:0.264583"
     d="m 4.5160033,1.0583334 c -3.60405388,0 -4.1191283,0.5137855 -4.1191283,4.1144775 v 2.883545 c 0,3.6006791 0.51507442,4.1144791 4.1191283,4.1144791 h 3.6679933 c 3.6040544,0 4.1191284,-0.5138 4.1191284,-4.1144791 v -2.883545 c 0,-3.600692 -0.515074,-4.1144775 -4.1191284,-4.1144775 z" />
  <path
     style="display:inline;fill:url(#linearGradient1333);fill-opacity:1;stroke:none;stroke-width:0.0992187;stroke-linecap:round;stroke-linejoin:round;stroke-miterlimit:4;stroke-dasharray:none;stroke-dashoffset:0;stroke-opacity:1;enable-background:new"
     d="m 8.1839962,0.66145835 c 3.6040548,0 4.1191298,0.51378545 4.1191298,4.11447755 v 2.883545 c 0,3.6006781 -0.515075,4.1144781 -4.1191298,4.1144781 H 4.5160033 c -3.604054,0 -4.1191283,-0.5138 -4.1191283,-4.1144781 v -2.883545 c 0,-3.6006921 0.5150743,-4.11447755 4.1191283,-4.11447755 z"
     id="rect877"
     inkscape:connector-curvature="0"
     sodipodi:nodetypes="sssssssss" />
  <path
     d="M 4.6037499,2.9104167 V 3.5454166 H 5.55625 V 2.9104167 Z m -0.9525,1.27 v 0.635 H 5.55625 v -0.635 z M 2.06375,5.4504166 v 0.6350001 h 3.4925 V 5.4504166 Z m -1.27,1.27 v 0.6350005 h 4.7625 V 6.7204166 Z m 1.27,1.2699997 v 0.6350009 h 3.4925 V 7.9904163 Z m 1.5874999,1.2700004 v 0.634999 H 5.55625 v -0.634999 z"
     style="color:#000000;font-style:normal;font-variant:normal;font-weight:normal;font-stretch:normal;font-size:medium;line-height:normal;font-family:sans-serif;text-indent:0;text-align:start;text-decoration:none;text-decoration-line:none;text-decoration-style:solid;text-decoration-color:#000000;letter-spacing:normal;word-spacing:normal;text-transform:none;writing-mode:lr-tb;direction:ltr;baseline-shift:baseline;text-anchor:start;white-space:normal;clip-rule:nonzero;display:inline;overflow:visible;visibility:visible;opacity:0.1;isolation:auto;mix-blend-mode:normal;color-interpolation:sRGB;color-interpolation-filters:linearRGB;solid-color:#000000;solid-opacity:1;fill:#000000;fill-opacity:1;fill-rule:evenodd;stroke:none;stroke-width:2.38125;stroke-linecap:butt;stroke-linejoin:miter;stroke-miterlimit:4;stroke-dasharray:none;stroke-dashoffset:0;stroke-opacity:1;color-rendering:auto;image-rendering:auto;shape-rendering:auto;text-rendering:auto;enable-background:accumulate"
     id="path38" />
  <path
     d="M 6.0854167,1.3229168 6.0957517,11.377084 H 6.6145834 V 1.3229168 Z"
     style="fill:#e05e4c;fill-opacity:1;stroke:none;stroke-width:0.793749;stroke-linecap:round;stroke-linejoin:round;stroke-miterlimit:4;stroke-dasharray:none;stroke-dashoffset:0;stroke-opacity:1"
     id="path40" />
  <path
     style="color:#000000;font-style:normal;font-variant:normal;font-weight:normal;font-stretch:normal;font-size:medium;line-height:normal;font-family:sans-serif;text-indent:0;text-align:start;text-decoration:none;text-decoration-line:none;text-decoration-style:solid;text-decoration-color:#000000;letter-spacing:normal;word-spacing:normal;text-transform:none;writing-mode:lr-tb;direction:ltr;baseline-shift:baseline;text-anchor:start;white-space:normal;clip-rule:nonzero;display:inline;overflow:visible;visibility:visible;isolation:auto;mix-blend-mode:normal;color-interpolation:sRGB;color-interpolation-filters:linearRGB;solid-color:#000000;solid-opacity:1;fill:url(#linearGradient4241);fill-opacity:1;fill-rule:evenodd;stroke:none;stroke-width:2.38125;stroke-linecap:butt;stroke-linejoin:miter;stroke-miterlimit:4;stroke-dasharray:none;stroke-dashoffset:0;stroke-opacity:1;color-rendering:auto;image-rendering:auto;shape-rendering:auto;text-rendering:auto;enable-background:accumulate"
     d="M 4.60375,3.175 V 3.81 h 0.9525 V 3.175 Z M 3.6512499,4.445 V 5.0800001 H 5.55625 V 4.445 Z M 2.06375,5.7149999 V 6.35 h 3.4925 V 5.7149999 Z m -1.27,1.2699998 V 7.62 h 4.7625 V 6.9849997 Z m 1.27,1.2700014 v 0.634998 h 3.4925 V 8.2550011 Z M 3.6512499,9.5249992 V 10.160001 H 5.55625 V 9.5249992 Z"
     id="path42" />
  <path
     id="path44"
     style="opacity:0.4;fill:url(#linearGradient4261);fill-opacity:1;stroke:none;stroke-width:2.52632;stroke-linecap:round;stroke-linejoin:round;stroke-miterlimit:4;stroke-dasharray:none;stroke-opacity:1"
     d="M 18 4 L 24 11.5 L 45.757812 38.128906 C 46.332324 35.90236 46.5 32.923966 46.5 28.949219 L 46.5 20.8125 L 30 4 L 24.054688 4.7441406 L 18 4 z "
     transform="scale(0.26458333)" />
  <path
     style="fill:url(#linearGradient4222);fill-opacity:1;stroke:none;stroke-width:0.681406;stroke-linecap:round;stroke-linejoin:round;stroke-miterlimit:4;stroke-dasharray:none;stroke-opacity:1"
     d="m 7.9375,1.0583333 c -0.1401788,0.00538 -3.175,0 -3.175,0 l 1.5875001,1.9843752 c 0,0 1.4473211,-1.9789899 1.5874999,-1.9843752 z"
     id="path46"
     sodipodi:nodetypes="cccc" />
  <path
     id="path48"
     style="opacity:0.4;fill:url(#linearGradient4275);fill-opacity:1;stroke:none;stroke-width:2.52632;stroke-linecap:round;stroke-linejoin:round;stroke-miterlimit:4;stroke-dasharray:none;stroke-opacity:1"
     d="M 32.410156 18.425781 L 30.132812 26.150391 L 29.412109 35.320312 L 38.220703 44.128906 C 45.301338 43.115389 46.5 39.618332 46.5 28.949219 L 46.5 26.058594 L 43.71875 23.277344 L 32.410156 18.425781 z "
     transform="scale(0.26458333)" />
  <path
     d="m 8.0195127,3.4400465 c -0.164105,0.00995 -0.340809,0.1722831 -0.340396,0.3521529 l -0.0062,5.310623 c 0,0.239845 0.313785,0.4485447 0.493287,0.306063 L 11.548096,6.7444945 c 0.180676,-0.1407235 0.180262,-0.4708283 0,-0.6121757 L 8.1725307,3.4861348 c -0.04506,-0.035307 -0.0982,-0.049374 -0.152919,-0.046088 z"
     style="fill:url(#linearGradient4230);fill-opacity:1;fill-rule:nonzero;stroke:none;stroke-width:0.768691;stroke-linecap:butt;stroke-linejoin:round;stroke-miterlimit:4;stroke-dasharray:none;stroke-dashoffset:80;stroke-opacity:1"
     id="path50" />
  <path
     id="rect1370"
     style="opacity:0.4;fill:#000000;fill-opacity:1;stroke-width:0.264583"
     d="m 4.4751788,0.52916667 c -3.68414336,0 -4.21059547,0.52624033 -4.21059547,4.21266273 v 2.9517578 c 0,3.6864088 0.52645211,4.2126628 4.21059547,4.2126628 H 8.224821 c 3.684144,0 4.210596,-0.526254 4.210596,-4.2126628 V 4.7418294 c 0,-3.6864224 -0.526452,-4.21266273 -4.210596,-4.21266273 z m 0.081649,0.2645833 h 3.5863445 c 3.5239637,0 4.0276607,0.50133143 4.0276607,4.01629243 v 2.8153318 c 0,3.5149478 -0.503697,4.0162928 -4.0276607,4.0162928 H 4.5568277 c -3.5239637,0 -4.02766104,-0.501345 -4.02766104,-4.0162928 V 4.8100424 c 0,-3.514961 0.50369724,-4.01629243 4.02766114,-4.01629243 z" />
  <path
     id="rect1565"
     style="opacity:0.7;fill:url(#linearGradient1873);fill-opacity:1;stroke-width:0.264583"
     d="m 4.5568277,0.79374997 c -3.5239635,0 -4.02766104,0.50133123 -4.02766104,4.01629243 v 2.8153318 c 0,3.5149478 0.50369754,4.0162928 4.02766104,4.0162928 h 3.5863445 c 3.5239638,0 4.0276608,-0.501345 4.0276608,-4.0162928 V 4.8100424 c 0,-3.5149612 -0.503697,-4.01629243 -4.0276608,-4.01629243 z m 0.081649,0.26458343 h 3.4230468 c 3.3637835,0 3.8447265,0.4769388 3.8447265,3.8204385 v 2.6778728 c 0,3.3434873 -0.480943,3.8204393 -3.8447265,3.8204393 h -3.423047 c -3.3637834,0 -3.84472651,-0.476952 -3.84472651,-3.8204393 V 4.8787719 c 0,-3.3434997 0.48094311,-3.8204385 3.84472671,-3.8204385 z" />
</svg>
