<?xml version="1.0" encoding="UTF-8" standalone="no"?>
<!-- Created with Inkscape (http://www.inkscape.org/) -->

<svg
   width="48"
   height="48"
   viewBox="0 0 12.7 12.7"
   version="1.1"
   id="svg5"
   inkscape:version="1.2 (dc2aedaf03, 2022-05-15)"
   sodipodi:docname="online-accounts.svg"
   xmlns:inkscape="http://www.inkscape.org/namespaces/inkscape"
   xmlns:sodipodi="http://sodipodi.sourceforge.net/DTD/sodipodi-0.dtd"
   xmlns:xlink="http://www.w3.org/1999/xlink"
   xmlns="http://www.w3.org/2000/svg"
   xmlns:svg="http://www.w3.org/2000/svg">
  <sodipodi:namedview
     id="namedview7"
     pagecolor="#ffffff"
     bordercolor="#666666"
     borderopacity="1.0"
     inkscape:pageshadow="2"
     inkscape:pageopacity="0.0"
     inkscape:pagecheckerboard="0"
     inkscape:document-units="px"
     showgrid="false"
     units="px"
     inkscape:zoom="16.625"
     inkscape:cx="24"
     inkscape:cy="24"
     inkscape:window-width="1854"
     inkscape:window-height="1019"
     inkscape:window-x="0"
     inkscape:window-y="0"
     inkscape:window-maximized="1"
     inkscape:current-layer="svg5"
     showguides="false"
     inkscape:showpageshadow="2"
     inkscape:deskcolor="#d1d1d1" />
  <defs
     id="defs2">
    <linearGradient
       inkscape:collect="always"
       id="linearGradient3598">
      <stop
         style="stop-color:#8c59d9;stop-opacity:1"
         offset="0"
         id="stop3594" />
      <stop
         style="stop-color:#a7a7f1;stop-opacity:1"
         offset="1"
         id="stop3596" />
    </linearGradient>
    <linearGradient
       inkscape:collect="always"
       id="linearGradient1871">
      <stop
         style="stop-color:#ffffff;stop-opacity:1;"
         offset="0"
         id="stop1867" />
      <stop
         style="stop-color:#ffffff;stop-opacity:0.1"
         offset="0.12"
         id="stop2515" />
      <stop
         style="stop-color:#ffffff;stop-opacity:0.102"
         offset="0.89999998"
         id="stop2581" />
      <stop
         style="stop-color:#ffffff;stop-opacity:0.502"
         offset="1"
         id="stop1869" />
    </linearGradient>
    <linearGradient
       inkscape:collect="always"
       xlink:href="#linearGradient1871"
       id="linearGradient1873"
       x1="17.222656"
       y1="3.5"
       x2="17.222656"
       y2="44.466438"
       gradientUnits="userSpaceOnUse"
       gradientTransform="matrix(0.26458333,0,0,0.26458333,0,-0.13229166)" />
    <linearGradient
       inkscape:collect="always"
       xlink:href="#linearGradient3598"
       id="linearGradient3600"
       x1="2.9303741"
       y1="0.66307557"
       x2="9.5076599"
       y2="11.792911"
       gradientUnits="userSpaceOnUse" />
  </defs>
  <path
     id="rect3143"
     style="opacity:0.1;fill:#000000;fill-opacity:1;stroke-width:0.264583"
     d="m 4.5160033,1.0583334 c -3.60405388,0 -4.1191283,0.5137855 -4.1191283,4.1144775 v 2.883545 c 0,3.6006791 0.51507442,4.1144791 4.1191283,4.1144791 h 3.6679933 c 3.6040544,0 4.1191284,-0.5138 4.1191284,-4.1144791 v -2.883545 c 0,-3.600692 -0.515074,-4.1144775 -4.1191284,-4.1144775 z" />
  <path
     style="display:inline;fill:url(#linearGradient3600);fill-opacity:1;stroke:none;stroke-width:0.0992187;stroke-linecap:round;stroke-linejoin:round;stroke-miterlimit:4;stroke-dasharray:none;stroke-dashoffset:0;stroke-opacity:1;enable-background:new"
     d="m 8.1839962,0.66145835 c 3.6040548,0 4.1191298,0.51378545 4.1191298,4.11447755 v 2.883545 c 0,3.6006781 -0.515075,4.1144781 -4.1191298,4.1144781 H 4.5160033 c -3.604054,0 -4.1191283,-0.5138 -4.1191283,-4.1144781 v -2.883545 c 0,-3.6006921 0.5150743,-4.11447755 4.1191283,-4.11447755 z"
     id="rect877"
     inkscape:connector-curvature="0"
     sodipodi:nodetypes="sssssssss" />
  <path
     id="rect987"
     style="opacity:0.25;fill:#ffffff;stroke-width:0.999999;stroke-linejoin:round"
     d="m 19.080078,3.5742188 -2.568359,2.9375 2.201172,2.2011718 v 2.3027344 l 2.570312,2.837891 h 1.46875 v -1.46875 l 2.201172,-2.203125 V 8.7128906 l 1.46875,-1.4667968 v -2.203125 l -1.46875,-1.46875 z m -5.138672,0.953125 c -1.371474,0.7056351 -2.66503,1.5533858 -3.859375,2.5292968 l 0.189453,0.1894532 h 3.669922 z M 3.5703125,7.0097656 C 2.3122837,9.2842935 2,12.796465 2,18.179688 v 5.019531 l 2.3984375,2.40039 h 2.203125 l 3.6699215,3.669922 v -4.404297 l 2.203125,-2.203125 h 1.466797 l 2.203125,-2.201171 h 2.203125 l -1.101562,-1.101563 2.201172,-2.570313 -2.201172,-2.201171 h -3.304688 v 2.935547 h -1.466797 l -1.46875,-1.46875 v -1.466797 l 2.201172,-2.203125 h 1.835938 v -1.46875 L 12.841797,8.7148438 9.1699219,8.7128906 V 10.916016 H 7.3339844 Z m 41.2089845,0.7226563 -4.408203,3.9179691 -1.46875,-1.46875 h -4.404297 l -2.203125,2.203125 v 1.835937 h 2.203125 v -1.101562 h 1.46875 v 1.466797 l -0.734375,0.734374 -2.9375,0.05078 -1.101563,1.050781 h -1.466797 v 1.46875 L 28.625,18.992188 v 2.201171 h 2.201172 l 1.46875,-1.466797 h 1.46875 v 0.732422 l 1.46875,1.46875 h 0.734375 v -0.734375 l -1.46875,-1.466797 h 1.46875 l 1.466797,1.466797 h 1.835937 l -1.101562,-1.099609 1.101562,-1.101562 h 1.101563 l 1.101562,1.101562 h -1.101562 l -1.101563,1.099609 1.082031,1.082032 0.01953,1.121093 h -1.46875 l 4.404297,4.404297 h 0.734375 l 0.734375,-0.734375 1.130859,-1.130859 c 0.01436,-0.21337 0.02527,-0.426933 0.0332,-0.640625 L 44.775391,24.130859 H 46 V 18.179688 C 46,13.336013 45.746433,10.008063 44.779297,7.7324219 Z M 38.902344,23.396484 h -4.404297 l -0.734375,-0.734375 h -4.404297 l -2.570313,2.570313 v 3.669922 L 28.625,30.738281 h 2.568359 l 1.101563,1.101563 v 1.099609 l 0.734375,0.734375 v 4.404297 l 2.787109,2.947266 4.603516,-4.603516 -0.04883,-4.216797 3.669922,-3.669922 h -1.46875 L 38.902344,24.865234 Z M 24.585938,13.119141 v 1.101562 h 2.203124 L 25.6875,13.119141 Z m 6.607421,0.367187 -1.099609,1.09961 V 15.6875 h 1.099609 z M 19.814453,17.523438 18.712891,18.625 h 1.101562 l 0.367188,0.367188 h 0.367187 L 20.916016,18.625 Z m -6.240234,7.708984 -1.09961,1.099609 h 2.201172 v -1.099609 z m -1.09961,3.302734 -1.46875,1.46875 v 3.669922 l 2.945313,2.582031 -0.0098,3.291016 -1.101562,1.101563 v 2.457031 c 0.528051,0.308734 1.069234,0.593717 1.621094,0.857422 0.08587,0.0024 0.168825,0.0057 0.255859,0.0078 L 18.712891,40.28125 V 38.8125 l 2.203125,-2.201172 v -1.101562 l 1.101562,-1.101563 v -2.935547 l -1.46875,-1.46875 h -2.935547 l -1.46875,-1.46875 z m 30.464844,5.138672 -1.466797,1.369141 v 2.302734 h 0.08789 C 42.058632,36.684026 42.519,35.99478 42.939453,35.28125 Z"
     transform="scale(0.26458333)" />
  <path
     id="path1019"
     style="fill:#ffffff;stroke-width:0.264583"
     d="M 6.6145832,3.175 C 5.4674838,3.1753969 4.4098013,3.7945282 3.8478271,4.7945394 2.6971106,4.983322 1.8523903,5.9776508 1.8520833,7.14375 c -1e-7,1.3151281 1.0661218,2.3812499 2.38125,2.3812499 h 4.7624999 c 1.0228768,0 1.8520828,-0.829206 1.8520828,-1.8520833 C 10.847947,6.9492651 10.426507,6.2918752 9.7689124,5.9898153 9.5858054,4.3861588 8.2286595,3.1750884 6.6145832,3.175 Z m 0,0.2645833 c 1.5387992,4.763e-4 2.8113192,1.1987244 2.9042152,2.7347169 0.6373866,0.2223858 1.0644186,0.8235474 1.0645346,1.4986164 0,0.8767522 -0.7107476,1.5875 -1.5874998,1.5875 0,0 -4.7350314,0.00138 -4.7624999,0 -1.1690027,0 -2.1166668,-0.9476639 -2.1166667,-2.1166666 C 2.1173863,6.058722 2.9384519,5.1499484 4.0178426,5.0394857 4.5122943,4.0590179 5.5164941,3.4402977 6.6145832,3.4395833 Z" />
  <path
     id="rect1565"
     style="opacity:1;fill:url(#linearGradient1873);fill-opacity:1;stroke-width:0.264583"
     d="m 4.5568277,0.79374997 c -3.5239635,0 -4.02766104,0.50133123 -4.02766104,4.01629243 v 2.8153318 c 0,3.5149478 0.50369754,4.0162928 4.02766104,4.0162928 h 3.5863445 c 3.5239638,0 4.0276608,-0.501345 4.0276608,-4.0162928 V 4.8100424 c 0,-3.5149612 -0.503697,-4.01629243 -4.0276608,-4.01629243 z m 0.081649,0.26458343 h 3.4230468 c 3.3637835,0 3.8447265,0.4769388 3.8447265,3.8204385 v 2.6778728 c 0,3.3434873 -0.480943,3.8204393 -3.8447265,3.8204393 h -3.423047 c -3.3637834,0 -3.84472651,-0.476952 -3.84472651,-3.8204393 V 4.8787719 c 0,-3.3434997 0.48094311,-3.8204385 3.84472671,-3.8204385 z" />
  <path
     id="rect1370"
     style="opacity:0.4;fill:#000000;fill-opacity:1;stroke-width:0.264583"
     d="m 4.4751788,0.52916667 c -3.68414336,0 -4.21059547,0.52624033 -4.21059547,4.21266273 v 2.9517578 c 0,3.6864088 0.52645211,4.2126628 4.21059547,4.2126628 H 8.224821 c 3.684144,0 4.210596,-0.526254 4.210596,-4.2126628 V 4.7418294 c 0,-3.6864224 -0.526452,-4.21266273 -4.210596,-4.21266273 z m 0.081649,0.2645833 h 3.5863445 c 3.5239637,0 4.0276607,0.50133143 4.0276607,4.01629243 v 2.8153318 c 0,3.5149478 -0.503697,4.0162928 -4.0276607,4.0162928 H 4.5568277 c -3.5239637,0 -4.02766104,-0.501345 -4.02766104,-4.0162928 V 4.8100424 c 0,-3.514961 0.50369724,-4.01629243 4.02766114,-4.01629243 z" />
</svg>
