<?xml version="1.0" encoding="UTF-8" standalone="no"?>
<!-- Created with Inkscape (http://www.inkscape.org/) -->

<svg
   width="48"
   height="48"
   viewBox="0 0 12.7 12.7"
   version="1.1"
   id="svg5"
   inkscape:version="1.1.2 (0a00cf5339, 2022-02-04)"
   sodipodi:docname="polari.svg"
   xmlns:inkscape="http://www.inkscape.org/namespaces/inkscape"
   xmlns:sodipodi="http://sodipodi.sourceforge.net/DTD/sodipodi-0.dtd"
   xmlns:xlink="http://www.w3.org/1999/xlink"
   xmlns="http://www.w3.org/2000/svg"
   xmlns:svg="http://www.w3.org/2000/svg">
  <sodipodi:namedview
     id="namedview7"
     pagecolor="#ffffff"
     bordercolor="#666666"
     borderopacity="1.0"
     inkscape:pageshadow="2"
     inkscape:pageopacity="0.0"
     inkscape:pagecheckerboard="0"
     inkscape:document-units="px"
     showgrid="false"
     units="px"
     inkscape:zoom="16.5"
     inkscape:cx="23.969697"
     inkscape:cy="24"
     inkscape:window-width="1920"
     inkscape:window-height="1010"
     inkscape:window-x="0"
     inkscape:window-y="0"
     inkscape:window-maximized="1"
     inkscape:current-layer="svg5"
     showguides="false" />
  <defs
     id="defs2">
    <linearGradient
       inkscape:collect="always"
       id="linearGradient3187">
      <stop
         style="stop-color:#a3fa86;stop-opacity:1"
         offset="0"
         id="stop3183" />
      <stop
         style="stop-color:#eff9eb;stop-opacity:1"
         offset="1"
         id="stop3185" />
    </linearGradient>
    <linearGradient
       inkscape:collect="always"
       id="linearGradient2092">
      <stop
         style="stop-color:#fbfdfb;stop-opacity:1;"
         offset="0"
         id="stop2088" />
      <stop
         style="stop-color:#c8f4c8;stop-opacity:1"
         offset="1"
         id="stop2090" />
    </linearGradient>
    <linearGradient
       inkscape:collect="always"
       id="linearGradient3598">
      <stop
         style="stop-color:#17be17;stop-opacity:1"
         offset="0"
         id="stop3594" />
      <stop
         style="stop-color:#62e075;stop-opacity:1"
         offset="1"
         id="stop3596" />
    </linearGradient>
    <linearGradient
       inkscape:collect="always"
       id="linearGradient1871">
      <stop
         style="stop-color:#ffffff;stop-opacity:1;"
         offset="0"
         id="stop1867" />
      <stop
         style="stop-color:#ffffff;stop-opacity:0.1"
         offset="0.12"
         id="stop2515" />
      <stop
         style="stop-color:#ffffff;stop-opacity:0.102"
         offset="0.89999998"
         id="stop2581" />
      <stop
         style="stop-color:#ffffff;stop-opacity:0.502"
         offset="1"
         id="stop1869" />
    </linearGradient>
    <linearGradient
       inkscape:collect="always"
       xlink:href="#linearGradient1871"
       id="linearGradient1873"
       x1="17.222656"
       y1="3.5"
       x2="17.222656"
       y2="44.466438"
       gradientUnits="userSpaceOnUse"
       gradientTransform="matrix(0.26458333,0,0,0.26458333,0,-0.13229166)" />
    <linearGradient
       inkscape:collect="always"
       xlink:href="#linearGradient3598"
       id="linearGradient3600"
       x1="0"
       y1="0"
       x2="12.700001"
       y2="12.700001"
       gradientUnits="userSpaceOnUse" />
    <linearGradient
       inkscape:collect="always"
       xlink:href="#linearGradient2092"
       id="linearGradient2094"
       x1="5.3175426"
       y1="3.6380601"
       x2="5.3175426"
       y2="7.8713937"
       gradientUnits="userSpaceOnUse" />
    <linearGradient
       inkscape:collect="always"
       xlink:href="#linearGradient3187"
       id="linearGradient3189"
       x1="5.3175426"
       y1="7.8713937"
       x2="5.3175426"
       y2="3.6380601"
       gradientUnits="userSpaceOnUse" />
  </defs>
  <path
     id="rect3143"
     style="opacity:0.1;fill:#000000;fill-opacity:1;stroke-width:0.264583"
     d="m 4.5160033,1.0583334 c -3.60405388,0 -4.1191283,0.5137855 -4.1191283,4.1144775 v 2.883545 c 0,3.6006791 0.51507442,4.1144791 4.1191283,4.1144791 h 3.6679933 c 3.6040544,0 4.1191284,-0.5138 4.1191284,-4.1144791 v -2.883545 c 0,-3.600692 -0.515074,-4.1144775 -4.1191284,-4.1144775 z" />
  <path
     style="display:inline;fill:url(#linearGradient3600);fill-opacity:1;stroke:none;stroke-width:0.0992187;stroke-linecap:round;stroke-linejoin:round;stroke-miterlimit:4;stroke-dasharray:none;stroke-dashoffset:0;stroke-opacity:1;enable-background:new"
     d="m 8.1839962,0.66145835 c 3.6040548,0 4.1191298,0.51378545 4.1191298,4.11447755 v 2.883545 c 0,3.6006781 -0.515075,4.1144781 -4.1191298,4.1144781 H 4.5160033 c -3.604054,0 -4.1191283,-0.5138 -4.1191283,-4.1144781 v -2.883545 c 0,-3.6006921 0.5150743,-4.11447755 4.1191283,-4.11447755 z"
     id="rect877"
     inkscape:connector-curvature="0"
     sodipodi:nodetypes="sssssssss" />
  <path
     id="path4559"
     style="opacity:0.1;fill:#000000;fill-opacity:1;stroke-width:0.0185219;enable-background:new"
     d="M 3.494877,3.9689062 C 3.163883,3.964776 2.9413589,4.0427763 2.8272176,4.179746 2.7073693,4.3224223 2.6458333,4.5567236 2.6458333,4.8820288 v 3.2003213 c 0,0.3253052 0.061536,0.5595927 0.1813843,0.7022828 0.1141415,0.13697 0.3366392,0.2072224 0.6676594,0.2072224 H 4.2808757 L 5.3175047,9.7235936 6.354134,8.9918553 h 2.8509889 c 0.3310196,0 0.5534922,-0.070258 0.6676593,-0.2072224 C 9.9926303,8.6419568 10.054167,8.4076553 10.054167,8.0823501 V 4.8820288 c 0,-0.3253052 -0.06154,-0.5590763 -0.1813848,-0.7017661 C 9.7586463,4.0432932 9.5366606,3.9689062 9.2056396,3.9689062 H 4.9976277 Z"
     sodipodi:nodetypes="cccccscccsccccscc" />
  <path
     d="m 2.6458697,5.5489448 v 2.2688285 c 0,0.3253053 0.061381,0.5593552 0.181229,0.7020452 0.1141413,0.13697 0.3365765,0.207185 0.6675967,0.207185 h 0.7861303 l 1.036717,0.73189 1.036822,-0.73189 h 2.8508864 c 0.33102,0 0.553429,-0.07022 0.667596,-0.207185 0.119848,-0.142676 0.1812299,-0.3767399 0.1812299,-0.7020452 V 5.5489448 Z"
     style="fill:url(#linearGradient3189);fill-opacity:1;stroke-width:0.0700042;enable-background:new"
     id="path1132"
     sodipodi:nodetypes="cscscccscscc" />
  <path
     id="rect973"
     style="opacity:0.1;fill:#ffffff;stroke-width:0.264583;stroke-linecap:round;stroke-linejoin:round"
     d="M 12.297991,4.2404771 2.3936854,11.644676 c 0.5487896,0.09839 1.2435777,0.129191 2.1223511,0.129191 h 3.6679933 c 3.6040552,0 4.1191292,-0.513799 4.1191292,-4.1144771 V 4.7758448 c 0,-0.1872879 -0.002,-0.3644209 -0.0052,-0.5353677 z" />
  <path
     d="M 3.4946487,3.7043226 C 3.1636546,3.7001926 2.9412458,3.7782946 2.8271046,3.9152643 2.7072563,4.0579406 2.6458333,4.2920307 2.6458333,4.6173359 V 7.7037005 L 4.2807727,8.727056 5.3175427,9.4588935 6.3543127,8.727056 10.054245,5.91771 V 4.6173624 c 0,-0.3253052 -0.06142,-0.5593821 -0.1812653,-0.7020719 C 9.7588437,3.778321 9.5364567,3.7043488 9.2054357,3.7043488 h -4.207668 z"
     style="fill:url(#linearGradient2094);fill-opacity:1;stroke-width:0.0700042;enable-background:new"
     id="path871"
     sodipodi:nodetypes="ccscccccscscc" />
  <path
     id="rect1565"
     style="fill:url(#linearGradient1873);fill-opacity:1;stroke-width:0.264583"
     d="m 4.5568277,0.79374997 c -3.5239635,0 -4.02766104,0.50133123 -4.02766104,4.01629243 v 2.8153318 c 0,3.5149478 0.50369754,4.0162928 4.02766104,4.0162928 h 3.5863445 c 3.5239638,0 4.0276608,-0.501345 4.0276608,-4.0162928 V 4.8100424 c 0,-3.5149612 -0.503697,-4.01629243 -4.0276608,-4.01629243 z m 0.081649,0.26458343 h 3.4230468 c 3.3637835,0 3.8447265,0.4769388 3.8447265,3.8204385 v 2.6778728 c 0,3.3434873 -0.480943,3.8204393 -3.8447265,3.8204393 h -3.423047 c -3.3637834,0 -3.84472651,-0.476952 -3.84472651,-3.8204393 V 4.8787719 c 0,-3.3434997 0.48094311,-3.8204385 3.84472671,-3.8204385 z" />
  <path
     id="rect1370"
     style="opacity:0.4;fill:#000000;fill-opacity:1;stroke-width:0.264583"
     d="m 4.4751788,0.52916667 c -3.68414336,0 -4.21059547,0.52624033 -4.21059547,4.21266273 v 2.9517578 c 0,3.6864088 0.52645211,4.2126628 4.21059547,4.2126628 H 8.224821 c 3.684144,0 4.210596,-0.526254 4.210596,-4.2126628 V 4.7418294 c 0,-3.6864224 -0.526452,-4.21266273 -4.210596,-4.21266273 z m 0.081649,0.2645833 h 3.5863445 c 3.5239637,0 4.0276607,0.50133143 4.0276607,4.01629243 v 2.8153318 c 0,3.5149478 -0.503697,4.0162928 -4.0276607,4.0162928 H 4.5568277 c -3.5239637,0 -4.02766104,-0.501345 -4.02766104,-4.0162928 V 4.8100424 c 0,-3.514961 0.50369724,-4.01629243 4.02766114,-4.01629243 z" />
  <path
     id="path42"
     style="fill:#8de745;fill-opacity:1;stroke-width:0.264583"
     d="M 5.2916667,5.2916669 5.2477416,5.5562502 H 7.6398437 L 7.7059895,5.2916669 Z M 5.0710084,6.6145835 5.0270833,6.8791669 h 2.3812503 l 0.066146,-0.2645834 z"
     sodipodi:nodetypes="cccccccccc" />
  <path
     id="path42-6"
     d="M 7.2760419,4.4979167 H 7.0114585 L 6.4822918,7.6729166 h 0.2645834 z m -1.0583337,0 h -0.264583 l -0.5291672,3.175 h 0.264584 z"
     style="fill:#8de745;fill-opacity:1;stroke-width:0.264583"
     sodipodi:nodetypes="cccccccccc" />
</svg>
