<?xml version="1.0" encoding="UTF-8" standalone="no"?>
<!-- Created with Inkscape (http://www.inkscape.org/) -->

<svg
   width="48"
   height="48"
   viewBox="0 0 12.7 12.7"
   version="1.1"
   id="svg5"
   inkscape:version="1.1.2 (0a00cf5339, 2022-02-04)"
   sodipodi:docname="preferences-desktop-font-installer.svg"
   xmlns:inkscape="http://www.inkscape.org/namespaces/inkscape"
   xmlns:sodipodi="http://sodipodi.sourceforge.net/DTD/sodipodi-0.dtd"
   xmlns:xlink="http://www.w3.org/1999/xlink"
   xmlns="http://www.w3.org/2000/svg"
   xmlns:svg="http://www.w3.org/2000/svg">
  <sodipodi:namedview
     id="namedview7"
     pagecolor="#ffffff"
     bordercolor="#666666"
     borderopacity="1.0"
     inkscape:pageshadow="2"
     inkscape:pageopacity="0.0"
     inkscape:pagecheckerboard="0"
     inkscape:document-units="px"
     showgrid="false"
     units="px"
     inkscape:zoom="16.5"
     inkscape:cx="23.969697"
     inkscape:cy="24"
     inkscape:window-width="1920"
     inkscape:window-height="1010"
     inkscape:window-x="0"
     inkscape:window-y="0"
     inkscape:window-maximized="1"
     inkscape:current-layer="svg5"
     showguides="true" />
  <defs
     id="defs2">
    <linearGradient
       inkscape:collect="always"
       id="linearGradient2011">
      <stop
         style="stop-color:#f1e2a7;stop-opacity:1;"
         offset="0"
         id="stop2007" />
      <stop
         style="stop-color:#f9f1d2;stop-opacity:1"
         offset="1"
         id="stop2009" />
    </linearGradient>
    <linearGradient
       inkscape:collect="always"
       id="linearGradient3598">
      <stop
         style="stop-color:#ea9d60;stop-opacity:1"
         offset="0"
         id="stop3594" />
      <stop
         style="stop-color:#efbe94;stop-opacity:1"
         offset="1"
         id="stop3596" />
    </linearGradient>
    <linearGradient
       inkscape:collect="always"
       xlink:href="#linearGradient3598"
       id="linearGradient3600"
       x1="4.4751787"
       y1="-1.5875"
       x2="10.444443"
       y2="14.20743"
       gradientUnits="userSpaceOnUse" />
    <linearGradient
       inkscape:collect="always"
       xlink:href="#linearGradient1871"
       id="linearGradient1873"
       x1="17.222656"
       y1="3.5"
       x2="17.222656"
       y2="44.466438"
       gradientUnits="userSpaceOnUse"
       gradientTransform="matrix(0.26458333,0,0,0.26458333,0,-0.13229163)" />
    <linearGradient
       inkscape:collect="always"
       id="linearGradient1871">
      <stop
         style="stop-color:#ffffff;stop-opacity:1;"
         offset="0"
         id="stop1867" />
      <stop
         style="stop-color:#ffffff;stop-opacity:0.1"
         offset="0.12"
         id="stop2515" />
      <stop
         style="stop-color:#ffffff;stop-opacity:0.102"
         offset="0.89999998"
         id="stop2581" />
      <stop
         style="stop-color:#ffffff;stop-opacity:0.502"
         offset="1"
         id="stop1869" />
    </linearGradient>
    <linearGradient
       inkscape:collect="always"
       xlink:href="#linearGradient2011"
       id="linearGradient2013"
       x1="6.8791666"
       y1="0.66145831"
       x2="6.8791666"
       y2="14.948958"
       gradientUnits="userSpaceOnUse"
       gradientTransform="matrix(1.5000002,0,0,1,-3.1750007,0)" />
  </defs>
  <path
     id="rect3143"
     style="opacity:0.1;fill:#000000;fill-opacity:1;stroke-width:0.264583"
     d="m 4.5160033,1.0583333 c -3.6040539,0 -4.1191283,0.5137856 -4.1191283,4.1144776 v 2.8835446 c 0,3.6006805 0.5150744,4.1144805 4.1191283,4.1144805 h 3.6679933 c 3.6040544,0 4.1191284,-0.5138 4.1191284,-4.1144805 V 5.1728109 c 0,-3.600692 -0.515074,-4.1144776 -4.1191284,-4.1144776 z" />
  <path
     style="display:inline;fill:url(#linearGradient3600);fill-opacity:1;stroke:none;stroke-width:0.0992187;stroke-linecap:round;stroke-linejoin:round;stroke-miterlimit:4;stroke-dasharray:none;stroke-dashoffset:0;stroke-opacity:1;enable-background:new"
     d="m 8.1839953,0.66145835 c 3.6040547,0 4.1191297,0.51378555 4.1191297,4.11447755 v 2.883545 c 0,3.6006771 -0.515075,4.1144771 -4.1191297,4.1144771 H 4.5160029 c -3.60405369,0 -4.1191279,-0.5138 -4.1191279,-4.1144771 v -2.883545 c 0,-3.600692 0.51507421,-4.11447755 4.1191279,-4.11447755 z"
     id="rect877"
     inkscape:connector-curvature="0"
     sodipodi:nodetypes="sssssssss" />
  <path
     id="rect1497"
     style="opacity:0.1;fill:#ffffff;stroke-width:0.999999;stroke-linecap:round;stroke-linejoin:round"
     d="M 24.5 2.5 L 24.5 44.5 L 30.931641 44.5 C 44.553265 44.5 46.5 42.558077 46.5 28.949219 L 46.5 18.050781 C 46.5 4.4418666 44.553265 2.5 30.931641 2.5 L 24.5 2.5 z "
     transform="scale(0.26458333)" />
  <rect
     style="opacity:0.6;fill:url(#linearGradient2013);fill-opacity:1;stroke-width:0.286207;stroke-linecap:round;stroke-linejoin:round"
     id="rect1683"
     width="1.5875"
     height="11.1125"
     x="5.5562501"
     y="0.66145831" />
  <path
     d="m 4.9051844,2.6458334 c -0.2055468,0 -0.3822964,0.014314 -0.5302779,0.043103 -0.143883,0.028776 -0.25078,0.0596 -0.320675,0.092485 l 0.055475,0.3514989 c 0.053443,-0.020558 0.137713,-0.047228 0.2528226,-0.080118 0.1151046,-0.032885 0.2898775,-0.049384 0.5241925,-0.049384 0.1644359,0 0.2959365,0.02676 0.3945996,0.080216 0.1027748,0.049332 0.1809221,0.1172024 0.2343627,0.2035331 0.057555,0.082217 0.094506,0.1767628 0.1109477,0.2836598 0.016431,0.1027721 0.024633,0.2095685 0.024633,0.3205692 v 0.1973445 c -0.016457,-0.00823 -0.047268,-0.016404 -0.09249,-0.024633 -0.041108,-0.01233 -0.092483,-0.022622 -0.1541462,-0.030827 -0.057552,-0.01233 -0.1192001,-0.020532 -0.1849782,-0.024633 -0.061661,-0.00823 -0.1212347,-0.012356 -0.1787895,-0.012356 -0.1932146,0 -0.3720306,0.018494 -0.5364692,0.055473 -0.1644359,0.036999 -0.3063081,0.096671 -0.4255294,0.1788902 -0.1192186,0.078108 -0.2116904,0.1787816 -0.2774685,0.302101 -0.065775,0.123331 -0.098674,0.27133 -0.098674,0.443971 0,0.18088 0.028747,0.335095 0.086302,0.462544 0.061664,0.123328 0.1438619,0.226077 0.2466366,0.308293 0.1068838,0.07811 0.2302775,0.135604 0.3700463,0.172604 0.1438804,0.037 0.3000904,0.05557 0.46863,0.05557 0.1315482,0 0.2589953,-0.0062 0.3823229,-0.01857 0.1274389,-0.0082 0.2425353,-0.02058 0.3453074,-0.03702 0.1027719,-0.01643 0.1931694,-0.03077 0.2712771,-0.0431 0.078108,-0.01643 0.1377817,-0.03087 0.1788901,-0.0432 V 3.8236532 C 6.052132,3.6551033 6.031574,3.4987977 5.990473,3.3549173 5.9493626,3.2110337 5.883566,3.0877405 5.7931261,2.9849764 5.7026862,2.8780926 5.5834385,2.7958945 5.4354359,2.7383423 5.2915555,2.6766759 5.1148138,2.6458519 4.905158,2.6458519 Z m 2.2845184,1.6074494 v 4.3629793 h 0.4678364 l 0.145899,-0.188312 c 0.291677,0.170143 0.583353,0.249089 0.881089,0.249089 0.875029,0 1.3914438,-0.65016 1.3914438,-1.537361 0,-0.887174 -0.3584848,-1.513099 -1.2578298,-1.513099 -0.346366,0 -0.631957,0.08516 -0.881088,0.212762 V 4.2532963 Z m -2.1611961,0.088265 c 0.1726592,0 0.3082925,0.012356 0.4069821,0.037013 0.098661,0.020558 0.1705875,0.041106 0.2158048,0.061661 v 1.1223363 c -0.082219,0.01643 -0.1828906,0.03077 -0.3021013,0.0431 -0.1151096,0.0082 -0.2507536,0.01236 -0.4069821,0.01236 -0.1274392,0 -0.2425356,-0.01027 -0.3453077,-0.03083 -0.09866,-0.02466 -0.1850099,-0.06171 -0.2590059,-0.11104 -0.069884,-0.04933 -0.1254072,-0.115033 -0.1665182,-0.197253 -0.036997,-0.08222 -0.055475,-0.182988 -0.055475,-0.302207 0,-0.135662 0.028752,-0.244633 0.086304,-0.326866 0.057555,-0.08222 0.1315509,-0.145843 0.2219907,-0.1910635 0.090442,-0.049332 0.1891374,-0.080253 0.2960159,-0.092586 0.1068837,-0.016431 0.2096293,-0.024633 0.3082925,-0.024633 z m 3.6073295,1.8926703 c 0.522579,0 0.692784,0.376767 0.692784,0.947949 0,0.571183 -0.26736,0.905431 -0.765624,0.905431 -0.24306,0 -0.449686,-0.06073 -0.625925,-0.200491 v -1.488757 c 0.145838,-0.06077 0.431403,-0.164164 0.698765,-0.164164 z m -3.5935711,0.830236 c -0.310515,0 -0.5962915,0.04865 -0.8573294,0.145902 -0.2610379,0.09725 -0.4862247,0.237175 -0.675587,0.419735 -0.1876743,0.182552 -0.3344863,0.40603 -0.4402667,0.670481 -0.1057778,0.264445 -0.1586653,0.563033 -0.1586653,0.89572 0,0.208148 0.032467,0.397484 0.097301,0.568087 0.064831,0.170611 0.1603428,0.3164679 0.2865966,0.4375939 0.1262513,0.121137 0.2823634,0.215052 0.468339,0.281596 0.1859677,0.06654 0.4010025,0.09975 0.6449748,0.09975 0.1143079,0 0.2294887,-0.0068 0.3454929,-0.0204 0.1160145,-0.01193 0.2285577,-0.02823 0.3377406,-0.0487 0.1091936,-0.02217 0.2124207,-0.04693 0.3096683,-0.07422 0.098954,-0.0273 0.1885392,-0.05543 0.2687373,-0.08444 L 5.8253788,9.5494821 H 5.6590564 L 5.4747662,10.063859 c -0.052888,0.04095 -0.1160304,0.08019 -0.189394,0.117721 -0.073361,0.03583 -0.1543818,0.0682 -0.2430992,0.0972 -0.087013,0.029 -0.1808295,0.05206 -0.2814902,0.06912 -0.1006607,0.01707 -0.2038879,0.02564 -0.3096683,0.02564 -0.1825573,0 -0.3386667,-0.02815 -0.468339,-0.08444 C 3.8531085,10.2328 3.746492,10.15517 3.6628943,10.056216 3.5792963,9.9555524 3.5178444,9.8360431 3.4786067,9.6978381 c -0.037536,-0.138198 -0.056356,-0.28829 -0.056356,-0.450374 0,-0.300276 0.040182,-0.572426 0.1203722,-0.816398 0.080185,-0.243978 0.1910344,-0.452121 0.3326341,-0.624444 0.1433142,-0.17232 0.313055,-0.304535 0.50927,-0.396663 0.196207,-0.09384 0.4103687,-0.140795 0.6424083,-0.140795 0.1637877,0 0.3207544,0.02053 0.470879,0.06146 0.1501404,0.03924 0.2780241,0.09551 0.3838045,0.168875 v 0.445347 h 0.166423 l 0.1151651,-0.749935 c -0.1518443,-0.03412 -0.3182143,-0.06395 -0.499057,-0.08954 -0.180848,-0.0273 -0.3881438,-0.04094 -0.6218767,-0.04094 z"
     style="fill:#000000;stroke-width:0.0700042;enable-background:new;opacity:0.1"
     id="path1172" />
  <path
     d="m 4.9051845,2.38125 c -0.2055468,0 -0.3822964,0.014314 -0.5302779,0.043103 -0.143883,0.028776 -0.25078,0.0596 -0.320675,0.092485 l 0.055475,0.3514989 c 0.053443,-0.020558 0.137713,-0.047228 0.2528226,-0.080118 0.1151044,-0.032885 0.2898775,-0.049384 0.5241925,-0.049384 0.1644359,0 0.2959365,0.02676 0.3945996,0.080216 0.1027747,0.049332 0.1809221,0.1172025 0.2343626,0.2035333 0.057555,0.082217 0.094506,0.1767628 0.1109477,0.2836598 0.016431,0.1027721 0.024633,0.2095685 0.024633,0.3205692 v 0.1973445 c -0.016457,-0.00823 -0.047268,-0.016404 -0.09249,-0.024633 -0.041108,-0.01233 -0.092483,-0.022622 -0.1541463,-0.030827 -0.057552,-0.01233 -0.1192001,-0.020532 -0.1849781,-0.024633 -0.061661,-0.00823 -0.1212348,-0.012356 -0.1787896,-0.012356 -0.1932146,0 -0.3720306,0.018494 -0.5364691,0.055473 -0.1644359,0.036999 -0.3063082,0.096671 -0.4255294,0.1788901 -0.1192186,0.078108 -0.2116905,0.1787816 -0.2774685,0.3021012 -0.065775,0.1233303 -0.098674,0.2713301 -0.098674,0.4439711 0,0.180879 0.028747,0.335095 0.086302,0.462544 0.061664,0.123328 0.1438619,0.226076 0.2466367,0.308293 0.1068837,0.07811 0.2302774,0.135604 0.3700462,0.172603 0.1438804,0.037 0.3000904,0.05557 0.46863,0.05557 0.1315482,0 0.2589954,-0.0062 0.3823229,-0.01857 0.1274392,-0.0082 0.2425356,-0.02059 0.3453077,-0.03702 0.1027717,-0.01643 0.1931693,-0.03077 0.2712769,-0.0431 0.078108,-0.01643 0.1377818,-0.03087 0.1788901,-0.0432 V 3.559069 c 0,-0.1685501 -0.020558,-0.3248554 -0.061659,-0.4687358 C 5.9493627,2.9464503 5.8835661,2.8231571 5.7931262,2.7203929 5.7026863,2.6135092 5.5834386,2.5313111 5.435436,2.4737589 5.2915556,2.4120925 5.1148139,2.3812685 4.9051581,2.3812685 Z m 2.2845183,1.6074494 v 4.3629787 h 0.4678364 l 0.145899,-0.188311 c 0.291677,0.170142 0.583353,0.249089 0.881089,0.249089 0.87503,0 1.3914438,-0.650161 1.3914438,-1.537362 0,-0.887174 -0.3584838,-1.513099 -1.2578288,-1.513099 -0.346366,0 -0.631958,0.08516 -0.881089,0.212762 V 3.9887127 Z m -2.161196,0.088265 c 0.1726592,0 0.3082925,0.012356 0.4069821,0.037013 0.098661,0.020558 0.1705875,0.041106 0.2158048,0.061661 v 1.1223357 c -0.082219,0.01643 -0.1828906,0.03077 -0.3021013,0.0431 -0.1151096,0.0082 -0.2507535,0.01236 -0.4069821,0.01236 -0.1274392,0 -0.2425356,-0.01027 -0.3453077,-0.03083 -0.09866,-0.02466 -0.1850099,-0.06171 -0.2590059,-0.11104 -0.069884,-0.04933 -0.1254072,-0.115033 -0.1665181,-0.197252 -0.036997,-0.08222 -0.055475,-0.182988 -0.055475,-0.302207 0,-0.135662 0.028752,-0.2446338 0.086304,-0.3268663 0.057555,-0.082217 0.1315508,-0.1458436 0.2219907,-0.1910636 0.090442,-0.049332 0.1891374,-0.080253 0.2960158,-0.092586 0.1068838,-0.016431 0.2096294,-0.024633 0.3082925,-0.024633 z m 3.6073294,1.8926707 c 0.522579,0 0.692785,0.376766 0.692785,0.947949 0,0.571182 -0.267361,0.905431 -0.765625,0.905431 -0.243059,0 -0.449686,-0.06073 -0.625925,-0.200491 v -1.488758 c 0.145839,-0.06077 0.431403,-0.164163 0.698765,-0.164163 z m -3.593571,0.830236 c -0.310515,0 -0.5962915,0.04865 -0.8573294,0.145902 -0.2610379,0.09725 -0.4862248,0.237175 -0.6755871,0.419735 -0.1876742,0.182552 -0.3344862,0.406029 -0.4402666,0.67048 -0.1057778,0.264446 -0.1586654,0.563034 -0.1586654,0.895721 0,0.208147 0.032467,0.397483 0.097301,0.568086 0.064831,0.170612 0.1603427,0.316469 0.2865966,0.437595 0.1262512,0.1211369 0.2823633,0.2150509 0.468339,0.2815959 0.1859677,0.06654 0.4010025,0.09975 0.6449748,0.09975 0.1143079,0 0.2294889,-0.0068 0.3454929,-0.0204 0.1160145,-0.01193 0.2285576,-0.02823 0.3377406,-0.0487 0.1091935,-0.02217 0.2124207,-0.04693 0.3096683,-0.07422 0.098954,-0.0273 0.1885394,-0.05543 0.2687373,-0.08444 L 5.8253789,9.2848981 H 5.6590565 l -0.1842902,0.514377 c -0.052888,0.04095 -0.1160304,0.08019 -0.189394,0.117721 -0.073361,0.03583 -0.1543818,0.0682 -0.2430992,0.0972 -0.087013,0.029 -0.1808295,0.05206 -0.2814902,0.06912 -0.1006607,0.01707 -0.2038879,0.02564 -0.3096683,0.02564 -0.1825572,0 -0.3386667,-0.02815 -0.468339,-0.08444 -0.129667,-0.0563 -0.2362835,-0.1339365 -0.3198812,-0.2328905 -0.083598,-0.100663 -0.1450499,-0.220173 -0.1842876,-0.358378 -0.037536,-0.138197 -0.056356,-0.28829 -0.056356,-0.450374 0,-0.300276 0.040182,-0.572426 0.1203722,-0.816398 0.080185,-0.243978 0.1910345,-0.45212 0.3326342,-0.624443 0.1433142,-0.172321 0.313055,-0.304536 0.50927,-0.396664 0.196207,-0.09384 0.4103687,-0.140795 0.6424083,-0.140795 0.1637877,0 0.3207544,0.02053 0.470879,0.06146 0.1501404,0.03924 0.2780241,0.09551 0.3838045,0.168875 v 0.445347 h 0.166423 l 0.1151651,-0.749935 c -0.1518443,-0.03412 -0.3182143,-0.06395 -0.499057,-0.08954 -0.180848,-0.0273 -0.3881438,-0.04094 -0.6218767,-0.04094 z"
     style="fill:#333333;stroke-width:0.264583;enable-background:new;fill-opacity:1"
     id="path872"
     sodipodi:nodetypes="cccccscccsccccscccscccsccccscccccccccsssccccccccscccsccccccsscccccccssccssccccccccccscccscccscccccccc" />
  <path
     id="rect1565"
     style="fill:url(#linearGradient1873);fill-opacity:1;stroke-width:0.264583;opacity:0.3"
     d="m 4.5568277,0.79375 c -3.5239635,0 -4.02766103,0.5013312 -4.02766103,4.0162924 v 2.8153318 c 0,3.5149478 0.50369753,4.0162928 4.02766103,4.0162928 h 3.5863445 c 3.5239638,0 4.0276608,-0.501345 4.0276608,-4.0162928 V 4.8100424 c 0,-3.5149612 -0.503697,-4.0162924 -4.0276608,-4.0162924 z m 0.081649,0.2645834 h 3.4230468 c 3.3637835,0 3.8447265,0.4769388 3.8447265,3.8204385 v 2.6778728 c 0,3.3434873 -0.480943,3.8204393 -3.8447265,3.8204393 H 4.6384765 C 1.2746931,11.377084 0.79375,10.900132 0.79375,7.5566447 V 4.8787719 c 0,-3.3434997 0.4809431,-3.8204385 3.8447267,-3.8204385 z" />
  <path
     id="rect1370"
     style="opacity:0.4;fill:#000000;fill-opacity:1;stroke-width:0.264583"
     d="m 4.4751788,0.52916667 c -3.68414314,0 -4.21059547,0.52624033 -4.21059547,4.21266263 v 2.9517578 c 0,3.6864079 0.52645233,4.2126629 4.21059547,4.2126629 H 8.224821 c 3.684144,0 4.210596,-0.526255 4.210596,-4.2126629 V 4.7418293 c 0,-3.6864223 -0.526452,-4.21266263 -4.210596,-4.21266263 z M 4.5568278,0.79375 h 3.5863445 c 3.5239637,0 4.0276607,0.5013312 4.0276607,4.0162924 v 2.8153317 c 0,3.5149469 -0.503697,4.0162919 -4.0276607,4.0162919 H 4.5568277 c -3.5239638,0 -4.02766104,-0.501345 -4.02766104,-4.0162919 V 4.8100424 c 0,-3.5149612 0.50369724,-4.0162924 4.02766114,-4.0162924 z" />
</svg>
