<?xml version="1.0" encoding="UTF-8" standalone="no"?>
<!-- Created with Inkscape (http://www.inkscape.org/) -->

<svg
   width="48"
   height="48"
   viewBox="0 0 12.7 12.7"
   version="1.1"
   id="svg5"
   inkscape:version="1.1.2 (0a00cf5339, 2022-02-04)"
   sodipodi:docname="preferences-desktop-mouse.svg"
   xmlns:inkscape="http://www.inkscape.org/namespaces/inkscape"
   xmlns:sodipodi="http://sodipodi.sourceforge.net/DTD/sodipodi-0.dtd"
   xmlns:xlink="http://www.w3.org/1999/xlink"
   xmlns="http://www.w3.org/2000/svg"
   xmlns:svg="http://www.w3.org/2000/svg">
  <sodipodi:namedview
     id="namedview7"
     pagecolor="#ffffff"
     bordercolor="#666666"
     borderopacity="1.0"
     inkscape:pageshadow="2"
     inkscape:pageopacity="0.0"
     inkscape:pagecheckerboard="0"
     inkscape:document-units="px"
     showgrid="false"
     units="px"
     inkscape:zoom="12.551145"
     inkscape:cx="22.348558"
     inkscape:cy="33.144385"
     inkscape:window-width="1851"
     inkscape:window-height="1053"
     inkscape:window-x="0"
     inkscape:window-y="0"
     inkscape:window-maximized="1"
     inkscape:current-layer="svg5"
     showguides="false" />
  <defs
     id="defs2">
    <linearGradient
       inkscape:collect="always"
       id="linearGradient4248">
      <stop
         style="stop-color:#cdcdcd;stop-opacity:0"
         offset="0"
         id="stop4244" />
      <stop
         style="stop-color:#ffffff;stop-opacity:1"
         offset="1"
         id="stop4246" />
    </linearGradient>
    <linearGradient
       inkscape:collect="always"
       id="linearGradient2799">
      <stop
         style="stop-color:#cdcdcd;stop-opacity:1;"
         offset="0"
         id="stop2795" />
      <stop
         style="stop-color:#cdcdcd;stop-opacity:1"
         offset="0.50536346"
         id="stop3635" />
      <stop
         style="stop-color:#e6e6e6;stop-opacity:1"
         offset="1"
         id="stop2797" />
    </linearGradient>
    <linearGradient
       inkscape:collect="always"
       xlink:href="#linearGradient1871"
       id="linearGradient1873"
       x1="17.222656"
       y1="3.5"
       x2="17.222656"
       y2="44.466438"
       gradientUnits="userSpaceOnUse"
       gradientTransform="matrix(0.26458333,0,0,0.26458333,0,-0.13229163)" />
    <linearGradient
       inkscape:collect="always"
       id="linearGradient1871">
      <stop
         style="stop-color:#ffffff;stop-opacity:1;"
         offset="0"
         id="stop1867" />
      <stop
         style="stop-color:#ffffff;stop-opacity:0.1"
         offset="0.12"
         id="stop2515" />
      <stop
         style="stop-color:#ffffff;stop-opacity:0.102"
         offset="0.89999998"
         id="stop2581" />
      <stop
         style="stop-color:#ffffff;stop-opacity:0.502"
         offset="1"
         id="stop1869" />
    </linearGradient>
    <radialGradient
       inkscape:collect="always"
       xlink:href="#linearGradient2799"
       id="radialGradient2801"
       cx="6.2918267"
       cy="7.5567431"
       fx="6.2918267"
       fy="7.5567431"
       r="2.7781249"
       gradientTransform="matrix(1.7619053,-3.619237e-8,3.1086917e-8,1.857143,-4.7350336,-5.5664181)"
       gradientUnits="userSpaceOnUse" />
    <radialGradient
       inkscape:collect="always"
       xlink:href="#linearGradient4248"
       id="radialGradient4410"
       cx="6.2918267"
       cy="7.1982756"
       fx="6.2918267"
       fy="7.1982756"
       r="2.778125"
       gradientTransform="matrix(1.5714286,0,0,1.4761905,-3.536587,-2.6876586)"
       gradientUnits="userSpaceOnUse" />
    <linearGradient
       inkscape:collect="always"
       xlink:href="#linearGradient1871"
       id="linearGradient5422"
       x1="23.673721"
       y1="9.0039377"
       x2="23.673721"
       y2="39.003937"
       gradientUnits="userSpaceOnUse"
       gradientTransform="matrix(0.26458333,0,0,0.26458333,0.05874253,0)" />
  </defs>
  <path
     id="rect3143"
     style="opacity:0.1;fill:#000000;fill-opacity:1;stroke-width:0.264583"
     d="m 4.5160033,1.0583333 c -3.6040539,0 -4.1191283,0.5137856 -4.1191283,4.1144776 v 2.8835446 c 0,3.6006805 0.5150744,4.1144805 4.1191283,4.1144805 h 3.6679933 c 3.6040544,0 4.1191284,-0.5138 4.1191284,-4.1144805 V 5.1728109 c 0,-3.600692 -0.515074,-4.1144776 -4.1191284,-4.1144776 z" />
  <path
     style="display:inline;fill:#4d4d4d;fill-opacity:1;stroke:none;stroke-width:0.0992187;stroke-linecap:round;stroke-linejoin:round;stroke-miterlimit:4;stroke-dasharray:none;stroke-dashoffset:0;stroke-opacity:1;enable-background:new"
     d="m 8.1839953,0.66145835 c 3.6040547,0 4.1191297,0.51378555 4.1191297,4.11447755 v 2.883545 c 0,3.6006771 -0.515075,4.1144771 -4.1191297,4.1144771 H 4.5160029 c -3.60405369,0 -4.1191279,-0.5138 -4.1191279,-4.1144771 v -2.883545 c 0,-3.600692 0.51507421,-4.11447755 4.1191279,-4.11447755 z"
     id="rect877"
     inkscape:connector-curvature="0"
     sodipodi:nodetypes="sssssssss" />
  <g
     id="g5930">
    <path
       style="color:#000000;opacity:0.1;fill:#000000;stroke:none;stroke-width:0.264583;-inkscape-stroke:none"
       d="m 6.3224272,2.2498253 c -0.6612775,0 -1.293747,0.1364289 -1.914885,0.3785925 l -0.087798,0.034126 -0.5567191,2.9743556 c -0.094886,0.5065434 -0.1890306,1.0281749 -0.1905628,1.56555 -0.00152,0.5377575 0.091319,1.0838143 0.3132712,1.5772714 0.2220983,0.4937839 0.5702562,0.9229567 1.0046872,1.2189541 0.4343135,0.2959071 0.9462626,0.4532341 1.4606363,0.4532341 0.514374,0 1.026323,-0.157336 1.4606364,-0.4532341 C 8.2461243,9.7026961 8.5932887,9.2735233 8.8153871,8.779721 9.0373508,8.2862639 9.1302077,7.7402071 9.1286752,7.2024496 9.127158,6.6650745 9.0340071,6.143443 8.9391061,5.6368998 L 8.3813938,2.6625442 8.2935949,2.6284178 C 7.6723895,2.3862395 6.9837518,2.2498253 6.3224742,2.2498253 Z"
       id="path2124"
       sodipodi:nodetypes="sccccscsscccccss" />
    <path
       id="path2574"
       style="color:#000000;opacity:1;fill:url(#radialGradient2801);fill-opacity:1;stroke:none;stroke-width:0.0700042;-inkscape-stroke:none"
       d="m 6.3224427,2.3822835 c -0.6430814,0 -1.258581,0.1317355 -1.8670693,0.3689699 L 4.4357363,2.7590046 3.8926169,5.66167 c -0.094775,0.5059529 -0.1860955,1.0188233 -0.1875854,1.540991 -0.00148,0.5222779 0.088121,1.050676 0.3007569,1.5234213 0.2126454,0.4727673 0.5466781,0.8832585 0.9591146,1.1642699 0.4123674,0.2809548 0.8995973,0.4294308 1.3869953,0.4294308 0.4873969,0 0.9720429,-0.148484 1.3844116,-0.4294308 C 8.1486654,9.6094133 8.4827185,9.199002 8.6954245,8.7260823 8.9080757,8.2533357 8.9976813,7.7249339 8.9961814,7.202661 8.9947063,6.6803325 8.903355,6.1674559 8.8085958,5.66167 L 8.2659933,2.7590046 8.2463562,2.7512534 C 7.6403143,2.5149864 6.9655263,2.3822835 6.3224427,2.3822835 Z" />
    <path
       style="color:#000000;opacity:0.4;fill:#000000;stroke:none;-inkscape-stroke:none"
       d="m 6.3224144,2.1166667 c -0.6794723,0 -1.3291039,0.1415769 -1.9628907,0.3886719 l -0.15625,0.060547 -0.5703124,3.046875 C 3.5379653,6.1198932 3.4411774,6.6500228 3.4396019,7.2026042 3.4380419,7.75584 3.5345059,8.3192955 3.7657738,8.8334636 3.9973246,9.3482629 4.3601302,9.7978714 4.816555,10.108854 c 0.4562587,0.310859 0.9938078,0.47461 1.5351562,0.47461 0.5413503,0 1.0788993,-0.163762 1.5351563,-0.47461 C 8.343373,9.797836 8.704205,9.3481473 8.935696,8.8334636 9.166975,8.3192968 9.263444,7.7558451 9.261867,7.2026042 9.260308,6.6501835 9.163551,6.1200598 9.068508,5.6127604 L 8.498196,2.5658854 8.341946,2.5053384 C 7.7055779,2.2572492 7.0018848,2.1166667 6.3224144,2.1166667 Z m 0,0.265625 c 0.6430834,0 1.3177862,0.1328738 1.9238276,0.3691406 l 0.01953,0.00781 0.542968,2.9023462 C 8.9035,6.1673745 8.994766,6.6802757 8.99624,7.2026042 8.99774,7.7248772 8.90811,8.2532952 8.695459,8.7260417 8.482755,9.1989615 8.1488325,9.6091653 7.7364769,9.8901042 7.324108,10.171051 6.839108,10.319792 6.3517112,10.319792 5.8643133,10.319792 5.3773599,10.171059 4.9649925,9.8901042 4.5525562,9.6090928 4.2186535,9.1988091 4.0060081,8.7260417 3.7933719,8.2532965 3.7037506,7.7248822 3.7052269,7.2026042 c 0.00149,-0.5221678 0.092725,-1.0350626 0.1875,-1.5410157 l 0.5429687,-2.9023437 0.019531,-0.00781 C 5.0637149,2.5142006 5.679333,2.3822917 6.3224144,2.3822917 Z"
       id="path2126-7" />
    <path
       id="path4075"
       style="color:#000000;opacity:0.5;fill:url(#radialGradient4410);fill-opacity:1;stroke:none;stroke-width:0.0185219;-inkscape-stroke:none"
       d="m 6.3224427,2.3822835 c -0.080385,0 -0.1602118,0.00213 -0.2397786,0.0062 -0.079567,0.00407 -0.1588839,0.01005 -0.2377114,0.018087 -0.078828,0.00804 -0.1574769,0.018073 -0.2356446,0.029972 -0.078168,0.011899 -0.1559898,0.025683 -0.2335776,0.041341 -0.1551752,0.031316 -0.309173,0.070028 -0.4625041,0.1157552 -0.076665,0.022864 -0.1531196,0.047586 -0.2294432,0.073897 -0.076324,0.026311 -0.1523489,0.054062 -0.2284098,0.083716 L 4.4357363,2.7590046 3.8926169,5.66167 c -0.047387,0.2529763 -0.093832,0.5075555 -0.1286743,0.7642942 -0.00871,0.064185 -0.016687,0.1283105 -0.023771,0.1927532 -1.86e-5,1.698e-4 1.87e-5,3.471e-4 0,5.167e-4 -3.215e-4,0.00293 -7.155e-4,0.00586 -0.00103,0.00879 -0.00666,0.061357 -0.012694,0.1228857 -0.01757,0.1844849 -0.00512,0.06471 -0.00906,0.1298345 -0.011886,0.1948201 -0.00282,0.064986 -0.00446,0.130066 -0.00465,0.1953369 -3.691e-4,0.1305695 0.00502,0.2613366 0.016536,0.3917074 0.011517,0.1303708 0.029343,0.2603661 0.053743,0.3886068 0.0244,0.1282406 0.055253,0.254609 0.093534,0.3787883 4.84e-5,1.572e-4 -4.87e-5,3.593e-4 0,5.167e-4 0.019101,0.061931 0.040305,0.1234083 0.063045,0.183968 0.022797,0.060712 0.047318,0.120741 0.073897,0.1798341 0.079742,0.1772878 0.1767618,0.3455858 0.2883543,0.5017781 8.2e-5,1.148e-4 -8.17e-5,4.021e-4 0,5.167e-4 0.037125,0.051947 0.075956,0.1023191 0.1162722,0.151412 8.55e-5,1.043e-4 -8.57e-5,4.125e-4 0,5.168e-4 0.040327,0.049092 0.082738,0.096649 0.1260904,0.1426271 0.043441,0.046072 0.088046,0.090641 0.1343588,0.1333251 0.092625,0.085368 0.1909297,0.1638414 0.2940389,0.2340941 0.1030917,0.070239 0.2106874,0.1320658 0.3219442,0.1855188 0.055628,0.02673 0.1122635,0.05146 0.1694987,0.0739 0.054996,0.02156 0.1106979,0.04034 0.1669148,0.05788 0.00229,7.14e-4 0.00443,0.0019 0.00672,0.0026 1.558e-4,4.9e-5 3.606e-4,-4.8e-5 5.167e-4,0 0.00172,5.31e-4 0.00345,0.001 0.00517,0.0016 0.054987,0.01683 0.1105064,0.03151 0.166398,0.04444 0.00175,4.05e-4 0.00342,0.0011 0.00517,0.0016 1.627e-4,3.7e-5 3.543e-4,-3.7e-5 5.17e-4,0 0.00154,3.53e-4 0.00311,6.83e-4 0.00465,10e-4 0.057894,0.01314 0.116596,0.02469 0.175183,0.03359 0.05945,0.009 0.1189127,0.01554 0.1788004,0.02015 8.739e-4,6.7e-5 0.00171,4.5e-4 0.00258,5.17e-4 1.701e-4,1.3e-5 3.466e-4,-1.3e-5 5.167e-4,0 3.429e-4,2.5e-5 6.908e-4,-2.6e-5 0.00103,0 0.060254,0.0045 0.1209751,0.0067 0.1813843,0.0067 0.060924,0 0.1217054,-0.0021 0.1824178,-0.0067 0.060713,-0.0046 0.1211582,-0.0115 0.1813843,-0.02067 0.060226,-0.0092 0.1203687,-0.02097 0.1798341,-0.03462 0.059465,-0.01365 0.1183031,-0.02947 0.1767332,-0.04754 0.05843,-0.01808 0.1159954,-0.03803 0.1731161,-0.06046 0.054186,-0.02128 0.1079462,-0.04513 0.1607137,-0.07028 0.00585,-0.0028 0.011742,-0.0054 0.01757,-0.0083 0.052262,-0.02541 0.1039069,-0.05249 0.1545124,-0.081649 2.037e-4,-1.175e-4 3.13e-4,-3.993e-4 5.167e-4,-5.167e-4 0.053679,-0.030955 0.106067,-0.063584 0.1576131,-0.098702 0.1030888,-0.070235 0.2014225,-0.1487411 0.2940389,-0.2340941 0.04613,-0.042512 0.091076,-0.086932 0.1343588,-0.1328084 7.515e-4,-7.969e-4 0.00132,-0.00179 0.00207,-0.00258 0.042811,-0.045485 0.084168,-0.092031 0.1240234,-0.1405599 0.040317,-0.04909 0.079144,-0.09998 0.1162719,-0.1519288 7.99e-5,-1.114e-4 -7.96e-5,-4.051e-4 0,-5.167e-4 0.0372,-0.052066 0.07314,-0.105005 0.1069703,-0.15968 0.03383,-0.054675 0.065825,-0.1109234 0.096118,-0.1679485 0.030293,-0.057025 0.058678,-0.1150348 0.085266,-0.1741496 0.026581,-0.059093 0.051098,-0.1191218 0.073897,-0.1798341 0.022742,-0.06056 0.043943,-0.1220369 0.063045,-0.183968 4.82e-5,-1.558e-4 -4.79e-5,-3.611e-4 0,-5.167e-4 0.019141,-0.06209 0.036585,-0.1243597 0.052193,-0.1875856 0.015608,-0.063226 0.029141,-0.1270823 0.041341,-0.1912027 0.0122,-0.064121 0.023123,-0.1284963 0.032039,-0.19327 0.00892,-0.064773 0.015946,-0.1301517 0.021704,-0.1953368 0.00576,-0.065185 0.010196,-0.1304983 0.012919,-0.1958536 0.00272,-0.065355 0.0038,-0.1305697 0.00362,-0.1958538 C 8.995997,7.13737 8.9943523,7.0723251 8.9915305,7.0073241 8.9887088,6.9423232 8.984767,6.877224 8.9796449,6.812504 8.9745229,6.747784 8.9681268,6.6831654 8.9610413,6.6187174 8.953956,6.5542694 8.9459817,6.4901492 8.9372703,6.4259642 8.9198472,6.2975944 8.8997471,6.1698973 8.8778423,6.0425253 8.8559377,5.9151532 8.8322858,5.7881165 8.8085958,5.66167 L 8.2659933,2.7590046 8.2463562,2.7512534 c -0.075755,-0.029534 -0.1527717,-0.057471 -0.2304767,-0.083716 -0.07755,-0.026192 -0.1560258,-0.050578 -0.2351278,-0.07338 -1.587e-4,-4.58e-5 -3.58e-4,4.57e-5 -5.167e-4,0 C 7.7009719,2.5713159 7.6214024,2.5499169 7.5409731,2.5305949 7.4605437,2.5112728 7.3792978,2.4940896 7.2980938,2.4784017 7.2168897,2.4627137 7.1357679,2.4484824 7.054181,2.4365438 6.9725941,2.424605 6.890813,2.4146457 6.8092348,2.4065714 6.7276566,2.3984971 6.6459829,2.3925794 6.5648053,2.3884847 c -0.081178,-0.00409 -0.1619771,-0.0062 -0.2423626,-0.0062 z" />
    <path
       id="path4778"
       style="color:#000000;opacity:0.4;fill:url(#linearGradient5422);fill-opacity:1;stroke:none;stroke-width:0.0700042;-inkscape-stroke:none"
       d="m 6.3224427,2.3822835 c -0.6430814,0 -1.2585813,0.1317354 -1.8670693,0.3689699 L 4.4357363,2.7590046 3.8926169,5.66167 c -0.094775,0.5059526 -0.1860955,1.0188233 -0.1875854,1.540991 -0.00148,0.5222779 0.088121,1.050676 0.3007569,1.5234213 0.2126454,0.4727673 0.5466781,0.8832585 0.9591146,1.1642699 0.4123674,0.2809548 0.8995973,0.4294308 1.3869953,0.4294308 0.4873969,0 0.9720429,-0.148484 1.3844116,-0.4294308 C 8.1486654,9.6094133 8.4827185,9.199002 8.6954245,8.7260823 8.9080757,8.2533357 8.9976813,7.7249339 8.9961814,7.202661 8.9947063,6.6803325 8.903356,6.1674557 8.8085958,5.66167 L 8.2659933,2.7590046 8.2463562,2.7512534 C 7.6403146,2.5149863 6.9655263,2.3822835 6.3224427,2.3822835 Z m 0.00258,0.2651 c 0.5788276,0 1.1861905,0.1236493 1.7316772,0.3441652 l 0.018087,0.00723 0.4883422,2.7088788 C 8.648425,6.1797289 8.7302643,6.6588271 8.7315981,7.1463338 8.732948,7.6337884 8.652217,8.1267222 8.4608134,8.5679522 8.2693609,9.0093442 7.9689705,9.3925003 7.5978172,9.6547076 7.2266515,9.9169253 6.7905954,10.055717 6.3518983,10.055717 5.9132003,10.055717 5.4745601,9.9169327 5.1033957,9.6547076 4.7321691,9.3924304 4.4312807,9.0092018 4.2398825,8.5679522 4.0484927,8.1267233 3.9677681,7.6337932 3.9690981,7.1463338 3.9704393,6.6589772 4.052775,6.1798879 4.1380801,5.707662 l 0.488859,-2.7088788 0.01757,-0.00723 C 5.1921983,2.7701298 5.7462006,2.6473838 6.3250267,2.6473835 Z" />
    <path
       style="color:#000000;fill:#b3b3b3;stroke-width:0.264583;-inkscape-stroke:none"
       d="M 6.2177083,2.3446615 V 5.5196614 H 6.4822916 V 2.3446615 Z"
       id="path38"
       sodipodi:nodetypes="ccccc" />
  </g>
  <path
     id="rect1565"
     style="fill:url(#linearGradient1873);fill-opacity:1;stroke-width:0.264583;opacity:0.5"
     d="m 4.5568277,0.79375 c -3.5239635,0 -4.02766103,0.5013312 -4.02766103,4.0162924 v 2.8153318 c 0,3.5149478 0.50369753,4.0162928 4.02766103,4.0162928 h 3.5863445 c 3.5239638,0 4.0276608,-0.501345 4.0276608,-4.0162928 V 4.8100424 c 0,-3.5149612 -0.503697,-4.0162924 -4.0276608,-4.0162924 z m 0.081649,0.2645834 h 3.4230468 c 3.3637835,0 3.8447265,0.4769388 3.8447265,3.8204385 v 2.6778728 c 0,3.3434873 -0.480943,3.8204393 -3.8447265,3.8204393 H 4.6384765 C 1.2746931,11.377084 0.79375,10.900132 0.79375,7.5566447 V 4.8787719 c 0,-3.3434997 0.4809431,-3.8204385 3.8447267,-3.8204385 z" />
  <path
     id="rect1370"
     style="opacity:0.4;fill:#000000;fill-opacity:1;stroke-width:0.264583"
     d="m 4.4751788,0.52916667 c -3.68414314,0 -4.21059547,0.52624033 -4.21059547,4.21266263 v 2.9517578 c 0,3.6864079 0.52645233,4.2126629 4.21059547,4.2126629 H 8.224821 c 3.684144,0 4.210596,-0.526255 4.210596,-4.2126629 V 4.7418293 c 0,-3.6864223 -0.526452,-4.21266263 -4.210596,-4.21266263 z M 4.5568278,0.79375 h 3.5863445 c 3.5239637,0 4.0276607,0.5013312 4.0276607,4.0162924 v 2.8153317 c 0,3.5149469 -0.503697,4.0162919 -4.0276607,4.0162919 H 4.5568277 c -3.5239638,0 -4.02766104,-0.501345 -4.02766104,-4.0162919 V 4.8100424 c 0,-3.5149612 0.50369724,-4.0162924 4.02766114,-4.0162924 z" />
</svg>
