<?xml version="1.0" encoding="UTF-8" standalone="no"?>
<!-- Created with Inkscape (http://www.inkscape.org/) -->

<svg
   width="48"
   height="48"
   viewBox="0 0 12.7 12.7"
   version="1.1"
   id="svg5"
   inkscape:version="1.1.2 (0a00cf5339, 2022-02-04)"
   sodipodi:docname="usb-creator.svg"
   xmlns:inkscape="http://www.inkscape.org/namespaces/inkscape"
   xmlns:sodipodi="http://sodipodi.sourceforge.net/DTD/sodipodi-0.dtd"
   xmlns:xlink="http://www.w3.org/1999/xlink"
   xmlns="http://www.w3.org/2000/svg"
   xmlns:svg="http://www.w3.org/2000/svg">
  <sodipodi:namedview
     id="namedview7"
     pagecolor="#ffffff"
     bordercolor="#666666"
     borderopacity="1.0"
     inkscape:pageshadow="2"
     inkscape:pageopacity="0.0"
     inkscape:pagecheckerboard="0"
     inkscape:document-units="px"
     showgrid="false"
     units="px"
     inkscape:zoom="8.875"
     inkscape:cx="14.366197"
     inkscape:cy="24.450704"
     inkscape:window-width="1851"
     inkscape:window-height="1053"
     inkscape:window-x="0"
     inkscape:window-y="0"
     inkscape:window-maximized="1"
     inkscape:current-layer="svg5"
     showguides="false" />
  <defs
     id="defs2">
    <linearGradient
       inkscape:collect="always"
       id="linearGradient6190">
      <stop
         style="stop-color:#808080;stop-opacity:1;"
         offset="0"
         id="stop6186" />
      <stop
         style="stop-color:#999999;stop-opacity:1"
         offset="1"
         id="stop6188" />
    </linearGradient>
    <linearGradient
       inkscape:collect="always"
       id="linearGradient5306">
      <stop
         style="stop-color:#999999;stop-opacity:1"
         offset="0"
         id="stop5302" />
      <stop
         style="stop-color:#dbdbdb;stop-opacity:1"
         offset="1"
         id="stop5304" />
    </linearGradient>
    <linearGradient
       inkscape:collect="always"
       id="linearGradient1871">
      <stop
         style="stop-color:#ffffff;stop-opacity:1;"
         offset="0"
         id="stop1867" />
      <stop
         style="stop-color:#ffffff;stop-opacity:0.1"
         offset="0.12"
         id="stop2515" />
      <stop
         style="stop-color:#ffffff;stop-opacity:0.102"
         offset="0.89999998"
         id="stop2581" />
      <stop
         style="stop-color:#ffffff;stop-opacity:0.502"
         offset="1"
         id="stop1869" />
    </linearGradient>
    <linearGradient
       inkscape:collect="always"
       xlink:href="#linearGradient1871"
       id="linearGradient1873"
       x1="17.222656"
       y1="3.5"
       x2="17.222656"
       y2="44.466438"
       gradientUnits="userSpaceOnUse"
       gradientTransform="matrix(0.26458333,0,0,0.26458333,0,-0.13229166)" />
    <linearGradient
       inkscape:collect="always"
       xlink:href="#linearGradient5306"
       id="linearGradient4248"
       x1="25"
       y1="-3.0000002"
       x2="25"
       y2="57"
       gradientUnits="userSpaceOnUse" />
    <linearGradient
       inkscape:collect="always"
       xlink:href="#linearGradient6190"
       id="linearGradient6192"
       x1="6.0854168"
       y1="1.3229296"
       x2="6.0854273"
       y2="9.2604294"
       gradientUnits="userSpaceOnUse"
       gradientTransform="matrix(0.71428368,0,0,0.71428368,1.8142949,1.5497077)" />
    <linearGradient
       inkscape:collect="always"
       xlink:href="#linearGradient1871"
       id="linearGradient7223"
       x1="5.0270834"
       y1="1.8520833"
       x2="5.0270834"
       y2="9.260417"
       gradientUnits="userSpaceOnUse"
       gradientTransform="scale(3.7795276)" />
  </defs>
  <path
     id="rect3143"
     style="opacity:0.1;fill:#000000;fill-opacity:1;stroke-width:0.264583"
     d="m 4.5160033,1.0583334 c -3.60405388,0 -4.1191283,0.5137855 -4.1191283,4.1144775 v 2.883545 c 0,3.6006791 0.51507442,4.1144791 4.1191283,4.1144791 h 3.6679933 c 3.6040544,0 4.1191284,-0.5138 4.1191284,-4.1144791 v -2.883545 c 0,-3.600692 -0.515074,-4.1144775 -4.1191284,-4.1144775 z" />
  <path
     style="display:inline;fill:#4d4d4d;fill-opacity:1;stroke:none;stroke-width:0.0992187;stroke-linecap:round;stroke-linejoin:round;stroke-miterlimit:4;stroke-dasharray:none;stroke-dashoffset:0;stroke-opacity:1;enable-background:new"
     d="m 8.1839962,0.66145835 c 3.6040548,0 4.1191298,0.51378545 4.1191298,4.11447755 v 2.883545 c 0,3.6006781 -0.515075,4.1144781 -4.1191298,4.1144781 H 4.5160033 c -3.604054,0 -4.1191283,-0.5138 -4.1191283,-4.1144781 v -2.883545 c 0,-3.6006921 0.5150743,-4.11447755 4.1191283,-4.11447755 z"
     id="rect877"
     inkscape:connector-curvature="0"
     sodipodi:nodetypes="sssssssss" />
  <g
     id="g10343">
    <path
       d="m 5.0270833,1.8520833 c -1.0583333,0 -1.3229167,0.7366 -1.3229167,1.3229167 v 5.2916666 c 0,0.5863167 0.2645834,1.3229167 1.3229167,1.3229167 h 2.6458334 c 1.0583334,0 1.3229166,-0.7366 1.3229166,-1.3229167 V 3.175 c 0,-0.5863167 -0.2645832,-1.3229167 -1.3229166,-1.3229167 z"
       style="opacity:0.1;fill:#000000;stroke-width:0.287073"
       id="path3892"
       sodipodi:nodetypes="sssssssss" />
    <rect
       style="opacity:1;fill:#c0bfbc;fill-opacity:1;stroke-width:0.298795"
       id="rect8010"
       width="3.4395833"
       height="1.8520833"
       x="4.6302085"
       y="9.1281252" />
    <rect
       style="opacity:1;fill:#f6f5f4;fill-opacity:1;stroke-width:0.287073"
       id="rect8502"
       width="3.4395833"
       height="1.3229166"
       x="4.6302085"
       y="9.260417" />
    <path
       id="rect41"
       d="M 5.0270833,9.7895833 V 10.31875 H 5.953125 V 9.7895833 Z m 1.7197917,0 V 10.31875 H 7.6729167 V 9.7895833 Z"
       style="fill:#9a9996;fill-opacity:1;stroke-width:0.132291"
       sodipodi:nodetypes="cccccccccc" />
    <path
       id="rect8224"
       style="opacity:0.4;fill:#000000;fill-opacity:1;stroke-width:1.25285"
       d="M 17.5 34 C 17.223 34 17 34.223 17 34.5 L 17 41.5 C 17 41.777 17.223 42 17.5 42 L 30.5 42 C 30.777 42 31 41.777 31 41.5 L 31 34.5 C 31 34.223 30.777 34 30.5 34 L 17.5 34 z M 18 35 L 30 35 L 30 41 L 18 41 L 18 35 z "
       transform="scale(0.26458333)" />
    <path
       id="path2285"
       style="opacity:1;fill:url(#linearGradient4248);fill-opacity:1;stroke-width:1.085"
       d="m 19,6.5000001 c -3.514855,0 -4.5,1.9999996 -4.5,4.9999999 v 19 c 0,3 0.97729,5 4.5,5 h 10 c 3.496589,0 4.5,-2 4.5,-5 v -19 C 33.5,8.4999997 32.5051,6.5000001 29,6.5000001 Z"
       sodipodi:nodetypes="sssssssss"
       transform="scale(0.26458333)" />
    <path
       d="M 5.7830373,4.838092 H 6.1610126 V 6.5338206 C 6.0643338,6.4724148 5.9646166,6.4182699 5.8679305,6.3699306 5.72619,6.2990603 5.5952406,6.2306581 5.5143159,6.1632349 5.4333992,6.0958042 5.4050586,6.0507759 5.4050586,5.9720364 c 0.2087555,0 0.377975,-0.1692254 0.377975,-0.3779753 0,-0.2087502 -0.1692251,-0.377975 -0.377975,-0.377975 -0.2087499,0 -0.3779753,0.1692248 -0.3779753,0.377975 v 0.3779753 c 0,0.2047301 0.1134002,0.372324 0.2450981,0.4820692 0.1316903,0.1097452 0.2849555,0.1830838 0.4266962,0.2539617 0.1417405,0.070878 0.2719531,0.1392724 0.3528774,0.2066956 0.080917,0.067431 0.1092576,0.4525159 0.1092576,0.5312559 -0.1046993,0 -0.1889876,0.084288 -0.1889876,0.1889873 v 0.3779753 c 0,0.1046991 0.084289,0.1889874 0.1889876,0.1889874 h 0.377975 c 0.1046991,0 0.1889877,-0.084289 0.1889877,-0.1889874 V 7.6350061 c 0,-0.104699 -0.084289,-0.1889876 -0.1889877,-0.1889876 V 6.7279864 c 0,-0.078744 0.028348,-0.1237718 0.1092576,-0.1911987 C 6.7291659,6.469357 6.860119,6.4009548 7.0018597,6.330092 7.1436005,6.2592292 7.2961322,6.1858832 7.4278188,6.0761306 7.5595128,5.9663854 7.6729166,5.7988102 7.6729166,5.5940611 V 5.0270984 c 0,-0.104699 -0.084288,-0.1889876 -0.1889873,-0.1889876 H 7.105954 c -0.1046991,0 -0.1889874,0.084288 -0.1889874,0.1889876 v 0.3779751 c 0,0.1046993 0.084289,0.1889876 0.1889874,0.1889876 h 0.1889876 c 0,0.078744 -0.028348,0.1237716 -0.1092576,0.1911988 C 7.1047631,5.8526908 6.9745471,5.9210927 6.8328066,5.9919555 6.7360226,6.0403515 6.635995,6.0943451 6.5389876,6.1558453 V 4.838092 h 0.377975 L 6.35,3.7041667 Z"
       style="opacity:0.2;fill:#ffffff;fill-opacity:1;stroke-width:0.0500028;enable-background:new"
       id="path9413" />
    <path
       id="rect1271"
       style="opacity:0.4;fill:#000000;stroke-width:1.085"
       d="m 19,6 c -4,0 -5,2.7839999 -5,5 v 20 c 0,2.216 1,5 5,5 h 10 c 4,0 5,-2.784 5,-5 V 11 C 34,8.7839999 33,6 29,6 Z m 0,1 h 10 c 3,0 4,1.9999992 4,5 v 18 c 0,3 -1,5 -4,5 H 19 c -3,0 -4,-2 -4,-5 V 12 c 0,-3.0000008 1,-5 4,-5 z"
       sodipodi:nodetypes="ssssssssssssssssss"
       transform="scale(0.26458333)" />
    <path
       d="M 5.7830374,4.5735086 H 6.1610125 V 6.2692373 C 6.064334,6.2078314 5.9646167,6.1536865 5.8679306,6.1053472 5.7261899,6.0344769 5.5952405,5.9660748 5.514316,5.8986515 5.4333991,5.8312208 5.4050585,5.7861926 5.4050585,5.7074529 c 0.2087557,0 0.3779751,-0.1692252 0.3779751,-0.3779752 0,-0.20875 -0.1692251,-0.3779751 -0.3779751,-0.3779751 -0.2087499,0 -0.3779751,0.1692251 -0.3779751,0.3779751 v 0.3779752 c 0,0.2047302 0.1134001,0.3723243 0.2450979,0.4820694 0.1316904,0.1097451 0.2849555,0.1830836 0.4266962,0.2539615 0.1417407,0.070878 0.2719531,0.1392725 0.3528776,0.2066957 0.080917,0.067431 0.1092574,0.452516 0.1092574,0.5312558 -0.1046991,0 -0.1889876,0.084288 -0.1889876,0.1889875 V 7.748398 c 0,0.104699 0.084289,0.1889875 0.1889876,0.1889875 h 0.3779751 c 0.1046991,0 0.1889876,-0.084289 0.1889876,-0.1889875 V 7.3704227 c 0,-0.1046991 -0.084289,-0.1889875 -0.1889876,-0.1889875 V 6.4634031 c 0,-0.078744 0.028348,-0.1237718 0.1092575,-0.1911987 C 6.7291658,6.2047736 6.860119,6.1363714 7.0018597,6.0655087 7.1436004,5.9946459 7.2961322,5.9212998 7.4278188,5.8115472 7.5595128,5.7018021 7.6729167,5.5342268 7.6729167,5.3294777 V 4.762515 c 0,-0.104699 -0.084288,-0.1889875 -0.1889875,-0.1889875 H 7.1059541 c -0.1046991,0 -0.1889876,0.084288 -0.1889876,0.1889875 v 0.3779752 c 0,0.1046991 0.084289,0.1889875 0.1889876,0.1889875 h 0.1889875 c 0,0.078744 -0.028348,0.1237717 -0.1092575,0.1911988 C 7.1047631,5.5881075 6.9745472,5.6565094 6.8328066,5.7273722 6.7360226,5.7757682 6.635995,5.8297618 6.5389876,5.8912621 V 4.5735086 H 6.9169627 L 6.3500001,3.4395833 Z"
       style="fill:url(#linearGradient6192);fill-opacity:1;stroke-width:0.188987;enable-background:new"
       id="path909"
       sodipodi:nodetypes="ccccccsssscsccsssssscscscssssssscccccccc" />
    <path
       id="path7002"
       style="fill:url(#linearGradient7223);fill-opacity:1;stroke-width:1.085"
       d="M 19 7 C 16 7 15 8.9999989 15 12 L 15 30 C 15 33 16 35 19 35 L 29 35 C 32 35 33 33 33 30 L 33 12 C 33 8.9999989 32 7 29 7 L 19 7 z M 19 8 L 29 8 C 31.117167 8 32 8.9999989 32 12 L 32 30 C 32 33 30.900774 34 29 34 L 19 34 C 17.301356 34 16 33 16 30 L 16 12 C 16 8.9999989 16.644532 8 19 8 z "
       transform="scale(0.26458333)" />
  </g>
  <g
     id="g10348">
    <circle
       style="opacity:1;fill:#5884f4;fill-opacity:1;stroke-width:0.272997"
       id="path9760"
       cx="3.96875"
       cy="3.7041667"
       r="1.984375" />
    <path
       d="M 3.4541852,2.2650754 H 4.5125396 V 3.5885212 H 4.998298 C 4.8193354,3.9457087 4.4967967,4.5484028 3.9833624,5.312969 3.4698223,4.5482705 3.1473947,3.9452325 2.9684269,3.5880185 h 0.4857583 z"
       style="color:#000000;fill:#ffffff;stroke-width:0.264583;enable-background:accumulate"
       id="path1648"
       sodipodi:nodetypes="cccccccc" />
    <path
       id="path10133"
       style="opacity:0.4;fill:#000000;fill-opacity:1;stroke-width:1.085"
       d="m 15,6 a 7.9999996,7.9999996 0 0 0 -8,8 7.9999996,7.9999996 0 0 0 8,8 7.9999996,7.9999996 0 0 0 8,-8 7.9999996,7.9999996 0 0 0 -8,-8 z m 0,1 a 7,7 0 0 1 7,7 7,7 0 0 1 -7,7 7,7 0 0 1 -7,-7 7,7 0 0 1 7,-7 z"
       transform="scale(0.26458333)" />
  </g>
  <path
     id="rect1565"
     style="fill:url(#linearGradient1873);fill-opacity:1;stroke-width:0.264583"
     d="m 4.5568277,0.79374997 c -3.5239635,0 -4.02766104,0.50133123 -4.02766104,4.01629243 v 2.8153318 c 0,3.5149478 0.50369754,4.0162928 4.02766104,4.0162928 h 3.5863445 c 3.5239638,0 4.0276608,-0.501345 4.0276608,-4.0162928 V 4.8100424 c 0,-3.5149612 -0.503697,-4.01629243 -4.0276608,-4.01629243 z m 0.081649,0.26458343 h 3.4230468 c 3.3637835,0 3.8447265,0.4769388 3.8447265,3.8204385 v 2.6778728 c 0,3.3434873 -0.480943,3.8204393 -3.8447265,3.8204393 h -3.423047 c -3.3637834,0 -3.84472651,-0.476952 -3.84472651,-3.8204393 V 4.8787719 c 0,-3.3434997 0.48094311,-3.8204385 3.84472671,-3.8204385 z" />
  <path
     id="rect1370"
     style="opacity:0.4;fill:#000000;fill-opacity:1;stroke-width:0.264583"
     d="m 4.4751788,0.52916667 c -3.68414336,0 -4.21059547,0.52624033 -4.21059547,4.21266273 v 2.9517578 c 0,3.6864088 0.52645211,4.2126628 4.21059547,4.2126628 H 8.224821 c 3.684144,0 4.210596,-0.526254 4.210596,-4.2126628 V 4.7418294 c 0,-3.6864224 -0.526452,-4.21266273 -4.210596,-4.21266273 z m 0.081649,0.2645833 h 3.5863445 c 3.5239637,0 4.0276607,0.50133143 4.0276607,4.01629243 v 2.8153318 c 0,3.5149478 -0.503697,4.0162928 -4.0276607,4.0162928 H 4.5568277 c -3.5239637,0 -4.02766104,-0.501345 -4.02766104,-4.0162928 V 4.8100424 c 0,-3.514961 0.50369724,-4.01629243 4.02766114,-4.01629243 z" />
</svg>
