<?xml version="1.0" encoding="UTF-8" standalone="no"?>
<!-- Created with Inkscape (http://www.inkscape.org/) -->

<svg
   width="16"
   height="16"
   viewBox="0 0 4.2333333 4.2333333"
   version="1.1"
   id="svg1003"
   sodipodi:docname="accessories-character-map.svg"
   inkscape:version="1.1.2 (0a00cf5339, 2022-02-04)"
   xmlns:inkscape="http://www.inkscape.org/namespaces/inkscape"
   xmlns:sodipodi="http://sodipodi.sourceforge.net/DTD/sodipodi-0.dtd"
   xmlns:xlink="http://www.w3.org/1999/xlink"
   xmlns="http://www.w3.org/2000/svg"
   xmlns:svg="http://www.w3.org/2000/svg">
  <sodipodi:namedview
     id="namedview1005"
     pagecolor="#ffffff"
     bordercolor="#666666"
     borderopacity="1.0"
     inkscape:pageshadow="2"
     inkscape:pageopacity="0.0"
     inkscape:pagecheckerboard="0"
     inkscape:document-units="px"
     showgrid="false"
     units="px"
     showguides="true"
     inkscape:lockguides="true"
     inkscape:zoom="28.285713"
     inkscape:cx="7.936869"
     inkscape:cy="10.570708"
     inkscape:window-width="1920"
     inkscape:window-height="1010"
     inkscape:window-x="0"
     inkscape:window-y="0"
     inkscape:window-maximized="1"
     inkscape:current-layer="svg1003" />
  <defs
     id="defs1000">
    <linearGradient
       inkscape:collect="always"
       xlink:href="#linearGradient1871"
       id="linearGradient16320"
       x1="10"
       y1="4"
       x2="10"
       y2="29.100245"
       gradientUnits="userSpaceOnUse"
       gradientTransform="matrix(0.13229166,0,0,0.12211538,0,0.04070512)" />
    <linearGradient
       inkscape:collect="always"
       id="linearGradient1871">
      <stop
         style="stop-color:#ffffff;stop-opacity:1;"
         offset="0"
         id="stop1867" />
      <stop
         style="stop-color:#ffffff;stop-opacity:0.1"
         offset="0.12"
         id="stop2515" />
      <stop
         style="stop-color:#ffffff;stop-opacity:0.102"
         offset="0.89999998"
         id="stop2581" />
      <stop
         style="stop-color:#ffffff;stop-opacity:0.502"
         offset="1"
         id="stop1869" />
    </linearGradient>
  </defs>
  <path
     d="M 1.0583333,0.396875 H 3.175 c 0.7935019,1.919e-4 0.9259876,0.157244 0.9260416,0.9921875 V 2.8376562 C 4.1009876,3.6238466 3.9685019,3.8366501 3.175,3.8364583 H 1.0583333 c -0.79355622,0 -0.92604169,-0.2128036 -0.92604169,-0.9988021 V 1.3890625 c 0,-0.7859985 0.13248546,-0.9921875 0.92604169,-0.9921875 z"
     style="fill:#f6f5f4;fill-opacity:1;stroke-width:0.0653156;stroke-linejoin:round"
     id="path17503"
     sodipodi:nodetypes="sccccssss" />
  <path
     id="rect18340"
     style="opacity:1;fill:#3584e4;fill-opacity:1;stroke-width:0.264583;stroke-linejoin:round"
     d="M 2.1166666,0.396875 V 3.8364583 H 3.175 C 3.9685018,3.8366501 4.1009876,3.6237433 4.1010416,2.8375528 V 1.3890625 C 4.1009876,0.55411898 3.9685018,0.3970669 3.175,0.396875 Z" />
  <path
     d="m 1.1906375,2.3812501 c -0.058063,0 -0.1161256,0.017912 -0.1519343,0.05371 -0.0716227,0.071623 -0.0453019,0.2132754 0,0.3038741 l 0.1267116,0.2531266 -0.025532,0.025532 -0.25312689,-0.126709 c -0.090596,-0.045302 -0.2322486,-0.071628 -0.30387395,0 -0.07162,0.071623 -0.07162,0.2322433 0,0.303874 0.0716253,0.071623 0.21327797,0.045297 0.30387395,0 L 1.1398825,3.0679435 1.1654148,3.0934755 1.0387032,3.346605 c -0.0453019,0.090596 -0.0716227,0.232246 0,0.303874 0.071623,0.071623 0.2322433,0.071623 0.3038739,0 0.071623,-0.071625 0.045297,-0.2132754 0,-0.303874 L 1.2158629,3.0934755 1.2413952,3.0679435 1.4945247,3.1946578 c 0.090596,0.045297 0.2322486,0.071623 0.303874,0 0.071623,-0.071628 0.071623,-0.2322486 0,-0.303874 -0.071623,-0.071628 -0.2132754,-0.045302 -0.303874,0 L 1.2413952,3.0174928 1.2158629,2.9919608 1.3425771,2.7388342 c 0.045297,-0.090599 0.071623,-0.2322514 0,-0.3038741 -0.035814,-0.035809 -0.093874,-0.05371 -0.1519369,-0.05371 z"
     style="fill:#4d4d4d;stroke-width:0.264583;enable-background:new"
     id="path1477" />
  <path
     id="rect25"
     d="m 3.1987837,1.3229166 c -0.013374,0.00135 -0.023771,0.012613 -0.023771,0.026355 v 0.079582 c 0,0.014658 0.011697,0.026355 0.026355,0.026355 h 0.079582 c 0.014658,0 0.026355,-0.011697 0.026355,-0.026355 v -0.079582 c 0,-0.014658 -0.011697,-0.026355 -0.026355,-0.026355 h -0.079582 c -9.26e-4,0 -0.00169,-9e-5 -0.00259,0 z M 3.066492,1.4552083 c -0.013374,0.00135 -0.023771,0.012613 -0.023771,0.026355 v 0.079582 c 0,0.014658 0.011697,0.026355 0.026355,0.026355 h 0.079582 c 0.014658,0 0.026355,-0.011697 0.026355,-0.026355 v -0.079582 c 0,-0.014658 -0.011697,-0.026355 -0.026355,-0.026355 H 3.069076 c -9.261e-4,0 -0.00169,-9e-5 -0.00259,0 z m 0.2645833,0 c -0.013374,0.00135 -0.023771,0.012613 -0.023771,0.026355 v 0.079582 c 0,0.014658 0.011697,0.026355 0.026355,0.026355 h 0.079582 c 0.014658,0 0.026355,-0.011697 0.026355,-0.026355 v -0.079582 c 0,-0.014658 -0.011697,-0.026355 -0.026355,-0.026355 h -0.079582 c -9.26e-4,0 -0.00169,-9e-5 -0.00259,0 z m 0.3700032,0.3110921 -0.1260904,0.039274 c 0,0 0.028011,0.091188 0.041858,0.1948201 0.00692,0.051816 0.00982,0.106223 0.00517,0.1503784 -0.00465,0.044156 -0.017597,0.074958 -0.030489,0.08785 -0.00685,0.00685 -0.028596,0.016631 -0.062012,0.020154 -0.033416,0.00352 -0.075755,0.00128 -0.116272,-0.00413 C 3.3569191,2.247127 3.3336441,2.239063 3.3073066,2.231909 V 1.8520833 H 3.1750125 v 0.3824056 c -0.00524,0.00131 -0.00457,0.00122 -0.010335,0.00258 -0.032452,0.00766 -0.073103,0.01451 -0.089917,0.014986 -0.04265,0.00115 -0.1178515,-0.01474 -0.1643317,-0.023772 V 1.8520833 H 2.7781375 v 0.4857584 0.1049032 c -2.646e-4,0.00216 -0.00188,0.013509 -0.00568,0.029456 -0.003,0.012567 -0.00557,0.017055 -0.0062,0.020154 -0.061628,0.025018 -0.1159481,0.048288 -0.1514125,0.055294 -0.038954,0.0077 -0.055,0.00507 -0.082165,-0.01757 -0.010461,-0.011465 -0.021728,-0.036972 -0.025839,-0.075964 -0.00425,-0.040343 -0.00174,-0.090171 0.00465,-0.1379761 0.012773,-0.09561 0.038757,-0.1798339 0.038757,-0.1798339 L 2.4236372,2.0970295 c 0,0 -0.028381,0.092922 -0.042891,0.2015381 -0.00726,0.054308 -0.011663,0.1127938 -0.00568,0.1694987 0.00598,0.056705 0.021292,0.1148265 0.065112,0.1586467 l 0.00207,0.00155 0.00155,0.00155 C 2.5014882,2.67941 2.5758909,2.69057 2.640169,2.677872 2.704447,2.665174 2.7654641,2.636506 2.8360227,2.608109 l 0.012401,-0.00517 0.00982,-0.00982 c 0.033218,-0.033243 0.036657,-0.063817 0.042892,-0.089917 0.00623,-0.0261 0.00878,-0.048576 0.00878,-0.048576 l 5.186e-4,-0.00362 V 2.361089 c 0.051053,0.010891 0.1001782,0.025091 0.1679485,0.023254 0.039166,-0.00111 0.080878,-0.010125 0.1167887,-0.018604 0.026411,-0.00624 0.037493,-0.00959 0.047542,-0.012402 0.016269,0.00484 0.070376,0.021523 0.1529622,0.032556 0.047021,0.00628 0.098016,0.0099 0.1477947,0.00465 0.049778,-0.00525 0.1016682,-0.018468 0.1415933,-0.058394 0.045964,-0.045965 0.061834,-0.1069139 0.068213,-0.1674317 0.00638,-0.060518 0.00212,-0.1235813 -0.00569,-0.181901 -0.015585,-0.1166312 -0.04651,-0.2165159 -0.04651,-0.216516 z"
     style="fill:#ffffff;stroke-width:0.264583" />
  <circle
     style="fill:#fdc92b;fill-opacity:1;stroke-width:0.262731;stroke-linecap:round;stroke-linejoin:round"
     id="path1097"
     cx="1.1906375"
     cy="1.4552083"
     r="0.66145831" />
  <path
     id="circle31"
     d="M 0.92605418,1.0583333 A 0.13229166,0.13229166 0 0 0 0.79376251,1.1906249 0.13229166,0.13229166 0 0 0 0.92605418,1.3229166 0.13229166,0.13229166 0 0 0 1.0583458,1.1906249 0.13229166,0.13229166 0 0 0 0.92605418,1.0583333 Z m 0.52916662,0 A 0.13229166,0.13229166 0 0 0 1.3229292,1.1906249 0.13229166,0.13229166 0 0 0 1.4552208,1.3229166 0.13229166,0.13229166 0 0 0 1.5875125,1.1906249 0.13229166,0.13229166 0 0 0 1.4552208,1.0583333 Z"
     style="fill:#4d4d4d;fill-opacity:1;stroke-width:0.264583" />
  <path
     d="M 0.81701938,1.5874999 C 0.87301378,1.7458766 1.0226539,1.8518465 1.1906375,1.8520833 1.3588154,1.8520705 1.5087255,1.7460595 1.5647848,1.5874999 Z"
     style="fill:#f46270;stroke-width:0.264583;enable-background:new"
     id="path961" />
  <path
     id="rect13250"
     style="opacity:0.699;fill:url(#linearGradient16320);fill-opacity:1;stroke-width:0.127101;stroke-linejoin:round"
     d="M 0.94929604,0.52916666 C 0.4275256,0.53207345 0.26458333,0.5787759 0.26458333,1.3229166 v 0.1829346 1.2216309 0.1829345 c 0,0.79375 0.21166674,0.79375 0.79374997,0.79375 H 1.3229166 3.175 c 0.5820833,0 0.79375,0 0.79375,-0.79375 V 2.7274821 1.5058512 1.3229166 C 3.96875,0.52916642 3.7570833,0.52916666 3.175,0.52916666 H 1.3229166 Z m 0.0847494,0.26458333 c 0.0079,-4.458e-5 0.016138,0 0.024288,0 H 3.175 c 0.5216072,0 0.5291666,0.0892859 0.5291666,0.52916661 v 1.5875 c 0,0.4398807 -0.00756,0.5291667 -0.5291666,0.5291667 H 1.0583333 c -0.52160723,0 -0.52916664,-0.089286 -0.52916664,-0.5291667 v -1.5875 c 0,-0.4330075 0.007113,-0.52635721 0.50487874,-0.52916661 z"
     sodipodi:nodetypes="csccsscssccssccssssssssss" />
  <path
     id="rect7040"
     style="opacity:0.4;stroke-width:0.264583;stroke-linejoin:round"
     d="M 1.0583333,0.26458333 C 0.21187339,0.26458333 0,0.47645663 0,1.3229166 v 1.5875 C 0,3.7568766 0.21187339,3.96875 1.0583333,3.96875 H 3.175 C 4.021402,3.9689566 4.2332756,3.7570833 4.2333333,2.9104166 v -1.5875 C 4.2332756,0.42374666 4.021402,0.26478997 3.175,0.26458333 Z M 0.94929604,0.52916666 H 1.3229166 3.175 c 0.5820833,0 0.79375,-2.9e-7 0.79375,0.79374994 v 0.1829346 1.2216309 0.1829345 c 0,0.79375 -0.2116667,0.79375 -0.79375,0.79375 H 1.3229166 1.0583333 c -0.5820832,0 -0.79374997,0 -0.79374997,-0.79375 V 2.7274821 1.5058512 1.3229166 c 0,-0.74414078 0.16294232,-0.79084294 0.68471271,-0.79374994 z"
     sodipodi:nodetypes="ssssccccsccssccsscssccsc" />
</svg>
