<?xml version="1.0" encoding="UTF-8" standalone="no"?>
<!-- Created with Inkscape (http://www.inkscape.org/) -->

<svg
   width="16"
   height="16"
   viewBox="0 0 4.2333333 4.2333333"
   version="1.1"
   id="svg1003"
   sodipodi:docname="applications-office.svg"
   inkscape:version="1.1.2 (0a00cf5339, 2022-02-04)"
   xmlns:inkscape="http://www.inkscape.org/namespaces/inkscape"
   xmlns:sodipodi="http://sodipodi.sourceforge.net/DTD/sodipodi-0.dtd"
   xmlns:xlink="http://www.w3.org/1999/xlink"
   xmlns="http://www.w3.org/2000/svg"
   xmlns:svg="http://www.w3.org/2000/svg">
  <sodipodi:namedview
     id="namedview1005"
     pagecolor="#ffffff"
     bordercolor="#666666"
     borderopacity="1.0"
     inkscape:pageshadow="2"
     inkscape:pageopacity="0.0"
     inkscape:pagecheckerboard="0"
     inkscape:document-units="px"
     showgrid="false"
     units="px"
     showguides="true"
     inkscape:lockguides="true"
     inkscape:zoom="49"
     inkscape:cx="7.8265306"
     inkscape:cy="8"
     inkscape:window-width="1920"
     inkscape:window-height="1011"
     inkscape:window-x="0"
     inkscape:window-y="0"
     inkscape:window-maximized="1"
     inkscape:current-layer="svg1003" />
  <defs
     id="defs1000">
    <linearGradient
       inkscape:collect="always"
       id="linearGradient17934">
      <stop
         style="stop-color:#e8e8e8;stop-opacity:1"
         offset="0"
         id="stop17930" />
      <stop
         style="stop-color:#f5f5f5;stop-opacity:1"
         offset="1"
         id="stop17932" />
    </linearGradient>
    <linearGradient
       inkscape:collect="always"
       xlink:href="#linearGradient1871"
       id="linearGradient16320"
       x1="10"
       y1="4"
       x2="10"
       y2="29.100245"
       gradientUnits="userSpaceOnUse"
       gradientTransform="matrix(0.13229166,0,0,0.12211538,0,0.04070512)" />
    <linearGradient
       inkscape:collect="always"
       id="linearGradient1871">
      <stop
         style="stop-color:#ffffff;stop-opacity:1;"
         offset="0"
         id="stop1867" />
      <stop
         style="stop-color:#ffffff;stop-opacity:0.1"
         offset="0.12"
         id="stop2515" />
      <stop
         style="stop-color:#ffffff;stop-opacity:0.102"
         offset="0.89999998"
         id="stop2581" />
      <stop
         style="stop-color:#ffffff;stop-opacity:0.502"
         offset="1"
         id="stop1869" />
    </linearGradient>
    <linearGradient
       inkscape:collect="always"
       xlink:href="#linearGradient17934"
       id="linearGradient17936"
       x1="1.0583333"
       y1="0.39687499"
       x2="3.1688156"
       y2="3.844409"
       gradientUnits="userSpaceOnUse" />
    <linearGradient
       id="linearGradient1271"
       x1="140.45"
       x2="217.69"
       y1="291.42999"
       y2="214.2"
       gradientTransform="matrix(0.02985761,-5.5554504e-4,-5.5554504e-4,0.02985761,-0.0067114,4.8738414)"
       gradientUnits="userSpaceOnUse"
       xlink:href="#linearGradient4254" />
    <linearGradient
       id="linearGradient4254">
      <stop
         stop-color="#fff"
         offset="0"
         id="stop31" />
      <stop
         stop-color="#fff"
         stop-opacity=".3"
         offset="1"
         id="stop33" />
    </linearGradient>
    <linearGradient
       id="linearGradient1273"
       x1="299.57001"
       x2="373.31"
       y1="298.92999"
       y2="225.17999"
       gradientTransform="matrix(0.02985761,-5.5554504e-4,-5.5554504e-4,0.02985761,-0.0067114,4.8738414)"
       gradientUnits="userSpaceOnUse"
       xlink:href="#linearGradient4254" />
  </defs>
  <path
     d="M 1.0583333,0.396875 H 3.175 c 0.7935019,1.919e-4 0.9259876,0.157244 0.9260416,0.9921875 V 2.8376562 C 4.1009876,3.6238466 3.9685019,3.8366501 3.175,3.8364583 H 1.0583333 c -0.79355622,0 -0.92604169,-0.2128036 -0.92604169,-0.9988021 V 1.3890625 c 0,-0.7859985 0.13248546,-0.9921875 0.92604169,-0.9921875 z"
     style="fill:url(#linearGradient17936);fill-opacity:1;stroke-width:0.0653156;stroke-linejoin:round"
     id="path17503"
     sodipodi:nodetypes="sccccssss" />
  <path
     id="path47"
     d="M 0.79374999,1.0583333 V 1.3229167 H 3.4612873 V 1.0583333 Z m 0,0.5291667 V 2.3812501 H 1.8520833 V 1.5875 Z m 0,1.0583334 V 2.9104167 H 3.4395833 V 2.6458334 Z m 0,0.5291667 V 3.4395834 H 2.9104166 V 3.1750001 Z"
     style="fill:#c8c4b7;fill-opacity:1;stroke-width:0.264583" />
  <path
     id="path49"
     d="M 2.3812499,1.5875 V 1.8520834 H 3.4395833 V 1.5875 Z m 0,0.5291668 V 2.3812501 H 2.9104166 V 2.1166668 Z"
     style="fill:#aea795;fill-opacity:1;stroke-width:0.264583" />
  <path
     id="path59"
     style="fill:#e7e7df;fill-opacity:1;stroke-width:0.264589"
     d="m 1.5115356,1.7285767 c -0.043837,0 -0.079582,0.035743 -0.079582,0.079582 0,0.043836 0.035744,0.079582 0.079582,0.079582 0.043837,0 0.079065,-0.035746 0.079065,-0.079582 0,-0.043839 -0.035228,-0.079582 -0.079065,-0.079582 z M 1.1622029,1.8619019 0.95239664,2.2231202 H 1.4288533 L 1.2898437,1.9564697 1.2505696,2.0314005 Z" />
  <g
     id="g2212"
     transform="matrix(-0.18708867,0.18708867,0.18708867,0.18708867,1.8278209,-1.281671)">
    <path
       id="path65"
       style="fill:#636363;fill-opacity:1;stroke-width:0.50001"
       d="m 11.931641,10.998047 c 0,0 -2.4236357,0.345881 -4.4238285,0.724609 C 5.5196987,11.417898 3.1054688,11.162109 3.1054688,11.162109 l -0.015625,0.535157 c -1e-7,0 1.814386,0.01613 3.5644531,0.193359 -0.2644688,0.05578 -0.5150308,0.113694 -0.734375,0.167969 -1.0189143,0.252113 -2.7809109,1.59523 -2.7128907,1.771484 0.1172027,0.3037 0.5840937,0.265212 0.8691407,-0.05078 C 4.6049874,13.193029 5.2011378,12.635082 5.9394531,12.371094 6.3598646,12.220785 6.9080489,12.096499 7.5,11.992188 c 0.5895645,0.08241 1.1350114,0.187288 1.5507812,0.322265 0.7289996,0.236687 1.3031888,0.772855 1.8105468,1.339844 0.273481,0.305597 0.740552,0.325851 0.869141,0.01758 C 11.805098,13.492967 10.090313,12.214358 9.0800781,12 8.8606534,11.953439 8.6109588,11.905754 8.3457031,11.859375 10.105701,11.616149 11.927734,11.533203 11.927734,11.533203 Z" />
    <path
       id="path932"
       style="color:#000000;fill:#3b3b3b;fill-opacity:1;stroke-width:0.50001;-inkscape-stroke:none"
       d="m 9.9394531,10.568359 c -0.120422,0.0024 -0.2322285,0.0083 -0.3300781,0.01758 -0.4750074,0.04519 -1.0800951,0.158036 -1.5566406,0.291015 -0.2858058,0.07973 -0.2413323,0.072 -0.4609375,0.08399 -0.2597224,0.01415 -0.3110852,0.0092 -0.6367188,-0.06836 -0.338726,-0.0807 -0.6122568,-0.128334 -1.0214843,-0.179687 -0.4113384,-0.05166 -0.636054,-0.06212 -1.0332032,-0.04687 -0.431388,0.01656 -0.8157194,0.05893 -1.2832031,0.140625 -0.094915,0.01658 -0.2248421,0.04 -0.3378906,0.0625 -0.056524,0.01125 -0.1091495,0.02246 -0.1503907,0.03125 -0.041241,0.0088 -0.04969,0.0093 -0.099609,0.02539 h -0.00195 c -0.02644,0.0086 -0.1336281,0.08221 -0.1621094,0.146485 -0.028481,0.06428 -0.025462,0.09108 -0.027344,0.121093 -0.00376,0.06002 -0.00299,0.130083 -0.00195,0.271485 v 0.002 l 0.00586,0.349609 0.1152343,0.09766 c 0.032347,0.02753 0.057727,0.04303 0.085938,0.05859 1.468e-4,0.002 0.00448,0.0081 0.013672,0.03711 0.021243,0.06706 0.04885,0.196462 0.083984,0.384765 0.079193,0.424254 0.1337134,0.627381 0.2402344,0.853516 0.1511885,0.321006 0.394232,0.57943 0.703125,0.751953 0.1856786,0.103714 0.4087796,0.156 0.6796875,0.179688 0.1827313,0.01592 0.5032985,0.003 0.6835937,-0.02344 0.2728002,-0.04031 0.5400053,-0.113805 0.7480469,-0.212891 0.4516535,-0.215151 0.776322,-0.64845 0.984375,-1.242187 0.068365,-0.195191 0.1651476,-0.559717 0.1992187,-0.75 0.011422,-0.0638 0.022829,-0.101246 0.029297,-0.121094 0.017685,-0.0025 0.049984,-0.0068 0.1074219,-0.0078 0.047022,-5.53e-4 0.073596,0.002 0.091797,0.0039 0.00539,0.01895 0.012181,0.04673 0.019531,0.0957 0.028051,0.186654 0.1100782,0.536844 0.1679688,0.724609 0.1558467,0.505515 0.3989304,0.900315 0.7460937,1.13086 0.2352405,0.156205 0.5172031,0.244341 0.8886719,0.294922 0.2556427,0.03483 0.6394494,0.03123 0.8847654,-0.01172 0.324131,-0.05669 0.568696,-0.168653 0.820313,-0.376953 0.233807,-0.19365 0.419908,-0.470846 0.539062,-0.78125 0.06137,-0.159859 0.101325,-0.300851 0.167969,-0.597656 0.03153,-0.140395 0.05836,-0.265266 0.08008,-0.357422 0.01203,-0.05108 0.02714,-0.09708 0.03516,-0.123047 0.0067,-0.0042 0.01522,-0.01129 0.04883,-0.0332 l 0.158203,-0.103516 0.01953,-0.251953 c 0.005,-0.07064 0.01095,-0.151233 0.01367,-0.251953 0.0021,-0.07915 0.0043,-0.120803 0,-0.173828 -0.0022,-0.02651 -0.0016,-0.05893 -0.0332,-0.119141 -0.03164,-0.06022 -0.124743,-0.121311 -0.166015,-0.132813 -0.09811,-0.02737 -0.20585,-0.04139 -0.371094,-0.06641 -0.165243,-0.02502 -0.350271,-0.05127 -0.484375,-0.06641 -0.391554,-0.0442 -0.841456,-0.06375 -1.2031248,-0.05664 z M 9.671875,11.279297 h 0.00195 c 0.387695,-0.0079 0.772407,0.0582 1.054688,0.1875 0.134099,0.06142 0.286084,0.208279 0.324218,0.287109 0.01919,0.0397 0.03138,0.10133 0.02734,0.333985 -0.0085,0.48334 -0.112493,0.776563 -0.322266,0.992187 -0.138868,0.142721 -0.302681,0.229938 -0.552734,0.283203 -0.09131,0.01946 -0.141702,0.02456 -0.3632812,0.03125 -0.3008908,0.0091 -0.2817699,0.0099 -0.4492188,-0.01758 C 9.1524008,13.337498 8.9842413,13.265161 8.8457031,13.140625 8.7062057,13.015216 8.5875757,12.826356 8.4746094,12.541016 8.3850053,12.314517 8.3415516,12.098513 8.34375,11.917969 8.3454,11.784781 8.36381,11.714921 8.394531,11.666016 c 0.030203,-0.04808 0.08536,-0.09503 0.203125,-0.152344 0.2956592,-0.143918 0.6858207,-0.226239 1.074219,-0.234375 z m -4.3125,0.0625 c 0.4069868,-0.0087 0.8133492,0.06568 1.0996094,0.199219 0.1149977,0.05365 0.1629184,0.09407 0.1875,0.134765 0.025122,0.04158 0.039724,0.109116 0.037109,0.244141 -0.00471,0.242397 -0.081859,0.515497 -0.25,0.841797 -0.098499,0.190818 -0.1842377,0.313178 -0.2753907,0.402343 -0.1937224,0.189506 -0.4395303,0.292832 -0.8222656,0.330079 -0.418029,0.04064 -0.7657657,-0.01688 -0.9804687,-0.136719 -0.1245916,-0.06956 -0.2816637,-0.24631 -0.3476563,-0.400391 -0.081988,-0.191338 -0.1117806,-0.382094 -0.1054687,-0.730469 0.00218,-0.121741 0.00251,-0.186093 0.00586,-0.222656 0.00291,-0.03177 0.00603,-0.03997 0.015625,-0.06836 0.025034,-0.07404 0.1336889,-0.211755 0.2832031,-0.3125 0.090739,-0.06116 0.3674895,-0.16705 0.609375,-0.21875 0.1737998,-0.03714 0.3581124,-0.05853 0.5429688,-0.0625 z" />
    <path
       d="m 5.3541302,11.092694 c -0.1995369,0.0043 -0.3994511,0.02617 -0.5902596,0.06695 -0.2649976,0.05664 -0.5474457,0.156283 -0.696151,0.256509 -0.1812905,0.122165 -0.3275005,0.281284 -0.3806866,0.438571 -0.013041,0.03856 -0.022507,0.07463 -0.027215,0.126015 -0.00471,0.05141 -0.0063,0.119787 -0.0085,0.242082 -0.00662,0.366122 0.028139,0.603031 0.1262852,0.832096 l -5.51e-5,1e-6 c 0.089897,0.209885 0.268909,0.416653 0.456623,0.521473 0.2802775,0.156439 0.6748663,0.211019 1.1266974,0.167095 0.4202141,-0.04088 0.7327955,-0.167146 0.9721746,-0.401328 0.1167582,-0.114217 0.2171287,-0.260901 0.323298,-0.466889 0.1798379,-0.348994 0.2721425,-0.659401 0.2777925,-0.951066 0.00301,-0.155841 -0.014078,-0.277033 -0.074571,-0.37717 C 6.7990684,11.446892 6.7002974,11.377658 6.5641837,11.314157 6.2300833,11.158298 5.7931055,11.083304 5.3541167,11.092708 Z"
       fill="url(#linearGradient1271)"
       opacity="0.5"
       stroke-width="0.494309"
       id="path71"
       style="fill:url(#linearGradient1271)" />
    <path
       d="m 9.6668736,11.030074 c -0.4187631,0.0088 -0.8397461,0.09393 -1.1782703,0.258716 -0.1386418,0.06748 -0.2408418,0.141102 -0.3055484,0.244111 -0.064712,0.10301 -0.086765,0.225844 -0.088679,0.381089 -0.0027,0.22187 0.049275,0.468824 0.1485348,0.719734 0.1210897,0.305859 0.257218,0.531242 0.4361528,0.692131 0.1789462,0.160874 0.3990997,0.253218 0.6722275,0.298082 0.1700599,0.02792 0.1954836,0.02929 0.4975655,0.02018 0.2248865,-0.0068 0.3033245,-0.01361 0.4092205,-0.03618 0.285698,-0.06085 0.503688,-0.172654 0.678772,-0.352605 0.262966,-0.270274 0.384118,-0.642262 0.393189,-1.16232 a 0.07745302,0.08090965 60.754888 0 0 10e-7,-5.6e-5 c 0.0042,-0.240772 -0.0056,-0.352207 -0.0519,-0.4479 -0.07713,-0.159425 -0.260518,-0.320145 -0.446338,-0.405227 -0.329647,-0.15099 -0.746192,-0.21853 -1.1649547,-0.209755 z"
       fill="url(#linearGradient1273)"
       opacity="0.5"
       stroke-width="0.494309"
       id="path73"
       style="fill:url(#linearGradient1273)" />
    <path
       id="path75"
       d="m 8.3378906,11.537109 c -0.018721,0.01911 -0.035594,0.03948 -0.048828,0.06055 -0.046563,0.07412 -0.066582,0.168449 -0.068359,0.3125 -0.00245,0.200891 0.046081,0.434837 0.140625,0.673828 0.1171152,0.295825 0.2443058,0.502649 0.4042969,0.646485 0.1595062,0.143399 0.3546465,0.225396 0.6113281,0.267578 0.1687476,0.0277 0.1711751,0.02863 0.4726563,0.01953 0.2232121,-0.0067 0.2883711,-0.01224 0.3867191,-0.0332 0.207749,-0.04424 0.367802,-0.114915 0.501953,-0.21875 -0.111642,0.06477 -0.239915,0.110509 -0.396484,0.142578 -0.099,0.02029 -0.163606,0.02637 -0.3886725,0.03125 -0.3039928,0.0066 -0.3080975,0.006 -0.4785156,-0.02344 C 9.2153484,13.371268 9.0195288,13.286641 8.8574219,13.140625 8.6948083,12.994169 8.5640301,12.783742 8.4433594,12.484375 8.3459444,12.242516 8.2961343,12.007309 8.296875,11.804688 c 4.4e-4,-0.116005 0.012379,-0.200403 0.041016,-0.267579 z m -4.4707031,0.195313 c -0.040008,0.05204 -0.069792,0.102646 -0.085937,0.15039 -0.011613,0.03434 -0.017504,0.06008 -0.021484,0.103516 -0.00416,0.04537 -0.00561,0.112293 -0.00781,0.234375 -0.00651,0.358988 0.027227,0.576487 0.1191407,0.791016 0.080743,0.188267 0.2506089,0.385308 0.4140624,0.476562 0.2551773,0.142426 0.6321935,0.196887 1.0703126,0.154297 0.322796,-0.0314 0.5676464,-0.111486 0.765625,-0.251953 -0.1783487,0.09726 -0.3924817,0.154537 -0.6601563,0.177734 -0.442394,0.03831 -0.8225617,-0.02123 -1.0820347,-0.167968 C 4.2126898,13.306369 4.0367855,13.105227 3.953125,12.914062 3.857887,12.696233 3.821536,12.476081 3.8242188,12.113281 c 8.967e-4,-0.123382 0.00215,-0.192461 0.00586,-0.238281 0.00355,-0.04386 0.010117,-0.06697 0.021484,-0.101562 0.00435,-0.01325 0.00928,-0.02726 0.015625,-0.04102 z"
       style="opacity:0.5;fill:#ffffff" />
  </g>
  <path
     id="rect13250"
     style="opacity:0.699;fill:url(#linearGradient16320);fill-opacity:1;stroke-width:0.127101;stroke-linejoin:round"
     d="M 0.94929604,0.52916666 C 0.4275256,0.53207345 0.26458333,0.5787759 0.26458333,1.3229166 v 0.1829346 1.2216309 0.1829345 c 0,0.79375 0.21166674,0.79375 0.79374997,0.79375 H 1.3229166 3.175 c 0.5820833,0 0.79375,0 0.79375,-0.79375 V 2.7274821 1.5058512 1.3229166 C 3.96875,0.52916642 3.7570833,0.52916666 3.175,0.52916666 H 1.3229166 Z m 0.0847494,0.26458333 c 0.0079,-4.458e-5 0.016138,0 0.024288,0 H 3.175 c 0.5216072,0 0.5291666,0.0892859 0.5291666,0.52916661 v 1.5875 c 0,0.4398807 -0.00756,0.5291667 -0.5291666,0.5291667 H 1.0583333 c -0.52160723,0 -0.52916664,-0.089286 -0.52916664,-0.5291667 v -1.5875 c 0,-0.4330075 0.007113,-0.52635721 0.50487874,-0.52916661 z"
     sodipodi:nodetypes="csccsscssccssccssssssssss" />
  <path
     id="rect7040"
     style="opacity:0.4;stroke-width:0.264583;stroke-linejoin:round"
     d="M 1.0583333,0.26458333 C 0.21187339,0.26458333 0,0.47645663 0,1.3229166 v 1.5875 C 0,3.7568766 0.21187339,3.96875 1.0583333,3.96875 H 3.175 C 4.021402,3.9689566 4.2332756,3.7570833 4.2333333,2.9104166 v -1.5875 C 4.2332756,0.42374666 4.021402,0.26478997 3.175,0.26458333 Z M 0.94929604,0.52916666 H 1.3229166 3.175 c 0.5820833,0 0.79375,-2.9e-7 0.79375,0.79374994 v 0.1829346 1.2216309 0.1829345 c 0,0.79375 -0.2116667,0.79375 -0.79375,0.79375 H 1.3229166 1.0583333 c -0.5820832,0 -0.79374997,0 -0.79374997,-0.79375 V 2.7274821 1.5058512 1.3229166 c 0,-0.74414078 0.16294232,-0.79084294 0.68471271,-0.79374994 z"
     sodipodi:nodetypes="ssssccccsccssccsscssccsc" />
</svg>
