<?xml version="1.0" encoding="UTF-8" standalone="no"?>
<!-- Created with Inkscape (http://www.inkscape.org/) -->

<svg
   width="16"
   height="16"
   viewBox="0 0 4.2333333 4.2333333"
   version="1.1"
   id="svg1003"
   sodipodi:docname="dcinside.svg"
   inkscape:version="1.1.2 (0a00cf5339, 2022-02-04)"
   xmlns:inkscape="http://www.inkscape.org/namespaces/inkscape"
   xmlns:sodipodi="http://sodipodi.sourceforge.net/DTD/sodipodi-0.dtd"
   xmlns:xlink="http://www.w3.org/1999/xlink"
   xmlns="http://www.w3.org/2000/svg"
   xmlns:svg="http://www.w3.org/2000/svg">
  <sodipodi:namedview
     id="namedview1005"
     pagecolor="#ffffff"
     bordercolor="#666666"
     borderopacity="1.0"
     inkscape:pageshadow="2"
     inkscape:pageopacity="0.0"
     inkscape:pagecheckerboard="0"
     inkscape:document-units="px"
     showgrid="false"
     units="px"
     showguides="true"
     inkscape:lockguides="true"
     inkscape:zoom="35.001786"
     inkscape:cx="6.3282485"
     inkscape:cy="9.71379"
     inkscape:window-width="1920"
     inkscape:window-height="1010"
     inkscape:window-x="0"
     inkscape:window-y="0"
     inkscape:window-maximized="1"
     inkscape:current-layer="svg1003" />
  <defs
     id="defs1000">
    <linearGradient
       inkscape:collect="always"
       xlink:href="#linearGradient1871"
       id="linearGradient16320"
       x1="10"
       y1="4"
       x2="10"
       y2="29.100245"
       gradientUnits="userSpaceOnUse"
       gradientTransform="matrix(0.13229166,0,0,0.12211538,0,0.04070512)" />
    <linearGradient
       inkscape:collect="always"
       id="linearGradient1871">
      <stop
         style="stop-color:#ffffff;stop-opacity:1;"
         offset="0"
         id="stop1867" />
      <stop
         style="stop-color:#ffffff;stop-opacity:0.1"
         offset="0.12"
         id="stop2515" />
      <stop
         style="stop-color:#ffffff;stop-opacity:0.102"
         offset="0.89999998"
         id="stop2581" />
      <stop
         style="stop-color:#ffffff;stop-opacity:0.502"
         offset="1"
         id="stop1869" />
    </linearGradient>
  </defs>
  <path
     d="M 1.0583333,0.396875 H 3.175 c 0.7935019,1.919e-4 0.9259876,0.157244 0.9260416,0.9921875 V 2.8376562 C 4.1009876,3.6238466 3.9685019,3.8366501 3.175,3.8364583 H 1.0583333 c -0.79355622,0 -0.92604169,-0.2128036 -0.92604169,-0.9988021 V 1.3890625 c 0,-0.7859985 0.13248546,-0.9921875 0.92604169,-0.9921875 z"
     style="fill:#3b468f;fill-opacity:1;stroke-width:0.0653156;stroke-linejoin:round"
     id="path17503"
     sodipodi:nodetypes="sccccssss" />
  <path
     id="path4-3"
     style="fill:#ffffff;fill-opacity:1;stroke:none;stroke-width:0.00342759;stroke-miterlimit:4;stroke-dasharray:none"
     d="m 1.5756235,1.0583333 c 0.061177,0.2053668 0.022609,0.4109503 0.028915,0.6151804 -0.015016,-0.021744 -0.025056,-0.044464 -0.037389,-0.065972 -0.02269,-0.039584 -0.051485,-0.07304 -0.094388,-0.092892 -0.1253414,-0.057998 -0.2503656,-0.1169679 -0.375555,-0.175314 -0.036694,-0.017095 -0.07466,-0.029874 -0.115325,-0.0339 -0.065025,-0.00644 -0.11484207,0.01968 -0.14523727,0.07777 -0.0222851,0.042583 -0.0328701,0.088853 -0.0345635,0.136264 -0.006866,0.1922914 -0.0115338,0.3848825 -0.00565,0.5771264 0.005734,0.1871253 0.076642,0.3455023 0.24627137,0.4401983 0.1486623,0.082974 0.3069267,0.1475623 0.4613023,0.2195173 0.028825,0.013434 0.05427,0.00525 0.073117,-0.020441 0.010463,-0.014266 0.019961,-0.029146 0.032736,-0.048025 0.013266,0.037814 0.01669,0.072104 0.021935,0.1058539 0.00274,0.017569 0.00954,0.028211 0.026423,0.03606 0.1461356,0.067834 0.2919956,0.136284 0.4373728,0.2057254 0.018341,0.00875 0.028963,0.00326 0.04254,-0.00731 0.083623,-0.065095 0.1676782,-0.1295557 0.2515891,-0.1942588 0.017805,-0.013734 0.035611,-0.027714 0.053341,-0.041544 -7.043e-4,-0.00214 -0.00145,-0.0042 -0.00216,-0.00631 -0.01665,9.75e-4 -0.033485,0.00116 -0.050019,0.00315 -0.062262,0.00746 -0.1216119,-0.00345 -0.1788031,-0.027584 -0.033902,-0.0143 -0.066582,-0.032162 -0.1010325,-0.04486 -0.026409,-0.00974 -0.031855,-0.025321 -0.031574,-0.051848 0.00486,-0.4423533 0.00831,-0.8847215 0.013466,-1.3270747 3.46e-4,-0.030201 -0.00916,-0.044055 -0.036064,-0.05633 C 1.9071615,1.2131573 1.758458,1.1426421 1.6093574,1.0729561 c -0.00999,-0.00466 -0.020215,-0.00879 -0.033735,-0.014617 z m 0.9199459,0.549209 c -0.097254,-0.00464 -0.1866785,0.025126 -0.2663789,0.098874 -0.028706,0.026561 -0.058975,0.051654 -0.0899,0.07561 -0.01703,0.0132 -0.023589,0.027365 -0.023431,0.049354 0.00105,0.151984 3.625e-4,0.3039846 6.608e-4,0.4559849 1.36e-5,0.00845 -0.00389,0.018169 0.00565,0.02742 0.00989,-0.00764 0.019699,-0.014984 0.029246,-0.022765 0.098182,-0.07999 0.1963375,-0.1600691 0.2944636,-0.2401237 0.029516,-0.024081 0.060745,-0.045505 0.094885,-0.062649 0.057339,-0.028805 0.1140089,-0.029803 0.1723235,-0.001 0.093839,0.046364 0.1888006,0.090619 0.2829964,0.1362638 0.021675,0.0105 0.043066,0.021841 0.063147,0.035064 0.036285,0.023891 0.056345,0.057037 0.051015,0.1021976 -0.00314,0.00865 -0.0039,0.015834 0.0088,0.015616 C 3.2204982,2.1959689 3.3214046,2.113963 3.423816,2.0337757 3.449541,2.0136417 3.44113,2.0085257 3.417666,1.9975507 3.1852641,1.8889506 2.9533159,1.7794522 2.721223,1.6701904 2.6805581,1.6510544 2.6388691,1.6346594 2.5952626,1.6233294 c -0.034109,-0.00886 -0.067287,-0.01425 -0.099705,-0.015784 z m -1.1954642,0.084418 c 0.011312,-0.00656 0.027861,-0.00404 0.051181,0.00665 0.06167,0.028264 0.122545,0.057969 0.1842883,0.086079 0.044814,0.020391 0.067281,0.055732 0.067799,0.10336 9.917e-4,0.08976 -7.521e-4,0.1795916 -5e-4,0.26937 4.77e-5,0.016066 -0.00966,0.02495 -0.018611,0.035229 -0.070065,0.08065 -0.1219937,0.1699994 -0.1327756,0.2786756 -0.00194,0.019459 -0.00996,0.01635 -0.021935,0.010637 -0.023872,-0.011387 -0.047274,-0.024139 -0.071954,-0.033401 -0.06181,-0.023229 -0.084524,-0.069643 -0.084084,-0.1322757 6.47e-4,-0.092079 0.00559,-0.453602 0.00565,-0.5422298 1.03e-5,-0.0115 -1.19e-4,-0.02297 9.916e-4,-0.034399 0.00249,-0.025429 0.00864,-0.04113 0.019941,-0.047691 z" />
  <path
     id="rect7040"
     style="opacity:0.4;stroke-width:0.264583;stroke-linejoin:round"
     d="M 1.0583333,0.26458333 C 0.21187339,0.26458333 0,0.47645663 0,1.3229166 v 1.5875 C 0,3.7568766 0.21187339,3.96875 1.0583333,3.96875 H 3.175 C 4.021402,3.9689566 4.2332756,3.7570833 4.2333333,2.9104166 v -1.5875 C 4.2332756,0.42374666 4.021402,0.26478997 3.175,0.26458333 Z M 0.94929604,0.52916666 H 1.3229166 3.175 c 0.5820833,0 0.79375,-2.9e-7 0.79375,0.79374994 v 0.1829346 1.2216309 0.1829345 c 0,0.79375 -0.2116667,0.79375 -0.79375,0.79375 H 1.3229166 1.0583333 c -0.5820832,0 -0.79374997,0 -0.79374997,-0.79375 V 2.7274821 1.5058512 1.3229166 c 0,-0.74414078 0.16294232,-0.79084294 0.68471271,-0.79374994 z"
     sodipodi:nodetypes="ssssccccsccssccsscssccsc" />
  <path
     id="rect13250"
     style="opacity:1;fill:url(#linearGradient16320);fill-opacity:1;stroke-width:0.127101;stroke-linejoin:round"
     d="M 0.94929604,0.52916666 C 0.4275256,0.53207345 0.26458333,0.5787759 0.26458333,1.3229166 v 0.1829346 1.2216309 0.1829345 c 0,0.79375 0.21166674,0.79375 0.79374997,0.79375 H 1.3229166 3.175 c 0.5820833,0 0.79375,0 0.79375,-0.79375 V 2.7274821 1.5058512 1.3229166 C 3.96875,0.52916642 3.7570833,0.52916666 3.175,0.52916666 H 1.3229166 Z m 0.0847494,0.26458333 c 0.0079,-4.458e-5 0.016138,0 0.024288,0 H 3.175 c 0.5216072,0 0.5291666,0.0892859 0.5291666,0.52916661 v 1.5875 c 0,0.4398807 -0.00756,0.5291667 -0.5291666,0.5291667 H 1.0583333 c -0.52160723,0 -0.52916664,-0.089286 -0.52916664,-0.5291667 v -1.5875 c 0,-0.4330075 0.007113,-0.52635721 0.50487874,-0.52916661 z"
     sodipodi:nodetypes="csccsscssccssccssssssssss" />
</svg>
