<?xml version="1.0" encoding="UTF-8" standalone="no"?>
<!-- Created with Inkscape (http://www.inkscape.org/) -->

<svg
   width="16"
   height="16"
   viewBox="0 0 4.2333333 4.2333333"
   version="1.1"
   id="svg1003"
   sodipodi:docname="devhelp.svg"
   inkscape:version="1.1.2 (0a00cf5339, 2022-02-04)"
   xmlns:inkscape="http://www.inkscape.org/namespaces/inkscape"
   xmlns:sodipodi="http://sodipodi.sourceforge.net/DTD/sodipodi-0.dtd"
   xmlns:xlink="http://www.w3.org/1999/xlink"
   xmlns="http://www.w3.org/2000/svg"
   xmlns:svg="http://www.w3.org/2000/svg">
  <sodipodi:namedview
     id="namedview1005"
     pagecolor="#ffffff"
     bordercolor="#666666"
     borderopacity="1.0"
     inkscape:pageshadow="2"
     inkscape:pageopacity="0.0"
     inkscape:pagecheckerboard="0"
     inkscape:document-units="px"
     showgrid="false"
     units="px"
     showguides="true"
     inkscape:lockguides="true"
     inkscape:zoom="51.8125"
     inkscape:cx="7.9903498"
     inkscape:cy="8"
     inkscape:window-width="1851"
     inkscape:window-height="1049"
     inkscape:window-x="0"
     inkscape:window-y="0"
     inkscape:window-maximized="1"
     inkscape:current-layer="svg1003" />
  <defs
     id="defs1000">
    <linearGradient
       inkscape:collect="always"
       id="linearGradient17934">
      <stop
         style="stop-color:#da1636;stop-opacity:1"
         offset="0"
         id="stop17930" />
      <stop
         style="stop-color:#bc1938;stop-opacity:1"
         offset="1"
         id="stop17932" />
    </linearGradient>
    <linearGradient
       inkscape:collect="always"
       xlink:href="#linearGradient1871"
       id="linearGradient16320"
       x1="10"
       y1="4"
       x2="10"
       y2="29.100245"
       gradientUnits="userSpaceOnUse"
       gradientTransform="matrix(0.13229166,0,0,0.12211538,0,0.04070512)" />
    <linearGradient
       inkscape:collect="always"
       id="linearGradient1871">
      <stop
         style="stop-color:#ffffff;stop-opacity:1;"
         offset="0"
         id="stop1867" />
      <stop
         style="stop-color:#ffffff;stop-opacity:0.1"
         offset="0.12"
         id="stop2515" />
      <stop
         style="stop-color:#ffffff;stop-opacity:0.102"
         offset="0.89999998"
         id="stop2581" />
      <stop
         style="stop-color:#ffffff;stop-opacity:0.502"
         offset="1"
         id="stop1869" />
    </linearGradient>
    <linearGradient
       inkscape:collect="always"
       xlink:href="#linearGradient17934"
       id="linearGradient17936"
       x1="2.6458333"
       y1="0.26458332"
       x2="2.6458333"
       y2="3.96875"
       gradientUnits="userSpaceOnUse" />
  </defs>
  <path
     d="M 1.0583333,0.396875 H 3.175 c 0.7935019,1.919e-4 0.9259876,0.157244 0.9260416,0.9921875 V 2.8376562 C 4.1009876,3.6238466 3.9685019,3.8366501 3.175,3.8364583 H 1.0583333 c -0.79355622,0 -0.92604169,-0.2128036 -0.92604169,-0.9988021 V 1.3890625 c 0,-0.7859985 0.13248546,-0.9921875 0.92604169,-0.9921875 z"
     style="fill:url(#linearGradient17936);fill-opacity:1;stroke-width:0.0653156;stroke-linejoin:round"
     id="path17503"
     sodipodi:nodetypes="sccccssss" />
  <path
     id="rect2126"
     style="opacity:0.03;fill:#ffffff;fill-opacity:1;stroke-width:0.999999"
     d="M 0.5 7 L 0.5 10.724609 C 0.5 13.695313 1.0007324 14.5 4 14.5 L 12 14.5 C 14.999062 14.500725 15.499796 13.696037 15.5 10.724609 L 15.5 7 L 0.5 7 z "
     transform="scale(0.26458333)" />
  <path
     d="m 2.2019789,1.0583334 c -0.078719,0 -0.1450639,0.00881 -0.1990012,0.026309 -0.05248,0.016035 -0.094771,0.040088 -0.1268423,0.072159 -0.032071,0.030614 -0.054717,0.069106 -0.067837,0.115755 -0.013119,0.046648 -0.019543,0.099959 -0.019543,0.1597273 v 0.3934925 c 0,0.02624 -0.00441,0.052496 -0.013154,0.078736 -0.00729,0.024782 -0.019713,0.047429 -0.037207,0.067837 -0.016034,0.018951 -0.036478,0.034986 -0.06126,0.048106 -0.024782,0.011662 -0.054648,0.017477 -0.089635,0.017477 v 0.1574721 c 0.034986,0 0.064853,0.00661 0.089635,0.019731 0.024782,0.011662 0.045225,0.027698 0.06126,0.048106 0.017494,0.018951 0.029919,0.04141 0.037207,0.067649 0.00874,0.024782 0.013154,0.05043 0.013154,0.076669 V 2.801052 c 0,0.059768 0.00642,0.1130788 0.019543,0.1597272 0.01312,0.046648 0.035767,0.085939 0.067837,0.1180101 0.032071,0.03207 0.074363,0.056123 0.1268423,0.072159 C 2.0569148,3.1669828 2.12326,3.175 2.2019789,3.175 h 0.00864 V 3.0154609 c -0.083093,0 -0.142826,-0.015426 -0.17927,-0.046039 C 1.996366,2.9402666 1.9789238,2.883534 1.9789238,2.7989835 V 2.4622411 c 0,-0.096213 -0.013223,-0.1705749 -0.039462,-0.2230543 C 1.9146798,2.1867078 1.8789988,2.1458218 1.832351,2.1166667 1.879,2.0875117 1.91468,2.0466257 1.9394618,1.9941465 c 0.02624,-0.052479 0.039462,-0.126842 0.039462,-0.2230543 V 1.4343499 c 0,-0.08455 0.017442,-0.1412831 0.052428,-0.1704382 0.036443,-0.030614 0.096178,-0.046039 0.1792706,-0.046039 V 1.0583334 Z m 0.5488977,0 v 0.1595392 c 0.083093,0 0.1420289,0.015426 0.1770151,0.046039 0.036443,0.029154 0.054683,0.085888 0.054683,0.1704381 v 0.3367425 c 0,0.096213 0.012426,0.1705751 0.037207,0.2230543 0.02624,0.05248 0.062718,0.093366 0.1093657,0.1225201 -0.046648,0.029154 -0.083127,0.070041 -0.1093657,0.1225202 -0.024782,0.052479 -0.037207,0.1268421 -0.037207,0.2230543 v 0.3367426 c 0,0.08455 -0.01824,0.1412831 -0.054683,0.1704383 -0.034986,0.030614 -0.093922,0.046039 -0.1770151,0.046039 V 3.175 h 0.00864 c 0.078719,0 0.1442669,-0.00802 0.1967461,-0.024053 C 3.0101997,3.134911 3.0532887,3.110859 3.08536,3.078788 3.117429,3.046718 3.140077,3.007427 3.153197,2.9607778 3.166317,2.9141298 3.172739,2.8608188 3.172739,2.8010507 V 2.4075582 c 0,-0.02624 0.00381,-0.051888 0.011086,-0.076669 0.00874,-0.02624 0.020986,-0.048698 0.037019,-0.067649 0.017494,-0.020409 0.038734,-0.036443 0.063515,-0.048106 0.024782,-0.013119 0.054648,-0.019732 0.089635,-0.019732 V 2.0379306 c -0.034986,0 -0.064853,-0.00582 -0.089635,-0.017477 C 3.259577,2.0073336 3.238337,1.9912986 3.220844,1.9723476 3.204808,1.9519386 3.192571,1.9292926 3.183825,1.9045106 3.176535,1.8782706 3.172739,1.8520146 3.172739,1.8257746 V 1.4322828 c 0,-0.059768 -0.00642,-0.1130789 -0.019542,-0.1597272 C 3.140081,1.2259076 3.117435,1.1874136 3.085364,1.1568005 3.053293,1.1247305 3.010204,1.1006765 2.9562671,1.0846415 2.9037881,1.0671485 2.8382401,1.0583335 2.7595211,1.0583335 Z"
     style="font-size:6.01326px;line-height:1.25;font-family:ubuntu;-inkscape-font-specification:ubuntu;fill:#fef8f9;fill-opacity:1;stroke-width:0.0546661"
     id="path3752" />
  <path
     id="rect1340"
     style="opacity:1;fill:#4d4d4d;fill-opacity:1;stroke-width:1.35128;stroke-linecap:round;stroke-linejoin:round"
     d="M 2.9882812 1.5390625 C 0.88316297 1.7288399 0.5 2.6506349 0.5 5.25 L 0.5 10.724609 C 0.5 13.328502 0.88520241 14.26661 3 14.458984 L 3 1.5390625 C 2.9963209 1.5393888 2.9919499 1.5387318 2.9882812 1.5390625 z "
     transform="scale(0.26458333)" />
  <path
     id="rect7040"
     style="opacity:0.4;stroke-width:0.264583;stroke-linejoin:round"
     d="M 1.0583333,0.26458333 C 0.21187339,0.26458333 0,0.47645663 0,1.3229166 v 1.5875 C 0,3.7568766 0.21187339,3.96875 1.0583333,3.96875 H 3.175 C 4.021402,3.9689566 4.2332756,3.7570833 4.2333333,2.9104166 v -1.5875 C 4.2332756,0.42374666 4.021402,0.26478997 3.175,0.26458333 Z M 0.94929604,0.52916666 H 1.3229166 3.175 c 0.5820833,0 0.79375,-2.9e-7 0.79375,0.79374994 v 0.1829346 1.2216309 0.1829345 c 0,0.79375 -0.2116667,0.79375 -0.79375,0.79375 H 1.3229166 1.0583333 c -0.5820832,0 -0.79374997,0 -0.79374997,-0.79375 V 2.7274821 1.5058512 1.3229166 c 0,-0.74414078 0.16294232,-0.79084294 0.68471271,-0.79374994 z"
     sodipodi:nodetypes="ssssccccsccssccsscssccsc" />
  <path
     id="rect13250"
     style="opacity:0.4;fill:url(#linearGradient16320);fill-opacity:1;stroke-width:0.127101;stroke-linejoin:round"
     d="M 0.94929604,0.52916666 C 0.4275256,0.53207345 0.26458333,0.5787759 0.26458333,1.3229166 v 0.1829346 1.2216309 0.1829345 c 0,0.79375 0.21166674,0.79375 0.79374997,0.79375 H 1.3229166 3.175 c 0.5820833,0 0.79375,0 0.79375,-0.79375 V 2.7274821 1.5058512 1.3229166 C 3.96875,0.52916642 3.7570833,0.52916666 3.175,0.52916666 H 1.3229166 Z m 0.0847494,0.26458333 c 0.0079,-4.458e-5 0.016138,0 0.024288,0 H 3.175 c 0.5216072,0 0.5291666,0.0892859 0.5291666,0.52916661 v 1.5875 c 0,0.4398807 -0.00756,0.5291667 -0.5291666,0.5291667 H 1.0583333 c -0.52160723,0 -0.52916664,-0.089286 -0.52916664,-0.5291667 v -1.5875 c 0,-0.4330075 0.007113,-0.52635721 0.50487874,-0.52916661 z"
     sodipodi:nodetypes="csccsscssccssccssssssssss" />
</svg>
