<?xml version="1.0" encoding="UTF-8" standalone="no"?>
<!-- Created with Inkscape (http://www.inkscape.org/) -->

<svg
   width="16"
   height="16"
   viewBox="0 0 4.2333333 4.2333333"
   version="1.1"
   id="svg1003"
   inkscape:version="1.1.2 (0a00cf5339, 2022-02-04)"
   sodipodi:docname="google-chrome-canary.svg"
   xmlns:inkscape="http://www.inkscape.org/namespaces/inkscape"
   xmlns:sodipodi="http://sodipodi.sourceforge.net/DTD/sodipodi-0.dtd"
   xmlns:xlink="http://www.w3.org/1999/xlink"
   xmlns="http://www.w3.org/2000/svg"
   xmlns:svg="http://www.w3.org/2000/svg">
  <sodipodi:namedview
     id="namedview1005"
     pagecolor="#ffffff"
     bordercolor="#666666"
     borderopacity="1.0"
     inkscape:pageshadow="2"
     inkscape:pageopacity="0.0"
     inkscape:pagecheckerboard="0"
     inkscape:document-units="px"
     showgrid="false"
     units="px"
     showguides="true"
     inkscape:lockguides="true"
     inkscape:zoom="10.00051"
     inkscape:cx="11.949391"
     inkscape:cy="12.799348"
     inkscape:window-width="1920"
     inkscape:window-height="1010"
     inkscape:window-x="0"
     inkscape:window-y="0"
     inkscape:window-maximized="1"
     inkscape:current-layer="svg1003" />
  <defs
     id="defs1000">
    <linearGradient
       inkscape:collect="always"
       xlink:href="#linearGradient1871"
       id="linearGradient16320"
       x1="10"
       y1="4"
       x2="10"
       y2="29.100245"
       gradientUnits="userSpaceOnUse"
       gradientTransform="matrix(0.13229166,0,0,0.12211538,0,0.04070512)" />
    <linearGradient
       inkscape:collect="always"
       id="linearGradient1871">
      <stop
         style="stop-color:#ffffff;stop-opacity:1;"
         offset="0"
         id="stop1867" />
      <stop
         style="stop-color:#ffffff;stop-opacity:0.1"
         offset="0.12"
         id="stop2515" />
      <stop
         style="stop-color:#ffffff;stop-opacity:0.102"
         offset="0.89999998"
         id="stop2581" />
      <stop
         style="stop-color:#ffffff;stop-opacity:0.502"
         offset="1"
         id="stop1869" />
    </linearGradient>
  </defs>
  <path
     id="rect1108"
     style="fill:#f29c15;fill-opacity:1;stroke-width:0.0793398;stroke-linejoin:round"
     d="m 1.1244792,0.396875 c -0.79355623,0 -0.99218754,0.19688722 -0.99218754,0.9828857 V 1.7812866 L 1.3229166,2.536796 2.1166666,2.7657226 V 1.1761556 L 2.8422039,1.7208252 4.0969075,1.192692 C 4.0652879,0.52257025 3.8388641,0.39705155 3.1088541,0.396875 Z" />
  <path
     id="rect2658"
     style="fill:#f9cb51;stroke-width:0.0755949;stroke-linejoin:round;fill-opacity:1"
     d="M 2.1166666,1.1761556 V 2.0835937 L 1.3229166,2.536796 1.9290812,3.8364583 H 3.1088541 C 3.9023562,3.8366501 4.1009876,3.6397631 4.1010416,2.8535725 V 1.3797607 c -4.7e-6,-0.073138 -0.00185,-0.1406521 -0.00517,-0.2036051 z" />
  <path
     id="rect1825"
     style="fill:#f4b609;fill-opacity:1;stroke-width:0.075992;stroke-linejoin:round"
     d="M 0.27750243,0.6562907 C 0.16975006,0.80750555 0.13229166,1.0379061 0.13229166,1.3797607 v 1.4738118 c 0,0.7859985 0.19863128,0.9828858 0.99218754,0.9828858 H 2.1693766 L 2.8974976,2.5404134 H 1.3337687 Z" />
  <circle
     style="fill:#ffffff;fill-opacity:1;stroke-width:0.075595;stroke-linejoin:round"
     id="path2361"
     cx="2.1166666"
     cy="2.0834358"
     r="0.90714276" />
  <circle
     style="fill:#f7c332;fill-opacity:1;stroke-width:0.0763875;stroke-linejoin:round"
     id="path6261"
     cx="2.1166666"
     cy="2.0834358"
     r="0.6803571" />
  <path
     id="rect13250"
     style="opacity:0.5;fill:url(#linearGradient16320);fill-opacity:1;stroke-width:0.127101;stroke-linejoin:round"
     d="M 0.94929604,0.52916666 C 0.4275256,0.53207345 0.26458333,0.5787759 0.26458333,1.3229166 v 0.1829346 1.2216309 0.1829345 c 0,0.79375 0.21166674,0.79375 0.79374997,0.79375 H 1.3229166 3.175 c 0.5820833,0 0.79375,0 0.79375,-0.79375 V 2.7274821 1.5058512 1.3229166 C 3.96875,0.52916642 3.7570833,0.52916666 3.175,0.52916666 H 1.3229166 Z m 0.0847494,0.26458333 c 0.0079,-4.458e-5 0.016138,0 0.024288,0 H 3.175 c 0.5216072,0 0.5291666,0.0892859 0.5291666,0.52916661 v 1.5875 c 0,0.4398807 -0.00756,0.5291667 -0.5291666,0.5291667 H 1.0583333 c -0.52160723,0 -0.52916664,-0.089286 -0.52916664,-0.5291667 v -1.5875 c 0,-0.4330075 0.007113,-0.52635721 0.50487874,-0.52916661 z"
     sodipodi:nodetypes="csccsscssccssccssssssssss" />
  <path
     id="rect7040"
     style="opacity:0.4;stroke-width:0.264583;stroke-linejoin:round"
     d="M 1.0583333,0.26458333 C 0.21187339,0.26458333 0,0.47645663 0,1.3229166 v 1.5875 C 0,3.7568766 0.21187339,3.96875 1.0583333,3.96875 H 3.175 C 4.021402,3.9689566 4.2332756,3.7570833 4.2333333,2.9104166 v -1.5875 C 4.2332756,0.42374666 4.021402,0.26478997 3.175,0.26458333 Z M 0.94929604,0.52916666 H 1.3229166 3.175 c 0.5820833,0 0.79375,-2.9e-7 0.79375,0.79374994 v 0.1829346 1.2216309 0.1829345 c 0,0.79375 -0.2116667,0.79375 -0.79375,0.79375 H 1.3229166 1.0583333 c -0.58208315,0 -0.79374997,0 -0.79374997,-0.79375 V 2.7274821 1.5058512 1.3229166 c 0,-0.74414078 0.16294232,-0.79084294 0.68471271,-0.79374994 z" />
</svg>
