<?xml version="1.0" encoding="UTF-8" standalone="no"?>
<!-- Created with Inkscape (http://www.inkscape.org/) -->

<svg
   width="16"
   height="16"
   viewBox="0 0 4.2333333 4.2333333"
   version="1.1"
   id="svg1003"
   sodipodi:docname="office-calendar.svg"
   inkscape:version="1.1.2 (0a00cf5339, 2022-02-04)"
   xmlns:inkscape="http://www.inkscape.org/namespaces/inkscape"
   xmlns:sodipodi="http://sodipodi.sourceforge.net/DTD/sodipodi-0.dtd"
   xmlns:xlink="http://www.w3.org/1999/xlink"
   xmlns="http://www.w3.org/2000/svg"
   xmlns:svg="http://www.w3.org/2000/svg">
  <sodipodi:namedview
     id="namedview1005"
     pagecolor="#ffffff"
     bordercolor="#666666"
     borderopacity="1.0"
     inkscape:pageshadow="2"
     inkscape:pageopacity="0.0"
     inkscape:pagecheckerboard="0"
     inkscape:document-units="px"
     showgrid="false"
     units="px"
     showguides="false"
     inkscape:lockguides="true"
     inkscape:zoom="24.75"
     inkscape:cx="8.8686869"
     inkscape:cy="6.3030303"
     inkscape:window-width="1920"
     inkscape:window-height="1010"
     inkscape:window-x="0"
     inkscape:window-y="0"
     inkscape:window-maximized="1"
     inkscape:current-layer="svg1003" />
  <defs
     id="defs1000">
    <linearGradient
       inkscape:collect="always"
       xlink:href="#linearGradient1871"
       id="linearGradient16320"
       x1="10"
       y1="4"
       x2="10"
       y2="29.100245"
       gradientUnits="userSpaceOnUse"
       gradientTransform="matrix(0.13229166,0,0,0.12211538,0,0.04070512)" />
    <linearGradient
       inkscape:collect="always"
       id="linearGradient1871">
      <stop
         style="stop-color:#ffffff;stop-opacity:1;"
         offset="0"
         id="stop1867" />
      <stop
         style="stop-color:#ffffff;stop-opacity:0.1"
         offset="0.12"
         id="stop2515" />
      <stop
         style="stop-color:#ffffff;stop-opacity:0.102"
         offset="0.89999998"
         id="stop2581" />
      <stop
         style="stop-color:#ffffff;stop-opacity:0.502"
         offset="1"
         id="stop1869" />
    </linearGradient>
    <linearGradient
       inkscape:collect="always"
       xlink:href="#linearGradient1753"
       id="linearGradient1755"
       x1="0"
       y1="12.7"
       x2="0"
       y2="0"
       gradientUnits="userSpaceOnUse"
       gradientTransform="matrix(1.2598424,0,0,1.2598424,-1.2992126e-7,0.1666667)" />
    <linearGradient
       inkscape:collect="always"
       id="linearGradient1753">
      <stop
         style="stop-color:#5bdbc1;stop-opacity:1"
         offset="0"
         id="stop1749" />
      <stop
         style="stop-color:#2b898f;stop-opacity:1"
         offset="1"
         id="stop1751" />
    </linearGradient>
    <linearGradient
       inkscape:collect="always"
       xlink:href="#linearGradient1058"
       id="linearGradient1060"
       x1="5.8208332"
       y1="3.7041667"
       x2="5.8208332"
       y2="2.6458335"
       gradientUnits="userSpaceOnUse"
       gradientTransform="matrix(1,0,0,0.75000002,-0.26458334,-0.3968751)" />
    <linearGradient
       inkscape:collect="always"
       id="linearGradient1058">
      <stop
         style="stop-color:#f9f9f9;stop-opacity:1;"
         offset="0"
         id="stop1054" />
      <stop
         style="stop-color:#ececec;stop-opacity:1"
         offset="1"
         id="stop1056" />
    </linearGradient>
  </defs>
  <path
     id="rect877"
     style="display:inline;fill:url(#linearGradient1755);fill-opacity:1;stroke:none;stroke-width:0.125;stroke-linecap:round;stroke-linejoin:round;stroke-miterlimit:4;stroke-dasharray:none;stroke-dashoffset:0;stroke-opacity:1;enable-background:new"
     d="M 4 1.5 C 1.0007323 1.5 0.5 2.279297 0.5 5.25 L 0.5 10.724609 C 0.5 13.695312 1.0007324 14.5 4 14.5 L 12 14.5 C 14.999062 14.500725 15.499796 13.696038 15.5 10.724609 L 15.5 5.25 C 15.499796 2.094308 14.999062 1.5007253 12 1.5 L 4 1.5 z "
     transform="scale(0.26458333)" />
  <path
     id="rect1324"
     style="fill:url(#linearGradient1060);fill-opacity:1;stroke-width:0.229136;stroke-linecap:round;stroke-linejoin:round"
     d="M 0.26458333,1.5875 V 2.38125 H 0.52916667 V 1.5875 Z m 3.43958357,0 V 2.38125 H 3.9687502 V 1.5875 Z"
     sodipodi:nodetypes="cccccccccc" />
  <path
     id="path29"
     d="m 1.3776933,1.1377084 c -0.056168,0 -0.1087279,0.00714 -0.1570963,0.021187 -0.048371,0.014049 -0.091734,0.031393 -0.1307414,0.051676 -0.039008,0.020293 -0.072684,0.042227 -0.10076906,0.065629 -0.028085,0.021855 -0.049004,0.040208 -0.063045,0.05581 L 1.0335285,1.4865229 c 0.010927,-0.00937 0.02622,-0.022622 0.046509,-0.039791 0.020293,-0.018732 0.045284,-0.035557 0.074931,-0.05116 0.029644,-0.017171 0.063322,-0.031959 0.100769,-0.044442 0.037447,-0.012488 0.078774,-0.01912 0.1240234,-0.01912 0.037447,0 0.072654,0.00561 0.10542,0.016536 0.034324,0.00937 0.063917,0.025163 0.088883,0.047025 0.02495,0.021855 0.044353,0.048883 0.058394,0.081649 0.01561,0.032766 0.023771,0.072565 0.023771,0.1193726 0,0.043688 -0.00867,0.085016 -0.025838,0.1240234 -0.015611,0.039008 -0.037544,0.077275 -0.065629,0.1147218 -0.026524,0.035885 -0.057649,0.072624 -0.093534,0.1100708 -0.012541,0.013123 -0.025586,0.026464 -0.038757,0.039791 -0.022833,0.023098 -0.046599,0.046552 -0.071313,0.07028 -0.04681,0.046807 -0.094259,0.095284 -0.142627,0.1452108 -0.048369,0.049929 -0.092251,0.1024756 -0.1312581,0.1586466 -0.039008,0.056171 -0.071155,0.1163798 -0.096118,0.1803508 -0.023416,0.062413 -0.03514,0.1302733 -0.03514,0.2036052 v 0.025839 c 0,0.00937 9.975e-4,0.018521 0.00259,0.027905 H 1.9414832 V 2.6125538 H 1.1947587 c 0,-0.026524 0.010185,-0.058166 0.030489,-0.094051 0.021855,-0.035888 0.048377,-0.07313 0.079582,-0.1121378 0.031208,-0.039007 0.064375,-0.07625 0.098702,-0.1121379 l 0.093534,-0.093534 c 0.046807,-0.046807 0.093233,-0.094775 0.1400432,-0.1431437 0.022675,-0.024183 0.044636,-0.048167 0.065112,-0.072347 0.021802,-0.025744 0.042183,-0.051768 0.061495,-0.077515 0.037446,-0.051491 0.067039,-0.1025052 0.088883,-0.1539958 0.023416,-0.053049 0.03514,-0.1076459 0.03514,-0.1638142 0,-0.1435471 -0.042859,-0.2547865 -0.1286743,-0.3327963 C 1.6748088,1.1775076 1.5477622,1.1377084 1.3776933,1.1377084 Z m 1.3978475,0 c -0.074893,0 -0.1427535,0.012752 -0.2036052,0.037724 -0.060852,0.023416 -0.1128916,0.055552 -0.1565795,0.096118 -0.042127,0.040569 -0.074783,0.088017 -0.098185,0.142627 -0.023416,0.053049 -0.03514,0.1091747 -0.03514,0.1684652 0,0.1700715 0.076538,0.2986575 0.2294433,0.3860229 -0.0086,0.00524 -0.017451,0.010848 -0.025838,0.016536 -0.026736,0.018045 -0.052586,0.03842 -0.077515,0.060978 -0.031208,0.028085 -0.059269,0.059716 -0.084232,0.095601 -0.023416,0.035886 -0.042792,0.075179 -0.058394,0.1173055 -0.014049,0.040569 -0.021187,0.083428 -0.021187,0.1286744 0,0.04681 0.00867,0.09681 0.025838,0.1498616 0.017171,0.051488 0.046251,0.098939 0.086816,0.1426269 0.040569,0.043688 0.094137,0.080427 0.1612305,0.1100709 0.068651,0.028085 0.1538641,0.041858 0.2552815,0.041858 0.087376,0 0.16442,-0.011721 0.2315104,-0.03514 0.067093,-0.021855 0.1227103,-0.052968 0.1663983,-0.093534 0.045249,-0.042127 0.078928,-0.090601 0.100769,-0.1452108 0.023415,-0.056168 0.035139,-0.1168852 0.035139,-0.1824172 -0.00286,-0.172757 -0.081756,-0.3028322 -0.2361615,-0.3906739 h -5.292e-4 c -0.014288,-0.00812 -0.028866,-0.015873 -0.044442,-0.023254 0.031205,-0.020294 0.060798,-0.043756 0.088883,-0.07028 0.029647,-0.026525 0.055671,-0.05714 0.077515,-0.091467 0.023416,-0.034324 0.04126,-0.071063 0.053744,-0.1100708 0.014049,-0.040566 0.021188,-0.083428 0.021188,-0.1286743 0,-0.04681 -0.00968,-0.095281 -0.028422,-0.1452108 C 3.2218947,1.366315 3.1933327,1.321418 3.1527667,1.2808521 3.1137593,1.2387251 3.0627312,1.2040237 3.0003213,1.1774992 2.9379087,1.1509721 2.8629049,1.1377083 2.7755289,1.1377083 Z m 0,0.1803508 H 2.77607 c 0.049689,6.35e-5 0.091891,0.00875 0.1260906,0.025838 0.034327,0.01561 0.062388,0.036012 0.084233,0.060978 0.021855,0.023389 0.037664,0.048912 0.047025,0.076998 0.010927,0.028083 0.016021,0.05411 0.016021,0.077515 0,0.084254 -0.019391,0.1526206 -0.058394,0.2056722 -0.039006,0.05149 -0.091049,0.096901 -0.1565805,0.1359089 C 2.7751746,1.88692 2.7236407,1.8680471 2.6799527,1.844642 2.6378125,1.8212528 2.6036278,1.7947043 2.5771033,1.7650604 2.5505788,1.7354138 2.5306752,1.7032693 2.5181921,1.6689422 2.5057038,1.6346152 2.4995888,1.6004331 2.4995888,1.5661061 c 0,-0.028085 0.00459,-0.05615 0.013952,-0.084233 0.010927,-0.029647 0.027249,-0.056177 0.049093,-0.079582 0.021855,-0.02495 0.049908,-0.045376 0.084233,-0.060978 0.035756,-0.015557 0.07898,-0.023202 0.128674,-0.023254 z m -0.09095,0.7208862 c 0.06241,0.014049 0.1175128,0.031394 0.1658813,0.051676 0.04993,0.018733 0.09228,0.042194 0.1266074,0.07028 0.035885,0.028086 0.063441,0.060739 0.082165,0.098185 0.018733,0.037449 0.027905,0.080812 0.027905,0.1307414 0,0.032766 -0.00611,0.064913 -0.018603,0.096118 -0.012488,0.031205 -0.031364,0.059269 -0.056327,0.084233 -0.024977,0.023416 -0.057617,0.042792 -0.098185,0.058394 -0.039008,0.01561 -0.085444,0.023771 -0.1384927,0.023771 -0.05929,0 -0.1082704,-0.00867 -0.1472779,-0.025838 -0.039005,-0.017171 -0.071155,-0.038082 -0.096119,-0.063045 -0.024977,-0.026525 -0.042819,-0.055103 -0.053743,-0.084749 -0.00937,-0.031205 -0.013953,-0.060798 -0.013953,-0.088884 0,-0.079573 0.018892,-0.1479401 0.056327,-0.2056722 0.039008,-0.057729 0.093602,-0.1062032 0.1638149,-0.1452102 z"
     style="stroke-width:0.264583;fill:#ececec;fill-opacity:1" />
  <path
     id="rect13250"
     style="opacity:1;fill:url(#linearGradient16320);fill-opacity:1;stroke-width:0.127101;stroke-linejoin:round"
     d="M 0.94929604,0.52916666 C 0.4275256,0.53207345 0.26458333,0.5787759 0.26458333,1.3229166 v 0.1829346 1.2216309 0.1829345 c 0,0.79375 0.21166674,0.79375 0.79374997,0.79375 H 1.3229166 3.175 c 0.5820833,0 0.79375,0 0.79375,-0.79375 V 2.7274821 1.5058512 1.3229166 C 3.96875,0.52916642 3.7570833,0.52916666 3.175,0.52916666 H 1.3229166 Z m 0.0847494,0.26458333 c 0.0079,-4.458e-5 0.016138,0 0.024288,0 H 3.175 c 0.5216072,0 0.5291666,0.0892859 0.5291666,0.52916661 v 1.5875 c 0,0.4398807 -0.00756,0.5291667 -0.5291666,0.5291667 H 1.0583333 c -0.52160723,0 -0.52916664,-0.089286 -0.52916664,-0.5291667 v -1.5875 c 0,-0.4330075 0.007113,-0.52635721 0.50487874,-0.52916661 z"
     sodipodi:nodetypes="csccsscssccssccssssssssss" />
  <path
     id="rect7040"
     style="opacity:0.4;stroke-width:0.264583;stroke-linejoin:round"
     d="M 1.0583333,0.26458333 C 0.21187339,0.26458333 0,0.47645663 0,1.3229166 v 1.5875 C 0,3.7568766 0.21187339,3.96875 1.0583333,3.96875 H 3.175 C 4.021402,3.9689566 4.2332756,3.7570833 4.2333333,2.9104166 v -1.5875 C 4.2332756,0.42374666 4.021402,0.26478997 3.175,0.26458333 Z M 0.94929604,0.52916666 H 1.3229166 3.175 c 0.5820833,0 0.79375,-2.9e-7 0.79375,0.79374994 v 0.1829346 1.2216309 0.1829345 c 0,0.79375 -0.2116667,0.79375 -0.79375,0.79375 H 1.3229166 1.0583333 c -0.5820832,0 -0.79374997,0 -0.79374997,-0.79375 V 2.7274821 1.5058512 1.3229166 c 0,-0.74414078 0.16294232,-0.79084294 0.68471271,-0.79374994 z"
     sodipodi:nodetypes="ssssccccsccssccsscssccsc" />
</svg>
