<?xml version="1.0" encoding="UTF-8" standalone="no"?>
<!-- Created with Inkscape (http://www.inkscape.org/) -->

<svg
   width="16"
   height="16"
   viewBox="0 0 4.2333333 4.2333333"
   version="1.1"
   id="svg1003"
   sodipodi:docname="preferences-system-sharing.svg"
   inkscape:version="1.1.2 (0a00cf5339, 2022-02-04)"
   xmlns:inkscape="http://www.inkscape.org/namespaces/inkscape"
   xmlns:sodipodi="http://sodipodi.sourceforge.net/DTD/sodipodi-0.dtd"
   xmlns:xlink="http://www.w3.org/1999/xlink"
   xmlns="http://www.w3.org/2000/svg"
   xmlns:svg="http://www.w3.org/2000/svg">
  <sodipodi:namedview
     id="namedview1005"
     pagecolor="#ffffff"
     bordercolor="#666666"
     borderopacity="1.0"
     inkscape:pageshadow="2"
     inkscape:pageopacity="0.0"
     inkscape:pagecheckerboard="0"
     inkscape:document-units="px"
     showgrid="false"
     units="px"
     showguides="true"
     inkscape:lockguides="true"
     inkscape:zoom="40.002039"
     inkscape:cx="7.1371362"
     inkscape:cy="10.436968"
     inkscape:window-width="1851"
     inkscape:window-height="1049"
     inkscape:window-x="0"
     inkscape:window-y="0"
     inkscape:window-maximized="1"
     inkscape:current-layer="svg1003" />
  <defs
     id="defs1000">
    <linearGradient
       inkscape:collect="always"
       id="linearGradient17934">
      <stop
         style="stop-color:#8c59d9;stop-opacity:1"
         offset="0"
         id="stop17930" />
      <stop
         style="stop-color:#a7a7f1;stop-opacity:1"
         offset="1"
         id="stop17932" />
    </linearGradient>
    <linearGradient
       inkscape:collect="always"
       xlink:href="#linearGradient1871"
       id="linearGradient16320"
       x1="10"
       y1="4"
       x2="10"
       y2="29.100245"
       gradientUnits="userSpaceOnUse"
       gradientTransform="matrix(0.13229166,0,0,0.12211538,0,0.04070512)" />
    <linearGradient
       inkscape:collect="always"
       id="linearGradient1871">
      <stop
         style="stop-color:#ffffff;stop-opacity:1;"
         offset="0"
         id="stop1867" />
      <stop
         style="stop-color:#ffffff;stop-opacity:0.1"
         offset="0.12"
         id="stop2515" />
      <stop
         style="stop-color:#ffffff;stop-opacity:0.102"
         offset="0.89999998"
         id="stop2581" />
      <stop
         style="stop-color:#ffffff;stop-opacity:0.502"
         offset="1"
         id="stop1869" />
    </linearGradient>
    <linearGradient
       inkscape:collect="always"
       xlink:href="#linearGradient17934"
       id="linearGradient17936"
       x1="1.0583333"
       y1="0.26458332"
       x2="3.1669822"
       y2="3.9714224"
       gradientUnits="userSpaceOnUse" />
    <clipPath
       id="clipPath1225-9">
      <path
         d="m 330.31,236.5 c 4.5406,0 5.1895,0.64729 5.1895,5.1836 v 3.6328 c 0,4.5363 -0.64891,5.1836 -5.1895,5.1836 h -4.6211 c -4.5405,0 -5.1894,-0.6473 -5.1894,-5.1836 v -3.6328 c 0,-4.5363 0.64892,-5.1836 5.1895,-5.1836 z"
         fill="#325fd1"
         id="path7" />
    </clipPath>
  </defs>
  <path
     d="M 1.0583333,0.396875 H 3.175 c 0.7935019,1.919e-4 0.9259876,0.157244 0.9260416,0.9921875 V 2.8376562 C 4.1009876,3.6238466 3.9685019,3.8366501 3.175,3.8364583 H 1.0583333 c -0.79355622,0 -0.92604169,-0.2128036 -0.92604169,-0.9988021 V 1.3890625 c 0,-0.7859985 0.13248546,-0.9921875 0.92604169,-0.9921875 z"
     style="fill:url(#linearGradient17936);fill-opacity:1;stroke-width:0.0653156;stroke-linejoin:round"
     id="path17503"
     sodipodi:nodetypes="sccccssss" />
  <path
     id="path17503-7"
     style="opacity:0.2;fill:#ffffff;fill-opacity:1;stroke-width:0.246862;stroke-linejoin:round"
     d="M 4.4550781 2 C 4.2404399 2.1263829 4.0321661 2.2634354 3.8320312 2.4121094 L 4.890625 2.4121094 L 4.890625 2 L 4.4550781 2 z M 5.8886719 2 L 5.7402344 2.1699219 L 6.4667969 2.8945312 L 6.4667969 3.6542969 L 7.3144531 4.59375 L 7.8007812 4.59375 L 7.8007812 4.1074219 L 8.5273438 3.3808594 L 8.5273438 2.8945312 L 9.0117188 2.4121094 L 9.0117188 2 L 5.8886719 2 z M 1.5449219 2.4589844 C 1.151572 2.8584519 1 3.60501 1 5 L 1 5.6914062 L 1 7.7265625 L 1.7421875 8.46875 L 2.46875 8.46875 L 3.6796875 9.6816406 L 3.6796875 8.2285156 L 4.4082031 7.5 L 4.890625 7.5 L 5.6191406 6.7714844 L 6.3457031 6.7714844 L 5.9824219 6.4101562 L 6.7089844 5.5605469 L 5.9824219 4.8339844 L 4.890625 4.8339844 L 4.890625 5.8046875 L 4.4082031 5.8046875 L 3.921875 5.3183594 L 3.921875 4.8339844 L 4.6503906 4.1074219 L 5.2558594 4.1074219 L 5.2558594 3.6230469 L 4.5273438 2.8945312 L 3.3164062 2.8945312 L 3.3164062 3.6230469 L 2.7109375 3.6230469 L 1.5449219 2.4589844 z M 11.677734 3.3808594 L 10.949219 4.1074219 L 10.949219 4.7128906 L 11.677734 4.7128906 L 11.677734 4.3496094 L 12.162109 4.3496094 L 12.162109 4.8339844 L 11.919922 5.0761719 L 10.949219 5.09375 L 10.585938 5.4414062 L 10.101562 5.4414062 L 10.101562 5.9238281 L 9.7382812 6.2890625 L 9.7382812 7.015625 L 10.466797 7.015625 L 10.949219 6.5292969 L 11.435547 6.5292969 L 11.435547 6.7714844 L 11.919922 7.2578125 L 12.162109 7.2578125 L 12.162109 7.015625 L 11.677734 6.5292969 L 12.162109 6.5292969 L 12.646484 7.015625 L 13.253906 7.015625 L 12.888672 6.6523438 L 13.253906 6.2890625 L 13.615234 6.2890625 L 13.978516 6.6523438 L 13.615234 6.6523438 L 13.253906 7.015625 L 13.609375 7.3710938 L 13.617188 7.7421875 L 13.130859 7.7421875 L 14.583984 9.1953125 L 15 9.1953125 L 15 5.6914062 L 15 5 C 15 4.315836 14.957518 3.7885524 14.867188 3.3808594 L 11.677734 3.3808594 z M 13.130859 7.7421875 L 11.677734 7.7421875 L 11.435547 7.5 L 9.9804688 7.5 L 9.1328125 8.3476562 L 9.1328125 9.5585938 L 9.7382812 10.166016 L 10.585938 10.166016 L 10.949219 10.529297 L 10.949219 10.892578 L 11.191406 11.134766 L 11.191406 12.587891 L 12.113281 13.5625 L 13.630859 12.041016 L 13.615234 10.650391 L 14.826172 9.4394531 L 14.341797 9.4394531 L 13.130859 8.2285156 L 13.130859 7.7421875 z M 8.40625 4.3496094 L 8.40625 4.7128906 L 9.1328125 4.7128906 L 8.7675781 4.3496094 L 8.40625 4.3496094 z M 10.585938 4.4707031 L 10.224609 4.8339844 L 10.224609 5.1992188 L 10.585938 5.1992188 L 10.585938 4.4707031 z M 6.8300781 5.8046875 L 6.4667969 6.1660156 L 6.8300781 6.1660156 L 6.9511719 6.2890625 L 7.0722656 6.2890625 L 7.1953125 6.1660156 L 6.8300781 5.8046875 z M 4.7714844 8.3476562 L 4.4082031 8.7109375 L 5.1328125 8.7109375 L 5.1328125 8.3476562 L 4.7714844 8.3476562 z M 4.4082031 9.4394531 L 3.921875 9.9238281 L 3.921875 11.134766 L 4.8964844 11.986328 L 4.890625 13.074219 L 4.5273438 13.435547 L 4.5273438 14 L 5 14 L 5.7246094 14 L 6.4667969 13.316406 L 6.4667969 12.830078 L 7.1953125 12.105469 L 7.1953125 11.740234 L 7.5566406 11.376953 L 7.5566406 10.40625 L 7.0722656 9.9238281 L 6.1035156 9.9238281 L 5.6191406 9.4394531 L 4.4082031 9.4394531 z M 14.052734 11.517578 L 13.978516 11.587891 L 13.978516 11.636719 C 14.003502 11.596977 14.02861 11.557783 14.052734 11.517578 z "
     transform="scale(0.26458333)" />
  <path
     id="rect13250"
     style="opacity:0.699;fill:url(#linearGradient16320);fill-opacity:1;stroke-width:0.127101;stroke-linejoin:round"
     d="M 0.94929604,0.52916666 C 0.4275256,0.53207345 0.26458333,0.5787759 0.26458333,1.3229166 v 0.1829346 1.2216309 0.1829345 c 0,0.79375 0.21166674,0.79375 0.79374997,0.79375 H 1.3229166 3.175 c 0.5820833,0 0.79375,0 0.79375,-0.79375 V 2.7274821 1.5058512 1.3229166 C 3.96875,0.52916642 3.7570833,0.52916666 3.175,0.52916666 H 1.3229166 Z m 0.0847494,0.26458333 c 0.0079,-4.458e-5 0.016138,0 0.024288,0 H 3.175 c 0.5216072,0 0.5291666,0.0892859 0.5291666,0.52916661 v 1.5875 c 0,0.4398807 -0.00756,0.5291667 -0.5291666,0.5291667 H 1.0583333 c -0.52160723,0 -0.52916664,-0.089286 -0.52916664,-0.5291667 v -1.5875 c 0,-0.4330075 0.007113,-0.52635721 0.50487874,-0.52916661 z"
     sodipodi:nodetypes="csccsscssccssccssssssssss" />
  <path
     id="rect7040"
     style="opacity:0.4;stroke-width:0.264583;stroke-linejoin:round"
     d="M 1.0583333,0.26458333 C 0.21187339,0.26458333 0,0.47645663 0,1.3229166 v 1.5875 C 0,3.7568766 0.21187339,3.96875 1.0583333,3.96875 H 3.175 C 4.021402,3.9689566 4.2332756,3.7570833 4.2333333,2.9104166 v -1.5875 C 4.2332756,0.42374666 4.021402,0.26478997 3.175,0.26458333 Z M 0.94929604,0.52916666 H 1.3229166 3.175 c 0.5820833,0 0.79375,-2.9e-7 0.79375,0.79374994 v 0.1829346 1.2216309 0.1829345 c 0,0.79375 -0.2116667,0.79375 -0.79375,0.79375 H 1.3229166 1.0583333 c -0.5820832,0 -0.79374997,0 -0.79374997,-0.79375 V 2.7274821 1.5058512 1.3229166 c 0,-0.74414078 0.16294232,-0.79084294 0.68471271,-0.79374994 z"
     sodipodi:nodetypes="ssssccccsccssccsscssccsc" />
  <path
     d="m 1.8431347,1.0583333 c -0.054952,6.112e-4 -0.095308,-0.00114 -0.1281576,0.017053 -0.017003,0.00965 -0.030012,0.025036 -0.03669,0.043408 -0.0072,0.019172 -0.00982,0.041583 -0.00982,0.07028 v 0.4915023 c 0,0.028697 0.00274,0.051625 0.00982,0.070797 0.00663,0.0184 0.019652,0.033805 0.03669,0.043408 0.032727,0.018073 0.073205,0.016443 0.1281576,0.017053 h 0.2025665 l -5.291e-4,0.2439131 h -0.691827 c -0.081451,0 -0.1392779,0.050024 -0.1617472,0.095085 -0.022591,0.045183 -0.021704,0.088367 -0.021704,0.088367 V 2.4221342 H 0.96789758 c -0.054952,6.086e-4 -0.095309,-0.00114 -0.12815759,0.017052 -0.017003,0.00965 -0.030012,0.025035 -0.03669,0.043408 -0.0072,0.019172 -0.0093,0.041583 -0.0093,0.07028 v 0.4914217 c 0,0.028697 0.00222,0.051624 0.0093,0.070797 0.00663,0.018399 0.019652,0.033805 0.03669,0.043408 0.032727,0.018074 0.073206,0.015928 0.12815759,0.016536 H 1.4943652 c 0.054952,-6.086e-4 0.095308,0.00167 0.1281575,-0.016536 0.016844,-0.0097 0.029672,-0.02509 0.036173,-0.043408 0.00708,-0.019172 0.00982,-0.042099 0.00982,-0.070797 V 2.5528743 c 0,-0.028697 -0.00274,-0.05123 -0.00982,-0.07028 -0.00654,-0.018295 -0.019357,-0.033676 -0.036173,-0.043407 -0.032849,-0.018317 -0.073205,-0.016443 -0.1281575,-0.017053 H 1.2918504 V 2.2391991 c 0,0 8.467e-4,-0.018232 0.00879,-0.034106 0.00806,-0.015997 0.012045,-0.026872 0.05271,-0.026872 h 1.5057917 c 0.040665,0 0.044134,0.010874 0.052193,0.026872 0.00794,0.015875 0.00878,0.034106 0.00878,0.034106 V 2.4221336 H 2.7181183 c -0.054952,6.086e-4 -0.095308,-0.00114 -0.1281575,0.017052 -0.016809,0.00974 -0.029625,0.025119 -0.036174,0.043408 -0.0072,0.019172 -0.00982,0.041583 -0.00982,0.07028 v 0.4914223 c 0,0.028697 0.00274,0.051624 0.00982,0.070797 0.0065,0.018317 0.019331,0.03371 0.036174,0.043408 0.032727,0.018074 0.073205,0.015928 0.1281575,0.016536 h 0.5264678 c 0.054952,-6.086e-4 0.095308,0.00167 0.1281575,-0.016536 0.017039,-0.0096 0.03006,-0.025008 0.03669,-0.043408 0.00708,-0.019172 0.0093,-0.042099 0.0093,-0.070797 V 2.5528743 c 0,-0.028697 -0.00222,-0.05123 -0.0093,-0.07028 -0.00667,-0.018378 -0.01968,-0.033771 -0.03669,-0.043408 -0.03285,-0.018317 -0.073207,-0.016441 -0.1281588,-0.017053 H 3.042588 V 2.2391991 c 0,0 8.732e-4,-0.043184 -0.021704,-0.088367 C 2.988829,2.0915411 2.926533,2.0549201 2.8591368,2.0557471 H 2.1671409 L 2.16767,1.8118343 h 0.2019367 c 0.054952,-6.112e-4 0.094792,0.00114 0.1276408,-0.017053 0.017039,-0.0096 0.03006,-0.025008 0.03669,-0.043408 0.00708,-0.019172 0.00982,-0.042099 0.00982,-0.070797 V 1.1890746 c 0,-0.028697 -0.00274,-0.05123 -0.00982,-0.07028 -0.00667,-0.018378 -0.01968,-0.033771 -0.03669,-0.043408 -0.032849,-0.018317 -0.072689,-0.016442 -0.1276408,-0.017053 h -5.292e-4 z"
     style="color:#000000;font-weight:400;font-variant-ligatures:normal;font-variant-position:normal;font-variant-caps:normal;font-variant-numeric:normal;font-variant-alternates:normal;font-feature-settings:normal;text-indent:0;text-decoration-line:none;text-decoration-style:solid;text-decoration-color:#000000;text-transform:none;text-orientation:mixed;white-space:normal;shape-padding:0;isolation:auto;mix-blend-mode:normal;fill:#ffffff;fill-opacity:0.94118;stroke-width:0.264589"
     id="path923"
     sodipodi:nodetypes="cccsscccccsccccccssccccccssccccccssccccccssccccccssccccccccccccssccccc" />
</svg>
