<?xml version="1.0" encoding="UTF-8" standalone="no"?>
<!-- Created with Inkscape (http://www.inkscape.org/) -->

<svg
   width="16"
   height="16"
   viewBox="0 0 4.2333333 4.2333333"
   version="1.1"
   id="svg1003"
   sodipodi:docname="yast-control-center.svg"
   inkscape:version="1.1.2 (0a00cf5339, 2022-02-04)"
   xmlns:inkscape="http://www.inkscape.org/namespaces/inkscape"
   xmlns:sodipodi="http://sodipodi.sourceforge.net/DTD/sodipodi-0.dtd"
   xmlns:xlink="http://www.w3.org/1999/xlink"
   xmlns="http://www.w3.org/2000/svg"
   xmlns:svg="http://www.w3.org/2000/svg">
  <sodipodi:namedview
     id="namedview1005"
     pagecolor="#ffffff"
     bordercolor="#666666"
     borderopacity="1.0"
     inkscape:pageshadow="2"
     inkscape:pageopacity="0.0"
     inkscape:pagecheckerboard="0"
     inkscape:document-units="px"
     showgrid="false"
     units="px"
     showguides="true"
     inkscape:lockguides="true"
     inkscape:zoom="28.285713"
     inkscape:cx="6.8409094"
     inkscape:cy="9.5631317"
     inkscape:window-width="1851"
     inkscape:window-height="1016"
     inkscape:window-x="0"
     inkscape:window-y="0"
     inkscape:window-maximized="1"
     inkscape:current-layer="svg1003" />
  <defs
     id="defs1000">
    <linearGradient
       inkscape:collect="always"
       id="linearGradient17934">
      <stop
         style="stop-color:#8b9fa7;stop-opacity:1"
         offset="0"
         id="stop17930" />
      <stop
         style="stop-color:#c5cfd3;stop-opacity:1"
         offset="1"
         id="stop17932" />
    </linearGradient>
    <linearGradient
       inkscape:collect="always"
       xlink:href="#linearGradient1871"
       id="linearGradient16320"
       x1="10"
       y1="4"
       x2="10"
       y2="29.100245"
       gradientUnits="userSpaceOnUse"
       gradientTransform="matrix(0.13229166,0,0,0.12211538,0,0.04070512)" />
    <linearGradient
       inkscape:collect="always"
       id="linearGradient1871">
      <stop
         style="stop-color:#ffffff;stop-opacity:1;"
         offset="0"
         id="stop1867" />
      <stop
         style="stop-color:#ffffff;stop-opacity:0.1"
         offset="0.12"
         id="stop2515" />
      <stop
         style="stop-color:#ffffff;stop-opacity:0.102"
         offset="0.89999998"
         id="stop2581" />
      <stop
         style="stop-color:#ffffff;stop-opacity:0.502"
         offset="1"
         id="stop1869" />
    </linearGradient>
    <linearGradient
       inkscape:collect="always"
       xlink:href="#linearGradient17934"
       id="linearGradient17936"
       x1="1.0583333"
       y1="0.39687499"
       x2="2.42802"
       y2="3.8377948"
       gradientUnits="userSpaceOnUse" />
  </defs>
  <path
     d="M 1.0583333,0.396875 H 3.175 c 0.7935019,1.919e-4 0.9259876,0.157244 0.9260416,0.9921875 V 2.8376562 C 4.1009876,3.6238466 3.9685019,3.8366501 3.175,3.8364583 H 1.0583333 c -0.79355622,0 -0.92604169,-0.2128036 -0.92604169,-0.9988021 V 1.3890625 c 0,-0.7859985 0.13248546,-0.9921875 0.92604169,-0.9921875 z"
     style="fill:url(#linearGradient17936);fill-opacity:1;stroke-width:0.0653156;stroke-linejoin:round"
     id="path17503"
     sodipodi:nodetypes="sccccssss" />
  <path
     id="rect13250"
     style="opacity:0.699;fill:url(#linearGradient16320);fill-opacity:1;stroke-width:0.127101;stroke-linejoin:round"
     d="M 0.94929604,0.52916666 C 0.4275256,0.53207345 0.26458333,0.5787759 0.26458333,1.3229166 v 0.1829346 1.2216309 0.1829345 c 0,0.79375 0.21166674,0.79375 0.79374997,0.79375 H 1.3229166 3.175 c 0.5820833,0 0.79375,0 0.79375,-0.79375 V 2.7274821 1.5058512 1.3229166 C 3.96875,0.52916642 3.7570833,0.52916666 3.175,0.52916666 H 1.3229166 Z m 0.0847494,0.26458333 c 0.0079,-4.458e-5 0.016138,0 0.024288,0 H 3.175 c 0.5216072,0 0.5291666,0.0892859 0.5291666,0.52916661 v 1.5875 c 0,0.4398807 -0.00756,0.5291667 -0.5291666,0.5291667 H 1.0583333 c -0.52160723,0 -0.52916664,-0.089286 -0.52916664,-0.5291667 v -1.5875 c 0,-0.4330075 0.007113,-0.52635721 0.50487874,-0.52916661 z"
     sodipodi:nodetypes="csccsscssccssccssssssssss" />
  <path
     id="rect7040"
     style="opacity:0.4;stroke-width:0.264583;stroke-linejoin:round"
     d="M 1.0583333,0.26458333 C 0.21187339,0.26458333 0,0.47645663 0,1.3229166 v 1.5875 C 0,3.7568766 0.21187339,3.96875 1.0583333,3.96875 H 3.175 C 4.021402,3.9689566 4.2332756,3.7570833 4.2333333,2.9104166 v -1.5875 C 4.2332756,0.42374666 4.021402,0.26478997 3.175,0.26458333 Z M 0.94929604,0.52916666 H 1.3229166 3.175 c 0.5820833,0 0.79375,-2.9e-7 0.79375,0.79374994 v 0.1829346 1.2216309 0.1829345 c 0,0.79375 -0.2116667,0.79375 -0.79375,0.79375 H 1.3229166 1.0583333 c -0.5820832,0 -0.79374997,0 -0.79374997,-0.79375 V 2.7274821 1.5058512 1.3229166 c 0,-0.74414078 0.16294232,-0.79084294 0.68471271,-0.79374994 z"
     sodipodi:nodetypes="ssssccccsccssccsscssccsc" />
  <circle
     style="fill:#2f5361;fill-opacity:1;stroke-width:0.252255;stroke-linejoin:round"
     id="path968"
     cx="2.1166666"
     cy="2.1166666"
     r="1.4552083" />
  <path
     id="rect975"
     style="fill:#c5cfd3;stroke-width:0.264583;stroke-linejoin:round;fill-opacity:1"
     d="M 2.1166323,0.93065236 C 2.0313169,0.9297025 2.001509,0.93239596 1.9895082,1.0355556 l -0.00465,0.03669 c -0.01053,0.066905 -0.012664,0.097295 -0.075964,0.1136881 -0.00424,9.472e-4 -0.00818,0.00158 -0.012402,0.00259 -9.975e-4,2.058e-4 -0.00208,8.308e-4 -0.0031,0.00103 -0.015982,0.00386 -0.031365,0.00827 -0.047026,0.012919 v -5.159e-4 c -0.00262,8.943e-4 -0.00527,0.00181 -0.00775,0.00258 -0.00237,7.25e-4 -0.00436,0.00133 -0.00672,0.00207 -0.06361,0.01784 -0.080772,-0.00759 -0.1235066,-0.060465 l -0.022222,-0.028939 c -0.030987,-0.04167 -0.053221,-0.059562 -0.076998,-0.061495 -0.00297,-2.415e-4 -0.00575,-2.384e-4 -0.00879,0 -0.021257,0.00167 -0.044882,0.014568 -0.076998,0.03359 -0.07436,0.041836 -0.098547,0.05969 -0.057361,0.1550293 l 0.014469,0.03359 c 0.0262,0.068055 0.039769,0.094488 -0.020671,0.1472779 l 0.00155,-5.158e-4 c -0.012492,0.011841 -0.024849,0.024198 -0.03669,0.03669 l 5.159e-4,-0.00155 c -0.052789,0.06044 -0.079222,0.04687 -0.1472772,0.02067 l -0.03359,-0.014469 c -0.029794,-0.012871 -0.052035,-0.019083 -0.069763,-0.019637 -0.039001,-0.00122 -0.056503,0.025875 -0.085266,0.076998 -0.043479,0.073411 -0.055433,0.1008075 0.027905,0.1627808 l 0.028939,0.022221 c 0.052877,0.042734 0.078307,0.059896 0.060461,0.1235067 -7.435e-4,0.00236 -0.00134,0.00435 -0.00207,0.00672 -7.753e-4,0.00248 -0.00169,0.00514 -0.00258,0.00775 h 5.159e-4 c -0.00465,0.015661 -0.00906,0.031044 -0.012919,0.047026 -2.01e-4,0.00102 -8.255e-4,0.0021 -0.00103,0.0031 -0.00101,0.00422 -0.00164,0.00816 -0.00259,0.012402 -0.016391,0.0633 -0.046779,0.065435 -0.1136847,0.075964 l -0.03669,0.00465 c -0.10315916,0.012 -0.10585226,0.041809 -0.10490316,0.1271241 -9.498e-4,0.085315 0.00174,0.1151232 0.10490316,0.1271241 l 0.03669,0.00465 c 0.066905,0.01053 0.097295,0.012664 0.1136882,0.075964 9.472e-4,0.00424 0.00158,0.00818 0.00259,0.012402 2.057e-4,9.975e-4 8.307e-4,0.00208 0.00103,0.0031 0.00386,0.015982 0.00827,0.031365 0.012919,0.047025 h -5.16e-4 c 8.943e-4,0.00262 0.00181,0.00527 0.00259,0.00775 7.25e-4,0.00237 0.00132,0.00436 0.00207,0.00672 0.017844,0.06361 -0.00759,0.080772 -0.060462,0.1235067 l -0.028939,0.022221 c -0.083341,0.061972 -0.071388,0.08937 -0.027909,0.1627808 0.041836,0.07436 0.05969,0.098546 0.1550294,0.057361 l 0.03359,-0.01447 c 0.068055,-0.026199 0.094488,-0.039769 0.1472779,0.020672 l -5.159e-4,-0.00156 c 0.011841,0.012494 0.024198,0.024852 0.03669,0.03669 l -0.00155,-5.292e-4 c 0.060441,0.05279 0.046871,0.079223 0.020671,0.147278 l -0.014469,0.03359 c -0.041187,0.095339 -0.016999,0.1131917 0.057361,0.1550292 0.073411,0.04348 0.1008075,0.055433 0.1627808,-0.027905 l 0.022221,-0.028939 c 0.042734,-0.052877 0.059896,-0.078305 0.1235067,-0.060462 0.00236,7.408e-4 0.00435,0.00135 0.00672,0.00206 0.00248,7.673e-4 0.00514,0.00169 0.00775,0.00259 0.015661,0.00465 0.031044,0.00855 0.047026,0.012401 0.00102,2.024e-4 0.0021,8.202e-4 0.0031,0.00103 0.00422,0.00101 0.00816,0.00164 0.012402,0.00259 0.0633,0.016394 0.065435,0.046783 0.075964,0.1136883 l 0.00465,0.03669 c 0.011999,0.1031695 0.041806,0.1058627 0.1271232,0.1049137 0.085315,9.525e-4 0.1151232,-0.00175 0.1271241,-0.1049031 l 0.00465,-0.03669 c 0.010531,-0.066905 0.012664,-0.097295 0.075964,-0.1136883 0.00424,-9.525e-4 0.00818,-0.00159 0.012402,-0.00259 9.975e-4,-2.071e-4 0.00208,-8.202e-4 0.0031,-0.00103 0.015982,-0.00386 0.031365,-0.00775 0.047026,-0.012401 0.00262,-8.995e-4 0.00527,-0.0018 0.00775,-0.00259 0.00237,-7.143e-4 0.00436,-0.00132 0.00672,-0.00206 0.06361,-0.017843 0.080772,0.00759 0.1235067,0.060462 l 0.022221,0.028939 c 0.061972,0.083338 0.08937,0.071385 0.1627808,0.027905 0.07436,-0.041836 0.098548,-0.05969 0.057361,-0.1550292 l -0.01447,-0.03359 c -0.026201,-0.068054 -0.03977,-0.094487 0.02067,-0.1472769 l -0.00156,5.291e-4 c 0.012494,-0.01184 0.024852,-0.024196 0.03669,-0.03669 l -5.292e-4,0.00156 c 0.05279,-0.060441 0.079223,-0.046871 0.147278,-0.020672 l 0.03359,0.01447 c 0.095339,0.041187 0.1131933,0.017 0.1550292,-0.057361 0.04348,-0.073411 0.055433,-0.1008076 -0.027905,-0.1627809 L 3.0871154,2.524871 C 3.0342394,2.482136 3.0088094,2.464974 3.0266544,2.4013641 c 7.408e-4,-0.00236 0.00135,-0.00435 0.00206,-0.00672 7.673e-4,-0.00248 0.00169,-0.00514 0.00259,-0.00775 0.00465,-0.015661 0.00855,-0.031044 0.012401,-0.047026 2.024e-4,-0.00102 8.202e-4,-0.0021 0.00103,-0.0031 0.00101,-0.00422 0.00164,-0.00816 0.00259,-0.012402 0.016394,-0.0633 0.046783,-0.065435 0.1136883,-0.075964 l 0.03669,-0.00465 c 0.103147,-0.012 0.1058402,-0.041807 0.1048912,-0.1271239 9.643e-4,-0.085317 -0.00173,-0.1151246 -0.1048913,-0.1271254 l -0.03669,-0.00465 c -0.066905,-0.01053 -0.097295,-0.012664 -0.1136883,-0.075964 -9.525e-4,-0.00424 -0.00159,-0.00818 -0.00259,-0.012402 -2.071e-4,-9.975e-4 -8.202e-4,-0.00208 -0.00103,-0.0031 -0.00386,-0.015982 -0.00775,-0.031365 -0.012401,-0.047026 -8.995e-4,-0.00262 -0.0018,-0.00527 -0.00259,-0.00775 -7.143e-4,-0.00237 -0.00132,-0.00436 -0.00206,-0.00672 -0.017843,-0.06361 0.00759,-0.080772 0.060462,-0.1235067 l 0.028939,-0.022221 c 0.083338,-0.061972 0.071385,-0.08937 0.027905,-0.1627808 -0.028763,-0.051122 -0.046265,-0.078219 -0.085266,-0.076998 -0.017727,5.556e-4 -0.039969,0.00677 -0.069763,0.019637 l -0.03359,0.014469 c -0.068055,0.0262 -0.094488,0.039768 -0.1472779,-0.020671 l 5.291e-4,0.00155 c -0.01184,-0.012492 -0.024196,-0.024851 -0.03669,-0.03669 l 0.00156,5.159e-4 C 2.7129993,1.3724064 2.726569,1.3459733 2.7527694,1.2779181 l 0.014469,-0.03359 c 0.041187,-0.095339 0.016999,-0.1131934 -0.057361,-0.1550294 -0.036706,-0.02174 -0.062006,-0.035521 -0.085783,-0.03359 -0.023777,0.00193 -0.046011,0.019825 -0.076998,0.061495 l -0.022221,0.028939 c -0.042734,0.052877 -0.059896,0.078307 -0.1235068,0.060461 -0.00236,-7.434e-4 -0.00435,-0.00134 -0.00672,-0.00207 -0.00248,-7.752e-4 -0.00514,-0.00169 -0.00775,-0.00259 v 5.16e-4 c -0.015661,-0.00465 -0.031043,-0.00906 -0.047025,-0.012918 -0.00102,-2.011e-4 -0.0021,-8.255e-4 -0.0031,-0.00104 -0.00422,-0.001 -0.00816,-0.00163 -0.012402,-0.00258 -0.0633,-0.016393 -0.065434,-0.046781 -0.075964,-0.1136861 l -0.00465,-0.03669 C 2.2317596,0.93239483 2.2019476,0.9297033 2.1166323,0.93065236 Z m 0,0.48989274 c 0.080121,4.8e-6 0.1576073,0.013878 0.2299602,0.039274 a 0.18981108,0.18981108 0 0 0 0.0863,0.1090373 0.18981108,0.18981108 0 0 0 0.1374594,0.020154 c 0.1139405,0.097922 0.1966324,0.2328827 0.2284099,0.3886069 0.00801,0.039228 -0.021974,0.075968 -0.062012,0.075964 H 2.5408959 C 2.5129099,2.053584 2.4879139,2.0349253 2.4799179,2.0081063 2.4319256,1.8471307 2.2845835,1.7370423 2.1166323,1.736805 c -0.029508,1.597e-4 -0.058659,0.00389 -0.087333,0.010852 -0.02729,0.00663 -0.055719,-0.00565 -0.069763,-0.029972 L 1.8618673,1.548703 C 1.8418913,1.514085 1.8586073,1.469978 1.8964903,1.457236 1.9674273,1.433358 2.0417863,1.420751 2.1166323,1.4205451 Z M 1.7001201,1.5802253 c 0.021529,0.00101 0.041418,0.012856 0.052193,0.031523 l 0.097669,0.1694987 c 0.014006,0.024256 0.01048,0.054599 -0.00879,0.074931 -0.066632,0.070334 -0.104184,0.1635661 -0.1043817,0.2604489 1.107e-4,0.096941 0.03723,0.1900294 0.1038696,0.2604493 0.01925,0.020325 0.023292,0.051199 0.0093,0.075448 L 1.752312,2.6209894 C 1.732304,2.6556464 1.685648,2.6635244 1.655677,2.6370094 1.5392894,2.5340836 1.4615511,2.3961167 1.4329529,2.245818 a 0.18981108,0.18981108 0 0 0 0.05116,-0.1291911 0.18981108,0.18981108 0 0 0 -0.05116,-0.1286744 C 1.4614959,1.8375873 1.5392657,1.6992492 1.6556784,1.596245 c 0.012334,-0.010913 0.02799,-0.01679 0.044442,-0.01602 z m 0.8407758,0.5994468 h 0.1948203 c 0.040037,-3.8e-6 0.070023,0.036737 0.062012,0.075964 C 2.7659602,2.4112701 2.683687,2.5463321 2.569835,2.644243 A 0.18981108,0.18981108 0 0 0 2.523326,2.639073 0.18981108,0.18981108 0 0 0 2.432892,2.664394 0.18981108,0.18981108 0 0 0 2.346592,2.7729147 c -0.072375,0.025509 -0.1497835,0.039709 -0.2299597,0.039794 -0.074814,-2.974e-4 -0.1492662,-0.012747 -0.2201417,-0.03669 -0.037837,-0.012775 -0.054579,-0.056874 -0.034623,-0.091468 l 0.097669,-0.1689818 c 0.014045,-0.024318 0.042473,-0.0366 0.069763,-0.029972 0.028693,0.00697 0.057807,0.010694 0.087333,0.010852 0.1679981,-1.709e-4 0.3157953,-0.1102783 0.3638017,-0.2713014 0.008,-0.026819 0.032475,-0.045478 0.060462,-0.045476 z" />
</svg>
