<?xml version="1.0" encoding="UTF-8" standalone="no"?>
<!-- Created with Inkscape (http://www.inkscape.org/) -->

<svg
   width="32"
   height="32"
   viewBox="0 0 8.4666665 8.4666669"
   version="1.1"
   id="svg2719"
   inkscape:version="1.1.2 (0a00cf5339, 2022-02-04)"
   sodipodi:docname="accessories-character-map.svg"
   xmlns:inkscape="http://www.inkscape.org/namespaces/inkscape"
   xmlns:sodipodi="http://sodipodi.sourceforge.net/DTD/sodipodi-0.dtd"
   xmlns:xlink="http://www.w3.org/1999/xlink"
   xmlns="http://www.w3.org/2000/svg"
   xmlns:svg="http://www.w3.org/2000/svg">
  <sodipodi:namedview
     id="namedview2721"
     pagecolor="#ffffff"
     bordercolor="#666666"
     borderopacity="1.0"
     inkscape:pageshadow="2"
     inkscape:pageopacity="0.0"
     inkscape:pagecheckerboard="0"
     inkscape:document-units="px"
     showgrid="false"
     units="px"
     inkscape:zoom="13.894737"
     inkscape:cx="18.172348"
     inkscape:cy="23.893939"
     inkscape:window-width="1920"
     inkscape:window-height="1010"
     inkscape:window-x="0"
     inkscape:window-y="0"
     inkscape:window-maximized="1"
     inkscape:current-layer="svg2719"
     showguides="false" />
  <defs
     id="defs2716">
    <linearGradient
       inkscape:collect="always"
       id="linearGradient1871">
      <stop
         style="stop-color:#ffffff;stop-opacity:1;"
         offset="0"
         id="stop1867" />
      <stop
         style="stop-color:#ffffff;stop-opacity:0.1"
         offset="0.12"
         id="stop2515" />
      <stop
         style="stop-color:#ffffff;stop-opacity:0.102"
         offset="0.89999998"
         id="stop2581" />
      <stop
         style="stop-color:#ffffff;stop-opacity:0.502"
         offset="1"
         id="stop1869" />
    </linearGradient>
    <linearGradient
       inkscape:collect="always"
       xlink:href="#linearGradient1871"
       id="linearGradient16320"
       x1="10"
       y1="4"
       x2="10"
       y2="29.100245"
       gradientUnits="userSpaceOnUse"
       gradientTransform="matrix(0.26458333,0,0,0.26458333,0,-0.26458332)" />
    <linearGradient
       inkscape:collect="always"
       xlink:href="#linearGradient2330"
       id="linearGradient2332"
       x1="6.3499999"
       y1="6.2177086"
       x2="7.4083333"
       y2="6.2177086"
       gradientUnits="userSpaceOnUse"
       gradientTransform="matrix(0.50000003,0,0,0.64285715,1.0583332,0.2362352)" />
    <linearGradient
       inkscape:collect="always"
       id="linearGradient2330">
      <stop
         style="stop-color:#000000;stop-opacity:1;"
         offset="0"
         id="stop2326" />
      <stop
         style="stop-color:#000000;stop-opacity:0;"
         offset="1"
         id="stop2328" />
    </linearGradient>
  </defs>
  <path
     id="rect18683"
     style="opacity:0.1;fill:#000000;stroke-width:0.264583;stroke-linejoin:round"
     d="m 2.38125,0.92604165 c -1.45520832,0 -1.984375,0.52916665 -1.984375,1.98437495 v 3.0427085 c 0,1.5875 0.52916665,2.1166666 2.1166666,2.1166666 h 3.4395833 c 1.5875,0 2.1166667,-0.5291666 2.1166667,-2.1166666 V 3.0427083 c 0,-1.5875 -0.5291667,-2.11666665 -2.1166667,-2.11666665 z"
     sodipodi:nodetypes="sssssssss" />
  <path
     id="rect6397"
     style="fill:#f6f5f4;fill-opacity:1;stroke-width:0.255274;stroke-linejoin:round"
     d="M 0.39687499,2.6458334 C 0.396875,1.190625 0.92604165,0.66145833 2.38125,0.66145834 h 3.571875 c 1.5874999,-1e-8 2.1166666,0.52916666 2.1166668,2.11666666 l 10e-8,2.9104168 c 0,1.5874999 -0.529166,2.1166666 -2.116666,2.1166666 H 2.5135417 c -1.58750001,0 -2.11666671,-0.5291667 -2.11666671,-2.1166667 z"
     sodipodi:nodetypes="ccccccccc" />
  <path
     id="rect960"
     style="opacity:1;fill:#3584e4;fill-opacity:1;stroke-width:0.999999;stroke-linejoin:round"
     d="m 16,2.5 v 27 h 6.5 c 6,0 8,-2 8,-8 v -11 c 0,-6 -2,-8 -8,-8 z"
     transform="scale(0.26458333)"
     sodipodi:nodetypes="ccssssc" />
  <path
     id="rect2437"
     style="opacity:0.1;fill:#f9f9f9;fill-opacity:1;stroke-width:0.264583;stroke-linejoin:round"
     d="m 8.0697916,4.2333332 v 1.4552084 c 0,1.5874999 -0.5291666,2.1166666 -2.1166666,2.1166666 H 4.2333333 v -3.571875 z"
     sodipodi:nodetypes="cssccc" />
  <rect
     style="opacity:0.05;fill:url(#linearGradient2332);fill-opacity:1;stroke-width:0.151823;stroke-linejoin:round"
     id="rect2208"
     width="0.5291667"
     height="7.1437502"
     x="4.2333331"
     y="0.66145831" />
  <path
     id="rect40"
     d="m 6.3676095,2.9104167 c -0.029316,0 -0.05271,0.023394 -0.05271,0.05271 v 0.1591632 c 0,0.029316 0.023394,0.05271 0.05271,0.05271 h 0.1591633 c 0.029316,0 0.05271,-0.023394 0.05271,-0.05271 V 2.9631267 c 0,-0.029316 -0.023394,-0.05271 -0.05271,-0.05271 z M 6.1030262,3.175 c -0.029316,0 -0.05271,0.023394 -0.05271,0.05271 v 0.1591633 c 0,0.029316 0.023394,0.05271 0.05271,0.05271 h 0.1591633 c 0.029316,0 0.05271,-0.023394 0.05271,-0.05271 V 3.22771 c 0,-0.029316 -0.023394,-0.05271 -0.05271,-0.05271 z m 0.5291667,0 c -0.029316,0 -0.05271,0.023394 -0.05271,0.05271 v 0.1591633 c 0,0.029316 0.023394,0.05271 0.05271,0.05271 h 0.1591633 c 0.029316,0 0.05271,-0.023394 0.05271,-0.05271 V 3.22771 c 0,-0.029316 -0.023394,-0.05271 -0.05271,-0.05271 z m 0.6821289,0.3581177 -0.2526977,0.077514 c 0,0 0.04005,0.1322051 0.059944,0.2811198 0.00995,0.074457 0.014139,0.1523235 0.00775,0.212907 -0.00639,0.060584 -0.024429,0.09781 -0.034623,0.1080037 -0.010589,0.010589 -0.048784,0.029196 -0.1100709,0.035657 -0.061287,0.00646 -0.1397754,0.0023 -0.214974,-0.00775 C 6.668844,4.2271013 6.6298799,4.2132625 6.5794828,4.1997436 V 3.7041666 H 6.3148995 V 4.203361 c -0.010687,0.00267 -0.00938,0.0029 -0.021188,0.00568 C 6.2288065,4.224366 6.147504,4.239095 6.1138773,4.240047 6.0581093,4.241637 5.9428295,4.227061 5.849811,4.210591 5.814099,4.204271 5.812727,4.203151 5.785733,4.197673 V 3.7041666 H 5.5211495 v 0.7074503 0.2092897 c -5.821e-4,0.00463 -0.00329,0.027769 -0.010853,0.059428 -0.00625,0.026165 -0.012319,0.036681 -0.012401,0.041341 -0.1216324,0.050383 -0.2241444,0.097298 -0.2806031,0.1100709 -0.062041,0.014036 -0.077079,0.012213 -0.1338418,-0.035657 -0.020921,-0.022929 -0.043971,-0.073942 -0.052193,-0.1519288 -0.00851,-0.080685 -0.00296,-0.1808588 0.00982,-0.2764689 0.025546,-0.1912197 0.077515,-0.3601847 0.077515,-0.3601847 L 4.8653764,3.9299931 c 0,0 -0.057278,0.1853258 -0.0863,0.4025593 -0.01451,0.1086168 -0.022807,0.2261045 -0.010853,0.3395142 0.011956,0.1134096 0.042584,0.2286198 0.1302244,0.3162598 l 0.00362,0.00362 0.00362,0.0031 C 5.0159902,5.0898934 5.157719,5.1168185 5.2756853,5.0901314 5.3936514,5.0634444 5.498387,5.0068684 5.6369035,4.9511219 l 0.024805,-0.00982 0.019121,-0.019121 c 0.066471,-0.066485 0.07435,-0.1281441 0.086816,-0.1803509 0.012467,-0.052207 0.017052,-0.096635 0.017052,-0.096635 l 0.00103,-0.00775 V 4.4674276 c 0.00959,0.00177 0.00803,0.00183 0.018087,0.00362 0.1000154,0.017708 0.2173451,0.036431 0.3178101,0.03359 0.078332,-0.00222 0.1612392,-0.020767 0.2330608,-0.037724 0.054018,-0.012753 0.07776,-0.019881 0.097152,-0.025321 0.032976,0.00976 0.1299686,0.040578 0.2826702,0.060978 0.088206,0.011785 0.1840077,0.018696 0.2780192,0.00878 0.094012,-0.00991 0.1925008,-0.034888 0.2692342,-0.1116211 0.076335,-0.076338 0.1007506,-0.1743768 0.1105876,-0.2676837 0.00984,-0.093307 0.00342,-0.1879714 -0.00827,-0.2754355 -0.02337,-0.1749269 -0.069762,-0.3234931 -0.069763,-0.3234926 z"
     style="stroke-width:0.264583;fill:#faf8f3;fill-opacity:1" />
  <circle
     style="opacity:1;fill:#fdc92b;fill-opacity:1;stroke-width:0.223382;stroke-linecap:round;stroke-linejoin:round"
     id="path1093"
     cx="2.2489586"
     cy="2.5135419"
     r="1.190625" />
  <path
     id="path1112"
     style="color:#000000;fill:#f46270;stroke-width:0.0661458;stroke-linecap:round;stroke-linejoin:round;-inkscape-stroke:none"
     d="m 1.8437749,2.767809 a 0.03307622,0.03307622 0 0 0 -0.021704,0.00775 L 1.7042486,2.874778 a 0.03307622,0.03307622 0 0 0 -0.00258,0.048059 c 0.1433347,0.1484478 0.340903,0.2325429 0.5472545,0.232545 0.2063515,-2.1e-6 0.403921,-0.084096 0.5472534,-0.2325438 a 0.03307622,0.03307622 0 0 0 -0.00259,-0.048059 l -0.118342,-0.099219 a 0.03307622,0.03307622 0 0 0 -0.046509,0.00414 C 2.5344774,2.8920304 2.3955723,2.9569422 2.2489181,2.9569446 2.1022668,2.9569422 1.9633679,2.8920314 1.8690963,2.7796944 A 0.03307622,0.03307622 0 0 0 1.8437749,2.767809 Z" />
  <path
     id="circle36"
     d="M 1.9843749,2.1166667 A 0.13229166,0.13229166 0 0 0 1.8520833,2.2489583 0.13229166,0.13229166 0 0 0 1.9843749,2.38125 0.13229166,0.13229166 0 0 0 2.1166666,2.2489583 0.13229166,0.13229166 0 0 0 1.9843749,2.1166667 Z m 0.5291667,0 A 0.13229166,0.13229166 0 0 0 2.3812499,2.2489583 0.13229166,0.13229166 0 0 0 2.5135416,2.38125 0.13229166,0.13229166 0 0 0 2.6458333,2.2489583 0.13229166,0.13229166 0 0 0 2.5135416,2.1166667 Z"
     style="fill:#4d4d4d;fill-opacity:1;stroke-width:0.264583" />
  <path
     d="m 2.2489603,4.7625 c -0.1045131,0 -0.2090235,0.032221 -0.2734733,0.096681 -0.1289209,0.1289208 -0.081537,0.3838839 0,0.5469731 L 2.2035684,5.861793 2.1576344,5.907727 1.7019954,5.6796482 c -0.1630733,-0.081537 -0.4180416,-0.1289235 -0.5469731,0 -0.1289182,0.1289209 -0.1289182,0.4180416 0,0.5469731 0.1289209,0.1289209 0.383884,0.081537 0.5469731,0 l 0.455639,-0.2280814 0.045934,0.045934 -0.2280814,0.455639 c -0.081537,0.1630732 -0.1289209,0.4180416 0,0.5469731 0.1289208,0.1289182 0.4180416,0.1289182 0.5469731,0 0.1289209,-0.1289235 0.081537,-0.383884 0,-0.5469731 L 2.2943787,6.044475 2.340313,5.9985407 2.7959519,6.2266221 c 0.163076,0.081537 0.4180417,0.1289209 0.5469732,0 0.1289182,-0.1289235 0.1289182,-0.4180417 0,-0.5469731 -0.1289236,-0.1289235 -0.383884,-0.081537 -0.5469732,0 L 2.340313,5.9077278 2.2943787,5.8617934 2.5224601,5.4061545 c 0.081537,-0.1630759 0.1289209,-0.4180417 0,-0.5469731 -0.06446,-0.064461 -0.1689709,-0.096681 -0.2734734,-0.096681 z"
     style="fill:#4d4d4d;stroke-width:0.264583;enable-background:new"
     id="path1263" />
  <path
     id="rect13250"
     style="fill:url(#linearGradient16320);fill-opacity:1;stroke-width:0.264583;stroke-linejoin:round;opacity:0.7"
     d="m 2.6458333,0.79375 c -1.71979143,0 -2.11666664,0.396875 -2.11666664,2.1166666 v 2.6458335 c 0,1.7197919 0.39687515,2.1166666 2.11666664,2.1166666 h 3.175 c 1.7197913,0 2.1166666,-0.3968747 2.1166666,-2.1166666 V 2.9104166 C 7.9374999,1.190625 7.5406249,0.79375 5.8208333,0.79375 Z m 0,0.2645833 h 3.175 c 1.5213541,0 1.8520833,0.3307294 1.8520833,1.8520833 v 2.6458335 c 0,1.5213542 -0.3307292,1.8520833 -1.8520833,1.8520833 h -3.175 c -1.5213541,0 -1.85208331,-0.3307291 -1.85208331,-1.8520833 V 2.9104166 c 0,-1.521354 0.33072921,-1.8520834 1.85208331,-1.8520833 z"
     sodipodi:nodetypes="ssssssssssssssssss" />
  <path
     id="rect2545"
     style="opacity:0.4;fill:#000000;stroke-width:0.387914;stroke-linejoin:round"
     d="m 2.6458333,0.52916667 c -1.91822909,0 -2.38124997,0.4630208 -2.38124997,2.38124993 V 5.55625 c 0,1.8520831 0.52916735,2.38125 2.38124997,2.38125 h 3.175 c 1.8520841,0 2.3812499,-0.5291669 2.3812499,-2.38125 V 2.9104166 c 0,-1.8520832 -0.5291666,-2.38124988 -2.3812499,-2.38124993 z m 0,0.26458333 h 3.175 c 1.7197916,0 2.1166666,0.396875 2.1166666,2.1166666 V 5.55625 c 0,1.7197917 -0.3968753,2.1166666 -2.1166666,2.1166666 h -3.175 c -1.71979162,0 -2.11666664,-0.3968749 -2.11666664,-2.1166666 V 2.9104166 c 0,-1.7197916 0.39687505,-2.1166666 2.11666664,-2.1166666 z"
     sodipodi:nodetypes="ssssssssssssssssss" />
</svg>
