<?xml version="1.0" encoding="UTF-8" standalone="no"?>
<!-- Created with Inkscape (http://www.inkscape.org/) -->

<svg
   width="32"
   height="32"
   viewBox="0 0 8.4666665 8.4666669"
   version="1.1"
   id="svg2719"
   inkscape:version="1.1.2 (0a00cf5339, 2022-02-04)"
   sodipodi:docname="applications-graphics.svg"
   xmlns:inkscape="http://www.inkscape.org/namespaces/inkscape"
   xmlns:sodipodi="http://sodipodi.sourceforge.net/DTD/sodipodi-0.dtd"
   xmlns:xlink="http://www.w3.org/1999/xlink"
   xmlns="http://www.w3.org/2000/svg"
   xmlns:svg="http://www.w3.org/2000/svg">
  <sodipodi:namedview
     id="namedview2721"
     pagecolor="#ffffff"
     bordercolor="#666666"
     borderopacity="1.0"
     inkscape:pageshadow="2"
     inkscape:pageopacity="0.0"
     inkscape:pagecheckerboard="0"
     inkscape:document-units="px"
     showgrid="false"
     units="px"
     inkscape:zoom="24.1875"
     inkscape:cx="15.979328"
     inkscape:cy="16"
     inkscape:window-width="1920"
     inkscape:window-height="998"
     inkscape:window-x="0"
     inkscape:window-y="0"
     inkscape:window-maximized="1"
     inkscape:current-layer="svg2719" />
  <defs
     id="defs2716">
    <linearGradient
       inkscape:collect="always"
       id="linearGradient1871">
      <stop
         style="stop-color:#ffffff;stop-opacity:1;"
         offset="0"
         id="stop1867" />
      <stop
         style="stop-color:#ffffff;stop-opacity:0.1"
         offset="0.12"
         id="stop2515" />
      <stop
         style="stop-color:#ffffff;stop-opacity:0.102"
         offset="0.89999998"
         id="stop2581" />
      <stop
         style="stop-color:#ffffff;stop-opacity:0.502"
         offset="1"
         id="stop1869" />
    </linearGradient>
    <linearGradient
       inkscape:collect="always"
       xlink:href="#linearGradient1871"
       id="linearGradient16320"
       x1="10"
       y1="4"
       x2="10"
       y2="29.100245"
       gradientUnits="userSpaceOnUse"
       gradientTransform="matrix(0.26458333,0,0,0.26458333,0,-0.26458332)" />
  </defs>
  <path
     id="rect18683"
     style="opacity:0.1;fill:#000000;stroke-width:0.264583;stroke-linejoin:round"
     d="m 2.38125,0.92604165 c -1.45520832,0 -1.984375,0.52916665 -1.984375,1.98437495 v 3.0427085 c 0,1.5875 0.52916665,2.1166666 2.1166666,2.1166666 h 3.4395833 c 1.5875,0 2.1166667,-0.5291666 2.1166667,-2.1166666 V 3.0427083 c 0,-1.5875 -0.5291667,-2.11666665 -2.1166667,-2.11666665 z"
     sodipodi:nodetypes="sssssssss" />
  <path
     id="rect6397"
     style="fill:#4d4d4d;fill-opacity:1;stroke-width:0.255274;stroke-linejoin:round"
     d="M 0.39687499,2.6458334 C 0.396875,1.190625 0.92604165,0.66145833 2.38125,0.66145834 h 3.571875 c 1.5874999,-1e-8 2.1166666,0.52916666 2.1166668,2.11666666 l 10e-8,2.9104168 c 0,1.5874999 -0.529166,2.1166666 -2.116666,2.1166666 H 2.5135417 c -1.58750001,0 -2.11666671,-0.5291667 -2.11666671,-2.1166667 z"
     sodipodi:nodetypes="ccccccccc" />
  <path
     d="M 4.8760102,1.5879743 C 4.6611167,1.5959443 4.4498834,1.7034535 4.3313405,1.8902814 4.1416785,2.1891756 4.2370585,2.6168391 4.5359793,2.8065046 4.8349072,2.9961632 5.2625302,2.9007966 5.4522023,2.6018658 5.6418612,2.302938 5.545968,1.8753081 5.247047,1.6856425 5.1349616,1.6145207 5.0049464,1.5831898 4.8760102,1.5879743 Z M 2.7593434,1.9848493 C 2.5444417,1.9928193 2.3332169,2.1003285 2.214674,2.2871564 2.0250186,2.5860839 2.120385,3.0137074 2.4193126,3.2033796 2.7182071,3.3930385 3.1458637,3.2976716 3.3355358,2.9987408 3.5251979,2.6998132 3.4293018,2.2721862 3.1303803,2.0825176 3.0182824,2.0113956 2.8882844,1.9800648 2.7593434,1.9848493 Z M 7.255193,2.7253725 c -0.044076,0.00201 -0.086671,0.022945 -0.1152385,0.060978 L 6.8640026,3.1537702 7.2396903,3.4359234 7.5156422,3.0690207 C 7.5664282,3.0014075 7.5527662,2.9053495 7.4851532,2.8545635 L 7.3544118,2.7558615 C 7.3248298,2.7336415 7.2894748,2.7238035 7.255193,2.7253725 Z M 6.7720186,3.2762432 5.760194,4.6229309 6.1363984,4.9050841 7.147706,3.5583964 Z M 1.5687184,3.8369326 C 1.3538162,3.8449026 1.1425898,3.9524115 1.024049,4.1392394 0.8343936,4.4381673 0.92976,4.8657906 1.2286876,5.0554627 1.5275821,5.2451213 1.9552387,5.1497547 2.1449108,4.8508239 2.3345729,4.5518961 2.2386797,4.1242693 1.9397553,3.9346009 1.8276574,3.863479 1.6976599,3.8321481 1.5687184,3.8369326 Z m 3.93361,0.8201047 c -0.032939,5.027e-4 -0.065807,0.011467 -0.093017,0.033073 L 5.1049367,4.931956 c -0.010223,0.00812 -0.019539,0.01746 -0.027388,0.027905 -0.031053,0.041342 -0.037985,0.093271 -0.023254,0.1390097 -0.2833703,0.0089 -0.6652593,0.202878 -0.8598958,0.5524212 C 3.8208226,6.3221627 4.1141889,7.33858 3.3071146,7.1612771 4.3738991,7.977644 5.8347587,6.758962 5.8454608,5.9815043 5.8470208,5.8689196 5.8316738,5.7689796 5.8036028,5.6802307 c 0.073342,0.017269 0.1499561,-0.021757 0.177767,-0.094051 L 6.1224459,5.2192768 c 0.024633,-0.06403 0.0033,-0.136209 -0.051677,-0.1772502 L 5.5958629,4.6870095 c -0.027844,-0.020786 -0.060595,-0.030465 -0.093535,-0.029972 z m -3.13986,1.1642701 C 2.1475804,5.8292774 1.936344,5.9367824 1.817799,6.1236145 1.6281367,6.4225423 1.723426,6.8501127 2.0224376,7.0398377 2.3214654,7.2295665 2.7489884,7.1341297 2.9386608,6.8351989 3.1283163,6.536238 3.0325228,6.108701 2.7335053,5.9189757 2.6213823,5.8478287 2.4914012,5.8165219 2.3624684,5.8213074 Z"
     style="opacity:0.1;fill:#000000;stroke-width:1.00007"
     id="path1495" />
  <path
     d="M 5.4521324,2.2045372 C 5.2624603,2.5034683 4.8349396,2.5990511 4.5360118,2.4093924 4.2370908,2.2197269 4.1414979,1.7921995 4.33116,1.4933052 4.5208286,1.1943808 4.9483527,1.0987912 5.2472472,1.28845 c 0.298921,0.1896654 0.3945139,0.6171927 0.204855,0.9161205 z"
     style="fill:#f35b5b;stroke-width:1.00007"
     id="path1238" />
  <path
     d="M 3.3354357,2.6014455 C 3.1457636,2.9003767 2.7182429,2.9959595 2.4193485,2.8063006 2.1204207,2.6166286 2.0248345,2.1891079 2.2144899,1.8901802 2.4041587,1.5912558 2.8316828,1.4956662 3.1306104,1.685325 3.4295316,1.8749937 3.5251245,2.3025178 3.3354624,2.6014455 Z"
     style="fill:#56a913;stroke-width:1.00007"
     id="path1353" />
  <path
     d="M 2.1448108,4.4535288 C 1.9551387,4.7524598 1.527618,4.8480427 1.2287236,4.658384 0.92979582,4.4687119 0.83420962,4.0411913 1.023865,3.7422635 1.2135304,3.4433391 1.6410578,3.3477496 1.9399856,3.5374082 2.23891,3.7270769 2.3344995,4.154601 2.1448374,4.4535288 Z"
     style="fill:#3f90dc;stroke-width:1.00007"
     id="path1468" />
  <path
     d="M 2.9386121,6.4379052 C 2.7489399,6.7368362 2.3215194,6.8324857 2.0224916,6.642757 1.7234805,6.4530317 1.6279777,6.0255975 1.8176398,5.72667 2.0073119,5.4277387 2.4347325,5.3320892 2.7337269,5.5218147 3.0327447,5.71154 3.1282408,6.1389741 2.9385853,6.4379353 Z"
     style="fill:#f1a443;stroke-width:1.00007"
     id="path1583" />
  <path
     d="M 5.1231628,4.7032737 C 4.8361675,4.6792072 4.4051826,4.8754124 4.1943063,5.2541198 3.82073,5.9249904 4.1143667,6.9414648 3.3072917,6.764162 4.3740764,7.5805288 5.8350082,6.3619463 5.8457103,5.5844875 5.8480386,5.416303 5.812267,5.2758241 5.7534514,5.1597337 Z"
     style="fill:#1b90ff;fill-rule:evenodd;stroke-width:1.00007"
     id="path1717" />
  <path
     d="M 3.455325,6.863142 C 4.5041395,7.4702994 5.8354781,6.326399 5.8457135,5.5843476 5.8480418,5.4161631 5.8122701,5.2756844 5.7534546,5.159594 L 5.1433633,4.7177705 C 4.9813001,4.8109528 4.8300593,4.9400824 4.7139757,5.1051829 4.1696643,5.8793077 4.3986313,7.16297 3.4322804,6.8417044 c 0.00765,0.00723 0.015338,0.014372 0.023048,0.021431 z"
     style="fill:#a197ff;fill-rule:evenodd;stroke-width:1.00007"
     id="path2016" />
  <path
     d="M 3.9080811,7.0212475 C 4.8510405,7.1580188 5.836942,6.2226509 5.8457103,5.5844873 5.8480386,5.4163028 5.812267,5.2758241 5.7534514,5.1597337 L 5.1479945,4.7212775 c -0.13042,0.1132833 -0.2450266,0.2557524 -0.3238397,0.42392 -0.3881458,0.8282024 0.045216,2.0115775 -0.9284895,1.8679482 0.00413,0.00272 0.00826,0.00542 0.012388,0.0081 z"
     style="fill:#dd61fa;fill-rule:evenodd;stroke-width:1.00007"
     id="path2216" />
  <path
     d="M 5.0633173,6.7144515 C 5.5163763,6.4112028 5.8407094,5.949295 5.8457103,5.5844873 5.8480386,5.4163028 5.812267,5.2758241 5.7534514,5.1597337 L 5.1522953,4.7243782 c -0.066,0.1134232 -0.115897,0.2408058 -0.1403286,0.3778104 -0.1066485,0.5980221 0.2165209,1.2593908 0.051324,1.6122629 z"
     style="fill:#fa6196;fill-rule:evenodd;stroke-width:1.00007"
     id="path2416" />
  <path
     d="M 5.7534681,5.9465547 C 5.8114631,5.8215394 5.8441432,5.6982076 5.8457135,5.5843476 5.8480418,5.4161631 5.8122699,5.2756844 5.7534546,5.159594 L 5.1826047,4.7461762 c 0.00418,0.031061 0.010022,0.062166 0.017687,0.093162 0.1102791,0.4459912 0.5236736,0.8072649 0.5531797,1.1071929 z"
     style="fill:#f1a443;fill-rule:evenodd;stroke-width:1.00007"
     id="path2616" />
  <path
     d="M 6.7720186,2.8792058 7.1478257,3.1614853 6.1362699,4.5081993 5.7604629,4.2259199 Z M 5.5959791,4.2901377 6.070971,4.6447466 C 6.12595,4.6857876 6.146919,4.7583893 6.122286,4.822419 L 5.9812463,5.189077 C 5.9508843,5.268004 5.8622891,5.3073751 5.7833657,5.277016 5.7701287,5.271956 5.7576877,5.265057 5.7463647,5.25655 L 5.1079887,4.777048 C 5.0403757,4.726262 5.0267337,4.6302744 5.0775197,4.5626609 c 0.00785,-0.010446 0.016976,-0.01982 0.027199,-0.027937 L 5.4091785,4.2929327 c 0.054421,-0.043213 0.1311235,-0.044362 0.1868104,-0.00279 z M 6.863983,2.7567709 7.1398501,2.3895011 c 0.050786,-0.067613 0.1467702,-0.081258 0.2143871,-0.030469 l 0.1309685,0.098374 c 0.067613,0.050786 0.081255,0.1467737 0.030469,0.2143869 l -0.275867,0.36727 z"
     style="fill:#ffffff;fill-opacity:1;stroke-width:3.44453"
     id="path1098"
     sodipodi:nodetypes="cccccccccccsccccccsssscc" />
  <path
     d="M 6.7720187,2.879206 7.1478257,3.1614855 6.1362699,4.5081993 5.7604629,4.2259201 Z M 5.5959791,4.290138 6.070971,4.6447468 C 6.12595,4.6857878 6.146919,4.7583893 6.122286,4.822419 L 5.9812461,5.189077 C 5.9508841,5.268004 5.8622889,5.3073752 5.7833656,5.277016 5.7701286,5.271956 5.7576876,5.265057 5.7463646,5.25655 L 5.1079888,4.7770483 c -0.067613,-0.050786 -0.081255,-0.1467734 -0.030469,-0.2143869 0.00785,-0.010446 0.016976,-0.01982 0.027199,-0.027937 L 5.4091785,4.292933 C 5.4635995,4.24972 5.5403021,4.248571 5.5959889,4.290143 Z m 1.268004,-1.5333668 0.275867,-0.36727 c 0.050786,-0.067613 0.1467702,-0.081258 0.2143872,-0.030469 l 0.1309684,0.098374 c 0.067613,0.050786 0.081255,0.1467737 0.030469,0.2143869 l -0.275867,0.36727 z"
     style="fill:#828282;fill-opacity:1;stroke-width:0.911365"
     id="path1075" />
  <path
     id="rect13250"
     style="fill:url(#linearGradient16320);fill-opacity:1;stroke-width:0.264583;stroke-linejoin:round;opacity:1"
     d="m 2.6458333,0.79375 c -1.71979143,0 -2.11666664,0.396875 -2.11666664,2.1166666 v 2.6458335 c 0,1.7197919 0.39687515,2.1166666 2.11666664,2.1166666 h 3.175 c 1.7197913,0 2.1166666,-0.3968747 2.1166666,-2.1166666 V 2.9104166 C 7.9374999,1.190625 7.5406249,0.79375 5.8208333,0.79375 Z m 0,0.2645833 h 3.175 c 1.5213541,0 1.8520833,0.3307294 1.8520833,1.8520833 v 2.6458335 c 0,1.5213542 -0.3307292,1.8520833 -1.8520833,1.8520833 h -3.175 c -1.5213541,0 -1.85208331,-0.3307291 -1.85208331,-1.8520833 V 2.9104166 c 0,-1.521354 0.33072921,-1.8520834 1.85208331,-1.8520833 z"
     sodipodi:nodetypes="ssssssssssssssssss" />
  <path
     id="rect2545"
     style="opacity:0.4;fill:#000000;stroke-width:0.387914;stroke-linejoin:round"
     d="m 2.6458333,0.52916667 c -1.91822909,0 -2.38124997,0.4630208 -2.38124997,2.38124993 V 5.55625 c 0,1.8520831 0.52916735,2.38125 2.38124997,2.38125 h 3.175 c 1.8520841,0 2.3812499,-0.5291669 2.3812499,-2.38125 V 2.9104166 c 0,-1.8520832 -0.5291666,-2.38124988 -2.3812499,-2.38124993 z m 0,0.26458333 h 3.175 c 1.7197916,0 2.1166666,0.396875 2.1166666,2.1166666 V 5.55625 c 0,1.7197917 -0.3968753,2.1166666 -2.1166666,2.1166666 h -3.175 c -1.71979162,0 -2.11666664,-0.3968749 -2.11666664,-2.1166666 V 2.9104166 c 0,-1.7197916 0.39687505,-2.1166666 2.11666664,-2.1166666 z"
     sodipodi:nodetypes="ssssssssssssssssss" />
</svg>
