<?xml version="1.0" encoding="UTF-8" standalone="no"?>
<!-- Created with Inkscape (http://www.inkscape.org/) -->

<svg
   width="32"
   height="32"
   viewBox="0 0 8.4666665 8.4666669"
   version="1.1"
   id="svg2719"
   inkscape:version="1.1.2 (0a00cf5339, 2022-02-04)"
   sodipodi:docname="com.uploadedlobster.peek.svg"
   xmlns:inkscape="http://www.inkscape.org/namespaces/inkscape"
   xmlns:sodipodi="http://sodipodi.sourceforge.net/DTD/sodipodi-0.dtd"
   xmlns:xlink="http://www.w3.org/1999/xlink"
   xmlns="http://www.w3.org/2000/svg"
   xmlns:svg="http://www.w3.org/2000/svg">
  <sodipodi:namedview
     id="namedview2721"
     pagecolor="#ffffff"
     bordercolor="#666666"
     borderopacity="1.0"
     inkscape:pageshadow="2"
     inkscape:pageopacity="0.0"
     inkscape:pagecheckerboard="0"
     inkscape:document-units="px"
     showgrid="false"
     units="px"
     inkscape:zoom="24.53125"
     inkscape:cx="15.979618"
     inkscape:cy="16"
     inkscape:window-width="1920"
     inkscape:window-height="1012"
     inkscape:window-x="0"
     inkscape:window-y="0"
     inkscape:window-maximized="1"
     inkscape:current-layer="svg2719" />
  <defs
     id="defs2716">
    <linearGradient
       inkscape:collect="always"
       id="linearGradient1871">
      <stop
         style="stop-color:#ffffff;stop-opacity:1;"
         offset="0"
         id="stop1867" />
      <stop
         style="stop-color:#ffffff;stop-opacity:0.1"
         offset="0.12"
         id="stop2515" />
      <stop
         style="stop-color:#ffffff;stop-opacity:0.102"
         offset="0.89999998"
         id="stop2581" />
      <stop
         style="stop-color:#ffffff;stop-opacity:0.502"
         offset="1"
         id="stop1869" />
    </linearGradient>
    <linearGradient
       inkscape:collect="always"
       xlink:href="#linearGradient1871"
       id="linearGradient16320"
       x1="10"
       y1="4"
       x2="10"
       y2="29.100245"
       gradientUnits="userSpaceOnUse"
       gradientTransform="matrix(0.26458333,0,0,0.26458333,0,-0.26458332)" />
    <linearGradient
       inkscape:collect="always"
       id="linearGradient1437">
      <stop
         style="stop-color:#a1a09d;stop-opacity:1;"
         offset="0"
         id="stop1433" />
      <stop
         style="stop-color:#a1a09d;stop-opacity:1"
         offset="0.1"
         id="stop1635" />
      <stop
         style="stop-color:#c3c3c0;stop-opacity:1"
         offset="0.16"
         id="stop1569" />
      <stop
         style="stop-color:#a1a09d;stop-opacity:1"
         offset="0.22"
         id="stop1829" />
      <stop
         style="stop-color:#a1a09d;stop-opacity:1"
         offset="0.77999997"
         id="stop2919" />
      <stop
         style="stop-color:#c3c3c0;stop-opacity:1"
         offset="0.83999997"
         id="stop3819" />
      <stop
         style="stop-color:#a1a09d;stop-opacity:1"
         offset="0.89999998"
         id="stop3305" />
      <stop
         style="stop-color:#a1a09d;stop-opacity:1"
         offset="1"
         id="stop1435" />
    </linearGradient>
    <linearGradient
       inkscape:collect="always"
       xlink:href="#linearGradient1437"
       id="linearGradient986"
       x1="0.39687499"
       y1="4.2333336"
       x2="8.0697918"
       y2="4.2333336"
       gradientUnits="userSpaceOnUse"
       gradientTransform="scale(3.7795275)" />
    <linearGradient
       inkscape:collect="always"
       xlink:href="#linearGradient2290"
       id="linearGradient1056"
       x1="15.5"
       y1="-2.6456692e-07"
       x2="15.5"
       y2="30"
       gradientUnits="userSpaceOnUse"
       gradientTransform="matrix(0.85714282,0,0,0.85714282,2.7142856,0.85714297)" />
    <linearGradient
       inkscape:collect="always"
       id="linearGradient2290">
      <stop
         style="stop-color:#f4842f;stop-opacity:1"
         offset="0"
         id="stop2286" />
      <stop
         style="stop-color:#fad86a;stop-opacity:1"
         offset="1"
         id="stop2288" />
    </linearGradient>
  </defs>
  <path
     id="rect18683"
     style="opacity:0.1;fill:#000000;stroke-width:0.264583;stroke-linejoin:round"
     d="m 2.38125,0.92604165 c -1.45520832,0 -1.984375,0.52916665 -1.984375,1.98437495 v 3.0427085 c 0,1.5875 0.52916665,2.1166666 2.1166666,2.1166666 h 3.4395833 c 1.5875,0 2.1166667,-0.5291666 2.1166667,-2.1166666 V 3.0427083 c 0,-1.5875 -0.5291667,-2.11666665 -2.1166667,-2.11666665 z"
     sodipodi:nodetypes="sssssssss" />
  <path
     id="rect6397"
     style="fill:#deddda;fill-opacity:1;stroke-width:0.255274;stroke-linejoin:round"
     d="M 0.39687499,2.6458334 C 0.396875,1.190625 0.92604165,0.66145833 2.38125,0.66145834 h 3.571875 c 1.5874999,-1e-8 2.1166666,0.52916666 2.1166668,2.11666666 l 10e-8,2.9104168 c 0,1.5874999 -0.529166,2.1166666 -2.116666,2.1166666 H 2.5135417 c -1.58750001,0 -2.11666671,-0.5291667 -2.11666671,-2.1166667 z"
     sodipodi:nodetypes="ccccccccc" />
  <path
     d="m 0.79375,2.7005746 c 0,-1.2043103 0.4379311,-1.6422413 1.6422413,-1.6422413 h 3.4852011 c 1.313793,0 1.751724,0.437931 1.7517241,1.7517241 l 2e-7,2.4086207 c 1e-7,1.313793 -0.4379306,1.6604886 -1.7517237,1.6604886 H 2.545474 c -1.3137929,0 -1.751724,-0.3466956 -1.751724,-1.6604886 z"
     style="fill:#4d4d4d;fill-opacity:1;stroke-width:0.0558962;stroke-linejoin:round"
     id="path1183"
     sodipodi:nodetypes="sssssssss" />
  <path
     id="path885"
     style="fill:url(#linearGradient986);fill-opacity:1;stroke-width:0.255274;stroke-linejoin:round"
     d="M 1.5 19.5 L 1.5 21.5 C 1.5 27.5 3.5 29.5 9.5 29.5 L 22.5 29.5 C 28.5 29.5 30.5 27.5 30.5 21.5 L 30.5 19.5 C 30.5 25.5 28.5 27.5 22.5 27.5 L 9.5 27.5 C 3.5000001 27.5 1.5 25.5 1.5 19.5 z "
     transform="scale(0.26458333)" />
  <path
     id="rect13250"
     style="fill:url(#linearGradient16320);fill-opacity:1;stroke-width:0.264583;stroke-linejoin:round;opacity:0.3"
     d="m 2.6458333,0.79375 c -1.71979143,0 -2.11666664,0.396875 -2.11666664,2.1166666 v 2.6458335 c 0,1.7197919 0.39687515,2.1166666 2.11666664,2.1166666 h 3.175 c 1.7197913,0 2.1166666,-0.3968747 2.1166666,-2.1166666 V 2.9104166 C 7.9374999,1.190625 7.5406249,0.79375 5.8208333,0.79375 Z m 0,0.2645833 h 3.175 c 1.5213541,0 1.8520833,0.3307294 1.8520833,1.8520833 v 2.6458335 c 0,1.5213542 -0.3307292,1.8520833 -1.8520833,1.8520833 h -3.175 c -1.5213541,0 -1.85208331,-0.3307291 -1.85208331,-1.8520833 V 2.9104166 c 0,-1.521354 0.33072921,-1.8520834 1.85208331,-1.8520833 z"
     sodipodi:nodetypes="ssssssssssssssssss" />
  <path
     id="rect2545"
     style="opacity:0.4;fill:#000000;stroke-width:0.387914;stroke-linejoin:round"
     d="m 2.6458333,0.52916667 c -1.91822909,0 -2.38124997,0.4630208 -2.38124997,2.38124993 V 5.55625 c 0,1.8520831 0.52916735,2.38125 2.38124997,2.38125 h 3.175 c 1.8520841,0 2.3812499,-0.5291669 2.3812499,-2.38125 V 2.9104166 c 0,-1.8520832 -0.5291666,-2.38124988 -2.3812499,-2.38124993 z m 0,0.26458333 h 3.175 c 1.7197916,0 2.1166666,0.396875 2.1166666,2.1166666 V 5.55625 c 0,1.7197917 -0.3968753,2.1166666 -2.1166666,2.1166666 h -3.175 c -1.71979162,0 -2.11666664,-0.3968749 -2.11666664,-2.1166666 V 2.9104166 c 0,-1.7197916 0.39687505,-2.1166666 2.11666664,-2.1166666 z"
     sodipodi:nodetypes="ssssssssssssssssss" />
  <path
     id="rect877"
     style="display:inline;fill:url(#linearGradient1056);fill-opacity:1;stroke:none;stroke-width:0.206888;stroke-linecap:round;stroke-linejoin:round;stroke-miterlimit:4;stroke-dasharray:none;stroke-dashoffset:0;stroke-opacity:1;enable-background:new"
     d="M 4.0683594 9 C 4.0203226 9.5820695 4 10.243279 4 11 L 4 19 C 4 24.142857 4.8571434 25 10 25 L 22 25 C 27.142857 25 28 24.142857 28 19 L 28 11 C 28 10.243279 27.979677 9.5820695 27.931641 9 L 4.0683594 9 z "
     transform="scale(0.26458333)" />
  <path
     d="M 2.1166667,3.175 V 4.2333334 H 2.38125 V 3.4395833 H 3.175 V 3.175 Z m 3.175,0 v 0.2645833 h 0.79375 v 0.7937501 h 0.264583 V 3.175 Z m -3.175,2.1166667 V 6.3500001 H 3.175 V 6.0854167 H 2.38125 v -0.79375 z m 3.96875,0 v 0.79375 h -0.79375 v 0.2645834 h 1.058333 V 5.2916667 Z"
     style="opacity:0.1;fill:#000000;fill-opacity:1;stroke-width:0.140009;stroke-linejoin:round"
     id="path1462"
     sodipodi:nodetypes="cccccccccccccccccccccccccccc" />
  <path
     id="rect2027"
     style="fill:#ffffff;fill-opacity:1;stroke-width:0.529167;stroke-linejoin:round"
     d="M 2.1166667,2.9104167 V 3.96875 H 2.38125 V 3.175 H 3.175 V 2.9104167 Z m 3.175,0 V 3.175 h 0.79375 v 0.79375 h 0.264583 V 2.9104167 Z m -3.175,2.1166667 V 6.0854168 H 3.175 V 5.8208334 H 2.38125 v -0.79375 z m 3.96875,0 v 0.79375 h -0.79375 v 0.2645834 h 1.058333 V 5.0270834 Z"
     sodipodi:nodetypes="cccccccccccccccccccccccccccc" />
  <circle
     style="fill:#f53838;fill-opacity:1;stroke-width:0.132291;stroke-linejoin:round"
     id="path1241"
     cx="6.3499999"
     cy="1.8520834"
     r="0.26458335" />
  <rect
     style="fill:#ffffff;fill-opacity:1;stroke-width:0.529167;stroke-linejoin:round"
     id="rect2060"
     width="2.6458333"
     height="0.26458335"
     x="2.9104164"
     y="1.5875" />
</svg>
