<?xml version="1.0" encoding="UTF-8" standalone="no"?>
<!-- Created with Inkscape (http://www.inkscape.org/) -->

<svg
   width="32"
   height="32"
   viewBox="0 0 8.4666665 8.4666669"
   version="1.1"
   id="svg2719"
   inkscape:version="1.1.2 (0a00cf5339, 2022-02-04)"
   sodipodi:docname="cs-applets.svg"
   xmlns:inkscape="http://www.inkscape.org/namespaces/inkscape"
   xmlns:sodipodi="http://sodipodi.sourceforge.net/DTD/sodipodi-0.dtd"
   xmlns:xlink="http://www.w3.org/1999/xlink"
   xmlns="http://www.w3.org/2000/svg"
   xmlns:svg="http://www.w3.org/2000/svg">
  <sodipodi:namedview
     id="namedview2721"
     pagecolor="#ffffff"
     bordercolor="#666666"
     borderopacity="1.0"
     inkscape:pageshadow="2"
     inkscape:pageopacity="0.0"
     inkscape:pagecheckerboard="0"
     inkscape:document-units="px"
     showgrid="false"
     units="px"
     inkscape:zoom="17.500893"
     inkscape:cx="14.113566"
     inkscape:cy="12.942197"
     inkscape:window-width="1851"
     inkscape:window-height="1049"
     inkscape:window-x="0"
     inkscape:window-y="0"
     inkscape:window-maximized="1"
     inkscape:current-layer="svg2719" />
  <defs
     id="defs2716">
    <linearGradient
       inkscape:collect="always"
       id="linearGradient1871">
      <stop
         style="stop-color:#ffffff;stop-opacity:1;"
         offset="0"
         id="stop1867" />
      <stop
         style="stop-color:#ffffff;stop-opacity:0.1"
         offset="0.12"
         id="stop2515" />
      <stop
         style="stop-color:#ffffff;stop-opacity:0.102"
         offset="0.89999998"
         id="stop2581" />
      <stop
         style="stop-color:#ffffff;stop-opacity:0.502"
         offset="1"
         id="stop1869" />
    </linearGradient>
    <linearGradient
       inkscape:collect="always"
       xlink:href="#linearGradient1871"
       id="linearGradient16320"
       x1="10"
       y1="4"
       x2="10"
       y2="29.100245"
       gradientUnits="userSpaceOnUse"
       gradientTransform="matrix(0.26458333,0,0,0.26458333,0,-0.26458332)" />
    <linearGradient
       inkscape:collect="always"
       xlink:href="#linearGradient3598"
       id="linearGradient908"
       x1="30.337561"
       y1="20.34284"
       x2="1.3375589"
       y2="4.3428392"
       gradientUnits="userSpaceOnUse"
       gradientTransform="scale(0.26458333)" />
    <linearGradient
       inkscape:collect="always"
       id="linearGradient3598">
      <stop
         style="stop-color:#28c8fd;stop-opacity:1"
         offset="0"
         id="stop3594" />
      <stop
         style="stop-color:#0829dc;stop-opacity:1"
         offset="1"
         id="stop3596" />
    </linearGradient>
  </defs>
  <path
     id="rect18683"
     style="opacity:0.1;fill:#000000;stroke-width:0.264583;stroke-linejoin:round"
     d="m 2.38125,0.92604165 c -1.45520832,0 -1.984375,0.52916665 -1.984375,1.98437495 v 3.0427085 c 0,1.5875 0.52916665,2.1166666 2.1166666,2.1166666 h 3.4395833 c 1.5875,0 2.1166667,-0.5291666 2.1166667,-2.1166666 V 3.0427083 c 0,-1.5875 -0.5291667,-2.11666665 -2.1166667,-2.11666665 z"
     sodipodi:nodetypes="sssssssss" />
  <path
     id="rect877"
     style="display:inline;fill:url(#linearGradient908);fill-opacity:1;stroke:none;stroke-width:0.0638622;stroke-linecap:round;stroke-linejoin:round;stroke-miterlimit:4;stroke-dasharray:none;stroke-dashoffset:0;stroke-opacity:1;enable-background:new"
     d="m 2.38125,0.66145834 c -1.45520837,0 -1.984375,0.52916656 -1.984375,1.98437496 v 3.0427083 c 0,1.5875 0.52916663,2.1166666 2.1166666,2.1166666 h 3.4395833 c 1.5875,0 2.1166667,-0.5291666 2.1166667,-2.1166666 V 2.778125 c -3e-7,-1.5875 -0.5291667,-2.11666666 -2.1166667,-2.11666666 z"
     sodipodi:nodetypes="cccccsscc" />
  <path
     id="rect857"
     style="opacity:0.3;fill:#000000;stroke-width:2.26779;stroke-linecap:round;stroke-linejoin:round"
     d="M 1.5488281 23 C 1.8859905 27.837209 4.0313556 29.5 9.5 29.5 L 22.5 29.5 C 27.968645 29.5 30.11401 27.837209 30.451172 23 L 1.5488281 23 z "
     transform="scale(0.26458333)" />
  <path
     id="rect31"
     d="M 1.8520834,5.8208333 C 1.7055042,5.8208333 1.5875,5.9388375 1.5875,6.0854166 v 0.5291667 c 0,0.1465792 0.1180042,0.2645833 0.2645834,0.2645833 H 2.38125 c 0.1465792,0 0.2645833,-0.1180041 0.2645833,-0.2645833 V 6.0854166 c 0,-0.1465791 -0.1180041,-0.2645833 -0.2645833,-0.2645833 z m 2.1166666,0 c -0.1465792,0 -0.2645833,0.1180042 -0.2645833,0.2645833 v 0.5291667 c 0,0.1465792 0.1180041,0.2645833 0.2645833,0.2645833 H 4.4979167 C 4.6444958,6.8791666 4.7625,6.7611625 4.7625,6.6145833 V 6.0854166 c 0,-0.1465791 -0.1180042,-0.2645833 -0.2645833,-0.2645833 z m 2.1166666,0 c -0.1465791,0 -0.2645833,0.1180042 -0.2645833,0.2645833 v 0.5291667 c 0,0.1465792 0.1180042,0.2645833 0.2645833,0.2645833 h 0.5291667 c 0.1465792,0 0.2645833,-0.1180041 0.2645833,-0.2645833 V 6.0854166 c 0,-0.1465791 -0.1180041,-0.2645833 -0.2645833,-0.2645833 z"
     style="opacity:0.1;fill:#000000;fill-opacity:1;stroke-width:0.264583" />
  <path
     id="rect33"
     d="M 1.8520834,5.55625 C 1.7055042,5.55625 1.5875,5.6742541 1.5875,5.8208333 V 6.35 c 0,0.1465791 0.1180042,0.2645833 0.2645834,0.2645833 H 2.38125 c 0.1465792,0 0.2645833,-0.1180042 0.2645833,-0.2645833 V 5.8208333 C 2.6458333,5.6742541 2.5278292,5.55625 2.38125,5.55625 Z m 2.1166666,0 c -0.1465792,0 -0.2645833,0.1180041 -0.2645833,0.2645833 V 6.35 c 0,0.1465791 0.1180041,0.2645833 0.2645833,0.2645833 H 4.4979167 C 4.6444958,6.6145833 4.7625,6.4965791 4.7625,6.35 V 5.8208333 C 4.7625,5.6742541 4.6444958,5.55625 4.4979167,5.55625 Z m 2.1166666,0 c -0.1465791,0 -0.2645833,0.1180041 -0.2645833,0.2645833 V 6.35 c 0,0.1465791 0.1180042,0.2645833 0.2645833,0.2645833 h 0.5291667 c 0.1465792,0 0.2645833,-0.1180042 0.2645833,-0.2645833 V 5.8208333 C 6.8791666,5.6742541 6.7611625,5.55625 6.6145833,5.55625 Z"
     style="fill:#faf8fb;fill-opacity:1;stroke-width:0.264583" />
  <path
     id="rect13250"
     style="fill:url(#linearGradient16320);fill-opacity:1;stroke-width:0.264583;stroke-linejoin:round;opacity:0.3"
     d="m 2.6458333,0.79375 c -1.71979143,0 -2.11666664,0.396875 -2.11666664,2.1166666 v 2.6458335 c 0,1.7197919 0.39687515,2.1166666 2.11666664,2.1166666 h 3.175 c 1.7197913,0 2.1166666,-0.3968747 2.1166666,-2.1166666 V 2.9104166 C 7.9374999,1.190625 7.5406249,0.79375 5.8208333,0.79375 Z m 0,0.2645833 h 3.175 c 1.5213541,0 1.8520833,0.3307294 1.8520833,1.8520833 v 2.6458335 c 0,1.5213542 -0.3307292,1.8520833 -1.8520833,1.8520833 h -3.175 c -1.5213541,0 -1.85208331,-0.3307291 -1.85208331,-1.8520833 V 2.9104166 c 0,-1.521354 0.33072921,-1.8520834 1.85208331,-1.8520833 z"
     sodipodi:nodetypes="ssssssssssssssssss" />
  <path
     id="rect2545"
     style="opacity:0.4;fill:#000000;stroke-width:0.387914;stroke-linejoin:round"
     d="m 2.6458333,0.52916667 c -1.91822909,0 -2.38124997,0.4630208 -2.38124997,2.38124993 V 5.55625 c 0,1.8520831 0.52916735,2.38125 2.38124997,2.38125 h 3.175 c 1.8520841,0 2.3812499,-0.5291669 2.3812499,-2.38125 V 2.9104166 c 0,-1.8520832 -0.5291666,-2.38124988 -2.3812499,-2.38124993 z m 0,0.26458333 h 3.175 c 1.7197916,0 2.1166666,0.396875 2.1166666,2.1166666 V 5.55625 c 0,1.7197917 -0.3968753,2.1166666 -2.1166666,2.1166666 h -3.175 c -1.71979162,0 -2.11666664,-0.3968749 -2.11666664,-2.1166666 V 2.9104166 c 0,-1.7197916 0.39687505,-2.1166666 2.11666664,-2.1166666 z"
     sodipodi:nodetypes="ssssssssssssssssss" />
</svg>
