<?xml version="1.0" encoding="UTF-8" standalone="no"?>
<!-- Created with Inkscape (http://www.inkscape.org/) -->

<svg
   width="32"
   height="32"
   viewBox="0 0 8.4666665 8.4666669"
   version="1.1"
   id="svg2719"
   inkscape:version="1.1.2 (0a00cf5339, 2022-02-04)"
   sodipodi:docname="devhelp.svg"
   xmlns:inkscape="http://www.inkscape.org/namespaces/inkscape"
   xmlns:sodipodi="http://sodipodi.sourceforge.net/DTD/sodipodi-0.dtd"
   xmlns:xlink="http://www.w3.org/1999/xlink"
   xmlns="http://www.w3.org/2000/svg"
   xmlns:svg="http://www.w3.org/2000/svg">
  <sodipodi:namedview
     id="namedview2721"
     pagecolor="#ffffff"
     bordercolor="#666666"
     borderopacity="1.0"
     inkscape:pageshadow="2"
     inkscape:pageopacity="0.0"
     inkscape:pagecheckerboard="0"
     inkscape:document-units="px"
     showgrid="false"
     units="px"
     inkscape:zoom="25.90625"
     inkscape:cx="16.0193"
     inkscape:cy="16"
     inkscape:window-width="1851"
     inkscape:window-height="1049"
     inkscape:window-x="0"
     inkscape:window-y="0"
     inkscape:window-maximized="1"
     inkscape:current-layer="svg2719" />
  <defs
     id="defs2716">
    <linearGradient
       inkscape:collect="always"
       id="linearGradient2290">
      <stop
         style="stop-color:#bc1938;stop-opacity:1"
         offset="0"
         id="stop2286" />
      <stop
         style="stop-color:#da1636;stop-opacity:1"
         offset="1"
         id="stop2288" />
    </linearGradient>
    <linearGradient
       inkscape:collect="always"
       id="linearGradient1871">
      <stop
         style="stop-color:#ffffff;stop-opacity:1;"
         offset="0"
         id="stop1867" />
      <stop
         style="stop-color:#ffffff;stop-opacity:0.1"
         offset="0.12"
         id="stop2515" />
      <stop
         style="stop-color:#ffffff;stop-opacity:0.102"
         offset="0.89999998"
         id="stop2581" />
      <stop
         style="stop-color:#ffffff;stop-opacity:0.502"
         offset="1"
         id="stop1869" />
    </linearGradient>
    <linearGradient
       inkscape:collect="always"
       xlink:href="#linearGradient1871"
       id="linearGradient16320"
       x1="10"
       y1="4"
       x2="10"
       y2="29.100245"
       gradientUnits="userSpaceOnUse"
       gradientTransform="matrix(0.26458333,0,0,0.26458333,0,-0.26458332)" />
    <linearGradient
       inkscape:collect="always"
       xlink:href="#linearGradient2290"
       id="linearGradient2292"
       x1="2.6458333"
       y1="0.5291667"
       x2="5.2916665"
       y2="7.9375"
       gradientUnits="userSpaceOnUse" />
  </defs>
  <path
     id="rect18683"
     style="opacity:0.1;fill:#000000;stroke-width:0.264583;stroke-linejoin:round"
     d="m 2.38125,0.92604165 c -1.45520832,0 -1.984375,0.52916665 -1.984375,1.98437495 v 3.0427085 c 0,1.5875 0.52916665,2.1166666 2.1166666,2.1166666 h 3.4395833 c 1.5875,0 2.1166667,-0.5291666 2.1166667,-2.1166666 V 3.0427083 c 0,-1.5875 -0.5291667,-2.11666665 -2.1166667,-2.11666665 z"
     sodipodi:nodetypes="sssssssss" />
  <path
     id="rect6397"
     style="fill:url(#linearGradient2292);fill-opacity:1;stroke-width:0.255274;stroke-linejoin:round"
     d="M 0.39687499,2.6458334 C 0.396875,1.190625 0.92604165,0.66145833 2.38125,0.66145834 h 3.571875 c 1.5874999,-1e-8 2.1166666,0.52916666 2.1166668,2.11666666 l 10e-8,2.9104168 c 0,1.5874999 -0.529166,2.1166666 -2.116666,2.1166666 H 2.5135417 c -1.58750001,0 -2.11666671,-0.5291667 -2.11666671,-2.1166667 z"
     sodipodi:nodetypes="ccccccccc" />
  <path
     id="rect1372"
     style="opacity:0.05;fill:#ffffff;fill-opacity:1;stroke-width:0.999999;stroke-linejoin:round"
     d="M 1.5 16 L 1.5 21.5 C 1.5 27.5 3.5 29.5 9.5 29.5 L 22.5 29.5 C 28.5 29.5 30.5 27.5 30.5 21.5 L 30.5 16 L 1.5 16 z "
     transform="scale(0.26458333)" />
  <path
     id="rect1519"
     style="opacity:1;fill:#4d4d4d;stroke-width:0.94868;stroke-linejoin:round;fill-opacity:1"
     d="M 7 2.6074219 C 3.0071182 3.0889711 1.5 5.226943 1.5 10 L 1.5 21.5 C 1.5 26.573393 2.9307458 28.785178 7 29.347656 L 7 2.6074219 z "
     transform="scale(0.26458333)" />
  <path
     d="m 4.2503389,2.3812502 c -0.1377586,0 -0.2538621,0.015426 -0.3482522,0.046039 -0.091839,0.028061 -0.1658501,0.070154 -0.2219739,0.1262786 -0.056124,0.053573 -0.095754,0.1209362 -0.1187144,0.2025712 -0.022958,0.081634 -0.0342,0.1749283 -0.0342,0.2795228 v 0.6886116 c 0,0.04592 -0.00772,0.091869 -0.02302,0.137788 -0.012754,0.043368 -0.034499,0.082999 -0.065112,0.1187144 -0.028061,0.033164 -0.063837,0.061226 -0.107205,0.084186 -0.043368,0.020409 -0.095635,0.030583 -0.1568614,0.030583 v 0.2755761 c 0.061226,0 0.1134924,0.011564 0.1568614,0.034529 0.043368,0.020409 0.079144,0.048471 0.107205,0.084186 0.030613,0.033164 0.052357,0.072467 0.065112,0.1183854 0.015306,0.043368 0.02302,0.088252 0.02302,0.1341705 v 0.6886123 c 0,0.104594 0.011242,0.1978879 0.0342,0.2795224 0.02296,0.081634 0.062591,0.1503942 0.1187144,0.2065178 0.056123,0.056123 0.1301356,0.098217 0.2219739,0.1262786 0.094391,0.028061 0.2104939,0.042093 0.3482522,0.042093 h 0.015125 v -0.279193 c -0.1454114,0 -0.2499457,-0.026996 -0.3137227,-0.080568 C 3.8905169,5.6746327 3.8599927,5.5753504 3.8599927,5.4273877 V 4.8380885 c 0,-0.1683714 -0.023139,-0.2985061 -0.069058,-0.3903449 C 3.7475671,4.355905 3.6851257,4.2843549 3.603491,4.2333333 3.6851264,4.1823118 3.7475671,4.110762 3.7909354,4.018923 3.8368554,3.9270844 3.8599932,3.7969494 3.8599932,3.6285781 V 3.0392789 c 0,-0.1479625 0.030523,-0.2472453 0.091749,-0.2982667 0.063777,-0.053573 0.1683123,-0.080568 0.3137236,-0.080568 v -0.279194 z m 0.9605709,0 v 0.2791936 c 0.1454116,0 0.2485506,0.026996 0.3097763,0.080568 0.063777,0.051021 0.095696,0.1503042 0.095696,0.2982667 v 0.5892994 c 0,0.1683713 0.021745,0.2985062 0.065112,0.3903449 0.04592,0.091839 0.1097557,0.1633889 0.1913908,0.2144102 -0.081634,0.051021 -0.1454714,0.1225714 -0.1913908,0.2144104 -0.043368,0.091839 -0.065112,0.2219735 -0.065112,0.3903449 v 0.5892996 c 0,0.1479626 -0.03192,0.2472452 -0.095696,0.2982668 -0.061225,0.053573 -0.1643647,0.080568 -0.3097763,0.080568 v 0.2791935 h 0.015127 c 0.1377586,0 0.252467,-0.014031 0.3443055,-0.042093 0.094391,-0.028061 0.1697965,-0.070153 0.2259204,-0.1262781 0.056121,-0.056123 0.095754,-0.1248828 0.1187144,-0.2065178 0.02296,-0.081634 0.034198,-0.1749284 0.034198,-0.2795225 V 4.7423932 c 0,-0.04592 0.00665,-0.090803 0.019402,-0.1341704 0.015305,-0.04592 0.036725,-0.085222 0.064783,-0.1183854 0.030615,-0.035716 0.067783,-0.063777 0.1111516,-0.084186 0.043368,-0.022958 0.095635,-0.034529 0.1568616,-0.034529 V 4.0955452 c -0.061225,0 -0.1134924,-0.010178 -0.1568616,-0.030583 -0.043368,-0.02296 -0.080538,-0.051021 -0.1111516,-0.084186 -0.028063,-0.035716 -0.049478,-0.075346 -0.064783,-0.1187144 -0.012754,-0.04592 -0.019402,-0.091869 -0.019402,-0.137788 V 3.0356615 c 0,-0.104594 -0.011242,-0.1978879 -0.034198,-0.2795226 C 5.8920171,2.674505 5.8523859,2.6071403 5.7962627,2.5535676 5.7401381,2.4974444 5.6647328,2.4553506 5.570343,2.427289 5.4785044,2.3966766 5.3637958,2.38125 5.2260376,2.38125 Z"
     style="font-size:6.01326px;line-height:1.25;font-family:ubuntu;-inkscape-font-specification:ubuntu;fill:#fef8f9;fill-opacity:1;stroke-width:0.0956655"
     id="path3752" />
  <path
     id="rect13250"
     style="fill:url(#linearGradient16320);fill-opacity:1;stroke-width:0.264583;stroke-linejoin:round;opacity:0.4"
     d="m 2.6458333,0.79375 c -1.71979143,0 -2.11666664,0.396875 -2.11666664,2.1166666 v 2.6458335 c 0,1.7197919 0.39687515,2.1166666 2.11666664,2.1166666 h 3.175 c 1.7197913,0 2.1166666,-0.3968747 2.1166666,-2.1166666 V 2.9104166 C 7.9374999,1.190625 7.5406249,0.79375 5.8208333,0.79375 Z m 0,0.2645833 h 3.175 c 1.5213541,0 1.8520833,0.3307294 1.8520833,1.8520833 v 2.6458335 c 0,1.5213542 -0.3307292,1.8520833 -1.8520833,1.8520833 h -3.175 c -1.5213541,0 -1.85208331,-0.3307291 -1.85208331,-1.8520833 V 2.9104166 c 0,-1.521354 0.33072921,-1.8520834 1.85208331,-1.8520833 z"
     sodipodi:nodetypes="ssssssssssssssssss" />
  <path
     id="rect2545"
     style="opacity:0.4;fill:#000000;stroke-width:0.387914;stroke-linejoin:round"
     d="m 2.6458333,0.52916667 c -1.91822909,0 -2.38124997,0.4630208 -2.38124997,2.38124993 V 5.55625 c 0,1.8520831 0.52916735,2.38125 2.38124997,2.38125 h 3.175 c 1.8520841,0 2.3812499,-0.5291669 2.3812499,-2.38125 V 2.9104166 c 0,-1.8520832 -0.5291666,-2.38124988 -2.3812499,-2.38124993 z m 0,0.26458333 h 3.175 c 1.7197916,0 2.1166666,0.396875 2.1166666,2.1166666 V 5.55625 c 0,1.7197917 -0.3968753,2.1166666 -2.1166666,2.1166666 h -3.175 c -1.71979162,0 -2.11666664,-0.3968749 -2.11666664,-2.1166666 V 2.9104166 c 0,-1.7197916 0.39687505,-2.1166666 2.11666664,-2.1166666 z"
     sodipodi:nodetypes="ssssssssssssssssss" />
</svg>
