<?xml version="1.0" encoding="UTF-8" standalone="no"?>
<!-- Created with Inkscape (http://www.inkscape.org/) -->

<svg
   width="32"
   height="32"
   viewBox="0 0 8.4666665 8.4666669"
   version="1.1"
   id="svg2719"
   inkscape:version="1.1.2 (0a00cf5339, 2022-02-04)"
   sodipodi:docname="google-chrome-beta.svg"
   xmlns:inkscape="http://www.inkscape.org/namespaces/inkscape"
   xmlns:sodipodi="http://sodipodi.sourceforge.net/DTD/sodipodi-0.dtd"
   xmlns:xlink="http://www.w3.org/1999/xlink"
   xmlns="http://www.w3.org/2000/svg"
   xmlns:svg="http://www.w3.org/2000/svg">
  <sodipodi:namedview
     id="namedview2721"
     pagecolor="#ffffff"
     bordercolor="#666666"
     borderopacity="1.0"
     inkscape:pageshadow="2"
     inkscape:pageopacity="0.0"
     inkscape:pagecheckerboard="0"
     inkscape:document-units="px"
     showgrid="false"
     units="px"
     inkscape:zoom="16"
     inkscape:cx="13.84375"
     inkscape:cy="20.0625"
     inkscape:window-width="1920"
     inkscape:window-height="1010"
     inkscape:window-x="0"
     inkscape:window-y="0"
     inkscape:window-maximized="1"
     inkscape:current-layer="svg2719" />
  <defs
     id="defs2716">
    <linearGradient
       inkscape:collect="always"
       id="linearGradient1871">
      <stop
         style="stop-color:#ffffff;stop-opacity:1;"
         offset="0"
         id="stop1867" />
      <stop
         style="stop-color:#ffffff;stop-opacity:0.1"
         offset="0.12"
         id="stop2515" />
      <stop
         style="stop-color:#ffffff;stop-opacity:0.102"
         offset="0.89999998"
         id="stop2581" />
      <stop
         style="stop-color:#ffffff;stop-opacity:0.502"
         offset="1"
         id="stop1869" />
    </linearGradient>
    <linearGradient
       inkscape:collect="always"
       xlink:href="#linearGradient1871"
       id="linearGradient16320"
       x1="10"
       y1="4"
       x2="10"
       y2="29.100245"
       gradientUnits="userSpaceOnUse"
       gradientTransform="matrix(0.26458333,0,0,0.26458333,0,-0.26458332)" />
    <linearGradient
       inkscape:collect="always"
       xlink:href="#linearGradient1353"
       id="linearGradient1355"
       x1="3.0266731"
       y1="4.6582699"
       x2="7.8305969"
       y2="4.6582699"
       gradientUnits="userSpaceOnUse"
       gradientTransform="matrix(2.7755082,0,0,2.519685,-0.40055645,-0.72727234)" />
    <linearGradient
       inkscape:collect="always"
       id="linearGradient1353">
      <stop
         style="stop-color:#db3328;stop-opacity:1;"
         offset="0"
         id="stop1349" />
      <stop
         style="stop-color:#e53d30;stop-opacity:1"
         offset="1"
         id="stop1351" />
    </linearGradient>
    <linearGradient
       inkscape:collect="always"
       xlink:href="#linearGradient5643"
       id="linearGradient5645"
       x1="2.1166666"
       y1="6.1988096"
       x2="4.8505816"
       y2="10.432143"
       gradientUnits="userSpaceOnUse"
       gradientTransform="scale(2.519685)" />
    <linearGradient
       inkscape:collect="always"
       id="linearGradient5643">
      <stop
         style="stop-color:#32a651;stop-opacity:1;"
         offset="0"
         id="stop5639" />
      <stop
         style="stop-color:#279847;stop-opacity:1"
         offset="1"
         id="stop5641" />
    </linearGradient>
  </defs>
  <path
     id="rect18683"
     style="opacity:0.1;fill:#000000;stroke-width:0.264583;stroke-linejoin:round"
     d="m 2.38125,0.92604165 c -1.45520832,0 -1.984375,0.52916665 -1.984375,1.98437495 v 3.0427085 c 0,1.5875 0.52916665,2.1166666 2.1166666,2.1166666 h 3.4395833 c 1.5875,0 2.1166667,-0.5291666 2.1166667,-2.1166666 V 3.0427083 c 0,-1.5875 -0.5291667,-2.11666665 -2.1166667,-2.11666665 z"
     sodipodi:nodetypes="sssssssss" />
  <path
     id="rect1108"
     style="fill:url(#linearGradient1355);fill-opacity:1;stroke-width:0.699693;stroke-linejoin:round"
     d="M 9 2.5 C 3.5 2.5 1.5 4.4999998 1.5 10 L 1.5 14.939453 L 9.0957031 20.03125 L 16 22.019531 L 16 8 L 23.400391 12.710938 L 30.439453 8.8554688 C 30.069698 4.1293752 27.913951 2.5 22.5 2.5 L 9 2.5 z "
     transform="scale(0.26458333)" />
  <path
     id="rect2658"
     style="fill:#fbbf12;stroke-width:0.666663;stroke-linejoin:round"
     d="M 16 8 L 16 16 L 9 20 L 14.541016 29.5 L 22.5 29.5 C 28.5 29.5 30.5 27.5 30.5 21.5 L 30.5 10.5 C 30.5 9.5736498 30.452317 8.7430162 30.349609 8 L 16 8 z "
     transform="scale(0.26458333)" />
  <path
     id="rect1825"
     style="fill:url(#linearGradient5645);fill-opacity:1;stroke-width:0.670167;stroke-linejoin:round"
     d="M 1.6953125 7.4179688 C 1.5635644 8.1766293 1.5 9.0331862 1.5 10 L 1.5 21.5 C 1.5 27.5 3.5 29.5 9.5 29.5 L 17.570312 29.5 L 22.888672 20.029297 L 9.0957031 20.03125 L 1.6953125 7.4179688 z "
     transform="scale(0.26458333)" />
  <circle
     style="fill:#ffffff;fill-opacity:1;stroke-width:0.176388;stroke-linejoin:round"
     id="path2361"
     cx="4.2333326"
     cy="4.2333331"
     r="2.1166666" />
  <circle
     style="fill:#1a73e8;fill-opacity:1;stroke-width:0.18814;stroke-linejoin:round"
     id="path6261"
     cx="4.2333326"
     cy="4.2333331"
     r="1.6756946" />
  <path
     id="rect864"
     style="fill:#414342;fill-opacity:1;stroke-width:0.999999;stroke-linecap:round;stroke-linejoin:round"
     d="M 1.5 20 L 1.5 21.5 C 1.5 27.5 3.5000003 29.5 9.5 29.5 L 22.5 29.5 C 28.5 29.5 30.5 27.5 30.5 21.5 L 30.5 20 L 1.5 20 z "
     transform="scale(0.26458333)" />
  <path
     id="rect7125"
     style="fill:#ffffff;fill-opacity:1;stroke-width:0.183085;stroke-linejoin:round"
     d="m 2.5135417,5.8208334 v 1.293849 h 0.4896344 c 0.068676,0 0.1328114,-0.015506 0.1918486,-0.046832 C 3.2552667,7.0365244 3.302841,6.9931124 3.337781,6.9376898 3.373927,6.8810618 3.391718,6.8179823 3.391718,6.7481019 3.391718,6.6770169 3.371316,6.6147568 3.330353,6.5617438 3.289389,6.5087308 3.236509,6.4713568 3.171448,6.4496696 v -0.0071 C 3.225666,6.4172666 3.268344,6.3810366 3.29967,6.3340496 3.3322,6.2870606 3.348439,6.2323059 3.348439,6.1696537 3.348439,6.1033877 3.33179,6.0437371 3.298055,5.9907242 3.2643205,5.937712 3.2182992,5.896177 3.1604667,5.8660558 3.1038392,5.8359345 3.0430455,5.8208383 2.9779844,5.8208383 Z m 2.1523238,0.1120738 v 0.26032 H 4.5050226 v 0.1392035 h 0.1608429 v 0.5403418 c 0,0.043375 0.00604,0.080015 0.018088,0.110135 0.01205,0.030121 0.030164,0.05656 0.05426,0.079453 0.021687,0.020479 0.048127,0.03672 0.079453,0.04877 0.032531,0.01205 0.067617,0.018086 0.1049675,0.018086 0.028916,0 0.052336,-0.00186 0.070409,-0.00549 0.019277,-0.00362 0.038126,-0.00965 0.056199,-0.018088 v -0.149859 c -0.032531,0.020484 -0.066475,0.030683 -0.101415,0.030683 -0.043375,0 -0.076263,-0.013218 -0.099154,-0.039726 C 4.829395,6.9226405 4.819604,6.8852675 4.819604,6.8346639 V 6.3324302 H 5.0437495 V 6.1932267 H 4.8196029 v -0.26032 z m -2.0005243,0.034235 h 0.3197479 c 0.04217,0 0.079133,0.0102 0.1104588,0.030683 0.03253,0.020482 0.057094,0.047245 0.073961,0.079775 0.018073,0.031326 0.02713,0.06307 0.02713,0.095601 0,0.033736 -0.00906,0.066946 -0.02713,0.099477 -0.018072,0.031326 -0.043779,0.057355 -0.077515,0.077838 -0.03253,0.020482 -0.070636,0.030683 -0.1140113,0.030683 H 2.6653403 Z m 1.3103209,0.1970163 c -0.089159,0 -0.1676568,0.022278 -0.2351278,0.066856 -0.067471,0.044579 -0.1196175,0.1042301 -0.1569673,0.1789297 -0.036146,0.0747 -0.05426,0.1566277 -0.05426,0.245786 0,0.092772 0.019259,0.1765764 0.057814,0.2512768 0.039759,0.073495 0.094515,0.1312699 0.1643955,0.1734391 0.069881,0.042169 0.1487893,0.063304 0.2367429,0.063304 0.096388,0 0.1783149,-0.021544 0.2457861,-0.064919 0.068676,-0.043374 0.1230208,-0.1026145 0.16278,-0.1773142 L 4.266665,6.8382135 c -0.063856,0.110845 -0.1548416,0.1663334 -0.2729161,0.1663334 -0.050603,0 -0.09932,-0.012075 -0.1463091,-0.036174 C 3.8016558,6.9442769 3.7635498,6.9080469 3.7334285,6.8598528 3.7033055,6.8116588 3.6863335,6.7527416 3.6827215,6.6828611 h 0.7283149 c 0.00361,-0.013254 0.00549,-0.028761 0.00549,-0.046831 0,-0.091569 -0.018115,-0.1730857 -0.05426,-0.2441713 C 4.3273256,6.3207722 4.2767326,6.2652842 4.2104665,6.2255245 4.1442001,6.1845599 4.0660247,6.1641588 3.9756621,6.1641585 Z m 1.5793613,0 c -0.07711,0 -0.1473709,0.015829 -0.2112275,0.047155 -0.062651,0.031326 -0.1121014,0.074738 -0.1482469,0.1301602 l 0.1156264,0.086558 c 0.025302,-0.03976 0.059655,-0.070361 0.10303,-0.092049 0.043375,-0.022893 0.090948,-0.034559 0.1427561,-0.034559 0.073495,0 0.1342889,0.021134 0.1824823,0.063304 0.048194,0.040965 0.072348,0.09572 0.072348,0.1643957 v 0.056197 c -0.025301,-0.015663 -0.061941,-0.029616 -0.110135,-0.041665 -0.046989,-0.01205 -0.098315,-0.018086 -0.1537375,-0.018086 -0.11205,0 -0.2049114,0.027906 -0.2784067,0.083329 -0.073495,0.054218 -0.110135,0.1301066 -0.110135,0.2276992 0,0.059037 0.014361,0.1119163 0.043279,0.1589051 0.028916,0.045781 0.070041,0.082013 0.123055,0.10852 0.053012,0.026508 0.1130738,0.039726 0.1805447,0.039726 0.066266,0 0.1259168,-0.015506 0.1789298,-0.046831 0.053012,-0.031326 0.092995,-0.069433 0.1195012,-0.1140112 h 0.0071 V 7.1146823 H 5.9580999 V 6.5310617 c 0,-0.1132551 -0.035908,-0.2023643 -0.1081975,-0.2674259 C 5.7788174,6.19737 5.6803274,6.1641588 5.5550234,6.1641585 Z M 3.9737242,6.3033621 c 0.062651,0 0.1143875,0.013219 0.1553523,0.039726 0.04217,0.026506 0.073094,0.058984 0.092371,0.097539 0.019278,0.038555 0.030211,0.077071 0.03262,0.1156263 h -0.562303 c 0.015664,-0.075905 0.048464,-0.1366985 0.097863,-0.1824825 0.050604,-0.046989 0.1118063,-0.070409 0.1840967,-0.070409 z m -1.308383,0.2222087 h 0.3397727 c 0.045784,0 0.086176,0.010937 0.1211162,0.03262 0.034941,0.020482 0.062113,0.048065 0.08139,0.083005 0.019277,0.033734 0.028745,0.068821 0.028745,0.1049675 0,0.036144 -0.00946,0.071641 -0.028745,0.1065825 -0.018073,0.033735 -0.044513,0.061641 -0.079452,0.083329 -0.033735,0.021687 -0.072575,0.032297 -0.1159488,0.032297 H 2.6653412 Z m 2.9061541,0.1246689 c 0.046989,0 0.091544,0.00604 0.1337127,0.018088 0.042169,0.01205 0.077666,0.027876 0.1065825,0.047155 3e-7,0.053013 -0.013219,0.10173 -0.039726,0.146309 -0.026506,0.044577 -0.062004,0.080074 -0.1065825,0.1065825 -0.04458,0.026504 -0.092886,0.039726 -0.1446941,0.039726 -0.059036,0 -0.1077538,-0.015506 -0.146309,-0.046831 -0.038555,-0.031326 -0.057813,-0.072451 -0.057813,-0.123055 0,-0.055421 0.021134,-0.1003863 0.063304,-0.1353279 0.043375,-0.034941 0.1071862,-0.052645 0.1915254,-0.052647 z" />
  <path
     id="rect13250"
     style="fill:url(#linearGradient16320);fill-opacity:1;stroke-width:0.264583;stroke-linejoin:round"
     d="m 2.6458333,0.79375 c -1.71979143,0 -2.11666664,0.396875 -2.11666664,2.1166666 v 2.6458335 c 0,1.7197919 0.39687515,2.1166666 2.11666664,2.1166666 h 3.175 c 1.7197913,0 2.1166666,-0.3968747 2.1166666,-2.1166666 V 2.9104166 C 7.9374999,1.190625 7.5406249,0.79375 5.8208333,0.79375 Z m 0,0.2645833 h 3.175 c 1.5213541,0 1.8520833,0.3307294 1.8520833,1.8520833 v 2.6458335 c 0,1.5213542 -0.3307292,1.8520833 -1.8520833,1.8520833 h -3.175 c -1.5213541,0 -1.85208331,-0.3307291 -1.85208331,-1.8520833 V 2.9104166 c 0,-1.521354 0.33072921,-1.8520834 1.85208331,-1.8520833 z"
     sodipodi:nodetypes="ssssssssssssssssss" />
  <path
     id="rect2545"
     style="opacity:0.4;fill:#000000;stroke-width:0.387914;stroke-linejoin:round"
     d="m 2.6458333,0.52916667 c -1.91822909,0 -2.38124997,0.4630208 -2.38124997,2.38124993 V 5.55625 c 0,1.8520831 0.52916735,2.38125 2.38124997,2.38125 h 3.175 c 1.8520841,0 2.3812499,-0.5291669 2.3812499,-2.38125 V 2.9104166 c 0,-1.8520832 -0.5291666,-2.38124988 -2.3812499,-2.38124993 z m 0,0.26458333 h 3.175 c 1.7197916,0 2.1166666,0.396875 2.1166666,2.1166666 V 5.55625 c 0,1.7197917 -0.3968753,2.1166666 -2.1166666,2.1166666 h -3.175 c -1.71979162,0 -2.11666664,-0.3968749 -2.11666664,-2.1166666 V 2.9104166 c 0,-1.7197916 0.39687505,-2.1166666 2.11666664,-2.1166666 z"
     sodipodi:nodetypes="ssssssssssssssssss" />
</svg>
