<?xml version="1.0" encoding="UTF-8" standalone="no"?>
<!-- Created with Inkscape (http://www.inkscape.org/) -->

<svg
   width="32"
   height="32"
   viewBox="0 0 8.4666665 8.4666669"
   version="1.1"
   id="svg2719"
   inkscape:version="1.1.2 (0a00cf5339, 2022-02-04)"
   sodipodi:docname="kfontview.svg"
   xmlns:inkscape="http://www.inkscape.org/namespaces/inkscape"
   xmlns:sodipodi="http://sodipodi.sourceforge.net/DTD/sodipodi-0.dtd"
   xmlns:xlink="http://www.w3.org/1999/xlink"
   xmlns="http://www.w3.org/2000/svg"
   xmlns:svg="http://www.w3.org/2000/svg">
  <sodipodi:namedview
     id="namedview2721"
     pagecolor="#ffffff"
     bordercolor="#666666"
     borderopacity="1.0"
     inkscape:pageshadow="2"
     inkscape:pageopacity="0.0"
     inkscape:pagecheckerboard="0"
     inkscape:document-units="px"
     showgrid="false"
     units="px"
     inkscape:zoom="24.65625"
     inkscape:cx="16"
     inkscape:cy="16"
     inkscape:window-width="1851"
     inkscape:window-height="1016"
     inkscape:window-x="0"
     inkscape:window-y="0"
     inkscape:window-maximized="1"
     inkscape:current-layer="svg2719" />
  <defs
     id="defs2716">
    <linearGradient
       inkscape:collect="always"
       id="linearGradient2290">
      <stop
         style="stop-color:#f9f9f9;stop-opacity:1"
         offset="0"
         id="stop2286" />
      <stop
         style="stop-color:#f2f2f2;stop-opacity:1"
         offset="1"
         id="stop2288" />
    </linearGradient>
    <linearGradient
       inkscape:collect="always"
       id="linearGradient1871">
      <stop
         style="stop-color:#ffffff;stop-opacity:1;"
         offset="0"
         id="stop1867" />
      <stop
         style="stop-color:#ffffff;stop-opacity:0.1"
         offset="0.12"
         id="stop2515" />
      <stop
         style="stop-color:#ffffff;stop-opacity:0.102"
         offset="0.89999998"
         id="stop2581" />
      <stop
         style="stop-color:#ffffff;stop-opacity:0.502"
         offset="1"
         id="stop1869" />
    </linearGradient>
    <linearGradient
       inkscape:collect="always"
       xlink:href="#linearGradient1871"
       id="linearGradient16320"
       x1="10"
       y1="4"
       x2="10"
       y2="29.100245"
       gradientUnits="userSpaceOnUse"
       gradientTransform="matrix(0.26458333,0,0,0.26458333,0,-0.26458332)" />
    <linearGradient
       inkscape:collect="always"
       xlink:href="#linearGradient2290"
       id="linearGradient2292"
       x1="2.6378405"
       y1="7.9366827"
       x2="6.3499999"
       y2="0.5291667"
       gradientUnits="userSpaceOnUse" />
  </defs>
  <path
     id="rect18683"
     style="opacity:0.1;fill:#000000;stroke-width:0.264583;stroke-linejoin:round"
     d="m 2.38125,0.92604165 c -1.45520832,0 -1.984375,0.52916665 -1.984375,1.98437495 v 3.0427085 c 0,1.5875 0.52916665,2.1166666 2.1166666,2.1166666 h 3.4395833 c 1.5875,0 2.1166667,-0.5291666 2.1166667,-2.1166666 V 3.0427083 c 0,-1.5875 -0.5291667,-2.11666665 -2.1166667,-2.11666665 z"
     sodipodi:nodetypes="sssssssss" />
  <path
     id="rect6397"
     style="fill:url(#linearGradient2292);fill-opacity:1;stroke-width:0.255274;stroke-linejoin:round"
     d="M 0.39687499,2.6458334 C 0.396875,1.190625 0.92604165,0.66145833 2.38125,0.66145834 h 3.571875 c 1.5874999,-1e-8 2.1166666,0.52916666 2.1166668,2.11666666 l 10e-8,2.9104168 c 0,1.5874999 -0.529166,2.1166666 -2.116666,2.1166666 H 2.5135417 c -1.58750001,0 -2.11666671,-0.5291667 -2.11666671,-2.1166667 z"
     sodipodi:nodetypes="ccccccccc" />
  <path
     id="rect2981"
     style="fill:#2f5fdd;fill-opacity:1;stroke-width:0.155637;stroke-linejoin:round"
     d="M 2.9259196,2.38125 C 2.810779,2.6211263 2.700432,2.8642228 2.5948865,3.1104957 2.4893409,3.3535703 2.3823245,3.6093815 2.2735806,3.8780428 2.1680351,4.1467039 2.0593534,4.4312749 1.9474112,4.7319198 1.835469,5.0293663 1.715434,5.3540501 1.5875,5.7058686 H 2.0720426 L 2.3741978,4.8568552 h 1.50652 c 0.051174,0.1439257 0.1006705,0.2860591 0.1486457,0.4267866 0.047975,0.1375289 0.099138,0.2783011 0.1535093,0.4222268 H 4.6914297 C 4.5634958,5.3540501 4.4437648,5.0293663 4.3318225,4.7319198 4.2198806,4.4312749 4.1095333,4.1467039 4.0007894,3.8780428 3.895244,3.6093815 3.7895889,3.3535703 3.6840433,3.1104957 3.5784978,2.8642228 3.4681508,2.6211263 3.3530102,2.38125 Z M 3.1274577,2.9138213 C 3.2362016,3.1536976 3.3401915,3.4048167 3.4393403,3.6670814 3.5416872,3.9261477 3.6440119,4.1946733 3.7463591,4.4729297 H 2.5085565 C 2.6077052,4.1946733 2.707003,3.9261477 2.8061519,3.6670814 2.9084992,3.4048167 3.0155155,3.1536976 3.1274577,2.9138213 Z M 5.919809,3.1487972 c -0.1567192,0 -0.3024871,0.012714 -0.4368178,0.038301 -0.1343307,0.022389 -0.230298,0.046457 -0.2878681,0.072043 l 0.052892,0.3693345 c 0.054372,-0.022388 0.1359593,-0.043126 0.2447032,-0.062316 0.1119423,-0.022388 0.241361,-0.033438 0.3884852,-0.033438 0.1151405,0 0.2080811,0.017407 0.2784447,0.052588 0.073562,0.031983 0.1310816,0.076788 0.1726601,0.1343587 0.041578,0.054372 0.070338,0.1185527 0.08633,0.1921147 0.015992,0.070364 0.024014,0.1422632 0.024014,0.2158252 v 0.1246315 c -0.012793,-0.0032 -0.035196,-0.00789 -0.067179,-0.014288 -0.031983,-0.0064 -0.070431,-0.012754 -0.115208,-0.019151 -0.041579,-0.00959 -0.086384,-0.015951 -0.1343588,-0.019151 -0.047975,-0.0064 -0.094446,-0.00973 -0.1392224,-0.00973 -0.1407274,0 -0.2748383,0.014379 -0.4027723,0.043165 -0.1279336,0.02879 -0.2399459,0.073595 -0.3358965,0.1343636 -0.09595,0.060769 -0.1728457,0.1406906 -0.2304161,0.2398393 -0.054372,0.099149 -0.081466,0.2175185 -0.081466,0.3550475 0,0.1439257 0.024068,0.2669874 0.072043,0.3693345 0.047975,0.1023473 0.1151826,0.1855998 0.2015381,0.2495669 0.086355,0.060769 0.1886791,0.1055734 0.3070188,0.1343587 0.1183389,0.028785 0.2477578,0.043165 0.3884852,0.043165 0.099149,0 0.1984465,-0.00499 0.2975954,-0.014591 0.1023472,-0.0064 0.1966489,-0.014115 0.2830044,-0.02371 0.086355,-0.0096 0.1629466,-0.019283 0.2301122,-0.028878 0.070363,-0.012793 0.1248562,-0.022481 0.1632367,-0.028877 V 4.1035951 C 6.879167,3.9628678 6.863123,3.8348102 6.831138,3.7196696 6.7991546,3.6013307 6.7449658,3.5006716 6.6682053,3.4175145 6.5946434,3.3311591 6.4953455,3.2656169 6.3706099,3.2208401 6.2490726,3.1728649 6.0989164,3.1487972 5.919809,3.1487972 Z m 0.079946,1.4010392 c 0.00855,-1.5e-4 0.017139,0 0.025534,0 0.1023472,0 0.1886264,0.00636 0.25899,0.019151 0.073562,0.0096 0.1263898,0.022309 0.1583731,0.038301 v 0.7435327 c -0.054372,0.012793 -0.1232447,0.022481 -0.2064016,0.028878 -0.079959,0.0032 -0.1725954,0.00486 -0.2781409,0.00486 -0.1759084,3.5e-6 -0.3150153,-0.030422 -0.4173624,-0.09119 C 5.4384,5.2294021 5.3872379,5.1173896 5.3872377,4.9574722 c 0,-0.086355 0.020737,-0.1549241 0.062316,-0.2060977 0.041578,-0.054372 0.092741,-0.09615 0.1535094,-0.1249354 0.063967,-0.031984 0.1328398,-0.052721 0.2064018,-0.062316 0.067165,-0.0084 0.1304718,-0.013237 0.1902908,-0.014288 z" />
  <path
     id="rect1372"
     style="opacity:0.2;fill:#ffffff;fill-opacity:1;stroke-width:0.999999;stroke-linejoin:round"
     d="M 1.5 16 L 1.5 21.5 C 1.5 27.5 3.5 29.5 9.5 29.5 L 22.5 29.5 C 28.5 29.5 30.5 27.5 30.5 21.5 L 30.5 16 L 1.5 16 z "
     transform="scale(0.26458333)" />
  <path
     d="M 4.2333334,0.66145834 V 7.8052083 h 1.7197917 c 1.5875,0 2.1166664,-0.5291666 2.1166664,-2.1166666 V 2.778125 c 0,-1.5875001 -0.5291664,-2.11666666 -2.1166664,-2.11666666 z"
     style="opacity:0.1;fill:#ffffff;fill-opacity:1;stroke-width:0.264583;stroke-linejoin:round"
     id="path867" />
  <path
     id="rect13250"
     style="fill:url(#linearGradient16320);fill-opacity:1;stroke-width:0.264583;stroke-linejoin:round"
     d="m 2.6458333,0.79375 c -1.71979143,0 -2.11666664,0.396875 -2.11666664,2.1166666 v 2.6458335 c 0,1.7197919 0.39687515,2.1166666 2.11666664,2.1166666 h 3.175 c 1.7197913,0 2.1166666,-0.3968747 2.1166666,-2.1166666 V 2.9104166 C 7.9374999,1.190625 7.5406249,0.79375 5.8208333,0.79375 Z m 0,0.2645833 h 3.175 c 1.5213541,0 1.8520833,0.3307294 1.8520833,1.8520833 v 2.6458335 c 0,1.5213542 -0.3307292,1.8520833 -1.8520833,1.8520833 h -3.175 c -1.5213541,0 -1.85208331,-0.3307291 -1.85208331,-1.8520833 V 2.9104166 c 0,-1.521354 0.33072921,-1.8520834 1.85208331,-1.8520833 z"
     sodipodi:nodetypes="ssssssssssssssssss" />
  <path
     id="rect2545"
     style="opacity:0.4;fill:#000000;stroke-width:0.387914;stroke-linejoin:round"
     d="m 2.6458333,0.52916667 c -1.91822909,0 -2.38124997,0.4630208 -2.38124997,2.38124993 V 5.55625 c 0,1.8520831 0.52916735,2.38125 2.38124997,2.38125 h 3.175 c 1.8520841,0 2.3812499,-0.5291669 2.3812499,-2.38125 V 2.9104166 c 0,-1.8520832 -0.5291666,-2.38124988 -2.3812499,-2.38124993 z m 0,0.26458333 h 3.175 c 1.7197916,0 2.1166666,0.396875 2.1166666,2.1166666 V 5.55625 c 0,1.7197917 -0.3968753,2.1166666 -2.1166666,2.1166666 h -3.175 c -1.71979162,0 -2.11666664,-0.3968749 -2.11666664,-2.1166666 V 2.9104166 c 0,-1.7197916 0.39687505,-2.1166666 2.11666664,-2.1166666 z"
     sodipodi:nodetypes="ssssssssssssssssss" />
</svg>
