<?xml version="1.0" encoding="UTF-8" standalone="no"?>
<!-- Created with Inkscape (http://www.inkscape.org/) -->

<svg
   width="32"
   height="32"
   viewBox="0 0 8.4666665 8.4666669"
   version="1.1"
   id="svg2719"
   inkscape:version="1.1.2 (0a00cf5339, 2022-02-04)"
   sodipodi:docname="libreoffice-math.svg"
   xmlns:inkscape="http://www.inkscape.org/namespaces/inkscape"
   xmlns:sodipodi="http://sodipodi.sourceforge.net/DTD/sodipodi-0.dtd"
   xmlns:xlink="http://www.w3.org/1999/xlink"
   xmlns="http://www.w3.org/2000/svg"
   xmlns:svg="http://www.w3.org/2000/svg">
  <sodipodi:namedview
     id="namedview2721"
     pagecolor="#ffffff"
     bordercolor="#666666"
     borderopacity="1.0"
     inkscape:pageshadow="2"
     inkscape:pageopacity="0.0"
     inkscape:pagecheckerboard="0"
     inkscape:document-units="px"
     showgrid="false"
     units="px"
     inkscape:zoom="25.5625"
     inkscape:cx="18.132029"
     inkscape:cy="15.452323"
     inkscape:window-width="1920"
     inkscape:window-height="998"
     inkscape:window-x="0"
     inkscape:window-y="0"
     inkscape:window-maximized="1"
     inkscape:current-layer="svg2719"
     showguides="false" />
  <defs
     id="defs2716">
    <linearGradient
       inkscape:collect="always"
       id="linearGradient894">
      <stop
         style="stop-color:#ffffff;stop-opacity:1;"
         offset="0"
         id="stop890" />
      <stop
         style="stop-color:#ffffff;stop-opacity:0.851"
         offset="1"
         id="stop892" />
    </linearGradient>
    <linearGradient
       inkscape:collect="always"
       id="linearGradient2290">
      <stop
         style="stop-color:#626262;stop-opacity:1"
         offset="0"
         id="stop2286" />
      <stop
         style="stop-color:#4e4e4e;stop-opacity:1"
         offset="1"
         id="stop2288" />
    </linearGradient>
    <linearGradient
       inkscape:collect="always"
       id="linearGradient1871">
      <stop
         style="stop-color:#ffffff;stop-opacity:1;"
         offset="0"
         id="stop1867" />
      <stop
         style="stop-color:#ffffff;stop-opacity:0.1"
         offset="0.12"
         id="stop2515" />
      <stop
         style="stop-color:#ffffff;stop-opacity:0.102"
         offset="0.89999998"
         id="stop2581" />
      <stop
         style="stop-color:#ffffff;stop-opacity:0.502"
         offset="1"
         id="stop1869" />
    </linearGradient>
    <linearGradient
       inkscape:collect="always"
       xlink:href="#linearGradient1871"
       id="linearGradient16320"
       x1="10"
       y1="4"
       x2="10"
       y2="29.100245"
       gradientUnits="userSpaceOnUse"
       gradientTransform="matrix(0.26458333,0,0,0.26458333,0,-0.26458332)" />
    <linearGradient
       inkscape:collect="always"
       xlink:href="#linearGradient2290"
       id="linearGradient2292"
       x1="5.8208332"
       y1="7.9375"
       x2="2.6458333"
       y2="0.5291667"
       gradientUnits="userSpaceOnUse" />
    <linearGradient
       inkscape:collect="always"
       xlink:href="#linearGradient894"
       id="linearGradient896"
       x1="5.2916665"
       y1="6.0854168"
       x2="5.2916665"
       y2="2.2489581"
       gradientUnits="userSpaceOnUse"
       gradientTransform="matrix(1,0,0,1.0769231,0,-0.20352567)" />
    <linearGradient
       id="linearGradient8363"
       x1="3716.2"
       x2="3716.2"
       y1="685.14001"
       y2="706.41998"
       gradientUnits="userSpaceOnUse"
       xlink:href="#linearGradient10292"
       gradientTransform="matrix(0.39795979,0,0,0.39795979,-1475.0272,-273.18835)" />
    <linearGradient
       id="linearGradient10292">
      <stop
         stop-color="#666"
         offset="0"
         id="stop18" />
      <stop
         stop-color="#333"
         offset="1"
         id="stop20" />
    </linearGradient>
  </defs>
  <path
     id="rect18683"
     style="opacity:0.1;fill:#000000;stroke-width:0.264583;stroke-linejoin:round"
     d="m 2.38125,0.92604165 c -1.45520832,0 -1.984375,0.52916665 -1.984375,1.98437495 v 3.0427085 c 0,1.5875 0.52916665,2.1166666 2.1166666,2.1166666 h 3.4395833 c 1.5875,0 2.1166667,-0.5291666 2.1166667,-2.1166666 V 3.0427083 c 0,-1.5875 -0.5291667,-2.11666665 -2.1166667,-2.11666665 z"
     sodipodi:nodetypes="sssssssss" />
  <path
     id="rect6397"
     style="fill:url(#linearGradient2292);fill-opacity:1;stroke-width:0.255274;stroke-linejoin:round"
     d="M 0.39687499,2.6458334 C 0.396875,1.190625 0.92604165,0.66145833 2.38125,0.66145834 h 3.571875 c 1.5874999,-1e-8 2.1166666,0.52916666 2.1166668,2.11666666 l 10e-8,2.9104168 c 0,1.5874999 -0.529166,2.1166666 -2.116666,2.1166666 H 2.5135417 c -1.58750001,0 -2.11666671,-0.5291667 -2.11666671,-2.1166667 z"
     sodipodi:nodetypes="ccccccccc" />
  <path
     id="rect2161"
     style="fill:#ffffff;stroke-width:2;stroke-linecap:round;stroke-linejoin:round"
     d="M 10,5 C 4.9999999,5 3.9999981,6.0000003 4,11 v 10 c -1.9e-6,5 0.9999999,6 6,6 h 12 c 5,0 6.000002,-1 6,-6 V 12 L 21,5 Z"
     transform="scale(0.26458333)"
     sodipodi:nodetypes="scssssccs" />
  <path
     id="rect1372"
     style="opacity:0.1;fill:#ffffff;fill-opacity:1;stroke-width:0.999999;stroke-linejoin:round"
     d="M 1.5 16 L 1.5 21.5 C 1.5 27.5 3.5 29.5 9.5 29.5 L 22.5 29.5 C 28.5 29.5 30.5 27.5 30.5 21.5 L 30.5 16 L 1.5 16 z "
     transform="scale(0.26458333)" />
  <rect
     style="opacity:0.6;fill:url(#linearGradient896);fill-opacity:1;stroke-width:0.549143;stroke-linecap:round;stroke-linejoin:round"
     id="rect866"
     width="4.2333331"
     height="3.7041667"
     x="2.1166666"
     y="2.6458333" />
  <path
     id="rect47"
     d="M 2.1166667,2.6458333 V 2.9104166 5.8208333 6.0854166 H 2.38125 6.0854167 6.35 v -0.2645833 -3.175 z M 2.38125,2.9104166 H 6.0854167 V 5.8208333 H 2.38125 Z"
     style="fill:#f09e6f;fill-opacity:1;stroke-width:0.264583" />
  <path
     id="path55"
     style="fill:url(#linearGradient8363);stroke-width:0.39796"
     d="M 3.8364582,3.175 3.3336466,5.0270833 2.9104165,3.96875 H 2.3812499 V 4.2333333 H 2.6458332 L 3.1749998,5.5562499 H 3.5455199 L 4.1010415,3.4659382 H 5.5562498 V 3.7041666 H 5.8208331 V 3.175 Z m 0.6599081,1.0283608 a 0.17197916,0.17197916 0 0 0 -0.1214395,0.050643 0.17197916,0.17197916 0 0 0 0,0.243396 L 4.7826537,4.90461 4.3749268,5.3123372 a 0.17197916,0.17197916 0 0 0 0,0.242879 0.17197916,0.17197916 0 0 0 0.242879,5.292e-4 L 5.0255329,5.1480061 5.4332601,5.5557332 a 0.17197916,0.17197916 0 0 0 0.242879,-5.292e-4 0.17197916,0.17197916 0 0 0 0,-0.242879 L 5.2684122,4.90461 5.6761391,4.4973999 a 0.17197916,0.17197916 0 0 0 0,-0.243396 0.17197916,0.17197916 0 0 0 -0.242879,0 L 5.0255329,4.6617307 4.6178058,4.2540039 A 0.17197916,0.17197916 0 0 0 4.4963663,4.2033608 Z" />
  <path
     id="rect13250"
     style="fill:url(#linearGradient16320);fill-opacity:1;stroke-width:0.264583;stroke-linejoin:round"
     d="m 2.6458333,0.79375 c -1.71979143,0 -2.11666664,0.396875 -2.11666664,2.1166666 v 2.6458335 c 0,1.7197919 0.39687515,2.1166666 2.11666664,2.1166666 h 3.175 c 1.7197913,0 2.1166666,-0.3968747 2.1166666,-2.1166666 V 2.9104166 C 7.9374999,1.190625 7.5406249,0.79375 5.8208333,0.79375 Z m 0,0.2645833 h 3.175 c 1.5213541,0 1.8520833,0.3307294 1.8520833,1.8520833 v 2.6458335 c 0,1.5213542 -0.3307292,1.8520833 -1.8520833,1.8520833 h -3.175 c -1.5213541,0 -1.85208331,-0.3307291 -1.85208331,-1.8520833 V 2.9104166 c 0,-1.521354 0.33072921,-1.8520834 1.85208331,-1.8520833 z"
     sodipodi:nodetypes="ssssssssssssssssss" />
  <path
     id="rect2545"
     style="opacity:0.4;fill:#000000;stroke-width:0.387914;stroke-linejoin:round"
     d="m 2.6458333,0.52916667 c -1.91822909,0 -2.38124997,0.4630208 -2.38124997,2.38124993 V 5.55625 c 0,1.8520831 0.52916735,2.38125 2.38124997,2.38125 h 3.175 c 1.8520841,0 2.3812499,-0.5291669 2.3812499,-2.38125 V 2.9104166 c 0,-1.8520832 -0.5291666,-2.38124988 -2.3812499,-2.38124993 z m 0,0.26458333 h 3.175 c 1.7197916,0 2.1166666,0.396875 2.1166666,2.1166666 V 5.55625 c 0,1.7197917 -0.3968753,2.1166666 -2.1166666,2.1166666 h -3.175 c -1.71979162,0 -2.11666664,-0.3968749 -2.11666664,-2.1166666 V 2.9104166 c 0,-1.7197916 0.39687505,-2.1166666 2.11666664,-2.1166666 z"
     sodipodi:nodetypes="ssssssssssssssssss" />
</svg>
