<?xml version="1.0" encoding="UTF-8" standalone="no"?>
<!-- Created with Inkscape (http://www.inkscape.org/) -->

<svg
   width="32"
   height="32"
   viewBox="0 0 8.4666665 8.4666669"
   version="1.1"
   id="svg2719"
   inkscape:version="1.1.2 (0a00cf5339, 2022-02-04)"
   sodipodi:docname="microsoft-edge-canary.svg"
   xmlns:inkscape="http://www.inkscape.org/namespaces/inkscape"
   xmlns:sodipodi="http://sodipodi.sourceforge.net/DTD/sodipodi-0.dtd"
   xmlns:xlink="http://www.w3.org/1999/xlink"
   xmlns="http://www.w3.org/2000/svg"
   xmlns:svg="http://www.w3.org/2000/svg">
  <sodipodi:namedview
     id="namedview2721"
     pagecolor="#ffffff"
     bordercolor="#666666"
     borderopacity="1.0"
     inkscape:pageshadow="2"
     inkscape:pageopacity="0.0"
     inkscape:pagecheckerboard="0"
     inkscape:document-units="px"
     showgrid="false"
     units="px"
     inkscape:zoom="25.90625"
     inkscape:cx="16"
     inkscape:cy="16"
     inkscape:window-width="1920"
     inkscape:window-height="1019"
     inkscape:window-x="0"
     inkscape:window-y="0"
     inkscape:window-maximized="1"
     inkscape:current-layer="svg2719" />
  <defs
     id="defs2716">
    <linearGradient
       inkscape:collect="always"
       id="linearGradient1871">
      <stop
         style="stop-color:#ffffff;stop-opacity:1;"
         offset="0"
         id="stop1867" />
      <stop
         style="stop-color:#ffffff;stop-opacity:0.1"
         offset="0.12"
         id="stop2515" />
      <stop
         style="stop-color:#ffffff;stop-opacity:0.102"
         offset="0.89999998"
         id="stop2581" />
      <stop
         style="stop-color:#ffffff;stop-opacity:0.502"
         offset="1"
         id="stop1869" />
    </linearGradient>
    <linearGradient
       inkscape:collect="always"
       xlink:href="#linearGradient1871"
       id="linearGradient16320"
       x1="10"
       y1="4"
       x2="10"
       y2="29.100245"
       gradientUnits="userSpaceOnUse"
       gradientTransform="matrix(0.26458333,0,0,0.26458333,0,-0.26458332)" />
    <linearGradient
       id="linear-gradient"
       x1="63.330002"
       y1="84.029999"
       x2="241.67"
       y2="84.029999"
       gradientTransform="matrix(0.26458333,0,0,-0.26458333,-30.855179,42.134199)"
       gradientUnits="userSpaceOnUse">
      <stop
         offset="0"
         stop-color="#0c59a4"
         id="stop4" />
      <stop
         offset="1"
         stop-color="#114a8b"
         id="stop6" />
    </linearGradient>
    <radialGradient
       id="radial-gradient"
       cx="161.83"
       cy="68.910004"
       r="95.379997"
       gradientTransform="matrix(0.26458333,0,0,-0.25135416,-30.855179,37.593949)"
       gradientUnits="userSpaceOnUse">
      <stop
         offset="0.72"
         stop-opacity="0"
         id="stop9" />
      <stop
         offset="0.95"
         stop-opacity="0.53"
         id="stop11" />
      <stop
         offset="1"
         id="stop13" />
    </radialGradient>
    <linearGradient
       id="linear-gradient-2"
       x1="157.35001"
       y1="161.39"
       x2="45.959999"
       y2="40.060001"
       gradientTransform="matrix(0.26458333,0,0,-0.26458333,-30.855179,42.134199)"
       gradientUnits="userSpaceOnUse">
      <stop
         offset="0"
         stop-color="#1b9de2"
         id="stop16" />
      <stop
         offset="0.16"
         stop-color="#1595df"
         id="stop18" />
      <stop
         offset="0.67"
         stop-color="#0680d7"
         id="stop20" />
      <stop
         offset="1"
         stop-color="#0078d4"
         id="stop22" />
    </linearGradient>
    <radialGradient
       id="radial-gradient-2"
       cx="-340.29001"
       cy="62.990002"
       r="143.24001"
       gradientTransform="matrix(0.0396875,-0.2619375,-0.21166666,-0.03175,15.88082,-61.423717)"
       gradientUnits="userSpaceOnUse">
      <stop
         offset="0.76"
         stop-opacity="0"
         id="stop25" />
      <stop
         offset="0.95"
         stop-opacity="0.5"
         id="stop27" />
      <stop
         offset="1"
         id="stop29" />
    </radialGradient>
    <radialGradient
       id="radial-gradient-3"
       cx="113.37"
       cy="570.21002"
       r="202.42999"
       gradientTransform="matrix(-0.01058333,0.26458333,0.56356249,0.02116667,-342.9418,-56.473362)"
       gradientUnits="userSpaceOnUse">
      <stop
         offset="0"
         stop-color="#35c1f1"
         id="stop32" />
      <stop
         offset="0.11"
         stop-color="#34c1ed"
         id="stop34" />
      <stop
         offset="0.23"
         stop-color="#2fc2df"
         id="stop36" />
      <stop
         offset="0.31"
         stop-color="#2bc3d2"
         id="stop38" />
      <stop
         offset="0.67"
         stop-color="#36c752"
         id="stop40" />
    </radialGradient>
    <radialGradient
       id="radial-gradient-4"
       cx="376.51999"
       cy="567.96997"
       r="97.339996"
       gradientTransform="matrix(0.07408333,0.254,0.206375,-0.06085417,-111.22501,-67.535592)"
       gradientUnits="userSpaceOnUse">
      <stop
         offset="0"
         stop-color="#66eb6e"
         id="stop43" />
      <stop
         offset="1"
         stop-color="#66eb6e"
         stop-opacity="0"
         id="stop45" />
    </radialGradient>
  </defs>
  <path
     id="rect18683"
     style="opacity:0.1;fill:#000000;stroke-width:0.264583;stroke-linejoin:round"
     d="m 2.38125,0.92604165 c -1.45520832,0 -1.984375,0.52916665 -1.984375,1.98437495 v 3.0427085 c 0,1.5875 0.52916665,2.1166666 2.1166666,2.1166666 h 3.4395833 c 1.5875,0 2.1166667,-0.5291666 2.1166667,-2.1166666 V 3.0427083 c 0,-1.5875 -0.5291667,-2.11666665 -2.1166667,-2.11666665 z"
     sodipodi:nodetypes="sssssssss" />
  <path
     id="rect6397"
     style="fill:#ffffff;fill-opacity:1;stroke-width:0.255274;stroke-linejoin:round"
     d="M 0.39687499,2.6458334 C 0.396875,1.190625 0.92604165,0.66145833 2.38125,0.66145834 h 3.571875 c 1.5874999,-1e-8 2.1166666,0.52916666 2.1166668,2.11666666 l 10e-8,2.9104168 c 0,1.5874999 -0.529166,2.1166666 -2.116666,2.1166666 H 2.5135417 c -1.58750001,0 -2.11666671,-0.5291667 -2.11666671,-2.1166667 z"
     sodipodi:nodetypes="ccccccccc" />
  <g
     id="g1009"
     transform="matrix(0.08593213,0,0,0.08593213,3.869554,3.6382047)">
    <path
       class="cls-1"
       d="m 31.50182,23.470491 a 24.799396,24.799396 0 0 1 -2.788708,1.246187 26.953104,26.953104 0 0 1 -9.498542,1.709208 c -12.5200828,0 -23.4262077,-8.612187 -23.4262077,-19.6638326 A 8.3290832,8.3290832 0 0 1 0.13546644,-0.46371735 C -11.1887,0.01253264 -14.099117,11.812949 -14.099117,18.726512 c 0,19.547416 18.0154792,21.529145 21.8969167,21.529145 2.0928541,0 5.2493333,-0.608542 7.1437503,-1.2065 l 0.346604,-0.116417 a 33.956625,33.956625 0 0 0 17.62125,-13.969999 1.0583333,1.0583333 0 0 0 -1.407584,-1.49225 z"
       id="path52"
       style="fill:url(#linear-gradient);stroke-width:0.264583" />
    <path
       class="cls-2"
       d="m 31.50182,23.470491 a 24.799396,24.799396 0 0 1 -2.788708,1.246187 26.953104,26.953104 0 0 1 -9.498542,1.709208 c -12.5200828,0 -23.4262077,-8.612187 -23.4262077,-19.6638326 A 8.3290832,8.3290832 0 0 1 0.13546644,-0.46371735 C -11.1887,0.01253264 -14.099117,11.812949 -14.099117,18.726512 c 0,19.547416 18.0154792,21.529145 21.8969167,21.529145 2.0928541,0 5.2493333,-0.608542 7.1437503,-1.2065 l 0.346604,-0.116417 a 33.956625,33.956625 0 0 0 17.62125,-13.969999 1.0583333,1.0583333 0 0 0 -1.407584,-1.49225 z"
       id="path54"
       style="opacity:0.35;isolation:isolate;fill:url(#radial-gradient);stroke-width:0.264583" />
    <path
       class="cls-3"
       d="M -1.6610544,36.932491 A 20.955,20.955 0 0 1 -7.6776793,31.286282 21.357166,21.357166 0 0 1 0.13546644,-0.46371735 C 0.96096643,-0.85265485 2.3711956,-1.5564465 4.2470914,-1.5220507 a 8.5592707,8.5592707 0 0 1 6.7971456,3.4395833 8.4349166,8.4349166 0 0 1 1.68275,4.937125 c 0,-0.055563 6.471708,-21.0608336 -21.1666663,-21.0608336 -11.6152077,0 -21.1666667,11.022542 -21.1666667,20.6930627 A 34.43552,34.43552 0 0 0 -26.402242,21.303553 33.866666,33.866666 0 0 0 14.9733,39.05974 19.989271,19.989271 0 0 1 -1.6372419,36.943074 Z"
       id="path56"
       style="fill:url(#linear-gradient-2);stroke-width:0.264583" />
    <path
       class="cls-4"
       d="M -1.6610544,36.932491 A 20.955,20.955 0 0 1 -7.6776793,31.286282 21.357166,21.357166 0 0 1 0.13546644,-0.46371735 C 0.96096643,-0.85265485 2.3711956,-1.5564465 4.2470914,-1.5220507 a 8.5592707,8.5592707 0 0 1 6.7971456,3.4395833 8.4349166,8.4349166 0 0 1 1.68275,4.937125 c 0,-0.055563 6.471708,-21.0608336 -21.1666663,-21.0608336 -11.6152077,0 -21.1666667,11.022542 -21.1666667,20.6930627 A 34.43552,34.43552 0 0 0 -26.402242,21.303553 33.866666,33.866666 0 0 0 14.9733,39.05974 19.989271,19.989271 0 0 1 -1.6372419,36.943074 Z"
       id="path58"
       style="opacity:0.41;isolation:isolate;fill:url(#radial-gradient-2);stroke-width:0.264583" />
    <path
       class="cls-5"
       d="m 10.668529,12.442657 c -0.214313,0.277813 -0.8731252,0.661459 -0.8731252,1.497542 0,0.690563 0.4497912,1.354667 1.2488332,1.912938 3.804708,2.645833 10.977563,2.296583 10.996083,2.296583 a 15.758583,15.758583 0 0 0 8.008938,-2.209271 16.240125,16.240125 0 0 0 8.05127,-13.9911664 C 38.16932,-3.9800298 35.983862,-7.9223214 35.100154,-9.6685714 29.493633,-20.63555 17.391591,-26.943217 4.2312164,-26.943217 A 33.866666,33.866666 0 0 0 -29.63545,6.4471992 c 0.127,-9.6678748 9.736667,-17.4757292 21.1666666,-17.4757292 0.9260416,0 6.2071249,0.08996 11.1124998,2.6643544 4.3232916,2.270125 6.5881249,5.0112083 8.1623956,7.72847909 1.635125,2.82310411 1.926167,6.38968741 1.926167,7.81049991 0,1.4208125 -0.724959,3.5268956 -2.06375,5.2678536 z"
       id="path60"
       style="fill:url(#radial-gradient-3);stroke-width:0.264583" />
    <path
       class="cls-6"
       d="m 10.668529,12.442657 c -0.214313,0.277813 -0.8731252,0.661459 -0.8731252,1.497542 0,0.690563 0.4497912,1.354667 1.2488332,1.912938 3.804708,2.645833 10.977563,2.296583 10.996083,2.296583 2.819205,-0.0068 5.584973,-0.769705 8.008938,-2.209271 4.975669,-2.905276 8.039465,-8.2294146 8.05127,-13.9911664 0.06879,-5.9293124 -2.116666,-9.871604 -3.000374,-11.617854 C 29.493633,-20.63555 17.391591,-26.943217 4.2312164,-26.943217 -14.288407,-26.945048 -29.375018,-12.070593 -29.63545,6.4471992 c 0.127,-9.6678748 9.736667,-17.4757292 21.1666666,-17.4757292 0.9260416,0 6.2071249,0.08996 11.1124998,2.6643544 4.3232916,2.270125 6.5881249,5.0112083 8.1623956,7.72847909 1.635125,2.82310411 1.926167,6.38968741 1.926167,7.81049991 0,1.4208125 -0.724959,3.5268956 -2.06375,5.2678536 z"
       id="path62"
       sodipodi:nodetypes="cscccccccsccsc"
       style="fill:url(#radial-gradient-4);stroke-width:0.264583" />
  </g>
  <g
     id="g949"
     transform="matrix(0.66666664,0,0,0.66666664,-0.08819434,-0.08828238)">
    <path
       d="m 4.8947917,8.2020833 h 5.5562503 c 0.219868,0 0.396875,0.177006 0.396875,0.396875 v 1.8520827 c 0,0.219869 -0.177007,0.396876 -0.396875,0.396876 H 4.8947917 c -0.219869,0 -0.396875,-0.177007 -0.396875,-0.396876 V 8.5989583 c 0,-0.219869 0.177006,-0.396875 0.396875,-0.396875 z"
       style="fill:#f6c34c;fill-opacity:1;stroke-width:0.00594289;stroke-linejoin:round"
       id="path15672" />
    <path
       d="m 6.785588,10.178024 c -0.102706,0.04972 -0.2368113,0.07458 -0.402316,0.07458 -0.2158773,0 -0.385634,-0.06346 -0.5092733,-0.190364 -0.123638,-0.1269129 -0.185457,-0.2960169 -0.185457,-0.5073135 0,-0.2250362 0.06934,-0.4075492 0.2080263,-0.5475422 0.1393387,-0.139993 0.31989,-0.209989 0.541654,-0.209989 0.137376,0 0.2531647,0.01734 0.347366,0.05201 v 0.305171 c -0.0942,-0.05625 -0.201486,-0.08439 -0.3218533,-0.08439 -0.1321427,0 -0.2387727,0.04154 -0.31989,0.12462 -0.08112,0.08308 -0.121676,0.195597 -0.121676,0.3375528 0,0.1360674 0.038273,0.24466 0.1148073,0.3257774 0.07654,0.08047 0.17957,0.120694 0.309096,0.120694 0.1236387,0 0.23681,-0.0301 0.339516,-0.09028 z m 1.4826789,0.05004 H 7.9228647 L 7.822776,9.9150425 H 7.3223347 l -0.09911,0.3130255 h -0.34344 L 7.392002,8.8209453 H 7.7678227 Z M 7.7501627,9.6716951 7.59905,9.1987293 C 7.58793,9.1634093 7.580083,9.1212093 7.575497,9.0721473 h -0.0078 c -0.00333,0.04122 -0.011447,0.08209 -0.024527,0.122657 L 7.3900927,9.6716951 Z M 9.709735,10.228068 H 9.389845 L 8.8099223,9.3439553 c -0.03402,-0.05168 -0.057567,-0.09061 -0.07065,-0.116769 h -0.00393 c 0.0052,0.04972 0.0079,0.125601 0.0079,0.2276508 V 10.228068 H 8.4439943 V 8.8209453 h 0.341478 L 9.343807,9.6775831 c 0.025513,0.0386 0.04906,0.07687 0.07065,0.1148074 h 0.00393 c -0.0052,-0.0327 -0.0079,-0.09714 -0.0079,-0.193308 V 8.8209453 h 0.299284 z"
       style="font-weight:bold;font-family:'Segoe UI';-inkscape-font-specification:'Segoe UI Bold';stroke-width:0.0502405"
       id="path15540" />
  </g>
  <path
     id="rect13250"
     style="opacity:0.4;fill:url(#linearGradient16320);fill-opacity:1;stroke-width:0.264583;stroke-linejoin:round"
     d="m 2.6458333,0.79375 c -1.71979143,0 -2.11666664,0.396875 -2.11666664,2.1166666 v 2.6458335 c 0,1.7197919 0.39687515,2.1166666 2.11666664,2.1166666 h 3.175 c 1.7197913,0 2.1166666,-0.3968747 2.1166666,-2.1166666 V 2.9104166 C 7.9374999,1.190625 7.5406249,0.79375 5.8208333,0.79375 Z m 0,0.2645833 h 3.175 c 1.5213541,0 1.8520833,0.3307294 1.8520833,1.8520833 v 2.6458335 c 0,1.5213542 -0.3307292,1.8520833 -1.8520833,1.8520833 h -3.175 c -1.5213541,0 -1.85208331,-0.3307291 -1.85208331,-1.8520833 V 2.9104166 c 0,-1.521354 0.33072921,-1.8520834 1.85208331,-1.8520833 z"
     sodipodi:nodetypes="ssssssssssssssssss" />
  <path
     id="rect2545"
     style="opacity:0.4;fill:#000000;stroke-width:0.387914;stroke-linejoin:round"
     d="m 2.6458333,0.52916667 c -1.91822909,0 -2.38124997,0.4630208 -2.38124997,2.38124993 V 5.55625 c 0,1.8520831 0.52916735,2.38125 2.38124997,2.38125 h 3.175 c 1.8520841,0 2.3812499,-0.5291669 2.3812499,-2.38125 V 2.9104166 c 0,-1.8520832 -0.5291666,-2.38124988 -2.3812499,-2.38124993 z m 0,0.26458333 h 3.175 c 1.7197916,0 2.1166666,0.396875 2.1166666,2.1166666 V 5.55625 c 0,1.7197917 -0.3968753,2.1166666 -2.1166666,2.1166666 h -3.175 c -1.71979162,0 -2.11666664,-0.3968749 -2.11666664,-2.1166666 V 2.9104166 c 0,-1.7197916 0.39687505,-2.1166666 2.11666664,-2.1166666 z"
     sodipodi:nodetypes="ssssssssssssssssss" />
</svg>
