<?xml version="1.0" encoding="UTF-8" standalone="no"?>
<!-- Created with Inkscape (http://www.inkscape.org/) -->

<svg
   width="32"
   height="32"
   viewBox="0 0 8.4666665 8.4666669"
   version="1.1"
   id="svg2719"
   inkscape:version="1.1.2 (0a00cf5339, 2022-02-04)"
   sodipodi:docname="mintlocale.svg"
   xmlns:inkscape="http://www.inkscape.org/namespaces/inkscape"
   xmlns:sodipodi="http://sodipodi.sourceforge.net/DTD/sodipodi-0.dtd"
   xmlns:xlink="http://www.w3.org/1999/xlink"
   xmlns="http://www.w3.org/2000/svg"
   xmlns:svg="http://www.w3.org/2000/svg">
  <sodipodi:namedview
     id="namedview2721"
     pagecolor="#ffffff"
     bordercolor="#666666"
     borderopacity="1.0"
     inkscape:pageshadow="2"
     inkscape:pageopacity="0.0"
     inkscape:pagecheckerboard="0"
     inkscape:document-units="px"
     showgrid="false"
     units="px"
     inkscape:zoom="24.75"
     inkscape:cx="15.979798"
     inkscape:cy="16"
     inkscape:window-width="1920"
     inkscape:window-height="1010"
     inkscape:window-x="0"
     inkscape:window-y="0"
     inkscape:window-maximized="1"
     inkscape:current-layer="svg2719"
     showguides="false" />
  <defs
     id="defs2716">
    <linearGradient
       inkscape:collect="always"
       id="linearGradient1871">
      <stop
         style="stop-color:#ffffff;stop-opacity:1;"
         offset="0"
         id="stop1867" />
      <stop
         style="stop-color:#ffffff;stop-opacity:0.1"
         offset="0.12"
         id="stop2515" />
      <stop
         style="stop-color:#ffffff;stop-opacity:0.102"
         offset="0.89999998"
         id="stop2581" />
      <stop
         style="stop-color:#ffffff;stop-opacity:0.502"
         offset="1"
         id="stop1869" />
    </linearGradient>
    <linearGradient
       inkscape:collect="always"
       xlink:href="#linearGradient1871"
       id="linearGradient16320"
       x1="10"
       y1="4"
       x2="10"
       y2="29.100245"
       gradientUnits="userSpaceOnUse"
       gradientTransform="matrix(0.26458333,0,0,0.26458333,0,-0.26458332)" />
    <linearGradient
       inkscape:collect="always"
       xlink:href="#linearGradient2330"
       id="linearGradient2332"
       x1="6.3499999"
       y1="6.2177086"
       x2="7.4083333"
       y2="6.2177086"
       gradientUnits="userSpaceOnUse"
       gradientTransform="matrix(0.50000003,0,0,0.64285715,1.0583332,0.2362352)" />
    <linearGradient
       inkscape:collect="always"
       id="linearGradient2330">
      <stop
         style="stop-color:#000000;stop-opacity:1;"
         offset="0"
         id="stop2326" />
      <stop
         style="stop-color:#000000;stop-opacity:0;"
         offset="1"
         id="stop2328" />
    </linearGradient>
  </defs>
  <path
     id="rect18683"
     style="opacity:0.1;fill:#000000;stroke-width:0.264583;stroke-linejoin:round"
     d="m 2.38125,0.92604165 c -1.45520832,0 -1.984375,0.52916665 -1.984375,1.98437495 v 3.0427085 c 0,1.5875 0.52916665,2.1166666 2.1166666,2.1166666 h 3.4395833 c 1.5875,0 2.1166667,-0.5291666 2.1166667,-2.1166666 V 3.0427083 c 0,-1.5875 -0.5291667,-2.11666665 -2.1166667,-2.11666665 z"
     sodipodi:nodetypes="sssssssss" />
  <path
     id="rect6397"
     style="fill:#f6f5f4;fill-opacity:1;stroke-width:0.255274;stroke-linejoin:round"
     d="M 0.39687499,2.6458334 C 0.396875,1.190625 0.92604165,0.66145833 2.38125,0.66145834 h 3.571875 c 1.5874999,-1e-8 2.1166666,0.52916666 2.1166668,2.11666666 l 10e-8,2.9104168 c 0,1.5874999 -0.529166,2.1166666 -2.116666,2.1166666 H 2.5135417 c -1.58750001,0 -2.11666671,-0.5291667 -2.11666671,-2.1166667 z"
     sodipodi:nodetypes="ccccccccc" />
  <path
     id="path1121"
     style="fill:#77767b;fill-opacity:1;stroke-width:0.264583;stroke-linejoin:round"
     inkscape:transform-center-x="-0.087530477"
     inkscape:transform-center-y="-1.521849"
     d="M 2.2815144,3.1750001 C 2.1990473,3.3468028 2.1199146,3.52106 2.0443196,3.6974487 1.9687228,3.8715445 1.892244,4.0548635 1.8143594,4.2472859 1.7387645,4.4397087 1.6609613,4.6432828 1.580782,4.8586182 1.5006062,5.0716607 1.4145471,5.3042609 1.3229166,5.5562501 H 1.6701822 L 1.8867064,4.9480185 h 1.0784871 c 0.036654,0.1030782 0.07261,0.2051322 0.1069702,0.3059245 0.034362,0.098511 0.070613,0.1992235 0.1095542,0.3023071 H 3.5460367 C 3.4544062,5.3042609 3.3688656,5.0716607 3.2886881,4.8586182 3.2085141,4.6432828 3.1293812,4.4397087 3.0514932,4.2472859 2.9758983,4.0548669 2.9002269,3.8715482 2.8246336,3.6974487 2.7490368,3.5210634 2.6699076,3.3468065 2.5874389,3.1750001 Z m 0.144694,0.381372 C 2.5040934,3.728175 2.5784364,3.90802 2.6494506,4.0958742 2.7227546,4.2814175 2.7957699,4.4737981 2.8690754,4.6730997 H 1.9828246 C 2.0538405,4.4737981 2.1247191,4.2814175 2.1957315,4.0958742 2.269037,3.9080234 2.3460308,3.7281785 2.4262084,3.5563721 Z" />
  <path
     id="rect960"
     style="opacity:1;fill:#7ccc2e;fill-opacity:1;stroke-width:0.999999;stroke-linejoin:round"
     d="m 16,2.5 v 27 h 6.5 c 6,0 8,-2 8,-8 v -11 c 0,-6 -2,-8 -8,-8 z"
     transform="scale(0.26458333)"
     sodipodi:nodetypes="ccssssc" />
  <path
     id="rect2437"
     style="opacity:0.1;fill:#f9f9f9;fill-opacity:1;stroke-width:0.264583;stroke-linejoin:round"
     d="m 8.0697916,4.2333332 v 1.4552084 c 0,1.5874999 -0.5291666,2.1166666 -2.1166666,2.1166666 H 4.2333333 v -3.571875 z"
     sodipodi:nodetypes="cssccc" />
  <path
     id="path1528"
     style="fill:#ffffff;fill-opacity:1;stroke-width:0.264583;stroke-linejoin:round"
     inkscape:transform-center-x="-0.094748955"
     inkscape:transform-center-y="-2.0709332"
     d="M 5.8787109,2.9104167 V 3.3295124 H 4.7625 V 3.6085652 H 5.2239706 C 5.3900628,4.0372961 5.5939216,4.4006838 5.8342691,4.6973876 5.5546574,4.9870005 5.2309992,5.1817801 4.8627522,5.288566 L 4.9407832,5.55625 C 5.3500147,5.4375976 5.7098125,5.2190533 6.0182373,4.9040933 6.3266621,5.2190798 6.6864597,5.4376108 7.095691,5.55625 L 7.173206,5.288566 C 6.8049584,5.1817934 6.4813002,4.9870005 6.2016886,4.6973876 6.4420149,4.4006574 6.6463986,4.0372961 6.8125041,3.6085652 H 7.2739747 V 3.3295124 H 6.1577638 V 2.9104167 Z M 5.5242105,3.6085652 H 6.5117472 C 6.3700628,3.9535025 6.205774,4.244717 6.0182373,4.4855143 5.8306795,4.2447223 5.6658949,3.9535025 5.5242105,3.6085652 Z" />
  <rect
     style="opacity:0.2;fill:url(#linearGradient2332);fill-opacity:1;stroke-width:0.151823;stroke-linejoin:round"
     id="rect2208"
     width="0.5291667"
     height="7.1437502"
     x="4.2333331"
     y="0.66145831" />
  <path
     id="rect13250"
     style="fill:url(#linearGradient16320);fill-opacity:1;stroke-width:0.264583;stroke-linejoin:round;opacity:0.7"
     d="m 2.6458333,0.79375 c -1.71979143,0 -2.11666664,0.396875 -2.11666664,2.1166666 v 2.6458335 c 0,1.7197919 0.39687515,2.1166666 2.11666664,2.1166666 h 3.175 c 1.7197913,0 2.1166666,-0.3968747 2.1166666,-2.1166666 V 2.9104166 C 7.9374999,1.190625 7.5406249,0.79375 5.8208333,0.79375 Z m 0,0.2645833 h 3.175 c 1.5213541,0 1.8520833,0.3307294 1.8520833,1.8520833 v 2.6458335 c 0,1.5213542 -0.3307292,1.8520833 -1.8520833,1.8520833 h -3.175 c -1.5213541,0 -1.85208331,-0.3307291 -1.85208331,-1.8520833 V 2.9104166 c 0,-1.521354 0.33072921,-1.8520834 1.85208331,-1.8520833 z"
     sodipodi:nodetypes="ssssssssssssssssss" />
  <path
     id="rect2545"
     style="opacity:0.4;fill:#000000;stroke-width:0.387914;stroke-linejoin:round"
     d="m 2.6458333,0.52916667 c -1.91822909,0 -2.38124997,0.4630208 -2.38124997,2.38124993 V 5.55625 c 0,1.8520831 0.52916735,2.38125 2.38124997,2.38125 h 3.175 c 1.8520841,0 2.3812499,-0.5291669 2.3812499,-2.38125 V 2.9104166 c 0,-1.8520832 -0.5291666,-2.38124988 -2.3812499,-2.38124993 z m 0,0.26458333 h 3.175 c 1.7197916,0 2.1166666,0.396875 2.1166666,2.1166666 V 5.55625 c 0,1.7197917 -0.3968753,2.1166666 -2.1166666,2.1166666 h -3.175 c -1.71979162,0 -2.11666664,-0.3968749 -2.11666664,-2.1166666 V 2.9104166 c 0,-1.7197916 0.39687505,-2.1166666 2.11666664,-2.1166666 z"
     sodipodi:nodetypes="ssssssssssssssssss" />
</svg>
