<?xml version="1.0" encoding="UTF-8" standalone="no"?>
<!-- Created with Inkscape (http://www.inkscape.org/) -->

<svg
   width="32"
   height="32"
   viewBox="0 0 8.4666665 8.4666669"
   version="1.1"
   id="svg2719"
   inkscape:version="1.1.2 (0a00cf5339, 2022-02-04)"
   sodipodi:docname="org.xfce.terminal-settings.svg"
   xmlns:inkscape="http://www.inkscape.org/namespaces/inkscape"
   xmlns:sodipodi="http://sodipodi.sourceforge.net/DTD/sodipodi-0.dtd"
   xmlns:xlink="http://www.w3.org/1999/xlink"
   xmlns="http://www.w3.org/2000/svg"
   xmlns:svg="http://www.w3.org/2000/svg">
  <sodipodi:namedview
     id="namedview2721"
     pagecolor="#ffffff"
     bordercolor="#666666"
     borderopacity="1.0"
     inkscape:pageshadow="2"
     inkscape:pageopacity="0.0"
     inkscape:pagecheckerboard="0"
     inkscape:document-units="px"
     showgrid="false"
     units="px"
     inkscape:zoom="19.96875"
     inkscape:cx="16.025039"
     inkscape:cy="16"
     inkscape:window-width="1851"
     inkscape:window-height="1049"
     inkscape:window-x="0"
     inkscape:window-y="0"
     inkscape:window-maximized="1"
     inkscape:current-layer="svg2719"
     showguides="false" />
  <defs
     id="defs2716">
    <linearGradient
       inkscape:collect="always"
       id="linearGradient1871">
      <stop
         style="stop-color:#ffffff;stop-opacity:1;"
         offset="0"
         id="stop1867" />
      <stop
         style="stop-color:#ffffff;stop-opacity:0.1"
         offset="0.12"
         id="stop2515" />
      <stop
         style="stop-color:#ffffff;stop-opacity:0.102"
         offset="0.89999998"
         id="stop2581" />
      <stop
         style="stop-color:#ffffff;stop-opacity:0.502"
         offset="1"
         id="stop1869" />
    </linearGradient>
    <linearGradient
       inkscape:collect="always"
       xlink:href="#linearGradient1871"
       id="linearGradient16320"
       x1="10"
       y1="4"
       x2="10"
       y2="29.100245"
       gradientUnits="userSpaceOnUse"
       gradientTransform="matrix(0.26458333,0,0,0.26458333,0,-0.26458332)" />
    <linearGradient
       inkscape:collect="always"
       id="linearGradient1437">
      <stop
         style="stop-color:#a1a09d;stop-opacity:1;"
         offset="0"
         id="stop1433" />
      <stop
         style="stop-color:#a1a09d;stop-opacity:1"
         offset="0.1"
         id="stop1635" />
      <stop
         style="stop-color:#c3c3c0;stop-opacity:1"
         offset="0.16"
         id="stop1569" />
      <stop
         style="stop-color:#a1a09d;stop-opacity:1"
         offset="0.22"
         id="stop1829" />
      <stop
         style="stop-color:#a1a09d;stop-opacity:1"
         offset="0.77999997"
         id="stop2919" />
      <stop
         style="stop-color:#c3c3c0;stop-opacity:1"
         offset="0.83999997"
         id="stop3819" />
      <stop
         style="stop-color:#a1a09d;stop-opacity:1"
         offset="0.89999998"
         id="stop3305" />
      <stop
         style="stop-color:#a1a09d;stop-opacity:1"
         offset="1"
         id="stop1435" />
    </linearGradient>
    <linearGradient
       inkscape:collect="always"
       xlink:href="#linearGradient1437"
       id="linearGradient986"
       x1="0.39687499"
       y1="4.2333336"
       x2="8.0697918"
       y2="4.2333336"
       gradientUnits="userSpaceOnUse"
       gradientTransform="scale(3.7795275)" />
  </defs>
  <path
     id="rect18683"
     style="opacity:0.1;fill:#000000;stroke-width:0.264583;stroke-linejoin:round"
     d="m 2.38125,0.92604165 c -1.45520832,0 -1.984375,0.52916665 -1.984375,1.98437495 v 3.0427085 c 0,1.5875 0.52916665,2.1166666 2.1166666,2.1166666 h 3.4395833 c 1.5875,0 2.1166667,-0.5291666 2.1166667,-2.1166666 V 3.0427083 c 0,-1.5875 -0.5291667,-2.11666665 -2.1166667,-2.11666665 z"
     sodipodi:nodetypes="sssssssss" />
  <path
     id="rect6397"
     style="fill:#deddda;fill-opacity:1;stroke-width:0.255274;stroke-linejoin:round"
     d="M 0.39687499,2.6458334 C 0.396875,1.190625 0.92604165,0.66145833 2.38125,0.66145834 h 3.571875 c 1.5874999,-1e-8 2.1166666,0.52916666 2.1166668,2.11666666 l 10e-8,2.9104168 c 0,1.5874999 -0.529166,2.1166666 -2.116666,2.1166666 H 2.5135417 c -1.58750001,0 -2.11666671,-0.5291667 -2.11666671,-2.1166667 z"
     sodipodi:nodetypes="ccccccccc" />
  <path
     d="m 0.79375,2.7005746 c 0,-1.2043103 0.4379311,-1.6422413 1.6422413,-1.6422413 h 3.4852011 c 1.313793,0 1.751724,0.437931 1.7517241,1.7517241 l 2e-7,2.4086207 c 1e-7,1.313793 -0.4379306,1.6604886 -1.7517237,1.6604886 H 2.545474 c -1.3137929,0 -1.751724,-0.3466956 -1.751724,-1.6604886 z"
     style="fill:#4d4d4d;fill-opacity:1;stroke-width:0.0558962;stroke-linejoin:round"
     id="path1183"
     sodipodi:nodetypes="sssssssss" />
  <path
     id="path885"
     style="fill:url(#linearGradient986);fill-opacity:1;stroke-width:0.255274;stroke-linejoin:round"
     d="M 1.5 19.5 L 1.5 21.5 C 1.5 27.5 3.5 29.5 9.5 29.5 L 22.5 29.5 C 28.5 29.5 30.5 27.5 30.5 21.5 L 30.5 19.5 C 30.5 25.5 28.5 27.5 22.5 27.5 L 9.5 27.5 C 3.5000001 27.5 1.5 25.5 1.5 19.5 z "
     transform="scale(0.26458333)" />
  <path
     id="rect1707"
     style="opacity:0.2;fill:#000000;fill-opacity:1;stroke-width:0.17572;stroke-linejoin:round"
     d="M 1.5098109,2.159 1.425383,2.4133134 2.2840764,2.7578888 1.425383,3.1021214 1.5098109,3.3567777 2.6145807,2.8889923 V 2.6267854 Z M 2.6458333,3.7041206 V 3.968704 H 3.96875 V 3.7041206 Z"
     sodipodi:nodetypes="ccccccccccccc" />
  <path
     id="rect854"
     style="opacity:1;fill:#f2f2f2;fill-opacity:1;stroke-width:0.999999;stroke-linejoin:round"
     d="M 5.6914062 7.1503906 L 5.3691406 8.1152344 L 8.6269531 9.421875 L 5.3691406 10.728516 L 5.6914062 11.693359 L 9.8828125 9.9199219 L 9.8828125 8.9238281 L 5.6914062 7.1503906 z M 10 13 L 10 14 L 15 14 L 15 13 L 10 13 z "
     transform="scale(0.26458333)" />
  <path
     id="rect13250"
     style="fill:url(#linearGradient16320);fill-opacity:1;stroke-width:0.264583;stroke-linejoin:round;opacity:0.3"
     d="m 2.6458333,0.79375 c -1.71979143,0 -2.11666664,0.396875 -2.11666664,2.1166666 v 2.6458335 c 0,1.7197919 0.39687515,2.1166666 2.11666664,2.1166666 h 3.175 c 1.7197913,0 2.1166666,-0.3968747 2.1166666,-2.1166666 V 2.9104166 C 7.9374999,1.190625 7.5406249,0.79375 5.8208333,0.79375 Z m 0,0.2645833 h 3.175 c 1.5213541,0 1.8520833,0.3307294 1.8520833,1.8520833 v 2.6458335 c 0,1.5213542 -0.3307292,1.8520833 -1.8520833,1.8520833 h -3.175 c -1.5213541,0 -1.85208331,-0.3307291 -1.85208331,-1.8520833 V 2.9104166 c 0,-1.521354 0.33072921,-1.8520834 1.85208331,-1.8520833 z"
     sodipodi:nodetypes="ssssssssssssssssss" />
  <path
     id="rect2545"
     style="opacity:0.4;fill:#000000;stroke-width:0.387914;stroke-linejoin:round"
     d="m 2.6458333,0.52916667 c -1.91822909,0 -2.38124997,0.4630208 -2.38124997,2.38124993 V 5.55625 c 0,1.8520831 0.52916735,2.38125 2.38124997,2.38125 h 3.175 c 1.8520841,0 2.3812499,-0.5291669 2.3812499,-2.38125 V 2.9104166 c 0,-1.8520832 -0.5291666,-2.38124988 -2.3812499,-2.38124993 z m 0,0.26458333 h 3.175 c 1.7197916,0 2.1166666,0.396875 2.1166666,2.1166666 V 5.55625 c 0,1.7197917 -0.3968753,2.1166666 -2.1166666,2.1166666 h -3.175 c -1.71979162,0 -2.11666664,-0.3968749 -2.11666664,-2.1166666 V 2.9104166 c 0,-1.7197916 0.39687505,-2.1166666 2.11666664,-2.1166666 z"
     sodipodi:nodetypes="ssssssssssssssssss" />
  <circle
     style="fill:#8f8f8f;fill-opacity:1;stroke:none;stroke-width:0.195561"
     id="path980"
     cx="6.0854163"
     cy="6.0854163"
     r="2.2489583" />
  <path
     id="path45"
     d="M 5.8223835,4.4979168 V 4.775936 C 5.6830997,4.8033719 5.5513877,4.8523339 5.4311931,4.9195965 L 5.2761637,4.7345948 4.8782552,5.0741089 5.0332846,5.2596274 C 4.9480319,5.3674445 4.8788344,5.4883702 4.8296793,5.6192953 l -0.2444295,-0.043408 -0.087333,0.5162475 0.2475301,0.043925 c 0.00479,0.1395513 0.03104,0.2738184 0.075448,0.399459 L 4.5955852,6.665743 4.8596518,7.1173952 5.0880616,6.9851036 c 0.08897,0.098918 0.1924037,0.1843365 0.3069579,0.2532144 l -0.093018,0.2552817 0.4919599,0.1762164 0.092501,-0.2557983 c 0.063339,0.00927 0.1279157,0.014467 0.1937867,0.01447 0.067999,-2.9e-6 0.134698,-0.00511 0.1999877,-0.014986 L 6.3742879,7.6729168 6.8641804,7.490499 6.7711629,7.2352174 C 6.88448,7.1663405 6.9864584,7.0808939 7.0745035,6.9825197 L 7.3106647,7.1189454 7.569047,6.6641928 7.3406373,6.5324179 c 0.04364,-0.1244417 0.069568,-0.2572845 0.074414,-0.3953248 L 7.6729166,6.0916181 7.5788655,5.576404 7.3313353,5.6203291 C 7.2828065,5.4907311 7.2147586,5.3707942 7.1308309,5.2637615 L 7.2915446,5.0715253 6.8895018,4.7371787 6.7339559,4.9226972 C 6.6143955,4.8551361 6.4834854,4.8055471 6.3448324,4.7774864 V 4.4979168 Z m 0.2578656,0.6004801 c 0.5467807,-1.35e-5 0.9885701,0.4426715 0.9885701,0.991154 0,0.5484826 -0.4417894,0.9906505 -0.9885701,0.9906373 -0.5467715,0 -0.9880534,-0.4421642 -0.9880534,-0.9906373 0,-0.548473 0.4412819,-0.991154 0.9880534,-0.991154 z"
     style="fill:#ffffff;fill-opacity:1;stroke:none;stroke-width:0.264583" />
  <path
     id="path854"
     style="opacity:0.4;fill:#000000;stroke:none;stroke-width:0.198438"
     d="m 6.0854167,3.7041667 a 2.3812499,2.3812499 0 0 0 -2.38125,2.38125 2.3812499,2.3812499 0 0 0 2.38125,2.38125 2.3812499,2.3812499 0 0 0 2.38125,-2.38125 2.3812499,2.3812499 0 0 0 -2.38125,-2.38125 z m 0,0.2645834 A 2.1166667,2.1166667 0 0 1 8.2020833,6.0854167 2.1166667,2.1166667 0 0 1 6.0854167,8.2020833 2.1166667,2.1166667 0 0 1 3.96875,6.0854167 2.1166667,2.1166667 0 0 1 6.0854167,3.9687501 Z" />
</svg>
