<?xml version="1.0" encoding="UTF-8" standalone="no"?>
<!-- Created with Inkscape (http://www.inkscape.org/) -->

<svg
   width="32"
   height="32"
   viewBox="0 0 8.4666665 8.4666669"
   version="1.1"
   id="svg2719"
   inkscape:version="1.1.2 (0a00cf5339, 2022-02-04)"
   sodipodi:docname="polari.svg"
   xmlns:inkscape="http://www.inkscape.org/namespaces/inkscape"
   xmlns:sodipodi="http://sodipodi.sourceforge.net/DTD/sodipodi-0.dtd"
   xmlns:xlink="http://www.w3.org/1999/xlink"
   xmlns="http://www.w3.org/2000/svg"
   xmlns:svg="http://www.w3.org/2000/svg">
  <sodipodi:namedview
     id="namedview2721"
     pagecolor="#ffffff"
     bordercolor="#666666"
     borderopacity="1.0"
     inkscape:pageshadow="2"
     inkscape:pageopacity="0.0"
     inkscape:pagecheckerboard="0"
     inkscape:document-units="px"
     showgrid="false"
     units="px"
     inkscape:zoom="24.5"
     inkscape:cx="16"
     inkscape:cy="16"
     inkscape:window-width="1920"
     inkscape:window-height="1011"
     inkscape:window-x="0"
     inkscape:window-y="0"
     inkscape:window-maximized="1"
     inkscape:current-layer="svg2719" />
  <defs
     id="defs2716">
    <linearGradient
       inkscape:collect="always"
       id="linearGradient1871">
      <stop
         style="stop-color:#ffffff;stop-opacity:1;"
         offset="0"
         id="stop1867" />
      <stop
         style="stop-color:#ffffff;stop-opacity:0.1"
         offset="0.12"
         id="stop2515" />
      <stop
         style="stop-color:#ffffff;stop-opacity:0.102"
         offset="0.89999998"
         id="stop2581" />
      <stop
         style="stop-color:#ffffff;stop-opacity:0.502"
         offset="1"
         id="stop1869" />
    </linearGradient>
    <linearGradient
       inkscape:collect="always"
       xlink:href="#linearGradient1871"
       id="linearGradient16320"
       x1="10"
       y1="4"
       x2="10"
       y2="29.100245"
       gradientUnits="userSpaceOnUse"
       gradientTransform="matrix(0.26458333,0,0,0.26458333,0,-0.26458332)" />
    <linearGradient
       inkscape:collect="always"
       xlink:href="#linearGradient3598"
       id="linearGradient1423"
       x1="1.110223e-16"
       y1="2.7755576e-17"
       x2="8.4666672"
       y2="8.4666672"
       gradientUnits="userSpaceOnUse" />
    <linearGradient
       inkscape:collect="always"
       xlink:href="#linearGradient2092"
       id="linearGradient4112"
       x1="3.4958868"
       y1="2.3536298"
       x2="3.4958339"
       y2="6.0578227"
       gradientUnits="userSpaceOnUse" />
    <linearGradient
       inkscape:collect="always"
       xlink:href="#linearGradient3187"
       id="linearGradient4358"
       x1="5.8208442"
       y1="5.7723732"
       x2="5.8208494"
       y2="2.5973732"
       gradientUnits="userSpaceOnUse" />
    <linearGradient
       inkscape:collect="always"
       id="linearGradient3598">
      <stop
         style="stop-color:#17be17;stop-opacity:1"
         offset="0"
         id="stop3594" />
      <stop
         style="stop-color:#62e075;stop-opacity:1"
         offset="1"
         id="stop3596" />
    </linearGradient>
    <linearGradient
       inkscape:collect="always"
       id="linearGradient2092">
      <stop
         style="stop-color:#fbfdfb;stop-opacity:1;"
         offset="0"
         id="stop2088" />
      <stop
         style="stop-color:#c8f4c8;stop-opacity:1"
         offset="1"
         id="stop2090" />
    </linearGradient>
    <linearGradient
       inkscape:collect="always"
       id="linearGradient3187">
      <stop
         style="stop-color:#a3fa86;stop-opacity:1"
         offset="0"
         id="stop3183" />
      <stop
         style="stop-color:#eff9eb;stop-opacity:1"
         offset="1"
         id="stop3185" />
    </linearGradient>
  </defs>
  <path
     id="rect18683"
     style="opacity:0.1;fill:#000000;stroke-width:0.264583;stroke-linejoin:round"
     d="m 2.38125,0.92604165 c -1.45520832,0 -1.984375,0.52916665 -1.984375,1.98437495 v 3.0427085 c 0,1.5875 0.52916665,2.1166666 2.1166666,2.1166666 h 3.4395833 c 1.5875,0 2.1166667,-0.5291666 2.1166667,-2.1166666 V 3.0427083 c 0,-1.5875 -0.5291667,-2.11666665 -2.1166667,-2.11666665 z"
     sodipodi:nodetypes="sssssssss" />
  <path
     id="rect6397"
     style="fill:url(#linearGradient1423);fill-opacity:1.0;stroke-width:0.255274;stroke-linejoin:round"
     d="M 0.39687499,2.6458334 C 0.396875,1.190625 0.92604165,0.66145833 2.38125,0.66145834 h 3.571875 c 1.5874999,-1e-8 2.1166666,0.52916666 2.1166668,2.11666666 l 10e-8,2.9104168 c 0,1.5874999 -0.529166,2.1166666 -2.116666,2.1166666 H 2.5135417 c -1.58750001,0 -2.11666671,-0.5291667 -2.11666671,-2.1166667 z"
     sodipodi:nodetypes="ccccccccc" />
  <path
     id="rect1621"
     style="opacity:0.1;fill:#ffffff;stroke-width:16;stroke-linecap:round;stroke-linejoin:round"
     d="M 30.5 12.638672 L 7.0195312 29.351562 C 7.7576853 29.452459 8.5815727 29.5 9.5 29.5 L 22.5 29.5 C 28.5 29.5 30.5 27.5 30.5 21.5 L 30.5 12.638672 z "
     transform="scale(0.26458333)" />
  <path
     id="path990-3"
     style="fill:#000000;fill-opacity:1;stroke-width:0.264583;enable-background:new;opacity:0.1"
     d="m 2.1502514,2.6460055 c -0.212557,0.00401 -0.357142,0.059175 -0.4335653,0.1508952 -0.085606,0.1019122 -0.129191,0.2689043 -0.129191,0.5012614 0,0.7665337 0,1.5330674 0,2.2996011 v 0.081649 c 0,0.2323597 0.043582,0.3998608 0.129191,0.5017783 0.081529,0.097835 0.2405472,0.1477944 0.4769736,0.1477944 H 2.7548658 L 3.495389,6.8519503 4.236429,6.3289847 h 2.0360513 c 0.2364372,0 0.395429,-0.049959 0.4769736,-0.1477944 0.085603,-0.1019151 0.1297077,-0.2694212 0.1297077,-0.5017783 0,-0.79375 0,-1.5875 0,-2.3812499 0,-0.2323597 -0.044104,-0.3993703 -0.1297077,-0.5012614 C 6.6679228,2.6990657 6.5089098,2.6460055 6.2724803,2.6460055 H 3.267496 2.1936597 c -0.014777,-1.885e-4 -0.029238,-2.672e-4 -0.043408,0 z"
     sodipodi:nodetypes="scccscscccsccccsccs" />
  <path
     d="m 1.5875107,3.8994236 v 1.5153481 c 0,0.2323597 0.043841,0.3995473 0.12945,0.5014648 0.081529,0.097835 0.2404057,0.1479894 0.4768321,0.1479894 H 2.755318 L 3.4958338,6.5869896 4.236429,6.0642259 h 2.036445 c 0.236437,0 0.395314,-0.050154 0.4768585,-0.1479894 C 6.8353358,5.8143216 6.8791826,5.6471288 6.8791826,5.4147717 V 3.8994236 Z"
     style="fill:url(#linearGradient4358);fill-opacity:1.0;stroke-width:0.264583;enable-background:new"
     id="path1143" />
  <path
     d="M 2.1937847,2.3813662 C 1.9573636,2.3783499 1.7984972,2.4342034 1.7169791,2.5320384 1.6313732,2.6339506 1.5875,2.8011461 1.5875,3.0335032 V 5.3332616 L 2.7553179,6.0642259 3.4958867,6.5869632 4.236429,6.0642259 h 2.6e-6 L 6.8791693,4.1627714 V 3.0335032 c 0,-0.2323597 -0.04387,-0.3995737 -0.129474,-0.5014648 C 6.6681643,2.4342034 6.5093193,2.3813662 6.2728899,2.3813662 H 3.2674878 Z"
     style="fill:url(#linearGradient4112);fill-opacity:1.0;stroke-width:0.264583;enable-background:new"
     id="path990" />
  <path
     id="path42"
     style="fill:#8de745;fill-opacity:1;stroke-width:0.264583"
     d="M 3.8364527,2.9104167 3.7372378,3.4395833 H 3.1749947 l -0.04392,0.2645833 h 0.5730932 l -0.19844,1.0583333 H 2.9543367 l -0.04392,0.2645834 H 3.472656 L 3.3734377,5.55625 h 0.264583 L 3.73724,5.0270833 H 4.3656254 L 4.2664068,5.55625 h 0.264583 l 0.099219,-0.5291667 h 0.529167 l 0.06615,-0.2645834 h -0.551397 l 0.176733,-1.0583333 h 0.540019 l 0.06615,-0.2645833 h -0.56224 l 0.09922,-0.5291666 H 4.7294277 l -0.09922,0.5291666 H 4.0018248 L 4.1010407,2.9104167 Z M 3.9687489,3.7041666 H 4.5862814 L 4.4095484,4.7624999 H 3.7703139 Z"
     sodipodi:nodetypes="cccccccccccccccccccccccccccccccccc" />
  <path
     id="rect13250"
     style="fill:url(#linearGradient16320);fill-opacity:1;stroke-width:0.264583;stroke-linejoin:round;opacity:1"
     d="m 2.6458333,0.79375 c -1.71979143,0 -2.11666664,0.396875 -2.11666664,2.1166666 v 2.6458335 c 0,1.7197919 0.39687515,2.1166666 2.11666664,2.1166666 h 3.175 c 1.7197913,0 2.1166666,-0.3968747 2.1166666,-2.1166666 V 2.9104166 C 7.9374999,1.190625 7.5406249,0.79375 5.8208333,0.79375 Z m 0,0.2645833 h 3.175 c 1.5213541,0 1.8520833,0.3307294 1.8520833,1.8520833 v 2.6458335 c 0,1.5213542 -0.3307292,1.8520833 -1.8520833,1.8520833 h -3.175 c -1.5213541,0 -1.85208331,-0.3307291 -1.85208331,-1.8520833 V 2.9104166 c 0,-1.521354 0.33072921,-1.8520834 1.85208331,-1.8520833 z"
     sodipodi:nodetypes="ssssssssssssssssss" />
  <path
     id="rect2545"
     style="opacity:0.4;fill:#000000;stroke-width:0.387914;stroke-linejoin:round"
     d="m 2.6458333,0.52916667 c -1.91822909,0 -2.38124997,0.4630208 -2.38124997,2.38124993 V 5.55625 c 0,1.8520831 0.52916735,2.38125 2.38124997,2.38125 h 3.175 c 1.8520841,0 2.3812499,-0.5291669 2.3812499,-2.38125 V 2.9104166 c 0,-1.8520832 -0.5291666,-2.38124988 -2.3812499,-2.38124993 z m 0,0.26458333 h 3.175 c 1.7197916,0 2.1166666,0.396875 2.1166666,2.1166666 V 5.55625 c 0,1.7197917 -0.3968753,2.1166666 -2.1166666,2.1166666 h -3.175 c -1.71979162,0 -2.11666664,-0.3968749 -2.11666664,-2.1166666 V 2.9104166 c 0,-1.7197916 0.39687505,-2.1166666 2.11666664,-2.1166666 z"
     sodipodi:nodetypes="ssssssssssssssssss" />
</svg>
