<?xml version="1.0" encoding="UTF-8" standalone="no"?>
<!-- Created with Inkscape (http://www.inkscape.org/) -->

<svg
   width="32"
   height="32"
   viewBox="0 0 8.4666665 8.4666669"
   version="1.1"
   id="svg2719"
   inkscape:version="1.1.2 (0a00cf5339, 2022-02-04)"
   sodipodi:docname="preferences-system-windows.svg"
   xmlns:inkscape="http://www.inkscape.org/namespaces/inkscape"
   xmlns:sodipodi="http://sodipodi.sourceforge.net/DTD/sodipodi-0.dtd"
   xmlns:xlink="http://www.w3.org/1999/xlink"
   xmlns="http://www.w3.org/2000/svg"
   xmlns:svg="http://www.w3.org/2000/svg">
  <sodipodi:namedview
     id="namedview2721"
     pagecolor="#ffffff"
     bordercolor="#666666"
     borderopacity="1.0"
     inkscape:pageshadow="2"
     inkscape:pageopacity="0.0"
     inkscape:pagecheckerboard="0"
     inkscape:document-units="px"
     showgrid="false"
     units="px"
     inkscape:zoom="19.650125"
     inkscape:cx="10.7124"
     inkscape:cy="18.040598"
     inkscape:window-width="1851"
     inkscape:window-height="1016"
     inkscape:window-x="0"
     inkscape:window-y="0"
     inkscape:window-maximized="1"
     inkscape:current-layer="svg2719" />
  <defs
     id="defs2716">
    <linearGradient
       inkscape:collect="always"
       id="linearGradient1049">
      <stop
         style="stop-color:#5884f4;stop-opacity:1;"
         offset="0"
         id="stop1045" />
      <stop
         style="stop-color:#80a3fa;stop-opacity:1"
         offset="1"
         id="stop1047" />
    </linearGradient>
    <linearGradient
       inkscape:collect="always"
       id="linearGradient1871">
      <stop
         style="stop-color:#ffffff;stop-opacity:1;"
         offset="0"
         id="stop1867" />
      <stop
         style="stop-color:#ffffff;stop-opacity:0.1"
         offset="0.12"
         id="stop2515" />
      <stop
         style="stop-color:#ffffff;stop-opacity:0.102"
         offset="0.89999998"
         id="stop2581" />
      <stop
         style="stop-color:#ffffff;stop-opacity:0.502"
         offset="1"
         id="stop1869" />
    </linearGradient>
    <linearGradient
       inkscape:collect="always"
       xlink:href="#linearGradient1871"
       id="linearGradient16320"
       x1="10"
       y1="4"
       x2="10"
       y2="29.100245"
       gradientUnits="userSpaceOnUse"
       gradientTransform="matrix(0.26458333,0,0,0.26458333,0,-0.26458332)" />
    <linearGradient
       inkscape:collect="always"
       xlink:href="#linearGradient1049"
       id="linearGradient1051"
       x1="2.6458333"
       y1="0.5291667"
       x2="5.7276278"
       y2="7.9846039"
       gradientUnits="userSpaceOnUse" />
  </defs>
  <path
     id="rect18683"
     style="opacity:0.1;fill:#000000;stroke-width:0.264583;stroke-linejoin:round"
     d="m 2.38125,0.92604165 c -1.45520832,0 -1.984375,0.52916665 -1.984375,1.98437495 v 3.0427085 c 0,1.5875 0.52916665,2.1166666 2.1166666,2.1166666 h 3.4395833 c 1.5875,0 2.1166667,-0.5291666 2.1166667,-2.1166666 V 3.0427083 c 0,-1.5875 -0.5291667,-2.11666665 -2.1166667,-2.11666665 z"
     sodipodi:nodetypes="sssssssss" />
  <path
     id="rect6397"
     style="fill:url(#linearGradient1051);fill-opacity:1;stroke-width:0.255274;stroke-linejoin:round"
     d="M 0.39687499,2.6458334 C 0.396875,1.190625 0.92604165,0.66145833 2.38125,0.66145834 h 3.571875 c 1.5874999,-1e-8 2.1166666,0.52916666 2.1166668,2.11666666 l 10e-8,2.9104168 c 0,1.5874999 -0.529166,2.1166666 -2.116666,2.1166666 H 2.5135417 c -1.58750001,0 -2.11666671,-0.5291667 -2.11666671,-2.1166667 z"
     sodipodi:nodetypes="ccccccccc" />
  <path
     d="m 5.0342086,3.4396945 c 0.2035493,-0.00267 0.3401748,0.042849 0.4103688,0.1265158 0.073705,0.087148 0.1116118,0.2301002 0.1116118,0.4288102 v 2.3288098 c 0,0.1987127 -0.037907,0.3416565 -0.1116118,0.4288102 -0.070202,0.083669 -0.2068142,0.1265132 -0.4103688,0.1265132 H 1.8449211 c -0.2035652,0 -0.3405717,-0.042844 -0.4107657,-0.1265132 C 1.3604505,6.6654841 1.3229167,6.522543 1.3229167,6.3238303 V 3.9950205 c 0,-0.19871 0.037521,-0.3416565 0.1112387,-0.4288102 0.070194,-0.083667 0.20719,-0.1265185 0.4107657,-0.1265185 z"
     style="opacity:0.1;fill:#1a1a1a;stroke-width:0.0700042;enable-background:new"
     id="path1562"
     sodipodi:nodetypes="ccsscsscssccc" />
  <path
     d="m 6.6217085,2.1167779 c 0.2035493,-0.00267 0.3401748,0.042849 0.4103688,0.1265158 0.073705,0.087148 0.1116118,0.2301002 0.1116118,0.4288102 v 2.3288099 c 0,0.1987127 -0.037907,0.3416565 -0.1116118,0.4288102 C 6.9618753,5.513393 6.8252631,5.5562372 6.6217085,5.5562372 H 3.432421 c -0.2035652,0 -0.3405717,-0.042844 -0.4107657,-0.1265132 C 2.9479504,5.3425676 2.9104166,5.1996265 2.9104166,5.0009138 V 2.6721039 c 0,-0.19871 0.037521,-0.3416564 0.1112387,-0.4288102 0.070194,-0.083667 0.20719,-0.1265184 0.4107657,-0.1265184 z"
     style="opacity:0.1;fill:#1a1a1a;stroke-width:0.0185219;enable-background:new"
     id="path1718" />
  <path
     d="m 6.6217085,1.8521945 c 0.2035493,-0.00267 0.3401748,0.042849 0.4103688,0.1265159 0.073705,0.087148 0.1116118,0.2301002 0.1116118,0.4288102 v 2.3288098 c 0,0.1987127 -0.037907,0.3416565 -0.1116118,0.4288102 -0.070202,0.083669 -0.2068142,0.1265132 -0.4103688,0.1265132 H 3.432421 c -0.2035652,0 -0.3405717,-0.042844 -0.4107657,-0.1265132 C 2.9479504,5.0779842 2.9104166,4.9350431 2.9104166,4.7363304 V 2.4075206 c 0,-0.19871 0.037521,-0.3416565 0.1112387,-0.4288102 0.070194,-0.083667 0.20719,-0.1265185 0.4107657,-0.1265185 z"
     style="fill:#c8c4b7;fill-opacity:1;stroke-width:0.0700042;enable-background:new"
     id="path1838" />
  <path
     d="m 3.4307887,1.8521945 c -0.2035652,0 -0.3406246,0.042942 -0.4108186,0.1266085 -0.07021,0.083 -0.1061561,0.2183606 -0.1095534,0.4025635 H 7.140575 C 7.1371355,2.1971689 7.1007023,2.0618027 7.0305031,1.978803 6.9603012,1.8951364 6.8237418,1.8495222 6.6201873,1.8521945 Z"
     style="fill:#5d5d5d;stroke-width:0.0700042;enable-background:new"
     id="path2071" />
  <path
     d="m 5.0342086,3.1751112 c 0.2035493,-0.00267 0.3401748,0.042849 0.4103688,0.1265158 0.073705,0.087148 0.1116118,0.2301002 0.1116118,0.4288102 v 2.3288097 c 0,0.1987127 -0.037907,0.3416565 -0.1116118,0.4288102 -0.070202,0.083669 -0.2068142,0.1265132 -0.4103688,0.1265132 H 1.8449211 c -0.2035652,0 -0.3405717,-0.042844 -0.4107657,-0.1265132 C 1.3604505,6.4009007 1.3229167,6.2579596 1.3229167,6.0592469 V 3.7304372 c 0,-0.19871 0.037521,-0.3416564 0.1112387,-0.4288102 0.070194,-0.083667 0.20719,-0.1265184 0.4107657,-0.1265184 z"
     style="fill:#e3dfd5;stroke-width:0.264583;enable-background:new"
     id="path981"
     sodipodi:nodetypes="ccsscsscssccc" />
  <path
     d="m 1.8432887,3.1751112 c -0.2035652,0 -0.3406246,0.042942 -0.4108186,0.1266084 -0.07021,0.083 -0.1061561,0.2183607 -0.1095534,0.4025636 H 5.553075 C 5.5496355,3.5200856 5.5132023,3.3847194 5.4430031,3.3017196 5.3728012,3.2180531 5.2362418,3.1724389 5.0326873,3.1751112 Z"
     style="fill:#5d5d5d;stroke-width:0.264583;enable-background:new"
     id="path1096"
     sodipodi:nodetypes="scccccs" />
  <path
     id="rect2545"
     style="opacity:0.4;fill:#000000;stroke-width:0.387914;stroke-linejoin:round"
     d="m 2.6458333,0.52916667 c -1.91822909,0 -2.38124997,0.4630208 -2.38124997,2.38124993 V 5.55625 c 0,1.8520831 0.52916735,2.38125 2.38124997,2.38125 h 3.175 c 1.8520841,0 2.3812499,-0.5291669 2.3812499,-2.38125 V 2.9104166 c 0,-1.8520832 -0.5291666,-2.38124988 -2.3812499,-2.38124993 z m 0,0.26458333 h 3.175 c 1.7197916,0 2.1166666,0.396875 2.1166666,2.1166666 V 5.55625 c 0,1.7197917 -0.3968753,2.1166666 -2.1166666,2.1166666 h -3.175 c -1.71979162,0 -2.11666664,-0.3968749 -2.11666664,-2.1166666 V 2.9104166 c 0,-1.7197916 0.39687505,-2.1166666 2.11666664,-2.1166666 z"
     sodipodi:nodetypes="ssssssssssssssssss" />
  <path
     id="rect13250"
     style="opacity:1;fill:url(#linearGradient16320);fill-opacity:1;stroke-width:0.264583;stroke-linejoin:round"
     d="m 2.6458333,0.79375 c -1.71979143,0 -2.11666664,0.396875 -2.11666664,2.1166666 v 2.6458335 c 0,1.7197919 0.39687515,2.1166666 2.11666664,2.1166666 h 3.175 c 1.7197913,0 2.1166666,-0.3968747 2.1166666,-2.1166666 V 2.9104166 C 7.9374999,1.190625 7.5406249,0.79375 5.8208333,0.79375 Z m 0,0.2645833 h 3.175 c 1.5213541,0 1.8520833,0.3307294 1.8520833,1.8520833 v 2.6458335 c 0,1.5213542 -0.3307292,1.8520833 -1.8520833,1.8520833 h -3.175 c -1.5213541,0 -1.85208331,-0.3307291 -1.85208331,-1.8520833 V 2.9104166 c 0,-1.521354 0.33072921,-1.8520834 1.85208331,-1.8520833 z"
     sodipodi:nodetypes="ssssssssssssssssss" />
</svg>
