<?xml version="1.0" encoding="UTF-8" standalone="no"?>
<!-- Created with Inkscape (http://www.inkscape.org/) -->

<svg
   width="32"
   height="32"
   viewBox="0 0 8.4666665 8.4666669"
   version="1.1"
   id="svg2719"
   inkscape:version="1.1.2 (0a00cf5339, 2022-02-04)"
   sodipodi:docname="preferences-desktop-theme-applications.svg"
   xmlns:inkscape="http://www.inkscape.org/namespaces/inkscape"
   xmlns:sodipodi="http://sodipodi.sourceforge.net/DTD/sodipodi-0.dtd"
   xmlns:xlink="http://www.w3.org/1999/xlink"
   xmlns="http://www.w3.org/2000/svg"
   xmlns:svg="http://www.w3.org/2000/svg">
  <sodipodi:namedview
     id="namedview2721"
     pagecolor="#ffffff"
     bordercolor="#666666"
     borderopacity="1.0"
     inkscape:pageshadow="2"
     inkscape:pageopacity="0.0"
     inkscape:pagecheckerboard="0"
     inkscape:document-units="px"
     showgrid="false"
     units="px"
     inkscape:zoom="17.500893"
     inkscape:cx="11.028009"
     inkscape:cy="15.513494"
     inkscape:window-width="1851"
     inkscape:window-height="1049"
     inkscape:window-x="0"
     inkscape:window-y="0"
     inkscape:window-maximized="1"
     inkscape:current-layer="svg2719" />
  <defs
     id="defs2716">
    <linearGradient
       inkscape:collect="always"
       id="linearGradient1871">
      <stop
         style="stop-color:#ffffff;stop-opacity:1;"
         offset="0"
         id="stop1867" />
      <stop
         style="stop-color:#ffffff;stop-opacity:0.1"
         offset="0.12"
         id="stop2515" />
      <stop
         style="stop-color:#ffffff;stop-opacity:0.102"
         offset="0.89999998"
         id="stop2581" />
      <stop
         style="stop-color:#ffffff;stop-opacity:0.502"
         offset="1"
         id="stop1869" />
    </linearGradient>
    <linearGradient
       inkscape:collect="always"
       xlink:href="#linearGradient1871"
       id="linearGradient16320"
       x1="10"
       y1="4"
       x2="10"
       y2="29.100245"
       gradientUnits="userSpaceOnUse"
       gradientTransform="matrix(0.26458333,0,0,0.26458333,0,-0.26458332)" />
    <linearGradient
       inkscape:collect="always"
       xlink:href="#linearGradient3598"
       id="linearGradient908"
       x1="30.337561"
       y1="20.34284"
       x2="1.3375589"
       y2="4.3428392"
       gradientUnits="userSpaceOnUse"
       gradientTransform="scale(0.26458333)" />
    <linearGradient
       inkscape:collect="always"
       id="linearGradient3598">
      <stop
         style="stop-color:#28c8fd;stop-opacity:1"
         offset="0"
         id="stop3594" />
      <stop
         style="stop-color:#0829dc;stop-opacity:1"
         offset="1"
         id="stop3596" />
    </linearGradient>
  </defs>
  <path
     id="rect18683"
     style="opacity:0.1;fill:#000000;stroke-width:0.264583;stroke-linejoin:round"
     d="m 2.38125,0.92604165 c -1.45520832,0 -1.984375,0.52916665 -1.984375,1.98437495 v 3.0427085 c 0,1.5875 0.52916665,2.1166666 2.1166666,2.1166666 h 3.4395833 c 1.5875,0 2.1166667,-0.5291666 2.1166667,-2.1166666 V 3.0427083 c 0,-1.5875 -0.5291667,-2.11666665 -2.1166667,-2.11666665 z"
     sodipodi:nodetypes="sssssssss" />
  <path
     id="rect877"
     style="display:inline;fill:url(#linearGradient908);fill-opacity:1;stroke:none;stroke-width:0.0638622;stroke-linecap:round;stroke-linejoin:round;stroke-miterlimit:4;stroke-dasharray:none;stroke-dashoffset:0;stroke-opacity:1;enable-background:new"
     d="m 2.3812498,0.66145834 c -1.45520827,0 -1.98437494,0.52916656 -1.98437494,1.98437496 v 3.0427083 c 0,1.5875 0.52916667,2.1166666 2.11666654,2.1166666 h 3.4395833 c 1.5874998,0 2.1166655,-0.5291666 2.1166655,-2.1166666 V 2.778125 c 0,-1.5875 -0.5291657,-2.11666666 -2.1166655,-2.11666666 z"
     sodipodi:nodetypes="cccccsscc" />
  <path
     id="rect13250"
     style="fill:url(#linearGradient16320);fill-opacity:1;stroke-width:0.264583;stroke-linejoin:round;opacity:0.3"
     d="m 2.6458333,0.79375 c -1.71979143,0 -2.11666664,0.396875 -2.11666664,2.1166666 v 2.6458335 c 0,1.7197919 0.39687515,2.1166666 2.11666664,2.1166666 h 3.175 c 1.7197913,0 2.1166666,-0.3968747 2.1166666,-2.1166666 V 2.9104166 C 7.9374999,1.190625 7.5406249,0.79375 5.8208333,0.79375 Z m 0,0.2645833 h 3.175 c 1.5213541,0 1.8520833,0.3307294 1.8520833,1.8520833 v 2.6458335 c 0,1.5213542 -0.3307292,1.8520833 -1.8520833,1.8520833 h -3.175 c -1.5213541,0 -1.85208331,-0.3307291 -1.85208331,-1.8520833 V 2.9104166 c 0,-1.521354 0.33072921,-1.8520834 1.85208331,-1.8520833 z"
     sodipodi:nodetypes="ssssssssssssssssss" />
  <path
     id="rect2545"
     style="opacity:0.4;fill:#000000;stroke-width:0.387914;stroke-linejoin:round"
     d="m 2.6458333,0.52916667 c -1.91822909,0 -2.38124997,0.4630208 -2.38124997,2.38124993 V 5.55625 c 0,1.8520831 0.52916735,2.38125 2.38124997,2.38125 h 3.175 c 1.8520841,0 2.3812499,-0.5291669 2.3812499,-2.38125 V 2.9104166 c 0,-1.8520832 -0.5291666,-2.38124988 -2.3812499,-2.38124993 z m 0,0.26458333 h 3.175 c 1.7197916,0 2.1166666,0.396875 2.1166666,2.1166666 V 5.55625 c 0,1.7197917 -0.3968753,2.1166666 -2.1166666,2.1166666 h -3.175 c -1.71979162,0 -2.11666664,-0.3968749 -2.11666664,-2.1166666 V 2.9104166 c 0,-1.7197916 0.39687505,-2.1166666 2.11666664,-2.1166666 z"
     sodipodi:nodetypes="ssssssssssssssssss" />
  <path
     id="path2349"
     style="opacity:0.6;fill:#ffffff;fill-opacity:1;stroke-width:0.277497"
     d="M 5 13 L 5 14 C 5 15.108 5.8920001 16 7 16 L 25 16 C 26.108 16 27 15.108 27 14 L 27 13 C 27 14.108 26.108 15 25 15 L 7 15 C 5.8919999 15 5 14.108 5 13 z "
     transform="scale(0.26458333)" />
  <path
     id="rect1123"
     style="fill:#000000;fill-opacity:1;stroke-width:0.277497;opacity:0.3"
     d="m 1.8520833,1.5875 h 4.7624998 c 0.2931584,0 0.5291667,0.2360083 0.5291667,0.5291667 v 1.3229165 c 0,0.2931583 -0.2360083,0.5291667 -0.5291667,0.5291667 H 1.8520833 c -0.2931583,0 -0.5291667,-0.2360084 -0.5291667,-0.5291667 V 2.1166667 C 1.3229166,1.8235083 1.558925,1.5875 1.8520833,1.5875 Z"
     sodipodi:nodetypes="sssssssss" />
  <path
     id="path2511"
     style="opacity:0.2;fill:#000000;fill-opacity:1;stroke-width:0.277497"
     d="M 7 6 C 5.8920001 6 5 6.8919998 5 8 L 5 9 C 5 7.8919998 5.8920001 7 7 7 L 25 7 C 26.108 7 27 7.8919998 27 9 L 27 8 C 27 6.8919998 26.108 6 25 6 L 7 6 z "
     transform="scale(0.26458333)" />
  <path
     id="rect3055"
     style="opacity:0.2;fill:#000000;fill-opacity:1;stroke-width:0.999999"
     d="M 7 17 C 5.8920001 17 5 17.892 5 19 L 5 24 C 5 25.108 5.8920001 26 7 26 L 25 26 C 26.108 26 27 25.108 27 24 L 27 19 C 27 17.892 26.108 17 25 17 L 7 17 z M 7 18 L 25 18 C 25.554 18 26 18.446 26 19 L 26 24 C 26 24.554 25.554 25 25 25 L 7 25 C 6.446 25 6 24.554 6 24 L 6 19 C 6 18.446 6.446 18 7 18 z "
     transform="scale(0.26458333)" />
  <path
     id="rect3622"
     style="opacity:0.2;stroke-width:0.264583"
     d="m 1.8520833,4.4979167 h 1.5874999 c 0.2931583,0 0.5291667,0.2360083 0.5291667,0.5291667 v 1.3229165 c 0,0.2931584 -0.2360084,0.5291667 -0.5291667,0.5291667 H 1.8520833 c -0.2931583,0 -0.5291667,-0.2360083 -0.5291667,-0.5291667 V 5.0270834 c 0,-0.2931584 0.2360084,-0.5291667 0.5291667,-0.5291667 z" />
  <path
     id="rect3671"
     style="opacity:1;fill:#ffffff;stroke-width:0.264583"
     d="m 1.8520834,4.7625 h 1.5875001 c 0.1465791,0 0.2645833,0.1180042 0.2645833,0.2645833 V 6.35 c 0,0.1465792 -0.1180042,0.2645833 -0.2645833,0.2645833 H 1.8520834 C 1.7055042,6.6145833 1.5875,6.4965792 1.5875,6.35 V 5.0270833 C 1.5875,4.8805042 1.7055042,4.7625 1.8520834,4.7625 Z" />
  <path
     id="rect4045"
     style="opacity:0.1;stroke-width:0.221366"
     d="m 5.0270831,2.1166668 h 1.5875002 c 0.1465791,0 0.2645833,0.1180042 0.2645833,0.2645833 v 1.3229167 c 0,0.1465792 -0.1180042,0.2645833 -0.2645833,0.2645833 H 5.0270831 c -0.1465791,0 -0.2645833,-0.1180041 -0.2645833,-0.2645833 V 2.3812501 c 0,-0.1465791 0.1180042,-0.2645833 0.2645833,-0.2645833 z" />
  <path
     id="rect4149"
     style="opacity:1;fill:#ffffff;stroke-width:0.264583"
     d="M 5.0270831,1.8520833 H 6.614583 c 0.1465792,0 0.2645834,0.1180042 0.2645834,0.2645833 v 1.3229167 c 0,0.1465792 -0.1180042,0.2645834 -0.2645834,0.2645834 H 5.0270831 c -0.1465791,0 -0.2645833,-0.1180042 -0.2645833,-0.2645834 V 2.1166666 c 0,-0.1465791 0.1180042,-0.2645833 0.2645833,-0.2645833 z" />
</svg>
