<?xml version="1.0" encoding="UTF-8" standalone="no"?>
<!-- Created with Inkscape (http://www.inkscape.org/) -->

<svg
   width="32"
   height="32"
   viewBox="0 0 8.4666665 8.4666669"
   version="1.1"
   id="svg2719"
   inkscape:version="1.1.2 (0a00cf5339, 2022-02-04)"
   sodipodi:docname="system-file-manager.svg"
   xmlns:inkscape="http://www.inkscape.org/namespaces/inkscape"
   xmlns:sodipodi="http://sodipodi.sourceforge.net/DTD/sodipodi-0.dtd"
   xmlns:xlink="http://www.w3.org/1999/xlink"
   xmlns="http://www.w3.org/2000/svg"
   xmlns:svg="http://www.w3.org/2000/svg">
  <sodipodi:namedview
     id="namedview2721"
     pagecolor="#ffffff"
     bordercolor="#666666"
     borderopacity="1.0"
     inkscape:pageshadow="2"
     inkscape:pageopacity="0.0"
     inkscape:pagecheckerboard="0"
     inkscape:document-units="px"
     showgrid="false"
     units="px"
     inkscape:zoom="1"
     inkscape:cx="15.5"
     inkscape:cy="15.5"
     inkscape:window-width="1718"
     inkscape:window-height="847"
     inkscape:window-x="0"
     inkscape:window-y="0"
     inkscape:window-maximized="1"
     inkscape:current-layer="svg2719"
     showguides="true" />
  <defs
     id="defs2716">
    <linearGradient
       inkscape:collect="always"
       id="linearGradient1871">
      <stop
         style="stop-color:#ffffff;stop-opacity:1;"
         offset="0"
         id="stop1867" />
      <stop
         style="stop-color:#ffffff;stop-opacity:0.1"
         offset="0.12"
         id="stop2515" />
      <stop
         style="stop-color:#ffffff;stop-opacity:0.102"
         offset="0.89999998"
         id="stop2581" />
      <stop
         style="stop-color:#ffffff;stop-opacity:0.502"
         offset="1"
         id="stop1869" />
    </linearGradient>
    <linearGradient
       inkscape:collect="always"
       xlink:href="#linearGradient1871"
       id="linearGradient16320"
       x1="10"
       y1="4"
       x2="10"
       y2="29.100245"
       gradientUnits="userSpaceOnUse"
       gradientTransform="matrix(0.26458333,0,0,0.26458333,0,-0.26458332)" />
    <linearGradient
       inkscape:collect="always"
       id="linearGradient6327">
      <stop
         style="stop-color:#2483d8;stop-opacity:1"
         offset="0"
         id="stop6323" />
      <stop
         style="stop-color:#6d9cf3;stop-opacity:1"
         offset="1"
         id="stop6325" />
    </linearGradient>
    <linearGradient
       inkscape:collect="always"
       xlink:href="#linearGradient6327"
       id="linearGradient2031"
       x1="2.281801"
       y1="1.3393605"
       x2="5.0992427"
       y2="7.1437502"
       gradientUnits="userSpaceOnUse"
       gradientTransform="matrix(3.4645668,0,0,3.4359341,1.3333336,1.4545454)" />
    <linearGradient
       inkscape:collect="always"
       id="linearGradient8053">
      <stop
         style="stop-color:#d7d1c3;stop-opacity:1"
         offset="0"
         id="stop8049" />
      <stop
         style="stop-color:#ebe8e1;stop-opacity:1;"
         offset="0.1163214"
         id="stop11248" />
      <stop
         style="stop-color:#ebe8e1;stop-opacity:1;"
         offset="0.88"
         id="stop8377" />
      <stop
         style="stop-color:#d7d1c3;stop-opacity:1"
         offset="1"
         id="stop8051" />
    </linearGradient>
    <linearGradient
       inkscape:collect="always"
       xlink:href="#linearGradient8053"
       id="linearGradient12852"
       gradientUnits="userSpaceOnUse"
       gradientTransform="matrix(3.7795275,0,0,3.7795275,2.527559e-7,13.5)"
       x1="3.4395833"
       y1="2.5763285"
       x2="5.0270834"
       y2="2.5763285" />
  </defs>
  <path
     id="rect18683"
     style="opacity:0.1;fill:#000000;stroke-width:0.264583;stroke-linejoin:round"
     d="m 2.38125,0.92604165 c -1.45520832,0 -1.984375,0.52916665 -1.984375,1.98437495 v 3.0427085 c 0,1.5875 0.52916665,2.1166666 2.1166666,2.1166666 h 3.4395833 c 1.5875,0 2.1166667,-0.5291666 2.1166667,-2.1166666 V 3.0427083 c 0,-1.5875 -0.5291667,-2.11666665 -2.1166667,-2.11666665 z"
     sodipodi:nodetypes="sssssssss" />
  <path
     id="rect6397"
     style="fill:#e3dfd4;fill-opacity:1;stroke-width:0.255274;stroke-linejoin:round"
     d="M 0.39687499,2.6458334 C 0.396875,1.190625 0.92604165,0.66145833 2.38125,0.66145834 h 3.571875 c 1.5874999,-1e-8 2.1166666,0.52916666 2.1166668,2.11666666 l 10e-8,2.9104168 c 0,1.5874999 -0.529166,2.1166666 -2.116666,2.1166666 H 2.5135417 c -1.58750001,0 -2.11666671,-0.5291667 -2.11666671,-2.1166667 z"
     sodipodi:nodetypes="ccccccccc" />
  <path
     d="m 1.0583333,2.7005746 c 0,-1.2043103 0.345626,-1.3776579 1.3776581,-1.3776579 h 3.4852011 c 1.075521,0 1.4871407,0.1733476 1.4871408,1.4871407 l 2e-7,2.9377874 C 7.4083336,7.0616378 7.023112,7.14375 5.9211931,7.14375 h -3.375719 c -1.1811111,0 -1.4871408,-0.082112 -1.4871408,-1.3959052 z"
     style="fill:#1f6ab5;fill-opacity:1;stroke-width:0.0558962;stroke-linejoin:round"
     id="path1183"
     sodipodi:nodetypes="sssssssss" />
  <path
     id="path1926"
     style="fill:url(#linearGradient2031);fill-opacity:1;stroke-width:0.0510259;stroke-linejoin:round"
     d="M 8.8105469,6 C 5.2350012,6 5,6.9496058 5,9.8125 V 12 H 27 V 10.1875 C 27,6.5234181 26.34457,6 23,6 Z M 5,13 v 6 h 22 v -6 z m 0,7 v 1 c 0,4.514108 0.097415,5 4.1894531,5 H 23 c 3.817671,0 4,-0.485894 4,-5 v -1 z"
     transform="scale(0.26458333)"
     sodipodi:nodetypes="ssccsssccccccsssscc" />
  <path
     id="path12599-7"
     style="opacity:0.1;fill:#000000;stroke-width:0.999999"
     d="M 13 8.5 L 13 9 L 13 9.5 L 13 9.9746094 C 13 10.251611 13.223 10.474609 13.5 10.474609 L 18.5 10.474609 C 18.776998 10.474609 19 10.25161 19 9.9746094 L 19 9.5253906 C 19.000431 9.5168489 19 9.5086551 19 9.5 L 19 9 L 19 8.5 L 17 8.5 L 17 9 L 15 9 L 15 8.5 L 13 8.5 z M 13 15.5 L 13 16 L 13 16.5 L 13 16.974609 C 13 17.251611 13.223 17.474609 13.5 17.474609 L 18.5 17.474609 C 18.776998 17.474609 19 17.25161 19 16.974609 L 19 16.525391 C 19.000431 16.516849 19 16.508655 19 16.5 L 19 16 L 19 15.5 L 17 15.5 L 17 16 L 15 16 L 15 15.5 L 13 15.5 z M 13 22.5 L 13 23 L 13 23.5 L 13 23.974609 C 13 24.251611 13.223 24.474609 13.5 24.474609 L 18.5 24.474609 C 18.776998 24.474609 19 24.25161 19 23.974609 L 19 23.525391 C 19.000431 23.516849 19 23.508655 19 23.5 L 19 23 L 19 22.5 L 17 22.5 L 17 23 L 15 23 L 15 22.5 L 13 22.5 z "
     transform="scale(0.26458333)" />
  <path
     id="rect4264-9"
     style="fill:#e3dfd4;stroke-width:0.999999"
     d="M 13 8 L 13 9 C 13 9.2770004 13.222998 9.5 13.5 9.5 L 18.5 9.5 C 18.777 9.5 19 9.2770016 19 9 L 19 8 L 17 8 L 17 8.5 L 15 8.5 L 15 8 L 13 8 z M 13 15 L 13 16 C 13 16.277 13.222998 16.5 13.5 16.5 L 18.5 16.5 C 18.777 16.5 19 16.277002 19 16 L 19 15 L 17 15 L 17 15.5 L 15 15.5 L 15 15 L 13 15 z M 13 22 L 13 23 C 13 23.277 13.222998 23.5 13.5 23.5 L 18.5 23.5 C 18.777 23.5 19 23.277002 19 23 L 19 22 L 17 22 L 17 22.5 L 15 22.5 L 15 22 L 13 22 z "
     transform="scale(0.26458333)" />
  <path
     id="path11368-2"
     style="fill:url(#linearGradient12852);fill-opacity:1;stroke-width:0.264583"
     d="M 13 8.5 L 13 9.4746094 C 13 9.7516109 13.223 9.9746094 13.5 9.9746094 L 18.5 9.9746094 C 18.776998 9.9746094 19 9.7516098 19 9.4746094 L 19 8.5 C 18.986658 8.7649146 18.768342 8.9746094 18.5 8.9746094 L 13.5 8.9746094 C 13.231654 8.9746094 13.013342 8.7649135 13 8.5 z M 13 15.5 L 13 16.474609 C 13 16.751611 13.223 16.974609 13.5 16.974609 L 18.5 16.974609 C 18.776998 16.974609 19 16.75161 19 16.474609 L 19 15.5 C 18.986658 15.764915 18.768342 15.974609 18.5 15.974609 L 13.5 15.974609 C 13.231654 15.974609 13.013342 15.764914 13 15.5 z M 13 22.5 L 13 23.474609 C 13 23.751611 13.223 23.974609 13.5 23.974609 L 18.5 23.974609 C 18.776998 23.974609 19 23.75161 19 23.474609 L 19 22.5 C 18.986658 22.764915 18.768342 22.974609 18.5 22.974609 L 13.5 22.974609 C 13.231654 22.974609 13.013342 22.764914 13 22.5 z "
     transform="scale(0.26458333)" />
  <path
     id="path12199-0"
     style="opacity:0.6;fill:#ffffff;fill-opacity:1;stroke-width:0.070004"
     d="M 13 8.5 L 13 9 C 13.013342 9.2649135 13.231654 9.4746094 13.5 9.4746094 L 18.5 9.4746094 C 18.768341 9.4746094 18.986661 9.2649146 19 9 L 19 8.5 C 18.98666 8.7649146 18.768341 8.9746094 18.5 8.9746094 L 13.5 8.9746094 C 13.231654 8.9746094 13.013342 8.7649135 13 8.5 z M 13 15.5 L 13 16 C 13.013342 16.264915 13.231655 16.474609 13.5 16.474609 L 18.5 16.474609 C 18.768343 16.474609 18.986661 16.264914 19 16 L 19 15.5 C 18.986658 15.764915 18.768342 15.974609 18.5 15.974609 L 13.5 15.974609 C 13.231654 15.974609 13.013342 15.764914 13 15.5 z M 13 22.5 L 13 23 C 13.013342 23.264915 13.231655 23.474609 13.5 23.474609 L 18.5 23.474609 C 18.768339 23.474609 18.986661 23.264914 19 23 L 19 22.5 C 18.986658 22.764915 18.768341 22.974609 18.5 22.974609 L 13.5 22.974609 C 13.231654 22.974609 13.013342 22.764914 13 22.5 z "
     transform="scale(0.26458333)" />
  <path
     id="path3982"
     style="opacity:0.5;fill:#ffffff;fill-opacity:1;stroke-width:0.0510259;stroke-linejoin:round"
     d="M 8.8105469 6 C 5.2350012 6 5 6.9496058 5 9.8125 L 5 10.8125 C 5 7.9496058 5.2350012 7 8.8105469 7 L 23 7 C 26.34457 7 27 7.5234182 27 11.1875 L 27 10.1875 C 27 6.5234182 26.34457 6 23 6 L 8.8105469 6 z M 5 13 L 5 14 L 27 14 L 27 13 L 5 13 z M 5 20 L 5 21 L 27 21 L 27 20 L 5 20 z "
     transform="scale(0.26458333)" />
  <path
     id="rect960"
     style="opacity:0.1;fill:#ffffff;fill-opacity:1;stroke-width:0.999999;stroke-linejoin:round"
     d="m 16,2.5 v 27 h 6.5 c 6,0 8,-2 8,-8 v -11 c 0,-6 -2,-8 -8,-8 z"
     transform="scale(0.26458333)"
     sodipodi:nodetypes="ccssssc" />
  <path
     id="rect13250"
     style="fill:url(#linearGradient16320);fill-opacity:1;stroke-width:0.264583;stroke-linejoin:round;opacity:0.7"
     d="m 2.6458333,0.79375 c -1.71979143,0 -2.11666664,0.396875 -2.11666664,2.1166666 v 2.6458335 c 0,1.7197919 0.39687515,2.1166666 2.11666664,2.1166666 h 3.175 c 1.7197913,0 2.1166666,-0.3968747 2.1166666,-2.1166666 V 2.9104166 C 7.9374999,1.190625 7.5406249,0.79375 5.8208333,0.79375 Z m 0,0.2645833 h 3.175 c 1.5213541,0 1.8520833,0.3307294 1.8520833,1.8520833 v 2.6458335 c 0,1.5213542 -0.3307292,1.8520833 -1.8520833,1.8520833 h -3.175 c -1.5213541,0 -1.85208331,-0.3307291 -1.85208331,-1.8520833 V 2.9104166 c 0,-1.521354 0.33072921,-1.8520834 1.85208331,-1.8520833 z"
     sodipodi:nodetypes="ssssssssssssssssss" />
  <path
     id="rect2545"
     style="opacity:0.4;fill:#000000;stroke-width:0.387914;stroke-linejoin:round"
     d="m 2.6458333,0.52916667 c -1.91822909,0 -2.38124997,0.4630208 -2.38124997,2.38124993 V 5.55625 c 0,1.8520831 0.52916735,2.38125 2.38124997,2.38125 h 3.175 c 1.8520841,0 2.3812499,-0.5291669 2.3812499,-2.38125 V 2.9104166 c 0,-1.8520832 -0.5291666,-2.38124988 -2.3812499,-2.38124993 z m 0,0.26458333 h 3.175 c 1.7197916,0 2.1166666,0.396875 2.1166666,2.1166666 V 5.55625 c 0,1.7197917 -0.3968753,2.1166666 -2.1166666,2.1166666 h -3.175 c -1.71979162,0 -2.11666664,-0.3968749 -2.11666664,-2.1166666 V 2.9104166 c 0,-1.7197916 0.39687505,-2.1166666 2.11666664,-2.1166666 z"
     sodipodi:nodetypes="ssssssssssssssssss" />
</svg>
