<?xml version="1.0" encoding="UTF-8" standalone="no"?>
<!-- Created with Inkscape (http://www.inkscape.org/) -->

<svg
   width="32"
   height="32"
   viewBox="0 0 8.4666665 8.4666669"
   version="1.1"
   id="svg2719"
   inkscape:version="1.1.2 (0a00cf5339, 2022-02-04)"
   sodipodi:docname="ubuntusoftware.svg"
   xmlns:inkscape="http://www.inkscape.org/namespaces/inkscape"
   xmlns:sodipodi="http://sodipodi.sourceforge.net/DTD/sodipodi-0.dtd"
   xmlns:xlink="http://www.w3.org/1999/xlink"
   xmlns="http://www.w3.org/2000/svg"
   xmlns:svg="http://www.w3.org/2000/svg">
  <sodipodi:namedview
     id="namedview2721"
     pagecolor="#ffffff"
     bordercolor="#666666"
     borderopacity="1.0"
     inkscape:pageshadow="2"
     inkscape:pageopacity="0.0"
     inkscape:pagecheckerboard="0"
     inkscape:document-units="px"
     showgrid="false"
     units="px"
     inkscape:zoom="24.75"
     inkscape:cx="15.979798"
     inkscape:cy="16"
     inkscape:window-width="1920"
     inkscape:window-height="1010"
     inkscape:window-x="0"
     inkscape:window-y="0"
     inkscape:window-maximized="1"
     inkscape:current-layer="svg2719" />
  <defs
     id="defs2716">
    <linearGradient
       inkscape:collect="always"
       id="linearGradient1024">
      <stop
         style="stop-color:#f37e40;stop-opacity:1;"
         offset="0"
         id="stop1020" />
      <stop
         style="stop-color:#f34f17;stop-opacity:1"
         offset="1"
         id="stop1022" />
    </linearGradient>
    <linearGradient
       inkscape:collect="always"
       id="linearGradient1871">
      <stop
         style="stop-color:#ffffff;stop-opacity:1;"
         offset="0"
         id="stop1867" />
      <stop
         style="stop-color:#ffffff;stop-opacity:0.1"
         offset="0.12"
         id="stop2515" />
      <stop
         style="stop-color:#ffffff;stop-opacity:0.102"
         offset="0.89999998"
         id="stop2581" />
      <stop
         style="stop-color:#ffffff;stop-opacity:0.502"
         offset="1"
         id="stop1869" />
    </linearGradient>
    <linearGradient
       inkscape:collect="always"
       xlink:href="#linearGradient1871"
       id="linearGradient16320"
       x1="10"
       y1="4"
       x2="10"
       y2="29.100245"
       gradientUnits="userSpaceOnUse"
       gradientTransform="matrix(0.26458333,0,0,0.26458333,0,-0.26458332)" />
    <linearGradient
       inkscape:collect="always"
       xlink:href="#linearGradient1024"
       id="linearGradient1026"
       x1="10.451042"
       y1="10.054167"
       x2="-1.4552083"
       y2="-0.52916646"
       gradientUnits="userSpaceOnUse" />
  </defs>
  <path
     id="rect18683"
     style="opacity:0.1;fill:#000000;stroke-width:0.264583;stroke-linejoin:round"
     d="m 2.38125,0.92604165 c -1.45520832,0 -1.984375,0.52916665 -1.984375,1.98437495 v 3.0427085 c 0,1.5875 0.52916665,2.1166666 2.1166666,2.1166666 h 3.4395833 c 1.5875,0 2.1166667,-0.5291666 2.1166667,-2.1166666 V 3.0427083 c 0,-1.5875 -0.5291667,-2.11666665 -2.1166667,-2.11666665 z"
     sodipodi:nodetypes="sssssssss" />
  <path
     id="rect6397"
     style="fill:url(#linearGradient1026);fill-opacity:1;stroke-width:0.255274;stroke-linejoin:round"
     d="M 0.39687499,2.6458334 C 0.396875,1.190625 0.92604165,0.66145833 2.38125,0.66145834 h 3.571875 c 1.5874999,-1e-8 2.1166666,0.52916666 2.1166668,2.11666666 l 10e-8,2.9104168 c 0,1.5874999 -0.529166,2.1166666 -2.116666,2.1166666 H 2.5135417 c -1.58750001,0 -2.11666671,-0.5291667 -2.11666671,-2.1166667 z"
     sodipodi:nodetypes="ccccccccc" />
  <path
     id="rect1372"
     style="opacity:0.1;fill:#ffffff;fill-opacity:1;stroke-width:0.264583;stroke-linejoin:round"
     d="m 0.396875,4.2333333 v 1.4552083 c 0,1.5875 0.52916666,2.1166666 2.1166666,2.1166666 h 3.4395833 c 1.5875,0 2.1166667,-0.5291666 2.1166667,-2.1166666 V 4.2333333 Z" />
  <path
     id="rect13250"
     style="fill:url(#linearGradient16320);fill-opacity:1;stroke-width:0.264583;stroke-linejoin:round;opacity:0.7"
     d="m 2.6458333,0.79375 c -1.71979143,0 -2.11666664,0.396875 -2.11666664,2.1166666 v 2.6458335 c 0,1.7197919 0.39687515,2.1166666 2.11666664,2.1166666 h 3.175 c 1.7197913,0 2.1166666,-0.3968747 2.1166666,-2.1166666 V 2.9104166 C 7.9374999,1.190625 7.5406249,0.79375 5.8208333,0.79375 Z m 0,0.2645833 h 3.175 c 1.5213541,0 1.8520833,0.3307294 1.8520833,1.8520833 v 2.6458335 c 0,1.5213542 -0.3307292,1.8520833 -1.8520833,1.8520833 h -3.175 c -1.5213541,0 -1.85208331,-0.3307291 -1.85208331,-1.8520833 V 2.9104166 c 0,-1.521354 0.33072921,-1.8520834 1.85208331,-1.8520833 z"
     sodipodi:nodetypes="ssssssssssssssssss" />
  <path
     id="rect2545"
     style="opacity:0.4;fill:#000000;stroke-width:0.387914;stroke-linejoin:round"
     d="m 2.6458333,0.52916667 c -1.91822909,0 -2.38124997,0.4630208 -2.38124997,2.38124993 V 5.55625 c 0,1.8520831 0.52916735,2.38125 2.38124997,2.38125 h 3.175 c 1.8520841,0 2.3812499,-0.5291669 2.3812499,-2.38125 V 2.9104166 c 0,-1.8520832 -0.5291666,-2.38124988 -2.3812499,-2.38124993 z m 0,0.26458333 h 3.175 c 1.7197916,0 2.1166666,0.396875 2.1166666,2.1166666 V 5.55625 c 0,1.7197917 -0.3968753,2.1166666 -2.1166666,2.1166666 h -3.175 c -1.71979162,0 -2.11666664,-0.3968749 -2.11666664,-2.1166666 V 2.9104166 c 0,-1.7197916 0.39687505,-2.1166666 2.11666664,-2.1166666 z"
     sodipodi:nodetypes="ssssssssssssssssss" />
  <path
     d="M 3.8213241,2.1166667 C 3.6563882,2.460281 3.4983208,2.8084991 3.3471379,3.1612681 3.195947,3.5094598 3.0423908,3.8760135 2.8866306,4.26085 2.7354397,4.6457129 2.41935,5.4840981 2.41935,5.4840981 L 2.0626917,6.3499999 h 0.904187 l 0.3271044,-0.8987895 1.8918237,0.1050395 0.3439584,0.79375 H 6.4302481 L 6.0402787,5.4978564 c 0,0 -0.3183996,-0.8361362 -0.4741863,-1.2163954 C 5.4149016,3.8965981 5.2636737,3.5278218 5.1124908,3.1750264 4.9612999,2.8222575 4.6314783,2.1166667 4.6314783,2.1166667 H 4.2241787 Z M 4.549722,3.8553495 C 4.7146554,4.2630989 4.8841554,4.7029422 5.0582512,5.1748266 L 3.4335243,5.1129961 C 3.57555,4.7144014 3.7176074,4.3295914 3.8596358,3.9584868 3.976698,3.6585287 4.0983614,3.3692068 4.2241787,3.089648 v -0.00534 c 0,0 0.184404,0.4226718 0.3255433,0.7710222 z"
     style="fill:#fff9f2;stroke-width:0.264583;enable-background:new"
     id="path885"
     sodipodi:nodetypes="cccccccccccccccccccccccc" />
  <path
     id="path3282"
     style="fill:#f34f17;stroke-width:0.264583;enable-background:new;fill-opacity:1;opacity:0.1"
     d="M 17.503906 8 L 15.96875 11.666016 C 15.975668 11.681875 16.664542 13.2603 17.195312 14.570312 L 17.195312 14.572266 C 17.818682 16.113366 18.459188 17.775094 19.117188 19.558594 L 19.599609 21 L 20.900391 24 L 24.302734 24 L 22.830078 20.779297 C 22.830078 20.779297 21.625909 17.61884 21.037109 16.181641 C 20.46568 14.72704 19.893666 13.3334 19.322266 12 C 18.750835 10.6667 17.503906 8 17.503906 8 z "
     transform="scale(0.26458333)" />
  <path
     id="rect1872"
     style="opacity:1;fill:#f8f8f8;stroke-width:0.264583;stroke-linecap:round;stroke-linejoin:round"
     d="m 2.2489583,4.7625 h 3.9687503 c 0.2198687,0 0.396875,0.1770063 0.396875,0.396875 0,0.2198688 -0.1770063,0.396875 -0.396875,0.396875 H 2.2489583 c -0.2198687,0 -0.396875,-0.1770062 -0.396875,-0.396875 0,-0.2198687 0.1770063,-0.396875 0.396875,-0.396875 z"
     sodipodi:nodetypes="sssssss" />
  <path
     id="rect2284"
     style="opacity:0.2;fill:#f34f17;stroke-width:0.264583;stroke-linecap:round;stroke-linejoin:round"
     d="m 2.2489584,5.0270834 h 3.9687502 c 0.07329,0 0.1322917,0.059002 0.1322917,0.1322916 0,0.07329 -0.059002,0.1322917 -0.1322917,0.1322917 H 2.2489584 c -0.07329,0 -0.1322917,-0.059002 -0.1322917,-0.1322917 0,-0.073289 0.059002,-0.1322916 0.1322917,-0.1322916 z" />
</svg>
