<?xml version="1.0" encoding="UTF-8" standalone="no"?>
<!-- Created with Inkscape (http://www.inkscape.org/) -->

<svg
   width="32"
   height="32"
   viewBox="0 0 8.4666665 8.4666669"
   version="1.1"
   id="svg2719"
   inkscape:version="1.1.2 (0a00cf5339, 2022-02-04)"
   sodipodi:docname="usb-creator.svg"
   xmlns:inkscape="http://www.inkscape.org/namespaces/inkscape"
   xmlns:sodipodi="http://sodipodi.sourceforge.net/DTD/sodipodi-0.dtd"
   xmlns:xlink="http://www.w3.org/1999/xlink"
   xmlns="http://www.w3.org/2000/svg"
   xmlns:svg="http://www.w3.org/2000/svg">
  <sodipodi:namedview
     id="namedview2721"
     pagecolor="#ffffff"
     bordercolor="#666666"
     borderopacity="1.0"
     inkscape:pageshadow="2"
     inkscape:pageopacity="0.0"
     inkscape:pagecheckerboard="0"
     inkscape:document-units="px"
     showgrid="false"
     units="px"
     inkscape:zoom="18.826718"
     inkscape:cx="19.148319"
     inkscape:cy="21.618213"
     inkscape:window-width="1851"
     inkscape:window-height="1053"
     inkscape:window-x="0"
     inkscape:window-y="0"
     inkscape:window-maximized="1"
     inkscape:current-layer="svg2719" />
  <defs
     id="defs2716">
    <linearGradient
       inkscape:collect="always"
       id="linearGradient1871">
      <stop
         style="stop-color:#ffffff;stop-opacity:1;"
         offset="0"
         id="stop1867" />
      <stop
         style="stop-color:#ffffff;stop-opacity:0.1"
         offset="0.12"
         id="stop2515" />
      <stop
         style="stop-color:#ffffff;stop-opacity:0.102"
         offset="0.89999998"
         id="stop2581" />
      <stop
         style="stop-color:#ffffff;stop-opacity:0.502"
         offset="1"
         id="stop1869" />
    </linearGradient>
    <linearGradient
       inkscape:collect="always"
       xlink:href="#linearGradient1871"
       id="linearGradient16320"
       x1="10"
       y1="4"
       x2="10"
       y2="29.100245"
       gradientUnits="userSpaceOnUse"
       gradientTransform="matrix(0.26458333,0,0,0.26458333,0,-0.26458332)" />
    <linearGradient
       inkscape:collect="always"
       id="linearGradient5306">
      <stop
         style="stop-color:#999999;stop-opacity:1"
         offset="0"
         id="stop5302" />
      <stop
         style="stop-color:#dbdbdb;stop-opacity:1"
         offset="1"
         id="stop5304" />
    </linearGradient>
    <linearGradient
       inkscape:collect="always"
       xlink:href="#linearGradient1871"
       id="linearGradient4234"
       x1="15.060547"
       y1="7"
       x2="15.060547"
       y2="23"
       gradientUnits="userSpaceOnUse" />
    <linearGradient
       inkscape:collect="always"
       xlink:href="#linearGradient5306"
       id="linearGradient4455"
       x1="13"
       y1="1.9999999"
       x2="13"
       y2="32"
       gradientUnits="userSpaceOnUse" />
  </defs>
  <path
     id="rect18683"
     style="opacity:0.1;fill:#000000;stroke-width:0.264583;stroke-linejoin:round"
     d="m 2.38125,0.92604165 c -1.45520832,0 -1.984375,0.52916665 -1.984375,1.98437495 v 3.0427085 c 0,1.5875 0.52916665,2.1166666 2.1166666,2.1166666 h 3.4395833 c 1.5875,0 2.1166667,-0.5291666 2.1166667,-2.1166666 V 3.0427083 c 0,-1.5875 -0.5291667,-2.11666665 -2.1166667,-2.11666665 z"
     sodipodi:nodetypes="sssssssss" />
  <path
     id="rect6397"
     style="fill:#4d4d4d;fill-opacity:1;stroke-width:0.255274;stroke-linejoin:round"
     d="M 0.39687499,2.6458334 C 0.396875,1.190625 0.92604165,0.66145833 2.38125,0.66145834 h 3.571875 c 1.5874999,-1e-8 2.1166666,0.52916666 2.1166668,2.11666666 l 10e-8,2.9104168 c 0,1.5874999 -0.529166,2.1166666 -2.116666,2.1166666 H 2.5135417 c -1.58750001,0 -2.11666671,-0.5291667 -2.11666671,-2.1166667 z"
     sodipodi:nodetypes="ccccccccc" />
  <g
     id="g6871">
    <path
       d="m 3.4395833,1.8520833 c -0.7937501,0 -0.79375,0.2645834 -0.79375,1.0583333 V 5.55625 c 0,0.79375 -10e-8,1.0583333 0.79375,1.0583333 h 1.5875 c 0.79375,0 0.79375,-0.2645833 0.79375,-1.0583333 V 2.9104166 c 0,-0.7937499 0,-1.0583333 -0.79375,-1.0583333 z"
       style="opacity:0.1;stroke-width:0.287073"
       id="path6224"
       sodipodi:nodetypes="sssssssss" />
    <rect
       style="opacity:1;fill:#c0bfbc;fill-opacity:1;stroke-width:0.358042"
       id="rect5578"
       width="1.8520833"
       height="1.0583334"
       x="3.3072917"
       y="5.953125" />
    <rect
       style="opacity:1;fill:#f6f5f4;fill-opacity:1;stroke-width:0.287073"
       id="rect5963"
       width="1.8520834"
       height="0.79374999"
       x="3.3072915"
       y="5.953125" />
    <path
       id="rect5435"
       style="opacity:0.4;fill:#000000;stroke-width:0.287073"
       d="M 3.175,5.8208334 V 7.14375 H 5.2916667 V 5.8208334 Z m 0.2645833,0.2645833 h 1.5875 v 0.79375 h -1.5875 z" />
    <path
       id="rect1406-6"
       style="opacity:1;fill:url(#linearGradient4455);fill-opacity:1;stroke-width:0.933819"
       d="M 12.560547,6.5000001 C 10.50061,6.5128175 10.5,7.2187499 10.5,10.5 v 9 c 0,3.5 0,4 2.5,4 h 6 c 2.5,0 2.5,-0.5 2.5,-4 v -9 C 21.5,7 21.5,6.5000001 19,6.5000001 Z"
       sodipodi:nodetypes="csssssscc"
       transform="scale(0.26458333)" />
    <path
       d="M 3.8931717,3.5907821 H 4.1199223 V 4.6082108 C 4.0619521,4.5712617 4.002106,4.5388582 3.9440987,4.5098784 3.8590696,4.4673889 3.780491,4.4262833 3.7319214,4.3858364 3.6833571,4.3453076 3.6663709,4.3183571 3.6663709,4.2711396 c 0.1252537,0 0.2268008,-0.101555 0.2268008,-0.2268087 0,-0.1252538 -0.1015497,-0.2267744 -0.2268008,-0.2267744 -0.1252564,0 -0.2267876,0.1015206 -0.2267876,0.2267744 v 0.2268087 c 0,0.1228301 0.068035,0.2234035 0.1470739,0.2892425 0.079007,0.065828 0.1709738,0.1098417 0.2560082,0.152355 0.085021,0.042489 0.1631685,0.083587 0.2117064,0.1240393 0.048562,0.040434 0.06555,0.067477 0.06555,0.1146969 -0.062801,0 -0.1133713,0.050591 -0.1133713,0.1134162 v 0.2267533 c 0,0.062846 0.05057,0.1134109 0.1133713,0.1134109 h 0.2268273 c 0.062796,0 0.1133713,-0.050565 0.1133713,-0.1134109 V 5.0648895 c 0,-0.062825 -0.050575,-0.1134162 -0.1133713,-0.1134162 V 4.72472 c 0,-0.047292 0.016801,-0.074284 0.065556,-0.1147656 0.048538,-0.040434 0.1271061,-0.081463 0.21213,-0.1239864 C 4.7094981,4.443479 4.8010127,4.399449 4.8800146,4.3335706 4.9590506,4.2677156 5.0270833,4.1671954 5.0270833,4.0443282 V 3.7041534 c 0,-0.062801 -0.05057,-0.113366 -0.113411,-0.113366 H 4.6869217 c -0.062833,0 -0.1134189,0.050565 -0.1134189,0.113366 v 0.2268273 c 0,0.062796 0.050586,0.1133581 0.1134189,0.1133581 h 0.1133792 c 0,0.047273 -0.016775,0.07429 -0.065556,0.1147524 -0.048567,0.040436 -0.1266825,0.081462 -0.211746,0.1240075 -0.058052,0.029289 -0.1180782,0.061431 -0.1762495,0.098322 V 3.5907927 H 4.5735028 L 4.233328,2.9104167 Z"
       style="fill:#808080;stroke-width:0.264583;enable-background:new"
       id="path911" />
    <path
       id="rect1406"
       style="opacity:0.4;stroke-width:1.085"
       d="m 13,6 c -3.0000004,0 -3,1 -3,4 v 10 c 0,3 -4e-7,4 3,4 h 6 c 3,0 3,-1 3,-4 V 10 C 22,7 22,6 19,6 Z m 0.06055,1 H 18.5 c 2.5,0 2.5,-1e-7 2.5,3.5 v 9 C 21,23 21,23 18.5,23 h -5 C 11,23 11,23 11,19.5 v -9 C 11,7.2187499 11.00061,7.0128164 13.060547,7 Z"
       sodipodi:nodetypes="ssssssssscsssssssc"
       transform="scale(0.26458333)" />
    <path
       id="path3136"
       style="opacity:0.4;fill:url(#linearGradient4234);fill-opacity:1;stroke-width:0.933819"
       d="M 13.060547,7 C 11.00061,7.0128175 11,7.2187499 11,10.5 v 9 c 0,3.5 0,3.5 2.5,3.5 h 5 C 21,23 21,23 21,19.5 v -9 C 21,6.9999999 21,7 18.5,7 Z m 0.443359,1 H 18.5 c 1.529621,0 1.503906,7.81e-4 1.503906,2.800781 v 8.398438 C 20.003906,21.999219 19.990522,22 18.5,22 h -4.996094 c -1.559637,0 -1.5,-7.81e-4 -1.5,-2.800781 v -8.398438 c 0,-2.6250003 -0.147949,-2.7905385 1.5,-2.800781 z"
       transform="scale(0.26458333)" />
  </g>
  <g
     id="g6876">
    <circle
       style="opacity:1;fill:#5884f4;fill-opacity:1;stroke-width:0.322957"
       id="path988"
       cx="2.9104166"
       cy="2.3812499"
       r="1.190625" />
    <path
       d="M 2.6345299,1.5875 H 3.18632 V 2.2285004 H 3.4395833 C 3.3462757,2.4364315 3.1781094,2.7300225 2.9104167,3.1751239 2.6426771,2.7299673 2.4745577,2.4361666 2.38125,2.228197 h 0.2532661 z"
       style="color:#000000;fill:#ffffff;stroke-width:0.275895"
       id="path893"
       sodipodi:nodetypes="cccccccc" />
    <path
       id="path1224"
       style="opacity:0.4;fill:#000000;fill-opacity:1;stroke-width:0.287073"
       d="M 2.9104166,1.0583333 A 1.3229166,1.3229166 0 0 0 1.5875,2.38125 1.3229166,1.3229166 0 0 0 2.9104166,3.7041666 1.3229166,1.3229166 0 0 0 4.2333333,2.38125 1.3229166,1.3229166 0 0 0 2.9104166,1.0583333 Z m 0,0.2645834 A 1.0583334,1.0583334 0 0 1 3.96875,2.38125 1.0583334,1.0583334 0 0 1 2.9104166,3.4395833 1.0583334,1.0583334 0 0 1 1.8520833,2.38125 1.0583334,1.0583334 0 0 1 2.9104166,1.3229167 Z" />
  </g>
  <path
     id="rect13250"
     style="fill:url(#linearGradient16320);fill-opacity:1;stroke-width:0.264583;stroke-linejoin:round;opacity:1"
     d="m 2.6458333,0.79375 c -1.71979143,0 -2.11666664,0.396875 -2.11666664,2.1166666 v 2.6458335 c 0,1.7197919 0.39687515,2.1166666 2.11666664,2.1166666 h 3.175 c 1.7197913,0 2.1166666,-0.3968747 2.1166666,-2.1166666 V 2.9104166 C 7.9374999,1.190625 7.5406249,0.79375 5.8208333,0.79375 Z m 0,0.2645833 h 3.175 c 1.5213541,0 1.8520833,0.3307294 1.8520833,1.8520833 v 2.6458335 c 0,1.5213542 -0.3307292,1.8520833 -1.8520833,1.8520833 h -3.175 c -1.5213541,0 -1.85208331,-0.3307291 -1.85208331,-1.8520833 V 2.9104166 c 0,-1.521354 0.33072921,-1.8520834 1.85208331,-1.8520833 z"
     sodipodi:nodetypes="ssssssssssssssssss" />
  <path
     id="rect2545"
     style="opacity:0.4;fill:#000000;stroke-width:0.387914;stroke-linejoin:round"
     d="m 2.6458333,0.52916667 c -1.91822909,0 -2.38124997,0.4630208 -2.38124997,2.38124993 V 5.55625 c 0,1.8520831 0.52916735,2.38125 2.38124997,2.38125 h 3.175 c 1.8520841,0 2.3812499,-0.5291669 2.3812499,-2.38125 V 2.9104166 c 0,-1.8520832 -0.5291666,-2.38124988 -2.3812499,-2.38124993 z m 0,0.26458333 h 3.175 c 1.7197916,0 2.1166666,0.396875 2.1166666,2.1166666 V 5.55625 c 0,1.7197917 -0.3968753,2.1166666 -2.1166666,2.1166666 h -3.175 c -1.71979162,0 -2.11666664,-0.3968749 -2.11666664,-2.1166666 V 2.9104166 c 0,-1.7197916 0.39687505,-2.1166666 2.11666664,-2.1166666 z"
     sodipodi:nodetypes="ssssssssssssssssss" />
</svg>
