<?xml version="1.0" encoding="UTF-8" standalone="no"?>
<!-- Created with Inkscape (http://www.inkscape.org/) -->

<svg
   width="32"
   height="32"
   viewBox="0 0 8.4666665 8.4666669"
   version="1.1"
   id="svg2719"
   inkscape:version="1.1.2 (0a00cf5339, 2022-02-04)"
   sodipodi:docname="visual-studio-code-insiders.svg"
   xmlns:inkscape="http://www.inkscape.org/namespaces/inkscape"
   xmlns:sodipodi="http://sodipodi.sourceforge.net/DTD/sodipodi-0.dtd"
   xmlns:xlink="http://www.w3.org/1999/xlink"
   xmlns="http://www.w3.org/2000/svg"
   xmlns:svg="http://www.w3.org/2000/svg">
  <sodipodi:namedview
     id="namedview2721"
     pagecolor="#ffffff"
     bordercolor="#666666"
     borderopacity="1.0"
     inkscape:pageshadow="2"
     inkscape:pageopacity="0.0"
     inkscape:pagecheckerboard="0"
     inkscape:document-units="px"
     showgrid="false"
     units="px"
     inkscape:zoom="12.375"
     inkscape:cx="7.5555556"
     inkscape:cy="13.777778"
     inkscape:window-width="1851"
     inkscape:window-height="1049"
     inkscape:window-x="0"
     inkscape:window-y="0"
     inkscape:window-maximized="1"
     inkscape:current-layer="svg2719" />
  <defs
     id="defs2716">
    <linearGradient
       inkscape:collect="always"
       id="linearGradient1871">
      <stop
         style="stop-color:#ffffff;stop-opacity:1;"
         offset="0"
         id="stop1867" />
      <stop
         style="stop-color:#ffffff;stop-opacity:0.1"
         offset="0.12"
         id="stop2515" />
      <stop
         style="stop-color:#ffffff;stop-opacity:0.102"
         offset="0.89999998"
         id="stop2581" />
      <stop
         style="stop-color:#ffffff;stop-opacity:0.502"
         offset="1"
         id="stop1869" />
    </linearGradient>
    <linearGradient
       inkscape:collect="always"
       xlink:href="#linearGradient1871"
       id="linearGradient16320"
       x1="10"
       y1="4"
       x2="10"
       y2="29.100245"
       gradientUnits="userSpaceOnUse"
       gradientTransform="matrix(0.26458333,0,0,0.26458333,0,-0.26458332)" />
    <linearGradient
       inkscape:collect="always"
       xlink:href="#linearGradient1309"
       id="linearGradient1311"
       x1="9.6114979"
       y1="11.497348"
       x2="6.5887842"
       y2="4.7230906"
       gradientUnits="userSpaceOnUse"
       gradientTransform="matrix(0.5555459,0,0,0.5555459,-0.47015144,-0.47029104)" />
    <linearGradient
       inkscape:collect="always"
       id="linearGradient1309">
      <stop
         style="stop-color:#ffffff;stop-opacity:1;"
         offset="0"
         id="stop1305" />
      <stop
         style="stop-color:#ffffff;stop-opacity:0;"
         offset="1"
         id="stop1307" />
    </linearGradient>
    <linearGradient
       inkscape:collect="always"
       xlink:href="#linearGradient1309"
       id="linearGradient1898"
       x1="16.097998"
       y1="18.926428"
       x2="13.229166"
       y2="8.4666672"
       gradientUnits="userSpaceOnUse"
       gradientTransform="matrix(0.5555459,0,0,0.5555459,-0.47024212,-0.47033448)" />
    <linearGradient
       inkscape:collect="always"
       xlink:href="#linearGradient1309"
       id="linearGradient3694"
       x1="48.029045"
       y1="51.705418"
       x2="35.472946"
       y2="28.286037"
       gradientUnits="userSpaceOnUse"
       gradientTransform="matrix(0.14698818,0,0,0.14698818,-0.47024212,-0.47033448)" />
  </defs>
  <path
     id="rect18683"
     style="opacity:0.1;fill:#000000;stroke-width:0.264583;stroke-linejoin:round"
     d="m 2.38125,0.92604165 c -1.45520832,0 -1.984375,0.52916665 -1.984375,1.98437495 v 3.0427085 c 0,1.5875 0.52916665,2.1166666 2.1166666,2.1166666 h 3.4395833 c 1.5875,0 2.1166667,-0.5291666 2.1166667,-2.1166666 V 3.0427083 c 0,-1.5875 -0.5291667,-2.11666665 -2.1166667,-2.11666665 z"
     sodipodi:nodetypes="sssssssss" />
  <path
     id="rect6397"
     style="fill:#4d4d4d;fill-opacity:1;stroke-width:0.255274;stroke-linejoin:round"
     d="M 0.39687499,2.6458334 C 0.396875,1.190625 0.92604165,0.66145833 2.38125,0.66145834 h 3.571875 c 1.5874999,-1e-8 2.1166666,0.52916666 2.1166668,2.11666666 l 10e-8,2.9104168 c 0,1.5874999 -0.529166,2.1166666 -2.116666,2.1166666 H 2.5135417 c -1.58750001,0 -2.11666671,-0.5291667 -2.11666671,-2.1166667 z"
     sodipodi:nodetypes="ccccccccc" />
  <path
     id="path6"
     d="M 6.6920087,2.1480417 5.6023823,1.6203605 C 5.4762671,1.5592812 5.3255287,1.585046 5.2265378,1.684603 L 1.65948,4.8971296 c -0.095945,0.087992 -0.095835,0.239916 2.382e-4,0.3277629 L 1.9510868,5.491299 c 0.078544,0.071828 0.1968319,0.077106 0.2813979,0.012594 L 6.5280493,2.2849347 c 0.1441069,-0.1099576 0.3510961,-0.00657 0.3510961,0.1753575 v -0.012727 c 0,-0.1277082 -0.072735,-0.2441256 -0.1871367,-0.2995256 z"
     style="fill:#007c64;fill-opacity:1;stroke-width:0.188984" />
  <path
     id="path12"
     d="M 6.6920087,6.3185467 5.6023823,6.8462304 c -0.1261152,0.061063 -0.2768536,0.0353 -0.3758445,-0.064243 L 1.65948,3.3745989 C 1.5635352,3.2866132 1.5636454,3.1346829 1.6597182,3.0468388 L 1.9510868,2.7804213 c 0.078544,-0.071817 0.1968319,-0.077105 0.2813979,-0.012581 l 4.2955646,3.4138041 c 0.1441069,0.1099538 0.3510961,0.00658 0.3510961,-0.1753597 v 0.012737 c 0,0.1276978 -0.072735,0.2441131 -0.1871367,0.2995269 z"
     style="fill:#00a388;fill-opacity:1;stroke-width:0.188984" />
  <path
     id="path6-3"
     style="opacity:0.2;fill:url(#linearGradient1311);fill-opacity:1;stroke-width:0.188984"
     d="m 5.4541617,1.5875435 c -0.033468,5.736e-4 -0.066704,0.00634 -0.098471,0.016938 -0.015884,0.0053 -0.031494,0.011789 -0.04651,0.019522 -0.025368,0.013068 -0.048889,0.029848 -0.070623,0.049666 -0.004,0.00364 -0.00822,0.00705 -0.012058,0.010909 l -2.04233,1.8393611 0.8202056,0.6519732 1.5525625,-1.1632739 0.045363,-1.3923684 c -0.00788,-0.00382 -0.015773,-0.0072 -0.023826,-0.010334 -0.016116,-0.00628 -0.032505,-0.011314 -0.049094,-0.014929 -0.016589,-0.00361 -0.033484,-0.00589 -0.050236,-0.00689 -0.00838,-4.998e-4 -0.01661,-7.187e-4 -0.024979,-5.737e-4 z M 2.4796602,4.158401 1.6594547,4.8970738 c -0.095945,0.087992 -0.095786,0.2400055 2.94e-4,0.327853 l 0.2913926,0.2664159 c 0.078544,0.071828 0.1967785,0.077142 0.2813446,0.012631 L 3.1603488,4.8083648 Z"
     sodipodi:nodetypes="csccccccccssccccccccc" />
  <path
     id="path16"
     d="M 5.6024439,6.8463135 C 5.4762876,6.9073385 5.3255498,6.881551 5.2265583,6.7819871 5.3485204,6.9046567 5.55708,6.8177621 5.55708,6.6442744 V 1.8223003 c 0,-0.1734909 -0.2085596,-0.2603772 -0.3305217,-0.1377 0.098992,-0.099565 0.2497293,-0.1253667 0.3758856,-0.064342 l 1.089441,0.5269562 c 0.1144844,0.055371 0.1872818,0.1718306 0.1872818,0.2995944 v 3.5729805 c 0,0.12776 -0.072797,0.2442168 -0.1872818,0.2995885 z"
     style="fill:#24bfa5;fill-opacity:1;stroke-width:0.188984" />
  <path
     id="path16-5"
     d="M 5.6024439,6.8463135 C 5.4762876,6.9073385 5.3255498,6.881551 5.2265583,6.7819871 5.3485204,6.9046567 5.55708,6.8177621 5.55708,6.6442744 V 1.8223003 c 0,-0.1734909 -0.2085596,-0.2603772 -0.3305217,-0.1377 0.098992,-0.099565 0.2497293,-0.1253667 0.3758856,-0.064342 l 1.089441,0.5269562 c 0.1144844,0.055371 0.1872818,0.1718306 0.1872818,0.2995944 v 3.5729805 c 0,0.12776 -0.072797,0.2442168 -0.1872818,0.2995885 z"
     style="opacity:0.5;fill:url(#linearGradient1898);fill-opacity:1;stroke-width:0.188984" />
  <path
     id="path12-3"
     style="opacity:0.1;fill:url(#linearGradient3694);fill-opacity:1;stroke-width:0.188984"
     d="m 2.0894192,2.7229263 c -0.049961,0.00224 -0.099103,0.021509 -0.1383756,0.057417 L 1.659651,3.0467596 c -0.096073,0.087844 -0.096232,0.239867 -2.94e-4,0.3278526 l 3.5670471,3.407428 c 0.00405,0.00406 0.00844,0.00767 0.012631,0.011488 0.123161,0.1051983 0.3180913,0.018419 0.3180913,-0.1492851 V 5.410054 L 2.2323883,2.7677118 C 2.1901054,2.735451 2.1393799,2.7206925 2.0894192,2.7229263 Z" />
  <path
     id="rect13250"
     style="opacity:0.5;fill:url(#linearGradient16320);fill-opacity:1;stroke-width:0.264583;stroke-linejoin:round"
     d="m 2.6458333,0.79375 c -1.71979143,0 -2.11666664,0.396875 -2.11666664,2.1166666 v 2.6458335 c 0,1.7197919 0.39687515,2.1166666 2.11666664,2.1166666 h 3.175 c 1.7197913,0 2.1166666,-0.3968747 2.1166666,-2.1166666 V 2.9104166 C 7.9374999,1.190625 7.5406249,0.79375 5.8208333,0.79375 Z m 0,0.2645833 h 3.175 c 1.5213541,0 1.8520833,0.3307294 1.8520833,1.8520833 v 2.6458335 c 0,1.5213542 -0.3307292,1.8520833 -1.8520833,1.8520833 h -3.175 c -1.5213541,0 -1.85208331,-0.3307291 -1.85208331,-1.8520833 V 2.9104166 c 0,-1.521354 0.33072921,-1.8520834 1.85208331,-1.8520833 z"
     sodipodi:nodetypes="ssssssssssssssssss" />
  <path
     id="rect2545"
     style="opacity:0.4;fill:#000000;stroke-width:0.387914;stroke-linejoin:round"
     d="m 2.6458333,0.52916667 c -1.91822909,0 -2.38124997,0.4630208 -2.38124997,2.38124993 V 5.55625 c 0,1.8520831 0.52916735,2.38125 2.38124997,2.38125 h 3.175 c 1.8520841,0 2.3812499,-0.5291669 2.3812499,-2.38125 V 2.9104166 c 0,-1.8520832 -0.5291666,-2.38124988 -2.3812499,-2.38124993 z m 0,0.26458333 h 3.175 c 1.7197916,0 2.1166666,0.396875 2.1166666,2.1166666 V 5.55625 c 0,1.7197917 -0.3968753,2.1166666 -2.1166666,2.1166666 h -3.175 c -1.71979162,0 -2.11666664,-0.3968749 -2.11666664,-2.1166666 V 2.9104166 c 0,-1.7197916 0.39687505,-2.1166666 2.11666664,-2.1166666 z"
     sodipodi:nodetypes="ssssssssssssssssss" />
</svg>
