<?xml version="1.0" encoding="UTF-8" standalone="no"?>
<!-- Created with Inkscape (http://www.inkscape.org/) -->

<svg
   width="32"
   height="32"
   viewBox="0 0 8.4666665 8.4666669"
   version="1.1"
   id="svg2719"
   inkscape:version="1.1.2 (0a00cf5339, 2022-02-04)"
   sodipodi:docname="yast-control-center.svg"
   xmlns:inkscape="http://www.inkscape.org/namespaces/inkscape"
   xmlns:sodipodi="http://sodipodi.sourceforge.net/DTD/sodipodi-0.dtd"
   xmlns:xlink="http://www.w3.org/1999/xlink"
   xmlns="http://www.w3.org/2000/svg"
   xmlns:svg="http://www.w3.org/2000/svg">
  <sodipodi:namedview
     id="namedview2721"
     pagecolor="#ffffff"
     bordercolor="#666666"
     borderopacity="1.0"
     inkscape:pageshadow="2"
     inkscape:pageopacity="0.0"
     inkscape:pagecheckerboard="0"
     inkscape:document-units="px"
     showgrid="false"
     units="px"
     inkscape:zoom="25.5625"
     inkscape:cx="16.841076"
     inkscape:cy="18.01467"
     inkscape:window-width="1851"
     inkscape:window-height="1049"
     inkscape:window-x="0"
     inkscape:window-y="0"
     inkscape:window-maximized="1"
     inkscape:current-layer="svg2719" />
  <defs
     id="defs2716">
    <linearGradient
       inkscape:collect="always"
       id="linearGradient1871">
      <stop
         style="stop-color:#ffffff;stop-opacity:1;"
         offset="0"
         id="stop1867" />
      <stop
         style="stop-color:#ffffff;stop-opacity:0.1"
         offset="0.12"
         id="stop2515" />
      <stop
         style="stop-color:#ffffff;stop-opacity:0.102"
         offset="0.89999998"
         id="stop2581" />
      <stop
         style="stop-color:#ffffff;stop-opacity:0.502"
         offset="1"
         id="stop1869" />
    </linearGradient>
    <linearGradient
       inkscape:collect="always"
       xlink:href="#linearGradient1871"
       id="linearGradient16320"
       x1="10"
       y1="4"
       x2="10"
       y2="29.100245"
       gradientUnits="userSpaceOnUse"
       gradientTransform="matrix(0.26458333,0,0,0.26458333,0,-0.26458332)" />
    <linearGradient
       inkscape:collect="always"
       xlink:href="#linearGradient1010"
       id="linearGradient2292"
       x1="5.8128405"
       y1="7.9366827"
       x2="2.6458333"
       y2="0.5291667"
       gradientUnits="userSpaceOnUse" />
    <linearGradient
       inkscape:collect="always"
       id="linearGradient1010">
      <stop
         style="stop-color:#c5cfd3;stop-opacity:1"
         offset="0"
         id="stop1006" />
      <stop
         style="stop-color:#8b9fa7;stop-opacity:1"
         offset="1"
         id="stop1008" />
    </linearGradient>
  </defs>
  <path
     id="rect18683"
     style="opacity:0.1;fill:#000000;stroke-width:0.264583;stroke-linejoin:round"
     d="m 2.38125,0.92604165 c -1.45520832,0 -1.984375,0.52916665 -1.984375,1.98437495 v 3.0427085 c 0,1.5875 0.52916665,2.1166666 2.1166666,2.1166666 h 3.4395833 c 1.5875,0 2.1166667,-0.5291666 2.1166667,-2.1166666 V 3.0427083 c 0,-1.5875 -0.5291667,-2.11666665 -2.1166667,-2.11666665 z"
     sodipodi:nodetypes="sssssssss" />
  <path
     id="rect6397"
     style="fill:url(#linearGradient2292);fill-opacity:1.0;stroke-width:0.255274;stroke-linejoin:round"
     d="M 0.39687499,2.6458334 C 0.396875,1.190625 0.92604165,0.66145833 2.38125,0.66145834 h 3.571875 c 1.5874999,-1e-8 2.1166666,0.52916666 2.1166668,2.11666666 l 10e-8,2.9104168 c 0,1.5874999 -0.529166,2.1166666 -2.116666,2.1166666 H 2.5135417 c -1.58750001,0 -2.11666671,-0.5291667 -2.11666671,-2.1166667 z"
     sodipodi:nodetypes="ccccccccc" />
  <path
     id="rect2545"
     style="opacity:0.4;fill:#000000;stroke-width:0.387914;stroke-linejoin:round"
     d="m 2.6458333,0.52916667 c -1.91822909,0 -2.38124997,0.4630208 -2.38124997,2.38124993 V 5.55625 c 0,1.8520831 0.52916735,2.38125 2.38124997,2.38125 h 3.175 c 1.8520841,0 2.3812499,-0.5291669 2.3812499,-2.38125 V 2.9104166 c 0,-1.8520832 -0.5291666,-2.38124988 -2.3812499,-2.38124993 z m 0,0.26458333 h 3.175 c 1.7197916,0 2.1166666,0.396875 2.1166666,2.1166666 V 5.55625 c 0,1.7197917 -0.3968753,2.1166666 -2.1166666,2.1166666 h -3.175 c -1.71979162,0 -2.11666664,-0.3968749 -2.11666664,-2.1166666 V 2.9104166 c 0,-1.7197916 0.39687505,-2.1166666 2.11666664,-2.1166666 z"
     sodipodi:nodetypes="ssssssssssssssssss" />
  <path
     id="rect13250"
     style="fill:url(#linearGradient16320);fill-opacity:1;stroke-width:0.264583;stroke-linejoin:round"
     d="m 2.6458333,0.79375 c -1.71979143,0 -2.11666664,0.396875 -2.11666664,2.1166666 v 2.6458335 c 0,1.7197919 0.39687515,2.1166666 2.11666664,2.1166666 h 3.175 c 1.7197913,0 2.1166666,-0.3968747 2.1166666,-2.1166666 V 2.9104166 C 7.9374999,1.190625 7.5406249,0.79375 5.8208333,0.79375 Z m 0,0.2645833 h 3.175 c 1.5213541,0 1.8520833,0.3307294 1.8520833,1.8520833 v 2.6458335 c 0,1.5213542 -0.3307292,1.8520833 -1.8520833,1.8520833 h -3.175 c -1.5213541,0 -1.85208331,-0.3307291 -1.85208331,-1.8520833 V 2.9104166 c 0,-1.521354 0.33072921,-1.8520834 1.85208331,-1.8520833 z"
     sodipodi:nodetypes="ssssssssssssssssss" />
  <circle
     style="fill:#2f5361;fill-opacity:1;stroke-width:0.264583;stroke-linejoin:round"
     id="path1469"
     cx="4.2333331"
     cy="4.2333331"
     r="2.9104166" />
  <path
     id="rect884"
     style="fill:#adbac0;stroke-width:0.264583;stroke-linejoin:round;fill-opacity:1"
     d="m 4.1743079,1.8607903 c -0.126066,0.00276 -0.1743348,0.030305 -0.1953371,0.2108399 l -0.00878,0.072864 c -0.021061,0.1338149 -0.025323,0.1945885 -0.1519285,0.2273763 -0.00848,0.0019 -0.01688,0.00367 -0.025321,0.00568 -0.00198,4.127e-4 -0.00364,0.00115 -0.00569,0.00155 -0.031803,0.00767 -0.063917,0.01607 -0.095085,0.025322 -0.00504,0.00171 -0.00967,0.00315 -0.01447,0.00465 -0.00474,0.00145 -0.00923,0.00265 -0.013954,0.00413 -0.1272252,0.035689 -0.1610249,-0.01465 -0.2464964,-0.1204061 l -0.04444,-0.058911 C 3.3108309,2.1505517 3.2663664,2.115287 3.2188107,2.1114211 c -0.00595,-4.842e-4 -0.012015,-4.763e-4 -0.018087,0 -0.042516,0.00334 -0.089245,0.029134 -0.153479,0.067179 C 2.8985198,2.2622751 2.8501484,2.2979745 2.932523,2.4886587 l 0.028422,0.067696 c 0.052402,0.1361148 0.079541,0.188456 -0.041341,0.294039 l 0.0031,-5.291e-4 C 2.897719,2.8735476 2.873523,2.8977416 2.84984,2.9227286 l 5.291e-4,-0.0031 c -0.105583,0.1208852 -0.1579242,0.093743 -0.294039,0.041341 l -0.067709,-0.028926 c -0.05959,-0.025744 -0.1040685,-0.038683 -0.1395264,-0.039791 -0.078005,-0.00243 -0.1130048,0.052781 -0.1705322,0.1550292 -0.086962,0.1468268 -0.111388,0.2016106 0.055294,0.3255616 l 0.058911,0.044442 c 0.1057568,0.085472 0.1560981,0.1192712 0.1204062,0.2464964 -0.00149,0.00473 -0.00268,0.00921 -0.00413,0.013954 -0.0015,0.0048 -0.00294,0.00995 -0.00465,0.014986 -0.00925,0.031167 -0.01765,0.062765 -0.025321,0.094568 -4.022e-4,0.00204 -0.00114,0.00369 -0.00155,0.00569 -0.00201,0.00844 -0.00379,0.016838 -0.00568,0.025321 -0.032791,0.1266053 -0.093561,0.1303515 -0.2273763,0.1514118 l -0.072864,0.0093 c -0.2063251,0.023997 -0.212738,0.083609 -0.2108398,0.2542452 -0.0019,0.1706362 0.00451,0.2302455 0.2108398,0.2542482 l 0.072864,0.0093 c 0.1338149,0.021061 0.1945885,0.025323 0.2273763,0.1519286 0.0019,0.00849 0.00367,0.01688 0.00568,0.025321 4.128e-4,0.00198 0.00115,0.00364 0.00155,0.00568 0.00771,0.031965 0.016015,0.063245 0.025321,0.094568 0.00179,0.00523 0.0031,0.010033 0.00465,0.014986 0.00145,0.00474 0.00265,0.00923 0.00413,0.013952 0.035689,0.1272252 -0.01465,0.1610246 -0.1204062,0.2464967 l -0.058911,0.044442 C 2.067176,5.2181297 2.0916024,5.2729167 2.178564,5.4197438 2.2622387,5.5684687 2.2979384,5.6168401 2.4886226,5.5344656 l 0.067696,-0.028422 c 0.1361145,-0.052402 0.1884565,-0.079541 0.294039,0.041341 l -5.292e-4,-0.0031 c 0.023683,0.024985 0.047877,0.049184 0.072864,0.072864 l -0.0031,-0.00103 c 0.1208852,0.1055828 0.093743,0.158441 0.041341,0.2945559 l -0.028422,0.067696 c -0.082378,0.1906812 -0.034004,0.225861 0.114721,0.3095389 0.1468268,0.086962 0.2016106,0.1113883 0.3255616,-0.055294 L 3.417236,6.1742214 C 3.502707,6.0684648 3.5365075,6.0181263 3.6637324,6.0538151 c 0.00473,0.00148 0.00921,0.00268 0.013954,0.00414 0.00495,0.00153 0.00976,0.00286 0.014986,0.00465 l -5.292e-4,-5.287e-4 c 0.031323,0.00931 0.063119,0.018129 0.095085,0.025839 0.00204,3.968e-4 0.00369,0.00114 0.00569,0.00156 0.00844,0.00201 0.016838,0.00379 0.025321,0.00568 0.126605,0.032791 0.1308682,0.093045 0.1519285,0.2268595 l 0.00878,0.073381 c 0.024,0.2063253 0.083609,0.2122213 0.2542481,0.2103231 0.1706365,0.00191 0.2307625,-0.004 0.254765,-0.2103231 l 0.00878,-0.073381 C 4.5178078,6.188201 4.5220678,6.127944 4.6486727,6.0951563 c 0.00848,-0.0019 0.01688,-0.00368 0.025321,-0.00568 0.00198,-4.233e-4 0.00364,-0.00116 0.00568,-0.00156 0.031965,-0.00771 0.063245,-0.016534 0.094568,-0.025839 v 5.291e-4 c 0.00523,-0.0018 0.01003,-0.00311 0.014986,-0.00465 0.00474,-0.00146 0.00923,-0.00265 0.013952,-0.00414 0.1272251,-0.035689 0.1610249,0.01465 0.2464967,0.1204063 l 0.044441,0.058394 C 5.2180677,6.3992977 5.272855,6.3748711 5.4196818,6.2879094 5.5684067,6.204235 5.616781,6.1690517 5.5344035,5.9783676 L 5.5059815,5.9106716 C 5.4535791,5.7745567 5.4264406,5.7216985 5.5473226,5.6161157 l -0.0031,0.00103 c 0.024985,-0.023683 0.049184,-0.048394 0.072864,-0.073381 l -0.00103,0.00362 c 0.1055799,-0.1208861 0.158438,-0.093744 0.2945529,-0.041342 l 0.067696,0.028422 C 6.1689897,5.6168423 6.2041727,5.5684682 6.2878474,5.419743 6.3748091,5.2729162 6.3992357,5.2181321 6.2325537,5.0941814 L 6.1741594,5.0497399 C 6.0684028,4.9642681 6.0180611,4.9304684 6.0537531,4.8032432 c 0.00148,-0.00473 0.00268,-0.00922 0.00414,-0.013952 0.00153,-0.00495 0.00287,-0.00976 0.00465,-0.014986 0.00931,-0.031323 0.017611,-0.062602 0.025321,-0.094568 3.969e-4,-0.00204 0.00114,-0.00369 0.00156,-0.00568 0.00201,-0.00844 0.00379,-0.016838 0.00568,-0.025321 0.032791,-0.126605 0.093561,-0.1308682 0.2273763,-0.1519285 l 0.072864,-0.00878 c 0.2063411,-0.024001 0.2122374,-0.084126 0.210339,-0.254766 0.0019,-0.1706364 -0.004,-0.2302454 -0.2103231,-0.2542482 l -0.072864,-0.00878 C 6.1886821,3.9491621 6.1279084,3.9448997 6.0951207,3.8182945 c -0.00191,-0.00848 -0.00368,-0.01688 -0.00568,-0.025321 -4.233e-4,-0.00198 -0.00116,-0.00364 -0.00156,-0.00569 -0.00767,-0.031803 -0.016071,-0.063401 -0.025321,-0.094568 v -5.291e-4 c -0.00172,-0.00504 -0.00315,-0.00967 -0.00465,-0.01447 -0.00146,-0.00474 -0.00265,-0.00923 -0.00414,-0.013954 C 6.0180807,3.5365375 6.0684197,3.5027375 6.174176,3.417266 L 6.23257,3.372824 C 6.3992516,3.2488807 6.374825,3.1940937 6.2878633,3.0472669 6.2303357,2.9450187 6.1958534,2.8897954 6.1178479,2.8922377 c -0.035455,0.00111 -0.079936,0.014563 -0.1395265,0.040307 l -0.067696,0.028422 C 5.7745108,3.0133695 5.7216526,3.0405081 5.6160696,2.9196261 l 0.00103,0.0031 c -0.023681,-0.024984 -0.047876,-0.049183 -0.072862,-0.072863 l 0.0031,5.292e-4 C 5.4264636,2.7448021 5.4536072,2.6924699 5.5060095,2.5563551 l 0.028422,-0.067696 C 5.6168091,2.2979748 5.568435,2.2622751 5.4197098,2.1786004 5.3462948,2.1351196 5.2956999,2.1075582 5.2481442,2.1114211 c -0.047556,0.00386 -0.092021,0.039131 -0.153996,0.1224731 l -0.044441,0.058911 C 4.9642352,2.398562 4.9304354,2.4489033 4.8032105,2.4132113 c -0.00473,-0.00149 -0.00921,-0.00268 -0.013951,-0.00413 -0.00496,-0.00155 -0.00976,-0.00286 -0.014986,-0.00465 -0.031323,-0.00931 -0.062603,-0.01761 -0.094568,-0.025322 -0.00204,-4.021e-4 -0.00369,-0.00114 -0.00568,-0.00155 -0.00844,-0.00201 -0.016838,-0.00379 -0.025321,-0.00568 C 4.5220945,2.3390873 4.5178363,2.2783183 4.496776,2.144503 L 4.487996,2.071639 C 4.4639899,1.8653019 4.4038554,1.8588922 4.233219,1.8607903 c -0.021331,-2.371e-4 -0.040902,-3.942e-4 -0.058911,0 z m 0.058911,0.9808186 c 0.160247,9.5e-6 0.3152095,0.027754 0.4599201,0.078548 A 0.37963475,0.37963475 0 0 0 4.8662552,3.137715 0.37963475,0.37963475 0 0 0 5.1406572,3.178539 C 5.3685452,3.3743894 5.5334029,3.6437773 5.59696,3.9552358 5.61298,4.0336938 5.553531,4.1071706 5.4734533,4.1071646 H 5.0817459 C 5.025772,4.1071697 4.9762986,4.0703704 4.9603064,4.0167312 4.864319,3.6947692 4.5696491,3.4746031 4.2337357,3.4741284 c -0.059017,3.175e-4 -0.117833,0.00777 -0.175183,0.021704 -0.054582,0.013256 -0.1114364,-0.011306 -0.1395264,-0.059945 L 3.7236894,3.0974073 c -0.039953,-0.069239 -0.00652,-0.157965 0.069247,-0.1834512 0.1418791,-0.047758 0.2905868,-0.071936 0.4402825,-0.072347 z M 3.4007117,3.1609695 c 0.04306,0.00201 0.082319,0.025712 0.1038696,0.063045 l 0.1953369,0.3384807 c 0.028012,0.048514 0.02096,0.1097129 -0.017571,0.1503783 -0.133277,0.1406737 -0.2078609,0.3266099 -0.2082562,0.5203817 2.215e-4,0.1938891 0.074456,0.3805706 0.2077395,0.5214152 0.038501,0.040652 0.046069,0.1018799 0.018087,0.1503783 L 3.5045805,5.242496 C 3.4645639,5.311811 3.3712549,5.3270507 3.3113106,5.2740187 3.0785249,5.0681618 2.9235749,4.792245 2.8663765,4.4916373 A 0.37963475,0.37963475 0 0 0 2.9681799,4.2332553 0.37963475,0.37963475 0 0 0 2.8663772,3.97539 c 0.057088,-0.3007402 0.2115842,-0.5768829 0.4444175,-0.7828981 0.02467,-0.021828 0.057012,-0.033063 0.089917,-0.031522 z m 1.6810342,1.1988932 h 0.3901572 c 0.080077,-7.7e-6 0.1400472,0.07347 0.1240235,0.1519285 -0.063538,0.3112783 -0.2285918,0.5803519 -0.4563031,0.7761801 a 0.37963475,0.37963475 0 0 0 -0.092501,-0.0093 0.37963475,0.37963475 0 0 0 -0.1808676,0.050643 0.37963475,0.37963475 0 0 0 -0.1725993,0.2170412 c -0.1447546,0.05101 -0.299562,0.078891 -0.4599199,0.079062 -1.897e-4,8e-7 -8.202e-4,8e-7 -0.00103,0 C 4.0830708,5.6248353 3.934693,5.5999248 3.7929375,5.5520368 3.7172603,5.526486 3.6837786,5.4382908 3.723691,5.3691023 L 3.9190263,5.0311394 c 0.028091,-0.048637 0.084944,-0.0732 0.1395264,-0.059945 0.057388,0.013941 0.1161275,0.020873 0.175183,0.021188 0.3360084,-3.44e-4 0.6310714,-0.2200294 0.7270874,-0.542086 0.015991,-0.053639 0.064949,-0.09044 0.1209228,-0.090434 z" />
  <path
     id="rect989"
     style="fill:#8b9fa7;stroke-width:0.264583;stroke-linejoin:round;fill-opacity:1"
     d="M 5.0471228,2.6188836 A 0.18981737,0.18981737 0 0 0 4.8915766,2.7139681 0.18981737,0.18981737 0 0 0 4.9613398,2.9728671 0.18981737,0.18981737 0 0 0 5.2202389,2.9036206 0.18981737,0.18981737 0 0 0 5.1509924,2.644205 0.18981737,0.18981737 0 0 0 5.0471228,2.6188836 Z M 2.5883581,4.0436028 A 0.18981737,0.18981737 0 0 0 2.3987056,4.2332553 0.18981737,0.18981737 0 0 0 2.5883581,4.4234246 0.18981737,0.18981737 0 0 0 2.7780106,4.2332553 0.18981737,0.18981737 0 0 0 2.5883581,4.0436028 Z m 2.4634155,1.4247193 a 0.18981737,0.18981737 0 0 0 -0.090434,0.025321 0.18981737,0.18981737 0 0 0 -0.069763,0.2594158 0.18981737,0.18981737 0 0 0 0.2594158,0.069246 0.18981737,0.18981737 0 0 0 0.069246,-0.2594155 0.18981737,0.18981737 0 0 0 -0.1684648,-0.094567 z" />
  <path
     id="rect1112"
     style="opacity:0.1;fill:#000000;stroke-width:0.264583;stroke-linejoin:round"
     d="m 4.233219,2.5883945 c -0.778536,0 -1.4304799,0.5413922 -1.6009359,1.2681397 0.089689,0.010501 0.1726693,0.052663 0.2340941,0.1188558 0.057088,-0.3007405 0.2115844,-0.5768829 0.4444175,-0.7828981 0.02467,-0.021828 0.057012,-0.033063 0.089917,-0.031522 0.04306,0.00201 0.082319,0.025712 0.1038696,0.063045 l 0.1953369,0.3384807 c 0.028012,0.048514 0.02096,0.1097129 -0.017571,0.1503783 -0.133277,0.1406737 -0.2078609,0.3266099 -0.2082562,0.5203817 2.215e-4,0.1938891 0.074456,0.3805706 0.2077395,0.5214152 0.038501,0.040652 0.046066,0.1018799 0.018087,0.1503783 L 3.5045805,5.242496 C 3.4645639,5.311811 3.3712549,5.3270507 3.3113106,5.2740187 3.0785249,5.0681618 2.9235749,4.792245 2.8663765,4.4916373 2.8049515,4.5578273 2.7219708,4.59999 2.6322823,4.6104932 c 0.1705264,0.7266525 0.822464,1.2681397 1.6009367,1.2681397 0.1650018,0 0.3246027,-0.024508 0.4749064,-0.069763 -0.035837,-0.082941 -0.041056,-0.1761651 -0.01447,-0.2625162 -0.1447546,0.051013 -0.2995625,0.078894 -0.4599201,0.079065 -1.9e-4,7e-7 -8.202e-4,7e-7 -0.00103,0 C 4.0830703,5.6248364 3.9346925,5.5999259 3.792937,5.5520379 3.7172598,5.526487 3.6837783,5.4382916 3.7236905,5.3691034 l 0.1953358,-0.337964 c 0.028091,-0.048637 0.084944,-0.0732 0.1395264,-0.059945 0.057388,0.013941 0.1161277,0.021389 0.175183,0.021704 0.3360084,-3.44e-4 0.6310714,-0.2205461 0.7270874,-0.5426027 0.015991,-0.053639 0.064949,-0.09044 0.1209228,-0.090434 h 0.3901572 c 0.080078,-7.4e-6 0.1400472,0.073471 0.1240235,0.1519286 -0.063538,0.3112783 -0.2285918,0.5803519 -0.4563031,0.77618 0.088227,0.019902 0.1665227,0.070691 0.2206585,0.1431438 0.3189251,-0.300088 0.5183145,-0.7256568 0.5183145,-1.1978592 0,-0.4722971 -0.1997924,-0.8977585 -0.5188315,-1.1978597 -0.05388,0.072191 -0.1313013,0.1230329 -0.2191078,0.1431442 0.2278886,0.1958504 0.3932624,0.4652383 0.4568196,0.7766968 0.01602,0.078458 -0.043946,0.1519348 -0.1240235,0.1519288 H 5.0817459 C 5.025772,4.1071697 4.9762986,4.0703704 4.9603064,4.0167312 4.864319,3.6947692 4.5696494,3.4746031 4.2337357,3.4741284 4.1747183,3.4744459 4.115903,3.4819019 4.0585527,3.4958322 4.0039707,3.5090878 3.947116,3.4845266 3.9190263,3.4358874 L 3.7236894,3.0974073 c -0.039953,-0.069239 -0.00652,-0.157965 0.069246,-0.1834512 0.1418786,-0.047758 0.2905866,-0.071936 0.4402831,-0.072347 0.1602467,9.5e-6 0.3152097,0.027754 0.4599201,0.078548 -0.026405,-0.086221 -0.02131,-0.1792264 0.01447,-0.2619994 C 4.5573507,2.6129383 4.398148,2.5883945 4.233219,2.5883945 Z" />
  <circle
     style="fill:#c5cfd3;fill-opacity:1;stroke-width:0.264583;stroke-linejoin:round"
     id="path1113"
     cx="4.2333336"
     cy="4.2333331"
     r="0.5291667" />
</svg>
