<?xml version="1.0" encoding="UTF-8" standalone="no"?>
<!-- Created with Inkscape (http://www.inkscape.org/) -->

<svg
   width="32"
   height="32"
   viewBox="0 0 8.4666665 8.4666669"
   version="1.1"
   id="svg2719"
   inkscape:version="1.1.2 (0a00cf5339, 2022-02-04)"
   sodipodi:docname="yast-online.svg"
   xmlns:inkscape="http://www.inkscape.org/namespaces/inkscape"
   xmlns:sodipodi="http://sodipodi.sourceforge.net/DTD/sodipodi-0.dtd"
   xmlns:xlink="http://www.w3.org/1999/xlink"
   xmlns="http://www.w3.org/2000/svg"
   xmlns:svg="http://www.w3.org/2000/svg">
  <sodipodi:namedview
     id="namedview2721"
     pagecolor="#ffffff"
     bordercolor="#666666"
     borderopacity="1.0"
     inkscape:pageshadow="2"
     inkscape:pageopacity="0.0"
     inkscape:pagecheckerboard="0"
     inkscape:document-units="px"
     showgrid="false"
     units="px"
     inkscape:zoom="24.65625"
     inkscape:cx="16"
     inkscape:cy="16"
     inkscape:window-width="1851"
     inkscape:window-height="1049"
     inkscape:window-x="0"
     inkscape:window-y="0"
     inkscape:window-maximized="1"
     inkscape:current-layer="svg2719"
     showguides="false" />
  <defs
     id="defs2716">
    <linearGradient
       inkscape:collect="always"
       id="linearGradient1871">
      <stop
         style="stop-color:#ffffff;stop-opacity:1;"
         offset="0"
         id="stop1867" />
      <stop
         style="stop-color:#ffffff;stop-opacity:0.1"
         offset="0.12"
         id="stop2515" />
      <stop
         style="stop-color:#ffffff;stop-opacity:0.102"
         offset="0.89999998"
         id="stop2581" />
      <stop
         style="stop-color:#ffffff;stop-opacity:0.502"
         offset="1"
         id="stop1869" />
    </linearGradient>
    <linearGradient
       inkscape:collect="always"
       xlink:href="#linearGradient1871"
       id="linearGradient16320"
       x1="10"
       y1="4"
       x2="10"
       y2="29.100245"
       gradientUnits="userSpaceOnUse"
       gradientTransform="matrix(0.26458333,0,0,0.26458333,0,-0.26458332)" />
  </defs>
  <path
     id="rect18683"
     style="opacity:0.1;fill:#000000;stroke-width:0.264583;stroke-linejoin:round"
     d="m 2.38125,0.92604165 c -1.45520832,0 -1.984375,0.52916665 -1.984375,1.98437495 v 3.0427085 c 0,1.5875 0.52916665,2.1166666 2.1166666,2.1166666 h 3.4395833 c 1.5875,0 2.1166667,-0.5291666 2.1166667,-2.1166666 V 3.0427083 c 0,-1.5875 -0.5291667,-2.11666665 -2.1166667,-2.11666665 z"
     sodipodi:nodetypes="sssssssss" />
  <path
     id="rect6397"
     style="fill:#ebebeb;fill-opacity:1;stroke-width:0.255274;stroke-linejoin:round"
     d="M 0.39687499,2.6458334 C 0.396875,1.190625 0.92604165,0.66145833 2.38125,0.66145834 h 3.571875 c 1.5874999,-1e-8 2.1166666,0.52916666 2.1166668,2.11666666 l 10e-8,2.9104168 c 0,1.5874999 -0.529166,2.1166666 -2.116666,2.1166666 H 2.5135417 c -1.58750001,0 -2.11666671,-0.5291667 -2.11666671,-2.1166667 z"
     sodipodi:nodetypes="ccccccccc" />
  <path
     id="rect2161"
     style="fill:#4d4d4d;fill-opacity:1;stroke-width:2;stroke-linecap:round;stroke-linejoin:round"
     d="M 6.671875 2.6523438 C 3.1997636 3.1694015 1.7225684 5.0514003 1.5234375 9.0136719 L 3.5 10.5 L 5.1035156 9 L 5.1289062 9 C 5.0392183 9.5644325 5 10.224746 5 11 L 5 21 C 5.0000004 25 6.0000001 26 10 26 L 22 26 C 22.971864 26 23.763802 25.939719 24.410156 25.792969 L 26.5 27 L 25.326172 29.347656 L 25.328125 29.347656 C 28.800236 28.830598 30.277433 26.9486 30.476562 22.986328 L 28.5 21.5 L 26.896484 23 L 26.871094 23 C 26.960782 22.435567 27 21.775254 27 21 L 27 11 C 27 6.9999999 26 6 22 6 L 10 6 C 9.0281364 6 8.2361985 6.0602807 7.5898438 6.2070312 L 5.5 5 L 6.6738281 2.6523438 L 6.671875 2.6523438 z M 5.4511719 7.8398438 C 5.4321231 7.8837056 5.4121944 7.9268704 5.3945312 7.9726562 C 5.4121832 7.9268302 5.4321337 7.8837429 5.4511719 7.8398438 z M 5.2714844 8.3476562 C 5.2617148 8.3825557 5.2513598 8.4153138 5.2421875 8.4511719 C 5.2513234 8.415391 5.2617547 8.3824828 5.2714844 8.3476562 z M 26.757812 23.548828 C 26.748677 23.584609 26.738245 23.617517 26.728516 23.652344 C 26.738285 23.617444 26.74864 23.584686 26.757812 23.548828 z M 26.605469 24.027344 C 26.587817 24.07317 26.567866 24.116257 26.548828 24.160156 C 26.567877 24.116294 26.587806 24.07313 26.605469 24.027344 z "
     transform="scale(0.26458333)" />
  <path
     d="M 2.6458333,1.5875 C 1.5875,1.5875 1.3229167,1.8520834 1.3229167,2.9104167 V 5.55625 c 1e-7,1.0583334 0.2645833,1.3229167 1.3229166,1.3229167 h 3.1750001 c 1.0583333,0 1.3229167,-0.2645833 1.3229167,-1.3229167 V 2.9104167 C 7.1437501,1.8520833 6.8791667,1.5875 5.8208334,1.5875 Z"
     style="fill:#babeb4;fill-opacity:1;stroke-width:0.529167;stroke-linecap:round;stroke-linejoin:round;opacity:0.1"
     id="path2276" />
  <path
     id="rect1372"
     style="opacity:0.1;fill:#ffffff;fill-opacity:1;stroke-width:0.264583;stroke-linejoin:round"
     d="m 0.396875,4.2333333 v 1.4552084 c 0,1.5874998 0.5291666,2.1166668 2.1166666,2.1166668 h 3.4395833 c 1.5875,0 2.1166666,-0.529167 2.1166666,-2.1166668 V 4.2333333 Z" />
  <path
     d="M 3.8314842,2.1166667 3.3572979,3.1612682 2.8967907,4.26085 2.4204084,5.2195148 2.06375,6.0854167 h 0.9041871 l 0.3271044,-0.8987896 1.8918237,0.1050396 0.3439584,0.79375 H 6.4313065 L 6.0413371,5.2332732 5.5762525,4.2814611 5.1226508,3.1750265 4.6416383,2.1166667 H 4.2343388 Z M 4.5598821,3.8553496 5.0593096,5.1749325 3.4345827,5.1131021 3.8697694,3.9584869 4.2343123,3.0896481 v -0.00534 l 0.3255433,0.7710227 z"
     style="fill:#ececec;stroke-width:0.264583;enable-background:new"
     id="path1099" />
  <path
     d="M 4.6416541,2.1166667 4.2434562,3.095625 4.8031029,4.4979167 5.059336,4.9102434 5.9285716,4.9337119 5.5762524,4.2814611 5.1226508,3.1750265 4.6416383,2.1166667 Z m -0.1362419,3.1445729 0.6982355,0.047501 0.3269456,0.7765521 h 0.899795 l -0.3366294,-0.7743296 -0.00733,-0.01942 z"
     style="opacity:0.2;fill:#4d4d4d;stroke-width:0.264583;enable-background:new;fill-opacity:1"
     id="path1214" />
  <path
     id="rect3097"
     style="opacity:1;fill:#ececec;stroke-width:0.287073"
     d="m 2.2489583,4.4979167 h 3.9687498 c 0.2198688,0 0.396875,0.1770062 0.396875,0.396875 0,0.2198687 -0.1770062,0.396875 -0.396875,0.396875 H 2.2489583 c -0.2198687,0 -0.396875,-0.1770063 -0.396875,-0.396875 0,-0.2198688 0.1770063,-0.396875 0.396875,-0.396875 z" />
  <path
     id="rect3386"
     style="opacity:1;fill:#999999;stroke-width:0.287073"
     d="m 2.2489584,4.7625 h 3.9687501 c 0.07329,0 0.1322916,0.059002 0.1322916,0.1322917 0,0.07329 -0.059002,0.1322916 -0.1322916,0.1322916 H 2.2489584 c -0.07329,0 -0.1322917,-0.059002 -0.1322917,-0.1322916 0,-0.07329 0.059002,-0.1322917 0.1322917,-0.1322917 z"
     sodipodi:nodetypes="sssssss" />
  <path
     id="rect4166"
     style="opacity:1;fill:#00a489;stroke-width:0.287073;fill-opacity:1"
     d="m 2.2489585,4.7624998 h 2.6458332 c 0.07329,0 0.1322917,0.059002 0.1322917,0.1322917 0,0.07329 -0.059002,0.1322917 -0.1322917,0.1322917 H 2.2489585 c -0.07329,0 -0.1322917,-0.059002 -0.1322917,-0.1322917 0,-0.07329 0.059002,-0.1322917 0.1322917,-0.1322917 z" />
  <path
     id="rect13250"
     style="fill:url(#linearGradient16320);fill-opacity:1;stroke-width:0.264583;stroke-linejoin:round"
     d="m 2.6458333,0.79375 c -1.71979143,0 -2.11666664,0.396875 -2.11666664,2.1166666 v 2.6458335 c 0,1.7197919 0.39687515,2.1166666 2.11666664,2.1166666 h 3.175 c 1.7197913,0 2.1166666,-0.3968747 2.1166666,-2.1166666 V 2.9104166 C 7.9374999,1.190625 7.5406249,0.79375 5.8208333,0.79375 Z m 0,0.2645833 h 3.175 c 1.5213541,0 1.8520833,0.3307294 1.8520833,1.8520833 v 2.6458335 c 0,1.5213542 -0.3307292,1.8520833 -1.8520833,1.8520833 h -3.175 c -1.5213541,0 -1.85208331,-0.3307291 -1.85208331,-1.8520833 V 2.9104166 c 0,-1.521354 0.33072921,-1.8520834 1.85208331,-1.8520833 z"
     sodipodi:nodetypes="ssssssssssssssssss" />
  <path
     id="rect2545"
     style="opacity:0.4;fill:#000000;stroke-width:0.387914;stroke-linejoin:round"
     d="m 2.6458333,0.52916667 c -1.91822909,0 -2.38124997,0.4630208 -2.38124997,2.38124993 V 5.55625 c 0,1.8520831 0.52916735,2.38125 2.38124997,2.38125 h 3.175 c 1.8520841,0 2.3812499,-0.5291669 2.3812499,-2.38125 V 2.9104166 c 0,-1.8520832 -0.5291666,-2.38124988 -2.3812499,-2.38124993 z m 0,0.26458333 h 3.175 c 1.7197916,0 2.1166666,0.396875 2.1166666,2.1166666 V 5.55625 c 0,1.7197917 -0.3968753,2.1166666 -2.1166666,2.1166666 h -3.175 c -1.71979162,0 -2.11666664,-0.3968749 -2.11666664,-2.1166666 V 2.9104166 c 0,-1.7197916 0.39687505,-2.1166666 2.11666664,-2.1166666 z"
     sodipodi:nodetypes="ssssssssssssssssss" />
</svg>
